<svg width="21" height="21" viewBox="0 0 21 21" fill="none" xmlns="http://www.w3.org/2000/svg">
<g clip-path="url(#clip0)">
<path d="M5.5501 4.31261L4.31285 3.07536C3.9716 2.73367 3.41685 2.73367 3.0756 3.07536C2.73391 3.41704 2.73391 3.97092 3.0756 4.31261L4.31285 5.54986C4.48348 5.72092 4.70748 5.80623 4.93148 5.80623C5.15548 5.80623 5.37948 5.72092 5.5501 5.54986C5.89179 5.20817 5.89179 4.65429 5.5501 4.31261Z" fill="white"/>
<path d="M2.625 9.62512H0.875C0.392 9.62512 0 10.0171 0 10.5001C0 10.9831 0.392 11.3751 0.875 11.3751H2.625C3.108 11.3751 3.5 10.9831 3.5 10.5001C3.5 10.0171 3.108 9.62512 2.625 9.62512Z" fill="white"/>
<path d="M5.5501 15.4496C5.20885 15.1079 4.6541 15.1079 4.31285 15.4496L3.0756 16.6869C2.73391 17.0286 2.73391 17.5824 3.0756 17.9241C3.24623 18.0952 3.47023 18.1805 3.69423 18.1805C3.91823 18.1805 4.14223 18.0952 4.31285 17.9241L5.5501 16.6869C5.89179 16.3452 5.89179 15.7913 5.5501 15.4496Z" fill="white"/>
<path d="M10.5 17.5001C10.017 17.5001 9.625 17.8921 9.625 18.3751V20.1251C9.625 20.6081 10.017 21.0001 10.5 21.0001C10.983 21.0001 11.375 20.6081 11.375 20.1251V18.3751C11.375 17.8921 10.983 17.5001 10.5 17.5001Z" fill="white"/>
<path d="M17.9241 16.6869L16.6869 15.4496C16.3456 15.1079 15.7909 15.1079 15.4496 15.4496C15.1079 15.7913 15.1079 16.3452 15.4496 16.6869L16.6869 17.9241C16.8575 18.0952 17.0815 18.1805 17.3055 18.1805C17.5295 18.1805 17.7535 18.0952 17.9241 17.9241C18.2658 17.5824 18.2658 17.0286 17.9241 16.6869Z" fill="white"/>
<path d="M20.125 9.62512H18.375C17.892 9.62512 17.5 10.0171 17.5 10.5001C17.5 10.9831 17.892 11.3751 18.375 11.3751H20.125C20.608 11.3751 21 10.9831 21 10.5001C21 10.0171 20.608 9.62512 20.125 9.62512Z" fill="white"/>
<path d="M17.9241 3.07536C17.5829 2.73367 17.0281 2.73367 16.6869 3.07536L15.4496 4.31261C15.1079 4.65429 15.1079 5.20817 15.4496 5.54986C15.6203 5.72092 15.8443 5.80623 16.0683 5.80623C16.2923 5.80623 16.5163 5.72092 16.6869 5.54986L17.9241 4.31261C18.2658 3.97092 18.2658 3.41704 17.9241 3.07536Z" fill="white"/>
<path d="M10.5 0C10.017 0 9.625 0.392 9.625 0.875V2.625C9.625 3.108 10.017 3.5 10.5 3.5C10.983 3.5 11.375 3.108 11.375 2.625V0.875C11.375 0.392 10.983 0 10.5 0Z" fill="white"/>
<path d="M10.5 4.81238C7.364 4.81238 4.8125 7.36388 4.8125 10.4999C4.8125 13.6359 7.364 16.1874 10.5 16.1874C13.636 16.1874 16.1875 13.6359 16.1875 10.4999C16.1875 7.36388 13.636 4.81238 10.5 4.81238ZM10.5 14.4374C8.32912 14.4374 6.5625 12.6708 6.5625 10.4999C6.5625 8.329 8.32912 6.56238 10.5 6.56238C12.6709 6.56238 14.4375 8.329 14.4375 10.4999C14.4375 12.6708 12.6709 14.4374 10.5 14.4374Z" fill="white"/>
</g>
<defs>
<clipPath id="clip0">
<rect width="21" height="21" fill="white"/>
</clipPath>
</defs>
</svg>
