<svg width="19" height="20" viewBox="0 0 19 20" fill="none" xmlns="http://www.w3.org/2000/svg">
<path d="M15.3581 5.74359C15.6753 5.74359 15.9325 5.48813 15.9325 5.17303C15.9325 4.22922 16.7055 3.46137 17.6556 3.46137C17.9728 3.46137 18.2299 3.20591 18.2299 2.89081C18.2299 2.57571 17.9728 2.32026 17.6556 2.32026C16.7215 2.32026 15.9325 1.51901 15.9325 0.570555C15.9325 0.255457 15.6753 0 15.3581 0C15.0409 0 14.7838 0.255457 14.7838 0.570555C14.7838 1.51901 13.9947 2.32026 13.0607 2.32026C12.7435 2.32026 12.4863 2.57571 12.4863 2.89081C12.4863 3.20591 12.7435 3.46137 13.0607 3.46137C14.0108 3.46137 14.7838 4.22922 14.7838 5.17303C14.7838 5.48813 15.0409 5.74359 15.3581 5.74359ZM14.7741 2.88511C14.9955 2.71736 15.1901 2.52117 15.3581 2.29633C15.5261 2.52113 15.7207 2.71736 15.9422 2.88511C15.7208 3.04912 15.524 3.24406 15.3581 3.46338C15.1923 3.24403 14.9954 3.04912 14.7741 2.88511Z" fill="#43204C"/>
<path d="M11.5714 3.90541C11.5714 3.58983 11.3156 3.33398 11 3.33398C10.6844 3.33398 10.4286 3.58983 10.4286 3.90541C10.4286 5.48084 9.14686 6.76256 7.57143 6.76256C7.25585 6.76256 7 7.0184 7 7.33398C7 7.64957 7.25585 7.90541 7.57143 7.90541C9.14686 7.90541 10.4286 9.18713 10.4286 10.7626C10.4286 11.0781 10.6844 11.334 11 11.334C11.3156 11.334 11.5714 11.0781 11.5714 10.7626C11.5714 9.18713 12.8531 7.90541 14.4286 7.90541C14.7442 7.90541 15 7.64957 15 7.33398C15 7.0184 14.7442 6.76256 14.4286 6.76256C12.8531 6.76256 11.5714 5.48084 11.5714 3.90541ZM11 8.70435C10.6621 8.14351 10.1905 7.67193 9.62968 7.33398C10.1905 6.99604 10.6621 6.52446 11 5.96362C11.3379 6.52446 11.8095 6.99604 12.3703 7.33398C11.8095 7.67193 11.3379 8.14347 11 8.70435Z" fill="#43204C"/>
<path d="M9.33332 19.6667C14.0232 19.6667 18.0407 16.1476 18.6616 11.5985C18.6961 11.3459 18.5514 11.1029 18.3128 11.0129C18.0743 10.9229 17.8052 11.0096 17.6641 11.2221C16.4604 13.0351 14.316 14.1615 12.0677 14.1615C8.44913 14.1615 5.5052 11.2175 5.5052 7.59897C5.5052 5.35066 6.63151 3.20622 8.44461 2.00251C8.65702 1.86149 8.74383 1.59236 8.65377 1.35381C8.56376 1.11526 8.32087 0.970596 8.06814 1.00505C3.51308 1.62685 0 5.64973 0 10.3333C0 15.4725 4.19453 19.6667 9.33332 19.6667ZM6.13323 2.66445C5.04233 4.0374 4.41145 5.79027 4.41145 7.59897C4.41145 11.8206 7.84604 15.2552 12.0677 15.2552C13.8764 15.2552 15.6292 14.6243 17.0022 13.5334C15.7286 16.5138 12.7333 18.5729 9.33332 18.5729C4.79 18.5729 1.09375 14.8767 1.09375 10.3333C1.09375 6.93339 3.15288 3.93801 6.13323 2.66445Z" fill="#43204C"/>
</svg>
