<svg width="34" height="40" viewBox="0 0 34 40" fill="none" xmlns="http://www.w3.org/2000/svg"><path d="m9.4 1.8 4 2.4L15.9 0l1 5.6 3.8-1.3-2 3 .8-2-3.2 1.5-.9-3.8L14 5.8l-2.5-1.6-.1-.1.4 3.2-2.3-5.5ZM.2 16.5l-.2-.3V16l.5-.8.4-.2.2.1L6 18.2l-.6.9-.3.6-4.8-3.2ZM9.4 16.3c-1.4 0-2.5-.9-3-2.1a3.3 3.3 0 0 1 3-4.7c1.4 0 2.5.8 3 2 .4 1 .4 1.8 0 2.7a3.3 3.3 0 0 1-3 2ZM22.6 23.2c-2.9 0-5.5-1.9-6.7-4.7a7.4 7.4 0 0 1 6.8-10.3c3 0 5.5 1.7 6.6 4.6.8 1.8.8 3.9 0 5.7a7.3 7.3 0 0 1-6.7 4.7ZM13 34l-.2-.3c-1.2-1.9-5.1-9.2-6-11a3.2 3.2 0 0 1 0-2.8c.5-1 1.4-1.8 2.3-2l1.2-.1c2.6 0 3.4 2 4 3.5l2 4.3L13 34ZM31.5 39.9c-.5 0-.7-.4-1-1.1l-.2-.3c-1-1.4-3.3-4.6-3.8-5.5-.3-.4-.5-.8-.8-.8h-.1l-1.7.6c-1.5.6-3.8 1.4-5.7 1.9l2.5-6.6c1 0 2-.2 3-.4h.1a25 25 0 0 1 3-.2c.6 0 1 .4 1.2.7l5.4 8.4.2.4c.6 1 .7 1.3-.6 2.2-.7.5-1.2.7-1.5.7ZM14 40H14l-.8-.4c-.2 0-.2 0-.3-.2v-.3L18 25.5c0-.2.2-.3.4-.3h.1l.9.4s.2 0 .2.2v.3l-5.1 13.6c-.1.2-.3.3-.4.3Z" fill="currentColor"/></svg>
