<svg width="49" height="28" viewBox="0 0 49 28" fill="none" xmlns="http://www.w3.org/2000/svg"><path d="M28.4 20.9s.1-1.5-.2-1.8a4 4 0 0 1-1.1-1.4c-.3-.7-.8-1.5-2.6-2.1-1.7-.7-5.7-2-10.2-2.8 0 0-7-4.8-12.4-6.2-.5-.1-1.2-.3-1.9-.3v2c1.3.2 3 .6 4.9 1.4 4.2 1.8 7.4 5 7.4 5s0 .7-1.5.6H0v9.3h12l-.1-1a6 6 0 1 1 12 0l-.1.8c1 0 3.5-.2 3.9-.4.5-.2.7-.8.7-.8l-.3-.4V21l.3-.1Z" fill="currentColor"/><path d="M22.3 23.5a4.4 4.4 0 1 0-8.8 0 4.4 4.4 0 0 0 8.8 0Zm-4.4 2.3c-1.3 0-2.4-1-2.4-2.3 0-1.3 1-2.3 2.4-2.3a2.3 2.3 0 0 1 0 4.6ZM10.3 16.4c-.8 0-1.5-.2-2-.4-.3-.2-.6-.7-.7-1.2 0-.3 0-.7.4-1 .2-.3.6-.4 1.2-.4.8 0 1.8.3 2.5.5l.3.3c.2.4.6 1.1.4 1.6 0 .3-1 .6-2.1.6ZM27.4 20.4c-.5-.1-2.3-.5-2.8-1.4l-1.5-3.2 3-.3 1.1 1.3.9.3.3 2.6-.3.8-.7-.1ZM38.3 22l-.6.4v-1.6L35.5 25h2.6l1.6-3-1.3.9-.1-.8ZM39 20.4v-.9l.7.2v-1.2L36.9 14 35 15.4l3 4.6 1 .4ZM45.3 19.3l3.7-4.8-5 1.1c-.2-.5-.5-3.5-.7-4.4L40.7 17l2.2-2.7v.1l.1 2.7 3.2-.8-2.3 3.4 3.2 1.2-2 .8 3.7-.6-3.4-1.8h-.1ZM41.3 7.5 39 4.3s-.6-.6-1-.2c0 0-1 .5.4 2.5 1 1.3 1.8 2.5 2 3l.3-.1.7-1.8v-.2Z" fill="currentColor"/><path d="m39.7 10.7-8.5 5.6h-.4L29 14c-1.5-2.2-1-4.6 1.1-6l2.1-1.3 2.7 4c.2.2.6.3 1 0 .3-.1.3-.6.1-.7l-5.5-8 2.8-2-.4 1.7h1.7l-2 1.6 1.4 2.1 3-1.8c-1 .6-.3 2.2.7 3.7l2.1 3.1v.3Z" fill="currentColor"/></svg>
