<svg width="37" height="34" viewBox="0 0 37 34" fill="none" xmlns="http://www.w3.org/2000/svg"><path d="M8.39 28.06H.806c-.024-.192-.048-.36-.048-.528v-7.154c0-1.056.552-1.44 1.584-1.2 1.92.456 3.504 2.185 3.624 4.201.024.36.24.528.48.696 1.296.984 1.968 2.352 1.944 3.985ZM36.687 28.06H29.03c0-1.56.576-2.857 1.776-3.793.432-.336.648-.672.72-1.248.24-1.896 1.92-3.576 3.816-3.889.767-.144 1.343.313 1.367 1.105-.023 2.568-.023 5.16-.023 7.825ZM36.258 30.436H1.283a.5.5 0 0 0-.5.5v1.881a.5.5 0 0 0 .5.5h34.975a.5.5 0 0 0 .5-.5v-1.88a.5.5 0 0 0-.5-.5ZM19.55 27.797l-.072-.48c.096-.529.744-4.657-2.28-8.546-.888-1.128-1.848-2.136-2.712-3a21.931 21.931 0 0 0 2.472-.216c1.992-.288 3.696-.72 5.136-1.345l.192-.096-.144-.576h-.216a93.37 93.37 0 0 1-2.568.048c-.864 0-1.704-.024-2.52-.048-1.512-.096-3.264-.192-4.896-.552l-.432-.096c-.384-.384-.888-.888-1.368-1.416a18.984 18.984 0 0 1-.744-.84c-.096-.12-.192-.24-.288-.336a10.913 10.913 0 0 1-.624-.792A20.448 20.448 0 0 1 7.118 7.44c-.696-1.2-1.176-2.04-1.536-2.736a22.93 22.93 0 0 0 2.232.36c1.272.144 2.928.24 4.416.24.96 0 1.752-.048 2.232-.096l.216-.024.048-.624-.24-.024c-2.592-.312-3.864-.696-5.496-1.224-.216-.072-.456-.144-.696-.216-1.128-.337-2.04-.697-2.808-1.105-.384-.216-.72-.408-.984-.6.024-.336.072-.96.12-1.392H30.35c-.72.576-1.92 1.656-2.856 3.24a9.255 9.255 0 0 0-1.056 2.473c-.024.072-.048.144-.072.24-.072.264-.12.528-.168.816-.624.168-1.272.312-1.848.456-.936.216-1.896.552-2.808.768-.456.096-.912.192-1.344.288l-.216.048.024.552.216.024c1.32.168 2.76.264 4.368.264.504 0 1.008-.024 1.536-.048.024.769.048 1.513.096 2.257.096 2.184.168 4.248.144 6.025a23.681 23.681 0 0 1-4.656 1.392l-.216.048.024.696.216.024c1.008.12 2.04.192 3.072.192.48 0 .96-.024 1.44-.048-.096.96-.24 1.752-.456 2.425-.936 3.024-3.096 5.448-4.488 5.736l-1.752-.071Z" fill="currentColor"/></svg>