<svg width="40" height="40" viewBox="0 0 40 40" fill="none" xmlns="http://www.w3.org/2000/svg"><path d="M14.133 14.61s.124 0 .025-.2l-1.548-2.523.1-2.397s1.098-1.299 1.972-1.923c1.223-.9 2.522-1.449 4.02-1.499.3 0 .65.025.949.15 1.223.475 2.447.974 3.67 1.449.624.25.95.649 1 1.348.099 1.199.249 2.373.399 3.546.024.225-.025.9-.025.9s-1.074 1.323-1.499 1.648c-1.248.949-3.07 1.873-3.32 1.848-1.349-.1-3.421-.824-4.82-1.274.325 1.374 2.148 2.523 2.423 3.821.124.674-.4 1.848.1 2.298.723.674 1.448 1.373 2.097 2.122.799.9 1.673 1.449 2.921 1.524 1.074.075 2.147.375 3.221.524.624.1 1.049.375 1.373.9 1.15 1.897 2.298 2.522 3.446 4.42.225.4.45.55.95.474 2.321-.3 2.221-.55 3.27 1.923.574 1.349 1.973 2.548 2.547 3.896.474 1.099-.025 1.848-1.199 1.848H1.398C.4 39.433 0 39.033 0 38.01V3.27c0-1.249.824-1.748 1.923-1.174 2.447 1.324 1.997.225 4.42 1.599.399.224 2.047 4.02 2.221 4.445.5 1.249.9 2.522 1.374 3.771.125.3.4.624.699.774 1.049.625 3.496 1.923 3.496 1.923Z" fill="currentColor"/><path d="M29.913 18.405c2.023.3 3.745.974 5.019 2.498.05.05.1.125.125.175.45.774-.35 3.421-1.149 3.796-.824.374-1.698.724-2.522 1.074-.05.024-.1.05-.15.05-1.348.1-2.272-.85-3.37-1.374-.6-.3-.475-.974-.475-1.548 0-1.524.275-2.947 1.498-4.021.325-.225.675-.425 1.024-.65ZM38.677 20.728l-.924 1.049c-.05.05-.075.1-.075.175v.35c0 .1.05.174.15.224l1.098.5c.05.025.125.025.2 0l.7-.25A.24.24 0 0 0 40 22.55v-.624c0-.05-.025-.1-.05-.125-.125-.225-.6-.924-.974-1.124-.124-.05-.224-.025-.3.05ZM11.31.274c-.075.125-.974 1.773-.774 2.323.2.55 1.124 1.473 1.124 1.473s1.473.75 2.197.325c.724-.45 1.199-1.024 1.024-1.548-.15-.525.524-2.048.025-2.298-.5-.25-3.196-.924-3.596-.275ZM20.925 20.328c-.05.1-.675 1.249-.55 1.599.125.374.774 1.023.774 1.023s1.024.525 1.523.225c.5-.3.825-.7.725-1.074-.1-.35.374-1.423.025-1.598-.35-.175-2.223-.624-2.497-.175ZM34.333 26.122c-.075.125-.9 1.649-.724 2.123.174.5 1.023 1.349 1.023 1.349s1.349.7 2.023.3c.674-.4 1.099-.95.949-1.424-.15-.474.5-1.898.025-2.123-.425-.225-2.922-.824-3.296-.225Z" fill="currentColor"/></svg>