<svg width="40" height="34" viewBox="0 0 40 34" fill="none" xmlns="http://www.w3.org/2000/svg"><path d="M39.977 25.722c0-.988-.189-1.176-1.2-1.153-.636.024-1.53.07-2.142.188-2.706.565-4.54 2.071-5.153 4.872-.117.541-.164 1.082-.235 1.647-.047.4-.023.636-.4.66-.33.023-.518-.307-.518-.73 0-.495.024-.989.118-1.46.094-.517.282-.988.424-1.506.117-.494-.047-.682-.542-.706-.329 0-.682 0-1.011.095-.847.282-1.789.635-2.8 1.035-.142-.118-.377-.33-.612-.518-.988-.847-1.977-1.67-2.941-2.518-2.306-1.953-4.588-3.907-6.894-5.86-2.212-1.883-4.4-3.742-6.612-5.624-2.73-2.307-5.435-4.613-8.165-6.92C.871 6.849.424 6.496 0 6.12v27.016h40v-.941c-.023-2.165-.023-4.307-.023-6.472Z" fill="currentColor"/><path d="M22.541 10.049c-1.506-.683-2.447-.683-3.647.447-.094.094-.165.188-.259.259-.282.259-.47.423-.8.235-.282-.165-.306-.353-.047-.73a4.12 4.12 0 0 1 .8-.894c.66-.54 1.389-.87 2.26-.94.517-.024.587-.495.493-1.013a2.065 2.065 0 0 0-.117-.353c-1.012-2.636-4.212-3.695-6.589-2.141-.4.258-.776.611-1.153.917-.659-.047-1.647-.188-2.258-.188-1.483-.023-2.518.777-2.753 2.189-.095.517 0 .8-.33.776-.353-.023-.588-.353-.659-.87v-.189c-.094-.941.118-1.082-.564-1.694C6.565 5.554 1.74 1.46 0 0v3.718c3.694 3.154 7.388 6.307 11.059 9.46 3.576 3.06 7.13 6.143 10.706 9.203.54.47.776.517 1.412.164.964-.517 1.74-1.294 2.329-2.188 2.423-3.577 1.012-8.473-2.965-10.308ZM29.012 15.297v.47c-.024.377-.26.612-.565.612-.282 0-.494-.211-.541-.564-.047-.306-.094-.612-.118-.918-.07-.683-.306-1.295-.612-1.883-.07-.165-.164-.306-.211-.47-.07-.307.047-.589.282-.683.235-.094.518-.024.706.212.047.047.07.117.118.164.564.989.87 2.071.94 3.06ZM24.776 8.12c0 .282-.26.54-.565.54-.306 0-.588-.282-.541-.611a.566.566 0 0 1 .588-.495.583.583 0 0 1 .518.565ZM26.87 23.086a.568.568 0 0 1-.518.589c-.282.023-.564-.212-.611-.495-.047-.305.212-.611.54-.611a.553.553 0 0 1 .59.517ZM29.27 21.416a.568.568 0 0 1-.517.588c-.282.024-.565-.212-.612-.494-.047-.306.212-.612.542-.612.305 0 .564.235.588.518ZM39.199 20.616h-3.177v2.541a6.73 6.73 0 0 0-1.223.377v-2.918h-3.177c-.306 0-.47-.354-.306-.589l1.93-2.66h-1.177c-.282 0-.47-.305-.33-.54l3.177-5.154a.553.553 0 0 1 .965 0l3.177 5.153c.14.26-.047.542-.33.542h-1.176l1.93 2.66a.362.362 0 0 1-.283.588Z" fill="currentColor"/></svg>