<svg width="40" height="38" viewBox="0 0 40 38" fill="none" xmlns="http://www.w3.org/2000/svg"><path d="m22.87 27.746-3.458 3.39.54 1.953-4.564 2.376 1.506-2.87-1.647-2.801 1.765-2.048H1a1 1 0 0 0-1 1v7.367a1 1 0 0 0 1 1h38a1 1 0 0 0 1-1v-7.367a1 1 0 0 0-1-1H22.87ZM21.342 18.11a.25.25 0 0 0 .009.069l1.612 6.388a1 1 0 0 0 .97.755h4.703l-.951-3.583a1 1 0 0 1 .678-1.214l1.702-.512a1 1 0 0 1 1.25.683l1.28 4.481a.2.2 0 0 0 .192.145h1.89a1 1 0 0 0 .456-.11l2.058-1.053a1 1 0 0 0 .512-1.144l-1.953-7.45a2 2 0 0 0-1.117-1.319l-7.016-3.144a1 1 0 0 0-1.203.305l-4.982 6.51c-.044.057-.087.12-.09.193ZM21.45 8.033a.3.3 0 0 0-.211-.368l-1.606-.432a.3.3 0 0 1-.211-.37l.639-2.313a.3.3 0 0 0-.211-.37l-2.807-.76a.3.3 0 0 1-.211-.368l.619-2.27a.3.3 0 0 0-.21-.367L16.031.08a.3.3 0 0 0-.37.21l-.618 2.269a.3.3 0 0 1-.367.21l-2.812-.761a.3.3 0 0 0-.367.21l-.641 2.32a.3.3 0 0 1-.367.21l-1.612-.434a.3.3 0 0 0-.368.21L2.927 24.99a.3.3 0 0 0 .29.38h13.306a.3.3 0 0 0 .29-.222L21.45 8.033Zm-11.577.021a.3.3 0 0 1 .368-.209l7.986 2.195a.3.3 0 0 1 .21.37l-.357 1.28a.3.3 0 0 1-.368.21L9.725 9.704a.3.3 0 0 1-.21-.37l.358-1.28Zm-1.247 4.613a.3.3 0 0 1 .368-.209l7.986 2.194a.3.3 0 0 1 .21.37l-.357 1.281a.3.3 0 0 1-.368.21l-7.987-2.195a.3.3 0 0 1-.21-.37l.358-1.281Zm6.96 8.249a.3.3 0 0 1-.369.209L7.231 18.93a.3.3 0 0 1-.21-.37l.357-1.28a.3.3 0 0 1 .369-.21l7.986 2.195a.3.3 0 0 1 .21.37l-.357 1.28ZM4.205 9.814l-.922 3.372a.5.5 0 0 0 .35.614l.307.084a.5.5 0 0 0 .615-.35l.921-3.372a.5.5 0 0 0-.35-.614l-.307-.084a.5.5 0 0 0-.614.35Z" fill="currentColor"/><path d="M30.54 23.063c0 .259.212.47.471.47s.47-.211.47-.47a.472.472 0 0 0-.47-.47.472.472 0 0 0-.47.47Z" fill="currentColor"/></svg>