<svg width="36" height="37" viewBox="0 0 36 37" fill="none" xmlns="http://www.w3.org/2000/svg"><path d="M29.06 6.125c-.169 0-.313 0-.48.024C27.161 2.546 24.16 0 20.172 0c-4.346 0-7.54 3.003-8.693 7.11a4.51 4.51 0 0 0-2.258-.576c-2.498 0-4.323 2.09-4.563 4.611h-.024C1.993 11.145 0 13.235 0 15.974c0 2.738 2.161 4.972 4.803 4.972l7.974-.024 7.54-9.705a.676.676 0 0 1 .505-.24c.168 0 .336.072.456.192.12.12.168.265.168.433l-.408 9.32 7.805-.024c3.963 0 7.157-3.315 7.157-7.399 0-4.107-2.978-7.374-6.94-7.374Z" fill="currentColor"/><path d="M19.834 15.126a.25.25 0 0 0-.447-.168l-9.47 12.217a.25.25 0 0 0 .196.403l3.598.02a.25.25 0 0 1 .248.267l-.527 7.707a.25.25 0 0 0 .447.17l9.512-12.274a.166.166 0 0 0-.134-.265h-3.658a.25.25 0 0 1-.25-.265l.485-7.812Z" fill="currentColor"/></svg>