<svg width="36" height="33" viewBox="0 0 36 33" fill="none" xmlns="http://www.w3.org/2000/svg"><path d="M36 13.49c0 4.081-3.216 7.394-7.152 7.394L4.8 20.932c-2.64 0-4.8-2.233-4.8-4.97 0-2.736 1.968-4.824 4.632-4.824h.024c.24-2.52 2.064-4.609 4.56-4.609.816 0 1.584.216 2.256.576C12.624 3.001 15.816 0 20.16 0c3.984 0 6.984 2.544 8.4 6.145.168 0 .312-.024.48-.024 3.984.024 6.96 3.289 6.96 7.37ZM7.512 23.284h-1.68l-.84 1.44.84 1.465h1.68l.84-1.464-.84-1.44ZM9.12 29.597H7.44l-.84 1.44.84 1.465h1.68l.84-1.465-.84-1.44ZM16.248 24.197h-1.68l-.84 1.464.84 1.44h1.68l.84-1.44-.84-1.465ZM18.72 29.382h-1.68l-.84 1.464.84 1.44h1.68l.84-1.44-.84-1.464ZM26.185 23.572h-1.68l-.816 1.44.816 1.465h1.68l.84-1.465-.84-1.44Z" fill="currentColor"/></svg>