<svg width="39" height="23" viewBox="0 0 39 23" fill="none" xmlns="http://www.w3.org/2000/svg"><path d="M24.67 11.731a2.476 2.476 0 0 0-1.654-1.23 2.516 2.516 0 0 0-1.855.292 2.506 2.506 0 0 0-1.185 1.61 2.216 2.216 0 0 0-.045.76c.023.022.045.022.067.044.626.38 1.23.85 1.878 1.162.67.336 1.341.56 2.012.649a2.439 2.439 0 0 0 1.005-1.52c.18-.604.09-1.23-.223-1.767Zm-.894 1.543a1.33 1.33 0 0 1-1.587 1.006 1.33 1.33 0 0 1-1.006-1.587c.157-.716.872-1.163 1.61-1.006.692.156 1.14.872.983 1.587ZM7.973 9.83a2.537 2.537 0 0 0-1.9-3.04 2.536 2.536 0 0 0-1.14 4.941 2.536 2.536 0 0 0 3.04-1.9Zm-2.771.739A1.33 1.33 0 0 1 4.196 8.98a1.33 1.33 0 0 1 1.587-1.006 1.33 1.33 0 0 1 1.006 1.588 1.33 1.33 0 0 1-1.587 1.006ZM19.127 8.02c-.447-.111-.827-.268-1.05-.469-.18-.156-.27-.47-.247-.76a.727.727 0 0 1 .336-.559c.178-.112.402-.112.715-.045.47.112.983.38 1.34.604.09.045.135.134.18.224.067.245.156.693 0 .96-.112.157-.67.18-1.274.046Z" fill="currentColor"/><path d="M28.717 11.8a2.1 2.1 0 0 1-.358-.671c-.022-.09-.045-.202-.067-.291-.067-.38-.246-.894-1.162-1.498-.917-.581-2.861-1.81-5.275-2.862 0 0-3.107-3.308-5.946-4.761a21.308 21.308 0 0 0-2.794-.828C8.332-.117 6.365.532 6.365.532l-.201.313s-2.37.961-3.242 1.744c-.871.782-.715 1.274-.715 1.542S2.051 5.25 2.051 5.25s-.492.223-.648.313c-.135.09-.56 1.855-.56 1.855s.023.515.247.917c.156.335.737.537.983.626l.067-.425a3.426 3.426 0 0 1 4.605-2.437c1.72.671 2.615 2.616 1.989 4.36v.022l3.375.76.559.112h.045l5.476 1.185.872.179c0-.179.044-.38.067-.56a3.04 3.04 0 0 1 .514-1.162c.827-1.23 2.436-1.855 3.956-1.319a3.472 3.472 0 0 1 2.28 2.728 3.37 3.37 0 0 1-.179 1.744v.022c.201.045.514.09.827.156.246.045.492.09.693.112.358-.223.693-.447 1.05-.67l.224-.94.201-.044c-.044.045.202-.76.023-.984Zm-9.165-4.315c-.603-.135-4.045-.94-6.012-1.387 0 0-3.957-.96-4.605-1.207-.626-.246-3.017-.939-2.95-1.43.044-.314.983-.962 1.676-1.409.47-.313.961-.447 1.542-.47 1.543-.022 5.901.76 7.757 1.99 2.168 1.453 3.486 3.756 3.486 3.756s-.044.358-.894.157ZM12.088 11.262l.604.134-.604-.134Z" fill="currentColor"/><path d="m13.339 1.694-.581 4.718-1.43-.336.76-4.672 1.25.29ZM28.919 7.663c.178.246.29.47.469.649.156.134.358.246.559.29.335.067.559-.09.648-.402.09-.268-.067-.559-.358-.693-.424-.224-.827-.067-1.318.156ZM27.979 5.786c-.246-.492-.291-.917.022-1.297.246-.313.603-.358.872-.112.2.18.268.38.156.649-.201.424-.581.626-1.05.76ZM38.797 21.032v1.297l-.067.067c-.022.022-.044.044-.067.044a8.143 8.143 0 0 1-.737.045c-12.026 0-24.051-.022-36.099-.022-.045 0-.09-.045-.201-.09v-3.867c.76-.045 1.363.246 1.967.559.492.268.916.603 1.386.894 2.302 1.43 4.671 1.498 7.04.179.425-.246.85-.514 1.252-.805 1.744-1.252 4.493-1.297 6.37.134 1.14.872 2.415 1.453 3.845 1.587 1.498.135 2.906-.223 4.18-1.05.38-.246.715-.515 1.095-.738 1.967-1.185 3.957-1.207 5.946-.022.402.245.76.536 1.185.782.447.268.916.514 1.408.693.47.156.96.201 1.497.313ZM38.798 15.421a4.572 4.572 0 0 1-2.079-.67c-.492-.313-.961-.671-1.453-.962-2.257-1.319-4.537-1.386-6.84-.09-.067.046-.134.068-.2.113-.358.223-.694.447-1.051.67-.067.045-.157.09-.224.157-1.207.738-2.459 1.006-3.71.805a5.951 5.951 0 0 1-1.654-.537c-.537-.268-1.028-.648-1.543-.961-.022-.023-.044-.023-.067-.045-2.458-1.498-4.895-1.498-7.353.045-.38.223-.716.514-1.118.738-1.945 1.117-3.89 1.095-5.812-.023-.089-.044-.178-.112-.268-.179-1.14-.804-2.302-1.52-3.822-1.587v-2.84c.782.046 1.453.292 2.056.671.492.313.962.671 1.453.962 2.235 1.319 4.493 1.364 6.773.134.246-.134.514-.29.738-.447.2-.134.38-.268.58-.403 1.744-1.296 4.494-1.296 6.393.068.023.022.045.022.067.044.425.313.872.604 1.32.827.267.135.558.269.826.358.693.246 1.364.38 2.034.402a6.007 6.007 0 0 0 1.99-.245c.625-.18 1.229-.47 1.832-.85l.671-.47c.112-.066.224-.156.358-.223 1.99-1.23 4-1.23 6.012-.022l.202.134c1.743 1.14 1.855 1.252 3.844 1.632.112.916.112 1.81.045 2.794Z" fill="currentColor"/><path d="M1.559 17.053c.022-.961-.067-1.856.067-2.795.76.067 1.43.291 2.034.671.492.313.961.67 1.453.961 2.235 1.32 4.493 1.364 6.773.134.469-.246.894-.536 1.318-.85 1.766-1.296 4.538-1.296 6.46.113.67.492 1.386.916 2.168 1.207 2.034.738 4.024.492 5.857-.693.357-.224.67-.47 1.028-.693 2.011-1.23 4.023-1.23 6.012-.023.38.224.716.515 1.096.738.447.269.916.514 1.408.693.47.157.961.224 1.52.336.067.872.067 1.766 0 2.75a4.571 4.571 0 0 1-2.079-.671c-.492-.313-.961-.67-1.453-.962-2.257-1.319-4.537-1.386-6.84-.089-.514.29-.983.626-1.475.917-1.743 1.073-3.531 1.14-5.364.245-.537-.268-1.029-.648-1.543-.96-2.458-1.521-4.94-1.543-7.398 0-.38.245-.715.513-1.118.737-1.944 1.118-3.889 1.095-5.811-.022-.09-.045-.18-.134-.269-.18-1.095-.782-2.257-1.497-3.844-1.564Z" fill="currentColor"/></svg>