<svg width="36" height="32" viewBox="0 0 36 32" fill="none" xmlns="http://www.w3.org/2000/svg"><path d="M36 13.49c0 4.081-3.216 7.394-7.152 7.394L4.8 20.932c-2.64 0-4.8-2.233-4.8-4.97 0-2.736 1.968-4.824 4.632-4.824h.024c.24-2.52 2.064-4.609 4.56-4.609a4.77 4.77 0 0 1 2.256.576C12.624 3.001 15.816 0 20.16 0c3.984 0 6.984 2.544 8.4 6.145.168 0 .312-.024.48-.024 3.984 0 6.96 3.265 6.96 7.37Z" fill="currentColor"/><path d="m8.103 19.178-.704 1.089.787.508.703-1.09-.786-.507ZM3.37 28.201a.46.46 0 0 1-.771-.499l.773-1.196a.46.46 0 1 1 .772.498l-.774 1.197Zm2.544-3.913a.46.46 0 1 1-.771-.498l.773-1.197a.46.46 0 1 1 .772.498l-.774 1.197ZM.819 30.433l-.196.302a.468.468 0 0 0 .786.508l.196-.302a.468.468 0 0 0-.786-.508ZM13.494 19.117l-.703 1.09.786.507.703-1.089-.786-.508ZM8.747 28.153a.46.46 0 0 1-.771-.499l.773-1.197a.46.46 0 0 1 .772.5l-.774 1.196Zm2.544-3.913a.46.46 0 0 1-.771-.498l.773-1.197a.46.46 0 0 1 .772.498l-.774 1.197ZM6.197 30.392l-.195.302a.468.468 0 0 0 .786.508l.196-.302a.468.468 0 0 0-.787-.508ZM18.874 19.124l-.703 1.089.786.508.703-1.09-.786-.507ZM14.148 28.153a.46.46 0 0 1-.772-.499l.773-1.197a.46.46 0 0 1 .772.499l-.773 1.197Zm2.52-3.913a.46.46 0 1 1-.772-.499l.773-1.196a.46.46 0 1 1 .772.498l-.773 1.197ZM11.579 30.399l-.196.302a.468.468 0 0 0 .787.508l.195-.302a.468.468 0 0 0-.786-.508ZM24.126 19.106l-.688 1.1.794.496.687-1.1-.793-.496ZM19.588 28.132a.463.463 0 1 1-.783-.493l.73-1.16a.463.463 0 0 1 .784.492l-.73 1.161Zm2.448-3.913a.463.463 0 1 1-.783-.493l.73-1.16a.463.463 0 1 1 .784.493l-.73 1.16ZM17.09 30.397l-.19.306a.468.468 0 0 0 .793.496l.191-.305a.468.468 0 0 0-.793-.497ZM29.504 19.114l-.687 1.099.793.496.688-1.099-.794-.496ZM24.961 28.132a.463.463 0 1 1-.783-.493l.73-1.16a.463.463 0 0 1 .784.492l-.73 1.161Zm2.448-3.913a.463.463 0 1 1-.783-.493l.73-1.16a.463.463 0 0 1 .784.493l-.73 1.16ZM22.48 30.384l-.19.305a.468.468 0 0 0 .793.497l.191-.306a.468.468 0 0 0-.793-.496Z" fill="currentColor"/></svg>