<svg width="90" height="74" viewBox="0 0 90 74" fill="none" xmlns="http://www.w3.org/2000/svg">
<path d="M15.2379 74H0.501953V73.1871H15.2379C55.6114 73.1871 88.425 40.3464 88.425 0H89.2379C89.2379 19.7803 81.5426 38.3413 67.5609 52.323C53.5792 66.3046 34.9911 74 15.2379 74Z" fill="#444B8C"/>
<path d="M14.5055 56.8477H11.2539V57.6605H14.5055V56.8477Z" fill="#444B8C"/>
<path d="M21.2805 57.3626L21.1992 56.5497C23.4211 56.333 25.6159 55.9536 27.7836 55.493L27.9733 56.2788C25.7514 56.7665 23.5024 57.1187 21.2805 57.3626ZM34.4764 54.4091L34.2054 53.6504C36.2919 52.9188 38.3783 52.0517 40.3563 51.0763L40.7086 51.8079C38.7034 52.7833 36.5899 53.6504 34.4764 54.4091ZM46.6156 48.4479L46.182 47.7705C48.0517 46.5783 49.8671 45.2235 51.5742 43.8145L52.089 44.4377C50.3548 45.8738 48.5123 47.2286 46.6156 48.4479ZM57.0476 39.8313L56.4515 39.2623C57.996 37.6636 59.4321 35.9565 60.7869 34.1682L61.4372 34.6559C60.0824 36.4443 58.5921 38.1784 57.0476 39.8313ZM65.1765 29.0199L64.472 28.6134C65.583 26.6896 66.6126 24.6845 67.4797 22.6522L68.2384 22.9774C67.3442 25.0367 66.3146 27.0689 65.1765 29.0199ZM70.5687 16.6098L69.7829 16.3659C70.4332 14.2524 70.948 12.0576 71.3274 9.86279L72.1403 9.99827C71.7338 12.2473 71.219 14.4692 70.5687 16.6098Z" fill="#444B8C"/>
<path d="M72.8988 3.27865L72.0859 3.22446C72.1401 2.1677 72.1672 1.05676 72.1672 0H72.9801C73.0072 1.08385 72.9801 2.1948 72.8988 3.27865Z" fill="#444B8C"/>
<path d="M65.691 44.9792L64.6342 44.0037L61.0846 47.8514L60.2988 47.1198L63.8484 43.2721L62.7917 42.2967L67.1271 40.5083L65.691 44.9792Z" fill="#444B8C"/>
<path d="M53.3609 33.6276L52.3313 32.6522L48.7545 36.5269L47.9688 35.7682L51.5184 31.9206L50.4616 30.9451L54.797 29.1567L53.3609 33.6276Z" fill="#444B8C"/>
<path d="M15.4266 41.1593H0.0839844V40.3464H15.4266C37.6727 40.3464 55.773 22.2461 55.773 0H56.5859C56.5859 22.7067 38.1333 41.1593 15.4266 41.1593Z" fill="#444B8C"/>
</svg>
