<svg width="99" height="74" viewBox="0 0 99 74" fill="none" xmlns="http://www.w3.org/2000/svg">
<path d="M12.142 14.458H6.42773V15.336H12.142V14.458Z" fill="#444B8C"/>
<path d="M1.42857 14.458H0V15.336H1.42857V14.458Z" fill="#444B8C"/>
<path d="M86.2119 15.336H80.8981V14.458H86.2119V15.336ZM75.6118 15.336H70.298V14.458H75.6118V15.336ZM64.9842 15.336H59.6703V14.458H64.9842V15.336ZM54.3565 15.336H49.0427V14.458H54.3565V15.336ZM43.7564 15.336H38.4426V14.458H43.7564V15.336ZM33.1288 15.336H27.815V14.458H33.1288V15.336ZM22.5287 15.336H17.2148V14.458H22.5287V15.336Z" fill="#444B8C"/>
<path d="M96.5273 14.458H91.5273V15.336H96.5273V14.458Z" fill="#444B8C"/>
<path d="M98.5703 28.4443H93.5703V29.3223H98.5703V28.4443Z" fill="#444B8C"/>
<path d="M98.571 0.351562H0V1.11082H98.571V0.351562Z" fill="#444B8C"/>
<path d="M27.8563 73.2402H26.4277L60.7712 41.7049C70.0222 33.1592 81.8889 28.4473 94.1409 28.4473V28.8863V29.3253C82.0816 29.3253 70.4077 33.9494 61.3219 42.3781L27.8563 73.2402Z" fill="#444B8C"/>
<path d="M14.1198 66.2672L10.0625 70.0176L10.6045 70.6801L14.6618 66.9297L14.1198 66.2672Z" fill="#444B8C"/>
<path d="M22.5108 58.5136L18.2637 62.4395L18.8057 63.102L23.0528 59.1761L22.5108 58.5136Z" fill="#444B8C"/>
<path d="M27.2089 55.3719L26.6582 54.6988L30.8156 50.8649L31.3663 51.538L27.2089 55.3719ZM35.4962 47.7041L34.9456 47.031L39.103 43.1971L39.6537 43.8702L35.4962 47.7041ZM43.7836 40.0363L43.2329 39.3632L47.3904 35.5293L47.941 36.2024L43.7836 40.0363Z" fill="#444B8C"/>
<path d="M53.5128 29.866L51.5391 31.6904L52.0811 32.353L54.0548 30.5285L53.5128 29.866Z" fill="#444B8C"/>
<path d="M0 61.8517V60.7128L33.8724 29.296H0V28.418H36.075L0 61.8517Z" fill="#444B8C"/>
</svg>
