<svg width="96" height="68" viewBox="0 0 96 68" fill="none" xmlns="http://www.w3.org/2000/svg">
<path d="M96 67H0V68H96V67Z" fill="#444B8C"/>
<path d="M10.7212 50.2793H7.41016V51.1071H10.7212V50.2793Z" fill="#444B8C"/>
<path d="M78.873 51.1071H72.0577V50.2793H78.873V51.1071ZM65.2424 51.1071H58.4271V50.2793H65.2424V51.1071ZM51.6117 51.1071H44.7964V50.2793H51.6117V51.1071ZM37.9811 51.1071H31.1658V50.2793H37.9811V51.1071ZM24.3505 51.1071H17.5352V50.2793H24.3505V51.1071Z" fill="#444B8C"/>
<path d="M89.0005 50.2793H85.6895V51.1071H89.0005V50.2793Z" fill="#444B8C"/>
<path d="M48.6867 61.1781V59.7433H43.3613V58.6121H48.6867V57.1772L53.0187 59.1639L48.6867 61.1781Z" fill="#444B8C"/>
<path d="M48.6867 44.1261V42.6637H43.3613V41.56H48.6867V40.0977L53.0187 42.1119L48.6867 44.1261Z" fill="#444B8C"/>
<path d="M96 0.254883H0V1.08265H96V0.254883Z" fill="#444B8C"/>
<path d="M10.7212 16.9204H7.41016V17.7482H10.7212V16.9204Z" fill="#444B8C"/>
<path d="M78.873 17.7482H72.0577V16.9204H78.873V17.7482ZM65.2424 17.7482H58.4271V16.9204H65.2424V17.7482ZM51.6117 17.7482H44.7964V16.9204H51.6117V17.7482ZM37.9811 17.7482H31.1658V16.9204H37.9811V17.7482ZM24.3505 17.7482H17.5352V16.9204H24.3505V17.7482Z" fill="#444B8C"/>
<path d="M89.0005 16.9204H85.6895V17.7482H89.0005V16.9204Z" fill="#444B8C"/>
<path d="M53.0187 8.17405V9.27775H47.6933V10.7401L43.3613 8.7259L47.6933 6.79443V8.17405H53.0187Z" fill="#444B8C"/>
<path d="M53.0187 25.0881V26.2194H47.6933V27.6542L43.3613 25.6676L47.6933 23.7085V25.0881H53.0187Z" fill="#444B8C"/>
<path d="M10.7212 33.4771H7.41016V34.3048H10.7212V33.4771Z" fill="#444B8C"/>
<path d="M78.873 34.3048H72.0577V33.4771H78.873V34.3048ZM65.2424 34.3048H58.4271V33.4771H65.2424V34.3048ZM51.6117 34.3048H44.7964V33.4771H51.6117V34.3048ZM37.9811 34.3048H31.1658V33.4771H37.9811V34.3048ZM24.3505 34.3048H17.5352V33.4771H24.3505V34.3048Z" fill="#444B8C"/>
<path d="M89.0005 33.4771H85.6895V34.3048H89.0005V33.4771Z" fill="#444B8C"/>
</svg>
