<svg width="48" height="48" viewBox="0 0 48 48" fill="none" xmlns="http://www.w3.org/2000/svg">
<path d="M2.12458 0H45.8754C47.0557 0 48 0.944266 48 2.12459V45.8754C48 47.0557 47.0557 48 45.8754 48H2.12458C0.944248 48 0 47.0557 0 45.8754V2.12459C0 0.944266 0.944248 0 2.12458 0Z" fill="#316AA8"/>
<path d="M23.0564 10.1513L6.05963 39.5808C5.62685 40.289 6.17768 41.1939 7.0039 41.1939H40.958C41.7842 41.1939 42.2957 40.289 41.9023 39.5808L24.9055 10.1513C24.5121 9.44307 23.4891 9.44307 23.0564 10.1513Z" fill="white"/>
<path d="M19.1614 27.8561L19.3975 28.0922C19.5155 28.2102 19.7123 28.2889 19.8696 28.2889C20.0664 28.2889 20.2237 28.2102 20.3418 28.0922L21.6401 26.7938V27.8954C21.6401 27.9348 21.6008 27.9348 21.6008 27.9741L20.8926 29.5872C20.6959 30.0594 20.4598 30.8463 20.3811 31.3577L19.8696 35.3709C19.791 35.961 20.2237 36.5905 20.8139 36.7086L20.9713 36.7479C21.05 36.7872 21.1286 36.7872 21.2073 36.7872C21.7188 36.7872 22.1516 36.3938 22.2303 35.8823L22.5844 32.5774C22.6631 32.1053 22.8205 31.3184 23.0172 30.9249L23.7647 29.1545L25.8499 35.6069C26.0073 36.0791 26.4795 36.4331 26.9909 36.4331C27.0696 36.4331 27.1877 36.3938 27.3057 36.3938L27.4631 36.3545C27.7778 36.2758 27.9746 36.1184 28.1319 35.843C28.2893 35.5676 28.3286 35.2922 28.2106 34.9774L25.968 28.0922C25.968 28.0528 25.9286 28.0528 25.9286 28.0528V25.4561L27.2664 28.0528C27.3844 28.2889 27.6204 28.4463 27.8959 28.4463C27.9745 28.4463 28.0926 28.4069 28.1713 28.3676L28.5647 28.1709C28.7614 28.0922 28.8795 27.9741 28.9188 27.7774C28.9975 27.5807 28.9581 27.4233 28.8795 27.2659L26.0467 21.3643C25.8893 21.0495 25.5352 20.8135 25.1811 20.8135H24.4336H22.309C21.9155 20.8135 21.6401 21.0889 21.6401 21.4823V21.561L21.5614 23.961C21.5614 24.1577 21.4434 24.4725 21.3254 24.5905L19.1614 26.9118C18.9254 27.1872 18.9254 27.62 19.1614 27.8561Z" fill="#191310"/>
<path d="M25.9292 17.9409C25.9292 16.6818 24.9062 15.6982 23.6472 15.6982C22.3882 15.6982 21.3652 16.7212 21.3652 17.9409C21.3652 19.1999 22.3882 20.1835 23.6472 20.1835C24.9062 20.1835 25.9292 19.1999 25.9292 17.9409Z" fill="#191310"/>
<path d="M14.5975 33.0505L11.6467 39.6209C11.6074 39.739 11.4893 39.7783 11.3713 39.7783H8.49916C8.26309 39.7783 8.14507 39.5423 8.2631 39.3455L12.0401 32.7751C12.0795 32.6964 12.1975 32.6177 12.2762 32.6177H14.3615C14.5188 32.657 14.6762 32.8537 14.5975 33.0505Z" fill="#191310"/>
<path d="M19.5156 36.5515L18.9255 39.581C18.8861 39.6991 18.7681 39.8171 18.6501 39.8171H15.6599C15.4632 39.8171 15.3451 39.6204 15.3845 39.463L17.4697 32.8925C17.5091 32.7745 17.6271 32.6958 17.7451 32.6958H19.5156L19.1615 35.2925C19.1615 35.7253 19.2796 36.1974 19.5156 36.5515Z" fill="#191310"/>
<path d="M26.2037 39.5021C26.2037 39.6595 26.0856 39.8169 25.9282 39.8169H22.8594C22.702 39.8169 22.584 39.6989 22.584 39.5021L22.7807 36.3546C22.82 36.2366 22.8594 36.0792 22.8594 35.9218L23.2135 32.6562H23.2528H24.1971L25.2201 35.8038C25.3774 36.2366 25.6528 36.5907 26.0069 36.7874L26.2037 39.5021Z" fill="#191310"/>
<path d="M33.0893 39.8169H30.0991C29.9811 39.8169 29.8631 39.7382 29.8237 39.5808L28.5647 33.0103C28.5254 32.853 28.6827 32.6562 28.8401 32.6562H31.0041C31.1221 32.6562 31.2401 32.7349 31.2795 32.853L33.3647 39.4235C33.4041 39.6202 33.286 39.8169 33.0893 39.8169Z" fill="#191310"/>
<path d="M40.2887 39.8171H37.4165C37.2985 39.8171 37.2198 39.7384 37.1411 39.6597L34.1903 33.0892C34.1116 32.8925 34.2296 32.6958 34.4657 32.6958H36.5509C36.669 32.6958 36.7477 32.7352 36.787 32.8532L40.5641 39.4237C40.6428 39.581 40.5247 39.8171 40.2887 39.8171Z" fill="#191310"/>
</svg>
