<svg width="50" height="50" viewBox="0 0 50 50" fill="none" xmlns="http://www.w3.org/2000/svg">
<path d="M24.6107 49.2214C38.2028 49.2214 49.2214 38.2028 49.2214 24.6107C49.2214 11.0186 38.2028 0 24.6107 0C11.0186 0 0 11.0186 0 24.6107C0 38.2028 11.0186 49.2214 24.6107 49.2214Z" fill="#316AA8"/>
<path d="M26.2643 21.0847L28.5784 18.9175C28.8723 18.6604 29.2763 18.6604 29.5702 18.9542L39.0471 29.1291C39.3043 29.423 39.3043 29.827 39.0104 30.1209L36.6963 32.2881C36.4024 32.5452 35.9983 32.5452 35.7045 32.2513L26.2275 22.0765C25.9704 21.7826 25.9704 21.3418 26.2643 21.0847Z" fill="#F7F7F7"/>
<path d="M42.3527 34.9706L40.2589 23.106C40.1487 22.4448 39.3406 22.151 38.8263 22.6285L29.2392 31.5545C28.725 32.032 28.9453 32.8401 29.6065 33.0238L41.2874 35.9624C41.8751 36.1093 42.4629 35.595 42.3527 34.9706Z" fill="#F7F7F7"/>
<path d="M22.9948 21.1579L20.6807 18.9907C20.3868 18.7336 19.9827 18.7336 19.6889 19.0275L10.2119 29.2023C9.9548 29.4962 9.95479 29.9002 10.2486 30.1941L12.5628 32.3613C12.8566 32.6184 13.2607 32.6184 13.5546 32.3246L23.0315 22.1497C23.2886 21.8559 23.2886 21.4151 22.9948 21.1579Z" fill="#F7F7F7"/>
<path d="M6.90599 35.0433L8.99974 23.1788C9.10994 22.5176 9.91804 22.2237 10.4323 22.7013L20.0195 31.6272C20.5337 32.1047 20.3133 32.9129 19.6521 33.0965L7.97122 36.0351C7.3835 36.182 6.7958 35.6678 6.90599 35.0433Z" fill="#F7F7F7"/>
</svg>
