<svg width="50" height="50" viewBox="0 0 50 50" fill="none" xmlns="http://www.w3.org/2000/svg">
<path d="M24.6107 49.2214C38.2028 49.2214 49.2214 38.2028 49.2214 24.6107C49.2214 11.0186 38.2028 0 24.6107 0C11.0186 0 0 11.0186 0 24.6107C0 38.2028 11.0186 49.2214 24.6107 49.2214Z" fill="#316AA8"/>
<path d="M10.873 13.1499L13.8483 10.395C14.2891 9.99096 15.0237 9.99097 15.4278 10.4685L33.0961 29.4224C33.5001 29.8632 33.5001 30.5978 33.0226 31.0019L30.0473 33.7568C29.6065 34.1609 28.8718 34.1609 28.4678 33.6833L10.8362 14.7294C10.3955 14.2886 10.4322 13.554 10.873 13.1499Z" fill="#F7F7F7"/>
<path d="M37.7976 37.5761L34.8957 21.1568C34.7488 20.2385 33.6101 19.8344 32.9122 20.4956L19.6518 32.8744C18.9539 33.4989 19.2477 34.6743 20.166 34.8947L36.3283 38.9352C37.1731 39.1556 37.9445 38.421 37.7976 37.5761Z" fill="#F7F7F7"/>
</svg>
