<svg width="54" height="54" viewBox="0 0 54 54" fill="none" xmlns="http://www.w3.org/2000/svg">
<path d="M24.7053 53.0562L0.943797 29.2947C-0.314599 28.0363 -0.314599 25.9637 0.943797 24.7053L24.7053 0.943797C25.9637 -0.314599 28.0363 -0.314599 29.2947 0.943797L53.0562 24.7053C54.3146 25.9637 54.3146 28.0363 53.0562 29.2947L29.2947 53.0562C28.0363 54.3146 25.9637 54.3146 24.7053 53.0562Z" fill="#201E1B"/>
<path d="M25.1491 49.1327L4.86667 28.8503C3.86736 27.851 3.86736 26.1855 4.86667 25.1862L25.1491 4.90378C26.1484 3.90447 27.8139 3.90447 28.8132 4.90378L49.0956 25.1862C50.0949 26.1855 50.0949 27.851 49.0956 28.8503L28.8132 49.1327C27.8139 50.132 26.1854 50.132 25.1491 49.1327Z" fill="white"/>
<path d="M25.6296 39.547L14.4521 28.3694C13.6748 27.5922 13.6748 26.3708 14.4521 25.6306L25.6296 14.4531C26.4068 13.6758 27.6282 13.6758 28.3684 14.4531L39.546 25.6306C40.3232 26.4078 40.3232 27.6292 39.546 28.3694L28.3684 39.547C27.6282 40.3242 26.3698 40.3242 25.6296 39.547Z" fill="#FDF200"/>
<path d="M26.9992 40.6213C26.37 40.6213 25.7408 40.3992 25.2597 39.9181L14.0821 28.7035C13.638 28.2594 13.3789 27.6302 13.3789 26.964C13.3789 26.2978 13.638 25.7056 14.0821 25.2244L25.2597 14.0469C26.222 13.0846 27.7394 13.0846 28.7017 14.0469L39.8792 25.2244C40.3234 25.6686 40.5825 26.2978 40.5825 26.964C40.5825 27.6302 40.3234 28.2224 39.8792 28.7035L28.7017 39.881C28.2576 40.3992 27.6284 40.6213 26.9992 40.6213ZM25.9629 39.2148C26.518 39.77 27.4433 39.77 28.0355 39.2148L39.213 28.0373C39.4721 27.7782 39.6572 27.4081 39.6572 27.001C39.6572 26.5939 39.5091 26.2608 39.213 25.9647L28.0355 14.7872C27.4804 14.232 26.555 14.232 25.9629 14.7872L14.7854 25.9647C14.5263 26.2238 14.3412 26.5939 14.3412 27.001C14.3412 27.4081 14.4893 27.7412 14.7854 28.0373L25.9629 39.2148Z" fill="#201E1B"/>
<path d="M38.2013 9.82506L9.83203 38.1943L15.799 44.1613L44.1683 15.792L38.2013 9.82506Z" fill="#211918"/>
</svg>
