<svg width="49" height="48" viewBox="0 0 49 48" fill="none" xmlns="http://www.w3.org/2000/svg">
<path d="M45.3668 48H3.02773C1.45525 48 0.197266 46.742 0.197266 45.1695V2.83045C0.197266 1.25797 1.45525 0 3.02773 0H45.3668C46.9393 0 48.1973 1.25797 48.1973 2.83045V45.1695C48.158 46.742 46.9 48 45.3668 48Z" fill="white"/>
<path d="M45.3668 48H3.02773C1.45525 48 0.197266 46.742 0.197266 45.1695V2.83045C0.197266 1.25797 1.45525 0 3.02773 0H45.3668C46.9393 0 48.1973 1.25797 48.1973 2.83045V45.1695C48.158 46.742 46.9 48 45.3668 48ZM3.02773 1.53316C2.32012 1.53316 1.73044 2.12283 1.73044 2.83045V45.1695C1.73044 45.8771 2.32012 46.4668 3.02773 46.4668H45.3668C46.0744 46.4668 46.6641 45.8771 46.6641 45.1695V2.83045C46.6641 2.12283 46.0744 1.53316 45.3668 1.53316H3.02773Z" fill="#191310"/>
<path d="M26.4566 41.0024H21.9357C21.5033 41.0024 21.1888 40.6485 21.1888 40.2554V28.8549C21.1888 28.5011 20.9136 28.1866 20.5205 28.1866H9.11998C8.68754 28.1866 8.37305 27.8328 8.37305 27.4397V22.9188C8.37305 22.4864 8.72686 22.1719 9.11998 22.1719H20.5205C24.2158 22.1719 27.2035 25.1596 27.2035 28.8549V40.2554C27.2035 40.6485 26.889 41.0024 26.4566 41.0024Z" fill="#191310"/>
<path d="M25.318 19.578H23.0379C22.6055 19.578 22.291 19.2242 22.291 18.8311V8.72787C22.291 8.29544 22.6448 7.98096 23.0379 7.98096H25.318C25.7505 7.98096 26.065 8.33475 26.065 8.72787V18.8311C26.065 19.2242 25.7505 19.578 25.318 19.578Z" fill="#191310"/>
<path d="M40.6487 27.0464H30.2704C29.8379 27.0464 29.5234 26.6926 29.5234 26.2995V24.0194C29.5234 23.587 29.8772 23.2725 30.2704 23.2725H40.6487C41.0812 23.2725 41.3957 23.6263 41.3957 24.0194V26.2995C41.3957 26.6926 41.0812 27.0464 40.6487 27.0464Z" fill="#191310"/>
</svg>
