<svg width="54" height="54" viewBox="0 0 54 54" fill="none" xmlns="http://www.w3.org/2000/svg">
<path d="M24.7053 53.0562L0.943797 29.2947C-0.314599 28.0363 -0.314599 25.9637 0.943797 24.7053L24.7053 0.943797C25.9637 -0.314599 28.0363 -0.314599 29.2947 0.943797L53.0562 24.7053C54.3146 25.9637 54.3146 28.0363 53.0562 29.2947L29.2947 53.0562C28.0363 54.3146 26.0007 54.3146 24.7053 53.0562Z" fill="#201E1B"/>
<path d="M25.1862 49.1327L4.90378 28.8503C3.90447 27.851 3.90447 26.1855 4.90378 25.1862L25.1862 4.90378C26.1855 3.90447 27.851 3.90447 28.8503 4.90378L49.1327 25.1862C50.132 26.1855 50.132 27.851 49.1327 28.8503L28.8503 49.1327C27.851 50.132 26.1855 50.132 25.1862 49.1327Z" fill="white"/>
<path d="M25.6296 39.547L14.4521 28.3694C13.6748 27.5922 13.6748 26.3708 14.4521 25.6306L25.6296 14.4531C26.4068 13.6758 27.6282 13.6758 28.3684 14.4531L39.546 25.6306C40.3232 26.4078 40.3232 27.6292 39.546 28.3694L28.3684 39.547C27.6282 40.3242 26.4068 40.3242 25.6296 39.547Z" fill="#FDF200"/>
<path d="M26.9992 40.62C26.333 40.62 25.7408 40.3609 25.2597 39.9167L14.0821 28.7392C13.638 28.2951 13.3789 27.6659 13.3789 26.9997C13.3789 26.3335 13.638 25.7413 14.0821 25.2601L25.2597 14.0826C25.7038 13.6385 26.333 13.3794 26.9992 13.3794C27.6654 13.3794 28.2576 13.6385 28.7387 14.0826L39.9163 25.2601C40.3604 25.7043 40.6195 26.3335 40.6195 26.9997C40.6195 27.6659 40.3604 28.2581 39.9163 28.7392L28.7387 39.9167C28.2946 40.3609 27.6654 40.62 26.9992 40.62ZM26.9992 14.3417C26.6291 14.3417 26.259 14.4897 25.9629 14.7858L14.7854 25.9634C14.5263 26.2224 14.3412 26.5925 14.3412 26.9997C14.3412 27.4068 14.4893 27.7399 14.7854 28.036L25.9629 39.2135C26.518 39.7687 27.4804 39.7687 28.0355 39.2135L39.213 28.036C39.4721 27.7769 39.6572 27.4068 39.6572 26.9997C39.6572 26.5925 39.5091 26.2594 39.213 25.9634L28.0355 14.7858C27.7764 14.4897 27.4063 14.3417 26.9992 14.3417Z" fill="#201E1B"/>
</svg>
