<svg width="52" height="46" viewBox="0 0 52 46" fill="none" xmlns="http://www.w3.org/2000/svg">
<path d="M23.3284 1.5244L0.416207 41.2513C-0.76636 43.2838 0.711849 45.8337 3.07698 45.8337H48.9384C51.3035 45.8337 52.7448 43.2838 51.5992 41.2513L28.6869 1.5244C27.4305 -0.508134 24.4741 -0.508134 23.3284 1.5244Z" fill="#FF5050"/>
<path d="M25.1013 10.6888L9.2106 38.2205C8.80409 38.8857 9.32146 39.7356 10.0975 39.7356H41.879C42.6551 39.7356 43.1355 38.8857 42.7659 38.2205L26.8752 10.6888C26.4317 10.0236 25.4709 10.0236 25.1013 10.6888Z" fill="white"/>
<path d="M29.3146 21.5171V36.6317C29.3146 37.0013 28.8711 37.1861 28.6124 36.8904L26.1364 34.1188C25.9886 33.934 25.693 33.934 25.5451 34.1188L23.0322 36.9274C22.7735 37.1861 22.33 37.0382 22.33 36.6687V29.9428C22.33 29.7211 22.1453 29.5363 21.9235 29.5363H19.4475C19.2258 29.5363 19.041 29.3516 19.041 29.1298V25.9147C19.041 25.693 19.2258 25.5082 19.4475 25.5082H21.9235C22.1453 25.5082 22.33 25.3234 22.33 25.1017V21.4801C22.33 21.3692 22.367 21.2953 22.4409 21.2214L25.5082 17.7846C25.656 17.5998 25.9516 17.5998 26.0995 17.7846L29.1667 21.2214C29.2776 21.3323 29.3146 21.4431 29.3146 21.5171Z" fill="#191310"/>
</svg>
