<svg width="52" height="46" viewBox="0 0 52 46" fill="none" xmlns="http://www.w3.org/2000/svg">
<path d="M23.3284 1.5244L0.416208 41.2513C-0.766359 43.2838 0.711843 45.8337 3.07698 45.8337H48.9384C51.3035 45.8337 52.7448 43.2838 51.5992 41.2513L28.6869 1.5244C27.4305 -0.508134 24.511 -0.508134 23.3284 1.5244Z" fill="#FF5050"/>
<path d="M25.1013 10.6893L9.2106 38.221C8.80409 38.8862 9.32146 39.7361 10.0975 39.7361H41.879C42.6551 39.7361 43.1355 38.8862 42.7659 38.221L26.8752 10.6893C26.4317 10.0241 25.4709 10.0241 25.1013 10.6893Z" fill="white"/>
<path d="M32.6407 25.9152V29.1303C32.6407 29.352 32.4559 29.5368 32.2342 29.5368H29.7582C29.5364 29.5368 29.3517 29.7216 29.3517 29.9433V36.6322C29.3517 37.0018 28.9082 37.1866 28.6495 36.8909L26.1735 34.1193C26.0257 33.9345 25.7301 33.9345 25.5822 34.1193L23.0693 36.9279C22.8106 37.1866 22.3671 37.0387 22.3671 36.6692V29.9433C22.3671 29.7216 22.1824 29.5368 21.9606 29.5368H19.4846C19.2629 29.5368 19.0781 29.352 19.0781 29.1303V25.9152C19.0781 25.6935 19.2629 25.5087 19.4846 25.5087H21.9606C22.1824 25.5087 22.3671 25.3239 22.3671 25.1022V21.4806C22.3671 21.3697 22.4041 21.2958 22.478 21.2219L25.5453 17.7851C25.6931 17.6003 25.9888 17.6003 26.1366 17.7851L29.2039 21.2219C29.2778 21.2958 29.3147 21.4067 29.3147 21.4806V25.1022C29.3147 25.3239 29.4995 25.5087 29.7212 25.5087H32.1972C32.4559 25.5457 32.6407 25.6935 32.6407 25.9152Z" fill="#191310"/>
</svg>
