<svg width="52" height="46" viewBox="0 0 52 46" fill="none" xmlns="http://www.w3.org/2000/svg">
<path d="M23.3284 1.5244L0.416207 41.2513C-0.76636 43.2838 0.711848 45.8337 3.07698 45.8337H48.9384C51.3035 45.8337 52.7448 43.2838 51.5992 41.2513L28.6869 1.5244C27.4305 -0.508134 24.511 -0.508134 23.3284 1.5244Z" fill="#FF5050"/>
<path d="M25.1013 10.6893L9.2106 38.221C8.80409 38.8862 9.32146 39.7361 10.0975 39.7361H41.879C42.6551 39.7361 43.1355 38.8862 42.7659 38.221L26.8752 10.6893C26.4687 10.0241 25.4709 10.0241 25.1013 10.6893Z" fill="white"/>
<path d="M32.6407 24.6949V27.91C32.6407 28.1317 32.4559 28.3165 32.2342 28.3165H29.7582C29.5364 28.3165 29.3517 28.5013 29.3517 28.723V36.6314C29.3517 37.001 28.9082 37.1857 28.6495 36.8901L26.1735 34.1185C26.0257 33.9337 25.7301 33.9337 25.5822 34.1185L23.0693 36.9271C22.8106 37.1857 22.3671 37.0379 22.3671 36.6684V33.1207C22.3671 32.8989 22.1824 32.7142 21.9606 32.7142H19.4846C19.2629 32.7142 19.0781 32.5294 19.0781 32.3076V29.0925C19.0781 28.8708 19.2629 28.686 19.4846 28.686H21.9606C22.1824 28.686 22.3671 28.5013 22.3671 28.2795V21.5167C22.3671 21.4059 22.4041 21.3319 22.478 21.258L25.5453 17.8212C25.6931 17.6364 25.9888 17.6364 26.1366 17.8212L29.2039 21.258C29.2778 21.3319 29.3147 21.4428 29.3147 21.5167V23.9188C29.3147 24.1405 29.4995 24.3253 29.7212 24.3253H32.1972C32.4559 24.3253 32.6407 24.5101 32.6407 24.6949Z" fill="#191310"/>
</svg>
