<svg width="50" height="50" viewBox="0 0 50 50" fill="none" xmlns="http://www.w3.org/2000/svg">
<path d="M24.6107 49.2214C38.2028 49.2214 49.2214 38.2028 49.2214 24.6107C49.2214 11.0186 38.2028 0 24.6107 0C11.0186 0 0 11.0186 0 24.6107C0 38.2028 11.0186 49.2214 24.6107 49.2214Z" fill="#316AA8"/>
<path d="M19.505 43.0127H15.5746C14.9869 43.0127 14.4727 42.5351 14.4727 41.9107V13.186C14.4727 12.5982 14.9502 12.084 15.5746 12.084H19.505C20.0927 12.084 20.607 12.5615 20.607 13.186V41.9107C20.607 42.5351 20.1294 43.0127 19.505 43.0127Z" fill="#F7F7F7"/>
<path d="M16.6397 5.80352L8.30147 18.6599C7.82394 19.3945 8.3382 20.3495 9.21977 20.3495H25.933C26.8146 20.3495 27.3288 19.3945 26.8513 18.6599L18.5131 5.76677C18.0355 5.10559 17.0805 5.1056 16.6397 5.80352Z" fill="#F7F7F7"/>
<path d="M44.3718 28.6876L31.4787 20.3493C30.7441 19.8718 29.7891 20.386 29.7891 21.2676V37.9809C29.7891 38.8624 30.7441 39.3767 31.4787 38.8992L44.3718 30.5609C45.0697 30.1201 45.0697 29.1284 44.3718 28.6876Z" fill="#F7F7F7"/>
<path d="M20.607 37.9075H14.4727C14.4727 31.8834 19.3581 26.998 25.3822 26.998H30.5247V33.0956H25.3822C22.7742 33.0956 20.607 35.2628 20.607 37.9075Z" fill="#F7F7F7"/>
</svg>
