<svg width="50" height="50" viewBox="0 0 50 50" fill="none" xmlns="http://www.w3.org/2000/svg">
<path d="M24.6107 49.2214C38.2028 49.2214 49.2214 38.2028 49.2214 24.6107C49.2214 11.0186 38.2028 0 24.6107 0C11.0186 0 0 11.0186 0 24.6107C0 38.2028 11.0186 49.2214 24.6107 49.2214Z" fill="#316AA8"/>
<path d="M6.39062 27.2178V23.1773C6.39062 22.5528 6.90488 22.0386 7.52933 22.0386H33.4624C34.0868 22.0386 34.6011 22.5528 34.6011 23.1773V27.2178C34.6011 27.8423 34.0868 28.3565 33.4624 28.3565H7.52933C6.90488 28.3565 6.39062 27.8423 6.39062 27.2178Z" fill="#F7F7F7"/>
<path d="M42.6461 24.2065L28.6511 15.1336C27.843 14.6194 26.8145 15.2071 26.8145 16.1254V34.2712C26.8145 35.2262 27.843 35.7772 28.6511 35.263L42.6461 26.1901C43.344 25.7493 43.344 24.684 42.6461 24.2065Z" fill="#F7F7F7"/>
</svg>
