<svg width="50" height="50" viewBox="0 0 50 50" fill="none" xmlns="http://www.w3.org/2000/svg">
<path d="M24.6107 49.2214C38.2028 49.2214 49.2214 38.2028 49.2214 24.6107C49.2214 11.0186 38.2028 0 24.6107 0C11.0186 0 0 11.0186 0 24.6107C0 38.2028 11.0186 49.2214 24.6107 49.2214Z" fill="#316AA8"/>
<path d="M27.2554 42.7935H23.2149C22.5904 42.7935 22.0762 42.2792 22.0762 41.6548V15.7217C22.0762 15.0973 22.5904 14.583 23.2149 14.583H27.2554C27.8799 14.583 28.3941 15.0973 28.3941 15.7217V41.6548C28.3574 42.316 27.8432 42.7935 27.2554 42.7935Z" fill="#F7F7F7"/>
<path d="M24.2426 6.5754L15.1697 20.5705C14.6555 21.3786 15.2432 22.4071 16.1615 22.4071H34.3073C35.2624 22.4071 35.8133 21.3786 35.2991 20.5705L26.2262 6.5754C25.7487 5.84075 24.7202 5.84075 24.2426 6.5754Z" fill="#F7F7F7"/>
</svg>
