<svg width="52" height="46" viewBox="0 0 52 46" fill="none" xmlns="http://www.w3.org/2000/svg">
<path d="M23.3284 1.5244L0.416206 41.2513C-0.76636 43.2838 0.711853 45.8337 3.07699 45.8337H48.9384C51.3035 45.8337 52.7448 43.2838 51.5992 41.2513L28.6869 1.5244C27.4305 -0.508134 24.511 -0.508134 23.3284 1.5244Z" fill="#FF5050"/>
<path d="M25.1013 10.6517L9.2106 38.1834C8.80409 38.8486 9.32146 39.6985 10.0975 39.6985H41.879C42.6551 39.6985 43.1355 38.8486 42.7659 38.1834L26.8752 10.6517C26.4687 9.98653 25.4709 9.98653 25.1013 10.6517Z" fill="white"/>
<path d="M23.9555 37.9247H21.1469C20.9252 37.9247 20.7773 37.7399 20.7773 37.5551V20.5927C20.7773 20.371 20.9621 20.2231 21.1469 20.2231H23.9555C24.1772 20.2231 24.325 20.4079 24.325 20.5927V37.5551C24.325 37.7769 24.1772 37.9247 23.9555 37.9247Z" fill="#191310"/>
<path d="M32.5304 37.9245H29.7218C29.5001 37.9245 29.3522 37.7398 29.3522 37.555V30.94C29.3522 30.8291 29.3153 30.7552 29.2414 30.6813L25.8784 27.0967C25.8045 27.0228 25.7676 26.9488 25.7676 26.838V20.5556C25.7676 20.3339 25.9524 20.186 26.1371 20.186H28.9457C29.1675 20.186 29.3153 20.3708 29.3153 20.5556V25.4337C29.3153 25.5445 29.3522 25.6184 29.4261 25.6924L32.7891 29.277C32.863 29.3509 32.8999 29.4248 32.8999 29.5357V37.555C32.8999 37.7767 32.7521 37.9245 32.5304 37.9245Z" fill="#191310"/>
</svg>
