<svg width="52" height="46" viewBox="0 0 52 46" fill="none" xmlns="http://www.w3.org/2000/svg">
<path d="M23.3284 1.5244L0.416207 41.2513C-0.76636 43.2838 0.711848 45.8337 3.07698 45.8337H48.9384C51.3035 45.8337 52.7448 43.2838 51.5992 41.2513L28.6869 1.5244C27.4674 -0.508134 24.511 -0.508134 23.3284 1.5244Z" fill="#FF5050"/>
<path d="M25.1033 10.6517L9.21255 38.1834C8.80604 38.8486 9.32341 39.6985 10.0995 39.6985H41.881C42.657 39.6985 43.1374 38.8486 42.7679 38.1834L26.8771 10.6517C26.4706 9.98653 25.5098 9.98653 25.1033 10.6517Z" fill="white"/>
<path d="M27.4313 37.9262H29.8703C30.166 37.9262 30.4247 37.6675 30.4247 37.3718V20.7789C30.4247 20.4833 30.166 20.2246 29.8703 20.2246H27.4313C27.1356 20.2246 26.877 20.4833 26.877 20.7789V37.3718C26.877 37.6675 27.0987 37.9262 27.4313 37.9262Z" fill="#191310"/>
<path d="M18.8571 37.9262H21.2961C21.5918 37.9262 21.8504 37.6675 21.8504 37.3718V31.0155C21.8504 30.8677 21.8874 30.7199 21.9983 30.646L25.2503 27.1722C25.3612 27.0613 25.3981 26.9135 25.3981 26.8026V20.7789C25.3981 20.4833 25.1394 20.2246 24.8438 20.2246H22.4048C22.1091 20.2246 21.8504 20.4833 21.8504 20.7789V25.3983C21.8504 25.5462 21.8135 25.694 21.7026 25.7679L18.4506 29.2417C18.3397 29.3525 18.3027 29.5004 18.3027 29.6112V37.3718C18.3027 37.6675 18.5614 37.9262 18.8571 37.9262Z" fill="#191310"/>
</svg>
