<svg width="36" height="36" viewBox="0 0 36 36" fill="none" xmlns="http://www.w3.org/2000/svg">
<path d="M33.5205 35.1155L1.59117 35.1155C0.73536 35.1155 0.0351562 34.4153 0.0351562 33.5595L0.0351562 1.63023C0.0351562 0.774423 0.73536 0.0742188 1.59117 0.0742188L33.5205 0.0742188C34.3763 0.0742188 35.0765 0.774423 35.0765 1.63023L35.0765 33.5595C35.0765 34.4153 34.3763 35.1155 33.5205 35.1155Z" fill="#316AA8"/>
<path d="M19.2283 29.8955L15.8751 29.8955C15.4083 29.8955 15.0193 29.5143 15.0193 29.0397L15.0193 13.1917C15.0193 12.7249 15.4005 12.3359 15.8751 12.3359L19.2283 12.3359C19.6951 12.3359 20.0841 12.7172 20.0841 13.1917L20.0841 29.0475C20.0841 29.5143 19.7029 29.8955 19.2283 29.8955Z" fill="#F7F7F7"/>
<path d="M16.2317 6.01068L9.56419 16.3037C8.88733 17.354 9.63421 18.7388 10.8868 18.7388L24.2296 18.7388C25.4822 18.7388 26.2369 17.354 25.5522 16.3037L18.8769 6.01068C18.2545 5.05373 16.8541 5.05373 16.2317 6.01068Z" fill="#F7F7F7"/>
</svg>
