<svg width="35" height="46" viewBox="0 0 35 46" fill="none" xmlns="http://www.w3.org/2000/svg">
<path d="M1.76315 0H32.8755C33.8305 0 34.6386 0.808108 34.6386 1.76315V43.8585C34.6386 44.8135 33.8305 45.6216 32.8755 45.6216H1.76315C0.808108 45.6216 0 44.8135 0 43.8585V1.76315C0 0.771376 0.808108 0 1.76315 0Z" fill="#316AA8"/>
<path d="M9.73438 30.9649V7.199C9.73438 6.79495 10.065 6.46436 10.469 6.46436H19.3215C23.1784 6.46436 26.4843 9.47641 26.6313 13.3333C26.7782 17.3739 23.5457 20.7533 19.5052 20.7533H14.179V30.9649C14.179 31.3689 13.8484 31.6995 13.4443 31.6995H10.469C10.065 31.6995 9.73438 31.3689 9.73438 30.9649ZM14.2157 16.2352H19.5419C21.0112 16.2352 22.2234 15.023 22.2234 13.5537C22.2234 12.0844 21.0112 10.8722 19.5419 10.8722H14.2157V16.2352Z" fill="white"/>
</svg>
