<svg width="54" height="54" viewBox="0 0 54 54" fill="none" xmlns="http://www.w3.org/2000/svg">
<circle cx="27.0266" cy="27.1848" r="26.6301" fill="white"/>
<path d="M36.4309 25.0415H33.3611C32.9912 25.0415 32.6953 25.3374 32.6953 25.7073V39.762C32.6953 40.1319 32.9912 40.4278 33.3611 40.4278H36.4309C36.8008 40.4278 37.0967 40.1319 37.0967 39.762V25.7073C37.0967 25.3374 36.8008 25.0415 36.4309 25.0415Z" fill="#FF5050"/>
<path d="M34.8777 14.7954C34.6188 14.7954 34.3229 14.9433 34.1749 15.2023L27.6284 25.2995C27.2585 25.8543 27.6653 26.631 28.3311 26.631H41.4242C42.09 26.631 42.4968 25.8913 42.127 25.2995L35.5804 15.2023C35.4325 14.9433 35.1736 14.7954 34.8777 14.7954Z" fill="#FF5050"/>
<path d="M17.6061 14.5732H20.6759C21.0458 14.5732 21.3417 14.8691 21.3417 15.239V29.2938C21.3417 29.6636 21.0458 29.9595 20.6759 29.9595H17.6061C17.2362 29.9595 16.9403 29.6636 16.9403 29.2938V15.239C16.9033 14.8691 17.2362 14.5732 17.6061 14.5732Z" fill="#191310"/>
<path d="M19.8618 39.835L26.4084 29.7378C26.7782 29.183 26.3714 28.4062 25.7056 28.4062H12.6495C11.9837 28.4062 11.5769 29.146 11.9467 29.7378L18.4933 39.835C18.7522 40.3898 19.5289 40.3898 19.8618 39.835Z" fill="#191310"/>
<path d="M27 5.39999C38.9096 5.39999 48.6 15.0904 48.6 27C48.6 38.9096 38.9096 48.6 27 48.6C15.0904 48.6 5.4 38.9096 5.4 27C5.4 15.0904 15.0904 5.39999 27 5.39999ZM27 0C12.0945 0 0 12.0945 0 27C0 41.9055 12.0945 54 27 54C41.9055 54 54 41.9055 54 27C54 12.0945 41.9425 0 27 0Z" fill="#FF5050"/>
</svg>
