<svg width="52" height="46" viewBox="0 0 52 46" fill="none" xmlns="http://www.w3.org/2000/svg">
<path d="M23.3284 1.5244L0.416207 41.2513C-0.766361 43.2838 0.711853 45.8337 3.07699 45.8337H48.9384C51.3035 45.8337 52.7448 43.2838 51.5992 41.2513L28.6869 1.5244C27.4305 -0.508134 24.511 -0.508134 23.3284 1.5244Z" fill="#FF5050"/>
<path d="M25.1033 10.6893L9.21255 38.221C8.80604 38.8862 9.32342 39.7361 10.0995 39.7361H41.881C42.657 39.7361 43.1374 38.8862 42.7679 38.221L26.8771 10.6893C26.4706 10.0241 25.5098 10.0241 25.1033 10.6893Z" fill="white"/>
<path d="M32.9357 35.1175L30.6814 37.3717C30.5336 37.5196 30.3119 37.5196 30.1641 37.3717L19.0406 26.2482C18.8927 26.1004 18.8927 25.8787 19.0406 25.7309L21.2948 23.4766C21.4426 23.3288 21.6644 23.3288 21.8122 23.4766L32.9357 34.6001C33.0835 34.7479 33.0835 34.9697 32.9357 35.1175Z" fill="#191310"/>
<path d="M19.0054 35.1175L21.2597 37.3717C21.4075 37.5196 21.6292 37.5196 21.777 37.3717L32.9006 26.2482C33.0484 26.1004 33.0484 25.8787 32.9006 25.7309L30.6463 23.4766C30.4985 23.3288 30.2768 23.3288 30.1289 23.4766L19.0054 34.6001C18.8576 34.7479 18.8576 34.9697 19.0054 35.1175Z" fill="#191310"/>
</svg>
