<svg width="52" height="46" viewBox="0 0 52 46" fill="none" xmlns="http://www.w3.org/2000/svg">
<path d="M23.3284 1.5244L0.416207 41.2513C-0.76636 43.2838 0.711849 45.8337 3.07698 45.8337H48.9384C51.3035 45.8337 52.7448 43.2838 51.5992 41.2513L28.687 1.5244C27.4305 -0.508134 24.511 -0.508134 23.3284 1.5244Z" fill="#FF5050"/>
<path d="M25.1033 10.6517L9.21255 38.1834C8.80604 38.8486 9.32341 39.6985 10.0995 39.6985H41.881C42.657 39.6985 43.1374 38.8486 42.7679 38.1834L26.8771 10.6517C26.4706 9.98653 25.4728 9.98653 25.1033 10.6517Z" fill="white"/>
<path d="M30.7552 37.5192H29.0922C28.9074 37.5192 28.7227 37.3714 28.7227 37.1496V29.6108C28.7227 29.426 28.8705 29.2412 29.0922 29.2412H30.7552C30.94 29.2412 31.1247 29.389 31.1247 29.6108V37.1496C31.1247 37.3344 30.94 37.5192 30.7552 37.5192Z" fill="#191310"/>
<path d="M29.5367 23.9191L26.026 29.3146C25.8412 29.6102 26.0629 30.0167 26.3955 30.0167H33.417C33.7866 30.0167 34.0083 29.6102 33.7866 29.3146L30.2758 23.9191C30.128 23.6604 29.7215 23.6604 29.5367 23.9191Z" fill="#191310"/>
<path d="M20.9262 23.6235H22.5892C22.774 23.6235 22.9587 23.7714 22.9587 23.9931V31.5319C22.9587 31.7167 22.8109 31.9015 22.5892 31.9015H20.9262C20.7414 31.9015 20.5566 31.7537 20.5566 31.5319V23.9931C20.5566 23.7714 20.7045 23.6235 20.9262 23.6235Z" fill="#191310"/>
<path d="M22.1469 37.186L25.6577 31.7905C25.8424 31.4949 25.6207 31.0884 25.2881 31.0884H18.2666C17.8971 31.0884 17.6753 31.4949 17.8971 31.7905L21.4078 37.186C21.5556 37.4447 21.9621 37.4447 22.1469 37.186Z" fill="#191310"/>
</svg>
