<svg width="36" height="36" viewBox="0 0 36 36" fill="none" xmlns="http://www.w3.org/2000/svg">
<path d="M23.7008 0.0742188L11.3405 0.0742188C10.6493 0.0742188 9.99225 0.347979 9.50633 0.833904L0.759685 9.58055C0.27376 10.0665 0 10.7235 0 11.4147L0 23.7819C0 24.4731 0.27376 25.1301 0.759685 25.6161L9.49948 34.3559C9.98541 34.8418 10.6493 35.1155 11.3337 35.1155L23.7008 35.1155C24.392 35.1155 25.0491 34.8418 25.535 34.3559L34.2748 25.6161C34.7607 25.1301 35.0345 24.4663 35.0345 23.7819L35.0345 11.4147C35.0345 10.7235 34.7607 10.0665 34.2748 9.58055L25.535 0.833904C25.0491 0.347979 24.392 0.0742188 23.7008 0.0742188Z" fill="#FF5050"/>
<path d="M16.8689 12.8926L11.6743 12.8926C11.2294 12.8926 10.8599 13.2553 10.8599 13.707C10.8599 14.1587 11.2226 14.5215 11.6743 14.5215L13.4606 14.5215L13.4606 21.4955C13.4606 21.9404 13.8233 22.3099 14.275 22.3099C14.7267 22.3099 15.0895 21.9472 15.0895 21.4955L15.0895 14.5146L16.8758 14.5146C17.3206 14.5146 17.6902 14.1519 17.6902 13.7002C17.6902 13.2485 17.3206 12.8926 16.8689 12.8926Z" fill="white"/>
<path d="M21.4159 12.8926C19.5406 12.8926 18.0076 14.4188 18.0076 16.3009L18.0076 18.8948C18.0076 20.77 19.5338 22.3031 21.4159 22.3031C23.298 22.3031 24.8242 20.7769 24.8242 18.8948L24.8242 16.294C24.8242 14.4188 23.2911 12.8926 21.4159 12.8926ZM23.2022 18.8948C23.2022 19.8803 22.4014 20.681 21.4159 20.681C20.4303 20.681 19.6296 19.8803 19.6296 18.8948L19.6296 16.294C19.6296 15.3085 20.4303 14.5078 21.4159 14.5078C22.4014 14.5078 23.2022 15.3154 23.2022 16.294L23.2022 18.8948Z" fill="white"/>
<path d="M28.875 12.8926L26.6028 12.8926C26.1579 12.8926 25.7883 13.2553 25.7883 13.707L25.7883 21.4955C25.7883 21.9404 26.1511 22.3099 26.6028 22.3099C27.0545 22.3099 27.4172 21.9472 27.4172 21.4955L27.4172 19.059L28.875 19.059C30.5723 19.059 31.9548 17.6765 31.9548 15.9792C31.9548 14.2819 30.5791 12.8926 28.875 12.8926ZM28.875 17.4302L27.4172 17.4302L27.4172 14.5146L28.875 14.5146C29.6826 14.5146 30.3328 15.1716 30.3328 15.9724C30.3328 16.7731 29.6826 17.4302 28.875 17.4302Z" fill="white"/>
<path d="M7.45993 14.5146C8.32228 14.5146 8.9177 14.9868 8.9177 15.4043C8.9177 15.8492 9.28044 16.2188 9.73214 16.2188C10.1838 16.2188 10.5466 15.856 10.5466 15.4043C10.5466 13.9945 9.19146 12.8926 7.46677 12.8926C5.74208 12.8926 4.38013 13.9945 4.38013 15.4043C4.38013 17.3549 6.13904 17.9845 7.18617 18.3609C8.67132 18.8879 8.9177 19.2301 8.9177 19.7845C8.9177 20.2088 8.31543 20.6742 7.45993 20.6742C6.60443 20.6742 6.00216 20.202 6.00216 19.7845C6.00216 19.3396 5.63942 18.97 5.18772 18.97C4.73602 18.97 4.38013 19.3396 4.38013 19.7845C4.38013 21.1943 5.73524 22.2962 7.45993 22.2962C9.18462 22.2962 10.5397 21.1943 10.5397 19.7845C10.5397 17.8339 8.78082 17.2043 7.73369 16.8279C6.24854 16.3009 6.00216 15.9587 6.00216 15.4043C6.00216 14.98 6.60443 14.5146 7.45993 14.5146Z" fill="white"/>
</svg>
