<svg width="22" height="47" viewBox="0 0 22 47" fill="none" xmlns="http://www.w3.org/2000/svg">
<path d="M18.1986 46.4956L3.7725 46.4956C1.71696 46.4956 0.0351562 44.8068 0.0351562 42.7427L0.0351562 4.2568C0.0351562 2.19271 1.71696 0.503906 3.7725 0.503906L18.1986 0.503906C20.2542 0.503906 21.936 2.19271 21.936 4.2568L21.936 42.7427C21.936 44.8068 20.2542 46.4956 18.1986 46.4956Z" fill="#383838"/>
<path d="M10.9872 15.0939C13.8253 15.0939 16.1261 12.7836 16.1261 9.93367C16.1261 7.08375 13.8253 4.77344 10.9872 4.77344C8.14913 4.77344 5.84839 7.08375 5.84839 9.93367C5.84839 12.7836 8.14913 15.0939 10.9872 15.0939Z" fill="#FF5050"/>
<path d="M10.9872 28.1642C13.8253 28.1642 16.1261 25.8539 16.1261 23.004C16.1261 20.1541 13.8253 17.8438 10.9872 17.8438C8.14913 17.8438 5.84839 20.1541 5.84839 23.004C5.84839 25.8539 8.14913 28.1642 10.9872 28.1642Z" fill="#FFDD50"/>
<path d="M10.9872 41.2306C13.8253 41.2306 16.1261 38.9203 16.1261 36.0704C16.1261 33.2205 13.8253 30.9102 10.9872 30.9102C8.14913 30.9102 5.84839 33.2205 5.84839 36.0704C5.84839 38.9203 8.14913 41.2306 10.9872 41.2306Z" fill="#79E26D"/>
</svg>
