<svg width="48" height="48" viewBox="0 0 48 48" fill="none" xmlns="http://www.w3.org/2000/svg">
<path d="M2.12459 0H45.8754C47.0557 0 48 0.944272 48 2.1246V45.8754C48 47.0557 47.0557 48 45.8754 48H2.12459C0.94426 48 0 47.0557 0 45.8754V2.1246C0 0.944272 0.94426 0 2.12459 0Z" fill="#316AA8"/>
<path d="M34.781 40.0142H31.24C30.8072 40.0142 30.4531 39.6601 30.4531 39.2273V23.1355C30.4531 22.7027 30.8072 22.3486 31.24 22.3486H34.781C35.2138 22.3486 35.5679 22.7027 35.5679 23.1355V39.2273C35.5679 39.6601 35.2138 40.0142 34.781 40.0142Z" fill="#F7F7F7"/>
<path d="M32.1848 11.0571L24.7094 22.585C24.2766 23.2538 24.7487 24.0801 25.5356 24.0801H40.4864C41.2733 24.0801 41.7454 23.2145 41.3126 22.585L33.8372 11.0571C33.4438 10.4276 32.5782 10.4276 32.1848 11.0571Z" fill="#F7F7F7"/>
<path d="M13.2205 10.3486H16.7615C17.1943 10.3486 17.5483 10.7027 17.5483 11.1355V27.2273C17.5483 27.6601 17.1943 28.0142 16.7615 28.0142H13.2205C12.7877 28.0142 12.4336 27.6601 12.4336 27.2273V11.1355C12.4336 10.7027 12.7877 10.3486 13.2205 10.3486Z" fill="#FF5050"/>
<path d="M15.8177 39.3062L23.2931 27.7783C23.7259 27.1094 23.2538 26.2832 22.4669 26.2832H7.51606C6.72917 26.2832 6.25704 27.1488 6.68982 27.7783L14.1652 39.3062C14.5587 39.8963 15.4243 39.8963 15.8177 39.3062Z" fill="#FF5050"/>
</svg>
