<svg width="58" height="48" viewBox="0 0 58 48" fill="none" xmlns="http://www.w3.org/2000/svg"><path d="m22.339 36.73-.126-.485-.003.001-.007.002-.03.008a17.879 17.879 0 0 0-.497.137c-.321.092-.755.222-1.2.373-.44.15-.906.324-1.286.507-.189.091-.37.19-.52.297-.136.096-.312.243-.404.447l-.004.007-.003.008a.986.986 0 0 0-.064.378c0 .112.012.234.03.358.036.248.103.547.187.87.169.647.419 1.436.675 2.194a83.638 83.638 0 0 0 1.037 2.886l.019.048.004.012.002.004.467-.178-.467.179.123.32h6.718l6.197.058.344.003.126-.32-.465-.183.465.183.002-.004.005-.013.019-.048.029-.074.042-.11a86.324 86.324 0 0 0 .994-2.701c.263-.758.521-1.547.695-2.195.087-.323.156-.622.194-.87.019-.124.032-.246.033-.358 0-.101-.007-.245-.064-.382l-.003-.007-.003-.008c-.093-.204-.269-.35-.404-.446a3.661 3.661 0 0 0-.521-.298c-.38-.182-.845-.357-1.287-.507a26.636 26.636 0 0 0-1.696-.51l-.03-.008-.007-.002h-.003l-.125.484m-9.188-.058-.078-.494h.007l.02-.004.076-.011a34.02 34.02 0 0 1 4.51-.335h.116c1.204 0 2.359.102 3.21.204a29.1 29.1 0 0 1 1.39.201l.02.004h.007v.001l-.09.492m-9.188-.058-.126-.484.024-.006.024-.004.078.494Zm9.188.058.09-.492.018.003.017.005-.125.484Zm5.168 3.793-.5-.03-.03.506.505.024h.008l.033.002.129.012c.112.013.269.034.444.07.366.074.751.2 1.006.391.017.013.071.083.059.305a.951.951 0 0 1-.002.024l-1.68.094-.48.026.008.48.052 3.569a2.814 2.814 0 0 1-.038.012l-.048-3.48-.023-1.68-.9 1.42.423.267-.422-.267-.002.002-.003.006-.014.022a28.405 28.405 0 0 0-.84 1.468c-.435.818-.958 1.894-1.339 2.988a32.65 32.65 0 0 1-5.993.57c-2.154 0-4.26-.258-6.27-.676-.36-1.126-.886-2.221-1.33-3.049a24.164 24.164 0 0 0-.864-1.48l-.014-.023-.004-.006-.001-.001v-.001l-.418.275.417-.275-.917-1.395v5.069l-.091-.028v-3.959l-.473-.027-1.68-.093a.951.951 0 0 1-.002-.024c-.012-.223.042-.292.06-.306.251-.188.648-.315 1.03-.39a5.319 5.319 0 0 1 .602-.082l.035-.002h.008l.499-.023-.023-.5-.499.023.5-.022v-.006l-.002-.016-.002-.065a191.83 191.83 0 0 1-.125-4.254c-.043-2.415-.043-5.279.127-7.145.153-1.688 1.079-2.53 1.977-2.974a4.919 4.919 0 0 1 1.715-.475l.15.043c.154.043.375.102.655.169.56.132 1.353.294 2.293.412l.052.006.053-.004 3.95-.335.803.352.122.054.134-.015a27.805 27.805 0 0 0 2.456-.398l1.759.053c.52.19 1.114.485 1.599.97.498.498.904 1.22.982 2.305v.01c.17 1.863.142 4.723.07 7.139a172.182 172.182 0 0 1-.166 4l-.014.252-.004.065-.001.016v.005l.499.03Zm-1.338-12.3c0-1.109-1.007-1.822-2.108-1.822-.538 0-1.05.179-1.434.48-.384.3-.674.75-.674 1.285 0 1.108 1.007 1.822 2.108 1.822.539 0 1.05-.18 1.435-.48.384-.3.673-.75.673-1.285Zm-12.576-.058c0-1.108-1.007-1.822-2.108-1.822-1.03 0-2.108.704-2.108 1.823 0 1.063 1.023 1.764 2.108 1.764.539 0 1.05-.179 1.435-.48.384-.3.673-.75.673-1.285ZM50.764 10.692l.49-.101v-.003l-.002-.008-.006-.03a17.997 17.997 0 0 0-.114-.5c-.076-.323-.186-.76-.319-1.21-.131-.446-.29-.92-.464-1.31a3.54 3.54 0 0 0-.293-.542 1.248 1.248 0 0 0-.439-.418.917.917 0 0 0-.382-.094 2.324 2.324 0 0 0-.358.015 7.68 7.68 0 0 0-.866.16c-.646.149-1.437.38-2.198.618a79.56 79.56 0 0 0-2.904.975l-.05.017-.012.005h-.003l-.001.001.17.47-.17-.47-.321.116-.01.34-.172 6.208V15.108l-.23 6.199-.012.341.313.136.2-.459-.2.46h.002l.003.001.012.005.047.02.18.078a85.52 85.52 0 0 0 2.647 1.074 32.42 32.42 0 0 0 2.155.757c.317.095.613.172.859.216.122.021.245.037.358.04a.952.952 0 0 0 .388-.063c.207-.086.362-.252.47-.39.115-.149.223-.329.322-.516.198-.376.386-.836.547-1.271a24.318 24.318 0 0 0 .546-1.673l.009-.029.002-.008v-.002l-.48-.136m.286-9.196.496-.064v.003l.001.005.003.02.01.078.032.291c.026.25.06.608.093 1.037.066.856.124 2.007.095 3.177v.133a37.796 37.796 0 0 1-.306 3.197 39.739 39.739 0 0 1-.2 1.307l-.014.075-.003.02-.002.006v.001l-.492-.09m.288-9.196.49-.101.003.018.002.02-.495.063Zm-.288 9.196.482.135.006-.022.004-.022-.492-.09Zm-5.156 6.688a1.252 1.252 0 0 1-.04-.005l-.046-1.696-.011-.392.946.02-.038.395V24.908l-.004.033-.018.13a5.454 5.454 0 0 1-.088.45c-.089.368-.228.762-.424 1.023-.002.003-.052.058-.277.033Zm-17.864-3.32.338.369-.338-.37-.921.844.59.012-.13.004c-.2.006-.485.012-.826.008a16.842 16.842 0 0 1-2.43-.188 15.672 15.672 0 0 0-1.5-.154c-.386-.027-.738-.053-1.066-.099-.734-.101-1.22-.29-1.528-.693a1.523 1.523 0 0 1-.145-.36 6.777 6.777 0 0 1-.163-.727 23.698 23.698 0 0 1-.248-2.042 78.62 78.62 0 0 1-.213-4.117V14.906c.086-1.206.257-3.254.491-5.107.118-.932.25-1.806.395-2.496a8.53 8.53 0 0 1 .218-.859c.077-.239.138-.35.165-.383l.005-.006.004-.006c.299-.4.773-.567 1.513-.636.314-.029.648-.038 1.013-.048l.19-.006c.43-.012.893-.03 1.362-.09a17.02 17.02 0 0 1 2.423-.034 20.924 20.924 0 0 1 1.058.082l.06.006.014.002h.003l.025.003h.024l17.458.403.47.011.04-.47.138-1.667h.01c.206 0 .296.048.326.08.164.257.276.651.344 1.03a6.055 6.055 0 0 1 .076.61l.002.035V5.37l.023.483.483-.006-.006-.5.006.5h.052l.152-.002.57-.004c.49-.003 1.183-.004 1.996 0 1.536.006 3.498.032 5.323.107 1.392 3.478 2.142 7.221 2.197 11.128 0 2.697-.36 5.34-1.03 7.835-1.928.01-4.283-.097-6.207-.211a181.103 181.103 0 0 1-3.32-.229l-.202-.016-.052-.004-.013-.002h-.004l-.042.498.041-.498-.492-.04-.004.036-1.335-.89-.277.415.277-.416-.003-.002-.007-.004-.027-.018a21.078 21.078 0 0 0-.476-.3c-.32-.198-.773-.466-1.306-.755-1.06-.575-2.468-1.245-3.792-1.576-2.638-.66-5.487-.238-7.493.106-1.111.16-2.187.739-2.96 1.247a12.436 12.436 0 0 0-1.29.98l-.02.017-.006.005-.002.002Zm17.938-16.39 1.458-.88-1.702-.047-16.768-.46-1.255-.035.887.888.354-.353-.354.353h.001l.002.003.005.005.019.018a7.689 7.689 0 0 0 .323.299c.218.192.53.454.907.73.745.547 1.787 1.183 2.89 1.436l.014.002.212.043c1.973.396 4.672.939 7.277.417h.002c1.326-.272 2.763-.883 3.851-1.413a28.48 28.48 0 0 0 1.84-.983l.027-.016.007-.005.002-.001h.001l-.258-.429.258.428ZM26.477 22.731l.01-.003c.485-.13 1.128-.423 1.622-.667a24.022 24.022 0 0 0 .833-.432l.052-.028.015-.008.003-.002h.001v-.001l-.242-.437.243.437.018-.01.016-.011a7.753 7.753 0 0 0 1.344-1.11 3.48 3.48 0 0 0 .429-.549c.108-.177.2-.38.226-.592.032-.259.076-1.385.111-2.416.036-1.043.065-2.06.065-2.13v-.23l.001-.025.004-.148.013-.464.04-1.418c.028-1.043.057-2.16.057-2.427a.582.582 0 0 0-.125-.354.881.881 0 0 0-.144-.145 2.255 2.255 0 0 0-.309-.203 9.888 9.888 0 0 0-.902-.432 33.67 33.67 0 0 0-2.647-.987c-.96-.315-1.939-.594-2.7-.739-.374-.071-.726-.117-1.005-.107a1.254 1.254 0 0 0-.444.086.672.672 0 0 0-.405.463 8.087 8.087 0 0 0-.149.956c-.049.427-.1.957-.15 1.533a287.082 287.082 0 0 0-.288 3.626l-.001.02v.076c0 1.124.014 2.966.043 4.607.015.82.033 1.593.054 2.2.021.587.046 1.07.083 1.272v.003c.068.358.257.649.553.847.28.186.621.27.975.299.703.057 1.63-.09 2.7-.35ZM9.32 33.683v7.888a30.051 30.051 0 0 1-8.475-9.515H7.58c.955 0 1.74.778 1.74 1.627ZM46.802 32.056h6.677a30.611 30.611 0 0 1-8.474 9.507v-7.88c0-.841.776-1.627 1.797-1.627ZM24.003 1.224h-7.12a.385.385 0 0 1-.362-.362c0-.184.179-.362.361-.362h7.121c.183 0 .361.178.361.362a.385.385 0 0 1-.361.362ZM7.482.862a.385.385 0 0 1-.36.362H1.399L1.834.5h5.287c.183 0 .361.178.361.362ZM40.772 1.224H33.65a.385.385 0 0 1-.362-.362c0-.184.179-.362.362-.362h7.12c.183 0 .362.178.362.362a.347.347 0 0 1-.361.362ZM52.455.5c.17.245.328.482.48.724H50.65a.385.385 0 0 1-.362-.362c0-.184.179-.362.362-.362h1.805Z" fill="currentColor" stroke="currentColor"/></svg>