<svg width="58" height="40" viewBox="0 0 58 40" fill="none" xmlns="http://www.w3.org/2000/svg"><path d="M17.254 38.999a3.622 3.622 0 0 1-3.624-3.624 3.622 3.622 0 0 1 3.624-3.623 3.622 3.622 0 0 1 3.623 3.623A3.622 3.622 0 0 1 17.254 39Zm0-6.403c-1.54 0-2.67 1.272-2.67 2.67 0 1.54 1.27 2.67 2.67 2.67 1.54 0 2.67-1.27 2.67-2.67 0-1.415-1.255-2.67-2.67-2.67Z" fill="currentColor" stroke="currentColor"/><path d="M11.147 35.342a9.31 9.31 0 0 0-.036.565H4.133c-1.625-2.7-2.673-5.674-3.222-8.93H10.367l-.71-.825-.38.326.38-.326v-.001l-.003-.002-.006-.008-.024-.027a29.692 29.692 0 0 0-.427-.477 35.597 35.597 0 0 0-1.168-1.216c-.938-.932-2.179-2.053-3.322-2.712-1.322-.835-2.952-1.309-3.915-1.588l-.278-.081c.01-.131.023-.26.037-.392l.003-.026.026-.253c2.727.314 5.832 1.95 8.356 3.607a45.87 45.87 0 0 1 4.232 3.153l.251.215.064.055.016.014.003.004h.001l.142.127H18.553c.134.028.31.055.498.082l.131.019c.202.029.43.062.684.102.62.1 1.367.245 2.122.48l.011.003.011.003c1.225.32 2.57.789 3.535 1.395.281.205.541.417.753.623.189.183.322.345.402.48l.145 1.014v1.716c-.396.97-1.291 1.45-2.195 1.684a6.284 6.284 0 0 1-1.275.187 5.656 5.656 0 0 0-.672-2.21 4.87 4.87 0 0 0-1.871-1.89c-.9-.512-2.084-.836-3.633-.836-1.589 0-2.793.435-3.693 1.119-.895.68-1.454 1.577-1.803 2.45a8.683 8.683 0 0 0-.556 2.377Z" fill="currentColor" stroke="currentColor"/><path d="m21.837 27.094.163.122.202-.026 2.83-.372.247 1.477.058.35.35.06.9.157.154.885.035.334-2.665-.55-3.873-2.303-.884-1.025.777-.389 1.706 1.28ZM36.743 35.375a3.622 3.622 0 0 1 3.624-3.623 3.622 3.622 0 0 1 3.623 3.623A3.622 3.622 0 0 1 40.367 39a3.622 3.622 0 0 1-3.624-3.624Zm.954 0c0 1.54 1.27 2.67 2.67 2.67 1.54 0 2.67-1.27 2.67-2.67 0-1.531-1.257-2.657-2.646-2.67-1.469-.124-2.694 1.184-2.694 2.67Z" fill="currentColor" stroke="currentColor"/><path d="m48.234 26.152-.71.826H57.078a30.521 30.521 0 0 1-3.223 8.928h-7.24a9.397 9.397 0 0 0-.04-.567 8.787 8.787 0 0 0-.569-2.375c-.352-.872-.913-1.77-1.804-2.449-.897-.683-2.095-1.12-3.672-1.12-1.561 0-2.752.324-3.655.838a4.821 4.821 0 0 0-1.87 1.89 5.578 5.578 0 0 0-.655 2.208 6.276 6.276 0 0 1-1.27-.186c-.904-.233-1.8-.714-2.195-1.684v-1.728l.096-1.009c.268-.45.658-.792 1.2-1.063l.031-.015.028-.02c.954-.652 2.236-1.069 3.529-1.392l.007-.002c.794-.212 1.551-.358 2.168-.465.2-.035.392-.067.567-.095.302-.05.555-.092.72-.128h4.904l.14-.122.002-.001.004-.003.016-.014.066-.057a42.34 42.34 0 0 1 1.239-.998 48.207 48.207 0 0 1 3.372-2.391c2.597-1.674 5.773-3.318 8.49-3.597.023.212.031.412.035.624-.976.201-2.836.716-4.428 1.727-1.086.659-2.3 1.78-3.224 2.711a38.928 38.928 0 0 0-1.58 1.691l-.023.028-.006.007-.002.002.379.327-.38-.326Z" fill="currentColor" stroke="currentColor"/><path d="m35.471 27.19.203.027.164-.123 1.713-1.285.843.395-.95 1.021-3.773 2.305-2.696.54.061-.29.006-.029.003-.03.075-.864.869-.151.33-.058.072-.327.334-1.504 2.746.372ZM34.224 18.056h-2.69V13.51c0-3.535-2.885-6.36-6.359-6.36H23.83V4.46h1.345c4.987 0 9.05 4.063 9.05 9.05v4.546ZM23.482 1.049v9.513l-5.868-4.757 5.868-4.756Z" fill="currentColor" stroke="currentColor"/></svg>