<svg width="52" height="26" viewBox="0 0 52 26" fill="none" xmlns="http://www.w3.org/2000/svg"><path d="m50.063 12.878.488-.111v-.003l-.002-.006-.006-.025a18.134 18.134 0 0 0-.103-.417 20.17 20.17 0 0 0-.287-1.01 9.32 9.32 0 0 0-.413-1.1 3.098 3.098 0 0 0-.26-.462 1.141 1.141 0 0 0-.403-.375.88.88 0 0 0-.362-.083 2.071 2.071 0 0 0-.32.017 6.44 6.44 0 0 0-.748.148c-.55.137-1.218.345-1.858.56-.565.188-1.115.384-1.554.544.285-.155.53-.298.723-.415.14-.085.253-.158.334-.213a2.272 2.272 0 0 0 .165-.124.556.556 0 0 0 .108-.137.504.504 0 0 0 .06-.239v-.422h.118l.026-.473.075-1.353c.097 0 .133.02.14.024.154.231.254.555.315.858a4.315 4.315 0 0 1 .067.484l.002.026v.006l.024.495.496-.02-.02-.5.02.5h.027l.081-.004a174.63 174.63 0 0 1 1.437-.05c.824-.027 1.905-.058 3.067-.082V9.18a24.53 24.53 0 0 1-.75 5.438 26.587 26.587 0 0 0-.18-1.727l-.01-.066-.002-.017v-.006l-.495.077Zm0 0 .488-.11.004.016.002.016-.494.078Zm-6.73 9.136-.196.46.002.001.005.002.02.009.076.032.282.118c.24.1.578.237.965.39.57.226 1.257.487 1.908.709-.14.186-.28.371-.424.554l-.723-.46-.269.421.269-.422-.003-.001-.006-.004-.023-.015a12.92 12.92 0 0 0-.41-.248 25.215 25.215 0 0 0-1.12-.622c-.907-.473-2.11-1.03-3.233-1.311l-.01-.003-.011-.002c-2.237-.46-4.653-.05-6.335.24l-.013.002c-.947.19-1.849.71-2.492 1.155a11.039 11.039 0 0 0-1.07.846l-.017.015-.005.004-.001.002.343.364-.344-.363-.826.78a14.412 14.412 0 0 1-2.293-.086 11.718 11.718 0 0 0-1.155-.114 62.91 62.91 0 0 0-.179-.01 13.87 13.87 0 0 1-.833-.066c-.619-.074-.997-.222-1.233-.537l-.004-.007-.005-.006a1 1 0 0 1-.118-.261 5.035 5.035 0 0 1-.151-.59 18.524 18.524 0 0 1-.242-1.701c-.117-1.125-.187-2.34-.235-3.18l-.017-.289V17.117c.049-1.016.157-2.736.324-4.296.084-.784.183-1.519.294-2.1a7.18 7.18 0 0 1 .17-.725c.06-.194.107-.287.127-.316.236-.295.62-.442 1.236-.517a14.199 14.199 0 0 1 1.007-.072c.362-.019.755-.04 1.151-.092a14.126 14.126 0 0 1 2.302-.086l.825.78.344-.364-.343.364.002.002.005.004.016.016.06.055c.053.046.128.112.223.191a11 11 0 0 0 .787.6c.644.445 1.546.964 2.492 1.154 1.694.34 4.108.75 6.348.29.807-.165 1.654-.484 2.403-.824l-.002.185-.048 5.248v.146l-.097 5.244-.006.337.31.132.196-.46Zm.145-10.643-.137-.357.137.357Zm-12.38 11.654.018-.009v.16l.79-.56a6.893 6.893 0 0 0 1.097-.945c.142-.157.267-.316.362-.475.093-.154.176-.335.2-.53l.004-.03v-.03c0-.19.012-1.109.024-1.999l.011-.821.013-.972v-.194l.007-.057.008-.141c.006-.106.01-.248.013-.412.007-.33.011-.762.014-1.203.007-.883.007-1.807.007-2.026 0-.177-.086-.3-.124-.35a.816.816 0 0 0-.137-.135 1.96 1.96 0 0 0-.275-.175 8.309 8.309 0 0 0-.775-.357 27.651 27.651 0 0 0-2.256-.798c-.817-.251-1.654-.471-2.306-.579a3.94 3.94 0 0 0-.878-.065c-.121.009-.27.032-.407.099a.66.66 0 0 0-.366.446 6.376 6.376 0 0 0-.119.822c-.036.363-.071.812-.104 1.3-.067.977-.128 2.123-.177 3.07V16.148c.024.95.073 2.507.127 3.895.027.693.056 1.346.085 1.86.027.496.055.904.086 1.076l.002.009c.065.326.253.58.524.744.253.153.557.217.864.234.61.036 1.4-.104 2.285-.35.42-.114.973-.381 1.384-.59Zm.677-.347h-.002.002ZM14.865.958H8.861c-.11 0-.226-.115-.226-.229S8.752.5 8.86.5h6.004c.1 0 .208.098.224.203a.402.402 0 0 1-.096.192c-.046.048-.09.063-.128.063ZM29.05.958h-6.003c-.11 0-.226-.115-.226-.229S22.937.5 23.047.5h6.004c.11 0 .226.115.226.229s-.117.229-.226.229ZM43.285.958h-6.004c-.11 0-.226-.115-.226-.229S37.172.5 37.281.5h6.004c.11 0 .226.115.226.229s-.116.229-.226.229Z" fill="currentColor" stroke="currentColor"/><mask id="a" fill="currentColor"><path d="M2.178.729a.746.746 0 0 1-.726.729H.968c.048-.243.145-.486.193-.68.097-.243.146-.486.243-.778h.048c.387 0 .726.34.726.729Z"/></mask><path d="M2.178.729a.746.746 0 0 1-.726.729H.968c.048-.243.145-.486.193-.68.097-.243.146-.486.243-.778h.048c.387 0 .726.34.726.729Z" fill="currentColor"/><path d="m.968 1.458-.98-.195-.24 1.195h1.22v-1Zm.193-.68L.232.408.207.47.191.536l.97.242ZM1.404 0v-1H.682l-.228.685.95.315Zm-.226.729c0-.099.041-.163.074-.196a.278.278 0 0 1 .2-.075v2c.943 0 1.726-.791 1.726-1.729h-2Zm.274-.271H.968v2h.484v-2Zm.496 1.195c.013-.065.036-.142.07-.253.029-.09.08-.245.114-.38L.192.535C.176.594.154.658.11.799a4.43 4.43 0 0 0-.124.464l1.961.39Zm.142-.505c.069-.172.117-.335.154-.467.04-.141.069-.246.109-.366L.454-.315c-.057.172-.1.334-.133.448C.286.257.26.336.232.407l1.858.74ZM1.404 1h.048v-2h-.048v2Zm.048 0a.278.278 0 0 1-.2-.076.273.273 0 0 1-.074-.195h2C3.178-.209 2.395-1 1.452-1v2Z" fill="currentColor" mask="url(#a)"/><path d="M50.138.5c.05.155.098.308.142.458h-.264c-.11 0-.226-.115-.226-.229S49.906.5 50.016.5h.122ZM12.492 7.775l.484-.125v-.002l-.003-.007-.006-.025a12.651 12.651 0 0 0-.117-.423c-.079-.273-.19-.642-.321-1.02a9.43 9.43 0 0 0-.448-1.103 3.03 3.03 0 0 0-.274-.456 1.085 1.085 0 0 0-.43-.362.888.888 0 0 0-.357-.059c-.1.002-.208.015-.314.033-.213.036-.467.1-.738.178-.544.158-1.205.39-1.839.625a68.411 68.411 0 0 0-1.939.757c.036-.02.07-.04.105-.058a22.928 22.928 0 0 0 1.51-.921l.023-.016.006-.004.002-.001-.283-.413.284.412 1.267-.873.177-.012-.033-.499.033.5h.001l.004-.001H9.3l.054-.005.212-.013.782-.047c.66-.038 1.575-.086 2.588-.128 2.033-.085 4.44-.145 6.01-.05 1.389.107 2.1.85 2.485 1.576a4.068 4.068 0 0 1 .437 1.434l.002.019V6.7l.001.001v.005l.002.019.006.074a83.96 83.96 0 0 1 .1 1.326c.06.869.132 2.05.18 3.304v.049a128.35 128.35 0 0 1 .003 4.595l-.002.073v.023l-.001.02a3.956 3.956 0 0 1-.055.424 4.217 4.217 0 0 1-.337 1.047c-.362.752-1.043 1.522-2.405 1.67-1.567.166-3.975.203-6.01.197a158.784 158.784 0 0 1-3.369-.047l-.211-.005-.055-.002H9.699l-.004.107.003-.107-.2-.006-1.308-.754-.25.433.25-.433-.003-.001-.006-.004-.024-.014-.09-.05a25.778 25.778 0 0 0-1.746-.877 73.63 73.63 0 0 0 2.113.725c.643.208 1.312.41 1.86.542a6.5 6.5 0 0 0 .74.142c.105.012.214.02.315.015a.846.846 0 0 0 .357-.087c.182-.094.312-.25.399-.376.095-.138.181-.3.258-.467.154-.335.295-.738.413-1.117a20.523 20.523 0 0 0 .39-1.45l.005-.026.002-.006v-.002l-.488-.11m-.193-7.776.492-.09v.007l.004.017.011.065a28.926 28.926 0 0 1 .38 3.829v.102c.024.993-.025 1.968-.08 2.693a30.933 30.933 0 0 1-.107 1.126l-.008.066-.002.018v.006l-.497-.063m-.193-7.776.484-.124.004.017.004.017-.492.09Zm.193 7.776.496.063-.002.023-.006.023-.488-.109Zm-2.99 4.034-.011.389.011-.389Zm-1.189.043.71-.026-.03.326v.001l-.001.007-.003.029a5.589 5.589 0 0 1-.084.512c-.069.32-.171.647-.305.857a.504.504 0 0 1-.144.012l-.113-1.365-.03-.353Zm-2.405-2.473-.164.442.164-.442Zm-.5.009.005.293c-.734-.303-1.546-.587-2.31-.743l-.009-.002-.009-.002c-.484-.08-.939-.13-1.414-.146-.251-.76-.486-1.502-.65-2.239l-.002-.01-.002-.01C.785 12.697.548 10.94.5 9.179V7.775c0-.118.01-.238.021-.38.834-.016 1.69-.085 2.554-.302.767-.192 1.564-.523 2.277-.872l.007.255.145 5.29V11.915l.097 5.249Zm.258-10.7-.172-.41.172.41ZM8.787 3.84l-.65.018.013-.443.037-1.338c.097.002.128.023.13.024.155.209.268.527.342.834a4.539 4.539 0 0 1 .087.481l.003.027.001.006.037.391Zm9.423 1.654-.003.01-.003.012c-.05.201-.094.374-.134.498l-.036.107.014.112c.059.471.236.9.492 1.222l.018.022.02.02c.284.285.646.535 1.128.535h.02l.018-.001c.947-.073 1.582-.933 1.527-1.924-.007-.966-.687-1.845-1.613-1.845h-.028l-.028.003c-.662.074-1.197.578-1.392 1.229Zm.124 11.32c0 .973.682 1.861 1.614 1.861.483 0 .885-.262 1.149-.61.265-.35.416-.81.416-1.299 0-.972-.682-1.86-1.613-1.86-.483 0-.885.262-1.149.61-.265.349-.417.81-.417 1.299ZM21.536 1.13l.105.035m-.105-.035.105.035m-.105-.035.105.035m-.105-.035.105.035m-.29-.096-.183-.06.183.06Z" fill="currentColor" stroke="currentColor"/><mask id="b" fill="currentColor"><path d="M21.691 2.916c0-.049.049-.098.097-.146l.872-.778c.145-.097.338-.097.435.049.097.146.097.34-.048.437l-.872.778c-.145.097-.338.097-.435-.049-.049-.097-.097-.194-.049-.291Z"/></mask><path d="M21.691 2.916c0-.049.049-.098.097-.146l.872-.778c.145-.097.338-.097.435.049.097.146.097.34-.048.437l-.872.778c-.145.097-.338.097-.435-.049-.049-.097-.097-.194-.049-.291Z" fill="currentColor"/><path d="m21.691 2.916.895.445.105-.21v-.235h-1Zm.097-.146-.666-.746-.022.02-.02.02.708.706Zm.872-.778-.557-.83-.057.038-.052.046.666.746Zm.387.486-.556-.83-.058.038-.052.046.666.746Zm-.872.778.556.83.058-.038.052-.046-.666-.746Zm-.435-.049-.895.446.027.056.035.051.833-.553Zm.951-.291a.91.91 0 0 1-.168.525c-.033.044-.064.072-.026.035L21.08 2.064c-.012.011-.09.088-.16.18-.06.082-.229.322-.229.672h2Zm-.237.6.871-.778-1.331-1.492-.872.778 1.332 1.492Zm.762-.693a.622.622 0 0 1-.397.1.744.744 0 0 1-.557-.329l1.666-1.106c-.52-.785-1.419-.598-1.825-.327l1.113 1.662Zm-.954-.229a.618.618 0 0 1-.097-.393.743.743 0 0 1 .326-.554l1.112 1.662c.78-.522.594-1.417.325-1.821l-1.666 1.106Zm.12-.862-.872.778 1.331 1.492.872-.778-1.332-1.492Zm-.763.693a.622.622 0 0 1 .397-.1.744.744 0 0 1 .557.329L20.907 3.76c.52.785 1.419.598 1.825.327l-1.113-1.662Zm1.016.336c-.015-.028-.015-.03-.014-.026a.76.76 0 0 1 .048.316.813.813 0 0 1-.083.31l-1.79-.891c-.158.317-.14.622-.087.833.043.175.123.324.136.35l1.79-.892Z" fill="currentColor" mask="url(#b)"/><mask id="c" fill="currentColor"><path d="M19.27 1.02c.048-.096.145-.193.29-.193.194 0 .34.097.34.291l.096.972c0 .194-.097.34-.29.34-.194 0-.34-.097-.34-.291l-.096-.972c-.049-.049 0-.098 0-.146Z"/></mask><path d="M19.27 1.02c.048-.096.145-.193.29-.193.194 0 .34.097.34.291l.096.972c0 .194-.097.34-.29.34-.194 0-.34-.097-.34-.291l-.096-.972c-.049-.049 0-.098 0-.146Z" fill="currentColor"/><path d="m19.27 1.02-.895-.445-.105.21v.236h1Zm.63.098h-1v.05l.004.05.995-.1Zm.096.972h1v-.05l-.005-.05-.995.1Zm-.63.049h1v-.05l-.004-.05-.995.1Zm-.096-.972.995-.1-.035-.354-.252-.252-.708.706Zm.895.3a.62.62 0 0 1-.185.22.703.703 0 0 1-.42.14v-2c-.656 0-1.036.448-1.185.748l1.79.892Zm-.605.36a.626.626 0 0 1-.384-.148.735.735 0 0 1-.277-.56h2c0-.373-.152-.744-.47-1a1.38 1.38 0 0 0-.869-.292v2Zm-.656-.61.097.972 1.99-.198-.097-.972-1.99.198Zm.092.873c0-.054.012-.213.145-.38a.736.736 0 0 1 .565-.28v2c.374 0 .745-.155 1-.474.23-.288.29-.617.29-.866h-2Zm.71-.66c.056 0 .216.013.384.148a.734.734 0 0 1 .277.56h-2c0 .373.152.744.47.999.289.232.618.293.869.293v-2Zm.656.61-.097-.972-1.99.198.097.972 1.99-.198ZM19.978.46a.932.932 0 0 1 .23.926l.01-.031c.01-.036.052-.166.052-.334h-2c0-.144.035-.25.038-.26a1.085 1.085 0 0 0-.042.554c.043.228.156.418.295.557L19.978.461Z" fill="currentColor" mask="url(#c)"/></svg>