<svg width="50" height="52" viewBox="0 0 50 52" fill="none" xmlns="http://www.w3.org/2000/svg"><path d="M25.903.5c3.205 0 6.252.573 9.041 1.648a17.59 17.59 0 0 1-7.923 1.863c-3.179 0-6.203-.834-8.801-2.33A25.116 25.116 0 0 1 25.903.5ZM17.86 30.656l.009.002.009.002c1.458.309 2.954.538 4.454.688-.003.156.008.32.037.489a39.823 39.823 0 0 1-4.564-.698.327.327 0 0 1-.178-.125c-.04-.058-.044-.106-.035-.14a.325.325 0 0 1 .127-.183c.058-.04.107-.044.141-.035Zm-6.021-1.662.021.007.023.006a.13.13 0 0 1 .087.077.24.24 0 0 1 .003.183l-.003.009-.003.009a.232.232 0 0 1-.206.143h-.028l-.017-.008-.027-.01a52.107 52.107 0 0 1-5.811-2.54.256.256 0 0 1-.11-.14.175.175 0 0 1 .012-.143.257.257 0 0 1 .145-.116.179.179 0 0 1 .145.01l.008.005.007.004a42.48 42.48 0 0 0 5.754 2.504Zm36.554-2.698.008-.004.007-.004a.18.18 0 0 1 .145-.011c.06.018.114.06.146.116a.15.15 0 0 1 .01.128.266.266 0 0 1-.14.146l-.009.005-.009.005c-1.82 1.004-3.789 1.867-5.762 2.588l-.026.01-.017.008h-.028a.232.232 0 0 1-.206-.144l-.007-.02-.008-.019c-.01-.021-.016-.066.012-.125a.254.254 0 0 1 .137-.13c1.972-.688 3.888-1.572 5.747-2.549Zm-47.87-2.72c.015-.16.03-.32.047-.478l.156.104.01.006c.054.04.08.09.09.145a.322.322 0 0 1-.03.187c-.045.05-.09.067-.164.067a.236.236 0 0 1-.108-.03ZM22.745 21.392l.42.27v.002l-.005.006-.014.022a12.86 12.86 0 0 1-.241.362c-.159.232-.378.545-.62.86-.238.313-.508.641-.766.899-.128.128-.265.25-.402.345-.126.086-.308.19-.52.206a.902.902 0 0 1-.355-.053 2.213 2.213 0 0 1-.289-.125 7.008 7.008 0 0 1-.651-.39 28.4 28.4 0 0 1-1.57-1.14 69.32 69.32 0 0 1-2.018-1.619l-.034-.028-.008-.007-.003-.002.32-.384-.32.383-.264-.22.112-.326 1.7-4.943v-.004l.048-.14v-.002l1.652-4.995.074-.224c-.784.082-1.637.124-2.414.055l-.01-.001c-2.295-.255-4.461-1.368-5.967-2.192-.55-.296-1.051-.743-1.46-1.186l-.487.433c.228.187.433.364.598.521.134.128.256.255.345.37.043.056.092.127.129.207.025.055.095.22.04.415-.061.238-.357 1.134-.634 1.95a109.581 109.581 0 0 1-.532 1.53 4.44 4.44 0 0 1-.058.148l-.036.145-.014.053-.015.031a2.983 2.983 0 0 0-.044.124l-.129.377-.38 1.137-.011.033c-.274.819-.563 1.686-.64 1.889l-.003.01-.005.011a1.338 1.338 0 0 1-.347.452c-.14.124-.31.244-.5.353a5.436 5.436 0 0 1-1.387.55l-.01.003-.11-.488.11.488h-.006L5 17.568l-.051.011a18.8 18.8 0 0 1-.801.154c-.464.078-1.077.162-1.507.133h-.009l-.008-.002c-.217-.021-.414-.033-.61-.044l-.038-.002-.225-.015c-.096.279-.19.564-.273.851.282.097.542.177.76.24l.999-.475.214.452-.214-.452.003-.001.006-.003.02-.01a6.18 6.18 0 0 1 .345-.147c.23-.092.554-.213.936-.327.753-.226 1.777-.441 2.75-.333l.014.001c1.739.241 4.116.589 6.105 1.71l.009.004c1.004.591 1.988 1.49 2.708 2.22a22.974 22.974 0 0 1 1.126 1.23l.042.05.024.03.018.021.004.006.002.001v.001l-.387.316.387-.316.902 1.108.255.101-.184.465.184-.465h.002l.003.002.013.005.05.02.2.078c.172.067.422.165.733.284.62.238 1.48.562 2.436.91 1.921.697 4.204 1.476 5.727 1.832 1.352.317 2.253-.18 2.839-.76a4.097 4.097 0 0 0 .849-1.24l.007-.018v-.002h.001l.003-.01.003-.005.006-.017.028-.068a70.402 70.402 0 0 0 .476-1.216c.302-.785.701-1.852 1.103-3.004v-.042l.024-.075a141.471 141.471 0 0 0 1.329-4.4l.02-.07.005-.017v-.004l.001-.002.004-.012v-.002l.006-.019.021-.085a4.115 4.115 0 0 0 .076-1.424c-.104-.82-.508-1.76-1.771-2.328-1.43-.619-3.725-1.375-5.68-1.981a166.265 166.265 0 0 0-3.259-.973l-.206-.058-.053-.016-.014-.003-.003-.001h-.001l.034-.123-.034.122-.215-.06-1.424.355-.12-.485.12.485-.003.001-.007.002-.027.006a12.443 12.443 0 0 1-.47.106c-.299.063-.713.145-1.192.222l.036-.002c.493-.02 1.155-.043 1.833-.053.675-.009 1.375-.004 1.939.031.28.018.54.043.752.083.105.02.21.044.306.078.084.03.215.084.322.191.144.145.224.333.273.485.052.162.087.345.112.53a9.3 9.3 0 0 1 .065 1.194 19.804 19.804 0 0 1-.06 1.499l-.002.026V14.06l-.499-.042m-2.478 7.373.42.27.012-.017.01-.019-.442-.234Zm0 0 .441.234.002-.001.002-.005.008-.015.03-.058c.026-.051.064-.125.11-.219a25.92 25.92 0 0 0 1.376-3.285l.033-.065.016-.032.011-.034c.324-.968.559-1.92.713-2.628a26.985 26.985 0 0 0 .215-1.098l.011-.065.003-.017v-.005l.001-.001-.494-.079m0 0 .494.078.003-.018.002-.018-.499-.042ZM23.62 8.877l-.1.357.1-.357Zm-.486-.115-.076.32-.634-.21.155-.393.485-1.228a.422.422 0 0 1 .105.052.099.099 0 0 1 .021.02c.068.243.065.585.03.907a5.154 5.154 0 0 1-.078.497l-.006.028-.002.006Zm-3.765 1.34.024.424-.024-.425ZM17.06 25.494a.322.322 0 0 1-.142-.028l.378-1.318.086-.303.61.195-.131.31-.002.005-.011.024a3.788 3.788 0 0 1-.223.424c-.157.263-.356.531-.565.692Zm12.743-2.23-.037-.016-.039-.011c-.853-.232-1.759.382-2.063 1.294-.289.865-.055 1.96.893 2.28.882.316 1.797-.338 2.096-1.235.305-.914-.031-1.94-.85-2.312ZM33.17 13.21l-.025-.008-.025-.007c-.9-.224-1.75.388-2.053 1.297-.29.867-.054 1.965.9 2.282.952.317 1.8-.419 2.09-1.286.298-.895-.017-1.962-.887-2.278Z" fill="currentColor" stroke="currentColor"/><path d="m26.049 37.739-.117-.486h-.003l-.007.002-.025.006-.093.024a20.493 20.493 0 0 0-1.351.392 9.205 9.205 0 0 0-1.104.431c-.163.08-.323.17-.458.269a1.08 1.08 0 0 0-.362.424.864.864 0 0 0-.064.349c0 .097.011.203.027.307.031.209.088.46.16.73.143.542.356 1.205.573 1.842a73.058 73.058 0 0 0 .832 2.31 23.765 23.765 0 0 0-1.113-2.033l-.015-.024-.004-.006-.001-.002-.423.267.422-.268-.84-1.321-.006-.13-.075.003.075-.004V40.802l-.003-.055a73.098 73.098 0 0 1-.038-.995c-.022-.662-.05-1.578-.068-2.593-.036-2.038-.035-4.45.108-6.021.126-1.39.888-2.081 1.63-2.447a4.1 4.1 0 0 1 1.417-.393l.026.007.298.074c.257.06.625.142 1.072.222.893.161 2.115.324 3.418.324h.041c1.761.048 3.325-.236 4.188-.435l1.46.044c.428.157.903.399 1.294.794.404.409.743 1.004.83 1.908.142 1.567.119 3.976.058 6.014a145.074 145.074 0 0 1-.153 3.587l-.003.055-.001.013v.004l.499.03-.5-.03-.02.364-.728 1.145.422.268-.422-.268-.002.002-.004.007-.015.023-.054.087a23.803 23.803 0 0 0-.811 1.448c-.466.908-1.01 2.114-1.268 3.241-.229.915-.254 1.893-.224 2.78a25.852 25.852 0 0 1-8.67 1.493c-.201 0-.394-.01-.602-.023h-.006a69.308 69.308 0 0 0-.077-.005c.183-1.361.225-2.901-.089-4.378l-.002-.007c-.17-.752-.47-1.54-.79-2.251h5.697l5.244.049.344.003.126-.32-.465-.183.465.183.002-.004.004-.01.016-.041.06-.155a76.797 76.797 0 0 0 .842-2.276c.223-.637.442-1.3.59-1.843.074-.27.133-.521.166-.73.016-.105.028-.21.029-.308a.853.853 0 0 0-.067-.36 1.068 1.068 0 0 0-.367-.408 3.166 3.166 0 0 0-.452-.257 10.18 10.18 0 0 0-1.097-.432 22.794 22.794 0 0 0-1.441-.432l-.025-.006-.007-.002h-.002l-.125.483m-7.776-.048-.078-.494h.007l.017-.003.065-.01.242-.034c.209-.028.507-.065.868-.102a27.308 27.308 0 0 1 2.718-.148h.097c1.023 0 2.004.087 2.726.173a24.74 24.74 0 0 1 1.114.16l.066.01.017.004h.006l-.09.492m-7.775-.048-.117-.486.02-.005.019-.003.078.494Zm7.776.049.09-.492.017.003.017.004-.124.485Zm3.994 4.322-.005-.684.312.014h.007l.028.002.113.01c.098.01.235.028.387.058.32.063.638.166.837.313.003.004.03.047.024.193l-1.351.075-.352.019Zm-13.228 2.226-.452.174.452-.174ZM22 41.325v.645l-.444-.025-1.352-.075c0-.108.023-.141.024-.144.2-.147.518-.25.838-.313a4.41 4.41 0 0 1 .5-.068l.028-.002h.006l.4-.018Zm0-.5-.423.018.423-.018ZM37.143 30.56c0-.993-.902-1.616-1.86-1.616-.472 0-.922.156-1.261.421-.34.264-.6.665-.6 1.146 0 .994.902 1.616 1.86 1.616.472 0 .922-.156 1.262-.42.338-.265.6-.666.6-1.147ZM26.5 30.51c0-.993-.902-1.615-1.86-1.615-.898 0-1.861.612-1.861 1.615 0 .482.26.883.6 1.147.34.264.789.42 1.26.42.472 0 .922-.156 1.262-.42.338-.264.6-.665.6-1.147Z" fill="currentColor" stroke="currentColor"/><path d="M27.993 29.159a19.3 19.3 0 0 1-.297-.363l3.525-.3.74.302-.088.22a167.337 167.337 0 0 1-1.818.133 66.89 66.89 0 0 1-1.485.087c-.206.01-.374.014-.493.014h-.004a6.428 6.428 0 0 1-.08-.093Z" fill="currentColor" stroke="currentColor"/></svg>