<svg width="58" height="47" viewBox="0 0 58 47" fill="none" xmlns="http://www.w3.org/2000/svg"><path d="m17.088 7.256.486-.117v-.003l-.003-.008-.007-.029-.026-.107a26.633 26.633 0 0 0-.446-1.561 11.5 11.5 0 0 0-.479-1.267 3.521 3.521 0 0 0-.286-.516c-.093-.134-.237-.31-.442-.403l-.007-.004-.008-.003a.975.975 0 0 0-.375-.064c-.11 0-.23.012-.352.03a8.245 8.245 0 0 0-.855.184c-.636.166-1.41.412-2.154.664a82.113 82.113 0 0 0-2.831 1.02l-.048.017-.012.005-.003.001h-.001l.18.468-.18-.467-.318.122-.003.34-.056 6.096v.17l-.113 6.092-.006.343.318.13.188-.464-.187.463.004.002.012.005.048.02a49.034 49.034 0 0 0 .824.324c.535.208 1.257.483 1.999.75.74.266 1.51.526 2.137.703.312.088.602.159.841.198.119.02.238.033.347.035a.905.905 0 0 0 .386-.07l.008-.003.008-.004c.192-.097.337-.262.44-.403.11-.151.213-.332.307-.52.189-.377.366-.833.517-1.265a24.356 24.356 0 0 0 .508-1.65l.008-.028.002-.008v-.002l-.483-.128m.113-9.088.494-.078v.002l.001.006.003.02.011.074.04.281c.032.242.075.587.117 1.006.086.836.172 1.969.172 3.149v.08l-.025.078-.033.098a37.567 37.567 0 0 1-.22 3.066 38.934 38.934 0 0 1-.164 1.283l-.01.074-.004.02v.007l-.495-.078m.113-9.088.494-.078-.003-.02-.005-.02-.486.118Zm-.113 9.088.484.127.006-.024.004-.025-.494-.078Zm11.118-9.92V6.445l.001.005.002.021.005.084.018.324a71.446 71.446 0 0 1 .087 4.997v.062A131.155 131.155 0 0 1 28.008 17l-.02.327-.005.085-.002.021v.021l-.003.024a4.592 4.592 0 0 1-.073.5 4.847 4.847 0 0 1-.42 1.223c-.447.875-1.284 1.77-2.934 1.894-1.831.14-4.64.098-7.01.02a188.104 188.104 0 0 1-4.173-.185l-.064-.003-.016-.001h-.005l-.03.499.03-.5-.425-.025h.07l-1.437-.913-.268.422.268-.423h-.001l-.002-.001-.007-.005-.027-.017a21.679 21.679 0 0 0-.476-.286 27.58 27.58 0 0 0-1.303-.715c-1.054-.542-2.45-1.17-3.752-1.468-1.727-.418-3.57-.325-5.192-.102a29.105 29.105 0 0 1 2.04-7.962c.466-1.035.974-2.106 1.526-3.089a8.088 8.088 0 0 0 1.797-.236c1.301-.296 2.697-.925 3.75-1.467a27.682 27.682 0 0 0 1.78-1.001l.026-.017.007-.004.002-.002-.267-.422.268.422 1.452-.922h-.114l.443-.017-.019-.5.019.5h.021l.064-.003a108.724 108.724 0 0 1 1.158-.035c.77-.021 1.835-.046 3.016-.06 2.37-.028 5.18-.014 7.012.153 1.652.15 2.476 1.057 2.91 1.939a4.84 4.84 0 0 1 .47 1.728v.027ZM11.94 23.042h-.015l-.091-1.645-.027-.475-.475.003L.5 20.979V20.962l10.725-.055 1.576-.007-.046.476v.008l-.004.032-.018.128a5.305 5.305 0 0 1-.086.44c-.087.362-.223.747-.415 1.003-.01.013-.073.066-.29.054Zm-.549-20.35H6.779l.058-.073h5.197l.026-.472.092-1.644.015-.001c.203-.012.272.034.288.051.191.282.313.676.385 1.036a5.035 5.035 0 0 1 .08.572l.002.031V2.2l.024.492h-1.554Zm.44-2.13Zm15.286 17.622v-.033c0-.54-.15-1.058-.442-1.454-.297-.402-.747-.683-1.298-.683-1.095 0-1.797.996-1.797 2.08 0 .531.176 1.035.472 1.415.296.38.74.666 1.269.666 1.04 0 1.73-.995 1.796-1.991ZM23.694 5.732c0 .53.176 1.035.472 1.415.296.38.74.666 1.268.666 1.096 0 1.798-.997 1.798-2.081 0-.53-.176-1.035-.473-1.415-.295-.38-.74-.666-1.268-.666-1.096 0-1.797.996-1.797 2.081ZM22.8 42.795c-1.053.285-1.963.445-2.653.404-.347-.02-.683-.092-.959-.263a1.205 1.205 0 0 1-.56-.808l-.002-.009c-.035-.193-.068-.662-.1-1.24-.032-.596-.066-1.354-.098-2.16-.063-1.611-.12-3.42-.148-4.523v-.094c.057-1.105.142-2.436.227-3.568.083-1.117.17-2.08.232-2.423v-.003a.683.683 0 0 1 .386-.488c.146-.07.306-.097.443-.107.278-.02.628.015.997.075.75.124 1.716.379 2.662.67.95.293 1.898.63 2.617.924.358.146.67.287.9.41.112.06.221.124.309.19a.934.934 0 0 1 .143.13.593.593 0 0 1 .145.315l.003.03v.032c0 .258-.014 1.336-.028 2.356l-.02 1.39-.006.463-.001.137V34.974l-.016 1.125-.013.956c-.014 1.033-.028 2.1-.028 2.322v.031l-.004.03a1.573 1.573 0 0 1-.218.586c-.107.183-.249.37-.413.554-.328.368-.772.749-1.285 1.081l-.772.5v-.115l-.14.072c-.48.243-1.118.55-1.6.68Zm0 0-.129-.483.13.483Zm23.501-3.249.492.09v-.002l.001-.005.004-.02.013-.074.046-.281c.039-.242.09-.587.144-1.006.108-.836.222-1.97.251-3.149l.012-.512h-.062a28.292 28.292 0 0 0-.128-2.736 30.62 30.62 0 0 0-.15-1.308l-.012-.076-.003-.02v-.008h-.001l-.494.076m-.113 9.031.483.127v.003l-.002.008-.008.028-.029.106a24.505 24.505 0 0 1-.48 1.544c-.15.432-.328.888-.516 1.265a3.7 3.7 0 0 1-.307.52 1.283 1.283 0 0 1-.44.403l-.015.007-.016.007a.959.959 0 0 1-.38.063 2.456 2.456 0 0 1-.353-.035 8.019 8.019 0 0 1-.85-.198 32.816 32.816 0 0 1-2.135-.703 80.486 80.486 0 0 1-2.804-1.076l-.047-.019-.012-.005h-.003l-.001-.001.189-.463-.19.463-.316-.13.006-.343.113-6.091v-.17l.056-6.096.003-.34.318-.122.179.467-.18-.467h.001l.004-.002.012-.005.048-.018a50.043 50.043 0 0 1 .826-.308c.537-.197 1.26-.456 2.007-.705.744-.248 1.52-.49 2.158-.648.317-.078.614-.14.86-.17.124-.015.247-.023.36-.019.104.004.25.02.388.088l.008.004.008.004c.185.102.32.272.413.41.102.151.196.33.283.518.173.376.337.831.477 1.262a25.971 25.971 0 0 1 .446 1.542l.027.105.007.029.002.007v.003l-.485.12m-.113 9.031.492.09-.004.02-.004.017-.484-.127Zm.113-9.031.485-.12.006.022.003.021-.494.077Zm11.061-.833v.01l.001.01.002.043.005.168c.004.148.01.364.013.636.007.526.007 1.26-.018 2.114-1.974 4.625-5.124 8.662-9.03 11.74a328.562 328.562 0 0 1-5.763-.268l-.1-.006-.026-.001h-.008l-.392-.023h.157l-1.443-.917-.268.422.268-.422-.003-.001-.007-.005-.027-.017a22.638 22.638 0 0 0-.476-.286c-.32-.187-.771-.442-1.303-.715-1.055-.542-2.453-1.172-3.755-1.468l-.01-.003c-2.589-.53-5.387-.057-7.348.28l-.013.002c-1.086.218-2.126.813-2.872 1.328a12.755 12.755 0 0 0-1.168.912l-.07.063-.019.018-.005.005-.002.001.342.365-.342-.364-.922.868 1.266-.004 16.468-.056 1.463-.005-.045.473-.001.008-.004.032-.017.128a5.331 5.331 0 0 1-.087.44c-.086.362-.222.747-.414 1.003-.01.013-.074.066-.291.054h-.005l-.045-1.631-.013-.488-.488.002-17.088.056h-.022l-.022.002h-.004l-.014.002-.058.004-.227.016a20.28 20.28 0 0 1-.81.033c-.67.013-1.542 0-2.38-.108-.46-.074-.915-.107-1.338-.132l-.206-.013c-.352-.02-.674-.04-.977-.076-.727-.087-1.197-.263-1.492-.657l-.4.3.4-.3a1.361 1.361 0 0 1-.159-.355 6.275 6.275 0 0 1-.18-.71 22.143 22.143 0 0 1-.283-2.003 83.267 83.267 0 0 1-.274-3.702l-.02-.34V35.325a91.45 91.45 0 0 1 .378-4.997 31.62 31.62 0 0 1 .343-2.447c.065-.34.133-.626.201-.85.07-.229.13-.347.16-.39.296-.37.77-.546 1.495-.633.34-.04.704-.06 1.103-.08l.076-.004c.422-.022.877-.048 1.335-.107.84-.108 1.715-.123 2.386-.109a20.266 20.266 0 0 1 1.038.048l.058.005.015.001h.003l.021.003h.021l7.512.054v.072l-6.997-.054-1.164-.009.795.85.365-.34-.365.34v.001h.001l.002.003.005.005.017.018.062.063c.054.053.131.129.231.22.2.183.488.431.85.698.72.529 1.752 1.146 2.964 1.45 1.98.524 4.82.757 7.387.231 1.995-.41 4.13-1.568 5.102-2.139a3.51 3.51 0 0 0 .171-.09 1.07 1.07 0 0 0 .225-.165l-.128-.128.128.128a.531.531 0 0 1 .101-.078l.002-.001-.003.001-.002.001-.001.001h-.001l-.143-.605.095-.042-.16-.365 13.38.105c1.607.156 2.414 1.055 2.84 1.934a4.904 4.904 0 0 1 .464 1.731l.001.024v.003Zm-4.399-.748c0 .552.172 1.07.469 1.46.296.39.742.677 1.272.677 1.105 0 1.797-1.009 1.797-2.137 0-.531-.176-1.035-.472-1.415-.296-.38-.74-.666-1.269-.666-1.095 0-1.797.996-1.797 2.08ZM40.316 25.73l-7.218-5.221a1.613 1.613 0 0 1 .035-.19l7.266 5.187-.083.224ZM41.404 23.803v.008l-.001.008c-.02.312-.175.685-.355 1.013a4.693 4.693 0 0 1-.04.07l-.591-.522.75-.813.044.03c.082.058.14.114.17.16.015.021.02.034.022.04.002.004.001.005.001.005Zm-.526-.386h.002-.001Z" fill="currentColor" stroke="currentColor"/></svg>