<svg width="58" height="36" viewBox="0 0 58 36" fill="none" xmlns="http://www.w3.org/2000/svg"><path d="m14.31 19.67.488-.112v-.003l-.002-.007-.007-.028-.024-.101a24.368 24.368 0 0 0-.412-1.484 10.259 10.259 0 0 0-.46-1.218 3.384 3.384 0 0 0-.284-.505 1.217 1.217 0 0 0-.43-.399.929.929 0 0 0-.38-.086 2.27 2.27 0 0 0-.349.018 7.181 7.181 0 0 0-.83.164 29.26 29.26 0 0 0-2.075.621 71.409 71.409 0 0 0-2.515.893 26.629 26.629 0 0 0 2.2-1.205l.026-.016.007-.004.002-.001-.267-.423.268.422 1.44-.912L9 15.274l-8.145-.05.004-.033h8.72l.026-.472.087-1.557c.187-.01.247.032.259.042.18.267.296.64.365.984a4.788 4.788 0 0 1 .076.545l.003.03v.007l.024.494.494-.019-.019-.5.019.5h.02l.062-.003a78.743 78.743 0 0 1 1.112-.033c.74-.02 1.763-.041 2.898-.051 2.278-.02 4.975.007 6.732.193h.007c1.55.143 2.324 1.004 2.733 1.845a4.663 4.663 0 0 1 .444 1.65v.026l.001.008v.007l.001.02.004.082.013.314a230.102 230.102 0 0 1 .144 4.862v.044a85.706 85.706 0 0 1-.26 5.155l-.006.081-.002.02v.007l-.002.011V29.497l-.002.023a4.337 4.337 0 0 1-.07.476c-.065.318-.185.74-.402 1.166-.427.834-1.226 1.686-2.805 1.805-1.757.133-4.454.08-6.732-.007a171.383 171.383 0 0 1-4.01-.204l-.062-.004-.015-.001h-.005l-.033.499.033-.5-.275-.018-1.388-.879-.268.423.268-.423h-.001l-.002-.002-.007-.004-.026-.016a21.882 21.882 0 0 0-.458-.275c-.307-.179-.742-.424-1.253-.686-1.014-.52-2.36-1.124-3.614-1.408l-.01-.003-.011-.002-.02-.003c-.474-.086-.98-.178-1.498-.21-.327-.96-.61-1.923-.85-2.928v-.005A27.343 27.343 0 0 1 .5 19.669c0-.226.013-.442.026-.674v-.006l.011-.19c1.106.067 2.23.036 3.363-.21l.005-.001c.847-.192 1.736-.53 2.536-.89l-.003.29-.054 5.843v.162l-.108 5.839-.007.343.318.129.189-.463-.189.463h.001l.003.002.012.005.045.018.171.069a81.56 81.56 0 0 0 2.525.962c.708.255 1.447.505 2.054.674.302.085.584.153.818.19.117.02.234.033.342.034a.942.942 0 0 0 .372-.062l.016-.006.016-.008c.189-.094.33-.256.43-.392a3.56 3.56 0 0 0 .297-.501c.181-.363.352-.801.497-1.215a23.356 23.356 0 0 0 .462-1.482l.027-.101.008-.027.002-.008v-.002l-.483-.128m.108-8.657.494-.078v.002l.001.006.003.019.011.072a27.506 27.506 0 0 1 .145 1.238c.076.802.145 1.889.117 3.022V24.064a37.847 37.847 0 0 1-.37 4.243l-.011.071-.003.02v.004l-.001.002-.494-.078m.108-8.657.488-.111.004.016.002.017-.494.078Zm-.108 8.657.494.078-.004.025-.007.024-.483-.127ZM9.39 34.779a.48.48 0 0 1-.012 0l-.043-1.543-.012-.46h.899l-.041.425v.008l-.004.03-.017.123a5.135 5.135 0 0 1-.083.42c-.083.345-.213.711-.394.953l-.009.006a.196.196 0 0 1-.05.02.759.759 0 0 1-.234.018ZM6.938 17.992l-.17-.444.17.444Zm13.594 11.957c0 .534.167 1.035.455 1.413.284.372.71.649 1.217.656.519.035.97-.23 1.272-.593.308-.37.495-.877.495-1.422 0-.521-.146-1.023-.43-1.406-.288-.39-.726-.663-1.262-.663-1.066 0-1.747.967-1.747 2.015Zm.163-11.74c0 .513.17 1.001.458 1.37.287.366.72.644 1.234.644.51 0 .952-.272 1.252-.633.303-.365.495-.856.495-1.382 0-.513-.17-1.001-.459-1.37-.287-.366-.719-.645-1.234-.645-1.076 0-1.746 1.034-1.746 2.015ZM43.148 15.557l-.488.112v.003l.003.007.006.027a13.84 13.84 0 0 0 .115.464c.077.3.188.704.32 1.121.132.414.289.854.46 1.218.086.182.18.358.285.506.097.136.235.299.424.395a.882.882 0 0 0 .376.09c.109.004.226-.004.343-.019a7.13 7.13 0 0 0 .817-.163 30.814 30.814 0 0 0 2.07-.621 95.82 95.82 0 0 0 1.952-.675l.232-.083a109.886 109.886 0 0 1 .518-.183 26.489 26.489 0 0 0-2.3 1.252l-.025.017-.007.004-.002.001.267.423-.268-.422-1.425.903 1.687.02 8.992.102V20.09h-9.73l-.026.473-.087 1.557c-.206.011-.258-.04-.261-.045-.174-.231-.292-.6-.363-.959a4.974 4.974 0 0 1-.077-.563l-.002-.032v-.008l-.023-.495-.495.019.018.5-.018-.5h-.021l-.061.002-.237.008-.875.026c-.74.02-1.764.041-2.898.051-2.278.02-4.976-.007-6.733-.193h-.006c-1.55-.144-2.324-1.004-2.734-1.846a4.666 4.666 0 0 1-.443-1.65l-.001-.023v-.01l-.5.022.5-.022v-.006l-.002-.021-.003-.083a112.703 112.703 0 0 1-.05-1.478c-.026-.97-.053-2.291-.053-3.692v-.05a85.723 85.723 0 0 1 .26-5.155l.006-.08.002-.02v-.007l.002-.011V5.784l.002-.023a4.343 4.343 0 0 1 .07-.476 4.61 4.61 0 0 1 .402-1.166c.427-.834 1.225-1.686 2.804-1.806 1.757-.132 4.455-.08 6.733.008a171.522 171.522 0 0 1 4.01.204l.061.004h.016l.004.001.034-.499-.033.5.336.022 1.381.875.268-.423-.268.423.003.001.007.005.026.016.097.06a26.627 26.627 0 0 0 1.614.9c1.014.52 2.36 1.125 3.614 1.41l.054.012h.049l.043.01c.007 0 .015.003.025.005h.003c.703 1.273 1.349 2.633 1.85 4.036l.005.012.005.012c.262.627.47 1.253.627 1.877l.002.006.002.008c.425 1.51.725 3.064.899 4.66a13.862 13.862 0 0 0-3.71.178l-.009.001-.008.002c-.847.192-1.736.53-2.536.89l.003-.29.054-5.843v-.162l.108-5.839.007-.343-.318-.13-.189.464.189-.463h-.001l-.003-.002-.012-.005-.045-.018a54.32 54.32 0 0 0-.786-.312c-.51-.2-1.2-.463-1.91-.719a31.558 31.558 0 0 0-2.053-.675 7.721 7.721 0 0 0-.82-.19 2.4 2.4 0 0 0-.34-.033.943.943 0 0 0-.373.061l-.016.007-.016.008c-.188.094-.33.255-.43.391-.106.147-.206.32-.296.502-.182.362-.353.801-.498 1.215a23.267 23.267 0 0 0-.49 1.583l-.007.027-.002.007v.003l.483.128m-.162 8.656-.494.079v-.003l-.002-.005-.002-.019-.011-.072a27.502 27.502 0 0 1-.145-1.238 26.226 26.226 0 0 1-.117-3.022V11.163a31.81 31.81 0 0 1 .424-4.255l.013-.072.003-.019.001-.005v-.001l.492.09m-.162 8.656-.488.112-.004-.017-.002-.016.494-.079Zm.162-8.656-.492-.091.004-.019.005-.018.483.128ZM47.706.567c.04-.036.133-.075.32-.066l.042 1.544.013.46h-.899l.04-.426.002-.007.003-.03.017-.123c.016-.106.042-.254.082-.42.081-.336.206-.691.38-.932ZM36.762 17.05l.001-.016v-.016c0-.513-.17-1.001-.458-1.37-.287-.366-.72-.645-1.234-.645-1.066 0-1.747.967-1.747 2.015 0 .514.17 1.002.459 1.37.286.367.719.645 1.234.645 1.021 0 1.682-.977 1.745-1.983Zm.163-11.851.001-.015V5.17c0-.513-.17-1.001-.459-1.37-.286-.366-.718-.645-1.233-.645-1 0-1.747.952-1.747 2.015 0 .522.146 1.023.43 1.407.288.39.726.662 1.262.662 1.03 0 1.684-.988 1.746-2.04Z" fill="currentColor" stroke="currentColor"/><path d="M28.458 25.987h-6.722a.334.334 0 0 1-.313-.312c0-.156.155-.311.313-.311h6.722c.158 0 .313.155.313.311a.298.298 0 0 1-.313.312ZM44.395 25.987h-6.722a.334.334 0 0 1-.313-.312c0-.156.155-.311.313-.311h6.721c.159 0 .314.155.314.311a.298.298 0 0 1-.313.312ZM53.61 25.417h3.346l-.125.623H53.61a.334.334 0 0 1-.313-.311c0-.156.155-.312.313-.312Z" fill="currentColor" stroke="currentColor"/></svg>