<svg width="58" height="39" viewBox="0 0 58 39" fill="none" xmlns="http://www.w3.org/2000/svg"><path d="M24.988 21.07h8.078c1.723 0 3.123-1.51 3.123-3.237V4.13C36.19 2.403 34.79 1 33.066 1h-8.078c-1.831 0-3.232 1.403-3.124 3.237v13.704c0 1.727 1.346 3.13 3.124 3.13ZM23.049 4.13c0-1.026.754-1.89 1.885-1.89h8.078c1.023 0 1.885.756 1.885 1.89v13.703c0 1.026-.754 1.889-1.885 1.889h-8.078c-1.023 0-1.885-.756-1.885-1.889V4.13Z" fill="currentColor" stroke="currentColor" stroke-width=".168"/><path d="M17.448 37.728a3.595 3.595 0 0 1-3.592-3.6c0-1.992 1.608-3.601 3.592-3.601a3.595 3.595 0 0 1 3.593 3.6c0 1.991-1.608 3.6-3.593 3.6Zm0-6.42c-1.531 0-2.654 1.266-2.654 2.657 0 1.533 1.263 2.659 2.654 2.659 1.532 0 2.655-1.267 2.655-2.659 0-.694-.326-1.354-.797-1.834-.472-.48-1.133-.824-1.858-.824Z" fill="currentColor" stroke="currentColor"/><path d="M11.23 34.036a9.31 9.31 0 0 0-.04.563H4.212C2.6 31.915 1.558 28.955.97 25.67H10.351l-.709-.825-.38.325.38-.326-.002-.002-.006-.008-.024-.027a18.287 18.287 0 0 0-.424-.474 35.448 35.448 0 0 0-1.16-1.21c-.93-.926-2.163-2.041-3.297-2.697-1.347-.852-3-1.32-3.978-1.598l-.237-.067c.01-.129.023-.256.037-.39v-.009c.011-.099.022-.202.032-.31 2.705.313 5.796 1.938 8.312 3.584a46.082 46.082 0 0 1 4.225 3.136l.251.214.064.055.016.014.003.003.001.001.142.126H18.523c.133.028.308.054.495.081l.14.02c.2.029.425.061.675.101.622.1 1.379.244 2.157.478l.008.002.01.003c1.215.317 2.55.784 3.507 1.387.278.203.536.414.747.618.197.193.334.362.41.499l.293 1.122v1.677c-.392.961-1.29 1.44-2.202 1.673a6.415 6.415 0 0 1-1.29.186 5.603 5.603 0 0 0-.675-2.198c-.78-1.396-2.38-2.71-5.511-2.71-1.578 0-2.777.432-3.676 1.112-.893.675-1.455 1.568-1.809 2.436a8.697 8.697 0 0 0-.571 2.363Z" fill="currentColor" stroke="currentColor"/><path d="m21.994 25.787.163.122.203-.026 2.806-.369.244 1.466.058.35.349.06.892.156.152.876.038.384-2.644-.547-3.839-2.287-.888-1.068.775-.388 1.691 1.27ZM36.851 34.127c0-1.99 1.608-3.6 3.593-3.6a3.595 3.595 0 0 1 3.593 3.6c0 1.991-1.608 3.6-3.593 3.6a3.595 3.595 0 0 1-3.593-3.6Zm.939 0c0 1.533 1.263 2.658 2.654 2.658 1.532 0 2.654-1.266 2.654-2.658 0-1.52-1.241-2.639-2.619-2.658-1.493-.189-2.69 1.21-2.69 2.658Z" fill="currentColor" stroke="currentColor"/><path d="m48.304 24.9-.709.826h9.486a29.047 29.047 0 0 1-3.248 8.927h-7.185a9.32 9.32 0 0 0-.04-.563 8.698 8.698 0 0 0-.572-2.363c-.353-.868-.916-1.76-1.809-2.436-.898-.68-2.098-1.112-3.675-1.112-3.132 0-4.732 1.315-5.513 2.71a5.603 5.603 0 0 0-.674 2.198l-.065-.003a6.408 6.408 0 0 1-1.225-.182c-.912-.233-1.81-.712-2.202-1.673v-1.717l.096-1.003c.263-.443.648-.78 1.23-1.05l.038-.017.035-.024c.945-.648 2.217-1.062 3.5-1.384l.008-.002c.788-.21 1.539-.355 2.157-.462.235-.04.459-.077.66-.109.273-.044.504-.081.66-.113h4.929l.141-.123.001-.001.004-.004.016-.014.066-.056.258-.217a46.926 46.926 0 0 1 4.323-3.172c2.585-1.671 5.75-3.306 8.469-3.56.023.224.031.437.034.674-.97.2-2.817.711-4.438 1.712-1.058.604-2.253 1.696-3.162 2.606a36.448 36.448 0 0 0-1.562 1.67l-.023.027-.007.007-.001.002h-.001l.38.327-.38-.326Z" fill="currentColor" stroke="currentColor"/><path d="m35.638 25.882.204.028.164-.123 1.698-1.276.83.39-.994 1.066-3.742 2.292-2.653.523.085-.284.015-.05.004-.05.075-.858.86-.15.329-.057.072-.327.332-1.493 2.721.37ZM30.902 11.291h-1.537V9.704c.748.177 1.361.744 1.537 1.587ZM28.72 6.719v-.5h-.754v-.025h1.854v.025h-.808V7.028h-.293v-.31Z" fill="currentColor" stroke="currentColor"/><path d="M28.866 15.77c-2.2 0-4.024-1.826-4.024-4.032 0-2.207 1.824-4.032 4.024-4.032s4.023 1.825 4.023 4.032c0 2.206-1.823 4.032-4.023 4.032Zm0-7.877c-2.108 0-3.84 1.735-3.84 3.845 0 2.11 1.732 3.845 3.84 3.845 2.108 0 3.839-1.736 3.839-3.845 0-2.11-1.731-3.845-3.84-3.845Z" fill="currentColor" stroke="currentColor"/></svg>
