<svg width="58" height="49" viewBox="0 0 58 49" fill="none" xmlns="http://www.w3.org/2000/svg"><path d="M12.907 33.745v7.89a30.075 30.075 0 0 1-8.493-9.517h6.75c.958 0 1.743.779 1.743 1.627ZM50.462 32.118h6.692a30.631 30.631 0 0 1-8.493 9.51v-7.883c0-.84.777-1.627 1.801-1.627ZM27.62 1.225h-7.136a.386.386 0 0 1-.363-.363c0-.183.179-.362.363-.362h7.135c.185 0 .364.179.364.362a.386.386 0 0 1-.364.363ZM11.066.862a.386.386 0 0 1-.363.363h-5.79L5.346.5h5.299c.263 0 .42.2.42.362ZM44.42 1.225h-7.135a.386.386 0 0 1-.363-.363c0-.183.179-.362.363-.362h7.135c.185 0 .363.179.363.362a.386.386 0 0 1-.363.363ZM56.126.5c.163.24.317.482.468.725h-2.276a.386.386 0 0 1-.363-.363c0-.183.178-.362.363-.362h1.808ZM36.535 32.004l.463.19a72.78 72.78 0 0 0-.463-.19l-.001.003-.003.007-.01.024a7.773 7.773 0 0 0-.153.42c-.095.28-.218.673-.33 1.133-.222.906-.413 2.12-.223 3.228l.002.011.016.081c.397 2.043.933 4.8 2.413 7.05.463.739 1.094 1.467 1.729 2.107-2.937.955-6.019 1.434-9.249 1.434a31.07 31.07 0 0 1-3.552-.183c-.534-2.427-1.825-4.602-2.81-6.189-.571-.948-1.47-1.713-2.219-2.24-.38-.266-.73-.478-1-.628a4.468 4.468 0 0 0-.56-.277l-1.01-.336.385.991 3.056 7.864-.027-.008-3.247-8.333-.009-.022-.01-.02v-.001l-.002-.003-.006-.013-.027-.054-.1-.212a18.833 18.833 0 0 1-.331-.767c-.26-.641-.567-1.49-.76-2.344v-.003a16.32 16.32 0 0 0-.376-1.298l-.03-.09a16.17 16.17 0 0 1-.315-1.055c-.178-.719-.18-1.238.083-1.664l.006-.01a1.29 1.29 0 0 1 .267-.276c.154-.129.355-.274.6-.431.487-.315 1.112-.66 1.786-1.006 1.265-.648 2.665-1.28 3.572-1.688l.167-.076.037-.017.035-.022.03-.017.078-.037c.064-.029.14-.06.22-.09l.144-.056a14.083 14.083 0 0 0 .239-.095c1.154-.375 3.098-.997 4.89-1.486a31.19 31.19 0 0 1 2.453-.582c.347-.064.643-.104.878-.12.25-.016.379 0 .422.014l.01.003c.495.144.842.527 1.189 1.172.167.312.322.66.493 1.044l.016.037c.175.394.365.82.59 1.24.416.775.752 1.612.985 2.26a20.727 20.727 0 0 1 .334 1.013l.017.058.004.014.001.003.006.022.009.022 5.187 13.542-.117.055-4.941-13.09-.45-1.19-.48 1.177Zm-2.181 4.566.038-.014.034-.02a.599.599 0 0 0 .232-.248.952.952 0 0 0 .07-.18c.03-.107.05-.233.066-.362.032-.263.05-.61.058-1.004a33.65 33.65 0 0 0-.081-2.82c-.07-1.004-.18-2.013-.338-2.769-.077-.372-.172-.715-.293-.971a1.23 1.23 0 0 0-.262-.378.686.686 0 0 0-.594-.184c-.355.064-1.313.35-2.404.69-1.111.346-2.408.763-3.473 1.108l-.114.037-.077.077c-.747.33-1.812.782-2.903 1.245-.425.18-.854.362-1.27.54-.76.323-1.473.63-2.03.877-.278.124-.52.235-.71.326a4.28 4.28 0 0 0-.434.229c-.303.19-.493.472-.554.816-.058.321.002.663.112.992.22.658.704 1.457 1.34 2.352l.008.01c.294.392.82.883 1.242 1.254a25.563 25.563 0 0 0 .736.623l.048.04.013.01.003.003h.001l.313-.39-.312.39.011.01.013.009a6.868 6.868 0 0 0 1.516.821c.443.166.925.271 1.31.175l.027-.007.027-.01c.149-.056.635-.234 1.227-.451l1-.367a442.36 442.36 0 0 0 1.78-.659h.004c.091-.035.194-.074.237-.096l.23-.115.029-.01.125-.05.443-.172 1.33-.51c.978-.374 1.998-.761 2.226-.847ZM10.702 14.486l.486-.119v-.003l-.003-.008-.007-.028a19.056 19.056 0 0 0-.129-.49c-.087-.318-.21-.746-.353-1.188-.143-.438-.31-.902-.486-1.284a3.854 3.854 0 0 0-.288-.526c-.095-.14-.231-.312-.419-.414a.9.9 0 0 0-.396-.097 2.29 2.29 0 0 0-.36.02c-.247.03-.547.092-.869.173-.647.16-1.44.406-2.202.659a79.75 79.75 0 0 0-2.91 1.031l-.05.018-.012.005-.003.002H2.7l.177.467-.177-.467-.32.121-.003.342-.058 6.208V19.081l-.115 6.204-.006.342.318.13.188-.463-.188.463.004.002.012.005.048.02a89.927 89.927 0 0 0 2.86 1.095c.752.27 1.535.535 2.179.715.32.09.618.162.865.202.124.02.246.033.358.035a.969.969 0 0 0 .384-.064l.016-.006.015-.008c.194-.097.34-.263.445-.407.113-.153.217-.337.313-.528.192-.383.372-.848.526-1.287a24.74 24.74 0 0 0 .52-1.68l.007-.029.002-.007v-.003l-.483-.128m.115-9.198.492-.09v.002l.002.006.003.02.014.078.046.287c.037.248.087.601.135 1.03.094.852.183 2.009.154 3.215v.121a31.895 31.895 0 0 1-.256 3.206 33.79 33.79 0 0 1-.195 1.31l-.013.076-.004.02v.007l-.493-.09m.115-9.198.486-.119.003.014.003.015-.492.09Zm-.115 9.198.484.128.005-.019.003-.018-.492-.09ZM22.056 13.64V13.66l.001.006.002.022.005.087a153.993 153.993 0 0 1 .093 1.56c.057 1.03.129 2.446.186 3.99v.044a89.776 89.776 0 0 1-.276 5.422l-.007.086-.002.022v.006l-.001.008v.004l-.002.02a4.453 4.453 0 0 1-.068.42c-.06.283-.164.661-.345 1.049l-.009.02-.008.02c-.06.167-.213.337-.51.542-.188.13-.378.238-.59.36a18.174 18.174 0 0 0-.714.426c-.244.15-.508.312-.798.46-.388.197-.762.334-1.094.356h-.004c-1.867.142-4.589.086-6.861-.008a155.38 155.38 0 0 1-3.975-.216l-.06-.004-.016-.001H7l-.037.498.036-.499-.487-.035-.046.486v.001l-.001.007-.004.033-.018.131a5.43 5.43 0 0 1-.088.449c-.089.368-.228.762-.424 1.024-.01.013-.087.073-.337.06l-.04-.003-.047-1.668-.014-.486H2.623a6.348 6.348 0 0 1-.014-.035h4.007l-1.458-.922-.267.422.267-.422-.002-.001-.004-.003-.016-.01-.06-.038-.227-.138a30.63 30.63 0 0 0-.815-.471c-.626-.35-1.463-.79-2.353-1.18A31.038 31.038 0 0 1 .5 17.13c0-1.42.098-2.841.294-4.215 1.096-.36 2.194-.88 3.034-1.32a28.243 28.243 0 0 0 1.527-.862l.023-.014.006-.004h.002v-.001l-.265-.424.266.424 1.436-.902-1.695-.022-3.736-.049.024-.1H5.71l.026-.473.094-1.683.025-.001c.21-.012.284.036.303.056.196.289.32.692.394 1.059a5.153 5.153 0 0 1 .082.583l.002.032v.008l.024.494.494-.018-.018-.5.018.5h.006l.016-.001.065-.003a100.956 100.956 0 0 1 1.181-.035c.786-.02 1.872-.044 3.077-.055 2.418-.021 5.282.008 7.15.206 1.659.179 2.493 1.116 2.932 2.027a5.06 5.06 0 0 1 .474 1.774l.002.024v.004ZM5.508 7.546Zm15.475 18.071.001-.018v-.018c0-.549-.154-1.074-.45-1.475-.301-.408-.758-.692-1.316-.692-1.039 0-1.823.993-1.823 2.11 0 .539.179 1.05.48 1.436.3.384.75.673 1.286.673.534 0 .98-.288 1.284-.655.305-.37.502-.857.538-1.361Zm-3.416-12.74c0 .56.175 1.086.477 1.482.301.394.753.685 1.29.685 1.12 0 1.823-1.02 1.823-2.167 0-.539-.179-1.05-.48-1.436-.3-.384-.75-.674-1.286-.674-1.11 0-1.823 1.008-1.823 2.11Z" fill="currentColor" stroke="currentColor"/></svg>