<svg width="58" height="41" viewBox="0 0 58 41" fill="none" xmlns="http://www.w3.org/2000/svg"><path d="M20.049 36.15v-.023c-.066-1.377-1.29-2.619-2.696-2.619-1.508 0-2.696 1.242-2.696 2.643 0 1.531 1.266 2.642 2.696 2.642 1.508 0 2.696-1.242 2.696-2.642Zm-2.696 3.732a3.592 3.592 0 0 1-3.624-3.624 3.592 3.592 0 0 1 3.624-3.624 3.592 3.592 0 0 1 3.624 3.618c-.05 2.04-1.66 3.63-3.624 3.63Z" fill="currentColor" stroke="currentColor"/><path d="M11.167 36.21a9.309 9.309 0 0 0-.041.565h-6.99c-1.606-2.669-2.684-5.65-3.23-8.908h9.436l-.695-.823-.382.323.382-.323-.002-.003-.007-.007-.023-.028a17.896 17.896 0 0 0-.423-.479 33.535 33.535 0 0 0-1.16-1.22c-.933-.933-2.173-2.055-3.33-2.708-1.455-.917-3.229-1.414-4.186-1.666.009-.121.021-.242.035-.369v-.008c.01-.097.022-.199.03-.306 2.716.313 5.816 1.939 8.337 3.586a46.043 46.043 0 0 1 4.232 3.137 27.705 27.705 0 0 1 .316.269l.016.014.003.003h.001l.142.126H18.531c.139.027.318.053.512.081l.086.012c.21.03.452.065.72.108.611.099 1.351.242 2.126.474l.008.003.009.002c1.208.315 2.524.776 3.468 1.416l.04.033c.277.226.523.427.733.626.202.191.351.361.45.521l.237.995v1.671c-.39.98-1.286 1.467-2.19 1.703-.458.12-.893.168-1.216.186l-.06.003a5.625 5.625 0 0 0-.678-2.206c-.784-1.399-2.39-2.719-5.531-2.719-1.583 0-2.786.434-3.688 1.114-.896.675-1.46 1.568-1.816 2.437a8.683 8.683 0 0 0-.574 2.366Z" fill="currentColor" stroke="currentColor"/><path d="m21.811 27.976.168.131.21-.03 2.837-.412.24 1.445.059.35.35.06.884.154.154.885.002.008.074.393-2.613-.53-3.875-2.326-.918-1.06.749-.374 1.679 1.306ZM36.81 36.31a3.592 3.592 0 0 1 3.624-3.624 3.592 3.592 0 0 1 3.624 3.624 3.592 3.592 0 0 1-3.618 3.624c-2.04-.05-3.63-1.659-3.63-3.624Zm.929 0c0 1.532 1.266 2.642 2.696 2.642 1.508 0 2.695-1.241 2.695-2.642 0-1.52-1.245-2.624-2.66-2.642-1.465-.185-2.731 1.121-2.731 2.642Z" fill="currentColor" stroke="currentColor"/><path d="m48.302 27.041-.71.826h9.544c-.595 3.171-1.712 6.235-3.228 8.908h-7.194c-.007-.16-.02-.35-.041-.564a8.69 8.69 0 0 0-.575-2.366c-.355-.869-.92-1.762-1.816-2.437-.902-.68-2.105-1.114-3.688-1.114-3.141 0-4.747 1.32-5.53 2.72a5.626 5.626 0 0 0-.678 2.205l-.06-.003a6.256 6.256 0 0 1-1.216-.186c-.904-.236-1.8-.722-2.19-1.703v-1.705l.094-.995c.262-.44.65-.784 1.249-1.106l.023-.013.022-.015c.942-.644 2.254-1.053 3.504-1.433a16.563 16.563 0 0 1 2.143-.474c.25-.04.474-.072.671-.1l.14-.02c.186-.027.36-.053.493-.081h4.897l.141-.123.001-.001.004-.003.016-.014a16.234 16.234 0 0 1 .324-.274 46.88 46.88 0 0 1 4.33-3.173c2.59-1.672 5.763-3.307 8.492-3.56.023.22.031.43.034.662-.967.2-2.812.708-4.468 1.701l-.008.005-.007.004c-1.04.675-2.225 1.795-3.131 2.721a42.568 42.568 0 0 0-1.55 1.674l-.023.027-.007.007-.001.002.378.327-.379-.326Z" fill="currentColor" stroke="currentColor"/><path d="m35.593 28.076.212.032.17-.132 1.686-1.311.814.382-.985 1.055-3.775 2.327-2.683.528.088-.367.008-.036.004-.037.073-.848.853-.149.32-.055.08-.316.371-1.488 2.764.415ZM24.367.5h7.39c.016 0 .027.002.033.003a.145.145 0 0 1 .004.033v17.03s0 .005-.003.011a.055.055 0 0 1-.01.016.024.024 0 0 1-.008.006.033.033 0 0 1-.015.003h-7.39c-.001 0-.005 0-.012-.003a.053.053 0 0 1-.016-.01.024.024 0 0 1-.006-.008.033.033 0 0 1-.002-.015V.536l.002-.011a.052.052 0 0 1 .01-.016.026.026 0 0 1 .009-.007.034.034 0 0 1 .014-.002Zm1.107 13.8a2.591 2.591 0 0 0 2.589 2.588 2.591 2.591 0 0 0 2.588-2.589 2.591 2.591 0 0 0-2.588-2.588 2.591 2.591 0 0 0-2.589 2.588Zm0-5.356a2.591 2.591 0 0 0 2.589 2.588 2.591 2.591 0 0 0 2.588-2.588 2.591 2.591 0 0 0-2.588-2.589 2.591 2.591 0 0 0-2.589 2.589Zm0-5.249a2.591 2.591 0 0 0 2.589 2.589 2.591 2.591 0 0 0 2.588-2.589 2.591 2.591 0 0 0-2.588-2.588 2.591 2.591 0 0 0-2.589 2.588Z" fill="currentColor" stroke="currentColor"/><path d="M29.116 8.944a1.054 1.054 0 0 1-2.107 0c0-.58.473-1.053 1.054-1.053.57 0 1.053.515 1.053 1.053ZM29.116 14.3a1.054 1.054 0 0 1-2.107 0c0-.582.473-1.054 1.054-1.054.57 0 1.053.515 1.053 1.053Z" fill="currentColor" stroke="currentColor"/></svg>