<svg width="52" height="38" viewBox="0 0 52 38" fill="none" xmlns="http://www.w3.org/2000/svg"><path d="m21.752 6.533.491-.092v-.002l-.002-.007-.004-.026a16.16 16.16 0 0 0-.088-.43c-.06-.278-.145-.654-.248-1.04a10.01 10.01 0 0 0-.362-1.13 3.177 3.177 0 0 0-.231-.473 1.092 1.092 0 0 0-.385-.395.866.866 0 0 0-.353-.094 2.13 2.13 0 0 0-.313.005 6.86 6.86 0 0 0-.745.112 28.32 28.32 0 0 0-1.879.455 69.555 69.555 0 0 0-1.918.555A23.168 23.168 0 0 0 17.3 3.2l.024-.013.007-.004h.002v-.001l-.242-.437.242.437 1.378-.765.169.002.007-.5-.007.5H18.899l.055.001a78.781 78.781 0 0 1 1.002.023c.666.017 1.587.046 2.606.091 2.047.091 4.458.248 6.002.51 1.374.232 2.017 1.037 2.335 1.794a4.066 4.066 0 0 1 .307 1.464v.134l-.002.285a91.882 91.882 0 0 1-.142 4.346l-.002.014v.045a94.786 94.786 0 0 1-.468 4.565l-.01.073-.002.018v.005l-.002.008v.01l-.003.02a3.894 3.894 0 0 1-.086.419 4.13 4.13 0 0 1-.416 1.015c-.418.716-1.16 1.424-2.55 1.445-1.548.024-3.95-.155-5.985-.344a166.54 166.54 0 0 1-3.374-.348l-.212-.024-.055-.006-.014-.002h-.004l-.059.496.059-.497-.35-.041-1.165-.839-.292.406.292-.406-.002-.002-.006-.004-.023-.016-.084-.059c-.073-.05-.178-.123-.311-.212a24.72 24.72 0 0 0-1.085-.684c-.879-.522-2.05-1.142-3.152-1.475-2.116-.64-4.45-.378-6.157-.187l-.209.023-.008.001-.007.001c-.95.136-1.88.602-2.55 1.008a11.26 11.26 0 0 0-1.122.782l-.017.014-.005.004-.002.002.32.384-.321-.384-.947.79a28.58 28.58 0 0 1-.171-.007c.008-.34.032-.679.06-1.01l.31-.064c.424-.084.991-.312 1.42-.499a19.533 19.533 0 0 0 .73-.338l.047-.022.012-.007.004-.001.001-.001-.223-.447.223.447.02-.01.017-.01a6.458 6.458 0 0 0 1.18-.905c.153-.153.288-.312.392-.471.1-.153.192-.34.217-.543l.001-.007c.026-.23.1-1.164.166-2.038l.089-1.197c.022-.307.04-.559.04-.607v-.243l.002-.029a26.185 26.185 0 0 1 .034-.507l.021-.298c.02-.27.041-.581.063-.898.06-.866.122-1.814.122-2.055a.606.606 0 0 0-.117-.352.927.927 0 0 0-.154-.163 2.36 2.36 0 0 0-.342-.233 7.287 7.287 0 0 0-.479-.25c.108-.175.217-.345.329-.509.41.248.861.46 1.353.583 1.65.437 4.021.999 6.319.641.8-.124 1.645-.388 2.402-.675l-.016.246-.34 5.244-.001.016V10.01l-.387 5.225-.026.34.308.148.216-.45-.216.45h.001l.003.002.01.005.04.019a107.819 107.819 0 0 0 .69.323c.45.206 1.055.48 1.68.747.622.265 1.274.528 1.811.71.267.09.52.164.731.208.106.022.214.039.316.043.09.004.232.002.37-.055.189-.079.33-.226.425-.343.105-.127.202-.28.291-.438.18-.316.353-.7.501-1.063a20.934 20.934 0 0 0 .483-1.304l.03-.09.008-.024.002-.006v-.002l-.475-.154m.534-7.768.497-.051v.007l.003.017.006.067.02.248c.017.213.037.516.052.88.03.723.044 1.695-.03 2.686v.097l-.001.018a28.857 28.857 0 0 1-.575 3.826l-.014.065-.004.017-.001.005v.001l-.487-.115m.534-7.768.491-.092.004.02.002.02-.497.052Zm-.534 7.768.486.116-.004.019-.006.018-.476-.153Zm-2.83-12.38v.41l-.657-.044.05-.457.148-1.323a.542.542 0 0 1 .153.038v.002c.132.196.216.506.262.82.043.298.043.537.043.553Zm-1.72 16.473.01-.352.69.04-.044.327-.001.006-.005.028a4.416 4.416 0 0 1-.113.495c-.089.306-.216.606-.372.787-.01.005-.064.029-.202.015l.037-1.346ZM15.246 4.639l-.132-.415.132.415Zm12.922 13.414h.003c.985.076 1.69-.757 1.751-1.73.06-.949-.478-1.878-1.388-2.03l-.022-.003-.022-.002c-1.007-.077-1.692.833-1.75 1.779-.059.93.47 1.906 1.428 1.986Zm1.054-14.349-.02-.002h-.022c-.702 0-1.247.424-1.514 1.047-.142.236-.2.513-.2.764 0 .45.11.967.401 1.332.22.274.584.615 1.098.625.958.066 1.62-.847 1.684-1.765.116-.981-.499-1.924-1.427-2.001ZM46.077 23.624l.486-.118-.001-.002-.002-.007-.006-.025-.023-.093a20.995 20.995 0 0 0-.392-1.35 9.164 9.164 0 0 0-.433-1.103 2.959 2.959 0 0 0-.269-.458 1.08 1.08 0 0 0-.424-.362.86.86 0 0 0-.351-.063c-.098.001-.204.013-.308.03-.21.032-.461.091-.731.165-.543.148-1.207.367-1.844.59-.624.217-1.231.442-1.689.615a23.264 23.264 0 0 0 1.421-.827l.023-.015.007-.004.002-.002-.273-.419.273.419 1.27-.83.23-.012-.025-.5.026.5h.015l.047-.003.182-.009.676-.03c.575-.024 1.376-.054 2.284-.079 1.644-.044 3.622-.067 5.225 0-.123 1.932-.45 3.848-1.018 5.637l-.003.01c-.95 3.21-2.563 6.19-4.645 8.75.14-.306.27-.659.38-.993a20.195 20.195 0 0 0 .416-1.443l.006-.026.002-.006v-.002l-.486-.118m-.048-7.817.493-.078v.002l.001.004.003.018.01.064.034.243c.027.208.065.506.102.867.074.72.148 1.698.148 2.715v.085a18.985 18.985 0 0 1-.088 2.751 20.41 20.41 0 0 1-.158 1.209l-.004.018v.006l-.493-.087m-.048-7.817.486-.118.004.02.003.02-.493.078Zm.048 7.817.492.088-.002.015-.004.014-.486-.117Zm-4.184 5.692a.587.587 0 0 0 .166-.015.146.146 0 0 0 .03-.01l-.196.025Zm0 0-.075-1.35-.017-.305.682-.01-.013.27v.001l-.577 1.394Zm.579-17.832.035.367-.662.004.022-.39.075-1.351c.095 0 .132.018.142.023.134.212.234.526.3.826a5.207 5.207 0 0 1 .084.487l.003.028v.006Zm2.208 15.728a.916.916 0 0 0 .259-.041c-.11.121-.22.242-.331.361a101.146 101.146 0 0 1-1.476-.078l-.097-.006-.024-.001h-.008v-.001l-.381-.025-1.087-.677-.265.424.265-.425h-.001l-.002-.001-.006-.004-.024-.015-.09-.053a23.532 23.532 0 0 0-1.472-.804c-.922-.462-2.146-.995-3.28-1.227-2.244-.46-4.664-.049-6.364.29-.952.191-1.858.725-2.503 1.182a10.988 10.988 0 0 0-1.073.87l-.017.016-.005.004-.001.002.347.36-.348-.36-.816.792-.283.014c-.574.024-1.32.023-2.033-.069a15.116 15.116 0 0 0-1.155-.092l-.065-.003c-.344-.018-.656-.034-.945-.069-.617-.074-1.001-.221-1.238-.515a1.216 1.216 0 0 1-.114-.267 5.71 5.71 0 0 1-.152-.595c-.1-.477-.187-1.072-.262-1.706a62.806 62.806 0 0 1-.294-3.457V28.146a66.84 66.84 0 0 1 .258-4.274c.076-.786.167-1.525.273-2.11.053-.292.109-.537.166-.727.06-.203.108-.293.125-.316.237-.315.617-.463 1.238-.538.259-.03.533-.047.836-.065l.178-.01c.367-.022.764-.05 1.167-.116a12.388 12.388 0 0 1 2.297-.128l.825.776.342-.365-.342.365.002.002.005.004.017.016a5.601 5.601 0 0 0 .284.246c.19.158.463.371.791.594.646.44 1.555.948 2.509 1.111 1.685.29 4.113.7 6.361.19.753-.172 1.541-.476 2.252-.802l.002.221.049 5.24V33.185l.313.126.187-.463-.187.463.003.002.011.004.041.017.04.016.115.045a72.34 72.34 0 0 0 2.28.859 26.45 26.45 0 0 0 1.848.592c.271.073.526.131.738.16.106.015.215.025.317.022Zm-5.255-12.813-.15-.382.15.382ZM28.09 33.457a.67.67 0 0 0 .071-.077 6.281 6.281 0 0 0 1.008-.906c.142-.163.266-.328.36-.49a1.43 1.43 0 0 0 .197-.53l.004-.03V23.623a.567.567 0 0 0-.127-.352.81.81 0 0 0-.139-.135c-.08-.063-.18-.12-.277-.172a8.23 8.23 0 0 0-.777-.345c-.62-.245-1.441-.523-2.263-.763-.819-.24-1.659-.447-2.313-.544a3.968 3.968 0 0 0-.879-.053c-.122.01-.27.036-.405.103a.66.66 0 0 0-.366.47l-.001.002c-.056.308-.105 1.153-.153 2.104-.023.46-.046.95-.068 1.438-.026.557-.052 1.112-.078 1.62v.1c.02.372.042.841.068 1.358.038.79.083 1.691.127 2.527.036.692.073 1.344.106 1.857.033.496.064.901.095 1.07v.003c.063.331.245.595.523.767.258.16.567.22.875.235.611.028 1.403-.124 2.284-.369.426-.114.978-.38 1.391-.61.212-.116.404-.232.543-.327.065-.045.137-.097.194-.15ZM16.75 20.502h-6.02c-.112 0-.228-.116-.228-.228 0-.113.116-.229.228-.229h6.02c.113 0 .23.116.23.229 0 .112-.117.228-.23.228ZM3.53 20.274c0 .112-.116.228-.228.228H.598l-.046-.456h2.75c.112 0 .228.116.228.228Z" fill="currentColor" stroke="currentColor"/></svg>