<svg width="52" height="38" viewBox="0 0 52 38" fill="none" xmlns="http://www.w3.org/2000/svg"><path d="m22.21 6.324.485-.118v-.002l-.002-.007-.006-.025a12.627 12.627 0 0 0-.11-.423 23.19 23.19 0 0 0-.299-1.025c-.12-.378-.262-.78-.413-1.111a3.37 3.37 0 0 0-.248-.462 1.141 1.141 0 0 0-.383-.38.841.841 0 0 0-.367-.091 2.025 2.025 0 0 0-.315.015c-.214.024-.47.076-.743.142-.55.132-1.221.334-1.866.542a67.397 67.397 0 0 0-1.905.649 22.06 22.06 0 0 0 1.547-.861l.023-.015.007-.004.002-.001-.268-.423.268.422 1.165-.74.332-.01-.015-.499.015.5H19.133l.055-.002a91.19 91.19 0 0 1 .997-.023c.663-.013 1.58-.027 2.598-.03 2.042-.006 4.459.031 6.032.198 1.395.148 2.077.921 2.432 1.67a4.094 4.094 0 0 1 .376 1.467l.001.02V5.719l.002.018.003.073.01.278a78.945 78.945 0 0 1 .034 4.214v.05a106.421 106.421 0 0 1-.282 4.635l-.006.073-.001.018v.006l-.002.007V15.1l-.002.019a3.773 3.773 0 0 1-.068.414 4.065 4.065 0 0 1-.37 1.02c-.387.727-1.101 1.471-2.497 1.578-1.573.096-3.988.024-6.029-.073a161.937 161.937 0 0 1-3.594-.213l-.055-.004h-.014l-.004-.001-.015.187.014-.187-.338-.025-1.029-.673-.273.418.273-.418-.002-.002-.007-.004-.023-.015a11.739 11.739 0 0 0-.412-.255 23.305 23.305 0 0 0-1.127-.636c-.91-.48-2.123-1.04-3.257-1.298-2.25-.511-4.68-.1-6.366.19-.979.163-1.9.67-2.553 1.111a10.331 10.331 0 0 0-1.084.844l-.017.015-.005.005-.002.001.342.365-.343-.364-.715.674a17.381 17.381 0 0 1-1.264-.001c.025-.26.053-.524.088-.789.36-.058.744-.143 1.15-.253M22.209 6.324l.496-.065v.006l.003.017.008.064a34.057 34.057 0 0 1 .113 1.108c.061.72.123 1.696.123 2.712v.122a33.942 33.942 0 0 1-.43 3.821l-.011.065-.003.017-.001.004v.001l-.492-.09m.194-7.782.486-.118.006.026.004.026-.496.066Zm-.194 7.783.481.135v.002l-.002.007-.007.024a5.581 5.581 0 0 1-.014.048l-.013.043a23.44 23.44 0 0 1-.43 1.327c-.134.369-.289.76-.45 1.08a3.21 3.21 0 0 1-.264.445 1.087 1.087 0 0 1-.406.36l-.008.003-.007.003a.89.89 0 0 1-.358.059 2.164 2.164 0 0 1-.314-.033 6.92 6.92 0 0 1-.74-.178c-.547-.158-1.21-.39-1.846-.625a68.595 68.595 0 0 1-2.418-.952l-.04-.017-.011-.004-.003-.001h-.001l.193-.462-.193.461-.316-.132.01-.343.145-5.246V9.963l.097-5.254.005-.24c-.74.324-1.571.628-2.37.788-2.246.46-4.668 0-6.357-.338-.26-.038-.51-.12-.734-.213-.13.167-.255.333-.375.497.032.018.062.036.09.054.083.053.168.115.239.186a.755.755 0 0 1 .115.147.58.58 0 0 1 .084.296c0 .223-.012 1.153-.024 2.031l-.017 1.198-.005.399-.002.118V9.875c0 .054-.013.911-.03 1.797-.019.867-.043 1.83-.071 2.059a1.374 1.374 0 0 1-.2.53 3.105 3.105 0 0 1-.365.474c-.285.313-.666.64-1.101.947l-.016.012-.017.01-.256-.43.255.43-.004.003-.012.007-.045.026a16.18 16.18 0 0 1-.71.39c-.416.218-.97.486-1.394.6m20.232-2.623.492.09-.005.023-.006.021-.481-.134ZM1.783 16.73H1.78l-.129-.483.132.482h-.001Zm15.996 2.91c-.003.001-.034.023-.136.025l-.037-1.34-.007-.261.635.004-.022.222v.007l-.003.026a4.588 4.588 0 0 1-.088.482c-.074.307-.188.626-.342.835Zm.931-1.302.02-.267-.02.267ZM15.6 4.719l-.15-.405.15.405Zm3.015-2.47-.703-.014.033-.393.111-1.339c.048.004.087.011.116.02a.151.151 0 0 1 .04.02c.155.231.257.558.318.863a4.257 4.257 0 0 1 .067.484l.002.027v.005l.016.326Zm9.35 2.09-.005.014-.005.014c-.056.17-.122.423-.122.693 0 .458.186.956.45 1.285.258.324.627.57 1.1.577.499.031.92-.207 1.2-.547.28-.34.437-.795.437-1.266 0-.49-.153-.951-.419-1.3-.265-.349-.667-.611-1.15-.611-.715 0-1.246.542-1.486 1.141Zm-.375 11.325c0 .49.152.951.418 1.3.265.348.667.61 1.15.61.995 0 1.618-.902 1.618-1.861 0-.49-.152-.951-.418-1.3-.265-.349-.667-.61-1.15-.61-.933 0-1.618.886-1.618 1.861ZM39.316 21.598l.46-.196V21.4l-.004-.006-.01-.024a20.56 20.56 0 0 0-.175-.393 21.976 21.976 0 0 0-.459-.947 10.08 10.08 0 0 0-.588-1.012 3.27 3.27 0 0 0-.323-.41 1.136 1.136 0 0 0-.444-.306.846.846 0 0 0-.376-.026c-.101.014-.207.04-.31.07a6.53 6.53 0 0 0-.708.27c-.518.227-1.145.544-1.744.862a66.681 66.681 0 0 0-1.824 1.009l.084-.062a23.784 23.784 0 0 0 1.38-1.104l.02-.018.006-.005.001-.002h.001l-.333-.373.333.373 1.135-1.013.187-.038-.1-.49.1.49h.005l.013-.004.054-.01a122.496 122.496 0 0 1 .983-.193c.654-.126 1.56-.296 2.564-.471 2.018-.353 4.41-.725 5.983-.82 1.397-.085 2.205.557 2.686 1.227a4.078 4.078 0 0 1 .628 1.365l.004.02v.002l.002.006.001.007v.001l.001.004.004.018.016.071.06.274a75.52 75.52 0 0 1 .782 4.229V24.015l.004.033a118.436 118.436 0 0 1 .523 4.599l.007.073.002.018v.006l.003.04.01.037.001.005.005.022a4.43 4.43 0 0 1 .06.291c-.313.841-.667 1.677-1.06 2.47-.295.272-.715.47-1.32.644-1.528.358-3.915.706-5.94.967a173.315 173.315 0 0 1-3.37.4l-.213.023-.055.006-.014.001h-.004l.051.498-.051-.497-.336.034-1.265-.533-.194.46.194-.46h-.001l-.002-.001-.007-.003-.026-.01-.095-.04a24.707 24.707 0 0 0-1.569-.564c-.978-.313-2.263-.656-3.418-.733h-.001c-2.325-.152-4.58.645-6.213 1.222l-.06.021c-.929.328-1.745.996-2.31 1.55a10.465 10.465 0 0 0-.92 1.03l-.014.02-.004.005-.001.001v.001l.402.297-.403-.297-.69.936-.227.042c-.578.101-1.33.206-2.05.23-.398.012-.79.054-1.15.093l-.044.005c-.35.039-.668.073-.965.084-.625.023-1.034-.067-1.32-.338l-.003-.003a1.051 1.051 0 0 1-.161-.246 5.31 5.31 0 0 1-.248-.565 19.109 19.109 0 0 1-.525-1.655 60.987 60.987 0 0 1-.813-3.4l-.006-.028-.009-.027a5.237 5.237 0 0 1-.11-.516l-.01-.066v-.019l-.003-.03a76.55 76.55 0 0 1-.393-4.322 25.497 25.497 0 0 1-.048-2.129c.009-.297.028-.548.057-.744a1.24 1.24 0 0 1 .08-.332c.192-.333.551-.54 1.149-.713.276-.08.576-.145.908-.217l.074-.017c.355-.077.74-.162 1.124-.278a13.476 13.476 0 0 1 2.001-.415c.123-.017.237-.03.34-.043l.927.635.282-.413-.282.413.002.002.006.003.018.013.069.044a10.506 10.506 0 0 0 1.116.615c.704.334 1.677.696 2.654.723 1.747.049 4.171.056 6.315-.762l.01-.004c.734-.297 1.482-.733 2.145-1.172l.04.252.82 5.166v.144l.006.037.777 5.204.05.34.336.074.109-.488-.11.488h.001l.004.001.01.003.044.01.054.011.107.023a72.267 72.267 0 0 0 2.37.473c.664.12 1.354.23 1.917.289.28.03.54.047.757.045.107-.001.215-.007.314-.023a.895.895 0 0 0 .34-.12c.18-.114.292-.291.362-.426.077-.148.141-.32.195-.493.107-.348.192-.764.257-1.153a20.451 20.451 0 0 0 .19-1.482l.003-.026V29.375l-.497-.043m-1.167-7.734.476-.154v.002l.002.004.005.017.02.063.072.237c.06.204.144.495.237.847.185.703.408 1.659.557 2.655l.006.037v.099c.145 1.005.218 1.98.254 2.704a31.117 31.117 0 0 1 .037 1.133V29.332h-.5m-1.166-7.734.46-.196.009.02.007.022-.476.154Zm1.166 7.734h.5v.021l-.001.021-.498-.042Zm-3.09 6.292a.507.507 0 0 1-.141.035l-.263-1.317-.067-.333.656-.11.026.294v.006l.003.029c.001.026.004.065.005.114.004.1.005.238-.003.394-.017.326-.073.656-.187.871v.001a.123.123 0 0 1-.029.016Zm-2.267-17.392-.663.106-.043-.395-.149-1.34a.552.552 0 0 1 .148-.004.142.142 0 0 1 .03.006c.163.167.314.459.428.758a4.836 4.836 0 0 1 .155.474l.007.028.001.006.086.36Zm-.674-1.625h-.001.001Zm-1.89 4.602-.225-.384.225.384ZM21.013 35.476l.011-.005c.342-.171.773-.472 1.123-.724v.268l.854-.854c.381-.382.71-.775.942-1.136.115-.18.213-.363.28-.541.06-.163.108-.357.09-.555a9.69 9.69 0 0 0-.088-.801c-.05-.373-.118-.827-.184-1.269l-.139-.9-.046-.298a69.613 69.613 0 0 1-.076-.509l-.001-.012v-.025l-.01-.048-.044-.221-.005-.036-.016-.117a216.184 216.184 0 0 0-.235-1.591c-.13-.864-.28-1.823-.337-2.047l-.002-.008-.002-.008a.57.57 0 0 0-.2-.29.87.87 0 0 0-.15-.093 2.208 2.208 0 0 0-.293-.114 9.419 9.419 0 0 0-.82-.214c-.65-.144-1.5-.293-2.347-.407-.844-.114-1.703-.195-2.363-.196-.325 0-.634.018-.876.075-.119.028-.26.073-.384.156a.662.662 0 0 0-.302.508l-.001.016v.015c0 .3.077 1.135.173 2.093.06.603.13 1.273.197 1.92l.116 1.12v.069l.008.045c.17.926.463 2.461.737 3.826.137.682.27 1.324.38 1.828.106.478.204.887.271 1.056.123.306.344.53.64.655.278.117.59.133.897.1.61-.063 1.365-.337 2.202-.731Zm24.94-18.216c-.722.088-1.163.755-1.29 1.342a1.497 1.497 0 0 0-.007.753c.067.484.308.926.644 1.205.329.32.786.504 1.277.358.965-.174 1.43-1.183 1.248-2.093a2.137 2.137 0 0 0-.648-1.168c-.32-.287-.753-.47-1.223-.397Zm1.64 10.509c-.946.158-1.406 1.178-1.289 2.065.118.94.873 1.807 1.842 1.645.946-.157 1.405-1.178 1.288-2.064-.118-.941-.873-1.808-1.841-1.646Z" fill="currentColor" stroke="currentColor"/><mask id="a" fill="currentColor"><path d="m46.654 14.885.195-1.216c.048-.195.194-.292.388-.243.195.048.292.194.243.389l-.194 1.216c-.049.194-.194.292-.389.243-.194-.048-.291-.243-.243-.389Z"/></mask><path d="m46.654 14.885.195-1.216c.048-.195.194-.292.388-.243.195.048.292.194.243.389l-.194 1.216c-.049.194-.194.292-.389.243-.194-.048-.291-.243-.243-.389Z" fill="currentColor"/><path d="m46.654 14.885.949.316.026-.078.013-.08-.988-.158Zm.195-1.216-.97-.242-.011.041-.007.043.988.158Zm.631.146-.97-.242-.01.041-.007.043.987.158Zm-.194 1.216.97.242.01-.042.008-.042-.988-.158Zm.356.012.194-1.216-1.975-.316-.194 1.216 1.975.316Zm.177-1.132a.665.665 0 0 1-.293.389.693.693 0 0 1-.531.096l.485-1.94a1.31 1.31 0 0 0-1.029.157c-.33.21-.502.529-.573.814l1.94.484Zm-.824.485a.666.666 0 0 1-.389-.294.691.691 0 0 1-.096-.53l1.94.485a1.31 1.31 0 0 0-.156-1.028 1.338 1.338 0 0 0-.814-.573l-.485 1.94Zm-.502-.739-.195 1.216 1.975.316.195-1.216-1.975-.316Zm-.177 1.132a.665.665 0 0 1 .293-.389.693.693 0 0 1 .531-.096l-.486 1.94c.314.079.69.059 1.03-.157.33-.21.501-.529.572-.814l-1.94-.484Zm.824-.485a.66.66 0 0 1 .409.309.716.716 0 0 1 .054.588l-1.898-.632c-.248.745.24 1.498.95 1.675l.485-1.94Z" fill="currentColor" mask="url(#a)"/><path d="m48.816 14.654.014-.02-.014.02Z" fill="currentColor" stroke="currentColor"/><mask id="b" fill="currentColor"><path d="M45.1 13.96c0-.098.097-.244.242-.244.146-.048.34.049.39.244l.242.972c.049.195-.048.34-.243.39-.145.048-.34-.05-.389-.244l-.242-.973v-.146Z"/></mask><path d="M45.1 13.96c0-.098.097-.244.242-.244.146-.048.34.049.39.244l.242.972c.049.195-.048.34-.243.39-.145.048-.34-.05-.389-.244l-.242-.973v-.146Z" fill="currentColor"/><path d="M45.343 13.716v1h.162l.154-.051-.316-.949Zm.388.244-.97.242.97-.242Zm.243.972.97-.242-.97.242Zm-.243.39-.242-.97-.038.009-.036.012.316.949Zm-.389-.244.97-.242-.97.242Zm-.242-.973h-1v.123l.03.12.97-.243Zm1-.146a.747.747 0 0 1-.18.5.766.766 0 0 1-.578.257v-2c-.428 0-.745.217-.929.427a1.254 1.254 0 0 0-.313.816h2Zm-.441.706a.717.717 0 0 1-.59-.055.66.66 0 0 1-.308-.408l1.94-.485c-.177-.709-.928-1.199-1.675-.95l.633 1.898Zm-.898-.463.243.973 1.94-.485-.243-.973-1.94.485Zm.243.973a.692.692 0 0 1 .096-.53.665.665 0 0 1 .389-.293l.485 1.94c.285-.072.604-.243.814-.574a1.31 1.31 0 0 0 .156-1.028l-1.94.485Zm.41-.802a.716.716 0 0 1 .59.055.66.66 0 0 1 .309.408l-1.94.485c.176.708.928 1.199 1.675.95l-.633-1.898Zm.899.463-.243-.973-1.94.485.242.973 1.94-.485Zm-.214-.73V13.96h-2V14.106h2Z" fill="currentColor" mask="url(#b)"/><path d="M14.92 22.605H8.894c-.113 0-.23-.116-.23-.23 0-.113.117-.23.23-.23h6.026c.112 0 .229.117.229.23 0 .114-.117.23-.23.23ZM1.687 22.376c0 .113-.117.23-.23.23H.552a15.058 15.058 0 0 1-.035-.46h.99c.042 0 .081.016.116.055a.262.262 0 0 1 .065.175ZM51.484 22.146c-.009.151-.021.304-.035.46H50.25c-.113 0-.23-.117-.23-.23 0-.114.117-.23.23-.23h1.233Z" fill="currentColor" stroke="currentColor"/></svg>