<svg width="58" height="40" viewBox="0 0 58 40" fill="none" xmlns="http://www.w3.org/2000/svg"><path d="M2.818 22.775H1.06l-.125-.626h1.846a.507.507 0 0 1 .26.126c.064.061.09.125.09.187 0 .19-.134.313-.313.313ZM9.861 22.775H7.314a.335.335 0 0 1-.312-.313c0-.157.155-.313.312-.313h2.547c.157 0 .313.156.313.313 0 .13-.041.2-.077.236-.036.036-.106.077-.236.077ZM16.96 22.775h-2.547a.335.335 0 0 1-.313-.313c0-.157.155-.313.313-.313h2.546c.158 0 .313.156.313.313 0 .19-.133.313-.313.313ZM24.003 22.775h-2.492a.335.335 0 0 1-.313-.313c0-.157.156-.313.313-.313h2.547c.149 0 .296.14.311.289-.038.223-.203.337-.366.337Z" fill="currentColor" stroke="currentColor"/><path d="m47.9 19.482.44-.237h-.001l-.001-.003-.004-.006-.013-.025-.051-.093a22.239 22.239 0 0 0-.798-1.331 10.12 10.12 0 0 0-.772-1.055 3.268 3.268 0 0 0-.412-.409 1.165 1.165 0 0 0-.532-.26.904.904 0 0 0-.377.03 2.36 2.36 0 0 0-.317.116 7.873 7.873 0 0 0-.738.385 32.91 32.91 0 0 0-1.825 1.16 81.701 81.701 0 0 0-2.373 1.665h-.002a23.714 23.714 0 0 0 1.469-1.404 20.313 20.313 0 0 0 .366-.39l.02-.023.006-.006.001-.002-.372-.334.373.333 1.122-1.26-1.627.445-15.28 4.172-1.21.33 1.105.593.236-.44-.236.44h.001l.002.002.006.003.022.012a8.149 8.149 0 0 0 .375.181c.25.114.603.265 1.021.41.824.286 1.945.57 3.023.48 1.945-.163 4.642-.437 6.91-1.627.823-.432 1.642-1.042 2.348-1.64l.08.296 1.516 5.69.004.014.005.015.049.146 1.458 5.672.086.333.342.04.057-.497-.057.497h.004l.013.002.048.005a94.413 94.413 0 0 0 .84.088c.544.055 1.277.123 2.028.177.749.055 1.525.097 2.153.097.312 0 .6-.01.836-.038.116-.013.232-.032.336-.06a.932.932 0 0 0 .342-.161l.01-.008.01-.009c.16-.142.248-.343.3-.492.06-.166.105-.36.142-.558.073-.398.12-.873.152-1.32a27.331 27.331 0 0 0 .06-1.594l.002-.109V27.881h-.5m-2.222-8.399.455-.208v.002l.003.005.008.018.03.066.108.25c.093.216.222.526.37.904.295.755.667 1.789.971 2.894l.018.065v.114c.268 1.057.456 2.105.577 2.892a34.448 34.448 0 0 1 .168 1.246l.008.073.002.02v.005l.001.001-.497.052m-2.222-8.399.44-.237.008.014.007.015-.455.208Zm2.222 8.399.497-.051.003.025v.026h-.5Zm-2.995 7.549-.008.001-.477-1.473-.14-.433.826-.233.08.425.001.002.001.006.006.031.018.125c.015.109.032.26.041.434.019.349.003.727-.09 1.008-.014.017-.074.07-.258.107Zm-17.588 2.864.253-.072c-.169.058-.387.13-.642.207-.616.185-1.427.394-2.23.497l-.007.001-.008.002c-.436.07-.858.168-1.249.258l-.01.002c-.399.093-.76.176-1.1.226-.677.102-1.156.055-1.535-.225a1.377 1.377 0 0 1-.22-.275 6.256 6.256 0 0 1-.34-.603 22.1 22.1 0 0 1-.772-1.763 74.559 74.559 0 0 1-1.318-3.679 5.415 5.415 0 0 1-.077-.303l-.02-.082a9.225 9.225 0 0 0-.063-.25 1.88 1.88 0 0 0-.052-.17 99.435 99.435 0 0 1-.928-4.686 28.637 28.637 0 0 1-.31-2.35 7.496 7.496 0 0 1-.027-.835c.009-.237.037-.358.054-.4l.005-.012c.167-.427.546-.71 1.187-.972.305-.125.642-.235 1.014-.357l.05-.016c.384-.126.8-.263 1.213-.434.755-.312 1.57-.55 2.2-.709a20.371 20.371 0 0 1 .985-.222l.056-.011.014-.003h.003l.022-.004.022-.006 15.876-4.39.449-.123-.092-.456-.305-1.527.009-.003c.16-.057.233-.044.256-.035.217.209.418.533.573.843a5.741 5.741 0 0 1 .226.515l.01.03.003.006.162.462.465-.151-.155-.476.155.476.005-.002.014-.005.059-.019a106.682 106.682 0 0 1 1.064-.338c.708-.222 1.689-.524 2.78-.844 2.187-.644 4.788-1.353 6.516-1.646 1.066-.17 1.85.073 2.432.448.554.357.95.848 1.226 1.281.05.559.09 1.134.043 1.749l-.002.019v.02c0 2.874-.425 5.589-1.224 8.197v.001a28.501 28.501 0 0 1-3.09 6.81 103.453 103.453 0 0 1-5.242 1.22l-.09.018-.023.005h-.005l-.002.001-.262.053-1.553-.474-.146.478.146-.478h-.001l-.002-.001-.008-.003-.03-.008a18.432 18.432 0 0 0-.514-.144c-.345-.092-.83-.212-1.392-.33-1.117-.233-2.574-.46-3.856-.403l-.011.001c-2.548.17-5.01 1.297-6.747 2.165-.959.48-1.77 1.3-2.328 1.97a12.029 12.029 0 0 0-.893 1.224l-.013.021-.004.006-.001.002v.001l.428.258-.429-.258-.647 1.08Zm10.83-18.433-.293-.398.292.398ZM22.744 30.048v.077l.023.074c.139.438.315 1.003.508 1.623.254.812.536 1.717.8 2.55.233.738.456 1.432.638 1.976.175.524.326.955.414 1.13.157.315.414.527.743.62.306.088.64.063.966-.01.647-.147 1.447-.532 2.346-1.05.433-.247.945-.69 1.328-1.04.159-.144.303-.28.418-.389l.077-.073.062-.057h.055l.15-.185c.365-.45.685-.912.903-1.331.108-.21.197-.42.251-.623.052-.193.082-.42.029-.643-.056-.249-.299-1.148-.536-2.029l-.051-.188a283.71 283.71 0 0 1-.457-1.72 5.502 5.502 0 0 1-.027-.112v-.016l-.015-.06-.054-.216-.013-.054-.01-.02-.004-.01a347.708 347.708 0 0 1-.387-1.425l-.117-.437c-.251-.94-.531-1.98-.624-2.227l-.004-.01-.005-.011a.585.585 0 0 0-.229-.262.923.923 0 0 0-.168-.081 2.4 2.4 0 0 0-.334-.092 10.255 10.255 0 0 0-.934-.139 32.763 32.763 0 0 0-2.656-.17c-.95-.023-1.91-.009-2.638.07-.359.04-.693.097-.949.187a1.216 1.216 0 0 0-.388.21.676.676 0 0 0-.248.56l.001.013c.03.336.216 1.243.435 2.28l.238 1.116c.158.74.322 1.503.463 2.19v.004Zm30.848-13.634c.265.994 1.185 1.742 2.176 1.494 1.01-.252 1.441-1.418 1.116-2.417-.27-.986-1.185-1.726-2.171-1.48-.51.128-.862.506-1.045.944a2.29 2.29 0 0 0-.076 1.459ZM14.142 6.965l.488-.11v-.002l-.002-.008-.007-.027-.024-.104a21.99 21.99 0 0 0-.411-1.504 9.971 9.971 0 0 0-.46-1.225 3.17 3.17 0 0 0-.29-.503c-.098-.136-.246-.305-.456-.392a.957.957 0 0 0-.368-.063c-.108 0-.224.012-.341.029a7.939 7.939 0 0 0-.824.177 32.4 32.4 0 0 0-2.07.637 78.888 78.888 0 0 0-2.721.98l-.046.017-.012.004-.003.001.178.468-.179-.467-.318.122-.003.34-.054 5.852v.163l-.108 5.847-.007.343.318.13.189-.464-.19.463h.002l.003.002.012.005.045.018a63.863 63.863 0 0 0 .785.312c.51.2 1.2.464 1.91.72.707.256 1.446.506 2.052.676.303.085.584.153.819.19.117.02.233.033.341.034a.942.942 0 0 0 .373-.062l.016-.006.015-.008c.19-.095.33-.256.43-.392.107-.147.207-.321.297-.502.181-.363.352-.803.497-1.217a23.411 23.411 0 0 0 .49-1.585l.007-.028.002-.007v-.002l-.483-.128m.108-8.724.494-.078v.002l.001.005.003.02.011.071c.01.063.022.154.038.27.03.232.072.564.113.966.083.803.165 1.891.165 3.025v.662h-.07a37.141 37.141 0 0 1-.354 3.761l-.011.072-.003.019v.005l-.001.001-.494-.077m.108-8.724.488-.11.004.016.002.016-.494.078Zm-.108 8.724.483.127.007-.024.004-.025-.494-.078Zm10.662-9.522V6.181l.002.021.003.082.013.314a235.394 235.394 0 0 1 .145 4.815v.045a126.032 126.032 0 0 1-.209 5.173l-.005.081-.002.02v.021l-.002.023a4.36 4.36 0 0 1-.07.477 4.626 4.626 0 0 1-.403 1.168c-.426.836-1.225 1.69-2.803 1.809-1.757.133-4.455.093-6.732.019a181.135 181.135 0 0 1-4.01-.178l-.06-.003-.017-.001h-.004l-.03.499.03-.5-.362-.02-1.297-.824-.268.422.268-.422-.003-.002-.006-.004-.026-.016a13.01 13.01 0 0 0-.458-.275c-.307-.18-.742-.425-1.253-.687-1.013-.52-2.357-1.125-3.61-1.41-1.025-.244-2.04-.279-3.026-.25A28.8 28.8 0 0 1 2.598 6.067a9.342 9.342 0 0 0 1.04-.187c1.252-.285 2.595-.89 3.607-1.41a26.601 26.601 0 0 0 1.711-.962l.026-.016.007-.004.002-.001v-.001l-.267-.422.268.422 1.4-.889.247-.009-.019-.5.019.5h.02l.062-.003a105.706 105.706 0 0 1 1.112-.034c.74-.02 1.763-.044 2.898-.057 2.277-.027 4.976-.013 6.735.147 1.579.143 2.366 1.008 2.78 1.85a4.622 4.622 0 0 1 .449 1.65l.001.023v.003ZM9.57 22.054c-.003.004-.055.055-.26.045l-.087-1.561-.022-.393h.83l-.019.396v.007l-.002.03a4.603 4.603 0 0 1-.076.538c-.07.344-.188.703-.364.938Zm-.846-19.49h-4.46l.019-.03h5.022l.026-.472.087-1.56c.187-.01.247.031.258.042.181.268.297.642.366.986a4.853 4.853 0 0 1 .076.546l.002.03v.007l.022.45H8.724Zm15.075 14.892v-.033c0-.522-.146-1.024-.429-1.408-.288-.39-.726-.664-1.262-.664-1.067 0-1.747.969-1.747 2.018 0 .514.17 1.002.458 1.37.287.368.719.647 1.234.647 1.013 0 1.681-.967 1.745-1.93Zm-3.33-11.954c0 .514.171 1.003.459 1.371.286.368.718.646 1.234.646 1.066 0 1.746-.968 1.746-2.017 0-.514-.17-1.002-.458-1.37-.287-.368-.719-.647-1.234-.647-1.066 0-1.746.968-1.746 2.017ZM8.736 30.481v-.5H6.243v-.95h7.724v3.184c0 1.036-.253 1.77-.662 2.238-.4.458-1.008.73-1.872.73-.897 0-1.55-.276-1.984-.742-.439-.47-.713-1.2-.713-2.226v-1.734Zm1.18-.5h-.5v2.126c0 .607.135 1.174.49 1.595.367.436.901.639 1.527.639.607 0 1.127-.208 1.484-.644.343-.42.479-.983.479-1.59V29.98h-3.48Z" fill="currentColor" stroke="currentColor"/></svg>