<svg width="58" height="37" viewBox="0 0 58 37" fill="none" xmlns="http://www.w3.org/2000/svg"><path d="m18.396 20.888.486-.117v-.003l-.003-.007-.007-.028-.025-.104a23.601 23.601 0 0 0-.436-1.51 10.823 10.823 0 0 0-.477-1.239 3.52 3.52 0 0 0-.29-.51 1.23 1.23 0 0 0-.43-.401l-.016-.008-.016-.007a.95.95 0 0 0-.373-.062c-.108 0-.225.013-.344.03a8.119 8.119 0 0 0-.833.184c-.621.165-1.378.408-2.105.657a81.07 81.07 0 0 0-2.062.74 26.444 26.444 0 0 0 1.7-.97l.027-.016.007-.005h.002v-.001l-.27-.421.27.42 1.431-.92H.803l.023-.07v-.017l12.216-.052.472-.002.026-.472.087-1.615.021-.001a.752.752 0 0 1 .233.018.191.191 0 0 1 .049.02.026.026 0 0 1 .008.006c.174.233.293.603.363.963a4.968 4.968 0 0 1 .077.566l.002.032v.007l.023.499.499-.022-.022-.5.022.5h.021l.062-.003a91.324 91.324 0 0 1 1.127-.043c.75-.025 1.786-.055 2.936-.076 2.307-.04 5.042-.04 6.824.12 1.574.144 2.375 1.022 2.804 1.882a4.834 4.834 0 0 1 .473 1.685l.002.023v.016l.001.005.002.021.005.084.02.322c.016.279.04.681.067 1.175.054.986.121 2.336.175 3.794v.04a130.136 130.136 0 0 1-.208 5.233l-.005.083-.002.02V30.85l-.001.003-.002.023a4.354 4.354 0 0 1-.07.478c-.066.32-.187.745-.408 1.175-.432.845-1.245 1.716-2.852 1.86-1.78.16-4.512.134-6.82.066a166.397 166.397 0 0 1-3.82-.158l-.24-.013-.063-.003-.016-.001h-.004l-.03.499.03-.5-.452-.026-1.315-.82-.265.423.265-.424h-.001l-.002-.002-.007-.004-.026-.016a14.364 14.364 0 0 0-.466-.276c-.313-.18-.756-.425-1.276-.687-1.033-.521-2.402-1.127-3.68-1.412l-.011-.002c-1.828-.366-3.733-.247-5.353-.01a28.373 28.373 0 0 1-.541-1.646l-.484-1.778A27.545 27.545 0 0 1 .5 20.942c0-.44 0-.845.016-1.254l.012.003.013.003.013.003c1.945.38 4.636.836 7.184.268.883-.197 1.809-.552 2.637-.93V25.391l-.054 5.964-.003.341.317.128.186-.465-.186.465h.001l.003.001.012.005.046.018.174.07a89.94 89.94 0 0 0 2.57.964c.72.256 1.47.506 2.086.676.307.085.592.153.829.19.118.02.235.032.343.034a.944.944 0 0 0 .375-.062c.208-.087.358-.256.457-.39.11-.147.21-.324.3-.507.182-.367.352-.816.497-1.241a23.845 23.845 0 0 0 .488-1.634l.008-.029.002-.007v-.003l-.484-.123m.054-8.898.494-.076v.002l.001.006.003.019.01.074a33.412 33.412 0 0 1 .15 1.268c.084.824.166 1.94.166 3.102v.108c0 1.165-.096 2.285-.192 3.11a29.167 29.167 0 0 1-.177 1.272l-.012.074-.004.02v.005l-.001.001v.001l-.492-.088m.054-8.898.486-.117.005.02.003.021-.494.076Zm-.054 8.898.492.088-.003.018-.005.017-.484-.123Zm-4.749 6.581-.021-.001-.087-1.615-.022-.399.953-.005-.035.385v.008l-.004.033-.017.13a5.47 5.47 0 0 1-.083.44c-.084.363-.214.74-.394.98l-.008.007a.195.195 0 0 1-.05.02.752.752 0 0 1-.232.017ZM10.875 19.26l-.15-.388.15.388Zm2.421-4.84Zm14.96 17.023V31.414c0-1.024-.658-2.074-1.744-2.074-.512 0-.955.276-1.255.647-.303.376-.49.88-.49 1.427 0 1.023.658 2.073 1.745 2.073 1.03 0 1.681-.993 1.743-2.044ZM24.82 19.369c0 1.024.658 2.073 1.745 2.073 1.086 0 1.744-1.05 1.744-2.073 0-1.024-.658-2.074-1.744-2.074-1.087 0-1.745 1.05-1.745 2.074ZM44.963 34.193l4.776-.026-5.27.057h-.02l-.02.002h-.003l-.014.001-.058.005-.224.015c-.195.011-.472.025-.803.031-.663.013-1.53 0-2.362-.105a15.692 15.692 0 0 0-1.318-.095l-.106-.004c-.378-.015-.72-.03-1.038-.064-.7-.078-1.142-.245-1.42-.617a1.332 1.332 0 0 1-.152-.34 6.214 6.214 0 0 1-.178-.689 21.903 21.903 0 0 1-.29-1.948c-.16-1.436-.254-3.002-.309-3.954V25.621c.055-1.166.162-3.13.336-4.908.088-.893.191-1.73.31-2.393a8.06 8.06 0 0 1 .188-.828c.068-.23.124-.34.149-.373.282-.377.731-.555 1.429-.645.339-.044.708-.063 1.116-.085l.026-.002c.412-.021.858-.046 1.311-.103h.002a16.147 16.147 0 0 1 2.313-.104 20.446 20.446 0 0 1 1.02.046l.058.004.014.002h.003l.024.002h.023l12.612-.053.015.084H43.702l.915.863.344-.363-.343.363v.001l.002.002.005.005.019.017.067.06a11.963 11.963 0 0 0 1.13.88c.725.496 1.739 1.07 2.811 1.279 1.946.379 4.637.836 7.184.268h.004c.522-.122 1.04-.298 1.544-.485.038.58.077 1.152.116 1.697a27.883 27.883 0 0 1-1.223 8.192l-.022.07v.022l-.001.004-.001.004a1.627 1.627 0 0 0-.041.15c-.159.477-.315.948-.472 1.396-2.516-.483-5.163-.033-7.088.342h-.002c-1.048.21-2.063.8-2.792 1.308a12.768 12.768 0 0 0-1.214.965l-.02.017-.004.005-.002.002.343.364-.344-.363-.92.87 1.266-.007Zm.81-2.887.248.433.02-.012.02-.013a7.535 7.535 0 0 0 1.24-1.08c.161-.179.302-.364.406-.548.094-.167.18-.372.188-.593.015-.156.025-.486.032-.86.007-.417.012-.931.016-1.434.007-1.005.007-1.97.007-2.024v-.272c0-.027 0-.991-.007-2.01-.007-.98-.02-2.069-.05-2.37a.581.581 0 0 0-.127-.317.855.855 0 0 0-.144-.14 2.158 2.158 0 0 0-.302-.19 9.436 9.436 0 0 0-.872-.396 31.654 31.654 0 0 0-2.553-.888c-.925-.28-1.87-.525-2.606-.644-.361-.058-.704-.092-.977-.072-.133.01-.291.034-.435.103a.675.675 0 0 0-.386.484v.003c-.06.335-.13 1.283-.197 2.371a331.562 331.562 0 0 0-.19 3.499v.104c.036.7.076 1.69.119 2.73l.071 1.709c.034.79.068 1.534.1 2.118.031.565.063 1.024.097 1.212v.002c.067.354.26.635.557.819.277.17.613.238.954.253.677.031 1.566-.136 2.574-.41.462-.123 1.086-.418 1.564-.66a23.327 23.327 0 0 0 .81-.434l.052-.029.014-.008.003-.002h.001l-.248-.434ZM21.277 7.04V4.352H34.02v2.69H21.277ZM34.694 10.84V.5h.84v10.34h-.84Z" fill="currentColor" stroke="currentColor"/><mask id="a" fill="currentColor"><path d="M34.25 31.74h-1.353a.37.37 0 0 1-.379-.38.37.37 0 0 1 .379-.38h1.353a.37.37 0 0 1 .378.38c0 .216-.216.38-.378.38Z"/></mask><path d="M34.25 31.74h-1.353a.37.37 0 0 1-.379-.38.37.37 0 0 1 .379-.38h1.353a.37.37 0 0 1 .378.38c0 .216-.216.38-.378.38Z" fill="currentColor"/><path d="M34.25 30.74h-1.353v2h1.353v-2Zm-1.353 0c.15 0 .312.059.438.184a.621.621 0 0 1 .183.435h-2c0 .767.608 1.38 1.379 1.38v-2Zm.621.62a.621.621 0 0 1-.184.434.623.623 0 0 1-.437.186v-2a1.37 1.37 0 0 0-1.379 1.38h2Zm-.621.62h1.353v-2h-1.353v2Zm1.353 0a.623.623 0 0 1-.438-.186.62.62 0 0 1-.184-.435h2a1.37 1.37 0 0 0-1.378-1.38v2Zm-.622-.62c0-.238.118-.395.198-.468a.613.613 0 0 1 .424-.153v2c.383 0 .708-.173.923-.37a1.37 1.37 0 0 0 .455-1.01h-2Z" fill="currentColor" mask="url(#a)"/><mask id="b" fill="currentColor"><path d="M33.545 33.747c-.108 0-.216-.054-.324-.163a.354.354 0 0 1 .108-.488l1.136-.651a.354.354 0 0 1 .379.597l-1.136.65c-.055.055-.109.055-.163.055Z"/></mask><path d="M33.545 33.747c-.108 0-.216-.054-.324-.163a.354.354 0 0 1 .108-.488l1.136-.651a.354.354 0 0 1 .379.597l-1.136.65c-.055.055-.109.055-.163.055Z" fill="currentColor"/><path d="m33.22 33.584-.832.554.055.082.07.07.708-.706Zm.109-.488-.497-.868-.03.017-.029.02.556.83Zm1.136-.651.497.867.03-.017.029-.019-.556-.831Zm.379.597.497.867.03-.017.029-.019-.556-.831Zm-1.136.65-.498-.867-.116.067-.095.095.709.706Zm-.163-.945c.252 0 .383.13.384.131l-1.416 1.412c.216.218.564.457 1.032.457v-2Zm.508.284c.227.34.082.729-.168.896l-1.112-1.662c-.575.384-.828 1.206-.385 1.873l1.665-1.107Zm-.227.933 1.136-.651-.994-1.736-1.136.651.994 1.736Zm1.195-.688a.649.649 0 0 1-.902-.169L35.785 32c-.383-.576-1.207-.834-1.876-.387l1.112 1.663Zm-.902-.169a.646.646 0 0 1 .169-.897l1.112 1.663c.574-.384.828-1.207.385-1.873l-1.666 1.107Zm.228-.933-1.137.651.995 1.735 1.136-.65-.994-1.736Zm-1.348.813a.83.83 0 0 1 .384-.217c.112-.028.208-.023.162-.023v2c.07 0 .506.018.87-.348L33 32.987Z" fill="currentColor" mask="url(#b)"/><mask id="c" fill="currentColor"><path d="M34.574 30.33c-.055 0-.109 0-.163-.055l-1.028-.434c-.162-.054-.27-.271-.162-.488.054-.163.27-.272.487-.163l1.028.434c.162.054.27.271.162.488-.054.109-.216.217-.324.217Z"/></mask><path d="M34.574 30.33c-.055 0-.109 0-.163-.055l-1.028-.434c-.162-.054-.27-.271-.162-.488.054-.163.27-.272.487-.163l1.028.434c.162.054.27.271.162.488-.054.109-.216.217-.324.217Z" fill="currentColor"/><path d="m34.411 30.275.708-.706-.138-.139-.18-.076-.39.92Zm-1.028-.434.39-.921-.036-.015-.037-.013-.317.949Zm-.162-.488.895.446.032-.064.022-.067-.95-.315Zm.487-.163-.448.894.029.014.03.013.389-.921Zm1.028.434-.39.921.036.015.037.012.317-.948Zm-.162-.295c-.046 0 .05-.005.162.023a.83.83 0 0 1 .383.217l-1.416 1.412c.365.366.801.348.87.348v-2Zm.226.025-1.028-.434-.778 1.842 1.028.434.778-1.842Zm-1.1-.462a.661.661 0 0 1 .416.907l-1.79-.893c-.355.712-.05 1.62.74 1.883l.634-1.897Zm.47.776a.663.663 0 0 1-.91.416l.896-1.788c-.716-.36-1.622-.047-1.884.741l1.898.631Zm-.851.443 1.028.434.778-1.842-1.028-.434-.778 1.842Zm1.1.461a.661.661 0 0 1-.416-.906l1.79.892c.355-.712.05-1.619-.74-1.883l-.634 1.897Zm-.416-.906a.674.674 0 0 1 .117-.168.485.485 0 0 1 .188-.122.747.747 0 0 1 .266-.047v2c.336 0 .6-.144.738-.236.15-.1.351-.274.481-.535l-1.79-.892Z" fill="currentColor" mask="url(#c)"/><path d="M32.896 19.043h1.352M34.681 17.687l-1.136-.65M33.545 20.943l1.028-.434" stroke="currentColor" stroke-width=".7" stroke-miterlimit="10" stroke-linecap="round"/></svg>