<svg width="52" height="52" viewBox="0 0 52 52" fill="none" xmlns="http://www.w3.org/2000/svg"><path d="M27.175.5c3.32 0 6.524.646 9.462 1.757a18.412 18.412 0 0 1-8.343 1.976c-3.345 0-6.526-.883-9.218-2.464C21.64.97 24.35.5 27.175.5ZM50.664 27.567l.008-.005.008-.004c.088-.05.252-.026.335.12.024.042.034.109.01.178a.187.187 0 0 1-.108.123l-.034.013-.032.018c-1.907 1.054-3.97 1.96-6.036 2.716l-.027.01-.021.01h-.035a.266.266 0 0 1-.238-.167l-.003-.009-.003-.008c-.048-.129-.004-.258.16-.322 2.064-.723 4.07-1.649 6.016-2.673Zm-44.296.195.007.004.008.004a44.444 44.444 0 0 0 6.015 2.623c.165.063.21.193.162.321l-.004.009-.003.009a.267.267 0 0 1-.238.167h-.035l-.02-.011-.027-.01a54.542 54.542 0 0 1-6.09-2.666c-.138-.084-.16-.244-.111-.331.083-.145.247-.17.336-.12Zm32.1 4.768-.03.004-.028.006c-2.153.5-4.359.803-6.57.954h-.034c-.115 0-.23-.074-.262-.242a.323.323 0 0 1 .263-.287 45.432 45.432 0 0 0 6.49-.92c.17-.012.317.1.352.238a.2.2 0 0 1-.024.164c-.024.036-.07.074-.157.083ZM.524 24.75c.017-.187.034-.374.054-.559l.196.132.01.006a.254.254 0 0 1 .103.167c.01.064.002.14-.034.215-.052.06-.105.081-.191.081a.283.283 0 0 1-.138-.043ZM25.903 17.506l.459.2v-.003l.004-.006.01-.025a23.205 23.205 0 0 0 .572-1.472c.136-.392.268-.818.346-1.19.04-.184.068-.371.073-.542.005-.154-.005-.37-.109-.56a.898.898 0 0 0-.247-.274 2.275 2.275 0 0 0-.272-.174 7.404 7.404 0 0 0-.714-.336 30.616 30.616 0 0 0-1.908-.704 74.854 74.854 0 0 0-2.426-.772l-.167-.05-.044-.013-.012-.003h-.003v-.001l-.142.48.141-.48-.329-.097-.209.272-3.338 4.35-.079.08-.02.02-.019.023-3.41 4.326-.21.266c-.403-.769-.898-1.588-1.455-2.26-1.552-1.874-3.836-3.035-5.454-3.843l-.007-.004c-.978-.47-2.151-.605-3.017-.626l.018-.03c.046-.07.09-.147.13-.216a11.635 11.635 0 0 0 .477.078l.056.008.016.002h.006l.062-.495-.062.496.02.002.019.001a7.11 7.11 0 0 0 1.536-.077c.22-.039.427-.093.608-.167.174-.07.364-.176.503-.342.133-.16.739-.934 1.307-1.66l.143-.183a715.275 715.275 0 0 1 .976-1.243l.01-.01.022-.029.143-.19a1.53 1.53 0 0 0 .03-.037l.002-.003.08-.099.259-.33.779-1c.55-.711 1.138-1.473 1.296-1.69a.584.584 0 0 0 .126-.354.818.818 0 0 0-.034-.24 2.216 2.216 0 0 0-.153-.372 11.85 11.85 0 0 0-.287-.527c.191-.133.391-.26.598-.388.24.487.545.982.919 1.397l.004.005.057.062c1.206 1.307 2.93 3.175 5.087 4.174 1.103.511 2.465.826 3.527 1.012a24.504 24.504 0 0 0 1.737.24l.108.011.029.002.008.001h.002l.041-.498-.04.498 1.59.129.198.138.288-.409-.288.41h.001l.003.002.012.008.047.034.183.129c.158.113.388.276.67.48.567.406 1.347.972 2.203 1.61 1.718 1.279 3.72 2.828 4.918 3.951 1.07 1.004 1.161 2.076.997 2.917a4.206 4.206 0 0 1-.59 1.446l-.011.017-.001.001-.001.001-.004.005-.004.007-.001.001-.003.004-.01.016-.043.062a89.274 89.274 0 0 1-.777 1.117 98.723 98.723 0 0 1-2.03 2.77l-.027.027-.02.02-.016.02a123.885 123.885 0 0 1-3.124 3.723l-.05.057-.013.015-.003.004h-.001l-.008.01-.001.001-.004.005a2.649 2.649 0 0 1-.14.144c-.105.098-.261.232-.462.366l-.009.006-.008.006c-.42.306-1.144.463-2.176.414h-.024c-.116 0-.225.002-.328.004-.469.012-.823.02-1.239-.234-1.37-.873-3.358-2.432-5.018-3.787a159.7 159.7 0 0 1-2.731-2.281l-.17-.146-.044-.038-.012-.01-.002-.002h-.001l-.327.378.327-.379-.27-.232-.503-1.392-.47.17.47-.17-.001-.003-.003-.007-.01-.027a24.837 24.837 0 0 0-1.106-2.48l.12.198.428-.259-.428.26.002.003.007.01.023.04a59.564 59.564 0 0 0 .419.678 75.44 75.44 0 0 0 1.035 1.62c.39.59.805 1.195 1.164 1.665.179.234.35.444.504.604.077.08.157.156.237.219.07.055.183.135.325.17.21.053.422.007.569-.036a3.2 3.2 0 0 0 .503-.208c.338-.169.715-.403 1.058-.633a22.96 22.96 0 0 0 1.274-.922l.021-.017.006-.005h.002v-.001l-.309-.393m5.038-6.412.437.244-.001.002-.003.004-.009.016-.034.06-.13.223a31.205 31.205 0 0 1-2.105 3.117l-.019.024-.021.022-.03.03a28.18 28.18 0 0 1-1.866 2.127 31.251 31.251 0 0 1-.846.843l-.051.048-.014.013-.004.003v.001h-.001l-.34-.365m5.037-6.412.459.2-.01.022-.012.022-.437-.244Zm-5.038 6.412.34.366-.014.014-.017.013-.309-.393Zm4.877-12.44-.239.358-.904-.7.3.23.31-.347.967-1.089c.059.041.1.08.124.112a.132.132 0 0 1 .018.03c-.025.277-.152.612-.298.91a5.257 5.257 0 0 1-.258.465l-.017.025-.003.006ZM13.886 25.973c-.028 0-.1-.017-.219-.113l.839-1.197.21-.3.632.48-.242.26h-.001l-.005.005-.021.021a5.24 5.24 0 0 1-.396.36c-.258.212-.549.405-.797.484Zm17.709-3.497.012.01.013.01c.774.54 1.884.265 2.472-.573.605-.795.65-1.94-.097-2.522l-.01-.008-.01-.007c-.806-.564-1.852-.172-2.452.548-.624.748-.727 1.903.072 2.542Zm-6.82 8.702c.813.65 1.881.24 2.478-.477.624-.749.727-1.904-.072-2.543-.812-.65-1.88-.239-2.477.478-.624.748-.727 1.904.072 2.542Z" fill="currentColor" stroke="currentColor"/><path d="m33.028 37.658.495-.069v-.002l-.001-.007-.004-.027a32.44 32.44 0 0 0-.07-.444 21.902 21.902 0 0 0-.205-1.079c-.088-.4-.197-.825-.324-1.181a3.292 3.292 0 0 0-.22-.5 1.167 1.167 0 0 0-.37-.42v-.001l-.01-.007a.855.855 0 0 0-.359-.107 2.23 2.23 0 0 0-.318-.003 7.481 7.481 0 0 0-.774.091c-.58.094-1.295.246-1.986.406-.655.152-1.295.312-1.787.438a23.937 23.937 0 0 0 1.442-.645l.026-.013.007-.004h.002l-.226-.447.227.446 1.337-.681-.99-.172.072-.426.243-1.46c.08.003.14.016.176.03a.108.108 0 0 1 .025.014l.01.016.01.017c.134.2.214.532.25.87a4.448 4.448 0 0 1 .024.524v.037l-.023.496.496.025.026-.499-.026.5h.019l.058.003.222.013a156.355 156.355 0 0 1 3.535.243c2.133.172 4.65.425 6.272.75 1.451.29 2.123 1.174 2.451 2.002a4.465 4.465 0 0 1 .303 1.584v.029l-.002.02-.003.075-.015.294c-.014.254-.034.621-.063 1.071-.057.9-.145 2.128-.272 3.444l-.002.024v.047a84.46 84.46 0 0 1-.687 4.776l-.013.074-.004.019v.005l-.002.009-.001.006v.004l-.004.02-.018.09a4.345 4.345 0 0 1-.577 1.388c-.476.735-1.296 1.454-2.767 1.432-1.647-.025-4.166-.301-6.292-.575a163.59 163.59 0 0 1-3.74-.527l-.057-.009-.014-.002h-.004l-.078.493.077-.493-.232-.037-1.269-.984-.306.395.306-.395-.003-.002-.006-.005-.023-.017-.086-.066a25.098 25.098 0 0 0-1.44-.993c-.908-.579-2.12-1.268-3.275-1.644-2.285-.744-4.81-.533-6.623-.382l-.037.003c-1.02.085-2.023.532-2.745.933a11.152 11.152 0 0 0-1.21.78l-.019.014-.005.004-.002.002.308.394-.309-.394-.99.776 1.253.116 2.751.254-3.17-.283-.022-.002h-.115l-.269-.006a24.175 24.175 0 0 1-.77-.034 27.413 27.413 0 0 1-1.24-1.078c.518-.002 1.124-.07 1.782-.177.48-.062 1.091-.29 1.546-.479a15.784 15.784 0 0 0 .777-.35l.05-.024.013-.007.004-.001v-.001h.001l-.223-.447.223.447.01-.005.01-.005c.48-.267.92-.568 1.254-.866.166-.149.317-.306.432-.467.108-.149.21-.334.242-.544.06-.293.175-1.27.272-2.15a166.912 166.912 0 0 0 .176-1.678v-.006c.009-.083.018-.18.018-.222v-.188a3.595 3.595 0 0 1 .014-.144 100.288 100.288 0 0 1 .081-.726c.032-.284.069-.61.105-.942.051-.462.103-.936.141-1.325.037-.374.066-.703.066-.848a.58.58 0 0 0-.11-.333.867.867 0 0 0-.125-.14 2.151 2.151 0 0 0-.267-.2 9.076 9.076 0 0 0-.774-.44c-.621-.32-1.444-.698-2.273-1.036-.825-.337-1.674-.644-2.342-.819a4.27 4.27 0 0 0-.902-.154 1.194 1.194 0 0 0-.42.053.668.668 0 0 0-.425.41 6.8 6.8 0 0 0-.205.853c-.073.375-.154.838-.237 1.343a241.534 241.534 0 0 0-.497 3.185l-.006.038v.077c-.03.6-.08 1.426-.132 2.307-.034.576-.07 1.175-.102 1.748a150.498 150.498 0 0 0-.115 2.278 26.295 26.295 0 0 1-2.568-3.459c.003-.215.013-.424.024-.622l.004-.08c.011-.207.022-.41.022-.582 0-.051.01-.19.024-.36l.004-.054a9.32 9.32 0 0 0 .022-.306 84.54 84.54 0 0 1 .754-4.454c.164-.812.34-1.57.515-2.168.088-.3.173-.55.254-.742.086-.205.15-.3.175-.328l.008-.009c.264-.296.678-.418 1.339-.436a14.604 14.604 0 0 1 1.064.024c.381.016.793.033 1.21.02.754-.024 1.542.037 2.147.105.185.021.352.043.495.063l.626.727.38-.326-.38.326.001.001.002.002.004.005.016.018.058.064a11.554 11.554 0 0 0 .979.944c.628.537 1.52 1.176 2.486 1.46 1.722.507 4.205 1.2 6.608.934.836-.093 1.723-.33 2.522-.598l-.021.203-.56 5.496-.002.025v.15l-.608 5.469-.038.34.304.159.231-.444-.231.444.004.002.01.005.041.021a58.474 58.474 0 0 0 .708.361c.46.232 1.082.54 1.723.841.64.3 1.308.6 1.86.811.274.106.531.194.748.25.107.027.216.05.319.06.09.01.23.016.37-.03.204-.068.36-.217.462-.333.113-.128.22-.283.319-.443.197-.323.392-.72.56-1.097a22.228 22.228 0 0 0 .588-1.452l.01-.026.002-.006v-.002l-.47-.17m.865-8.192.5-.025v.027l.004.072.008.27c.007.23.013.56.013.953 0 .78-.025 1.817-.127 2.85v.101l-.002.024c-.105 1.07-.3 2.085-.468 2.829a24.693 24.693 0 0 1-.288 1.143l-.019.067-.005.017-.001.005v.002l-.48-.142m.865-8.193.495-.069.003.022.001.022-.5.025Zm-.865 8.193.479.142-.004.013-.004.013-.471-.168Zm-4.849 5.643a.55.55 0 0 1-.177-.002l.08-1.44.024-.444.792.073-.076.401v.001l-.002.006-.006.029a4.862 4.862 0 0 1-.14.502c-.108.32-.26.647-.444.849l-.006.007c-.001.001-.007.01-.045.018Zm-1.003-16.025-.105-.383.105.383Zm13.036 14.646c.98.082 1.69-.793 1.81-1.76.124-.991-.432-2.004-1.421-2.086-.978-.082-1.688.792-1.81 1.757-.065.496.049.983.29 1.363.242.379.635.685 1.131.726Zm1.171-11.094c.951.08 1.74-.758 1.812-1.773a2.05 2.05 0 0 0-.293-1.347c-.24-.379-.634-.685-1.13-.726-.494-.041-.927.188-1.232.51a2.253 2.253 0 0 0-.578 1.245c-.066.497.048.984.29 1.365.241.379.635.685 1.131.726Z" fill="currentColor" stroke="currentColor"/></svg>