<svg width="58" height="40" viewBox="0 0 58 40" fill="none" xmlns="http://www.w3.org/2000/svg"><path d="M17.368 38.889a3.61 3.61 0 0 1-3.612-3.612 3.61 3.61 0 0 1 3.612-3.612 3.61 3.61 0 0 1 3.612 3.612 3.61 3.61 0 0 1-3.612 3.612Zm0-6.385c-1.536 0-2.664 1.269-2.664 2.665 0 1.536 1.268 2.664 2.664 2.664 1.537 0 2.664-1.268 2.664-2.664 0-1.413-1.252-2.665-2.664-2.665Z" fill="currentColor" stroke="currentColor"/><path d="M11.23 35.186a9.444 9.444 0 0 0-.04.565H4.23c-1.62-2.692-2.664-5.657-3.211-8.901H10.34l-.71-.826-.38.326.38-.326v-.001l-.002-.002-.007-.007-.023-.028a20.504 20.504 0 0 0-.426-.475 35.445 35.445 0 0 0-1.165-1.214c-.935-.928-2.173-2.046-3.313-2.704C3.376 20.761 1.75 20.288.79 20.01l-.276-.08c.01-.13.023-.258.037-.39l.003-.025.026-.251c2.718.313 5.814 1.944 8.33 3.596a45.775 45.775 0 0 1 4.22 3.144 26.183 26.183 0 0 1 .314.27l.016.014.004.003.143.127H18.5a8.21 8.21 0 0 0 .628.1c.2.03.429.062.681.103.618.1 1.364.244 2.116.478l.011.003.011.003c1.221.319 2.563.787 3.525 1.391.28.205.54.416.75.621.198.191.334.36.412.496l.242 1.017v1.687c-.395.967-1.287 1.446-2.188 1.679a6.265 6.265 0 0 1-1.27.185 5.645 5.645 0 0 0-.67-2.203 4.859 4.859 0 0 0-1.866-1.884c-.898-.512-2.079-.835-3.624-.835-1.572 0-2.767.435-3.661 1.117-.89.677-1.449 1.572-1.8 2.442a8.77 8.77 0 0 0-.568 2.369Z" fill="currentColor" stroke="currentColor"/><path d="m21.883 26.966.163.122.202-.026 2.822-.37.245 1.471.058.35.35.06.897.157.153.88.035.332-2.656-.548-3.862-2.296-.88-1.021.772-.386 1.7 1.275ZM36.804 35.277a3.61 3.61 0 0 1 3.611-3.612 3.61 3.61 0 0 1 3.613 3.612 3.61 3.61 0 0 1-3.612 3.612 3.61 3.61 0 0 1-3.612-3.612Zm.947 0c0 1.536 1.269 2.664 2.665 2.664 1.536 0 2.664-1.268 2.664-2.664 0-1.528-1.254-2.652-2.64-2.664-1.466-.125-2.689 1.18-2.689 2.664Z" fill="currentColor" stroke="currentColor"/><path d="m48.258 26.081-.693.822h9.513a30.432 30.432 0 0 1-3.213 8.901h-7.217a9.363 9.363 0 0 0-.04-.564 8.763 8.763 0 0 0-.568-2.37c-.352-.869-.91-1.764-1.8-2.441-.895-.682-2.09-1.117-3.662-1.117-1.557 0-2.745.322-3.645.835a4.81 4.81 0 0 0-1.865 1.886 5.565 5.565 0 0 0-.654 2.2 6.271 6.271 0 0 1-1.265-.185c-.901-.233-1.794-.712-2.188-1.678v-1.723l.096-1.006c.267-.448.656-.789 1.197-1.06l.03-.014.028-.02c.95-.65 2.23-1.066 3.518-1.388l.008-.002a25.054 25.054 0 0 1 2.161-.464c.2-.035.39-.066.566-.095.3-.05.553-.091.718-.127h4.89l.141-.122.001-.001.004-.003.016-.014.03-.026a48.123 48.123 0 0 1 4.633-3.41c2.59-1.67 5.756-3.309 8.466-3.587.022.21.03.409.034.62-.973.2-2.826.713-4.412 1.72-1.113.659-2.325 1.778-3.24 2.707a35.536 35.536 0 0 0-1.557 1.689l-.023.027-.006.007-.002.002v.001l.382.322-.383-.322Z" fill="currentColor" stroke="currentColor"/><path d="m35.479 27.061.203.028.164-.123 1.707-1.28.839.392-.947 1.017-3.761 2.299-2.687.537.06-.286.007-.03.003-.03.074-.86.866-.151.33-.058.072-.326.333-1.5 2.737.371ZM24.766 17.95h-2.679V13.42c0-4.972 4.05-9.023 9.023-9.023h1.34v2.68h-1.34c-3.526 0-6.344 2.877-6.344 6.343v4.531ZM32.855 1.048l5.795 4.689-5.795 4.733V1.048Z" fill="currentColor" stroke="currentColor"/></svg>