<svg width="58" height="36" viewBox="0 0 58 36" fill="none" xmlns="http://www.w3.org/2000/svg"><path d="M17.352 34.9a3.592 3.592 0 0 1-3.624-3.623 3.592 3.592 0 0 1 3.624-3.624 3.592 3.592 0 0 1 3.623 3.623 3.592 3.592 0 0 1-3.623 3.624Zm0-6.373c-1.508 0-2.696 1.241-2.696 2.642 0 1.532 1.266 2.643 2.696 2.643 1.508 0 2.695-1.242 2.695-2.643 0-.721-.34-1.38-.828-1.852-.487-.47-1.156-.79-1.867-.79Z" fill="currentColor" stroke="currentColor"/><path d="M11.167 31.23a9.309 9.309 0 0 0-.041.563h-6.99c-1.606-2.668-2.684-5.65-3.23-8.907h9.436l-.695-.823-.382.323.382-.323v-.001l-.002-.002-.007-.007-.023-.028-.09-.104a33.524 33.524 0 0 0-1.493-1.596c-.933-.933-2.173-2.055-3.33-2.707-1.455-.918-3.229-1.414-4.186-1.666.009-.122.021-.242.035-.37v-.007c.01-.098.022-.2.03-.306 2.716.313 5.816 1.938 8.337 3.585a46.052 46.052 0 0 1 4.232 3.137 26.15 26.15 0 0 1 .316.27l.016.013.003.004h.001l.142.126H18.531c.139.027.318.053.512.08l.086.013c.21.03.452.064.72.108.611.098 1.351.241 2.126.474l.008.002.01.003c1.207.315 2.524.776 3.467 1.416l.04.033c.277.226.523.427.733.626.202.19.351.36.45.521l.237.995v1.67c-.39.981-1.286 1.467-2.19 1.704-.458.12-.893.168-1.216.186l-.06.003a5.625 5.625 0 0 0-.678-2.206c-.784-1.4-2.39-2.719-5.531-2.719-1.583 0-2.786.434-3.688 1.113-.896.676-1.46 1.57-1.816 2.438a8.686 8.686 0 0 0-.574 2.365Z" fill="currentColor" stroke="currentColor"/><path d="m21.811 22.995.168.13.21-.03 2.837-.412.24 1.445.059.35.35.06.884.155.154.885.002.008.074.393-2.613-.531-3.875-2.325-.918-1.06.749-.374 1.679 1.306ZM36.864 31.329a3.592 3.592 0 0 1 3.624-3.624 3.592 3.592 0 0 1 3.624 3.624 3.592 3.592 0 0 1-3.618 3.623c-2.04-.05-3.63-1.658-3.63-3.623Zm.928 0c0 1.532 1.266 2.642 2.696 2.642 1.508 0 2.696-1.241 2.696-2.642 0-1.52-1.246-2.625-2.662-2.642-1.52-.186-2.73 1.126-2.73 2.642Z" fill="currentColor" stroke="currentColor"/><path d="m48.302 22.06-.71.826h9.544c-.595 3.17-1.712 6.235-3.228 8.907h-7.194c-.007-.16-.02-.35-.041-.564a8.69 8.69 0 0 0-.575-2.365c-.355-.869-.92-1.762-1.816-2.438-.902-.68-2.105-1.113-3.688-1.113-3.141 0-4.747 1.32-5.53 2.72a5.625 5.625 0 0 0-.678 2.205l-.06-.003a6.25 6.25 0 0 1-1.216-.186c-.904-.237-1.8-.723-2.19-1.703V26.64l.094-.994c.262-.44.65-.784 1.249-1.106l.023-.013.022-.015c.942-.645 2.254-1.053 3.504-1.434a16.581 16.581 0 0 1 2.143-.473c.25-.04.474-.072.671-.1l.14-.02c.186-.027.36-.053.493-.081h4.897l.141-.124h.001l.004-.004.016-.014.066-.056.258-.217a46.88 46.88 0 0 1 4.33-3.173c2.59-1.672 5.763-3.307 8.492-3.56.023.22.031.429.034.662-.967.2-2.812.707-4.468 1.7l-.008.005-.007.005c-1.04.675-2.225 1.794-3.131 2.72a42.845 42.845 0 0 0-1.55 1.675l-.023.027-.007.007-.001.002.378.327-.379-.326Z" fill="currentColor" stroke="currentColor"/><path d="m35.593 23.095.212.032.17-.132 1.686-1.312.814.382-.985 1.055-3.775 2.328-2.683.528.088-.368.008-.036.004-.036.073-.849.853-.148.32-.056.08-.316.371-1.487 2.764.415ZM21.368 1.856h-.876l.446.755 7.658 12.96.43.729.431-.729 7.658-12.96.446-.755H21.368ZM39.985.5 29.028 18.994 18.12.5h21.865Z" fill="currentColor" stroke="currentColor"/></svg>