<svg width="52" height="41" viewBox="0 0 52 41" fill="none" xmlns="http://www.w3.org/2000/svg"><path d="M37.921 18.365h-6.196c-.12 0-.244-.123-.244-.244s.124-.244.244-.244h6.147c.12 0 .243.123.243.244 0 .11-.035.168-.06.195-.025.026-.065.05-.134.05ZM17.796 8.842l.45-.22h-.001v-.003l-.004-.006-.011-.023-.044-.086a24.948 24.948 0 0 0-.677-1.249 10.238 10.238 0 0 0-.654-.998 3.257 3.257 0 0 0-.35-.397 1.113 1.113 0 0 0-.471-.282.859.859 0 0 0-.373.001c-.1.02-.203.052-.305.089a6.907 6.907 0 0 0-.7.312c-.514.257-1.134.61-1.726.962a71.271 71.271 0 0 0-2.062 1.28 23.324 23.324 0 0 0 1.649-1.427l.02-.02.005-.005.002-.001-.35-.358.35.357 1.127-1.102.236-.062-.126-.483.126.483h.004l.014-.004.054-.014a95.89 95.89 0 0 1 .988-.25c.658-.162 1.569-.383 2.582-.615 2.033-.465 4.448-.967 6.05-1.138h.001c1.405-.151 2.265.463 2.798 1.125a4.253 4.253 0 0 1 .724 1.362l.005.019v.001h.001v.001l.001.005.002.005.005.019.02.072.074.28c.063.243.154.593.262 1.022.213.847.492 1.999.76 3.237v.045l.01.048a88.118 88.118 0 0 1 .774 4.634l.01.074.003.019v.005l.001.008.001.006v.004l.004.02.01.089a4.242 4.242 0 0 1-.12 1.459c-.22.821-.762 1.727-2.122 2.137-1.53.462-3.945.942-5.998 1.308a154.563 154.563 0 0 1-3.623.6l-.056.009-.014.002h-.004l.073.495-.073-.494-.285.042-1.348-.511-.177.467.177-.467-.003-.002-.007-.002-.026-.01a13.678 13.678 0 0 0-.466-.163c-.311-.105-.75-.245-1.26-.384-1.01-.277-2.338-.564-3.521-.564-2.345 0-4.663.936-6.293 1.628-.913.388-1.713 1.104-2.269 1.692a11.35 11.35 0 0 0-.755.888c-.04-.149-.076-.297-.11-.446l-.002-.007a19.17 19.17 0 0 0 1.012-.873l.024-.022.006-.006.002-.002-.34-.367.34.366.014-.012.012-.013c.369-.395.679-.812.894-1.193.107-.19.196-.382.255-.564.056-.175.097-.377.072-.577-.029-.258-.221-1.217-.397-2.082l-.093-.462a373.82 373.82 0 0 1-.229-1.138 6.787 6.787 0 0 1-.02-.111v-.031l-.016-.06-.042-.167a.563.563 0 0 0-.944-4.114.719.719 0 0 0-.172-.13 1.678 1.678 0 0 0-.29-.118 5.865 5.865 0 0 0-.267-.078c.052-.232.104-.452.157-.667.352.067.705.09 1.024.09 1.738 0 4.265-.095 6.406-1.088.746-.346 1.501-.839 2.164-1.328l.062.285 1.129 5.207V14.25l.01.048 1.04 5.26.067.334.335.06.089-.492-.089.492H13l.003.001.012.002.044.008a45.555 45.555 0 0 0 .768.132c.499.082 1.17.189 1.858.283.685.093 1.398.176 1.975.21.287.016.554.022.774.008.109-.007.22-.02.32-.043.09-.02.227-.06.347-.157.162-.13.258-.315.317-.455.065-.155.117-.333.16-.515.085-.364.147-.797.191-1.201a22.776 22.776 0 0 0 .113-1.54l.001-.026V16.649l-.5-.017m-1.586-7.79.466-.181.001.002.002.004.006.017.024.063.087.236c.072.203.173.494.287.847.227.706.505 1.668.708 2.685l.01.048v.1a32.092 32.092 0 0 1 .49 3.851l.004.068v.023h.001v.001l-.5.026m-1.586-7.79.45-.22.009.019.007.02-.466.181Zm1.587 7.79.499-.025.001.02v.022l-.5-.017Zm-2.784 6.586c-.007.006-.042.034-.152.053l-.348-1.355-.092-.359.65-.143.05.35v.006l.004.027a4.636 4.636 0 0 1 .028.504c0 .32-.036.666-.14.917ZM2.331 16.282c0-.007 0-.006 0 0Zm8.575-7.49-.26-.398.26.398Zm2.505-3.147-.757.158-.063-.453-.193-1.391a.582.582 0 0 1 .195-.015l.009.008c.193.176.37.481.505.788a4.866 4.866 0 0 1 .183.484l.008.028.002.006.11.387Zm-1.329-1.571h.001ZM23.88 7.495l.301-.377-.301.377c.333.267.77.428 1.234.351.51-.08.879-.414 1.085-.818.204-.401.263-.89.169-1.361a2.09 2.09 0 0 0-.698-1.193c-.342-.284-.808-.457-1.295-.337-.663.15-1.136.72-1.22 1.43-.068.247-.054.522.007.765l.002.008.002.008c.118.414.361.864.714 1.147Zm1.458 9.433c.187.939 1.034 1.69 1.96 1.536.971-.162 1.437-1.216 1.2-2.19-.193-.934-1.037-1.68-1.96-1.525-.495.082-.848.429-1.041.825a2.151 2.151 0 0 0-.16 1.354Z" fill="currentColor" stroke="currentColor"/><mask id="a" fill="currentColor"><path d="m25.53 1.498.297-1.24c.05-.149.198-.298.397-.248.148.05.297.198.247.397l-.297 1.24c-.05.149-.198.298-.397.248-.148-.05-.248-.198-.248-.397Z"/></mask><path d="m25.53 1.498.297-1.24c.05-.149.198-.298.397-.248.148.05.297.198.247.397l-.297 1.24c-.05.149-.198.298-.397.248-.148-.05-.248-.198-.248-.397Z" fill="currentColor"/><path d="m25.53 1.498-.973-.233-.027.115v.118h1Zm.297-1.24-.949-.316-.013.04-.01.043.972.233Zm.397-.248.316-.949-.036-.012-.038-.01-.242.97Zm.247.397-.97-.243-.002.01.972.233Zm-.297 1.24.949.316.013-.04.01-.043-.972-.233Zm-.397.248-.316.949.036.012.038.01.242-.97Zm.725-.164.297-1.24-1.944-.466-.298 1.24 1.945.466Zm.274-1.157a.59.59 0 0 1-.218.294.703.703 0 0 1-.577.112l.485-1.94c-.913-.229-1.45.49-1.588.902l1.898.632Zm-.869.384a.592.592 0 0 1-.294-.218.703.703 0 0 1-.112-.576l1.94.485c.228-.912-.489-1.45-.901-1.588L25.907.958ZM25.5.174l-.297 1.24 1.944.466.298-1.24-1.945-.466Zm-.274 1.157a.591.591 0 0 1 .218-.294.704.704 0 0 1 .577-.112l-.485 1.94c.913.229 1.45-.49 1.588-.902l-1.898-.632Zm.869-.384a.661.661 0 0 1 .348.27.533.533 0 0 1 .087.281h-2c0 .53.288 1.131.932 1.346l.633-1.897Z" fill="currentColor" mask="url(#a)"/><mask id="b" fill="currentColor"><path d="M26.67 2.193c0-.05.049-.099.098-.149l.843-.843c.1-.149.347-.149.446 0 .149.099.149.347 0 .446l-.843.844c-.099.149-.347.149-.446 0-.099-.1-.149-.199-.099-.298Z"/></mask><path d="M26.67 2.193c0-.05.049-.099.098-.149l.843-.843c.1-.149.347-.149.446 0 .149.099.149.347 0 .446l-.843.844c-.099.149-.347.149-.446 0-.099-.1-.149-.199-.099-.298Z" fill="currentColor"/><path d="m26.67 2.193.894.447.105-.21v-.237h-1Zm.098-.149-.707-.706.707.706Zm.843-.843.707.707.07-.07.055-.083-.832-.554Zm.446 0-.832.554.11.167.167.11.555-.831Zm0 .446-.555-.831-.082.055-.07.07.707.706Zm-.843.844-.707-.707-.07.07-.055.083.832.554Zm-.446 0 .832-.554-.054-.083-.07-.07-.708.707Zm.901-.298a.907.907 0 0 1-.169.525c-.032.044-.062.071-.024.033L26.06 1.338c-.012.011-.092.088-.161.181-.062.082-.23.323-.23.674h2Zm-.193.558.842-.843L26.903.494l-.842.844 1.415 1.413Zm.967-.996a.736.736 0 0 1-.609.334.736.736 0 0 1-.61-.334L28.89.646A1.264 1.264 0 0 0 27.834.09c-.352 0-.785.152-1.055.557l1.664 1.11Zm-.94.278a.735.735 0 0 1-.334-.609c0-.178.076-.437.333-.608l1.11 1.663c.406-.27.557-.703.557-1.055S29.018.64 28.612.37l-1.11 1.664ZM27.35.94l-.843.843 1.415 1.414.843-.844L27.35.941Zm-.968.996a.736.736 0 0 1 .61-.334c.178 0 .438.077.608.334l-1.664 1.108c.27.406.703.558 1.055.558.353 0 .785-.152 1.056-.558l-1.665-1.108Zm1.094-.153a.677.677 0 0 1 .124.207.824.824 0 0 1-.036.649l-1.79-.894a1.178 1.178 0 0 0-.047.947c.09.24.238.41.334.505l1.415-1.414Z" fill="currentColor" mask="url(#b)"/><mask id="c" fill="currentColor"><path d="M23.991.506c.05-.099.15-.198.249-.248.198-.05.347.1.397.248l.148.993c.05.198-.099.347-.248.397-.198.05-.347-.1-.397-.248l-.149-.993V.506Z"/></mask><path d="M23.991.506c.05-.099.15-.198.249-.248.198-.05.347.1.397.248l.148.993c.05.198-.099.347-.248.397-.198.05-.347-.1-.397-.248l-.149-.993V.506Z" fill="currentColor"/><path d="M23.991.506 23.098.06l-.106.211v.236h1Zm.249-.248-.243-.97-.107.027-.098.049.448.894Zm.397.248.988-.148-.012-.086-.028-.082-.948.316Zm.148.993-.989.148.008.048.011.046.97-.242Zm-.248.397.243.97.037-.01.037-.011-.317-.95Zm-.397-.248-.989.148.013.086.028.082.948-.316Zm-.149-.993h-1V.73l.012.074.988-.149Zm.895.299a.442.442 0 0 1-.082.117.44.44 0 0 1-.117.082l-.895-1.789a1.596 1.596 0 0 0-.695.695l1.789.895Zm-.404.275a.703.703 0 0 1-.576-.112.591.591 0 0 1-.218-.294L25.585.19c-.137-.411-.675-1.13-1.588-.902l.485 1.94Zm-.834-.574.148.992 1.978-.296-.149-.993-1.977.297Zm.167 1.086a.703.703 0 0 1 .112-.576.591.591 0 0 1 .294-.218l.633 1.897c.411-.137 1.13-.675.902-1.588l-1.94.485Zm.48-.815a.703.703 0 0 1 .576.111c.12.088.185.196.218.294l-1.897.633c.137.412.675 1.13 1.588.902l-.485-1.94Zm.834.573L24.98.507l-1.977.297.148.992L25.13 1.5Zm-.138-.844V.506h-2V.656h2Z" fill="currentColor" mask="url(#c)"/><path d="m37.573 24.532.349-.359-.349.359h.001l.002.002.004.005.017.016a5.775 5.775 0 0 0 .29.259c.195.166.472.39.807.625.658.46 1.583.992 2.556 1.16 1.733.347 4.202.766 6.494.246.768-.16 1.58-.463 2.318-.795v1.494a26.24 26.24 0 0 1-6.456 9.05c-.899.1-1.747.243-2.501.385-.975.168-1.901.701-2.56 1.162a10.708 10.708 0 0 0-1.096.883l-.017.016-.005.005-.002.002.348.36-.349-.36-.816.793a14.507 14.507 0 0 1-2.39-.087 13.63 13.63 0 0 0-1.183-.087l-.1-.004c-.339-.014-.646-.026-.932-.058-.63-.07-1.02-.221-1.264-.545a1.157 1.157 0 0 1-.117-.277 5.742 5.742 0 0 1-.15-.608 20.815 20.815 0 0 1-.251-1.743 74.512 74.512 0 0 1-.276-3.54V32.174c.05-1.017.148-2.773.307-4.373.08-.804.175-1.559.284-2.157.055-.3.112-.55.17-.745.062-.208.112-.302.13-.327.248-.33.646-.491 1.276-.573.304-.04.635-.057 1.001-.077l.027-.002c.37-.02.772-.042 1.177-.095.734-.094 1.5-.107 2.089-.095l.353.01.814.792Zm12.99 1.725-.149-.37.148.37Zm-9.91 1.39v-.032l-.005-.03a.58.58 0 0 0-.142-.31.875.875 0 0 0-.136-.123 2.175 2.175 0 0 0-.28-.171 9.007 9.007 0 0 0-.798-.358 29.491 29.491 0 0 0-2.31-.801c-.835-.254-1.69-.476-2.36-.588a4.32 4.32 0 0 0-.894-.074c-.124.007-.27.026-.405.084a.665.665 0 0 0-.396.438l-.005.02-.003.02c-.1.55-.6 3.7-.702 5.519v.014c-.026.96.127 2.546.294 3.931.168 1.394.355 2.633.407 2.92l.001.003c.063.335.247.602.528.776.261.162.575.225.889.239.622.029 1.43-.127 2.329-.377.431-.115.995-.388 1.42-.61a19.172 19.172 0 0 0 .723-.398l.045-.026.013-.008.003-.002h.001l-.255-.43.256.43.017-.01.016-.012a6.52 6.52 0 0 0 1.129-.997c.145-.166.27-.335.367-.5a1.45 1.45 0 0 0 .199-.537c.016-.132.026-.45.032-.81.007-.377.012-.842.015-1.295.006-.907.006-1.777.006-1.827V27.646ZM50.959 18.365h-6.147c-.12 0-.244-.123-.244-.244s.124-.244.244-.244h6.147c.12 0 .243.123.243.244a.234.234 0 0 1-.068.178.252.252 0 0 1-.175.066Z" fill="currentColor" stroke="currentColor"/></svg>