<svg width="41" height="52" viewBox="0 0 41 52" fill="none" xmlns="http://www.w3.org/2000/svg"><path d="m29.654 26.304.487-.111v-.003l-.002-.007-.006-.027a21.66 21.66 0 0 0-.425-1.546c-.128-.404-.28-.834-.447-1.19a3.319 3.319 0 0 0-.28-.494 1.199 1.199 0 0 0-.423-.393.915.915 0 0 0-.375-.086 2.223 2.223 0 0 0-.342.018 6.996 6.996 0 0 0-.809.16c-.598.148-1.325.374-2.021.606a69.492 69.492 0 0 0-2.285.81 23.6 23.6 0 0 0 1.99-1.092l.025-.015.007-.005.002-.001-.267-.423.268.422 1.425-.904-1.688-.018-15.407-.158-1.28-.013.932.877.343-.364-.343.364.002.002.005.005.018.017a7.3 7.3 0 0 0 .307.266c.206.171.5.403.855.648.7.482 1.676 1.042 2.698 1.246 1.847.37 4.47.813 6.9.316.823-.168 1.685-.484 2.462-.825l-.002.278-.053 5.699v.158l-.105 5.694-.007.342.318.13.189-.463-.19.463h.002l.003.002.011.004.044.018a72.767 72.767 0 0 0 .765.304c.497.195 1.168.452 1.86.702.69.248 1.408.492 2 .658.294.083.569.15.798.186.114.018.229.031.335.033a.931.931 0 0 0 .368-.062l.016-.006.015-.008c.187-.093.326-.253.423-.386.105-.143.202-.314.29-.49.178-.355.344-.783.485-1.187a22.6 22.6 0 0 0 .477-1.544l.007-.027.002-.007v-.003l-.483-.127m.106-8.443.494-.077v.007l.004.018.01.071.036.264c.03.227.068.55.105.944.071.754.136 1.766.117 2.829l.053.106-.003.124a29.347 29.347 0 0 1-.235 2.947 31.057 31.057 0 0 1-.178 1.204l-.012.07-.004.02v.006h-.001l-.492-.09m.106-8.443.487-.11.004.016.003.016-.494.078Zm-.106 8.443.492.09-.003.019-.005.018-.484-.127Zm10.476-9.22V25.542l.001.02.003.08a67.025 67.025 0 0 1 .042 1.432c.02.94.032 2.212.006 3.548v.058a82.453 82.453 0 0 1-.253 4.974l-.006.079-.002.02v.005l-.002.012V35.782l-.002.021-.009.095a4.374 4.374 0 0 1-.448 1.475c-.412.795-1.186 1.613-2.72 1.73-1.71.129-4.335.078-6.552-.008a166.068 166.068 0 0 1-3.903-.199l-.06-.004H26.1l-.034.498.033-.499-.485-.032-.005.051-1.116-.73-.274.419c.274-.419.274-.419.273-.42h-.002l-.007-.005-.025-.017a20.33 20.33 0 0 0-.446-.276c-.3-.18-.724-.425-1.222-.688-.988-.52-2.3-1.125-3.526-1.404-2.431-.552-5.053-.163-6.91.209-1.022.204-1.999.764-2.698 1.246a11.965 11.965 0 0 0-1.162.914l-.017.017-.005.004-.002.002.342.365-.343-.364-.795.748c-.126.005-.268.01-.423.013-.624.013-1.438 0-2.22-.1-.432-.07-.86-.1-1.255-.124l-.193-.012c-.33-.02-.629-.037-.911-.07-.677-.082-1.105-.244-1.373-.6a1.24 1.24 0 0 1-.129-.303 6.062 6.062 0 0 1-.16-.65 21.342 21.342 0 0 1-.262-1.855A55.392 55.392 0 0 1 .5 31.468V30.702l.008-.107c.08-1.122.208-2.924.391-4.565.095-.852.204-1.652.327-2.286.06-.317.124-.584.188-.79.067-.221.122-.327.147-.36.268-.357.695-.52 1.37-.594.305-.034.633-.048.994-.063l.106-.004c.396-.016.824-.037 1.257-.093.783-.1 1.6-.114 2.227-.101a18.875 18.875 0 0 1 .97.045l.054.004.013.001h.003l.021.002h.021l16.04.106.477.003.026-.475.084-1.508a.592.592 0 0 1 .184.016.156.156 0 0 1 .039.016.025.025 0 0 1 .008.007c.168.224.282.58.351.93a4.795 4.795 0 0 1 .075.549l.002.03v.008l.022.495.496-.018-.019-.5.019.5h.005l.015-.001.06-.002.23-.008.852-.025c.72-.019 1.716-.04 2.82-.05 2.218-.02 4.843.007 6.552.189 1.504.162 2.258 1.01 2.657 1.837a4.609 4.609 0 0 1 .43 1.613l.002.022v.003ZM25.039 40.855a.576.576 0 0 1-.173.017l-.042-1.495-.007-.275.774.002-.023.239v.007l-.004.03a4.967 4.967 0 0 1-.096.527c-.081.337-.207.692-.383.925a.025.025 0 0 1-.007.007.155.155 0 0 1-.04.016Zm-2.561-16.185-.166-.432.166.432ZM7.623 37.815l.007-.002c.425-.122 1.02-.408 1.477-.654.235-.125.448-.248.604-.346.075-.048.148-.096.204-.14a.856.856 0 0 0 .092-.081c.449-.3.837-.637 1.13-.965.155-.173.288-.35.39-.523.098-.167.183-.36.208-.56.03-.244.057-1.286.076-2.227.02-.962.033-1.89.033-1.95v-.225l.001-.038.002-.129.006-.433.018-1.298c.013-.954.026-1.962.026-2.203v-.032l-.004-.03a.586.586 0 0 0-.144-.312.9.9 0 0 0-.14-.127 2.28 2.28 0 0 0-.294-.18 9.6 9.6 0 0 0-.844-.378 31.53 31.53 0 0 0-2.45-.851c-.886-.27-1.79-.506-2.492-.624a4.47 4.47 0 0 0-.934-.079c-.127.008-.279.028-.419.09a.66.66 0 0 0-.392.472L3.782 24c-.059.322-.14 1.225-.218 2.268-.08 1.059-.159 2.303-.212 3.336v.104c.041.799.082 1.999.124 3.205l.034 1.008c.027.752.053 1.46.08 2.018.025.537.053.981.086 1.167l.001.003c.064.34.244.616.527.804.265.176.589.252.919.275.655.046 1.514-.106 2.5-.372ZM39.281 24.91l.001-.016v-.015c0-.504-.167-.982-.449-1.343-.28-.36-.705-.635-1.212-.635-1.058 0-1.713 1.017-1.713 1.978 0 .523.163 1.014.445 1.384.282.37.707.646 1.215.646.51 0 .932-.276 1.218-.64a2.46 2.46 0 0 0 .495-1.36Zm-3.584 11.471c0 .524.162 1.014.445 1.385.282.37.707.646 1.215.646 1.048 0 1.714-.952 1.714-1.978 0-.523-.163-1.014-.445-1.385-.282-.37-.708-.645-1.216-.645-.982 0-1.713.936-1.713 1.977ZM13.085 41.447l.022.5h.007l.02-.002.081-.003a100.726 100.726 0 0 1 1.441-.048c.947-.026 2.235-.052 3.6-.052h.048a82.453 82.453 0 0 1 4.974.252l.08.007.019.002h.006l.011.001h.011l.003.001.022.002.096.009a4.494 4.494 0 0 1 1.501.45c.81.413 1.637 1.187 1.754 2.717.097 1.363.103 3.287.06 5.128a27.411 27.411 0 0 1-7.688 1.089H17.947c-2.98-.1-5.82-.725-8.478-1.694.007-1.736.063-3.509.208-4.766v-.004c.162-1.508 1.002-2.261 1.813-2.658a4.486 4.486 0 0 1 1.586-.43l.021-.001H13.107l-.021-.5Zm12.951 3.155.002-.021v-.02c0-.983-.936-1.714-1.977-1.714-.511 0-1.003.143-1.379.42-.383.283-.652.713-.652 1.24 0 .983.937 1.714 1.978 1.714.963 0 1.947-.647 2.028-1.62Zm-15.561-.253c0 1.048.951 1.714 1.977 1.714.522 0 1.016-.163 1.383-.45.363-.283.63-.716.595-1.231-.012-1.036-.958-1.694-1.978-1.694-.503 0-.982.167-1.343.45-.36.28-.634.704-.634 1.211ZM10.09 16.095 19.073.84l8.985 15.255h-17.97Zm9.547-12.418-.033-.055-.044-.045a.612.612 0 0 0-.433-.186.612.612 0 0 0-.433.186l-.045.045-.032.055-6.207 10.52a.598.598 0 0 0-.066.572c.03.076.08.155.152.222.068.064.197.151.378.151h12.571l.105-.053a.808.808 0 0 0 .289-.226.55.55 0 0 0 .006-.664L19.637 3.677Z" fill="currentColor" stroke="currentColor"/><path d="m20.686 9.496-3.219 3.176-.166-.166L20.5 9.309l.187.187Z" fill="currentColor" stroke="currentColor"/><path d="m17.544 9.309 3.198 3.197-.166.166-3.22-3.176.188-.187Z" fill="currentColor" stroke="currentColor"/></svg>