<svg width="58" height="36" viewBox="0 0 58 36" fill="none" xmlns="http://www.w3.org/2000/svg"><path d="M16.206 34.766c-2.271 0-4.053-1.783-4.053-4.058 0-2.274 1.782-4.057 4.053-4.057s4.053 1.783 4.053 4.057a4.048 4.048 0 0 1-4.053 4.058Zm0-7.053c-1.708 0-2.885 1.386-2.885 2.887 0 1.708 1.384 2.887 2.885 2.887 1.708 0 2.885-1.386 2.885-2.887 0-1.524-1.362-2.887-2.885-2.887ZM37.684 30.763c0-2.274 1.782-4.058 4.053-4.058 2.272 0 4.054 1.784 4.054 4.058 0 2.273-1.78 4.055-4.048 4.058-2.283-.052-4.059-1.845-4.059-4.058Zm1.114 0c0 1.708 1.384 2.887 2.885 2.887 1.708 0 2.885-1.386 2.885-2.887 0-1.696-1.364-2.87-2.852-2.887-1.596-.187-2.918 1.253-2.918 2.887Z" fill="currentColor" stroke="currentColor"/><path d="M48.471 31.402a10.28 10.28 0 0 0-.045-.677 9.664 9.664 0 0 0-.62-2.617c-.386-.96-1-1.947-1.978-2.692-.983-.75-2.298-1.23-4.036-1.23-3.448 0-5.206 1.444-6.066 2.967a6.153 6.153 0 0 0-.756 2.476l-.117-.002a6.346 6.346 0 0 1-1.312-.164c-.971-.233-1.959-.75-2.41-1.872l.102-1.895.1-1.236c.345-.593.562-.935 1.143-1.226l.028-.014.026-.017c1.064-.71 2.511-1.182 3.918-1.56l.001-.001a24.288 24.288 0 0 1 2.39-.512c.27-.045.527-.084.754-.119.285-.044.523-.08.68-.111H46.469l.137-.11v-.001l.003-.002.008-.007.035-.027.137-.11c.122-.094.3-.234.53-.408.46-.35 1.12-.841 1.924-1.407 1.61-1.132 3.785-2.556 6.06-3.736l.01-.005c.234-.127.595-.237 1.054-.345a32 32 0 0 1 .7-.154h.004l.202-.043c.03.196.055.391.077.592l-.268.063-.432.102c-.198.048-.395.098-.562.147-.15.045-.33.104-.459.182l-.005.003c-1.191.738-2.526 1.967-3.546 2.988a44.523 44.523 0 0 0-1.638 1.732l-.099.111-.026.03-.006.008-.002.002.376.329-.377-.328-.72.828h7.888a26.593 26.593 0 0 1-1.088 5.481l-.003.007-.002.008c-.448 1.596-1.086 3.104-1.83 4.572h-6.079Z" fill="currentColor" stroke="currentColor"/><path d="m36.25 21.6.203.03.165-.124 1.93-1.45 1.005.46-1.119 1.233-4.147 2.574-2.998.618v-.452l.077-1.011 1.035-.2.322-.061.071-.32.387-1.721 3.068.425ZM26.17 23.927v.5h.808c.023.26.045.606.045.959 0 .362-.023.708-.083.973-.03.132-.064.224-.096.282a.251.251 0 0 1-.03.046.908.908 0 0 1-.246.092.53.53 0 0 1-.068.007h-.003c-.031.003-.114.01-.204.045-.21.082-.324.253-.39.357-.075.118-.175.3-.316.557l-.006.01-.002.004c-.469.867-1.222 1.346-1.886 1.611a4.794 4.794 0 0 1-.719.222 7.68 7.68 0 0 0-.9-2.47c-.89-1.529-2.573-3.044-5.65-3.044-3.076 0-4.798 1.529-5.726 3.063a8.006 8.006 0 0 0-.988 2.58H2.775c-.596-1.464-1.128-2.96-1.474-4.493l-.003-.011A27.495 27.495 0 0 1 .5 18.556c0-1.988.232-3.933.61-5.793 1.358.002 3.082.018 4.661.067 1.764.054 3.281.15 3.928.3.584.133 1.513.537 2.617 1.1a67.042 67.042 0 0 1 3.448 1.915 129.585 129.585 0 0 1 4.15 2.557l.065.042.017.01.004.003v.001l.273-.42-.272.42.124.08H21.499l.15-.2.522-.696.597 1.028.326.562.46-.46 1.19-1.19.394.789.18.359.389-.098.462-.115v5.11Zm-13.653-2.592.065-.424-.494-.076.494.076v-.004l.002-.009.004-.028.013-.102a9.65 9.65 0 0 0 .041-1.581c-.066-2.66-2.296-4.82-4.999-4.82H2.337l-.018.481-.217 5.969-.019.518H12.517ZM33.618 10.502V1.048l5.81 4.705-5.81 4.749ZM21.627 4.413h11.739v2.689H21.627v-2.69Z" fill="currentColor" stroke="currentColor"/></svg>