<svg width="52" height="52" viewBox="0 0 52 52" fill="none" xmlns="http://www.w3.org/2000/svg">
<path d="M28.6894 10.613C25.5394 10.0799 18.9485 9.98301 18.9485 9.98301C18.9485 9.93455 18.9485 8.91685 18.5608 8.3353C18.3185 7.9476 17.5431 8.09299 17.5431 8.09299L17.3492 9.83763L6.20293 9.15916C5.96061 9.44993 5.71831 9.7407 5.52446 10.0315L17.1554 10.8069C17.1554 10.8069 14.5384 12.2607 12.3576 12.6C10.1768 12.9392 7.89911 12.4061 6.25139 11.97C5.66984 11.8246 5.13675 11.5338 4.65213 11.1946C4.31289 11.6307 4.02212 12.1154 3.73135 12.6C4.50674 12.9392 5.03983 13.23 5.03983 13.3754C5.03983 13.8115 4.79752 17.0585 4.79752 17.1554V17.3977C4.79752 17.4947 4.55521 20.7416 4.50675 21.1778C4.45828 21.5655 3.82827 22.1955 2.95595 22.7286C2.95595 22.7286 1.59901 23.407 0.872079 23.5524C0.629767 23.6009 0.387459 23.6494 0.19361 23.6978C0.145148 24.2309 0.0966797 24.8125 0.0966797 25.394C0.0966797 25.4425 0.0966797 25.5394 0.0966797 25.5878C0.920538 25.6363 1.55055 25.6363 1.55055 25.6363L16.2346 26.4117L16.1862 28.1563C16.1862 28.1563 16.9131 28.4471 17.2523 28.1079C17.7369 27.5748 17.8823 26.5086 17.8823 26.5086C17.8823 26.5086 24.4247 27.284 27.5748 27.2356C30.7733 27.1871 31.1125 23.8917 31.1125 23.8917C31.1125 23.8917 31.4033 21.7109 31.5971 19.1908V19.1424C31.7425 16.6223 31.7425 14.3931 31.7425 14.3931C31.7425 14.3931 31.8395 11.1461 28.6894 10.613ZM2.03517 24.7155C2.03517 24.7155 3.77981 23.2617 5.47599 23.0193C7.22063 22.8255 9.54681 22.5347 11.6307 23.1647C13.7146 23.7947 16.1377 25.5394 16.1377 25.5394L2.03517 24.7155ZM21.8562 18.4154V18.5124C21.7108 20.4993 21.2747 22.3409 21.2747 22.3409C21.2747 22.3409 20.4024 25.0548 19.8208 25.2971C19.2393 25.5394 14.5869 23.3101 14.5869 23.3101L14.9746 18.0762V17.9308L15.3138 12.6969C15.3138 12.6969 20.2085 11.1461 20.7416 11.4369C21.2747 11.7277 21.8078 14.5869 21.8078 14.5869C21.8078 14.5869 22.0016 16.4769 21.8562 18.4154ZM29.4648 24.3278C29.4163 25.1032 28.8833 25.6363 28.2532 25.5878C27.6717 25.5394 27.2355 24.9094 27.284 24.134C27.3325 23.3586 27.8655 22.777 28.4956 22.8255C29.0771 22.9224 29.5133 23.5524 29.4648 24.3278ZM29.0286 15.0231C28.7379 15.0231 28.4956 14.8292 28.3017 14.5869C28.1079 14.3446 28.0109 13.9569 28.0109 13.5692C28.0109 13.3754 28.0594 13.1815 28.1563 13.0361C28.3502 12.5515 28.7379 12.2607 29.2225 12.2607C29.804 12.3092 30.2887 12.9392 30.1917 13.7146C30.1433 14.49 29.6102 15.0715 29.0286 15.0231Z" fill="#444B8C"/>
<path d="M43.034 27.2838C43.034 27.2838 42.9371 26.2661 42.5494 25.6846C42.2586 25.2969 41.5317 25.5392 41.5317 25.5392L41.4347 27.2838L26.7022 27.4292C26.7022 27.4292 25.103 27.2838 23.6006 27.5261C22.0983 27.7684 20.596 27.4777 19.869 28.4469C19.2875 29.2223 18.9967 34.1654 18.9482 36.1524C18.9482 36.2978 18.9482 36.7339 18.9482 36.8793C19.0452 38.527 19.3359 42.4525 19.869 43.1794C20.596 44.1002 22.0983 43.8579 23.6006 44.0517C25.103 44.2456 26.7022 44.0517 26.7022 44.0517L41.3863 43.8094L41.4832 45.5541C41.4832 45.5541 42.2586 45.7964 42.5494 45.4087C42.9855 44.8271 43.034 43.761 43.034 43.761C43.034 43.761 43.7609 43.8094 44.8755 43.8579C47.6379 40.9502 49.7702 37.364 50.9333 33.4385C51.5633 31.4516 51.9026 29.3192 51.9995 27.1869C48.6071 26.993 43.034 27.2838 43.034 27.2838ZM41.2893 28.2046C41.2893 28.2046 38.7693 29.8523 36.637 30.3369C34.5046 30.8216 32.1784 30.4339 30.4823 30.1431C28.7861 29.8523 27.1384 28.3015 27.1384 28.3015L41.2893 28.2046ZM25.8784 42.0648C24.1337 42.5494 22.9706 42.5979 22.8252 41.8225C22.7283 41.2894 22.5345 36.9763 22.4375 35.0862V35.0378C22.5345 33.1477 22.6314 30.4823 22.7283 29.9492C22.8737 29.1738 29.2707 31.2577 29.2707 31.6454C29.2707 32.0816 29.2707 35.3285 29.2707 35.4255V35.6193C29.2707 35.7162 29.2707 39.0117 29.2707 39.3994C29.2222 39.7871 28.6407 40.4655 27.8168 41.0471C27.9138 41.0955 26.6053 41.8709 25.8784 42.0648ZM27.1384 43.1794C27.1384 43.1794 28.7861 41.5802 30.4823 41.2409C32.1784 40.9017 34.5046 40.514 36.637 40.9502C38.7693 41.3863 41.3378 42.9856 41.3378 42.9856L27.1384 43.1794ZM46.1356 39.4478C46.1356 39.4478 45.4571 42.2586 44.8755 42.5009C44.3425 42.7917 39.5447 40.8532 39.5447 40.8532V35.6193V35.4739L39.4962 30.24C39.4962 30.24 44.294 28.35 44.8271 28.5923C45.4086 28.8346 46.0871 31.6454 46.0871 31.6454C46.0871 31.6454 46.3779 33.487 46.3779 35.4739V35.5709C46.4748 37.5578 46.1356 39.4478 46.1356 39.4478Z" fill="#444B8C"/>
<path d="M16.8163 29.0288H10.807C10.4193 29.0288 10.0801 28.6896 10.0801 28.3019C10.0801 27.9142 10.4193 27.575 10.807 27.575H16.8163C17.204 27.575 17.5433 27.9142 17.5433 28.3019C17.5433 28.6896 17.204 29.0288 16.8163 29.0288Z" fill="#444B8C"/>
<path d="M4.11904 28.3019C4.11904 28.6896 3.7798 29.0288 3.39211 29.0288H0.242061C0.193598 28.5442 0.145142 28.0596 0.0966797 27.575H3.39211C3.7798 27.575 4.11904 27.9142 4.11904 28.3019Z" fill="#444B8C"/>
</svg>
