<svg width="52" height="52" viewBox="0 0 52 52" fill="none" xmlns="http://www.w3.org/2000/svg">
<path d="M36.1373 2.08582C33.4694 3.63806 30.3649 4.51119 27.0664 4.51119C23.4284 4.51119 19.9843 3.44401 17.1709 1.55222C19.9358 0.582066 22.8948 0 25.9993 0C29.5888 0 33.0328 0.776114 36.1373 2.08582Z" fill="#444B8C"/>
<path d="M1.11534 22.7982C0.824295 22.6042 0.533244 22.4101 0.290707 22.1676C0.193692 22.7012 0.145187 23.2833 0.0966797 23.8169C0.145187 23.8654 0.242199 23.9139 0.290707 23.9624C0.436229 24.0594 0.581756 24.1079 0.727278 24.1079C0.969816 24.1079 1.16384 24.0109 1.30937 23.8169C1.5034 23.4773 1.45489 23.0408 1.11534 22.7982ZM49.1377 26.1452C48.9437 25.8057 48.5071 25.6602 48.1676 25.8542C46.3243 26.8243 44.4325 27.6975 42.4922 28.3766C42.1041 28.5221 41.9101 28.9101 42.0556 29.2982C42.1527 29.5893 42.4437 29.7833 42.7347 29.7833C42.8318 29.7833 42.8803 29.7833 42.9773 29.7348C44.9661 29.0072 46.9549 28.134 48.7982 27.1154C49.1862 26.9698 49.3318 26.4848 49.1377 26.1452ZM12.078 28.5221C10.1377 27.843 8.24593 27.0184 6.40265 26.0482C6.0631 25.8542 5.62653 25.9997 5.4325 26.3393C5.23847 26.6788 5.384 27.1154 5.72355 27.3094C7.61534 28.2796 9.60414 29.1527 11.5929 29.8803C11.69 29.9288 11.7385 29.9288 11.8355 29.9288C12.1265 29.9288 12.4176 29.7348 12.5146 29.4437C12.6601 29.0557 12.4661 28.6676 12.078 28.5221ZM37.3989 30.6564C37.3019 30.2684 36.9138 30.0258 36.5258 30.0743C34.537 30.5109 32.4512 30.802 30.3653 30.9475C29.9773 30.996 29.6862 31.3355 29.6862 31.7236C29.7347 32.1116 30.0258 32.4027 30.4138 32.4027H30.4624C32.5967 32.2572 34.731 31.9661 36.8168 31.481C37.2534 31.4325 37.4959 31.0445 37.3989 30.6564Z" fill="#444B8C"/>
<path d="M32.7426 17.1715C30.4143 14.9887 25.0299 11.2051 25.0299 11.2051C25.0299 11.2051 25.612 10.3319 25.6605 9.60433C25.6605 9.11926 24.9329 8.87672 24.9329 8.87672L23.7687 10.1864L14.3098 2.9588C14.0187 3.10432 13.7277 3.24986 13.4366 3.39538L23.0896 10.8655C23.0896 10.8655 20.0822 10.623 18.0934 9.70135C16.1046 8.77971 14.5038 7.03342 13.3396 5.77223C12.9031 5.28715 12.5635 4.65656 12.321 4.07447C11.8359 4.36551 11.3508 4.65657 10.9143 4.99612C11.3023 5.67523 11.5934 6.16029 11.4963 6.2573C11.2538 6.59686 9.21649 9.21627 9.16798 9.26477L9.02246 9.45882C8.97395 9.50732 6.93664 12.1267 6.69411 12.4178C6.45157 12.7088 5.57843 12.8543 4.55977 12.8058C4.55977 12.8058 4.17171 12.7573 3.73515 12.6603C3.63813 12.8058 3.54111 12.9999 3.4441 13.1454C3.29858 13.3879 3.15306 13.6789 3.00754 13.9215C3.68664 13.873 5.28738 13.873 6.50007 14.4551C8.05231 15.2312 10.1381 16.2984 11.5449 17.9961C12.9516 19.6939 13.9702 22.5073 13.9702 22.5073L2.91052 14.1155C2.765 14.3581 2.61948 14.6491 2.52246 14.9402L13.5337 23.2349L12.515 24.6901C12.515 24.6901 12.9516 25.3208 13.4366 25.2237C14.1157 25.0297 14.8434 24.2536 14.8434 24.2536C14.8434 24.2536 19.8396 28.5707 22.5075 30.2685C23.1381 30.6566 23.7202 30.5596 24.2538 30.5596C25.2725 30.6081 26.0971 30.4626 26.6307 30.0745C27.0672 29.7835 27.3098 29.4924 27.3098 29.4924C27.3098 29.4924 28.765 27.8431 30.3657 25.8543L30.4143 25.8058C31.9665 23.7685 33.1792 21.9737 33.1792 21.9737C33.1792 21.9737 35.071 19.3543 32.7426 17.1715ZM22.6045 19.9364C21.3919 21.4887 19.9851 22.7984 19.9851 22.7984C19.9851 22.7984 17.7053 24.5931 17.1232 24.4476C16.5411 24.3021 13.8732 19.8879 13.8732 19.8879L17.1232 15.7648L17.2202 15.6678L20.4217 11.4961C20.4217 11.4961 25.3695 12.9513 25.6605 13.4849C25.9516 14.0185 24.7874 16.6864 24.7874 16.6864C24.7874 16.6864 23.8657 18.3357 22.6531 19.8879L22.6045 19.9364ZM25.709 28.9588C25.224 29.5409 24.4963 29.7349 24.0113 29.3469C23.5262 28.9588 23.5262 28.1827 24.0113 27.6006C24.4963 27.0185 25.224 26.8245 25.709 27.2125C26.1941 27.6006 26.1941 28.3767 25.709 28.9588ZM32.209 20.6155C31.7725 21.2461 30.9963 21.3916 30.5113 21.0521C30.0262 20.664 30.0262 19.8879 30.5113 19.3058C30.9963 18.7237 31.724 18.5297 32.209 18.8693C32.6456 19.2088 32.6941 19.9849 32.209 20.6155Z" fill="#444B8C"/>
<path d="M38.6122 32.3057C35.4592 31.6751 28.9107 31.3355 28.9107 31.3355C28.9107 31.3355 28.9592 30.2684 28.5712 29.6863C28.3286 29.2497 27.5525 29.4437 27.5525 29.4437L27.2615 31.19L26.0003 31.093L21.6346 30.6564L12.6122 29.7833C12.6122 29.7833 11.0115 29.4922 9.50772 29.5407C8.00399 29.5893 6.50026 29.2012 5.72414 30.0743C5.04504 30.802 4.26892 35.6527 3.97787 37.69C3.97787 37.787 3.92936 38.2721 3.92936 38.4176C3.92936 38.7572 3.88086 39.2423 3.88086 39.7758C5.4331 42.2982 7.37339 44.4811 9.65324 46.3244C10.3809 46.3729 10.9144 46.3728 10.9144 46.3728L25.5637 47.6826L25.4667 49.4288C25.4667 49.4288 26.1943 49.7684 26.5338 49.3803C27.0189 48.8467 27.2129 47.8281 27.2129 47.8281C27.2129 47.8281 33.7129 48.8467 36.9144 48.8952C40.1159 48.9438 40.601 45.6937 40.601 45.6937C40.601 45.6937 40.9891 43.5594 41.2801 40.9885V40.94C41.5226 38.4176 41.6197 36.2348 41.6197 36.2348C41.6197 36.2348 41.7652 32.9363 38.6122 32.3057ZM27.1159 32.0631C27.1159 32.0631 24.448 33.4213 22.2652 33.6639C20.0823 33.9064 17.8025 33.2758 16.1532 32.7908C14.504 32.3057 13.0003 30.5594 13.0003 30.5594L22.1682 31.481L26.0003 31.8691L27.1159 32.0631ZM10.2838 44.19C8.48907 44.4811 7.32489 44.4326 7.27638 43.6564C7.22787 43.1229 7.51892 38.8057 7.61593 36.9139V36.8654C7.90698 34.9736 8.29504 32.3542 8.48907 31.8206C8.73161 31.093 14.8435 33.8094 14.8435 34.1975C14.8435 34.634 14.4555 37.884 14.4555 37.9811V38.1751C14.4555 38.2721 14.1159 41.5221 14.0189 41.9587C13.9704 42.3467 13.2913 42.9288 12.4182 43.4139C12.4182 43.4139 11.06 44.093 10.2838 44.19ZM11.3995 45.4512C11.3995 45.4512 13.1943 44.0445 14.9406 43.899C16.6868 43.7535 19.0152 43.5594 21.101 44.2385C23.1868 44.9176 25.5637 46.7609 25.5637 46.7609L11.3995 45.4512ZM31.4816 39.8243V39.9214C31.2876 41.9102 30.754 43.7049 30.754 43.7049C30.754 43.7049 29.7838 46.4214 29.2018 46.6154C28.6197 46.8094 24.06 44.4325 24.06 44.4325L24.6421 39.1937V39.0482L25.1756 33.8094C25.1756 33.8094 30.1719 32.4512 30.657 32.7423C31.1906 33.0818 31.5786 35.8952 31.5786 35.8952C31.5786 35.8952 31.6756 37.884 31.4816 39.8243ZM38.8547 46.0333C38.7577 46.8094 38.2241 47.343 37.6421 47.2945C37.06 47.246 36.6234 46.5669 36.7204 45.8393C36.8174 45.0632 37.351 44.5296 37.9331 44.5781C38.5152 44.6266 38.9518 45.2572 38.8547 46.0333ZM39.9704 35.4587C39.9219 36.2348 39.3398 36.7684 38.7577 36.7198C38.1756 36.6713 37.7391 35.9922 37.8361 35.2646C37.9331 34.537 38.4667 33.9549 39.0488 34.0034C39.6309 34.0519 40.0674 34.7311 39.9704 35.4587Z" fill="#444B8C"/>
</svg>
