<svg width="52" height="52" viewBox="0 0 52 52" fill="none" xmlns="http://www.w3.org/2000/svg">
<path d="M37.5571 27.5528H31.4994C31.1117 27.5528 30.7725 27.2133 30.7725 26.8252C30.7725 26.4371 31.1117 26.0976 31.4994 26.0976H37.5086C37.8963 26.0976 38.2356 26.4371 38.2356 26.8252C38.2356 27.2618 37.9448 27.5528 37.5571 27.5528Z" fill="#444B8C"/>
<path d="M29.3685 24.2544C29.3685 24.2544 29.0777 22.0715 28.5931 19.5977V19.5492C28.06 17.0753 27.4785 14.9409 27.4785 14.9409C27.4785 14.9409 26.6546 11.788 23.5046 12.1275C20.3062 12.4671 13.9577 14.1163 13.9577 14.1163C13.9577 14.1163 13.6669 13.0977 13.1338 12.6126C12.7946 12.273 12.0677 12.6611 12.0677 12.6611L12.31 14.4074L1.64843 16.6872C1.50305 17.0268 1.40612 17.3663 1.3092 17.7059L12.4069 15.3775C12.4069 15.3775 10.2746 17.4633 8.28767 18.385C6.30075 19.3066 3.92613 19.4036 2.22997 19.4036C1.79382 19.4036 1.3092 19.3551 0.873044 19.2096C0.776121 19.5977 0.679198 19.9857 0.582275 20.4223C0.533813 20.5678 0.533813 20.6648 0.485352 20.8103C1.06689 20.9559 1.45458 21.0529 1.45458 21.1499C1.55151 21.538 2.22997 24.788 2.22997 24.885L2.27843 25.079C2.27843 25.176 2.95689 28.3775 3.00536 28.8141C3.05382 29.2021 2.61766 29.9783 1.9392 30.7059C1.9392 30.7059 1.26074 31.3365 0.679198 31.773C0.679198 31.87 0.72766 31.9671 0.776121 32.0641C0.921506 32.6947 1.11535 33.3253 1.3092 33.9074C1.35766 33.9074 1.40612 33.8589 1.40612 33.8589L15.7508 30.6574L16.1869 32.3551C16.1869 32.3551 16.9623 32.4521 17.1561 32.0156C17.4469 31.3365 17.3015 30.3178 17.3015 30.3178C17.3015 30.3178 23.7954 29.3477 26.8485 28.426C29.9016 27.5044 29.3685 24.2544 29.3685 24.2544ZM1.59997 32.8887C1.59997 32.8887 2.90843 30.9969 4.50767 30.3178C6.1069 29.6387 8.28767 28.7656 10.4684 28.7656C12.6492 28.7656 15.46 29.8327 15.46 29.8327L1.59997 32.8887ZM18.8523 28.6686C18.3677 29.0566 13.2792 28.135 13.2792 28.135L12.2615 22.9932V22.8477L11.1469 17.7059C11.1469 17.7059 15.46 14.8924 16.0415 15.038C16.6231 15.1835 17.8831 17.7544 17.8831 17.7544C17.8831 17.7544 18.5615 19.5006 18.9492 21.4409V21.538C19.3369 23.4783 19.4338 25.37 19.4338 25.37C19.4338 25.37 19.3369 28.2805 18.8523 28.6686ZM24.9585 16.2992C24.6677 16.3477 24.3769 16.2506 24.1346 16.0566C23.8923 15.8626 23.6985 15.523 23.6015 15.1835C23.5531 14.9894 23.5531 14.7954 23.6015 14.6499C23.65 14.1163 23.9892 13.7283 24.4254 13.6312C25.0069 13.4857 25.6369 14.0193 25.7823 14.7469C25.9277 15.4745 25.5885 16.2021 24.9585 16.2992ZM27.0908 26.6798C26.5092 26.7768 25.8792 26.2917 25.7339 25.5641C25.5885 24.8365 25.9277 24.1089 26.5092 24.0118C27.0908 23.9148 27.7208 24.3999 27.8662 25.1275C28.06 25.9036 27.6723 26.5827 27.0908 26.6798Z" fill="#444B8C"/>
<path d="M25.4434 10.5752L25.7341 9.36253C25.7826 9.217 25.928 9.07148 26.1218 9.11999C26.2672 9.1685 26.4126 9.31402 26.3641 9.50805L26.0734 10.7207C26.0249 10.8663 25.8795 11.0118 25.6857 10.9633C25.5403 10.9148 25.4434 10.7692 25.4434 10.5752Z" fill="#444B8C"/>
<path d="M26.5571 11.2539C26.5571 11.2054 26.6056 11.1569 26.654 11.1084L27.4779 10.2838C27.5748 10.1382 27.8171 10.1382 27.914 10.2838C28.0594 10.3808 28.0594 10.6233 27.914 10.7203L27.0902 11.545C26.9933 11.6905 26.7509 11.6905 26.654 11.545C26.5571 11.4479 26.5086 11.3509 26.5571 11.2539Z" fill="#444B8C"/>
<path d="M23.9395 9.60545C23.988 9.50843 24.085 9.41142 24.182 9.36291C24.376 9.3144 24.5215 9.45992 24.5701 9.60545L24.7156 10.5756C24.7641 10.7696 24.6186 10.9151 24.473 10.9637C24.279 11.0122 24.1335 10.8666 24.085 10.7211L23.9395 9.75097C23.9395 9.65395 23.9395 9.65395 23.9395 9.60545Z" fill="#444B8C"/>
<path d="M51.3205 31.8207L37.0728 31.8692C37.0728 31.8692 35.4736 31.7237 33.9713 31.9177C32.469 32.1118 30.9667 31.8692 30.2397 32.8394C29.6582 33.6155 29.3674 38.5633 29.2705 40.5521C29.2705 40.6491 29.2705 41.1341 29.2705 41.2797C29.3674 42.9289 29.6097 46.858 30.1428 47.5856C30.8697 48.5558 32.3721 48.2647 33.8744 48.4588C35.3767 48.6528 36.9759 48.5073 36.9759 48.5073H38.9628C39.4474 48.2162 39.9321 47.9252 40.4167 47.6342H37.4121C37.4121 47.6342 39.0598 46.0334 40.7559 45.7424C41.5313 45.5968 42.4036 45.4513 43.3244 45.3543C46.1352 42.8319 48.4128 39.6789 49.9152 36.1379V34.7797C49.9152 34.7797 50.1575 34.6827 50.5452 34.5371C50.6905 34.1976 50.7875 33.8095 50.8844 33.47C50.8844 33.373 50.9329 33.2759 50.9813 33.2274C50.0605 33.761 48.4613 34.5856 47.0559 34.8767C44.9236 35.3618 42.5975 34.9737 40.9013 34.6341C39.2051 34.3431 37.5574 32.7424 37.5574 32.7424H51.1267C51.1752 32.4513 51.2236 32.1603 51.3205 31.8207ZM39.7382 36.1379C39.7382 36.5744 39.7382 39.8244 39.7382 39.9215V40.1155C39.7382 40.2125 39.7382 43.511 39.6898 43.8991C39.6413 44.2871 39.0598 44.9662 38.2359 45.5483C38.2359 45.5483 36.9274 46.3244 36.2005 46.5185C34.4559 47.0036 33.2928 47.0521 33.1474 46.2759C33.0505 45.7424 32.4205 41.4737 32.469 39.6789C32.5659 37.9327 33.0505 34.8767 33.1474 34.3431C33.3413 33.6155 39.6898 35.7498 39.7382 36.1379Z" fill="#444B8C"/>
<path d="M50.3026 27.5528H44.2933C43.9056 27.5528 43.5664 27.2133 43.5664 26.8252C43.5664 26.4371 43.9056 26.0976 44.2933 26.0976H50.3026C50.6903 26.0976 51.0295 26.4371 51.0295 26.8252C51.0295 27.2618 50.6903 27.5528 50.3026 27.5528Z" fill="#444B8C"/>
</svg>
