<svg width="52" height="52" viewBox="0 0 52 52" fill="none" xmlns="http://www.w3.org/2000/svg">
<path d="M24.5704 13.5335C24.5704 13.5335 24.4734 10.235 21.2749 9.94396C18.0764 9.65291 11.534 9.89545 11.534 9.89545C11.534 9.89545 11.4856 8.8768 11.0494 8.2462C10.7586 7.85814 10.0317 8.10067 10.0317 8.10067L9.93476 9.84695H5.67008C5.42777 10.138 5.18546 10.4775 4.94315 10.7686H9.78937C9.78937 10.7686 7.26934 12.3693 5.137 12.8544C4.55545 12.9999 4.02237 13.0484 3.44082 13.0484C2.90774 13.9701 2.42312 14.9887 1.98696 15.9589C1.01771 18.2872 0.387699 20.8096 0.145388 23.4775C1.64772 23.235 3.39236 23.0895 4.99161 23.4775C7.12395 23.9626 9.64399 25.5634 9.64399 25.5634L0 25.6119C0 25.7574 0 25.8544 0 25.9999C0 26.1454 0 26.3395 0 26.485L9.74092 26.4365L9.83784 28.1828C9.83784 28.1828 10.5648 28.4253 10.8555 28.0372C11.2917 27.4552 11.3886 26.4365 11.3886 26.4365C11.3886 26.4365 17.931 26.8246 21.1295 26.582C24.3281 26.3395 24.4734 23.041 24.4734 23.041C24.4734 23.041 24.6188 20.8581 24.6673 18.2872V18.2387C24.7158 15.7163 24.5704 13.5335 24.5704 13.5335ZM14.9264 18.2387C14.8779 20.2275 14.5871 22.0708 14.5871 22.0708C14.5871 22.0708 13.8602 24.8358 13.2787 25.1268C12.7456 25.3693 7.94781 23.429 7.94781 23.429L8.04474 18.1902V18.0447L8.09319 12.8059C8.09319 12.8059 12.891 10.9626 13.4725 11.2051C14.0056 11.4477 14.6841 14.2611 14.6841 14.2611C14.6841 14.2611 14.9748 16.1044 14.9748 18.0932L14.9264 18.2387ZM21.7596 24.9328C21.178 24.9328 20.6934 24.3022 20.6934 23.5746C20.6934 22.7984 21.178 22.2163 21.808 22.2163C22.438 22.2163 22.8742 22.8469 22.8742 23.6231C22.8257 24.3507 22.3411 24.9328 21.7596 24.9328ZM21.8565 14.3096C21.2749 14.3096 20.7903 13.679 20.7903 12.9514C20.7903 12.1753 21.2749 11.5932 21.9049 11.5932C22.4865 11.5932 22.9711 12.2238 22.9711 12.9514C22.9711 13.7275 22.4865 14.3096 21.8565 14.3096Z" fill="#444B8C"/>
<path d="M49.8192 33.5189C49.8192 33.5189 49.7223 30.2204 46.5723 29.9294L34.2628 29.8324C34.4082 29.9294 34.4567 29.9779 34.4567 29.9779L34.7959 30.754H35.0382C35.0382 30.754 34.9413 30.8025 34.8444 30.8995C34.7959 30.9481 34.699 30.9966 34.6021 31.0451C33.7782 31.5301 31.9851 32.5003 30.3374 32.8398C28.2051 33.2764 25.8304 33.0824 24.1827 32.6458C22.2442 32.1607 20.8388 30.657 20.8388 30.657L27.1389 30.7055C27.2358 30.7055 27.2843 30.657 27.2843 30.56V29.9294C27.2843 29.8324 27.2358 29.7839 27.1389 29.7839L20.4026 29.7354C20.4026 29.7354 18.8034 29.5899 17.3011 29.7839C15.7987 29.9779 14.2964 29.7354 13.5695 30.657C12.9879 31.4331 12.6487 36.3324 12.5518 38.3697C12.5518 38.5152 12.5518 38.9518 12.5518 39.0973C12.6487 40.7466 12.8425 44.6757 13.4241 45.4518C14.151 46.4219 15.6533 46.1309 17.1557 46.3734C18.658 46.5675 20.2573 46.4219 20.2573 46.4219L34.9413 46.3734L34.9898 48.1197C34.9898 48.1197 35.7167 48.3622 36.0075 47.9742C36.4436 47.3921 36.5406 46.3734 36.5406 46.3734C36.5406 46.3734 39.1091 46.5189 41.7745 46.616C45.2638 43.8995 48.0746 40.31 49.8192 36.1869C49.8677 34.6346 49.8192 33.5189 49.8192 33.5189ZM19.4819 44.3846C17.6888 44.8697 16.5741 44.8697 16.4287 44.1421C16.3318 43.6085 16.1864 39.2913 16.138 37.3995V37.351C16.2349 35.4592 16.4287 32.7913 16.5257 32.2577C16.671 31.4816 23.0196 33.6645 23.0681 34.0525C23.0681 34.4891 23.0196 37.7391 23.0196 37.8361V38.0786C23.0196 38.1757 22.9711 41.4742 22.9711 41.8622C22.9227 42.2503 22.3411 42.9294 21.5173 43.463C21.5173 43.4145 20.2088 44.1906 19.4819 44.3846ZM20.7419 45.5488C20.7419 45.5488 22.3896 43.9966 24.0858 43.657C25.7819 43.366 28.1081 42.9779 30.2405 43.4145C32.3728 43.8995 34.8929 45.5003 34.8929 45.5003L20.7419 45.5488ZM40.1752 38.1757C40.1268 40.1645 39.7875 42.0078 39.7875 42.0078C39.7875 42.0078 39.0606 44.7727 38.4791 45.0637C37.8975 45.3063 33.1482 43.366 33.1482 43.366L33.2451 38.1272V37.9816L33.2936 32.7428C33.2936 32.7428 38.0914 30.8995 38.6729 31.1906C39.206 31.4816 39.8845 34.2466 39.8845 34.2466C39.8845 34.2466 40.1752 36.1383 40.1268 38.0786V38.1757H40.1752ZM47.1053 34.2951C46.5238 34.2951 46.0392 33.6645 46.0392 32.8884C46.0392 32.1122 46.5238 31.5301 47.1538 31.5301C47.7354 31.5301 48.22 32.1607 48.22 32.8884C48.22 33.713 47.7354 34.2951 47.1053 34.2951Z" fill="#444B8C"/>
<path d="M35.2323 29.7837L28.6415 25.0785C28.4476 24.933 28.2053 24.9815 28.1084 25.1755C28.1084 25.1755 27.9145 25.8061 28.0599 25.9031L34.6993 30.7054H34.8931L35.2323 29.7837Z" fill="#444B8C"/>
<path d="M35.3287 30.0745C35.3287 30.0745 35.9588 29.2499 36.0072 28.5223C36.0557 28.0372 35.2803 27.7462 35.2803 27.7462L34.1172 29.0074L35.3287 30.0745Z" fill="#444B8C"/>
</svg>
