<svg width="52" height="52" viewBox="0 0 52 52" fill="none" xmlns="http://www.w3.org/2000/svg">
<path d="M35.6197 46.3243C35.0381 45.8877 34.0204 45.8392 34.0204 45.8392C34.0204 45.8392 34.4081 39.2907 34.1174 36.0892C33.972 34.0519 32.5666 33.2758 31.5973 32.9363L29.9981 32.8877C29.5135 32.9848 28.7865 33.1303 27.9142 33.2273L27.1388 32.8877L23.698 33.1788C22.1472 32.9848 21.081 32.6452 21.081 32.6452C21.081 32.6452 17.7856 32.7422 17.4948 35.9437C17.2041 39.1452 17.4948 45.6937 17.4948 45.6937C17.4948 45.6937 16.4287 45.7422 15.8471 46.1788C15.4594 46.4698 15.7017 47.1974 15.7017 47.1974L17.4464 47.2945V50.5445C17.7372 50.6415 18.0764 50.7385 18.3672 50.8355V47.3915C18.3672 47.3915 19.6756 49.3803 20.2572 51.3691C22.0503 51.7572 23.9403 51.9997 25.8788 51.9997C27.7204 51.9997 29.5135 51.8056 31.2581 51.4661C31.8881 49.5258 33.1481 47.537 33.1481 47.537L33.1966 51.0295C33.4874 50.9325 33.7781 50.884 34.0689 50.7385L34.0204 47.44L35.7651 47.343C35.7651 47.343 36.0074 46.6154 35.6197 46.3243ZM31.1127 34.343C31.8881 34.343 32.4697 34.828 32.4697 35.4586C32.4697 36.0407 31.8396 36.5258 31.1127 36.5258C30.3373 36.5258 29.7558 36.0407 29.7558 35.4101C29.7558 34.828 30.3858 34.343 31.1127 34.343ZM20.4995 34.2945C21.2749 34.2945 21.8564 34.7795 21.8564 35.4101C21.8564 35.9922 21.2264 36.4773 20.4995 36.4773C19.7241 36.4773 19.1426 35.9922 19.1426 35.4101C19.1426 34.7795 19.7726 34.2945 20.4995 34.2945ZM31.0642 49.2833L25.8303 49.2348H25.6849H20.451C20.451 49.2348 18.6095 44.4325 18.8518 43.8504C19.0941 43.3168 21.9049 42.5892 21.9049 42.5892C21.9049 42.5892 23.7465 42.2982 25.7334 42.2982H25.8303C27.8173 42.2982 29.6588 42.6377 29.6588 42.6377C29.6588 42.6377 32.4697 43.3654 32.712 43.8989C32.9543 44.481 31.0642 49.2833 31.0642 49.2833Z" fill="#444B8C"/>
<path d="M50.0135 16.2012C46.7665 16.0557 42.8895 16.1042 42.8895 16.1042C42.8895 16.1042 42.8411 15.037 42.4534 14.4549C42.1626 14.0669 41.4357 14.2609 41.4357 14.2609L41.2903 16.0072L26.5578 15.6676C26.5578 15.6676 24.9585 15.4736 23.4562 15.6191C21.9539 15.8131 20.4515 15.4736 19.7246 16.4437C19.1431 17.1714 18.7069 22.1191 18.5615 24.1564C18.5615 24.2534 18.5615 24.7385 18.5615 24.884C18.61 26.5333 18.7554 30.4624 19.2885 31.2385C20.0154 32.2087 21.5177 31.9661 23.02 32.2087C24.5224 32.4512 26.1216 32.3542 26.1216 32.3542L40.8057 32.5967L40.8541 34.343C40.8541 34.343 41.581 34.634 41.8718 34.246C42.308 33.6639 42.4049 32.6452 42.4049 32.6452C42.4049 32.6452 47.6388 33.0818 51.0312 33.0333C51.6612 30.8019 52.0004 28.4251 52.0004 25.9997C51.952 22.5557 51.2735 19.2572 50.0135 16.2012ZM41.1449 17.0258C41.1449 17.0258 38.5764 18.5781 36.4441 19.0146C34.2633 19.4512 31.9855 18.9661 30.2894 18.6266C28.5932 18.2385 26.9939 16.6378 26.9939 16.6378L41.1449 17.0258ZM25.2978 30.3654C23.5047 30.8019 22.39 30.802 22.2446 30.0258C22.1477 29.4923 22.0993 25.1751 22.0993 23.2833V23.2348C22.2446 21.343 22.4385 18.6751 22.5839 18.1415C22.7293 17.4139 29.0778 19.6937 29.0778 20.0818C29.0778 20.5184 28.9809 23.8169 28.9809 23.8654V24.0594C28.9809 24.1564 28.884 27.4549 28.8355 27.843C28.787 28.2311 28.2055 28.8617 27.3332 29.4437C27.3332 29.4437 26.0247 30.1714 25.2978 30.3654ZM26.5093 31.5296C26.5093 31.5296 28.2055 29.9773 29.9017 29.7348C31.5978 29.4437 33.924 29.1042 36.0564 29.6378C38.1887 30.1714 40.6603 31.8206 40.6603 31.8206L26.5093 31.5296ZM46.088 24.4475V24.5445C45.9911 26.5333 45.6519 28.3766 45.6519 28.3766C45.6519 28.3766 44.8765 31.1415 44.2949 31.384C43.7134 31.6266 39.0126 29.5893 39.0126 29.5893L39.2064 24.3505V24.2049L39.3518 18.9661C39.3518 18.9661 44.198 17.2199 44.7311 17.5109C45.3126 17.8019 45.8942 20.6154 45.8942 20.6154C45.8942 20.6154 46.1365 22.5072 46.088 24.4475Z" fill="#444B8C"/>
<path d="M11.3398 40.0188V47.4889C7.85048 45.1121 5.03968 41.9591 3.05273 38.224H9.44974C10.4674 38.224 11.3398 39.0486 11.3398 40.0188Z" fill="#444B8C"/>
<path d="M48.8984 38.224C46.9114 41.9591 44.0521 45.1121 40.6113 47.4889V40.0188C40.6113 39.0486 41.4836 38.224 42.5498 38.224H48.8984Z" fill="#444B8C"/>
<path d="M23.3095 13.0484H17.3002C16.9125 13.0484 16.5732 12.7089 16.5732 12.3208C16.5732 11.9328 16.9125 11.5932 17.3002 11.5932H23.3095C23.6972 11.5932 24.0364 11.9328 24.0364 12.3208C24.0364 12.7089 23.6972 13.0484 23.3095 13.0484Z" fill="#444B8C"/>
<path d="M9.78934 12.3208C9.78934 12.7089 9.4501 13.0484 9.06241 13.0484H3.48926C3.78003 12.5634 4.07081 12.0783 4.36158 11.5932H9.06241C9.4501 11.5932 9.78934 11.9328 9.78934 12.3208Z" fill="#444B8C"/>
<path d="M37.4609 13.0484H31.4515C31.0638 13.0484 30.7246 12.7089 30.7246 12.3208C30.7246 11.9328 31.0638 11.5932 31.4515 11.5932H37.4609C37.8486 11.5932 38.1878 11.9328 38.1878 12.3208C38.1878 12.7089 37.897 13.0484 37.4609 13.0484Z" fill="#444B8C"/>
<path d="M48.4627 13.0484H45.7972C45.4095 13.0484 45.0703 12.7089 45.0703 12.3208C45.0703 11.9328 45.4095 11.5932 45.7972 11.5932H47.5419C47.8811 12.0783 48.1719 12.5148 48.4627 13.0484Z" fill="#444B8C"/>
</svg>
