<svg width="52" height="52" viewBox="0 0 52 52" fill="none" xmlns="http://www.w3.org/2000/svg">
<path d="M22.7712 25.297C22.7712 25.297 22.6741 22.0016 19.5182 21.7108C16.3137 21.3716 9.75911 21.6139 9.75911 21.6139C9.75911 21.6139 9.71055 20.5962 9.27358 19.9661C8.98226 19.5784 8.25397 19.8208 8.25397 19.8208L8.15686 21.5654H0.388416C0.339863 21.8562 0.291317 22.1954 0.242764 22.4862L8.05976 22.5346C8.05976 22.5346 5.53501 24.1339 3.39869 24.6185C2.28198 24.8608 1.16527 24.8608 0.0485557 24.7639C0.0485557 25.2001 0 25.5878 0 26.0239C0 28.1078 0.242764 30.1432 0.728291 32.0817C0.971055 33.0994 1.26237 34.0687 1.60223 35.0379C2.13632 35.0379 2.6704 35.1348 3.20448 35.2317C5.34081 35.7164 7.86555 37.3156 7.86555 37.3156H2.57329C2.71895 37.6064 2.86462 37.8972 3.01028 38.188H7.91409L7.96265 39.9326C7.96265 39.9326 8.7395 40.1749 9.03082 39.7872C9.46779 39.2057 9.5649 38.188 9.5649 38.188C9.5649 38.188 16.1195 38.6241 19.324 38.3818C22.5285 38.1395 22.6741 34.8441 22.6741 34.8441C22.6741 34.8441 22.8684 32.6633 22.9169 30.0948V30.0463C22.8684 27.4778 22.7712 25.297 22.7712 25.297ZM13.0607 29.9494C13.0121 31.9363 12.7208 33.7779 12.7208 33.7779C12.7208 33.7779 11.9925 36.5402 11.4099 36.831C10.8273 37.0733 6.06909 35.1348 6.06909 35.1348L6.16621 29.9009V29.7555L6.21475 24.5216C6.21475 24.5216 11.0215 22.68 11.6041 22.9708C12.1867 23.2616 12.8179 26.0239 12.8179 26.0239C12.8179 26.0239 13.1092 27.8655 13.0607 29.8525V29.9494ZM19.9066 36.6372C19.324 36.6372 18.8385 36.0071 18.8385 35.2317C18.8385 34.4564 19.324 33.8748 19.9552 33.8748C20.5864 33.8748 21.0233 34.5048 21.0233 35.2802C21.0233 36.0556 20.4893 36.6856 19.9066 36.6372ZM20.0523 26.0724C19.4696 26.0724 18.9841 25.4424 18.9841 24.7154C18.9841 23.9885 19.4697 23.3585 20.1008 23.3585C20.6835 23.3585 21.169 23.9885 21.169 24.7154C21.169 25.4424 20.6349 26.0724 20.0523 26.0724Z" fill="#444B8C"/>
<path d="M43.4542 25.8302C43.4542 25.8302 45.979 24.2309 48.1153 23.7463C49.3777 23.504 50.6886 23.504 51.8539 23.6494C51.7082 22.0016 51.4169 20.4024 50.9799 18.8516C50.8343 18.27 50.64 17.6885 50.3973 17.107C49.9118 15.75 49.2806 14.4415 48.6008 13.23C48.4552 13.23 48.3581 13.1815 48.261 13.1815C46.1246 12.6969 43.5999 11.0976 43.5999 11.0976H47.2414C47.0471 10.8069 46.8529 10.5161 46.6102 10.2253H43.5028L43.4542 8.48066C43.4542 8.48066 42.7259 8.23837 42.3861 8.62607C41.9491 9.20761 41.852 10.2253 41.852 10.2253C41.852 10.2253 35.2974 9.78914 32.0929 10.0315C28.8884 10.2738 28.7428 13.5692 28.7428 13.5692C28.7428 13.5692 28.5486 15.75 28.5 18.3185V18.367C28.5 20.887 28.5971 23.1163 28.5971 23.1163C28.5971 23.1163 28.6942 26.4117 31.8501 26.7025C35.0546 27.0417 41.6092 26.7994 41.6092 26.7994C41.6092 26.7994 41.6578 27.8656 42.0948 28.4471C42.3861 28.8348 43.1144 28.5925 43.1144 28.5925L43.2115 26.8479H51.951C51.951 26.5571 51.951 26.2663 51.951 25.9755V25.9271L43.4542 25.8302ZM31.3646 25.0063C30.782 25.0063 30.2964 24.3763 30.2964 23.6494C30.2964 22.874 30.782 22.2924 31.4132 22.2924C31.9958 22.2924 32.4813 22.9224 32.4813 23.6494C32.4328 24.4248 31.9472 25.0063 31.3646 25.0063ZM31.5103 14.4415C30.8791 14.4415 30.4421 13.8115 30.4421 13.0361C30.4421 12.2607 30.9762 11.6792 31.5588 11.6792C32.1415 11.6792 32.627 12.3092 32.627 13.0361C32.5784 13.86 32.0929 14.4415 31.5103 14.4415ZM39.8613 25.394C39.2787 25.1032 38.6475 22.3409 38.6475 22.3409C38.6475 22.3409 38.3562 20.4993 38.4048 18.5123V18.4154C38.4533 16.4285 38.7932 14.5869 38.7932 14.5869C38.7932 14.5869 39.5215 11.8246 40.1041 11.5338C40.6867 11.2915 45.4449 13.23 45.4449 13.23L45.3478 18.4639V18.6093L45.2992 23.8432C45.2021 23.8432 40.3954 25.6848 39.8613 25.394Z" fill="#444B8C"/>
<path d="M25.49 32.1305H19.4695C19.0811 32.1305 18.7412 31.7913 18.7412 31.4036C18.7412 31.0159 19.0811 30.6766 19.4695 30.6766H25.49C25.8785 30.6766 26.2183 31.0159 26.2183 31.4036C26.2183 31.8397 25.8785 32.1305 25.49 32.1305Z" fill="#444B8C"/>
<path d="M39.7645 32.1305H33.7439C33.3555 32.1305 33.0156 31.7913 33.0156 31.4036C33.0156 31.0159 33.3555 30.6766 33.7439 30.6766H39.7645C40.1529 30.6766 40.4927 31.0159 40.4927 31.4036C40.4927 31.8397 40.1529 32.1305 39.7645 32.1305Z" fill="#444B8C"/>
<path d="M51.5627 30.725C51.4656 31.2097 51.3685 31.6943 51.2714 32.1789H48.0183C47.6299 32.1789 47.29 31.8397 47.29 31.452C47.29 31.0643 47.6299 30.725 48.0183 30.725H51.5627Z" fill="#444B8C"/>
</svg>
