<svg width="52" height="52" viewBox="0 0 52 52" fill="none" xmlns="http://www.w3.org/2000/svg">
<path d="M36.138 2.17876C33.4701 3.7281 30.3656 4.59961 27.0671 4.59961C23.429 4.59961 19.985 3.53441 17.123 1.64615C19.888 0.629395 22.8469 0.0968018 25.9514 0.0968018C29.5895 0.0968018 33.0335 0.82308 36.138 2.17876Z" fill="#444B8C"/>
<path d="M22.9437 30.9381C21.2944 30.7929 19.6452 30.5508 18.0444 30.2119C17.6564 30.115 17.2683 30.4056 17.1713 30.7929C17.0743 31.1802 17.3653 31.5676 17.7534 31.6644C19.5482 32.0517 21.343 32.2938 23.1377 32.4391C22.8467 31.9065 22.8467 31.3255 22.9437 30.9381ZM12.078 28.5657C10.1377 27.8879 8.24593 27.0648 6.40265 26.0964C6.0631 25.9028 5.62653 26.048 5.4325 26.387C5.23847 26.7259 5.384 27.1616 5.72355 27.3553C7.61534 28.3236 9.60414 29.1951 11.5929 29.9214C11.69 29.9698 11.7385 29.9698 11.8355 29.9698C12.1265 29.9698 12.4176 29.7761 12.5146 29.4856C12.6601 29.0983 12.4661 28.6625 12.078 28.5657ZM49.1377 26.1933C48.9437 25.8544 48.5071 25.7091 48.1676 25.9028C46.3243 26.8711 44.4325 27.7426 42.4922 28.4204C42.1041 28.5657 41.9101 29.0015 42.0556 29.3404C42.1527 29.6309 42.4437 29.8245 42.7347 29.8245C42.8318 29.8245 42.8803 29.8246 42.9773 29.7761C44.9661 29.0499 46.9549 28.1784 48.7982 27.1616C49.1862 26.9679 49.3318 26.5322 49.1377 26.1933ZM1.11534 22.8525C0.824295 22.6588 0.533244 22.4652 0.290707 22.2231C0.193692 22.7557 0.145187 23.3367 0.0966797 23.8693C0.145187 23.9177 0.242199 23.9661 0.290707 24.0145C0.436229 24.1113 0.581756 24.1598 0.727278 24.1598C0.969816 24.1598 1.16384 24.0629 1.30937 23.8693C1.5034 23.5303 1.45489 23.0946 1.11534 22.8525Z" fill="#444B8C"/>
<path d="M32.9371 12.0074C30.0267 10.7486 23.6722 8.95714 23.6722 8.95714C23.6722 8.95714 23.9147 7.94039 23.7207 7.26255C23.5752 6.77838 22.7991 6.77838 22.7991 6.77838L22.1685 8.37613L11.0603 4.74486C10.7692 4.93853 10.4782 5.18059 10.1871 5.42268L21.7804 9.24763C21.7804 9.24763 18.87 9.97388 16.6871 9.78021C14.5043 9.53812 12.4185 8.47297 10.9147 7.64988C10.2841 7.31096 9.70204 6.72995 9.26548 6.19737C8.82891 6.5847 8.39234 6.97202 7.95578 7.35936C8.7804 7.98878 9.411 8.56981 9.3625 8.71506C9.26548 9.10239 8.19832 12.2495 8.14981 12.2979L8.1013 12.4916C8.05279 12.5884 7.03413 15.6871 6.88861 16.0744C6.74309 16.4133 5.96697 16.8975 4.99682 17.1396C4.99682 17.1396 3.49309 17.4785 2.76548 17.4301C2.2804 17.3817 1.89234 17.3817 1.50428 17.3333C1.31025 17.8659 1.11623 18.4469 0.970703 19.0279C1.98936 19.4152 2.86249 19.6089 2.86249 19.6089L16.8812 24.0632L16.3961 25.7578C16.3961 25.7578 17.0267 26.242 17.4147 25.9515C17.9968 25.5157 18.3849 24.5958 18.3849 24.5958C18.3849 24.5958 24.4968 27.0167 27.6013 27.7429C30.7058 28.4692 31.87 25.4189 31.87 25.4189C31.87 25.4189 32.6946 23.3854 33.5192 21.013V20.9646C34.2953 18.5437 34.8774 16.4618 34.8774 16.4618C34.8774 16.4618 35.8476 13.3147 32.9371 12.0074ZM3.5416 18.931C3.5416 18.931 5.57891 17.9627 7.32518 18.1564C9.07145 18.3985 11.3513 18.7374 13.2431 19.8025C15.1349 20.9161 17.0267 23.2402 17.0267 23.2402L3.5416 18.931ZM25.2729 14.0893C25.2729 14.0893 24.9819 15.9292 24.3513 17.8174L24.3028 17.9143C23.6722 19.8025 22.7991 21.4487 22.7991 21.4487C22.7991 21.4487 21.2468 23.8696 20.6162 23.918C19.9856 23.9664 16.0565 20.674 16.0565 20.674L17.7543 15.7355L17.8028 15.5902L19.452 10.6033C19.452 10.6033 24.5938 10.3128 25.0304 10.7485C25.5155 11.2327 25.2729 14.0893 25.2729 14.0893ZM30.2207 25.4673C29.9782 26.1936 29.2991 26.5809 28.7655 26.3873C28.1834 26.1936 27.9409 25.4673 28.1834 24.7411C28.4259 24.0148 29.105 23.6275 29.6386 23.7727C30.1722 24.0148 30.4632 24.7411 30.2207 25.4673ZM33.6162 15.3966C33.3737 16.1229 32.7431 16.5586 32.161 16.3649C31.5789 16.1713 31.3364 15.445 31.5789 14.7187C31.8214 13.9925 32.452 13.6052 33.0341 13.7504C33.5677 13.9441 33.8588 14.6703 33.6162 15.3966Z" fill="#444B8C"/>
<path d="M39.8246 41.4451C39.2425 41.0093 38.1753 40.9609 38.1753 40.9609C38.1753 40.9609 38.5634 34.4246 38.2723 31.2291C38.0783 29.1956 36.7201 28.4209 35.75 28.082L34.1492 28.0336C33.3246 28.2273 31.7723 28.5178 30.0261 28.4694H29.9776C27.4552 28.4694 25.2238 27.8399 25.2238 27.8399C25.2238 27.8399 21.9253 27.9368 21.6343 31.1323C21.3432 34.3278 21.6343 40.8641 21.6343 40.8641C21.6343 40.8641 20.5671 40.9125 19.985 41.3483C19.597 41.6388 19.8395 42.365 19.8395 42.365L21.5858 42.4618L21.6343 51.6127C21.9253 51.6611 22.2649 51.7095 22.5559 51.7579V42.5587C22.5559 42.5587 24.1567 45.0764 24.6417 47.2067C24.9813 48.8045 24.8843 50.4991 24.6417 51.9516C25.0783 51.9516 25.4664 52 25.9029 52C29.1044 52 32.2089 51.419 35.0709 50.3538C35.0223 49.3855 35.0223 48.3203 35.2649 47.352C35.75 45.2216 37.3507 42.7039 37.3507 42.7039L37.3992 49.3855C37.6903 49.2402 37.9813 49.095 38.2723 48.9497L38.2238 42.6071L39.9701 42.5103C39.9701 42.4619 40.2126 41.7356 39.8246 41.4451ZM35.3134 29.4861C36.0895 29.4861 36.6716 29.9703 36.6716 30.5997C36.6716 31.1807 36.041 31.6649 35.3134 31.6649C34.5373 31.6649 33.9552 31.1807 33.9552 30.5513C33.9552 29.9703 34.5858 29.4861 35.3134 29.4861ZM24.6903 29.4377C25.4664 29.4377 26.0485 29.9219 26.0485 30.5513C26.0485 31.1323 25.4179 31.6165 24.6903 31.6165C23.9626 31.6165 23.332 31.1323 23.332 30.5513C23.332 29.9219 23.9626 29.4377 24.6903 29.4377ZM35.2649 44.3985L30.0261 44.3501H29.8805H24.6417C24.6417 44.3501 22.7985 39.5568 23.041 39.0243C23.2835 38.4432 26.097 37.7654 26.097 37.7654C26.097 37.7654 27.9403 37.4749 29.9291 37.4749H30.0261C32.0149 37.4749 33.8582 37.8138 33.8582 37.8138C33.8582 37.8138 36.6716 38.5401 36.9141 39.0727C37.1567 39.6052 35.2649 44.3985 35.2649 44.3985Z" fill="#444B8C"/>
<path d="M26.7764 28.421L31.3361 28.0336L32.6458 28.5662L32.2577 29.5346C32.2577 29.5346 28.0376 29.8735 27.892 29.7767C27.7465 29.6798 26.7764 28.421 26.7764 28.421Z" fill="#444B8C"/>
</svg>
