<svg width="52" height="52" viewBox="0 0 52 52" fill="none" xmlns="http://www.w3.org/2000/svg">
<path d="M11.3133 39.9702V47.4403C7.81747 45.0634 5.00141 41.9105 3.01074 38.1754H9.41971C10.4393 38.1754 11.3133 39 11.3133 39.9702Z" fill="#444B8C"/>
<path d="M48.9412 38.1754C46.9505 41.9105 44.0859 45.0634 40.6387 47.4403V39.9702C40.6387 39 41.5126 38.1754 42.5808 38.1754H48.9412Z" fill="#444B8C"/>
<path d="M23.3055 12.9516H17.2849C16.8965 12.9516 16.5566 12.612 16.5566 12.2239C16.5566 11.8359 16.8965 11.4963 17.2849 11.4963H23.3055C23.6939 11.4963 24.0338 11.8359 24.0338 12.2239C24.0338 12.612 23.6939 12.9516 23.3055 12.9516Z" fill="#444B8C"/>
<path d="M9.75982 12.2239C9.75982 12.612 9.41996 12.9516 9.03153 12.9516H3.39941C3.69073 12.4665 3.98205 11.9814 4.27336 11.4963H8.98298C9.41996 11.4963 9.75982 11.8359 9.75982 12.2239Z" fill="#444B8C"/>
<path d="M37.4822 12.9516H31.4617C31.0733 12.9516 30.7334 12.612 30.7334 12.2239C30.7334 11.8359 31.0733 11.4963 31.4617 11.4963H37.4822C37.8707 11.4963 38.2105 11.8359 38.2105 12.2239C38.2105 12.612 37.8707 12.9516 37.4822 12.9516Z" fill="#444B8C"/>
<path d="M48.5042 12.9516H45.8338C45.4453 12.9516 45.1055 12.612 45.1055 12.2239C45.1055 11.8359 45.4453 11.4963 45.8338 11.4963H47.5817C47.9215 11.9814 48.2128 12.4665 48.5042 12.9516Z" fill="#444B8C"/>
<path d="M35.5405 50.1082C35.8318 50.0112 36.1231 49.8657 36.4144 49.7202L31.899 37.9329C31.899 37.9329 31.462 36.3807 30.7337 35.0225C30.0055 33.6643 29.7141 32.2091 28.5489 31.8695C27.6264 31.5785 22.9168 33.0822 20.9746 33.7128C20.8775 33.7613 20.4406 33.9068 20.2949 34.0038C18.7898 34.6829 15.1969 36.2837 14.7113 37.1083C14.0802 38.1269 14.857 39.4366 15.1969 40.8918C15.5367 42.3956 16.265 43.8508 16.265 43.8508L19.0811 51.0784C19.421 51.1754 19.7608 51.2724 20.1007 51.3209L17.2361 43.9478C17.3817 43.9963 19.3239 44.9665 20.1978 46.4217C21.0718 47.8284 22.1885 49.7201 22.5769 51.806C23.6936 51.9515 24.8103 52 25.927 52C28.9373 52 31.8019 51.5149 34.5209 50.5448C33.8411 49.9142 33.1128 49.1381 32.6273 48.362C31.4135 46.5187 30.9765 44.2388 30.6366 42.4926C30.3453 40.7948 31.2193 38.6605 31.2193 38.6605L35.5405 50.1082ZM28.8402 41.959C28.4518 42.1045 25.3929 43.2687 25.2958 43.3172L25.1016 43.4142C25.0045 43.4627 21.9457 44.5784 21.5573 44.7239C21.1689 44.8209 20.3435 44.5299 19.5181 43.9478C19.5181 43.9478 18.3042 42.9776 17.8673 42.3956C16.7991 40.8918 16.3621 39.8732 16.9933 39.4851C17.4303 39.1941 21.4602 37.5448 23.2081 36.7687L23.2566 36.7202C25.0531 36.1381 27.6264 35.3135 28.1605 35.2165C28.9373 35.071 29.1801 41.765 28.8402 41.959Z" fill="#444B8C"/>
<path d="M19.0327 22.9924C19.0327 22.9924 18.9356 19.6939 15.7796 19.3543C12.5752 19.0148 6.02054 19.2574 6.02054 19.2574C6.02054 19.2574 5.97199 18.2387 5.53501 17.6081C5.2437 17.22 4.51541 17.4626 4.51541 17.4626L4.4183 19.2088H0.87395C0.776844 19.4999 0.728291 19.8394 0.631186 20.1305L4.3212 20.179C4.3212 20.179 2.23343 21.4887 0.291317 22.0708C0.0971055 23.332 0 24.6417 0 25.9513C0 28.5222 0.388422 31.0446 1.06816 33.3729C2.6704 34.052 4.12698 34.9737 4.12698 34.9737H1.60224C1.69935 35.2647 1.79645 35.5558 1.94211 35.8468H4.22409L4.27264 37.5931C4.27264 37.5931 5.04949 37.8356 5.3408 37.4476C5.77778 36.8655 5.87488 35.8468 5.87488 35.8468C5.87488 35.8468 11.944 36.2834 15.1485 36.0408C15.8768 35.9923 16.6536 35.4588 17.1391 35.1677C17.7703 34.7797 18.45 34.4886 18.6443 33.955C18.9841 33.2274 19.0327 32.5483 19.0327 32.5483C19.0327 32.5483 19.2269 30.3655 19.2754 27.8431V27.7946C19.1783 25.1752 19.0327 22.9924 19.0327 22.9924ZM9.32213 27.5521V27.6491C9.27358 29.6379 8.93371 31.4812 8.93371 31.4812C8.93371 31.4812 8.20542 34.2461 7.62278 34.5371C7.04015 34.7797 2.28198 32.8394 2.28198 32.8394L2.37908 27.6006V27.4551L2.42764 22.2163C2.42764 22.2163 7.28291 20.373 7.81699 20.6641C8.35107 20.9551 9.03081 23.72 9.03081 23.72C9.03081 23.72 9.37068 25.5633 9.32213 27.5521ZM16.1681 34.3916C15.5854 34.3916 15.0999 33.761 15.0999 33.0334C15.0999 32.2573 15.634 31.6752 16.2166 31.6752C16.8478 31.6752 17.2848 32.3058 17.2848 33.0819C17.2362 33.761 16.7507 34.3916 16.1681 34.3916ZM16.3137 23.7685C15.7311 23.7685 15.2456 23.1379 15.2456 22.3618C15.2456 21.5857 15.7311 21.0036 16.3623 21.0036C16.9449 21.0036 17.4304 21.6342 17.4304 22.3618C17.4304 23.1864 16.9449 23.7685 16.3137 23.7685Z" fill="#444B8C"/>
</svg>
