<svg width="52" height="52" viewBox="0 0 52 52" fill="none" xmlns="http://www.w3.org/2000/svg">
<path d="M26.6293 25.2477C26.6293 25.2477 26.484 21.8976 23.2885 21.6062C20.0445 21.3149 13.4114 21.6062 13.4114 21.6062C13.4114 21.6062 13.363 20.5381 12.9272 19.9554C12.6367 19.567 11.862 19.8098 11.862 19.8098L11.7652 21.6062L0.4356 21.6548C0.4356 21.8005 0.387182 21.8976 0.387182 22.0432C0.338765 22.1889 0.338765 22.3345 0.338765 22.4802C0.338765 22.5287 0.338765 22.5773 0.338765 22.6258H11.6684C11.6684 22.6258 9.10227 24.2766 6.9235 24.7622C4.74472 25.2477 2.4207 24.8593 0.677685 24.5194C0.484017 24.4708 0.290348 24.4223 0.145097 24.3737C0.0966797 24.9564 0.0966797 25.4905 0.0966797 26.0731C0.0966797 28.1609 0.338765 30.2001 0.822937 32.1422C0.968188 32.6763 1.11344 33.2103 1.25869 33.7444C1.45236 34.3756 1.64603 35.0068 1.88811 35.5894C3.38904 35.3467 5.18048 35.201 6.87508 35.5409C9.05385 36.0264 11.62 37.6286 11.62 37.6286L2.85646 37.6772C3.00171 37.9685 3.14696 38.2598 3.34063 38.5512L11.7168 38.454L11.8136 40.2505C11.8136 40.2505 12.5883 40.4933 12.8788 40.1048C13.3146 39.5222 13.4114 38.454 13.4114 38.454C13.4114 38.454 20.0445 38.8425 23.2885 38.5512C26.5324 38.2598 26.6777 34.9582 26.6777 34.9582C26.6777 34.9582 26.8229 32.7248 26.8714 30.1515V30.103C26.7745 27.4811 26.6293 25.2477 26.6293 25.2477ZM16.849 30.0544C16.849 32.0936 16.5101 33.9872 16.5101 33.9872C16.5101 33.9872 15.7838 36.8518 15.2028 37.0946C14.6218 37.3373 9.78011 35.3952 9.78011 35.3952L9.82852 30.0544V29.9088V24.568C9.82852 24.568 14.7187 22.6744 15.2997 22.9172C15.8807 23.2085 16.5585 26.0245 16.5585 26.0245C16.5585 26.0245 16.849 27.9181 16.849 29.9573V30.0544ZM23.8211 36.8518C23.1917 36.8518 22.7075 36.2206 22.7075 35.4438C22.7075 34.6669 23.2401 34.0357 23.8211 34.0357C24.4505 34.0357 24.9347 34.6669 24.9347 35.4438C24.8863 36.2692 24.4021 36.8518 23.8211 36.8518ZM23.8695 26.0731C23.2401 26.0731 22.7559 25.4419 22.7559 24.6651C22.7559 23.8882 23.2401 23.257 23.8695 23.257C24.4989 23.257 24.9831 23.8882 24.9831 24.6651C24.9831 25.4419 24.4989 26.0731 23.8695 26.0731Z" fill="#444B8C"/>
<path d="M51.854 23.8391C51.2245 24.0819 50.5951 24.3247 49.9657 24.4703C47.7869 24.9559 45.4629 24.5674 43.7199 24.2276C41.9769 23.8877 40.3307 22.334 40.3307 22.334H51.7087C51.7087 22.1883 51.6603 22.0427 51.6603 21.897C51.6119 21.7514 51.6119 21.5572 51.5635 21.3629L39.8949 21.4115C39.8949 21.4115 38.2487 21.2658 36.7478 21.4601C35.1985 21.6543 33.6975 21.4115 32.9713 22.3826C32.3903 23.1594 32.0998 28.1603 32.0029 30.2481C32.0029 30.3452 32.0029 30.8307 32.0029 31.025C32.0998 32.7243 32.3419 36.7056 32.9229 37.4825C33.6491 38.4535 35.15 38.1622 36.6994 38.3564C38.2487 38.5506 39.8949 38.405 39.8949 38.405L48.9489 38.3079C49.0942 38.0166 49.2394 37.7252 49.3847 37.4339L40.3307 37.4825C40.3307 37.4825 42.0253 35.8802 43.7199 35.5404C45.4629 35.2005 47.7869 34.8121 49.9657 35.249C50.0625 35.2976 50.1594 35.2976 50.2562 35.3462C50.4499 34.8121 50.6435 34.2294 50.8372 33.6468C50.8372 33.5983 50.8856 33.5011 50.8856 33.4526C51.6119 31.0735 51.9992 28.5973 51.9992 25.9755C51.9508 25.2957 51.9024 24.5674 51.854 23.8391ZM42.5579 29.6169V29.8597C42.5579 29.9568 42.5579 33.3069 42.5094 33.6954C42.5094 34.0838 41.88 34.7635 41.0569 35.3462C41.0569 35.3462 39.7013 36.123 38.975 36.3172C37.1836 36.8027 36.0216 36.8513 35.8763 36.0744C35.7795 35.5404 35.6342 31.1221 35.5374 29.1799V29.1314C35.6342 27.1893 35.7795 24.4703 35.8763 23.9363C36.0216 23.1594 42.5094 25.3443 42.5094 25.7327C42.5579 26.1697 42.5579 29.5684 42.5579 29.6169Z" fill="#444B8C"/>
<path d="M30.9874 10.7783H18.6895V14.0799H30.9874V10.7783Z" fill="#444B8C"/>
<path d="M32.3425 7.33154H30.6963V17.4791H32.3425V7.33154Z" fill="#444B8C"/>
<path d="M30.7456 35.7347H29.5352C29.3415 35.7347 29.1963 35.589 29.1963 35.3948C29.1963 35.2006 29.3415 35.0549 29.5352 35.0549H30.7456C30.9393 35.0549 31.0846 35.2006 31.0846 35.3948C31.0846 35.589 30.8909 35.7347 30.7456 35.7347Z" fill="#444B8C"/>
<path d="M30.1153 37.5315C30.0185 37.5315 29.9216 37.483 29.8248 37.3859C29.728 37.2402 29.7764 37.046 29.9216 36.9489L30.9384 36.3663C31.0836 36.2692 31.2773 36.3177 31.3741 36.4634C31.471 36.609 31.4226 36.8032 31.2773 36.9003L30.2605 37.483C30.2121 37.5315 30.1637 37.5315 30.1153 37.5315Z" fill="#444B8C"/>
<path d="M31.0355 34.4727C30.9871 34.4727 30.9387 34.4728 30.8903 34.4242L29.9704 34.0358C29.8251 33.9872 29.7283 33.793 29.8251 33.5988C29.8735 33.4531 30.0672 33.356 30.2609 33.4532L31.1808 33.8416C31.326 33.8901 31.4229 34.0843 31.326 34.2785C31.2776 34.3756 31.1324 34.4727 31.0355 34.4727Z" fill="#444B8C"/>
<path d="M29.5342 24.3734H30.7446" stroke="#444B8C" stroke-width="1.3" stroke-miterlimit="10" stroke-linecap="round"/>
<path d="M31.132 23.1597L30.1152 22.577" stroke="#444B8C" stroke-width="1.3" stroke-miterlimit="10" stroke-linecap="round"/>
<path d="M30.1152 26.0726L31.0352 25.6842" stroke="#444B8C" stroke-width="1.3" stroke-miterlimit="10" stroke-linecap="round"/>
<path d="M30.7456 24.7136H29.5352C29.3415 24.7136 29.1963 24.5679 29.1963 24.3737C29.1963 24.1795 29.3415 24.0338 29.5352 24.0338H30.7456C30.9393 24.0338 31.0846 24.1795 31.0846 24.3737C31.0846 24.5679 30.8909 24.7136 30.7456 24.7136Z" fill="#444B8C"/>
<path d="M31.1325 23.4992C31.0841 23.4992 31.0356 23.4992 30.9872 23.4507L29.9705 22.868C29.8252 22.7709 29.7768 22.5767 29.8736 22.4311C29.9705 22.2854 30.1641 22.2369 30.3094 22.334L31.3261 22.9166C31.4714 23.0137 31.5198 23.2079 31.423 23.3536C31.3261 23.4021 31.2293 23.4992 31.1325 23.4992Z" fill="#444B8C"/>
<path d="M30.1153 26.3642C29.97 26.3642 29.8732 26.3156 29.8248 26.17C29.7764 26.0243 29.8248 25.8301 29.97 25.733L30.89 25.3446C31.0352 25.296 31.2289 25.3446 31.3257 25.4902C31.3741 25.6359 31.3257 25.8301 31.1805 25.9272L30.2606 26.3156C30.2121 26.3642 30.1637 26.3642 30.1153 26.3642Z" fill="#444B8C"/>
</svg>
