<svg width="52" height="52" viewBox="0 0 52 52" fill="none" xmlns="http://www.w3.org/2000/svg">
<path d="M3.29879 31.0448C3.29879 31.4814 2.95924 31.7724 2.57118 31.7724H0.630888C0.533873 31.2873 0.436859 30.8023 0.339844 30.3172H2.57118C2.95924 30.3657 3.29879 30.6568 3.29879 31.0448Z" fill="#444B8C"/>
<path d="M8.8766 31.7724H6.59675C6.20869 31.7724 5.86914 31.4329 5.86914 31.0448C5.86914 30.6568 6.20869 30.3172 6.59675 30.3172H8.8766C9.26466 30.3172 9.60421 30.6568 9.60421 31.0448C9.60421 31.4814 9.31316 31.7724 8.8766 31.7724Z" fill="#444B8C"/>
<path d="M15.2311 31.7724H12.9512C12.5632 31.7724 12.2236 31.4329 12.2236 31.0448C12.2236 30.6568 12.5632 30.3172 12.9512 30.3172H15.2311C15.6191 30.3172 15.9587 30.6568 15.9587 31.0448C15.9587 31.4814 15.6191 31.7724 15.2311 31.7724Z" fill="#444B8C"/>
<path d="M21.5371 31.7724H19.3057C18.9177 31.7724 18.5781 31.4329 18.5781 31.0448C18.5781 30.6568 18.9177 30.3172 19.3057 30.3172H21.5856C21.9736 30.3172 22.3132 30.6568 22.3132 31.0448C22.2647 31.4814 21.9251 31.7724 21.5371 31.7724Z" fill="#444B8C"/>
<path d="M51.9028 24.3023C51.3692 23.4292 50.2535 22.1195 48.1192 22.459C44.9662 22.9926 38.7088 25.0299 38.7088 25.0299C38.7088 25.0299 38.3692 24.0598 37.8356 23.5747C37.4476 23.2836 36.817 23.7202 36.817 23.7202L37.1565 25.418L22.9439 29.3471C22.9439 29.3471 21.3431 29.6381 19.9364 30.2202C18.5297 30.8023 17.026 30.9478 16.5894 32.0635C16.2013 32.9851 17.22 37.7874 17.6566 39.7762C17.7051 39.8732 17.8021 40.3583 17.8506 40.5038C18.3842 42.1045 19.6454 45.7911 20.373 46.3732C21.3431 47.1008 22.7013 46.4702 24.2051 46.2277C25.7088 46.0336 27.2125 45.4516 27.2125 45.4516L41.3767 41.4739L41.9102 43.1232C41.9102 43.1232 42.6864 43.1717 42.8804 42.7351C43.1229 42.056 42.9289 41.0374 42.9289 41.0374C42.9289 41.0374 45.3543 40.5523 47.9252 39.8732C49.1864 37.8844 50.1565 35.7501 50.8356 33.5187C51.5632 31.1418 51.9513 28.668 51.9513 26.0486C51.9998 25.418 51.9513 24.8359 51.9028 24.3023ZM37.302 26.3881C37.302 26.3881 35.3132 28.6195 33.3729 29.6381C31.4327 30.6568 29.1043 30.8993 27.358 31.0448C25.6118 31.1904 23.623 30.1232 23.623 30.1232L37.302 26.3881ZM25.9513 43.7053C24.3506 44.6269 23.2834 44.9665 22.9439 44.2874C22.7013 43.8023 21.4401 39.6792 20.858 37.8359V37.7874C20.47 35.8956 19.8879 33.3247 19.8394 32.7911C19.7909 32.015 26.4849 32.403 26.6304 32.7426C26.7759 33.1306 27.6006 36.3321 27.6491 36.4292L27.6976 36.6232C27.6976 36.7202 28.5707 39.8732 28.6677 40.3098C28.7647 40.6978 28.3282 41.4739 27.6976 42.2501C27.6491 42.2501 26.6304 43.3172 25.9513 43.7053ZM27.455 44.4814C27.455 44.4814 28.6192 42.5411 30.1715 41.765C31.7237 40.9889 33.858 40.0187 36.0409 39.8732C38.2237 39.7762 41.0856 40.6493 41.0856 40.6493L27.455 44.4814ZM44.4811 39.2426C43.9961 39.6307 38.9028 39.0486 38.9028 39.0486L37.5931 33.9553L37.5446 33.8098L36.1864 28.7165C36.1864 28.7165 40.358 25.6605 40.9401 25.7575C41.5707 25.8545 42.9289 28.3769 42.9289 28.3769C42.9289 28.3769 43.705 30.0747 44.2386 32.015V32.112C44.7237 34.0038 44.9177 35.8956 44.9177 35.8956C44.9177 35.8956 44.9177 38.8545 44.4811 39.2426ZM49.8655 26.5336C49.2834 26.6792 48.6528 26.2426 48.4587 25.515C48.2647 24.7874 48.5558 24.0598 49.1378 23.9142C49.7199 23.7687 50.3505 24.2053 50.5446 24.9329C50.7871 25.6605 50.4475 26.3881 49.8655 26.5336Z" fill="#444B8C"/>
<path d="M22.6048 16.4439C22.6048 16.4439 22.5077 13.1454 19.3063 12.8544C16.1048 12.5633 9.55627 12.8058 9.55627 12.8058C9.55627 12.8058 9.50777 11.7872 9.0712 11.1566C8.78016 10.7685 8.05255 11.0111 8.05255 11.0111L7.95553 12.7573H3.63837C3.44434 13.0484 3.25031 13.3879 3.10479 13.679H7.85852C7.85852 13.679 5.33613 15.2797 3.20181 15.7648C2.81375 15.8618 2.42569 15.9103 2.03763 15.9588V16.0073C0.776439 19.0633 0.0488281 22.4588 0.0488281 25.9999C0.0488281 26.0969 0.0488281 26.1454 0.0488281 26.2424C1.06748 26.1939 2.08614 26.1939 3.10479 26.4365C5.23912 26.9215 7.7615 28.5223 7.7615 28.5223H0.19435C0.242858 28.8133 0.242858 29.1044 0.291365 29.3954L7.85852 29.3469L7.95553 31.0932C7.95553 31.0932 8.68314 31.3357 8.97419 30.9476C9.41075 30.3656 9.45926 29.3469 9.45926 29.3469C9.45926 29.3469 16.0078 29.735 19.2092 29.4924C22.4107 29.2499 22.5563 25.9514 22.5563 25.9514C22.5563 25.9514 22.7018 23.7685 22.7503 21.1976V21.1491C22.7018 18.6267 22.6048 16.4439 22.6048 16.4439ZM12.9518 21.1491C12.9033 23.1379 12.6122 24.9812 12.6122 24.9812C12.6122 24.9812 11.8846 27.7462 11.3025 28.0372C10.7205 28.2797 5.96673 26.3394 5.96673 26.3394L6.06374 21.1006V20.9551L6.11225 15.7163C6.11225 15.7163 10.9145 13.873 11.4966 14.1155C12.0787 14.3581 12.7093 17.1715 12.7093 17.1715C12.7093 17.1715 13.0003 19.0148 13.0003 21.0036V21.1491H12.9518ZM19.7913 27.8432C19.2092 27.8432 18.7242 27.2126 18.7242 26.485C18.7242 25.7088 19.2092 25.1267 19.8398 25.1267C20.4704 25.1267 20.907 25.7573 20.907 26.5335C20.8585 27.2611 20.3734 27.8432 19.7913 27.8432ZM19.8883 17.22C19.3063 17.22 18.8212 16.5894 18.8212 15.8618C18.8212 15.0857 19.3063 14.5036 19.9369 14.5036C20.5189 14.5036 21.004 15.1342 21.004 15.8618C21.004 16.6379 20.5189 17.22 19.8883 17.22Z" fill="#444B8C"/>
<path d="M13.0001 39.7761C13.0001 41.7649 12.03 42.8806 10.2837 42.8806C8.48893 42.8806 7.42177 41.7649 7.42177 39.7761V38.2239H5.19043V36.4776H13.0001V39.7761ZM8.9255 38.2239V39.6791C8.9255 40.6492 9.36206 41.2313 10.2837 41.2313C11.1568 41.2313 11.5934 40.6492 11.5934 39.6791V38.2239H8.9255Z" fill="#444B8C"/>
</svg>
