<svg width="52" height="52" viewBox="0 0 52 52" fill="none" xmlns="http://www.w3.org/2000/svg">
<path d="M46.8672 26.1458C46.8672 26.1458 46.8188 25.1252 46.383 24.4934C46.0925 24.1047 45.3663 24.3476 45.3663 24.3476L45.2695 26.0972L30.5506 26.0486C30.5506 26.0486 28.9529 25.9028 27.4519 26.0972C25.951 26.2916 24.4501 26.0486 23.7238 26.9719C23.1428 27.7495 22.8039 32.6579 22.707 34.6991C22.707 34.7962 22.707 35.2822 22.707 35.428C22.8039 37.0804 22.9975 41.0168 23.5785 41.7458C24.3048 42.7177 25.8057 42.4261 27.3067 42.6691C28.8076 42.8635 30.4538 42.7177 30.4538 42.7177L45.1242 42.6691L45.1726 43.5925C45.8989 42.8149 46.5767 41.9402 47.2061 41.0654C45.6084 40.5794 43.3328 39.6075 43.3328 39.6075L43.4296 34.3589V34.2131L43.478 28.9644C43.478 28.9644 48.2713 27.1177 48.8523 27.4093C49.4333 27.7009 50.0628 30.471 50.0628 30.471C50.0628 30.471 50.3533 32.3177 50.3048 34.3102V34.4074C50.3048 34.699 50.3048 35.0392 50.2564 35.3308C50.4985 34.699 50.7406 34.0673 50.9343 33.4355C51.5637 31.2972 51.951 29.0616 51.9994 26.7775C51.9994 26.5345 51.9994 26.243 51.9994 26C49.2881 26.0486 46.8672 26.1458 46.8672 26.1458ZM29.5823 40.7252C27.8393 41.2112 26.6772 41.2112 26.532 40.4822C26.4352 39.9476 26.2899 35.6224 26.2415 33.7271V33.6785C26.3383 31.7831 26.4836 29.1102 26.6288 28.5757C26.7741 27.7981 33.1651 29.985 33.1651 30.3738C33.1651 30.8112 33.1651 34.0673 33.1167 34.1645V34.4074C33.1167 34.5046 33.0683 37.8093 33.0683 38.1981C33.0199 38.5869 32.4389 39.2187 31.6158 39.8019C31.6158 39.7533 30.3085 40.5308 29.5823 40.7252ZM44.9789 41.843H30.8411C30.8411 41.843 32.4873 40.2878 34.1819 39.9476C35.8765 39.6561 38.2005 39.2673 40.3309 39.7047C42.4613 40.2392 44.9789 41.843 44.9789 41.843ZM40.4761 29.1103C38.3458 29.5477 36.0218 29.1588 34.3272 28.8187C32.6326 28.4785 30.9864 26.9234 30.9864 26.9234L45.1242 27.0205C45.1242 27.0691 42.6065 28.6729 40.4761 29.1103Z" fill="#444B8C"/>
<path d="M14.8648 19.0505H8.86102C8.47369 19.0505 8.13477 18.7103 8.13477 18.3215C8.13477 17.9327 8.47369 17.5925 8.86102 17.5925H14.8648C15.2521 17.5925 15.591 17.9327 15.591 18.3215C15.5426 18.7103 15.2521 19.0505 14.8648 19.0505Z" fill="#444B8C"/>
<path d="M29.0503 19.0505H23.0466C22.6592 19.0505 22.3203 18.7103 22.3203 18.3215C22.3203 17.9327 22.6592 17.5925 23.0466 17.5925H29.0503C29.4376 17.5925 29.7766 17.9327 29.7766 18.3215C29.7766 18.7103 29.4376 19.0505 29.0503 19.0505Z" fill="#444B8C"/>
<path d="M43.2847 19.0505H37.2809C36.8936 19.0505 36.5547 18.7103 36.5547 18.3215C36.5547 17.9327 36.8936 17.5925 37.2809 17.5925H43.2847C43.672 17.5925 44.0109 17.9327 44.0109 18.3215C44.0109 18.7103 43.672 19.0505 43.2847 19.0505Z" fill="#444B8C"/>
<path d="M2.1782 18.3215C2.1782 18.7103 1.83928 19.0505 1.45195 19.0505H0.967773C1.01619 18.8075 1.11303 18.5645 1.16144 18.3701C1.25828 18.1271 1.30669 17.8841 1.40353 17.5925H1.45195C1.83928 17.5925 2.1782 17.9327 2.1782 18.3215Z" fill="#444B8C"/>
<path d="M50.9837 19.0505H50.0153C49.628 19.0505 49.2891 18.7103 49.2891 18.3215C49.2891 17.9327 49.628 17.5925 50.0153 17.5925H50.4995C50.6447 18.0299 50.79 18.4673 50.8868 18.9047C50.9837 18.9533 50.9837 19.0019 50.9837 19.0505Z" fill="#444B8C"/>
<path d="M22.6593 29.0617V29.0131C22.5624 26.486 22.3688 24.2505 22.3688 24.2505C22.3688 24.2505 22.1751 20.9945 18.9795 20.7515C15.784 20.5571 9.24769 20.9945 9.24769 20.9945C9.24769 20.9945 9.15085 19.9739 8.7151 19.3907C8.42459 19.0019 7.69834 19.2449 7.69834 19.2449L7.64992 20.9945L0.435755 21.2374C0.435755 21.286 0.435755 21.2861 0.435755 21.3346C0.387338 21.6262 0.33892 21.9178 0.290503 22.1608L7.55308 21.9664C7.55308 21.9664 5.08381 23.6673 2.95345 24.2019C1.98511 24.4449 1.01676 24.4935 0.0484172 24.4935C0.0484172 24.7851 0 25.0767 0 25.3683C0 25.5627 0 25.8057 0 26.0001C0 26.243 0 26.5346 0 26.7776C0.0484172 28.5757 0.290503 30.3739 0.726258 32.0262C0.919927 32.901 1.21043 33.7758 1.50093 34.6505C2.08194 34.6505 2.61453 34.6991 3.19554 34.7963C5.32589 35.2337 7.94042 36.7402 7.94042 36.7402L2.46928 36.9346C2.61453 37.2262 2.75978 37.5178 2.85662 37.8094L8.03726 37.615L8.18251 39.3645C8.18251 39.3645 8.95718 39.6075 9.19927 39.2188C9.58661 38.6356 9.68344 37.5664 9.68344 37.5664C9.68344 37.5664 16.2198 37.7608 19.4153 37.4206C22.5624 37.0804 22.6593 33.7758 22.6593 33.7758C22.6593 33.7758 22.7077 31.5888 22.6593 29.0617ZM12.6853 33.144C12.6853 33.144 12.0559 35.9627 11.4749 36.2543C10.9423 36.5458 6.10057 34.7477 6.10057 34.7477L6.00373 29.4991V29.3533L5.85848 24.0561C5.85848 24.0561 10.6034 22.0636 11.1844 22.3066C11.7654 22.5496 12.4916 25.3683 12.4916 25.3683C12.4916 25.3683 12.8306 27.215 12.879 29.2075V29.3047C12.9274 31.2487 12.6853 33.144 12.6853 33.144ZM18.689 23.23C18.8343 22.744 19.2216 22.4038 19.6574 22.3552C20.2384 22.3552 20.771 22.9384 20.771 23.7159C20.8194 24.4935 20.3352 25.0767 19.7058 25.1253C19.4153 25.1253 19.1732 24.9795 18.9311 24.7365C18.7375 24.4935 18.5922 24.1533 18.5438 23.7646C18.5922 23.6188 18.6406 23.4244 18.689 23.23ZM19.9479 35.7683C19.3669 35.7683 18.8343 35.1851 18.8343 34.4075C18.8343 33.63 19.3185 32.9982 19.8995 32.9982C20.4805 32.9982 21.0131 33.5814 21.0131 34.3589C21.0131 35.1365 20.5289 35.7683 19.9479 35.7683Z" fill="#444B8C"/>
<path d="M20.6747 19.7308L21.062 18.5645C21.1105 18.4187 21.3041 18.3215 21.4494 18.3701C21.5946 18.4187 21.6915 18.613 21.643 18.7588L21.2557 19.9252C21.2073 20.071 21.0136 20.1682 20.8684 20.1196C20.7231 20.071 20.6263 19.9252 20.6747 19.7308Z" fill="#444B8C"/>
<path d="M21.691 20.5086C21.691 20.46 21.7394 20.4114 21.7878 20.3628L22.6593 19.5852C22.8045 19.488 22.9982 19.488 23.0951 19.6338C23.1919 19.7796 23.1919 19.974 23.0466 20.0712L22.1751 20.8488C22.0299 20.946 21.8362 20.9459 21.7394 20.8001C21.691 20.7029 21.6425 20.6058 21.691 20.5086Z" fill="#444B8C"/>
<path d="M19.2696 18.6129C19.318 18.5157 19.4148 18.4185 19.5601 18.4185C19.7537 18.4185 19.899 18.5157 19.899 18.7101L19.9958 19.6821C19.9958 19.8765 19.899 20.0223 19.7053 20.0223C19.5117 20.0223 19.3664 19.925 19.3664 19.7306L19.2696 18.7587C19.2211 18.7101 19.2696 18.6615 19.2696 18.6129Z" fill="#444B8C"/>
</svg>
