<svg width="52" height="52" viewBox="0 0 52 52" fill="none" xmlns="http://www.w3.org/2000/svg">
<path d="M14.5376 40.9394C12.2599 40.9394 10.4668 39.1447 10.4668 36.8648C10.4668 34.5849 12.2599 32.7902 14.5376 32.7902C16.8153 32.7902 18.6084 34.5849 18.6084 36.8648C18.6084 39.1447 16.7669 40.9394 14.5376 40.9394ZM14.5376 34.6335C13.2776 34.6335 12.4053 35.6521 12.4053 36.7678C12.4053 38.029 13.423 38.9021 14.5376 38.9021C15.7976 38.9021 16.67 37.8835 16.67 36.7678C16.67 35.6521 15.6523 34.6335 14.5376 34.6335Z" fill="#444B8C"/>
<path d="M33.293 36.9132C33.293 34.6333 35.0861 32.8386 37.3638 32.8386C39.6415 32.8386 41.4346 34.6333 41.4346 36.9132C41.4346 39.193 39.6415 40.9878 37.3638 40.9878C35.0861 40.9393 33.293 39.1445 33.293 36.9132ZM35.183 36.9132C35.183 38.1744 36.2007 39.0475 37.3153 39.0475C38.5753 39.0475 39.4477 38.0289 39.4477 36.9132C39.4477 35.652 38.43 34.7789 37.3153 34.7789C36.2007 34.6333 35.183 35.652 35.183 36.9132Z" fill="#444B8C"/>
<path d="M51.9031 28.2306C51.7577 30.0254 51.4185 31.8202 50.8854 33.518C50.4492 35.0702 49.8193 36.5254 49.0923 37.9321H42.9376C42.9376 37.9321 43.2768 31.4806 37.4129 31.4806C31.549 31.4806 31.7428 36.3314 31.7428 36.3314C31.7428 36.3314 28.3505 36.6709 27.4297 34.1486L27.5266 32.3538L27.6235 31.1411C27.9628 30.559 28.2051 30.1224 28.8836 29.7829C29.9013 29.1038 31.2582 28.6672 32.5182 28.3277C34.1175 27.8911 35.5714 27.7456 36.0075 27.6486C36.1044 27.6486 36.2498 27.6486 36.2498 27.6486H41.4353C41.4353 27.6486 45.1669 24.6411 49.2861 22.5068C49.8192 22.2157 50.7885 22.0702 51.6123 21.8762C51.7093 22.3612 51.7577 22.7978 51.8062 23.2829C51.2731 23.4284 50.2554 23.6224 50.0131 23.768C47.9777 25.0292 45.3607 28.0366 45.3607 28.0366H51.8062C51.9031 28.1336 51.9031 28.1821 51.9031 28.2306Z" fill="#444B8C"/>
<path d="M27.5752 32.257L30.8706 31.5779L34.6992 29.201L36.153 27.6003L34.4568 26.8242L32.5184 28.2794L29.3683 27.8428L28.9321 29.7831L27.6721 30.0257L27.5752 31.2869V32.257Z" fill="#444B8C"/>
<path d="M24.5707 30.8019H23.8923V25.6601L22.923 25.9027L22.293 24.6415L20.7907 26.1452L19.9184 24.6415L19.046 25.8056H18.1737C18.1737 25.8056 11.1467 21.2459 8.82048 20.7123C7.56047 20.4213 3.19887 20.3728 0.678831 20.3728C0.291133 22.1676 0.0488281 24.0594 0.0488281 25.9997C0.0488281 28.0855 0.291139 30.1228 0.775762 32.0631C1.115 33.5668 1.64808 35.022 2.22963 36.4288H9.11126C9.11126 36.4288 9.59589 31.384 14.7329 31.384C19.8699 31.384 20.2091 36.3803 20.2091 36.3803C20.2091 36.3803 22.3415 36.2347 23.3107 34.44C23.8438 33.4698 23.553 34.0034 24.2315 33.6638C24.9099 33.3243 24.5707 30.8019 24.5707 30.8019ZM10.8559 28.037H2.37501L2.56886 22.7012H6.88199C9.06279 22.7012 10.8559 24.4474 10.9044 26.5818C10.9528 27.4064 10.8559 28.037 10.8559 28.037Z" fill="#444B8C"/>
<path d="M36.0068 14.5522L29.6582 9.4104V19.7425L36.0068 14.5522Z" fill="#444B8C"/>
<path d="M30.3262 16.2067V12.9082L18.9375 12.9082V16.2067L30.3262 16.2067Z" fill="#444B8C"/>
</svg>
