<svg width="52" height="52" viewBox="0 0 52 52" fill="none" xmlns="http://www.w3.org/2000/svg">
<path d="M15.5912 41.4465C13.5285 41.4465 11.8975 39.8155 11.8975 37.7528C11.8975 35.6901 13.5285 34.0591 15.5912 34.0591C17.6539 34.0591 19.2849 35.6901 19.2849 37.7528C19.2369 39.8155 17.606 41.4465 15.5912 41.4465ZM15.5912 35.738C14.4879 35.738 13.6244 36.6495 13.6244 37.6569C13.6244 38.7602 14.5358 39.5757 15.5912 39.5757C16.6945 39.5757 17.558 38.6642 17.558 37.6569C17.51 36.6495 16.5986 35.738 15.5912 35.738Z" fill="#444B8C"/>
<path d="M24.6087 33.5796V35.2106C23.7932 37.4652 20.6272 37.2734 20.6272 37.2734C20.6272 37.2734 20.8191 32.8601 15.4943 32.8601C10.1696 32.8601 10.4574 38.6645 10.4574 38.6645H3.50172C1.87072 36.0261 0.815368 33.052 0.335663 29.79H8.34674C8.34674 29.79 5.99619 27.0077 4.0294 25.9044C2.59028 24.9929 0.767409 24.5612 0.0478516 24.3693C0.0478516 23.8416 0.143784 23.4579 0.143784 22.9302C5.46851 23.218 12.4242 29.3582 12.4242 29.3582H16.5017C16.5017 29.3582 16.5977 29.3582 16.6936 29.3582C17.1253 29.4542 18.4205 29.5501 19.8597 29.9818C20.963 30.2697 22.2102 30.7014 23.1216 31.325C23.6493 31.7567 24.129 32.1405 24.3689 32.5723L24.6087 33.5796Z" fill="#444B8C"/>
<path d="M24.6085 33.5791L21.5384 32.9555L17.9406 30.7969L16.6934 29.3577L18.1325 28.6382L19.8594 29.9814L22.8336 29.5496L23.1214 31.2766L24.2247 31.4685L24.4166 32.5718L24.6085 33.5791Z" fill="#444B8C"/>
<path d="M32.5723 37.8004C32.5723 35.7377 34.2033 34.1067 36.266 34.1067C38.3287 34.1067 39.9597 35.7377 39.9597 37.8004C39.9597 39.8631 38.3287 41.4941 36.266 41.4941C34.2033 41.4462 32.5723 39.8152 32.5723 37.8004ZM34.2992 37.8004C34.2992 38.9037 35.2106 39.7192 36.266 39.7192C37.3693 39.7192 38.2328 38.8078 38.2328 37.8004C38.2328 36.6971 37.3213 35.8816 36.266 35.8816C35.2586 35.7377 34.2992 36.6491 34.2992 37.8004Z" fill="#444B8C"/>
<path d="M43.6528 29.79H51.7599C51.2322 32.956 50.1289 36.0261 48.5938 38.6645H41.4462C41.4462 38.6645 41.734 32.8601 36.4093 32.8601C31.0846 32.8601 31.2765 37.2734 31.2765 37.2734C31.2765 37.2734 28.1104 37.4652 27.2949 35.2106V33.5796L27.3909 32.5723C27.6787 32.0446 28.1104 31.6608 28.734 31.325C29.6455 30.7014 30.8927 30.3176 31.996 29.9818C33.4351 29.5501 34.7783 29.4542 35.1621 29.3582C35.258 29.3582 35.354 29.3582 35.354 29.3582H39.4314C39.4314 29.3582 46.5791 23.1221 51.9038 22.9302C51.9997 23.4579 51.9997 23.8416 51.9997 24.3693C51.3761 24.4652 49.4573 24.897 47.7783 25.9044C46.0034 27.0556 43.6528 29.79 43.6528 29.79Z" fill="#444B8C"/>
<path d="M27.2471 33.5791L30.4131 32.9555L33.9149 30.7969L35.2581 29.3577L33.7231 28.6382L31.9961 29.9814L29.1179 29.5496L28.6862 31.2766L27.5828 31.4685L27.4869 32.5718L27.2471 33.5791Z" fill="#444B8C"/>
<path d="M28.4942 5.27649H21.8742C21.5864 5.27649 21.3945 5.51634 21.3945 5.75619V21.0108C21.3945 21.2986 21.6344 21.4905 21.8742 21.4905H28.4942C28.782 21.4905 28.9739 21.2506 28.9739 21.0108V5.75619C28.9739 5.46837 28.782 5.27649 28.4942 5.27649ZM25.1842 19.9555C24.1768 19.9555 23.3134 19.14 23.3134 18.0846C23.3134 17.0772 24.1288 16.2137 25.1842 16.2137C26.1916 16.2137 27.055 17.0293 27.055 18.0846C27.055 19.14 26.1916 19.9555 25.1842 19.9555ZM25.1842 15.1584C24.1768 15.1584 23.3134 14.3429 23.3134 13.2876C23.3134 12.2802 24.1288 11.4167 25.1842 11.4167C26.1916 11.4167 27.055 12.2322 27.055 13.2876C27.055 14.3429 26.1916 15.1584 25.1842 15.1584ZM25.1842 10.4573C24.1768 10.4573 23.3134 9.64181 23.3134 8.58646C23.3134 7.57908 24.1288 6.7156 25.1842 6.7156C26.1916 6.7156 27.055 7.53111 27.055 8.58646C27.055 9.64181 26.1916 10.4573 25.1842 10.4573Z" fill="#444B8C"/>
<path d="M26.5753 13.2874C26.5753 14.0549 25.9516 14.6786 25.1841 14.6786C24.4166 14.6786 23.793 14.0549 23.793 13.2874C23.793 12.5199 24.4166 11.8962 25.1841 11.8962C25.9516 11.8962 26.5753 12.5678 26.5753 13.2874Z" fill="#444B8C"/>
<path d="M26.5753 18.0848C26.5753 18.8523 25.9516 19.4759 25.1841 19.4759C24.4166 19.4759 23.793 18.8523 23.793 18.0848C23.793 17.3172 24.4166 16.6936 25.1841 16.6936C25.9516 16.6936 26.5753 17.3652 26.5753 18.0848Z" fill="#444B8C"/>
</svg>
