<svg width="52" height="52" viewBox="0 0 52 52" fill="none" xmlns="http://www.w3.org/2000/svg">
<path d="M15.5424 41.4465C13.4796 41.4465 11.8486 39.8155 11.8486 37.7528C11.8486 35.6901 13.4796 34.0591 15.5424 34.0591C17.6051 34.0591 19.2361 35.6901 19.2361 37.7528C19.2361 39.8155 17.6051 41.4465 15.5424 41.4465ZM15.5424 35.738C14.439 35.738 13.5756 36.6495 13.5756 37.6569C13.5756 38.7602 14.487 39.5757 15.5424 39.5757C16.6457 39.5757 17.5091 38.6642 17.5091 37.6569C17.5091 36.6495 16.5497 35.738 15.5424 35.738Z" fill="#444B8C"/>
<path d="M24.5609 33.5796V35.2106C23.7454 37.4652 20.5793 37.2734 20.5793 37.2734C20.5793 37.2734 20.7712 32.8601 15.4465 32.8601C10.1218 32.8601 10.4096 38.6645 10.4096 38.6645H3.45388C1.82288 36.0261 0.76753 33.052 0.287826 29.79H8.2989C8.2989 29.79 5.94835 27.0077 3.98156 25.9044C2.54244 24.9929 0.719557 24.5612 0 24.3693C0 23.8416 0.0959468 23.4579 0.0959468 22.9302C5.42067 23.218 12.3764 29.3582 12.3764 29.3582H16.4539C16.4539 29.3582 16.5498 29.3582 16.6458 29.3582C17.0775 29.4542 18.3727 29.5501 19.8118 29.9818C20.9151 30.2697 22.1624 30.7014 23.0738 31.325C23.6015 31.7567 24.0812 32.1405 24.321 32.5723L24.5609 33.5796Z" fill="#444B8C"/>
<path d="M24.5606 33.5791L21.4905 32.9555L17.8927 30.7969L16.6455 29.3577L18.0846 28.6382L19.8116 29.9814L22.7857 29.5496L23.0735 31.2766L24.1769 31.4685L24.3688 32.5718L24.5606 33.5791Z" fill="#444B8C"/>
<path d="M32.5723 37.8004C32.5723 35.7377 34.2033 34.1067 36.266 34.1067C38.3287 34.1067 39.9597 35.7377 39.9597 37.8004C39.9597 39.8631 38.3287 41.4941 36.266 41.4941C34.2033 41.4462 32.5723 39.8152 32.5723 37.8004ZM34.2992 37.8004C34.2992 38.9037 35.2106 39.7192 36.266 39.7192C37.3693 39.7192 38.2328 38.8078 38.2328 37.8004C38.2328 36.6971 37.3213 35.8816 36.266 35.8816C35.2106 35.7377 34.2992 36.6491 34.2992 37.8004Z" fill="#444B8C"/>
<path d="M43.605 29.79H51.712C51.1843 32.956 50.081 36.0261 48.546 38.6645H41.3984C41.3984 38.6645 41.6862 32.8601 36.3615 32.8601C31.0367 32.8601 31.2286 37.2734 31.2286 37.2734C31.2286 37.2734 28.0626 37.4652 27.2471 35.2106V33.5796L27.343 32.5723C27.6308 32.0446 28.0626 31.6608 28.6862 31.325C29.5976 30.7014 30.8448 30.3176 31.9482 29.9818C33.3873 29.5501 34.7305 29.4542 35.1142 29.3582C35.2102 29.3582 35.3061 29.3582 35.3061 29.3582H39.3836C39.3836 29.3582 46.5312 23.1221 51.8559 22.9302C51.9519 23.4579 51.9519 23.8416 51.9519 24.3693C51.3282 24.4652 49.4094 24.897 47.7305 25.9044C45.9555 27.0556 43.605 29.79 43.605 29.79Z" fill="#444B8C"/>
<path d="M27.1992 33.5791L30.3653 32.9555L33.8671 30.7969L35.2103 29.3577L33.6752 28.6382L31.9483 29.9814L29.0701 29.5496L28.6383 31.2766L27.535 31.4685L27.4391 32.5718L27.1992 33.5791Z" fill="#444B8C"/>
<path d="M25.9998 27.631L15.4463 9.73804H36.6013L25.9998 27.631ZM19.14 11.8487L25.9998 23.4576L32.8596 11.8487H19.14Z" fill="#444B8C"/>
</svg>
