<svg width="52" height="52" viewBox="0 0 52 52" fill="none" xmlns="http://www.w3.org/2000/svg">
<path d="M32.1302 11.4478C32.1302 11.4478 32.0818 8.14927 28.8833 7.80971C25.6847 7.47016 19.1424 7.66419 19.1424 7.66419C19.1424 7.66419 19.0939 6.64553 18.6577 6.01494C18.367 5.62688 17.64 5.82091 17.64 5.82091L17.4946 7.56718L7.75373 7.42165C7.46295 7.7127 7.17217 8.00374 6.8814 8.29479L17.3977 8.48882C17.3977 8.48882 14.8777 10.0896 12.6969 10.5261C10.5645 10.9627 8.23835 10.5261 6.54217 10.1866C6.20293 10.1381 5.8637 9.99255 5.57292 9.84703C5.23369 10.2836 4.89445 10.7202 4.60368 11.1567C5.0883 11.3508 5.37906 11.5448 5.37906 11.6418C5.37906 12.0784 5.33061 15.3284 5.33061 15.4254V15.6194C5.33061 15.7164 5.28214 19.0149 5.23368 19.403C5.18522 19.7911 4.60367 20.4217 3.77981 21.0037C3.77981 21.0037 2.47133 21.7799 1.74439 21.9739C1.21131 22.1194 0.726686 22.2164 0.290526 22.2649C0.193601 22.847 0.145142 23.4291 0.0966797 23.9627C1.3567 24.0597 2.47133 23.9627 2.47133 23.9627L17.1554 24.0597L17.2039 25.806C17.2039 25.806 17.9308 26.0485 18.2216 25.6605C18.6577 25.0784 18.7547 24.0597 18.7547 24.0597C18.7547 24.0597 25.2971 24.5448 28.4956 24.3508C31.6941 24.1082 31.8879 20.8582 31.8879 20.8582C31.8879 20.8582 32.0818 18.6754 32.1787 16.1045V16.056C32.2271 13.6306 32.1302 11.4478 32.1302 11.4478ZM2.95595 23.1866C2.95595 23.1866 4.60367 21.6343 6.34831 21.3433C8.04449 21.0522 10.3707 20.6642 12.503 21.1493C14.6354 21.6343 17.1554 23.2836 17.1554 23.2836L2.95595 23.1866ZM22.0501 19.8396C22.0501 19.8396 21.2747 22.6045 20.7416 22.847C20.1601 23.0896 15.4108 21.1008 15.4108 21.1008L15.5561 15.862V15.7164L15.6531 10.4776C15.6531 10.4776 20.4993 8.68285 21.0324 8.97389C21.5655 9.26494 22.2439 12.0784 22.2439 12.0784C22.2439 12.0784 22.4862 13.9217 22.4862 15.9105V16.0075C22.3893 17.9963 22.0501 19.8396 22.0501 19.8396ZM29.1741 22.7985C28.5925 22.7985 28.1079 22.1679 28.1079 21.3918C28.1079 20.6157 28.641 20.0336 29.2225 20.0336C29.804 20.0336 30.2887 20.6642 30.2887 21.4403C30.2887 22.2164 29.8041 22.7985 29.1741 22.7985ZM29.4164 12.1754C29.1256 12.1754 28.8833 12.0299 28.6894 11.7873C28.4956 11.5448 28.3502 11.1567 28.3502 10.8172C28.3502 10.6231 28.3987 10.4291 28.4471 10.2836C28.641 9.79852 29.0287 9.45897 29.4648 9.45897C30.0464 9.45897 30.531 10.0896 30.531 10.8657C30.531 11.5933 30.0464 12.2239 29.4164 12.1754Z" fill="#444B8C"/>
<path d="M50.401 34.3921C50.401 34.3921 50.2071 32.2092 49.8679 29.6868V29.6383C49.4802 27.1159 48.9956 24.9816 48.9956 24.9816C48.9956 24.9816 48.3656 21.7801 45.1671 21.9742C41.9686 22.1682 35.5231 23.4779 35.5231 23.4779C35.5231 23.4779 35.2808 22.4592 34.7961 21.9742C34.4569 21.6346 33.73 21.9742 33.73 21.9742L33.9238 23.7204L19.3851 26.0973C19.3851 26.0973 17.7859 26.1943 16.332 26.6309C14.8781 27.0674 13.3758 27.0674 12.7943 28.0861C12.3097 28.9592 12.7943 33.8585 13.0366 35.8958C13.0366 35.9928 13.1335 36.4779 13.182 36.6234C13.5212 38.2242 14.3935 42.1048 15.072 42.7353C15.9443 43.56 17.3982 43.0749 18.9005 43.0264C20.4029 42.9779 22.0021 42.5898 22.0021 42.5898L36.4923 40.1159L36.8316 41.8137C36.8316 41.8137 37.6069 41.9592 37.8493 41.5227C38.1885 40.8921 38.0916 39.8249 38.0916 39.8249C38.0916 39.8249 44.634 39.1458 47.7356 38.4182C48.414 38.2242 48.9471 37.9816 49.3348 37.5936C49.771 36.7204 50.1587 35.7988 50.4979 34.8771C50.4495 34.5861 50.401 34.3921 50.401 34.3921ZM33.9723 24.6421C33.9723 24.6421 31.743 26.6309 29.7076 27.4555C27.6722 28.2316 25.346 28.2316 23.6014 28.1831C21.8567 28.1346 20.0151 26.8734 20.0151 26.8734L33.9723 24.6421ZM20.839 40.698C19.1913 41.4742 18.0767 41.6682 17.7859 40.9406C17.592 40.4555 16.7682 36.1868 16.4289 34.3436V34.2951C16.2351 32.4033 15.9443 29.7353 15.9443 29.2018C15.9928 28.4256 22.5836 29.5413 22.6806 29.8809C22.7775 30.2689 23.2621 33.5674 23.2621 33.6159L23.3106 33.8585C23.3106 33.9555 23.8437 37.2055 23.8437 37.6421C23.8921 38.0301 23.4075 38.7577 22.6806 39.4853C22.6806 39.3883 21.5175 40.3585 20.839 40.698ZM22.2444 41.6197C22.2444 41.6197 23.6013 39.7764 25.2491 39.1943C26.8968 38.6122 29.0776 37.8361 31.3068 37.9816C33.4876 38.1271 36.25 39.2913 36.25 39.2913L22.2444 41.6197ZM40.4662 35.0227C40.4662 35.0227 40.2239 37.8846 39.6908 38.2242C39.1577 38.5637 34.1661 37.448 34.1661 37.448L33.3907 32.2577V32.1122L32.5669 26.9219C32.5669 26.9219 37.0254 24.3025 37.6069 24.4965C38.1885 24.6906 39.3031 27.31 39.3031 27.31C39.3031 27.31 39.8847 29.1047 40.1754 31.045V31.1421C40.4662 33.1309 40.4662 35.0227 40.4662 35.0227ZM45.6032 25.9033C45.3609 25.7092 45.1671 25.3697 45.1186 24.9816C45.0701 24.7876 45.0701 24.5936 45.1186 24.448C45.2155 23.963 45.5547 23.5264 45.9909 23.4779C46.5725 23.3809 47.154 23.9145 47.2994 24.6421C47.4448 25.3697 47.0571 26.0488 46.4271 26.1458C46.1363 26.2428 45.8455 26.1458 45.6032 25.9033ZM48.0263 36.6719C47.4448 36.7689 46.8632 36.2353 46.7663 35.4592C46.6694 34.7316 47.0571 34.0525 47.6386 33.9555C48.2202 33.8585 48.8017 34.3921 48.8986 35.1682C48.9956 35.8958 48.6079 36.5749 48.0263 36.6719Z" fill="#444B8C"/>
<path d="M46.6207 20.6161L46.8146 19.4034C46.863 19.2094 47.0084 19.1124 47.2023 19.1609C47.3961 19.2094 47.493 19.3549 47.4446 19.5489L47.2508 20.7616C47.2023 20.9556 47.0569 21.0527 46.8631 21.0041C46.6692 20.9556 46.5723 20.7616 46.6207 20.6161Z" fill="#444B8C"/>
<path d="M47.7354 21.1981C47.7354 21.1496 47.7838 21.1011 47.7838 21.0526L48.5107 20.1795C48.6077 20.034 48.8015 20.034 48.9469 20.131C49.0923 20.228 49.0923 20.422 48.9954 20.5675L48.2684 21.4407C48.1715 21.5862 47.9777 21.5862 47.8323 21.4892C47.7838 21.3922 47.7354 21.2951 47.7354 21.1981Z" fill="#444B8C"/>
<path d="M45.0703 19.6938C45.0703 19.5968 45.1672 19.4513 45.3126 19.4513C45.458 19.4028 45.6519 19.4998 45.7003 19.6938L45.9426 20.664C45.9911 20.858 45.8942 21.0035 45.7003 21.052C45.5549 21.1005 45.3611 21.0035 45.3126 20.8095L45.0703 19.8393C45.0703 19.7908 45.0703 19.7423 45.0703 19.6938Z" fill="#444B8C"/>
<path d="M14.9745 28.8136H8.96522C8.57752 28.8136 8.23828 28.4741 8.23828 28.086C8.23828 27.698 8.57752 27.3584 8.96522 27.3584H14.9745C15.3622 27.3584 15.7015 27.698 15.7015 28.086C15.7015 28.4741 15.3622 28.8136 14.9745 28.8136Z" fill="#444B8C"/>
<path d="M2.27748 28.086C2.27748 28.4741 1.93825 28.8136 1.55055 28.8136H0.19361C0.145148 28.3285 0.0966797 27.8435 0.0966797 27.3584H1.59901C1.98671 27.3584 2.27748 27.698 2.27748 28.086Z" fill="#444B8C"/>
<path d="M51.9521 27.3584C51.9521 27.8435 51.9036 28.3285 51.8551 28.8136H50.2074C49.8197 28.8136 49.4805 28.4741 49.4805 28.086C49.4805 27.698 49.8197 27.3584 50.2074 27.3584H51.9521Z" fill="#444B8C"/>
</svg>
