<svg width="52" height="52" viewBox="0 0 52 52" fill="none" xmlns="http://www.w3.org/2000/svg">
<path d="M22.3066 26.0484H29.5489C31.0939 26.0484 32.3493 24.6952 32.3493 23.1487V10.8737C32.3493 9.32718 31.0939 8.07068 29.5489 8.07068H22.3066C20.665 8.07068 19.4096 9.32718 19.5062 10.9703V23.2454C19.5062 24.7919 20.7615 26.0484 22.3066 26.0484ZM20.6167 10.8737C20.6167 9.95544 21.2926 9.1822 22.3066 9.1822H29.5489C30.4663 9.1822 31.2388 9.85878 31.2388 10.8737V23.1487C31.2388 24.067 30.5628 24.8402 29.5489 24.8402H22.3066C21.3892 24.8402 20.6167 24.1636 20.6167 23.1487V10.8737Z" fill="#444B8C" stroke="#444B8C" stroke-width="0.168"/>
<path d="M26.3134 13.145C28.4378 13.145 29.6931 14.1599 29.6931 16.093C29.6931 18.0261 28.4861 19.1376 26.3134 19.1376H24.3821V21.6989H22.9336V13.145H26.3134ZM24.3821 17.8328H26.3134C27.6653 17.8328 28.3412 17.2045 28.3412 16.093C28.3412 14.9814 27.617 14.4499 26.3134 14.4499H24.3821V17.8328Z" fill="currentColor"/>
<path d="M15.5952 41.4164C13.5674 41.4164 11.9258 39.7733 11.9258 37.7435C11.9258 35.7138 13.5674 34.0707 15.5952 34.0707C17.6231 34.0707 19.2647 35.7138 19.2647 37.7435C19.2647 39.7733 17.6231 41.4164 15.5952 41.4164ZM15.5952 35.6655C14.4847 35.6655 13.6639 36.5837 13.6639 37.5986C13.6639 38.7101 14.5813 39.5316 15.5952 39.5316C16.7057 39.5316 17.5265 38.6134 17.5265 37.5986C17.5265 36.632 16.6092 35.6655 15.5952 35.6655Z" fill="#444B8C"/>
<path d="M24.5757 33.5391V35.1822C23.7549 37.4052 20.5682 37.2119 20.5682 37.2119C20.5682 37.2119 20.8097 32.8142 15.4986 32.8142C10.1876 32.8142 10.4773 38.6617 10.4773 38.6617H3.52461C1.88301 36.0038 0.869081 33.0558 0.337976 29.7696H8.30455C8.30455 29.7696 5.93872 27.0149 4.00743 25.9034C2.55896 24.9852 0.724234 24.5986 0 24.3569C0 23.8253 0.0965645 23.4387 0.0965645 22.9071C5.40761 23.1971 12.3603 29.3346 12.3603 29.3346H16.4643C16.4643 29.3346 16.5608 29.3346 16.6574 29.3346C17.0436 29.4313 18.3955 29.5279 19.844 29.9629C20.9545 30.2528 22.2098 30.6878 23.1272 31.2677C23.6583 31.6543 24.1411 32.0893 24.3343 32.4759L24.5757 33.5391Z" fill="#444B8C"/>
<path d="M24.5751 33.539L21.5333 32.9107L17.9121 30.7843L16.7051 29.3345L18.1535 28.6096L19.8917 29.9145L22.8369 29.5278L23.1266 31.2676L24.2371 31.4609L24.4302 32.5724L24.5751 33.539Z" fill="#444B8C"/>
<path d="M32.542 37.7435C32.542 35.7138 34.1836 34.0707 36.2114 34.0707C38.2393 34.0707 39.8809 35.7138 39.8809 37.7435C39.8809 39.7733 38.2393 41.4164 36.2114 41.4164C34.1836 41.4164 32.542 39.7733 32.542 37.7435ZM34.2802 37.7435C34.2802 38.8551 35.1975 39.6766 36.2114 39.6766C37.3219 39.6766 38.1427 38.7584 38.1427 37.7435C38.1427 36.632 37.2254 35.8105 36.2114 35.8105C35.1975 35.6655 34.2802 36.632 34.2802 37.7435Z" fill="#444B8C"/>
<path d="M43.5991 29.7694H51.6623C51.1312 32.959 50.0207 36.0036 48.4756 38.6616H41.3299C41.3299 38.6616 41.6196 32.8624 36.3085 32.8624C30.9975 32.8624 31.2389 37.2118 31.2389 37.2118C31.2389 37.2118 28.0522 37.4051 27.2314 35.1821V33.539L27.328 32.5241C27.6177 31.9925 28.0522 31.6059 28.6799 31.3159C29.5973 30.6877 30.8043 30.301 31.9631 30.0111C33.4116 29.6245 34.7152 29.4795 35.1497 29.3828C35.2463 29.3828 35.3429 29.3828 35.3429 29.3828H39.4469C39.4469 29.3828 46.5926 23.1486 51.9037 22.9553C52.0002 23.4869 52.0002 23.8735 52.0002 24.4051C51.3726 24.5018 49.4413 24.9367 47.7997 25.9516C45.9167 27.0148 43.5991 29.7694 43.5991 29.7694Z" fill="#444B8C"/>
<path d="M27.2314 33.539L30.4181 32.9107L33.8944 30.7843L35.2463 29.3345L33.7013 28.6096L31.9148 29.9628L29.0662 29.5762L28.6799 31.3159L27.5694 31.5092L27.4729 32.6208L27.2314 33.539Z" fill="#444B8C"/>
</svg>
