<svg width="52" height="52" viewBox="0 0 52 52" fill="none" xmlns="http://www.w3.org/2000/svg">
<path d="M22.3821 26.0479H29.6177C31.1613 26.0479 32.4155 24.6948 32.4155 23.1483V10.8732C32.4155 9.32676 31.1613 8.07025 29.6177 8.07025H22.3821C20.742 8.07025 19.4878 9.32676 19.5843 10.9699V23.245C19.5843 24.7914 20.7903 26.0479 22.3821 26.0479ZM20.6455 10.8732C20.6455 9.95501 21.3209 9.18178 22.3338 9.18178H29.5695C30.486 9.18178 31.2578 9.85836 31.2578 10.8732V23.1483C31.2578 24.0665 30.5825 24.8398 29.5695 24.8398H22.3338C21.4173 24.8398 20.6455 24.1632 20.6455 23.1483V10.8732Z" fill="#444B8C" stroke="#444B8C" stroke-width="0.168"/>
<path d="M15.6289 41.416C13.603 41.416 11.9629 39.7729 11.9629 37.7431C11.9629 35.7134 13.603 34.0703 15.6289 34.0703C17.6549 34.0703 19.295 35.7134 19.295 37.7431C19.295 39.7729 17.6549 41.416 15.6289 41.416ZM15.6289 35.665C14.5195 35.665 13.6994 36.5833 13.6994 37.5981C13.6994 38.7097 14.616 39.5312 15.6289 39.5312C16.7384 39.5312 17.5584 38.613 17.5584 37.5981C17.5584 36.6316 16.6419 35.665 15.6289 35.665Z" fill="#444B8C"/>
<path d="M24.6011 33.539V35.1821C23.7811 37.4052 20.5974 37.2119 20.5974 37.2119C20.5974 37.2119 20.7904 32.8141 15.4842 32.8141C10.1781 32.8141 10.4675 38.6134 10.4675 38.6134H3.52134C1.88126 35.9554 0.86828 33.0074 0.337668 29.7212H8.29685C8.29685 29.7212 5.93321 26.9665 4.00371 25.855C2.55659 24.9368 0.723562 24.5502 0 24.3085C0 23.7769 0.0964808 23.3903 0.0964808 22.8587C5.4026 23.1487 12.3488 29.2862 12.3488 29.2862H16.449C16.449 29.2862 16.5455 29.2862 16.6419 29.2862C17.0278 29.3829 18.3785 29.4795 19.8256 29.9145C20.9351 30.2044 22.1892 30.6394 23.1058 31.2193C23.6364 31.6059 24.1187 32.0409 24.3117 32.4275L24.6011 33.539Z" fill="#444B8C"/>
<path d="M24.6006 33.539L21.5616 32.9108L17.9921 30.7844L16.7861 29.3346L18.2333 28.6097L19.9698 29.9145L22.9123 29.5279L23.2017 31.2677L24.3112 31.461L24.5041 32.5725L24.6006 33.539Z" fill="#444B8C"/>
<path d="M32.5605 37.7431C32.5605 35.7134 34.2006 34.0703 36.2266 34.0703C38.2526 34.0703 39.8926 35.7134 39.8926 37.7431C39.8926 39.7729 38.2526 41.416 36.2266 41.416C34.2006 41.416 32.5605 39.7729 32.5605 37.7431ZM34.2971 37.7431C34.2971 38.8546 35.2136 39.6762 36.2266 39.6762C37.3361 39.6762 38.1561 38.758 38.1561 37.7431C38.1561 36.6316 37.2396 35.81 36.2266 35.81C35.2136 35.665 34.2971 36.6316 34.2971 37.7431Z" fill="#444B8C"/>
<path d="M43.6068 29.7697H51.6625C51.1318 32.9593 50.0224 36.0039 48.4788 38.6619H41.3396C41.3396 38.6619 41.6291 32.8626 36.3229 32.8626C31.0168 32.8626 31.2098 37.2604 31.2098 37.2604C31.2098 37.2604 28.0261 37.4537 27.2061 35.2307V33.5876L27.3025 32.5727C27.592 32.0411 28.0261 31.6545 28.6532 31.3645C29.5697 30.7363 30.7756 30.3496 31.9333 30.0597C33.3805 29.6731 34.6829 29.5281 35.117 29.4314C35.2135 29.4314 35.31 29.4314 35.31 29.4314H39.4101C39.4101 29.4314 46.5493 23.1972 51.8554 23.0039C51.9519 23.5355 51.9519 23.9221 51.9519 24.4537C51.3248 24.5504 49.3953 24.9853 47.7552 26.0002C45.9704 27.0151 43.6068 29.7697 43.6068 29.7697Z" fill="#444B8C"/>
<path d="M27.2549 33.539L30.4386 32.9108L33.9117 30.7844L35.2623 29.3346L33.7187 28.6097L31.9822 29.9145L29.1361 29.5279L28.7502 31.2677L27.6408 31.461L27.5443 32.5725L27.2549 33.539Z" fill="#444B8C"/>
<path d="M25.8555 15.4649V17.7363H28.0744C28.1226 17.7363 28.1709 17.688 28.1709 17.6396C28.1226 16.2865 27.1096 15.4166 25.9519 15.3683C25.9037 15.3683 25.8555 15.4166 25.8555 15.4649ZM29.9557 14.2084L29.1839 13.4835C29.0874 13.3868 28.9427 13.3868 28.8462 13.4835L28.6532 13.7251C28.5568 13.8218 28.5568 13.9668 28.6532 14.0634L29.425 14.7883C29.5215 14.885 29.6662 14.885 29.7627 14.7883L29.9557 14.5467C30.1004 14.4984 30.1004 14.3051 29.9557 14.2084Z" fill="#444B8C"/>
<path d="M25.2769 13.9179V13.193H24.9392C24.7463 13.193 24.6016 13.048 24.6016 12.8547V12.6131C24.6016 12.4198 24.7463 12.2748 24.9392 12.2748H26.8205C27.0134 12.2748 27.1581 12.4198 27.1581 12.6131V12.8547C27.1581 13.048 27.0134 13.193 26.8205 13.193H26.4346V13.9179H25.2769Z" fill="#444B8C"/>
<path d="M25.8557 21.7474C23.6367 21.7474 21.8037 19.9109 21.8037 17.6879C21.8037 15.4648 23.6367 13.6284 25.8557 13.6284C28.0746 13.6284 29.9076 15.4648 29.9076 17.6879C29.9076 19.9109 28.0746 21.7474 25.8557 21.7474ZM25.8557 14.6916C24.2156 14.6916 22.8649 16.0448 22.8649 17.6879C22.8649 19.331 24.2156 20.6842 25.8557 20.6842C27.4957 20.6842 28.8464 19.331 28.8464 17.6879C28.8464 16.0448 27.4957 14.6916 25.8557 14.6916Z" fill="#444B8C"/>
</svg>
