<svg width="52" height="52" viewBox="0 0 52 52" fill="none" xmlns="http://www.w3.org/2000/svg">
<path d="M45.6942 27.6492C45.6942 27.6492 45.5971 24.3507 42.4442 24.0112C39.2427 23.6716 32.6941 23.9142 32.6941 23.9142C32.6941 23.9142 32.6456 22.847 32.2091 22.2649C31.918 21.8769 31.1904 22.1194 31.1904 22.1194L31.0934 23.8657L16.3471 23.7686C16.3471 23.7686 14.7464 23.6231 13.2427 23.8172C11.7389 24.0112 10.2352 23.7202 9.50758 24.6903C8.9255 25.4664 8.58595 30.3657 8.44043 32.403C8.44043 32.5 8.44043 32.9851 8.44043 33.1306C8.48894 34.7798 8.73147 38.7089 9.26505 39.4365C9.99266 40.4067 11.4964 40.1156 13.0001 40.3582C14.5039 40.5522 16.1046 40.4067 16.1046 40.4067H30.8024L30.8509 42.1529C30.8509 42.1529 31.5785 42.3955 31.8695 42.0074C32.3061 41.4253 32.4031 40.4067 32.4031 40.4067C32.4031 40.4067 38.9516 40.8432 42.1531 40.6007C45.3546 40.3582 45.5001 37.1082 45.5001 37.1082C45.5001 37.1082 45.6942 34.9254 45.7427 32.403V32.3545C45.7912 29.8806 45.6942 27.6492 45.6942 27.6492ZM30.9479 24.8843C30.9479 24.8843 28.4255 26.4851 26.2912 26.9216C24.1569 27.3582 21.8285 26.9701 20.1307 26.6306C18.433 26.291 16.7837 24.7388 16.7837 24.7388L30.9479 24.8843ZM15.3285 38.5149C13.5337 39 12.418 39 12.2725 38.2239C12.1755 37.6903 12.0785 33.3731 11.9815 31.4813V31.4328C12.0785 29.541 12.2725 26.8731 12.3695 26.3396C12.5151 25.612 18.8695 27.7463 18.918 28.1343C18.918 28.5709 18.8695 31.8209 18.8695 31.9179V32.1119C18.8695 32.2089 18.821 35.5074 18.7725 35.8955C18.724 36.2835 18.1419 36.9627 17.3173 37.4963C17.3658 37.5448 16.0076 38.3209 15.3285 38.5149ZM16.5412 39.6306C16.5412 39.6306 18.1904 38.0783 19.8882 37.7388C21.586 37.3992 23.9143 37.0597 26.0486 37.5447C28.183 38.0298 30.7053 39.6791 30.7053 39.6791L16.5412 39.6306ZM35.9927 32.306C35.9442 34.2948 35.6046 36.138 35.6046 36.138C35.6046 36.138 34.877 38.903 34.2949 39.194C33.7128 39.4365 28.9591 37.4963 28.9591 37.4963L29.0561 32.2574V32.1119L29.1046 26.8731C29.1046 26.8731 33.9068 25.0298 34.4889 25.3209C35.071 25.6119 35.7016 28.3768 35.7016 28.3768C35.7016 28.3768 35.9927 30.2201 35.9441 32.2089L35.9927 32.306ZM42.7837 39.0485C42.2016 39.0485 41.7165 38.4179 41.7165 37.6418C41.7165 36.8657 42.2501 36.2836 42.8322 36.2836C43.4143 36.2836 43.8994 36.9141 43.8994 37.6903C43.8994 38.4664 43.4143 39.0485 42.7837 39.0485ZM42.9777 28.4739C42.3956 28.4739 41.9106 27.8433 41.9106 27.0672C41.9106 26.3396 42.3957 25.7089 43.0263 25.7089C43.6083 25.7089 44.0934 26.3396 44.0934 27.0672C44.0449 27.8433 43.5598 28.4739 42.9777 28.4739Z" fill="#444B8C"/>
<path d="M33.5186 45.7911C33.2761 42.5896 29.9776 42.4441 29.9776 42.4441C29.9776 42.4441 27.7947 42.25 25.2723 42.2015H25.2238C22.7015 42.2015 20.4701 42.2986 20.4701 42.2986C20.4701 42.2986 17.2201 42.3956 16.8806 45.5486C16.735 46.8097 16.6865 48.6045 16.6865 50.3023C19.2574 51.2724 22.0223 51.903 24.9328 52H25.0783H25.1753C25.3208 52 25.4664 52 25.6119 52C25.7574 52 25.9029 52 26.0485 52C28.6679 52 31.1903 51.612 33.5671 50.8844C33.6156 49.0896 33.6156 47.1493 33.5186 45.7911ZM19.888 46.0821C19.1119 46.0821 18.5298 45.5971 18.5298 44.9665C18.5298 44.3844 19.1604 43.8993 19.888 43.8993C20.6641 43.8993 21.2462 44.3844 21.2462 45.015C21.2947 45.5971 20.6641 46.0821 19.888 46.0821ZM30.5111 46.2277C29.735 46.2277 29.1529 45.6941 29.1529 45.112C29.1529 44.4814 29.7835 44.0448 30.5597 44.0448C31.3358 44.0448 31.9179 44.5784 31.9179 45.1605C31.8694 45.7426 31.2387 46.2277 30.5111 46.2277Z" fill="#444B8C"/>
<path d="M26.0968 4.26856L34.9251 19.2573C34.9736 19.3543 34.9251 19.4514 34.8281 19.4514H17.1229C17.0259 19.4514 16.9774 19.3543 17.0259 19.2573L25.8542 4.26856C25.9512 4.17155 26.0968 4.17155 26.0968 4.26856ZM31.8206 17.5111L26.0968 7.80959C26.0483 7.76109 25.9998 7.76109 25.9512 7.80959L20.2274 17.5111C20.1789 17.5596 20.2274 17.6566 20.2759 17.6566H31.7236C31.8206 17.6081 31.8691 17.5596 31.8206 17.5111Z" fill="#444B8C"/>
<path d="M24.4959 16.4929L23.7197 15.7168V15.6683L27.2608 12.1272H27.3093L28.0854 12.9033V12.9518L24.4959 16.4929C24.5444 16.4929 24.5444 16.4929 24.4959 16.4929Z" fill="#444B8C"/>
<path d="M27.3581 16.4929L28.1342 15.7168V15.6683L24.5932 12.1272H24.5447L23.7686 12.9033V12.9518L27.3581 16.4929C27.3096 16.4929 27.3096 16.4929 27.3581 16.4929Z" fill="#444B8C"/>
</svg>
