<svg width="52" height="52" viewBox="0 0 52 52" fill="none" xmlns="http://www.w3.org/2000/svg">
<path d="M15.5713 41.4257C13.534 41.4257 11.8848 39.7764 11.8848 37.7391C11.8848 35.7018 13.534 34.0526 15.5713 34.0526C17.6086 34.0526 19.2579 35.7018 19.2579 37.7391C19.2579 39.7764 17.6086 41.4257 15.5713 41.4257ZM15.5713 35.7018C14.4556 35.7018 13.631 36.6234 13.631 37.6421C13.631 38.7578 14.5527 39.5824 15.5713 39.5824C16.687 39.5824 17.5116 38.6608 17.5116 37.6421C17.5116 36.6234 16.59 35.7018 15.5713 35.7018Z" fill="#444B8C"/>
<path d="M24.5932 33.5672V35.2165C23.7686 37.4478 20.6156 37.2538 20.6156 37.2538C20.6156 37.2538 20.8097 32.8396 15.5224 32.8396C10.1865 32.8396 10.5261 38.6605 10.5261 38.6605H3.58953C1.94028 35.9926 0.921629 33.0336 0.436555 29.7836H8.44027C8.44027 29.7836 6.06341 27.0187 4.12312 25.903C2.6679 24.9814 0.824611 24.5933 0.145508 24.3508C0.145508 23.8172 0.242528 23.4292 0.242528 22.9441C5.57834 23.2351 12.5149 29.3956 12.5149 29.3956H16.5895C16.5895 29.3956 16.6865 29.3956 16.7835 29.3956C17.1716 29.4926 18.5298 29.5896 19.9365 30.0262C21.0522 30.3172 22.3134 30.7538 23.235 31.3359C23.7686 31.7239 24.2537 32.1605 24.4477 32.5486L24.5932 33.5672Z" fill="#444B8C"/>
<path d="M24.5936 33.5674L21.5376 32.9368L17.948 30.8025L16.7354 29.3958L18.1906 28.6682L19.9368 29.9779L22.8958 29.5898L23.1868 31.3361L24.3025 31.5301L24.4965 32.6458L24.5936 33.5674Z" fill="#444B8C"/>
<path d="M32.5488 37.7391C32.5488 35.7018 34.1981 34.0526 36.2354 34.0526C38.2727 34.0526 39.922 35.7018 39.922 37.7391C39.922 39.7764 38.2727 41.4257 36.2354 41.4257C34.1981 41.4257 32.5488 39.7764 32.5488 37.7391ZM34.2951 37.7391C34.2951 38.8548 35.2168 39.6794 36.2354 39.6794C37.3511 39.6794 38.1757 38.7578 38.1757 37.7391C38.1757 36.6234 37.2541 35.7988 36.2354 35.7988C35.2168 35.7018 34.2951 36.6234 34.2951 37.7391Z" fill="#444B8C"/>
<path d="M43.608 29.7836H51.7088C51.1752 32.9366 50.0595 35.9926 48.5558 38.6605H41.3767C41.3767 38.6605 41.6678 32.8396 36.3805 32.8396C31.0446 32.8396 31.2872 37.2538 31.2872 37.2538C31.2872 37.2538 28.1342 37.4478 27.3096 35.2165V33.5672L27.4066 32.5486C27.6976 32.015 28.1342 31.6269 28.7163 31.3359C29.6379 30.7053 30.8506 30.3172 32.0148 30.0262C33.47 29.6381 34.7797 29.4926 35.1678 29.3956C35.2648 29.3956 35.3618 29.3956 35.3618 29.3956H39.4364C39.4364 29.3956 46.6155 23.1866 51.9028 22.9441C51.9998 23.4777 51.9998 23.8657 51.9998 24.3508C51.3692 24.4478 49.4289 24.8844 47.8282 25.903C45.9849 27.0187 43.608 29.7836 43.608 29.7836Z" fill="#444B8C"/>
<path d="M27.2617 33.5674L30.4147 32.9368L33.9072 30.8025L35.2169 29.3958L33.6647 28.6682L31.9184 29.9779L29.0565 29.5898L28.6684 31.3361L27.5528 31.5301L27.4557 32.6458L27.2617 33.5674Z" fill="#444B8C"/>
<path d="M31.1905 22.7014H27.892V18.1902C27.892 15.2798 25.5151 12.9514 22.6532 12.9514H21.0039V9.65289H22.6532C27.3584 9.65289 31.1905 13.485 31.1905 18.1902V22.7014Z" fill="#444B8C"/>
<path d="M15.1836 11.3023L21.5866 16.4926V6.112L15.1836 11.3023Z" fill="#444B8C"/>
</svg>
