<svg width="52" height="52" viewBox="0 0 52 52" fill="none" xmlns="http://www.w3.org/2000/svg">
<path d="M15.5713 41.4751C13.534 41.4751 11.8848 39.8258 11.8848 37.7885C11.8848 35.7512 13.534 34.1019 15.5713 34.1019C17.6086 34.1019 19.2578 35.7512 19.2578 37.7885C19.2578 39.8258 17.6086 41.4751 15.5713 41.4751ZM15.5713 35.7512C14.4556 35.7512 13.631 36.6728 13.631 37.6915C13.631 38.8072 14.5527 39.6318 15.5713 39.6318C16.687 39.6318 17.5116 38.7101 17.5116 37.6915C17.5116 36.6728 16.59 35.7512 15.5713 35.7512Z" fill="#444B8C"/>
<path d="M24.5446 33.5684V35.2176C23.7199 37.449 20.567 37.255 20.567 37.255C20.567 37.255 20.761 32.8408 15.4737 32.8408C10.1865 32.8408 10.4775 38.6617 10.4775 38.6617H3.54102C1.89178 35.9938 0.873136 33.0348 0.388065 29.7848H8.29471C8.29471 29.7848 5.91787 27.0199 3.97758 25.9042C2.52237 24.9826 0.679099 24.5945 0 24.352C0 23.8184 0.09702 23.4303 0.09702 22.9453C5.4328 23.2363 12.3693 29.3967 12.3693 29.3967H16.4439C16.4439 29.3967 16.5409 29.3967 16.6379 29.3967C17.026 29.4938 18.3842 29.5908 19.7909 30.0273C20.9065 30.3184 22.1677 30.7549 23.0894 31.337C23.6229 31.7251 24.108 32.1617 24.302 32.5497L24.5446 33.5684Z" fill="#444B8C"/>
<path d="M24.5447 33.5684L21.4887 32.9378L17.8992 30.8035L16.6865 29.3967L18.1417 28.6691L19.888 29.9788L22.8469 29.5908L23.138 31.337L24.2536 31.5311L24.4477 32.6467L24.5447 33.5684Z" fill="#444B8C"/>
<path d="M32.5479 37.7885C32.5479 35.7512 34.1971 34.1019 36.2344 34.1019C38.2717 34.1019 39.9209 35.7512 39.9209 37.7885C39.9209 39.8258 38.2717 41.4751 36.2344 41.4751C34.1971 41.4751 32.5479 39.8258 32.5479 37.7885ZM34.2941 37.7885C34.2941 38.9042 35.2157 39.7288 36.2344 39.7288C37.3501 39.7288 38.1747 38.8072 38.1747 37.7885C38.1747 36.6728 37.253 35.8482 36.2344 35.8482C35.2157 35.7512 34.2941 36.6728 34.2941 37.7885Z" fill="#444B8C"/>
<path d="M43.6079 29.8331H51.7086C51.175 32.9861 50.0594 36.042 48.5556 38.7099H41.3766C41.3766 38.7099 41.6676 32.8891 36.3804 32.8891C31.0446 32.8891 31.2871 37.3032 31.2871 37.3032C31.2871 37.3032 28.1342 37.4973 27.3096 35.2659V33.6167L27.4066 32.598C27.6976 32.0644 28.1342 31.6764 28.7163 31.3853C29.6379 30.7547 30.8506 30.3667 32.0147 30.0756C33.47 29.6876 34.7796 29.542 35.1677 29.445C35.2647 29.445 35.3617 29.445 35.3617 29.445H39.4363C39.4363 29.445 46.6154 23.2361 51.9026 22.9935C51.9996 23.5271 51.9997 23.9152 51.9997 24.4002C51.3691 24.4973 49.4288 24.9338 47.828 25.9525C45.9363 27.0682 43.6079 29.8331 43.6079 29.8331Z" fill="#444B8C"/>
<path d="M27.2119 33.5684L30.3649 32.9378L33.8574 30.8035L35.1671 29.3967L33.6149 28.6691L31.8686 29.9788L29.0067 29.5908L28.6186 31.337L27.503 31.5311L27.4059 32.6467L27.2119 33.5684Z" fill="#444B8C"/>
<path d="M22.652 22.7026H19.3535V18.1914C19.3535 13.4861 23.1856 9.65405 27.8908 9.65405H29.54V12.9526H27.8908C24.9803 12.9526 22.652 15.3294 22.652 18.1914V22.7026Z" fill="#444B8C"/>
<path d="M35.3612 11.303L29.0068 16.4933V6.16119L35.3612 11.303Z" fill="#444B8C"/>
</svg>
