<svg width="98" height="37" viewBox="0 0 98 37" fill="none" xmlns="http://www.w3.org/2000/svg">
<path d="M97.9666 35.8159H0V36.8242H97.9666V35.8159Z" fill="#444B8C"/>
<path d="M93.0253 20.5585H89.7654V19.5503H93.0253V20.5585ZM86.5054 20.5585H83.2455V19.5503H86.5054V20.5585ZM79.9855 20.5585H76.7256V19.5503H79.9855V20.5585ZM73.4656 20.5585H70.2057V19.5503H73.4656V20.5585ZM66.9457 20.5585H63.6858V19.5503H66.9457V20.5585ZM60.4258 20.5585H57.1659V19.5503H60.4258V20.5585ZM53.9059 20.5585H50.6124V19.5503H53.8723V20.5585H53.9059ZM47.3524 20.5585H44.0925V19.5503H47.3524V20.5585ZM40.8325 20.5585H37.5726V19.5503H40.8325V20.5585ZM34.3126 20.5585H31.0527V19.5503H34.3126V20.5585ZM27.7927 20.5585H24.5328V19.5503H27.7927V20.5585ZM21.2728 20.5585H18.0129V19.5503H21.2728V20.5585ZM14.7529 20.5585H11.493V19.5503H14.7529V20.5585ZM8.1994 20.5585H4.93945V19.5503H8.1994V20.5585Z" fill="#444B8C"/>
<path d="M98.0007 19.5503H96.3203V20.5585H98.0007V19.5503Z" fill="#444B8C"/>
<path d="M1.77023 19.5503H0.0898438V20.5585H1.77023V19.5503Z" fill="#444B8C"/>
<path d="M97.9666 0.427734H0V1.43597H97.9666V0.427734Z" fill="#444B8C"/>
<path d="M39.6918 20.0547H38.6836V36.2872H39.6918V20.0547Z" fill="#444B8C"/>
<path d="M7.15862 20.0547H6.15039V36.2872H7.15862V20.0547Z" fill="#444B8C"/>
<path d="M71.3832 20.0547H70.375V36.2872H71.3832V20.0547Z" fill="#444B8C"/>
<path d="M82.1699 25.8345H88.757V28.6911C88.757 29.3969 88.589 29.9682 88.2529 30.3379C87.9168 30.7412 87.4463 30.9428 86.8414 30.9428C86.2701 30.9428 85.7995 30.7412 85.4299 30.3379C85.0938 29.9346 84.9257 29.3969 84.9257 28.6911V27.0107H82.1699V25.8345ZM85.8668 27.0443V28.5567C85.8668 28.96 85.9676 29.2961 86.1356 29.4977C86.3037 29.6994 86.5389 29.8002 86.875 29.8002C87.2111 29.8002 87.4463 29.6994 87.6144 29.4977C87.7824 29.2961 87.8832 28.9936 87.8832 28.5567V27.0443H85.8668Z" fill="#444B8C"/>
</svg>
