<svg width="98" height="56" viewBox="0 0 98 56" fill="none" xmlns="http://www.w3.org/2000/svg">
<path d="M97.9663 0.046875H0.341797V1.052H97.9663V0.046875Z" fill="#444B8C"/>
<path d="M4.36065 17.5703H0.341797V18.5754H4.36065V17.5703Z" fill="#444B8C"/>
<path d="M85.8102 18.5754H77.672V17.5703H85.8102V18.5754ZM69.5339 18.5754H61.3957V17.5703H69.5339V18.5754ZM53.224 18.5754H45.0859V17.5703H53.224V18.5754ZM36.9477 18.5754H28.8096V17.5703H36.9477V18.5754ZM20.6714 18.5754H12.5332V17.5703H20.6714V18.5754Z" fill="#444B8C"/>
<path d="M97.9993 17.5703H93.9805V18.5754H97.9993V17.5703Z" fill="#444B8C"/>
<path d="M40.8987 55.9515H39.894V36.1306H0.341797V35.1255H40.8987V55.9515Z" fill="#444B8C"/>
<path d="M58.4481 55.9515H57.4434V35.1255H98.0002V36.1306H58.4481V55.9515Z" fill="#444B8C"/>
</svg>
