<svg width="83" height="80" viewBox="0 0 83 80" fill="none" xmlns="http://www.w3.org/2000/svg">
<path d="M77.7581 41.353H70.9928V40.5073H77.7581V41.353ZM64.2275 41.353H57.4622V40.5073H64.2275V41.353ZM50.6969 41.353H43.9316V40.5073H50.6969V41.353ZM37.1663 41.353H30.401V40.5073H37.1663V41.353ZM23.6357 41.353H16.8704V40.5073H23.6357V41.353ZM10.1051 41.353H3.33984V40.5073H10.1051V41.353Z" fill="#444B8C"/>
<path d="M82.5218 79.1543H0.351562V80H82.5218V79.1543Z" fill="#444B8C"/>
<path d="M11.3164 54.4326H10.4707V79.7179H11.3164V54.4326Z" fill="#444B8C"/>
<path d="M26.2578 54.4326H25.4121V79.7179H26.2578V54.4326Z" fill="#444B8C"/>
<path d="M82.5218 0H0.351562V0.845662H82.5218V0Z" fill="#444B8C"/>
<path d="M13.46 54.0098H8.01953V54.8554H13.46V54.0098Z" fill="#444B8C"/>
<path d="M28.54 54.0098H23.0996V54.8554H28.54V54.0098Z" fill="#444B8C"/>
<path d="M41.2539 54.4326H40.4082V79.7179H41.2539V54.4326Z" fill="#444B8C"/>
<path d="M56.166 54.4326H55.3203V79.7179H56.166V54.4326Z" fill="#444B8C"/>
<path d="M43.3955 54.0098H37.9551V54.8554H43.3955V54.0098Z" fill="#444B8C"/>
<path d="M58.4756 54.0098H53.0352V54.8554H58.4756V54.0098Z" fill="#444B8C"/>
<path d="M71.1054 54.4326H70.2598V79.7179H71.1054V54.4326Z" fill="#444B8C"/>
<path d="M73.3896 54.0098H67.9492V54.8554H73.3896V54.0098Z" fill="#444B8C"/>
<path d="M70.9628 0.28125H70.1172V25.5666H70.9628V0.28125Z" fill="#444B8C"/>
<path d="M56.0253 0.28125H55.1797V25.5666H56.0253V0.28125Z" fill="#444B8C"/>
<path d="M73.3896 25.144H67.9492V25.9897H73.3896V25.144Z" fill="#444B8C"/>
<path d="M58.3076 25.144H52.8672V25.9897H58.3076V25.144Z" fill="#444B8C"/>
<path d="M41.0293 0.28125H40.1836V25.5666H41.0293V0.28125Z" fill="#444B8C"/>
<path d="M26.0878 0.28125H25.2422V25.5666H26.0878V0.28125Z" fill="#444B8C"/>
<path d="M43.4521 25.144H38.0117V25.9897H43.4521V25.144Z" fill="#444B8C"/>
<path d="M28.3994 25.144H22.959V25.9897H28.3994V25.144Z" fill="#444B8C"/>
<path d="M11.1777 0.28125H10.332V25.5666H11.1777V0.28125Z" fill="#444B8C"/>
<path d="M13.46 25.144H8.01953V25.9897H13.46V25.144Z" fill="#444B8C"/>
<path d="M16.8984 69.3165V63.7915H19.2945C19.8864 63.7915 20.3657 63.9324 20.6757 64.2143C21.014 64.4962 21.1831 64.8909 21.1831 65.3982C21.1831 65.8775 21.014 66.2721 20.6757 66.5822C20.3375 66.8641 19.8864 67.005 19.2945 67.005H17.885V69.3165H16.8984ZM17.885 66.2439H19.1535C19.4918 66.2439 19.7737 66.1594 19.9428 66.0184C20.112 65.8775 20.1965 65.6801 20.1965 65.3982C20.1965 65.1164 20.112 64.9191 19.9428 64.7781C19.7737 64.6372 19.52 64.5526 19.1535 64.5526H17.885V66.2439Z" fill="#444B8C"/>
<path d="M31.4434 69.3165V63.7915H33.8394C34.4314 63.7915 34.9106 63.9324 35.2206 64.2143C35.5589 64.4962 35.7281 64.8909 35.7281 65.3982C35.7281 65.8775 35.5589 66.2721 35.2206 66.5822C34.8824 66.8641 34.4314 67.005 33.8394 67.005H32.43V69.3165H31.4434ZM32.43 66.2439H33.6985C34.0367 66.2439 34.3186 66.1594 34.4877 66.0184C34.6569 65.8775 34.7414 65.6801 34.7414 65.3982C34.7414 65.1164 34.6569 64.9191 34.4877 64.7781C34.3186 64.6372 34.0649 64.5526 33.6985 64.5526H32.43V66.2439Z" fill="#444B8C"/>
<path d="M45.9883 69.3165V63.7915H48.3843C48.9763 63.7915 49.4555 63.9324 49.7656 64.2143C50.1038 64.4962 50.273 64.8909 50.273 65.3982C50.273 65.8775 50.1038 66.2721 49.7656 66.5822C49.4273 66.8641 48.9763 67.005 48.3843 67.005H46.9749V69.3165H45.9883ZM46.9749 66.2439H48.2434C48.5816 66.2439 48.8635 66.1594 49.0327 66.0184C49.2018 65.8775 49.2864 65.6801 49.2864 65.3982C49.2864 65.1164 49.2018 64.9191 49.0327 64.7781C48.8635 64.6372 48.6098 64.5526 48.2434 64.5526H46.9749V66.2439Z" fill="#444B8C"/>
<path d="M60.7598 69.3165V63.7915H63.1558C63.7478 63.7915 64.227 63.9324 64.537 64.2143C64.8753 64.4962 65.0445 64.8909 65.0445 65.3982C65.0445 65.8775 64.8753 66.2721 64.537 66.5822C64.1988 66.8641 63.7478 67.005 63.1558 67.005H61.7464V69.3165H60.7598ZM61.7464 66.2439H63.0149C63.3531 66.2439 63.635 66.1594 63.8041 66.0184C63.9733 65.8775 64.0579 65.6801 64.0579 65.3982C64.0579 65.1164 63.9733 64.9191 63.8041 64.7781C63.635 64.6372 63.3813 64.5526 63.0149 64.5526H61.7464V66.2439Z" fill="#444B8C"/>
<path d="M64.2281 10.2607V15.7857H61.832C61.24 15.7857 60.7608 15.6448 60.4508 15.3629C60.1125 15.081 59.9434 14.6864 59.9434 14.179C59.9434 13.6998 60.1125 13.3051 60.4508 12.995C60.789 12.7131 61.24 12.5722 61.832 12.5722H63.2414V10.2607H64.2281ZM63.2133 13.3333H61.9448C61.6065 13.3333 61.3246 13.4179 61.1555 13.5588C60.9863 13.6998 60.9018 13.8971 60.9018 14.179C60.9018 14.4609 60.9863 14.6582 61.1555 14.7991C61.3246 14.9401 61.5783 15.0246 61.9448 15.0246H63.2133V13.3333Z" fill="#444B8C"/>
<path d="M49.6812 10.2607V15.7857H47.2851C46.6932 15.7857 46.214 15.6448 45.9039 15.3629C45.5656 15.081 45.3965 14.6864 45.3965 14.179C45.3965 13.6998 45.5656 13.3051 45.9039 12.995C46.2421 12.7131 46.6932 12.5722 47.2851 12.5722H48.6946V10.2607H49.6812ZM48.6664 13.3333H47.3979C47.0596 13.3333 46.7777 13.4179 46.6086 13.5588C46.4395 13.6998 46.3549 13.8971 46.3549 14.179C46.3549 14.4609 46.4395 14.6582 46.6086 14.7991C46.7777 14.9401 47.0314 15.0246 47.3979 15.0246H48.6664V13.3333Z" fill="#444B8C"/>
<path d="M35.1363 10.2607V15.7857H32.7402C32.1482 15.7857 31.669 15.6448 31.359 15.3629C31.0207 15.081 30.8516 14.6864 30.8516 14.179C30.8516 13.6998 31.0207 13.3051 31.359 12.995C31.6972 12.7131 32.1482 12.5722 32.7402 12.5722H34.1496V10.2607H35.1363ZM34.1215 13.3333H32.853C32.5147 13.3333 32.2328 13.4179 32.0637 13.5588C31.8946 13.6998 31.81 13.8971 31.81 14.179C31.81 14.4609 31.8946 14.6582 32.0637 14.7991C32.2328 14.9401 32.4865 15.0246 32.853 15.0246H34.1215V13.3333Z" fill="#444B8C"/>
<path d="M20.3648 10.2607V15.7857H17.9687C17.3768 15.7857 16.8975 15.6448 16.5875 15.3629C16.2492 15.081 16.0801 14.6864 16.0801 14.179C16.0801 13.6998 16.2492 13.3051 16.5875 12.995C16.9257 12.7131 17.3768 12.5722 17.9687 12.5722H19.3782V10.2607H20.3648ZM19.35 13.3333H18.0815C17.7432 13.3333 17.4613 13.4179 17.2922 13.5588C17.1231 13.6998 17.0385 13.8971 17.0385 14.179C17.0385 14.4609 17.1231 14.6582 17.2922 14.7991C17.4613 14.9401 17.715 15.0246 18.0815 15.0246H19.35V13.3333Z" fill="#444B8C"/>
</svg>
