<svg width="292" height="167" viewBox="0 0 292 167" fill="none" xmlns="http://www.w3.org/2000/svg">
<path opacity="0.5" d="M291.5 163.5H0V166.5H291.5V163.5Z" fill="#444B8C"/>
<path opacity="0.5" d="M5 115.1H0V118.1H5V115.1Z" fill="#444B8C"/>
<path opacity="0.5" d="M276.8 118.1H267.1V115.1H276.8V118.1ZM257.4 118.1H247.7V115.1H257.4V118.1ZM238 118.1H228.3V115.1H238V118.1ZM218.6 118.1H208.9V115.1H218.6V118.1ZM199.2 118.1H189.5V115.1H199.2V118.1ZM179.8 118.1H170.1V115.1H179.8V118.1ZM160.4 118.1H150.6V115.1H160.3V118.1H160.4ZM140.9 118.1H131.2V115.1H140.9V118.1ZM121.5 118.1H111.8V115.1H121.5V118.1ZM102.1 118.1H92.4002V115.1H102.1V118.1ZM82.7002 118.1H73.0002V115.1H82.7002V118.1ZM63.3002 118.1H53.6002V115.1H63.3002V118.1ZM43.9002 118.1H34.2002V115.1H43.9002V118.1ZM24.4002 118.1H14.7002V115.1H24.4002V118.1Z" fill="#444B8C"/>
<path opacity="0.5" d="M291.6 115.1H286.6V118.1H291.6V115.1Z" fill="#444B8C"/>
<path opacity="0.5" d="M291.6 61.2H288.1V58.2H291.6V61.2ZM264 61.2H240V58.2H264V61.2ZM216 61.2H192V58.2H216V61.2ZM168 61.2H144V58.2H168V61.2ZM120 61.2H96V58.2H120V61.2ZM72 61.2H48V58.2H72V61.2ZM24 61.2H0V58.2H24V61.2Z" fill="#444B8C"/>
<path opacity="0.5" d="M291.5 0.900146H0V3.90015H291.5V0.900146Z" fill="#444B8C"/>
<path opacity="0.5" d="M118.1 116.6H115.1V164.9H118.1V116.6Z" fill="#444B8C"/>
<path opacity="0.5" d="M21.2998 116.6H18.2998V164.9H21.2998V116.6Z" fill="#444B8C"/>
<path opacity="0.5" d="M212.4 116.6H209.4V164.9H212.4V116.6Z" fill="#444B8C"/>
<path opacity="0.5" d="M244.5 133.8H264.1V142.3C264.1 144.4 263.6 146.1 262.6 147.2C261.6 148.4 260.2 149 258.4 149C256.7 149 255.3 148.4 254.2 147.2C253.2 146 252.7 144.4 252.7 142.3V137.3H244.5V133.8ZM255.5 137.3V141.8C255.5 143 255.8 144 256.3 144.6C256.8 145.2 257.5 145.5 258.5 145.5C259.5 145.5 260.2 145.2 260.7 144.6C261.2 144 261.5 143.1 261.5 141.8V137.3H255.5Z" fill="#444B8C"/>
</svg>
