<svg width="42" height="26" viewBox="0 0 42 26" fill="none" xmlns="http://www.w3.org/2000/svg"><path d="M41.506.756h-6.152c-.271 0-.494.247-.494.543v7.709c0 .296.223.543.494.543h6.152c.272 0 .494-.247.494-.543V1.299c0-.296-.222-.543-.494-.543ZM39.48 5.77c-.321.124-.593.198-1.63.198-.223 0-.223 0-.223.197v1.952c0 .05-.05.099-.099.099h-1.037a.106.106 0 0 1-.1-.099V2.312c0-.05.05-.098.1-.098.42 0 1.556.024 2.347.024.617 0 1.087.272 1.408.816.593.963.198 2.297-.766 2.717Zm-.939-2.495-.79-.025c-.1 0-.124.05-.124.148v1.409c0 .098 0 .148.124.123 0 0 .395 0 .84-.025.444-.049.716-.37.691-.815 0-.445-.296-.79-.74-.815Z" fill="currentColor"/><path d="M39.752 23.213V24.3h-2.767v-1.087h.74V8.538h1.285v14.675h.742ZM29.227 22.175a2.984 2.984 0 0 0-2.99-2.99 2.984 2.984 0 0 0-2.988 2.99 2.984 2.984 0 0 0 2.989 2.99 2.984 2.984 0 0 0 2.99-2.99Zm-2.99 1.581a1.592 1.592 0 0 1-1.58-1.58c0-.865.716-1.582 1.58-1.582.866 0 1.582.716 1.582 1.581s-.692 1.581-1.581 1.581ZM8.795 22.348a2.984 2.984 0 0 0-2.989-2.99 2.984 2.984 0 0 0-2.99 2.99 2.984 2.984 0 0 0 2.99 2.99 2.984 2.984 0 0 0 2.99-2.99Zm-2.989 1.581a1.592 1.592 0 0 1-1.581-1.581c0-.865.716-1.581 1.581-1.581s1.581.716 1.581 1.581-.716 1.581-1.581 1.581ZM21.123 17.358c-.544 0-1.013-.1-1.334-.272-.247-.124-.445-.47-.47-.79a.808.808 0 0 1 .248-.717c.173-.148.444-.247.815-.247.568 0 1.235.173 1.68.346.099.024.197.123.247.222.148.272.346.741.247 1.087-.05.198-.716.37-1.433.37Z" fill="currentColor"/><path d="M0 21.46s.173.592.519.988c.272.32.988.42 1.285.444-.025-.173-.025-.346-.025-.519 0-2.42 2.15-4.373 4.644-4.002a4.053 4.053 0 0 1 3.41 4.496v.025H14.65l6.597-.05h1.038c-.025-.222-.05-.444-.05-.666a4.053 4.053 0 0 1 4.472-4.027c2.248.247 3.879 2.322 3.582 4.57v.025c.247 0 .618-.025.988-.05.766-.049 1.384-.098 1.557-.197.321-.173.494-.593.494-.593l-.222-.222.024-1.236.223-.099s.074-.988-.198-1.185a2.88 2.88 0 0 1-.741-.989c-.173-.42-.519-.963-1.73-1.408a41.755 41.755 0 0 0-6.818-1.902s-4.423-2.99-8.054-3.904a22.551 22.551 0 0 0-3.41-.222c-5.756.074-7.856 1.334-7.856 1.334l-.148.42s-2.471 1.73-3.262 2.866c-.79 1.136-.469 1.655-.42 1.952.075.296.1 1.31.1 1.31s-.52.37-.643.518C.025 19.335 0 21.459 0 21.459Zm4.842-5.905c-.024-.371.89-1.36 1.557-2.051.47-.47.988-.79 1.63-.939 1.78-.444 6.992-.667 9.413.272 2.866 1.112 4.99 3.385 4.99 3.385s.05.42-.987.42c-.717 0-4.892-.025-7.264-.025 0 0-4.793-.074-5.583-.198-.791-.099-3.706-.271-3.756-.864Z" fill="currentColor"/><path d="m12.822 11.602.569 5.583h-1.73l-.37-5.583h1.531ZM30.759 15.11l1.482-2.742-.717.123c-.395.074-.79.124-1.16.198l-.94.148-.123-.47c-.05-.172-.148-.568-.148-.568l-.223-.89-.074-.27-.494.815c-.222.345-.445.716-.667 1.062l-.222.346s-1.087-.914-1.162-.964c-.148-.123-.271-.222-.395-.321l-.692-.593c.05.272.247 1.927.247 1.927s-.815-2.372-.84-2.495l-.197-.618 1.853 1.31c.148.098.271.197.42.296.05.05.346.247.47.346.123-.247.27-.494.42-.741l.592-1.087.964-1.705.691 2.619c.075.296.149.568.223.864l.024.124c.396-.05.766-.099 1.162-.148l2.594-.321-3.088 3.755ZM4.225 11.083c-.1-.544-.148-1.087-.223-1.63l.247.073c-.222.371-.469.742-.716 1.112l-.099.173-.173-.123c-.296-.223-.568-.445-.864-.668-.272-.222-.569-.444-.84-.691l.395-.223c.025.346.074.717.099 1.063.024.37.049.716.074 1.087v.197l-.173.025c-.42.05-.84.074-1.26.099l.05-.272c.543.37 1.086.741 1.605 1.161-.593-.296-1.186-.592-1.754-.889l-.37-.198.42-.074c.42-.074.84-.148 1.26-.197l-.174.197c-.049-.346-.098-.716-.148-1.062-.05-.346-.074-.717-.123-1.062l-.074-.593.469.37c.272.223.544.47.815.717.272.247.544.494.79.74l-.27.026c.27-.346.543-.692.814-1.063l.247-.296v.37c.025.52.025 1.087-.024 1.63Z" fill="currentColor"/></svg>