<svg width="54" height="33" viewBox="0 0 54 33" fill="none" xmlns="http://www.w3.org/2000/svg"><path d="M27.9 19.762h.54c.9-.18 1.26-1.26 1.26-1.26s7.38 2.88 8.82 2.34c1.98-.9 3.42-3.96 3.78-5.04.36-1.08 1.26-4.5.18-6.3-.9-1.26-8.46-3.6-8.46-3.6s.36-1.08-.18-1.8c0-.18-.18-.18-.54-.36l-.54 1.62-10.26-3.42s-1.98-.9-3.24-1.08c-1.26-.18-3.24.36-3.78.9 0 .18-.36.36-.54.9 0 0-1.08 1.8-1.62 3.42-.54 1.44-.72 3.24-.72 3.24 0 .54-.18.9 0 1.26.36.9 1.44 2.16 2.52 2.7s3.24 1.08 3.24 1.08l10.08 3.6-.54 1.8Zm10.8-.54s-.72.72-2.16.54c-.9-.18-.9-.36 0-1.26.36-.36 1.26-.18 1.44-.18 1.08-.18 1.26.18.72.9Zm-3.6-5.94c-1.62 4.68-3.24 4.86-3.24 4.86-1.44-.72-3.6-2.88-3.6-2.88s.54-.72 1.62-3.78v-.18c1.08-3.06 1.08-3.96 1.08-3.96s2.88-.36 4.5 0c.18 0 1.26 1.26-.36 5.94Zm5.22-4.14c1.26.72 1.26 1.8 1.26 1.8 0 .72-.18.9-1.08.36-.18-.18-.9-.72-.9-1.08-.36-1.26 0-1.62.72-1.08ZM21.6 2.662l10.98 3.6s-1.62.18-3.06.36c-1.62.18-2.7-.36-4.86-1.44-2.52-1.26-3.06-2.52-3.06-2.52Zm-5.58 7.92c.18-1.08 1.08-3.42 1.08-3.42v-.18s.9-2.52 1.26-3.42c.54-.9.9-.72.9-.72 1.44.54 3.06 2.52 3.06 2.52 0 .72-.9 3.06-.9 3.06l-.18.36s-.72 2.34-1.26 3.06c0 0-2.52.54-3.96 0 .18-.18-.36-.18 0-1.26Zm2.16 2.88s1.26-.72 3.78-.18c2.52.54 3.6.9 4.86 1.98 1.08 1.08 2.16 2.34 2.16 2.34l-10.8-4.14ZM53.82 15.622H48.6s-2.16-.18-3.42 0c-1.26.18-2.88 1.44-3.24 2.16-.18.18-.36.72-.36 1.08 0 0-.36 2.16-.36 3.78 0 1.62.36 3.24.36 3.42.18.54.18.9.36 1.08.54.72 1.98 1.44 3.24 1.8 1.26.18 3.42 0 3.42 0h5.22v-.9h-5.76s.9-1.08 3.42-1.44c.9-.18 1.62-.18 2.16-.18v-8.1c-.72 0-1.44 0-2.52-.18-2.52-.36-3.42-1.44-3.42-1.44l5.94-.18v-.9h.18Zm-4.32 3.42c.18.72.18 3.24.18 3.24v.36s.18 2.34-.18 3.24c0 0-2.16 1.26-3.78 1.26 0 0-.36.18-.54-.9-.18-1.08-.18-3.6-.18-3.6v-.18s0-2.52.18-3.6.54-.9.54-.9c1.62-.18 3.78 1.08 3.78 1.08Z" fill="currentColor"/><path d="M20.7 19.762c-.18-1.08-1.44-4.32-3.24-5.4-1.44-.72-9 1.44-9 1.44s-.36-1.26-1.08-1.44h-.54l.36 1.8-7.2 1.8v1.08l7.38-1.8s-1.26 1.08-2.52 1.98c-1.26.9-2.34 1.08-4.86 1.44v9.36c.54-.36 1.08-.9 2.16-1.08 2.34-.9 3.6-1.26 5.04-.9s3.06.72 3.06.72L0 31.102v.9l10.26-2.88.54 1.8c.18 0 .36-.18.54-.18.54-.54.36-1.8.36-1.8s7.74-1.44 8.82-2.7c.9-1.98.54-5.4.18-6.48Zm-7.56 7.56c-1.62.18-4.5-.54-4.5-.54s0-.9-.72-3.96v-.18c-.72-3.06-1.08-3.96-1.08-3.96s2.34-1.8 3.78-2.34c0 0 1.62.36 2.7 5.22.9 4.68-.18 5.76-.18 5.76Zm1.98-10.8c-.72-.72-.72-1.08.18-1.26 1.44 0 1.98.72 1.98.72.36.72.36.9-.72.9-.18 0-1.08-.18-1.44-.36Zm2.7 9.54c-.72.36-1.08.18-.72-.9.18-.36.9-.9 1.08-1.08.9-.54 1.08-.36 1.08.36.18.18 0 1.08-1.44 1.62ZM51.66 12.022v1.44H54v-1.44h-2.34Zm-14.22 0v1.44h7.2v-1.44h-7.2Zm-28.44 0v1.44h7.2v-1.44H9Zm-9 0v1.44h1.98v-1.44H0Z" fill="currentColor"/></svg>