<svg width="48" height="30" viewBox="0 0 48 30" fill="none" xmlns="http://www.w3.org/2000/svg"><path d="M32.958 21.045s.112-1.663-.339-2.03c-.45-.366-.93-.958-1.24-1.691-.31-.705-.874-1.664-2.932-2.397-2.03-.733-6.767-2.255-11.954-3.242 0 0-8.148-5.554-14.322-7.105A23.72 23.72 0 0 0 0 4.186V6.44c1.55.282 3.524.818 5.639 1.72 4.792 2.086 8.458 5.751 8.458 5.751s.084.733-1.692.705C11.136 14.59 3.89 14.59 0 14.59v10.713l13.758-.113a7.327 7.327 0 0 1-.084-1.127 6.87 6.87 0 0 1 6.879-6.88 6.87 6.87 0 0 1 6.879 6.88c0 .338-.028.676-.085.986 1.24-.028 4.257-.169 4.708-.394.564-.282.846-.987.846-.987l-.366-.366.028-2.087.395-.169Z" fill="currentColor"/><path d="M25.628 24.09c0-2.791-2.284-5.075-5.075-5.075-2.791 0-5.075 2.284-5.075 5.075 0 2.791 2.284 5.075 5.075 5.075 2.79 0 5.075-2.284 5.075-5.075Zm-5.075 2.65a2.677 2.677 0 1 1 0-5.357 2.677 2.677 0 0 1 2.678 2.679 2.66 2.66 0 0 1-2.678 2.678ZM11.84 15.886c-.93 0-1.748-.17-2.255-.451-.395-.226-.733-.79-.818-1.354-.028-.338 0-.817.395-1.212.282-.282.733-.423 1.381-.423.959 0 2.087.31 2.876.592a.686.686 0 0 1 .423.367c.226.45.62 1.269.423 1.86-.085.31-1.212.62-2.425.62ZM31.971 11.713l.987-5.667-1.043.677c-.564.367-1.128.705-1.692 1.071l-1.353.846-.395-.733-.48-.874a60.54 60.54 0 0 1-.76-1.381l-.226-.423-.367 1.691c-.169.733-.338 1.495-.507 2.228l-.197.76s-2.087-.873-2.227-.93c-.254-.112-.508-.197-.762-.31l-1.325-.563c.198.45 1.297 3.157 1.297 3.157s-2.368-3.552-2.48-3.778l-.565-.93 3.468 1.071.761.254c.113.028.649.197.874.282.085-.508.17-1.043.282-1.55l.395-2.256.676-3.58 2.284 4.087c.254.451.508.903.733 1.354l.113.197c.564-.338 1.128-.677 1.72-1.015l3.806-2.199-3.017 8.514ZM46.519 22.004c-.17-.057-.395-.48-.536-.818-.31-.705-1.522-2.988-1.579-3.045-.592-.366-1.579-.958-1.579-.958l-1.043-1.325a.958.958 0 0 1-.225-.734c0-.197.028-.479.028-.704 0-.141 0-.226.028-.367.536.423 1.072.761 1.664 1.128 1.043.677 2.17 1.381 2.311 1.522.62.62.677 1.044 1.495 2.453.197.31 1.127 2.143.874 2.34-.395.254-1.156.592-1.438.508ZM41.839 6.216c-.028 1.015-.874 1.833-1.889 1.776a1.813 1.813 0 0 1-1.776-1.889c.028-1.015.846-1.776 1.86-1.748 1.044.028 1.833.846 1.805 1.861ZM44.573 13.18c-.451.676-.761.45-1.184.197a13.736 13.736 0 0 1-1.156-.761c-.31-.198-.564-.395-.705-.564 0-.367 0-.762.056-1.1.028-.338 0-.677-.084-.958.14.084.282.197.423.281.76.508 1.494 1.044 2.255 1.551.085.056.141.113.226.17.338.338.563.591.169 1.183Z" fill="currentColor"/><path d="M40.795 13.095c0 .535-.028 1.55-.056 2.142 0 .338.084.649.31.93.395.508 1.156 1.467 1.494 1.918.141.169.226.366.31.563.367 1.015 1.55 4.342 2.115 5.893.282.733.45 1.015-.536 1.41-1.184.45-1.269 0-1.522-.733a391.841 391.841 0 0 1-1.776-5.329 1.43 1.43 0 0 0-.254-.451c-.48-.592-1.89-2.312-2.735-3.13a1.326 1.326 0 0 1-.451-1.127c.028-1.24.028-2.51.028-3.75 0-.535-.084-.564-.564-.31-.31.17-.62.367-.958.508-.451.197-.592.535-.62.986-.113.959-.226 1.89-.339 2.848-.084.62-.14 1.043-1.071.902-.93-.113-.761-.79-.592-1.72.197-1.071.31-2.425.31-2.425s.14-1.212.93-1.691c.79-.508 2.284-1.353 2.594-1.55.62-.367 1.043-.705 1.579-.424.254.141.507.282.761.452.733.479 1.156 1.1 1.043 2.03-.028.648.028 1.353 0 2.057Z" fill="currentColor"/></svg>