<svg width="48" height="26" viewBox="0 0 48 26" fill="none" xmlns="http://www.w3.org/2000/svg"><path d="M28.626 18.364s.085-1.44-.282-1.75c-.395-.31-.819-.847-1.073-1.468s-.762-1.44-2.54-2.09c-1.78-.648-5.873-1.947-10.39-2.822 0 0-7.086-4.828-12.45-6.183A14.368 14.368 0 0 0 0 3.712V5.66c1.327.254 3.049.706 4.912 1.497 4.178 1.806 7.369 4.996 7.369 4.996s.084.622-1.469.622c-1.1-.029-7.396-.029-10.784-.029v9.317l11.97-.113a5.595 5.595 0 0 1-.084-.988 5.988 5.988 0 0 1 5.984-5.985 5.988 5.988 0 0 1 5.986 5.985c0 .282-.029.592-.057.846 1.101-.028 3.698-.14 4.093-.338.48-.254.734-.875.734-.875l-.31-.34.028-1.806.254-.085Z" fill="currentColor"/><path d="M22.275 21.018a4.41 4.41 0 0 0-4.404-4.404 4.41 4.41 0 0 0-4.404 4.404 4.41 4.41 0 0 0 4.404 4.404 4.41 4.41 0 0 0 4.404-4.404Zm-4.404 2.315a2.325 2.325 0 0 1-2.315-2.315 2.325 2.325 0 0 1 2.315-2.315 2.325 2.325 0 0 1 2.315 2.315 2.325 2.325 0 0 1-2.315 2.315ZM10.277 13.876c-.82 0-1.525-.141-1.977-.395-.338-.198-.649-.706-.705-1.186-.029-.282 0-.706.367-1.073.254-.226.649-.367 1.185-.367.819 0 1.807.282 2.485.508.169.057.282.17.367.31.197.396.536 1.102.367 1.61-.057.339-1.017.593-2.09.593ZM27.779 10.262l.847-4.94-.904.593c-.48.31-.988.62-1.496.931l-1.185.734-.34-.62a17.484 17.484 0 0 1-.423-.763c-.226-.395-.451-.79-.649-1.186l-.198-.367-.338 1.468c-.142.65-.283 1.3-.452 1.948l-.17.65s-1.806-.763-1.947-.79a4.507 4.507 0 0 1-.65-.283l-1.157-.508c.17.395 1.129 2.738 1.129 2.738s-2.06-3.077-2.174-3.275l-.508-.818 3.02.931c.227.057.453.141.678.226.085.028.565.17.763.254.084-.451.14-.903.225-1.355l.34-1.976.592-3.105 1.976 3.528c.226.396.424.79.65 1.186l.084.17c.508-.311.988-.593 1.496-.876l3.303-1.92-2.512 7.425ZM38.393 1.652c-.028-.17-.056-.339-.112-.48a.443.443 0 0 0-.396-.254c-.17 0-.31.17-.338.31v.424c-.029.14-.029.282-.113.395-.31.48-.621.932-.932 1.383-.028.057-.141.085-.198.113-.028-.084-.084-.14-.113-.226-.028-.056-.028-.113-.028-.169 0-.056-.028-.113-.028-.17-.085-.253-.339-.451-.565-.395a.575.575 0 0 0-.423.537c0 .197.028.395.056.593 0 .14-.084.197-.226.14-.197-.084-.395-.197-.592-.282-.254-.112-.367-.282-.31-.592.027-.226 0-.509-.03-.734-.027-.142-.14-.226-.281-.255a.307.307 0 0 0-.34.198c-.056.141-.112.31-.14.48-.17 1.13-.367.988.677 1.553.141.084.282.14.452.226l.423.254c.057.056.142.084.17.17.028.084.056.225.056.31 0 .056-.141.113-.197.113-.622 0-1.214 0-1.836-.029-.282 0-.564-.028-.818.085-.339.17-.565.593-.113.932.113.084.226.14.367.197.48.254.931.508 1.411.734.735.339.79.31.706 1.27-.056.848-.084 1.723-.113 2.57 0 .282-.028.564-.056.818 0 .141-.113.198-.226.141l-.932-.338c-.48-.17-.931-.367-1.411-.508-.395-.142-.706.056-.847.451a9.158 9.158 0 0 1-.085.395l-.17 2.485c-.027.621-.056 1.214-.084 1.835-.028.367-.028.593.565.65.593.056.65-.085.706-.453.028-.395.084-.649.113-.988.056-.903.112-1.835.169-2.738 0-.198.084-.226.282-.17.904.311 1.779.622 2.682.904.395.141.762.17 1.101-.141.141-.141.282-.141.452-.057 1.524.734 3.077 1.44 4.602 2.146.367.17.649.423.818.79l.339.763c.17.367.452.62.819.79.254.113.508.198.762.31.508.198.903.509 1.157 1.017.254.508.537.96.82 1.468.197.339.366.706.564 1.016.084.142.282.621.564.65.283.028.904-.367.819-.565-.113-.282-.31-.762-.48-1.044-.48-.848-.96-1.694-1.412-2.541-.225-.424-.536-.904-.988-1.101-.14-.057-.282-.17-.423-.254-.226-.17-.339-.367-.254-.65.028-.14.564-1.806.819-2.512.169-.537.14-.678-.31-.96-.057-.028-1.723-.819-2.655-1.242-1.27-.593-2.54-1.214-3.84-1.835a.79.79 0 0 1-.45-.452c-.396-.96-.791-1.892-1.187-2.851-.056-.142 0-.283.17-.31.226-.057.423-.086.65-.142.169-.057.225-.339.112-.508a.659.659 0 0 0-.48-.283c-.141 0-.282.029-.423.029-.141 0-.339.14-.424-.057-.028-.084.113-.226.198-.339.536-.734 1.044-1.496 1.58-2.23.198-.254.255-.508.198-.79Z" fill="currentColor"/></svg>