<svg width="54" height="28" viewBox="0 0 54 28" fill="none" xmlns="http://www.w3.org/2000/svg"><path d="m28.86 17.93 1.56-2.28 1.95-.03 2.85-.99c1.11.06 2.76.21 2.97.24.09.18.51 1.11-.21 1.74-.72.66-5.31 2.16-5.64 2.25l-3.48-.93ZM0 15.74c2.85 0 6.24 0 7.11.03h.09c1.56 0 3.03-.66 3.03-.66v-.27S6.57 10.67.03 8.63V6.74c5.82 1.65 12.12 6.36 12.42 6.57 4.47 1.08 7.29 2.01 9.3 2.79.48.18.93.36 1.29.48 1.77.66 2.49 2.49 2.49 2.52l.12 1.17.33 1.11c-.12.24-1.17 1.62-1.38 1.98-.45.21-.78.63-3.24.54.03-.27.06-.51.06-.78 0-3.21-2.55-5.76-5.76-5.76S9.9 19.91 9.9 23.12c0 .3.03.6.06.9l-9.9.12-.06-8.4Z" fill="currentColor"/><path d="M15.63 27.38c-2.34 0-4.26-1.92-4.26-4.26s1.92-4.26 4.26-4.26 4.26 1.92 4.26 4.26-1.92 4.26-4.26 4.26Zm0-6.45c-1.26 0-2.22.96-2.22 2.22 0 1.26.96 2.22 2.22 2.22 1.26 0 2.22-.96 2.22-2.22 0-1.26-.96-2.22-2.22-2.22ZM24.15 19.82c-.54 0-2.37-.06-2.97-.93-.72-1.02-1.86-2.58-2.1-2.94l3.03-.84c.24.24 1.11 1.11 1.29 1.14l.93.18.75 2.52c-.03.15-.18.66-.21.84-.09 0-.33.03-.72.03ZM8.37 16.49c-.78 0-1.44-.15-1.89-.39-.33-.18-.63-.66-.69-1.14-.03-.27 0-.69.33-1.02.24-.24.63-.33 1.14-.33.81 0 1.74.27 2.4.48a.7.7 0 0 1 .36.3c.21.36.51 1.05.36 1.56-.06.27-.99.54-2.01.54ZM46.38 16.49c-1.02 0-1.95-.24-2.04-.54-.15-.51.15-1.2.36-1.56a.7.7 0 0 1 .36-.3c.66-.21 1.59-.48 2.4-.48.54 0 .9.12 1.14.33.33.33.36.75.33 1.02-.06.48-.33.96-.69 1.14-.39.24-1.08.39-1.86.39Z" fill="currentColor"/><path d="M44.13 24.05c.06-.3.06-.6.06-.9 0-3.21-2.55-5.76-5.76-5.76s-5.76 2.55-5.76 5.76c0 .27.03.54.06.78-2.4-.06-3.18-.42-3.18-.42l-1.17-2.01.66-1.44-.69-.18-.06-1.26c.12-.15 1.05-1.38 2.73-1.98.36-.12.75-.3 1.2-.48 1.8-.72 4.56-1.65 9.48-2.7.18-.12 6.48-5.49 12.27-6.75V8.6c-.69.24-1.44.45-2.16.75-5.22 2.13-7.14 5.19-7.14 5.22l-.03.03.03.03c.03.03.54.66 2.07.66h.09c.9 0 4.26-.03 7.11-.03l.06 8.88-9.87-.09Z" fill="currentColor"/><path d="M38.43 27.38c-2.34 0-4.26-1.92-4.26-4.26s1.92-4.26 4.26-4.26 4.26 1.92 4.26 4.26-1.92 4.26-4.26 4.26Zm0-6.33c-1.2 0-2.1.9-2.1 2.1 0 1.2.9 2.1 2.1 2.1 1.2 0 2.1-.9 2.1-2.1 0-1.2-.9-2.1-2.1-2.1ZM18.78 8.12l-.75-.78 3.63.39.81.09c.12 0 .66.09.93.12 0-.51-.03-1.05-.03-1.56l-.06-2.28V.5l3.03 3.54.99 1.17.15.15c.51-.45.99-.87 1.5-1.29l3.33-2.85-.06 1.56c-.03.6-.06 1.2-.09 1.74-.03.33-.03.63-.06.96-.03.72-.09 1.44-.15 2.28.36.03.72.09 1.08.12l1.92.24-1.41 3.18.51-2.64-1.11.03h-2.01v-.48c-.03-.96-.06-1.83-.06-2.73V4.37l-.9.84c-.48.45-.99.9-1.47 1.35l-1.2 1.05-.54-.63c-.21-.24-.63-.75-.63-.75-.33-.39-.66-.78-1.02-1.2l-.3-.39-.06 1.74c-.03.75-.03 1.53-.09 2.28l-.03.75-2.37-.48c-.27-.06-.54-.12-.81-.15l-1.41-.3c.3.39 1.89 2.82 1.89 2.82s-3-3-3.15-3.18Z" fill="currentColor"/></svg>