<svg width="54" height="31" viewBox="0 0 54 31" fill="none" xmlns="http://www.w3.org/2000/svg"><path d="m28.68 20.829 1.549-2.264 1.936-.03 2.83-.983c1.101.06 2.74.209 2.948.239.089.178.506 1.102-.209 1.727-.715.655-5.271 2.145-5.599 2.234l-3.455-.923ZM0 18.623c2.83 0 6.195 0 7.059.03h.089c1.549 0 3.008-.655 3.008-.655v-.268S6.522 13.59.03 11.565V9.689c5.748 1.697 12.002 6.373 12.3 6.582 4.438 1.072 7.237 1.995 9.233 2.77.476.178.923.357 1.28.476 1.758.655 2.472 2.472 2.472 2.502l.12 1.161.327 1.102c-.12.238-1.162 1.608-1.37 1.966-.447.208-.774.625-3.216.536.03-.268.06-.506.06-.774a5.682 5.682 0 0 0-5.72-5.719A5.682 5.682 0 0 0 9.8 26.01c0 .297.03.595.06.893l-9.8.09L0 18.623Z" fill="currentColor"/><path d="M15.517 30.21a4.245 4.245 0 0 1-4.229-4.229 4.245 4.245 0 0 1 4.23-4.229 4.245 4.245 0 0 1 4.228 4.23 4.245 4.245 0 0 1-4.229 4.228Zm0-6.403c-1.25 0-2.204.953-2.204 2.204 0 1.25.953 2.204 2.204 2.204 1.251 0 2.204-.953 2.204-2.204 0-1.251-.953-2.204-2.204-2.204ZM23.975 22.675c-.536 0-2.353-.06-2.948-.923-.715-1.013-1.847-2.562-2.085-2.919l3.008-.834c.238.238 1.102 1.102 1.28 1.132.15.03.775.149.924.178l.744 2.502c-.03.15-.178.655-.208.834-.06 0-.328.03-.715.03ZM8.31 19.37c-.775 0-1.43-.15-1.877-.388-.328-.179-.626-.655-.685-1.132-.03-.268 0-.685.328-1.012.238-.239.625-.328 1.131-.328.804 0 1.728.268 2.383.476.149.06.268.15.357.298.209.358.507 1.043.358 1.55-.06.297-.983.535-1.996.535ZM46.074 19.37c-1.013 0-1.936-.24-2.025-.537-.15-.506.149-1.191.357-1.549a.696.696 0 0 1 .358-.297c.655-.209 1.578-.477 2.382-.477.536 0 .894.12 1.132.328.328.327.357.744.328 1.012-.06.477-.328.953-.686 1.132-.416.238-1.072.387-1.846.387Z" fill="currentColor"/><path d="M43.84 26.874c.06-.297.06-.595.06-.893a5.682 5.682 0 0 0-5.719-5.719 5.682 5.682 0 0 0-5.718 5.719c0 .268.03.536.06.774-2.383-.06-3.157-.417-3.157-.417s-.745-1.31-1.132-1.995l.655-1.43-.685-.178-.06-1.251c.12-.15 1.043-1.37 2.71-1.966.358-.12.745-.298 1.192-.477 1.787-.714 4.527-1.638 9.411-2.68.18-.12 6.434-5.45 12.181-6.701v1.876c-.684.239-1.429.447-2.144.745-5.182 2.114-7.088 5.152-7.088 5.182l-.03.03.03.03c.03.03.536.655 2.055.655h.09c.893 0 4.228-.03 7.058-.03l.06 8.816-9.829-.09Z" fill="currentColor"/><path d="M38.181 30.21a4.245 4.245 0 0 1-4.229-4.229 4.245 4.245 0 0 1 4.23-4.229 4.245 4.245 0 0 1 4.228 4.23 4.245 4.245 0 0 1-4.229 4.228Zm0-6.314c-1.191 0-2.084.894-2.084 2.085 0 1.191.893 2.085 2.084 2.085 1.192 0 2.085-.894 2.085-2.085 0-1.191-.923-2.085-2.085-2.085ZM31.927 14.008H21.83c-.595 0-1.102-.476-1.102-1.072V1.798c0-.596.477-1.073 1.102-1.073h10.097c.595 0 1.102.477 1.102 1.073v11.138c0 .596-.507 1.072-1.102 1.072ZM21.83 1.321c-.268 0-.506.208-.506.477v11.138c0 .268.238.477.506.477h10.097c.268 0 .506-.209.506-.477V1.798c0-.269-.238-.477-.506-.477H21.83Z" fill="currentColor"/><path d="M24.75 4.18c0-.06.06-.12.119-.12.476 0 1.757.03 2.68.03.685 0 1.251.298 1.608.924.656 1.102.209 2.59-.893 3.067-.357.15-.685.209-1.847.209-.238 0-.238 0-.238.238v2.204c0 .06-.06.12-.12.12H24.9c-.06 0-.12-.06-.12-.12V4.18h-.03Zm1.4 2.83c0 .118 0 .148.148.148 0 0 .447 0 .953-.03.507-.06.804-.446.804-.923 0-.476-.327-.893-.834-.923l-.893-.03c-.12 0-.149.06-.149.149-.03.268-.03 1.34-.03 1.608Z" fill="currentColor"/></svg>