<svg width="35" height="38" viewBox="0 0 35 38" fill="none" xmlns="http://www.w3.org/2000/svg"><path d="M19.334 33.298s.067-.963-.179-1.165a2.674 2.674 0 0 1-.716-.985c-.18-.425-.515-.963-1.702-1.388a48.33 48.33 0 0 0-6.807-1.881s-4.725-3.225-8.308-4.12c-.358-.09-.784-.157-1.254-.224v1.298c.896.157 2.038.47 3.27 1.008 2.776 1.21 4.903 3.336 4.903 3.336s.045.426-.985.404c-.739 0-4.926-.023-7.21-.023v6.203l7.994-.067c-.045-.224-.045-.426-.045-.65a3.995 3.995 0 0 1 3.986-3.986 3.995 3.995 0 0 1 3.986 3.986c0 .202-.023.38-.045.583.716-.023 2.351-.09 2.597-.224.314-.157.493-.583.493-.583l-.202-.224.023-1.209.201-.09Z" fill="currentColor"/><path d="M15.214 35.067a2.93 2.93 0 0 0-2.934-2.934 2.943 2.943 0 0 0-2.933 2.934A2.943 2.943 0 0 0 12.281 38a2.943 2.943 0 0 0 2.933-2.933Zm-2.956 1.545c-.85 0-1.545-.694-1.545-1.545s.694-1.545 1.545-1.545 1.545.694 1.545 1.545c0 .85-.694 1.545-1.545 1.545ZM7.197 30.297c-.537 0-1.007-.09-1.32-.269-.225-.134-.426-.47-.47-.784a.832.832 0 0 1 .245-.716c.157-.157.426-.246.807-.246.56 0 1.209.179 1.657.335a.45.45 0 0 1 .246.202c.134.246.358.739.246 1.075-.045.246-.694.403-1.41.403ZM30.105 28.887l2.172-1.702-2.015-1.12.627-2.642L28 25.147l-1.164-3.045c-.135.313-.963 2.172-.963 2.172s.672-2.911.694-3.068l.201-.739s1.568 3.202 1.657 3.381l4.21-2.71-1.343 4.3 2.91 1.568-4.097 1.88ZM18.976 27.073c-.045-.09-.493-1.21-.56-1.433l-.537 1.231-1.008-.515c.023.023.112.202.202.426.022.022.022.067.044.09l.023.066-.515.18.739.828-1.366-.918.828-.202a62.71 62.71 0 0 1-1.052-1.545s1.769.874 1.948.919c.202-.381.761-1.59.761-1.59l.112.47c.023.09.359 1.88.381 1.993ZM18.619 32.962c-.359-.067-1.546-.314-1.837-.94a48.372 48.372 0 0 0-1.052-2.128l2.06-.201c.134.179.605.828.717.873.112.045.492.179.582.224l.224 1.724c-.045.09-.202.403-.224.515-.067-.022-.224-.022-.47-.067Z" fill="currentColor"/><path d="m21.999 28.08-.358 1.232-1.277-4.098c-.067-.29-.067-.269-.335-.47-.493-.358-3.023-2.15-3.494-2.486-.201-.134-.336-.201-.47-.201a.377.377 0 0 0-.269.112c-.022.022-.044.022-.067.045a6.908 6.908 0 0 1-3.224.828 6.468 6.468 0 0 1-5.442-2.71c-1.231-1.724-1.164-3.38-.694-5.329.045-.134.112-.358.157-.492.067-.18.067-.202.045-.291-.045-.112-.135-.18-.359-.359-.09-.067-.201-.134-.268-.201-1.366-1.142-1.859-2.643-1.523-4.523.314-1.68 1.344-2.777 3.247-3.404.067-.022.157-.045.224-.067.157-.045.224-.045.269-.09.09-.067.112-.179.156-.403.023-.112.045-.224.068-.291.694-2.418 2.284-3.919 4.859-4.613a8.48 8.48 0 0 1 1.769-.268c1.724-.023 3.291.694 4.77 2.172.268.268.514.604.76.94.135.18.247.358.404.515l.09.134.156-.044c.112-.023.201-.068.291-.09.201-.067.38-.112.582-.134.112-.023.224-.023.336-.023 1.232-.022 2.351.829 2.62 2.038.134.605.47.873.94 1.075 2.396 1.052 3.247 2.306 3.471 5.083.202 2.53-.94 4.545-3.448 6.135-.224.135-.47.247-.74.381-.223.112-.47.224-.693.358-.247.135-.538.426-.605.74-.246 1.208-.537 2.776-.761 4.187-.045.268-.09.313.067.56L25 27.632l-.18 1.746L22 28.08Zm-4.143-7.77 3.068 2.105s.426-2.44.605-3.381l.044-.202-2.597-.94-1.12 2.418ZM21.238 36.612l.492-6.09 1.12-.83 2.508 1.255.38-.605.493 6.27h-4.993Z" fill="currentColor"/></svg>