<svg width="37" height="38" viewBox="0 0 37 38" fill="none" xmlns="http://www.w3.org/2000/svg"><path d="m28.85 13.595 4.564-2.834-2.882-1.537L31.9 5.597 27.073 7.83l-1.49-4.276c-.264.504-1.85 2.522-1.85 2.522s1.538-4.636 1.658-4.9L25.824 0s2.041 5.477 2.137 5.765c.529-.288 7.279-3.723 7.279-3.723L32.38 8.815l4.468 2.427-7.999 2.353ZM21.717 25.773a9.37 9.37 0 0 0 2.354-5.188l.024-.144h-.144c-2.186.072-3.603.12-4.18.168-.312.024-.624.24-.913.625-.36.456-.624.792-.816 1.032-.577.721-.625.793-.625 1.61 0 .048 0 .216.48 1.897H16.12c-.192-.552-.384-1.032-.504-1.345-.12-.288-.409-.48-.625-.552-.24-.072-.504-.168-.768-.264-.385-.145-.841-.313-1.346-.433a1.725 1.725 0 0 0-.408-.048 1.14 1.14 0 0 0-.576.144c-.697.433-2.594 1.634-3.7 2.354l-.12.072.049.048H3.149a13.227 13.227 0 0 1-1.537-6.197c0-7.326 5.957-13.283 13.283-13.283s13.26 5.957 13.26 13.283c0 2.162-.53 4.3-1.538 6.197h-4.9v.024ZM6.897 15.036a9.1 9.1 0 0 0-1.202 4.54 9.2 9.2 0 0 0 1.394 4.876l.072.12.336-.264c.96-.793 2.546-2.09 3.147-2.594.312-.264.336-.72.336-.889v-.744c0-.457 0-.865-.024-1.418-.024-.408-.144-.696-.36-.864-.505-.433-1.081-.865-1.634-1.297-.456-.36-.913-.697-1.297-1.033-.12-.096-.336-.288-.576-.457l-.12-.096-.073.12Zm7.998 3.147a1.394 1.394 0 0 0 0 2.786c.769 0 1.393-.624 1.393-1.393a1.41 1.41 0 0 0-1.393-1.393Zm3.267-6.341c-.12.48-.264.984-.408 1.513-.193.672-.385 1.37-.529 2.018-.024.048-.024.12-.024.168 0 .216.096.48.288.744.385.553.745.985 1.201 1.538l.12.144c.097.12.48.552.961.624.529.072 1.177.12 1.73.144l.24.024c.096 0 2.306.145 2.306.145l-.024-.145a9.263 9.263 0 0 0-5.573-7.638l-.144-.048-.144.769Zm-3.267-1.466A9.206 9.206 0 0 0 7.977 13.5l-.096.096.12.072c.817.553 2.763 1.874 3.483 2.33.145.072.313.12.505.12.24 0 .48-.072.624-.12.433-.12.817-.264 1.25-.432.24-.096.48-.192.768-.288.432-.145.673-.36.793-.625.312-.72.6-1.49.888-2.234.144-.36.265-.696.409-1.033l.072-.216c.048-.144.12-.288.168-.456l.048-.144-.144-.024a13.064 13.064 0 0 0-1.97-.168ZM2.236 38a1.394 1.394 0 0 1-1.393-1.393v-7.975c0-.768.625-1.393 1.393-1.393h25.438c.768 0 1.393.625 1.393 1.393v7.975c0 .769-.625 1.393-1.393 1.393H2.236Zm11.578-2.93c-1.657 0-3.194 0-4.708.024l-2.978.048-.817.024c-.72.024-1.441.024-2.138.048a.474.474 0 0 0-.48.432c0 .24.192.456.48.456.697.025 1.417.025 2.114.049l.84.023 2.98.049c1.513.024 3.05.024 4.707.024h1.225c2.21 0 4.06-.024 5.933-.048l2.979-.048c.336 0 .648-.025.985-.025.672-.023 1.32-.023 1.993-.047.24 0 .433-.193.457-.409a.505.505 0 0 0-.12-.312.716.716 0 0 0-.337-.144c-.672-.024-1.321-.024-1.993-.048l-.985-.024-2.979-.048c-1.897-.024-3.723-.024-5.933-.048l-1.225.024Zm-5.38-2.859c.192 0 .384.024.528.072.072.024.168.072.264.12s.192.12.289.193c.144.096.264.168.408.24l.072.024c.072.024.12.048.192.072.096.024.168.072.264.072.216.048.457.072.697.072.096 0 .216 0 .336-.024a2.19 2.19 0 0 0 1.009-.336c.144-.072.24-.169.36-.217.096-.072.193-.144.289-.192.144-.072.312-.12.528-.144H13.958l.144.024s.12.024.144.024c.169.048.337.168.505.288.24.169.528.36.865.457l.048.024c.072.024.144.024.192.048h.048c.072 0 .144.024.192.024h.505c.36-.024.744-.12 1.032-.288.169-.096.313-.193.433-.265.096-.072.168-.12.24-.168a1.39 1.39 0 0 1 .504-.168h.216c.145 0 .265.024.385.048.168.048.336.12.528.24l.048.048c.096.072.193.12.289.193.144.072.288.168.48.216.264.096.552.144.865.144h.144c.36 0 .72-.096 1.009-.24.216-.096.384-.216.528-.337.072-.048.12-.096.192-.12.168-.12.337-.168.529-.216.096-.024.216-.024.336-.024.096 0 .192 0 .288.024.168.024.337.096.553.216.048.024.144.096.144.096.168.12.384.24.624.36.265.097.577.169.937.169h.048c.24 0 .433-.168.433-.408a.397.397 0 0 0-.12-.289.456.456 0 0 0-.313-.12c-.24 0-.432-.048-.6-.12a3.483 3.483 0 0 1-.457-.288l-.12-.096a2.31 2.31 0 0 0-.913-.409c-.192-.048-.384-.048-.576-.048-.12 0-.264 0-.408.024a2.339 2.339 0 0 0-.961.36c-.072.049-.144.097-.24.145a2.149 2.149 0 0 1-.385.216c-.168.072-.336.12-.552.12h-.048a1.65 1.65 0 0 1-.529-.072c-.096-.024-.168-.072-.264-.12-.072-.048-.168-.096-.264-.168l-.048-.024a3.62 3.62 0 0 0-.409-.24l-.048-.024c-.072-.024-.12-.073-.192-.097l-.096-.048c-.048-.024-.072-.024-.096-.024h-.024a3.257 3.257 0 0 0-.697-.072c-.12 0-.216 0-.336.024a2.597 2.597 0 0 0-1.009.313l-.36.216c-.12.072-.216.144-.288.192-.144.072-.312.12-.529.144h-.312l-.144-.024-.12-.024a1.874 1.874 0 0 1-.505-.288c-.264-.168-.528-.36-.864-.457l-.072-.024c-.072-.024-.12-.024-.193-.048h-.072c-.072 0-.12-.024-.192-.024h-.504c-.384.024-.745.12-1.033.289-.168.096-.312.192-.432.264-.096.072-.168.12-.24.168a1.392 1.392 0 0 1-.505.168H11.1c-.144 0-.264-.024-.36-.048a1.9 1.9 0 0 1-.505-.24l-.072-.048c-.096-.072-.192-.12-.288-.192-.144-.072-.288-.169-.48-.217a2.557 2.557 0 0 0-.89-.144h-.143c-.36 0-.721.096-1.01.24a2.223 2.223 0 0 0-.528.337c-.072.048-.12.096-.192.12-.168.12-.336.168-.528.216-.096.024-.217.024-.313.024s-.192 0-.288-.024a1.368 1.368 0 0 1-.528-.216c-.048-.024-.096-.048-.12-.096-.193-.12-.385-.264-.649-.36-.288-.12-.6-.169-.937-.169h-.048a.474.474 0 0 0-.48.433c0 .12.048.24.12.312a.474.474 0 0 0 .336.144c.24 0 .433.048.577.12.144.072.288.168.456.288l.12.097c.216.144.529.336.913.408.192.048.384.048.576.048.145 0 .265 0 .409-.024.336-.048.696-.168.985-.36l.216-.145c.144-.096.264-.192.384-.24.168-.072.336-.12.553-.12h.048Zm5.356-3.41c-1.657 0-3.195 0-4.684.023l-2.978.048-.865.024c-.697.024-1.417.024-2.114.048a.474.474 0 0 0-.48.433c0 .24.192.456.48.456.72.024 1.417.024 2.138.048l.84.024 2.98.048c1.513.024 3.026.024 4.683.024h1.25c1.825 0 3.915 0 5.932-.048l2.979-.048 1.032-.024c.65-.024 1.298-.024 1.922-.048.24 0 .432-.192.456-.408a.505.505 0 0 0-.12-.312c-.096-.072-.192-.145-.336-.145-.672-.024-1.321-.024-1.994-.048-.336 0-.648-.024-.984-.024l-2.979-.048c-1.898-.024-3.747-.024-5.933-.048l-1.225.024Z" fill="currentColor"/></svg>