<svg width="38" height="28" viewBox="0 0 38 28" fill="none" xmlns="http://www.w3.org/2000/svg"><path d="M35.824 16.309c.076-.633 0-1.291-.228-1.899-.354-1.012-1.519-2.709-2.354-4.127 0 0 1.848.178 2.05-.835.355-1.823-2.43-2.025-3.316-1.089 0 0-1.14-3.417-2-5.316C29.37 1.726 26.306.89 23.014.359c-.709-.126-3.468-.354-4.203-.354-3.341-.05-6.506.278-7.316 1.468-1.165 1.722-2.886 4.912-2.886 4.912-.734-1.089-3.494-1.342-3.443.506.025 1.038 1.898 1.165 1.898 1.165-1.063 1.265-2.48 2.734-3.012 3.696A3.998 3.998 0 0 0 3.52 13.6l-.152 1.266-.177 6.481c-.025.608.456 1.114 1.089 1.165L8 22.815c.658.051 1.24-.405 1.291-1.038l.127-1.519s2.557.532 6.86 1.064c.887.1 1.823.202 2.861.303 1.013.076 1.975.127 2.861.178 4.33.202 6.937.126 6.937.126l-.127 1.52c-.05.632.43 1.164 1.09 1.24l3.72.329c.634.05 1.19-.38 1.267-.962l.911-6.43.025-1.317ZM10.508 15.27c-.051.304-.43.506-.836.405-1.013-.228-2.835-.81-3.418-2.152-.557-1.215.253-2.253.861-2.81.278-.253.835-.228 1.089.076.405.456.987 1.215 1.645 2.152.659.962.71 1.823.659 2.329Zm15.873-6c-1.696.025-3.848 0-6.177-.177h-.102a76.068 76.068 0 0 1-6.126-.861c-2.279-.43-3.696-.81-3.696-.81l2.405-4.507c.303-.582.911-.987 1.595-1.063.405-.05 3.443-.025 6.455.228 3.013.253 6 .76 6.406.86.658.203 1.19.684 1.392 1.317l1.62 4.836c.026 0-1.468.152-3.772.177Zm6.734 6.532c-.81 1.215-2.709 1.493-3.747 1.544-.405.025-.759-.228-.759-.532.025-.506.202-1.342 1.038-2.202.785-.81 1.519-1.443 1.975-1.848.303-.254.835-.203 1.088.1.532.684 1.14 1.824.405 2.938Z" fill="currentColor"/><path d="M21.393 23.954H.253c-.152 0-.253.102-.253.253v3.039c0 .152.101.253.253.253h21.14c.152 0 .253-.101.253-.253v-3.038c0-.152-.101-.254-.253-.254Z" fill="currentColor"/><path d="M22.254 25.929h-.532c-.076 0-.152.05-.152.152v1.291c0 .076.05.127.152.127h.532c.076 0 .126-.051.126-.127v-1.291c.026-.101-.05-.152-.126-.152ZM23.823 25.929h-.532c-.076 0-.152.05-.152.152v1.291c0 .076.051.127.152.127h.532c.076 0 .152-.051.152-.127v-1.291c-.026-.101-.076-.152-.152-.152ZM25.368 25.929h-.532c-.076 0-.127.05-.127.152v1.291c0 .076.051.127.127.127h.532c.076 0 .152-.051.152-.127v-1.291c0-.101-.076-.152-.152-.152ZM26.937 25.929h-.532c-.076 0-.126.05-.126.152v1.291c0 .076.05.127.126.127h.532c.076 0 .152-.051.152-.127v-1.291c-.025-.101-.076-.152-.152-.152ZM28.48 25.929h-.53c-.077 0-.153.05-.153.152v1.291c0 .076.051.127.152.127h.532c.076 0 .152-.051.152-.127v-1.291c0-.101-.076-.152-.152-.152ZM30.051 25.929h-.531c-.076 0-.127.05-.127.152v1.291c0 .076.05.127.127.127h.531c.076 0 .152-.051.152-.127v-1.291c-.025-.101-.076-.152-.152-.152ZM31.62 25.929h-.531c-.076 0-.127.05-.127.152v1.291c0 .076.05.127.127.127h.531c.076 0 .152-.051.152-.127v-1.291c-.025-.101-.076-.152-.152-.152ZM33.165 25.929h-.532c-.076 0-.152.05-.152.152v1.291c0 .076.05.127.152.127h.532c.076 0 .126-.051.126-.127v-1.291c.026-.101-.05-.152-.126-.152ZM34.735 25.929h-.532c-.076 0-.152.05-.152.152v1.291c0 .076.051.127.152.127h.532c.076 0 .127-.051.127-.127v-1.291c0-.101-.051-.152-.127-.152ZM36.279 25.929h-.532c-.076 0-.151.05-.151.152v1.291c0 .076.05.127.151.127h.532c.076 0 .152-.051.152-.127v-1.291c0-.101-.076-.152-.152-.152ZM37.848 25.929h-.532c-.076 0-.151.05-.151.152v1.291c0 .076.05.127.151.127h.532c.076 0 .152-.051.152-.127v-1.291c-.025-.101-.076-.152-.152-.152Z" fill="currentColor"/></svg>