<svg width="38" height="22" viewBox="0 0 38 22" fill="none" xmlns="http://www.w3.org/2000/svg"><path d="M20.11 21.83H18.857c-5.684 0-9.731-.439-13.513-1.486-2.024-.585-3.59-1.292-4.866-2.266-.434-.317-.554-.634-.434-1.145C1.128 11.987 2.236 6.797 3.585.56c.096-.438.313-.536.626-.536.097 0 .193 0 .314.025.674.097 1.373.219 2.023.34 1.59.269 3.228.561 4.842.634 2.336.122 5.444.244 8.575.244 1.373 0 2.674-.024 3.927-.073 2.288-.098 4.6-.439 6.817-.755.94-.147 1.903-.293 2.842-.415.073 0 .145-.024.217-.024.313 0 .554.097.65.633 1.157 5.385 2.361 10.842 3.542 16.202.12.56-.024.926-.506 1.291-2.144 1.535-4.625 2.193-6.769 2.656-3.132.707-6.624 1.048-10.575 1.048Zm5.926-6.48 1.879.974-.916-1.365.193-2.631 2.698.365 3.71-1.218-3.325-.146-1.903-.78 2.072-1.34.867-1.388 1.012-1.998-2.602 2.9-2.553.56.675-2.632 2.023-3.679-3.011 2.948-.916 2.047-2.288-3.898.386 4.483-.771-.512-2.963.073 2.36.975.747 1.096-3.324 1.779h-5.781l6.407 1.413 3.18-1.194-.699 3.338 2.192-2.51.65 2.34Z" fill="currentColor"/></svg>