<svg width="82" height="39" viewBox="0 0 82 39" fill="none" xmlns="http://www.w3.org/2000/svg">
<path d="M80.8481 36.6182H0V38.8956H80.8481V36.6182Z" fill="#444B8C"/>
<path d="M81.9267 2.27742H74.575V0H81.9267V2.27742ZM67.2234 2.27742H59.8718V0H67.2234V2.27742ZM52.5201 2.27742H45.1685V0H52.5201V2.27742ZM37.8168 2.27742H30.4652V0H37.8168V2.27742ZM23.1135 2.27742H15.7619V0H23.1135V2.27742ZM8.41024 2.27742H1.05859V0H8.41024V2.27742Z" fill="#444B8C"/>
<path d="M5.85358 1.13867H3.57617V37.7371H5.85358V1.13867Z" fill="#444B8C"/>
<path d="M77.252 1.13867H74.9746V37.7371H77.252V1.13867Z" fill="#444B8C"/>
<path d="M30.4043 14.144H45.2674V20.5967C45.2674 22.2149 44.8878 23.4535 44.1087 24.3524C43.3296 25.2314 42.2908 25.671 40.9523 25.671C39.6338 25.671 38.575 25.2314 37.7959 24.3325C37.0168 23.4335 36.6172 22.1949 36.6172 20.6167V16.821H30.4043V14.144ZM38.6749 16.821V20.2571C38.6749 21.196 38.8747 21.9152 39.2542 22.3747C39.6338 22.8342 40.1932 23.0739 40.9124 23.0739C41.6315 23.0739 42.1909 22.8542 42.5705 22.3947C42.95 21.9352 43.1498 21.236 43.1498 20.2571V16.821H38.6749Z" fill="#444B8C"/>
</svg>
