<svg width="32" height="40" viewBox="0 0 32 40" fill="none" xmlns="http://www.w3.org/2000/svg">
<path d="M0 39.9779V0H17.6761C22.1008 0 25.5147 1.03638 27.9404 3.10915C30.3661 5.18192 31.5789 8.02646 31.5789 11.6207C31.5789 15.1709 30.3436 18.0154 27.8955 20.1103C25.4249 22.2051 22.0334 23.2635 17.6761 23.2635H7.36692V40H0V39.9779ZM7.38938 17.6847H16.8226C19.4056 17.6847 21.3596 17.1554 22.6398 16.1191C23.92 15.0606 24.5489 13.5832 24.5489 11.6869C24.5489 9.74642 23.9201 8.24697 22.6623 7.21059C21.4045 6.1742 19.4505 5.66704 16.8226 5.66704H7.38938V17.6847Z" fill="#444B8C"/>
</svg>
