<svg width="98" height="37" viewBox="0 0 98 37" fill="none" xmlns="http://www.w3.org/2000/svg">
<path d="M97.9665 35.355H0V36.3632H97.9665V35.355Z" fill="#444B8C"/>
<path d="M1.68039 19.1221H0V20.1303H1.68039V19.1221Z" fill="#444B8C"/>
<path d="M93.0609 20.1303H89.8009V19.1221H93.0609V20.1303ZM86.5074 20.1303H83.2474V19.1221H86.5074V20.1303ZM79.9875 20.1303H76.7275V19.1221H79.9875V20.1303ZM73.4676 20.1303H70.2076V19.1221H73.4676V20.1303ZM66.9477 20.1303H63.6877V19.1221H66.9477V20.1303ZM60.4278 20.1303H57.1678V19.1221H60.4278V20.1303ZM53.9079 20.1303H50.6479V19.1221H53.9079V20.1303ZM47.3544 20.1303H44.0944V19.1221H47.3544V20.1303ZM40.8345 20.1303H37.5745V19.1221H40.8345V20.1303ZM34.3146 20.1303H31.0546V19.1221H34.3146V20.1303ZM27.7947 20.1303H24.5347V19.1221H27.7947V20.1303ZM21.2748 20.1303H18.0148V19.1221H21.2748V20.1303ZM14.7549 20.1303H11.4949V19.1221H14.7549V20.1303ZM8.20136 20.1303H4.94141V19.1221H8.20136V20.1303Z" fill="#444B8C"/>
<path d="M98.0007 19.1221H96.3203V20.1303H98.0007V19.1221Z" fill="#444B8C"/>
<path d="M97.9665 0H0V1.00823H97.9665V0Z" fill="#444B8C"/>
<path d="M39.6899 19.627H38.6816V35.8595H39.6899V19.627Z" fill="#444B8C"/>
<path d="M7.15862 19.627H6.15039V35.8595H7.15862V19.627Z" fill="#444B8C"/>
<path d="M71.3832 19.627H70.375V35.8595H71.3832V19.627Z" fill="#444B8C"/>
<path d="M82.1699 25.4077H88.757V28.2644C88.757 28.9701 88.589 29.5415 88.2529 29.9112C87.9168 30.3144 87.4463 30.5161 86.8414 30.5161C86.2701 30.5161 85.7996 30.3144 85.4299 29.9112C85.0938 29.5079 84.9258 28.9701 84.9258 28.2644V26.584H82.1699V25.4077ZM85.8668 26.584V28.0963C85.8668 28.4996 85.9676 28.8357 86.1356 29.0374C86.3037 29.239 86.5389 29.3398 86.875 29.3398C87.2111 29.3398 87.4463 29.239 87.6144 29.0374C87.7824 28.8357 87.8832 28.5332 87.8832 28.0963V26.584H85.8668Z" fill="#444B8C"/>
</svg>
