<svg width="98" height="62" viewBox="0 0 98 62" fill="none" xmlns="http://www.w3.org/2000/svg">
<path d="M98 60.6631H0V61.6573H98V60.6631Z" fill="#444B8C"/>
<path d="M3.977 40.6787H0V41.673H3.977V40.6787Z" fill="#444B8C"/>
<path d="M85.8381 41.673H77.6521V40.6787H85.8381V41.673ZM69.4661 41.673H61.2801V40.6787H69.4661V41.673ZM53.0941 41.673H44.9081V40.6787H53.0941V41.673ZM36.7221 41.673H28.5361V40.6787H36.7221V41.673ZM20.3501 41.673H12.1641V40.6787H20.3501V41.673Z" fill="#444B8C"/>
<path d="M98.0004 40.6787H94.0234V41.673H98.0004V40.6787Z" fill="#444B8C"/>
<path d="M3.977 20.4961H0V21.4903H3.977V20.4961Z" fill="#444B8C"/>
<path d="M85.8381 21.4903H77.6521V20.4961H85.8381V21.4903ZM69.4661 21.4903H61.2801V20.4961H69.4661V21.4903ZM53.0941 21.4903H44.9081V20.4961H53.0941V21.4903ZM36.7221 21.4903H28.5361V20.4961H36.7221V21.4903ZM20.3501 21.4903H12.1641V20.4961H20.3501V21.4903Z" fill="#444B8C"/>
<path d="M98.0004 20.4961H94.0234V21.4903H98.0004V20.4961Z" fill="#444B8C"/>
<path d="M49.6131 53.7699V52.0465H43.1836V50.6877H49.6131V48.9644L54.8163 51.3837L49.6131 53.7699Z" fill="#444B8C"/>
<path d="M48.3869 28.4825L48.3869 30.2059L54.8164 30.2059L54.8164 31.5647L48.3869 31.5647L48.3869 33.2881L43.1837 30.9019L48.3869 28.4825Z" fill="#444B8C"/>
<path d="M48.3869 8.36633L48.3869 10.0897L54.8164 10.0897L54.8164 11.4485L48.3869 11.4485L48.3869 13.1719L43.1837 10.7857L48.3869 8.36633Z" fill="#444B8C"/>
<path d="M98 0.378906H0V1.37316H98V0.378906Z" fill="#444B8C"/>
</svg>
