<svg width="98" height="74" viewBox="0 0 98 74" fill="none" xmlns="http://www.w3.org/2000/svg">
<path fill-rule="evenodd" clip-rule="evenodd" d="M20.3281 70.9002C20.3281 52.7966 28.6441 36.6496 41.6357 26.0264L42.1024 26.598C29.2744 37.0876 21.0658 53.0283 21.0658 70.9002V74.0007H20.3281V70.9002Z" fill="#444B8C"/>
<path fill-rule="evenodd" clip-rule="evenodd" d="M33.8534 71.4165V74.0002H33.1152V71.4165H33.8534Z" fill="#444B8C"/>
<path fill-rule="evenodd" clip-rule="evenodd" d="M78.1884 26.4101C77.2759 26.4101 76.37 26.4377 75.4712 26.4922L75.4266 25.7553C76.3402 25.7 77.2611 25.6719 78.1884 25.6719H81.6126V26.4101H78.1884ZM91.8851 26.4101H88.4609V25.6719H91.8851V26.4101ZM70.0827 27.1513C68.2865 27.484 66.5283 27.9252 64.815 28.4679L64.5924 27.7641C66.3344 27.2123 68.1222 26.7636 69.9485 26.4254L70.0827 27.1513ZM59.7507 30.4236C58.0981 31.182 56.5 32.0392 54.964 32.9875L54.5766 32.3593C56.1382 31.3951 57.763 30.5237 59.4432 29.7526L59.7507 30.4236ZM50.5258 36.1176C49.1108 37.2509 47.7665 38.4691 46.5008 39.7644L45.9733 39.2483C47.26 37.9316 48.6264 36.6933 50.0648 35.5413L50.5258 36.1176ZM42.9475 43.8732C41.8502 45.3102 40.8385 46.8161 39.9201 48.3832L39.2837 48.0098C40.2174 46.4166 41.2459 44.8857 42.3613 43.425L42.9475 43.8732ZM37.4659 53.2292C36.752 54.8835 36.1357 56.5898 35.6244 58.3407L34.9163 58.1336C35.4362 56.3534 36.0628 54.6186 36.7886 52.9365L37.4659 53.2292ZM34.4255 63.6385C34.2809 64.5287 34.1628 65.4278 34.0719 66.3349L33.3379 66.2613C33.4302 65.3392 33.5504 64.4251 33.6974 63.52L34.4255 63.6385Z" fill="#444B8C"/>
<path fill-rule="evenodd" clip-rule="evenodd" d="M96.9988 26.4345H94.4414V25.6963H96.9988V26.4345Z" fill="#444B8C"/>
<path d="M27.558 54.7325L28.6154 55.077L27.3613 58.9895L28.1728 59.2356L29.4269 55.3476L30.4843 55.6921L30.0416 52.0503L27.558 54.7325Z" fill="#444B8C"/>
<path d="M39.9995 58.7444L41.0568 59.0889L39.8027 62.9768L40.6388 63.2475L41.8929 59.3596L42.9257 59.6794L42.4831 56.0376L39.9995 58.7444Z" fill="#444B8C"/>
<path fill-rule="evenodd" clip-rule="evenodd" d="M78.165 39.2548C60.7868 39.2548 46.7143 53.337 46.7143 70.7272V74H45.9766V70.7272C45.9766 52.9293 60.3794 38.5166 78.165 38.5166H98.001V39.2548H78.165Z" fill="#444B8C"/>
<path fill-rule="evenodd" clip-rule="evenodd" d="M1.00003 0.154297H96.9998V0.892509H0.5L1.00003 0.154297Z" fill="#444B8C"/>
<path fill-rule="evenodd" clip-rule="evenodd" d="M3.55737 13.664H1V12.9258H3.55737V13.664Z" fill="#444B8C"/>
<path fill-rule="evenodd" clip-rule="evenodd" d="M11.5068 13.664H8.91797V12.9258H11.5068V13.664ZM21.8624 13.664H16.6846V12.9258H21.8624V13.664ZM32.2179 13.664H27.0401V12.9258H32.2179V13.664ZM42.5734 13.664H37.3956V12.9258H42.5734V13.664ZM52.9289 13.664H47.7511V12.9258H52.9289V13.664ZM63.2844 13.664H58.1066V12.9258H63.2844V13.664ZM73.6399 13.664H68.4621V12.9258H73.6399V13.664ZM83.9954 13.664H78.8176V12.9258H83.9954V13.664ZM91.762 13.664H89.1731V12.9258H91.762V13.664Z" fill="#444B8C"/>
<path fill-rule="evenodd" clip-rule="evenodd" d="M96.9988 13.664H94.4414V12.9258H96.9988V13.664Z" fill="#444B8C"/>
<path d="M24.0165 8.32373L24.0165 7.21641L28.123 7.21641L28.123 6.35517L24.0165 6.35516L24.0165 5.24785L20.6968 6.79809L24.0165 8.32373Z" fill="#444B8C"/>
<path d="M24.8038 18.3389V19.4462H20.6973V20.3074H24.8038V21.4148L28.1235 19.8645L24.8038 18.3389Z" fill="#444B8C"/>
<path fill-rule="evenodd" clip-rule="evenodd" d="M41.77 26.5593H0V25.8193H41.77V26.5593Z" fill="#444B8C"/>
</svg>
