<svg width="98" height="43" viewBox="0 0 98 43" fill="none" xmlns="http://www.w3.org/2000/svg">
<path d="M97.9999 41.0942H0V42.0885H97.9999V41.0942Z" fill="#444B8C"/>
<path d="M3.977 21.1094H0V22.1036H3.977V21.1094Z" fill="#444B8C"/>
<path d="M85.836 22.1036H77.65V21.1094H85.836V22.1036ZM69.4641 22.1036H61.2781V21.1094H69.4641V22.1036ZM53.0921 22.1036H44.9061V21.1094H53.0921V22.1036ZM36.7201 22.1036H28.5341V21.1094H36.7201V22.1036ZM20.3481 22.1036H12.1621V21.1094H20.3481V22.1036Z" fill="#444B8C"/>
<path d="M98.0004 21.1094H94.0234V22.1036H98.0004V21.1094Z" fill="#444B8C"/>
<path d="M49.6131 34.2006V32.4772H43.1836V31.1184H49.6131V29.395L54.8163 31.7812L49.6131 34.2006Z" fill="#444B8C"/>
<path d="M48.3869 8.88L48.3869 10.6034L54.8164 10.6034L54.8164 11.929L48.3869 11.929L48.3869 13.6855L43.1837 11.2662L48.3869 8.88Z" fill="#444B8C"/>
<path d="M97.9999 0.925781H0V1.92003H97.9999V0.925781Z" fill="#444B8C"/>
</svg>
