<svg width="98" height="68" viewBox="0 0 98 68" fill="none" xmlns="http://www.w3.org/2000/svg">
<path d="M97.9289 34.562V35.1947H83.3765C64.1843 35.1947 47.9447 48.8332 44.6405 67.6739H44.0078C47.3823 48.4817 63.9031 34.562 83.4468 34.562H97.9289Z" fill="#444B8C"/>
<path d="M97.5781 0.325684H0V0.958395H97.5781V0.325684Z" fill="#444B8C"/>
<path d="M2.24964 11.644H0V12.2768H2.24964V11.644Z" fill="#444B8C"/>
<path d="M90.8986 12.3466H86.4697V11.7139H90.8986V12.3466ZM82.0407 12.3466H77.6117V11.7139H82.0407V12.3466ZM73.1827 12.3466H68.7537V11.7139H73.1827V12.3466ZM64.3248 12.3466H59.8958V11.7139H64.3248V12.3466ZM55.4668 12.3466H51.0378V11.7139H55.4668V12.3466ZM46.6089 12.3466H42.1799V11.7139H46.6089V12.3466ZM37.7509 12.3466H33.3219V11.7139H37.7509V12.3466ZM28.8226 12.3466H24.3937V11.7139H28.8226V12.3466ZM19.9647 12.3466H15.5357V11.7139H19.9647V12.3466ZM11.1067 12.3466H6.67773V11.7139H11.1067V12.3466Z" fill="#444B8C"/>
<path d="M97.5778 11.644H95.3281V12.2768H97.5778V11.644Z" fill="#444B8C"/>
<path d="M26.1518 16.4243V17.4085H22.4961V18.1818H26.1518V19.1661L29.1044 17.8303L26.1518 16.4243Z" fill="#444B8C"/>
<path d="M26.1518 28.3755V29.3597H22.4961V30.133H26.1518V31.1172L29.1044 29.7112L26.1518 28.3755Z" fill="#444B8C"/>
<path d="M51.5308 35.1947L51.3199 35.3353C41.3371 43.4903 34.8694 54.9494 33.1119 67.6739H32.4792C34.2367 54.9494 40.5638 43.42 50.4763 35.1947H0V34.562H51.3199L51.5308 35.1947Z" fill="#444B8C"/>
<path d="M2.67152 23.103H0.421875V23.7357H2.67152V23.103Z" fill="#444B8C"/>
<path d="M91.3225 23.7357H86.8935V23.103H91.3225V23.7357ZM82.4645 23.7357H78.0355V23.103H82.4645V23.7357ZM73.6066 23.7357H69.1776V23.103H73.6066V23.7357ZM64.7486 23.7357H60.3196V23.103H64.7486V23.7357ZM55.8906 23.7357H51.4617V23.103H55.8906V23.7357ZM47.0327 23.7357H42.6037V23.103H47.0327V23.7357ZM38.1747 23.7357H33.7457V23.103H38.1747V23.7357ZM29.3168 23.7357H24.8878V23.103H29.3168V23.7357ZM20.4588 23.7357H16.0298V23.103H20.4588V23.7357ZM11.6009 23.7357H7.17188V23.103H11.6009V23.7357Z" fill="#444B8C"/>
<path d="M97.9996 23.103H95.75V23.7357H97.9996V23.103Z" fill="#444B8C"/>
<path d="M42.9549 51.9968L43.7985 52.4889L41.9707 55.5821L42.6034 56.0039L44.4312 52.8404L45.2749 53.3325L45.6264 50.0986L42.9549 51.9968Z" fill="#444B8C"/>
<path d="M97.9289 34.562V35.1947H83.3765C64.1843 35.1947 47.9447 48.8332 44.6405 67.6739H44.0078C47.3823 48.4817 63.9031 34.562 83.4468 34.562H97.9289Z" fill="#444B8C"/>
<path d="M97.5781 0.325684H0V0.958395H97.5781V0.325684Z" fill="#444B8C"/>
<path d="M2.24964 11.644H0V12.2768H2.24964V11.644Z" fill="#444B8C"/>
<path d="M90.8986 12.3466H86.4697V11.7139H90.8986V12.3466ZM82.0407 12.3466H77.6117V11.7139H82.0407V12.3466ZM73.1827 12.3466H68.7537V11.7139H73.1827V12.3466ZM64.3248 12.3466H59.8958V11.7139H64.3248V12.3466ZM55.4668 12.3466H51.0378V11.7139H55.4668V12.3466ZM46.6089 12.3466H42.1799V11.7139H46.6089V12.3466ZM37.7509 12.3466H33.3219V11.7139H37.7509V12.3466ZM28.8226 12.3466H24.3937V11.7139H28.8226V12.3466ZM19.9647 12.3466H15.5357V11.7139H19.9647V12.3466ZM11.1067 12.3466H6.67773V11.7139H11.1067V12.3466Z" fill="#444B8C"/>
<path d="M97.5778 11.644H95.3281V12.2768H97.5778V11.644Z" fill="#444B8C"/>
<path d="M26.1518 16.4243V17.4085H22.4961V18.1818H26.1518V19.1661L29.1044 17.8303L26.1518 16.4243Z" fill="#444B8C"/>
<path d="M26.1518 28.3755V29.3597H22.4961V30.133H26.1518V31.1172L29.1044 29.7112L26.1518 28.3755Z" fill="#444B8C"/>
<path d="M51.5308 35.1947L51.3199 35.3353C41.3371 43.4903 34.8694 54.9494 33.1119 67.6739H32.4792C34.2367 54.9494 40.5638 43.42 50.4763 35.1947H0V34.562H51.3199L51.5308 35.1947Z" fill="#444B8C"/>
<path d="M2.67152 23.103H0.421875V23.7357H2.67152V23.103Z" fill="#444B8C"/>
<path d="M91.3225 23.7357H86.8935V23.103H91.3225V23.7357ZM82.4645 23.7357H78.0355V23.103H82.4645V23.7357ZM73.6066 23.7357H69.1776V23.103H73.6066V23.7357ZM64.7486 23.7357H60.3196V23.103H64.7486V23.7357ZM55.8906 23.7357H51.4617V23.103H55.8906V23.7357ZM47.0327 23.7357H42.6037V23.103H47.0327V23.7357ZM38.1747 23.7357H33.7457V23.103H38.1747V23.7357ZM29.3168 23.7357H24.8878V23.103H29.3168V23.7357ZM20.4588 23.7357H16.0298V23.103H20.4588V23.7357ZM11.6009 23.7357H7.17188V23.103H11.6009V23.7357Z" fill="#444B8C"/>
<path d="M97.9996 23.103H95.75V23.7357H97.9996V23.103Z" fill="#444B8C"/>
<path d="M42.9549 51.9968L43.7985 52.4889L41.9707 55.5821L42.6034 56.0039L44.4312 52.8404L45.2749 53.3325L45.6264 50.0986L42.9549 51.9968Z" fill="#444B8C"/>
</svg>
