<svg width="30" height="22" viewBox="0 0 30 22" fill="none" xmlns="http://www.w3.org/2000/svg">
<rect x="16.1333" y="7.80664" width="8.79343" height="1.04832" rx="0.2" fill="currentColor"/>
<rect x="19.6428" y="13.9336" width="5.29052" height="1.04832" rx="0.2" fill="currentColor"/>
<rect x="19.6428" y="11" width="5.29052" height="1.04832" rx="0.2" fill="currentColor"/>
<mask id="path-4-inside-1" fill="white">
<rect width="29.3333" height="22" rx="1"/>
</mask>
<rect width="29.3333" height="22" rx="1" stroke="currentColor" stroke-width="2.5" mask="url(#path-4-inside-1)"/>
<path d="M14.9137 10.966L12.3998 10.2979L10.7609 8.29382L10.747 8.27961C10.622 8.15169 10.4554 8.06641 10.2887 8.06641H7.06649C6.84427 8.06641 6.63593 8.19433 6.52482 8.39332L5.39982 10.4685L3.85815 11.1792C3.63593 11.2787 3.48315 11.5061 3.48315 11.7619V13.6381C3.48315 13.9935 3.76093 14.2777 4.10815 14.2777H5.1776C5.39982 14.9884 6.0526 15.5143 6.83038 15.5143C7.60815 15.5143 8.26093 14.9884 8.48315 14.2777H10.5804C10.8026 14.9884 11.4554 15.5143 12.2332 15.5143C13.0109 15.5143 13.6637 14.9884 13.8859 14.2777H14.7748C15.122 14.2777 15.3998 13.9935 15.3998 13.6381V11.6056C15.3859 11.2929 15.1915 11.037 14.9137 10.966ZM7.59427 13.7376C7.59427 14.164 7.26093 14.5052 6.84427 14.5052C6.4276 14.5052 6.09427 14.164 6.09427 13.7376C6.09427 13.3112 6.4276 12.9701 6.84427 12.9701C7.26093 12.9701 7.59427 13.3112 7.59427 13.7376ZM12.9832 13.7376C12.9832 14.164 12.6498 14.5052 12.2332 14.5052C11.8165 14.5052 11.4832 14.164 11.4832 13.7376C11.4832 13.3112 11.8165 12.9701 12.2332 12.9701C12.6498 12.9701 12.9832 13.3112 12.9832 13.7376ZM14.4137 13.2686H13.8859C13.6915 12.5153 13.0109 11.9751 12.2193 11.9751C11.4276 11.9751 10.7609 12.5295 10.5526 13.2686H8.49704C8.3026 12.5153 7.62204 11.9751 6.83038 11.9751C6.03871 11.9751 5.37204 12.5295 5.16371 13.2686H4.45538V11.9751L5.89982 11.3071C6.02482 11.2502 6.12204 11.165 6.19149 11.037L7.26093 9.04714H10.122L11.7193 11.0086L11.7332 11.0228C11.8165 11.1081 11.9137 11.1792 12.0387 11.2076L14.3998 11.833V13.2686H14.4137Z" fill="currentColor"/>
</svg>
