<svg width="30" height="22" viewBox="0 0 30 22" fill="none" xmlns="http://www.w3.org/2000/svg">
<path d="M8.77276 11.3502C10.0926 11.3502 11.1725 10.2703 11.1725 8.95049C11.1725 7.63065 10.0926 6.55078 8.77276 6.55078C7.45292 6.55078 6.37305 7.63065 6.37305 8.95049C6.37305 10.2703 7.45292 11.3502 8.77276 11.3502ZM8.77276 7.60066C9.52267 7.60066 10.1226 8.20058 10.1226 8.95049C10.1226 9.7004 9.52267 10.3003 8.77276 10.3003C8.02285 10.3003 7.42292 9.7004 7.42292 8.95049C7.42292 8.20058 8.03785 7.60066 8.77276 7.60066Z" fill="currentColor"/>
<path d="M8.77249 12.1309C5.00795 12.1309 4.573 14.1406 4.573 15.6554C4.573 15.7322 5.70963 15.6554 5.62287 15.6554C5.62287 14.4106 5.86284 13.1807 8.77249 13.1807C11.6821 13.1807 11.9221 14.3956 11.9221 15.6554C11.9989 15.7322 12.1621 15.7322 12.4471 15.7322C12.732 15.7322 12.972 15.7322 12.972 15.6554C12.987 14.1406 12.552 12.1309 8.77249 12.1309Z" fill="currentColor"/>
<rect x="15.4597" y="7.07227" width="8.87752" height="1.04832" rx="0.2" fill="currentColor"/>
<rect x="15.4597" y="10.7559" width="8.87752" height="1.04832" rx="0.2" fill="currentColor"/>
<rect x="19.0029" y="14.4238" width="5.34111" height="1.04832" rx="0.2" fill="currentColor"/>
<mask id="path-6-inside-1" fill="white">
<rect width="29.3333" height="22" rx="1"/>
</mask>
<rect width="29.3333" height="22" rx="1" stroke="currentColor" stroke-width="2.5" mask="url(#path-6-inside-1)"/>
</svg>
