<svg width="24" height="24" viewBox="0 0 24 24" fill="none" xmlns="http://www.w3.org/2000/svg">
<path d="M9.68054 5.88218V5.78218H9.58054H5.70957H5.60957V5.88218V9.75315V9.85315H5.70957H9.58054H9.68054V9.75315V5.88218ZM5.12893 4.62734H10.1612C10.5318 4.62734 10.8354 4.93096 10.8354 5.30154V10.3338C10.8354 10.7044 10.5318 11.008 10.1612 11.008H5.12893C4.75835 11.008 4.45474 10.7044 4.45474 10.3338V5.30154C4.45474 4.93096 4.75835 4.62734 5.12893 4.62734Z" fill="currentColor" stroke="currentColor" stroke-width="0.2"/>
<path d="M9.68054 14.224V14.124H9.58054H5.70957H5.60957V14.224V18.0949V18.1949H5.70957H9.58054H9.68054V18.0949V14.224ZM5.12893 12.9691H10.1612C10.5318 12.9691 10.8354 13.2728 10.8354 13.6433V18.6756C10.8354 19.0462 10.5318 19.3498 10.1612 19.3498H5.12893C4.75835 19.3498 4.45474 19.0462 4.45474 18.6756V13.6433C4.45474 13.2728 4.75835 12.9691 5.12893 12.9691Z" fill="currentColor" stroke="currentColor" stroke-width="0.2"/>
<path d="M18.0812 5.88218V5.78218H17.9812H14.1102H14.0102V5.88218V9.75315V9.85315H14.1102H17.9812H18.0812V9.75315V5.88218ZM13.5296 4.62734H18.5618C18.9501 4.62734 19.236 4.92931 19.236 5.30154V10.3338C19.236 10.7044 18.9324 11.008 18.5618 11.008H13.5296C13.159 11.008 12.8554 10.7044 12.8554 10.3338V5.30154C12.8554 4.93096 13.159 4.62734 13.5296 4.62734Z" fill="currentColor" stroke="currentColor" stroke-width="0.2"/>
<path d="M12.9486 12.9887H14.0325C14.0511 12.9887 14.0665 12.9951 14.0832 13.0105C14.098 13.0242 14.1123 13.0437 14.126 13.0683V14.3596C14.126 14.5116 14.2482 14.6338 14.4002 14.6338H15.7551C15.7966 14.6338 15.8293 14.6665 15.8293 14.708V17.5338C15.8293 17.5754 15.7966 17.608 15.7551 17.608H14.6131C14.5716 17.608 14.5389 17.5754 14.5389 17.5338V16.2371C14.5389 16.0851 14.4167 15.9629 14.2647 15.9629H12.9486C12.9071 15.9629 12.8744 15.9302 12.8744 15.8887V13.0629C12.8744 13.0213 12.9071 12.9887 12.9486 12.9887Z" fill="currentColor" stroke="currentColor" stroke-width="0.2"/>
<path d="M16.2584 13.0082H19.0455C19.0507 13.0082 19.0662 13.0113 19.0888 13.0323C19.1072 13.0494 19.1251 13.074 19.1391 13.1032V15.8501C19.1391 15.8917 19.1064 15.9243 19.0649 15.9243H17.981C17.9395 15.9243 17.9068 15.8917 17.9068 15.8501V14.534C17.9068 14.382 17.7846 14.2598 17.6326 14.2598H16.2584C16.2169 14.2598 16.1842 14.2272 16.1842 14.1856V13.0824C16.1842 13.0409 16.2169 13.0082 16.2584 13.0082Z" fill="currentColor" stroke="currentColor" stroke-width="0.2"/>
<path d="M16.2584 18.0023H19.0262C19.0552 18.0023 19.0746 18.0111 19.085 18.0198C19.0936 18.0272 19.1004 18.0378 19.1004 18.0572V19.1604C19.1004 19.202 19.0677 19.2346 19.0262 19.2346H16.2584C16.2169 19.2346 16.1842 19.202 16.1842 19.1604V18.0765C16.1842 18.035 16.2169 18.0023 16.2584 18.0023Z" fill="currentColor" stroke="currentColor" stroke-width="0.2"/>
<path d="M12.9486 18.0023H14.0518C14.0809 18.0023 14.1003 18.0111 14.1106 18.0198C14.1193 18.0272 14.126 18.0378 14.126 18.0572V19.1604C14.126 19.202 14.0934 19.2346 14.0518 19.2346H12.9486C12.9071 19.2346 12.8744 19.202 12.8744 19.1604V18.0765C12.8744 18.035 12.9071 18.0023 12.9486 18.0023Z" fill="currentColor" stroke="currentColor" stroke-width="0.2"/>
<mask id="path-8-inside-1" fill="white">
<rect width="24" height="24" rx="1"/>
</mask>
<rect width="24" height="24" rx="1" stroke="currentColor" stroke-width="2.5" mask="url(#path-8-inside-1)"/>
</svg>
