<svg width="57" height="35" viewBox="0 0 57 35" fill="none" xmlns="http://www.w3.org/2000/svg">
<g clip-path="url(#clip0)">
<path d="M18.8709 33.9782H1.50963C0.956077 33.9782 0.503174 33.4545 0.503174 32.8145V1.74542C0.503174 1.10542 0.956077 0.581787 1.50963 0.581787H18.8709V33.9782Z" stroke="currentColor" stroke-width="1.25" stroke-miterlimit="10"/>
<path d="M37.2386 0.581787H18.8708V33.9782H37.2386V0.581787Z" stroke="currentColor" stroke-width="1.25" stroke-miterlimit="10"/>
<path d="M3.23999 20.52L16.2 20.52" stroke="currentColor" stroke-width="1.25" stroke-miterlimit="10"/>
<path d="M10.8 24.8401L16.2 24.8401" stroke="currentColor" stroke-width="1.25" stroke-miterlimit="10"/>
<path d="M21.6001 7.56006H31.7149" stroke="currentColor" stroke-width="1.25" stroke-miterlimit="10"/>
<path d="M21.6001 14.04H31.2117" stroke="currentColor" stroke-width="1.25" stroke-miterlimit="10"/>
<path d="M21.6001 20.52H27.8401" stroke="currentColor" stroke-width="1.25" stroke-miterlimit="10"/>
<path d="M54.6504 33.9782H37.2891V0.581787H54.6504C55.2039 0.581787 55.6568 1.10542 55.6568 1.74542V32.8145C55.6568 33.4545 55.2039 33.9782 54.6504 33.9782Z" stroke="currentColor" stroke-width="1.25" stroke-miterlimit="10"/>
<path d="M39.96 7.56006H48.6658" stroke="currentColor" stroke-width="1.25" stroke-miterlimit="10"/>
<path d="M39.96 14.04H52.4903" stroke="currentColor" stroke-width="1.25" stroke-miterlimit="10"/>
<path d="M39.96 20.52H48.3638" stroke="currentColor" stroke-width="1.25" stroke-miterlimit="10"/>
</g>
<path d="M14.2649 10.0826L12.0777 9.50134L10.6518 7.75768L10.6397 7.74531C10.531 7.63401 10.386 7.55981 10.2409 7.55981H7.43747C7.24413 7.55981 7.06287 7.67111 6.9662 7.84424L5.9874 9.64974L4.64609 10.2681C4.45275 10.3546 4.31982 10.5525 4.31982 10.7751V12.4075C4.31982 12.7166 4.5615 12.9639 4.8636 12.9639H5.79406C5.9874 13.5823 6.55535 14.0398 7.23205 14.0398C7.90875 14.0398 8.47669 13.5823 8.67003 12.9639H10.4947C10.688 13.5823 11.256 14.0398 11.9327 14.0398C12.6094 14.0398 13.1773 13.5823 13.3707 12.9639H14.144C14.4461 12.9639 14.6878 12.7166 14.6878 12.4075V10.6391C14.6757 10.367 14.5066 10.1444 14.2649 10.0826ZM7.89666 12.494C7.89666 12.865 7.60665 13.1618 7.24413 13.1618C6.88161 13.1618 6.5916 12.865 6.5916 12.494C6.5916 12.123 6.88161 11.8262 7.24413 11.8262C7.60665 11.8262 7.89666 12.123 7.89666 12.494ZM12.5852 12.494C12.5852 12.865 12.2952 13.1618 11.9327 13.1618C11.5702 13.1618 11.2802 12.865 11.2802 12.494C11.2802 12.123 11.5702 11.8262 11.9327 11.8262C12.2952 11.8262 12.5852 12.123 12.5852 12.494ZM13.8299 12.0859H13.3707C13.2015 11.4305 12.6094 10.9606 11.9206 10.9606C11.2318 10.9606 10.6518 11.4429 10.4705 12.0859H8.68212C8.51294 11.4305 7.92083 10.9606 7.23205 10.9606C6.54327 10.9606 5.96324 11.4429 5.78198 12.0859H5.1657V10.9606L6.42243 10.3794C6.53118 10.3299 6.61577 10.2557 6.67619 10.1444L7.60665 8.4131H10.0959L11.4856 10.1197L11.4977 10.132C11.5702 10.2062 11.6548 10.2681 11.7635 10.2928L13.8178 10.8369V12.0859H13.8299Z" fill="currentColor"/>
<defs>
<clipPath id="clip0">
<rect width="56.16" height="34.56" fill="white"/>
</clipPath>
</defs>
</svg>
