<svg width="270" height="180" viewBox="0 0 270 180" fill="none" xmlns="http://www.w3.org/2000/svg"><path opacity=".7" d="M130.7 3.9c0-.2 0-.3.2-.4l3-3.3.5-.2c.2 0 .3 0 .5.2l3 3.4c.3.2.3.6 0 .9-.2.2-.6.2-.9-.1l-2.7-3-2.6 2.9c-.2.2-.6.3-.8 0a.7.7 0 0 1-.2-.4ZM130.6 175.2c0-.2 0-.4.2-.5.2-.2.6-.2.9 0l2.7 3 2.6-2.8c.2-.2.6-.3.8 0 .3.2.3.6.1.8l-3 3.3-.5.2c-.2 0-.4 0-.5-.2l-3.1-3.4a.5.5 0 0 1-.2-.4Z" fill="#292A56"/><path opacity=".7" d="M133.7 172.7v-5c0-.3.3-.5.6-.5s.6.3.6.6v5a.6.6 0 0 1-1.2 0Zm0-9.8v-5c0-.3.3-.5.6-.5s.6.3.6.6v5c0 .3-.3.5-.6.5a.6.6 0 0 1-.6-.6Zm0-9.8v-5c0-.3.3-.6.6-.6s.6.3.6.6v5a.6.6 0 0 1-1.2 0Zm0-9.9v-4.9c0-.3.3-.6.6-.6s.6.3.6.6v5c0 .3-.3.5-.6.5a.6.6 0 0 1-.6-.6Zm0-9.8v-5c0-.3.3-.5.6-.5s.6.3.6.6v4.9a.6.6 0 0 1-1.2 0Zm0-9.8v-5c0-.3.3-.5.6-.5s.6.3.6.6v4.9c0 .3-.3.6-.6.6a.6.6 0 0 1-.6-.6Zm0-9.9v-5c0-.3.3-.5.6-.5s.6.3.6.6v5a.6.6 0 0 1-1.2 0Zm0-9.8v-5c0-.3.3-.5.6-.5s.6.3.6.6v5c0 .3-.3.5-.6.5a.6.6 0 0 1-.6-.6Zm0-9.8v-5c0-.3.3-.6.6-.6s.6.3.6.6v5a.6.6 0 0 1-1.2 0Zm0-10v-4.8c0-.4.3-.6.6-.6s.6.3.6.6v4.9a.6.6 0 0 1-1.2 0Zm0-9.7v-5c0-.3.3-.5.6-.5s.6.3.6.6v4.9a.6.6 0 0 1-1.2 0Zm0-9.9v-5c0-.3.3-.5.6-.5s.6.3.6.6v5a.6.6 0 0 1-1.2 0Zm0-9.8v-5c0-.3.3-.5.6-.5s.6.3.6.6v5a.6.6 0 0 1-1.2 0Zm0-9.8v-5c0-.3.3-.6.6-.6s.6.3.6.6v5a.6.6 0 0 1-1.2 0Zm0-9.9v-4.9c0-.3.3-.6.6-.6s.6.3.6.6v5a.6.6 0 0 1-1.2 0Zm0-9.8v-5c0-.3.3-.5.6-.5s.6.3.6.6v4.9a.6.6 0 0 1-1.2 0Zm0-9.8v-5c0-.3.3-.5.6-.5s.6.3.6.6v4.9a.6.6 0 0 1-1.2 0Zm0-9.9v-5c0-.3.3-.5.6-.5s.6.3.6.6v5a.6.6 0 0 1-1.2 0Z" fill="#292A56"/><path opacity=".8" d="M1.8 67.6c-1 0-1.8-.8-1.8-1.8V2.2C0 1.2.8.4 1.8.4H68c1 0 1.7.8 1.7 1.8S69 3.9 68 3.9H3.5v62c0 1-.7 1.7-1.7 1.7ZM268.2 67.7c-1 0-1.7-.8-1.7-1.8V4h-64.2c-1 0-1.8-.8-1.8-1.8s.8-1.8 1.8-1.8h66c1 0 1.7.8 1.7 1.8v63.8c0 1-.8 1.8-1.8 1.8ZM268.2 179.1H202c-1 0-1.7-.7-1.7-1.7s.7-1.8 1.7-1.8h64.5v-61.9c0-1 .7-1.7 1.7-1.7s1.8.7 1.8 1.7v63.7c0 .9-.8 1.7-1.8 1.7ZM67.7 179.2h-66c-1 0-1.7-.7-1.7-1.7v-63.9c0-1 .8-1.8 1.8-1.8s1.7.8 1.7 1.8v62.1h64.2c1 0 1.8.8 1.8 1.8s-.8 1.7-1.8 1.7Z" fill="#292A56"/><path d="M72 168.4H52.9c-3 0-5.3-2.4-5.3-5.3v-34.8c0-.6 0-1 .2-1.6l.6-1.8.6 1.8.8 2.3c3.9 8 4.2 8 13.2 8h1.4c6.3.1 9.1.2 11.9-2.4l1-1v29.6c0 2.8-2.4 5.2-5.3 5.2Zm-23.2-39v33.8c0 2.2 1.9 4.1 4.2 4.1h19c2.3 0 4.2-1.9 4.2-4.1v-26.8c-2.8 2-6 2-11.7 2h-1.4c-9.5-.2-10.3-.4-14.3-9ZM213.3 168.4h-19c-3 0-5.4-2.4-5.4-5.3v-33l1 1.6c4 6 7 6.3 15.9 6.3 8.2 0 9-.7 11.7-6.3l1-2.4v33.8c.1 3-2.2 5.3-5.2 5.3ZM190.2 134v29.3c0 2.2 1.8 4.1 4.1 4.1h19.1c2.3 0 4.2-1.9 4.2-4.1v-28.8c-2.4 4.2-4.4 4.8-11.7 4.8-8.4 0-12-.3-15.7-5.3ZM69 68.7l-1-.4s3-7.8 3.6-13.3c.6-5.7 5.2-20.3 8.2-24 3-3.7 12.1-8 56.3-7.9v1.2c-44.2-.1-52.8 4.2-55.4 7.5a77 77 0 0 0-8 23.3c-.6 5.7-3.5 13.2-3.7 13.6Z" fill="#292A56"/><path d="M75 92.9h-.5c-.2 0-6.2 0-12.4-2.8-4.1-1.7-10.8-4.7-11.2-9l-.1-.6-.1-2.8c0-8.5 3.7-12.7 4.8-14.1 3.4-3.9 9.6 1.3 13.2 4.4l1.3 1c3.6 3 5 8.8 5.1 13.5.2 4.7 0 9.7 0 9.7v.7ZM58.8 63.4c-.8 0-1.5.3-2.1 1A18.6 18.6 0 0 0 52 77.6v2.6l.2.8c.3 3.5 6.9 6.4 10.4 8 5 2.1 9.8 2.5 11.4 2.6 0-1.5.2-5.3 0-9.1 0-4.2-1.4-10-4.7-12.6l-1.2-1c-2.6-2.2-6.6-5.6-9.4-5.6ZM193.4 92.9v-.6s-.2-5 0-9.8c.2-4.5 1.6-10.5 5.2-13.5l1.2-1c3.6-3 9.8-8.2 13.1-4.5 1.3 1.5 5 5.7 5 14.2v2.8c-.2.1-.2.3-.2.7-.4 4.2-7.1 7.1-11.2 9a35 35 0 0 1-12.4 2.7h-.7ZM210 63.5c-2.9 0-6.8 3.3-9.4 5.5l-1.2 1c-3.2 2.7-4.6 8.4-4.7 12.6-.2 3.8 0 7.6 0 9.1 1.7 0 6.5-.5 11.4-2.6 3.5-1.6 10.2-4.5 10.5-8v-.8c.1-.3.2-.5.2-2.6 0-8-3.5-12-4.6-13.2-.6-.8-1.4-1-2.2-1Z" fill="#292A56"/><path d="m56.6 64.3-.9-.8c5.4-5.7 10.6-17.1 14.5-25.4 1.8-3.8 3.3-7 4.4-8.7l.7-1.2c2.9-5 3.5-6 15.3-8.8 10.6-2.5 47-2.6 47.7-1.8l-.5 1c-.3 0-34.8-1-47 2-11.2 2.7-11.7 3.6-14.5 8.2l-.7 1.2c-1 1.7-2.5 5-4.3 8.6-3.9 8.4-9.2 19.9-14.7 25.7ZM63 134.9c-2.6 0-5.1-.3-6-1.5-.9-1.2-1.8-2.6-2.5-4-.3-.6-.3-1.2 0-1.8.3-.5 1-.8 1.6-.8h14.7c.7 0 1.3.4 1.6 1 .3.6.2 1.3-.2 1.8l-3.5 4.3c-.2.4-.7.6-1.1.7-1.4 0-3 .3-4.7.3Zm-7-7c-.3 0-.5.2-.5.3 0 0-.2.3 0 .6.5 1 1.3 2.4 2.5 3.9.7 1 4.5 1.2 9.4.7l.4-.2 3.4-4.3c.1-.2.2-.4 0-.7 0-.2-.2-.3-.5-.3H56ZM206.1 134.9c-1.6 0-3.3-.2-4.6-.3-.4 0-.8-.3-1.1-.6l-3.4-4.3c-.4-.5-.6-1.2-.3-1.9.3-.6 1-1 1.6-1h14.8c.6 0 1.1.4 1.5.9.3.5.3 1.2 0 1.8-.7 1.4-1.6 2.7-2.5 4-1 1-3.4 1.4-6 1.4Zm-7.8-7c-.2 0-.4.1-.5.4v.6l3.5 4.3.4.2c4.9.6 8.7.3 9.4-.7l2.5-3.8c.2-.3 0-.6 0-.6s-.2-.3-.5-.3h-14.8ZM201 67.6c-.2-.3-4.4-6.8-5.1-12.5a77 77 0 0 0-8-23.3c-2.6-3.3-11.2-7.7-55.5-7.5v-1.2c44.3 0 53.4 4.2 56.4 8A78 78 0 0 1 197 55c.7 5.5 5 12 5 12l-1 .6Z" fill="#292A56"/><path d="M144.4 65c-.4 0-38-.7-46.4-1a42.2 42.2 0 0 1-26.2-8.6l.8-1c0 .1 8.6 7.7 25.5 8.4 8.4.3 45.9 1 46.3 1a2573.5 2573.5 0 0 1 26.2-1c17-.7 25.4-8.2 25.5-8.3l.8.9c-.3.3-8.9 7.9-26.2 8.5a8501.3 8501.3 0 0 0-26.3 1ZM77 135.5l-.7-.9c.7-.7 1.5-1.6 2.3-2.9 1.8-2.6 11-15.9 20.3-17a266 266 0 0 1 24.9-.4h20.7c13.3-.2 21.5 0 25.1.4 9.3 1.2 18.6 14.4 20.3 17l-1 .7c-5-7.5-12.7-15.7-19.5-16.6-3.5-.4-11.7-.6-25-.4h-20.8c-8.3-.1-20-.2-24.6.4-6.8.9-14.6 9.1-19.5 16.6a14 14 0 0 1-2.4 3.1ZM47.8 127c-3.2-9.8-1.7-26.4-1-33 .9-6.9 2.6-12.7 4-16.5l1.1.4c-1.4 3.7-3 9.5-3.9 16.3-.7 6.5-2.2 22.9 1 32.5l-1.2.3ZM218.6 132.2l-1-.5 1.2-2.8c4.3-9 2.7-27.3 1.8-34.8a71.9 71.9 0 0 0-3.8-16.3l1-.4c1.4 3.8 3.2 9.7 4 16.5.9 7.6 2.5 26.2-2 35.5a46 46 0 0 1-1.2 2.8Z" fill="#292A56"/><path d="M212.1 64.3a114.6 114.6 0 0 1-14.7-25.6c-1.7-3.8-3.3-7-4.2-8.7l-.8-1.2c-2.8-4.7-3.2-5.5-14.5-8.2-12.2-3-46.6-2-47-2l-.5-1c.7-.8 37.2-.7 47.8 1.8 11.7 2.9 12.4 4 15.3 8.8l.7 1.2c1.1 1.7 2.6 5 4.4 8.8 3.9 8.2 9.2 19.6 14.5 25.3l-1 .8ZM111.2 105c-10.8 0-20-.4-22.6-1.3-5.6-2-14.2-10.6-14.5-11l.8-.8s8.8 8.7 14.1 10.7c3 1 18 1.4 42.2.8h6.6c24 .6 38.8.2 41.7-.8 5.4-2 14-10.7 14.1-10.7l.8.8c-.3.4-8.9 9-14.5 11-4 1.4-25 1.3-42.1 1h-6.6l-20 .2ZM114 136l-16.5-.1c-16.2-.5-18.7-3.3-18.9-3.6l1-.7s2.4 2.6 17.9 3c8.7.3 17.7.3 24.7.3h28c8.4 0 14.9 0 20.9-.2 15.4-.4 17.9-3 17.9-3l1 .6c-.3.3-2.8 3-19 3.6-6 .1-12.4.2-20.9.1h-36ZM142.7 83.7h-1.2c0-.2 0-1-1.2-1.3-1.3-.3-10.7-.3-12 0-1.2.3-1.3 1.1-1.3 1.3H126c0-1 .5-2 2-2.4 1.6-.4 11.1-.4 12.6 0 1.7.3 2.2 1.5 2.2 2.4Z" fill="#292A56"/></svg>