<svg width="270" height="180" viewBox="0 0 270 180" fill="none" xmlns="http://www.w3.org/2000/svg"><g clip-path="url(#a)"><path opacity=".7" d="M133 3.9v-.4l3.1-3.3.5-.2c.2 0 .4 0 .5.2l3.1 3.4c.2.2.2.6 0 .9-.3.2-.7.2-1-.1l-2.6-3-2.6 2.9c-.3.2-.7.3-1 0a.7.7 0 0 1 0-.4ZM132.9 175.2l.1-.5c.3-.2.7-.2 1 0l2.6 3 2.6-2.8c.2-.2.6-.3.9 0 .2.2.3.6 0 .8l-3 3.3-.5.2c-.2 0-.3 0-.5-.2l-3-3.4a.5.5 0 0 1-.2-.4Z" fill="#292A56"/><path opacity=".7" d="M136 172.7v-5c0-.3.3-.5.6-.5.2 0 .5.3.5.6v5c0 .3-.3.5-.5.5a.6.6 0 0 1-.6-.6Zm0-9.8v-5c0-.3.3-.5.6-.5.2 0 .5.3.5.6v5c0 .3-.3.5-.5.5a.6.6 0 0 1-.6-.6Zm0-9.8v-5c0-.3.3-.6.6-.6.2 0 .5.3.5.6v5c0 .3-.3.5-.5.5a.6.6 0 0 1-.6-.5Zm0-9.9v-4.9c0-.3.3-.6.6-.6.2 0 .5.3.5.6v5c0 .3-.3.5-.5.5a.6.6 0 0 1-.6-.6Zm0-9.8v-5c0-.3.3-.5.6-.5.2 0 .5.3.5.6v4.9c0 .3-.3.6-.5.6a.6.6 0 0 1-.6-.6Zm0-9.8v-5c0-.3.3-.5.6-.5.2 0 .5.3.5.6v4.9c0 .3-.3.6-.5.6a.6.6 0 0 1-.6-.6Zm0-9.9v-5c0-.3.3-.5.6-.5.2 0 .5.3.5.6v5c0 .3-.3.5-.5.5a.6.6 0 0 1-.6-.6Zm0-9.8v-5c0-.3.3-.5.6-.5.2 0 .5.3.5.6v5c0 .3-.3.5-.5.5a.6.6 0 0 1-.6-.6Zm0-9.8v-5c0-.3.3-.6.6-.6.2 0 .5.3.5.6v5c0 .3-.3.5-.5.5a.6.6 0 0 1-.6-.5Zm0-10v-4.8c0-.4.3-.6.6-.6.2 0 .5.3.5.6v4.9c0 .3-.3.6-.5.6a.6.6 0 0 1-.6-.6Zm0-9.7v-5c0-.3.3-.5.6-.5.2 0 .5.3.5.6v4.9c0 .3-.3.6-.5.6a.6.6 0 0 1-.6-.6Zm0-9.9v-5c0-.3.3-.5.6-.5.2 0 .5.3.5.6v5c0 .3-.3.5-.5.5a.6.6 0 0 1-.6-.6Zm0-9.8v-5c0-.3.3-.5.6-.5.2 0 .5.3.5.6v5c0 .3-.3.5-.5.5a.6.6 0 0 1-.6-.6Zm0-9.8v-5c0-.3.3-.6.6-.6.2 0 .5.3.5.6v5c0 .3-.3.5-.5.5a.6.6 0 0 1-.6-.5Zm0-9.9v-4.9c0-.3.3-.6.6-.6.2 0 .5.3.5.6v5c0 .3-.3.5-.5.5a.6.6 0 0 1-.6-.6Zm0-9.8v-5c0-.3.3-.5.6-.5.2 0 .5.3.5.6v4.9c0 .3-.3.6-.5.6a.6.6 0 0 1-.6-.6Zm0-9.8v-5c0-.3.3-.5.6-.5.2 0 .5.3.5.6v4.9c0 .3-.3.6-.5.6a.6.6 0 0 1-.6-.6Zm0-9.9v-5c0-.3.3-.5.6-.5.2 0 .5.3.5.6v5c0 .3-.3.5-.5.5a.6.6 0 0 1-.6-.6Z" fill="#292A56"/><path opacity=".8" d="M1.8 67.6c-1 0-1.8-.8-1.8-1.8V2.2C0 1.2.8.4 1.8.4H68c1 0 1.7.8 1.7 1.8S69 3.9 68 3.9H3.5v62c0 1-.7 1.7-1.7 1.7ZM268.2 67.7c-1 0-1.7-.8-1.7-1.8V4h-64.2c-1 0-1.8-.8-1.8-1.8s.8-1.8 1.8-1.8h66c1 0 1.7.8 1.7 1.8v63.8c0 1-.8 1.8-1.8 1.8ZM268.2 179.1H202c-1 0-1.7-.7-1.7-1.7s.7-1.8 1.7-1.8h64.5v-61.9c0-1 .7-1.7 1.7-1.7s1.8.7 1.8 1.7v63.7c0 .9-.8 1.7-1.8 1.7ZM67.7 179.2h-66c-1 0-1.7-.7-1.7-1.7v-63.9c0-1 .8-1.8 1.8-1.8s1.7.8 1.7 1.8v62.1h64.2c1 0 1.8.8 1.8 1.8s-.8 1.7-1.8 1.7Z" fill="#292A56"/><path d="M70.9 165.3H51.4c-3 0-5.4-2.2-5.4-5V128c0-.5 0-1 .3-1.6l.5-1.6.6 1.6.7 1.9.1.2.8 7.2c.9 1 7.9 7.9 26.8 11.2l.5.1v13.4c0 2.7-2.4 5-5.4 5Zm-23.7-35.2v30.2c0 2 1.9 3.8 4.2 3.8H71c2.3 0 4.2-1.7 4.2-3.8v-12.4C54.7 144.2 48.2 136.5 48 136h-.2v-.2l-.6-5.8ZM59 65.8h-.4c-9-.3-12.5-.7-13.9-1-4.4-.8-4.8-4.5-4.7-7.6 0-1.1.6-2.1 1.6-3 2.9-2.7 8.9-4 12.8-3.8 4.9.3 5.8 6.8 5.9 8.9h2l-.4.9-2.7 5.4-.2.2Zm-5.6-14.2a19 19 0 0 0-11 3.4c-.8.7-1.2 1.5-1.2 2.2-.2 4 .9 6 3.7 6.4 1.4.3 4.8.7 13.3 1l2.2-4.2H59v-.6s-.3-8-4.9-8.3l-.8.1ZM80.8 109.5c-2.2 0-6-1.5-15-6.8l-1.3-.8c-4.7-2.7-8.4-4.9-9.1-10.4-.8-5.7 3.4-10.7 3.8-11.2.3-.4.7-.7 1.3-.8 2.3-.4 6.6 2.3 14 8C80.9 92.2 83.7 97 85 100v.3c2 4 1.5 7-1 8.2l-.5.2c-.7.3-1.5.7-2.7.7ZM61 80.7h-.3c-.3 0-.5.1-.5.3-.1 0-4.3 5-3.7 10.3.7 5 4 6.9 8.5 9.5l1.3.8c13.1 7.7 14.7 7 16.8 5.9l.4-.2c2.4-1.2 1.6-4.3.5-6.6l-.1-.3c-1.4-2.9-4-7.6-10-12.2-8.6-6.2-11.6-7.5-12.9-7.5Z" fill="#292A56"/><path d="M139.4 150.5c-33.5-.2-54.9-1-63-2.4l-.8-.1.2-1.2.8.1c8 1.4 29.4 2.2 62.8 2.3v1.3ZM62 60.1l-1.1-.5c2-4 4.2-8.8 6.8-14.5 6.7-15 12.5-26.6 20.9-28.8 11-3 49.2-2.4 50.8-2.4v1.2c-.4 0-39.7-.5-50.5 2.3-7.9 2.1-13.5 13.5-20 28.2l-7 14.5ZM47 128.5l-.6-5.6c-.8-7.7-1.5-13-1.5-23-.2-15.2 4.2-21 7.4-25.1l1.9-2.8 4-7 1 .5c-1.5 3-2.8 5.2-4 7.2l-2 2.9c-3.1 4-7.3 9.5-7.2 24.3 0 10 .7 15.2 1.6 22.9l.5 5.6-1 .1ZM73 139.8c-3.4 0-7.5-.5-12.3-1.2a34 34 0 0 1-12.9-4.5l.7-1c2.5 1.5 6.6 3.5 12.4 4.3 13.1 2 19.5 2 22.4-3 2-3.2 7.2-10.8 13.7-10.8h42.4v1.3H97c-5.9 0-10.8 7.1-12.7 10.2-2.2 3.5-6 4.7-11.2 4.7Z" fill="#292A56"/><path d="M139.4 142.3a523 523 0 0 1-65.3-2.5l.2-1.2c.1 0 16.5 2.4 65 2.5v1.2ZM139.4 106c-24 0-45.3-1.4-45.5-1.4v-1.2c.3 0 21.5 1.3 45.5 1.4v1.2ZM46 105.4h-1.2c.1-1.7 5.1-11.5 11-13.1l.3 1.2c-5.5 1.4-10 10.8-10 12ZM61 80.1h-1.2v-.6c0-3.1-.3-12.5 3.5-19.3 3.2-5.8 13-25.4 17.2-33.7a6.6 6.6 0 0 1 6-3.6h53v1.2h-53c-2.1 0-4 1.1-5 3a2329 2329 0 0 1-17.2 33.7c-3.6 6.5-3.3 15.6-3.2 18.6v.7Z" fill="#292A56"/><path d="M71.6 62.2c-5.6 0-7.1-.5-7.7-1.4-.6-1 0-2 .6-3.1l.5-1 1 .7-.4.8c-.4.8-.9 1.6-.7 2 .7 1 8.5 1 15.2.6 18.9-1 58.8-.2 59.2-.1v1.2c-.4 0-40.3-.8-59.2.1-3.5.2-6.3.2-8.5.2ZM82.1 26.1l-1-.5c4.3-8.3 9.7-9.8 9.9-9.9l.3 1.2s-5.1 1.4-9.2 9.2ZM220.6 165.3h-19.4c-3 0-5.5-2.2-5.5-5V147h.5c19-3.4 25.9-10.3 26.8-11.3l.8-7.2v-.2l.8-1.9.5-1.6.6 1.6.3 1.6v32.4c0 2.7-2.4 5-5.4 5ZM197 148v12.4c0 2 1.9 3.8 4.2 3.8h19.5c2.3 0 4.2-1.7 4.2-3.8V130l-.7 5.8v.2c-.3.4-6.8 8-27.2 11.8ZM213 65.8l-.2-.3L210 60l-.4-1h2c.2-2 1-8.4 6-8.8 3.8-.2 9.8 1.1 12.7 3.7 1 1 1.7 2 1.7 3 0 3.2-.3 6.9-4.8 7.7-1.4.3-5 .6-13.9 1l-.3.1Zm-1.5-5.3 2 4.1c8.7-.3 12.1-.7 13.4-.9 2.8-.5 4-2.4 3.8-6.4 0-.8-.5-1.5-1.3-2.2a19.2 19.2 0 0 0-11.9-3.4c-4.6.3-4.8 8.1-4.8 8.2v.6h-1.2ZM189.2 108c-1 0-1.7-.2-2.2-.4-3.2-1.6-2.7-7-1-10.6 1.1-2.5 2-3.2 4.6-5.1l3-2.3c3.3-2.6 16.6-12.4 20.5-11.8.5.2.8.5 1 .7.4.5 5 6.3 4.2 12.4-.7 5.3-4.8 7.5-9.2 9.9l-2.9 1.6a45.6 45.6 0 0 1-18 5.5Zm24.4-29c-3.2 0-14.2 7.6-19.3 11.6l-3 2.3c-2.6 1.9-3.3 2.4-4.3 4.7-1.4 3-1.8 7.8.5 8.9 2.4 1.2 13.7-1.8 19-5.1l3-1.7c4.2-2.3 7.9-4.4 8.5-9 .7-5.7-3.9-11.4-4-11.4v-.1l-.3-.1h-.1Z" fill="#292A56"/><path d="M132.5 150.5v-1.3a574 574 0 0 0 63-2.3h.8l.2 1.1-.8.1c-8.2 1.4-29.7 2.2-63.2 2.4ZM225 128.5l-1.1-.1.5-5.5c.9-7.7 1.4-13 1.5-23 .1-14.8-4-20.3-7.2-24.3l-2-3c-1.2-2-2.5-4.1-4-7l1-.7 4 7.1c.5 1 1.2 1.9 2 2.8 3.1 4.2 7.4 9.9 7.3 25 0 10.1-.6 15.5-1.4 23.2l-.6 5.5ZM210 60.1c-2.2-4.4-4.5-9.1-6.9-14.5-6.5-14.7-12.2-26.1-20-28.2-11-2.9-50.2-2.3-50.6-2.3v-1.2c1.6 0 39.9-.6 50.8 2.3 8.4 2.2 14.2 13.9 21 28.8 2.4 5.4 4.6 10.1 6.8 14.5l-1.2.6ZM199 139.8c-5.3 0-9.1-1.2-11.3-4.8-1.8-3-6.8-10.2-12.7-10.2h-42.5v-1.2H175c6.6 0 11.8 7.6 13.7 10.8 3 4.9 9.3 4.9 22.5 3 5.8-.8 9.9-2.8 12.4-4.4l.6 1a33.2 33.2 0 0 1-12.8 4.6c-4.8.7-9 1.2-12.4 1.2Z" fill="#292A56"/><path d="M132.5 142.3v-1.2c48.7 0 65.1-2.5 65.3-2.5l.2 1.1c-.2 0-16.8 2.6-65.5 2.6ZM132.5 106v-1.2c24 0 45.2-1.4 45.4-1.4l.1 1.2c-.2 0-21.5 1.4-45.5 1.4ZM225.9 105.4c-.1-.8-3.9-8.9-8.7-11.4l.5-1a23.8 23.8 0 0 1 9.3 12.4H226ZM211.5 78.7a47.7 47.7 0 0 0-4-18c-3.2-5.8-13-25.5-17.2-33.7-1-1.9-2.7-3-4.8-3h-53v-1.2h53c2.5 0 4.8 1.4 5.9 3.6 4.1 8.2 14 27.8 17.2 33.7 2.8 5 3.7 12.8 4 18.5l-1.1.1Z" fill="#292A56"/><path d="M200.3 62.2c-2.2 0-5 0-8.6-.2-18.9-.9-58.8-.1-59.2 0v-1.3c.4 0 40.3-.8 59.2 0 6.7.4 14.5.6 15.2-.6.2-.3-.2-1.1-.7-1.9l-.4-.8 1-.6.5.9c.6 1.1 1.2 2.1.6 3-.5 1-2 1.5-7.6 1.5ZM189.7 26.1c-4-7.8-9-9.2-9.1-9.3l.3-1.1c.2 0 5.6 1.5 9.9 9.8l-1 .6Z" fill="#292A56"/></g><defs><clipPath id="a"><path fill="#fff" d="M0 0h270v179.2H0z"/></clipPath></defs></svg>