<svg width="270" height="179" viewBox="0 0 270 179" fill="none" xmlns="http://www.w3.org/2000/svg"><path d="M74.6 139.7c2.2 5.5 7.6 9 13.9 9 6.3 0 11.7-3.5 13.8-9H74.6ZM196 139.3c2.1 5.8 7.7 9.3 14 9.3 6.5 0 12-3.5 14-9.4h-18.4v.1H196Z" fill="#292A56"/><path d="m156.2 140 42.6-.4h6.9l.3-.7h-.3v-1.8l-.1-.5v-.5l-.1-.3c-.1-1.5-.4-3.2-.8-5l-.6-2.2-.1-.6-.2-.3v-.4l-.2-.4-.1-.3-.1-.3-.2-.5v-.2a25 25 0 0 0-1.2-2.5l-.7-1.5h-.1v-.1h-.1v-.2l-.3-.3-.1-.4-.4-.4-.3-.5-.3-.3c0-.2 0-.3-.2-.3l-.1-.2-.1-.1-.5-.6-.6-.7-.2-.2-.3-.4h-.1l-.4-.4-1.5-1.4-.4-.2-.2-.1a19 19 0 0 0-4.9-2.8l-.3-.1-.3-.1-.5-.2-.5-.2-.8-.2-.5-.1h-.4l-.6-.2h-.3l-.2-.1-2-.3h-1l-1.2-.1H178l-.2.1c-15.5 1.5-19.8 14.5-21 20v.2c-.5 2.8-.8 5.8-.8 8.9v.4h.2Zm49-1H196l-39.2.3c0-3.1.2-6 .8-8.8v-.2c1.4-6.7 5.9-18.1 20.4-19.5h.7l.7-.1h4.5l2 .3h.3l.3.1c.2 0 .4 0 .5.2h.5l.5.1.7.2.5.2.5.2h.3l.3.2a21 21 0 0 1 4.8 2.7l.2.1.4.3a13.5 13.5 0 0 1 2 1.8s0 .2.3.3l.1.2.7.7.4.5.1.2v.1h.1c0 .2.2.3.3.4l.2.3.4.5.2.5.2.3.2.3.1.1.1.1.8 1.5c.3.8.8 1.7 1 2.5l.1.2.2.4v.3l.2.4v.3l.2.4.1.3.2.6c.2.8.3 1.5.6 2.2.3 1.7.6 3.4.7 4.9l.1.4v.3l.1.6v2.1h-.3Z" fill="#292A56"/><path d="M82.3 140h20l54.6-.1v-.3c0-.3-.1-1.5 0-3.2v-.5c.1-1.7.3-3.3.6-5 1.5-8.4 6.4-18.8 20.6-20h.3l.3-.1h5.2l2 .3h.6l.5.2.4.1.5.1.8.2.5.2.4.2h.4c.1.2.2.2.3.2a21 21 0 0 1 4.8 2.7l.1.1.4.3 1.5 1.3.3.3.2.2.2.3.3.2.6.7.4.5.1.2v.1h.1c0 .2.2.3.3.4l.2.3.3.5c.2.1.3.3.3.5l.2.3.2.3.1.1.1.2.8 1.4 1 2.5.1.2.2.4v.3l.1.4.2.3v.4l.2.3.2.6c.2.8.3 1.5.6 2.2a45.5 45.5 0 0 1 .8 5.3v.3l.1.6v2.4h35l.5-.1.4-.1H241.8l.4-.1h.4l.5-.1 1.1-.2.8-.1.6-.1.2-.1h.3l1.8-.4 1-.3.6-.2.2-.1.3-.1.2-.1.3-.2h.2l.2-.1 1-.4c0-.1.1-.2.3-.2l.5-.3.7-.4.6-.4c.6-.3 1-.7 1.4-1l.3-.3c.2 0 .2-.1.3-.2v-.1l.2-.2.2-.2.1-.2v-.1l.1-.1v-.2c.3-.4.4-.8.4-1.5v-6c0-.4-.2-1-.6-1.4l-1.2-1.6c-.2-.2-.3-.6-.3-1v-1l-.2-10c0-1.6-.6-3-1.6-3.8a82.3 82.3 0 0 0-23.9-13.6l-1-.4-6.9-3c-8.7-3.6-15-6.3-19.1-7.8l-4.2-1.5-28.6 1.2L142.7 57c1-.5 3.7-2.2 3.9-3.4 0-.3 0-.5-.2-.7-.1-.1-3.4-2-11.2-3.1a175.8 175.8 0 0 0-46.8-.6c-4.8.6-8 1.3-14.8 3.3-4 1-8 3-12.1 5.2C51 63 42.7 69.9 37 74.4L34 77a45.6 45.6 0 0 0-10.7 14.7c-1.7 3.9-1.5 7.7-1.4 11.3v1.1l.1 1.2v.8l.1.5c.7 6.6 1.4 17 1.4 17.1 0 0 .5 2.7.6 4.2.1.8 1 1.5 2 2 1 .3 2.3.3 3.1-.7h.1c1-1 2.2-2.3 4.8-2.8h.2v-.3c1-4.5 8.7-17.8 23.2-17.8 7.9 0 14 2.1 18.2 6.4 5.6 5.6 6.7 13.6 6.7 19.3v.5c0 1 0 2.2-.2 3.3l-.2 1.7-.1.3h.4Zm74-.7H82.5l.2-1.3.2-3.4v-.5c0-5.8-1.2-14-6.9-19.7-4.2-4.4-10.5-6.6-18.5-6.6-14.7 0-22.6 13.3-23.7 18.2-2.7.6-4 1.8-5 2.9-.7.7-1.8.7-2.6.4-.9-.3-1.5-.8-1.5-1.4l-.6-4.1-1.4-17.1v-.5l-.1-.8-.1-1.1v-1.1c-.2-3.6-.3-7.3 1.4-11.1V92a44.7 44.7 0 0 1 13.6-17c5.5-4.6 13.9-11.4 24.2-16.8a69 69 0 0 1 26.7-8.4l4.2-.4c13.4-1 25.5-1.7 42.5.9a42.8 42.8 0 0 1 11 3.1c-.3.8-2.5 2.5-4 3.3l-.4.2L169.2 82h.1l28.5-1.2 4.2 1.5c4.1 1.4 10.4 4.1 19.1 7.8l7 3c.3 0 .6.2.9.4l2.1.9a81 81 0 0 1 21.6 12.5c.9.8 1.4 2 1.4 3.4l.2 11c0 .6.2 1 .5 1.3l1.2 1.6c.3.4.4.8.4 1.1v6l-.1 1-.2.3v.2l-.2.2-.1.2-.2.2-.1.2-.3.3-1.3 1-.6.4-.6.3-.4.3h-.1l-.3.1-.8.4h-.1l-.2.2h-.2l-.3.2-.2.1-.3.1-.2.1-.5.2h-.1c-.3.1-.6.3-1 .3l-1.7.4h-.7l-.4.2-.9.1-1 .2h-.2l-.3.1h-.1l-.2.1h-.4l-.5.1h-.1l-.5.1h-.4l-2.8.1H206v-2.3l-.1-.4v-.4l-.8-5-.6-2.2-.2-.5-.1-.4-.1-.3-.1-.5-.2-.3v-.3l-.3-.5v-.1l-1.1-2.6-.8-1.6h-.1v-.1l-.1-.2-.2-.2-.2-.4-.3-.5c-.2-.1-.3-.3-.3-.4l-.3-.4-.3-.3v-.2h-.2l-.4-.6-.6-.8-.3-.2-.3-.3v-.1l-.4-.4c-.6-.5-1-1-1.6-1.3l-.3-.2-.1-.2c-1.5-1-3-2-5-2.7l-.3-.1-.3-.2-.5-.1-.5-.2-.8-.2-.5-.2h-.4a2 2 0 0 0-.5-.1l-.4-.1h-.2l-2-.4h-5.7l-.3.1c-14.5 1.2-19.5 11.8-21 20.4v.1c-.3 1.6-.6 3.3-.7 5v.6c-.3 1-.3 2-.3 2.6Z" fill="#292A56"/><path d="M82.3 140h18a10 10 0 0 1 2-.3l7.4.1c2.3 0 4 0 4.7.2h42.5v-.6c0-3 .2-6 .8-8.8v-.2c1.4-6.6 5.9-18 20.4-19.4l.3-.1h.3l.8-.1h3.4l.9.1h.1l2 .2h.3l.3.2h.5l.4.2.5.1.8.2.5.2.4.1c.1 0 .3 0 .4.2h.3a21 21 0 0 1 4.8 2.8h.1l.4.4c.5.3 1 .7 1.5 1.3l.3.3.2.1c0 .2.1.2.2.3l.3.3c.2.2.5.4.6.7l.4.5.1.2.1.2.3.2.2.4.3.5c.2 0 .3.3.3.4l.2.4.2.3.1.1.1.1.8 1.5 1 2.5.1.1.2.5v.2l.1.4.2.4v.3l.2.4.2.6c.2.8.3 1.5.6 2.2a45.5 45.5 0 0 1 .8 5.2v.4l.1.6v2.4h32.2l2.8-.1h.5l.4-.1h.2l.4-.1h.4l.4-.1h.5l1.1-.3h.8l.6-.2h.5l1.8-.5 1-.2.6-.2.2-.1.3-.2h.2l.3-.2.2-.1h.2l1-.5.3-.2.5-.2.7-.5c.3 0 .5-.2.6-.3l1.4-1 .3-.3c.2 0 .2-.2.3-.2v-.2l.2-.1v-.1l.2-.2h.1V133h.1v-.3c.3-.3.4-.8.4-1.5v-5.9c0-.5-.2-1-.6-1.4l-1.2-1.6c-.2-.2-.3-.6-.3-1v-1.1l-.1-7.1h-.3c-2.3 0-6 1-8.6 1.7-2.4.8-4.3 2.5-5.8 3.9-1.1 1-2 1.8-2.9 2-2.1.6-4.6.2-6-.8-.8-.5-1.6-2.3-2.5-4.3-1-2.5-2.3-5.4-4.2-7.5a84.4 84.4 0 0 0-30.8-15.6l-26.4-7c-1.4-.4-6.3-1.8-8.8-4.5-3.1-3-11-10.7-19.4-17.7-15.5-15-50.6-11.8-62-8C53.9 63.2 39 78 28.3 88.8c-1.1 1.1-2 2.3-2.7 3.6l-.1.3.3.2c1 .5 2.4 1.4 2.8 2.7.3 1.4-.8 3-2 4.7-1 1.5-2 2.9-2 4.1 0 .2 0 .3-.2.4-.3.3-1 .4-1.9.2l-.4-.2v.4l.3 2.7v.6l1.3 15.2.6 4.2c.1.8.9 1.5 2 1.9.9.3 2.2.3 3.1-.6a9 9 0 0 1 6.9-3h.2l.1-.4c1-2 3.3-6.2 8.6-9.9 3.8-2.6 8-4 12.5-4 12.5-.4 18.6 5.1 21.4 9.8a24 24 0 0 1 3.4 12.3v.5l-.1 3.3-.3 1.6v.4l.2.3Zm18-.6H82.5l.2-1.4.2-3.4v-.5c0-2.6-.5-7.7-3.5-12.6-3-4.8-9.2-10.4-22-10.1-4.5 0-8.8 1.5-12.8 4.1-5.4 3.7-7.7 8-8.7 10.1a9.5 9.5 0 0 0-7 3.3h-.1c-.7.7-1.8.7-2.6.4-.9-.3-1.5-.8-1.5-1.4l-.6-4.1-1.2-15.2-.1-.5-.2-2.4a3 3 0 0 0 2-.3c.3-.2.4-.5.4-.8 0-1.1 1-2.4 2-3.8 1.1-1.8 2.4-3.6 2-5.2-.3-1.1-1.3-2.1-2.9-3a13 13 0 0 1 2.4-3.1h.1c10.8-10.8 25.5-25.6 48.6-33.3 11.2-3.8 46-7 61.4 7.8C147 71 155 78.7 158 81.7c2.7 2.7 7.7 4.1 9.1 4.5l26.5 7a85.1 85.1 0 0 1 30.5 15.5c1.9 2 3 4.8 4.1 7.3.9 2.1 1.6 3.9 2.6 4.6 1.6 1.2 4.2 1.5 6.6.9 1-.3 1.9-1.2 3-2.3 1.5-1.3 3.4-3 5.7-3.7 2.5-.8 5.8-1.6 8.2-1.7v7.6c0 .5.3 1 .6 1.3l1.2 1.6c.2.3.4.7.4 1.1v5.9c0 .7-.1 1-.2 1l-.1.3v.2h-.1l-.1.3-.1.2h-.1l-.1.2-.1.1h-.1l-.2.3-1.3 1a483.1 483.1 0 0 0-1.3.8l-.4.2-.4.2-.7.3h-.1v.1l-.2.1-.3.1-.2.1-.2.2h-.3l-.3.2-.4.2h-.2l-.9.3-1.7.4h-.7l-.5.2h-.8l-1.1.3h-.4l-.1.1h-.2l-.5.1-.4.1H241.1l-.5.1h-34.5V136.8c0-.1 0-.3-.2-.4v-.3c-.1-1.5-.4-3.3-.8-5l-.6-2.3-.1-.5c0-.1 0-.2-.2-.3v-.4l-.2-.4-.1-.3-.1-.3-.2-.5v-.2l-1.2-2.6-.7-1.5-.2-.1v-.2l-.2-.3-.2-.3-.4-.5c0-.2-.2-.3-.3-.5 0-.2-.2-.2-.3-.3 0-.1 0-.3-.2-.3l-.1-.2-.1-.1-.4-.5-.7-.8-.2-.2-.3-.3-.1-.2c-.2 0-.3-.2-.4-.3l-1.5-1.4-.4-.2v-.1a19 19 0 0 0-5-2.8h-.4l-.3-.2-.4-.2c-.2 0-.3 0-.5-.2l-.8-.2-.6-.1h-.3a2 2 0 0 0-.6-.2h-.3l-.3-.1-2-.3h-1l-1-.1h-2.7l-1 .1h-.2c-15.4 1.5-19.8 14.5-20.9 20v.2a40 40 0 0 0-.8 8.9h-42.2l-4.6-.1c-2 0-4.7 0-7.4-.2-.6-.3-1.3-.3-2.2 0Z" fill="#292A56"/><path d="M160.3 136.6c0 11.3 9.1 19.5 20.5 19.5 11.3 0 20.5-8.3 20.5-19.5v-1.1a20.4 20.4 0 0 0-20.5-19.3c-10.9 0-19.9 8.6-20.4 19.3l-.1 1.1ZM38.7 136.6c0 11.3 9.1 19.5 20.5 19.5 11.3 0 20.5-8.3 20.5-19.5v-1.1a20.4 20.4 0 0 0-20.5-19.3c-10.9 0-19.9 8.6-20.4 19.3l-.1 1.1Z" fill="#292A56"/><path d="M49 136.6a10 10 0 0 0 10.2 10 10 10 0 0 0 10.2-10c0-5.5-4.5-10-10.2-10a10 10 0 0 0-10.1 10ZM170.7 136.6a10 10 0 0 0 10.1 10 10 10 0 0 0 10.2-10c0-5.5-4.5-10-10.2-10a10 10 0 0 0-10.1 10Z" fill="#fff"/><path d="M139 57.2a5 5 0 0 0 1.3 2.4c.9 1.1 2 2.1 3.2 3.3 7.3 6.9 17.1 15 20.3 17.6a13.8 13.8 0 0 0 7.7 3.2c3.5 0 21.1-.9 25.3-3 0 0-23.8-14-42.4-23.8-3-1.6-5.8-2.5-8.3-3.8h-1.6c-.7-.3-6.4-.3-5.5 4ZM103.6 56l.3 29.2H138c0-2.5 1.7-4.1 2.2-4.8 1-1 3.3-1 5.4-.5 1.7.3 2.7.8 3.3 1.1l.1-.1s-4.2-6.5-12.3-13A52.3 52.3 0 0 0 103.6 56ZM98.6 56c-15.4.2-25.8 6-33.1 12a78.8 78.8 0 0 0-11.6 12c-1.6 2.1-.2 5.1 2.5 5.1h42l.2-29Z" fill="#292A56"/><path d="M209.4 104.8a68 68 0 0 0 9 4.5l1.2.4a41.5 41.5 0 0 0 11.3 2.4c1.6 0 3.3-.3 4.4-1.8.1-.2.5-.6.5-.8 1.1-1.5.3-2.2-1.3-3a97.7 97.7 0 0 0-10.5-5c-4.1-1.5-7.1-.8-9-.7-2.6.2-4.5 1.1-5.7 1.9-.7.5-.7 1.7 0 2Z" fill="#fff"/><path opacity=".3" d="m104.5 96 23.6.1c10.2 0 33.8 0 51.4 3.4.5 0 .7-.8.1-1-7.8-2.5-25.4-6.7-59.2-6.7l-16.3.1s-49.7.8-60 4.1h60.4Z" fill="#292A56"/><path opacity=".2" d="m208.8 99.6.1-.1c.1-.2 0-.3 0-.4a200 200 0 0 0-20.2-7.7c-4.4-1.5-8.2-2.3-11.2-3-3.3-.7-5.8-1.2-7.7-2.2l-.3.1c0 .1 0 .3.2.4 1.8 1 4.4 1.5 7.7 2.3 3 .7 6.8 1.5 11.3 3 8.7 2.8 15.7 5.7 20 7.6Z" fill="#292A56"/><path d="M152.9 132.7s.2 0 .2-.2a59 59 0 0 0 1.2-12.6s-.2.1-.2.3a58.7 58.7 0 0 1-1.3 12.5ZM154.6 114.4c.1 0 .2 0 .2-.3v-2.8a174.5 174.5 0 0 0-1.5-22c-.1 0-.2 0-.2.2.5 3.7 1.3 11.4 1.3 21.8v2.8c-.1.1 0 .3.2.3ZM103 134.8h2l.1-.3c0-.1 0-.3-.2-.3h-1.8c-.1 0-.2.1-.2.3 0 .1 0 .3.2.3ZM107.5 134.8h5.7c.2 0 .3-.1.3-.3 0-.1-.1-.3-.3-.3h-5.7c-.1 0-.2.1-.2.3-.1.1 0 .3.2.3ZM115.8 134.8h39.6c.1 0 .2-.1.2-.3 0-.1 0-.3-.2-.3h-39.6s-.2.1-.2.3c0 .1 0 .3.2.3Z" fill="#292A56"/><path d="M111 96.6h9.7c.6 0 1.2-.5 1.2-1.2s-.6-1.2-1.2-1.2H111c-.7 0-1.2.5-1.2 1.2s.5 1.2 1.2 1.2ZM54.3 96.6h9.8c.6 0 1.1-.5 1.1-1.2s-.5-1.2-1.1-1.2h-9.8c-.6 0-1.2.5-1.2 1.2s.6 1.2 1.2 1.2Z" fill="#2D2F5A"/><path d="M241.5 110.1h2.7c5.4-.5 8-1.4 8.2-1.5.1-.1.2-.3.1-.4 0-.1-.2-.2-.3-.1 0 0-2.7 1-8 1.3h-4s-.2.1-.2.4c0 .1 0 .3.2.3h1.3ZM144.7 91c.8 0 1.7 0 2.6-.2a4.7 4.7 0 0 0 3.5-3.3v-.1l.1-.2c.2-.3.2-.5.2-.7h1c.3 0 .5-.1.8-.4.2-.2.3-.5.2-.9l-.3-2.6c-.2-.5-.5-.8-1-1l-1.8-.2a9.6 9.6 0 0 0-4.2-1.8c-2.9-.5-4.7-.3-5.7.7l-.3.3c-.7.8-2 2.4-2 4.6 0 1.2.4 2.3 1 3.4l1.2 1.6c.3.2.5.4.8.4.8.2 2.2.4 3.9.4ZM143 79.9l2.7.3c1.6.3 2.6.8 3.2 1.1l.7.6v.1l2.2.3c.1 0 .3.2.4.5l.3 2.6c0 .1 0 .3-.2.4h-1.8v.4l-.2.9v.1l-.1.2a4 4 0 0 1-3 2.8 18 18 0 0 1-6.2 0 1 1 0 0 1-.5-.4l-1.1-1.5c-.6-1-1-2-1-3V85c0-2 1.3-3.4 2-4.2l.2-.4c.4-.4 1.2-.6 2.4-.6Z" fill="#292A56"/><path d="M144.6 91c.8 0 1.8 0 2.6-.2a4.5 4.5 0 0 0 3.5-3.3v-.1l.1-.2.5-1-.9.7c-.8.6-2.7 1.6-5.7 1.5-2.9-.2-5.1-2.2-6.3-3.4l-.6-.6v.8c0 1.1.4 2.3 1 3.4l1.2 1.6.8.5c.8 0 2.2.3 3.8.3Zm5.4-3.2c-.4 1-1.3 2-2.9 2.4a18 18 0 0 1-6-.1 1 1 0 0 1-.6-.4l-1.1-1.5c-.5-.7-.8-1.5-1-2.3a9.8 9.8 0 0 0 6.2 3c2.6.1 4.3-.5 5.4-1Z" fill="#292A56"/><path opacity=".3" d="M203.7 114.5c-4.5-4-16.6-12-34.2-6-.4.1-.7-.4-.3-.7 6.1-4 22.8-12.2 35 6.2.2.4-.2.8-.5.5ZM76.6 114.5c-4.5-4-16.6-12-34.2-6-.4.1-.7-.4-.3-.7 6.1-4 22.8-12.2 35 6.2.2.4-.2.8-.5.5Z" fill="#292A56"/><path opacity=".2" d="M161.3 135.6c.4-.5 5.1-5 19.5-5 14.3 0 19 4.5 19.4 5-.5-10.7-9-19.3-19.4-19.3a19.8 19.8 0 0 0-19.5 19.3ZM39.8 135.6c.4-.5 5.1-5 19.4-5 14.4 0 19.1 4.5 19.5 5-.6-10.7-9-19.3-19.5-19.3-10.4 0-19 8.5-19.4 19.3Z" fill="#292A56"/><path d="M205.4 139.6h32l3.8-.2h1.3l2.5-.4 1.2-.3 3.8-1 1-.4 1-.4 1.4-.8.7-.4a7.6 7.6 0 0 0 2.2-2v-.3l.2-.1c.3-.6.4-1.3.4-2v-2.6l-.5.4a20.6 20.6 0 0 1-10 4.6c-3.7.6-11.4.8-14.7 1h-1.2l-.2.2-1 .5c-.5.2-1.2.5-2.2.5l-3.4-.1-11.7-.2c-.3-.1-.7-.2-1.2-.1-3 0-5.8-4.4-6-4.6l-.8-1.4.3 1.6c.4 1.7.7 3.4.8 4.9V139.6h.3Zm45.4-3-1 .4c-1.1.4-2.3.8-3.8 1.1l-1 .2-2.5.4h-1.3l-3.7.2h-31.7v-3.1l-.6-3.6c1.1 1.4 3.3 3.8 5.7 3.7h1.1c4 0 8.6.2 11.7.3h3.5c1 0 1.9-.2 2.4-.5.3-.1.7-.3 1-.6h1.1c3.4-.2 11.1-.4 14.8-1 5-.9 8.2-3 10-4.4v1.4c0 .6-.2 1.2-.4 1.6v.2l-.2.1-.8 1a22.3 22.3 0 0 1-4.3 2.7Z" fill="#292A56"/><path opacity=".3" d="M106.8 130.7c10.3.1 24 .1 36.6-1.1.8 0 1-1.3.1-1.6-4.4-2-15.3-5.3-37-5-12.8.3-20.6 3.9-20.6 3.9s5.5 3.7 20.9 3.8Z" fill="#292A56"/><path opacity=".1" d="M219.5 109.7a41.5 41.5 0 0 0 11.3 2.4c1.6 0 3.3-.3 4.4-1.8l.6-.8c1-1.5.3-2.2-1.3-3a97.7 97.7 0 0 0-7.5-3.8c-.2 2.8-1.9 6-7.5 7Z" fill="#292A56"/><path d="M101.2 88.6h.5v23.5h-.5V88.6Z" fill="#292A56"/><path opacity=".2" d="M49.7 108.6h.6l-.7-6H49l.7 6ZM48.7 99.7h.6c-1.1-9.6 2.6-13.3 2.6-13.3l-.4-.4c-.1.1-3.9 3.8-2.8 13.7Z" fill="#292A56"/><path d="M23.4 105.7c.6 0 1-.1 1.3-.4.2-.2.3-.5.3-.9 0-1 1-2.4 1.9-3.7 1.2-1.8 2.5-3.6 2-5.2-.3-1.2-1.4-2.3-3-3.2l-2.2-.8h-.4v.2c-1.7 3.9-1.5 7.6-1.4 11.3v1l.1 1.3v.2h.5c.3.2.6.2.9.2Zm.4-13.5c.3 0 1 .3 1.8.7 1 .5 2.5 1.4 2.8 2.7.4 1.4-.8 3-2 4.7-1 1.5-2 3-2 4.1v.5c-.3.2-1 .2-1.8.1l-.1-.9v-1c-.2-3.6-.3-7.2 1.3-11ZM34.2 77.3c4.7-.6 14.1-7.6 19.8-11.5l9.3-6.4a.8.8 0 0 0-.2-1.3l-1.5-.3c-10.2 5.3-18.4 12-24.3 16.8l-3.1 2.7ZM241.3 127.8l1.9-.2 3.6-.3c5-.4 8.8-3 9.2-3.3l.2-.2-1.1-1.4c-.2-.2-.4-.6-.4-1V120h-.3c-1.6 0-3.8.8-4.7 1.4-.8.5-1.2 1-1.7 1.6-.8 1-1.6 1.9-4 3l-1.9 1.2-.8.5Zm14-4.1a19 19 0 0 1-8.5 3l-3.3.3.9-.5c2.5-1.2 3.3-2.2 4.1-3.2.5-.5.9-1 1.6-1.5.8-.4 2.6-1 4.2-1.2v.9c0 .5.1 1 .4 1.3l.7.9Z" fill="#292A56"/><path d="M229.7 135.3h.8c.2 0 .6 0 1-.2 3.4 0 11.1-.3 14.8-.9a21 21 0 0 0 10.4-4.7l.1-.1v-4.2c0-.5-.1-1-.4-1.4l-.5-.6-.2.2c-.2.1-4 2.8-8.9 3.2l-3.6.3h-.9c-3.4.3-6.2.6-7.3 1.8a21 21 0 0 0-1.8 2.3c-.8 1.3-1.8 2.7-2.9 3.6l-.6.7Zm26.6-6.1a20.4 20.4 0 0 1-10 4.5c-3.7.6-11.4.8-14.7 1h-.3l2.5-3.2 1.7-2.2c1-1 3.8-1.4 7-1.6h.7l3.7-.4c4.4-.3 8-2.5 8.9-3.1h.1c.2.4.4.8.4 1.1V129.2ZM230.8 112.4c1.7 0 3.4-.3 4.7-2l.5-.7c.5-.6.7-1.2.5-1.7-.2-.8-1-1.3-2-1.8-2-1-4.8-2.6-7.4-3.7l-3.1-1.2c-3.7-1.3-6.5-1-8.3-.8h-.9c-2.6.3-4.6 1.2-5.8 2-.4.2-.6.7-.6 1.2 0 .6.3 1 .7 1.3a68 68 0 0 0 9 4.5l1.2.4a41.7 41.7 0 0 0 11.5 2.5ZM218.6 101c1.5 0 3.3.2 5.3 1a107.5 107.5 0 0 1 10.5 5c1 .4 1.5.8 1.5 1.2.1.4 0 .8-.4 1.3l-.4.7c-1.1 1.4-2.7 1.7-4.3 1.7-1.5 0-3.7-.3-3.7-.3-1.6-.2-5-1.2-7.5-2.1l-1-.4a67.4 67.4 0 0 1-9-4.5c-.3-.1-.5-.4-.5-.8 0-.3.1-.6.4-.7 1.1-.7 3-1.6 5.5-1.8l1-.1 2.6-.2ZM29.8 137.2c2.8 0 5.5-.6 7.3-1 2.7-.8 5.3-3.1 8-7l.1-.2-.2-.1a11 11 0 0 0-8.9-3.3H36v.2l-.4 1c-2 6.4-5.4 6.3-10.4 5.4a4.4 4.4 0 0 1-3.2-1.9c-1.1-1.7-.5-4-.5-4v-.5l-.9.2v.2c-.2.8-.3 1.8-.2 2.8 0 .6 0 1.3.2 2l.3.9c1.3 4.1 5.1 5.3 9 5.3Zm14.7-8c-2.5 3.5-5 5.7-7.5 6.4-4 1-13.6 2.8-15.6-4l-.2-.7-.1-1c0 .3.2.5.4.8.7 1.1 2 1.9 3.6 2.1 5.1.9 9 1 11-5.8l.3-.8h2c2 0 4 1 6.1 3Z" fill="#292A56"/><path d="M29.8 137.2c2.8 0 5.5-.6 7.3-1 2.7-.8 5.3-3.1 8-7l.1-.2-.2-.1a11 11 0 0 0-8.9-3.3c-4.3.2-6 1.9-7.2 3.1v.1c-.8.7-1.9.7-2.7.4-.8-.3-1.4-.9-1.5-1.4l-.6-4.2v-.2h-.3s-.6 0-1.3.3c-.7.3-1.5 1-2 2.5-.2.8-.2 1.8-.1 2.8v1l.4 1.8c1.3 4.2 5.1 5.4 9 5.4Zm14.7-8c-2.5 3.5-5 5.7-7.5 6.4-4 1-13.6 2.8-15.6-4-.1-.5-.3-1-.3-1.7l-.1-.9c-.1-1 0-1.8.1-2.6.3-1 .9-1.8 1.7-2.2l.8-.2.5 3.9c.1.8 1 1.5 2 1.9 1 .3 2.3.4 3.1-.6h.1c1.2-1.3 2.8-2.8 6.8-3h2.2c2 0 4.1 1 6.2 3Z" fill="#292A56"/><path d="M29.8 137.2c2.8 0 5.5-.6 7.3-1 2.7-.8 5.3-3.1 8-7l.1-.2-.2-.1a11 11 0 0 0-8.9-3.3c-4.3.2-6 1.9-7.2 3.1v.1c-.8.7-1.9.7-2.7.4-.8-.3-1.4-.9-1.5-1.4l-.6-4.2v-.2h-.3s-.6 0-1.3.3c-.8.7-1.4 1.5-1.7 2.5-.3.8-.5 1.8-.4 2.8 0 .6 0 1.3.2 2l.2.9c1.3 4.1 5.1 5.3 9 5.3Zm14.7-8c-2.5 3.5-5 5.7-7.5 6.4-4 1-13.6 2.8-15.6-4a9.5 9.5 0 0 1-.4-2.6c0-1 .1-1.8.4-2.7.3-.8.9-1.5 1.5-2 .3-.2.6-.2.8-.2l.5 3.8c.1.8.9 1.6 2 2 .9.3 2.2.3 3.1-.6 1.3-1.3 2.8-2.8 6.9-3h2.2c2 0 4 1 6.1 2.9Z" fill="#292A56"/><path opacity=".7" d="M258 38c.3 0 .5 0 .7-.3l4.7-4.3.3-.6a1 1 0 0 0-.3-.7l-5-4.5a.9.9 0 0 0-1.1 0c-.4.4-.3 1 0 1.3l4.2 3.9-4 3.7a1 1 0 0 0 0 1.2c.1.2.3.3.6.3ZM12.7 38c.2 0 .5-.1.6-.3.4-.4.3-1 0-1.2l-4.2-4 4-3.6a1 1 0 0 0 0-1.2 1 1 0 0 0-1.2-.1l-4.7 4.3a1 1 0 0 0-.3.7c0 .2.1.5.3.6l4.9 4.5c.2.2.3.3.6.3Z" fill="#292A56"/><path opacity=".7" d="M16.2 33.6h7c.5 0 1-.4 1-.8 0-.5-.5-1-1-1h-7c-.5 0-.9.5-.9 1 0 .4.4.8.9.8Zm14 0h7.1c.5 0 1-.4 1-.8 0-.5-.5-1-1-1h-7c-.5 0-.9.5-.9 1 0 .4.4.8.9.8Zm14.2 0h7c.5 0 1-.4 1-.8 0-.5-.5-1-1-1h-7c-.5 0-.9.5-.9 1 0 .4.4.8.9.8Zm14 0h7.1c.5 0 .9-.4.9-.8 0-.5-.4-1-.9-1h-7c-.5 0-1 .5-1 1 0 .4.5.8 1 .8Zm14.2 0h7c.5 0 .9-.4.9-.8 0-.5-.4-1-.9-1h-7c-.5 0-1 .5-1 1 0 .4.5.8 1 .8Zm14 0h7.1c.5 0 .9-.4.9-.8 0-.5-.4-1-.9-1h-7c-.5 0-1 .5-1 1 0 .4.5.8 1 .8Zm14.1 0h7c.6 0 1-.4 1-.8 0-.5-.4-1-1-1h-7c-.4 0-.8.5-.8 1 0 .4.4.8.8.8Zm14.1 0h7c.5 0 1-.4 1-.8 0-.5-.5-1-1-1h-7c-.4 0-.8.5-.8 1 0 .4.4.8.8.8Zm14.1 0h7c.5 0 1-.4 1-.8 0-.5-.5-1-1-1h-7c-.4 0-.9.5-.9 1 0 .4.5.8 1 .8Zm14.1 0h7c.5 0 1-.4 1-.8 0-.5-.5-1-1-1h-7c-.5 0-.9.5-.9 1 0 .4.4.8 1 .8Zm14.1 0h7c.5 0 1-.4 1-.8 0-.5-.5-1-1-1h-7c-.5 0-.9.5-.9 1 0 .4.4.8.9.8Zm14 0h7.1c.5 0 1-.4 1-.8 0-.5-.5-1-1-1h-7c-.5 0-.9.5-.9 1 0 .4.4.8.9.8Zm14.2 0h7c.5 0 1-.4 1-.8 0-.5-.5-1-1-1h-7c-.5 0-.9.5-.9 1 0 .4.4.8.9.8Zm14 0h7.1c.5 0 .9-.4.9-.8 0-.5-.4-1-.9-1h-7c-.5 0-1 .5-1 1 0 .4.5.8 1 .8Zm14.2 0h7c.5 0 .9-.4.9-.8 0-.5-.4-1-.9-1h-7c-.5 0-1 .5-1 1 0 .4.5.8 1 .8Zm14 0h7.1c.5 0 .9-.4.9-.8 0-.5-.4-1-.9-1h-7c-.5 0-1 .5-1 1 0 .4.5.8 1 .8Zm14.1 0h7c.6 0 1-.4 1-.8 0-.5-.4-1-1-1h-7c-.4 0-.8.5-.8 1 0 .4.4.8.8.8Zm14.1 0h7c.5 0 1-.4 1-.8 0-.5-.5-1-1-1h-7c-.4 0-.8.5-.8 1 0 .4.4.8.8.8Z" fill="#292A56"/><path opacity=".8" d="M268.2 67.3c1 0 1.8-.8 1.8-1.8V2c0-1-.8-1.8-1.8-1.8H202c-1 0-1.7.8-1.7 1.8s.7 1.7 1.7 1.7h64.5v62c0 1 .7 1.7 1.7 1.7ZM1.8 67.4c1 0 1.7-.8 1.7-1.8v-62h64.2c1 0 1.8-.8 1.8-1.8S68.7 0 67.7 0h-66C.8 0 0 .8 0 1.8v63.8c0 1 .8 1.8 1.8 1.8ZM1.8 178.8H68c1 0 1.7-.8 1.7-1.8s-.7-1.8-1.7-1.8H3.5v-61.8c0-1-.7-1.8-1.7-1.8s-1.8.8-1.8 1.8V177c0 1 .8 1.8 1.8 1.8ZM202.3 178.9h66c1 0 1.7-.8 1.7-1.8v-63.9c0-1-.8-1.7-1.8-1.7s-1.7.8-1.7 1.7v62.2h-64.3c-1 0-1.7.7-1.7 1.7s.8 1.8 1.8 1.8Z" fill="#292A56"/></svg>