<svg width="284" height="110" viewBox="0 0 284 110" fill="none" xmlns="http://www.w3.org/2000/svg"><path d="M85 100.5H25.5c-2.3 0-4.4-.9-6.2-2.4a56.3 56.3 0 0 1-3.2-82A54.8 54.8 0 0 1 55.2 0a54.8 54.8 0 0 1 55.3 55.6c0 16.3-7 31.9-19.4 42.5a9.5 9.5 0 0 1-6.1 2.4Zm-29.8-99a54 54 0 0 0-53.7 54c0 16 6.9 31.1 18.8 41.5 1.4 1.3 3.3 2 5.2 2H85c1.8 0 3.7-.7 5.2-2A55 55 0 0 0 109 55.6 54 54 0 0 0 55.2 1.5Z" fill="#292A56"/><path d="M55.6 64.3a7.6 7.6 0 0 1-7.6-7.5 7.6 7.6 0 0 1 15.2 0c.1 4-3.4 7.5-7.6 7.5Zm0-14a6.5 6.5 0 1 0 0 12.8 6.5 6.5 0 1 0 0-12.9ZM47 36.3h-.7l-.6-.8-.5.8h-.7l1-1.2-1-1.2h.7l.4.6.5-.6h.7l-.8 1 1 1.4ZM49.1 33h.6v3.3H49v-2.7l-.6.2-.2-.5 1-.3ZM51.5 36.3c-.4 0-.7-.1-1-.4-.2-.3-.3-.8-.3-1.3s.1-1 .4-1.3c.2-.3.5-.4 1-.4.4 0 .7.1 1 .4.1.3.3.8.3 1.3s-.2 1-.4 1.3c-.2.3-.6.4-1 .4Zm-.5-.9c.2.2.3.3.5.3.3 0 .4 0 .6-.3l.1-.8-.1-.8c-.2-.2-.3-.3-.6-.3-.2 0-.3 0-.5.3l-.1.8.1.8ZM54.6 36.3c-.5 0-.8-.1-1-.4-.3-.3-.4-.8-.4-1.3s.1-1 .4-1.3c.2-.3.5-.4 1-.4.4 0 .7.1 1 .4.2.3.3.8.3 1.3s-.1 1-.4 1.3c-.3.3-.6.4-1 .4Zm-.6-.9c.2.2.3.3.6.3.2 0 .3 0 .5-.3l.1-.8-.1-.8c-.2-.2-.3-.3-.5-.3-.3 0-.4 0-.6.3l-.1.8.1.8ZM59.4 36.3l-.7-1.2h-.5v1.2h-.7V33h1.4c.3 0 .6 0 .7.3.2.2.3.4.3.7l-.1.6-.5.4.8 1.3h-.7Zm-1.2-2.7v1h.7l.3-.2.1-.4-.1-.4-.3-.1h-.7ZM61.7 33c.3 0 .6 0 .8.3.3.2.4.4.4.8 0 .3-.1.6-.4.8-.2.2-.4.3-.8.3h-.6v1.1h-.7V33h1.3Zm0 1.5.4-.1.1-.4-.1-.4-.4-.1h-.6v1h.6ZM66.5 33v3.3H66V34l-1 1.6-1-1.5v2.1h-.6V33h.7l.9 1.5 1-1.5h.6Z" fill="#292A56"/><path d="M72.2 51c.4 0 .7.2 1 .4.1.3.3.6.3 1 0 .3-.2.6-.4.8-.2.3-.6.4-.9.4h-.7V55h-.7V51h1.4Zm0 2 .4-.2.1-.5-.1-.4c0-.2-.2 0-.4 0h-.7V53h.7ZM72.8 60.4l-.7-1.3h-.6v1.3h-.8v-3.8h1.6c.4 0 .7.2.9.4.2.2.4.5.4.9l-.3.7a1 1 0 0 1-.5.4l.8 1.4h-.8Zm-1.3-3.1v1.1h.7l.4-.1.1-.4-.1-.4-.4-.1h-.7v-.1ZM72.7 62.1h.8v3.8h-.6l-1.7-2.3v2.3h-.7v-3.8h.6l1.6 2.3v-2.3ZM72 67.6c.5 0 1 .1 1.3.5.4.4.6.8.6 1.4a1.8 1.8 0 0 1-2 1.8h-1.4v-3.7H72Zm0 3.1c.3 0 .6 0 .8-.3.2-.2.3-.5.3-.9 0-.3 0-.6-.3-.9-.2-.2-.4-.3-.8-.3h-.8v2.4h.8ZM70.7 77v-.6l1.4-1.4c.3-.3.4-.6.4-.7l-.1-.4-.4-.2c-.3 0-.5.2-.7.5l-.6-.4c.1-.3.3-.4.5-.6l.8-.2c.4 0 .7 0 .9.3.2.2.4.5.4.9s-.3.8-.6 1.2l-.8.7h1.4v.8h-2.6ZM72 78.6h.6v3.8h-.8v-3l-.7.2-.2-.7 1-.3Z" fill="#292A56" stroke="#252A56" stroke-width=".3" stroke-miterlimit="10"/><path d="M23.2 77.8c-.8 0-1.5-.3-2-1a4 4 0 0 1-.8-2.5c0-1 .3-2 .8-2.6.5-.6 1.1-1 2-1 .9 0 1.5.3 2 1s.8 1.5.8 2.6c0 1-.2 2-.7 2.5-.5.7-1.2 1-2 1Zm-1-1.9c.3.4.7.6 1.1.6.5 0 .8-.2 1-.6.3-.4.4-.9.4-1.6 0-.8-.1-1.3-.3-1.7-.3-.4-.6-.6-1-.6-.5 0-1 .2-1.1.6-.3.4-.4 1-.4 1.7 0 .6.1 1.2.4 1.6ZM18 52.3h1.2V59h-1.4v-5.4l-1.3.4-.3-1.2 1.8-.6ZM22.2 42.2v-1l2.3-2.4c.5-.5.8-1 .8-1.3 0-.3-.1-.5-.3-.7-.1-.2-.3-.2-.6-.2-.6 0-1 .3-1.2.8l-1-.7c.1-.4.4-.8.8-1 .4-.3.8-.4 1.4-.4.6 0 1.1.2 1.6.6.4.4.6.9.6 1.6 0 .6-.3 1.4-1.1 2.1l-1.4 1.2h2.6v1.3h-4.5v.1ZM38.9 24.9c.4.1.8.3 1 .7.4.4.5.8.5 1.2a2 2 0 0 1-.6 1.7c-.5.3-1 .6-1.8.6-.5 0-1-.2-1.4-.4-.5-.2-.8-.6-1-1l1.2-.7c.2.5.6.8 1.2.8.4 0 .6 0 .9-.2.2-.2.3-.4.3-.7 0-.3-.1-.5-.3-.7L38 26h-.3l-.5-.8 1.4-1.7h-2.8v-1.3h4.3v1.2L39 24.9ZM57.7 21v1.2H57v1.2h-1.4v-1.2h-3.2V21l2.2-4.4h1.5L53.8 21h1.8v-1.6H57v1.6h.7ZM72.1 24.7c.7 0 1.2.2 1.7.6.4.4.7 1 .7 1.7a2 2 0 0 1-.7 1.6c-.5.4-1 .6-1.7.6-.6 0-1.1-.1-1.6-.4-.4-.2-.7-.6-.9-1l1.2-.8c.1.6.6.9 1.2.9.4 0 .6-.1.8-.3.2-.1.3-.3.3-.6s0-.6-.3-.7c-.2-.2-.4-.2-.7-.2h-2.2l.3-3.9h4v1.3h-2.7v1.2h.6ZM86.3 36c.7 0 1.3.2 1.8.6.4.5.6 1 .6 1.7s-.2 1.3-.6 1.7c-.5.5-1.1.7-1.9.7-.7 0-1.3-.2-1.8-.7-.4-.4-.6-1-.6-1.7 0-.5.1-1 .3-1.4l2.1-3.2h1.6L86.3 36Zm-.9 3.1c.2.2.5.3.8.3.4 0 .6 0 .9-.3.2-.2.3-.4.3-.8 0-.3-.1-.6-.3-.8-.3-.3-.6-.3-.9-.3-.3 0-.6 0-.8.3-.2.2-.3.4-.3.8s0 .7.3.8ZM90.2 51.4h4.4v1.2l-2.3 5.7h-1.5l2.3-5.6h-3v-1.3ZM88.8 71.5c.6.4 1 .9 1 1.6 0 .6-.2 1.2-.7 1.5-.4.4-1 .6-1.8.6s-1.4-.2-1.8-.6c-.5-.3-.7-.8-.7-1.5s.3-1.2 1-1.6c-.5-.4-.8-.8-.8-1.4 0-.6.3-1.2.7-1.5.5-.4 1-.6 1.6-.6.6 0 1.1.2 1.6.6.4.3.6.8.6 1.5 0 .6-.2 1-.7 1.4Zm-2.3 2.2.8.2c.4 0 .6 0 .8-.2.3-.2.3-.4.3-.7 0-.3 0-.5-.3-.7l-.8-.2c-.4 0-.6 0-.8.2-.3.2-.3.4-.3.7 0 .3 0 .5.3.7Zm1.4-4.2a.9.9 0 0 0-.6-.2c-.2 0-.5 0-.6.2-.2.2-.2.4-.2.6 0 .3 0 .5.2.6.1.2.4.3.6.3.2 0 .5-.1.6-.3.2-.1.2-.3.2-.6 0-.2 0-.4-.2-.6Z" fill="#292A56"/><path d="M12.8 37.7c-1-.4-1.6 1-.7 1.5C15.7 41 47.8 55 54.9 58c.8.4 1.8 0 2-.8.4-.8 0-1.7-.8-2L12.8 37.6ZM55.5 12.8h-.9a.5.5 0 0 1-.5-.5v-5c0-.3.2-.5.5-.5h1c.2 0 .5.2.5.5v5c-.1.3-.3.5-.6.5ZM44.7 14.3l-1 .3c-.2 0-.5-.1-.5-.4L42 9.3c-.1-.3 0-.6.3-.6l1-.2c.2 0 .5 0 .5.4l1.2 4.8c.1.3 0 .6-.3.6ZM34.5 18.5l-.8.4c-.3.2-.7.1-.7-.2l-2.4-4.4c-.1-.3 0-.6.3-.7l.8-.5c.2-.1.6 0 .7.3l2.3 4.4c.2.2 0 .5-.2.7ZM26.3 25l-.7.5c-.2.3-.6.2-.8 0l-3.4-3.8c-.2-.2-.1-.5.1-.8l.7-.6c.2-.2.5-.1.7.1l3.4 3.8c.2.2.1.5 0 .7ZM19.2 33.3l-.5.7c-.1.2-.4.3-.7.2l-4.3-2.9c-.2-.1-.3-.4-.1-.7l.5-.8c.2-.2.5-.3.8-.1l4.2 2.8c.2.2.3.5.1.8ZM15 43.1l-.3.8c0 .3-.4.4-.7.3l-4.7-1.7c-.3 0-.4-.4-.3-.7l.3-.8c0-.3.4-.4.7-.3l4.7 1.7c.2.1.4.4.3.7ZM13.1 53.8v.9c0 .3-.3.5-.7.4l-5-.5a.5.5 0 0 1-.5-.6l.1-1c0-.2.3-.4.6-.4l5 .6c.3 0 .5.3.5.6ZM13.9 64.6l.1 1c.1.3-.1.5-.4.6l-5 .6c-.3.1-.5-.1-.6-.4l-.2-1c0-.2.2-.5.5-.5l5-.7c.3 0 .6.1.6.4ZM17.1 75l.4 1c0 .2 0 .5-.3.6l-4.7 1.9c-.3 0-.6 0-.7-.3l-.3-.9c-.1-.3 0-.6.3-.6l4.6-2c.4 0 .7.2.7.4ZM65.5 14.3l.9.3c.3 0 .6-.1.6-.4l1.2-4.9c0-.3 0-.6-.4-.6l-.9-.2c-.3 0-.6 0-.6.4l-1.2 4.8c0 .3 0 .6.4.6ZM75.7 18.5l.8.4c.2.2.6.1.7-.2l2.3-4.4c.2-.3.1-.6-.2-.7l-.8-.5c-.3-.1-.6 0-.7.3l-2.3 4.4c-.2.2-.1.5.2.7ZM83.9 25l.7.5c.2.3.5.2.7 0l3.4-3.8c.3-.2.2-.5 0-.8l-.7-.6c-.2-.2-.6-.1-.8.1l-3.4 3.8c-.1.2 0 .5.1.7ZM91 33.3l.4.7c.2.2.5.3.8.2l4.2-2.9c.3-.1.3-.4.2-.7l-.6-.8c-.1-.2-.4-.3-.7-.1l-4.2 2.8c-.3.2-.3.5-.2.8ZM95.1 43.1l.3.8c.1.3.4.4.7.3l4.8-1.7c.3 0 .4-.4.3-.7l-.3-.8c-.1-.3-.4-.4-.7-.3l-4.8 1.7c-.2.1-.3.4-.3.7ZM97 53.8l.1.9c0 .3.3.5.6.4l5-.5c.4 0 .6-.3.5-.6v-1c0-.2-.4-.4-.7-.4l-5 .6c-.3 0-.5.3-.5.6ZM96.3 64.6l-.2 1c0 .3.2.5.5.6l5 .6c.3.1.5-.1.6-.4l.1-1c0-.2-.1-.5-.4-.5l-5-.7c-.3 0-.6.1-.6.4ZM93 75l-.3 1c-.1.2 0 .5.3.6l4.6 1.9c.3 0 .6 0 .7-.3l.4-.9c0-.3 0-.6-.3-.6l-4.7-2c-.3 0-.6.2-.7.4ZM258.5 100.5H199c-2.2 0-4.4-.9-6.1-2.4a56.3 56.3 0 0 1-3.2-82 54.8 54.8 0 0 1 39-16.1A54.8 54.8 0 0 1 284 55.6c0 16.3-7 31.9-19.3 42.5a9.4 9.4 0 0 1-6.2 2.4Zm-29.7-99a54 54 0 0 0-53.8 54c0 16 7 31.1 18.8 41.5 1.5 1.3 3.4 2 5.2 2h59.5c1.9 0 3.8-.7 5.2-2a55 55 0 0 0 18.8-41.4 54 54 0 0 0-53.7-54.1Z" fill="#292A56"/><path d="M229.2 64.3a7.6 7.6 0 0 1-7.6-7.5 7.6 7.6 0 0 1 15.2 0c0 4-3.4 7.5-7.6 7.5Zm0-14a6.5 6.5 0 1 0 0 12.8c3.6 0 6.5-2.9 6.5-6.4 0-3.5-3-6.5-6.5-6.5ZM223.8 39.9h-1l-1.7-2.2v2.2h-1v-4.6h1v2l1.6-2h1l-1.7 2.2 1.8 2.4ZM227.8 36.5c.4 0 .7.1.9.4.2.2.4.6.4 1v2h-.9v-2l-.1-.4-.4-.2c-.2 0-.4 0-.4.2l-.2.6v1.8h-.8v-2l-.2-.4-.3-.1c-.3 0-.4 0-.5.2l-.2.5v2h-.8v-3.4h.8v.4a1 1 0 0 1 1-.5c.3 0 .6.2.9.5 0-.4.4-.6.8-.6ZM230 40.5h-.4l2.6-5.9h.4l-2.6 6ZM235 36.5c.4 0 .7.1 1 .4.2.2.3.6.3 1v2h-.8v-2c0-.1 0-.3-.2-.4-.1-.2-.3-.2-.4-.2-.2 0-.4 0-.5.2l-.3.6V40h-.8v-4.6h.8v1.6c.2-.3.5-.4 1-.4ZM196.9 77.6c-.8 0-1.5-.3-2-1a4 4 0 0 1-.6-2.3c0-1 .2-1.8.7-2.4.4-.6 1-1 1.9-1 .8 0 1.4.4 1.8 1 .5.6.7 1.4.7 2.4a4 4 0 0 1-.7 2.4c-.5.6-1 .9-1.8.9Zm-1-1.8c.2.4.5.6 1 .6.4 0 .7-.2 1-.6.2-.3.2-.9.2-1.5a3 3 0 0 0-.3-1.5c-.2-.4-.5-.6-1-.6-.4 0-.7.2-1 .6-.2.3-.2.9-.2 1.5 0 .7 0 1.2.3 1.5ZM191.5 58.6v-1l2.2-2.2c.4-.5.7-.9.7-1.3 0-.2 0-.4-.2-.6a.9.9 0 0 0-.6-.2c-.4 0-.8.2-1 .8l-1.1-.6c.2-.5.4-.8.8-1a2.3 2.3 0 0 1 2.7.1c.4.4.6.9.6 1.5s-.3 1.3-1 2l-1.2 1.2h2.4v1.3h-4.3ZM198.8 58.6c-.7 0-1.4-.3-1.9-.9a4 4 0 0 1-.7-2.4c0-1 .3-1.8.7-2.4.5-.6 1-.9 2-.9.7 0 1.3.3 1.8 1 .5.5.7 1.4.7 2.3a4 4 0 0 1-.7 2.4c-.5.6-1.1 1-1.9 1Zm-1-1.7c.3.4.6.5 1 .5.5 0 .8-.1 1-.5.2-.4.3-.9.3-1.5 0-.7 0-1.2-.3-1.6-.2-.3-.6-.5-1-.5s-.7.2-1 .5c-.2.4-.3 1-.3 1.6 0 .6.1 1.1.3 1.5ZM199.9 40.1v1.2h-.7v1h-1.3v-1h-3v-1.1l2.1-4h1.4l-2.2 4h1.7v-1.5h1.3v1.5h.7V40ZM202.8 42.5c-.7 0-1.4-.3-1.9-.9a4 4 0 0 1-.7-2.4c0-1 .3-1.8.7-2.4.5-.6 1-1 2-1 .7 0 1.3.4 1.8 1s.7 1.4.7 2.4a4 4 0 0 1-.7 2.4c-.5.6-1 .9-1.9.9Zm-1-1.7c.3.3.6.5 1 .5.5 0 .8-.2 1-.5.2-.4.3-1 .3-1.5 0-.7 0-1.2-.3-1.6-.2-.4-.5-.5-1-.5-.4 0-.7.1-1 .5-.2.4-.3.9-.3 1.6 0 .6.2 1.1.3 1.5ZM208.5 24.9c.7 0 1.2.2 1.6.6.3.3.6.9.6 1.5a2 2 0 0 1-.7 1.6c-.5.4-1 .6-1.7.6s-1.2-.2-1.6-.6c-.5-.4-.6-.9-.6-1.6 0-.4.1-.9.3-1.2l2-3h1.4l-1.3 2Zm-.9 2.9c.3.1.5.3.8.3.3 0 .5 0 .8-.3.2-.2.3-.5.3-.8 0-.3-.1-.5-.3-.7a1 1 0 0 0-.8-.3 1 1 0 0 0-.8.3 1 1 0 0 0-.3.7c0 .3.2.6.3.8ZM213.8 29.2c-.8 0-1.5-.3-2-.9a4 4 0 0 1-.6-2.4c0-1 .2-1.8.7-2.4.4-.6 1-.9 1.9-.9.8 0 1.4.3 1.8.9.5.6.7 1.4.7 2.4a4 4 0 0 1-.7 2.4c-.4.7-1 1-1.8 1Zm-1-1.7c.3.4.6.5 1 .5.5 0 .8-.1 1-.5.2-.4.3-1 .3-1.5 0-.7 0-1.2-.3-1.6-.2-.4-.5-.5-1-.5-.4 0-.7.1-1 .5-.2.4-.3.9-.3 1.6 0 .7.1 1.2.3 1.5ZM227.1 20c.6.4 1 .9 1 1.5 0 .7-.3 1.1-.7 1.4-.4.3-1 .5-1.6.5-.7 0-1.3-.1-1.7-.5-.4-.3-.6-.8-.6-1.4 0-.6.3-1.2.9-1.5-.5-.3-.7-.7-.7-1.2 0-.6.2-1 .6-1.4.4-.3 1-.4 1.5-.4.6 0 1 .1 1.5.4.3.3.6.8.6 1.4-.1.5-.3 1-.8 1.2Zm-2.1 2c.2.2.4.3.8.3.3 0 .5 0 .7-.2.2-.2.3-.4.3-.7 0-.3 0-.5-.3-.6-.2-.2-.4-.2-.7-.2-.4 0-.6 0-.8.2-.2.1-.3.4-.3.6 0 .3 0 .5.3.7Zm1.4-3.8a.9.9 0 0 0-.6-.2l-.7.2-.2.6.2.5.7.2c.2 0 .4 0 .6-.2l.2-.5c0-.2 0-.4-.2-.6ZM231.2 23.5c-.8 0-1.4-.3-1.9-.9a4 4 0 0 1-.7-2.4c0-1 .2-1.8.7-2.4.4-.6 1-1 1.9-1 .8 0 1.4.4 1.9 1 .4.6.6 1.4.6 2.4a4 4 0 0 1-.6 2.4c-.6.6-1.2.9-2 .9Zm-1-1.8c.2.4.5.5 1 .5.4 0 .7-.1 1-.5.2-.4.3-.9.3-1.5 0-.7-.1-1.2-.3-1.6-.3-.4-.6-.5-1-.5-.5 0-.8.1-1 .5-.2.4-.3 1-.3 1.6 0 .7 0 1.2.3 1.5ZM238.8 23.3h1v6.3h-1.2v-5l-1.2.3-.3-1 1.7-.6ZM243.4 29.7c-.7 0-1.4-.3-1.9-1a4 4 0 0 1-.7-2.3c0-1 .3-1.8.7-2.4.5-.6 1-1 2-1 .7 0 1.3.4 1.8 1 .4.6.7 1.4.7 2.4a4 4 0 0 1-.7 2.4c-.5.6-1.1.9-1.9.9Zm-1-1.8c.3.4.6.6 1 .6.5 0 .8-.2 1-.6.2-.3.3-.9.3-1.5s0-1.2-.3-1.5c-.2-.4-.5-.6-1-.6-.4 0-.7.2-1 .6-.2.3-.3.9-.3 1.5s.1 1.2.3 1.5ZM249 29.7c-.7 0-1.4-.3-1.8-1a4 4 0 0 1-.7-2.3c0-1 .2-1.8.7-2.4.4-.6 1-1 1.9-1 .8 0 1.4.4 1.9 1 .4.6.6 1.4.6 2.4a4 4 0 0 1-.6 2.4c-.5.6-1.1.9-2 .9Zm-.8-1.8c.2.4.5.6 1 .6.4 0 .7-.2 1-.6l.2-1.5a3 3 0 0 0-.3-1.5c-.2-.4-.5-.6-1-.6-.4 0-.7.2-1 .6-.2.3-.2.9-.2 1.5-.1.6 0 1.2.3 1.5ZM250.1 36.4h1v6.3H250v-5l-1.2.4-.3-1 1.7-.7ZM252.2 42.7v-.9l2.1-2.2c.5-.6.8-1 .8-1.3 0-.2 0-.5-.2-.6a.9.9 0 0 0-.6-.2c-.5 0-.9.2-1 .7l-1.1-.6c.2-.4.4-.7.8-1a2.3 2.3 0 0 1 2.7.2c.4.4.6.8.6 1.4 0 .7-.4 1.4-1 2l-1.3 1.2h2.5v1.2h-4.3v.1ZM259.5 42.9c-.8 0-1.5-.3-2-1a4 4 0 0 1-.6-2.3c0-1 .2-1.8.7-2.4.4-.6 1-1 1.9-1 .8 0 1.4.4 1.9 1 .4.6.6 1.4.6 2.4a4 4 0 0 1-.6 2.4c-.5.6-1.2.9-2 .9Zm-1-1.8c.2.3.5.5 1 .5.4 0 .7-.2 1-.5.2-.4.3-1 .3-1.5 0-.7-.1-1.2-.3-1.6-.3-.4-.6-.5-1-.5-.5 0-.8.1-1 .5-.2.4-.3.9-.3 1.6 0 .6 0 1.2.3 1.5ZM253 52.7h1V59h-1.2v-5l-1.2.4-.3-1 1.7-.7ZM259.9 56.8V58h-.7v1h-1.3v-1h-3v-1.2l2-4h1.4l-2 4h1.6v-1.5h1.3v1.5h.7ZM262.9 59.2c-.8 0-1.5-.3-2-1a4 4 0 0 1-.6-2.3c0-1 .2-1.8.7-2.4.4-.6 1-1 1.9-1 .8 0 1.4.4 1.9 1 .4.6.6 1.4.6 2.4a4 4 0 0 1-.6 2.4c-.5.6-1.2.9-2 .9Zm-1-1.8c.2.4.5.6 1 .6.4 0 .7-.2 1-.6.2-.3.3-.9.3-1.5a3 3 0 0 0-.3-1.5c-.3-.4-.6-.6-1-.6-.5 0-.8.2-1 .6a3 3 0 0 0-.3 1.5c0 .6 0 1.2.3 1.5ZM250.1 70.7h1V77H250v-5l-1.2.3-.3-1 1.7-.6ZM254.5 72.7c.7 0 1.2.2 1.6.6.4.4.6.9.6 1.6a2 2 0 0 1-.7 1.5c-.4.4-1 .6-1.7.6-.6 0-1.2-.2-1.6-.6-.5-.3-.6-.9-.6-1.5 0-.5.1-1 .4-1.3l2-3h1.4l-1.4 2Zm-.8 3 .7.2c.3 0 .6 0 .8-.3.2-.2.3-.4.3-.7 0-.3-.1-.6-.3-.8a1 1 0 0 0-.8-.3 1 1 0 0 0-.7.3 1 1 0 0 0-.3.8c0 .3 0 .6.3.7ZM259.8 77.1c-.8 0-1.5-.3-2-.9a4 4 0 0 1-.6-2.4c0-1 .2-1.8.7-2.4.4-.6 1-.9 1.9-.9.8 0 1.4.3 1.9 1 .4.5.6 1.3.6 2.3a4 4 0 0 1-.6 2.4c-.6.6-1.2 1-2 1Zm-1-1.7c.2.4.5.5 1 .5.4 0 .7-.1 1-.5.2-.4.3-1 .3-1.5 0-.7-.1-1.2-.3-1.6-.3-.4-.6-.5-1-.5-.5 0-.8.1-1 .5-.2.4-.3 1-.3 1.6 0 .6 0 1.1.3 1.5Z" fill="#292A56"/><path d="M186 74.3c-1 .5-.5 2 .5 1.5 3.9-1.3 36-14.8 43.3-17.8.9-.3 1.2-1.2.9-2-.3-.8-1.3-1.2-2.2-.8L186 74.3ZM229 12.8h-.8a.5.5 0 0 1-.6-.5v-5c0-.3.3-.5.6-.5h.9c.3 0 .5.2.5.5v5c0 .3-.2.5-.5.5ZM218.2 14.3l-.9.3c-.3 0-.6-.1-.6-.4l-1.2-4.9c0-.3 0-.6.4-.6l.9-.2c.3 0 .6 0 .6.4l1.2 4.8c0 .3 0 .6-.4.6ZM208 18.5l-.8.4c-.2.2-.6.1-.7-.2l-2.3-4.4c-.2-.3-.1-.6.2-.7l.8-.5c.3-.1.6 0 .7.3l2.3 4.4c.2.2.1.5-.2.7ZM199.8 25l-.7.5c-.2.3-.5.2-.7 0l-3.4-3.8c-.3-.2-.2-.5 0-.8l.7-.6c.2-.2.6-.1.8.1l3.4 3.8c.1.2.1.5-.1.7ZM192.8 33.3l-.5.7c-.2.2-.5.3-.8.2l-4.2-2.9c-.3-.1-.3-.4-.2-.7l.5-.8c.2-.2.5-.3.8-.1l4.2 2.8c.3.2.3.5.2.8ZM188.6 43.1l-.3.8c-.1.3-.4.4-.7.3l-4.8-1.7c-.3 0-.4-.4-.3-.7l.3-.8c0-.3.4-.4.7-.3l4.8 1.7c.2.1.3.4.3.7ZM186.7 53.8l-.1.9c0 .3-.3.5-.6.4l-5-.5c-.4 0-.6-.3-.5-.6v-1c0-.2.4-.4.7-.4l5 .6c.3 0 .5.3.5.6ZM187.4 64.6l.2 1c0 .3-.2.5-.5.6l-5 .6c-.3.1-.5-.1-.6-.4l-.1-1c0-.2.1-.5.4-.5l5-.7c.3 0 .6.1.6.4Z" fill="#292A56"/><path d="m190.7 74.4.3.8c.1.3 0 .6-.3.7l-4.6 1.9c-.3 0-.6 0-.7-.3l-.4-.8c0-.3 0-.6.3-.7L190 74c.3-.1.6 0 .7.3ZM239 14.3l1 .3c.2 0 .5-.1.5-.4l1.2-4.9c.1-.3 0-.6-.3-.6l-1-.2c-.2 0-.5 0-.5.4l-1.2 4.8c-.1.3.1.6.3.6ZM249.2 18.5l.8.4c.3.2.7.1.7-.2l2.4-4.4c.1-.3 0-.6-.3-.7l-.8-.5c-.2-.1-.6 0-.7.3l-2.3 4.4c-.2.2 0 .5.2.7ZM257.5 25l.7.5c.2.3.5.2.8 0l3.3-3.8c.3-.2.2-.5 0-.8l-.7-.6c-.2-.2-.5-.1-.8.1l-3.4 3.8c-.2.2-.1.5.1.7ZM264.5 33.3l.6.7c.1.2.4.3.7.2l4.2-2.9c.3-.1.3-.4.2-.7l-.5-.8c-.2-.2-.5-.3-.8-.1l-4.2 2.8c-.3.2-.4.5-.2.8ZM268.7 43.1l.3.8c0 .3.4.4.7.3l4.7-1.7c.3 0 .4-.4.3-.7l-.3-.8c0-.3-.4-.4-.7-.3l-4.7 1.7c-.2.1-.4.4-.3.7ZM270.6 53.8v.9c0 .3.3.5.6.4l5.1-.5c.3 0 .5-.3.5-.6l-.1-1c0-.2-.3-.4-.6-.4l-5 .6c-.3 0-.5.3-.5.6ZM266.6 75l-.4 1c0 .2 0 .5.3.6l4.7 1.9c.3 0 .6 0 .7-.3l.3-.9c.1-.3 0-.6-.3-.6l-4.6-2c-.4 0-.7.2-.7.4ZM250.4 91.4h-43.7c-.6 0-1-.5-1-1.1v-6.9c0-.6.4-1.1 1-1.1h43.7c.6 0 1.2.5 1.2 1.1v6.9c0 .6-.5 1-1.2 1ZM206.7 83c-.2 0-.3.2-.3.4v6.9c0 .2.1.3.3.3h43.7c.3 0 .4-.1.4-.3v-6.9c0-.2-.2-.4-.4-.4h-43.7Z" fill="#292A56"/><path d="M216.7 82.7h-.8V91h.8v-8.3ZM210.7 88.7h-.8l-1.2-1.5v1.5h-.7v-3.3h.7v1.4l1.1-1.4h.8l-1.2 1.5 1.3 1.8ZM214.2 85.4v3.3h-.7v-2.1l-.9 1.5-1-1.5v2h-.6v-3.2h.6l1 1.5 1-1.5h.6ZM221 88.8c-.5 0-.8-.2-1-.6-.3-.4-.4-.8-.4-1.4 0-.6.1-1 .3-1.4.3-.4.6-.6 1.1-.6.5 0 .8.2 1 .6.3.3.4.8.4 1.4 0 .6-.1 1-.3 1.4-.3.4-.6.6-1.1.6Zm-.5-1c.1.2.3.3.5.3s.5-.1.5-.3c.1-.3.3-.6.3-1 0-.3-.1-.6-.3-.8-.1-.3-.3-.3-.5-.3s-.5 0-.5.3c-.1.2-.3.5-.3.9l.3.9ZM224.6 88.8c-.4 0-.8-.2-1-.6-.3-.4-.4-.8-.4-1.4 0-.6.1-1 .4-1.4.2-.4.6-.6 1-.6.5 0 .8.2 1 .6.3.3.5.8.5 1.4 0 .6-.2 1-.4 1.4-.3.4-.6.6-1 .6Zm-.5-1c.1.2.3.3.5.3s.5-.1.5-.3c.1-.3.3-.6.3-1 0-.3-.1-.6-.3-.8-.1-.3-.3-.3-.5-.3s-.4 0-.5.3l-.2.9c0 .3 0 .6.2.9ZM228.3 88.8c-.4 0-.8-.2-1-.6-.3-.4-.4-.8-.4-1.4 0-.6.1-1 .4-1.4.2-.4.6-.6 1-.6.5 0 .8.2 1 .6.3.3.4.8.4 1.4 0 .6-.1 1-.3 1.4-.3.4-.6.6-1 .6Zm-.6-1c.2.2.3.3.5.3.3 0 .5-.1.6-.3l.2-1c0-.3 0-.6-.2-.8-.2-.3-.3-.3-.6-.3-.2 0-.4 0-.5.3l-.2.9.2.9ZM230.2 85h2.4v.6l-1.3 3h-.7l1.2-3h-1.6V85ZM234.5 88.8c-.4 0-.8-.2-1-.6-.3-.4-.4-.8-.4-1.4 0-.6.1-1 .3-1.4.3-.4.7-.6 1.1-.6.5 0 .8.2 1 .6.3.3.4.8.4 1.4 0 .6-.1 1-.3 1.4-.3.4-.6.6-1.1.6Zm-.5-1c.1.2.3.3.5.3s.5-.1.5-.3c.1-.3.3-.6.3-1 0-.3-.1-.6-.3-.8-.1-.3-.3-.3-.5-.3s-.4 0-.5.3c-.1.2-.3.5-.3.9l.3.9ZM237.4 85h.7v3.7h-.8v-3l-.7.3-.1-.6 1-.4ZM239.8 85h.6v3.7h-.8v-3l-.6.3-.2-.6 1-.4ZM242.6 86.3c.4 0 .7.1.9.3.2.3.4.6.4 1 0 .3-.2.6-.4.9-.2.2-.6.3-1 .3-.2 0-.5-.1-.7-.3-.2-.1-.4-.3-.5-.6l.6-.4c0 .3.3.5.7.5.1 0 .3 0 .4-.2.2 0 .2-.2.2-.3 0-.2 0-.3-.2-.4l-.4-.2h-1.2l.2-2h2.1v.7h-1.4l-.1.7h.4ZM247.3 87.4v.7h-.3v.6h-.8V88h-1.7v-.7l1.2-2.4h.7l-1.2 2.4h1v-.9h.8v.9h.3ZM162 101.5h-40.7a3 3 0 0 1-3-3V18c0-1.6 1.3-3 3-3H162a3 3 0 0 1 3 3v80.6a3 3 0 0 1-3 3Zm-40.7-85.3c-1 0-1.9.8-1.9 1.8v80.6c0 1 .9 1.8 1.9 1.8H162c1 0 1.8-.8 1.8-1.8V18c0-1-.8-1.8-1.8-1.8h-40.8Z" fill="#292A56"/><path d="M160.5 27.3h-39.1v1h39v-1ZM160.5 35.1h-39.1v1.2h39V35ZM160.5 79.5h-39.1v1.1h39v-1ZM160.5 91.9h-39.1V93h39V92ZM128.2 90A3.2 3.2 0 0 1 125 87a3.2 3.2 0 0 1 6.3 0c0 1.7-1.4 3.1-3.1 3.1Zm0-5.2a2 2 0 1 0 0 4.1 2 2 0 1 0 0-4ZM123.8 90a5.5 5.5 0 0 1-.3-5.8l1 .5a4.3 4.3 0 0 0 .3 4.6l-1 .7ZM132.6 90l-1-.7a4.3 4.3 0 0 0 .4-4.5l1-.5c.4.8.6 1.6.6 2.5 0 1.2-.4 2.3-1 3.2ZM157.8 89.3h-9.2l4.6-7 4.6 7Zm-7.1-1.1h5l-2.5-3.9-2.5 3.9ZM143.3 88.8h-5v-4.1h8.3V87h-1.4l-2 1.8Zm-4-1.1h3.5l1.8-1.8h.9-6.1v1.8Z" fill="#292A56"/><path d="M142.2 83.5H141v1.8h1.2v-1.8Z" fill="#292A56"/><path d="M143.3 83H140V84h3.3V83ZM147.4 64.8H134V53.2h13.3v11.6Zm-12.2-1.1h11v-9.3h-11v9.3Z" fill="#292A56"/><path d="M146.7 54.4h-12v-5c0-.9.7-1.6 1.6-1.6h8.9c.8 0 1.5.7 1.5 1.5v5Zm-10.8-1.2h9.6v-3.9c0-.2-.1-.3-.3-.3h-9c-.2 0-.3.1-.3.3v4ZM145.2 69.9h-9c-.8 0-1.4-.7-1.4-1.5v-4.7h11.9v4.7c0 .8-.7 1.5-1.5 1.5Zm-9.3-5.1v3.6c0 .2.1.4.4.4h8.9c.2 0 .3-.2.3-.4v-3.6H136Z" fill="#292A56"/><path d="M182 79c-1 0-1.9-.8-1.9-1.8V65.8a3 3 0 0 1 3-2.9h16c1 0 1.8.8 1.8 1.9 0 1-.8 1.9-1.9 1.9H184v10.6c0 1-.9 1.8-2 1.8ZM273 79c-1 0-1.9-.8-1.9-1.8V66.6h-15.2c-1 0-1.9-.8-1.9-1.9 0-1 .9-1.9 2-1.9h16a3 3 0 0 1 2.9 3v11.4c0 1-.9 1.9-2 1.9ZM272 110h-16c-1.1 0-2-.8-2-1.9 0-1 .9-1.9 2-1.9H271V95.7c0-1 .8-2 1.9-2 1 0 1.9 1 1.9 2V107a3 3 0 0 1-3 2.9ZM199.1 110h-16a3 3 0 0 1-3-3V95.8c0-1 1-2 2-2s1.9 1 1.9 2v10.5H199c1 0 1.9.9 1.9 2 0 1-.8 1.8-1.9 1.8Z" fill="#fff"/><path d="M182 78c-.5 0-.8-.4-.8-.8V65.8c0-1 .9-1.8 1.8-1.8h16c.5 0 .8.3.8.8 0 .4-.3.7-.8.7h-16l-.3.3v11.5c0 .3-.3.6-.7.6ZM273 78c-.5 0-.8-.4-.8-.8V65.8c0-.1-.1-.3-.3-.3h-16c-.4 0-.7-.3-.7-.7 0-.5.3-.8.7-.8h16c1 0 1.8.9 1.8 1.8v11.5c0 .3-.3.6-.7.6ZM272 108.9h-16c-.5 0-.8-.3-.8-.8 0-.4.3-.7.7-.7h16c.2 0 .3-.2.3-.3V95.7c0-.5.3-.8.8-.8.4 0 .7.3.7.8V107c0 1-.8 1.8-1.8 1.8ZM199.1 108.9h-16c-1 0-1.8-.9-1.8-1.8V95.7c0-.5.3-.8.8-.8.4 0 .7.3.7.8V107l.3.3h16c.5 0 .8.3.8.7 0 .5-.4.8-.8.8Z" fill="#252A56"/></svg>