<svg width="269" height="185" viewBox="0 0 269 185" fill="none" xmlns="http://www.w3.org/2000/svg"><path d="m46.2 83.1-12.8-1.6c-.4 0-.7-.3-.7-.7v-4c0-.4.4-.8.8-.7l12.8 1.6c.4 0 .7.3.7.7v4c0 .4-.4.8-.8.7ZM88.2 50.3l12.7.5 2.8-4.9-12.8-.4-2.7 4.8ZM32.2 52l-7.7 4.7H24l-4.2-.6c-.4 0-.4-.5-.2-.6l7.7-4.7h.5l4.2.5c.3 0 .5.5.2.7Z" fill="#EE3530"/><path d="M146.3 132.1c-.4 0-.7-.3-.7-.7v-15.3c0-1.2 1-2.2 2.2-2.2h21.4c.4 0 .7.3.7.7 0 .5-.3.8-.7.8h-21.4c-.5 0-.7.2-.7.7v15.3c0 .4-.4.7-.8.7ZM268.3 132.1c-.5 0-.7-.3-.7-.7v-15.3c0-.5-.3-.7-.8-.7h-21.4c-.4 0-.7-.3-.7-.8 0-.4.3-.7.7-.7h21.4c1.3 0 2.2 1 2.2 2.2v15.3c0 .4-.4.7-.7.7Z" fill="#252A56"/><path d="M264.7 128H156a.6.6 0 0 1-.6-.6c0-.3.2-.5.6-.5h108.7c.3 0 .6.2.6.5 0 .4-.3.6-.6.6ZM264.4 171.1H219a.6.6 0 0 1-.6-.6c0-.3.2-.5.6-.5h45.4c.3 0 .6.2.6.5 0 .4-.3.6-.6.6ZM198 171.1h-47.3a.6.6 0 0 1-.6-.6c0-.3.2-.5.6-.5h47.2c.3 0 .6.2.6.5 0 .4-.3.6-.6.6ZM256.3 157.4H155.8a3.2 3.2 0 0 1-3.2-3.3v-10.9c0-1.8 1.4-3.2 3.2-3.2h100.6c1.8 0 3.2 1.4 3.2 3.2v11c0 1.7-1.5 3.2-3.3 3.2Zm-100.5-16.6a2.5 2.5 0 0 0-2.5 2.5V154c0 1.4 1.2 2.6 2.5 2.6h100.6c1.4 0 2.5-1.2 2.5-2.6v-10.9c0-1.4-1.1-2.5-2.5-2.5H155.8Z" fill="#252A56"/><path d="m161.6 152.3-1.7-6.6h1.3l1.3 5 1.4-5h1.1l1.4 5 1.2-5h1.3l-1.8 6.6h-1.5l-1.2-4.4-1.2 4.4h-1.6ZM174.6 148.9c.6.3.9.8.9 1.5 0 .6-.2 1-.6 1.4a2 2 0 0 1-1.4.5h-2.8v-6.7h2.5c.6 0 1.1.2 1.5.5.3.4.6.8.6 1.4 0 .7-.3 1-.7 1.4Zm-1.4-2H172v1.5h1.3c.2 0 .3 0 .5-.2l.2-.5c0-.3 0-.4-.2-.5-.1-.2-.3-.3-.5-.3Zm.2 4.2c.2 0 .4 0 .6-.2l.2-.6c0-.2 0-.4-.2-.6a.8.8 0 0 0-.6-.2h-1.5v1.6h1.5ZM181.5 152.3l-.4-1.2h-2.7l-.5 1.2h-1.4l2.3-6.6h1.6l2.3 6.6h-1.2Zm-2.7-2.4h1.9l-1-2.7-1 2.7ZM190.6 148.8v.5a3 3 0 0 1-1 2.3c-.6.6-1.3.9-2.3.9a3.4 3.4 0 0 1-3.5-3.5 3.4 3.4 0 0 1 3.4-3.4c.6 0 1.2.1 1.7.4.6.3 1 .7 1.3 1.2l-1.2.6c-.1-.3-.4-.5-.7-.6-.3-.2-.7-.3-1.1-.3-.6 0-1.1.2-1.6.6-.4.4-.6 1-.6 1.6 0 .6.3 1.1.7 1.5.4.4 1 .6 1.6.6.5 0 1-.2 1.3-.4.3-.2.5-.5.6-1h-2v-1h3.4ZM194.5 147.9c.7 0 1.2.2 1.6.6.5.5.7 1 .7 1.7 0 .6-.2 1.2-.7 1.6-.4.5-1 .7-1.7.7s-1.3-.2-1.7-.7c-.5-.4-.7-1-.7-1.6 0-.5.2-1 .4-1.4l2-3h1.6l-1.5 2Zm-.9 3c.2.3.5.4.8.4.3 0 .6-.1.8-.3.2-.2.3-.5.3-.8 0-.3-.1-.6-.3-.8a1 1 0 0 0-.8-.3 1 1 0 0 0-.8.3c-.2.2-.3.4-.3.8 0 .3 0 .6.3.8ZM202 148.9c.5.3.9.8.9 1.6 0 .5-.2 1-.7 1.4-.4.4-1 .5-1.7.5s-1.3-.1-1.7-.5c-.4-.4-.7-.9-.7-1.4 0-.8.3-1.3 1-1.6-.5-.4-.7-.8-.7-1.4 0-.6.2-1 .6-1.4.4-.4 1-.5 1.5-.5.6 0 1.2.1 1.5.5.4.3.7.8.7 1.4 0 .6-.2 1-.8 1.4Zm-2.3 2c.2.2.5.3.8.3.3 0 .6 0 .8-.2.2-.2.3-.4.3-.7 0-.3 0-.5-.3-.6-.2-.2-.4-.2-.8-.2-.3 0-.6 0-.8.2-.2.1-.3.3-.3.6s.1.5.3.7Zm1.5-3.9-.7-.2a1 1 0 0 0-.6.2l-.3.6.3.6.6.2c.3 0 .4 0 .7-.2l.2-.6-.2-.6ZM207 148.4c.5.1.8.3 1.1.7.3.4.5.7.5 1.2 0 .7-.2 1.2-.8 1.6-.4.4-1 .6-1.6.6-.5 0-1-.2-1.4-.4-.3-.2-.7-.6-.8-1l1.1-.7c.2.5.6.8 1.2.8.3 0 .5 0 .8-.2.2-.2.2-.4.2-.7 0-.3 0-.5-.2-.6-.3-.2-.5-.2-.8-.2h-.3l-.5-.8 1.3-1.8h-2.6v-1.2h4.2v1l-1.3 1.7ZM211.2 145.7h1.2v6.6H211v-5.2l-1.2.3-.3-1.1 1.6-.6ZM214.1 152.3v-1l2.2-2.3c.5-.5.8-1 .8-1.3 0-.3 0-.4-.2-.6-.1-.2-.3-.2-.6-.2-.5 0-.9.3-1.1.8l-1-.7c.1-.4.4-.8.8-1 .3-.2.8-.4 1.3-.4s1 .3 1.5.6c.4.4.6.9.6 1.5 0 .7-.3 1.4-1 2.1l-1.3 1.3h2.5v1.2H214ZM221.5 152.3l-1.7-6.6h1.4l1.3 5 1.3-5h1.2l1.3 5 1.3-5h1.2l-1.7 6.6h-1.6l-1.2-4.4-1.2 4.4h-1.6ZM231.9 152.3l-1.7-6.6h1.3l1.3 5 1.4-5h1.1l1.4 5 1.2-5h1.2l-1.7 6.6H236l-1.2-4.4-1.2 4.4h-1.6ZM242 145.7h1.2v6.6h-1.3v-5.2l-1.2.3-.3-1.1 1.6-.6ZM244.9 152.3v-1l2.2-2.3c.5-.5.8-1 .8-1.3 0-.3 0-.4-.2-.6-.1-.2-.4-.2-.6-.2-.5 0-1 .3-1.1.8l-1.1-.7c.2-.4.5-.8.9-1 .3-.2.8-.4 1.3-.4s1 .3 1.5.6c.4.4.6.9.6 1.5 0 .7-.3 1.4-1 2.1l-1.4 1.3h2.6v1.2h-4.5ZM252.2 145.7h1.2v6.6H252v-5.2l-1.2.3-.3-1.1 1.6-.6ZM266.8 184.3h-21.4c-.4 0-.7-.3-.7-.7 0-.5.3-.8.7-.8h21.4c.5 0 .8-.3.8-.7v-15.3c0-.4.2-.7.7-.7.4 0 .7.3.7.7V182c0 1.2-1 2.2-2.2 2.2ZM169.2 184.3h-21.4c-1.2 0-2.2-1-2.2-2.2v-15.3c0-.4.3-.7.7-.7.5 0 .8.3.8.7V182c0 .5.2.7.7.7h21.4c.4 0 .7.3.7.8 0 .4-.3.7-.7.7Z" fill="#252A56"/><path d="M46 112.3c-4.7.7-11.2 1-17.1-.5-3.4-.8-5.3-2.4-6.2-4.3a157.3 157.3 0 0 0 23.3 4.8ZM134 104.6l-5-.8v-.4l.1-2.4c0-13.2-6.9-20-11.8-20.7l-4.1-.3h-1.5l1.3-.7 1.4-.6a12 12 0 0 1 13.8 4.6c1 1.8 2.2 4 3 6.2h.1v.2c1.6 4.6 2.5 9.5 2.6 14.4v.5Zm-4.1-1.5 3.3.6a45 45 0 0 0-2.5-13.6v-.2c-1-2.3-2-4.5-3-6.3-2-3.3-6.9-6-12.9-4.3.9 0 1.8.2 2.6.3 5.2.7 12.5 7.8 12.5 21.4v2.1Z" fill="#272B56"/><path d="m129.6 101-.1 2.5c-.9 10.2-7.6 18.1-12.7 18.1-2.7 0-14.6-.3-17-1.6-1.9-1.1-4.2-4.7-4.2-7.5 3.6-.9 6.3-1.7 8.4-2.5l.4-11.3a30.6 30.6 0 0 1 1-7.2c1.4-4.8 3.9-10 7.8-12 1.3 0 2.7.2 4.3.4 4.7.7 12 7.3 12 21.1Z" fill="#272B56"/><path d="M116.2 112.1c3 0 5.4-4.7 5.4-10.4 0-5.8-2.4-10.4-5.4-10.4-3 0-5.4 4.6-5.4 10.4 0 5.7 2.4 10.4 5.4 10.4Z" fill="#fff"/><path d="M201.7 83.8V85c-.5 8.9-5.4 16-9.8 16-2.3 0-10.9-.7-12.7-2-1.4-.9-2.7-3.3-3.3-5.5l6-1.5V90l-.2-1.8V87c0-1.3 0-2.8.2-4.5v-1.2c.3-3 .6-6.6 2-9.7 1-1.9 2-3.4 3.3-4.5l5-.1c3.8-.2 9.5 7.4 9.5 16.9Z" fill="#272B56"/><path d="M74.6 115.2a174 174 0 0 1-28-2.4l-.7-.1c-.3 0-.6 0-.9-.2h-.5l-6.7-1.1a151 151 0 0 1-25.2-6.8l-.3-.1-1-.4H11l-.8-.3c-.4-.2-.8-.2-1-.4l-.5-.1-.2-.1-.9-.3-1.3-.6-.3-.2-.3-.1-.8-.6-.1-.1-1-1c-1-.6-1.7-1.9-2-3.8v-.1l-.1-.6-.1-.4v-.5l-.2-.6V92l.3-1.8.2-1.8v-.2c0-.8 0-1-.5-2.1l-.3-1.3.1-1.7.1-.2c0-.2-.1-.6-.4-1l-.3-1v-.1c-.2-.2-.2-.4-.2-.7l-.1-.4-.1-1C0 78-.1 76.6 0 75.3v-.4l.7-2.4.3-.6.3-.4v-.2c1.3-2 2.3-2.8 2.7-3V68c0-.5.3-1.1.7-1.7L6 64.8h.2l.7-.8 1-1 .3-.2.3-.1h.1l.4-.4c.2-.3.7-.5 1.2-.8.5-.2 1.1-.5 1.5-.9.8-.8 1-2 1.2-2.7l.2-.8.2-.2.4-.2.2-.1h.7V56.2c.2 0 .2 0 .2-.2l.2-.1.2-.2h.1l.8-.7.8-.6s.2 0 .2-.2l.3-.1.3-.1.2-.2.7-.4c.1-.2.3-.2.5-.3l.2-.1c.3-.3.6-.4 1-.6l1-.6L23 51h.1l.2-.1h.1l.4-.3.4-.2 1-.6 1.8-1 .4-.1.3-.1 1.8-1 .8-.4 2.9-1.6 1-.4.3-.1V45l.4-.1.2-.2.4-.2.4-.2.3-.1.4-.1.3-.2.3-.1c.2-.2.5-.2.7-.3l1.7-.9.2.3-.2-.5h.1l.3-.2H40.2V42l.2-.1 1.2-1.1.3-.3.3-.3.1-.2.2-.1.1-.2.4.2-.3-.2 1.8-1.8 1.6-1.7.5-.4.7-.8.5-.6 1-.8c.1-.3.3-.4.5-.6l.3-.3.3-.4h.1l.3-.3v-.1l.3-.2.6-.7.5-.2.4-.3.5-.5.6-.5.3-.3.5-.4.1-.1.2-.3.3-.2.4-.3 1.2-1 .3-.3 1.2-1 .9-.7.4-.4.2-.2L62 22l.3-.2.5-.5 1.4-1.1.4-.4.5-.3 5-4 .4-.2.3-.2 2.7-2a60 60 0 0 1 22.8-8.6h.5l1-.3h.5L99 4h.7l1-.3h.1l2.3-.4 1.3-.2 2.9-.5h.1c.7 0 1.3-.2 2-.3l5.5-.7h.6l1.4-.2h.5l1.2-.2c1 0 1.9-.2 2.9-.3l3-.2h1.6c.8-.2 1.6-.2 2.4-.2l2.3-.1h11l3.1.2c2.3 0 4.3.2 6.3.4l1.7.3 6.3 1.1 1.1.2 1 .2h.1l1.4.4 1.1.3h.3l1 .3 2.1.7.5.1.7.3 1.2.4 1.3.5 2.3.9 1.6.6 1.3.6h.2l1.4.6.8.4h.2V9l.8.4.3.1.5.2.3.2.6.3.5.3h.1c5.1 2.8 10 6.5 13.3 10a48.3 48.3 0 0 1 12.5 22v.3l.2.5v.3c.7 2.7 1.3 6 1.6 9.7v.3a51.2 51.2 0 0 1-.4 16.8h1.7l.1.4v-.4c.4 0 .7.1 1 .4v.2l.1.1.2.3.1.6V80.8c0 .5 0 1-.3 1.5v.2h-.2c-.2.3-.4.6-.8.8l-.2.1h-.2l-.2.2-.7.2-.5.2-.7.2h-.2l-.2.1-.2.1h-.3l-1.6.5-.2.1h-.4l-.3.1-.3.1h-.4l-.7.2h-.4v-.3l-.2-2c0-1.6-.3-3-.4-4.1-.2-1.2-.4-2.3-.8-3.4v-.2c-.8-2.4-1.4-4.6-3-6.9a8.3 8.3 0 0 0-6-3.7c-2-.2-4 .5-5.8 2.1v.1a15.4 15.4 0 0 0-3.3 4.5c-1.3 2.8-1.6 6-1.9 8.8v.7l-.1 1.2-.2 4.5v3.7l.2 1v.9l-49 12.2v-.4a47.3 47.3 0 0 0-2.5-14.3 39 39 0 0 0-3-6.3l-.5-.7-.6-.7a11.5 11.5 0 0 0-12-2.9l-1 .4-.2.2c-.4.2-1 .5-1.4.9l-1 .8-.2.3a23.4 23.4 0 0 0-5 9.7v.1l-.4 1.8a35 35 0 0 0-.6 5.2l-.4 11.4v.2h-.2l-1.2.5-6 1.7-1.2.3h-.4l-.6.2-2.9.6a68 68 0 0 1-16.8 1.7Zm-62.8-11.6.8.2.3.1a145.7 145.7 0 0 0 31.7 7.9h.6l.8.2h.7l6.5 1c11 1.3 25.4 2.6 38.7 0l2.9-.7.8-.2 1.3-.3a59 59 0 0 0 5.8-1.6l1-.4.3-11a36.8 36.8 0 0 1 1.1-7.2 24 24 0 0 1 5.6-10.6l1-.8 1.4-1 .3-.1 1.1-.5a12.1 12.1 0 0 1 13.3 3.7l.5.8a36 36 0 0 1 3 6.4v.1a47 47 0 0 1 2.6 14l47.5-12v-.4l-.1-.9V82l.1-1.2.1-.6c.3-2.9.6-6.2 2-9 1-2 2-3.5 3.2-4.6l.1-.2c2-1.8 4.3-2.6 6.6-2.4 2.4.3 4.7 1.6 6.4 4 1.6 2.4 2.3 4.6 3 7v.4c.4 1 .7 2.2.9 3.3l.5 4.2v1.6h.3l.4-.2h.4l.2-.1h.3l.2-.1 1.6-.5h.3l.2-.1h.3l.2-.2.7-.2.4-.1.7-.2.3-.2.2-.1.6-.6v-.1c.2-.3.3-.7.3-1.2v-9.1l-.1-.1h-.1v-.1l-.2-.1s-.2-.2-.5-.2h-2.2l-.3-.1v-.4s1-4.8 1-8.5c.1-1.5-.1-4.6-.5-8.4V53.3c-.5-3.6-1-6.9-1.6-9.5l-.1-.4-.1-.5-.1-.2A47.3 47.3 0 0 0 194.7 21c-3.3-3.4-8-7-13.1-9.7l-.7-.5-.6-.3-.3-.1-.5-.3-.3-.1-.7-.4-.3-.2-.8-.4-1.3-.6h-.3l-1.3-.6-1.6-.6-2.2-1c-.5 0-1-.3-1.3-.4l-1.2-.4-.7-.3-.5.1-2-.6-1.1-.3-.3-.1-1.1-.3-1.3-.3-.2-.1-1-.2-1-.3-6.3-1.2-1.8-.2c-1.9-.3-4-.3-6.1-.4-1 0-2.1 0-3.2-.2h-2.2l-2.1-.1h-6.7l-2.2.1-2.4.2h-1.5l-3 .3-2.9.3-1.1.2h-.6l-1.4.2h-.5l-5.6.7-1.8.3h-.1l-3 .4-1.3.2-2.3.5h-.2l-1 .2H99l-.6.2H98L97 5l-.7.1a59.6 59.6 0 0 0-25.1 10.5l-.3.3-.2.1a393 393 0 0 0-5 4l-.5.4-.4.4-1.5 1.1-.5.4-.2.2-2.7 2.3-.3.1-.4.4-1 .8-1.1 1c-.1 0-.3.1-.3.3l-1.2 1a2 2 0 0 1-.4.3l-.3.3-.2.1-.2.1-.4.4-.3.3-.6.5-.5.4-.1.2-.6.3-.3.1-.6.6-.2.2-.4.4-.3-.3.2.3-.3.4-.3.3-.6.5-1 1-.5.6-.7.7a2 2 0 0 0-.4.4L45 38.2 43.2 40l-.4-.3.3.3-.2.2-.2.1-.2.2-.3.3-.3.3-1.1 1.2-.4.3h-.1v.2l-.4.2h-.2L38 44l-.6.3-.3.1-.4.2-.3.1-.4.2-.4.1-.4.2-.3.2-.2.1-.4.2-1 .4-2.8 1.6-.8.4-1.8 1-.2.1-.4.3-1.7.9-1.1.6-.4.2-.5.2h-.1l-.2.1-1.6 1-1 .6-1 .5-.2.2c-.2 0-.4.2-.5.3l-.7.3-.2.2-.3.1-.2.2-.2.1-.7.6-.8.6h-.1c0 .2-.2.2-.2.3h-.2v.2h-.1l-.2.2-.1.1h-.1l-.2.2H14l-.2.2h-.1l-.1.6a6 6 0 0 1-1.4 3.1c-.4.4-1 .7-1.6 1-.4.2-.9.5-1 .7l-.4.3c-.1.2-.2.2-.4.2l-1.1 1.1-.8.8-.4.2c-.4.3-.8.7-1 1.2-.4.5-.6 1-.6 1.3v.8l-.3.1c-.2 0-1.2.7-2.6 2.9v.1l-.3.5-.3.5a7 7 0 0 0-.6 2l.1.2c-.3 1.4-.1 2.7 0 3.7v.8l.1.5.2.5v.3l.4.7c.3.6.5 1.1.4 1.6v.2l-.2 1.5.3 1c.5 1.4.6 1.6.5 2.4v.3c0 .5 0 1.1-.2 1.8l-.2 1.8v2.6l.1.4.1.3v.6c.4 1.8 1 3 1.8 3.5l1 .9.2.1.7.5.3.2.3.1v.1l1.2.5 1 .3h.1l.5.2 1 .4 1 .3h.3l.1.5Zm2.7-47 .2.1h-.2Z" fill="#272B56"/><path d="M133.9 56.4c-4.5 0-6.6-2-7.2-2.6h-1a1 1 0 0 1-.8-.2 1 1 0 0 1-.3-.8v-1.3h1.7l.3-.3c.1-.2.2-.4.5-.4h.2l.1.2.6.8c.4.5 1 1.3 4 1.7 2 .3 4 0 5.6-.9.4-.2.6-.3.8-.6 1.3-1 1.5-3.3 1.5-3.7v-2.2l.7 2.1.2 1.2v1.3l.2-.2-.2.8c-.3 1-.8 2.8-2.4 3.8a9 9 0 0 1-4.5 1.3Zm-7-3.3.2.1s2.1 2.4 6.8 2.4c1.5 0 2.8-.4 4-1.2 1.2-.8 1.7-2 2-2.8V51c-.3.5-.6 1-1.1 1.5l-1 .6c-1.8 1-4 1.3-6 1-3-.4-3.9-1.1-4.5-1.8l-.4-.5c-.1.2-.3.5-.7.5h-1v.8h1.8ZM61.4 100.2h-2c-6.8-.4-45.9-4.4-56-13.6-.5-.5-.9-.9-1-1.2l-.6-.8.9.2c2.3.6 4.7.4 6.3.3 2-.2 3 .5 3.2.5 14 5.6 39.4 8.8 39.6 8.9h.1c5.2 3 8.8 4.5 12 4.9l2.7.3-2.7.4-2.5.1ZM3.5 85.7l.3.3c10 9 48.9 13.1 55.6 13.5H61a41 41 0 0 1-9.4-4.3c-1.5-.2-26-3.4-39.8-9 0 0-1.2-.6-2.8-.4-1.5.1-3.5.3-5.6 0ZM208.4 54.3c-1.4 0-2.3-2-2.9-3.3l-.3-.8c0-.2-.2-.4-.4-.6-.6-1-1.6-2.4-.7-4.6.9-2 2-2.3 3.2-2.5h.3l.1.3c.9 3.3 1.9 10.9 1.9 11v.4H208.4Zm-2.6-4.4.4.8c.5 1 1.3 2.9 2.2 2.9h.5c-.3-1.6-1-7.2-1.8-10.3a3 3 0 0 0-2.3 2c-.8 2 0 3 .7 4l.3.6ZM203.5 85.6V85l-.2-2c-.2-3-.6-5.3-1.2-7.5l-.4-1.3 1 1c.8.8 1.8 1.8 3.2 2h.7c1.8-.1 2.6-1.2 3.2-2.2.3-.5.3-1.1.4-1.8 0-.7 0-1.5.3-2.4v-.2l.2-.2h.4c.3 0 .6.1.8.3l.1.1.2.1v.2l.2.3.1.5v4.8l-.1 3.7v.2c0 .6 0 1-.3 1.5l-.2.2-.7.7-.3.2h-.1l-.3.2a5 5 0 0 0-.7.3l-.4.1-.8.2-.2.1h-.3l-.3.1-1.6.5h-.2l-.2.1-.3.1-1.6.4-.4.2Zm-.4-9c.4 2 .8 4 1 6.5v1.5l1.2-.3h.4l.2-.1 1.7-.4.2-.1h.3l.3-.1.7-.3.5-.1.6-.2s.2 0 .2-.2h.1l.2-.1.6-.6V82c.2-.3.3-.6.3-1.2V77l.1-4.2v-.4l-.1-.5v-.1l-.2-.2-.4-.2-.3 2.2c0 .7 0 1.4-.4 2.1-.7 1-1.7 2.4-3.7 2.5h-1c-.8-.2-1.8-.8-2.5-1.4Z" fill="#272B56"/><path opacity=".3" d="M199.4 61.3s-6.8-5-13.4 0c-6.6 5-8 12.2-8 12.2S177 63.2 185 58c8-5.2 14.3 3.3 14.3 3.3ZM175 80.2c.3.6.5 1.1.5 1.7.1 1.9-.3 3.2-2.2 3.9-2 .9-29.3 8.6-30.2 8.4-1-.2-1-1-.4-1.6.6-.6 30.7-12.8 31.5-12.9l.8.5ZM128.9 74.8s-6.7-5.2-16.5-1.2c-10 4-13.5 15-13.5 15h-1s.6-9.1 6.4-15c5.6-6 16-9.1 24.6 1.2Z" fill="#292A56"/><path d="M74.5 115.2c-10.7 0-20.9-1.4-28.7-2.6l-1.3-.2a167 167 0 0 1-34.3-8.7c-4.2-1.4-4.7-1.9-5.4-2.5l-1-.8c-1.9-1.2-2.1-4.3-2.4-6v-2.3l.2-1.2.6 1c1.8 3.6 6.9 5.5 11 7l2.8 1c1.2.6 3.3 1.2 5.9 2 6.2 1.8 15.3 3.9 19.4 4.5a167.3 167.3 0 0 0 18.8 1.8h1.8c3.2 0 4.8 0 5.3.3l.2.2c2.2 1.5 7.1 2 14.7 1.8 5.1-.2 9.4-.7 12.9-1.5 2-.5 3.4-1.1 4.2-1.4l.7-.3c1-.4 1.3-2.2 2.1-5.8l.8-3.6c.4-1.9 1-3.5 1.9-4.7l1-1.6-.4 1.8a35 35 0 0 0-.6 5.2c0 3.2-.2 7.5-.4 11.4v.2h-.2a74.3 74.3 0 0 1-12.2 3.3 73.5 73.5 0 0 1-17.4 1.7ZM2.1 93.3v1.1c.2 1.5.5 4.4 2 5.5.5.3.9.6 1 .9a50.5 50.5 0 0 0 7.7 3.2 156.2 156.2 0 0 0 31.7 7.8l1.4.2c11.8 1.7 29.7 4.3 45.8 1l3.8-.7c3.1-.8 5.9-1.5 8.1-2.4l.3-11c0-1 0-2 .2-3l-.7 2.3-.8 3.6c-.9 4-1.3 5.8-2.7 6.3l-.6.2a63.2 63.2 0 0 1-17.4 3c-11.5.5-14.2-1.3-15.1-2h-.2c-.4-.2-2.5-.2-4.9-.2H60a135 135 0 0 1-18.9-1.8 218 218 0 0 1-25.5-6.5l-2.8-1.1c-3.6-1.5-8.3-3.2-10.6-6.4Z" fill="#272B56"/><path d="m66.1 100.2-2.3-.1c-3.3-.4-6.9-2-12-4.9-1.6-.2-26-3.4-39.9-9 0 0-1.1-.6-2.8-.4a19 19 0 0 1-7.7-.7h-.2v-.2c-.1-.8 0-1.3.1-1.7V83c.1-.2 0-.7-.3-1.1L.7 81c-.4-1-1.5-5.7.4-9C2.7 69 4 68 4 67.7c1-1.5 2.8-4.3 3.7-5.4V62h.3l.1.1 1.7-2.3a66.5 66.5 0 0 1 3.1-3 2 2 0 0 1 1.4-.4v-.1h.2l.4-.4.2-.2 1.7-1.3.3-.2.1-.1.5-.4c.2 0 .3-.2.5-.3l.7-.4 1.2-.7 1.1-.6.9-.5 2-1.1 1.6-.9 2.6-1.3 1.1-.6.9-.4 3.8-2h.2l.4-.3.3-.1 2.7-1.4 2.6-1.3 10.2-10.3c4.4-4.4 18.5-15.4 23-18.7a60 60 0 0 1 22.7-8.5l4.6-.9c8.7-1.6 25.6-4 41-3.2a98.9 98.9 0 0 1 34.5 7.6l5.7 2.8-.4.7a33.5 33.5 0 0 0-15.3-2.4 53.9 53.9 0 0 0-36 12.9c-8.9 8-16 24-19.5 31.5l-1.8 4-.1.1-.1.1c-.2 0-12.6 5.5-21.1 14.4-8.8 9.1-9.4 11-10.5 16.8-1.2 6.9-4 10.5-8.6 11.2-1 .3-1.8.3-2.6.3ZM9.6 85.1c1.6 0 2.6.5 2.6.5 14 5.6 39.4 8.8 39.6 8.9h.1c5.2 3 8.8 4.5 12 4.9 1.5.2 3 .2 4.6 0 4.3-.7 6.9-4 8-10.6 1.1-6.3 2-8.2 10.6-17.1 8.2-8.6 20-14 21.3-14.5l1.8-3.9c3.4-7.7 10.5-23.7 19.5-31.8a54.8 54.8 0 0 1 36.6-13c3.8-.2 7.7 0 10.8.8l-1.1-.5-3.1-1.3-3.6-1.4-2.4-.7c-7-2.3-15-3.6-25.4-4.2-15.2-.8-32 1.6-40.7 3.2l-4.6.9c-10 2-17.7 5-22.5 8.5a341 341 0 0 0-22.9 18.6L40.7 42.6h-.1L38 44l-2.7 1.4-.2.1-.5.2-.2.2-3.8 2c-.3 0-.6.2-.9.4l-1 .5-2.7 1.4-1.5.9-2.1 1-.9.5-1 .6-1.2.7-.7.4-.4.3-.5.4h-.1l-.4.2-1.7 1.3-.2.3-.3.2-.4.5h-.1s-.6-.1-1 .3l-.4.4-2.6 2.4-1.6 2-.1 1-.2.1h-.2c-.3 0-.3-.2-.4-.4-1 1.3-2.5 3.7-3.2 5h-.1s-1.2 1-3 4c-1.8 3.2-.8 7.8-.5 8.6l.4.7c.3.6.5 1.1.4 1.6v.3l-.2 1.2.9.3c2.3.5 4.7.4 6.3.2h.6Z" fill="#272B56"/><path d="M82.2 80a26.7 26.7 0 0 1-17 5c-5.2-.5-5.2-.5-5.6-1.6-.3-1-.5-2 1-3.6 1.3-1.6 5.8-7.2 10.8-9 5-2 14.7-1.6 18.3 1 2.8 2.1-2.2 4.3-7.5 8.2Z" fill="#fff"/><path opacity=".3" d="M199.5 48s-16.3-.8-39.6 5.6C136.6 60 128.4 68 128.4 68s8.4-3.9 14.5-4.2c0 0 18.2-11.6 56.6-15.9Z" fill="#292A56"/><path d="m165.2 15.2 4.4 53.8c0 .4-.2.6-.6.6-.3 0-.5-.2-.6-.5l-3.9-53.9h.7ZM169.6 15.7c-.9 0-1.7.7-1.5 1.5l.5 6.2 1.8 19.3c.1.9.9 1.4 1.7 1.2l22.6-5a2.4 2.4 0 0 0 1.6-3.2 35.7 35.7 0 0 0-8.3-12 36 36 0 0 0-18.4-8ZM151 61.3h.4l7.2-2c.5-.1.8-.6.7-1.1a1 1 0 0 0-1.2-.7l-7.2 2a1 1 0 0 0-.7 1.1c0 .4.5.7.9.7ZM191.2 49.8h.2l4.1-.7c.5 0 .8-.5.7-1 0-.4-.5-.7-1-.6l-4.1.7c-.4.1-.7.5-.7 1 .1.4.4.6.8.6Z" fill="#272B56"/><path d="M190.9 93c2.4 0 4.4-4 4.4-8.7 0-4.8-2-8.7-4.4-8.7-2.5 0-4.5 4-4.5 8.7 0 4.7 2 8.6 4.5 8.6Z" fill="#fff"/><path d="M46.5 39.6c-1.2 1.3-1 3.3.3 4.3 2.5 1.8 6.5 3.7 13.3 5.3 15.5 3.5 33.2 2.6 42.6 1.8.8 0 1.6-.5 2-1.1a208.7 208.7 0 0 0 17.5-28.4c.8-1.5.2-3.3-1.3-4-5.9-2.6-18.4-6.2-40.3-4.8a67.8 67.8 0 0 0-9 5.3c-2.7 2-5.8 4.4-9.5 7.5a182.5 182.5 0 0 0-15.6 14.1Z" fill="#292A56"/><path d="M59.6 83.4c.4 1 .4 1 5.6 1.5 6.7.6 13.6-2.2 17-4.9l.5-.3c-1.8.5-3.6 1-5.4 1-4.2.1-7.1-2.2-7.2-4.8a7 7 0 0 1 2-5.4l-.7.2c-5 1.9-9.5 7.4-10.9 9-1.4 1.8-1.2 2.7-.9 3.7Z" fill="#E6E3E1"/><path d="M4.3 68.4c.4.8.9 1.6 1.5 2.2.9.9 2.2 1 4-1 1-.8 1.9-3 2.7-5.4 1-2.8 1.8-5.7 2-6.5V57s-.7 0-1.2.4l-3 2.9-2 1.8-2.7 3a7 7 0 0 0-1.3 3.4Z" fill="#fff"/><path d="M4.3 68.5c.5.9.9 1.5 1.5 2.1.9.9 2.2 1 4-1 1-.8 1.9-3 2.7-5.4-.6.8-1.3 1.4-2 1.4-2-.1-2-1.9-3-.7-1.2 1.2-1.3 3.5-2.4 2.5-.3-.3-.8 1-.8 1.1Z" fill="#E6E3E1"/><path d="M44.7 84c5 0 8.4-.5 8.5-.6.1 0 .2-.1.1-.3l-.2-.3c-.2 0-24.6 4-41.6-9.6l-.3.2.1.4A54.7 54.7 0 0 0 44.7 84ZM163.6 44.1c0 1-.6 1.8-1.4 2-4.7 1-15 2.8-21.8 5h-.1l.1-1.8c0-.3 0-.7-.2-1-.3-1-.8-2-1.7-2.6a8.1 8.1 0 0 0-12.6 3.6s-.5-.3-.4-2.2l.3-1.7 1.1-3.2a56 56 0 0 1 10-15.5 38 38 0 0 1 22-10c1.3-.1 2.5.7 2.6 2 .2 1 .2 2 .3 3.2v1l1.8 21.2ZM204.2 85.5h-2.9V83.8c0-9.2-5.7-16.8-9.4-16.8-1.2 0-3 0-5 .2h-1l.7-.7c2-1.9 4.3-2.7 6.6-2.4 2.4.2 4.7 1.6 6.4 4 1.6 2.4 2.3 4.6 3 7v.3c.7 2.2 1.1 4.6 1.3 7.6l.3 2.5Zm-2.1-.7h1.4l-.2-1.7c-.2-3-.6-5.3-1.2-7.5v-.2c-.8-2.3-1.4-4.6-3-6.8a8.3 8.3 0 0 0-5.9-3.7 7 7 0 0 0-5.1 1.5h3.8c4.5 0 10.3 8.2 10.3 17.4l-.1 1ZM67 85.4l-1.9-.1c-5.3-.4-5.5-.4-5.9-1.7-.3-1.2-.6-2.2 1-4v-.1c1.5-1.8 6-7.2 11-9.1 5-1.9 15-1.7 18.7 1.1.6.5.9 1 .9 1.6 0 1.3-2 2.7-4.8 4.6a68 68 0 0 0-3.6 2.5 26.7 26.7 0 0 1-15.5 5.2ZM79.3 70c-3 0-6 .3-8 1.1-4.7 1.8-9 7-10.5 8.9l-.1.1c-1.4 1.6-1 2.4-.8 3.2.3.9.3.9 5.3 1.3 6.4.5 13.2-2.1 16.8-4.9l3.6-2.5c2.4-1.7 4.5-3.1 4.5-4.1 0-.3-.3-.7-.7-1-2-1.4-6-2.1-10-2.1ZM7.3 71.5a2 2 0 0 1-1.6-.7A7.9 7.9 0 0 1 4 68.5c-.2-.4.4-2.4 1.5-3.8 1-1.4 2.6-2.9 2.7-3L10 60l2.6-2.5.4-.4c.5-.4 1-.5 1.3-.5l.5-.8.1 1v1c-.2.7-1 3.6-2 6.5v.1c-1 3-2 4.7-2.7 5.5-1 1.2-2 1.7-3 1.7Zm-2.7-3.3c.4.8 1 1.5 1.5 2.1.4.4.7.5 1.2.5.7 0 1.5-.5 2.3-1.4.6-.5 1.3-1.8 2.6-5.3V64a57 57 0 0 0 1.8-6.4l.1-.4-.6.3-.5.4-2.6 2.5-1.8 2S7 63.7 5.9 65.1a6.6 6.6 0 0 0-1.3 3Z" fill="#272B56"/><path d="m133.4 54.2-1.5-.1c-3-.5-4-1.2-4.6-2l-.3-.3c-.2.2-.4.4-.7.4h-1.8v-2.9l1.1-.3c1-2.6 3.1-4.4 5.8-5.2 2.6-.7 5.3-.1 7.3 1.6.9.7 1.5 1.6 1.8 2.7v.1c0 .8-.2 3-1.7 4.3l-1 .6c-1.2.7-2.8 1.1-4.4 1.1Zm-6.2-3.4.1.2.6.8c.5.5 1.1 1.3 4.1 1.7 2 .3 4 0 5.6-.9l.8-.6c1.2-1 1.4-3 1.4-3.6-.3-1-.8-1.7-1.6-2.3a7.4 7.4 0 0 0-6.7-1.4 8 8 0 0 0-5.3 4.8v.2l-1 .3v1.6h1l.3-.3c0-.2.1-.4.4-.4h.3Z" fill="#272B56"/><path d="m164.9 86.3 10.1-2.5c.3-.1.6-.4.6-.7v-3.6c0-.5-.4-.8-.8-.8l-10.2 2.6c-.3 0-.6.3-.6.7v3.6c0 .5.5.8.9.7ZM176 58.3l11.3.9c.5 0 .7.8.2 1l-2.6 1.3-.2.1-11.8-1c-.5 0-.7-.7-.2-1l2.1-1c.4-.2.8-.3 1.3-.3ZM98.6 60.7l-7.8 5c-.1.2-.4.2-.5.2l-4.6-.6c-.4 0-.5-.5-.2-.7l7.9-5.1c.1-.1.3-.2.5-.1l4.6.6c.4 0 .5.5.1.7Z" fill="#EE3530"/></svg>