<svg width="270" height="178" viewBox="0 0 270 178" fill="none" xmlns="http://www.w3.org/2000/svg"><g clip-path="url(#a)"><path d="m174.4 118.5-4.5-1.8-6-8.7c.3-.8 1-4-.3-6.2-1.4-2.4-2.3-3-2.3-3-.1-.4-.5-.8-.8-1.3h.2l.4.5c2 .2 3.9.6 5.4 1.4a12.9 12.9 0 0 1 5.8 5.3l.9 1.8a24.6 24.6 0 0 1 1.2 12ZM244.3 113.8l-4.8-.2s3.5-4.2-4.2-8.6c-7.6-4.5-8.7-4.4-8.7-4.4s-2.4.6-3.4.4a12.5 12.5 0 0 1 10.8-5c6.6.2 9.3 6.5 9.8 9l.2.8c.4 2.5.5 5.7.3 8Z" stroke="#272B56" stroke-miterlimit="10"/><path d="M161.5 127.3c-2 .4-9.3 0-12-.3l7.5-2.5c4.2-1.4 3.3-1.4 4.7-2.4 1.5-1 1.5-3.7 1.7-4.6v-1.2l-.4-2.6c0-.8 0-.8.4-1.9l.3-.8-.2-1.3c0-.4.4-1 .6-1.5.3-.7 1-4-.3-6.4-1.4-2.4-2.3-2.6-2.3-2.6v-.5c3 1.2 7 3.7 9.2 8.8 3 6.8.2 17.7-9.2 19.8Z" fill="#2C2C56"/><path d="M159.6 119.8c3.2 0 5.9-3 5.9-6.8s-2.7-6.8-5.9-6.8c-3.3 0-5.9 3-5.9 6.8 0 3.7 2.6 6.8 5.9 6.8Z" fill="#fff"/><path d="M240 118.8a11 11 0 0 1-10.3 4.8c-4.2-.4-6.5-1-7.7-1.6-1.2-.6-3.7-2.5-4.7-5l-.5-1.6 1.6-.5s1.6-.6 1.6-2.4c0-1 0-2.3.2-3.8.3-1.9.7-4 1.7-5.8.7-1.4 1.7-2.9 3.2-4 1.8-.2 5.8-.4 7-.1 1.4.3 5.5.6 8.2 5.6a14 14 0 0 1-.2 14.4Z" fill="#2C2C56"/><path d="M231.1 117c3.1 0 5.7-2.8 5.7-6.2 0-3.5-2.6-6.3-5.7-6.3-3 0-5.6 2.8-5.6 6.3s2.5 6.3 5.6 6.3Z" fill="#fff"/><path d="M253.8 106c-.2 1.8-.8 5.2-.8 6 0 .3-2 1-4 1.5-2 .3-4 .3-4.6.3h-.1c.2-2.3.1-5.5-.3-8l-.2-.8c-.5-2.5-3.2-8.8-9.8-9a12.5 12.5 0 0 0-12 7 18 18 0 0 0-1.7 5.7c-.2 1.6-.2 3-.2 3.8-.1 1.8-1.7 2.5-1.7 2.5l-1.5.4-1.1.2c-2.7.5-15.4 1.3-26.2 2l-15.2 1c0-.3 1-6.6-1.2-12.1l-.9-1.8-1.4-2a12.9 12.9 0 0 0-4.4-3.3c-1.5-.8-3.3-1.2-5.4-1.4l-.4-.5c-.7-.9-1.7-1.7-2.2-2.2 0 0-.3 0-.4-.2l-.3-.2c-.3-.4-1.3-.7-1.9-1.2-1-1-.9-2.5-1.1-2.6-.4-.4-.9-.3-.9-.3h-.1l-.1-.1-.2-.2-.2-.1a9 9 0 0 0-1.3-1h-.2l-.2-.2-.3-.3-.5-.2-.4-.3-.9-.5-.7-.4-1-.5-.4-.2-.4-.3-.3-.1-1.2-.6-1-.5-.6-.3-1.2-.6-.6-.3-2.8-1.5-.5-.2-.2-.1-2-1-.3-.2-.9-.4h-.2l-.5-.3-7.6-7.5-3.9-3.4 3.2-2 .9-.6 3.8-2.7 1-.6.9-.7 1.4-1c.2-.2.3-.4.6-.5l4.4-3.3 1.1-1 2.3-1.5 2-1.3.5-.3c.8-.4 1.5-.9 2.3-1.2l.7-.4.8-.4 1-.4.8-.3.9-.4.6-.3.7-.2 2.7-.9 1.5-.4.5-.1 1.1-.4 4.1-.8c.7-.1 1.4-.3 2.2-.3l1.2-.2 2.3-.3 1.3-.1 1.2-.1h.6l1.2-.1.7-.1h.5c4.5-.3 9-.3 13.4-.3 10.6.2 24.8 0 38.7 7l5 2.9a49 49 0 0 1 21.2 26v.1c.7 1.8.9 6 .7 10.3a95 95 0 0 1-.6 11.4c.4 0 1.4.4 1.2 2Z" stroke="#272B56" stroke-miterlimit="10"/><path d="m162.7 99.9-.2-.1v-.4h.3v.4Z" fill="#292A56"/><path d="M231.4 56c-20-9-38.3-4.5-45.3-3.3-7.3 1.3-14.2 7.8-19.4 13.7C161.5 72.4 154 83 154 83c-2.8.9-5.3 2.2-7 3.3l-1.3-.6-.9-.5-.6-.3-1.3-.6-.6-.3-2.8-1.4-.5-.3-.2-.1-2-1-.3-.2-.8-.4h-.2l-.6-.3-7.6-7.5-3.8-3.4 3-2 1-.6 3.8-2.6 1-.7 1-.7 1.3-1 .6-.5 4.4-3.3 1.1-.9 2.3-1.6 2-1.3.6-.3 2.2-1.2.8-.4.8-.4.8-.3 1-.4.8-.4.6-.2.7-.3 2.8-.9c.5 0 1-.3 1.5-.4l.4-.1 1.1-.3 4.2-1 2-.2 1.3-.2 2.3-.3h1.3l1.3-.2h.5l1.2-.1.7-.1h.6c4.4-.2 8.9-.2 13.3-.2 10.6 0 24.8 0 38.7 7l5 2.8Z" stroke="#272B56" stroke-miterlimit="10"/><path d="m168.2 61-3.3 4.1-9.5 11c-1.4 1.6-2.8 4.2-6.6 4-2.1-.3-10-1.6-17.7-3.6l-3.9-3.8-3.8-3.4c3.2-2 6.6-4.2 9.7-6.6l9.8-7.2c1.7-1.2 3.6-2.2 5.6-3.2h1.6c8 0 15.3 1.3 17.4 3 2.3 1.8 2.4 3.7.7 5.8ZM197.1 59.8v5.6l-.5 16.2-17.2-.5s.2-3.7-1.9-4.9l-.7-.3c-2.8-.7-5.6-.5-6.6 2.3H169s1.1-5.7 8.2-12.5h.1c6.9-6.6 19.4-6 20-6ZM169 69.8l-.3-.2c.1 0 5.9-8.5 15.9-12.6v.3c-9.9 4-15.5 12.4-15.6 12.5Z" fill="#272B56"/><path opacity=".3" d="M203.8 112c-2.4 0-3 1.6-3 1.6V57c0-.7-.6-1.3-1.4-1.3-2 0-6 0-8.8.5 0 0 5.6-2.3 10.5-2.1 4.9.3 5 1.2 5 5V109s.2 2.9-2.3 2.9Z" fill="#292A56"/><path d="m204.8 109.7-2.3.3V57.1l-2.3-1s2.8-.7 3.8.4c1.1 1.1.8 1.6.8 15.8v37.4Z" fill="#272B56"/><path opacity=".3" d="M171 100.4a38.8 38.8 0 0 0-6.6-6l-1.7-1.2.2-2v-2.5l8.5 2.7 3.3 4c1.3 1.5-.4 9-3.8 5Z" fill="#292A56"/><path opacity=".3" d="M164.4 94.4a18 18 0 0 0-6.4 0l-1-1.3-2.2-2c-.3-.4-.8-.3-.8-.3h-.2v-.1l-.3-.2-.2-.1c4-.2 7 .2 9.6 1l-.2 2c0-.2.7.2 1.7 1ZM160.2 89.5c8.5-1.4 23.2-3.2 40.6-1.9v2.5s-22.4-2-38.8-.5c-3.5.3-6.8.8-1.8-.1ZM244.5 86s-11.8-2.5-38.4-.9v-1.8h1.3s19.1-1 27.4.5c8.3 1.3 9.7 2.3 9.7 2.3Z" fill="#292A56"/><path opacity=".3" d="M181 90.3c-2.3 1.3-2.7.5-4.5-.4a9.8 9.8 0 0 1-3.8-3.9c0-.5-.6-1.5-1.8-2.5-.7-.5-1-1-1.2-1.5h1.1c.6 1 2 2.3 4.6 2h.2c1.8 1 3.3-.4 3.3-.4 2.3 1 2 6.7 2 6.7Z" fill="#292A56"/><path d="m190.1 91.1 5 .3c.6 0 1.2-.5 1.2-1.1v-.1c0-.6-.5-1.1-1.2-1.1l-4.8-.2c-.7 0-1.4.5-1.4 1.1 0 .6.6 1.1 1.2 1.1Z" fill="#272B55"/><path d="m168.2 61-3.3 4.1c-.8-2.2-2.2-4.5-4.7-6.7-4.4-3.5-11.3-3.6-17.3-2.9 1.7-1.2 3.6-2.2 5.6-3.2h1.6c8 0 15.3 1.3 17.4 3 2.3 1.8 2.4 3.7.7 5.8ZM197.1 59.8v5.6c-3.2-4.2-13.8-1.7-20 .3 7-6.6 19.5-6 20-6Z" fill="#39395E"/><path d="M207.5 99.8c-.1 0-.3-.1-.3-.3V57.8l.3-.2c.1 0 .2 0 .2.2v41.7c0 .2-.1.3-.2.3Z" fill="#2C2C56"/><path d="M253.4 92.4c-1.6.8-3-1.3-3.3-2.8-.3-1.6-1.5-1.3-1.7-2.3-.2-1 .5-2.4 2.4-4 .7-.7 1.4-1 1.9-1 .6 1.6.8 5.8.7 10.1Z" stroke="#272B56" stroke-miterlimit="10"/><path d="m237.6 84.5-5 .3c-.5 0-.9-.3-.9-.8s.3-1 .8-1l5-.2c.5 0 .9.3.9.8s-.4 1-.8 1Z" fill="#272B55"/><path opacity=".3" d="M200.8 110.3v3.3l-20.6-.3a1 1 0 0 1-.6-.3c.5-.7.8-1.4 2.9-1.7 5-1 18.3-1 18.3-1ZM218.1 100.1l-.2-.3v-.3l.2-.4.3-.9 1-1.6c.6-1.1 1.3-2.2 2.3-3 1.9-1.9 4.3-3.1 6.8-3.7a14 14 0 0 1 12.6 3.1l.7.6c.2.1.2.3.3.4.2.1.2.2.2.5 0 .1 0 .2-.2.2-.5 0-.6-.2-.9-.3l-.7-.5-1.6-.7c-1-.3-2.1-.6-3.3-.7H232l-.4.1-.8.1-1.5.4c-1.1.3-2.1.5-3.1 1-1 .3-2 .8-2.9 1.5a11.6 11.6 0 0 0-3.7 3.3l-.5.7-.2.4c-.1.1-.2.2-.5.2H218ZM206.1 105.6l7-.8s2.2.7 1.2 4.2l-8.2.6v-4Z" fill="#292A56"/><path d="M253.8 106c-.2 1.9-.8 5.2-.8 6 0 .4-2 1.1-4 1.5-2.3.4-4.7.3-4.7.3.2-2.3.1-5.5-.3-8 1 1.4 2.6 3 4.8 2.7 3.7-.4 3.6-3 4-4.7.2.1 1.2.6 1 2.2Z" stroke="#272B56" stroke-miterlimit="10"/><path d="m163 81.8-.1 11.3-.2-.2c.6 0 1 .2 1.7.3.1.1.2.3.1.5 0 .2-.2.2-.4.1l-1.4-.6h-.2V93l.5-11.2Z" fill="#2C2C56"/><path d="M212 58.8c0-1.2 1-2.2 2.2-2 3.5.2 10.2 1.3 15.6 6 5.9 5 8 8.7 8.7 11.7a2 2 0 0 1-2 2.6l-21.9.7c-1.1 0-2-.9-2.1-2l-.5-17Z" fill="#272B55"/><path d="m152 39-1.5 1.5-1 .6a24 24 0 0 0-5.9 4.1c-.7.8-1 1.7-1 2.6.2 1.8.6 2.4 1.3 2.8l1.2.5.7.5c1.4 1.1 3 3.4 2.2 5.4-1 1.8-3 2.2-5.2 1.7-.4 0-.7-.2-1.1-.3l-.8-.4c-1.1-.6-2-1.4-2.7-2.2-1-1-2-2-4-2.2h-.7c-1.3 0-2.7.3-3.8.8-1.5.7-2.5 1.8-2.5 3.2 0 2.7 4.2 3 7 2.6 1.6-.3 4.9-.3 7.7.5 1.8.6 3.5 1.5 4.4 3 2.2 3.7 1.8 7.9-1.6 9.1-3.4 1.3-7-.6-8 2.5-1.1 3 4.8 3.3 4.7 8.3l-2-1c-.2 0-.3-.2-.5-.3h-.2l-2-1c0-.2-.2-.2-.3-.3l-.8-.4h-.2a5 5 0 0 0-.6-.3l-7.6-7.5c-.5-.5-1.3-1.3-2.3-2l-1.5-1.4-9.2-7.4a12 12 0 0 1 1.6-7l.3-.5c3.1-4.8 8.4-5 12.3-5.2 4 0 4.3-.8 5.8-1.8h.1c1.4-1 2.1-1 2.8-2.2.7-1 .7-1.3 1.4-2.6.3-.6.4-1 .4-1.5l-.2-1.7c0-.8-1.4-.8-1.5-2.2 0-1.4-1.5-3-4.3-3.2-2.7-.4-2.8-.4-4.3-1.9-1.4-1.5 0-4.7 1.5-6 1-.8 2.5-1.7 5.5-1.8a25.5 25.5 0 0 1 6.2.8 17 17 0 0 1 10.2 7.4l.6 1.3c.5 1.5.6 3.3-.6 5Z" fill="#BCBABA"/><path d="M135.8 2.8c-1 .7-.2 1.3-.7 1.1-.5-.2 0-.5-.7-1.4-.9-1-2.2-2-1.2-2.4.7-.2 1.4.1 2 .7.7.6 1 1.6.6 2ZM133.3 9.7c-1 1-2 .6-2.9-1a3 3 0 0 1-.3-.5c-.4-1.5.3-3.4 1-3.8.6-.3 1.4 0 2 .7.7.5 1.2 1.2 1.3 1.6.2.8 0 2-1 3Z" fill="#686969"/><path d="m150 15.7-.2.6c-.3.8-1 1.9-1.6 2-.7.3-1-.4-.7-1 .1-.4.5-1 .6-1.6l.1-.7c0-.9-.2-2 .3-2 1.3-.3 1.6 2 1.5 2.7Z" fill="#7A7B7A"/><path d="M160.2 27.4v.2c-.2.5-.7 1-1.7.8-1 0-1-1.3-.8-1.6.3-.2.5-.8.5-1.4v-.3c0-.5-.3-1.1-.1-1.3.2-.3 1 0 1 .4-.1.4.6.4.9 1 .2.7.3 1.7.2 2.2Z" fill="#919090"/><path d="M121.8 25.6c-.3 0-.5.2-.8.6-.3.4-.5.4-.9.4-.2 0-.9-.5-1.3-1-.3-.3-.4-.6-.4-.8 0-.5-.1-1.2.5-2.2.9-1.5 1.8-1.1 2.3-1 .4.1.6.4.6.7l.3 2v.5c0 .6 0 .9-.3.8Z" fill="#686969"/><path d="M123.5 38.7a4 4 0 0 1-1.7 3.2c-1 .8-2.3 1-3.9.8-1.3-.2-2.6-1-3.7-2l-.8-.7a11 11 0 0 1-1.4-2.8c0-.2 0-.3-.2-.4a5.8 5.8 0 0 1 1-4.5c1.2-1.6 2-1.9 2.9-1.7l.6.2c.5.3 1 .6 1 1 0 .6-.4 1.2-1 1.8-.5.3 0 0 0 .5s-.5.3-.3.7c.2.4 1 0 1 0a6.1 6.1 0 0 1 2.8-1.1h.5c.9.2 2.3 1 2.8 2 0 .2.6 1.7.4 3Z" fill="#ACACAC"/><path d="m158.7 47.5-.2.8c0 .4 0 .8-.3 1.1-.4.6-1.2 1-1.9.4-.6-.7-1.1-.8-1-2v-.3c0-1 .7-2 1.5-2 1.6-.4 2.1 1.7 2 2Z" fill="#BCBABA"/><path d="m152 39-1.5 1.5-1 .6a24 24 0 0 0-5.9 4.1c-.7.8-1 1.7-1 2.6.2 1.8.6 2.4 1.3 2.8l1.2.5.7.5c-.8 2.6-4.3 3.7-7.6 4.2-1-1-2-2-4-2.2h-.7c-1.3 0-2.7.2-3.8.7l-.1-.5c-.1-1-1.7-2.7-5-2-3.4.5-4.9 3.3-4.9 3.3s2-.7 2.5.1c.5.9 0 2.5-1.3 3.3-1.4.9-4 .8-3.9-2.2.1-1.4-.3-2-.8-2.2 3-4.8 8.4-5 12.3-5.1 4-.2 4.3-1 5.7-1.8l.2-.1c1.4-.9 2.1-1 2.8-2.1l1.4-2.6.3-1.5c5-3.2 12.7-9.3 13.2-8.7l.6 1.4c.4 1.8.5 3.6-.7 5.3Z" fill="#ACACAC"/><path d="m152 39-1.5 1.5-1 .6a24 24 0 0 0-5.9 4.1c-.2-1-.7-2-1.5-2-1.7-.2-2.2-.1-3.5 1 0 0 1.8-4 5-6 5.6-3.7 7.3-2.2 7.6-1.2l.8 2Z" fill="#B4B2B3"/><path d="M144.4 35c-.4 1.2-3.7 7.7-4.8 8.4-1.2.8-1.7 2.1-2.3 2.8-.7.6-.7 0-1.7 1-.6.5-1 .5-1.2 0 1.4-.8 2.1-1 2.8-2l1.4-2.7c.7-1.3.2-2.2.2-3-.1-1-1.5-.9-1.5-2.3-.1-1.5-1.5-3-4.3-3.3-2.8-.3-2.9-.3-4.3-1.8-1.5-1.5 0-4.7 1.4-6 1.5-1.2 4-2.6 10.7-1.3.4 0 .7.1 1 .3.7 1.6 1.3 3.5 2 4.3 1.6 1.5-.4 2 .3 3.5.7 1.4.7.8.3 2Z" fill="#919090"/><path d="M150.5 40.4v-.2c.8-4-5.2-2.3-6.6-1.6-1.5.8-2.4 1.9-1.8.3.7-1.6.8-1.9.8-2.8 0-1 .7-.2 1-.8.3-.6-.5-4-2.8-4.4-1.7-.3-2.2.1-2.7.8-.3-.4-.8-.7-1.6-1 0 0-2.8-3.6-6.7-1.8.1 0 4.5-3.3 8.8.8 0 0 1.8-.7 3.5 1 0 0 .2-3.8-6-5.2h-.2c.9-.1 2 0 3 .4-.1 0-1.4-1.2-3.6-1.8a21.7 21.7 0 0 1 6.2.8c6 1.7 10.2 6.2 10.8 8.7.6 2.5.6 4.8-2.1 6.8Z" fill="#878787"/><path d="M148 57c-1.1 2.3-4.4 2.3-7 1-1.2-.6-2-1.4-2.7-2.2-1-1-2.1-2-4-2.2h-.7c-.3-.3-.5-.7-.6-1.1-.5-1.8 1.4-2.9 2.3-2.5l1.4.9s.3-1.4 1.6-.9c1.3.5 1.8 1.5 1.1 1.7-.6.3-1-.3-1-.3s.3 1.2 2.1 1.3c1.8 0 2-1.4 1.8-2-.2-.6 0-1.1.5-.8.4.2 1 .7 1.3.7l1.1.5.7.5c1.4 1 3 3.4 2.1 5.4Z" fill="#BCBABA"/><path d="M140.7 55.4s1.9-.8 3 .4c1 1 .4 1.5-.4 1.8-.8.3-1.7 0-2.2-.5-.5-.5-.5-1-.7-1.2 0-.2 0-.6.3-.5Z" fill="#B4B2B2"/><path d="M141.7 53.7c-.4.1-.3.6.2.6 0 0-.5.5 0 .5s1.2-.1 2 .4c.6.5.7.6.6 0 0-.4-1.6-1.8-2.8-1.5Z" fill="#A6A5A5"/><path d="M142.9 58.7c-.4 0-.8-.2-1-.3l1 .3ZM144.8 72.8c-3.5 1.3-7-.6-8.1 2.4-1 3 4.9 3.3 4.7 8.3l-2-1-.5-.2-.1-.2-2-1-.4-.1-.8-.4h-.2c-.3-.3-.5-.3-.5-.3l-7.6-7.5-2.4-2.1a5 5 0 0 1 1.9-.8c3.6-.5 5.6 1.6 9 .8 3.6-.8 3.6-3.6 2.3-5-1.3-1.3-1.8-3.9 0-3.6 1.7.3 4.7 1.3 4.3 0l-.4-1.4c1.8.6 3.5 1.5 4.4 3 2.2 3.6 1.8 7.8-1.6 9Z" fill="#A8A6A9"/><path d="M129 63.6c-1.4-1-4-2.3-6.8-1 0 0 1.2-2.4 4.2-1.7 1.5.4 2.3 1.6 2.6 2.7Z" fill="#A3A2A3"/><path d="M129.9 65.1s.3-1 1.7-.5c1.5.4 2.7 1.5 3.4 1.1 0 0-.3.8-1.3.4s-1.6-1-2.5-.6c0 0-.3-.6-1.3-.4Z" fill="#99989A"/><path d="M138.8 70s1-.7 2.3-.3c1.2.3 1.3 1.2 1.3 1.2s-1.2-1-2-.8c-.6.3-1.6-.1-1.6-.1Z" fill="#9D9B9D"/><path d="M141.2 66.6s.7-1.4 1.8-.1c0 0 0-1-.7-1-.7-.2-1.1 1.1-1.1 1.1Z" fill="#9F9FA1"/><path d="M145.7 40.5s1-.2 1.3.9c0 0 1-.5 1.6-.3 0 0-.6-.5.5-.7 0 0-.8-.7-2 .1 0 0-.6-.9-1.4 0ZM144.8 41.5c-1-.1-2.2 0-3.1.7 0 0 .3-1.5 1.9-1.3.6 0 1 .3 1.2.6Z" fill="#919090"/><path d="M121.7 65.7c-.8-.2-1.7-.1-2.5 0l-1-.8c0-1-.7-2-.7-2 2.3.2 1.7 2.2 1.7 2.2 1.3-.3 2 .2 2.5.6Z" fill="#A3A2A3"/><path d="M137.4 33.7s.5-1.6 2.7-1.3c2.3.4 2 3 2 3s-.6-1.8-2.3-2.3c-1.4-.4-1.4 0-2.4.6ZM138.3 37s-.4-1 .7-1.2c1.1-.1 1.5 1.2 1.5 1.2s-.7-.8-1.3-.7c-.6 0-1 .7-1 .7ZM129.4 31s0-1.7 2.7-1.3c2.5.4 2.2 3 2.2 3s-.7-2-1.7-2.3c-1-.1-1.7 0-1.9.8 0 1 .8 1 1.4.6 0 0-.1 1.4-1.3 1-1.2-.2-1.7-1.2-1.4-1.9ZM131 27s-.6-1.2 1.3-1.5c1.9-.3 3 1.6 3 1.6s-1.2-1.3-2.5-1.2c-1.2.2-1.6.3-1.9 1.1Z" fill="#878787"/><path d="M120.9 53.8s.3-2.2 4-2.7c3.8-.4 4.7 2.2 4.7 2.2s-1.7-2-4.8-1.3c-3 .7-4 1.8-4 1.8ZM122.2 62.6s.8-2.4 4.5-1.5c0 0-.5-1.5-2.8-1s-1.7 2.5-1.7 2.5Z" fill="#919090"/><path d="M160.2 27.4v.2c-.2.5-.7 1-1.7.8-1 0-1-1.3-.8-1.6.3-.2.5-.8.5-1.4.6 0 .9.4.9 1 0 1 0 1.1.8 1h.3Z" fill="#ACACAC"/><path d="M149.8 16.2c-.3.8-1 1.9-1.6 2-.7.3-1-.4-.7-1 .1-.4.5-1 .6-1.6.7-.5 1.1-.4 1.7.6ZM133.3 9.7c-1 1-2 .6-2.9-1a3 3 0 0 1-.3-.5c.5-.8 1.5-1.2 3.5-1 0 0-1-.8-.4-2.2.6.6 1.1 1.2 1.2 1.7.2.8 0 2-1 3Z" fill="#919090"/><path d="M135.8 2.8c-1 .7-.2 1.3-.7 1.1-.5-.2 0-.5-.7-1.4 0-.6 0-1.3.8-1.7.7.6 1 1.6.6 2ZM121.8 25.6c-.3 0-.5.2-.8.6-.3.4-.5.4-.9.4-.2 0-.9-.5-1.3-1 .2-.3.7-.4 1.2-.2 1.2.5 1.7-.4 2.1-1v.5c0 .5 0 .8-.3.7Z" fill="#7A7B7A"/><path d="M116.5 41.6s.6-1.6 3.2-.3l1-.5s-1.5-.7-1.2-1.8c.4-1.1 1.7-1.3 1.7-1.3s-.6.2-.6-.7c0-.8-.2-1.3-1-1-.7.1-.7 1.2-.7 1.2s-2 .6-2 1.8c0 0-1.6.1-.4 2.6Z" fill="#B4B2B2"/><path d="M123.5 38.7a4 4 0 0 1-1.7 3.2c-1 .8-1.3-.6-.8-1.2.2-.3.4-.5.5-1l.4-1.2v-1c-.1-.8-.7-1.2-1.2-1.7l-.7-.7c-.5-.7-.3-1.1.2-1.4.8.2 2.3 1 2.8 2 .2.2.7 1.7.5 3Z" fill="#919090"/><path d="M131.1 8.8s.3-1.3 1.8-1.1c0 0-1 0-1.8 1Z" fill="#7A7B7A"/><path d="M158.6 48.4c0 .4-.1.8-.4 1-.4.6-1.2 1.1-1.8.4-.6-.6-1.2-.8-1.1-1.9v-.3c.4.7 1 1.4 1.7 1.2l1.6-.4Z" fill="#ACACAC"/><path d="M115.4 32.6c-1.4.7-1.4 1-2.7 3l-.9 1.2a5.8 5.8 0 0 1 1-4.5c1.2-1.6 2-1.9 2.9-1.7l.6.2c-.1.1-.2.3-.1.4.2.7.6.7-.8 1.4Z" fill="#919090"/><path d="M112.4 35.9s0-1.2.9-2.4c1-1.1 1.9-1.8 2.7-1.6.8.3 0 .4-.8.8-.7.4-2.2 2-2.8 3.2Z" fill="#B4B2B2"/><path d="M148 127.4c-.7 1.3-2 2.5-4.6 3.1a36 36 0 0 1-12.5.4l1-.1c6.8-1 12-2.2 16.1-3.4Z" fill="#272B56"/><path d="M87 116c-3.1 6.5-16 8.2-16 8.2l-4.8.9a31.5 31.5 0 0 1 4.2-15 8.6 8.6 0 0 1 10.9-2.8c2.9 1.4 4.8 5 5.7 8.6ZM31 115c-1-.4-2.9-1.4-3.3-2.3-.6-1.2-3.3-9.8-3.6-9.5-.3.4-1 1.6-1 2 0 .5-5 6-5 6h-3.6l.1-1.5c.2-2.2.5-4 1-5.5.5-1.8 1-3.5 2.2-5.2 2.2-3 6-4 9.2-1.1.9.8 1.7 1.8 2.4 3.3 1 2.2 1.2 4.8 1.5 7 .2 2.9 0 5.4 0 6.8Z" stroke="#272B56" stroke-miterlimit="10"/><path d="M94.3 131.1c-.7 2.1-2.2 4.6-3.6 5.5a55 55 0 0 1-12.5 1.1c-4.1 0-8.7-6.7-8.7-15 0-10 5.2-14.8 8.7-15.2l3.1-.3c3.3 1.7 5.2 6.2 6 10 .3 1.4.4 2.8.5 3.9l.3 8.2a50 50 0 0 0 6.2 1.8Z" fill="#272B56"/><path d="M79 130.7c2.2 0 4-3.3 4-7.5s-1.8-7.6-4-7.6c-2.1 0-3.9 3.4-3.9 7.6 0 4.2 1.8 7.5 4 7.5Z" fill="#fff"/><path d="M35.1 117.3a8.1 8.1 0 0 1-2.4 4c-1.3 1-7.7 1-9.4 1-3.3 0-7.2-5.3-7.2-12 0-6.9 4.2-12.5 7.2-12.5l3.7.1c.9.8 1.7 1.9 2.4 3.3 1 2.3 1.2 4.8 1.5 7 .2 2.9.1 5.4 0 6.8l-.1 1.3 4.3 1Z" fill="#272B56"/><path d="M164 108.2c-.3.5-.6 1.1-.6 1.5 0 .3.2.7.1 1.3 0 .2 0 .5-.2.8-.4 1-.4 1-.4 1.9 0 .6.3 1.7.3 2.6v1.2c-.1 1-.2 3.6-1.6 4.6-1.4.9-.6 1-4.7 2.4l-7.6 2.5c-4.2 1.3-9.9 2.7-17.6 3.8-9 1.3-22.7 3.3-34.8.9a70 70 0 0 1-9-2.3l-.2-8.3c0-1.1-.2-2.4-.5-3.8l-.3-1.4c-1-3.5-2.8-7.2-5.7-8.7l-1-.4c-4.8-1.4-8.5.8-10 3.2a29 29 0 0 0-4.1 15l-31.2-7.7-4.3-1 .1-1.3c.2-1.5.2-4 0-6.8-.3-2.2-.4-4.8-1.5-7-.7-1.5-1.5-2.5-2.4-3.3-3.1-3-7-2-9.2 1-1.2 1.8-1.6 3.5-2.2 5.3-.4 1.5-.8 3.2-1 5.5v1.5s-4.6-1-5.4-1.6c-.7-.4-.8-.9-.7-1.7 0-.8-.2-5.5-.1-6.1 0-.6.4-1 1-1h1.5s-.7-3.4-.7-6.2a68.7 68.7 0 0 1 2.7-17 36.8 36.8 0 0 1 22-22A70.2 70.2 0 0 1 60 49.6c12-.6 25.9 1.5 33.4 3a45.5 45.5 0 0 1 16.7 6.2 235 235 0 0 1 16.9 13.8 1909 1909 0 0 0 8 7.7h.3l.8.4.4.2 2 1v.1l.6.3 2.8 1.4.6.3 1.3.7.6.3.9.4 1.5.8.4.3.5.2 1 .5.7.5.8.5.5.2.4.3.4.2.2.1.2.2 1.2.9.2.1.2.2h.1l.1.1s.5 0 1 .3c.1.2 0 1.7 1 2.6.6.5 1.7.8 2 1.2l.2.2c.2.2.4.2.5.2.5.8 2.6 2 2.8 3.5v.4s1 .3 2.3 2.7c1.4 2.4.6 5.8.4 6.5Z" stroke="#272B56" stroke-miterlimit="10"/><path d="M72.7 87v.8h-1.4s-1.5 2-5 2c-3.6 0-4.7-2.1-5-3.2l.1-2.1c0 .3.1 2 1.2 2.8l.6.5c1.4.6 3 .8 4.3.6 2.2-.3 2.7-.8 3.1-1.2l.6-.5c0 .2.2.4.4.4h1ZM162.7 111.2l-.7.8c-7.2 6.4-34.8 9.5-41 9.8a18 18 0 0 1-3.4 0c2.5-.4 5.2-1.5 8.9-3.6 0 0 18.7-2.4 29.3-6.4 0 0 .8-.5 2.2-.4 1 .1 3 .3 4.7-.2ZM13.3 85.8c-.3.6-1 2.8-2.1 2.8h-.6s.7-5.5 1.4-8c.6.1 1.5.4 2 1.7.9 1.8-.3 2.8-.7 3.5ZM15.6 104.3c-.5 1.5-.8 3.2-1 5.5v1.5s-4.6-1-5.4-1.6c-.8-.5-.8-1-.8-1.7v-6.1c0-.6.4-1 1-1v.1c.4 1.4 0 2.3.5 3.2.4.7 1.1 1.6 2.6 1.6h.5c1.1-.1 2-1 2.6-1.5Z" stroke="#272B56" stroke-miterlimit="10"/><path opacity=".3" d="M17.8 94s5-3.7 9.9 0c4.8 3.5 5.8 8.7 5.8 8.7s.7-7.5-5.2-11.2c-5.8-3.7-10.5 2.4-10.5 2.4ZM35.8 107.7c-.3.3-.4.7-.4 1.2-.1 1.3.2 2.3 1.6 2.8 1.6.6 21.6 6.2 22.3 6.1.7-.1.8-.7.3-1.1a598 598 0 0 0-23.2-9.4c-.2 0-.4.2-.6.4ZM69.8 103.7s4.9-3.7 12.1-.8c7.3 3 10 10.9 10 10.9h.7s-.5-6.6-4.7-11c-4.2-4.3-11.8-6.6-18.1 1Z" fill="#292A56"/><path d="M163.4 117.5c-.2 1-.2 3.6-1.7 4.6-1.4.9-.5 1-4.7 2.4-2 .7-5 1.8-9 3a120 120 0 0 1-16.2 3.4h-1c-9 1.3-22 3.1-33.8.8-4-.8-7-1.6-9-2.3l-.2-8.3c0-1.1-.2-2.4-.5-3.8.5.8 1 1.8 1.4 3.4 1 4.5 1.3 6.5 2.4 7 1 .3 4 2 13.2 2.3 9 .3 10.6-1.2 11-1.5.5-.3 2.5-.2 5.2-.2 1.7 0 5.4-.3 8.9-.7l5-.6a155.8 155.8 0 0 0 18.6-4.8c3.3-1.3 8.6-2.6 10.4-5.9v1.2Z" stroke="#272B56" stroke-miterlimit="10"/><path d="M164 108v.2c-.3.5-.6 1.1-.6 1.5 0 .3.2.7.1 1.3l-.8.2c-1.8.5-3.7.3-4.7.3a4 4 0 0 0-2.2.3c-10.6 4-29.3 6.5-29.3 6.5a25.6 25.6 0 0 1-8.9 3.5c-1.2.2-2.3.1-3.4 0-3.7-.5-5.4-3.5-6.2-8-.7-4.3-1.3-5.6-7.7-12.2S84.7 91.1 84.7 91.1c-1.4-2.3-7.5-18.6-15.8-26-8.3-7.3-17.6-9-26.7-9.3-4-.2-8.7.3-11.4 1.7l4.1-2 2.3-1c1-.2 1.8-.6 2.7-1l1.7-.5a73.2 73.2 0 0 1 18.7-3.3c10.4-.6 22.2 1 30 2.4l3.5.6a45.5 45.5 0 0 1 24.4 12.2l1 .8c1.5 1.2 3 2.3 4.3 3.5l3.9 3.4 3.8 3.7a334.4 334.4 0 0 0 4.4 4.1h.2l.8.4.3.2a29.2 29.2 0 0 1 2.2 1c.2.1.3.3.5.3l2.8 1.5.6.3 1.3.6.6.3.9.4.5.3.3.2.7.4s.3 0 .4.2c.2 0 .3.2.5.3l.9.5.7.4 1 .5.3.2.5.3.4.2.1.2h.2l1.3 1 .2.2.2.1v.1h.2s.5 0 .9.3l2.2 2 1 1.3.2.3.2.7s.2-.7.3-.6l1.8 2.7.9 1.3s.9.7 2.2 3c1 2.5.4 5.7.1 6.5Z" stroke="#272B56" stroke-miterlimit="10"/><path d="M104 107.5c2.6 2 7.7 4 12.7 3.6 3.8-.3 3.8-.3 4-1 .3-.8.4-1.4-.6-2.7a22 22 0 0 0-8-6.5c-3.6-1.4-10.9-1.2-13.5.8-2 1.3 1.7 3 5.5 5.8Z" fill="#fff"/><path opacity=".3" d="M17.7 84.3s12-.7 29.2 4A56.4 56.4 0 0 1 70 99s-6.2-2.8-10.6-3c0 0-13.4-8.5-41.7-11.6Z" fill="#292A56"/><path d="m43 60.5-3.2 39c0 .3.2.5.4.5s.4-.2.4-.4l2.8-39.1h-.3ZM39.8 60.9A1 1 0 0 1 41 62l-.4 4.5-1.3 14c0 .6-.6 1-1.3.8l-16.6-3.5c-1-.3-1.6-1.4-1.2-2.3l1.4-3c1.2-2 2.7-4.1 4.7-5.8a26.4 26.4 0 0 1 13.6-5.8ZM53.4 93.9h-.2l-5.3-1.4c-.4-.1-.6-.4-.5-.8 0-.4.5-.6.9-.5l5.3 1.4c.3 0 .5.4.5.8 0 .3-.4.5-.7.5ZM23.8 85.6l-3.1-.5c-.4 0-.6-.3-.5-.6 0-.4.3-.6.6-.5l3.1.5c.3 0 .6.3.5.6 0 .3-.2.5-.6.5Z" fill="#272B56"/><path d="m41 62-.5 4.5c-1.5-.8-4.3-1.8-8.3-.8-3.5 1-7.7 4.2-10.6 6.8 1.1-2 2.7-4.1 4.7-5.8 5-4.3 10.6-5.5 13.5-5.8A1 1 0 0 1 41 62Z" fill="#39395E"/><path d="M24.1 116.9c1.8 0 3.3-2.8 3.3-6.3s-1.5-6.3-3.3-6.3c-1.8 0-3.3 2.8-3.3 6.3s1.5 6.3 3.3 6.3Z" fill="#fff"/><path d="M130.4 78.2a2 2 0 0 1-.3 3.1 26.5 26.5 0 0 1-9.7 3.8c-11.5 2.6-24.5 2-31.5 1.4-.6 0-1-.4-1.5-.8a147.4 147.4 0 0 1-12.9-20.6 2 2 0 0 1 1-3 63.5 63.5 0 0 1 30.6-3.4c1.5.8 3.4 2 5.7 3.5a141.2 141.2 0 0 1 18.6 16Z" fill="#292A56"/><path d="M111.8 62.2c-3.1-.2-6.9-.2-11.5 0-17.2.7-21 6.3-21.3 10.8-1.4-2.4-2.9-5-4.4-8a2 2 0 0 1 1-2.8 63.5 63.5 0 0 1 30.5-3.5c1.6.7 3.4 2 5.7 3.5Z" fill="#39395E"/><path d="M120.7 110c-.2.7-.2.7-4 1-5 .5-10-1.6-12.6-3.5l-.3-.3c1.2.5 2.6.8 4 .8 3 0 5.2-1.6 5.3-3.5 0-1.4-.3-2.7-1.4-3.9l.5.2c3.6 1.3 7 5.4 8 6.5 1 1.3.8 2 .5 2.7Z" fill="#E6E3E1"/><path d="M161.5 99c-.3.7-.7 1.2-1.2 1.7-.6.6-1.6.7-3-.7-.6-.6-1.3-2.3-2-4l-1.4-4.6v-.6s.4 0 .8.3l2.3 2 1.3 1.4s1.2 1 2 2.1c1 1 1.2 2.3 1.2 2.4Z" fill="#F3F3F3"/><path d="M161.4 99.2c-.3.6-.6 1-1.1 1.5-.6.6-1.6.7-3-.7-.6-.6-1.3-2.3-2-4 .5.6 1 1 1.5 1 1.5 0 1.5-1.3 2.4-.4.8.8.9 2.5 1.6 1.8.3-.3.7.6.6.8Z" fill="#E6E3E1"/><path d="M129.7 110.3c-4 0-6.7-.3-6.7-.3l-.1-.2.1-.2c.2 0 19.6 3 33-7l.3.1v.3a46 46 0 0 1-26.6 7.3Z" fill="#292A56"/><path d="M72 85.2a6 6 0 0 0-9.4-2.6c-.6.5-1 1.1-1.2 1.8-.2.6-.2 1.4 0 2.1h-.1c-5-1.6-12.5-3-16-3.6-.7-.1-1.2-.8-1.1-1.4L45.5 66v-.7l.3-2.3c0-1 1-1.7 1.9-1.5a28 28 0 0 1 16.1 7.1 40.2 40.2 0 0 1 8.3 13.6c.4 2.5-.2 2.9-.2 2.9Z" fill="#272B56"/><path d="M71.2 80a64 64 0 0 1-2.1-3c-10-13.9-21-11.8-23.6-11v-.6l.3-2.3c0-1 1-1.7 1.9-1.5a28 28 0 0 1 16.1 7.1C67.2 72.3 70 77 71.2 80Z" fill="#39395E"/><path d="M104 107.5c2.6 2 7.7 4 12.7 3.6 3.8-.3 3.8-.3 4-1 .3-.8.4-1.4-.6-2.7a22 22 0 0 0-8-6.5c-3.6-1.4-10.9-1.2-13.5.8-2 1.3 1.7 3 5.5 5.8Z" stroke="#272B56" stroke-miterlimit="10"/><path d="M104 107.5c2.6 2 7.7 4 12.7 3.6 3.8-.3 3.8-.3 4-1 .3-.8.4-1.4-.6-2.7a22 22 0 0 0-8-6.5c-3.6-1.4-10.9-1.2-13.5.8-2 1.3 1.7 3 5.5 5.8ZM161.5 99c-.3.7-.7 1.2-1.2 1.7-.6.6-1.6.7-3-.7-.6-.6-1.3-2.3-2-4l-1.4-4.6v-.6s.4 0 .8.3l2.3 2 1.3 1.4s1.2 1 2 2.1c1 1 1.2 2.3 1.2 2.4Z" stroke="#272B56" stroke-miterlimit="10"/><path opacity=".3" d="M179.4 81.1s-.8 2.5-3.6 3h-.2c-2.6.4-4.1-.9-4.7-1.9h-1.3s-.6 0-.7-1.7h1.3s-.3-.4 0-1c0 0 1.2 3.4 4.7 2.8 2-.4 2-2.7 2-3.5 0-.8-.3-1.9.7-2.6 2 1.2 1.8 5 1.8 5Z" fill="#292A56"/><path d="M1.6 48.2c-1 0-1.6-.8-1.6-1.8v-38c0-3 2.1-5.3 4.7-5.3h47c.8 0 1.5.8 1.5 1.8s-.7 1.8-1.6 1.8h-47c-.7 0-1.5.8-1.5 1.8v38c0 .9-.7 1.7-1.5 1.7ZM268.4 48.2c-.9 0-1.6-.8-1.6-1.8v-38c0-1-.7-1.7-1.6-1.7h-46.9c-.9 0-1.6-.8-1.6-1.8s.7-1.8 1.6-1.8h47c2.6 0 4.6 2.3 4.6 5.3v38c.1 1-.7 1.8-1.5 1.8ZM265.2 177.5h-46.9c-.9 0-1.6-.8-1.6-1.8s.7-1.8 1.6-1.8h47c.8 0 1.5-.8 1.5-1.8v-38c0-1 .7-1.8 1.6-1.8.8 0 1.5.8 1.5 1.8v38c.1 3-2 5.4-4.7 5.4ZM51.6 177.5h-47c-2.5 0-4.6-2.4-4.6-5.4v-38c0-1 .7-1.7 1.6-1.7.8 0 1.5.8 1.5 1.8v38c0 1 .7 1.8 1.6 1.8h47c.8 0 1.5.8 1.5 1.8 0 .9-.7 1.7-1.6 1.7Z" fill="#252A56"/></g><defs><clipPath id="a"><path fill="#fff" d="M0 0h270v177.5H0z"/></clipPath></defs></svg>