<svg width="37" height="35" viewBox="0 0 37 35" fill="none" xmlns="http://www.w3.org/2000/svg"><path d="M29.625 20.99c.345 0 .625-.402.625-.899 0-.496-.28-.899-.625-.899-.346 0-.626.403-.626.9 0 .496.28.898.626.898Z" fill="currentColor"/><path d="M34.081 0H2.264A2.06 2.06 0 0 0 .192 2.072v30.176a2.06 2.06 0 0 0 2.072 2.071H34.12a2.085 2.085 0 0 0 2.072-2.071V2.072C36.152.938 35.215 0 34.082 0ZM31.58 32.912l-8.09-8.638H12.855l-8.13 8.638H3.084l8.912-9.225V7.857h-.039L3.514 1.055H5l8.013 6.567h10.319l7.896-6.45h1.524l-8.365 6.685v15.83h.118l1.876 1.994V12.664c0-.234.117-.43.313-.508l3.87-1.524c.39-.195.86.078.86.508v19.818l1.875 1.993h-1.72v-.039Z" fill="currentColor"/><path d="M23.371 8.6H12.895v14.423h10.476V8.599Z" fill="currentColor"/></svg>