<svg width="40" height="26" viewBox="0 0 40 26" fill="none" xmlns="http://www.w3.org/2000/svg"><path d="M13.841 19.04v-2.318H1.523v2.053c0 2.053 1.126 3.874 2.749 4.867l-.497.895a.78.78 0 0 0 .331 1.06.78.78 0 0 0 1.06-.332l.563-1.027c.463.133.927.2 1.457.2h11.788c.496 0 .96-.067 1.424-.2l.563 1.027a.8.8 0 0 0 1.06.331.8.8 0 0 0 .33-1.06l-.463-.894c1.655-.993 2.781-2.781 2.781-4.867v-2.053h-2.98v2.318H13.84ZM24.735 12.285H21.59v3.113h3.145c.861 0 1.557-.696 1.557-1.557 0-.86-.696-1.556-1.557-1.556ZM1.556 12.285c-.86 0-1.556.695-1.556 1.556 0 .861.695 1.557 1.556 1.557h12.285v-3.113H1.556ZM34.702 21.722a4.136 4.136 0 0 0 4.139-4.007h-8.278c.1 2.219 1.92 4.007 4.139 4.007ZM3.08 3.874a2.325 2.325 0 0 1 2.317-2.318h1.557c1.06 0 1.92.696 2.218 1.656a2.784 2.784 0 0 0-1.92 2.649v.563h5.596V5.86c0-1.291-.894-2.384-2.086-2.715A3.84 3.84 0 0 0 6.987 0H5.43a3.844 3.844 0 0 0-3.84 3.841v7.086h1.523V3.874h-.034ZM38.61 9.867c0-.562-.464-1.026-1.027-1.026h-5.729c-.563 0-1.026.464-1.026 1.026v3.643h7.814V9.867h-.033ZM39.602 14.669h-9.768a.403.403 0 0 0-.397.397v1.192c0 .232.199.398.397.398h9.768a.403.403 0 0 0 .398-.398v-1.192a.383.383 0 0 0-.398-.397ZM38.94 24.106H36.16v-1.59c-.464.133-.96.2-1.457.2a4.93 4.93 0 0 1-1.424-.2v1.59h-2.781a.297.297 0 0 0-.298.298v.53c0 .165.132.298.298.298h8.443a.297.297 0 0 0 .298-.298v-.53c.034-.166-.132-.298-.298-.298Z" fill="currentColor"/><path d="M18.444 10.795h-1.49a1.52 1.52 0 0 0-1.523 1.523v5.298H20v-5.298c0-.828-.696-1.523-1.557-1.523Z" fill="currentColor"/></svg>