<svg width="40" height="21" viewBox="0 0 40 21" fill="none" xmlns="http://www.w3.org/2000/svg"><path d="M39.227 10.152h-3.563a.732.732 0 0 0 .47-.606l.37-2.588a.77.77 0 0 0-.773-.874h-2.218a.77.77 0 0 0-.773.874l.37 2.588a.796.796 0 0 0 .47.606h-3.496a.76.76 0 0 0-.773.773v8.773c0 .437.37.806.807.806.437 0 .807-.37.807-.806v-.74h7.462v.74c0 .437.37.806.806.806.437 0 .807-.37.807-.806V10.89c0-.37-.336-.74-.773-.74Zm-.672 5.109c0 .201-.168.37-.37.37H31.16a.373.373 0 0 1-.37-.37V12c0-.202.168-.37.37-.37h6.991c.202 0 .37.168.37.37v3.26h.034Z" fill="currentColor"/><path d="M31.53 14.857h6.218V12.37h-6.219v2.487Zm3.125-1.782a.53.53 0 0 1 .538.538.53.53 0 0 1-.538.538.53.53 0 0 1-.538-.538.53.53 0 0 1 .538-.538ZM32.269 4.874h4.773c.504 0 .84-.437.74-.941L37.108.605a.752.752 0 0 0-.74-.605h-3.395a.758.758 0 0 0-.739.605l-.672 3.328a.734.734 0 0 0 .706.94ZM2.89 8.74c.27-1.883 1.278-2.79 3.127-2.79h4.47c1.21-.034 2.387-.034 3.194 1.176.638-.874 1.445-1.176 2.42-1.176h5.445c.303 0 .605 0 .908.1 1.277.37 1.916 1.412 2.05 2.69h.504V5.243c0-1.883-1.176-3.06-3.058-3.06H5.377c-1.58 0-2.722.908-2.924 2.387-.135.942-.034 3.16-.034 4.135.202.033.27.033.47.033Z" fill="currentColor"/><path d="M5.748 7.294c-.84 0-1.345.538-1.378 1.479h8.504c0-.941-.538-1.445-1.412-1.479a161.887 161.887 0 0 0-5.714 0ZM15.9 7.294c-.875 0-1.379.538-1.413 1.445h8.538c-.1-.974-.571-1.411-1.445-1.445a159.98 159.98 0 0 0-5.68 0ZM27.361 11.596v5.278c0 1.143-.269 1.445-1.512 1.546h-.673l.135 1.345c.033.403-.27.806-.672.84-.437.033-.807-.27-.84-.672l-.135-1.48H3.866l-.135 1.48a.74.74 0 0 1-.84.672.719.719 0 0 1-.673-.84l.135-1.345h-.84c-.202-.034-.404-.034-.572-.067-.605-.101-.941-.505-.941-1.11V11.16c0-.64.437-1.076 1.076-1.11.168-.033.302 0 .47 0h24.235c1.244 0 1.58.336 1.58 1.546Z" fill="currentColor"/></svg>