<svg width="36" height="36" viewBox="0 0 36 36" fill="none" xmlns="http://www.w3.org/2000/svg"><path d="M23.658 23.043V9.348H12.383v13.695h2.665v-8.938a.56.56 0 0 1 .574-.574h4.674a.56.56 0 0 1 .574.574v8.938h2.788ZM1.27 36h33.5L23.78 24.355H12.26L1.27 36ZM36 .656v34.32l-1.722-1.846-1.763-1.845V11.399a.587.587 0 0 0-.86-.533L27.8 12.383c-.205.123-.328.287-.328.533v13.08l-2.337-2.42-.123-.123V8.94l.123-.082 1.558-1.19 3.403-2.583L36 .656ZM4.346 10.907 8.2 12.424c.205.082.328.287.328.533v13.12l2.46-2.583V8.98L1.764 2.01 0 .696v34.319l3.485-3.69V11.399c0-.41.451-.697.861-.492ZM24.15 7.954 34.278 0H1.845L11.85 7.954h12.3ZM18 3.034c1.27 0 2.255.41 2.255.902 0 .492-1.025.902-2.255.902-1.271 0-2.255-.41-2.255-.902 0-.492 1.025-.902 2.255-.902Z" fill="currentColor"/><path d="M7.134 20.911c.317 0 .574-.349.574-.779 0-.43-.257-.779-.574-.779-.317 0-.574.349-.574.78 0 .43.257.778.574.778ZM30.915 21.936c.363 0 .657-.422.657-.943 0-.52-.294-.943-.657-.943-.362 0-.656.422-.656.943 0 .52.294.943.656.943ZM19.64 19.19a.574.574 0 1 0 0-1.149.574.574 0 0 0 0 1.148Z" fill="currentColor"/></svg>