<svg width="36" height="36" viewBox="0 0 36 36" fill="none" xmlns="http://www.w3.org/2000/svg"><path d="M.627 9.805h14.98a.603.603 0 0 0 .59-.589V7.334a.503.503 0 0 0-.158-.392L10.353.236a.65.65 0 0 0-.47-.196h-3.57a.65.65 0 0 0-.47.196L.157 6.942C.078 7.059 0 7.177 0 7.334v1.882c0 .314.275.589.627.589ZM21.333 9.804h13.883A.787.787 0 0 0 36 9.02V.784A.787.787 0 0 0 35.215 0H21.334a.787.787 0 0 0-.784.784V9.02c0 .431.353.784.784.784Zm10.04-5.294v1.098a.603.603 0 0 1-.589.588.603.603 0 0 1-.588-.588V4.51c0-.314.274-.588.588-.588.314 0 .588.274.588.588Zm-3.687-2.706c0-.314.275-.588.588-.588.314 0 .589.274.589.588v6.274a.603.603 0 0 1-.589.589.603.603 0 0 1-.588-.589V1.804Zm-2.51 2.706c0-.314.275-.588.589-.588.313 0 .588.274.588.588v1.098a.603.603 0 0 1-.588.588.603.603 0 0 1-.589-.588V4.51ZM.51 22.392v3.961h12.902v-1.961c0-.314.274-.588.588-.588.314 0 .588.274.588.588v10.706H36V22.392H.51Zm27.45 6.157a.603.603 0 0 1-.588.588.603.603 0 0 1-.588-.588v-1.177c0-.313.275-.588.588-.588.314 0 .589.275.589.588v1.177Zm-2.43 4.431a.603.603 0 0 1-.589.588.603.603 0 0 1-.588-.588v-8.627c0-.314.274-.588.588-.588.314 0 .588.274.588.588v8.627Zm-2.393-4.431a.603.603 0 0 1-.588.588.603.603 0 0 1-.588-.588v-1.177c0-.313.274-.588.588-.588.314 0 .588.275.588.588v1.177Zm-11.804-4.196a.603.603 0 0 1-.588.588h-.823a.603.603 0 0 1-.589-.588c0-.314.275-.588.589-.588h.823c.353 0 .588.274.588.588Zm-3.372 0a.603.603 0 0 1-.588.588h-.824a.603.603 0 0 1-.588-.588c0-.314.274-.588.588-.588h.824c.313 0 .588.274.588.588Zm-3.412 0a.603.603 0 0 1-.588.588h-.824a.603.603 0 0 1-.588-.588c0-.314.274-.588.588-.588h.824c.313 0 .588.274.588.588ZM36 21.216v-1.804c0-.863-.706-1.569-1.569-1.569H2.078c-.862 0-1.568.706-1.568 1.569v1.843H36v-.04Z" fill="currentColor"/><path d="M13.451 27.49H.51v7.568H13.45V27.49ZM3.373 16.039c-.236 0-.393.157-.393.392v.55h3.608v-.55c0-.235-.157-.392-.392-.392H3.373ZM9.49 16.039c-.235 0-.392.157-.392.392v.55h3.647v-.55c0-.235-.156-.392-.392-.392H9.49ZM.627 9.804h14.98a.603.603 0 0 0 .59-.588V7.333a.503.503 0 0 0-.158-.392L10.353.235a.65.65 0 0 0-.47-.196h-3.57a.65.65 0 0 0-.47.196L.157 6.941C.078 7.06 0 7.177 0 7.333v1.883c0 .314.275.588.627.588ZM21.333 9.804h13.883A.787.787 0 0 0 36 9.02V.784A.787.787 0 0 0 35.215 0H21.334a.787.787 0 0 0-.784.784V9.02c0 .431.353.784.784.784Zm10.04-5.294v1.098a.603.603 0 0 1-.589.588.603.603 0 0 1-.588-.588V4.51c0-.314.274-.588.588-.588.314 0 .588.274.588.588Zm-3.687-2.706c0-.314.275-.588.588-.588.314 0 .589.274.589.588v6.274a.603.603 0 0 1-.589.589.603.603 0 0 1-.588-.589V1.804Zm-2.51 2.706c0-.314.275-.588.589-.588.313 0 .588.274.588.588v1.098a.603.603 0 0 1-.588.588.603.603 0 0 1-.589-.588V4.51Z" fill="currentColor"/><path d="M.51 22.392v3.961h12.902v-1.961c0-.314.274-.588.588-.588.314 0 .588.274.588.588v10.706H36V22.392H.51Zm27.45 6.157a.603.603 0 0 1-.588.588.603.603 0 0 1-.588-.588v-1.177c0-.313.275-.588.588-.588.314 0 .589.275.589.588v1.177Zm-2.43 4.431a.603.603 0 0 1-.589.588.603.603 0 0 1-.588-.588v-8.627c0-.314.274-.588.588-.588.314 0 .588.274.588.588v8.627Zm-2.393-4.431a.603.603 0 0 1-.588.588.603.603 0 0 1-.588-.588v-1.177c0-.313.274-.588.588-.588.314 0 .588.275.588.588v1.177Zm-11.804-4.196a.603.603 0 0 1-.588.588h-.823a.603.603 0 0 1-.589-.588c0-.314.275-.588.589-.588h.823c.353 0 .588.274.588.588Zm-3.372 0a.603.603 0 0 1-.588.588h-.824a.603.603 0 0 1-.588-.588c0-.314.274-.588.588-.588h.824c.313 0 .588.274.588.588Zm-3.412 0a.603.603 0 0 1-.588.588h-.824a.603.603 0 0 1-.588-.588c0-.314.274-.588.588-.588h.824c.313 0 .588.274.588.588ZM36 21.216v-1.804c0-.863-.706-1.569-1.569-1.569H2.078c-.862 0-1.568.706-1.568 1.569v1.843H36v-.04Z" fill="currentColor"/><path d="M13.451 27.49H.51v7.568H13.45V27.49ZM3.373 16.039c-.236 0-.393.157-.393.392v.55h3.608v-.55c0-.235-.157-.392-.392-.392H3.373ZM9.49 16.039c-.235 0-.392.157-.392.392v.55h3.647v-.55c0-.235-.156-.392-.392-.392H9.49Z" fill="currentColor"/></svg>