<svg width="40" height="27" viewBox="0 0 40 27" fill="none" xmlns="http://www.w3.org/2000/svg"><path d="M38.44 24.881h-6.406c-.204 0-.34.136-.34.34v.915c0 .203.136.338.34.338h6.407c.203 0 .338-.135.338-.338v-.916c0-.17-.169-.339-.338-.339Z" fill="currentColor"/><path d="M34.44 7.424v18.373c0 .203.136.338.34.338h.915c.203 0 .339-.135.339-.338V7.424c0-.204-.136-.34-.34-.34h-.915c-.203 0-.339.136-.339.34Z" fill="currentColor"/><path d="M39.424 9.593H31.05c-.34 0-.576-.271-.576-.61l.61-8.475A.586.586 0 0 1 31.66 0h7.153c.305 0 .542.237.576.508L40 8.983c0 .339-.237.61-.576.61ZM18.983 6.068a7.786 7.786 0 0 0-4.102 1.491 7.786 7.786 0 0 0-4.102-1.491c-4.61-.305-7.593 2.915-8.373 5.525.068.034.17.068.238.102 1.627.406 2.474 1.864 2.44 3.186-.033.712 0 2.678 0 2.678H24.61s.034-1.932 0-2.678c-.034-1.288.813-2.78 2.44-3.186.068-.034.17-.068.238-.102-.712-2.61-3.695-5.83-8.305-5.525ZM8.745 15.186c-.27 0-.576-.27-.576-.542 0-.271.271-.576.543-.576.27 0 .576.27.576.542.034.271-.237.576-.543.576Zm0-2.78c-.27 0-.576-.305-.576-.576 0-.27.305-.576.576-.576.272 0 .577.305.577.576 0 .305-.305.577-.577.577Zm2.78 2.78c-.271 0-.576-.27-.576-.542 0-.271.271-.576.542-.576s.577.27.577.542c.033.271-.272.576-.543.576Zm0-2.78c-.271 0-.576-.305-.542-.576 0-.27.305-.576.576-.542.271 0 .576.305.542.576-.034.271-.305.576-.576.543Zm6.678 2.78c-.271 0-.576-.305-.542-.576 0-.271.305-.576.576-.542.271 0 .576.305.542.576 0 .271-.305.576-.576.542Zm.034-2.78c-.271 0-.576-.27-.576-.542 0-.271.27-.576.542-.576.271 0 .576.271.576.542.034.271-.27.577-.542.577Zm2.746 2.78c-.271 0-.577-.305-.543-.576 0-.271.305-.542.577-.542.27 0 .542.305.542.576 0 .305-.305.576-.576.542Zm.034-2.78c-.272 0-.577-.305-.577-.576 0-.27.305-.576.577-.576.27 0 .576.305.576.576-.034.305-.305.577-.576.577Z" fill="currentColor"/><path d="M29.797 14.746c0 .813-.407 1.423-1.153 1.83-.102.068-.237.102-.44.17v4.204c0 .982-.374 1.796-1.12 2.44-.474.373-1.016.576-1.627.678 0 .237-.033.474 0 .678.034.237.204.339.407.407.068.033.17.033.238.033a.65.65 0 0 1 .542.645.631.631 0 0 1-.644.576c-.78.034-1.593-.576-1.763-1.39-.068-.305-.068-.61-.101-.983H5.66c-.034.339-.034.644-.102.983-.17.814-.949 1.424-1.762 1.39-.34-.034-.61-.271-.644-.576-.034-.306.203-.577.542-.645.068-.034.17 0 .237-.034.204-.067.373-.169.407-.406.034-.238 0-.475 0-.678-.644-.102-1.186-.305-1.627-.678-.746-.644-1.119-1.458-1.119-2.44v-4.204c-.203-.068-.305-.136-.44-.17C.407 16.203 0 15.56 0 14.746c0-.848.407-1.492 1.186-1.83.746-.34 1.458-.272 2.136.27.542.441.746 1.051.78 1.73V21.084c.034.305.203.508.508.576.102.034.237 0 .373 0H25.322c.305-.034.508-.237.508-.576V14.916c0-.679.238-1.289.78-1.73.644-.542 1.356-.61 2.136-.27a2.054 2.054 0 0 1 1.05 1.83Z" fill="currentColor"/><path d="M24.61 20.474H5.119l.033-1.796H24.61v1.796Z" fill="currentColor"/></svg>