<svg width="100" height="82" viewBox="0 0 100 82" fill="none" xmlns="http://www.w3.org/2000/svg">
<path d="M33.8964 40.834H0.0507812V41.3261H33.8964V40.834Z" fill="#444B8C"/>
<path d="M99.9996 40.834H62.9492V41.3261H99.9996V40.834Z" fill="#444B8C"/>
<path d="M33.8964 48.4999H32.5676V48.0078H33.8964V48.4999ZM29.3368 48.4999H26.0799V48.0078H29.3368V48.4999ZM22.823 48.4999H19.5661V48.0078H22.823V48.4999ZM16.3092 48.4999H13.0523V48.0078H16.3092V48.4999ZM9.82146 48.4999H6.56457V48.0078H9.82146V48.4999ZM3.30767 48.4999H0.0507812V48.0078H3.30767V48.4999Z" fill="#444B8C"/>
<path d="M98.7229 48.4999H95.4661V48.0078H98.7229V48.4999ZM92.2352 48.4999H88.9783V48.0078H92.2352V48.4999ZM85.7214 48.4999H82.4645V48.0078H85.7214V48.4999ZM79.2076 48.4999H75.9507V48.0078H79.2076V48.4999ZM72.7199 48.4999H69.463V48.0078H72.7199V48.4999ZM66.2061 48.4999H62.9492V48.0078H66.2061V48.4999Z" fill="#444B8C"/>
<path d="M98.7229 34.0995H95.4661V33.6074H98.7229V34.0995ZM92.2352 34.0995H88.9783V33.6074H92.2352V34.0995ZM85.7214 34.0995H82.4645V33.6074H85.7214V34.0995ZM79.2076 34.0995H75.9507V33.6074H79.2076V34.0995ZM72.7199 34.0995H69.463V33.6074H72.7199V34.0995ZM66.2061 34.0995H62.9492V33.6074H66.2061V34.0995Z" fill="#444B8C"/>
<path d="M33.8978 34.0995H32.5169V33.6074H33.8978V34.0995ZM29.26 34.0995H26.0031V33.6074H29.26V34.0995ZM22.7462 34.0995H19.4893V33.6074H22.7462V34.0995ZM16.2584 34.0995H13.0015V33.6074H16.2584V34.0995ZM9.74464 34.0995H6.48774V33.6074H9.74464V34.0995ZM3.2569 34.0995H0V33.6074H3.2569V34.0995Z" fill="#444B8C"/>
<path d="M33.8964 55.2344H0.0507812V55.7265H33.8964V55.2344Z" fill="#444B8C"/>
<path d="M34.1591 55.4668H33.6641V81.4451H34.1591V55.4668Z" fill="#444B8C"/>
<path d="M63.2099 55.4668H62.7148V81.4451H63.2099V55.4668Z" fill="#444B8C"/>
<path d="M99.9996 55.2344H62.9492V55.7265H99.9996V55.2344Z" fill="#444B8C"/>
<path d="M99.9996 26.3555H62.9492V26.8476H99.9996V26.3555Z" fill="#444B8C"/>
<path d="M63.2099 0.635742H62.7148V26.614H63.2099V0.635742Z" fill="#444B8C"/>
<path d="M34.1591 0.635742H33.6641V26.614H34.1591V0.635742Z" fill="#444B8C"/>
<path d="M33.8964 26.3555H0.0507812V26.8476H33.8964V26.3555Z" fill="#444B8C"/>
<path d="M48.7216 55.4668H48.2266V81.4451H48.7216V55.4668Z" fill="#444B8C"/>
<path d="M48.7216 0.635742H48.2266V26.614H48.7216V0.635742Z" fill="#444B8C"/>
<path d="M55.9404 78.8559H55.4453V75.6183H55.9404V78.8559ZM55.9404 72.3807H55.4453V69.1431H55.9404V72.3807ZM55.9404 65.9315H55.4453V62.6939H55.9404V65.9315ZM55.9404 59.4563H55.4453V56.2188H55.9404V59.4563Z" fill="#444B8C"/>
<path d="M55.9404 26.614H55.4453V23.3764H55.9404V26.614ZM55.9404 20.1389H55.4453V16.9013H55.9404V20.1389ZM55.9404 13.6637H55.4453V10.4521H55.9404V13.6637ZM55.9404 7.21449H55.4453V3.97692H55.9404V7.21449ZM55.9404 0.739344H55.4453V0.635742H55.9404V0.739344Z" fill="#444B8C"/>
<path d="M41.4541 26.614H40.959V23.3764H41.4541V26.614ZM41.4541 20.1389H40.959V16.9013H41.4541V20.1389ZM41.4541 13.6637H40.959V10.4521H41.4541V13.6637ZM41.4541 7.21449H40.959V3.97692H41.4541V7.21449ZM41.4541 0.739344H40.959V0.635742H41.4541V0.739344Z" fill="#444B8C"/>
<path d="M41.4541 78.8559H40.959V75.6183H41.4541V78.8559ZM41.4541 72.3807H40.959V69.1431H41.4541V72.3807ZM41.4541 65.9315H40.959V62.6939H41.4541V65.9315ZM41.4541 59.4563H40.959V56.2188H41.4541V59.4563Z" fill="#444B8C"/>
</svg>
