<svg width="98" height="70" viewBox="0 0 98 70" fill="none" xmlns="http://www.w3.org/2000/svg">
<path d="M12.0492 14.1475H6.37891V14.9671H12.0492V14.1475Z" fill="#444B8C"/>
<path d="M1.41757 14.1475H0V14.9671H1.41757V14.1475Z" fill="#444B8C"/>
<path d="M85.548 14.9671H80.2751V14.1475H85.548V14.9671ZM75.0295 14.9671H69.7566V14.1475H75.0295V14.9671ZM64.4836 14.9671H59.2107V14.1475H64.4836V14.9671ZM53.9378 14.9671H48.6649V14.1475H53.9378V14.9671ZM43.4193 14.9671H38.1464V14.1475H43.4193V14.9671ZM32.8735 14.9671H27.6005V14.1475H32.8735V14.9671ZM22.3549 14.9671H17.082V14.1475H22.3549V14.9671Z" fill="#444B8C"/>
<path d="M95.7838 14.1475H90.8223V14.9671H95.7838V14.1475Z" fill="#444B8C"/>
<path d="M97.8111 27.2041H92.8496V28.0237H97.8111V27.2041Z" fill="#444B8C"/>
<path d="M97.8123 0.979004H0V1.68779H97.8123V0.979004Z" fill="#444B8C"/>
<path d="M27.6422 69.0212H26.2246L60.3038 39.5824C69.4836 31.6047 81.2588 27.2061 93.4166 27.2061V27.6159V28.0257C81.4501 28.0257 69.8661 32.3424 60.8502 40.2108L27.6422 69.0212Z" fill="#444B8C"/>
<path d="M14.0124 62.5121L9.98633 66.0132L10.5242 66.6317L14.5503 63.1306L14.0124 62.5121Z" fill="#444B8C"/>
<path d="M22.3375 55.2746L18.123 58.9395L18.6609 59.5579L22.8753 55.8931L22.3375 55.2746Z" fill="#444B8C"/>
<path d="M26.9995 52.3414L26.4531 51.713L30.5786 48.134L31.125 48.7624L26.9995 52.3414ZM35.2231 45.1833L34.6767 44.555L38.8021 40.9759L39.3486 41.6043L35.2231 45.1833ZM43.4467 38.0253L42.9003 37.3969L47.0257 33.8179L47.5721 34.4463L43.4467 38.0253Z" fill="#444B8C"/>
<path d="M53.0992 28.5312L51.1406 30.2344L51.6785 30.8529L53.637 29.1497L53.0992 28.5312Z" fill="#444B8C"/>
<path d="M0 58.3903V57.3271L33.6117 27.9988H0V27.1792H35.7974L0 58.3903Z" fill="#444B8C"/>
</svg>
