<svg width="98" height="57" viewBox="0 0 98 57" fill="none" xmlns="http://www.w3.org/2000/svg">
<path d="M97.1306 0.702148H0.0527344V1.70164H97.1306V0.702148Z" fill="#444B8C"/>
<path d="M4.04712 18.1284H0.0507812V19.1279H4.04712V18.1284Z" fill="#444B8C"/>
<path d="M85.0405 19.1279H76.9479V18.1284H85.0405V19.1279ZM68.8553 19.1279H60.7627V18.1284H68.8553V19.1279ZM52.6368 19.1279H44.5442V18.1284H52.6368V19.1279ZM36.4516 19.1279H28.359V18.1284H36.4516V19.1279ZM20.2664 19.1279H12.1738V18.1284H20.2664V19.1279Z" fill="#444B8C"/>
<path d="M97.1643 18.1284H93.168V19.1279H97.1643V18.1284Z" fill="#444B8C"/>
<path d="M40.3805 56.2943H39.3815V36.5845H0.0507812V35.585H40.3805V56.2943Z" fill="#444B8C"/>
<path d="M57.8311 56.2943H56.832V35.585H97.1618V36.5845H57.8311V56.2943Z" fill="#444B8C"/>
</svg>
