<svg width="100" height="82" viewBox="0 0 100 82" fill="none" xmlns="http://www.w3.org/2000/svg">
<path d="M49.9622 80.1255H49.4434V79.7645H49.9622V80.1255ZM49.9622 76.2833H49.4434V72.7764H49.9622V76.2833ZM49.9622 69.2952H49.4434V65.7882H49.9622V69.2952ZM49.9622 62.3071H49.4434V58.8001H49.9622V62.3071ZM49.9622 55.319H49.4434V51.812H49.9622V55.319Z" fill="#444B8C"/>
<path d="M99.0903 41.1368H95.718V40.6211H99.0903V41.1368ZM92.1901 41.1368H88.6623V40.6211H92.1901V41.1368ZM85.1603 41.1368H81.6324V40.6211H85.1603V41.1368ZM78.1305 41.1368H74.6026V40.6211H78.1305V41.1368ZM71.1007 41.1368H67.5728V40.6211H71.1007V41.1368ZM64.0709 41.1368H60.543V40.6211H64.0709V41.1368Z" fill="#444B8C"/>
<path d="M50.0911 29.5322H49.5723V26.051H50.0911V29.5322ZM50.0911 22.5441H49.5723V19.0629H50.0911V22.5441ZM50.0911 15.5559H49.5723V12.0748H50.0911V15.5559ZM50.0911 8.56783H49.5723V5.08666H50.0911V8.56783ZM50.0911 1.57971H49.5723V1.47656H50.0911V1.57971Z" fill="#444B8C"/>
<path d="M38.4438 41.0069H34.9159V40.4912H38.4438V41.0069ZM31.414 41.0069H27.8861V40.4912H31.414V41.0069ZM24.3842 41.0069H20.8563V40.4912H24.3842V41.0069ZM17.3544 41.0069H13.8265V40.4912H17.3544V41.0069ZM10.3245 41.0069H6.79665V40.4912H10.3245V41.0069ZM3.29471 41.0069H0.908203V40.4912H3.26877V41.0069H3.29471Z" fill="#444B8C"/>
<path d="M60.259 81.028H59.7402V50.7548L99.9996 50.729V51.2447L60.259 51.2705V81.028Z" fill="#444B8C"/>
<path d="M99.9996 30.8991H59.7402V0.574219H60.259V30.3575H99.9996V30.8991Z" fill="#444B8C"/>
<path d="M39.7924 30.8991H0V30.3575H39.2736V0.574219H39.7924V30.8991Z" fill="#444B8C"/>
<path d="M39.7924 81.028H39.2736V51.2447H0V50.729H39.7924V81.028Z" fill="#444B8C"/>
</svg>
