<svg width="100" height="52" viewBox="0 0 100 52" fill="none" xmlns="http://www.w3.org/2000/svg">
<path d="M49.7797 50.8238H49.2598V50.484H49.7797V50.8238ZM49.7797 46.9551H49.2598V43.4263H49.7797V46.9551ZM49.7797 39.8974H49.2598V36.3686H49.7797V39.8974ZM49.7797 32.8658H49.2598V29.337H49.7797V32.8658ZM49.7797 25.8081H49.2598V22.2793H49.7797V25.8081Z" fill="#444B8C"/>
<path d="M60.0472 51.7389H59.5273V21.2078L99.6105 21.1816V21.7044L60.0472 21.7306V51.7389Z" fill="#444B8C"/>
<path d="M39.6413 1.21029H0V0.6875H39.1214H60.0468H99.6101V1.21029H59.5269H39.6413Z" fill="#444B8C"/>
<path d="M39.6413 51.7389H39.1214V21.7044H0V21.1816H39.6413V51.7389Z" fill="#444B8C"/>
<path d="M34.0014 10.9609H30.4922V11.4837H34.0014V10.9609Z" fill="#444B8C"/>
<path d="M26.8256 10.9609H23.3164V11.4837H26.8256V10.9609Z" fill="#444B8C"/>
<path d="M19.6772 10.9609H16.168V11.4837H19.6772V10.9609Z" fill="#444B8C"/>
<path d="M12.5288 10.9609H9.01953V11.4837H12.5288V10.9609Z" fill="#444B8C"/>
<path d="M5.35493 11.4837H1.8457V10.9609H5.35493V11.4837Z" fill="#444B8C"/>
<path d="M41.1498 10.9609H37.6406V11.4837H41.1498V10.9609Z" fill="#444B8C"/>
<path d="M48.3237 10.9609H44.8145V11.4837H48.3237V10.9609Z" fill="#444B8C"/>
<path d="M55.4721 11.4837H51.9629V10.9609H55.4721V11.4837Z" fill="#444B8C"/>
<path d="M62.6206 10.9609H59.1113V11.4837H62.6206V10.9609Z" fill="#444B8C"/>
<path d="M69.7944 10.9609H66.2852V11.4837H69.7944V10.9609Z" fill="#444B8C"/>
<path d="M76.9428 10.9609H73.4336V11.4837H76.9428V10.9609Z" fill="#444B8C"/>
<path d="M84.1186 10.9609H80.6094V11.4837H84.1186V10.9609Z" fill="#444B8C"/>
<path d="M91.267 10.9609H87.7578V11.4837H91.267V10.9609Z" fill="#444B8C"/>
<path d="M98.3376 11.4837H94.9844V10.9609H98.3376V11.4837Z" fill="#444B8C"/>
</svg>
