<svg width="78" height="80" viewBox="0 0 78 80" fill="none" xmlns="http://www.w3.org/2000/svg">
<path d="M3.29947 39.5889H0.113281V40.3854H3.29947V39.5889Z" fill="#444B8C"/>
<path d="M67.8714 40.3854H61.4194V39.5889H67.8714V40.3854ZM16.202 40.3854H9.75V39.5889H16.202V40.3854Z" fill="#444B8C"/>
<path d="M77.5124 39.5889H74.3262V40.3854H77.5124V39.5889Z" fill="#444B8C"/>
<path d="M25.3108 53.5015V80H24.5142V54.298H0.113281V53.5015H25.3108Z" fill="#444B8C"/>
<path d="M39.2223 76.2559H38.4258V79.9731H39.2223V76.2559Z" fill="#444B8C"/>
<path d="M39.2223 64.7334H38.4258V70.3623H39.2223V64.7334Z" fill="#444B8C"/>
<path d="M77.5119 53.5015V54.298H53.111V80H52.3145V53.5015H77.5119Z" fill="#444B8C"/>
<path d="M25.3108 0V26.4985H0.113281V25.7019H24.5142V0H25.3108Z" fill="#444B8C"/>
<path d="M39.2223 0H38.4258V3.18619H39.2223V0Z" fill="#444B8C"/>
<path d="M39.2223 8.81494H38.4258V16.037H39.2223V8.81494Z" fill="#444B8C"/>
<path d="M77.1136 25.7019V26.4985H52.3145V0H53.111V25.7019H77.1136Z" fill="#444B8C"/>
<path d="M17.9512 47.7547V49.5337H25.306V47.7547H17.9512Z" fill="#444B8C"/>
<path d="M17.9688 44.287V46.0659H25.3235V44.287H17.9688Z" fill="#444B8C"/>
<path d="M17.959 40.8167V42.5957H25.3138V40.8167H17.959Z" fill="#444B8C"/>
<path d="M17.9492 37.348V39.127H25.304V37.348H17.9492Z" fill="#444B8C"/>
<path d="M17.9668 33.8778V35.6567H25.3216V33.8778H17.9668Z" fill="#444B8C"/>
<path d="M17.957 30.41V32.189H25.3118V30.41H17.957Z" fill="#444B8C"/>
<path d="M31.0465 19.0381H29.2676V26.3929H31.0465V19.0381Z" fill="#444B8C"/>
<path d="M34.4977 19.0381H32.7188V26.3929H34.4977V19.0381Z" fill="#444B8C"/>
<path d="M37.9762 19.0381H36.1973V26.3929H37.9762V19.0381Z" fill="#444B8C"/>
<path d="M41.4528 19.0381H39.6738V26.3929H41.4528V19.0381Z" fill="#444B8C"/>
<path d="M44.9059 19.0381H43.127V26.3929H44.9059V19.0381Z" fill="#444B8C"/>
<path d="M48.3844 19.0381H46.6055V26.3929H48.3844V19.0381Z" fill="#444B8C"/>
<path d="M31.0465 53.5015H29.2676V60.8563H31.0465V53.5015Z" fill="#444B8C"/>
<path d="M34.4977 53.5015H32.7188V60.8563H34.4977V53.5015Z" fill="#444B8C"/>
<path d="M37.9762 53.5015H36.1973V60.8563H37.9762V53.5015Z" fill="#444B8C"/>
<path d="M41.4528 53.5015H39.6738V60.8563H41.4528V53.5015Z" fill="#444B8C"/>
<path d="M44.9059 53.5015H43.127V60.8563H44.9059V53.5015Z" fill="#444B8C"/>
<path d="M48.3844 53.5015H46.6055V60.8563H48.3844V53.5015Z" fill="#444B8C"/>
<path d="M54.0393 60.7506H51.5435C51.1983 60.7506 50.9062 60.4585 50.9062 60.1133V53.502C50.9062 53.1568 51.1983 52.8647 51.5435 52.8647H54.0393C54.3845 52.8647 54.6766 53.1568 54.6766 53.502V60.1133C54.7031 60.4585 54.4111 60.7506 54.0393 60.7506Z" fill="#383838"/>
<path d="M52.7922 55.333C53.2761 55.333 53.6684 54.9407 53.6684 54.4568C53.6684 53.9729 53.2761 53.5806 52.7922 53.5806C52.3083 53.5806 51.916 53.9729 51.916 54.4568C51.916 54.9407 52.3083 55.333 52.7922 55.333Z" fill="#FF5050"/>
<path d="M52.7922 57.5913C53.2761 57.5913 53.6684 57.199 53.6684 56.7151C53.6684 56.2312 53.2761 55.8389 52.7922 55.8389C52.3083 55.8389 51.916 56.2312 51.916 56.7151C51.916 57.199 52.3083 57.5913 52.7922 57.5913Z" fill="#FFDD50"/>
<path d="M52.7922 59.8198C53.2761 59.8198 53.6684 59.4275 53.6684 58.9436C53.6684 58.4597 53.2761 58.0674 52.7922 58.0674C52.3083 58.0674 51.916 58.4597 51.916 58.9436C51.916 59.4275 52.3083 59.8198 52.7922 59.8198Z" fill="#79E26D"/>
<path d="M23.5845 19.1699H26.0804C26.4255 19.1699 26.7176 19.462 26.7176 19.8072V26.4185C26.7176 26.7637 26.4255 27.0557 26.0804 27.0557H23.5845C23.2393 27.0557 22.9473 26.7637 22.9473 26.4185V19.8072C22.9473 19.462 23.2393 19.1699 23.5845 19.1699Z" fill="#383838"/>
<path d="M24.8332 26.3403C25.3171 26.3403 25.7094 25.948 25.7094 25.4641C25.7094 24.9802 25.3171 24.5879 24.8332 24.5879C24.3493 24.5879 23.957 24.9802 23.957 25.4641C23.957 25.948 24.3493 26.3403 24.8332 26.3403Z" fill="#FF5050"/>
<path d="M24.8332 24.082C25.3171 24.082 25.7094 23.6897 25.7094 23.2058C25.7094 22.7219 25.3171 22.3296 24.8332 22.3296C24.3493 22.3296 23.957 22.7219 23.957 23.2058C23.957 23.6897 24.3493 24.082 24.8332 24.082Z" fill="#FFDD50"/>
<path d="M24.8332 21.8256C25.3171 21.8256 25.7094 21.4334 25.7094 20.9494C25.7094 20.4655 25.3171 20.0732 24.8332 20.0732C24.3493 20.0732 23.957 20.4655 23.957 20.9494C23.957 21.4334 24.3493 21.8256 24.8332 21.8256Z" fill="#79E26D"/>
<path d="M17.9297 55.0677V52.5718C17.9297 52.2266 18.2218 51.9346 18.5669 51.9346H25.1783C25.5234 51.9346 25.8155 52.2266 25.8155 52.5718V55.0677C25.8155 55.4128 25.5234 55.7049 25.1783 55.7049H18.5669C18.2218 55.7049 17.9297 55.4128 17.9297 55.0677Z" fill="#383838"/>
<path d="M24.2219 54.6967C24.7058 54.6967 25.0981 54.3045 25.0981 53.8205C25.0981 53.3366 24.7058 52.9443 24.2219 52.9443C23.738 52.9443 23.3457 53.3366 23.3457 53.8205C23.3457 54.3045 23.738 54.6967 24.2219 54.6967Z" fill="#FF5050"/>
<path d="M21.9641 54.6967C22.448 54.6967 22.8403 54.3045 22.8403 53.8205C22.8403 53.3366 22.448 52.9443 21.9641 52.9443C21.4802 52.9443 21.0879 53.3366 21.0879 53.8205C21.0879 54.3045 21.4802 54.6967 21.9641 54.6967Z" fill="#FFDD50"/>
<path d="M19.7356 54.6967C20.2195 54.6967 20.6118 54.3045 20.6118 53.8205C20.6118 53.3366 20.2195 52.9443 19.7356 52.9443C19.2517 52.9443 18.8594 53.3366 18.8594 53.8205C18.8594 54.3045 19.2517 54.6967 19.7356 54.6967Z" fill="#79E26D"/>
<path d="M59.6163 24.9058V27.4016C59.6163 27.7468 59.3242 28.0389 58.9791 28.0389H52.3677C52.0225 28.0389 51.7305 27.7468 51.7305 27.4016V24.9058C51.7305 24.5606 52.0225 24.2686 52.3677 24.2686H58.9791C59.3242 24.2686 59.6163 24.5606 59.6163 24.9058Z" fill="#383838"/>
<path d="M53.3235 27.0302C53.8074 27.0302 54.1997 26.6379 54.1997 26.154C54.1997 25.6701 53.8074 25.2778 53.3235 25.2778C52.8396 25.2778 52.4473 25.6701 52.4473 26.154C52.4473 26.6379 52.8396 27.0302 53.3235 27.0302Z" fill="#FF5050"/>
<path d="M55.5793 27.0302C56.0632 27.0302 56.4555 26.6379 56.4555 26.154C56.4555 25.6701 56.0632 25.2778 55.5793 25.2778C55.0954 25.2778 54.7031 25.6701 54.7031 26.154C54.7031 26.6379 55.0954 27.0302 55.5793 27.0302Z" fill="#FFDD50"/>
<path d="M57.8098 27.0302C58.2937 27.0302 58.686 26.6379 58.686 26.154C58.686 25.6701 58.2937 25.2778 57.8098 25.2778C57.3259 25.2778 56.9336 25.6701 56.9336 26.154C56.9336 26.6379 57.3259 27.0302 57.8098 27.0302Z" fill="#79E26D"/>
<path d="M52.3086 47.7557V49.5347H59.6634V47.7557H52.3086Z" fill="#444B8C"/>
<path d="M52.3262 44.287V46.0659H59.681V44.287H52.3262Z" fill="#444B8C"/>
<path d="M52.3184 40.8177V42.5967H59.6732V40.8177H52.3184Z" fill="#444B8C"/>
<path d="M52.3086 37.349V39.1279H59.6634V37.349H52.3086Z" fill="#444B8C"/>
<path d="M52.3262 33.8788V35.6577H59.681V33.8788H52.3262Z" fill="#444B8C"/>
<path d="M52.3164 30.411V32.1899H59.6712V30.411H52.3164Z" fill="#444B8C"/>
</svg>
