<svg width="51" height="48" viewBox="0 0 51 48" fill="none" xmlns="http://www.w3.org/2000/svg">
<path d="M22.6071 25.4834L17.6744 20.1763C17.3595 19.8671 17.0971 19.1458 17.0971 18.7336L16.9397 13.2204V13.0658C16.9397 12.1898 16.2575 11.52 15.3654 11.52H10.4852H8.5961C7.80896 11.52 6.96936 12.0353 6.60203 12.7566L0.147529 26.2048C-0.00989751 26.5654 -0.0623731 26.9776 0.0950537 27.3898C0.25248 27.8021 0.514858 28.0597 0.934663 28.2658L1.87922 28.678C2.08913 28.781 2.29903 28.8326 2.50893 28.8326C3.13864 28.8326 3.71587 28.4719 3.97825 27.9566L7.02183 21.9797V27.9566C7.02183 28.0082 6.96936 28.0082 6.96936 28.0597L1.82675 43.8265C1.61685 44.4963 1.66932 45.1661 2.03665 45.7844C2.40398 46.4027 2.92874 46.8149 3.61092 46.9695L3.97825 47.0726C4.18815 47.1241 4.45053 47.1756 4.66043 47.1756C5.86737 47.1756 6.91688 46.4027 7.28421 45.3207L12.0595 30.5329L13.7387 34.6034C14.1585 35.5824 14.5783 37.3343 14.7357 38.4163L15.5754 45.939C15.6803 47.1241 16.6773 48 17.8843 48C18.0942 48 18.3041 48 18.4615 47.9485L18.8288 47.8454C20.1932 47.5363 21.1902 46.1451 20.9803 44.7539L19.7734 35.5824C19.616 34.3973 19.0912 32.5939 18.6189 31.5119L16.9922 27.8536C16.9922 27.8021 16.9397 27.7505 16.9397 27.699V25.2258L19.8783 28.2143C20.1932 28.5234 20.5605 28.678 20.9803 28.678C21.4001 28.678 21.8199 28.5234 22.0823 28.2143L22.6071 27.6475C23.1843 27.0807 23.1843 26.1017 22.6071 25.4834Z" fill="#444B8C"/>
<path d="M12.9597 10.56C15.8637 10.56 18.2397 8.184 18.2397 5.28C18.2397 2.376 15.8637 0 12.9597 0C10.0557 0 7.67969 2.376 7.67969 5.28C7.67969 8.184 10.0557 10.56 12.9597 10.56Z" fill="#444B8C"/>
<path d="M50.9998 28.9915C50.9996 28.6801 50.9889 28.3703 50.9686 28.0625C49.5513 28.0625 25.4552 28.0625 24.6924 28.0625L23.4842 24.1359C23.018 22.6207 21.5595 21.5625 19.9375 21.5625C19.4197 21.5625 19 21.9822 19 22.5C19 23.0177 19.4197 23.4375 19.9375 23.4375C20.7314 23.4375 21.4693 23.9631 21.6921 24.6872C23.2445 29.7324 23.0937 29.2447 23.1134 29.3024C23.1436 29.3905 23.3009 29.83 24.8767 34.2421C25.4524 35.8543 27.2637 36.9375 29.3839 36.9375H32.6152L31.7399 39.1253C29.0129 38.6655 26.5625 40.7786 26.5625 43.5C26.5625 45.9615 28.5557 48 31 48C33.1483 48 34.9159 46.435 35.3387 44.4375H38.6613C38.8372 45.2685 39.2451 46.0368 39.8542 46.6609C41.5976 48.4473 44.402 48.4478 46.1458 46.6609C46.9788 45.8074 47.4375 44.6848 47.4375 43.5C47.4375 40.7782 44.9866 38.6656 42.2601 39.1253L41.3847 36.9375H44.6161C46.7339 36.9375 48.5435 35.8566 49.1213 34.2474C51.0576 29.0119 50.9998 29.2342 50.9998 28.9915ZM38.663 42.5625H35.3369C35.0918 41.4277 34.4122 40.4527 33.4806 39.8223L34.6347 36.9375H39.3653L40.5193 39.8223C39.5878 40.4527 38.9081 41.4277 38.663 42.5625Z" fill="#444B8C"/>
<path d="M50.7146 26.1875C49.5581 20.541 44.8524 16 38.9984 16H37.4984C37.0944 16 36.7357 16.2589 36.6086 16.6424L33.4434 26.1875H50.7146Z" fill="#444B8C"/>
</svg>
