<svg width="53" height="53" viewBox="0 0 53 53" fill="none" xmlns="http://www.w3.org/2000/svg">
<path d="M25.2687 8.80197C27.5259 10.1306 30.4427 9.37139 31.7618 7.12291C33.0956 4.87442 32.3334 1.96892 30.0763 0.654866C27.8191 -0.673784 24.917 0.0854445 23.5832 2.33393C22.2494 4.58241 23.0116 7.48792 25.2687 8.80197Z" fill="#444B8C"/>
<path d="M42.359 31.8125C42.0951 31.8125 41.846 31.8271 41.5821 31.8563L40.0285 24.2202L37.4928 25.1108L38.9585 32.3819C36.9945 33.0389 35.2796 34.2654 34.0191 35.8569L31.9671 34.6304L32.7879 33.2872C33.2569 32.5133 33.3742 31.5643 33.081 30.7029C32.7879 29.8414 32.143 29.1406 31.2929 28.8048L25.6352 26.4687L14.3346 25.1839C14.32 25.1985 14.32 25.2131 14.32 25.2277C14.0855 25.8117 14.0415 26.4103 14.1587 26.9797C13.2353 27.0527 12.5171 27.7974 12.5171 28.7318C12.5171 29.71 13.3086 30.4985 14.2907 30.4985L13.5578 32.2067C12.6344 31.9439 11.6524 31.7833 10.641 31.7833C4.77821 31.7833 0 36.5431 0 42.3833C0 48.2235 4.77821 52.9833 10.641 52.9833C16.5039 52.9833 21.2821 48.2381 21.2821 42.3833C21.2821 38.4996 19.1568 35.0976 16.0202 33.258L17.2074 30.4985H19.1275L25.6206 33.1266L22.1175 38.8062C21.2234 40.2662 21.6925 42.1789 23.1582 43.0695C23.6565 43.3761 24.2282 43.5221 24.7705 43.5221C25.8111 43.5221 26.8371 42.9965 27.4234 42.0329L30.5893 36.8643L32.6413 38.1053C32.055 39.4194 31.7179 40.8648 31.7179 42.3979C31.7179 48.2381 36.4815 52.9979 42.359 52.9979C48.2364 52.9979 53 48.2527 53 42.3979C52.9853 36.5577 48.2218 31.8125 42.359 31.8125ZM10.6264 50.3406C6.22926 50.3406 2.65293 46.7781 2.65293 42.3979C2.65293 38.0177 6.22926 34.4552 10.6264 34.4552C11.2713 34.4552 11.8869 34.5574 12.4732 34.6888L10.26 39.8282C8.99945 40.0034 8.01742 41.0693 8.01742 42.3833C8.01742 43.8142 9.17533 44.9676 10.6117 44.9676C11.5498 44.9676 12.3706 44.4566 12.8249 43.6974H18.4533C17.8084 47.4789 14.5545 50.3406 10.6264 50.3406ZM18.4533 41.0693H12.8396C12.7956 41.0108 12.7663 40.9378 12.7223 40.8794L14.9356 35.7401C16.7677 36.9227 18.0722 38.8354 18.4533 41.0693ZM39.5008 35.01L40.4535 39.6968L36.3642 37.2293C37.1997 36.2657 38.2696 35.4918 39.5008 35.01ZM42.359 50.3406C37.9618 50.3406 34.3855 46.7781 34.3855 42.3979C34.3855 41.3759 34.5907 40.3976 34.9571 39.4924L39.7647 42.3833C39.7647 42.3833 39.7647 42.3833 39.7647 42.3979C39.7647 43.8288 40.9226 44.9822 42.359 44.9822C43.7954 44.9822 44.9533 43.8142 44.9533 42.3979C44.9533 41.2737 44.2351 40.3246 43.2237 39.9742L42.1098 34.499C42.1977 34.499 42.271 34.4698 42.3443 34.4698C46.7414 34.4698 50.3177 38.0323 50.3177 42.4125C50.3177 46.7781 46.7561 50.3406 42.359 50.3406Z" fill="#444B8C"/>
<path d="M14.3203 25.2424C14.3203 25.2424 17.3543 14.7738 19.4356 12.1749C21.5169 9.576 27.6583 9.38619 27.8781 14.876C28.098 20.3804 23.3637 28.8487 23.3637 28.8487L14.3203 25.2424Z" fill="#444B8C"/>
<path d="M39.3683 27.5054C39.0458 27.5054 38.7087 27.4324 38.4009 27.301L29.6213 23.3297L20.2261 15.2263C19.2441 14.3795 19.1415 12.9049 19.9916 11.9266C20.8417 10.9484 22.3221 10.8462 23.3041 11.693L32.1717 19.3583L40.3357 23.0522C41.5082 23.5925 42.0359 24.9649 41.5082 26.1476C41.1125 26.9944 40.2624 27.5054 39.3683 27.5054Z" fill="#444B8C"/>
</svg>
