<svg width="24" height="48" viewBox="0 0 24 48" fill="none" xmlns="http://www.w3.org/2000/svg">
<path d="M22.6071 25.4834L17.6744 20.1763C17.3595 19.8671 17.0971 19.1458 17.0971 18.7336L16.9397 13.2204V13.0658C16.9397 12.1898 16.2575 11.52 15.3654 11.52H10.4852H8.5961C7.80896 11.52 6.96936 12.0353 6.60203 12.7566L0.147529 26.2048C-0.00989751 26.5654 -0.0623731 26.9776 0.0950537 27.3898C0.25248 27.8021 0.514858 28.0597 0.934663 28.2658L1.87922 28.678C2.08913 28.781 2.29903 28.8326 2.50893 28.8326C3.13864 28.8326 3.71587 28.4719 3.97825 27.9566L7.02183 21.9797V27.9566C7.02183 28.0082 6.96936 28.0082 6.96936 28.0597L1.82675 43.8265C1.61685 44.4963 1.66932 45.1661 2.03665 45.7844C2.40398 46.4027 2.92874 46.8149 3.61092 46.9695L3.97825 47.0726C4.18815 47.1241 4.45053 47.1756 4.66043 47.1756C5.86737 47.1756 6.91688 46.4027 7.28421 45.3207L12.0595 30.5329L13.7387 34.6034C14.1585 35.5824 14.5783 37.3343 14.7357 38.4163L15.5754 45.939C15.6803 47.1241 16.6773 48 17.8843 48C18.0942 48 18.3041 48 18.4615 47.9485L18.8288 47.8454C20.1932 47.5363 21.1902 46.1451 20.9803 44.7539L19.7734 35.5824C19.616 34.3973 19.0912 32.5939 18.6189 31.5119L16.9922 27.8536C16.9922 27.8021 16.9397 27.7505 16.9397 27.699V25.2258L19.8783 28.2143C20.1932 28.5234 20.5605 28.678 20.9803 28.678C21.4001 28.678 21.8199 28.5234 22.0823 28.2143L22.6071 27.6475C23.1843 27.0807 23.1843 26.1017 22.6071 25.4834Z" fill="#444B8C"/>
<path d="M12.9597 10.56C15.8637 10.56 18.2397 8.184 18.2397 5.28C18.2397 2.376 15.8637 0 12.9597 0C10.0557 0 7.67969 2.376 7.67969 5.28C7.67969 8.184 10.0557 10.56 12.9597 10.56Z" fill="#444B8C"/>
</svg>
