<svg width="78" height="51" viewBox="0 0 78 51" fill="none" xmlns="http://www.w3.org/2000/svg"><path d="m4.2 10.5 8 13 1.8 1.7 4.3 3.7 1.5 1.5.1-5.2h-3L12.7 16s-1.6-4.3-8.6-5.4ZM0 44.3h13.1s10.4 3.9 11.2 1a68 68 0 0 1 1.6-5.6s3.9 5.7 5.4 2.7c1.6-3 4.3 3.6 4.3 3.6l.1 2.5-6.4-1-3.4-.8-1.3 1.6s-5 3.9-8.8.8C11.9 46 13 47.4 13 47.4h-11l-2.1-3Z" fill="#96B9EC"/><path d="m21.9 26 5.3 4.1h3.3l2 .4-1.5 10 4.6 7.8 2.7-1.7-2.7-6.9-.3-12.9-5.2-1.4h-8.2v.7ZM66 23.4l-1.8 2-4.4 3.7-1.4 1.4-.2-5.1h3.1l3.9-9.5.7 7.5ZM78 44.3H64.9s-10.4 3.9-11.2 1a68 68 0 0 0-1.6-5.6s-3.7 5.7-5.2 2.7c-1.6-3-4.3 3.6-4.3 3.6l-.2 1.3 6.4.1 3.4-.8 1.2 1.7s5 3.9 8.8.8c3.9-3.1 2.7-1.7 2.7-1.7h11l2.1-3Z" fill="#96B9EC"/><path d="m47.8 30.2-.6 10.3-4.8 6.6-2.7-.5.6-5.7 2.1-1.2.3-12.9 5.5-1.3-.4 4.7Z" fill="#96B9EC"/><path d="M57.5 51a6.5 6.5 0 0 1-5.5-3.1l-11.7-.2c-.3 0-.4-.1-.6-.3l-.1-.1h-.2l-.4.3-5 1.6h-.5l-5-1.6h-2.9a7.2 7.2 0 0 1-5.8 3.3 7 7 0 0 1-5.7-3.2L1 47.6c-.5 0-.9-.5-.9-.9V11c0-.5.4-1 .9-1h3.6c4.1 0 8 2.6 9.8 6.5l3.4 7.7 10.7-10.7c.8-.7 1.8-1.2 3-1.2 1 0 2 .5 3 1.2.3.3.3.9 0 1.2l-.6.3c-.3 0-.5-.2-.6-.3-.5-.5-1-.8-1.6-.8-.6 0-1.2.3-1.7.8l-10.1 10h12.7c2.2 0 4.1 1.8 4.1 4.2V40l2.7 5.4.4-.2v-5c0-.5.5-1 1-1h1l1.3-3.8-1.5-3v-.7l1.5-4.4-.4-1.2c-.2-.4 0-.9.4-1.2l.5-.1c.3 0 .6.1.7.4l.5.7 5.8-1.4H58.4L50 16.2c-.3-.3-.7-.5-1.3-.5-1 0-2.1.5-2.6.6l-.4.2a.8.8 0 0 1-.7-.5c-.2-.4 0-.9.4-1.2a8 8 0 0 1 3.3-.9c1 0 2 .3 2.7 1l8.9 9 3.4-7.7c1.6-3.9 5.5-6.4 9.8-6.4H77c.4 0 .9.4.9.9v36.1c0 .5-.5 1-1 1H64c-2.2 2-4.3 3.2-6.5 3.2Zm0-11.4c-.8 0-1.5.1-2.1.4-.6.3-1.2.8-1.7 1.2-.7 1-1.2 2-1.2 3.1 0 .5 0 1 .2 1.4.1.4.3.9.6 1.1.3.5.7 1 1.2 1.2.9.6 2 1 3 1s2-.2 3-1c.4-.3.8-.7 1.1-1.2.3-.2.5-.7.6-1.1.2-.5.2-1 .2-1.4 0-1.2-.5-2.2-1.2-3-.5-.7-1-1-1.7-1.3-.6-.3-1.3-.4-2-.4Zm-37.7 0c-.7 0-1.5.1-2 .4-.7.3-1.3.8-1.7 1.2-.8 1-1.2 2-1.2 3.1l.1 1.4c.2.4.3.9.6 1.1.3.5.8 1 1.2 1.2 1 .6 2 1 3 1s2-.2 3-1c.4-.3.9-.7 1.2-1.2.3-.2.4-.7.6-1.1l.1-1.4c0-1.2-.4-2.2-1.2-3-.4-.7-1-1-1.6-1.3-.6-.3-1.4-.4-2.1-.4Zm6 2c.4 1 .5 1.8.5 2.9l-.1 1.2v.3h2.5l5 1.4 3.7-1.1-2.6-5.2h-9.2l.2.6Zm37.6 0c.5 1 .6 1.8.6 2.9l-.1 1.2v.3h11.6v-4.8H63.3l.1.5ZM41.1 46h10v-.3c-.2-.5-.2-1-.2-1.2 0-1 .2-2 .6-2.8l.2-.5H41V46ZM1.9 46h11.5v-.3c-.2-.5-.2-1-.2-1.2 0-1 .2-2 .6-2.8l.2-.5H2V46Zm56.5-13c.4 0 .8.4.8.8v4.3h.2c.9.3 1.8.7 2.4 1.3h13.7V26.5H51.2l1.5 5.7c0 .4-.5.9-.9.9h-8.5l1 2c.2.2.2.5 0 .6l-1.1 3.7h10c1.3-1 2.6-1.4 4-1.6h.1l.2-.1v-3.9c0-.4.3-.9.9-.9ZM24 34.4c.3 0 .4.2.6.3l.3.6v4h9.8v-6.3H29a1 1 0 0 1-.9-.6l-1.5-6h-5v4c0 .5-.5 1-1 1-.4 0-.8-.5-.8-1v-4H1.9v13h13.6c1.5-1.1 2.8-1.7 4.4-1.7 1 0 2 .2 2.9.6l.4.1v-3.2c-.1-.3.2-.8.8-.8ZM44.4 28l-1.2 3.3h7.4l-1.2-4.6-5 1.3Zm-15 3.3h5.1v-2.4c0-1.3-1-2.4-2.3-2.4h-4l1.3 4.8Zm43.4-19.4a9 9 0 0 0-8.2 5.3l-3.4 7.7h14.1V12h-2.5V12ZM1.9 24.8h14.2l-3.4-7.6a9 9 0 0 0-8.2-5.3H1.9v12.9Z" fill="#141457"/><path d="M15.8 10.2c-.5 0-1-.4-1-.9V8c0-.5.5-1 1-1 .4 0 .9.5.9 1v1.4c0 .5-.5 1-1 1ZM15.8 4c-.5 0-1-.4-1-.9V1.6c0-.4.5-.9 1-.9.4 0 .9.5.9 1V3c0 .6-.5 1-1 1ZM22.3 11.9c-.1 0-.3 0-.4-.2a.8.8 0 0 1-.2-1.2l1-1.2c0-.1.4-.3.7-.3.1 0 .3 0 .4.2.2.1.3.3.3.6l-.1.6-1 1.2c-.2.1-.4.3-.7.3ZM26 7l-.4-.2a.8.8 0 0 1-.1-1.2l.8-1.1c.2-.2.5-.3.8-.3l.4.1c.5.3.5.9.2 1.2l-1 1.2c-.2.1-.4.3-.7.3ZM40.8 22.7a.8.8 0 0 1-.8-.5l-.4-1a.4.4 0 0 1 0-.6l.4-.4.5-.2c.3 0 .6.2.7.5l.5 1v.6c0 .1-.3.4-.5.4l-.4.2ZM53.1 12c-.3 0-.4-.1-.6-.3a.9.9 0 0 1 0-1.2l1.2-1.2.6-.3.6.3c.3.3.3 1 0 1.2l-1.2 1.2c-.1.3-.3.3-.6.3ZM59 6.2c-.4 0-.5-.1-.6-.3a.9.9 0 0 1 0-1.2l1.1-1 .6-.3.6.3c.2.2.3.3.3.6s-.1.4-.3.6l-1.2 1.2-.6.1ZM60.1 12c-.3 0-.4-.1-.6-.3l-1.1-1.2a.9.9 0 0 1 0-1.2l.5-.3c.3 0 .5.2.6.3l1.2 1.2.3.6c0 .3-.1.5-.3.6-.1.3-.4.3-.6.3ZM54.3 6.2c-.3 0-.4-.1-.6-.3l-1.2-1.2-.3-.5c0-.3.2-.5.3-.6l.6-.3c.3 0 .5.1.6.3L55 4.7l.3.6c0 .3-.1.5-.3.6-.1.3-.3.3-.6.3Z" fill="#141457"/></svg>