<svg width="215" height="177" viewBox="0 0 215 177" fill="none" xmlns="http://www.w3.org/2000/svg">
    <path d="M107.483 176.033C166.739 176.033 214.776 171.217 214.776 165.275C214.776 159.333 166.739 154.516 107.483 154.516C48.2262 154.516 0.189453 159.333 0.189453 165.275C0.189453 171.217 48.2262 176.033 107.483 176.033Z" fill="currentColor"/>
    <path d="M83.7966 18.4004L34.533 20.5581C31.1407 20.5581 28.1387 23.3451 28.1387 27.6306V160.18C28.1387 163.267 30.4803 165.844 33.5724 166.114L81.1548 170.879L119.191 160.989L176.71 161.768C179.712 161.798 182.144 159.401 182.144 156.404V31.6164C182.144 28.6795 179.742 26.282 176.8 26.2521L120.302 26.0423L83.7966 18.4004Z" fill="#552A60"/>
    <path d="M33.3027 157.393V28.0203C33.3027 26.7316 34.3234 25.6827 35.5843 25.6228L83.7672 23.585L120.392 31.2568L174.249 31.4666C175.75 31.4666 176.951 32.6653 176.951 34.1637V153.287C176.951 154.606 175.87 155.685 174.519 155.685L119.161 155.145L81.1254 163.387L35.5242 159.761C34.2934 159.701 33.3027 158.652 33.3027 157.393Z" fill="white"/>
    <path d="M36.7246 25.563L44.9202 80.5247C45.3705 83.4916 47.9222 85.6493 50.8943 85.6493L83.9168 85.4395C83.9168 85.4395 84.247 75.3402 83.8868 75.3402H76.7419C75.9313 75.3103 75.2709 74.651 75.2709 73.8418L75.361 23.8848L69.8372 24.1245V74.1115C69.8372 74.7708 69.2968 75.3103 68.6364 75.3103L53.5661 75.2803C52.1251 75.2503 50.8943 74.2014 50.6541 72.763L42.8488 25.2933L36.7246 25.563Z" fill="#D8DEE8"/>
    <path d="M120.422 31.2568L119.701 101.862L119.641 107.586L119.161 155.175L81.125 163.417L82.1457 110.822L82.4759 92.0624L82.626 85.4694L82.8061 75.6098L83.7968 23.585L120.422 31.2568Z" fill="#D8DEE8"/>
    <path d="M119.79 92.7518L119.7 101.862L119.67 107.586L109.133 87.4474C108.653 86.3985 107.602 85.7092 106.431 85.6793L96.044 85.7092C95.2335 85.6793 94.4529 86.1588 94.1227 86.878L82.1445 110.823L82.5048 92.0625L85.5068 86.3386C85.687 85.949 85.4168 85.4995 84.9665 85.4695L82.6249 85.4395L82.805 75.58L86.5575 75.55C87.6683 75.55 88.689 74.9207 89.1993 73.9317L106.371 40.667L108.593 49.6874L96.1941 74.5011C95.9239 75.1005 96.3442 75.7897 97.0047 75.7897L106.191 75.8197C109.673 75.8197 112.855 77.8576 114.326 81.0342L119.79 92.7518Z" fill="#A2A7AE"/>
    <path d="M82.5356 110.313L68.7862 134.587C67.045 137.554 63.8629 139.352 60.4105 139.322L33.332 138.633V129.253L58.9095 129.583C59.9602 129.613 60.9809 129.073 61.5213 128.144L82.5356 92.542V110.313Z" fill="#D8DEE8"/>
    <path d="M156.835 155.535L132.039 116.876C131.648 116.277 132.099 115.497 132.789 115.497H164.281C165.932 115.497 167.283 114.149 167.283 112.501V55.0215L162.239 61.7044L156.505 79.3257L157.946 78.6364L161.729 83.1916C162.269 83.8509 162.569 84.66 162.569 85.4992V108.185C162.569 109.174 161.759 109.983 160.768 109.983H129.637C128.886 109.983 128.166 109.564 127.806 108.904L119.79 94.3997L119.58 115.737L120.331 115.617C121.021 115.497 121.742 115.827 122.132 116.426L146.929 155.385L156.835 155.535Z" fill="#D8DEE8"/>
    <path d="M95.3535 160.3V118.195C95.3535 113.999 98.8359 110.613 103.039 110.703L119.61 111.122L119.58 115.768L102.408 115.528C100.907 115.498 99.6765 116.727 99.6765 118.225V159.371L95.3535 160.3Z" fill="#A2A7AE"/>
    <path d="M137.653 0C150.232 0 173.348 8.2113 173.348 36.2915C173.348 62.8434 150.172 98.086 137.653 98.086C125.135 98.086 101.959 62.8733 101.959 36.2915C101.959 8.2113 125.045 0 137.653 0Z" fill="#F26846"/>
    <path d="M138.433 59.0676C149.873 59.0676 159.147 49.8097 159.147 38.3895C159.147 26.9693 149.873 17.7114 138.433 17.7114C126.993 17.7114 117.719 26.9693 117.719 38.3895C117.719 49.8097 126.993 59.0676 138.433 59.0676Z" fill="white"/>
    <path d="M138.133 118.494C141.997 118.494 145.128 115.368 145.128 111.512C145.128 107.656 141.997 104.529 138.133 104.529C134.27 104.529 131.139 107.656 131.139 111.512C131.139 115.368 134.27 118.494 138.133 118.494Z" fill="#F26846"/>
    <path d="M159.148 38.3895C159.148 49.8074 149.872 59.0675 138.464 59.0675C136.483 59.0675 134.532 58.7978 132.73 58.2584C145.489 55.4414 155.516 45.402 158.368 32.6655C158.848 34.4936 159.148 36.4116 159.148 38.3895Z" fill="#D8DEE8"/>
</svg>
