<svg width="24" height="24" viewBox="0 0 24 24" fill="none" xmlns="http://www.w3.org/2000/svg">
<path d="M13 5.99915C13 5.44686 12.5523 4.99915 12 4.99915C11.4477 4.99915 11 5.44686 11 5.99915H13ZM11 17.9991C11 18.5514 11.4477 18.9991 12 18.9991C12.5523 18.9991 13 18.5514 13 17.9991H11ZM11 5.99915V17.9991H13V5.99915H11Z" fill="currentColor"/>
<path d="M6 11.0009C5.44772 11.0009 5 11.4486 5 12.0009C5 12.5531 5.44772 13.0009 6 13.0009L6 11.0009ZM18 13.0009C18.5523 13.0009 19 12.5531 19 12.0009C19 11.4486 18.5523 11.0009 18 11.0009L18 13.0009ZM6 13.0009L18 13.0009L18 11.0009L6 11.0009L6 13.0009Z" fill="currentColor"/>
<circle cx="12" cy="12" r="11" stroke="currentColor" stroke-width="2"/>
</svg>
