<svg width="56" height="56" viewBox="0 0 56 56" fill="none" xmlns="http://www.w3.org/2000/svg">
<circle cx="28" cy="28" r="28" fill="currentColor"/>
<path d="M30.7854 30.7995L30.7854 40.0278C30.7854 40.1421 30.6997 40.2278 30.5855 40.2278L26.0142 40.2278C25.8999 40.2278 25.8142 40.1421 25.8142 40.0278L25.8142 30.7995L16.5859 30.7995C16.4716 30.7995 16.3859 30.7138 16.3859 30.5995L16.3716 26.0139C16.3716 25.8996 16.4573 25.8139 16.5716 25.8139L25.7999 25.8139L25.7999 16.5856C25.7999 16.4714 25.8856 16.3856 25.9999 16.3856L30.5854 16.3714C30.6997 16.3714 30.7854 16.4571 30.7854 16.5713L30.7854 25.7996L40.028 25.8139C40.1423 25.8139 40.228 25.8996 40.228 26.0139L40.228 30.6138C40.228 30.7281 40.1423 30.8138 40.028 30.8138L30.7854 30.7995Z" fill="white"/>
</svg>
