<svg width="15" height="15" viewBox="0 0 15 15" fill="none" xmlns="http://www.w3.org/2000/svg">
<path d="M7.5 15C11.6421 15 15 11.6421 15 7.5C15 3.35786 11.6421 0 7.5 0C3.35786 0 0 3.35786 0 7.5C0 11.6421 3.35786 15 7.5 15Z" fill="#55B4F3"/>
<path d="M7.56399 11.5723C7.26524 11.5723 7.01367 11.3207 7.01367 11.022V3.67922C7.01367 3.38048 7.26524 3.12891 7.56399 3.12891C7.86273 3.12891 8.1143 3.38048 8.1143 3.67922V11.0063C8.1143 11.3207 7.86273 11.5723 7.56399 11.5723Z" fill="white"/>
<path d="M11.4623 7.89311H3.6636C3.36485 7.89311 3.11328 7.64154 3.11328 7.3428C3.11328 7.04405 3.36485 6.79248 3.6636 6.79248H11.4623C11.7611 6.79248 12.0127 7.04405 12.0127 7.3428C12.0127 7.64154 11.7611 7.89311 11.4623 7.89311Z" fill="white"/>
</svg>
