<svg width="182" height="191" viewBox="0 0 182 191" fill="none" xmlns="http://www.w3.org/2000/svg"><path d="M91 191c50.26 0 91-8.06 91-18s-40.74-18-91-18-91 8.06-91 18 40.74 18 91 18Z" fill="#DFDFEC"/><path d="M147.16 173.93H33.63A5.63 5.63 0 0 1 28 168.3V5.63C28 2.52 30.52 0 33.63 0h113.53c3.1 0 5.63 2.52 5.63 5.63V168.3a5.63 5.63 0 0 1-5.63 5.63Z" fill="#FFFFF8"/><path d="M122.5 155.36H58.29v-31.93h64.2v31.93Zm-64.12-.09h64.03v-31.76H58.38v31.76Z" fill="#636D72"/><path d="M122.45 147.3H58.33v.1h64.12v-.1ZM122.45 139.35H58.33v.09h64.12v-.1ZM122.45 131.39H58.33v.08h64.12v-.08Z" fill="#636D72"/><path d="M114.48 123.47h-.09v31.85h.09v-31.85ZM106.47 123.47h-.09v31.85h.09v-31.85ZM98.45 123.47h-.09v31.85h.1v-31.85ZM90.44 123.47h-.1v31.85h.1v-31.85ZM82.42 123.47h-.09v31.85h.1v-31.85ZM74.4 123.47h-.08v31.85h.09v-31.85ZM66.4 123.47h-.1v31.85h.1v-31.85ZM108.45 113.99h-35.7v.35h35.7v-.35Z" fill="#636D72"/><path d="M90.4 155.38v3.16H72.1c-.2 0-.35.16-.35.35v8.42c0 .78-.63 1.4-1.41 1.4h-2.11v-9.82c0-.19-.16-.35-.35-.35H56.22a1.4 1.4 0 0 1-1.4-1.4V121.7c0-.77.62-1.4 1.4-1.4H69.7c.2 0 .35-.16.35-.36V30.73c0-.2-.15-.35-.35-.35H33.6v-3.46c0-.77.63-1.4 1.4-1.4h37.17c.77 0 1.4.63 1.4 1.4v95.14c0 .78-.63 1.41-1.4 1.41H58.68c-.19 0-.35.16-.35.35v31.2c0 .2.16.36.35.36H90.4Z" fill="#55B4F3"/><path d="M88.04 9.02H34.38a1.23 1.23 0 0 1 0-2.46h53.66a1.23 1.23 0 0 1 0 2.46ZM60.39 36.02H40.04a.88.88 0 0 1 0-1.76h20.35a.88.88 0 0 1 0 1.76ZM60.39 52.94H40.04a.88.88 0 0 1 0-1.76h20.35a.88.88 0 0 1 0 1.76ZM60.39 74.48H40.04a.88.88 0 0 1 0-1.76h20.35a.88.88 0 0 1 0 1.76ZM60.39 84.49H40.04a.88.88 0 0 1 0-1.76h20.35a.88.88 0 0 1 0 1.76ZM60.39 89.16H40.04a.88.88 0 0 1 0-1.76h20.35a.88.88 0 0 1 0 1.76ZM60.39 106.2H40.04a.88.88 0 0 1 0-1.76h20.35a.88.88 0 1 1 0 1.75ZM60.39 162.13H40.04a.88.88 0 0 1 0-1.75h20.35a.88.88 0 1 1 0 1.75ZM139.6 36.02h-20.34a.88.88 0 0 1 0-1.76h20.35a.88.88 0 0 1 0 1.76ZM139.6 52.94h-20.34a.88.88 0 0 1 0-1.76h20.35a.88.88 0 0 1 0 1.76ZM139.6 74.48h-20.34a.88.88 0 0 1 0-1.76h20.35a.88.88 0 0 1 0 1.76ZM139.6 84.49h-20.34a.88.88 0 0 1 0-1.76h20.35a.88.88 0 0 1 0 1.76ZM139.6 89.16h-20.34a.88.88 0 0 1 0-1.76h20.35a.88.88 0 0 1 0 1.76ZM139.6 106.2h-20.34a.88.88 0 0 1 0-1.76h20.35a.88.88 0 1 1 0 1.75ZM139.6 162.13h-20.34a.88.88 0 0 1 0-1.75h20.35a.88.88 0 1 1 0 1.75ZM117.54 17.5H33.48v-2.72c0-.92.75-1.67 1.67-1.67h80.72c.92 0 1.67.75 1.67 1.67v2.72Zm-83.53-.53h83v-2.19c0-.63-.51-1.14-1.14-1.14H35.15c-.63 0-1.14.51-1.14 1.14v2.2Z" fill="#636D72"/><path d="M144.4 22.36H35.16c-.92 0-1.67-.75-1.67-1.67v-3.72h110.93c.92 0 1.67.75 1.67 1.67v2.05c0 .92-.75 1.67-1.67 1.67ZM34.02 17.5v3.19c0 .63.51 1.14 1.14 1.14h109.26c.63 0 1.14-.51 1.14-1.14v-2.05c0-.63-.52-1.14-1.14-1.14H34Z" fill="#636D72"/><path d="M70.63 44.6H33.6V27.4c0-.98.8-1.77 1.76-1.77h35.27c.97 0 1.75.8 1.75 1.76v15.45c0 .97-.79 1.76-1.75 1.76Zm-36.32-.7h36.32c.58 0 1.05-.48 1.05-1.06V27.4c0-.58-.47-1.05-1.05-1.05H35.36c-.58 0-1.05.47-1.05 1.05v16.5Z" fill="#55B4F3"/><path d="M70.63 62.99H33.6V43.9h37.03c.97 0 1.75.79 1.75 1.76v15.57c0 .96-.79 1.76-1.75 1.76Zm-36.32-.7h36.32c.58 0 1.05-.48 1.05-1.06V45.66c0-.58-.47-1.05-1.05-1.05H34.3v17.67Z" fill="#55B4F3"/><path d="M70.63 96.63H33.6V62.28h37.03c.97 0 1.75.8 1.75 1.76v30.83c0 .97-.79 1.76-1.75 1.76Zm-36.32-.7h36.32c.58 0 1.05-.48 1.05-1.06V64.04c0-.58-.47-1.05-1.05-1.05H34.3v32.94Z" fill="#55B4F3"/><path d="M70.63 123.24H33.6V95.93h37.03c.97 0 1.75.79 1.75 1.76v23.8c0 .96-.79 1.75-1.75 1.75Zm-36.32-.7h36.32c.58 0 1.05-.48 1.05-1.06v-23.8c0-.57-.47-1.05-1.05-1.05H34.3v25.9Z" fill="#55B4F3"/><path d="M54.62 156.41H33.6v-33.88h21.02c.97 0 1.76.8 1.76 1.76v30.36c0 .97-.8 1.76-1.76 1.76Zm-20.31-.7h20.3c.59 0 1.06-.48 1.06-1.06V124.3c0-.58-.47-1.05-1.05-1.05H34.3v32.47Z" fill="#55B4F3"/><path d="M69.33 168.71H38.18a4.58 4.58 0 0 1-4.58-4.57v-8.43h35.73v13Zm-35.02-12.3v7.73a3.87 3.87 0 0 0 3.87 3.87h30.45v-11.6H34.3Z" fill="#55B4F3"/><path d="M53.1 145.1h-5.85a.09.09 0 0 1-.08-.1v-8.33c0-.05.03-.09.08-.09h5.86c.05 0 .08.04.08.09V145c0 .05-.03.09-.08.09Zm-5.76-.18h5.68v-8.16h-5.68v8.16ZM45.1 142.06h-3.75a.09.09 0 0 1-.09-.09v-4.66c0-.05.04-.1.09-.1h3.74c.05 0 .1.05.1.1v4.66c0 .05-.05.09-.1.09Zm-3.66-.18H45v-4.49h-3.57v4.5Z" fill="#636D72"/><path d="M44.76 144.93h-3.08a.09.09 0 0 1-.09-.1v-2.86c0-.05.04-.09.1-.09h3.07c.05 0 .09.04.09.09v2.87c0 .05-.04.09-.09.09Zm-2.99-.18h2.9v-2.7h-2.9v2.7ZM44.76 137.4h-3.08a.09.09 0 0 1-.09-.1v-2.68c0-.04.04-.08.1-.08h3.07c.05 0 .09.04.09.09v2.68c0 .04-.04.08-.09.08Zm-2.99-.18h2.9v-2.5h-2.9v2.5ZM52.41 136.76h-4.45a.09.09 0 0 1-.1-.1v-.92c0-.05.05-.1.1-.1h4.45c.05 0 .09.05.09.1v.93c0 .05-.04.09-.09.09Zm-4.37-.18h4.28v-.76h-4.28v.76Z" fill="#636D72"/><path d="M52.11 135.82h-3.86a.09.09 0 0 1-.09-.08v-2.23c0-.05.04-.08.1-.08h3.85c.05 0 .09.03.09.08v2.23c0 .04-.04.08-.09.08Zm-3.77-.17h3.68v-2.05h-3.68v2.05ZM37.7 140.73c-.38 0-.7-.45-.7-1 0-.56.32-1 .7-1 .4 0 .71.44.71 1 0 .55-.32 1-.7 1Zm0-1.83c-.28 0-.52.37-.52.83 0 .45.24.82.53.82.29 0 .53-.37.53-.82 0-.46-.24-.83-.53-.83Z" fill="#636D72"/><path d="M37.7 143.13c-.29 0-.44-.65-.44-1.3 0-.63.15-1.28.45-1.28.3 0 .45.65.45 1.29s-.16 1.29-.45 1.29Zm0-2.4c-.09 0-.27.4-.27 1.1 0 .73.19 1.12.28 1.12.09 0 .28-.4.28-1.11 0-.72-.2-1.11-.28-1.11ZM37.7 138.77c-.34 0-.63-.22-.63-.48 0-.27.29-.49.64-.49.35 0 .63.22.63.49 0 .26-.28.48-.63.48Zm0-.8c-.24 0-.45.15-.45.31 0 .17.2.31.46.31.25 0 .46-.14.46-.3 0-.17-.22-.32-.46-.32Z" fill="#636D72"/><path d="M37.7 137.97a.09.09 0 0 1-.08-.08v-1.05c0-.05.04-.09.09-.09.05 0 .09.04.09.09v1.05c0 .05-.05.08-.1.08ZM37.7 144.22a.09.09 0 0 1-.08-.09v-1.1c0-.04.04-.08.09-.08.05 0 .09.04.09.08v1.1c0 .05-.05.1-.1.1ZM37.32 141.85c-.02 0-.04 0-.06-.03l-.43-.43a.08.08 0 0 1-.03-.06v-1.07a.1.1 0 0 1 .03-.06l.23-.24c.04-.03.1-.03.13 0 .03.04.03.1 0 .12l-.21.21v1l.4.4c.04.04.04.1 0 .13a.07.07 0 0 1-.06.03ZM38.1 141.85a.1.1 0 0 1-.06-.03c-.03-.03-.03-.09 0-.12l.41-.4v-1l-.2-.2c-.04-.04-.04-.1 0-.13.03-.03.08-.04.12 0l.23.23c.02.02.03.04.03.07v1.07a.1.1 0 0 1-.03.06l-.43.43a.13.13 0 0 1-.06.02ZM36.27 138.98a.09.09 0 0 1-.08-.04c-.02-.04 0-.1.04-.12l.84-.46a.1.1 0 0 1 .04 0h.6c.05 0 .09.03.09.08s-.04.09-.1.09h-.57l-.82.44a.1.1 0 0 1-.04.01Z" fill="#636D72"/><path d="M39.14 138.98a.1.1 0 0 1-.04 0l-.82-.45h-.57a.09.09 0 0 1-.1-.09c0-.05.05-.09.1-.09h.6a.1.1 0 0 1 .04.01l.84.46c.04.02.06.08.03.12-.02.03-.05.04-.08.04ZM133.53 145.1h-5.85a.09.09 0 0 1-.09-.1v-8.33c0-.05.04-.09.09-.09h5.85c.05 0 .09.04.09.09V145c0 .05-.04.09-.09.09Zm-5.76-.18h5.67v-8.16h-5.67v8.16ZM139.44 142.06h-3.75a.09.09 0 0 1-.09-.09v-4.66c0-.05.04-.1.1-.1h3.74c.05 0 .09.05.09.1v4.66c0 .05-.04.09-.1.09Zm-3.66-.18h3.57v-4.49h-3.57v4.5Z" fill="#636D72"/><path d="M139.1 144.93h-3.07a.09.09 0 0 1-.09-.1v-2.86c0-.05.04-.09.09-.09h3.08c.04 0 .08.04.08.09v2.87c0 .05-.04.09-.08.09Zm-2.98-.18h2.9v-2.7h-2.9v2.7ZM139.1 137.4h-3.07a.09.09 0 0 1-.09-.1v-2.68c0-.04.04-.08.09-.08h3.08c.04 0 .08.04.08.09v2.68a.1.1 0 0 1-.08.08Zm-2.98-.18h2.9v-2.5h-2.9v2.5ZM132.83 136.76h-4.45a.09.09 0 0 1-.09-.1v-.92c0-.05.04-.1.09-.1h4.45c.05 0 .09.05.09.1v.93c0 .05-.04.09-.09.09Zm-4.36-.18h4.27v-.76h-4.27v.76Z" fill="#636D72"/><path d="M132.53 135.82h-3.85a.09.09 0 0 1-.1-.08v-2.23c0-.05.05-.08.1-.08h3.85c.06 0 .1.03.1.08v2.23c0 .04-.04.08-.1.08Zm-3.77-.17h3.69v-2.05h-3.69v2.05ZM143.08 140.73c-.4 0-.7-.45-.7-1 0-.56.3-1 .7-1 .39 0 .7.44.7 1 0 .55-.31 1-.7 1Zm0-1.83c-.3 0-.53.37-.53.83 0 .45.24.82.53.82.3 0 .53-.37.53-.82 0-.46-.24-.83-.53-.83Z" fill="#636D72"/><path d="M143.08 143.13c-.3 0-.45-.65-.45-1.3 0-.63.15-1.28.45-1.28.3 0 .45.65.45 1.29s-.15 1.29-.45 1.29Zm0-2.4c-.1 0-.28.4-.28 1.1 0 .73.19 1.12.28 1.12.1 0 .28-.4.28-1.11 0-.72-.19-1.11-.28-1.11ZM143.08 138.77c-.35 0-.64-.22-.64-.48 0-.27.29-.49.64-.49.35 0 .64.22.64.49 0 .26-.29.48-.64.48Zm0-.8c-.25 0-.46.15-.46.31 0 .17.21.31.46.31s.46-.14.46-.3c0-.17-.21-.32-.46-.32Z" fill="#636D72"/><path d="M143.08 137.97a.09.09 0 0 1-.09-.08v-1.05c0-.05.04-.09.09-.09.05 0 .09.04.09.09v1.05c0 .05-.04.08-.09.08ZM143.08 144.22a.09.09 0 0 1-.09-.09v-1.1c0-.04.04-.08.09-.08.05 0 .09.04.09.08v1.1c0 .05-.04.1-.09.1ZM143.46 141.85a.1.1 0 0 1-.06-.03c-.03-.03-.03-.09 0-.12l.4-.4v-1l-.2-.2c-.03-.04-.03-.1 0-.13.04-.04.1-.04.12 0l.24.23c.02.02.02.04.02.07v1.07a.1.1 0 0 1-.02.06l-.43.43a.13.13 0 0 1-.07.02ZM142.68 141.85c-.02 0-.05 0-.06-.03l-.44-.43a.08.08 0 0 1-.02-.06v-1.07a.1.1 0 0 1 .02-.06l.24-.24c.03-.03.09-.03.12 0 .03.04.04.1 0 .12l-.2.21v1l.4.4c.04.04.04.1 0 .13a.07.07 0 0 1-.06.03ZM144.51 138.98a.1.1 0 0 1-.04 0l-.81-.45h-.58a.09.09 0 0 1-.09-.09c0-.05.04-.09.09-.09h.6a.1.1 0 0 1 .04.01l.84.46c.04.02.06.08.04.12a.1.1 0 0 1-.09.04Z" fill="#636D72"/><path d="M141.65 138.98a.1.1 0 0 1-.08-.04c-.03-.04-.01-.1.03-.12l.84-.46a.1.1 0 0 1 .04 0h.6c.05 0 .09.03.09.08s-.04.09-.09.09h-.58l-.81.44a.1.1 0 0 1-.04.01Z" fill="#636D72"/><g opacity=".87"><path opacity=".87" d="M103.87 35.64H77.61a.36.36 0 0 1-.35-.38v-1.11c0-.21.15-.38.35-.38h26.26c.2 0 .35.17.35.38v1.11c0 .2-.15.38-.35.38ZM103.87 44.25H77.61a.36.36 0 0 1-.36-.37v-1.12c0-.2.16-.37.36-.37h26.26c.2 0 .35.16.35.37v1.12c0 .2-.15.37-.35.37ZM103.87 54.18H77.61a.36.36 0 0 1-.36-.37v-1.12c0-.2.16-.37.36-.37h26.26c.2 0 .35.16.35.37v1.12c0 .2-.15.37-.35.37ZM103.87 64.12H77.61a.36.36 0 0 1-.36-.37v-1.12c0-.21.16-.38.36-.38h26.26c.2 0 .35.17.35.38v1.12c0 .2-.15.37-.35.37ZM103.87 74.05H77.61a.36.36 0 0 1-.36-.37v-1.12c0-.2.16-.37.36-.37h26.26c.2 0 .35.16.35.37v1.12c0 .2-.15.37-.35.37ZM103.87 83.98H77.61a.36.36 0 0 1-.36-.37V82.5c0-.2.16-.37.36-.37h26.26c.2 0 .35.17.35.37v1.12c0 .2-.15.37-.35.37ZM103.87 93.92H77.61a.36.36 0 0 1-.36-.38v-1.11c0-.21.16-.38.36-.38h26.26c.2 0 .35.17.35.38v1.11c0 .21-.15.38-.35.38ZM103.87 104.22H77.61a.36.36 0 0 1-.36-.37v-1.12c0-.21.16-.38.36-.38h26.26c.2 0 .35.17.35.38v1.12c0 .2-.15.37-.35.37Z" fill="#314EAA"/></g><path d="M77.18 17.23h-.53v4.86h.53v-4.86ZM67.74 13.38h-.53v3.93h.53v-3.93Z" fill="#636D72"/><path d="M90.34 155.38v3.16h18.3c.19 0 .35.16.35.35v8.42c0 .78.63 1.4 1.4 1.4h2.11v-9.82c0-.19.16-.35.36-.35h11.65c.78 0 1.4-.63 1.4-1.4V121.7c0-.77-.62-1.4-1.4-1.4h-13.47a.35.35 0 0 1-.35-.36V30.73c0-.2.16-.35.35-.35h36.1v-3.46c0-.77-.63-1.4-1.4-1.4h-37.16c-.78 0-1.4.63-1.4 1.4v95.14c0 .78.62 1.41 1.4 1.41h13.47c.2 0 .35.16.35.35v31.2c0 .2-.16.36-.35.36h-31.7Z" fill="#FFC444"/><path d="M147.13 44.6h-37.02c-.97 0-1.76-.79-1.76-1.76V27.4c0-.97.8-1.76 1.76-1.76h35.27c.97 0 1.75.8 1.75 1.76V44.6Zm-37.02-18.26c-.58 0-1.05.47-1.05 1.05v15.45c0 .58.47 1.06 1.05 1.06h36.32V27.4c0-.59-.47-1.06-1.05-1.06H110.1Z" fill="#FFC444"/><path d="M147.13 62.99h-37.02c-.97 0-1.76-.8-1.76-1.76V45.66c0-.97.8-1.76 1.76-1.76h37.02V63ZM110.11 44.6c-.58 0-1.05.48-1.05 1.06v15.56c0 .58.47 1.06 1.05 1.06h36.32V44.6h-36.32Z" fill="#FFC444"/><path d="M147.13 96.63h-37.02c-.97 0-1.76-.79-1.76-1.76V64.04c0-.97.8-1.76 1.76-1.76h37.02v34.35ZM110.11 63c-.58 0-1.05.47-1.05 1.05v30.83c0 .58.47 1.06 1.05 1.06h36.32V62.99h-36.32Z" fill="#FFC444"/><path d="M147.13 123.24h-37.02c-.97 0-1.76-.79-1.76-1.76v-23.8c0-.96.8-1.75 1.76-1.75h37.02v27.3Zm-37.02-26.6c-.58 0-1.05.47-1.05 1.05v23.8c0 .57.47 1.05 1.05 1.05h36.32v-25.9h-36.32ZM142.56 168.71h-31.15v-13h35.73v8.43a4.58 4.58 0 0 1-4.58 4.57Zm-30.45-.7h30.45a3.87 3.87 0 0 0 3.87-3.87v-7.73h-34.32v11.6Z" fill="#FFC444"/><path d="M147.13 156.41h-21.01c-.97 0-1.76-.79-1.76-1.76V124.3c0-.97.79-1.76 1.76-1.76h21.01v33.88Zm-21.01-33.17c-.58 0-1.06.48-1.06 1.06v30.36c0 .58.48 1.05 1.06 1.05h20.31v-32.47h-20.31Z" fill="#FFC444"/></svg>