<svg width="36" height="29" viewBox="0 0 36 29" fill="none" xmlns="http://www.w3.org/2000/svg">
    <path d="M11.2947 6.80336C9.50204 12.2206 12.6534 15.7288 13.7382 16.6086C14.2115 16.9913 14.8273 16.9099 15.0837 16.6152C18.7194 12.4208 20.043 13.3226 20.9569 13.7053C21.7086 14.0198 22.2367 16.8571 19.0459 19.9254C16.5148 22.3602 13.1596 24.6542 11.6585 25.1579C10.0236 25.7056 7.16812 23.7942 6.29591 23.1322C1.94802 19.833 2.62519 16.8571 3.69682 15.3505C3.69682 15.3505 6.68818 10.8306 11.1676 6.66699L11.2947 6.80336Z" fill="#55B4F3"/>
    <path d="M11.2178 6.62303C12.846 5.11419 14.6715 3.65375 16.6176 2.47484C16.6439 2.45724 16.6767 2.43965 16.7096 2.42205C17.24 2.14932 17.8821 2.15152 18.4146 2.41765C18.4518 2.43525 18.4847 2.45504 18.5132 2.47484C25.8503 6.91336 31.4341 15.3527 31.4341 15.3527C32.291 16.5558 32.8959 18.6959 30.8907 21.1879L30.8512 21.2297C29.7949 22.2084 27.2112 24.5267 26.5559 24.8522C25.5106 25.3735 24.279 25.3427 23.2599 24.7686C21.8552 23.9768 20.4329 22.6241 18.4058 20.9195L18.1954 20.7084C18.4869 20.4489 18.7696 20.1871 19.0457 19.9232C22.2365 16.8549 21.7084 14.0176 20.9567 13.7031C20.0429 13.3204 18.7192 12.4186 15.0835 16.613C14.8271 16.9077 14.2113 16.9891 13.738 16.6064C12.651 15.7266 9.50185 12.2185 11.2945 6.80118L11.1696 6.66482L11.2178 6.62303Z" fill="#FFC444"/>
    <path d="M10.3463 28.8664C7.97296 28.8664 5.19636 26.9177 4.30005 26.2402C-0.775411 22.389 -0.672413 18.3156 1.12021 15.7796C1.38319 15.3837 4.68575 10.4855 9.62972 5.89078L10.5896 5L12.1433 6.67819L11.9045 7.41501C9.93871 13.4503 12.8512 15.8126 14.1069 16.8243C17.6812 12.7839 19.7653 12.5332 21.7793 13.4152L21.9239 13.4767C22.612 13.7649 23.1095 14.4863 23.2892 15.4563C23.4426 16.2789 23.6727 19.2261 20.197 22.5671C17.3788 25.2769 13.467 28.024 11.4793 28.6926C11.1199 28.8136 10.7386 28.8664 10.3463 28.8664ZM8.63259 10.6086C5.38264 14.1168 3.31388 17.2158 3.28758 17.2554L3.26129 17.2928C2.58412 18.243 1.48619 20.8119 5.8801 24.1441C7.48645 25.3626 9.76778 26.4976 10.6466 26.2006C12.0864 25.7168 15.7001 23.249 18.3825 20.6712C20.8786 18.2716 20.8325 16.3184 20.6791 15.806C20.0524 15.5354 18.9873 15.1945 15.8623 18.7972C15.0668 19.7144 13.5831 19.7826 12.5531 18.9512L12.4699 18.8852C11.3566 17.9812 8.39372 15.5948 8.63259 10.6086ZM20.8983 15.8983C20.9049 15.9005 20.9092 15.9027 20.9158 15.9049L20.8983 15.8983Z" fill="#2D3538"/>
    <path d="M25.9061 28.8331C25.0207 28.8331 24.1376 28.6088 23.3421 28.1601C22.0359 27.4233 20.7956 26.3565 19.2287 25.0083C18.7641 24.608 18.2688 24.1835 17.7363 23.7348L17.6552 23.6622L16.4258 22.4415L17.4711 21.5111C17.7823 21.234 18.0869 20.9524 18.3806 20.6709C20.8766 18.2713 20.8306 16.3182 20.6772 15.8057C20.0505 15.5352 18.9854 15.1942 15.8604 18.797C15.0648 19.7141 13.5812 19.7823 12.5512 18.9509L12.4329 18.8542C11.1268 17.8072 7.2347 14.6906 9.1895 7.35755L8.66135 6.78569L9.68039 5.83772C11.7623 3.90879 13.8508 2.30538 15.8867 1.06928C15.948 1.02969 16.0159 0.990101 16.0905 0.95271C17.0503 0.46003 18.203 0.45783 19.1717 0.946112C19.2506 0.985702 19.3251 1.02749 19.3908 1.06928C27.6089 6.04887 33.7669 15.181 34.1636 15.7793C34.821 16.7097 36.6312 19.9517 33.4974 23.8491L33.3242 24.0361C32.9166 24.4144 29.3051 27.7488 28.2334 28.2833C27.5015 28.6506 26.7016 28.8331 25.9061 28.8331ZM20.2981 22.4657C20.515 22.6526 20.7276 22.833 20.9336 23.0111C22.3931 24.267 23.5437 25.2568 24.6263 25.8682C25.3801 26.2927 26.2962 26.3169 27.0719 25.9298C27.5475 25.6747 29.7916 23.7348 31.5009 22.1533C33.3264 19.8505 32.6142 18.1195 32.0225 17.2925L31.9962 17.2551C31.9348 17.1628 25.8338 8.04158 18.0211 3.31274L17.9707 3.27974C17.7757 3.18517 17.5018 3.18517 17.2848 3.29734C15.5207 4.36628 13.7259 5.72335 11.9223 7.34875L11.9069 7.39494C10.0091 13.5446 12.8558 15.8255 14.0699 16.7977L14.1028 16.824C17.6771 12.7836 19.7612 12.5329 21.7751 13.4149L21.9198 13.4765C22.6079 13.7646 23.1054 14.486 23.2851 15.456C23.4385 16.272 23.6642 19.1687 20.2981 22.4657ZM20.8964 15.8981C20.9029 15.9003 20.9073 15.9025 20.9139 15.9047L20.8964 15.8981Z" fill="#2D3538"/>
</svg>
