<svg width="81" height="67" viewBox="0 0 81 67" fill="none" xmlns="http://www.w3.org/2000/svg"><g clip-path="url(#a)"><path d="M76.7 115.5V13.2c0-.4 0-.8.3-1.1.2-.1.3-.3.3-.5l.3-1V9.1c0-.4-.2-1 .5-1 1.1-.2 1.1-.8 1-1.5V4.3c0-.7-.2-1.6 1.2-1.7.3 0 .5-.3.5-.5.3-1-.2-1.3-1.6-1.3H2.4L1.3 1c-.5.1-.7.4-.8.9 0 .4.2.7.6.8 1.2 0 1.1.7 1 1.4v2c-.2 1.3.3 2.2 2 2.3.1 1.3-.3 2.5.3 3.8.3.8.3 99 .3 103.4h72Z" fill="#C7E9F2"/><path d="M77 12c.2 0 .3-.2.3-.4V9.5c.1-1.1-.4-1.4-1.7-1.4H5.9C5.3 8 4.7 8 4 8.3c.2 1.2-.3 2.5.3 3.7H77Z" fill="#89ABB2"/><path d="M25.2 67.8H14.7c-.7 0-1.2-.4-1.2-1V52.1c0-.5.5-1 1.2-1h10.5c.6 0 1 .5 1 1v14.7c0 .5-.4 1-1 1Z" fill="#F0FDFA"/><path d="M19 56.7h-4.3c-.1 0-.3 0-.3-.3v-4.2c0-.2.2-.3.3-.3H19c.2 0 .4.1.4.3v4.2c0 .2-.2.3-.4.3ZM25 56.7h-4.2c-.2 0-.3 0-.3-.3v-4.2c0-.2.1-.3.3-.3h4.3c.2 0 .4.1.4.3v4.2c0 .2-.2.3-.4.3ZM19 66.6h-4.3c-.1 0-.3-.1-.3-.3V58c0-.2.2-.3.3-.3H19c.2 0 .4.1.4.3v8.2c0 .2-.2.3-.4.3ZM25 66.6h-4.2c-.2 0-.3-.1-.3-.3V58c0-.2.1-.3.3-.3h4.3c.2 0 .4.1.4.3v8.2c0 .2-.2.3-.4.3Z" fill="#74A0B7"/><path d="M19.6 65.4s-1 .4-1.5-.3c-.8-1-1.9-.8-2.3.3-.3.7-.7.8-1.4.5h-.6c-.3.3-.8.4-.9 1 .2.6.9.4 1.4.4h11.2c.5 0 1 .1 1.3-.3 0-.9-1-.7-1.6-1.1-1-.2-1.8-.5-2.4-1.3-.7-.8-1.7-.4-2.4.3" fill="#AFC777"/><path d="M26.6 66.6c0 .6-.4.7-1 .7H14c-.6 0-1 0-1-.7-.7.8-.9 1.6-.8 2.5 0 .6.3.8 1 .8h13.6c.7 0 .9-.2 1-.7.2-1.1-.3-1.9-1.1-2.6Z" fill="#95B5BC"/><path d="M46.7 67.8H36.2c-.6 0-1.1-.4-1.1-1V52.1c0-.5.5-1 1.1-1h10.5c.7 0 1.2.5 1.2 1v14.7c0 .5-.6 1-1.2 1Z" fill="#F0FDFA"/><path d="M40.6 56.7h-4.3c-.2 0-.4 0-.4-.3v-4.2c0-.2.2-.3.4-.3h4.3c.2 0 .3.1.3.3v4.2c0 .2-.2.3-.3.3ZM46.6 56.7h-4.2c-.2 0-.4 0-.4-.3v-4.2c0-.2.2-.3.4-.3h4.2c.2 0 .4.1.4.3v4.2c0 .2-.2.3-.4.3ZM40.6 66.6h-4.3c-.2 0-.4-.1-.4-.3V58c0-.2.2-.3.4-.3h4.3c.2 0 .3.1.3.3v8.2c0 .2-.2.3-.3.3ZM46.6 66.6h-4.2c-.2 0-.4-.1-.4-.3V58c0-.2.2-.3.4-.3h4.2c.2 0 .4.1.4.3v8.2c0 .2-.2.3-.4.3Z" fill="#74A0B7"/><path d="M41.1 65.4s-1 .4-1.5-.3c-.7-1-1.8-.8-2.3.3-.3.7-.7.8-1.4.5h-.6c-.3.3-.8.4-.8 1 .1.6.8.4 1.3.4h11.3c.4 0 1 .1 1.2-.3 0-.9-1-.7-1.6-1.1-1-.2-1.7-.5-2.4-1.3s-1.7-.4-2.4.3" fill="#AFC777"/><path d="M48.1 66.6c0 .6-.3.7-1 .7H35.5c-.6 0-1 0-1-.7-.7.8-.8 1.6-.7 2.5 0 .6.3.8 1 .8h13.6c.6 0 .8-.2 1-.7.1-1.1-.4-1.9-1.2-2.6Z" fill="#95B5BC"/><path d="M68.3 67.8H57.8c-.6 0-1.1-.4-1.1-1V52.1c0-.5.5-1 1-1h10.6c.6 0 1.1.5 1.1 1v14.7c0 .5-.5 1-1.1 1Z" fill="#F0FDFA"/><path d="M62.1 56.7H58c-.3 0-.4 0-.4-.3v-4.2c0-.2.1-.3.4-.3H62c.2 0 .4.1.4.3v4.2c0 .2-.2.3-.4.3ZM68.2 56.7H64c-.3 0-.4 0-.4-.3v-4.2c0-.2.1-.3.4-.3h4.2c.2 0 .4.1.4.3v4.2c0 .2-.2.3-.4.3ZM62.1 66.6H58c-.3 0-.4-.1-.4-.3V58c0-.2.1-.3.4-.3H62c.2 0 .4.1.4.3v8.2c0 .2-.2.3-.4.3ZM68.2 66.6H64c-.3 0-.4-.1-.4-.3V58c0-.2.1-.3.4-.3h4.2c.2 0 .4.1.4.3v8.2c0 .2-.2.3-.4.3Z" fill="#74A0B7"/><path d="M62.7 65.4s-1 .4-1.5-.3c-.7-1-1.8-.8-2.3.3-.3.7-.7.8-1.4.5h-.6c-.3.3-.8.4-.8 1 .2.6.8.4 1.3.4h11.3c.4 0 1 .1 1.2-.3 0-.9-1-.7-1.6-1.1-1-.2-1.7-.5-2.4-1.3s-1.7-.4-2.3.3" fill="#AFC777"/><path d="M69.7 66.6c0 .6-.4.7-1 .7H57c-.6 0-1 0-1-.7-.7.8-.8 1.6-.8 2.5 0 .6.3.8 1 .8H70c.6 0 .8-.2.9-.7.2-1.1-.3-1.9-1.1-2.6Z" fill="#95B5BC"/><path d="M25.2 40.2H14.7c-.7 0-1.2-.4-1.2-1V24.7c0-.5.5-1 1.2-1h10.5c.6 0 1 .5 1 1v14.7c0 .5-.4 1-1 1Z" fill="#F0FDFA"/><path d="M19 29.2h-4.3c-.1 0-.3 0-.3-.3v-4.2l.3-.3H19c.2 0 .4.2.4.3V29c0 .2-.2.3-.4.3ZM25 29.2h-4.2c-.2 0-.3 0-.3-.3v-4.2c0-.1.1-.3.3-.3h4.3c.2 0 .4.2.4.3V29c0 .2-.2.3-.4.3ZM19 39.1h-4.3c-.1 0-.3-.1-.3-.3v-8.2c0-.2.2-.3.3-.3H19c.2 0 .4.1.4.3v8.2c0 .2-.2.3-.4.3ZM25 39.1h-4.2c-.2 0-.3-.1-.3-.3v-8.2c0-.2.1-.3.3-.3h4.3c.2 0 .4.1.4.3v8.2c0 .2-.2.3-.4.3Z" fill="#74A0B7"/><path d="M19.6 37.9s-1 .4-1.5-.3c-.8-1-1.9-.8-2.3.3-.3.7-.7.8-1.4.5h-.6c-.3.3-.8.4-.9 1 .2.6.9.4 1.4.4h11.2c.5 0 1 0 1.3-.3 0-.9-1-.8-1.6-1.1-1-.2-1.8-.5-2.4-1.3-.7-.8-1.7-.4-2.4.3" fill="#AFC777"/><path d="M26.6 39.1c0 .6-.4.7-1 .7H14c-.6 0-1-.1-1-.7-.7.7-.9 1.6-.8 2.5 0 .6.3.8 1 .8h13.6c.7 0 .9-.2 1-.8.2-1-.3-1.8-1.1-2.5Z" fill="#89ABB2"/><path d="M46.7 40.2H36.2c-.6 0-1.1-.4-1.1-1V24.7c0-.5.5-1 1.1-1h10.5c.7 0 1.2.5 1.2 1v14.7c0 .5-.6 1-1.2 1Z" fill="#F0FDFA"/><path d="M40.6 29.2h-4.3c-.2 0-.4 0-.4-.3v-4.2c0-.1.2-.3.4-.3h4.3c.2 0 .3.2.3.3V29c0 .2-.2.3-.3.3ZM46.6 29.2h-4.2c-.2 0-.4 0-.4-.3v-4.2c0-.1.2-.3.4-.3h4.2c.2 0 .4.2.4.3V29c0 .2-.2.3-.4.3ZM40.6 39.1h-4.3c-.2 0-.4-.1-.4-.3v-8.2c0-.2.2-.3.4-.3h4.3c.2 0 .3.1.3.3v8.2c0 .2-.2.3-.3.3ZM46.6 39.1h-4.2c-.2 0-.4-.1-.4-.3v-8.2c0-.2.2-.3.4-.3h4.2c.2 0 .4.1.4.3v8.2c0 .2-.2.3-.4.3Z" fill="#74A0B7"/><path d="M41.1 37.9s-1 .4-1.5-.3c-.7-1-1.8-.8-2.3.3-.3.7-.7.8-1.4.5h-.6c-.3.3-.8.4-.8 1 .1.6.8.4 1.3.4h11.3c.4 0 1 0 1.2-.3 0-.9-1-.8-1.6-1.1-1-.2-1.7-.5-2.4-1.3s-1.7-.4-2.4.3" fill="#AFC777"/><path d="M48.1 39.1c0 .6-.3.7-1 .7H35.5c-.6 0-1-.1-1-.7-.7.7-.8 1.6-.7 2.5 0 .6.3.8 1 .8h13.6c.6 0 .8-.2 1-.8.1-1-.4-1.8-1.2-2.5Z" fill="#89ABB2"/><path d="M68.3 40.2H57.8c-.6 0-1.1-.4-1.1-1V24.7c0-.5.5-1 1-1h10.6c.6 0 1.1.5 1.1 1v14.7c0 .5-.5 1-1.1 1Z" fill="#F0FDFA"/><path d="M62.1 29.2H58c-.3 0-.4 0-.4-.3v-4.2c0-.1.1-.3.4-.3H62c.2 0 .4.2.4.3V29c0 .2-.2.3-.4.3ZM68.2 29.2H64c-.3 0-.4 0-.4-.3v-4.2c0-.1.1-.3.4-.3h4.2c.2 0 .4.2.4.3V29c0 .2-.2.3-.4.3ZM62.1 39.1H58c-.3 0-.4-.1-.4-.3v-8.2c0-.2.1-.3.4-.3H62c.2 0 .4.1.4.3v8.2c0 .2-.2.3-.4.3ZM68.2 39.1H64c-.3 0-.4-.1-.4-.3v-8.2c0-.2.1-.3.4-.3h4.2c.2 0 .4.1.4.3v8.2c0 .2-.2.3-.4.3Z" fill="#74A0B7"/><path d="M62.7 37.9s-1 .4-1.5-.3c-.7-1-1.8-.8-2.3.3-.3.7-.7.8-1.4.5h-.6c-.3.3-.8.4-.8 1 .2.6.8.4 1.3.4h11.3c.4 0 1 0 1.2-.3 0-.9-1-.8-1.6-1.1-1-.2-1.7-.5-2.4-1.3s-1.7-.4-2.3.3" fill="#AFC777"/><path d="M69.7 39.1c0 .6-.4.7-1 .7H57c-.6 0-1-.1-1-.7-.7.7-.8 1.6-.8 2.5 0 .6.3.8 1 .8H70c.6 0 .8-.2.9-.8.2-1-.3-1.8-1.1-2.5Z" fill="#89ABB2"/></g><defs><clipPath id="a"><path fill="#fff" transform="translate(.5 .8)" d="M0 0h80.4v116H0z"/></clipPath></defs></svg>