<svg width="31" height="30" viewBox="0 0 31 30" fill="none" xmlns="http://www.w3.org/2000/svg">
<path d="M30.5039 11.2102C30.4907 10.667 30.4907 10.1237 30.4907 9.58039C30.4907 8.94435 30.3714 8.78534 29.7751 8.59982C28.3043 8.13604 26.8334 7.67226 25.3626 7.20848L24.4748 6.93021C24.3952 6.90371 24.3157 6.87721 24.2362 6.85071C24.0242 6.7712 23.799 6.6917 23.5604 6.66519C23.4809 6.65194 23.4014 6.65194 23.3219 6.65194C23.1762 6.65194 23.0172 6.66519 22.8581 6.67845C22.7919 6.67845 22.7256 6.6917 22.6594 6.6917C22.6594 6.66519 22.6594 6.63869 22.6594 6.61219C22.6461 6.46643 22.6461 6.32067 22.6461 6.17491C22.6461 5.92314 22.6329 5.65813 22.6329 5.40636C22.6196 4.79682 22.6064 4.16078 22.6594 3.53799C22.7124 2.9947 22.5136 2.43816 22.1161 2.01413C21.7186 1.59011 21.1885 1.35159 20.5922 1.35159C20.5657 1.35159 20.5392 1.35159 20.5127 1.35159C20.1417 1.36484 19.7309 1.36484 19.2539 1.36484C18.8829 1.36484 18.5251 1.36484 18.1541 1.35159C17.8626 1.35159 17.571 1.35159 17.2663 1.35159H16.6832V0.90106V0.768551C16.6832 0.30477 16.6832 0.0397527 16.0604 0C16.0207 0 15.9279 0 15.8352 0H15.5967H7.61963H7.46062C7.42087 0 7.38111 0 7.34136 0C6.77157 0.0265018 6.4403 0.172262 6.42705 0.834806C6.42705 0.967315 6.4138 1.20583 6.4138 1.36484H5.80426C5.45974 1.36484 5.11521 1.36484 4.77069 1.36484C4.42617 1.36484 4.06839 1.36484 3.72387 1.36484C3.22034 1.36484 2.80956 1.36484 2.42528 1.37809C1.28571 1.40459 0.530408 2.17314 0.503906 3.31272C0.503906 3.40548 0.503906 3.51148 0.503906 3.60424C0.503906 3.60424 0.503906 27.9859 0.503906 28.0919C0.543659 29.2049 1.29896 29.9602 2.39878 29.9735C3.02157 29.9867 8.62001 29.9867 9.38856 29.9735H9.66683C10.2366 29.9735 10.5811 29.6952 10.5944 29.2447C10.5944 29.0592 10.5149 28.8604 10.3691 28.7147C10.2234 28.5557 10.0114 28.4761 9.78609 28.4761C9.74633 28.4761 2.73005 28.4894 2.73005 28.4894C2.6638 28.4894 2.5843 28.4894 2.50479 28.4761C2.14702 28.4364 2.04101 28.3304 2.01451 27.9726C2.00126 27.8401 2.01451 19.5318 2.01451 17.5177V12.2836C2.01451 9.40813 2.01451 6.54594 2.01451 3.67049C2.01451 2.92845 2.10726 2.83569 2.84931 2.83569C3.12758 2.83569 3.53836 2.83569 3.97564 2.83569C4.9297 2.83569 6.04278 2.83569 6.42705 2.83569C6.42705 3.06095 6.42705 3.52474 6.42705 3.76325C6.42705 4.24028 6.53306 4.67756 7.24861 4.67756C8.54719 4.67756 10.2963 4.69081 12.1912 4.69081C13.556 4.69081 14.8811 4.69081 15.9412 4.69081C16.2195 4.69081 16.405 4.62456 16.5242 4.5053C16.7097 4.30654 16.7097 4.02827 16.6965 3.65724C16.6965 3.57774 16.6965 3.49823 16.6965 3.41873C16.6965 3.27297 16.7097 3.00795 16.7097 2.83569C17.0543 2.83569 17.3855 2.83569 17.7301 2.83569C18.1143 2.83569 18.4986 2.83569 18.8829 2.83569C19.5984 2.83569 20.1682 2.83569 20.685 2.84894C20.9235 2.84894 21.162 2.92845 21.1753 3.43198C21.1885 3.85601 21.1885 4.29329 21.1885 4.71731C21.1885 4.88958 21.1885 5.04859 21.1885 5.22085C21.1885 5.68463 21.1885 7.20848 21.1885 7.20848C20.9898 7.27474 20.8043 7.32774 20.6187 7.38074C20.1152 7.53975 19.6382 7.68551 19.1612 7.84452C18.6974 8.00353 18.1938 8.08304 17.6505 8.08304H17.5843C16.829 8.06979 16.0207 8.06979 15.0401 8.06979C14.4306 8.06979 13.8078 8.06979 13.1983 8.06979L11.8997 8.08304H11.7937C11.6479 8.08304 11.5021 8.08304 11.3564 8.12279C11.0119 8.21555 10.8263 8.48057 10.8263 8.83834C10.8263 9.19611 11.0384 9.46113 11.3829 9.54064C11.5154 9.56714 11.6346 9.58039 11.7672 9.58039H11.9394C12.4827 9.58039 13.026 9.58039 13.5693 9.58039C14.2451 9.58039 14.9209 9.58039 15.5967 9.58039C15.6497 9.58039 15.7027 9.58039 15.7689 9.58039C15.8219 9.58039 15.8882 9.58039 15.9544 9.58039C15.9809 9.58039 16.0074 9.58039 16.0339 9.58039C16.0339 11.091 16.0207 13.9664 16.0207 14.6025C15.8882 14.6025 15.7689 14.6025 15.6629 14.6025C15.5437 14.6025 15.4244 14.6025 15.2919 14.6025H13.7945C13.2513 14.6025 12.7212 14.6025 12.1779 14.6025C11.9924 14.6025 11.7407 14.6157 11.5021 14.6555C11.1576 14.7217 10.9456 14.9735 10.9456 15.3445C10.9324 15.7288 11.1311 15.9806 11.4756 16.0733C11.6877 16.1263 11.9262 16.1263 12.0984 16.1396C12.708 16.1396 13.3308 16.1396 13.9403 16.1396C14.4968 16.1396 15.0534 16.1396 15.6099 16.1396C15.6099 16.1396 15.9279 16.1396 15.9809 16.1396C16.0472 16.1396 16.1002 16.1396 16.1665 16.1396C16.1797 16.1661 16.1797 16.1926 16.193 16.2058C16.193 16.2191 16.2062 16.2323 16.2062 16.2853C16.5375 18.008 17.2795 19.5053 18.4191 20.7376C19.1081 21.4797 19.9165 22.0892 20.8175 22.5663C21.0163 22.6723 21.1753 22.818 21.1753 22.8843C21.2018 23.3083 21.1885 25.3224 21.1885 25.3224L17.9818 28.4894L12.6682 28.5027C12.5622 28.5027 12.443 28.5027 12.3237 28.5292C11.9659 28.5954 11.7009 28.9134 11.7009 29.2712C11.7009 29.6157 11.9659 29.9205 12.3369 29.9867C12.4165 30 12.496 30 12.5622 30C12.5622 30 17.1073 30 18.0613 30C18.3926 30 18.6444 29.894 18.8564 29.682C20.0357 28.5027 21.1885 27.3498 22.2751 26.2633C22.5269 26.0247 22.6329 25.7332 22.6329 25.4019C22.6196 25.0707 22.6461 23.7191 22.6461 23.4806V23.2951C22.8449 23.3613 23.0569 23.3878 23.2557 23.3878C23.6532 23.3878 24.011 23.2686 24.276 23.1758C24.8988 22.9373 25.6143 22.6855 26.2239 22.3012C28.8741 20.6714 30.2919 18.3127 30.4509 15.2915C30.5437 13.9267 30.5304 12.5486 30.5039 11.2102ZM15.1329 3.16696H7.99066L8.00391 1.52385H15.1461L15.1329 3.16696ZM29.0066 14.841C28.9668 18.0212 26.8997 20.8039 23.8387 21.7314C23.6399 21.7977 23.4412 21.8242 23.2689 21.8242C23.0967 21.8242 22.9244 21.7977 22.7654 21.7447C19.9695 20.8304 18.2601 18.909 17.6638 16.0336C17.5578 15.4903 17.5445 14.9205 17.5313 14.417C17.518 13.3436 17.518 12.2571 17.518 11.197C17.518 10.7995 17.518 10.3887 17.518 9.97792C17.5445 9.96467 17.571 9.95141 17.6108 9.93816C17.7168 9.88516 17.8228 9.84541 17.9156 9.8189L18.6179 9.59364C19.996 9.15636 21.4271 8.70583 22.8316 8.2818C22.9907 8.2288 23.1629 8.2023 23.3087 8.2023C23.4147 8.2023 23.5074 8.21555 23.5869 8.24205C25.018 8.66608 26.4624 9.12986 27.867 9.56714L28.821 9.87191C28.8608 9.88516 28.9005 9.91166 28.9536 9.93816C28.9668 9.93816 28.9668 9.95141 28.9801 9.95141C28.9801 9.97792 28.9801 10.0044 28.9933 10.0309C29.0066 10.1369 29.0066 10.2297 29.0066 10.3357C29.0066 10.72 29.0066 11.1042 29.0066 11.4885C29.0066 12.5883 29.0198 13.7279 29.0066 14.841Z" fill="currentColor"/>
<path d="M14.1923 22.7787C13.6888 22.7787 13.1853 22.7787 12.6817 22.7787H12.4034C12.0987 22.7787 11.7409 22.7655 11.3964 22.7257C11.0519 22.6727 10.8398 22.421 10.8398 22.0367C10.8398 21.6657 11.0254 21.4139 11.3699 21.3211C11.5421 21.2814 11.7144 21.2681 11.8602 21.2681C11.9927 21.2681 12.1384 21.2681 12.2709 21.2681H12.7745H16.4185H16.4847C16.5377 21.2681 16.5775 21.2681 16.6305 21.2681C17.187 21.3079 17.5315 21.6259 17.505 22.0632C17.4918 22.5005 17.1473 22.7787 16.6305 22.792C15.9149 22.7787 15.1331 22.7787 14.1923 22.7787Z" fill="currentColor"/>
<path d="M6.17514 25.3222C5.92337 25.3222 5.71136 25.15 5.45959 24.8982C5.39334 24.8319 5.32708 24.7657 5.24758 24.6994C5.04881 24.5007 4.8368 24.3019 4.65129 24.0899C4.32001 23.7056 4.32001 23.2683 4.65129 22.9636C4.78379 22.8443 4.94281 22.7781 5.10182 22.7781C5.30058 22.7781 5.51259 22.8708 5.71136 23.0431C5.83062 23.1358 5.93662 23.2418 6.05588 23.3611C6.09563 23.4009 6.13539 23.4406 6.17514 23.4804L6.57266 23.0828C6.95694 22.6986 7.34122 22.3275 7.71224 21.9565C7.73874 21.93 7.76524 21.9035 7.805 21.8638C7.911 21.7445 8.03026 21.6385 8.16277 21.5325C8.29528 21.4265 8.45429 21.3867 8.60005 21.3867C8.78556 21.3867 8.95782 21.4662 9.11683 21.612C9.3686 21.8638 9.40835 22.1818 9.23609 22.4998C9.15659 22.6323 9.05058 22.7383 8.95782 22.8443L8.75906 23.0431C8.14952 23.6526 7.52673 24.2887 6.90394 24.8982C6.63892 25.15 6.41365 25.3222 6.17514 25.3222Z" fill="currentColor"/>
<path d="M6.25508 18.697C6.06957 18.697 5.89731 18.6175 5.72505 18.4584C5.39378 18.1537 5.04925 17.8224 4.73123 17.4646C4.41321 17.1069 4.38671 16.7093 4.66498 16.3913C4.81074 16.2323 4.983 16.1528 5.16851 16.1528C5.36727 16.1528 5.57929 16.2455 5.77805 16.4178C5.84431 16.4708 5.91056 16.5371 5.96356 16.5901C6.00332 16.6298 6.02982 16.6563 6.06957 16.6961C6.12257 16.7491 6.17558 16.7888 6.24183 16.8551L6.26833 16.8816L6.66586 16.4708C7.03689 16.0865 7.39466 15.7155 7.75243 15.3577L7.80544 15.3047C7.89819 15.212 7.99095 15.106 8.09696 15.0265C8.28247 14.8675 8.49448 14.7879 8.68 14.7879C8.85226 14.7879 9.02452 14.8542 9.15703 14.9867C9.30279 15.1325 9.38229 15.3047 9.39554 15.5035C9.39554 15.7023 9.31604 15.901 9.15703 16.06C8.37523 16.8683 7.58017 17.6766 6.78512 18.4452C6.62611 18.6175 6.4406 18.697 6.25508 18.697Z" fill="currentColor"/>
<path d="M6.16214 12.1258C5.95012 12.1258 5.73811 12.0065 5.45984 11.7415L5.40683 11.6885C5.14182 11.4367 4.86355 11.1717 4.61178 10.8935C4.29376 10.5357 4.28051 10.1382 4.58528 9.83338C4.73104 9.68762 4.9033 9.60812 5.08881 9.60812C5.27433 9.60812 5.45984 9.68762 5.64535 9.83338C5.7116 9.88639 5.77786 9.95264 5.83086 10.0056C5.87062 10.0454 5.89712 10.0719 5.93687 10.1117C6.00312 10.1647 6.05613 10.2177 6.14888 10.2972L6.20189 10.3369L6.51991 9.99239C6.86443 9.62137 7.1957 9.27685 7.54023 8.93232C7.72574 8.73356 7.9245 8.54805 8.13652 8.38904C8.28228 8.28303 8.42804 8.23003 8.58705 8.23003C8.75931 8.23003 8.93157 8.30953 9.09058 8.45529C9.3556 8.72031 9.3821 9.07808 9.15684 9.40936C9.07733 9.52861 8.98457 9.62137 8.89182 9.71413L8.46779 10.1382C7.951 10.6682 7.40772 11.2115 6.86443 11.7415C6.59941 12.0065 6.3874 12.1258 6.16214 12.1258Z" fill="currentColor"/>
<path d="M9.83228 29.9862C9.80578 29.9862 9.77928 29.9862 9.76603 29.9862C9.3685 29.9464 9.09023 29.6284 9.10348 29.2309C9.11673 28.8466 9.448 28.5286 9.81903 28.5286C10.0178 28.5286 10.2033 28.6081 10.3491 28.7671C10.4948 28.9129 10.5611 29.1116 10.5611 29.3104C10.5478 29.6814 10.2298 29.9862 9.83228 29.9862Z" fill="currentColor"/>
<path d="M22.5929 17.3994C22.3809 17.3994 22.1556 17.2934 21.9039 17.0417C21.7979 16.9489 21.6521 16.8031 21.4798 16.6441C21.0161 16.2069 20.38 15.6238 20.115 15.3323C19.6512 14.842 19.8632 14.471 20.0222 14.2722C20.1813 14.1 20.3668 14.0072 20.5655 14.0072C20.751 14.0072 20.9498 14.0867 21.1353 14.2457C21.4003 14.471 22.2086 15.2263 22.6062 15.5841C22.8977 15.2925 23.441 14.7228 23.9843 14.1795C24.607 13.5434 25.2431 12.8941 25.4684 12.6556C25.5081 12.6159 25.5479 12.5761 25.5876 12.5364C25.7069 12.4171 25.8261 12.2978 25.9586 12.1918C26.1309 12.0593 26.3164 11.9798 26.5019 11.9798C26.7007 11.9798 26.8862 12.0593 27.0187 12.2183C27.297 12.5099 27.2837 12.8809 26.9922 13.2254C26.8332 13.4242 26.6477 13.5964 26.4622 13.7819C26.3959 13.8482 26.3164 13.9277 26.2502 13.994C26.0779 14.1795 25.6804 14.577 25.2431 15.0275C24.501 15.7828 23.5867 16.7369 23.282 17.0417C23.0302 17.2934 22.8182 17.3994 22.5929 17.3994Z" fill="currentColor"/>
</svg>
