<svg width="194" height="188" viewBox="0 0 194 188" fill="none" xmlns="http://www.w3.org/2000/svg">
<ellipse cx="102.5" cy="175" rx="91.5" ry="13" fill="#442A4D"/>
<path d="M173.581 121.376C154.841 162.694 107.318 179.615 70.4368 175.789C60.3684 174.742 40.1091 172.639 24.5751 157.345C-5.25043 127.966 0.69794 67.9911 30.575 33.237C34.4247 28.7497 61.0314 -1.22144 101.492 0.0386071C131.111 0.957927 151.557 18.11 154.042 20.2444C157.184 22.9445 164.098 29.3411 170.239 39.3894C184.666 63.0024 185.291 95.5514 173.581 121.376Z" fill="#FEF1FB"/>
<path d="M49.6501 106.564C49.6501 106.564 50.1973 83.6709 39.6331 77.5378C29.0754 71.4112 8.99643 67.5796 8.24323 34.7027C7.80547 15.4548 7.32265 7.03948 7.0072 3.36862C6.88489 1.935 8.1531 0.784241 9.56938 1.04782C19.5735 2.93146 52.0577 10.6718 58.8752 32.819C66.9544 59.0807 49.6501 106.564 49.6501 106.564Z" fill="url(#paint0_linear)"/>
<path d="M17.3069 10.2023C28.2831 19.9806 40.9781 37.2805 47.7441 54.5868C48.6131 57.4412 51.156 63.5036 52.2568 74.2783C53.2418 83.2658 52.7525 92.7611 51.5551 99.0485C51.4779 99.4471 51.0981 99.7042 50.6989 99.6335C50.0165 99.5049 50.1067 98.772 50.1131 98.7913C51.4779 88.0488 50.9114 74.6833 47.7827 62.6228C43.7913 47.8109 34.8817 33.4489 25.663 21.2727L24.7167 20.0706C17.5773 10.9159 16.0774 10.8516 16.7404 10.2088C16.9014 10.0609 17.146 10.0609 17.3069 10.2023Z" fill="#222669"/>
<path d="M66.6257 150.588C68.0548 151.289 53.1002 132.511 48.4136 103.015C46.2055 89.1162 46.1798 71.7006 38.2486 64.9889C31.65 59.4023 9.19557 62.9317 1.85024 64.2689C0.929658 64.436 0.620651 65.5932 1.33523 66.1911C4.85661 69.1484 12.3951 76.1172 14.3586 83.1374C16.9465 92.3949 25.7596 98.2837 33.6521 99.8781C41.5447 101.472 45.9351 103.015 49.7784 115.622C53.6216 128.229 62.5635 148.602 66.6257 150.588Z" fill="url(#paint1_linear)"/>
<path d="M12.1831 68.184C21.5563 68.5761 31.6183 72.8449 36.7233 80.8552L37.2061 81.6202C38.3198 83.4138 44.6287 96.1493 48.1308 106.712C48.1759 106.84 48.105 106.988 47.9699 107.027C47.7445 107.104 47.6351 106.853 47.6544 106.879C45.2145 100.913 41.706 93.3463 38.9121 87.6954C35.9186 81.5237 33.8199 77.345 26.9896 73.3399C19.3868 69.0261 12.1251 68.5826 12.1445 68.589C12.035 68.5761 11.9513 68.4797 11.9642 68.3704C11.9835 68.2547 12.0736 68.1775 12.1831 68.184Z" fill="#1F5AA9"/>
<path d="M60.2133 153.057C61.0631 153.501 55.4366 143.838 55.0053 135.32C54.5739 126.802 52.6491 112.266 45.2973 103.574C37.9455 94.8827 29.8921 94.0855 19.7399 101.993C11.2809 108.583 6.00847 111.906 2.91841 112.523C2.15233 112.678 1.75963 113.539 2.13302 114.227C4.11581 117.879 9.72942 126.255 19.1477 125.67C31.1603 124.918 45.7222 117.12 50.1577 123.626C54.5933 130.132 54.0267 133.771 54.1619 136.856C54.2971 139.929 54.5997 150.106 60.2133 153.057Z" fill="url(#paint2_linear)"/>
<path d="M23.152 112.433C26.8343 108.91 32.8278 105.445 38.068 106.094C44.8854 107.194 49.424 111.739 51.9024 118.502C52.8681 121.376 53.2672 122.906 53.8402 126.429C53.8852 126.712 53.4732 126.795 53.4024 126.519C52.984 124.867 52.572 123.131 51.954 121.344C48.3618 109.785 40.6945 108.229 40.392 107.991C39.8126 108.049 36.2976 105.419 27.9545 109.9C26.3966 110.749 24.8837 111.713 23.4546 112.78L23.4481 112.787C23.3451 112.864 23.1971 112.845 23.1198 112.742C23.0554 112.645 23.0683 112.51 23.152 112.433Z" fill="#222669"/>
<path d="M49.3404 13.7833C45.0723 14.1562 41.802 17.7242 41.7891 21.9994C41.7183 48.1518 41.596 138.348 43.3019 170.273C43.4822 173.655 46.2568 176.31 49.6494 176.349C66.4259 176.529 114.676 176.863 142.068 175.108C147.772 174.741 152.214 170.023 152.207 164.314C152.175 136.869 151.737 59.6786 147.971 24.3973C147.521 20.1671 144.115 16.8692 139.873 16.5413C121.577 15.127 72.9923 11.7325 49.3404 13.7833Z" fill="url(#paint3_linear)"/>
<path d="M48.5225 28.8526C48.1942 51.2248 47.2543 125.638 48.8895 153.102C49.1277 157.114 52.2499 160.283 56.1061 160.418C71.9812 160.971 112.686 162.038 135.888 159.492C140.066 159.036 143.259 155.417 143.368 151.039C143.947 128.21 145.518 58.9008 143.922 31.7455C143.671 27.4125 140.355 23.9538 136.197 23.6774C119.008 22.5202 74.8717 19.8522 55.1468 21.4916C51.4516 21.8001 48.5805 24.9824 48.5225 28.8526Z" fill="url(#paint4_linear)"/>
<path d="M86.8782 17.6728C86.8911 18.29 87.3868 18.7915 88.0048 18.8107C91.0562 18.9007 99.6633 19.1643 103.513 19.3058C104.273 19.3315 104.852 18.6372 104.691 17.8979C104.678 17.8721 104.582 16.9271 103.61 16.8564C101.009 16.6764 93.1613 16.1878 87.9726 16.4899C86.904 16.5478 86.846 17.7564 86.8782 17.6728Z" fill="#1F5AA9"/>
<path d="M91.784 16.8307C91.8934 16.8243 92.0029 16.85 92.1123 16.9014L97.7839 19.6272C98.1894 19.8265 98.6465 19.9165 99.0971 19.9037C99.5478 19.8908 99.9984 19.7622 100.391 19.5372L105.857 16.4193C105.96 16.3614 106.069 16.3293 106.179 16.3228C106.378 16.3164 106.584 16.4064 106.726 16.5607C106.822 16.6636 106.925 16.85 106.893 17.1136L106.05 23.3431C105.927 24.256 106.262 25.1753 106.945 25.7925L111.605 30.0226C111.895 30.2862 111.844 30.6012 111.805 30.7234C111.766 30.8455 111.644 31.1412 111.264 31.212L105.065 32.337C104.157 32.5041 103.385 33.102 103.011 33.9442L100.423 39.6787C100.262 40.0323 99.9469 40.0837 99.8182 40.0837C99.6894 40.0901 99.3675 40.0644 99.1873 39.7173L96.2002 34.1821C95.7625 33.372 94.9513 32.8256 94.0372 32.7227L87.7798 32.0348C87.3935 31.9898 87.2519 31.707 87.2068 31.5848C87.1618 31.4627 87.091 31.1477 87.3549 30.8712L91.7067 26.3261C92.3441 25.6575 92.6144 24.7253 92.4278 23.8188L91.1467 17.66C91.0952 17.3964 91.1853 17.21 91.2754 17.1007C91.3913 16.94 91.5844 16.8371 91.784 16.8307Z" fill="url(#paint5_linear)"/>
<path d="M105.194 24.8798C105.258 24.8798 105.323 24.9183 105.349 24.9826C105.555 25.5419 105.896 26.0498 106.34 26.4548L108.11 28.062C108.175 28.1199 108.181 28.2227 108.123 28.287C108.065 28.3513 107.962 28.3577 107.898 28.2999L106.127 26.6927C105.645 26.2555 105.278 25.7026 105.052 25.0983C105.02 25.0148 105.065 24.9248 105.149 24.8926C105.162 24.8862 105.175 24.8798 105.194 24.8798Z" fill="white"/>
<path d="M101.647 19.8784C101.704 19.8784 101.762 19.9041 101.788 19.9556C101.833 20.0327 101.807 20.1291 101.73 20.1741L100.996 20.592C100.43 20.9135 99.7925 21.0935 99.1423 21.1192C98.4921 21.1449 97.8419 21.0035 97.2561 20.727C97.1789 20.6884 97.1467 20.592 97.1853 20.5149C97.2239 20.4377 97.3205 20.4056 97.3978 20.4442C97.9385 20.7013 98.5372 20.8299 99.1359 20.8106C99.7346 20.7913 100.32 20.6242 100.842 20.3284L101.576 19.9106C101.595 19.8848 101.621 19.8784 101.647 19.8784Z" fill="white"/>
<path d="M62.8915 27.4448C62.9752 27.4448 63.0589 27.4576 63.1426 27.5026L67.4815 29.592C67.7905 29.7399 68.1382 29.817 68.4858 29.8041C68.8334 29.7913 69.1746 29.6949 69.4772 29.5213L73.6552 27.1362C73.7325 27.0912 73.8162 27.0655 73.8999 27.0655C74.0544 27.059 74.2089 27.1298 74.3183 27.2455C74.3891 27.329 74.4728 27.4641 74.4471 27.6698L73.8033 32.4335C73.7067 33.1343 73.9642 33.835 74.4857 34.3043L78.0521 37.538C78.271 37.7373 78.2324 37.9816 78.2066 38.0716C78.1809 38.168 78.0843 38.393 77.7946 38.4445L73.0565 39.3059C72.3613 39.4345 71.7754 39.8909 71.4858 40.5338L69.5094 44.9183C69.3871 45.1883 69.1425 45.2269 69.0459 45.2269C68.9493 45.2333 68.7047 45.2076 68.5631 44.9504L66.2841 40.7138C65.9494 40.0902 65.3314 39.6788 64.6297 39.6016L59.8465 39.0809C59.5504 39.0488 59.4409 38.8302 59.4088 38.7338C59.3766 38.6438 59.3186 38.3995 59.5246 38.1873L62.8529 34.7093C63.3421 34.2014 63.5482 33.4814 63.4001 32.7935L62.4216 28.0876C62.3829 27.8884 62.4538 27.7469 62.5181 27.6569C62.5889 27.5283 62.7434 27.4512 62.8915 27.4448Z" fill="url(#paint6_linear)"/>
<path d="M73.14 33.6035C73.1915 33.6035 73.2366 33.6357 73.2559 33.6807C73.4104 34.1114 73.6743 34.4971 74.0091 34.8057L75.3674 36.0336C75.4189 36.0786 75.4189 36.1558 75.3738 36.2072C75.3288 36.2586 75.2515 36.2586 75.2 36.2136L73.8417 34.9857C73.4748 34.6514 73.1915 34.2271 73.0177 33.7642C72.9919 33.6999 73.0241 33.6292 73.0885 33.6099C73.1207 33.6035 73.1336 33.6035 73.14 33.6035Z" fill="white"/>
<path d="M70.4298 29.7783C70.4748 29.7783 70.5134 29.7976 70.5392 29.8362C70.5714 29.894 70.5521 29.9712 70.4941 30.0033L69.9341 30.3248C69.5027 30.5691 69.0135 30.7105 68.5178 30.7298C68.0221 30.7491 67.5264 30.6398 67.0757 30.4276C67.0178 30.3955 66.992 30.3248 67.0178 30.2669C67.05 30.2091 67.1208 30.1833 67.1787 30.2091C67.5907 30.4083 68.0478 30.5048 68.5049 30.4855C68.962 30.4726 69.4126 30.3441 69.8117 30.1126L70.3718 29.7912C70.3911 29.7847 70.4104 29.7783 70.4298 29.7783Z" fill="white"/>
<path d="M51.2332 49.4055C51.2847 49.4055 51.3362 49.4183 51.3877 49.4376L54.1044 50.7427C54.2975 50.8391 54.5164 50.8841 54.7353 50.8777C54.9542 50.8712 55.1666 50.8069 55.3533 50.7041L57.967 49.2126C58.0185 49.1869 58.07 49.1676 58.1215 49.1676C58.218 49.1612 58.3146 49.2062 58.379 49.2833C58.424 49.3347 58.4755 49.4183 58.4562 49.5469L58.0506 52.5299C57.9927 52.967 58.1537 53.4042 58.4755 53.6999L60.7029 55.725C60.8381 55.8471 60.8188 56.0014 60.7995 56.0593C60.7802 56.1171 60.7223 56.2586 60.542 56.2907L57.5807 56.8307C57.1429 56.9079 56.776 57.1972 56.5957 57.5958L55.3597 60.3409C55.2825 60.508 55.1344 60.5337 55.07 60.5337C55.0057 60.5337 54.8576 60.5209 54.7675 60.3602L53.3383 57.7115C53.1259 57.3258 52.7396 57.0622 52.3019 57.0172L49.3084 56.6893C49.1217 56.67 49.0573 56.535 49.0315 56.4707C49.0122 56.4129 48.9736 56.265 49.1024 56.13L51.1817 53.9571C51.4843 53.6356 51.613 53.192 51.5229 52.7613L50.9113 49.8169C50.8856 49.6948 50.9306 49.6048 50.9693 49.5469C51.0401 49.4569 51.1367 49.4119 51.2332 49.4055Z" fill="url(#paint7_linear)"/>
<path d="M57.6451 53.2565C57.6773 53.2565 57.7095 53.2758 57.7159 53.3079C57.8125 53.5779 57.9799 53.8222 58.1923 54.0086L59.0421 54.7801C59.0743 54.8058 59.0743 54.8573 59.0485 54.8894C59.0228 54.9215 58.9713 54.9215 58.9391 54.8958L58.0893 54.1244C57.8575 53.9186 57.6837 53.6486 57.5743 53.3593C57.5614 53.3208 57.5807 53.2758 57.6193 53.2629C57.6322 53.2565 57.6387 53.2565 57.6451 53.2565Z" fill="white"/>
<path d="M55.9458 50.865C55.9715 50.865 55.9973 50.8778 56.0166 50.9036C56.0359 50.9421 56.023 50.9871 55.9908 51.0064L55.6432 51.2057C55.3728 51.36 55.0703 51.4436 54.7548 51.4564C54.4458 51.4693 54.1304 51.405 53.8536 51.27C53.8149 51.2507 53.8021 51.2057 53.8214 51.1671C53.8407 51.1286 53.8857 51.1157 53.9244 51.135C54.1819 51.2571 54.4716 51.3214 54.7548 51.3086C55.0381 51.2957 55.3213 51.2186 55.5724 51.0771L55.92 50.8778C55.9265 50.865 55.9393 50.865 55.9458 50.865Z" fill="white"/>
<path d="M134.652 30.7491C134.569 30.7491 134.485 30.7684 134.408 30.8134L130.133 33.0313C129.824 33.1921 129.483 33.2756 129.135 33.2756C128.788 33.2756 128.446 33.1856 128.137 33.0249L123.889 30.7684C123.811 30.7234 123.728 30.7041 123.644 30.7041C123.489 30.7041 123.335 30.7748 123.232 30.897C123.161 30.9805 123.084 31.122 123.116 31.3213L123.908 36.0657C124.024 36.76 123.792 37.4672 123.283 37.9558L119.82 41.2988C119.607 41.5045 119.653 41.7488 119.685 41.8388C119.717 41.9352 119.813 42.1538 120.11 42.1988L124.873 42.9124C125.569 43.0153 126.174 43.4589 126.483 44.0889L128.594 48.4091C128.723 48.6726 128.968 48.7048 129.071 48.7048C129.167 48.7048 129.412 48.6791 129.547 48.4155L131.697 44.1146C132.013 43.4846 132.618 43.0474 133.32 42.951L138.09 42.2824C138.386 42.2438 138.489 42.0188 138.521 41.9224C138.553 41.826 138.599 41.5881 138.393 41.3824L134.961 38.0072C134.459 37.5122 134.234 36.805 134.356 36.1107L135.193 31.3727C135.232 31.1734 135.154 31.032 135.084 30.9484C134.955 30.8262 134.807 30.7491 134.652 30.7491Z" fill="url(#paint8_linear)"/>
<path d="M124.596 37.2163C124.545 37.2163 124.5 37.2485 124.48 37.2999C124.339 37.7306 124.088 38.1292 123.759 38.4442L122.44 39.7171C122.395 39.7621 122.388 39.8393 122.44 39.8907C122.485 39.9357 122.562 39.9421 122.613 39.8907L123.933 38.6178C124.287 38.2706 124.564 37.8399 124.718 37.3706C124.738 37.3063 124.706 37.2356 124.641 37.2163C124.622 37.2163 124.609 37.2163 124.596 37.2163Z" fill="white"/>
<path d="M127.191 33.3076C127.146 33.3076 127.107 33.3333 127.081 33.3719C127.049 33.4298 127.075 33.5069 127.133 33.5326L127.699 33.8348C128.137 34.0662 128.633 34.1948 129.129 34.1948C129.624 34.1948 130.12 34.0791 130.558 33.8476C130.616 33.8155 130.641 33.7448 130.609 33.6869C130.577 33.6291 130.506 33.6033 130.448 33.6355C130.043 33.8476 129.586 33.9569 129.129 33.9569C128.671 33.9569 128.214 33.8412 127.815 33.6291L127.249 33.3269C127.229 33.314 127.21 33.3076 127.191 33.3076Z" fill="white"/>
<path d="M145.126 47.9784C145.074 47.9784 145.023 47.9913 144.971 48.017L142.3 49.4056C142.107 49.5085 141.894 49.5599 141.675 49.5535C141.456 49.5535 141.244 49.4956 141.051 49.3992L138.392 47.9849C138.341 47.9591 138.289 47.9463 138.238 47.9463C138.141 47.9463 138.044 47.9913 137.98 48.0684C137.935 48.1199 137.89 48.2099 137.909 48.332L138.405 51.3021C138.476 51.7393 138.334 52.1829 138.012 52.485L135.843 54.5744C135.708 54.703 135.74 54.8573 135.759 54.9151C135.778 54.973 135.843 55.1144 136.023 55.1401L139.004 55.5837C139.441 55.648 139.815 55.9244 140.008 56.323L141.328 59.0296C141.411 59.1967 141.559 59.216 141.624 59.216C141.688 59.216 141.836 59.1967 141.92 59.036L143.265 56.3423C143.465 55.9502 143.845 55.6737 144.276 55.6159L147.257 55.198C147.443 55.1723 147.508 55.0308 147.527 54.973C147.546 54.9151 147.579 54.7608 147.443 54.6323L145.293 52.5236C144.978 52.215 144.836 51.7714 144.913 51.3343L145.435 48.3706C145.454 48.242 145.409 48.1584 145.364 48.107C145.319 48.0234 145.222 47.9784 145.126 47.9784Z" fill="url(#paint9_linear)"/>
<path d="M138.83 52.022C138.797 52.022 138.765 52.0413 138.759 52.0734C138.669 52.3434 138.514 52.5941 138.308 52.7934L137.484 53.5906C137.452 53.6227 137.452 53.6678 137.484 53.6999C137.516 53.732 137.561 53.732 137.594 53.6999L138.418 52.9027C138.643 52.6841 138.81 52.4206 138.907 52.1248C138.92 52.0863 138.9 52.0413 138.862 52.0284C138.849 52.022 138.842 52.022 138.83 52.022Z" fill="white"/>
<path d="M140.458 49.579C140.432 49.579 140.407 49.5918 140.394 49.6176C140.374 49.6561 140.387 49.7011 140.426 49.7204L140.78 49.9069C141.057 50.0547 141.366 50.1319 141.675 50.1319C141.984 50.1319 142.293 50.0612 142.57 49.9133C142.608 49.894 142.621 49.849 142.602 49.8104C142.582 49.7719 142.537 49.759 142.499 49.7783C142.248 49.9069 141.958 49.9776 141.675 49.9776C141.391 49.9776 141.102 49.9069 140.851 49.7719L140.497 49.5854C140.477 49.579 140.464 49.579 140.458 49.579Z" fill="white"/>
<path opacity="0.35" d="M137.504 148.178H54.4324C53.8015 148.178 53.293 147.67 53.293 147.04V66.4803C53.293 65.8503 53.8015 65.3424 54.4324 65.3424H137.497C138.128 65.3424 138.637 65.8503 138.637 66.4803V147.046C138.637 147.67 138.128 148.178 137.504 148.178Z" fill="white"/>
<path opacity="0.72" d="M117.457 74.4004H78.5671C78.3482 74.4004 78.168 74.2204 78.168 74.0018V69.7331C78.168 69.5145 78.3482 69.3345 78.5671 69.3345H117.457C117.676 69.3345 117.856 69.5145 117.856 69.7331V74.0018C117.856 74.2268 117.682 74.4004 117.457 74.4004Z" fill="white"/>
<path opacity="0.72" d="M134.433 84.828H58.6237C58.4049 84.828 58.2246 84.648 58.2246 84.4294V80.5979C58.2246 80.3793 58.4049 80.1993 58.6237 80.1993H134.427C134.646 80.1993 134.826 80.3793 134.826 80.5979V84.4294C134.832 84.648 134.652 84.828 134.433 84.828Z" fill="white"/>
<path opacity="0.72" d="M106.539 95.2489H58.3855C58.1666 95.2489 57.9863 95.0689 57.9863 94.8503V91.0189C57.9863 90.8003 58.1666 90.6203 58.3855 90.6203H106.539C106.758 90.6203 106.938 90.8003 106.938 91.0189V94.8503C106.938 95.0689 106.764 95.2489 106.539 95.2489Z" fill="white"/>
<path opacity="0.72" d="M132.218 105.824H58.7458C58.5269 105.824 58.3467 105.644 58.3467 105.426V101.594C58.3467 101.376 58.5269 101.196 58.7458 101.196H132.218C132.437 101.196 132.618 101.376 132.618 101.594V105.426C132.618 105.644 132.444 105.824 132.218 105.824Z" fill="white"/>
<path opacity="0.72" d="M119.253 116.245H58.5075C58.2887 116.245 58.1084 116.065 58.1084 115.847V112.015C58.1084 111.797 58.2887 111.617 58.5075 111.617H119.253C119.472 111.617 119.652 111.797 119.652 112.015V115.847C119.652 116.065 119.478 116.245 119.253 116.245Z" fill="white"/>
<path opacity="0.72" d="M134.665 127.393H58.862C58.6431 127.393 58.4629 127.213 58.4629 126.995V123.163C58.4629 122.944 58.6431 122.764 58.862 122.764H134.665C134.884 122.764 135.064 122.944 135.064 123.163V126.995C135.071 127.213 134.89 127.393 134.665 127.393Z" fill="white"/>
<path opacity="0.72" d="M103.082 137.814H58.6237C58.4049 137.814 58.2246 137.634 58.2246 137.415V133.584C58.2246 133.365 58.4049 133.185 58.6237 133.185H103.082C103.301 133.185 103.481 133.365 103.481 133.584V137.415C103.488 137.64 103.307 137.814 103.082 137.814Z" fill="white"/>
<path d="M141.811 178.914C143.756 179.081 147.123 179.351 149.781 179.473C151.378 179.544 152.298 179.39 152.826 179.177C152.826 179.235 152.826 179.293 152.82 179.345C152.807 179.621 152.582 179.846 152.298 179.865C147.277 180.148 143.279 179.962 141.863 179.878C141.567 179.859 141.393 179.544 141.541 179.293C141.625 179.158 141.715 179.029 141.811 178.914Z" fill="url(#paint10_linear)"/>
<path d="M149.788 179.467C147.129 179.351 143.756 179.074 141.818 178.907C143.73 176.567 149.788 174.992 149.788 174.992H151.501C152.679 176.689 152.846 178.303 152.833 179.171C152.305 179.383 151.385 179.537 149.788 179.467Z" fill="url(#paint11_linear)"/>
<path d="M151.783 172.202L151.622 175.365C151.603 175.705 151.345 175.995 151.004 176.046C150.663 176.098 150.206 176.104 149.716 175.937C149.42 175.84 149.195 175.583 149.143 175.281L148.59 172.202H151.783Z" fill="url(#paint12_linear)"/>
<path d="M174.025 179.448C174.869 179.332 175.249 178.895 175.409 178.426C175.409 178.432 175.409 178.432 175.409 178.438C175.532 178.933 175.249 179.441 174.669 179.686C173.974 179.981 173.214 180.026 172.628 180.007C171.998 179.981 171.418 179.718 171.096 179.3L171.09 179.293C171.727 179.602 172.616 179.641 174.025 179.448Z" fill="url(#paint13_linear)"/>
<path d="M170.053 172.183H171.463C173.613 172.138 174.965 176.67 175.409 178.425C175.248 178.895 174.868 179.332 174.025 179.448C172.622 179.64 171.727 179.608 171.096 179.293C169.937 177.763 169.358 175.532 169.081 174.227C168.766 172.736 170.053 172.183 170.053 172.183Z" fill="url(#paint14_linear)"/>
<path d="M171.283 169.245L172.068 172.357C172.165 172.736 171.984 173.134 171.63 173.314C171.193 173.54 170.575 173.777 170.008 173.707C169.744 173.675 169.519 173.488 169.429 173.237L168.276 169.959L171.283 169.245Z" fill="url(#paint15_linear)"/>
<path d="M172.216 170.145C171.238 171.006 168.07 171.122 168.07 171.122C156.644 143.729 151.97 139.84 151.97 139.84C153.618 150.177 152.234 173.07 152.234 173.07C150.348 173.899 147.914 173.07 147.914 173.07C147.76 156.143 145.159 141.382 142.075 129.746C149.8 129.573 153.908 126.931 155.247 125.876C161.691 136.233 172.216 170.145 172.216 170.145Z" fill="url(#paint16_linear)"/>
<path d="M153.29 94.3686C154.751 101.652 154.23 114.684 153.882 120.63C153.786 122.302 154.951 124.616 155.897 126.198C156.045 126.448 155.955 126.763 155.697 126.892C154.114 127.702 148.764 130.216 142.552 130.531C142.14 130.55 141.766 130.267 141.663 129.869C137.061 112.704 131.711 101.73 131.711 101.73C137.621 92.3242 153.29 94.3686 153.29 94.3686Z" fill="url(#paint17_linear)"/>
<path d="M151.185 139.19C151.249 139.19 151.314 139.171 151.378 139.139C151.552 139.036 151.603 138.811 151.5 138.637C151.436 138.534 149.962 136.149 146.968 134.709C146.788 134.619 146.569 134.696 146.479 134.876C146.389 135.056 146.466 135.275 146.653 135.365C149.44 136.709 150.863 138.991 150.876 139.017C150.94 139.126 151.063 139.19 151.185 139.19Z" fill="url(#paint18_linear)"/>
<path d="M162.463 115.268C161.993 118.663 160.609 122.359 157.828 126.294L156.772 125.432C156.772 125.432 157.989 120.495 157.3 114.896C159.013 114.568 161.034 114.908 162.463 115.268Z" fill="url(#paint19_linear)"/>
<path d="M151.654 103.356L153.289 94.3685C153.289 94.3685 164.201 102.7 162.463 115.269C161.034 114.909 159.012 114.561 157.3 114.896C156.798 110.865 155.311 106.487 151.654 103.356Z" fill="url(#paint20_linear)"/>
<path d="M131.711 101.736L135.921 110.794C135.238 116.265 132.296 118.624 129.129 119.531C128.93 117.036 128.299 115.024 127.713 113.629C131.769 109.457 131.711 101.736 131.711 101.736Z" fill="url(#paint21_linear)"/>
<path d="M127.72 113.636C128.305 115.031 128.936 117.043 129.136 119.537C120.67 122.816 118.437 116.458 118.437 116.458L120.001 116.182C123.522 116.554 125.994 115.416 127.72 113.636Z" fill="url(#paint22_linear)"/>
<path d="M135.593 90.5562L137.627 98.02C137.852 98.8558 138.767 99.3058 139.571 98.9843C140.44 98.6372 141.548 98.1615 142.5 97.6472C143.518 97.1007 143.833 95.7957 143.189 94.8378L138.96 88.544L135.593 90.5562Z" fill="url(#paint23_linear)"/>
<path d="M131.144 84.8861C131.124 85.0147 132.837 93.4044 132.837 93.4044L137.614 92.3243L137.169 84.134C137.176 84.1275 131.453 82.7389 131.144 84.8861Z" fill="url(#paint24_linear)"/>
<path d="M136.101 85.9533L136.674 90.2477C136.68 90.3056 136.68 90.357 136.674 90.4149C136.629 90.7492 136.378 91.8999 135.219 91.5721C134.17 91.2764 133.204 91.0192 132.541 91.2249C132.245 91.3149 132.065 91.6171 132.123 91.9257C132.277 92.6907 132.663 94.4008 133.223 95.8344C133.339 96.1237 133.655 96.278 133.957 96.1944C134.865 95.9308 136.758 95.3201 138.167 94.4715C138.361 94.3558 138.47 94.15 138.464 93.925C138.419 92.8386 138.29 89.547 138.399 88.6212C138.502 87.7534 139.564 87.2326 140.028 87.0462C140.182 86.9883 140.298 86.8662 140.356 86.7119C140.569 86.1783 140.865 84.9311 139.3 84.4232C138.972 84.3139 138.798 83.9668 138.914 83.6389C139.146 82.996 139.243 82.006 138.032 81.466C136.803 80.9131 135.882 81.5688 135.386 82.1024C135.187 82.321 134.865 82.3531 134.614 82.1924C134.472 82.1024 134.292 82.0767 134.067 82.2117C133.771 82.3981 133.378 82.2696 133.223 81.9546C132.927 81.3503 132.329 80.7009 131.118 80.9067C128.981 81.2731 128.736 83.6389 129.303 85.0275C129.869 86.4162 132.168 85.889 133.32 85.1883C134.195 84.6547 135.335 85.214 135.831 85.5097C135.972 85.6126 136.075 85.7733 136.101 85.9533Z" fill="url(#paint25_linear)"/>
<path d="M138.58 90.1837C138.58 90.1837 137.698 87.7214 138.606 87.1235C139.507 86.5192 140.846 86.8342 140.556 88.615C140.189 90.8265 138.58 90.1837 138.58 90.1837Z" fill="url(#paint26_linear)"/>
<path d="M119.054 117.622C118.629 117.956 117.168 117.262 116.273 116.779C115.835 116.548 115.629 116.04 115.777 115.564C115.99 114.889 116.35 114.015 116.794 113.906C117.528 113.719 120.811 116.252 119.054 117.622Z" fill="url(#paint27_linear)"/>
<path d="M180.276 133.578L93.8059 107.477L89.9111 120.168L176.394 147.117C178.229 147.689 180.212 146.86 181.1 145.156C182.014 143.408 182.832 140.695 182.697 136.709C182.639 135.256 181.667 133.996 180.276 133.578Z" fill="url(#paint28_linear)"/>
<path d="M67.3471 105.516L79.1601 106.391C79.2245 108.004 78.7996 110.119 77.1194 112.601L66.9994 106.616C66.4651 106.294 66.7226 105.471 67.3471 105.516Z" fill="url(#paint29_linear)"/>
<path d="M93.8059 107.477C94.72 115.269 89.9111 120.168 89.9111 120.168L77.126 112.601C78.7998 110.119 79.2311 108.004 79.1667 106.391L93.8059 107.477Z" fill="url(#paint30_linear)"/>
<path d="M179.407 137.454C179.51 137.448 179.6 137.384 179.632 137.274C179.671 137.139 179.6 137.004 179.465 136.966L96.7414 112.176C96.6062 112.138 96.471 112.208 96.4324 112.343C96.3937 112.478 96.4645 112.613 96.5997 112.652L179.323 137.441C179.349 137.448 179.375 137.454 179.407 137.454Z" fill="url(#paint31_linear)"/>
<path d="M178.235 142.418C178.338 142.411 178.428 142.347 178.46 142.238C178.499 142.103 178.428 141.968 178.293 141.929L95.5695 117.14C95.4343 117.101 95.2991 117.172 95.2605 117.307C95.2219 117.442 95.2927 117.577 95.4279 117.615L178.151 142.405C178.184 142.411 178.209 142.418 178.235 142.418Z" fill="url(#paint32_linear)"/>
<path d="M157.21 125.285L152.285 124.886L150.154 126.847C150.154 126.847 150.656 127.541 152.234 127.143C153.811 126.744 155.974 126.641 155.974 126.641C155.974 126.641 158.15 127.625 158.176 125.786L157.21 125.285Z" fill="url(#paint33_linear)"/>
<defs>
<linearGradient id="paint0_linear" x1="7.73021" y1="54.1007" x2="61.0869" y2="53.3366" gradientUnits="userSpaceOnUse">
<stop stop-color="#18459F"/>
<stop offset="1" stop-color="#2874B5"/>
</linearGradient>
<linearGradient id="paint1_linear" x1="10.4745" y1="112.271" x2="56.9935" y2="102.797" gradientUnits="userSpaceOnUse">
<stop stop-color="#2B3582"/>
<stop offset="1" stop-color="#150E42"/>
</linearGradient>
<linearGradient id="paint2_linear" x1="1.98888" y1="124.801" x2="60.2989" y2="124.801" gradientUnits="userSpaceOnUse">
<stop stop-color="#18459F"/>
<stop offset="1" stop-color="#2874B5"/>
</linearGradient>
<linearGradient id="paint3_linear" x1="41.3975" y1="95.7004" x2="151.401" y2="93.2875" gradientUnits="userSpaceOnUse">
<stop stop-color="#2B3582"/>
<stop offset="1" stop-color="#150E42"/>
</linearGradient>
<linearGradient id="paint4_linear" x1="38.2997" y1="7.77497" x2="143.767" y2="161.63" gradientUnits="userSpaceOnUse">
<stop stop-color="#A737D5"/>
<stop offset="1" stop-color="#EF497A"/>
</linearGradient>
<linearGradient id="paint5_linear" x1="94.4152" y1="35.5548" x2="115.851" y2="0.44746" gradientUnits="userSpaceOnUse">
<stop stop-color="#FDF53F"/>
<stop offset="1" stop-color="#D93C65"/>
</linearGradient>
<linearGradient id="paint6_linear" x1="65.7548" y1="40.3739" x2="82.1424" y2="13.5347" gradientUnits="userSpaceOnUse">
<stop stop-color="#FDF53F"/>
<stop offset="1" stop-color="#D93C65"/>
</linearGradient>
<linearGradient id="paint7_linear" x1="53.2841" y1="57.067" x2="63.539" y2="40.2718" gradientUnits="userSpaceOnUse">
<stop stop-color="#FDF53F"/>
<stop offset="1" stop-color="#D93C65"/>
</linearGradient>
<linearGradient id="paint8_linear" x1="121.524" y1="43.6156" x2="147.605" y2="23.5793" gradientUnits="userSpaceOnUse">
<stop stop-color="#FDF53F"/>
<stop offset="1" stop-color="#D93C65"/>
</linearGradient>
<linearGradient id="paint9_linear" x1="137.757" y1="56.0354" x2="155.358" y2="40.1801" gradientUnits="userSpaceOnUse">
<stop stop-color="#FDF53F"/>
<stop offset="1" stop-color="#D93C65"/>
</linearGradient>
<linearGradient id="paint10_linear" x1="152.833" y1="179.459" x2="141.494" y2="179.459" gradientUnits="userSpaceOnUse">
<stop stop-color="#53D8FF"/>
<stop offset="1" stop-color="#3840F7"/>
</linearGradient>
<linearGradient id="paint11_linear" x1="152.834" y1="177.24" x2="141.815" y2="177.24" gradientUnits="userSpaceOnUse">
<stop stop-color="#2B3582"/>
<stop offset="1" stop-color="#150E42"/>
</linearGradient>
<linearGradient id="paint12_linear" x1="151.786" y1="174.141" x2="148.592" y2="174.141" gradientUnits="userSpaceOnUse">
<stop stop-color="#F9B776"/>
<stop offset="1" stop-color="#F47960"/>
</linearGradient>
<linearGradient id="paint13_linear" x1="175.439" y1="179.215" x2="171.093" y2="179.215" gradientUnits="userSpaceOnUse">
<stop stop-color="#53D8FF"/>
<stop offset="1" stop-color="#3840F7"/>
</linearGradient>
<linearGradient id="paint14_linear" x1="175.407" y1="175.874" x2="169.029" y2="175.874" gradientUnits="userSpaceOnUse">
<stop stop-color="#2B3582"/>
<stop offset="1" stop-color="#150E42"/>
</linearGradient>
<linearGradient id="paint15_linear" x1="172.092" y1="171.483" x2="168.274" y2="171.483" gradientUnits="userSpaceOnUse">
<stop stop-color="#F9B776"/>
<stop offset="1" stop-color="#F47960"/>
</linearGradient>
<linearGradient id="paint16_linear" x1="201.756" y1="67.1079" x2="145.699" y2="171.489" gradientUnits="userSpaceOnUse">
<stop stop-color="#53D8FF"/>
<stop offset="1" stop-color="#3840F7"/>
</linearGradient>
<linearGradient id="paint17_linear" x1="124.088" y1="91.9086" x2="211.491" y2="168.031" gradientUnits="userSpaceOnUse">
<stop stop-color="#53D8FF"/>
<stop offset="1" stop-color="#3840F7"/>
</linearGradient>
<linearGradient id="paint18_linear" x1="159.229" y1="157.365" x2="157.404" y2="153.71" gradientUnits="userSpaceOnUse">
<stop stop-color="#53D8FF"/>
<stop offset="1" stop-color="#3840F7"/>
</linearGradient>
<linearGradient id="paint19_linear" x1="154.604" y1="115.919" x2="168.176" y2="127.954" gradientUnits="userSpaceOnUse">
<stop stop-color="#F9B776"/>
<stop offset="1" stop-color="#F47960"/>
</linearGradient>
<linearGradient id="paint20_linear" x1="131.383" y1="83.8542" x2="218.392" y2="159.633" gradientUnits="userSpaceOnUse">
<stop stop-color="#53D8FF"/>
<stop offset="1" stop-color="#3840F7"/>
</linearGradient>
<linearGradient id="paint21_linear" x1="117.689" y1="99.5773" x2="204.698" y2="175.357" gradientUnits="userSpaceOnUse">
<stop stop-color="#53D8FF"/>
<stop offset="1" stop-color="#3840F7"/>
</linearGradient>
<linearGradient id="paint22_linear" x1="129.131" y1="117.056" x2="118.429" y2="117.056" gradientUnits="userSpaceOnUse">
<stop stop-color="#F9B776"/>
<stop offset="1" stop-color="#F47960"/>
</linearGradient>
<linearGradient id="paint23_linear" x1="139.533" y1="88.4968" x2="139.649" y2="108.453" gradientUnits="userSpaceOnUse">
<stop stop-color="#F9B776"/>
<stop offset="1" stop-color="#F47960"/>
</linearGradient>
<linearGradient id="paint24_linear" x1="133.048" y1="85.2154" x2="140.908" y2="99.4893" gradientUnits="userSpaceOnUse">
<stop stop-color="#F9B776"/>
<stop offset="1" stop-color="#F47960"/>
</linearGradient>
<linearGradient id="paint25_linear" x1="114.54" y1="57.5352" x2="148.369" y2="107.187" gradientUnits="userSpaceOnUse">
<stop stop-color="#2B3582"/>
<stop offset="1" stop-color="#150E42"/>
</linearGradient>
<linearGradient id="paint26_linear" x1="145.835" y1="97.4558" x2="139.194" y2="88.3213" gradientUnits="userSpaceOnUse">
<stop stop-color="#F9B776"/>
<stop offset="1" stop-color="#F47960"/>
</linearGradient>
<linearGradient id="paint27_linear" x1="119.566" y1="115.801" x2="115.733" y2="115.801" gradientUnits="userSpaceOnUse">
<stop stop-color="#F9B776"/>
<stop offset="1" stop-color="#F47960"/>
</linearGradient>
<linearGradient id="paint28_linear" x1="91.3513" y1="98.0374" x2="218.886" y2="182.096" gradientUnits="userSpaceOnUse">
<stop stop-color="#2B3582"/>
<stop offset="1" stop-color="#150E42"/>
</linearGradient>
<linearGradient id="paint29_linear" x1="87.991" y1="118.239" x2="71.0869" y2="104.899" gradientUnits="userSpaceOnUse">
<stop stop-color="#2B3582"/>
<stop offset="1" stop-color="#150E42"/>
</linearGradient>
<linearGradient id="paint30_linear" x1="72.7927" y1="98.2285" x2="135.826" y2="157.142" gradientUnits="userSpaceOnUse">
<stop stop-color="#FDF53F"/>
<stop offset="1" stop-color="#D93C65"/>
</linearGradient>
<linearGradient id="paint31_linear" x1="109.554" y1="98.2645" x2="166.438" y2="151.43" gradientUnits="userSpaceOnUse">
<stop stop-color="#A737D5"/>
<stop offset="1" stop-color="#EF497A"/>
</linearGradient>
<linearGradient id="paint32_linear" x1="108.387" y1="103.227" x2="165.271" y2="156.393" gradientUnits="userSpaceOnUse">
<stop stop-color="#A737D5"/>
<stop offset="1" stop-color="#EF497A"/>
</linearGradient>
<linearGradient id="paint33_linear" x1="149.237" y1="121.971" x2="162.809" y2="134.005" gradientUnits="userSpaceOnUse">
<stop stop-color="#F9B776"/>
<stop offset="1" stop-color="#F47960"/>
</linearGradient>
</defs>
</svg>
