<svg width="174" height="185" viewBox="0 0 174 185" fill="none" xmlns="http://www.w3.org/2000/svg">
    <path d="M79.667 185c43.999 0 79.668-4.011 79.668-8.959 0-4.948-35.669-8.959-79.668-8.959-43.999 0-79.667 4.011-79.667 8.959C0 180.989 35.668 185 79.667 185z" fill="currentColor"/>
    <rect x="25" width="110" height="176" rx="9" fill="#292955"/>
    <path d="M127.579 16.366v138.822c0 4.103-2.912 7.562-6.774 8.406a8.55 8.55 0 01-1.83.198H41.234c-4.733 0-8.605-3.872-8.605-8.604V16.366c0-4.733 3.872-8.605 8.605-8.605h77.741c4.732 0 8.604 3.872 8.604 8.605z" fill="#fff"/>
    <path d="M127.579 17.011v138.177c0 4.103-2.912 7.562-6.774 8.406a8.543 8.543 0 003.75-7.059V20.043c0-4.7-3.849-8.549-8.552-8.549H39.599a8.547 8.547 0 00-6.646 3.187c1.023-3.577 4.332-6.219 8.228-6.219h77.843c4.707 0 8.555 3.846 8.555 8.549z" fill="#E3E8F8"/>
    <path fill-rule="evenodd" clip-rule="evenodd" d="M43.371 119.997a1.82 1.82 0 00-1.82 1.821v5.761a1.82 1.82 0 001.82 1.821h71.49a1.82 1.82 0 001.82-1.821v-5.761a1.82 1.82 0 00-1.82-1.821h-71.49zm-3.474 1.821a3.474 3.474 0 013.474-3.475h71.49a3.474 3.474 0 013.475 3.475v5.761a3.475 3.475 0 01-3.475 3.476h-71.49a3.475 3.475 0 01-3.474-3.476v-5.761zm3.474-21.857a1.82 1.82 0 00-1.82 1.821v5.762a1.82 1.82 0 001.82 1.82h71.49a1.82 1.82 0 001.82-1.82v-5.762a1.82 1.82 0 00-1.82-1.82h-71.49zm-3.474 1.821a3.474 3.474 0 013.474-3.475h71.49a3.474 3.474 0 013.475 3.475v5.762a3.475 3.475 0 01-3.475 3.475h-71.49a3.475 3.475 0 01-3.474-3.475v-5.762zm3.474-21.522a1.82 1.82 0 00-1.82 1.82v5.762a1.82 1.82 0 001.82 1.82h71.49a1.82 1.82 0 001.82-1.82V82.08a1.82 1.82 0 00-1.82-1.82h-71.49zm-3.474 1.82a3.474 3.474 0 013.474-3.475h71.49a3.474 3.474 0 013.475 3.475v5.762a3.474 3.474 0 01-3.475 3.475h-71.49a3.474 3.474 0 01-3.474-3.475V82.08zm3.474 57.95a1.82 1.82 0 00-1.82 1.82v5.762a1.82 1.82 0 001.82 1.82h71.49c1.006 0 1.82-.814 1.82-1.82v-5.762c0-1.006-.814-1.82-1.82-1.82h-71.49zm-3.474 1.82a3.474 3.474 0 013.474-3.475h71.49a3.474 3.474 0 013.475 3.475v5.762a3.474 3.474 0 01-3.475 3.475h-71.49a3.474 3.474 0 01-3.474-3.475v-5.762z" fill="#7F5A87"/>
    <path d="M88.613 71.41H43.37a2.647 2.647 0 01-2.647-2.648v-1.8a2.647 2.647 0 012.648-2.648h45.24a2.647 2.647 0 012.648 2.648v1.8a2.647 2.647 0 01-2.647 2.648z" fill="#7F5A87"/>
    <path d="M48.031 27.843h-5.295a2.655 2.655 0 01-2.647-2.648V19.9a2.655 2.655 0 012.647-2.647h5.295A2.655 2.655 0 0150.68 19.9v5.296a2.655 2.655 0 01-2.648 2.647z" fill="#54B4F2"/>
    <path d="M80.839 55.11c9.543 0 17.279-7.736 17.279-17.279s-7.736-17.279-17.28-17.279c-9.542 0-17.278 7.736-17.278 17.28 0 9.542 7.736 17.279 17.279 17.279z" fill="#96A1F0"/>
    <path d="M80.832 37.315a4.06 4.06 0 100-8.122 4.06 4.06 0 000 8.122zm-.265 11.583c4.091 0 6.13-1.029 7.311-2.144 1.182-1.115.12-2.35-1.3-4.696-.884-1.466-3.25-3.667-6.01-3.667h.264c-2.76 0-5.126 2.2-6.01 3.667-1.416 2.35-2.482 3.584-1.3 4.696 1.181 1.112 3.22 2.145 7.31 2.145" fill="#552B60"/>
    <path d="M173.579 44.037c-.523 1.651-64.781 68.659-64.781 68.659l-.325.186-20.975 12.139c-1.367.791-2.93-.668-2.234-2.085l10.292-21.062.023-.043 65.629-68.964s3.733-.553 5.504-.007c1.277.394 6.344 3.787 6.738 4.971.39 1.185.655 4.558.129 6.206z" fill="#FF6D4A"/>
    <path d="M108.473 112.882l-14.902 8.624-6.073 3.515c-1.367.791-2.93-.668-2.234-2.085l2.862-5.861 7.43-15.201c5.279 1.351 10.187 4.514 12.917 11.008z" fill="#FFC9C4"/>
    <path fill-rule="evenodd" clip-rule="evenodd" d="M170.984 40.909c.198.19.204.504.014.702L109.026 106a.495.495 0 11-.715-.688l61.971-64.39a.497.497 0 01.702-.014zm-5.083-4.491c.197.19.203.504.013.702l-61.481 63.877a.496.496 0 11-.716-.688l61.482-63.878a.497.497 0 01.702-.013z" fill="#693D52"/>
    <path d="M93.57 121.506l-6.072 3.515c-1.367.791-2.93-.668-2.234-2.085l2.862-5.861c2.522.364 4.717 1.569 5.445 4.431z" fill="#292955"/>
</svg>
