<svg width="130" height="130" viewBox="0 0 130 130" fill="none" xmlns="http://www.w3.org/2000/svg">
<rect width="130" height="130" rx="10" fill="white"/>
<path d="M81.972 29.037V84.3148C81.972 88.9444 79.0553 92.9259 74.8887 94.4537C73.7313 94.8703 72.4813 95.1018 71.1387 95.1018H33.0368C27.0646 95.1018 22.2498 90.287 22.2498 84.3148V29.037C22.2498 23.0648 27.0646 18.2499 33.0368 18.2499H71.185C72.4813 18.2499 73.7313 18.4814 74.935 18.8981C79.0553 20.4259 81.972 24.4073 81.972 29.037Z" fill="#EFEDEF"/>
<path d="M81.9723 28.8518V84.1296C81.9723 88.7593 79.0556 92.7408 74.8889 94.2685V18.713C79.0556 20.2407 81.9723 24.2222 81.9723 28.8518Z" fill="#E3E0E4"/>
<path d="M70.2128 44.0371H49.935C49.2405 44.0371 48.6387 43.4815 48.6387 42.7408C48.6387 42 49.1942 41.4445 49.935 41.4445H70.1665C70.8609 41.4445 71.4628 42 71.4628 42.7408C71.4628 43.4815 70.9072 44.0371 70.2128 44.0371Z" fill="#222222"/>
<path d="M44.7037 44.0371H34.0556C33.3611 44.0371 32.7593 43.4815 32.7593 42.7408C32.7593 42 33.3148 41.4445 34.0556 41.4445H44.7037C45.3982 41.4445 46 42 46 42.7408C46 43.4815 45.3982 44.0371 44.7037 44.0371Z" fill="#222222"/>
<path d="M70.2128 33.0185H62.2035C61.5091 33.0185 60.9072 32.4629 60.9072 31.7222C60.9072 30.9815 61.4628 30.4259 62.2035 30.4259H70.1665C70.8609 30.4259 71.4628 30.9815 71.4628 31.7222C71.4628 32.4629 70.9072 33.0185 70.2128 33.0185Z" fill="#222222"/>
<path d="M57.2019 33.0186H34.1C33.4056 33.0186 32.8037 32.463 32.8037 31.7223C32.8037 30.9815 33.3593 30.426 34.1 30.426H57.2019C57.8963 30.426 58.4982 30.9815 58.4982 31.7223C58.4982 32.463 57.8963 33.0186 57.2019 33.0186Z" fill="#222222"/>
<path d="M70.2127 55.8427H63.7775C63.0831 55.8427 62.4812 55.2871 62.4812 54.5464C62.4812 53.8056 63.0368 53.2501 63.7775 53.2501H70.1664C70.8608 53.2501 71.4627 53.8056 71.4627 54.5464C71.4627 55.2871 70.9071 55.8427 70.2127 55.8427Z" fill="#222222"/>
<path d="M57.2033 55.8427H34.1015C33.407 55.8427 32.8052 55.2871 32.8052 54.5464C32.8052 53.8056 33.3607 53.2501 34.1015 53.2501H57.2033C57.8978 53.2501 58.4996 53.8056 58.4996 54.5464C58.4996 55.2871 57.8978 55.8427 57.2033 55.8427Z" fill="#222222"/>
<path d="M47.9904 67.6481H34.1015C33.407 67.6481 32.8052 67.0926 32.8052 66.3518C32.8052 65.6111 33.3607 65.0555 34.1015 65.0555H47.9904C48.6848 65.0555 49.2867 65.6111 49.2867 66.3518C49.2867 67.0926 48.6848 67.6481 47.9904 67.6481Z" fill="#222222"/>
<path d="M71.2315 96.3519H33.037C26.3704 96.3519 21 90.9352 21 84.3148V29.037C21 22.3704 26.4167 17 33.037 17H71.1852C77.8519 17 83.2222 22.4167 83.2222 29.037V84.3148C83.2685 90.9815 77.8519 96.3519 71.2315 96.3519ZM33.037 19.5C27.8056 19.5 23.5463 23.7593 23.5463 28.9907V84.2685C23.5463 89.5 27.8056 93.7593 33.037 93.7593H71.1852C76.4167 93.7593 80.6759 89.5 80.6759 84.2685V29.037C80.6759 23.8056 76.4167 19.5463 71.1852 19.5463H33.037V19.5Z" fill="#222222"/>
<path d="M105.352 75.0556V105.935C105.352 108.574 103.176 110.75 100.537 110.75H60.3519C57.713 110.75 55.5371 108.574 55.5371 105.935V65.7501C55.5371 63.1112 57.713 60.9352 60.3519 60.9352H91.2316C92.5279 60.9352 93.7316 61.4445 94.6575 62.3241L103.963 71.6297C104.843 72.5556 105.352 73.8056 105.352 75.0556Z" fill="#82AEE3"/>
<path d="M105.352 75.4723V106.352C105.352 108.991 103.176 111.167 100.537 111.167H60.3515C57.9441 111.167 55.9071 109.361 55.583 107.046C56.1386 107.278 56.6941 107.37 57.3423 107.37H97.5275C100.166 107.37 102.342 105.195 102.342 102.556V71.676C102.342 71.1668 102.25 70.7038 102.111 70.2408L103.916 72.0464C104.842 72.9723 105.352 74.176 105.352 75.4723Z" fill="#528FD8"/>
<path d="M87.62 60.9352V71.0741C87.62 72.4167 86.5552 73.4815 85.2126 73.4815H66.8329C65.4904 73.4815 64.4255 72.4167 64.4255 71.0741V60.9352H87.62Z" fill="#D9E7EC"/>
<path d="M82.0183 62.463V72.463H84.3794V62.6019L82.0183 62.463Z" fill="#CDDBDF"/>
<path d="M87.62 70.6113V71.028C87.62 72.3706 86.5552 73.4354 85.2126 73.4354H66.8329C65.4904 73.4354 64.4255 72.3706 64.4255 71.028V70.6113H87.62Z" fill="#CDDBDF"/>
<path d="M76 60.9352V71.0741C76 72.4167 77.0648 73.4815 78.4074 73.4815H85.213C86.5556 73.4815 87.6204 72.4167 87.6204 71.0741V60.9352H76ZM83.9167 69.6389C83.9167 70.1945 83.4537 70.6575 82.8981 70.6575H80.7222C80.1667 70.6575 79.7037 70.1945 79.7037 69.6389V64.7778C79.7037 64.2223 80.1667 63.7593 80.7222 63.7593H82.8981C83.4537 63.7593 83.9167 64.2223 83.9167 64.7778V69.6389Z" fill="#596C76"/>
<path d="M96.7867 88.6204V110.75H64.4255V88.6204C64.4255 87.2778 65.4904 86.213 66.8329 86.213H94.3792C95.6755 86.213 96.7867 87.2778 96.7867 88.6204Z" fill="#D9E7EC"/>
<path d="M96.7867 107.324H64.4255V111.121H96.7867V107.324Z" fill="#CDDBDF"/>
<path d="M91.8793 93.8057H69.2867C68.6386 93.8057 68.083 93.2501 68.083 92.602C68.083 91.9538 68.6386 91.3983 69.2867 91.3983H91.8793C92.5275 91.3983 93.083 91.9538 93.083 92.602C93.083 93.2501 92.5275 93.8057 91.8793 93.8057Z" fill="#222222"/>
<path d="M91.8793 99.6391H69.2867C68.6386 99.6391 68.083 99.0835 68.083 98.4354C68.083 97.7872 68.6386 97.2317 69.2867 97.2317H91.8793C92.5275 97.2317 93.083 97.7872 93.083 98.4354C93.083 99.0835 92.5275 99.6391 91.8793 99.6391Z" fill="#222222"/>
<path d="M91.8793 105.472H69.2867C68.6386 105.472 68.083 104.917 68.083 104.269C68.083 103.62 68.6386 103.065 69.2867 103.065H91.8793C92.5275 103.065 93.083 103.62 93.083 104.269C93.083 104.917 92.5275 105.472 91.8793 105.472Z" fill="#222222"/>
<path d="M97.9905 111.954H63.2219V88.6206C63.2219 86.6298 64.8423 85.0095 66.833 85.0095H94.3793C96.3701 85.0095 97.9905 86.6298 97.9905 88.6206V111.954ZM65.6293 109.547H95.5831V88.6206C95.5831 87.9724 95.0275 87.4169 94.3793 87.4169H66.833C66.1849 87.4169 65.6293 87.9724 65.6293 88.6206V109.547Z" fill="#222222"/>
<path d="M100.537 111.954H60.3518C57.0184 111.954 54.3333 109.269 54.3333 105.935V65.75C54.3333 62.4167 57.0184 59.7315 60.3518 59.7315H91.2314C92.8518 59.7315 94.3333 60.3797 95.4907 61.4908L104.796 70.7963C105.954 71.9537 106.555 73.4352 106.555 75.0556V105.935C106.555 109.269 103.87 111.954 100.537 111.954ZM60.3518 62.1389C58.361 62.1389 56.7407 63.7593 56.7407 65.75V105.935C56.7407 107.926 58.361 109.546 60.3518 109.546H100.537C102.528 109.546 104.148 107.926 104.148 105.935V75.0556C104.148 74.0834 103.778 73.2037 103.083 72.5093L93.7777 63.2037C93.0833 62.5093 92.2036 62.1389 91.2314 62.1389H60.3518Z" fill="#222222"/>
<path d="M85.2127 74.6853H66.833C64.8423 74.6853 63.2219 73.0649 63.2219 71.0742V59.7316H88.8701V71.0742C88.8238 73.0649 87.2034 74.6853 85.2127 74.6853ZM65.6293 62.139V71.0742C65.6293 71.7223 66.1849 72.2779 66.833 72.2779H85.259C85.9071 72.2779 86.4627 71.7223 86.4627 71.0742V62.139H65.6293Z" fill="#222222"/>
<path d="M85.2128 74.6853H78.4073C76.4165 74.6853 74.7961 73.0649 74.7961 71.0742V59.7316H88.8239V71.0742C88.8239 73.0649 87.2036 74.6853 85.2128 74.6853ZM77.2036 62.139V71.0742C77.2036 71.7223 77.7591 72.2779 78.4073 72.2779H85.2128C85.861 72.2779 86.4165 71.7223 86.4165 71.0742V62.139H77.2036Z" fill="#222222"/>
<path d="M82.8981 70.6113H80.7221C80.1666 70.6113 79.7036 70.1483 79.7036 69.5928V64.7317C79.7036 64.1761 80.1666 63.7131 80.7221 63.7131H82.8981C83.4536 63.7131 83.9166 64.1761 83.9166 64.7317V69.5928C83.9166 70.1946 83.4536 70.6113 82.8981 70.6113Z" fill="#222222"/>
<path d="M105.768 81.5834C112.442 81.5834 117.852 76.1735 117.852 69.5C117.852 62.8266 112.442 57.4167 105.768 57.4167C99.095 57.4167 93.6851 62.8266 93.6851 69.5C93.6851 76.1735 99.095 81.5834 105.768 81.5834Z" fill="#49CF8F"/>
<path d="M117.852 69.5464C117.852 76.213 112.435 81.6297 105.768 81.6297C101.324 81.6297 97.4351 79.2223 95.3518 75.6575C97.4351 77.463 100.167 78.5279 103.176 78.5279C109.843 78.5279 115.259 73.1112 115.259 66.4445C115.259 64.2223 114.657 62.139 113.593 60.3797C116.185 62.6019 117.852 65.889 117.852 69.5464Z" fill="#35AE72"/>
<path d="M105.768 82.787C98.4534 82.787 92.4812 76.8148 92.4812 69.5C92.4812 62.1852 98.4534 56.213 105.768 56.213C113.083 56.213 119.055 62.1852 119.055 69.5C119.055 76.8148 113.083 82.787 105.768 82.787ZM105.768 58.6204C99.796 58.6204 94.8886 63.4815 94.8886 69.5C94.8886 75.4722 99.7497 80.3796 105.768 80.3796C111.74 80.3796 116.648 75.5185 116.648 69.5C116.648 63.5278 111.787 58.6204 105.768 58.6204Z" fill="#222222"/>
<path d="M104.102 74.5463L99.8887 70.3333C99.4258 69.8704 99.4258 69.0833 99.8887 68.6204C100.352 68.1574 101.139 68.1574 101.602 68.6204L104.102 71.1204L109.935 65.287C110.398 64.8241 111.185 64.8241 111.648 65.287C112.111 65.75 112.111 66.537 111.648 67L104.102 74.5463Z" fill="#222222"/>
</svg>
