<svg width="52" height="52" viewBox="0 0 52 52" fill="none" xmlns="http://www.w3.org/2000/svg">
<rect x="52" y="52" width="52" height="52" rx="8" transform="rotate(-180 52 52)" fill="white"/>
<path d="M33.9541 23.6116C33.9541 22.878 33.3595 22.2834 32.626 22.2834H18.9463C18.2128 22.2834 17.6182 22.878 17.6182 23.6116C17.6182 24.3451 18.2128 24.9397 18.9463 24.9397H32.626C33.3595 24.9397 33.9541 24.3451 33.9541 23.6116Z" fill="black"/>
<path d="M18.9463 27.5959C18.2128 27.5959 17.6182 28.1905 17.6182 28.9241C17.6182 29.6576 18.2128 30.2522 18.9463 30.2522H27.2545C27.988 30.2522 28.5826 29.6576 28.5826 28.9241C28.5826 28.1905 27.988 27.5959 27.2545 27.5959H18.9463Z" fill="black"/>
<path d="M22.0674 40.346H17.6255C16.1608 40.346 14.9692 39.1544 14.9692 37.6898V14.3147C14.9692 12.85 16.1608 11.6585 17.6255 11.6585H33.9541C35.4188 11.6585 36.6103 12.85 36.6103 14.3147V22.4827C36.6103 23.2162 37.205 23.8108 37.9385 23.8108C38.672 23.8108 39.2666 23.2162 39.2666 22.4827V14.3147C39.2666 11.3854 36.8834 9.0022 33.9541 9.0022H17.6255C14.6962 9.0022 12.313 11.3854 12.313 14.3147V37.6898C12.313 40.6191 14.6962 43.0023 17.6255 43.0023H22.0674C22.8009 43.0023 23.3955 42.4077 23.3955 41.6741C23.3955 40.9406 22.8009 40.346 22.0674 40.346Z" fill="black"/>
<path d="M41.6192 28.2313C40.0657 26.6778 37.538 26.6778 35.9855 28.2303L28.6939 35.5057C28.539 35.6603 28.4248 35.8506 28.3612 36.0599L26.7732 41.2877C26.6324 41.7513 26.7551 42.2546 27.0933 42.6013C27.3467 42.861 27.691 43.002 28.0441 43.002C28.1622 43.002 28.2815 42.9862 28.3986 42.9537L33.7592 41.4688C33.9798 41.4077 34.1809 41.2906 34.3429 41.1288L41.6193 33.8662C43.1728 32.3127 43.1728 29.785 41.6192 28.2313ZM32.7136 39.0022L30.0167 39.7492L30.8059 37.1508L35.7259 32.2417L37.6045 34.1204L32.7136 39.0022ZM39.742 31.9871L39.4846 32.2439L37.6063 30.3656L37.8628 30.1097C38.3806 29.5919 39.2232 29.5919 39.741 30.1097C40.2589 30.6275 40.2589 31.4701 39.742 31.9871Z" fill="black"/>
<path d="M32.626 16.9709H18.9463C18.2128 16.9709 17.6182 17.5655 17.6182 18.2991C17.6182 19.0326 18.2128 19.6272 18.9463 19.6272H32.626C33.3595 19.6272 33.9541 19.0326 33.9541 18.2991C33.9541 17.5655 33.3595 16.9709 32.626 16.9709Z" fill="black"/>
</svg>
