<svg width="21" height="24" viewBox="0 0 21 24" fill="none" xmlns="http://www.w3.org/2000/svg">
<path d="M13.7008 18.7692V19.6154C13.7008 20.513 13.3442 21.3739 12.7095 22.0087C12.0748 22.6434 11.2139 23 10.3162 23C9.41856 23 8.55767 22.6434 7.92293 22.0087C7.28819 21.3739 6.9316 20.513 6.9316 19.6154V18.7692M19.3954 17.0468C18.0374 15.3846 17.0786 14.5385 17.0786 9.95601C17.0786 5.75962 14.9357 4.26457 13.172 3.53846C12.9377 3.44221 12.7172 3.22115 12.6458 2.98053C12.3364 1.9276 11.4691 1 10.3162 1C9.16333 1 8.2955 1.92813 7.98929 2.98159C7.9179 3.22486 7.69737 3.44221 7.46309 3.53846C5.69727 4.26563 3.55651 5.75538 3.55651 9.95601C3.55386 14.5385 2.59506 15.3846 1.23699 17.0468C0.674294 17.7353 1.16718 18.7692 2.15136 18.7692H18.4864C19.4653 18.7692 19.955 17.7322 19.3954 17.0468Z" stroke="currentColor" stroke-width="1.5" stroke-linecap="round" stroke-linejoin="round"/>
</svg>
