<svg width="36" height="36" viewBox="0 0 36 36" fill="none" xmlns="http://www.w3.org/2000/svg">
<circle cx="18" cy="18" r="18" fill="currentColor"/>
<path d="M11.6175 16.7479C11.8811 16.5939 12.2157 16.6247 12.459 16.7992C12.5806 16.8814 13.7871 18.0109 14.9124 18.9556C15.7032 19.6334 15.8654 19.6744 16.5041 18.8838C19.069 15.7005 21.5731 12.7842 24.0366 9.59073C24.5841 8.8822 24.868 8.82058 25.5979 9.35455C26.3785 9.92959 26.8652 10.289 27.5039 10.8743C28.1426 11.4596 28.1628 11.8395 27.5748 12.5789C24.2495 16.6863 18.1566 24.6547 17.6091 25.3016C17.0515 25.9691 15.9363 26.3901 14.882 25.4659C12.2055 23.1452 12.0129 22.8577 9.30603 20.4446C8.94106 20.116 8.88024 19.6847 9.24521 19.2945C10.0867 18.4114 10.6544 17.6823 11.5161 16.8198C11.5465 16.789 11.577 16.7684 11.6175 16.7479Z" fill="white"/>
</svg>
