<svg width="132" height="64" viewBox="0 0 132 64" fill="none" xmlns="http://www.w3.org/2000/svg">
  <path d="M3.348 39.354c-.558-.103-.916-.633-.878-1.192.076-1.216.39-3.32 1.354-4.364 1.428-1.534 4.004-2.434 6.58-3.464 2.576-1.031 2.73.155 2.527.811-.203.656-.121 2.697-.823 3.875-.701 1.179-4.146 3.683-5.797 4.261-.99.386-2.174.245-2.963.073z" fill="#fff"/>
  <path d="M121.902 59.85c-.041 4.704-3.888 8.093-8.628 8.053-4.706-.04-8.527-3.528-8.487-8.2l.004-.46c.268-4.473 4.018-7.995 8.593-7.956 4.575.04 8.264 3.625 8.456 8.101.064.166.063.297.062.462zm-84.79-.727c-.04 4.704-3.887 8.093-8.627 8.053-4.706-.04-8.528-3.528-8.488-8.2l.005-.46c.268-4.473 4.018-7.995 8.593-7.956 4.575.04 8.264 3.625 8.456 8.101.064.165.063.297.061.462z" fill="#292A56"/>
  <path d="M165.393 50.516l-.03 3.488-.001.032c-.267.525-3.465 4.94-4.836 7.362-.032 0-.066.033-.099.032-.132.032-.626.06-.79.06l-18.893-.064-.527-.005-5.562-.014-21.92-.221-53.385-.524-4.345-.037-22.788 1.252-.955-.008-.131-.001-15.73-.464c-.823-.007-1.645-.08-2.433-.317C6.336 59.023 2.67 56.59 1.332 55.295c-.392-.365-.584-.894-.58-1.42 0 0-.01-2.731.072-4.507.004-.56.042-1.118.079-1.546.037-.559.074-.953.14-1.052.1-.13.367-.556.634-.915.033-.066.1-.131.133-.164.132-.13.232-.261.265-.26l-.026-.758-.022-1.316.002-.197.004-.527s-.092-.757-.05-1.843c.002-.164.036-.361.038-.559.037-.493.14-1.019.277-1.577 0-.066.034-.131.034-.164.103-.427.205-.821.307-1.215.205-.854.508-1.674 1.338-2.49 3.254-3.262 14.064-8.697 19.842-10.852.298-.129.595-.225.892-.321 0 0 10.062-10.311 17.354-16.171 1.425-1.14 2.75-2.115 3.842-2.797 4.93-3.083 10.264-3.202 16.057-3.12 3.225.06 79.979.686 91.63.786 1.317.011 2.598.253 3.812.79 2.033.905 3.601 2.268 4.703 4.219.714 1.256 1.227 2.774 1.509 4.487l.029.461-.001.132.054 1.317.56 15.304.019 1.679.241 14.117-.003 4.113.523.498a.89.89 0 01.228.265c.031.165.127.495.125.824z" fill="#6CACD8"/>
  <path d="M165.108 49.593c-.899 1.21-2.229 2.712-3.545 2.7-3.028-.026-64.316-.19-64.316-.19l-20.114.223.016-1.842 44.798.055 36.04.309c2.864.024 3.359-.136 3.363-.662.005-.527 1.854-1.169 2.496-3.105.067-.197.412-2.07.514-2.364l-.003 4.113.523.498a.89.89 0 01.228.265z" fill="#62A3D1"/>
  <path d="M58.672 56.017s.31 2.24 5.148 2.315l45.321.388s3.123.488 4.436-2.89c1.312-3.378.575 1.98.575 1.98l-.786 3.381-54.01-.562-.99-3.529.306-1.083z" fill="#508EBD"/>
  <path d="M115.976 51.87a8.52 8.52 0 00-.563.488l-38.279-.328.005-.494 38.837.333z" fill="#487AA7"/>
  <path d="M33.195 47.87c4.6-2.824 11.473-5.924 21.412-1.857.197.067.33-.228.168-.394-3.141-2.231-12.507-7.872-21.84 1.952-.1.196.095.428.26.298z" fill="#7ABBDF"/>
  <path d="M48.268 32.994l-.081 9.41s5.72.773 9.257 6.824" stroke="#5C8CB6" stroke-width=".5" stroke-miterlimit="10" stroke-linecap="round"/>
  <path d="M140.756 60.012l-.002.23-.006.757-.004.428-6.089-.02-21.92-.22.004-.428.006-.757.002-.23a14.511 14.511 0 013.196-8.067c.3-.36.599-.719.931-1.045a13.82 13.82 0 019.975-4.093c3.884.033 7.36 1.642 9.904 4.263.327.332.653.697.946 1.061a14.323 14.323 0 013.057 8.12z" fill="#2F5F8E"/>
  <path d="M137.953 60.974c-.053 6.12-5.094 10.584-11.249 10.531-6.188-.053-11.119-4.603-11.067-10.723l.005-.592c.347-5.82 5.258-10.45 11.215-10.4 5.957.051 10.789 4.732 11.035 10.591.064.198.062.395.061.593z" fill="#292A56"/>
  <path d="M131.73 60.92c-.024 2.731-2.28 4.85-5.012 4.828-2.732-.024-4.951-2.215-4.928-4.913.009-1.085.38-2.07.979-2.887a5 5 0 014.033-2.005 4.973 4.973 0 014.031 2.075 4.9 4.9 0 01.897 2.903z" fill="#fff"/>
  <path d="M130.835 58.018a28.778 28.778 0 00-4.046-.298 28.272 28.272 0 00-4.017.229 5 5 0 014.032-2.006 4.973 4.973 0 014.031 2.075z" fill="#C1BDCC"/>
  <path d="M71.916 38.659l-5.99-.051c-.395-.004-.721-.336-.718-.763.004-.428.336-.754.73-.75l5.991.05c.395.004.721.336.718.763-.004.428-.336.754-.73.75z" fill="#5093BF"/>
  <path d="M71.594 38.196l-5.99-.052c-.395-.003-.722-.335-.718-.763.004-.428.336-.754.73-.75l5.99.051c.396.003.722.335.719.763-.037.428-.369.754-.731.75z" fill="#2D2F5A"/>
  <path d="M162.949 9.53a1.59 1.59 0 01-.762.619c-1.122.385-2.17-.282-2.856-.946-2.014-3.044-5.998-2.98-5.998-2.98l-22.743-.162s-54.832-.635-62.472-.24c-7.64.363-8.53.52-12.806 4.036-4.276 3.517-10.041 11.727-11.97 14.08-1.93 2.384-6.715 7.64-8.236 8.516a4423.07 4423.07 0 01-6.517 3.728l-.685-.762s-3.658 4.344-8.666 4.894c-4.942.55-12.706.121-16.727-3.072.205-.854.508-1.674 1.338-2.49.63-.652 1.592-1.4 2.75-2.18 3.742-2.567 9.66-5.577 14.219-7.545a69.191 69.191 0 012.873-1.16c.298-.129.595-.225.892-.321 0 0 9.066-9.3 16.26-15.292.365-.326.73-.62 1.094-.912 1.425-1.14 2.75-2.115 3.842-2.797 4.931-3.083 10.264-3.202 16.057-3.12l91.598.786c1.448.012 2.893.32 4.205.957 2.556 1.24 4.349 3.328 5.31 6.363z" fill="#7ABBDF"/>
  <path d="M32.186 61.877l-.955-.009-15.894-.465c-.823-.007-1.645-.08-2.433-.317C6.273 59.022 2.607 56.59 1.27 55.294c-.392-.365-.585-.893-.58-1.42 0 0-.01-2.73.07-4.507.013 2.435 1.023 3.661 3.25 4.963 1.93 1.136 6.85 3.284 8.99 3.138 2.14-.147 2.476-.802 2.476-.802s.576 1.88 2.186 2.19c1.61.31 11.647.66 12.239.665.592.005.857-.124 1.465-1.929.543-1.904 2.083 2.683.819 4.285z" fill="#508EBD"/>
  <path d="M51.125 10.678c-.834 1.309-1.933 2.813-3.164 4.349-3.76 4.772-8.579 10.06-10.439 12.019-.465.49-1.126.78-1.816.708-12.006-.958-11.453-4.112-11.156-4.208 0 0 7.074-7.277 13.674-13.077.862-.75 1.724-1.5 2.553-2.183 3.191.192 7.501.46 9.308.804.921.106 1.54.835 1.04 1.588zm22.057 3.215l-.125 14.674a2.5 2.5 0 01-2.523 2.48L48.91 30.86c-1.876-.016-3.044-2-2.174-3.638l2.878-5.503c.1-.197.233-.36.366-.524l4.02-4.34 4.353-4.734a2.471 2.471 0 011.85-.807l10.5.09c1.382-.02 2.491 1.107 2.48 2.49zM153.5 32.68l-69.712-.434c-1.184-.01-2.197-.973-2.252-2.224l-.066-11.484-.026-4.573c-.088-1.35.976-2.526 2.292-2.514l68.263.585c.921.008 1.739.574 2.094 1.466l.214 5.694-.001.131.432 11.093c.053 1.415.277 2.24-1.238 2.26z" fill="#2D2F5A"/>
  <path d="M29.27 52.573c-.633.817-.737 1.474-2.516 1.59-1.778.117-10.334-.088-11.816-.1-1.48-.013-7.154-2.497-11.055-4.34-1.311-.636-2.359-1.303-3.077-1.968.038-.559.074-.953.14-1.051.1-.131.367-.557.634-.916.033-.066.1-.131.133-.164.74 2.047 8.552 4.581 12.725 5.374.854.172 12.338.632 13.655.644 1.678.014 1.809.114 1.177.93z" fill="#7ABBDF"/>
  <path d="M16.503 44.666c.365-.293.02 1.547-.087 2.434-2.337.046-7.066-1.179-10.907-2.396-2.429-.778-3.018-1.244-3.574-1.61l.005-.527s-.126-.758-.05-1.843c.422.662 1.27 1.492 3.372 2.135 3.217.982 7.549 2.5 9.953 2.356.56.004.957-.255 1.288-.549z" fill="#508EBD"/>
  <path d="M16.279 47.922c-.48 2.233-1.929 2.253-2.258 2.25h-.066c-1.677-.179-3.78-.658-6.209-1.37-3.579-1.017-5.476-2.383-5.902-2.682a.934.934 0 01-.293-.332c.2-.229.366-.424.431-.424l-.026-.757-.022-1.316c.324.628 1.009 1.39 2.516 2.16 2.425 1.238 8.302 3 10.739 2.889.461-.03.792-.19 1.09-.419zm1.018-7.395c-.134.328-.538 1.377-.72 3.449-2.306.111-7.333-.919-11.24-2.17-2.461-.777-2.852-1.241-3.375-1.64.07-.494.14-1.02.31-1.578 0-.065.033-.13.034-.164.489.53 1.307 1.064 2.817 1.538 3.218.982 7.749 2.27 10.186 2.127 1.02-.057 1.654-.973 1.988-1.562zm.2-.525l-.005.56-.163-.166c.133-.23.168-.394.168-.394z" fill="#508EBD"/>
  <path d="M17.333 40.395s0 .033-.034.033c.033 0 .034-.033.034-.033z" fill="#508EBD"/>
  <path d="M20.819 25.026c-.119 2.335-3.015 6.16-9.219 7.917-2.97.83-4.381.423-5-.405 3.775-2.534 9.66-5.544 14.219-7.512z" fill="#89C9E4"/>
  <path d="M29.152 35.858c-.238.82-.127 3.256-.995 4.663-.4.655-1.528 1.698-2.82 2.641-1.458 1.106-3.112 2.112-4.169 2.465-1.188.418-2.602.241-3.555.035a1.36 1.36 0 01-1.074-1.424c.112-1.48.462-3.977 1.625-5.25.532-.555 1.161-1.043 1.89-1.498 1.687-1.038 3.866-1.842 6.013-2.679 3.137-1.158 3.29.226 3.085 1.047z" fill="#fff"/>
  <path d="M54.243 23.175l.067 3.652.044 6.417.025.954c.055 1.185-1.006 2.163-2.29 2.185-1.383-.012-2.83-.123-4.114-.167-2.533-.087-2.308-3.31-2.308-3.31s-1.814.38-1.924-2.155c-.029-.46.007-.79.076-1.184.208-1.215 1.131-1.34 1.131-1.34l.955-.024-.08-2.27c-.076-2.6.923-4.007 4.511-4.01 3.654-.034 3.907 1.252 3.907 1.252z" fill="#6AABD8"/>
  <path d="M54.331 32.191l.05 2.008c.055 1.185-1.007 2.163-2.29 2.185-1.383-.012-2.83-.123-4.114-.167-2.534-.088-2.308-3.31-2.308-3.31s-1.814.379-1.924-2.156a4.6 4.6 0 01.076-1.183c.192.692 1.073 1.49 2.322 1.763 0 0-.486 2.957 2.013 3.242 2.334.283 5 .34 6.175-2.382z" fill="#5093BF"/>
  <path d="M54.244 23.174l.068 3.653c-7.932-3.917-8.184 6.182-8.359 3.58l-.078-2.435-.08-2.04c-.077-2.6.922-4.007 4.51-4.009 3.687-.034 3.94 1.251 3.94 1.251z" fill="#77B5DF"/>
  <path d="M59.32 60.662l-4.344-.037-22.788 1.252-.955-.008-.132-.001.01-1.119.004-.428.007-.79a14.672 14.672 0 011.261-5.121s0-.033.033-.033c2.248-4.95 7.215-8.394 12.942-8.345a13.82 13.82 0 019.904 4.263c.326.332.62.664.913 1.028.163.232.358.431.488.663.032.066.065.099.13.165a14.423 14.423 0 012.535 7.622c-.037.46-.006.724-.007.889z" fill="#2F5F8E"/>
  <path d="M56.456 60.275c-.052 6.12-5.094 10.584-11.248 10.531-6.188-.053-11.12-4.603-11.067-10.722l.005-.593c.346-5.82 5.258-10.45 11.215-10.4 5.957.052 10.789 4.732 11.035 10.591.064.198.062.396.06.593z" fill="#292A56"/>
  <path d="M50.27 60.222c-.023 2.73-2.28 4.85-5.011 4.827-2.765-.024-4.951-2.214-4.928-4.912a4.796 4.796 0 01.912-2.79 4.988 4.988 0 014.1-2.103 4.964 4.964 0 014.096 2.174c.52.794.84 1.751.831 2.804z" fill="#fff"/>
  <path d="M49.439 57.419a29.808 29.808 0 00-4.112-.299c-1.58-.013-2.93.074-4.084.229a4.988 4.988 0 014.1-2.104c1.711.015 3.185.883 4.096 2.174z" fill="#C1BDCC"/>
  <path d="M16.752 46.444l-.032 3.652c-.005.658.517 1.189 1.142 1.194l11.19.228s2.041-3.964 6.505-6.328m41.934-34.912l-.393 45.831-15.864-.136" stroke="#5C8CB6" stroke-width=".5" stroke-miterlimit="10" stroke-linecap="round"/>
  <path d="M83.941 56.76l-1.35-.011a.52.52 0 01-.521-.531.52.52 0 01.53-.522l1.35.012a.52.52 0 01.522.53.52.52 0 01-.53.522zm12.739.11l-1.35-.012a.52.52 0 01-.522-.531.52.52 0 01.531-.522l1.35.011a.52.52 0 01.522.531.52.52 0 01-.531.522zm12.736.109l-1.35-.012a.52.52 0 01-.522-.53.52.52 0 01.531-.523l1.35.012a.52.52 0 01.522.53.52.52 0 01-.531.523z" fill="#F47A59"/>
  <path fill-rule="evenodd" clip-rule="evenodd" d="M106.695 32.442l.178-20.793.4.003-.178 20.794-.4-.004z" fill="#343C60"/>
  <path d="M131.691 11.862l-.178 20.793" stroke="#343C60" stroke-miterlimit="10"/>
  <path d="M73.185 13.893l-.03 3.422c-1.308-.933-2.716-1.833-3.635-2.137-5.94-2.058-12.28.388-15.517 1.644l4.352-4.734a2.471 2.471 0 011.85-.807l10.5.09a2.5 2.5 0 012.48 2.522zm-22.058-3.215c-.834 1.309-1.934 2.813-3.165 4.349a7.885 7.885 0 00-.413-1.748c-.998-2.509-5.735-2.879-9.29-2.81.862-.75 1.724-1.5 2.553-2.183 3.19.192 7.5.46 9.308.804.888.106 1.507.835 1.007 1.588z" fill="#343C60"/>
  <path fill-rule="evenodd" clip-rule="evenodd" d="M37.007 13.65a.2.2 0 01.23.164l1.002 5.964a.2.2 0 11-.394.067l-1.002-5.965a.2.2 0 01.164-.23zm3.881.198a.2.2 0 01.23.163l.313 1.846a.2.2 0 01-.394.067l-.313-1.845a.2.2 0 01.164-.231zm-5.468 5.184a.2.2 0 01.226.17l.777 5.402a.2.2 0 11-.396.057l-.777-5.402a.2.2 0 01.17-.227zm-2.59-1.009a.2.2 0 01.226.169l.436 2.965a.2.2 0 01-.396.058l-.435-2.965a.2.2 0 01.168-.227zm26.232-1.063a.2.2 0 01.275.064l3.863 6.252a.2.2 0 11-.34.21l-3.863-6.251a.2.2 0 01.065-.276zm5.584 1.299a.2.2 0 01.275.064l3.961 6.385a.2.2 0 01-.34.21l-3.96-6.384a.2.2 0 01.064-.275zm-6.556 7.776a.2.2 0 01.278.058l.974 1.49a.2.2 0 01-.334.218l-.975-1.489a.2.2 0 01.058-.277zm28.019-7.955a.2.2 0 01.275.065l3.83 6.219a.2.2 0 11-.34.21l-3.83-6.219a.2.2 0 01.065-.275zm10.225.878a.2.2 0 01.276.063l3.994 6.385a.2.2 0 01-.064.276.2.2 0 01-.275-.064l-3.994-6.384a.2.2 0 01.063-.276zm-.548 6.249a.2.2 0 01.277.058l.975 1.49a.2.2 0 11-.335.218l-.975-1.489a.2.2 0 01.058-.277zm23.03-2.175a.2.2 0 01.275.066l3.831 6.252a.2.2 0 11-.341.209l-3.831-6.252a.2.2 0 01.066-.275zm-.757-7.902a.2.2 0 01.276.064l3.961 6.351a.2.2 0 11-.339.212l-3.962-6.351a.201.201 0 01.064-.276zm-6.5 9.127a.2.2 0 01.277.057l.975 1.49a.2.2 0 01-.335.219l-.974-1.49a.2.2 0 01.057-.276z" fill="#343C60"/>
  <path d="M154.307 19.196c-.16-4.345-5.228-4.421-5.228-4.421l-58.06-.498c-7.767-.067-9.275 3.046-9.549 4.261l-.026-4.573c-.088-1.35.976-2.526 2.292-2.514l68.263.585c.921.008 1.739.574 2.094 1.466l.214 5.694z" fill="#343C60"/>
  <path d="M81.254 36.239s-.25-1.68 2.186-1.66l69.875.6c.79.006 1.41.637 1.404 1.426l-.003.264-73.462-.63z" fill="#508EBD"/>
  <path d="M25.337 43.195c-1.458 1.106-3.112 2.112-4.169 2.465-1.188.418-2.602.24-3.555.035a1.36 1.36 0 01-1.074-1.424c.112-1.48.462-3.977 1.625-5.25.532-.555 1.161-1.043 1.89-1.498-1.11 2.788-.905 5.619 4.46 5.632.297.003.56.005.823.04z" fill="#D5E5F4"/>
  <path d="M49.764 15.964c-.033 0-.098-.001-.13-.034-.066-.067-.099-.133-.032-.23.033-.033 2.463-3.138 5.251-5.845.033-.066.132-.065.197.001a.159.159 0 01-.002.23c-2.788 2.708-5.184 5.78-5.217 5.845 0 0 0 .033-.067.033z" fill="#94CDEE"/>
  <path d="M38.293 29.553c-2.261 2.613-5.402 4.199-8.248 6.017-.265.162-.497.325-.728.454M45.405 21.52c-.4.457-1.165 1.536-3.526 4.247M3.049 35.963c.717.763 2.974 2.428 8.832 2.544" stroke="#5C8CB6" stroke-width=".5" stroke-miterlimit="10" stroke-linecap="round"/>
</svg>
