<svg width="34" height="17" viewBox="0 0 34 17" fill="none" xmlns="http://www.w3.org/2000/svg">
<path d="M32.7862 7.32889L31.708 6.8066C31.2531 6.58757 30.8487 6.26746 30.5455 5.86311L26.8894 0.791859C26.2155 0.0505461 25.0361 0 24.8171 0H24.7834H0.758161C0.387504 0 0.0842401 0.303264 0.0842401 0.673921L0 12.8887C0 13.2594 0.303264 13.5627 0.673921 13.5627H2.61144C2.9484 13.5627 3.23482 13.3268 3.28536 12.9898C3.55493 10.9512 5.17234 9.68761 7.12671 9.68761C9.08108 9.68761 10.7153 10.9512 10.9681 12.9898C11.0186 13.3268 11.305 13.5627 11.642 13.5627H22.0035H22.5763C22.9133 13.5627 23.1997 13.3268 23.2503 12.9898C23.5198 10.9512 25.1372 9.68761 27.0916 9.68761C29.046 9.68761 30.6802 10.9512 30.933 12.9898C30.9835 13.3268 31.2699 13.5627 31.6069 13.5627H33.3254C33.696 13.5627 33.9993 13.2594 33.9993 12.8887V9.3338C34.033 7.95226 32.8536 7.36258 32.7862 7.32889ZM7.44682 6.11583C7.44682 6.33486 7.26149 6.52018 7.04247 6.52018H2.5272C2.30818 6.52018 2.12285 6.33486 2.12285 6.11583V2.34187C2.12285 2.12285 2.30818 1.93752 2.5272 1.93752H7.04247C7.26149 1.93752 7.44682 2.12285 7.44682 2.34187V6.11583ZM14.1186 6.11583C14.1186 6.33486 13.9333 6.52018 13.7143 6.52018H9.19902C8.97999 6.52018 8.79466 6.33486 8.79466 6.11583V2.34187C8.79466 2.12285 8.97999 1.93752 9.19902 1.93752H13.7143C13.9333 1.93752 14.1186 2.12285 14.1186 2.34187V6.11583ZM20.7736 6.11583C20.7736 6.33486 20.5883 6.52018 20.3692 6.52018H15.854C15.635 6.52018 15.4496 6.33486 15.4496 6.11583V2.34187C15.4496 2.12285 15.635 1.93752 15.854 1.93752H20.3692C20.5883 1.93752 20.7736 2.12285 20.7736 2.34187V6.11583ZM27.6813 6.62127H23.4693C23.1323 6.62127 22.8459 6.3517 22.8459 5.99789V2.57775C22.8459 2.24079 23.1155 1.95437 23.4693 1.95437H24.6486C24.6486 1.95437 24.7329 1.95437 24.8677 1.95437C25.1878 1.97122 25.7775 2.07231 26.1144 2.5609L28.153 5.59354C28.49 5.99789 28.2036 6.62127 27.6813 6.62127Z" fill="currentColor"/>
<path d="M7.14468 10.9683C5.56097 10.9683 4.26367 12.2656 4.26367 13.8493C4.26367 15.433 5.56097 16.7303 7.14468 16.7303C8.72839 16.7303 10.0257 15.433 10.0257 13.8493C10.0088 12.2487 8.72839 10.9683 7.14468 10.9683ZM7.14468 14.877C6.57185 14.877 6.1001 14.4053 6.1001 13.8324C6.1001 13.2596 6.57185 12.7878 7.14468 12.7878C7.71751 12.7878 8.18926 13.2596 8.18926 13.8324C8.18926 14.4053 7.71751 14.877 7.14468 14.877Z" fill="currentColor"/>
<path d="M27.1271 10.9683C25.5434 10.9683 24.2461 12.2656 24.2461 13.8493C24.2461 15.433 25.5434 16.7303 27.1271 16.7303C28.7108 16.7303 30.0081 15.433 30.0081 13.8493C29.9913 12.2487 28.7108 10.9683 27.1271 10.9683ZM27.1271 14.877C26.5543 14.877 26.0825 14.4053 26.0825 13.8324C26.0825 13.2596 26.5543 12.7878 27.1271 12.7878C27.6999 12.7878 28.1717 13.2596 28.1717 13.8324C28.1717 14.4053 27.6999 14.877 27.1271 14.877Z" fill="currentColor"/>
</svg>
