<svg width="171" height="368" viewBox="0 0 171 368" fill="none" xmlns="http://www.w3.org/2000/svg">
<path d="M163.729 109.623H154.546V108.784C154.546 103.474 154.434 98.219 154.322 93.132V92.2935C154.098 84.2996 153.762 76.7528 153.258 69.7651L153.202 68.8707H163.729C166.753 68.8707 169.273 71.0509 169.273 73.7342V104.76C169.217 107.443 166.753 109.623 163.729 109.623ZM156.226 107.946H163.729C165.857 107.946 167.593 106.492 167.593 104.76V73.7342C167.593 71.9453 165.857 70.5478 163.729 70.5478H154.994C155.442 77.5914 155.778 85.1381 156.002 93.132V93.9705C156.114 98.4986 156.226 103.194 156.226 107.946Z" fill="#61BBD6"/>
<path d="M15.7908 109.623H6.60762C3.58389 109.623 1.12012 107.443 1.12012 104.76V73.7342C1.12012 71.0509 3.58389 68.8707 6.60762 68.8707H17.1347L17.0787 69.7651C16.5747 77.0324 16.2388 84.9145 16.0148 93.1879C15.9028 98.2749 15.7908 103.53 15.7908 108.84V109.623ZM6.60762 70.4919C4.47981 70.4919 2.79997 71.9453 2.79997 73.6783V104.704C2.79997 106.492 4.53581 107.89 6.60762 107.89H14.1109C14.1109 102.859 14.2229 97.8277 14.3349 93.0202C14.5589 85.0263 14.8949 77.4237 15.3428 70.436H6.60762V70.4919Z" fill="#61BBD6"/>
<path d="M34.8296 25.4352L34.0457 25.0998L26.3184 21.2985L26.5423 20.6277C26.5423 20.5718 26.9903 19.286 27.9982 17.4413C28.7261 16.0997 29.5661 14.8139 30.574 13.5841C32.5338 11.1244 34.7736 9.72687 38.0213 8.16163C48.2684 3.13049 65.8508 0.111803 85.1131 0C104.431 0.111803 122.014 3.13049 132.205 8.10573C135.453 9.67097 137.692 11.0685 139.652 13.5282C142.508 17.1059 143.628 20.46 143.684 20.5718L143.908 21.2426L135.509 25.3234L135.117 24.6526C133.493 21.9693 131.253 20.1246 127.949 18.7829C122.686 16.7146 118.766 15.7083 117.254 15.5406V17.609L116.358 17.7208H53.0279V15.6524C51.5161 15.8201 47.5964 16.7705 42.3329 18.8947C39.0852 20.1805 36.8454 22.0252 35.2216 24.6526L35.1656 24.7085L34.8296 25.4352ZM28.4462 20.46L34.1577 23.2551C35.8935 20.6277 38.4133 18.6711 41.717 17.3295C46.9805 15.2052 51.2921 14.0872 53.0839 13.9754C53.5319 13.9195 53.9239 14.0872 54.2598 14.3667C54.5958 14.6462 54.7638 15.0375 54.7638 15.4847V16.1556H115.63V15.4847C115.63 15.0375 115.798 14.6462 116.134 14.3667C116.47 14.0872 116.862 13.9195 117.31 13.9754C119.102 14.1431 123.414 15.2611 128.677 17.3295C131.981 18.6711 134.501 20.5718 136.236 23.2551L141.892 20.46C141.444 19.3419 140.324 17.05 138.42 14.5903C136.852 12.6338 135.117 11.348 131.589 9.61507C121.51 4.75163 104.207 1.78885 85.1131 1.67705C66.0748 1.78885 48.7723 4.75163 38.7492 9.61507C35.2216 11.348 33.4857 12.5779 31.9179 14.5903C31.0219 15.7083 30.238 16.9382 29.5101 18.168C29.0061 19.1183 28.6701 19.901 28.4462 20.46Z" fill="#61BBD6"/>
<path d="M32.3648 38.3485C32.0849 38.3485 31.8609 38.2367 31.7489 38.1808C30.405 37.3423 30.909 33.1496 30.909 33.0937C31.1329 31.4726 31.4129 29.9632 31.8049 28.5657L31.8609 28.3421C32.3648 26.6091 33.0368 25.0998 33.8207 23.8141C34.4367 22.8637 35.0526 21.9693 35.8365 21.1867C36.0045 21.019 36.1165 20.9072 36.2845 20.7395C36.9004 20.1805 37.5724 19.6215 38.3003 19.1742C39.1402 18.6152 40.0921 18.1121 41.156 17.6649C41.38 17.5531 41.548 17.4972 41.772 17.3854C47.0355 15.2611 51.3471 14.199 53.139 14.0313C53.5869 13.9754 53.9789 14.1431 54.3149 14.4226C54.6508 14.7021 54.8188 15.0934 54.8188 15.5406V17.05C54.8188 17.4413 54.6508 17.8326 54.3708 18.1121C53.8669 18.6152 53.4749 19.3978 53.3069 20.4041C53.2509 20.7954 53.195 21.1308 53.195 21.3544V21.5221C53.027 22.7519 52.243 23.8141 51.1231 24.3731C49.3873 25.2116 46.0276 26.8328 43.2839 28.5098C38.4683 31.3049 35.6685 34.7708 33.9887 37.1745C33.7087 37.5659 33.4287 37.9013 33.1488 38.069C32.8688 38.2926 32.5888 38.3485 32.3648 38.3485ZM53.027 15.6524C51.5151 15.8201 47.5955 16.7705 42.3319 18.8947C42.108 18.9506 41.94 19.0624 41.772 19.1183C40.8201 19.5656 39.9242 20.0128 39.1962 20.5159C38.5803 20.9631 37.9643 21.4103 37.4044 21.9134C37.2924 22.0252 37.1244 22.1929 37.0124 22.3047C36.3405 22.9755 35.7805 23.7582 35.2206 24.5967C34.4926 25.8265 33.8767 27.1682 33.4287 28.7334L33.3727 28.957C32.9808 30.2428 32.7568 31.6403 32.5328 33.2614C32.4208 34.1 32.4208 35.4416 32.5328 36.2242C32.5328 36.1683 32.5888 36.1683 32.5888 36.1124C34.3807 33.5968 37.2924 29.9073 42.2759 26.8887C45.0757 25.2116 48.4914 23.5346 50.2832 22.696C50.8992 22.4165 51.2911 21.8575 51.4031 21.1867V21.019C51.4031 20.7395 51.4591 20.3482 51.5711 19.901C51.7951 18.6152 52.299 17.5531 53.027 16.8264V15.6524Z" fill="#61BBD6"/>
<path d="M137.972 38.3485C137.748 38.3485 137.468 38.2926 137.132 38.069C136.852 37.9013 136.628 37.6218 136.292 37.1745C134.613 34.7708 131.813 31.3049 127.109 28.4539C124.365 26.7769 121.006 25.1557 119.27 24.3172C118.15 23.7582 117.366 22.696 117.198 21.4662V21.2426C117.198 21.019 117.142 20.6836 117.086 20.2923C116.918 19.286 116.526 18.5593 116.022 18.0003C115.742 17.7208 115.574 17.3295 115.574 16.9382V15.4288C115.574 14.9816 115.742 14.5903 116.078 14.3108C116.414 14.0313 116.806 13.8636 117.254 13.9195C119.046 14.0872 123.358 15.2052 128.621 17.2736C128.845 17.3295 129.013 17.4413 129.237 17.5531C130.301 18.0003 131.253 18.5034 132.093 19.0624C132.821 19.5096 133.493 20.0687 134.109 20.6277C134.277 20.7954 134.445 20.9072 134.557 21.0749C135.284 21.8575 135.956 22.696 136.572 23.7023C137.412 25.0439 138.028 26.4973 138.532 28.2862L138.588 28.5098C138.98 29.9073 139.26 31.3608 139.484 33.0378C139.484 33.0378 139.988 37.2304 138.644 38.1249C138.476 38.2367 138.252 38.3485 137.972 38.3485ZM117.31 16.9382C118.038 17.6649 118.542 18.727 118.766 20.0128C118.878 20.46 118.878 20.8513 118.934 21.1308V21.2985C119.046 21.9693 119.438 22.5283 120.054 22.8078C121.846 23.6464 125.205 25.3234 128.005 27.0005C132.989 30.0191 135.9 33.7086 137.692 36.2242C137.692 36.2801 137.748 36.2801 137.748 36.336C137.86 35.5534 137.86 34.2118 137.748 33.3173C137.524 31.7521 137.3 30.2987 136.908 29.0129L136.852 28.7893C136.404 27.1682 135.788 25.8265 135.06 24.5967C134.557 23.7023 133.941 22.9755 133.269 22.2488C133.157 22.137 132.989 21.9693 132.877 21.8575C132.317 21.3544 131.757 20.8513 131.085 20.46C130.301 19.9569 129.461 19.5096 128.509 19.0624C128.341 19.0065 128.117 18.8947 127.949 18.8388C122.686 16.7705 118.766 15.7642 117.254 15.5965V16.9382H117.31Z" fill="#61BBD6"/>
<path d="M24.0221 93.9706H14.335V93.132C14.5589 84.8027 14.8949 76.9206 15.3989 69.6534C15.9028 62.6657 16.5188 56.1252 17.2467 50.2555C18.3106 41.7026 23.9661 26.4414 26.6538 20.5718L26.9898 19.7892L34.8291 23.6464L34.5491 24.2613L35.2771 24.7644L35.2211 24.8203L34.8851 25.547H34.8291C34.2692 26.5532 33.8772 27.6713 33.4852 28.9011L33.4292 29.1247C33.0373 30.4105 32.8133 31.808 32.5893 33.4291C32.4773 34.3236 32.4773 35.777 32.6453 36.5596L34.4371 35.2739L33.3732 38.2367L33.2613 38.2926C32.9253 38.9634 31.3014 43.8268 31.3014 73.0075V73.5665L30.7415 73.7901C30.7415 73.7901 27.6058 75.1317 25.6459 81.1691C24.582 84.4673 24.0221 88.5481 24.0221 93.2997V93.9706ZM16.0708 92.2935H22.3422C22.3982 87.7096 22.9582 83.7406 24.0781 80.4983C25.8699 75.1317 28.5017 73.0634 29.6216 72.3925C29.6216 53.945 30.2935 41.8144 31.5254 38.0131C30.4055 36.895 30.8535 33.0937 30.9095 33.0937C31.1334 31.4726 31.4134 29.9632 31.8054 28.5657L31.8614 28.3421C32.2533 27.0005 32.7013 25.8265 33.3172 24.7085L27.8297 22.0252C24.974 28.6216 19.8785 42.7647 18.9265 50.4232C18.1986 56.237 17.5827 62.7775 17.1347 69.7093C16.6308 76.697 16.2948 84.2996 16.0708 92.2935Z" fill="#61BBD6"/>
<path d="M156.059 93.9705H146.372V93.132C146.372 83.7964 144.244 78.8771 142.452 76.3615C142.34 76.1938 142.228 76.082 142.116 75.9143C141.892 75.5789 141.612 75.2994 141.332 75.0199L141.22 74.9081C141.164 74.8522 141.108 74.7963 141.052 74.7404C140.996 74.6845 140.94 74.6845 140.94 74.6286H140.772L140.604 74.2932C140.492 74.1814 140.38 74.1255 140.268 74.0137C140.212 73.9578 140.156 73.9578 140.1 73.9019L139.988 73.846C139.932 73.7901 139.876 73.7901 139.876 73.7901H139.764L139.596 73.6224C139.54 73.6224 139.484 73.5665 139.484 73.5665L139.036 73.3429V72.8397C139.036 43.6032 137.412 38.7957 137.076 38.1249L136.964 38.069L135.9 35.1062L137.692 36.3919C137.804 35.6652 137.804 34.1559 137.748 33.2614C137.524 31.6962 137.3 30.2427 136.908 28.957L136.852 28.7334C136.46 27.4477 136.068 26.3296 135.509 25.3793H135.453L135.117 24.7085C135.117 24.6526 135.061 24.6526 135.061 24.5967L135.788 24.1495L135.509 23.5346L143.348 19.6774L143.684 20.46C146.316 26.3296 151.971 41.5908 153.091 50.1437C153.819 56.0134 154.435 62.5538 154.939 69.5415C155.443 76.8088 155.779 84.6909 156.003 93.0202L156.059 93.9705ZM148.051 92.2935H154.323C154.099 84.2996 153.763 76.7529 153.259 69.7652C152.755 62.7775 152.195 56.2929 151.467 50.4791C150.515 42.8206 145.42 28.6775 142.564 22.0811L137.076 24.7644C137.636 25.8824 138.14 27.0564 138.532 28.398L138.588 28.6216C138.98 30.0191 139.26 31.4726 139.484 33.1496C139.484 33.1496 139.932 36.9509 138.812 38.069C140.044 41.8703 140.716 54.0009 140.716 72.4484C140.828 72.5043 140.884 72.5602 140.996 72.6161L141.052 72.672C141.108 72.7279 141.164 72.7279 141.22 72.7838C141.332 72.8397 141.444 72.9515 141.556 73.0633L141.78 73.287C141.892 73.3988 142.06 73.5106 142.228 73.6783C142.284 73.7342 142.34 73.7901 142.396 73.846L142.508 73.9578C142.844 74.2932 143.124 74.6286 143.404 75.0199C143.516 75.1876 143.628 75.3553 143.796 75.523C145.7 77.9827 147.883 83.0697 148.051 92.2935Z" fill="#61BBD6"/>
<path d="M140.715 72.8397H139.035C139.035 71.4981 137.635 70.7155 137.355 70.6037C136.179 70.2683 119.549 65.9079 95.6951 64.8458C92.5594 64.734 84.6081 64.6222 84.5521 64.6222C55.4348 64.6222 34.2687 70.2124 32.9808 70.5478C32.7008 70.6596 31.3009 71.4422 31.3009 72.7838H29.6211C29.6211 52.3798 30.461 39.5783 31.8609 37.1186L31.9729 36.7832L32.1969 36.6155C32.2529 36.6155 32.3648 36.5037 32.5888 36.1124C34.3807 33.5968 37.2924 29.9073 42.276 26.8887C45.0757 25.2116 48.4914 23.5346 50.2832 22.696C50.8992 22.4165 51.2911 21.8575 51.4031 21.1867V21.019C51.4031 20.7395 51.4591 20.3482 51.5711 19.901C51.7951 18.6152 52.299 17.5531 53.027 16.8264V16.0438H117.253V16.8264C117.981 17.5531 118.485 18.6152 118.709 19.901C118.821 20.3482 118.821 20.7395 118.877 21.019V21.1867C118.989 21.8575 119.381 22.4165 119.997 22.696C121.789 23.5346 125.148 25.2116 127.948 26.8887C132.932 29.9073 135.844 33.5968 137.635 36.1124C137.859 36.4478 138.027 36.5596 138.027 36.6155L138.251 36.7832L138.363 37.1186C139.875 39.6342 140.715 52.4916 140.715 72.8397ZM84.5521 63.0011C84.6641 63.0011 92.6154 63.057 95.8071 63.2247C120.669 64.2868 137.747 68.9825 137.915 69.0384L138.027 69.0943C138.083 69.0943 138.531 69.3179 139.091 69.7093C138.979 43.3237 137.467 38.7957 137.131 38.1249L137.019 38.069L136.963 37.9013C136.795 37.7336 136.571 37.51 136.347 37.1745C134.668 34.7708 131.868 31.3049 127.164 28.4539C124.421 26.7769 121.061 25.1557 119.325 24.3172C118.205 23.7582 117.421 22.696 117.253 21.4662V21.2426C117.253 21.019 117.197 20.6836 117.141 20.2923C116.973 19.286 116.581 18.5593 116.077 18.0003C116.021 17.9444 115.965 17.8326 115.909 17.7767H54.4829C54.4269 17.8326 54.3709 17.9444 54.3149 18.0003C53.8109 18.5034 53.4189 19.286 53.251 20.2923C53.195 20.6836 53.139 21.019 53.139 21.2426V21.4103C52.971 22.6401 52.1871 23.7023 51.0672 24.2613C49.3313 25.0998 45.9716 26.721 43.2279 28.398C38.4683 31.3049 35.6685 34.7708 33.9887 37.1745C33.7647 37.4541 33.5967 37.6777 33.3728 37.9013L33.3168 38.069L33.2048 38.1249C32.8688 38.7957 31.3569 43.2678 31.2449 69.7093C31.7489 69.3179 32.2529 69.0943 32.3089 69.0943L32.4208 69.0384C32.6448 68.9825 54.3709 63.0011 84.5521 63.0011Z" fill="#61BBD6"/>
<path d="M41.2126 156.468H14.279L14.223 124.157C14.223 124.101 14.055 118.008 14.111 108.784C14.111 103.474 14.223 98.1631 14.335 93.0761V92.2376H22.2863C22.3423 87.6537 22.9022 83.6846 24.0221 80.4423C26.2619 73.6224 29.9576 72.113 30.1256 72.0571L30.9655 71.7217L41.1566 108.17V156.468H41.2126ZM15.9589 154.791H39.5327V108.393L38.8608 106.101L29.9576 74.1255C28.8937 74.964 26.9899 76.8647 25.646 80.9455C24.5821 84.2437 24.0221 88.3245 24.0221 93.0761V93.9146H16.0149C15.9029 98.7222 15.8469 103.753 15.7909 108.784C15.7349 117.952 15.9029 124.046 15.9029 124.101L15.9589 154.791Z" fill="#61BBD6"/>
<path d="M41.2125 239.818H14.335V154.847H41.2125V239.818ZM16.0148 238.141H39.5327V156.524H16.0148V238.141Z" fill="#61BBD6"/>
<path d="M41.2125 323.111H14.335V238.141H41.2125V323.111ZM16.0148 321.434H39.5327V239.818H16.0148V321.434Z" fill="#61BBD6"/>
<path d="M156.058 156.468H129.124V108.17L129.852 105.654L139.259 72.0012H140.211L140.379 72.113L140.659 72.2807C140.771 72.3366 140.883 72.4484 141.051 72.5043L141.163 72.5602C141.219 72.6161 141.275 72.6161 141.331 72.672C141.443 72.7279 141.555 72.8398 141.667 72.9516L142.395 73.6224C142.451 73.6783 142.507 73.7342 142.619 73.846C142.899 74.1814 143.235 74.5168 143.515 74.8522C143.627 75.0199 143.739 75.1876 143.907 75.3553C144.915 76.7529 145.755 78.4858 146.37 80.4424C147.434 83.6847 148.05 87.6537 148.106 92.2376H156.058V93.0761C156.17 98.1632 156.282 103.474 156.282 108.784C156.338 117.841 156.17 123.878 156.17 124.157L156.058 156.468ZM130.804 154.791H154.378L154.434 124.101C154.434 124.046 154.602 117.952 154.546 108.784C154.546 103.753 154.434 98.7781 154.322 93.9146H146.314V93.0761C146.314 88.3245 145.755 84.2437 144.691 80.9455C144.075 79.1007 143.347 77.5355 142.451 76.3056C142.339 76.1379 142.227 76.0261 142.115 75.8584C141.891 75.523 141.611 75.2435 141.331 74.964C141.275 74.9081 141.219 74.8522 141.163 74.7963L140.939 74.6286H140.771L140.603 74.2932C140.547 74.2373 140.435 74.1814 140.379 74.1255L131.476 106.101L130.804 108.393V154.791Z" fill="#61BBD6"/>
<path d="M156.002 239.818H129.124V154.847H156.002V239.818ZM130.804 238.141H154.322V156.524H130.804V238.141Z" fill="#61BBD6"/>
<path d="M156.002 323.111H129.124V238.141H156.002V323.111ZM130.804 321.434H154.322V239.818H130.804V321.434Z" fill="#61BBD6"/>
<path d="M42.164 109.12C41.0441 109.12 40.0361 108.505 39.5882 107.555C39.0842 106.269 37.6284 101.405 36.7884 98.6663C34.7166 91.6227 29.6211 73.846 29.6211 72.8397C29.6211 70.2124 32.2529 69.0943 32.3648 69.0384L32.4768 68.9825C32.7008 68.9266 54.3709 62.9452 84.5521 62.9452C84.6641 62.9452 92.6154 63.0011 95.8071 63.1688C120.669 64.2309 137.747 68.9266 137.915 68.9825L138.027 69.0384C138.139 69.0943 140.771 70.2124 140.771 72.8397C140.771 74.0696 132.036 104.536 130.804 107.555C130.636 107.89 130.468 108.114 130.244 108.337C129.572 109.008 128.452 109.288 127.444 109.064C123.413 108.114 107.958 106.772 86.232 106.716H84.1602C62.4901 106.772 47.0355 108.114 42.9479 109.064C42.6679 109.12 42.4439 109.12 42.164 109.12ZM32.9808 70.6037C32.7008 70.7155 31.3009 71.4981 31.3009 72.8397C31.4129 73.7901 35.3326 87.8214 38.4123 98.1632C39.8122 102.859 40.8201 106.045 41.156 106.884C41.324 107.275 41.94 107.499 42.5559 107.387C46.6995 106.437 62.3221 105.095 84.1042 105.039H86.176C108.014 105.095 123.637 106.437 127.724 107.387C128.228 107.499 128.676 107.387 128.956 107.107L129.012 107.051C129.068 106.996 129.124 106.94 129.124 106.884C130.412 103.697 138.699 74.4609 138.979 72.7838C138.979 71.4422 137.579 70.7155 137.299 70.6037C136.123 70.2683 119.493 65.9079 95.6391 64.8458C92.5034 64.734 84.5521 64.6222 84.4961 64.6222C55.3788 64.6781 34.2687 70.2683 32.9808 70.6037Z" fill="#61BBD6"/>
<path d="M130.804 334.291L129.628 333.844C129.516 333.788 129.348 333.788 129.236 333.732C123.693 333.509 104.262 332.782 86.176 332.782C85.952 332.782 85.728 332.782 85.504 332.782H84.8321C84.6081 332.782 84.3841 332.782 84.1601 332.782C71.6733 332.782 58.4025 333.173 49.4993 333.453H48.7713C48.5474 333.453 48.3234 333.453 48.0994 333.453C47.3715 333.453 46.7555 333.509 46.1396 333.509H45.4676C45.1317 333.509 44.7397 333.509 44.4597 333.565L41.156 333.676C41.044 333.676 40.8761 333.732 40.7641 333.732L39.5882 334.18V109.064L38.9162 106.604L36.7324 98.3868L37.8523 96.1507L38.4123 98.2749C39.8121 103.362 40.8201 106.716 41.156 107.611C41.324 108.058 41.94 108.281 42.5559 108.17C46.6995 107.163 62.3221 105.71 84.1601 105.654H86.232C108.07 105.71 123.693 107.163 127.836 108.17C128.34 108.281 128.788 108.17 129.068 107.89L129.852 107.051L130.916 108.84V334.291H130.804ZM84.8321 331.105H85.504C85.728 331.105 86.008 331.105 86.232 331.105C104.15 331.161 123.413 331.832 129.18 332.055V109.623C128.62 109.791 128.004 109.847 127.388 109.679C123.357 108.673 107.902 107.275 86.176 107.219H84.1041C62.4341 107.275 46.9795 108.729 42.9479 109.679C42.3319 109.847 41.716 109.791 41.212 109.623V332.055L44.2917 331.943C44.6277 331.943 44.9637 331.943 45.2997 331.888H45.9716C46.5875 331.888 47.2595 331.832 47.9314 331.832C48.1554 331.832 48.3794 331.832 48.6593 331.832H49.3873C58.2905 331.552 71.6173 331.217 84.1041 331.161C84.3281 331.105 84.6081 331.105 84.8321 331.105Z" fill="#61BBD6"/>
<path d="M85.5045 347.931H84.8325C84.6085 347.931 84.3846 347.931 84.1046 347.931C72.2897 347.931 59.0189 347.54 49.3317 347.261C46.588 347.205 44.1242 347.093 42.0524 347.037H41.5484C41.3804 347.037 41.2125 347.037 41.0445 347.037C40.8765 347.037 40.7085 347.037 40.5405 347.037H40.4285C39.9806 347.037 39.5886 347.037 39.1966 347.037H38.4127C37.1248 347.037 36.0609 346.198 35.669 345.024C35.501 344.41 35.501 343.795 35.669 343.236C36.0049 342.118 36.4529 340.608 36.8449 339.155C37.6288 336.136 38.1887 334.291 38.6367 333.509C38.9727 333.006 39.4766 332.558 40.0926 332.335C40.3725 332.223 40.6525 332.167 40.9885 332.167C41.7724 332.111 44.7401 331.999 49.3877 331.888C58.3469 331.608 71.6177 331.273 84.1046 331.217C84.3286 331.217 84.5525 331.217 84.7765 331.217H85.4485C85.6725 331.217 85.9524 331.217 86.1764 331.217C104.263 331.273 123.749 331.943 129.293 332.167C129.628 332.167 129.964 332.279 130.244 332.391C130.804 332.614 131.308 333.006 131.588 333.509C132.092 334.235 132.596 336.136 133.38 339.155C133.772 340.608 134.164 342.118 134.556 343.236C134.836 344.13 134.724 345.08 134.164 345.807C133.604 346.59 132.764 347.037 131.812 347.037C129.46 347.093 125.765 347.149 121.117 347.316C114.566 347.484 106.447 347.708 98.2153 347.875C93.4557 347.931 89.5921 347.987 86.1204 347.987C85.9524 347.931 85.7284 347.931 85.5045 347.931ZM84.8325 346.254H85.5045C85.7284 346.254 85.9524 346.254 86.1764 346.254C89.6481 346.254 93.4557 346.198 98.2153 346.143C106.447 345.975 114.566 345.751 121.117 345.583C125.765 345.472 129.46 345.36 131.868 345.304C132.26 345.304 132.652 345.08 132.876 344.801C133.1 344.465 133.156 344.074 133.044 343.683C132.652 342.565 132.26 341 131.868 339.49C131.308 337.422 130.636 334.906 130.244 334.347C130.132 334.124 129.908 333.956 129.684 333.9C129.572 333.844 129.405 333.788 129.237 333.788C123.693 333.565 104.263 332.838 86.1764 332.838C85.9524 332.838 85.7284 332.838 85.5045 332.838H84.8325C84.6085 332.838 84.3846 332.838 84.1606 332.838C71.6737 332.838 58.4029 333.229 49.4997 333.509C44.7961 333.676 41.8844 333.788 41.1005 333.788C40.9885 333.788 40.8205 333.844 40.7085 333.844C40.4285 333.956 40.2605 334.124 40.0926 334.347C39.7006 334.906 39.0287 337.478 38.4687 339.49C38.0767 341 37.6288 342.509 37.2928 343.683C37.1808 343.962 37.1808 344.186 37.2928 344.465C37.4048 344.913 37.8528 345.304 38.4687 345.304H39.2526C39.6446 345.304 40.0366 345.304 40.4845 345.304H40.5405C40.7085 345.304 40.8765 345.304 41.0445 345.304C41.2125 345.304 41.3804 345.304 41.6044 345.304H42.1084C44.1242 345.36 46.588 345.416 49.3877 345.528C59.0748 345.807 72.3457 346.198 84.1606 346.198C84.3846 346.254 84.6085 346.254 84.8325 346.254Z" fill="#61BBD6"/>
<path d="M29.1177 353.801L28.5578 353.466C25.1981 351.565 21.9504 347.372 20.3825 345.024L20.3265 344.969L20.2705 344.913L20.1585 344.857C19.7106 344.689 19.0946 344.801 18.7586 345.08L18.5907 345.248C18.3667 345.528 18.0867 346.031 17.9187 346.31C17.9187 346.366 17.8627 346.422 17.8627 346.478V346.534C17.8627 346.59 17.8627 346.646 17.8627 346.646L16.2389 347.093C13.7751 339.993 14.447 322.887 14.503 322.161L14.559 321.378H41.3806V333.565L40.8206 333.788C40.5967 333.9 40.3727 334.068 40.2047 334.291C39.8127 334.85 39.1408 337.422 38.5809 339.434C38.1889 340.944 37.7409 342.453 37.405 343.627C37.293 343.906 37.293 344.13 37.405 344.41L37.5729 344.857L29.1177 353.801ZM20.6065 343.236C20.9984 343.347 21.2784 343.515 21.5584 343.795C21.6144 343.906 21.6704 343.962 21.7264 344.018C22.9023 345.695 25.758 349.664 28.7817 351.621L35.5571 344.41C35.5011 343.962 35.5571 343.515 35.6691 343.124C36.0051 342.006 36.453 340.496 36.845 339.043C37.6289 336.024 38.1889 334.18 38.6368 333.397C38.8608 333.062 39.1408 332.726 39.5328 332.503V323.111H16.0149C15.9029 326.242 15.6789 337.645 17.0788 344.298C17.1348 344.242 17.1348 344.186 17.1908 344.186C17.2468 344.13 17.2468 344.074 17.3028 344.018C17.3588 343.962 17.4148 343.851 17.5267 343.795C17.5827 343.739 17.6387 343.683 17.6947 343.683C18.4227 343.124 19.5426 342.956 20.4945 343.18L20.6065 343.236Z" fill="#61BBD6"/>
<path d="M85.1683 359.391L79.5688 359.335C77.7209 359.335 75.8731 359.335 74.1373 359.279C55.379 359.056 43.62 358.385 36.0607 357.155H35.8927L35.6687 356.987C35.5568 356.931 35.4448 356.876 35.3888 356.82C34.1569 356.261 32.365 355.422 30.2932 354.36C29.7333 354.081 29.1173 353.745 28.5574 353.41L27.6055 352.907L36.8446 343.068L37.2926 344.41C37.4606 344.857 37.8525 345.248 38.4685 345.304C39.3644 345.304 40.4283 345.36 41.6042 345.36H42.1082C44.236 345.416 46.8117 345.472 49.6675 345.583C56.0509 345.751 64.0582 345.975 72.1215 346.142C76.881 346.198 80.7447 346.254 84.1604 346.254C84.3843 346.254 84.6083 346.254 84.8323 346.254H85.5042C85.7282 346.254 85.9522 346.254 86.1762 346.254C89.8718 346.254 93.9035 346.198 98.2151 346.142C106.278 346.031 114.23 345.751 120.669 345.583C123.581 345.528 126.157 345.416 128.284 345.36H128.788C130.02 345.304 131.084 345.304 131.924 345.304C132.54 345.304 132.988 344.857 133.1 344.41L133.548 343.068L142.787 352.907L141.835 353.41C141.219 353.745 140.659 354.081 140.099 354.36C138.083 355.422 136.236 356.261 135.06 356.82C134.948 356.876 134.836 356.931 134.724 356.987L134.5 357.155H134.332C126.773 358.385 115.014 359.056 96.2553 359.279C94.5194 359.279 92.7276 359.335 90.8238 359.335L85.1683 359.391ZM36.4527 355.534C43.844 356.708 55.8269 357.379 74.1933 357.602C75.9291 357.602 77.7209 357.658 79.6248 357.658L85.2243 357.714L90.8238 357.658C92.6716 357.658 94.4634 357.658 96.2553 357.602C114.622 357.379 126.605 356.708 133.996 355.534C134.108 355.478 134.22 355.422 134.388 355.366H134.444C135.62 354.863 137.412 354.025 139.371 352.962C139.651 352.851 139.875 352.683 140.155 352.571L133.996 346.031C133.436 346.59 132.708 346.925 131.924 346.925C131.084 346.925 130.02 346.981 128.788 346.981H128.284C126.157 347.037 123.581 347.093 120.669 347.205C114.23 347.372 106.278 347.596 98.2151 347.764C93.9035 347.82 89.8718 347.875 86.1762 347.875C85.9522 347.875 85.7282 347.875 85.5042 347.875H84.8323C84.6083 347.875 84.3283 347.875 84.1044 347.875C80.6887 347.875 76.825 347.82 72.0655 347.764C64.0022 347.652 56.0509 347.372 49.6115 347.205C46.6997 347.149 44.124 347.037 42.0522 346.981H41.5482C40.3163 346.981 39.3084 346.925 38.4125 346.925C37.6286 346.925 36.8446 346.59 36.3407 346.031L30.2932 352.515C30.5732 352.627 30.7972 352.795 31.0772 352.907C33.093 353.969 34.8848 354.807 36.0607 355.31C36.1727 355.422 36.3407 355.478 36.4527 355.534Z" fill="#61BBD6"/>
<path d="M141.22 353.801L132.932 344.913L133.1 344.465C133.156 344.242 133.156 343.962 133.1 343.683C132.708 342.509 132.316 341 131.924 339.49C131.364 337.422 130.693 334.906 130.301 334.291C130.189 334.068 129.965 333.9 129.741 333.844L129.181 333.621V321.434H156.002L156.058 322.217C156.114 322.943 156.786 340.049 154.322 347.149L152.699 351.844V347.261L152.643 347.205L152.587 346.757V346.702C152.587 346.646 152.531 346.59 152.531 346.59C152.531 346.59 152.475 346.534 152.475 346.478C152.307 346.142 152.027 345.695 151.803 345.36L151.635 345.192C151.579 345.136 151.467 345.08 151.411 345.08C151.075 344.913 150.571 344.913 150.235 345.024L150.123 345.08C150.067 345.08 150.011 345.136 150.011 345.192C148.611 347.205 145.811 350.95 142.787 353.018L142.563 353.13C142.339 353.242 142.115 353.41 141.948 353.521L141.22 353.801ZM134.78 344.41L141.556 351.621L141.668 351.509C144.467 349.552 147.099 346.031 148.443 344.074C148.499 344.018 148.555 343.906 148.611 343.851L148.667 343.795C148.891 343.571 149.227 343.403 149.507 343.291L149.675 343.236C150.403 343.012 151.187 343.068 151.915 343.403C152.139 343.515 152.363 343.627 152.531 343.739C152.587 343.795 152.643 343.795 152.699 343.851C152.755 343.906 152.867 343.962 152.923 344.074C152.979 344.13 153.035 344.186 153.091 344.242C153.146 344.298 153.203 344.41 153.258 344.521C154.714 337.869 154.49 326.242 154.378 323.055H130.861V332.502C131.196 332.726 131.532 333.006 131.756 333.397C132.26 334.124 132.764 336.024 133.548 339.043C133.94 340.496 134.332 342.006 134.724 343.124C134.836 343.571 134.836 344.018 134.78 344.41Z" fill="#61BBD6"/>
<path d="M85.4482 368H84.9442C84.6643 368 84.3843 368 84.1603 368H82.4245C62.3223 367.832 47.5956 366.714 37.4045 364.646L31.5811 363.416L36.9006 363.025V361.795C36.9006 361.683 36.9006 361.571 36.9006 361.404V361.348V360.118C36.9006 359 36.3406 357.435 35.8367 357.099L35.7807 357.043L32.085 354.807L36.3406 355.534C45.0758 356.987 60.1385 357.658 85.2242 357.714C88.8639 357.714 92.5596 357.658 96.1992 357.658C114.678 357.435 126.716 356.764 134.108 355.534L138.139 354.863L134.668 357.043C134.556 357.155 134.388 357.211 134.276 357.323C133.996 357.714 133.716 359.223 133.604 359.894L133.492 360.397C133.436 360.789 133.38 361.18 133.324 361.515C133.324 361.683 133.324 361.795 133.324 361.907L133.38 364.534L132.708 364.702C122.517 366.77 107.902 367.832 88.024 368H86.2881C85.9521 368 85.6722 368 85.4482 368ZM38.4684 363.137C48.4915 365.093 62.8822 366.155 82.3685 366.323H84.1043C84.3843 366.323 84.6083 366.323 84.8882 366.323H85.3922C85.6722 366.323 85.8961 366.323 86.1761 366.323H87.968C107.342 366.155 121.621 365.149 131.7 363.192V361.963C131.7 361.795 131.7 361.627 131.7 361.46C131.756 361.068 131.812 360.621 131.868 360.118L131.98 359.671C132.148 358.832 132.316 358.105 132.484 357.546C124.869 358.609 113.558 359.168 96.1992 359.391C92.5596 359.447 88.8639 359.447 85.1682 359.447C61.7623 359.391 46.9797 358.776 37.9645 357.546C38.3564 358.441 38.5244 359.503 38.5244 360.23V361.404C38.5244 361.571 38.5244 361.739 38.5244 361.907L38.4684 363.137Z" fill="#61BBD6"/>
<path d="M37.4607 364.646C35.9488 364.646 30.4613 363.304 27.8295 362.13C24.6378 360.733 22.286 359.112 20.7182 357.155C19.2063 355.366 18.0304 353.186 17.2465 350.671L16.0706 346.925C16.0146 346.59 16.0146 346.254 16.1826 345.975C16.1826 345.919 16.2386 345.863 16.2946 345.751C16.3506 345.695 16.3506 345.639 16.3506 345.639L16.4066 345.583C16.6305 345.136 16.9665 344.633 17.2465 344.186C17.3025 344.13 17.3585 344.074 17.3585 344.018C17.4145 343.962 17.4705 343.851 17.5825 343.795C17.6385 343.739 17.6945 343.683 17.7504 343.683C18.4784 343.124 19.5983 342.956 20.5502 343.18L20.7182 343.236C21.0541 343.347 21.3341 343.515 21.5581 343.739L21.6141 343.795C21.6701 343.851 21.7261 343.962 21.7821 344.018C23.014 345.807 26.2057 350.167 29.3974 351.956C29.9573 352.292 30.5733 352.571 31.1332 352.907C33.1491 353.969 34.9409 354.807 36.1168 355.31C36.2288 355.366 36.3408 355.422 36.4528 355.478H36.5088C36.5648 355.478 36.5648 355.534 36.6207 355.534L36.6767 355.59C36.7327 355.59 36.7327 355.646 36.7887 355.646L36.8447 355.702C38.1886 356.764 38.5806 361.18 38.5806 361.236C38.5806 361.46 38.5806 361.627 38.5806 361.739V363.584L38.6366 363.863L38.4126 364.199C38.3006 364.366 38.0766 364.534 37.7406 364.534C37.5727 364.646 37.5167 364.646 37.4607 364.646ZM17.6945 346.646L17.7504 346.813L18.8144 350.167C19.5423 352.459 20.6062 354.416 21.9501 356.037C23.4059 357.77 25.5337 359.223 28.5015 360.565C30.8533 361.627 35.1649 362.633 36.8447 362.913V361.795C36.8447 361.683 36.8447 361.515 36.8447 361.404C36.7327 359.727 36.1728 357.49 35.7808 357.099L35.7248 357.043C35.6128 356.987 35.5008 356.932 35.4449 356.876C34.213 356.317 32.4211 355.478 30.3493 354.416C29.7894 354.136 29.1734 353.801 28.6135 353.466C25.2538 351.565 22.0061 347.372 20.4382 345.024C20.3822 344.969 20.3822 344.969 20.3262 344.913L20.2142 344.857C19.7663 344.689 19.1503 344.801 18.8144 345.08L18.6464 345.192C18.4224 345.528 18.1424 345.975 17.9744 346.31C17.9744 346.366 17.9184 346.422 17.9184 346.478V346.534C17.6945 346.59 17.6945 346.646 17.6945 346.646Z" fill="#61BBD6"/>
<path d="M164.849 313.105H154.322V266.259H164.849C167.873 266.259 170.337 268.719 170.337 271.738V307.57C170.337 310.645 167.873 313.105 164.849 313.105ZM156.002 311.428H164.849C166.977 311.428 168.657 309.695 168.657 307.626V271.793C168.657 269.669 166.921 267.992 164.849 267.992H156.002V311.428Z" fill="#61BBD6"/>
<path d="M16.0146 313.105H5.48751C2.46378 313.105 0 310.645 0 307.626V271.793C0 268.775 2.46378 266.315 5.48751 266.315H16.0706L16.0146 313.105ZM5.48751 267.936C3.3597 267.936 1.67985 269.669 1.67985 271.738V307.57C1.67985 309.695 3.41569 311.372 5.48751 311.372H14.3347L14.3907 267.88H5.48751V267.936Z" fill="#61BBD6"/>
<path d="M134.276 357.379L134.164 357.323H133.996V357.155L132.988 356.261C133.1 356.093 133.268 355.981 133.38 355.869L133.436 355.813C133.492 355.758 133.548 355.758 133.548 355.702H133.604C133.66 355.702 133.66 355.646 133.716 355.646L133.772 355.59H133.996V355.981L134.668 356.987C134.5 357.155 134.388 357.267 134.276 357.379Z" fill="#61BBD6"/>
<path d="M132.764 364.758C132.708 364.758 132.652 364.758 132.596 364.758C132.26 364.702 132.036 364.534 131.924 364.422L131.7 364.143L131.756 363.863V362.019C131.756 361.851 131.756 361.683 131.756 361.515C131.756 361.46 132.148 357.043 133.492 355.981L133.548 355.925C133.604 355.869 133.66 355.869 133.66 355.813L133.716 355.758C133.772 355.758 133.772 355.702 133.828 355.702H133.884C133.996 355.646 134.052 355.59 134.164 355.534H134.22C135.34 355.031 137.188 354.192 139.148 353.13C139.707 352.851 140.267 352.515 140.883 352.18C141.107 352.068 141.331 351.9 141.555 351.733L141.723 351.621C144.523 349.664 147.155 346.143 148.499 344.186C148.555 344.13 148.611 344.018 148.667 343.962L148.723 343.906C148.947 343.683 149.283 343.515 149.563 343.403L149.731 343.347C150.458 343.124 151.242 343.18 151.97 343.515C152.194 343.627 152.418 343.739 152.586 343.851C152.642 343.906 152.698 343.906 152.754 343.962C152.81 344.018 152.922 344.074 152.978 344.186C153.034 344.242 153.09 344.298 153.146 344.354C153.426 344.745 153.762 345.304 153.986 345.751L154.042 345.807C154.042 345.863 154.042 345.863 154.098 345.919C154.154 346.087 154.21 346.142 154.21 346.198C154.266 346.366 154.322 346.59 154.322 346.813C154.322 346.869 154.322 346.981 154.322 347.149V347.205L154.21 347.596L153.202 350.894C152.418 353.354 151.242 355.534 149.731 357.379C148.107 359.279 145.811 360.901 142.619 362.354C139.763 363.416 134.276 364.758 132.764 364.758ZM134.5 357.211C134.108 357.602 133.548 359.838 133.436 361.571C133.436 361.739 133.436 361.851 133.436 361.963V363.081C135.116 362.857 139.372 361.795 141.779 360.733C144.747 359.391 146.875 357.938 148.331 356.205C149.731 354.584 150.794 352.571 151.466 350.335L152.586 346.813V346.757C152.586 346.702 152.53 346.646 152.53 346.646C152.53 346.646 152.474 346.59 152.474 346.534C152.306 346.198 152.026 345.751 151.802 345.416L151.634 345.248C151.578 345.192 151.466 345.136 151.41 345.136C151.074 344.969 150.57 344.969 150.235 345.08L150.123 345.136C150.067 345.136 150.011 345.192 150.011 345.248C148.611 347.261 145.811 351.006 142.787 353.074L142.619 353.186C142.339 353.354 142.059 353.522 141.779 353.689C141.219 354.025 140.603 354.36 140.043 354.64C138.028 355.702 136.18 356.54 135.004 357.099H134.948C134.892 357.155 134.78 357.211 134.668 357.267L134.5 357.211Z" fill="#61BBD6"/>
</svg>
