<svg width="172" height="569" viewBox="0 0 172 569" fill="none" xmlns="http://www.w3.org/2000/svg">
<path d="M90.6068 396.246H81.4456L81.3971 373.367L81.3486 358.341V356.887C81.3486 354.366 83.3845 352.33 85.905 352.33C88.4255 352.33 90.4614 354.366 90.4614 356.887V356.935V373.609L90.6068 396.246Z" fill="#8C9799"/>
<path d="M144.41 551.356V564.056C144.41 566.722 142.713 568.854 140.629 568.854L33.506 569C31.4217 569 29.6768 566.867 29.6768 564.201V551.501C29.6768 548.836 31.3733 546.703 33.4576 546.703L140.581 546.557C142.665 546.557 144.41 548.69 144.41 551.356Z" fill="#8C9799"/>
<path opacity="0.1" d="M144.41 558.821V564.056C144.41 566.673 142.713 568.855 140.629 568.855L33.506 569C31.4217 569 29.6768 566.867 29.6768 564.201V558.966C29.6768 561.632 31.3733 564.734 33.506 564.734L140.629 564.589C142.713 564.589 144.41 561.487 144.41 558.821Z" fill="#162223"/>
<path opacity="0.12" d="M145.766 557.49L29.6758 557.631L29.6774 558.989L145.768 558.847L145.766 557.49Z" fill="#00384B"/>
<path d="M152.117 401.093L152.311 552.52C152.311 555.234 150.082 557.464 147.367 557.464L25.1693 557.609C22.4548 557.609 20.2251 555.379 20.2251 552.665L20.0312 401.238C20.0312 398.524 22.261 396.294 24.9754 396.294L147.173 396.149C149.888 396.149 152.117 398.379 152.117 401.093Z" fill="#8C9799"/>
<path d="M43.8301 557.657V560.372C43.8301 561.487 43.0545 562.359 42.0851 562.359H28.5614C27.592 562.359 26.8164 561.487 26.8164 560.372V557.657H43.8301Z" fill="#FA6850"/>
<path d="M146.543 557.561V560.275C146.543 561.39 145.767 562.262 144.798 562.262H131.274C130.305 562.262 129.529 561.39 129.529 560.275V557.561H146.543Z" fill="#FA6850"/>
<path opacity="0.1" d="M90.6062 373.609C86.6799 374.191 83.6747 373.997 81.445 373.416L81.3965 358.389L84.4502 356.45C84.4502 356.45 87.0192 356.596 90.5577 356.984L90.6062 373.609Z" fill="#162223"/>
<path d="M8.54372 471.766H20.177V524.309H8.59219C5.00526 524.309 2.04847 521.886 2.04847 518.88L2 477.194C2 474.238 4.90832 471.766 8.54372 471.766Z" fill="#8C9799"/>
<path d="M170.295 518.686C170.295 521.691 167.387 524.115 163.751 524.115H152.118V471.571H158.662H163.703C167.29 471.571 170.247 473.995 170.247 477L170.295 512.239V518.686Z" fill="#8C9799"/>
<path opacity="0.1" d="M170.295 518.686C170.295 521.691 167.387 524.115 163.751 524.115H152.118V471.571H158.662C158.856 471.668 158.953 471.717 158.953 471.717C158.953 471.717 155.123 497.455 158.274 509.767C160.601 518.977 166.805 514.857 170.295 512.239V518.686Z" fill="#162223"/>
<path opacity="0.1" d="M2 518.88C2 521.885 4.90832 524.309 8.54372 524.309H20.177V471.765H13.6333C13.4394 471.862 13.3424 471.911 13.3424 471.911C13.3424 471.911 17.1717 497.649 14.021 509.961C11.6944 519.171 5.48998 515.099 2 512.433V518.88Z" fill="#162223"/>
<path opacity="0.1" d="M81.4453 380.589C81.4453 380.589 81.4453 390.284 86.0501 390.284C90.655 390.284 90.655 380.589 90.655 380.589V396.246H81.4938L81.4453 380.589Z" fill="#162223"/>
<path opacity="0.1" d="M140.727 411.611L140.872 542.05C140.872 544.425 139.03 546.315 136.752 546.315L35.6396 546.46C33.3614 546.46 31.5194 544.57 31.5194 542.195L31.374 411.757C31.374 409.382 33.216 407.491 35.4941 407.491L136.607 407.346C138.885 407.346 140.727 409.236 140.727 411.611Z" fill="#162223"/>
<g opacity="0.5">
<path opacity="0.13" d="M52.4107 475.74L51.7321 535.264H50.7142L50.2295 475.74L51.0535 423.002H52.0714L52.4107 475.74Z" fill="#00384B"/>
<path opacity="0.13" d="M87.2623 475.74L86.5837 535.264H85.5658L85.0811 475.74L85.9051 423.002H86.923L87.2623 475.74Z" fill="#00384B"/>
<path opacity="0.13" d="M122.114 475.74L121.435 535.264H120.417L119.884 475.74L120.756 423.002H121.774L122.114 475.74Z" fill="#00384B"/>
</g>
<path d="M155.87 123.846L155.702 298.049L155.646 330.274C155.646 330.274 155.59 337.909 154.807 341.839C154.079 345.375 152.792 349.642 150.33 352.898C149.154 354.414 147.755 355.761 146.076 356.66C138.353 360.814 120.668 363.172 87.0328 363.34H86.8649C86.697 363.34 86.4731 363.34 86.2493 363.34H85.4098C85.1859 363.34 85.018 363.34 84.7942 363.34H84.6263C58.7143 363.228 42.2605 362.779 32.5225 360.253C29.6123 359.523 27.3177 358.625 25.5828 357.726C23.9038 356.828 22.4487 355.481 21.3294 353.965C18.9229 350.709 17.5797 345.488 16.8522 341.895C16.0687 337.909 16.0127 330.33 16.0127 330.33V322.863V298.105L15.8448 155.509L15.7889 123.902C15.7889 123.902 15.4531 110.372 15.9008 92.7438C16.0687 85.9509 16.3485 78.4842 16.8522 70.9614C17.2999 63.8316 17.9155 56.5895 18.811 49.7403C19.8743 41.2631 24.6314 29.3614 26.0865 25.8245C26.3103 25.207 26.4782 24.8702 26.4782 24.814C26.9819 23.1298 27.6535 21.6702 28.3251 20.3789C29.0526 18.9754 29.8362 17.7965 30.3399 16.7298C31.795 13.7544 32.5785 12.0702 35.4327 10.3859C47.0735 3.6491 65.0384 0.561377 84.7382 0.449097C85.018 0.449097 85.2978 0.449097 85.5217 0.449097H85.9694C86.2493 0.449097 86.5291 0.449097 86.753 0.449097C106.453 0.505237 124.418 3.59296 136.058 10.3859C138.465 11.7894 137.793 13.1368 139.137 15.2702C140.48 17.4596 143.782 20.3789 145.069 24.814C145.069 24.8702 145.237 25.2631 145.461 25.8245C146.916 29.4175 151.673 41.2631 152.736 49.7403C156.934 82.3579 155.87 123.846 155.87 123.846Z" fill="currentColor"/>
<path opacity="0.12" d="M19.8182 346.835C20.3219 349.193 21.4412 352.168 21.3293 353.853C18.9227 350.596 17.5796 345.375 16.852 341.782C16.0685 337.796 16.0125 330.218 16.0125 330.218L15.9566 297.993L15.7887 123.789C15.7887 123.789 14.7253 82.3017 18.8108 49.6281C19.8742 41.1509 24.6312 29.2491 26.0863 25.7123C26.0304 25.993 31.9627 11.5088 31.403 14.9895C30.6755 20.0421 27.1497 31.3263 24.6872 42.3298C22.5045 52.0421 21.2173 61.8105 21.2173 64.1123C21.2173 70.9614 18.7548 128.112 18.7548 138.442V253.025C18.7548 261.782 20.6577 266.442 20.6577 276.94C20.7136 287.551 16.0125 328.365 19.8182 346.835Z" fill="#00384B"/>
<path d="M30.2837 328.814L25.4707 326.119C24.4633 325.558 23.8477 324.66 23.8477 323.761V167.803C23.8477 166.905 24.911 166.175 26.1422 166.175L31.5709 166.288C32.8021 166.288 33.7535 167.018 33.7535 167.916L33.3058 327.747C33.3058 328.87 31.5149 329.488 30.2837 328.814Z" fill="#00384B"/>
<path d="M37.0555 216.196H20.9375V220.351H37.0555V216.196Z" fill="currentColor"/>
<path d="M37.0555 269.811H20.9375V273.965H37.0555V269.811Z" fill="currentColor"/>
<path d="M26.031 92.2387C25.4713 91.4527 23.9043 91.7895 23.9043 92.6878V147.425V147.481C23.9603 150.456 27.0943 152.814 30.9559 152.982H31.1798C33.3624 153.039 33.7542 152.533 33.7542 151.579V118.344C33.7542 111.326 31.3477 99.3123 26.6466 93.1369L26.031 92.2387Z" fill="#00384B"/>
<path opacity="0.2" d="M41.7566 220.688L41.1969 322.807H40.6372L40.3574 220.688L40.9171 118.568H41.4767L41.7566 220.688Z" fill="#00384B"/>
<path opacity="0.2" d="M83.2266 133.165H84.6257L84.066 235.284H83.5064L83.2266 133.165Z" fill="#00384B"/>
<path opacity="0.2" d="M62.0163 322.526H60.6172L61.1768 220.407H61.7365L62.0163 322.526Z" fill="#00384B"/>
<path opacity="0.2" d="M32.2985 69.9509H31.459L31.7948 40.6456H32.1306L32.2985 69.9509Z" fill="#00384B"/>
<path opacity="0.12" d="M96.4352 0.785999C96.1554 0.785999 95.8755 0.729858 95.5957 0.729858C95.8755 0.729858 96.1554 0.785999 96.4352 0.785999Z" fill="#00384B"/>
<path opacity="0.12" d="M75.8955 0.785999C76.1753 0.785999 76.4552 0.729858 76.735 0.729858C76.4552 0.729858 76.1753 0.785999 75.8955 0.785999Z" fill="#00384B"/>
<path opacity="0.12" d="M151.841 346.835C151.337 349.193 150.218 351.214 150.33 352.898C152.736 349.642 154.079 345.432 154.807 341.839C155.591 337.853 155.646 330.274 155.646 330.274L155.702 298.049L155.87 123.846C155.87 123.846 156.934 82.3579 152.848 49.6842C151.785 41.207 147.028 29.3053 145.573 25.7684C145.629 26.0491 139.696 11.5649 140.256 15.0456C140.984 20.0982 144.509 31.3825 146.972 42.386C149.155 52.0982 150.442 61.8667 150.442 64.1684C150.442 71.0175 152.904 128.168 152.904 138.498V253.081C152.904 261.839 151.001 266.498 151.001 276.996C150.945 287.551 155.646 328.365 151.841 346.835Z" fill="#00384B"/>
<path d="M132.533 346.779C125.201 346.891 104.382 347.677 86.8651 347.733C86.6412 347.733 86.4173 347.733 86.1935 347.733H85.5219C85.298 347.733 85.0742 347.733 84.8503 347.733C69.6837 347.677 51.9986 347.06 42.8203 346.835C41.4212 346.779 40.1899 346.779 39.1826 346.779C37.7834 346.779 36.776 345.375 37.2238 344.028C38.1752 341.109 39.4064 335.607 40.078 334.428C40.3019 334.035 40.6936 333.754 41.0854 333.642C41.3092 333.53 41.5331 333.53 41.757 333.474C46.4581 333.305 66.3258 332.519 84.8503 332.519C85.0742 332.519 85.298 332.519 85.5219 332.519H86.1935C86.4173 332.519 86.6412 332.519 86.8651 332.519C105.334 332.575 125.201 333.305 129.958 333.474C130.182 333.474 130.406 333.53 130.63 333.642C131.022 333.811 131.358 334.091 131.637 334.428C132.365 335.551 133.596 341.109 134.492 344.028C134.939 345.375 133.932 346.779 132.533 346.779Z" fill="#00384B"/>
<path d="M141.374 328.814L146.187 326.119C147.195 325.558 147.81 324.66 147.81 323.761V167.803C147.81 166.905 146.747 166.175 145.516 166.175L140.087 166.288C138.856 166.288 137.904 167.018 137.904 167.916L138.352 327.747C138.352 328.87 140.143 329.488 141.374 328.814Z" fill="#00384B"/>
<path d="M134.609 220.311L150.727 220.311L150.727 216.157L134.609 216.157L134.609 220.311Z" fill="currentColor"/>
<path d="M134.609 273.902L150.727 273.902L150.727 269.747L134.609 269.747L134.609 273.902Z" fill="currentColor"/>
<path d="M145.684 92.2387C146.244 91.4527 147.811 91.7895 147.811 92.6878V147.425V147.481C147.755 150.456 144.621 152.814 140.759 152.982H140.535C138.353 153.039 137.961 152.533 137.961 151.579V118.344C137.961 111.326 140.367 99.3123 145.069 93.1369L145.684 92.2387Z" fill="#00384B"/>
<path opacity="0.2" d="M131.301 220.688L131.022 322.807H130.462L129.902 220.688L130.182 118.568H130.742L131.301 220.688Z" fill="#00384B"/>
<path opacity="0.2" d="M109.643 322.526H111.042L110.482 220.407H109.922L109.643 322.526Z" fill="#00384B"/>
<path d="M140.535 72.3649C140.535 73.3754 131.917 103.747 130.629 106.891C130.294 107.677 129.286 108.126 128.223 107.902C124.137 106.947 108.523 105.6 86.8646 105.544H84.7938C63.1352 105.6 47.5209 106.947 43.4354 107.902C42.428 108.126 41.4207 107.733 41.0289 106.891C39.7977 103.747 31.123 73.3193 31.123 72.3649C31.123 70.2877 33.3057 69.3333 33.3057 69.3333C33.3057 69.3333 54.7404 63.3263 85.1296 63.3263C85.1296 63.3263 93.1327 63.3824 96.3227 63.5509C121.339 64.6175 138.241 69.3333 138.241 69.3333C138.241 69.3333 140.535 70.2316 140.535 72.3649Z" fill="#00384B"/>
<path opacity="0.2" d="M139.416 69.9509H140.256L139.92 40.6456H139.584L139.416 69.9509Z" fill="#00384B"/>
<path opacity="0.12" d="M75.2803 0.785999C75.5601 0.785999 75.8399 0.729858 76.1197 0.729858C75.8399 0.729858 75.5601 0.785999 75.2803 0.785999Z" fill="#00384B"/>
<path opacity="0.12" d="M95.7623 0.785999C95.4825 0.785999 95.2027 0.729858 94.9229 0.729858C95.2027 0.729858 95.4825 0.785999 95.7623 0.785999Z" fill="#00384B"/>
<path d="M145.014 84.0421C144.958 84.6596 145.405 85.221 146.077 85.3333L148.819 85.614L151.002 85.8386L150.946 83.9298V83.6491L150.778 79.3263L146.972 78.9333L146.692 78.8772C146.077 78.821 145.517 79.2701 145.405 79.9438L145.237 81.628L145.014 84.0421Z" fill="currentColor"/>
<path d="M143.558 22.2316C140.872 19.0316 136.73 15.1579 130.574 12.6877C115.799 6.73684 102.144 5.61403 86.8653 5.55789H86.6974C86.6415 5.55789 86.5295 5.55789 86.4736 5.55789H85.2423C85.1864 5.55789 85.0744 5.55789 85.0185 5.55789C84.9625 5.55789 84.9065 5.55789 84.8506 5.55789C69.572 5.61403 55.9165 6.73684 41.0857 12.6877C34.9295 15.1579 30.788 19.0316 28.1017 22.2316C27.7659 22.6807 25.8631 26.2737 26.031 25.7684C28.1577 19.0316 31.1238 12.4632 35.4332 9.99298C47.1859 3.2 65.0948 0.112281 84.7946 0C85.0744 0 85.3543 0 85.5781 0H86.0259C86.3057 0 86.5855 0 86.8094 0C106.509 0.0561403 124.474 3.14386 136.115 9.93684C140.424 12.407 144.789 22.5123 146.916 29.2491C147.14 29.8105 143.894 22.6246 143.558 22.2316Z" fill="currentColor"/>
<path d="M132.253 13.4176C132.253 13.4176 140.648 17.3474 143.67 29.3053C146.02 38.6807 146.076 29.3053 146.076 29.3053C146.076 29.3053 141.04 15.8878 137.905 14.0351C134.771 12.1825 132.253 13.4176 132.253 13.4176Z" fill="currentColor"/>
<path opacity="0.7" d="M54.5719 14.7088V16.2245C54.5719 16.393 54.516 16.5614 54.404 16.7298C53.6205 17.5158 53.2847 18.5824 53.1168 19.4245C53.0049 19.9859 52.9489 20.4351 52.9489 20.6596C52.837 21.614 52.2214 22.4 51.3819 22.8491C49.535 23.7474 46.1771 25.3754 43.4908 27.0035C38.6218 29.9789 35.7676 33.6281 34.0886 35.9859C33.8647 36.3228 33.6409 36.5474 33.473 36.6596C31.9619 37.7263 32.4096 32.5614 32.4096 32.5052C32.6335 30.8772 32.9133 29.4175 33.2491 28.0702C33.2491 28.014 33.3051 27.9017 33.3051 27.8456C33.8088 26.1614 34.4244 24.7017 35.2079 23.4667C35.7676 22.5684 36.3832 21.7263 37.1107 20.9965C37.2786 20.8281 37.3906 20.7158 37.5585 20.5474C38.1181 19.9859 38.7897 19.4807 39.4613 19.0316C40.3008 18.4702 41.1962 17.9649 42.2036 17.5719C42.3715 17.5158 42.5953 17.4035 42.7632 17.3474C48.024 15.214 52.2214 14.1474 53.8444 14.0351C54.2361 13.9789 54.5719 14.3158 54.5719 14.7088Z" fill="white"/>
<path d="M54.5732 14.7088V16.2245C54.5732 16.393 54.5172 16.5614 54.4053 16.7298C53.6218 17.5158 53.286 18.5824 53.1181 19.4245C52.8383 19.3684 49.5363 19.2 43.9398 22.2877C38.2873 25.3193 36.3285 30.1474 34.4816 29.6421C33.6981 29.4175 33.4183 28.6316 33.3623 27.8456C34.9853 22.2316 38.2313 19.1438 42.7645 17.3474C48.0252 15.214 52.2226 14.1474 53.8456 14.0351C54.2374 13.9789 54.5732 14.3158 54.5732 14.7088Z" fill="white"/>
<path d="M154.863 341.839C153.8 348.014 151.449 356.884 146.132 360.196C138.521 364.968 121.172 367.719 88.6558 368C88.0962 368 87.4805 368 86.9209 368C86.6411 368 86.4172 368 86.1374 368H85.6337C85.3539 368 85.074 368 84.8502 368C84.2346 368 83.6749 368 83.1152 368C53.9573 367.775 36.9998 365.53 28.3251 361.6C27.3178 361.151 26.4223 360.702 25.6388 360.196C21.4414 357.558 19.0909 352.056 17.7477 346.835C17.4119 345.432 17.1321 343.074 16.9082 341.839C16.9082 341.839 17.5238 342.905 18.5872 344.421C20.546 347.284 24.0718 352.842 27.7655 355.2C28.0453 355.368 28.3811 354.582 28.7729 354.751C30.6197 355.649 33.1941 356.435 36.8878 357.053C45.6744 358.512 60.5612 359.186 85.9135 359.242C89.8311 359.242 93.4688 359.186 96.9387 359.186C126.88 358.849 139.137 357.333 144.062 354.246C149.714 350.597 154.863 341.839 154.863 341.839Z" fill="currentColor"/>
<path d="M154.023 346.891L153.015 350.204C152.288 352.449 151.224 355.649 149.713 357.389C147.866 359.579 145.908 360.758 143.389 361.6C142.774 361.825 142.102 361.993 141.43 362.161C140.535 362.386 139.584 362.554 138.632 362.723L134.043 363.34C133.651 363.453 133.259 363.06 133.371 362.611L133.315 359.916C133.315 358.737 133.875 357.614 134.826 356.997C134.938 356.94 135.106 356.828 135.218 356.772H135.274C136.953 356.042 139.416 354.807 141.99 353.404C145.236 351.551 148.426 347.34 149.881 345.151C150.441 344.309 151.448 343.86 152.4 344.028H152.456C152.623 344.028 152.847 344.197 153.015 344.421C153.351 344.814 153.687 345.432 153.855 345.825C153.911 345.881 153.911 345.993 153.911 346.049C154.191 346.33 154.191 346.611 154.023 346.891Z" fill="#FA6850"/>
<path d="M38.3429 361.432V362.386C38.3988 362.835 38.0631 363.172 37.6713 363.116L33.0821 362.498C32.1307 362.386 31.2353 362.218 30.2839 361.937C29.5563 361.768 28.9407 361.544 28.2691 361.375C25.8066 360.533 23.8479 359.411 22.001 357.165C20.4899 355.368 19.3706 353.235 18.699 350.989L17.6917 347.677C17.6917 347.621 17.6357 347.509 17.5797 347.453C17.5238 347.228 17.5238 347.06 17.6357 346.835C17.6357 346.779 17.6917 346.723 17.6917 346.667C17.8596 346.274 18.1953 344.646 18.5311 344.253C18.755 343.972 18.9229 343.803 19.0908 343.86H19.1468C20.1541 343.691 21.1055 344.14 21.6652 344.982C23.1763 347.172 26.3103 351.382 29.5563 353.235C30.116 353.572 30.7316 353.853 31.2912 354.189C33.25 355.2 35.0409 356.042 36.3281 356.66H36.3841C36.552 356.716 36.6639 356.828 36.8318 356.884C37.7832 357.502 38.3988 358.625 38.3429 359.804V361.432Z" fill="#FA6850"/>
<path d="M26.5899 84.0982C26.6458 84.7158 26.1981 85.2772 25.5265 85.3895L22.7842 85.6702L20.6016 85.8947L20.6575 83.986V83.7053L20.8254 79.3824L24.6311 78.9895L24.9109 78.9333C25.5265 78.8772 26.0862 79.3263 26.1981 80L26.366 81.6842L26.5899 84.0982Z" fill="currentColor"/>
<path opacity="0.12" d="M26.5899 84.0982C26.6458 84.7158 26.1981 85.2772 25.5265 85.3895L22.7842 85.6702L20.6016 85.8947L20.6575 83.986C22.2805 83.4807 24.6311 83.6491 25.1348 82.8631C25.5825 82.0772 25.0788 79.7754 24.687 78.9895L24.9669 78.9333C25.5825 78.8772 26.1421 79.3263 26.2541 80L26.422 81.6842L26.5899 84.0982Z" fill="#00384B"/>
<path d="M21.0494 82.9755C21.1613 83.3123 20.9934 85.4456 20.8255 87.7474C20.5457 90.9474 20.2099 94.6526 20.1539 94.8211C19.8181 95.8877 19.0906 96.786 18.1392 97.3474C18.1392 97.3474 10.5279 99.986 5.60292 101.277C5.04327 101.446 4.42765 101.389 3.92396 101.165C3.25237 100.884 2.74869 100.379 2.46886 99.6491L0.286208 94.7649C0.230243 94.6526 0.230243 94.5404 0.174278 94.4281C-0.21748 93.0807 0.0623469 91.6211 0.901828 90.5544C1.51745 89.7684 2.18903 89.0386 2.69272 88.7579L7.33785 86.4L20.8255 79.4948C21.5531 80.5614 20.7136 81.6842 21.0494 82.9755Z" fill="currentColor"/>
<path opacity="0.12" d="M20.826 87.7473C20.5462 90.9473 20.2104 94.6526 20.1544 94.821C19.8186 95.8877 19.0911 96.7859 18.1397 97.3473C18.1397 97.3473 10.5284 99.9859 5.60345 101.277C5.04379 101.446 4.42817 101.389 3.92448 101.165C3.2529 100.884 2.74921 100.379 2.46938 99.6491L0.286735 94.7649C0.23077 94.6526 0.23077 94.5403 0.174805 94.428C1.46201 94.4841 3.30887 95.1017 4.03642 96.2245C6.331 99.8736 8.56961 97.7403 13.8863 96.5613C19.1471 95.3263 20.826 87.7473 20.826 87.7473Z" fill="#00384B"/>
<path d="M144.901 84.0982C144.845 84.7158 145.293 85.2772 145.965 85.3895L148.707 85.6702L150.89 85.8947L150.834 83.986V83.7053L150.666 79.3824L146.86 78.9895L146.58 78.9333C145.965 78.8772 145.405 79.3263 145.293 80L145.125 81.6842L144.901 84.0982Z" fill="currentColor"/>
<path opacity="0.12" d="M144.901 84.0982C144.845 84.7158 145.293 85.2772 145.965 85.3895L148.707 85.6702L150.89 85.8947L150.834 83.986C149.211 83.4807 146.86 83.6491 146.356 82.8631C145.909 82.0772 146.412 79.7754 146.804 78.9895L146.524 78.9333C145.909 78.8772 145.349 79.3263 145.237 80L145.069 81.6842L144.901 84.0982Z" fill="#00384B"/>
<path d="M150.386 82.9755C150.274 83.3123 150.442 85.4456 150.61 87.7474C150.89 90.9474 151.225 94.6526 151.281 94.8211C151.617 95.8877 152.345 96.786 153.296 97.3474C153.296 97.3474 160.907 99.986 165.832 101.277C166.392 101.446 167.008 101.389 167.511 101.165C168.183 100.884 168.687 100.379 168.966 99.6491L171.149 94.7649C171.205 94.6526 171.205 94.5404 171.261 94.4281C171.653 93.0807 171.373 91.6211 170.533 90.5544C169.918 89.7684 169.246 89.0386 168.742 88.7579L164.097 86.4L150.61 79.4948C149.882 80.5614 150.722 81.6842 150.386 82.9755Z" fill="currentColor"/>
<path opacity="0.12" d="M150.609 87.7473C150.889 90.9473 151.225 94.6526 151.281 94.821C151.617 95.8877 152.344 96.7859 153.296 97.3473C153.296 97.3473 160.907 99.9859 165.832 101.277C166.392 101.446 167.007 101.389 167.511 101.165C168.182 100.884 168.686 100.379 168.966 99.6491L171.149 94.7649C171.205 94.6526 171.205 94.5403 171.261 94.428C169.973 94.4841 168.127 95.1017 167.399 96.2245C165.104 99.8736 162.866 97.7403 157.549 96.5613C152.344 95.3263 150.609 87.7473 150.609 87.7473Z" fill="#00384B"/>
<path opacity="0.7" d="M117.086 14.7088V16.2246C117.086 16.393 117.142 16.5615 117.254 16.7299C118.037 17.5158 118.373 18.5825 118.541 19.4246C118.653 19.986 118.709 20.4351 118.709 20.6597C118.821 21.6141 119.436 22.4001 120.276 22.8492C122.123 23.7474 125.481 25.3755 128.167 27.0036C133.036 29.979 135.89 33.6281 137.569 35.986C137.793 36.3229 138.017 36.5474 138.185 36.6597C139.584 37.6702 139.192 32.5615 139.192 32.4492C138.968 30.8211 138.689 29.3615 138.353 28.0141C138.353 27.9579 138.297 27.8457 138.297 27.7895C137.793 26.1053 137.177 24.6457 136.394 23.4106C135.834 22.5123 135.219 21.6702 134.491 20.9404C134.323 20.772 134.211 20.6597 134.043 20.4913C133.484 19.9299 132.812 19.4246 132.141 18.9755C131.301 18.4141 130.406 17.9088 129.398 17.5158C129.23 17.4597 129.007 17.3474 128.839 17.2913C123.578 15.158 119.381 14.0913 117.758 13.979C117.422 13.979 117.086 14.3158 117.086 14.7088Z" fill="white"/>
<path d="M117.086 14.7088V16.2245C117.086 16.393 117.142 16.5614 117.254 16.7298C118.037 17.5158 118.373 18.5824 118.541 19.4245C118.821 19.3684 122.123 19.2 127.719 22.2877C133.372 25.3193 135.331 30.2035 137.122 29.6421C137.905 29.4175 138.185 28.6316 138.241 27.8456C136.618 22.2316 133.372 19.1438 128.839 17.3474C123.578 15.214 119.381 14.1474 117.758 14.0351C117.422 13.9789 117.086 14.3158 117.086 14.7088Z" fill="white"/>
<path d="M24.6875 42.386C24.6875 42.386 26.5903 20.2667 47.1296 10.4982C63.1357 2.91928 42.4285 8.87016 42.4285 8.87016C42.4285 8.87016 34.2016 14.0912 33.4741 14.4842C32.8025 14.8772 29.7244 19.7614 28.1014 22.2316C26.4784 24.7017 24.6875 42.386 24.6875 42.386Z" fill="currentColor"/>
<path d="M146.971 42.386C146.971 42.386 145.068 20.2667 124.529 10.4982C108.523 2.91928 129.23 8.87016 129.23 8.87016C129.23 8.87016 137.457 14.0912 138.184 14.4842C138.856 14.8772 141.934 19.7614 143.557 22.2316C145.18 24.7017 146.971 42.386 146.971 42.386Z" fill="currentColor"/>
</svg>
