<?xml version="1.0" encoding="UTF-8" standalone="no"?>
<svg
   xmlns:dc="http://purl.org/dc/elements/1.1/"
   xmlns:cc="http://creativecommons.org/ns#"
   xmlns:rdf="http://www.w3.org/1999/02/22-rdf-syntax-ns#"
   xmlns:svg="http://www.w3.org/2000/svg"
   xmlns="http://www.w3.org/2000/svg"
   xmlns:sodipodi="http://sodipodi.sourceforge.net/DTD/sodipodi-0.dtd"
   xmlns:inkscape="http://www.inkscape.org/namespaces/inkscape"
   width="252.12"
   height="76.892998"
   viewBox="0 0 252.11999 76.892998"
   fill="none"
   version="1.1"
   id="svg4"
   sodipodi:docname="BusTrailerSketch.svg"
   inkscape:version="1.0.2-2 (e86c870879, 2021-01-15)">
  <metadata
     id="metadata10">
    <rdf:RDF>
      <cc:Work
         rdf:about="">
        <dc:format>image/svg+xml</dc:format>
        <dc:type
           rdf:resource="http://purl.org/dc/dcmitype/StillImage" />
        <dc:title></dc:title>
      </cc:Work>
    </rdf:RDF>
  </metadata>
  <defs
     id="defs8" />
  <sodipodi:namedview
     pagecolor="#ffffff"
     bordercolor="#666666"
     borderopacity="1"
     objecttolerance="10"
     gridtolerance="10"
     guidetolerance="10"
     inkscape:pageopacity="0"
     inkscape:pageshadow="2"
     inkscape:window-width="1920"
     inkscape:window-height="1017"
     id="namedview6"
     showgrid="false"
     inkscape:zoom="5.4147817"
     inkscape:cx="260.27212"
     inkscape:cy="82.959762"
     inkscape:window-x="-8"
     inkscape:window-y="-8"
     inkscape:window-maximized="1"
     inkscape:current-layer="svg4"
     showguides="false" />
  <g
     style="fill:none"
     id="g106"
     transform="rotate(90,125.92875,126.1577)">
    <path
       d="M 76.1894,31.4787 C 73.9644,29.8566 70.02,29.5525 70.02,29.5525 c 0,0 -2.1239,-1.977 -2.1239,-14.1426 0,-12.72331 -12.9962,-14.446784 -12.9962,-14.446784 0,0 -6.2705,-0.811045 -15.9798,-0.963116 h -0.2022 c -9.6587,0 -16.7383,0.709665 -16.7383,0.709665 0,0 -12.54112,1.013805 -13.04681,13.179535 C 8.47767,25.6493 7.1123,29.1469 7.1123,29.1469 c 0,0 -3.94438,0.2535 -6.169407,1.8249 -1.466498,1.0645 -0.556261,3.9538 -0.556261,3.9538 L 7.01116,35.3312 7.21343,146.242 c 0,0 0.05058,11.506 3.69157,14.244 2.579,1.926 15.9797,2.686 25.1327,2.838 v 14.599 l -24.4248,0.051 c -1.2136,0 -2.17442,0.963 -2.17442,2.179 l 0.05055,31.074 H 6.65719 4.43214 c -1.56763,0 -2.88241,1.064 -2.88241,2.382 v 15.511 2.839 c 0,0.912 0.60682,1.723 1.51706,2.129 0.40455,0.203 0.85966,0.304 1.36535,0.304 h 5.10747 v 12.521 c 0,1.216 0.96079,2.179 2.17449,2.179 h 0.7079 v 1.217 c 0,0.456 0.354,0.811 0.8091,0.811 h 50.9735 c 0.4551,0 0.9102,-0.355 0.9102,-0.862 v -1.216 h 0.354 c 1.2137,0 2.1745,-0.964 2.1745,-2.18 v -12.521 h 5.0569 c 1.5676,0 2.8824,-1.064 2.8824,-2.382 v -18.401 c 0,-1.318 -1.2642,-2.382 -2.8824,-2.382 h -5.0569 l -0.0506,-31.073 c 0,-1.217 -0.9608,-2.18 -2.1744,-2.18 l -24.4248,0.051 v -14.548 c 8.9506,-0.051 23.4639,-0.558 26.1441,-2.636 3.6409,-2.788 3.4892,-14.295 3.4892,-14.295 L 70.02,35.686 76.6445,35.3819 c 0.0506,0.0506 1.0114,-2.8387 -0.4551,-3.9032 z M 52.0175,9.07357 c 0.4551,-2.02761 3.0847,-3.19349 5.9165,-2.53452 2.8319,0.60829 4.703,2.78797 4.2478,4.76485 -0.4551,2.0277 -3.0847,3.1935 -5.8659,2.5346 -2.7813,-0.6083 -4.703,-2.788 -4.2984,-4.76493 z M 19.0466,6.18422 c 2.8318,-0.60828 5.4614,0.5069 5.8659,2.58521 0.4046,2.02757 -1.517,4.15657 -4.2983,4.76487 -2.7813,0.6083 -5.4109,-0.5576 -5.866,-2.5852 -0.4551,-2.0276 1.4665,-4.20729 4.2984,-4.76488 z M 12.776,26.6631 c 1.0114,-1.7235 11.378,-3.7511 11.378,-3.7511 0,0 6.928,-0.8617 14.2604,-0.8617 h 0.354 c 7.3325,0.0507 14.2605,1.0138 14.2605,1.0138 0,0 10.3666,2.1797 11.3274,3.8525 0.9608,1.7234 -6.1694,15.2578 -6.1694,15.2578 L 38.6673,41.9716 H 38.1616 L 18.642,41.9209 c 0.1012,0.1014 -6.8774,-13.585 -5.866,-15.2578 z M 10.551,144.62 10.6016,35.7874 c 0,0 6.1694,9.5804 7.9898,17.7416 1.8205,8.1611 0.3034,71.727 -0.8596,78.266 -1.1631,6.539 -7.1808,12.825 -7.1808,12.825 z m 51.378,9.479 c -3.6915,0.05 -14.1087,0.507 -22.8572,0.507 -0.1011,0 -0.2528,0 -0.3539,0 h -0.354 c -0.1011,0 -0.2529,0 -0.354,0 -8.7484,0 -19.2162,-0.457 -22.8571,-0.507 -0.708,0 -1.2137,-0.761 -1.0114,-1.47 0.4551,-1.521 1.0619,-4.461 1.4665,-5.069 0.2022,-0.305 0.5057,-0.507 0.8596,-0.507 2.3768,-0.102 12.2883,-0.507 21.593,-0.507 0.1011,0 0.2528,0 0.3539,0 h 0.354 c 0.1012,0 0.2529,0 0.354,0 9.2541,0 19.2162,0.405 21.5929,0.507 0.354,0 0.6574,0.202 0.8597,0.507 0.354,0.608 0.9608,3.497 1.4665,5.069 0.1011,0.709 -0.4045,1.47 -1.1125,1.47 z m -1.9216,-22 c -1.2137,-6.488 -2.7813,-70.054 -1.0114,-78.2152 1.7699,-8.1611 7.8887,-17.843 7.8887,-17.843 l 0.4046,108.8322 c -0.0506,0 -6.0683,-6.286 -7.2819,-12.774 z"
       fill="currentColor"
       id="path95" />
  </g>
</svg>
