<svg width="22" height="23" viewBox="0 0 22 23" fill="none" xmlns="http://www.w3.org/2000/svg">
<path d="M4.0751 2.40371C4.0751 2.06085 4.05551 1.79636 4.0751 1.54167C4.11429 1.17922 4.3298 0.944119 4.66286 0.836364C4.96653 0.738405 5.2702 0.787385 5.47592 1.03228C5.61306 1.19881 5.68163 1.42412 5.72082 1.63963C5.76 1.85514 5.73061 2.09024 5.73061 2.29596C6.11265 2.41351 14.8212 2.45269 15.4678 2.33514C15.4678 2.12943 15.458 1.90412 15.4678 1.67881C15.4873 1.12045 15.8008 0.787385 16.3004 0.797181C16.7804 0.806977 17.1233 1.15963 17.1429 1.68861C17.1527 1.89432 17.1429 2.10983 17.1429 2.38412C17.4955 2.39392 17.7992 2.39392 18.1029 2.40371C18.7494 2.40371 19.3665 2.53106 19.9053 2.92289C20.7478 3.53024 21.1886 4.3433 21.1886 5.38167C21.1984 10.1817 21.169 14.9817 21.1984 19.7817C21.2082 21.2511 19.9935 22.7988 18.1812 22.789C13.1167 22.7596 8.06204 22.7694 2.99755 22.789C1.31265 22.789 0 21.4078 0 19.7719C0.00979592 14.9915 0 10.2013 0.00979592 5.42085C0.00979592 3.70657 1.24408 2.46249 2.95837 2.40371C3.29143 2.39392 3.63429 2.40371 4.0751 2.40371ZM17.1429 4.05922C17.1429 4.36289 17.1527 4.5882 17.1429 4.80371C17.1233 5.33269 16.7706 5.70494 16.3102 5.71473C15.8302 5.71473 15.4971 5.36208 15.4775 4.8233C15.4678 4.5882 15.458 4.3531 15.4482 4.1082C12.1959 4.1082 9.00245 4.1082 5.7502 4.1082C5.7502 4.41187 5.7698 4.68616 5.7502 4.95065C5.72082 5.32289 5.48571 5.58738 5.13306 5.68534C4.81959 5.77351 4.40816 5.62657 4.24163 5.32289C4.14367 5.14657 4.11429 4.92126 4.0849 4.71555C4.05551 4.50983 4.05551 4.30412 4.04571 4.08861C3.6049 4.08861 3.21306 4.05922 2.82122 4.0984C2.28245 4.15718 1.9298 4.48045 1.76327 4.99963C1.70449 5.17596 1.71429 5.38167 1.71429 5.57759C1.71429 10.2013 1.73388 14.8151 1.69469 19.4388C1.6849 20.6241 2.31184 21.1139 3.34041 21.1041C7.55265 21.0649 11.7649 21.0845 15.9771 21.0845C16.7314 21.0845 17.4759 21.0943 18.2302 21.0845C18.8669 21.0747 19.3273 20.7417 19.4841 20.1833C19.5331 19.9874 19.5331 19.7621 19.5331 19.5564C19.5331 15.5596 19.5331 11.5531 19.5331 7.55636C19.5331 6.82167 19.5429 6.08698 19.5331 5.35228C19.5233 4.74494 19.151 4.25514 18.5829 4.14738C18.1127 4.06902 17.6522 4.08861 17.1429 4.05922Z" fill="currentColor"/>
<path d="M10.3939 14.2467C9.80617 14.2467 9.34576 13.7667 9.36535 13.1789C9.38494 12.6108 9.84535 12.1601 10.4037 12.1601C10.9719 12.1601 11.4617 12.6695 11.4421 13.2377C11.4225 13.7863 10.9523 14.2467 10.3939 14.2467Z" fill="currentColor"/>
<path d="M4.88833 17.2537C4.89813 16.6757 5.39772 16.1957 5.96589 16.2153C6.50466 16.2349 6.97486 16.7345 6.97486 17.283C6.96507 17.861 6.46548 18.341 5.89731 18.3214C5.34874 18.292 4.87854 17.8022 4.88833 17.2537Z" fill="currentColor"/>
<path d="M15.9084 17.2936C15.8986 17.8618 15.4284 18.3222 14.87 18.3124C14.292 18.3124 13.812 17.8128 13.8316 17.2446C13.8414 16.6667 14.3508 16.1965 14.919 16.2259C15.4773 16.2455 15.9182 16.7353 15.9084 17.2936Z" fill="currentColor"/>
<path d="M4.8981 9.16251C4.8883 8.58455 5.35851 8.09476 5.93647 8.09476C6.49483 8.09476 6.96504 8.55517 6.97483 9.11353C6.98463 9.69149 6.51443 10.1813 5.92667 10.1715C5.35851 10.1715 4.8981 9.73068 4.8981 9.16251Z" fill="currentColor"/>
<path d="M10.4037 10.1812C9.81595 10.1812 9.34575 9.70123 9.36534 9.11347C9.37513 8.5649 9.86493 8.0849 10.4037 8.0849C10.9523 8.0849 11.4617 8.60408 11.4519 9.16245C11.4323 9.71102 10.9523 10.1812 10.4037 10.1812Z" fill="currentColor"/>
<path d="M14.8603 10.1814C14.2823 10.1814 13.8121 9.70144 13.8219 9.11368C13.8317 8.56511 14.3215 8.08511 14.8701 8.0949C15.448 8.1047 15.9183 8.5945 15.9085 9.17246C15.8889 9.73082 15.4285 10.1814 14.8603 10.1814Z" fill="currentColor"/>
<path d="M10.4031 18.3119C9.82518 18.3119 9.35498 17.8319 9.35498 17.2442C9.35498 16.6858 9.82518 16.2156 10.3836 16.2058C10.9419 16.2058 11.4513 16.7054 11.4415 17.2736C11.4317 17.8319 10.9517 18.3119 10.4031 18.3119Z" fill="currentColor"/>
<path d="M5.93647 12.1601C6.48504 12.1601 6.96504 12.6303 6.97484 13.1789C6.98463 13.7569 6.50463 14.2369 5.92667 14.2369C5.35851 14.2369 4.8981 13.7765 4.8981 13.2181C4.88831 12.6401 5.34871 12.1699 5.93647 12.1601Z" fill="currentColor"/>
<path d="M15.9088 13.2084C15.899 13.7962 15.4288 14.2566 14.841 14.237C14.2826 14.2174 13.832 13.7472 13.832 13.1889C13.832 12.6305 14.2924 12.1603 14.8508 12.1603C15.4288 12.1505 15.9088 12.6403 15.9088 13.2084Z" fill="currentColor"/>
</svg>
