<svg width="66" height="66" viewBox="0 0 66 66" fill="none" xmlns="http://www.w3.org/2000/svg">
<circle cx="33" cy="33" r="33" fill="#61BBD6"/>
<path d="M35.3928 38.4465C33.0984 35.3939 31.1587 32.1743 29.5975 29.2409C28.9589 28.0485 29.3373 26.5461 30.4727 25.7829L32.2468 24.5905C33.2166 23.9227 33.5005 22.5872 32.8382 21.6094L29.7631 16.9589C29.1008 15.9811 27.7761 15.695 26.8063 16.3627L22.2174 19.4392C20.2068 20.7747 19.4498 23.3742 20.4197 25.5921C22.8087 31.125 27.8708 41.356 35.4165 48.606C37.0959 50.2277 39.6743 50.4662 41.6139 49.1545L45.6115 46.4834C47.0307 45.5295 47.4329 43.5739 46.4867 42.143L44.4997 39.1142C43.5536 37.6833 41.6139 37.2779 40.1947 38.2318L39.0119 39.0427C37.7819 39.8297 36.2207 39.5674 35.3928 38.4465Z" fill="white"/>
</svg>
