<svg width="130" height="130" viewBox="0 0 130 130" fill="none" xmlns="http://www.w3.org/2000/svg">
    <rect width="130" height="130" rx="10" fill="white"/>
    <g clip-path="url(#clip0)">
        <path d="M93.9851 94.0508H36.0217C32.0491 94.0508 28.8018 90.7902 28.8018 86.8094V50.0255C28.8018 46.0411 32.0527 42.7841 36.0217 42.7841H45.7531C46.8177 42.7841 47.8002 42.2036 48.3182 41.2684L53.0267 32.7622C53.534 31.8485 54.4843 31.2716 55.5239 31.2466L75.3725 30.7808C76.505 30.7557 77.5553 31.3863 78.0626 32.4039L82.446 41.1609C82.9426 42.157 83.9572 42.7841 85.0682 42.7841H93.9851C97.9577 42.7841 101.205 46.0447 101.205 50.0255V86.8094C101.209 90.7938 97.9577 94.0508 93.9851 94.0508Z" fill="#E2EBED"/>
        <path opacity="0.15" d="M57.8831 31.193L56.4148 35.9836C55.9397 37.7214 57.2436 39.4377 59.0406 39.4377H80.0967L83.2584 42.7843H85.927H60.6625L50.263 41.0107C50.263 41.0107 48.8947 37.5136 51.0847 34.3676C53.2746 31.2217 54.4678 29.1542 57.8831 31.193Z" fill="#6D6D6D"/>
        <path d="M102.895 56.9124H28.8018V83.0903H102.895V56.9124Z" fill="#FCB540"/>
        <path d="M89.8892 56.9124C91.4676 56.9124 92.7472 55.629 92.7472 54.0459C92.7472 52.4628 91.4676 51.1794 89.8892 51.1794C88.3108 51.1794 87.0312 52.4628 87.0312 54.0459C87.0312 55.629 88.3108 56.9124 89.8892 56.9124Z" fill="black"/>
        <path d="M65.4987 85.1505C56.5639 85.1505 49.2939 77.8589 49.2939 68.8976C49.2939 59.9363 56.5639 52.6448 65.4987 52.6448C74.4334 52.6448 81.7034 59.9363 81.7034 68.8976C81.7034 77.8589 74.4334 85.1505 65.4987 85.1505ZM65.4987 56.5862C58.7288 56.5862 53.2237 62.1113 53.2237 68.8976C53.2237 75.684 58.7324 81.2091 65.4987 81.2091C72.2649 81.2091 77.7737 75.684 77.7737 68.8976C77.7737 62.1113 72.2649 56.5862 65.4987 56.5862Z" fill="black"/>
        <path d="M65.4207 88.2068C76.1934 88.2068 84.9264 79.4479 84.9264 68.6432C84.9264 57.8385 76.1934 49.0796 65.4207 49.0796C54.648 49.0796 45.915 57.8385 45.915 68.6432C45.915 79.4479 54.648 88.2068 65.4207 88.2068Z" fill="#E2EBED"/>
        <path d="M65.4986 81.209C58.7288 81.209 53.2236 75.6839 53.2236 68.8976C53.2236 62.1076 58.7288 56.5825 65.4986 56.5825C72.2685 56.5825 77.7737 62.1076 77.7737 68.8976C77.7737 75.6839 72.2685 81.209 65.4986 81.209Z" fill="black"/>
        <path d="M78.678 68.8976C78.678 76.182 72.7691 82.1156 65.4992 82.1156C65.3277 82.1156 65.1526 82.112 64.9812 82.1048C58.6865 81.8612 53.5135 77.1709 52.5061 71.0833V71.0797C52.3846 70.3667 52.3203 69.6465 52.3203 68.8976C52.3203 62.0037 57.604 56.321 64.3274 55.7298C64.7096 55.6939 65.1026 55.676 65.4956 55.676C71.4152 55.676 76.4345 59.6102 78.0921 65.0099C78.4744 66.2389 78.678 67.5468 78.678 68.8976Z" fill="#546268"/>
        <path d="M78.0938 65.0099C76.5612 66.7262 74.3356 67.8047 71.8599 67.8047C67.2371 67.8047 63.4824 64.0353 63.4824 59.4024C63.4824 58.0874 63.7861 56.8405 64.3255 55.7298C64.7078 55.6939 65.1008 55.676 65.4937 55.676C71.4169 55.676 76.4398 59.6102 78.0938 65.0099Z" fill="#6F7B80"/>
        <path d="M66.4668 77.3322C66.4668 79.1022 65.9166 80.7433 64.977 82.1013C58.6823 81.8576 53.5094 77.1674 52.502 71.0797V71.0761C53.981 69.736 55.9422 68.9263 58.0893 68.9263C62.7085 68.9299 66.4668 72.6993 66.4668 77.3322Z" fill="#6F7B80"/>
        <path d="M71.4695 68.8977C71.4695 72.1977 68.7901 74.885 65.4999 74.885C62.2096 74.885 59.5303 72.1977 59.5303 68.8977C59.5303 65.594 62.2096 62.9067 65.4999 62.9067C68.7901 62.9067 71.4695 65.594 71.4695 68.8977Z" fill="#435155"/>
        <path d="M67.9937 38.7209H62.5314C61.9491 38.7209 61.4775 38.2479 61.4775 37.6639V35.4244C61.4775 34.8404 61.9491 34.3674 62.5314 34.3674H67.9937C68.576 34.3674 69.0476 34.8404 69.0476 35.4244V37.6639C69.0476 38.2443 68.576 38.7209 67.9937 38.7209Z" fill="#615962"/>
        <path opacity="0.15" d="M41.2563 43.2786C41.2563 43.2786 35.7833 43.963 35.7833 49.7962V82.9361C35.7833 85.842 38.1304 88.1961 41.0277 88.1961H100.27C100.27 88.1961 100.942 96.3368 87.9271 95.6059C74.9126 94.8749 36.6824 94.8749 36.6824 94.8749C36.6824 94.8749 27.3023 94.144 27.9382 80.1449C28.5741 66.1458 29.8881 46.6467 29.8881 46.6467C29.8881 46.6467 31.6785 42.9131 41.2563 43.2786Z" fill="#6D6D6D"/>
        <path d="M65.4995 84.5235C56.9077 84.5235 49.9199 77.515 49.9199 68.8977C49.9199 60.2804 56.9077 53.2683 65.4995 53.2683C74.0913 53.2683 81.079 60.2804 81.079 68.8977C81.079 77.515 74.0913 84.5235 65.4995 84.5235ZM65.4995 55.9556C58.3867 55.9556 52.5993 61.7602 52.5993 68.8977C52.5993 76.0316 58.3867 81.8362 65.4995 81.8362C72.6123 81.8362 78.3997 76.0316 78.3997 68.8977C78.3997 61.7602 72.6123 55.9556 65.4995 55.9556Z" fill="black"/>
        <path d="M36.5697 96C31.4468 96 27.2812 91.8221 27.2812 86.684V50.6633C27.2812 45.5252 31.4468 41.3473 36.5697 41.3473H46.0796C47.2156 41.3473 48.2088 40.5769 48.4982 39.4769L49.9164 34.0271C50.6881 31.0674 53.3567 29 56.404 29H74.47C77.6067 29 80.2896 31.1391 80.9969 34.2026L82.2009 39.4053C82.4652 40.5483 83.4655 41.3473 84.6373 41.3473H94.4294C99.5524 41.3473 103.718 45.5252 103.718 50.6633V86.684C103.718 91.8221 99.5524 96 94.4294 96H36.5697ZM36.5697 44.2138C33.0258 44.2138 30.1392 47.1089 30.1392 50.6633V86.684C30.1392 90.2384 33.0258 93.1335 36.5697 93.1335H94.4294C97.9733 93.1335 100.86 90.2384 100.86 86.684V50.6633C100.86 47.1089 97.9733 44.2138 94.4294 44.2138H84.6373C82.1294 44.2138 79.9859 42.5046 79.4215 40.0574L78.214 34.8512C77.8103 33.0955 76.2706 31.8665 74.47 31.8665H56.404C54.6571 31.8665 53.1281 33.0525 52.6851 34.7473L51.2668 40.1971C51.249 40.2652 51.2311 40.3261 51.2132 40.387L50.9382 41.3115L51.8741 41.3473H69.8973C70.6868 41.3473 71.3263 41.9887 71.3263 42.7805C71.3263 43.5724 70.6868 44.2138 69.8973 44.2138H36.5697Z" fill="black"/>
    </g>
    <defs>
        <clipPath id="clip0">
            <rect width="76.4366" height="67" fill="white" transform="translate(27.2812 29)"/>
        </clipPath>
    </defs>
</svg>
