<svg width="30" height="24" viewBox="0 0 30 24" fill="none" xmlns="http://www.w3.org/2000/svg">
<path d="M14.9995 24C10.7974 24 6.59529 24 2.44635 24C0.744224 24 0.0527344 23.2599 0.0527344 21.5683C0.0527344 16.4405 0.0527344 11.3128 0.0527344 6.23789C0.0527344 4.65198 0.797415 3.85903 2.39316 3.85903C3.93571 3.85903 5.47827 3.85903 7.02082 3.85903C7.39316 3.85903 7.60593 3.7533 7.7655 3.43612C8.24422 2.48458 8.82933 1.5859 9.30805 0.634361C9.52082 0.211454 9.89316 0 10.4783 0C13.5102 0 16.5421 0 19.6272 0C20.1591 0 20.5315 0.211454 20.7442 0.687225C21.2229 1.5859 21.7549 2.48458 22.2336 3.43612C22.3932 3.80617 22.6591 3.91189 23.0315 3.91189C24.574 3.91189 26.0634 3.91189 27.6059 3.91189C29.2017 3.91189 29.9995 4.70485 29.9995 6.29075C29.9995 11.4185 29.9995 16.5463 29.9995 21.674C29.9995 23.3128 29.2549 24.0529 27.6059 24.0529C23.4038 24 19.2017 24 14.9995 24ZM15.0527 20.1938C19.3081 20.0881 22.4464 16.7577 22.34 12.5286C22.2336 8.6696 18.7761 5.44493 14.8932 5.55066C10.691 5.60352 7.49954 8.98678 7.60593 13.2159C7.71231 17.0749 11.1698 20.2996 15.0527 20.1938Z" fill="white"/>
<path d="M14.9993 9.19666C17.0206 9.19666 18.6695 10.8354 18.6695 12.8442C18.6695 14.853 17.0206 16.4918 14.9993 16.5447C12.9248 16.5447 11.2759 14.853 11.2759 12.8442C11.3291 10.8354 12.978 9.19666 14.9993 9.19666Z" fill="white"/>
</svg>
