<svg width="38" height="38" viewBox="0 0 38 38" fill="none" xmlns="http://www.w3.org/2000/svg">
<circle cx="19" cy="19" r="18.5" fill="#794C75" stroke="#794C75"/>
<path d="M14.0573 11.783C14.1766 11.4352 14.276 11.1171 14.3853 10.809C14.7928 9.66594 15.7072 9 16.9099 9C18.2815 9 19.6532 9 21.0348 9C22.317 9.00994 23.1916 9.64606 23.6091 10.8587C23.7085 11.1569 23.8079 11.4451 23.9271 11.783C24.9111 11.783 25.8852 11.7731 26.8593 11.783C28.1415 11.793 29.1056 12.5782 29.3839 13.8206C29.4336 14.0293 29.4435 14.248 29.4435 14.4567C29.4435 17.7864 29.4535 21.1162 29.4435 24.4359C29.4435 26.0163 28.3701 27.0997 26.7897 27.0997C21.5914 27.0997 16.3931 27.0997 11.1947 27.0997C9.62431 27.0997 8.55085 26.0064 8.55085 24.4359C8.55085 21.1261 8.55085 17.8163 8.55085 14.5064C8.54091 12.8366 9.59449 11.793 11.2842 11.783C12.1887 11.783 13.1031 11.783 14.0573 11.783ZM18.9773 25.6982C21.5119 25.6982 24.0464 25.7082 26.581 25.6982C27.6047 25.6982 28.0222 25.2808 28.0222 24.2471C28.0222 21.0168 28.0222 17.7864 28.0222 14.5561C28.0222 13.6318 27.5749 13.1944 26.6406 13.1944C25.6268 13.1944 24.6229 13.1944 23.6091 13.1944C23.0028 13.1944 22.8338 13.0652 22.645 12.4788C22.5058 12.0713 22.3766 11.6638 22.2275 11.2562C22.0088 10.6599 21.6609 10.4114 21.0248 10.4114C19.6631 10.4015 18.3114 10.4015 16.9497 10.4114C16.3036 10.4114 15.9458 10.6897 15.7271 11.296C15.5979 11.6737 15.4687 12.0415 15.3395 12.4192C15.1208 13.0851 14.9817 13.1845 14.266 13.1845C13.292 13.1845 12.308 13.1845 11.3339 13.1845C10.3996 13.1845 9.95231 13.6218 9.95231 14.5363C9.95231 17.7964 9.95231 21.0565 9.95231 24.3167C9.95231 25.241 10.3896 25.6784 11.3339 25.6784C13.8784 25.6982 16.4328 25.6982 18.9773 25.6982Z" fill="#FEF1FB"/>
<path d="M18.9664 13.8702C21.829 13.8504 24.1946 16.1861 24.2145 19.0586C24.2443 21.9311 21.9185 24.3066 19.046 24.3265C16.1536 24.3464 13.7582 22.0305 13.7383 19.1878C13.7284 16.2458 16.0343 13.9001 18.9664 13.8702ZM15.1795 19.0984C15.1795 21.2155 16.899 22.9251 19.0062 22.9151C21.0835 22.9052 22.7931 21.1857 22.7832 19.0984C22.7832 16.9813 21.0637 15.2717 18.9565 15.2816C16.8891 15.2916 15.1795 17.021 15.1795 19.0984Z" fill="#FEF1FB"/>
<path d="M25.9442 14.5762C26.3219 14.5762 26.64 14.8843 26.64 15.262C26.6499 15.6397 26.3318 15.9677 25.9641 15.9776C25.5665 15.9876 25.2286 15.6596 25.2385 15.262C25.2584 14.8843 25.5665 14.5762 25.9442 14.5762Z" fill="#FEF1FB"/>
</svg>
