<svg width="99" height="86" viewBox="0 0 99 86" fill="none" xmlns="http://www.w3.org/2000/svg">
    <path d="M79.8201 35.978C81.8095 35.978 83.4223 34.3652 83.4223 32.3757C83.4223 30.3862 81.8095 28.7734 79.8201 28.7734C77.8306 28.7734 76.2178 30.3862 76.2178 32.3757C76.2178 34.3652 77.8306 35.978 79.8201 35.978Z" fill="currentColor"/>
    <path fill-rule="evenodd" clip-rule="evenodd" d="M33.7866 8.35367C33.7864 8.35435 33.7862 8.35504 33.7861 8.35573L32.0002 15.1979C32 15.1984 31.9999 15.199 31.9998 15.1995C31.1215 18.5702 28.0734 20.9203 24.5946 20.9203H12.608C8.65165 20.9203 5.40342 24.1685 5.40342 28.1248V73.392C5.40342 77.3483 8.65165 80.5966 12.608 80.5966H85.5362C89.4925 80.5966 92.7408 77.3483 92.7408 73.392V28.1248C92.7408 24.1697 89.4937 20.9202 85.5362 20.9158C85.5361 20.9158 85.5364 20.9158 85.5362 20.9158C85.5356 20.9158 85.5346 20.9158 85.534 20.9158L73.1984 20.9158C69.6359 20.9158 66.5471 18.4597 65.7401 14.995L64.2219 8.45377C63.8082 6.6683 62.2173 5.40342 60.3788 5.40342H37.6078C35.817 5.40342 34.2457 6.61249 33.7866 8.35367ZM28.5604 6.98099C29.6421 2.86956 33.3565 0 37.6078 0H60.3788C64.7268 0 68.5031 2.99434 69.4856 7.23316C69.4857 7.23349 69.4858 7.23383 69.4859 7.23417L71.0026 13.7692C71.0027 13.7698 71.0029 13.7703 71.003 13.7709C71.2412 14.7901 72.1505 15.5123 73.1984 15.5123H85.5384C92.4768 15.5181 98.1442 21.1838 98.1442 28.1248V73.392C98.1442 80.3326 92.4768 86 85.5362 86H12.608C5.66742 86 0 80.3326 0 73.392V28.1248C0 21.1843 5.66742 15.5168 12.608 15.5168H24.5946C25.618 15.5168 26.5141 14.8237 26.7711 13.8365L28.5604 6.98099Z" fill="currentColor"/>
    <path fill-rule="evenodd" clip-rule="evenodd" d="M21.6377 18.2183C21.6377 16.7262 22.8473 15.5166 24.3394 15.5166H54.6166C56.1087 15.5166 57.3183 16.7262 57.3183 18.2183C57.3183 19.7104 56.1087 20.92 54.6166 20.92H24.3394C22.8473 20.92 21.6377 19.7104 21.6377 18.2183Z" fill="currentColor"/>
    <path fill-rule="evenodd" clip-rule="evenodd" d="M49 34.7029C40.2146 34.7029 33.0926 41.8249 33.0926 50.6103C33.0926 59.3958 40.2146 66.5178 49 66.5178C57.7854 66.5178 64.9074 59.3958 64.9074 50.6103C64.9074 41.8249 57.7854 34.7029 49 34.7029ZM28 50.6103C28 39.0124 37.402 29.6104 49 29.6104C60.598 29.6104 70 39.0124 70 50.6103C70 62.2083 60.598 71.6104 49 71.6104C37.402 71.6104 28 62.2083 28 50.6103Z" fill="currentColor"/>
</svg>
