<svg width="203" height="120" viewBox="0 0 203 120" fill="none" xmlns="http://www.w3.org/2000/svg">
<path d="M101.359 120C157.338 120 202.718 110.983 202.718 99.8593C202.718 88.736 157.338 79.7188 101.359 79.7188C45.38 79.7188 0 88.736 0 99.8593C0 110.983 45.38 120 101.359 120Z" fill="currentColor"/>
<path d="M33.2471 32.9329V97.0646C33.2471 100.582 36.3617 103.425 40.2007 103.425H151.7C155.539 103.425 158.654 100.582 158.654 97.0646V32.9329C158.654 29.4156 155.539 26.5728 151.7 26.5728H40.2007C36.3617 26.5728 33.2471 29.4156 33.2471 32.9329Z" fill="#477B9E"/>
<path d="M57.7298 26.573H43.4604C42.3738 26.573 41.5046 25.7057 41.5046 24.6216V18.9119C41.5046 17.8277 42.3738 16.9604 43.4604 16.9604H57.7539C58.8404 16.9604 59.7097 17.8277 59.7097 18.9119V24.6216C59.7097 25.7057 58.8163 26.573 57.7298 26.573Z" fill="#477B9E"/>
<path d="M158.654 32.9329V42.5214H33.2471V32.9329C33.2471 29.4156 36.0961 26.5728 39.6212 26.5728H152.304C155.805 26.5728 158.654 29.4156 158.654 32.9329Z" fill="#DBEDFF"/>
<path d="M80.9327 42.5215V97.0648C80.9327 100.582 78.0836 103.425 74.5585 103.425H60.9409C64.466 103.425 67.3151 100.582 67.3151 97.0648V42.5215H80.9327Z" fill="#365E7D"/>
<path d="M80.9327 32.9329V42.5214H67.3151V32.9329C67.3151 29.4156 64.466 26.5728 60.9409 26.5728H74.5585C78.0836 26.5728 80.9327 29.4156 80.9327 32.9329Z" fill="#8BCAFF"/>
<path d="M134.92 21.8027V26.5729H89.1658V21.8027C89.1658 18.1649 92.1114 15.2017 95.7814 15.2017H128.328C131.95 15.2017 134.92 18.1649 134.92 21.8027Z" fill="#477B9E"/>
<path d="M52.2731 26.573H43.4604C42.3738 26.573 41.5046 25.7057 41.5046 24.6216V18.9119C41.5046 17.8277 42.3738 16.9604 43.4604 16.9604H52.2731C51.1866 16.9604 50.3174 17.8277 50.3174 18.9119V24.6216C50.3174 25.7057 51.1866 26.573 52.2731 26.573Z" fill="#3F6D8E"/>
<path d="M53.2388 26.5728C49.7137 26.5728 46.8646 29.4156 46.8646 32.9329V42.5214H33.2471V32.9329C33.2471 29.4156 36.0961 26.5728 39.6212 26.5728H53.2388Z" fill="#B5DCFF"/>
<path d="M53.2387 103.401H39.5971C36.072 103.401 33.2229 100.558 33.2229 97.0407V42.5215H46.8404V97.0648C46.8646 100.558 49.7136 103.401 53.2387 103.401Z" fill="#3F6D8E"/>
<path d="M158.654 97.0405V88.3193C158.654 91.8367 155.539 94.6795 151.7 94.6795H40.2007C36.3617 94.6795 33.2471 91.8367 33.2471 88.3193V97.0405C33.2471 100.558 36.3617 103.401 40.2007 103.401H151.7C155.539 103.401 158.654 100.558 158.654 97.0405Z" fill="#365E7D"/>
<path d="M103.725 15.2017C100.079 15.2017 97.1095 18.1408 97.1095 21.8027V26.5729H89.1418V21.8027C89.1418 18.1649 92.0875 15.2017 95.7574 15.2017H103.725Z" fill="#3F6D8E"/>
<path d="M112.514 99.8353C128.689 99.8353 141.801 86.7517 141.801 70.6122C141.801 54.4728 128.689 41.3892 112.514 41.3892C96.3387 41.3892 83.2263 54.4728 83.2263 70.6122C83.2263 86.7517 96.3387 99.8353 112.514 99.8353Z" fill="#7FB3FA"/>
<path d="M112.514 34.5474C92.546 34.5474 76.3691 50.6887 76.3691 70.6124C76.3691 90.5361 92.546 106.677 112.514 106.677C132.481 106.677 148.658 90.5361 148.658 70.6124C148.658 50.6887 132.481 34.5474 112.514 34.5474ZM112.514 99.8596C96.3609 99.8596 83.2262 86.7538 83.2262 70.6365C83.2262 54.5193 96.3609 41.4135 112.514 41.4135C128.666 41.4135 141.801 54.5193 141.801 70.6365C141.801 86.7297 128.666 99.8596 112.514 99.8596Z" fill="#365E7D"/>
<path d="M117.874 106.292C116.111 106.557 114.324 106.677 112.514 106.677C92.546 106.677 76.3691 90.5361 76.3691 70.6124C76.3691 50.6887 92.546 34.5474 112.514 34.5474C114.324 34.5474 116.135 34.6919 117.874 34.9328C109.689 36.1615 102.373 40.1125 96.9403 45.8463C88.6829 51.026 83.2021 60.1808 83.2021 70.6124C83.2021 81.0441 88.707 90.1988 96.9403 95.3785C102.373 101.112 109.689 105.087 117.874 106.292Z" fill="#294B64"/>
<path d="M118.888 99.161C116.836 99.6188 114.711 99.8597 112.514 99.8597C96.361 99.8597 83.2263 86.7539 83.2263 70.6366C83.2263 54.5194 96.361 41.4136 112.514 41.4136C114.687 41.4136 116.836 41.6545 118.888 42.1122C105.777 45.0273 95.9505 56.7117 95.9505 70.6607C95.9505 84.5615 105.777 96.2459 118.888 99.161Z" fill="#64A6F4"/>
<path d="M112.514 88.609C102.566 88.609 94.4775 80.5383 94.4775 70.6126C94.4775 60.6869 102.566 52.6162 112.514 52.6162C122.461 52.6162 130.55 60.6869 130.55 70.6126C130.55 80.5383 122.461 88.609 112.514 88.609Z" fill="#64A6F4"/>
<path d="M112.514 75.9128C109.592 75.9128 107.202 73.5277 107.202 70.6126C107.202 67.6976 109.592 65.3125 112.514 65.3125C115.435 65.3125 117.826 67.6976 117.826 70.6126C117.826 73.5277 115.435 75.9128 112.514 75.9128Z" fill="#9CC5FA"/>
<path d="M115.17 75.19C114.397 75.6478 113.48 75.9128 112.514 75.9128C109.592 75.9128 107.202 73.5277 107.202 70.6126C107.202 67.6976 109.592 65.3125 112.514 65.3125C113.48 65.3125 114.373 65.5775 115.17 66.0352C113.576 66.9507 112.514 68.6612 112.514 70.6126C112.514 72.5641 113.576 74.2746 115.17 75.19Z" fill="#7FB3FA"/>
<path d="M118.888 87.4526C116.908 88.1994 114.759 88.609 112.514 88.609C102.566 88.609 94.4775 80.5383 94.4775 70.6126C94.4775 60.6869 102.566 52.6162 112.514 52.6162C114.759 52.6162 116.908 53.0258 118.888 53.7726C112.079 56.3504 107.226 62.9274 107.226 70.6126C107.202 78.2978 112.055 84.8748 118.888 87.4526Z" fill="#3D8BD8"/>
<path d="M169.567 48.0867C182.876 48.0867 193.664 37.3222 193.664 24.0434C193.664 10.7646 182.876 0 169.567 0C156.259 0 145.471 10.7646 145.471 24.0434C145.471 37.3222 156.259 48.0867 169.567 48.0867Z" fill="#47ABE2"/>
<path d="M169.567 42.9793C159.113 42.9793 150.59 34.475 150.59 24.0434C150.59 13.6117 159.113 5.10742 169.567 5.10742C180.022 5.10742 188.545 13.6117 188.545 24.0434C188.545 34.4991 180.046 42.9793 169.567 42.9793ZM169.567 5.61334C159.378 5.61334 151.073 13.8767 151.073 24.0675C151.073 34.2341 159.354 42.5216 169.567 42.5216C179.757 42.5216 188.062 34.2582 188.062 24.0675C188.062 13.8767 179.781 5.61334 169.567 5.61334Z" fill="white"/>
<path d="M170.799 34.8126H168.36C167.539 34.8126 166.887 34.1621 166.887 33.343V14.7684C166.887 13.9493 167.539 13.2988 168.36 13.2988H170.799C171.62 13.2988 172.272 13.9493 172.272 14.7684V33.343C172.272 34.138 171.62 34.8126 170.799 34.8126Z" fill="white"/>
<path d="M158.799 25.272V22.8387C158.799 22.0196 159.451 21.3691 160.272 21.3691H178.887C179.708 21.3691 180.36 22.0196 180.36 22.8387V25.272C180.36 26.0911 179.708 26.7416 178.887 26.7416H160.272C159.451 26.7416 158.799 26.0911 158.799 25.272Z" fill="white"/>
</svg>
