<svg width="400" height="240" version="1.1" viewBox="0 0 105.83 63.5" xmlns="http://www.w3.org/2000/svg"><path d="m32.981 0.94082h-24.845a7.1277 6.2644 0 0 0-7.1634 5.2581 13.266 11.66 0 0 0-0.14701 1.6875q0 7.5955 0 15.191" style="fill:none;stroke-linecap:round;stroke-linejoin:round;stroke-width:.83526px;stroke:#ffffff"/><path d="m32.981 62.677h-24.845a7.1277 6.2644 0 0 1-7.1634-5.2581 13.266 11.66 0 0 1-0.14701-1.6875q0-7.5955 0-15.191" style="fill:none;stroke-linecap:round;stroke-linejoin:round;stroke-width:.83526px;stroke:#ffffff"/><path d="m72.622 0.93716h24.845a7.1277 6.2644 0 0 1 7.1634 5.2581 13.266 11.66 0 0 1 0.14701 1.6875q0 7.5955 0 15.191" style="fill:none;stroke-linecap:round;stroke-linejoin:round;stroke-width:.83526px;stroke:#ffffff"/><path d="m72.622 62.673h24.845a7.1277 6.2644 0 0 0 7.1634-5.2581 13.266 11.66 0 0 0 0.14701-1.6875q0-7.5955 0-15.191" style="fill:none;stroke-linecap:round;stroke-linejoin:round;stroke-width:.83526px;stroke:#ffffff"/></svg>
