<svg width="240" height="400" version="1.1" viewBox="0 0 63.5 105.83" xmlns="http://www.w3.org/2000/svg"><path d="m25.565 0.95293h-19.119a5.4851 6.7767 0 0 0-5.5125 5.6882 10.209 12.613 0 0 0-0.11313 1.8255q0 8.2167 0 16.433" style="fill:none;stroke-linecap:round;stroke-linejoin:round;stroke-width:.7621px;stroke:#ffffff"/><path d="m0.87824 80.395v19.119a6.7767 5.4851 0 0 0 5.6882 5.5125 12.613 10.209 0 0 0 1.8255 0.11313q8.2167 0 16.433 0" style="fill:none;stroke-linecap:round;stroke-linejoin:round;stroke-width:.7621px;stroke:#ffffff"/><path d="m37.862 0.95293h19.119a5.4851 6.7767 0 0 1 5.5125 5.6882 10.209 12.613 0 0 1 0.11313 1.8255q0 8.2167 0 16.433" style="fill:none;stroke-linecap:round;stroke-linejoin:round;stroke-width:.7621px;stroke:#ffffff"/><path d="m62.549 80.395v19.119a6.7767 5.4851 0 0 1-5.6882 5.5125 12.613 10.209 0 0 1-1.8255 0.11313q-8.2167 0-16.433 0" style="fill:none;stroke-linecap:round;stroke-linejoin:round;stroke-width:.7621px;stroke:#ffffff"/></svg>
