<svg width="47" height="24" viewBox="0 0 47 24" fill="none" xmlns="http://www.w3.org/2000/svg">
<path d="M46.5719 16.7829C46.5719 16.0386 46.5719 14.9539 46.5719 14.2096C46.5719 12.6997 46.0828 11.5725 45.2109 10.5092C44.0199 9.06306 42.4887 8.44632 40.6385 8.10605C38.7245 7.76578 37.0657 7.21285 35.1517 6.89385C34.62 6.80878 34.2372 6.59611 33.8757 6.23457C32.5571 4.89477 31.3875 3.76763 30.0477 2.44909C28.7504 1.17309 27.3468 0.0672135 25.3902 0.0672135C24.0717 0.0672135 16.1179 -0.0178536 13.2257 0.00341318C11.3755 0.0246799 10.0356 0.726483 9.16371 2.36402C8.56824 3.44863 7.90897 4.51197 7.35603 5.61784C6.76056 6.78751 6.25016 7.29791 4.99542 7.74452C4.18729 8.02098 3.67688 8.19112 2.86875 8.44632C1.16741 8.97799 0.0827998 10.2327 0.0402663 11.8703C-0.00226723 13.3589 -0.023534 14.8476 0.0402663 16.3363C0.104067 17.6123 0.657003 18.6118 1.76287 19.3349C2.91128 20.0792 3.91082 20.0792 5.18682 20.0792C6.20763 20.0792 6.01623 19.9091 6.7393 21.2914C7.67503 23.1204 9.24878 24.0136 11.3117 23.9711C13.332 23.9285 14.8207 22.9715 15.7139 21.1638C15.8627 20.8448 16.0116 20.5258 16.1817 20.143H29.9626C30.1327 20.5046 30.2603 20.8236 30.4092 21.1426C30.9621 22.3123 31.8553 23.1629 33.0676 23.6095C35.811 24.6516 38.4693 23.567 39.6603 20.8448C39.9155 20.2494 39.8942 20.0792 40.4897 20.0792C41.4041 20.0792 42.3611 20.0792 43.3181 20.0792C45.4661 20.058 46.5719 18.9308 46.5719 16.7829ZM23.221 2.32149C23.221 2.32149 26.8364 1.89616 28.1975 3.38483C29.0907 4.3631 31.1961 6.78751 31.1961 6.78751C28.4101 6.78751 23.221 6.78751 23.221 6.78751C23.221 6.78751 23.221 3.89523 23.221 2.32149ZM15.6926 2.66176C15.7777 2.47036 16.0541 2.27896 16.2455 2.27896C17.7555 2.25769 20.8604 2.25769 20.8604 2.25769V6.78751H13.9275C13.9275 6.78751 15.0759 3.9803 15.6926 2.66176ZM11.1841 21.7593C9.63158 21.7806 8.2705 20.5046 8.2705 18.9946C8.2705 17.4422 9.58904 16.1236 11.2053 16.1024C12.7153 16.0811 14.0551 17.3996 14.0763 18.9308C14.0763 20.4195 12.7365 21.738 11.1841 21.7593ZM35.0028 21.7593C33.3866 21.7806 32.068 20.462 32.0893 18.8883C32.1105 17.4209 33.4504 16.1024 34.8965 16.1024C36.5128 16.1024 37.8526 17.3996 37.8738 18.9308C37.8951 20.4408 36.5553 21.738 35.0028 21.7593ZM42.0634 18.0589C41.2765 18.0589 40.9363 18.0589 40.0856 18.0589C39.2775 15.5707 37.5336 13.763 34.7051 13.8906C32.1956 14.0182 30.4943 15.6132 29.9626 17.8462H16.522C16.3306 17.8462 16.1605 17.7186 16.0967 17.5485C15.1822 15.3155 13.6723 13.8055 11.0352 13.8906C8.56824 13.9544 7.1221 15.3793 6.25016 17.5485C6.16509 17.7399 5.97369 17.8675 5.76103 17.8675C5.44202 17.8675 4.91036 17.8675 4.27235 17.8675C3.23028 17.8462 2.29454 17.0806 2.20948 16.0598C2.16694 15.4644 2.20948 14.8689 2.20948 14.2096C2.20948 14.2096 2.20948 14.2096 2.23074 14.2096V12.2956C2.23074 11.8277 2.37961 11.3386 2.69861 10.9771C2.95381 10.6793 3.27281 10.5092 3.67688 10.4029C3.67688 10.4029 6.31396 9.57346 6.52663 9.46712C7.97277 8.82912 8.41937 8.21238 9.09991 6.93638C9.75918 5.72417 10.4397 4.51197 11.1203 3.32103C11.6307 2.42782 12.0985 2.21516 13.3107 2.34276C12.9917 3.08709 12.7365 3.7251 12.4601 4.38437C12.2049 5.0011 11.8859 5.59657 11.6732 6.25584C11.1841 7.80832 12.0773 8.99925 13.7148 9.04179C15.2035 9.08432 16.6921 9.06305 18.1808 9.06305C22.6468 9.06305 27.1129 9.06306 31.5789 9.04179C34.4712 9.04179 36.5978 9.46712 39.724 10.1689L41.1277 10.6793C41.1277 10.6793 40.7661 12.0191 41.6381 12.9549C42.7014 14.1033 44.2751 13.8906 44.2751 13.8906V15.4856C44.2751 17.9951 43.9774 18.0589 42.0634 18.0589Z" fill="#7582A4"/>
</svg>
