<svg width="162" height="71" viewBox="0 0 162 71" fill="none" xmlns="http://www.w3.org/2000/svg"><ellipse cx="81" cy="66" rx="81" ry="5" fill="#292A56" fill-opacity=".2"/><path d="M117.2 54.2c0 5.5-4.2 9.2-9.4 9.2-5.1 0-9.3-3.7-9.3-9.2 0-5.5 4.2-10 9.3-10 5.2 0 9.4 4.5 9.4 10ZM40.7 54.2c0 5.5-4.2 9.2-9.4 9.2s-9.4-3.7-9.4-9.2c0-5.5 4.2-10 9.4-10s9.4 4.5 9.4 10Z" fill="#292A56"/><path d="M34.2 57.5h4.2l26.6.2v-9.6s.4-2.4-3.5-5.5c-3.9-3-2.9-5.1-8.6-5.8-5.8-.6-12.8-2-15.6 1-2.8 2.9-2.1 1.7-3.8 6-1.6 4.4-2.3 8.2-2.3 8.2l3 5.5Z" fill="#2F5F8E"/><path d="M150 50.7c0 1.1-.1 2-.3 2.7-.7 2-2.3 2.5-5.1 2.6-3.8 0-6-1.4-6-1.4l1-3.9.4-1.9s10-2.5 10 1.9Z" fill="#508EBD"/><path d="M149.6 53.4c-.6 2-2.2 2.5-5 2.6-3.9 0-6-1.4-6-1.4l1-3.9c1-1 2-1.7 2-1.7s-.8 5 3.6 5c2 0 3.4-.1 4.4-.6Z" fill="#2F5F8E"/><path d="M111.1 57.7h4.2l21.8.3 4.8-9.6s.4-2.5-3.5-5.5-2.9-5.2-8.6-5.8c-5.8-.6-12.8-2-15.6 1-2.8 2.9-2.1 1.7-3.8 6-1.6 4.4-2.3 8.2-2.3 8.2l3 5.4Z" fill="#2F5F8E"/><path d="M149.5 35.4v1.5c-1 8.9-2.2 12.8-7.4 12.8 0 0-3.6-11.9-14.8-11.9-14.3 0-16 11.1-15.8 16.7l.1 2.1.1 1v.1H65v-2.4l-.4-3.1c-1-5.1-4-12-13.1-12.8h-3.6l-1.3.2h-.4l-.4.2-.6.1c-.1 0-.3 0-.4.2l-.6.2-.4.1c-1.2.5-2.2 1-3.1 1.7l-.3.3-1 .8-.3.3-.3.3-.4.5-.3.4v.1l-.4.5-.4.6-.3.4v.2l-.5 1c-.3.4-.5 1-.7 1.5l-.2.6-.2.4v.5l-.2.3-.4 1.4c-.2 1.1-.4 2.2-.4 3.1v.5l-.1.6v1H11.7l-.6-.1h-.5L9.4 57h-.8L7 56.4s-.2 0-.3-.2l-.3-.1-.4-.1-.3-.2-.5-.2-.3-.2-.2-.1L4 55l-.4-.2-.8-.7-.2-.1s0-.2-.2-.2l-.1-.2-.1-.2v-.2l-.1-.1-.2-.9v-3.7c0-.3.1-.6.3-.8l.2-.2.6-.8.2-.7v-.7l.1-4.3v-2c0-.9.4-1.7 1-2.2 1.8-1.7 5.3-4.2 13.6-8l2-.8c7.8-3.3 13.2-5.7 16.4-6.8l2.7-1 18 .8L74 5.5S71 3.7 71.4 3.1c.6-.7 3.4-1.3 8-2C91-.7 97.8.1 107.4.7a50 50 0 0 1 17.2 5.4 91.8 91.8 0 0 1 15.4 10.5l2 1.7c3 3 5.3 6.1 6.6 9.2 1.2 2.8.9 5.4.8 7.9Z" fill="#7ABBDF"/><path d="M149.4 37V38c-.4 4.6-.6 11-1.7 13.4l.4-1.8c-.7 1-2.4 2-3.7 1.1-.9-.6-1.8-.7-2.9-.7 0 0-2-4.4-6.3-7.4a14.4 14.4 0 0 0-8-2.6c-12.7-.3-15.9 8.8-15.7 14.5v2c-1 0-2.4-.8-2.4-.8-1.4 2.3-15.8 1.7-17.7 2H65v-.1c0-.5 0-2.8-.5-5.7v-.1c-1.1-5-4.4-11.6-13-12.4H51l-.4-.1h-2.8c-.5.1-1 .1-1.3.3H46l-.4.1-.6.1-.4.2-.7.2-.3.1c-1.2.5-2.2 1.1-3.1 1.8l-.3.2-1 .9-.3.3-.3.2-.4.6-.4.4-.3.5-.4.6-.3.4v.2c-.3.3-.4.6-.5 1l-.7 1.5v.1l-.2.5-.2.5-.1.4-.1.4-.4 1.3c-.2 1.2-.4 2.3-.4 3.1v.5l-.1.6v1H11l-.2-.1h-.3L9.4 57 9 57h-.4L7 56.5l-.3-.1c-.1 0-.2 0-.3-.2l-.4-.1s-.2 0-.3-.2l-.5-.2c-.1 0-.2 0-.3-.2l-.2-.1-.5-.2-.4-.3a5.6 5.6 0 0 1-1-.8l-.2-.2-.1-.2-.1-.2v-.1l-.1-.2-.2-.8v-3.8c0-.2.1-.6.3-.8l.2-.2.6-.8.2-.7v-.7l.1-4.3c1.5 0 3.8.6 5.4 1.1 2.6.9 4.1 3.4 5.4 3.8 1.4.3 3 .2 4-.5 1.2-1 2-5.1 4.2-7.5a53.3 53.3 0 0 1 19.3-9.8l16.7-4.4a13 13 0 0 0 5.6-2.9c2.5-2.5 7.3-7 12.2-11 9.7-9.5 31.7-7.4 38.8-5 14.6 4.8 24 14.3 30.7 21 2.8 2.7 3.2 6.9 3.7 11Z" fill="#6CACD8"/><path d="M65 57.6v-2.3a26.5 26.5 0 0 0-.4-3.2v.1c.4.7 1.7 2.3 6.2 2.3h40.7c0 1.7.2 3 .2 3.2H65ZM11.8 50.6s-5.5.2-6.4-.1c-1-.3-1.6 0-2.5-.9l-.8-.8c0-.3 0-.7.3-.9l.1-.2.6-.8c.2-.2.3-.4.3-.7v-.7c1 0 2.4.5 2.9.8 1.2.9 1 1.8 3.5 3 1.1.5 2 1.3 2 1.3Z" fill="#508EBD"/><path d="M17.6 56.6c-1 0-6.7-.8-7.4-.8-.8 0-3-1.2-4.5-1.4-1.5-.2-2-.3-2.4-.7L2 52v-3.3c0-.3.1-.6.3-.8l.2-.2s2.4 1.8 5.6 2c3.2.3 6.4.3 7.3 1.3 1 1 2 3 3.3 4 1.4.8-.2 1.6-1.1 1.6Z" fill="#77B5DF"/><path d="M18.4 54.7c-1.2 0-7.3-.2-10-.6-3.1-.6-5.2-2-6.4-3v-.4c1 1 3 2.6 6.5 3.2 2.7.4 9.7.5 9.7.5l.2.3Z" fill="#508EBD"/><path d="M34.3 55.5v2H14a46.5 46.5 0 0 1-3.2-.2l-1.5-.2-.8-.1-2.3-.7-.6-.2-.6-.3-1-.5-.4-.3a5.6 5.6 0 0 1-1.3-1.2l-.1-.2a3 3 0 0 1-.3-1.1v-1.3c1.2 1 3.3 2.4 6.5 3 2.6.4 8.7.5 10 .6l.7.4c.4.2.8.3 1.4.3 1.4 0 10.3-.4 13.7-.1v.1Z" fill="#508EBD"/><path d="M62.7 55.8c0 7-5.8 12.3-13 12.3-7 0-12.8-5.3-12.8-12.3v-.7a12.9 12.9 0 0 1 25.8.7ZM139.2 55.8c0 7-5.8 12.3-13 12.3-7 0-12.8-5.3-12.8-12.3v-.7a12.9 12.9 0 0 1 25.8.7Z" fill="#292A56"/><path d="M132.7 55.8c0 3.5-2.9 6.3-6.4 6.3a6.2 6.2 0 0 1-5.3-9.7 6.4 6.4 0 0 1 10.6 0c.7 1 1 2.1 1 3.4ZM56.1 55.8c0 3.5-2.8 6.3-6.3 6.3a6.2 6.2 0 0 1-5.3-9.7A6.4 6.4 0 0 1 56 55.8Z" fill="#fff"/><path d="M76 5.8a3 3 0 0 1-.7 1.6l-2.1 2a236 236 0 0 1-12.8 11 8.6 8.6 0 0 1-4.8 2c-2.2 0-13.3-.4-16-1.9 0 0 15-8.7 26.8-15 1.8-1 3.6-1.5 5.2-2.3l1-.1c.4 0 4 0 3.5 2.7ZM98.1 23.4H72l-2.3-2.7s2.6-4 7.7-8.1A32.8 32.8 0 0 1 98.3 5L98 23.4ZM101.4 5c9.8.2 16.3 3.8 21 7.6a51 51 0 0 1 7.2 7.6 2 2 0 0 1-1.5 3.2h-26.5L101.4 5Z" fill="#292A56"/><path d="M31.8 35.8a46 46 0 0 1-5.7 2.8l-.7.2c-1.4.5-3.7 1.2-4.8 1.4l-2.4.2c-1 0-2-.2-2.8-1.2l-.3-.4c-.7-1-.2-1.4.8-2a70.5 70.5 0 0 1 6.6-3.1c2.7-1 4.5-.5 5.7-.4 1.6.1 2.8.6 3.6 1.1.4.3.4 1.1 0 1.4Z" fill="#fff"/><path d="M97.8 30.2H82.9c-6.4 0-21.2 0-32.3 2.2-.3 0-.4-.4-.1-.6 4.9-1.6 16-4.2 37.3-4.2H98s31.3.5 37.7 2.7h-38Z" fill="#629FCC"/><path d="M32.1 32.5v-.3c2.7-1.2 7.1-3 12.6-4.8 2.8-1 5.2-1.4 7-1.9 2.1-.4 3.8-.8 4.9-1.4h.2v.3c-1.2.7-2.9 1-5 1.5l-7 1.8c-5.5 1.8-9.9 3.6-12.6 4.9v-.1ZM67.3 53.3l-.2-.1a40.3 40.3 0 0 1-.8-8c.1 0 .2.1.2.3a34.9 34.9 0 0 0 .8 7.8ZM66.2 41.8l-.1-.2V40c0-6.6.5-11.4.8-13.8l.1-.1.1.2c-.3 2.3-.8 7.1-.8 13.7v1.9Z" fill="#5C8CB6"/><path d="M98.6 54.6h-1l-.2-.1.1-.2h1.1c.1 0 .2 0 .2.2l-.2.1ZM95.8 54.6h-3.6l-.1-.1.1-.2h3.6c.1 0 .2 0 .2.2l-.2.1ZM90.6 54.6h-25V54.3h25s.2 0 .2.2l-.2.1Z" fill="#4777A3"/><path d="M94 31H88c-.4 0-.7-.3-.7-.7 0-.4.3-.8.7-.8H94c.4 0 .8.4.8.8 0 .5-.4.8-.8.8ZM129.7 31h-6.1c-.4 0-.8-.3-.8-.7 0-.4.4-.8.8-.8h6.1c.4 0 .7.4.7.8 0 .5-.3.8-.7.8Z" fill="#5093BF"/><path d="M93.7 30.6h-6.2c-.4 0-.7-.3-.7-.8 0-.4.3-.8.7-.8h6.2c.4 0 .7.4.7.8 0 .5-.3.8-.7.8ZM129.3 30.6h-6.1c-.4 0-.7-.3-.7-.8 0-.4.3-.8.7-.8h6.1c.4 0 .8.4.8.8 0 .5-.4.8-.8.8Z" fill="#2D2F5A"/><path d="M11.5 39.1H9.8c-3.4-.3-5-.9-5.1-1l-.1-.1c0-.1.1-.2.2-.1a21 21 0 0 0 7.6.9l.1.2-.1.1h-.9Z" fill="#5C8CB6"/><path d="M76.6 23.4c0 .6-.2 1.3-.7 2l-.7 1-.4.2c-.7.2-2.3.4-4 0a2.7 2.7 0 0 1-2-1.8v-.2l-.2-.7H68c-.3 0-.5-.2-.5-.5l.2-1.7c0-.2.3-.4.4-.4l1.3-.2s.6-.8 2.6-1.1c1.3-.2 2.7-.4 3.4.3.2.5 1.3 1.5 1.3 3Z" fill="#77B5DF"/><path d="M76.6 23.4c0 .6-.2 1.3-.7 2-1 .5-5.6 1-5.7.5-.2-.8-.1-1.5.3-2 .4-.4 2.4-1.3 4.4-1.3.8 0 1.3.4 1.7.8Z" fill="#6CACD8"/><path d="M76.6 23.4c0 .6-.2 1.3-.7 2l-.7 1-.4.2c-.7.2-2.3.4-4 0a2.7 2.7 0 0 1-2-1.8v-.2c.3.2 1.5 1 3.7.9 1.8 0 3.3-1.3 4-2.1Z" fill="#5093BF"/><path d="M35.3 41.9A21.4 21.4 0 0 1 56.8 38c.3 0 .4-.3.3-.4-3.9-2.5-14.4-7.7-22.1 4-.1.1 0 .4.3.2ZM115.3 41.9a21.4 21.4 0 0 1 21.5-3.8c.3 0 .4-.3.3-.4-3.9-2.5-14.4-7.7-22.1 4-.2.1.1.4.3.2Z" fill="#7ABBDF"/><path d="M61.1 16.8H61v-.3l.9-1c0-.2.2-.2.3 0v.2l-1 1-.1.1ZM63.6 13.7h-.2v-.3c.4-.7.8-1.2 1-1.8.1-.1.2-.2.4-.1v.3l-1 1.8h-.2ZM56.5 19.4V19l2.3-3.1s.2-.2.3 0a72.1 72.1 0 0 1-2.3 3.4h-.3ZM61 13.3h-.2V13l1.3-2.6s.2-.2.3 0l.1.2c-.4.8-.8 1.7-1.4 2.6H61ZM75.3 7.4l-2 2c3.7-7-6.3-4-6.9-3.8 1.9-1 3.6-1.6 5.2-2.4l1-.1c.4 0 4 0 3.5 2.6-.1.6-.4 1.2-.8 1.7ZM85 20.2v-.3l4.5-5.7h.3v.2l-4.5 5.7H85ZM92 11.6h-.2v-.3l1.3-1.7h.3c.1 0 .1.1 0 .2l-1.3 1.7H92ZM88.6 21h-.2v-.3l.4-.5h.3v.3l-.4.4-.1.1ZM89.7 19.6h-.1v-.3l.8-1 .2-.1v.3l-.7 1-.2.1ZM91.3 17.6h-.1v-.3l2.4-3.2h.3v.3l-2.4 3.1h-.2ZM96.2 11.4H96v-.3l.5-.8h.3v.3l-.5.8h-.2ZM103.9 20.2h-.1v-.3l4.5-5.7h.3v.2l-4.5 5.7h-.2ZM110.7 11.6l-.1-.3 1.3-1.7h.3v.2l-1.3 1.7h-.2ZM107.3 21l-.1-.3.4-.5h.3v.3l-.4.4-.2.1ZM108.4 19.6c-.2 0-.2-.2-.1-.3l.8-1 .3-.1v.3l-.8 1-.2.1ZM110 17.6v-.3l2.4-3.2h.3v.3l-2.4 3.1h-.2ZM115 11.4h-.1v-.3l.5-.8h.3v.3l-.6.8h-.1Z" fill="#343C60"/><path d="M55.1 52.4a32 32 0 0 0-10.7 0 6.4 6.4 0 0 1 10.7 0ZM131.6 52.4a32 32 0 0 0-10.7 0 6.4 6.4 0 0 1 10.7 0Z" fill="#C1BDCC"/><path d="M24.1 29.5c-3.7.5-5.4.3-6-.4l2-.9c7.9-3.3 13.2-5.6 16.4-6.8l.1.8c.7 1.8-.3 5.4-12.5 7.3Z" fill="#89C9E4"/><path d="M34.8 52.2a24.2 24.2 0 0 0-.6 4.7L33 57l-2.5-.8s-1.7-1.1.4-1.1c2 0 3.9-3 3.9-3Z" fill="#508EBD"/><path d="M70.3 13.3h-.1V13A98.3 98.3 0 0 1 78.9 6v.3a89 89 0 0 0-8.4 6.9h-.2Z" fill="#94CDEE"/><path d="M96.3 52c-6.5.1-15.1.1-23-.6-.5 0-.6-.8-.1-1a59 59 0 0 1 36.2-.7s-3.4 2.3-13 2.4Z" fill="#7ABBDF"/><path d="M25.3 38.8c-1.4.5-3.6 1.2-4.7 1.4l-2.4.2c-1 0-2-.2-2.8-1.2l-.3-.4c-.7-1-.2-1.4.8-2l4.6-2.3c.2 1.7 1.3 3.8 4.8 4.3Z" fill="#D5E5F4"/><path d="m99.7 40.6-.2-.2V25.6c0-.1 0-.2.2-.2 0 0 .2 0 .2.2v14.8l-.2.2ZM132 38.4l-.1-.2c0-1.1.2-2.4.4-3.9l.2-.1s.2.1.1.2a66.6 66.6 0 0 0-.6 4ZM132.7 32.7c-.1 0-.2 0-.2-.2.7-6-1.6-8.3-1.6-8.3v-.3h.2c.1.1 2.5 2.4 1.8 8.6 0 .1 0 .2-.2.2Z" fill="#5C8CB6"/><path d="M149.3 37.3v.5c0 2.1-.6 11-.7 11.5 0 .6.2 2.3-3 1.6h-.2c-4-1.1-5.1-2.4-5-3.7.1-1 1.1-2.1 2.3-3 1.6-1.2 3.4-2 3.5-2.2l3.2-4.7Z" fill="#6CACD8"/><path d="M149.5 35.4v.7c-.9.1-1.6 0-1.6-.5 0-1.6-2.9-4-2.4-5.6.4-1.7 3.2-2.4 3.2-2.4 1.2 2.7.9 5.3.8 7.8Z" fill="#F47A59"/><path d="M149.3 37.8v.3a742 742 0 0 1-.7 11.3c0 .4 0 1.6-1 2.2-.4.2-1.1.3-2.2 0l-1-.2c-.9-.6-1.8-1.3-2.9-1.3 0 0-2-4.4-6.3-7.3 0 0 4.3 1 7.5 1.5a9 9 0 0 0 3 0c2.4-.7 3.6-6.3 3.6-6.5Z" fill="#5FA1CF"/><path d="M142 18.5c-3-.4-8.9-4.8-12.4-7.3l-5.9-4a.5.5 0 0 1 .1-.8l1-.2A91.9 91.9 0 0 1 140 16.8l2 1.7Z" fill="#292A56"/></svg>