<svg width="29" height="22" viewBox="0 0 29 22" fill="none" xmlns="http://www.w3.org/2000/svg">
<path d="M22.2031 21.875H6.79688C3.11373 21.875 0.125 18.9879 0.125 15.4491V6.55087C0.125 3.01206 3.11373 0.125 6.79688 0.125H22.2031C25.8863 0.125 28.875 3.01206 28.875 6.55087V15.4491C28.875 18.9879 25.8863 21.875 22.2031 21.875ZM6.79688 2.05862C4.23369 2.05862 2.14062 4.06943 2.14062 6.55087V15.4491C2.14062 17.9306 4.23369 19.9414 6.79688 19.9414H22.2031C24.7663 19.9414 26.8594 17.9306 26.8594 15.4491V6.55087C26.8594 4.06943 24.7663 2.05862 22.2031 2.05862H6.79688ZM9.23242 10.9569C7.39191 10.9569 5.90234 9.51473 5.90234 7.75186C5.90234 5.98899 7.39191 4.54684 9.23242 4.54684C11.0729 4.54684 12.5625 5.98899 12.5625 7.75186C12.5625 9.51473 11.0729 10.9569 9.23242 10.9569ZM9.23242 6.48046C8.51187 6.48046 7.91797 7.04636 7.91797 7.75186C7.91797 8.45736 8.51187 9.02326 9.23242 9.02326C9.95297 9.02326 10.5469 8.45736 10.5469 7.75186C10.5469 7.04636 9.95297 6.48046 9.23242 6.48046ZM23.3926 4.60143C23.9536 4.60143 24.4004 5.03857 24.4004 5.56824C24.4004 6.09791 23.9536 6.53505 23.3926 6.53505H15.7461C15.1851 6.53505 14.7383 6.09791 14.7383 5.56824C14.7383 5.03857 15.1851 4.60143 15.7461 4.60143H23.3926ZM23.3926 9.02326C23.9536 9.02326 24.4004 9.46041 24.4004 9.99007C24.4004 10.5197 23.9536 10.9569 23.3926 10.9569H15.7461C15.1851 10.9569 14.7383 10.5197 14.7383 9.99007C14.7383 9.46041 15.1851 9.02326 15.7461 9.02326H23.3926ZM23.3926 15.5195C23.9536 15.5195 24.4004 15.9567 24.4004 16.4864C24.4004 17.016 23.9536 17.4532 23.3926 17.4532H17.7852C17.2242 17.4532 16.7773 17.016 16.7773 16.4864C16.7773 15.9567 17.2242 15.5195 17.7852 15.5195H23.3926ZM12.6944 13.5981C13.5231 14.3756 13.9785 15.4203 13.9785 16.5409C13.9785 17.0706 13.5317 17.5078 12.9707 17.5078C12.4097 17.5078 11.9629 17.0706 11.9629 16.5409C11.9629 15.301 10.9253 14.3415 9.62126 14.3415H9.00099C7.71178 14.3415 6.72846 15.2852 6.72846 16.5409C6.72846 17.0706 6.28165 17.5078 5.72065 17.5078C5.15965 17.5078 4.71283 17.0706 4.71283 16.5409C4.71283 14.2265 6.59114 12.4079 9.00099 12.4079H9.62126C10.7863 12.4079 11.8772 12.8313 12.6944 13.5981Z" fill="currentColor" stroke="white" stroke-width="0.25"/>
</svg>
