<svg width="203" height="574" viewBox="0 0 203 574" fill="none" xmlns="http://www.w3.org/2000/svg">
<path d="M106.607 366.984H95.6289L95.5708 339.567L95.5127 321.561V319.818C95.5127 316.798 97.9523 314.358 100.973 314.358C103.993 314.358 106.433 316.798 106.433 319.818V319.876V339.858L106.607 366.984Z" fill="#8C9799"/>
<path d="M171.08 552.857V568.075C171.08 571.27 169.047 573.826 166.549 573.826L38.1805 574C35.6829 574 33.5918 571.444 33.5918 568.25V553.031C33.5918 549.836 35.6248 547.281 38.1225 547.281L166.491 547.106C168.989 547.106 171.08 549.662 171.08 552.857Z" fill="#8C9799"/>
<path opacity="0.1" d="M171.081 561.802V568.075C171.081 571.212 169.048 573.826 166.55 573.826L38.1815 574C35.6838 574 33.5928 571.444 33.5928 568.249V561.976C33.5928 565.171 35.6258 568.888 38.1815 568.888L166.55 568.714C169.048 568.714 171.081 564.997 171.081 561.802Z" fill="#162223"/>
<path opacity="0.12" d="M172.706 560.208L33.5918 560.377L33.5938 562.003L172.708 561.834L172.706 560.208Z" fill="#00384B"/>
<path d="M180.317 372.792L180.549 554.251C180.549 557.504 177.877 560.176 174.625 560.176L28.1912 560.35C24.9384 560.35 22.2665 557.678 22.2665 554.425L22.0342 372.966C22.0342 369.714 24.7061 367.042 27.9589 367.042L174.392 366.867C177.645 366.867 180.317 369.539 180.317 372.792Z" fill="#8C9799"/>
<path d="M50.553 560.408V563.661C50.553 564.997 49.6236 566.042 48.4619 566.042H32.2561C31.0944 566.042 30.165 564.997 30.165 563.661V560.408H50.553Z" fill="#FA6850"/>
<path d="M173.637 560.292V563.545C173.637 564.881 172.708 565.926 171.546 565.926H155.34C154.178 565.926 153.249 564.881 153.249 563.545V560.292H173.637Z" fill="#FA6850"/>
<path opacity="0.1" d="M106.607 339.858C101.902 340.555 98.3003 340.322 95.6284 339.625L95.5703 321.619L99.2297 319.296C99.2297 319.296 102.308 319.47 106.548 319.934L106.607 339.858Z" fill="#162223"/>
<path d="M8.26829 457.481H22.2088V520.445H8.32637C4.02805 520.445 0.484843 517.541 0.484843 513.94L0.426758 463.986C0.426758 460.443 3.91188 457.481 8.26829 457.481Z" fill="#8C9799"/>
<path d="M202.099 513.707C202.099 517.309 198.614 520.213 194.258 520.213H180.317V457.248H188.159H194.2C198.498 457.248 202.041 460.153 202.041 463.754L202.099 505.982V513.707Z" fill="#8C9799"/>
<path opacity="0.1" d="M202.099 513.707C202.099 517.309 198.614 520.213 194.258 520.213H180.317V457.248H188.159C188.391 457.364 188.507 457.423 188.507 457.423C188.507 457.423 183.919 488.266 187.694 503.02C190.482 514.056 197.917 509.119 202.099 505.982V513.707Z" fill="#162223"/>
<path opacity="0.1" d="M0.426758 513.94C0.426758 517.541 3.91188 520.445 8.26829 520.445H22.2088V457.481H14.3673C14.1349 457.597 14.0187 457.655 14.0187 457.655C14.0187 457.655 18.6075 488.498 14.8319 503.252C12.0438 514.288 4.60891 509.409 0.426758 506.214V513.94Z" fill="#162223"/>
<path opacity="0.1" d="M95.6289 348.222C95.6289 348.222 95.6289 359.839 101.147 359.839C106.665 359.839 106.665 348.222 106.665 348.222V366.984H95.687L95.6289 348.222Z" fill="#162223"/>
<path opacity="0.1" d="M166.668 385.397L166.842 541.704C166.842 544.551 164.635 546.816 161.905 546.816L40.7385 546.99C38.0085 546.99 35.8012 544.725 35.8012 541.879L35.627 385.571C35.627 382.725 37.8342 380.459 40.5642 380.459L161.73 380.285C164.46 380.285 166.668 382.55 166.668 385.397Z" fill="#162223"/>
<g opacity="0.5">
<path opacity="0.13" d="M60.8355 462.244L60.0223 533.573H58.8025L58.2217 462.244L59.2091 399.047H60.4289L60.8355 462.244Z" fill="#00384B"/>
<path opacity="0.13" d="M102.599 462.244L101.786 533.573H100.566L99.9854 462.244L100.973 399.047H102.193L102.599 462.244Z" fill="#00384B"/>
<path opacity="0.13" d="M144.363 462.244L143.55 533.573H142.33L141.691 462.244L142.737 399.047H143.957L144.363 462.244Z" fill="#00384B"/>
</g>
<path d="M176.716 52.9158C176.716 57.5626 176.541 74.117 176.367 105.076C176.309 110.014 176.309 115.067 176.251 120.353C176.251 121.282 176.251 122.212 176.251 123.141C176.193 129.298 176.193 135.571 176.135 142.077C175.786 194.935 175.322 243.494 175.147 271.317C175.089 277.3 175.089 281.714 175.031 284.27C175.031 285.954 174.625 289.846 173.811 291.414C173.811 291.473 173.753 291.531 173.753 291.531C172.243 294.377 169.455 299.256 165.854 304.426C165.389 305.065 164.924 305.703 164.46 306.342C164.227 306.633 163.995 306.923 163.763 307.272C163.763 307.272 163.763 307.272 163.763 307.33C163.124 308.201 162.427 309.072 161.73 309.944L161.672 310.002C160.336 311.57 158.942 313.022 157.547 314.532C152.494 320.051 145.872 325.569 142.329 328.415C141.748 328.88 141.109 329.286 140.412 329.635C139.251 330.216 138.031 330.622 136.753 330.796C130.596 331.668 118.049 333.933 100.914 334.107H100.798C83.7209 333.933 71.1164 331.668 64.9593 330.796C63.6814 330.622 62.4617 330.216 61.2999 329.635C60.661 329.286 60.0221 328.88 59.3831 328.415C55.8399 325.569 49.2182 320.051 44.1647 314.532C42.7707 313.022 41.3766 311.57 40.0407 310.002L39.9826 309.944C39.2856 309.072 38.5885 308.201 37.9496 307.33C37.9496 307.33 37.9496 307.33 37.9496 307.272C37.7173 306.981 37.4849 306.691 37.2526 306.342C36.7879 305.703 36.3232 305.065 35.8585 304.426C32.4896 299.605 29.8177 295.074 28.2493 292.17C28.1332 291.937 28.017 291.763 27.9008 291.531C27.9008 291.473 27.8427 291.473 27.8427 291.414C27.7266 291.182 27.6685 290.95 27.5523 290.659C26.9715 288.801 26.623 285.664 26.623 284.27C26.623 281.656 26.5649 277.242 26.5068 271.317C26.3325 243.494 25.8678 194.935 25.5193 142.077C25.4612 135.688 25.4612 129.356 25.4032 123.141C25.4032 122.212 25.4032 121.282 25.4032 120.353C25.3451 115.067 25.3451 110.014 25.287 105.076C25.0546 74.117 24.9385 57.5626 24.9385 52.9158C24.9385 42.5185 32.4315 28.578 39.9245 18.1807C42.1318 15.1603 44.2809 12.4303 46.3139 10.2811C46.5462 9.99069 46.8367 9.70026 47.1852 9.40984C49.5667 7.26068 53.2842 5.11152 56.0723 4.41449C63.5653 2.55576 77.5639 0.116171 100.682 0H100.798C123.916 0.174256 137.915 2.55576 145.408 4.41449C148.196 5.11152 151.913 7.26068 154.295 9.40984C154.585 9.70026 154.876 9.99069 155.166 10.2811C157.199 12.5464 159.406 15.2184 161.555 18.1807C169.281 28.578 176.716 42.5185 176.716 52.9158Z" fill="currentColor"/>
<path opacity="0.12" d="M175.09 271.259C175.032 277.242 175.032 281.656 174.974 284.212C174.974 285.896 174.567 289.788 173.754 291.356C173.754 291.415 173.696 291.473 173.696 291.473C172.185 294.319 169.397 299.198 165.796 304.368C165.331 305.007 164.867 305.645 164.402 306.284C164.17 306.575 163.937 306.865 163.705 307.214C163.705 307.214 163.705 307.214 163.705 307.272C163.066 308.143 162.369 309.014 161.672 309.886L161.614 309.944C160.278 311.512 158.884 312.964 157.49 314.474C152.436 319.993 145.815 325.511 142.272 328.357C141.691 328.822 141.052 329.228 140.355 329.577C139.193 330.158 137.973 330.564 136.695 330.738C130.538 331.61 117.992 333.875 100.857 334.049H100.74C83.6633 333.875 71.0588 331.61 64.9018 330.738C63.6239 330.564 62.4041 330.158 61.2424 329.577C60.6034 329.228 59.9645 328.822 59.3256 328.357C55.7824 325.511 49.1606 319.993 44.1072 314.474C42.7131 312.964 41.3191 311.512 39.9831 309.944L39.925 309.886C39.228 309.014 38.531 308.143 37.892 307.272C37.892 307.272 37.892 307.272 37.892 307.214C37.6597 306.923 37.4274 306.633 37.195 306.284C36.7303 305.645 36.2657 305.007 35.801 304.368C32.1416 299.198 29.3535 294.319 27.8433 291.473C27.8433 291.415 27.7852 291.415 27.7852 291.356C26.972 289.73 26.5654 285.896 26.5654 284.212C26.5654 281.598 26.5073 277.184 26.4492 271.259C26.5073 271.201 26.5654 271.201 26.5654 271.201C26.5654 271.201 26.7396 279.1 31.5026 288.917C31.9673 289.904 32.7224 291.124 33.5356 292.402C34.8716 294.377 36.4399 296.526 37.6016 298.152C38.7633 299.779 40.8544 302.393 43.7006 305.413C47.5923 309.595 52.9362 314.474 59.0932 318.54C64.8437 322.258 71.2331 325.22 77.971 326.208C86.161 327.369 93.7121 327.718 100.682 327.776H100.799C107.769 327.718 115.378 327.427 123.51 326.208C130.306 325.22 136.695 322.258 142.388 318.54C148.603 314.474 153.831 309.595 157.78 305.413C160.626 302.393 162.718 299.721 163.879 298.152C165.041 296.526 166.609 294.377 167.945 292.402C168.758 291.124 169.514 289.962 169.978 288.917C174.683 279.159 174.916 271.201 174.916 271.201C174.916 271.201 175.032 271.201 175.09 271.259Z" fill="#00384B"/>
<path opacity="0.5" d="M37.4263 131.157C37.4263 131.157 37.3682 130.866 37.3682 130.518C37.4262 129.705 37.8328 128.601 40.0401 129.647C42.712 130.924 52.8189 148.873 54.6776 160.548C57.0591 175.244 57.4076 182.679 57.4076 208.643C57.4076 234.607 57.4076 251.858 57.4076 251.858C57.4076 251.858 57.8142 258.654 52.4123 256.679L44.2222 224.5L42.6539 208.178L42.015 180.704L37.4263 131.157Z" fill="#7ED9ED"/>
<path d="M53.1683 190.462V203.647L39.8086 206.319C39.8086 206.319 37.1367 203.473 37.1367 200.453C37.1367 197.432 39.8086 186.512 39.8086 186.512L48.8119 185.467L53.1683 190.462Z" fill="currentColor"/>
<path d="M35.9756 201.731L53.1108 203.183C52.9946 223.861 52.8204 245.643 52.7623 254.588C52.7623 256.157 51.1359 257.144 49.6837 256.447C45.8501 254.53 41.4356 250.406 39.9835 248.489C36.6145 243.901 36.0337 234.723 36.0337 225.139C36.1498 222.06 36.0918 215.555 35.9756 201.731Z" fill="#00384B"/>
<path d="M53.2268 178.903C53.2268 181.807 53.2268 185.699 53.1687 190.404L35.8592 189.417C35.685 164.033 35.4526 138.011 35.3945 130.576C35.3945 129.937 36.1496 129.705 36.5562 130.169C40.5641 135.223 53.2268 150.267 53.2268 178.903Z" fill="#00384B"/>
<path opacity="0.7" d="M63.6231 21.4916C63.6231 22.9438 63.5069 24.5121 63.4488 25.9061C63.2165 28.2876 61.3578 31.7727 59.9637 33.5734C49.276 47.6882 40.447 46.1198 40.447 46.1198C40.3889 45.5971 40.0985 43.3898 40.2728 40.5436C40.447 37.2909 41.2021 33.3411 43.5255 29.9721C50.3215 20.2138 54.9103 18.8197 58.6858 17.4257C59.6733 17.0771 63.5069 16.6125 63.6231 18.2389C63.6231 19.1682 63.6231 20.2718 63.6231 21.4916Z" fill="white"/>
<g opacity="0.2">
<g opacity="0.2">
<path opacity="0.2" d="M53.1684 197.258L35.917 196.329L36.0332 195.167L53.1684 196.561V197.258Z" fill="#00384B"/>
</g>
</g>
<path d="M61.8235 327.95C61.8235 328.241 61.7654 328.763 61.5331 328.822C61.2426 328.938 60.778 329.054 60.0809 328.763C58.1641 327.544 55.1437 326.73 43.7589 315.985C40.9128 313.429 37.66 309.247 38.0666 307.33C37.8923 306.749 38.357 306.284 38.8798 305.936C40.2157 305.181 44.1075 304.309 48.0573 306.807C49.8579 307.969 55.1437 311.802 56.7701 314.126C61.6492 321.27 61.4169 324.872 61.8816 327.718C61.8235 327.892 61.8235 327.892 61.8235 327.95Z" fill="#FF7E5A"/>
<path opacity="0.5" d="M61.8228 327.95C61.8228 328.241 61.7647 328.763 61.5324 328.821C61.2419 328.938 60.7773 329.054 60.0802 328.763C58.1634 327.544 55.143 326.73 43.7582 315.985C40.912 313.429 37.6593 308.724 38.0659 307.33C37.8916 306.749 39.5761 305.994 39.9827 305.994C41.8414 306.633 44.978 308.608 49.9734 313.894C57.3502 321.619 60.9515 325.278 61.7647 327.718C61.8228 327.892 61.8228 327.892 61.8228 327.95Z" fill="#F45347"/>
<path opacity="0.5" d="M100.973 261.675V279.855C97.5462 279.739 94.2353 279.333 91.0406 278.81C73.615 275.673 60.1973 267.077 60.1973 267.077C60.3134 266.786 61.4751 263.824 63.45 261.791C64.3794 260.803 65.483 259.99 66.7609 259.816C69.8394 259.351 84.3608 261.5 100.973 261.675Z" fill="#7ED9ED"/>
<path opacity="0.12" d="M30.2829 59.5376C30.2829 83.1203 32.1416 120.76 25.7522 142.019C25.4037 94.1565 25.1133 59.2472 25.1133 52.9159C25.1133 42.5186 32.5482 28.5781 40.0993 18.1808C39.7508 18.8778 30.2829 36.3615 30.2829 59.5376Z" fill="#00384B"/>
<path d="M41.1448 105.018C41.2029 105.657 40.7382 106.238 40.0412 106.354L37.195 106.645L34.9297 106.877L34.9878 104.902V104.612L35.162 100.139L39.1118 99.7326L39.4023 99.6746C40.0412 99.6165 40.6221 100.081 40.7382 100.778L40.9125 102.521L41.1448 105.018Z" fill="currentColor"/>
<path opacity="0.12" d="M41.1448 105.018C41.2029 105.657 40.7382 106.238 40.0412 106.354L37.195 106.645L34.9297 106.877L34.9878 104.902C36.6722 104.379 39.1118 104.554 39.6346 103.741C40.0993 102.927 39.5765 100.546 39.1699 99.7326L39.4603 99.6746C40.0993 99.6165 40.6801 100.081 40.7963 100.778L40.9706 102.521L41.1448 105.018Z" fill="#00384B"/>
<path d="M36.2074 115.88C36.0912 116.287 35.975 116.694 35.8589 117.042C35.5104 118.146 34.7553 119.075 33.7678 119.656L26.5652 122.734C24.1256 124.129 18.4333 124.245 15.8775 123.199C15.8775 123.199 11.5211 119.424 12.2181 116.752L12.5085 115.648L12.9732 113.847C13.0894 113.325 13.3217 112.86 13.5541 112.395C14.193 111.292 15.1224 110.362 16.2841 109.723L35.2199 100.023C35.975 101.243 36.4397 102.521 36.7882 103.857C37.0206 104.728 37.1368 105.657 37.2529 106.529C37.5434 110.188 36.8463 113.557 36.2074 115.88Z" fill="currentColor"/>
<path opacity="0.12" d="M36.2074 115.88C36.0912 116.287 35.975 116.694 35.8589 117.042C35.5104 118.146 34.7553 119.075 33.7678 119.656L26.5652 122.734C24.1256 124.129 18.4333 124.245 15.8775 123.199C15.8775 123.199 11.5211 119.424 12.2181 116.752L12.5085 115.648C13.8445 117.913 16.5164 120.353 21.7441 120.527C28.3659 120.818 33.5355 117.797 36.2074 115.88Z" fill="#00384B"/>
<path d="M63.6237 21.4916C61.6488 24.3959 58.9188 27.881 55.2594 32.1213C49.509 38.8011 44.2813 40.6598 40.1572 40.5436C40.3315 37.2909 41.0866 33.3411 43.41 29.9721C50.2641 20.2138 54.8528 18.8197 58.6284 17.4257C59.6158 17.0771 63.4495 16.6125 63.5656 18.2389C63.6237 19.1682 63.6237 20.2718 63.6237 21.4916Z" fill="white"/>
<path opacity="0.5" d="M164.344 131.157C164.344 131.157 164.402 130.866 164.402 130.518C164.344 129.705 163.937 128.601 161.73 129.647C159.058 130.924 148.951 148.873 147.092 160.548C144.711 175.244 144.362 182.679 144.362 208.643C144.362 234.607 144.362 251.858 144.362 251.858C144.362 251.858 143.956 258.654 149.358 256.679L157.548 224.558L159.116 208.236L159.755 180.762L164.344 131.157Z" fill="#7ED9ED"/>
<path d="M148.603 190.462V203.647L161.962 206.319C161.962 206.319 164.634 203.473 164.634 200.453C164.634 197.432 161.962 186.512 161.962 186.512L152.959 185.467L148.603 190.462Z" fill="currentColor"/>
<path d="M165.854 201.731L148.719 203.183C148.835 223.861 149.009 245.643 149.067 254.588C149.067 256.157 150.694 257.144 152.146 256.447C155.979 254.53 160.394 250.406 161.846 248.489C165.215 243.901 165.796 234.723 165.796 225.139C165.68 222.06 165.738 215.555 165.854 201.731Z" fill="#00384B"/>
<path d="M148.603 178.903C148.603 181.807 148.603 185.699 148.661 190.404L165.97 189.358C166.144 163.975 166.377 137.953 166.435 130.518C166.435 129.879 165.68 129.647 165.273 130.111C161.323 135.223 148.603 150.267 148.603 178.903Z" fill="#00384B"/>
<path opacity="0.7" d="M138.205 21.4916C138.205 22.9438 138.321 24.5121 138.379 25.9061C138.611 28.2876 140.47 31.7727 141.864 33.5734C152.494 47.7462 161.439 46.1779 161.439 46.1779C161.497 45.6552 161.787 43.4479 161.613 40.6017C161.439 37.349 160.684 33.3991 158.36 30.0302C151.506 20.2718 146.976 18.8197 143.2 17.4257C142.213 17.0771 138.379 16.6125 138.263 18.2389C138.205 19.1682 138.147 20.2718 138.205 21.4916Z" fill="white"/>
<path opacity="0.5" d="M61.7077 151.08C61.7077 151.08 60.8364 154.856 65.8898 154.565C72.7439 154.217 82.0376 151.429 101.38 151.429C124.847 151.429 136.347 155.146 138.729 154.681C140.878 154.217 140.936 148.524 140.936 148.524C140.936 148.524 107.479 131.912 103.297 131.912C99.1147 131.912 71.466 138.011 70.0139 139.347C68.5618 140.857 61.7077 151.08 61.7077 151.08Z" fill="#7ED9ED"/>
<path d="M156.503 103.799C156.503 105.018 151.623 114.544 147.557 124.709C144.014 133.596 140.878 143.006 139.658 146.724C139.367 147.653 138.322 148.234 137.334 147.944C133.326 146.782 122.174 144.284 100.915 144.226H100.799C79.5394 144.284 68.387 146.782 64.3791 147.944C63.3917 148.234 62.4042 147.711 62.0557 146.724C60.8359 142.89 57.6993 133.596 54.1561 124.709C50.0901 114.544 45.2109 105.018 45.2109 103.799C45.2109 101.243 47.3601 100.081 47.3601 100.081C47.3601 100.081 71.2332 92.7625 100.741 92.7625C130.306 92.7625 154.237 100.081 154.237 100.081C154.237 100.081 156.503 101.301 156.503 103.799Z" fill="#57AFC8"/>
<path d="M156.503 107.458C156.503 108.678 151.623 118.204 147.557 128.369C144.014 137.256 140.878 146.666 139.658 150.383C139.367 151.312 138.322 151.893 137.334 151.603C133.326 150.441 122.174 147.944 100.915 147.885H100.799C79.5394 147.944 68.387 150.441 64.3791 151.603C63.3917 151.893 62.4042 151.371 62.0557 150.383C60.8359 146.549 57.6993 137.256 54.1561 128.369C50.0901 118.204 45.2109 108.678 45.2109 107.458C45.2109 104.902 47.3601 103.741 47.3601 103.741C47.3601 103.741 71.2913 96.4218 100.857 96.4218C130.422 96.4218 154.353 103.741 154.353 103.741C154.353 103.741 156.503 104.902 156.503 107.458Z" fill="#00384B"/>
<path d="M139.948 328.821C139.89 329.402 140.529 329.751 140.994 329.402C143.433 327.427 150.345 323.826 158.071 316.101C160.801 313.371 162.718 310.815 163.763 307.446C163.937 306.865 163.473 306.4 162.95 306.052C161.614 305.297 157.722 304.426 153.772 306.923C151.972 308.085 146.744 311.919 145.118 314.242C140.238 321.387 140.471 324.988 140.064 327.834C140.006 328.183 139.948 328.531 139.948 328.821Z" fill="#FF7E5A"/>
<path opacity="0.5" d="M139.948 328.821C139.89 329.402 140.529 329.751 140.994 329.402C143.433 327.427 150.345 323.826 158.071 316.101C160.801 313.371 162.718 310.873 163.763 307.446C163.937 306.865 162.253 306.11 161.846 306.11C159.987 306.749 156.851 308.724 151.856 314.01C144.479 321.735 140.877 325.394 140.064 327.834C140.006 328.183 139.948 328.531 139.948 328.821Z" fill="#F45347"/>
<path opacity="0.1" d="M152.726 289.962C150.926 292.402 145.698 295.945 136.695 298.443C126.762 301.231 113.925 302.915 101.03 302.857H100.914C87.9611 302.915 75.0661 301.231 65.2497 298.443C56.1884 295.945 50.9607 292.402 49.1601 289.962C48.4049 288.917 48.2888 288.104 48.3469 287.465C48.463 286.593 49.0439 286.129 49.0439 286.129L49.9152 286.071L91.1558 282.76L100.972 281.947H101.03H101.088L110.905 282.76L152.145 286.071L153.017 286.129C153.017 286.129 153.598 286.593 153.714 287.465C153.598 288.104 153.423 288.917 152.726 289.962Z" fill="#00384B"/>
<path opacity="0.5" d="M100.856 261.675V279.855C104.283 279.739 107.594 279.333 110.789 278.81C128.215 275.673 141.632 267.077 141.632 267.077C141.516 266.786 140.355 263.824 138.38 261.791C137.45 260.803 136.347 259.99 135.069 259.816C131.932 259.351 117.411 261.5 100.856 261.675Z" fill="#7ED9ED"/>
<g opacity="0.4">
<path opacity="0.4" d="M63.9137 268.355H62.752L63.2166 212.767H63.6813L63.9137 268.355Z" fill="#00384B"/>
</g>
<g opacity="0.4">
<path opacity="0.4" d="M50.7864 283.166C48.5792 285.606 44.6875 289.033 42.2479 290.369C39.2274 292.111 36.207 292.867 33.477 292.867C31.5021 292.867 29.7014 292.518 28.3074 292.111C28.1912 291.879 28.075 291.705 27.9589 291.473C27.9589 291.414 27.9008 291.414 27.9008 291.356C27.7846 291.124 27.7265 290.892 27.6104 290.601C30.3985 291.763 36.2651 292.634 41.7251 289.44C44.1066 288.046 48.0564 285.025 50.2056 282.702L50.7864 283.166Z" fill="#00384B"/>
</g>
<path d="M152.843 284.154C152.843 284.154 152.726 284.328 152.494 284.56C150.403 286.826 138.437 297.746 101.785 297.746H100.101C63.4491 297.746 51.4255 286.826 49.3925 284.56C49.1601 284.27 49.0439 284.154 49.0439 284.154C53.4004 279.333 57.2921 273.292 60.1963 269.052C61.4161 267.309 62.5198 265.857 63.391 264.986C63.7396 264.637 64.0881 264.347 64.3785 264.172C68.0379 262.081 75.9956 264.986 100.856 265.218H100.972C125.775 264.986 133.791 262.081 137.45 264.172C137.74 264.347 138.089 264.637 138.437 264.986C139.367 265.915 140.412 267.309 141.632 269.052C144.594 273.292 148.486 279.391 152.843 284.154Z" fill="#00384B"/>
<path opacity="0.1" d="M172.592 64.5329C172.592 88.1156 171.837 116.113 176.135 142.019C176.484 94.1565 176.774 59.2472 176.774 52.9159C176.774 42.5186 169.339 28.5781 161.788 18.1808C162.079 18.8778 172.592 41.3569 172.592 64.5329Z" fill="#00384B"/>
<path d="M160.685 105.018C160.626 105.657 161.091 106.238 161.788 106.354L164.634 106.645L166.9 106.877L166.842 104.902V104.612L166.667 100.139L162.718 99.7326L162.427 99.6746C161.788 99.6165 161.207 100.081 161.091 100.778L160.917 102.521L160.685 105.018Z" fill="currentColor"/>
<path opacity="0.1" d="M160.685 105.018C160.626 105.657 161.091 106.238 161.788 106.354L164.634 106.645L166.9 106.877L166.842 104.902C165.157 104.379 162.718 104.554 162.195 103.741C161.73 102.927 162.253 100.546 162.659 99.7326L162.369 99.6746C161.73 99.6165 161.149 100.081 161.033 100.778L160.859 102.521L160.685 105.018Z" fill="#00384B"/>
<path d="M165.622 115.88C165.738 116.287 165.854 116.694 165.97 117.042C166.319 118.146 167.074 119.075 168.061 119.656L175.264 122.734C177.703 124.129 183.396 124.245 185.952 123.199C185.952 123.199 190.308 119.424 189.611 116.752L189.32 115.648L188.856 113.847C188.74 113.325 188.507 112.86 188.275 112.395C187.636 111.292 186.707 110.362 185.545 109.723L166.609 100.023C165.854 101.243 165.389 102.521 165.041 103.857C164.808 104.728 164.692 105.657 164.576 106.529C164.228 110.188 164.925 113.557 165.622 115.88Z" fill="currentColor"/>
<path opacity="0.1" d="M165.621 115.88C165.737 116.287 165.853 116.694 165.97 117.042C166.318 118.146 167.073 119.075 168.061 119.656L175.263 122.734C177.703 124.129 183.395 124.245 185.951 123.199C185.951 123.199 190.307 119.424 189.61 116.752L189.32 115.648C187.984 117.913 185.312 120.353 180.084 120.527C173.405 120.818 168.235 117.797 165.621 115.88Z" fill="#00384B"/>
<path d="M138.205 21.4916C140.18 24.3959 142.91 27.881 146.57 32.1212C152.32 38.8011 157.548 40.6598 161.672 40.5436C161.498 37.2908 160.743 33.341 158.419 29.9721C151.565 20.2137 147.034 18.7616 143.259 17.3676C142.271 17.019 138.438 16.5544 138.322 18.1807C138.205 19.1682 138.147 20.2718 138.205 21.4916Z" fill="white"/>
<path opacity="0.1" d="M154.47 9.35175C154.005 9.23558 139.658 5.80854 116.017 4.58875C111.312 4.35641 106.201 4.24023 101.031 4.18215H100.915C95.6875 4.24023 90.634 4.35641 85.9291 4.58875C62.2303 5.80854 47.8832 9.23558 47.4766 9.35175C49.8581 7.20259 53.5755 5.05343 56.3636 4.35641C63.7405 2.55576 77.7971 0.116171 100.915 0H101.031C124.149 0.174256 138.148 2.55576 145.641 4.41449C148.371 5.11152 152.088 7.14451 154.47 9.35175Z" fill="#00384B"/>
<g opacity="0.2">
<g opacity="0.2">
<path opacity="0.2" d="M148.719 197.258L165.97 196.329L165.912 195.167L148.777 196.561L148.719 197.258Z" fill="#00384B"/>
</g>
</g>
<g opacity="0.4">
<g opacity="0.4">
<path opacity="0.4" d="M44.7456 87.8251H43.3516L43.7001 62.558H44.2809L44.7456 87.8251Z" fill="#00384B"/>
</g>
</g>
<g opacity="0.4">
<path opacity="0.4" d="M156.909 87.8251H158.419L158.071 62.558H157.374L156.909 87.8251Z" fill="#00384B"/>
</g>
<g opacity="0.4">
<path opacity="0.4" d="M137.856 268.355H139.018L138.553 212.767H138.089L137.856 268.355Z" fill="#00384B"/>
</g>
<g opacity="0.4">
<path opacity="0.4" d="M150.984 283.166C153.192 285.606 157.083 289.033 159.523 290.369C162.543 292.111 165.564 292.867 168.294 292.867C170.269 292.867 172.069 292.518 173.463 292.111C173.58 291.879 173.696 291.705 173.812 291.473C173.812 291.414 173.87 291.414 173.87 291.356C173.986 291.124 174.044 290.892 174.16 290.601C171.372 291.763 165.506 292.634 160.046 289.44C157.664 288.046 153.714 285.025 151.565 282.702L150.984 283.166Z" fill="#00384B"/>
</g>
</svg>
