<?xml version="1.0" encoding="utf-8"?>
<svg viewBox="110.324 211.72 124.7 84.7" width="124.7" height="84.7" xmlns="http://www.w3.org/2000/svg">
  <path d="M49.7 33.1c0 3.8-2.4 8-5.3 10.5l-7 6.2-9.3 7.4c-1.2 1-5 1-6.1 0L5.6 43.5C2.7 41 .3 36.9.3 33v-2.5L1 7.3C1 3.3 4.2 0 8.3 0l33.6.2c4 0 7.2 3.2 7.3 7.2l.4 20.6V33Z" style="fill: rgb(198, 50, 50); stroke: rgb(198, 50, 50);" transform="matrix(1, 0, 0, 1, 110.024414, 211.719757)"/>
  <path d="M25.3 4.7c11.2 0 17.6-.4 18.8 3.7 1 3.1.6 17.2.3 24 0 2.3-1 4.6-2.7 6.3a85.5 85.5 0 0 1-14.2 11.7c-1.6 1-3.7 1-5.1-.2-4-3.3-12.4-10-14.4-13.7-2.7-5-2-8.2-1.8-14.7.2-6.5.7-12.7.7-12.7s-.6-4.4 8-4.4h10.4Z" style="fill: rgb(198, 50, 50); stroke: rgb(198, 50, 50);" transform="matrix(1, 0, 0, 1, 110.024414, 211.719757)"/>
  <path d="M25.4 8.3c9.5 0 14.8-.4 15.9 3 .8 2.7.5 14.6.2 20.3 0 2-.8 4-2.3 5.4a70.4 70.4 0 0 1-12 9.9c-1.4 1-3.1.8-4.3-.2a64 64 0 0 1-12-11.5C8.8 31 9.4 28.5 9.5 23c.2-5.5.6-10.5.6-10.5s-.4-4.2 7-4.2h8.4Z" style="fill: rgb(198, 50, 50); stroke: rgb(198, 50, 50);" transform="matrix(1, 0, 0, 1, 110.024414, 211.719757)"/>
  <path d="M25.4 8.3c9.5 0 14.8-.4 15.9 3 .8 2.7.5 14.6.2 20.3 0 2-.8 4-2.3 5.4a70.4 70.4 0 0 1-12 9.9c-1.4 1-3.1.8-4.3-.2a64 64 0 0 1-12-11.5C8.8 31 9.4 28.5 9.5 23c.2-5.5.6-10.5.6-10.5s-.4-4.2 7-4.2h8.4Z" style="fill: rgb(198, 50, 50); stroke: rgb(198, 50, 50);" transform="matrix(1, 0, 0, 1, 110.024414, 211.719757)"/>
  <path opacity="1" d="M49.7 33.1c0 3.8-2.4 8-5.3 10.5l-6.7 6-9.6 7.6c-1.2 1-5 1-6.1 0L5.6 43.5C2.7 41 .3 36.9.3 33v-2.5c.4-.7.6-1.2.6-1.8.8 3 1.8 7 2.7 8.7 1.5 2.7 17.1 17 20.8 17 3.6.1 4.6-1.3 14.5-8.4 8.8-6.3 10.3-16 10.7-18v5Z" style="fill: rgb(198, 50, 50); stroke: rgb(198, 50, 50);" transform="matrix(1, 0, 0, 1, 110.024414, 211.719757)"/>
  <path d="M2.7 13.2v3.5M22.8 1.9h-8M29.4 1.9h-2.2" stroke-miterlimit="10" stroke-linecap="round" style="fill: rgb(198, 50, 50); stroke: rgb(198, 50, 50);" transform="matrix(1, 0, 0, 1, 110.024414, 211.719757)"/>
  <path d="M25 5.2c11.2 0 17.5-.5 18.8 3.6 1 3.1.5 17.2.3 24 0 2.3-1 4.6-2.7 6.3A85.5 85.5 0 0 1 27 50.8c-1.6 1-3.6 1-5-.2-4-3.2-12.4-10-14.4-13.7-2.7-4.9-2-8.2-1.8-14.7.2-6.5.7-12.7.7-12.7s-.6-4.3 8-4.3H25Z" style="fill: rgb(198, 50, 50); stroke: rgb(198, 50, 50);" transform="matrix(1, 0, 0, 1, 110.024414, 211.719757)"/>
  <path d="M25.4 8.3c9.5 0 14.8-.4 15.9 3 .8 2.7.5 14.6.2 20.3 0 2-.8 4-2.3 5.4a70.4 70.4 0 0 1-12 9.9c-1.4 1-3.1.8-4.3-.2a64 64 0 0 1-12-11.5C8.8 31 9.4 28.5 9.5 23c.2-5.5.6-10.5.6-10.5s-.4-4.2 7-4.2h8.4Z" style="fill: rgb(198, 50, 50); stroke: rgb(198, 50, 50);" transform="matrix(1, 0, 0, 1, 110.024414, 211.719757)"/>
  <path d="M25 8.7c9.6 0 15-.4 16 3.1.8 2.6.5 14.5.2 20.2 0 2-.9 4-2.3 5.4a70.4 70.4 0 0 1-12 10c-1.4.8-3.2.8-4.4-.2a64 64 0 0 1-11.9-11.6C8.4 31.4 9 28.9 9.1 23.4L9.6 13s-.3-4.3 7-4.3h8.5Z" style="fill: rgb(198, 50, 50); stroke: rgb(198, 50, 50);" transform="matrix(1, 0, 0, 1, 110.024414, 211.719757)"/>
  <path d="M2.7 13.2v3.5M9.7 1.9C6.1 1.9 3 4.9 3 8.5v2M22.8 1.9h-8M29.4 1.9h-2.2" stroke-miterlimit="10" stroke-linecap="round" style="fill: rgb(198, 50, 50); stroke: rgb(198, 50, 50);" transform="matrix(1, 0, 0, 1, 110.024414, 211.719757)"/>
  <g transform="matrix(1, 0, 0, 1, 110.058364, 210.892597)">
    <path d="M 16.762 37.146 L 13.588 33.893 C 13.135 33.459 13.135 32.808 13.475 32.266 L 31.614 12.747 C 32.055 12.334 32.76 12.334 33.201 12.747 L 36.489 16 C 36.943 16.434 36.943 17.084 36.489 17.627 L 18.35 37.146 C 17.926 37.493 17.3 37.493 16.876 37.146 L 16.762 37.146 Z" fill="#fff" style="stroke: rgb(198, 50, 50);"/>
  </g>
  <ellipse cx="65.6" cy="81" rx="59.4" ry="3.7" fill="#292A56" fill-opacity=".2" style="" transform="matrix(1, 0, 0, 1, 110.024414, 211.719757)"/>
  <path d="M92.1 72.4c0 4-3 6.7-6.8 6.7s-6.9-2.7-6.9-6.7c0-4.1 3.1-7.4 6.9-7.4 3.8 0 6.8 3.3 6.8 7.4ZM36 72.4c0 4-3 6.7-6.8 6.7s-7-2.7-7-6.7c0-4.1 3.2-7.4 7-7.4 3.7 0 6.8 3.3 6.8 7.4Z" fill="#292A56" transform="matrix(1, 0, 0, 1, 110.024414, 211.719757)"/>
  <path d="M31.3 74.8h3l19.6.1v-7s.2-1.8-2.6-4c-2.8-2.3-2.1-3.8-6.3-4.3-4.2-.4-9.4-1.5-11.5.7-2 2.1-1.5 1.3-2.7 4.5-1.2 3.1-1.7 6-1.7 6l2.2 4Z" fill="#2F5F8E" transform="matrix(1, 0, 0, 1, 110.024414, 211.719757)"/>
  <path d="M116.2 69.8a7 7 0 0 1-.2 2c-.5 1.4-1.7 1.8-3.8 1.9-2.8 0-4.3-1-4.3-1l.6-2.9.4-1.4s7.3-1.8 7.3 1.4Z" fill="#508EBD" transform="matrix(1, 0, 0, 1, 110.024414, 211.719757)"/>
  <path d="M116 71.8c-.5 1.4-1.7 1.8-3.8 1.9-2.8 0-4.4-1-4.4-1l.7-2.9 1.5-1.2s-.6 3.5 2.7 3.5c1.4 0 2.5 0 3.2-.3Z" fill="#2F5F8E" transform="matrix(1, 0, 0, 1, 110.024414, 211.719757)"/>
  <path d="M87.7 75h3l16 .1 3.6-7s.2-1.8-2.6-4c-2.8-2.3-2.1-3.8-6.3-4.3-4.2-.4-9.4-1.5-11.5.7-2 2.2-1.5 1.3-2.7 4.5-1.2 3.1-1.7 6-1.7 6l2.2 4Z" fill="#2F5F8E" transform="matrix(1, 0, 0, 1, 110.024414, 211.719757)"/>
  <path d="M115.9 58.5v.6l-.1.6c-.6 6.5-1.6 9.3-5.4 9.3 0 0-2.6-8.6-10.9-8.6-10.4 0-11.6 8-11.5 12.2V74l.1.8H54v-1.7l-.4-2.3C53 67 50.7 62 44 61.4H41.3c-.3 0-.7 0-1 .2h-.5l-.4.2H39l-.4.2-.3.1-2.3 1.3-.2.2-.7.6-.2.2-.2.2-.4.4-.2.3-.3.4-.3.4-.1.4h-.1l-.4.8-.5 1.1-.1.4-.1.4-.1.3v.3l-.4 1-.3 2.3v1.5H14.2l-.1-.1h-.3l-.8-.2h-.5a42 42 0 0 1-1.3-.4H11l-.2-.2h-.2l-.3-.2-.4-.2h-.2l-.2-.2-.3-.2-.3-.2a4 4 0 0 1-.5-.4l-.2-.1s0-.2-.2-.2V72l-.1-.2-.1-.2-.1-.6v-2.8c0-.2 0-.4.2-.6l.1-.1.5-.6.1-.5v-.5l.1-3.2v-1.4c0-.7.3-1.3.7-1.7 1.3-1.2 3.9-3 10-5.8l1.5-.6c5.7-2.4 9.6-4.2 12-5l2-.7 13.1.6 12.5-11.5s-2.3-1.3-1.8-1.8c.4-.5 2.4-.9 5.7-1.4 8.6-1.3 13.6-.8 20.7-.3a36.6 36.6 0 0 1 12.6 4c4.7 2.4 8.5 5.5 11.2 7.7l1.4 1.3c2.4 2.1 4 4.4 5 6.7.8 2 .6 4 .6 5.7Z" fill="#7ABBDF" transform="matrix(1, 0, 0, 1, 110.024414, 211.719757)"/>
  <path d="M115.8 59.7v.6l-.1.3c-.3 3.3-.4 8-1.2 9.8l.3-1.4c-.5.8-1.8 1.5-2.7.9-.6-.5-1.3-.6-2.1-.6 0 0-1.5-3.2-4.6-5.4-1.6-1-3.5-1.8-5.9-1.9-9.4-.2-11.6 6.5-11.6 10.6l.1 1.6c-.8 0-1.8-.7-1.8-.7-1 1.7-11.6 1.3-13 1.4H53.9c0-.3 0-2-.4-4.2-.8-3.7-3.2-8.6-9.5-9.2H41.2l-1 .2h-.5l-.4.2-.3.1-.5.2h-.3c-.8.4-1.6.8-2.2 1.3l-.3.2-.7.6-.2.2-.2.3-.3.3-.3.3-.2.4c-.1.2-.3.3-.3.5l-.2.3-.1.1-.3.7-.5 1.2-.2.4-.1.3v.3l-.2.3-.2 1-.4 2.3v1.5H14.2l-.3-.1-.8-.2h-.5l-1.3-.3-.3-.2h-.2l-.2-.2h-.3l-.4-.3h-.2l-.2-.2-.3-.2L9 73a4 4 0 0 1-.7-.6L8 72V72l-.1-.1v-.2h-.1l-.1-.7v-2.7c0-.2 0-.5.2-.6l.1-.2.5-.6.1-.5V66l.1-3.1c1 0 2.8.4 4 .8 1.9.6 3 2.5 4 2.7 1 .3 2.1.2 2.8-.4 1-.6 1.5-3.7 3.1-5.4a39 39 0 0 1 14.2-7.2L49 50c1.3-.3 3.1-1 4.1-2 1.9-1.9 5.4-5.2 9-8.2 7.1-7 23.2-5.4 28.4-3.6 10.7 3.5 17.7 10.5 22.5 15.4 2 2 2.4 5 2.8 8Z" fill="#6CACD8" transform="matrix(1, 0, 0, 1, 110.024414, 211.719757)"/>
  <path d="M53.9 74.8v-1.7a19.5 19.5 0 0 0-.4-2.3v.1c.3.5 1.3 1.7 4.6 1.7H88c0 1.2.2 2.1.2 2.3H54ZM14.8 69.7s-4 .2-4.6 0c-.7-.3-1.2-.1-1.9-.7l-.6-.6.2-.7.1-.1.5-.6.2-.5V66c.7 0 1.7.3 2 .6 1 .6 1 1.3 2.7 2.1.8.4 1.4 1 1.4 1Z" fill="#508EBD" transform="matrix(1, 0, 0, 1, 110.024414, 211.719757)"/>
  <path d="m19 74.1-5.3-.6c-.6 0-2.2-.8-3.3-1-1-.1-1.5-.2-1.8-.5l-1-1.3v-2.4l.3-.6.1-.1a9 9 0 0 0 4.2 1.5c2.3.2 4.7.2 5.3.9.7.7 1.5 2.3 2.4 2.9 1 .6-.1 1.2-.8 1.2Z" fill="#77B5DF" transform="matrix(1, 0, 0, 1, 110.024414, 211.719757)"/>
  <path d="M19.7 72.7c-1 0-5.4-.1-7.3-.4A10 10 0 0 1 7.7 70v-.3c.7.7 2.2 1.9 4.7 2.3 2 .3 7.1.4 7.1.4l.2.2Z" fill="#508EBD" transform="matrix(1, 0, 0, 1, 110.024414, 211.719757)"/>
  <path d="M31.3 73.3v1.4H16.5a34.2 34.2 0 0 1-2.3 0l-1.1-.2-.6-.1-1.7-.5-.4-.2-.5-.2-.7-.3L9 73a4 4 0 0 1-1-1l-.2-1v-.8c.8.7 2.4 1.7 4.7 2.1 2 .3 6.4.4 7.3.5l.6.3 1 .2c1 0 7.6-.3 10 0Z" fill="#508EBD" transform="matrix(1, 0, 0, 1, 110.024414, 211.719757)"/>
  <path d="M52.1 73.5c0 5.2-4.2 9-9.4 9s-9.5-3.8-9.5-9V73a9.4 9.4 0 0 1 18.9 0v.5ZM108.3 73.5c0 5.2-4.3 9-9.5 9s-9.5-3.8-9.5-9V73a9.4 9.4 0 0 1 18.9 0v.5Z" fill="#292A56" transform="matrix(1, 0, 0, 1, 110.024414, 211.719757)"/>
  <path d="M103.5 73.5c0 2.6-2.1 4.6-4.7 4.6s-4.7-2-4.7-4.6c0-1 .3-1.8.8-2.5a4.7 4.7 0 0 1 7.8 0c.5.7.8 1.6.8 2.5ZM47.3 73.5c0 2.6-2 4.6-4.6 4.6-2.6 0-4.7-2-4.7-4.6 0-1 .3-1.8.8-2.5a4.7 4.7 0 0 1 8.5 2.5Z" fill="#fff" transform="matrix(1, 0, 0, 1, 110.024414, 211.719757)"/>
  <path d="M62 36.9c-.1.4-.3.8-.6 1.1l-1.5 1.5c-3.4 3.2-8 7-9.4 8.1a6.3 6.3 0 0 1-3.5 1.5c-1.6 0-9.8-.4-11.7-1.4 0 0 11-6.5 19.6-11l3.8-1.8h.7c.3 0 3 0 2.6 2ZM78.2 49.8H59l-1.7-2s2-3 5.7-6a24 24 0 0 1 15.3-5.5l-.1 13.5ZM80.6 36.3a24 24 0 0 1 15.3 5.5c2 1.7 4 4 5.4 5.6.7 1 0 2.3-1.2 2.4H80.7l-.1-13.5Z" fill="#292A56" transform="matrix(1, 0, 0, 1, 110.024414, 211.719757)"/>
  <path d="M29.5 58.8c-1.4.8-2.6 1.4-4.2 2l-.5.3-3.5 1-1.7.1c-.8 0-1.5-.1-2-.8l-.3-.4c-.5-.6-.2-1 .6-1.4a51.7 51.7 0 0 1 4.8-2.3c2-.7 3.3-.4 4.2-.3a6 6 0 0 1 2.6.8c.3.3.3.8 0 1Z" fill="#fff" transform="matrix(1, 0, 0, 1, 110.024414, 211.719757)"/>
  <path d="M77.9 54.8H67c-4.7 0-15.6 0-23.7 1.6-.2 0-.3-.4 0-.5a90 90 0 0 1 27.3-3H78s23 .3 27.7 1.9h-28Z" fill="#629FCC" transform="matrix(1, 0, 0, 1, 110.024414, 211.719757)"/>
  <path d="M29.8 56.4h-.1v-.2c2-.9 5.3-2.2 9.3-3.5 2-.7 3.8-1 5.2-1.4 1.5-.3 2.7-.6 3.5-1h.2l-.1.2c-.8.5-2 .7-3.6 1L39 53a98 98 0 0 0-9.2 3.6ZM55.5 71.7a29.6 29.6 0 0 1-.7-5.9l.2.1a25.6 25.6 0 0 0 .6 5.8ZM54.8 63.3l-.1-.2v-1.3c0-4.8.4-8.3.5-10 0 0 .1-.2.2-.1v.1a81 81 0 0 0-.6 10v1.5Z" fill="#5C8CB6" transform="matrix(1, 0, 0, 1, 110.024414, 211.719757)"/>
  <path d="M78.5 72.7h-.8l-.1-.2h1v.2ZM76.5 72.7h-2.7v-.2H76.6l-.1.2ZM72.6 72.7H54.4l-.1-.2h18.5s0 .2-.2.2Z" fill="#4777A3" transform="matrix(1, 0, 0, 1, 110.024414, 211.719757)"/>
  <path d="M75.2 55.4h-4.5c-.3 0-.6-.3-.6-.6s.3-.6.6-.6h4.5c.3 0 .5.3.5.6 0 .4-.2.6-.5.6ZM101.3 55.4h-4.5c-.3 0-.5-.3-.5-.6s.2-.6.5-.6h4.5c.3 0 .5.3.5.6 0 .4-.2.6-.5.6Z" fill="#5093BF" transform="matrix(1, 0, 0, 1, 110.024414, 211.719757)"/>
  <path d="M74.9 55h-4.5c-.3 0-.5-.2-.5-.5s.2-.6.5-.6h4.5c.3 0 .5.3.5.6s-.2.6-.5.6ZM101 55h-4.5c-.2 0-.5-.2-.5-.5s.3-.6.5-.6h4.5c.3 0 .6.3.6.6s-.3.6-.6.6Z" fill="#2D2F5A" transform="matrix(1, 0, 0, 1, 110.024414, 211.719757)"/>
  <path d="M14.6 61.3h-1.2c-2.5-.2-3.7-.7-3.8-.7v-.2h.1a15.4 15.4 0 0 0 5.6.6V61.3h-.7Z" fill="#5C8CB6" transform="matrix(1, 0, 0, 1, 110.024414, 211.719757)"/>
  <path d="M62.3 49.7c0 .5 0 1-.4 1.5l-.5.7-.4.2c-.4.1-1.6.3-2.8 0a2 2 0 0 1-1.5-1.3v-.2l-.2-.4H56c-.3 0-.4-.2-.4-.5l.2-1.2.3-.3 1-.1s.4-.6 1.8-.8c1-.2 2-.3 2.5.2.2.4 1 1.1 1 2.2Z" fill="#77B5DF" transform="matrix(1, 0, 0, 1, 110.024414, 211.719757)"/>
  <path d="M62.3 49.7c0 .5 0 1-.4 1.5-.7.4-4.1.8-4.2.4-.2-.6-.1-1.1.2-1.4.3-.3 1.7-1 3.2-1 .6 0 1 .3 1.2.5Z" fill="#6CACD8" transform="matrix(1, 0, 0, 1, 110.024414, 211.719757)"/>
  <path d="M62.3 49.7c0 .5 0 1-.4 1.5l-.5.7-.4.2c-.4.1-1.6.3-2.8 0a2 2 0 0 1-1.5-1.3v-.2c.2.2 1 .8 2.7.7 1.3 0 2.4-1 3-1.6Z" fill="#5093BF" transform="matrix(1, 0, 0, 1, 110.024414, 211.719757)"/>
  <path d="M32 63.3c2.2-1.8 7.7-5.5 15.9-2.8.2 0 .3-.1.1-.3-2.8-1.8-10.5-5.6-16.1 3-.1 0 0 .3.2.1ZM90.8 63.3c2-1.8 7.6-5.5 15.8-2.8.1 0 .2-.1.1-.3-2.8-1.8-10.5-5.6-16.2 3 0 0 .1.3.3.1Z" fill="#7ABBDF" transform="matrix(1, 0, 0, 1, 110.024414, 211.719757)"/>
  <path d="m51 45-.1-.1v-.2l.7-.8h.2v.2l-.7.8ZM52.8 42.6l-.1-.2.8-1.3s.1-.1.2 0v.1l-.7 1.4h-.2ZM47.7 46.8h-.1v-.2l1.7-2.3h.2a52.9 52.9 0 0 1-1.7 2.5h-.1ZM50.9 42.3c-.1 0-.2-.1-.1-.2l1-1.9h.2v.2l-1 1.9H51ZM61.4 38l-1.5 1.5c2.7-5.1-4.5-3-5-2.8l3.8-1.8h.8c.2 0 2.8 0 2.5 2 0 .4-.3.8-.6 1.1ZM68.6 47.4l-.1-.2 3.3-4.2h.2v.2l-3.3 4.1-.1.1ZM73.6 41.1c-.1 0-.1-.2 0-.2l.9-1.3h.2v.2l-1 1.2v.1ZM71.1 48v-.2l.2-.4h.2v.2l-.2.4H71ZM72 47h-.1v-.2l.6-.8h.2v.2l-.6.8H72ZM73.2 45.5H73v-.2l1.8-2.3c0-.1.1-.1.2 0v.1l-1.8 2.3h-.1ZM76.7 41c-.1 0-.1-.2 0-.2l.4-.6h.2v.2l-.4.5h-.2ZM82.4 47.4h-.1v-.2l3.3-4.2h.2v.2l-3.3 4.1-.1.1ZM87.4 41.1l-.1-.2 1-1.3h.2v.2l-1 1.2-.1.1ZM85 48h-.2v-.2l.3-.4h.2v.2l-.3.4ZM85.7 47l-.1-.2.6-.8h.2v.2l-.6.8ZM87 45.5h-.2v-.2l1.9-2.3c0-.1.1-.1.2 0v.1L87 45.4h-.2ZM90.5 41l-.1-.2.4-.6h.3v.2l-.5.5h-.1Z" fill="#343C60" transform="matrix(1, 0, 0, 1, 110.024414, 211.719757)"/>
  <path d="M46.6 71a23.5 23.5 0 0 0-7.8 0 4.7 4.7 0 0 1 7.8 0ZM102.7 71a23.5 23.5 0 0 0-7.8 0 4.7 4.7 0 0 1 7.8 0Z" fill="#C1BDCC" transform="matrix(1, 0, 0, 1, 110.024414, 211.719757)"/>
  <path d="M23.9 54.2c-2.7.4-4 .2-4.4-.3l1.5-.6 12-5v.6c.6 1.3-.2 4-9.1 5.3Z" fill="#89C9E4" transform="matrix(1, 0, 0, 1, 110.024414, 211.719757)"/>
  <path d="M31.7 70.9a17.8 17.8 0 0 0-.4 3.4l-1 .2-1.8-.6s-1.2-.8.3-.8 2.9-2.2 2.9-2.2Z" fill="#508EBD" transform="matrix(1, 0, 0, 1, 110.024414, 211.719757)"/>
  <path d="M57.8 42.4h-.1V42a72 72 0 0 1 6.4-5v.2c-3.3 2.3-6.2 5-6.2 5h-.1Z" fill="#94CDEE" transform="matrix(1, 0, 0, 1, 110.024414, 211.719757)"/>
  <path d="M76.8 70.8c-4.7 0-11 0-16.8-.5-.4 0-.5-.6-.1-.8a43.2 43.2 0 0 1 26.6-.5s-2.6 1.7-9.7 1.8Z" fill="#7ABBDF" transform="matrix(1, 0, 0, 1, 110.024414, 211.719757)"/>
  <path d="M24.8 61c-1 .4-2.7 1-3.5 1l-1.8.2c-.7 0-1.5-.1-2-.8l-.2-.4c-.5-.6-.2-1 .5-1.4l3.5-1.7c.1 1.2.9 2.8 3.5 3.2Z" fill="#D5E5F4" transform="matrix(1, 0, 0, 1, 110.024414, 211.719757)"/>
  <path d="M79.3 62.3h-.1v-11h.2v11h-.1ZM103 60.7l-.1-.1.3-2.8.2-.1v.1a48.2 48.2 0 0 0-.4 3ZM103.5 56.6l-.1-.2c.5-4.4-1.2-6-1.2-6V50h.1c.1.1 1.8 1.8 1.3 6.4Z" fill="#5C8CB6" transform="matrix(1, 0, 0, 1, 110.024414, 211.719757)"/>
  <path d="M115.7 60v.3l-.5 8.5c0 .4.1 1.7-2.3 1-3-.7-3.8-1.6-3.7-2.6 0-.8.8-1.5 1.6-2.2 1.2-.9 2.5-1.5 2.6-1.6l2.3-3.4Z" fill="#6CACD8" transform="matrix(1, 0, 0, 1, 110.024414, 211.719757)"/>
  <path d="M115.9 58.5v.6c-.7 0-1.2 0-1.2-.4 0-1.2-2.2-2.9-1.8-4.1.3-1.2 2.3-1.7 2.3-1.7.9 1.9.7 3.8.7 5.6Z" fill="#F47A59" transform="matrix(1, 0, 0, 1, 110.024414, 211.719757)"/>
  <path d="M115.7 60.3v.3l-.5 8.2c0 .3 0 1.2-.7 1.6-.4.2-.9.3-1.7.1l-.7-.2c-.6-.5-1.4-1-2.1-1 0 0-1.5-3.2-4.6-5.3 0 0 3 .8 5.4 1 1 .2 1.7.2 2.2 0 1.8-.5 2.7-4.6 2.7-4.7Z" fill="#5FA1CF" transform="matrix(1, 0, 0, 1, 110.024414, 211.719757)"/>
  <path d="M110.3 46.1c-2.1-.3-6.5-3.5-9-5.3l-4.4-3a.3.3 0 0 1 .1-.5l.7-.2c4.7 2.5 8.5 5.6 11.2 7.8l1.4 1.2Z" fill="#292A56" transform="matrix(1, 0, 0, 1, 110.024414, 211.719757)"/>
  <path d="M 18.413 37.081 L 15.32 33.685 C 14.879 33.232 14.869 32.553 15.186 31.987 L 32.251 11.609 C 32.667 11.177 33.342 11.177 33.771 11.609 L 36.972 15.005 C 37.413 15.458 37.424 16.137 36.998 16.703 L 19.933 37.081 C 19.532 37.444 18.933 37.444 18.521 37.081 L 18.413 37.081 Z" fill="#fff" style="" transform="matrix(-0.181288, 0.98343, -0.98343, -0.181288, 164.817341, 214.742534)"/>
</svg>