<svg width="215" height="147" viewBox="0 0 215 147" fill="none" xmlns="http://www.w3.org/2000/svg"><path d="M85 57.2c.1 6.5-4 13.8-9 18L64 86 47.9 98.6c-2.1 1.9-8.5 1.9-10.6 0L9 75C4.1 70.8 0 63.7 0 57v-4.3l1.2-40.1C1.2 5.6 6.7 0 13.7 0l58 .4c7 0 12.4 5.4 12.5 12.4l.8 35.5v8.9Z" fill="#3BAF71"/><path d="M43 8.2c19.4 0 30.3-.8 32.5 6.3 1.6 5.3 1 29.6.6 41.3-.2 4-1.9 8-4.8 11a147.5 147.5 0 0 1-24.5 20 7.4 7.4 0 0 1-8.8-.2C31 80.9 16.6 69.3 13.2 63c-4.6-8.5-3.5-14.2-3-25.4.3-11.2 1.1-21.9 1.1-21.9s-1-7.5 13.8-7.5h18Z" fill="#44C86A"/><path d="M43.2 14.3c16.4 0 25.6-.6 27.4 5.3 1.4 4.5.9 25.1.5 35-.1 3.4-1.6 6.7-4 9.2a121.4 121.4 0 0 1-20.8 17 6.3 6.3 0 0 1-7.5-.2C33 75.8 21.2 66 18.3 60.6c-3.9-7.1-3-11.5-2.6-21 .3-9.5.9-18 .9-18s-.6-7.3 12-7.3h14.6Z" fill="#54D174"/><path d="M43.2 14.3c16.4 0 25.6-.6 27.4 5.3 1.4 4.5.9 25.1.5 35-.1 3.4-1.6 6.7-4 9.2a121.4 121.4 0 0 1-20.8 17 6.3 6.3 0 0 1-7.5-.2C33 75.8 21.2 66 18.3 60.6c-3.9-7.1-3-11.5-2.6-21 .3-9.5.9-18 .9-18s-.6-7.3 12-7.3h14.6Z" fill="#54D174"/><path opacity=".5" d="M85 57.2c.1 6.5-4 13.8-9 18L64.3 85.7 48 98.6c-2.1 1.9-8.5 1.9-10.6 0L9 75C4.1 70.8 0 63.7 0 57v-4.3c.6-1 .9-2 .9-3 1.5 5 3.2 12 4.8 14.9C8.2 69.3 35.1 93.8 41.4 94c6.3.2 8.1-2.3 25-14.4 15.2-11 17.9-27.8 18.6-31.3v8.9Z" fill="#2E9E5E"/><path d="m4.1 22.8-.2 6M38.8 3.3h-14M50 3.3h-3.6" stroke="#54D174" stroke-miterlimit="10" stroke-linecap="round"/><path d="M42.5 8.9c19.4 0 30.3-.7 32.4 6.3 1.7 5.4 1 29.7.6 41.3-.2 4-1.8 8-4.8 11a147.5 147.5 0 0 1-24.5 20.1 7.4 7.4 0 0 1-8.8-.3c-7-5.6-21.3-17.3-24.7-23.6C8 55.2 9.2 49.5 9.6 38.4c.4-11.3 1.2-22 1.2-22S9.8 9 24.6 9h18Z" fill="#44C86A"/><path d="M43.2 14.3c16.4 0 25.6-.6 27.4 5.3 1.4 4.5.9 25.1.5 35-.1 3.4-1.6 6.7-4 9.2a121.4 121.4 0 0 1-20.8 17 6.3 6.3 0 0 1-7.5-.2C33 75.8 21.2 66 18.3 60.6c-3.9-7.1-3-11.5-2.6-21 .3-9.5.9-18 .9-18s-.6-7.3 12-7.3h14.6Z" fill="#54D174"/><path d="M42.6 15c16.4 0 25.7-.6 27.5 5.3 1.4 4.6.8 25.1.4 35 0 3.4-1.5 6.7-4 9.2a121.4 121.4 0 0 1-20.8 17.1 6.3 6.3 0 0 1-7.4-.3c-6-4.7-17.7-14.6-20.5-20-4-7.1-3-11.4-2.6-21 .3-9.4.8-18 .8-18S15.5 15 28 15h14.6Z" fill="#54D174"/><path d="m4.1 22.8-.2 6M16.2 3.3C10 3.3 4.6 8.4 4.4 14.7V18M38.8 3.3h-14M50 3.3h-3.6" stroke="#54D174" stroke-miterlimit="10" stroke-linecap="round"/><path d="m66.2 32.9-5-5.1c-.7-.7-1.8-.7-2.4 0L36.7 52.7l-9-8.9c-.7-.7-1.7-.7-2.4 0L21 48.7c-.6.7-.5 1.8.1 2.5l15.3 15.3c.6.6 1.5.7 2.1.2l.3-.2 27.5-31c.7-.8.6-2 0-2.6Z" fill="#44C86A"/><path d="m35.8 63.2-5-5c-.8-.7-.8-1.9-.2-2.6l27.6-31c.6-.7 1.7-.7 2.4 0l5 5c.7.8.7 2 .1 2.6l-27.5 31c-.6.7-1.7.7-2.4 0Z" fill="#fff"/><path d="m38.2 63.2 4.3-4.8c.6-.7.5-1.9-.1-2.5L27 40.6c-.7-.7-1.7-.7-2.4 0l-4.3 4.8c-.6.7-.5 1.9.1 2.5l15.3 15.3c.7.7 1.7.7 2.4 0Z" fill="#fff"/><ellipse cx="112.6" cy="139.7" rx="102.4" ry="6.3" fill="#292A56" fill-opacity=".2"/><path d="M158.3 124.8c0 7-5.3 11.5-11.8 11.5-6.5 0-11.8-4.5-11.8-11.5S140 112 146.5 112c6.5 0 11.8 5.7 11.8 12.7ZM61.5 124.8c0 7-5.3 11.5-11.8 11.5-6.5 0-11.8-4.5-11.8-11.5S43.2 112 49.7 112c6.5 0 11.8 5.7 11.8 12.7Z" fill="#292A56"/><path d="M53.4 129h5.2l33.8.2v-12s.4-3.2-4.5-7c-4.9-4-3.7-6.6-11-7.4-7.2-.8-16.1-2.5-19.6 1.2s-2.7 2.2-4.8 7.7c-2 5.5-2.9 10.3-2.9 10.3l3.8 7Z" fill="#987A00"/><path d="M199.8 120.3a12 12 0 0 1-.4 3.5c-.8 2.5-2.8 3.1-6.4 3.2-4.9.2-7.6-1.7-7.6-1.7l1.2-4.9.6-2.4s12.6-3.2 12.6 2.3Z" fill="#D59F14"/><path d="M199.4 123.8c-.9 2.5-2.9 3.1-6.5 3.2-4.8.2-7.5-1.7-7.5-1.7l1.2-4.9c1.3-1.2 2.6-2.1 2.6-2.1s-1 6.1 4.5 6.1c2.5 0 4.4 0 5.7-.6Z" fill="#987A00"/><path d="M150.7 129.2h5.3l27.6.3 6-12s.4-3.2-4.4-7c-5-3.8-3.7-6.5-11-7.3-7.2-.8-16.1-2.6-19.7 1.1-3.5 3.8-2.6 2.3-4.7 7.7-2 5.5-3 10.4-3 10.4l3.9 6.8Z" fill="#987A00"/><path d="M199.2 101v.9l-.1 1c-1 11.2-2.7 16.1-9.3 16.1 0 0-4.5-15-18.7-15-18 0-20.1 14-20 21.2l.2 2.6.1 1.4h-59v-2.6l-.1-.4-.5-4c-1.2-6.5-5-15.1-16.6-16.1h-4.5c-.6 0-1.2 0-1.7.2l-.5.1-.4.1-.8.2c-.2 0-.4 0-.6.2l-.7.3-.5.1c-1.5.6-2.8 1.4-4 2.2l-.3.3c-.5.3-1 .7-1.3 1.1l-.3.4-.4.3-.6.7c0 .2-.2.3-.4.5v.1l-.4.6-.5.7-.3.6-.2.2-.6 1.2-.8 2v.1l-.3.6-.2.6-.1.5-.2.5-.4 1.7-.6 4v.6l-.1.7V128.8H24.8l-.7-.1h-.3l-.3-.1-1.5-.2-.5-.1H21l-2.1-.6-.5-.2-.4-.2-.4-.2s-.3 0-.3-.2c-.4 0-.5-.2-.8-.3 0 0-.2 0-.3-.2l-.3-.1a6 6 0 0 1-.6-.4l-.5-.3a7 7 0 0 1-1.2-1l-.3-.3-.2-.2v-.2l-.1-.2-.1-.2c-.2-.3-.3-.6-.3-1v-4.8c0-.4.2-.8.4-1l.2-.3.8-1 .3-.9v-1l.1-5.3v-2.5a4 4 0 0 1 1.3-2.8c2.2-2.1 6.6-5.3 17.2-10l2.5-1.1c10-4.2 16.7-7.2 20.8-8.7l3.3-1.1 22.8.9 21.4-19.7s-3.8-2.2-3.1-3.1c.7-.9 4.2-1.6 10-2.5 14.7-2.2 23.4-1.3 35.6-.5a63.2 63.2 0 0 1 21.7 6.8c8.1 4.3 14.7 9.6 19.4 13.4l2.4 2.1c4 3.8 6.8 7.7 8.5 11.6 1.4 3.5 1.1 6.8 1 10Z" fill="#F7C85F"/><path d="M199 102.9v1.6c-.5 5.8-.7 14-2.1 17l.5-2.5c-.9 1.3-3 2.5-4.6 1.5-1.2-.8-2.3-1-3.7-1 0 0-2.5-5.5-8-9.3-2.6-1.8-6-3.2-10-3.3-16.2-.3-20.2 11.2-20 18.3l.1 2.7c-1.4 0-3.1-1.1-3.1-1.1-1.7 2.9-20 2.1-22.3 2.4H92.2c0-.6 0-3.6-.7-7.2v-.1c-1.3-6.4-5.5-14.7-16.4-15.8h-4.6c-.5 0-1.1.1-1.6.3h-.5l-.5.2-.7.1-.6.2-.8.3a16.8 16.8 0 0 0-4.4 2.4l-.4.2-1.2 1.1-.4.4-.3.4-.6.6-.4.6-.5.6c0 .3-.3.5-.5.8 0 .2-.2.3-.3.5l-.1.3-.6 1.1-.9 2v.1l-.2.6-.2.6-.2.6-.1.4-.5 1.8-.6 4v2.6H25.6l-.8-.1H24.1l-.3-.1h-.3l-1.5-.3h-.5l-.3-.1H21l-2.1-.6c-.1 0-.3 0-.5-.2l-.4-.2-.4-.1-.3-.2-.8-.3-.3-.2-.3-.2-.6-.3c-.1-.1-.3-.3-.5-.3a7 7 0 0 1-1-.8l-.2-.2-.3-.3-.2-.3v-.2l-.1-.2-.1-.2c-.2-.2-.3-.6-.3-1v-4.7c0-.4.2-.8.4-1.1l.2-.3.8-1c.2-.2.3-.5.3-.8v-1l.1-5.3c1.9 0 4.8.7 6.8 1.3 3.4 1.1 5.2 4.3 7 4.8 1.6.4 3.7.2 5-.7 1.5-1.1 2.5-6.4 5.3-9.4 2.7-3 14-9.6 24.4-12.4 7.1-2 16.1-4.3 21-5.6 2.3-.6 5.4-1.8 7.1-3.6 3.2-3.1 9.3-9 15.4-14 12.4-12 40.2-9.3 49.2-6.3 18.4 6.1 30.4 18.2 38.7 26.5 3.6 3.5 4.2 8.8 4.8 14Z" fill="#F2C037"/><path d="M92 126c0-1.2 0-2.5-.3-4v.1l.1.2c.5.9 2.2 2.9 7.9 2.9H151c0 2.1.2 3.7.3 4H92.1L92 126ZM25 120.3s-7 .2-8-.2c-1.3-.4-2 0-3.3-1.1l-1-1v-.1c0-.4.2-.8.4-1l.2-.3.8-1c.1-.3.3-.6.3-1v-.8c1.3 0 3 .6 3.6 1 1.5 1 1.4 2.3 4.5 3.7 1.4.7 2.5 1.8 2.5 1.8Z" fill="#D59F14"/><path d="M32.3 127.8c-1.2 0-8.4-1-9.3-1-1 0-3.7-1.5-5.7-1.7-1.8-.3-2.5-.4-3-1-.3-.2-1-1.1-1.6-2.1v-4.2c0-.3.1-.7.4-1l.1-.3s3.1 2.3 7.2 2.6c4 .4 8 .3 9.2 1.6 1.2 1.3 2.6 4 4.1 5 1.8 1.1-.1 2.1-1.4 2.1Z" fill="#F2C037"/><path d="M33.4 125.4c-1.6 0-9.2-.2-12.6-.8-4-.7-6.7-2.4-8.2-3.7v-.5a15 15 0 0 0 8.3 4c3.4.5 12.2.7 12.2.7l.3.3Z" fill="#C69D47"/><path d="M53.5 126.5c-.2 1.4-.1 2.4-.1 2.4H27.9a59.8 59.8 0 0 1-4-.2c-.7 0-1.3-.2-2-.3l-.9-.1-3-1-.7-.2c-.3 0-.5-.2-.7-.3l-1.3-.6-.5-.4a7 7 0 0 1-1.7-1.5v-.3c-.3-.4-.4-.9-.4-1.4V121a16 16 0 0 0 8.2 3.7c3.3.5 11 .7 12.6.8l.9.5c.4.3 1 .4 1.8.4 1.8 0 13-.5 17.3-.1v.2Z" fill="#D59F14"/><path d="M89.4 126.8c0 9-7.4 15.5-16.4 15.5-9 0-16.3-6.6-16.3-15.5v-.9a16.3 16.3 0 0 1 32.7.9ZM186.1 126.8c0 9-7.3 15.5-16.3 15.5s-16.3-6.6-16.3-15.5v-.9a16.3 16.3 0 0 1 32.6.9Z" fill="#292A56"/><path d="M177.9 126.8a8 8 0 0 1-8 7.9 8 8 0 0 1-8.2-7.9 8 8 0 0 1 14.8-4.3 7.8 7.8 0 0 1 1.4 4.3ZM81 126.8a8 8 0 0 1-8 7.9 7.8 7.8 0 0 1-6.8-12.2 8 8 0 0 1 14.9 4.3Z" fill="#fff"/><path d="M106.3 63.6c-.1.7-.5 1.4-1 2l-2.6 2.5C96.9 73.6 89 80 86.6 82a10.8 10.8 0 0 1-6.2 2.5c-2.7 0-16.8-.6-20.2-2.4 0 0 19-11 33.9-19 2.3-1.2 4.5-2 6.5-3h1.3c.6-.1 5-.2 4.4 3.4ZM134.2 85.8h-33l-3-3.4s3.4-5 9.8-10.3a41.4 41.4 0 0 1 26.4-9.5l-.2 23.2ZM138.4 62.6c12.3.2 20.6 4.8 26.4 9.5 3.6 2.9 7 6.8 9.3 9.7 1.2 1.6 0 4-2 4h-33.4l-.3-23.2Z" fill="#292A56"/><path d="M50.3 101.4A58.2 58.2 0 0 1 43 105l-.9.3c-1.8.7-4.7 1.5-6 1.7 0 0-1.8.3-3 .3-1.3 0-2.6-.3-3.6-1.5l-.4-.5c-.8-1.2-.2-1.8 1-2.5a89 89 0 0 1 8.4-4c3.3-1.1 5.7-.6 7.2-.5 2 .2 3.5.9 4.5 1.5.6.4.6 1.3 0 1.6Z" fill="#fff"/><path d="M133.8 94.5H115c-8.1 0-26.9 0-41 2.7-.3 0-.5-.6 0-.7 6.2-2 20.2-5.4 47.1-5.4l13 .1s39.6.6 47.8 3.3h-48.1Z" fill="#D8AC3E"/><path d="M50.7 97.3V97c3.5-1.5 9-4 16-6.2 3.5-1.1 6.5-1.7 8.9-2.3 2.6-.6 4.7-1 6-1.8l.3.1v.3c-1.5.8-3.6 1.2-6.2 1.9-2.4.5-5.4 1.2-9 2.3a169 169 0 0 0-16 6.1Z" fill="#C69D47"/><path d="m95.2 123.7-.2-.2a51 51 0 0 1-1-10 44.1 44.1 0 0 0 1.2 10.2ZM93.9 109.1c-.1 0-.2 0-.2-.2v-2.2c0-8.4.7-14.5 1-17.4 0-.1 0-.2.2-.2l.1.2c-.3 3-1 9-1 17.4v2.2l-.1.2Z" fill="#D59F14"/><path d="M134.9 125.3h-1.5l-.1-.2.1-.2h1.5l.1.2-.1.2ZM131.3 125.3h-4.5c-.1 0-.2 0-.2-.2 0 0 0-.2.2-.2h4.5c.1 0 .2 0 .2.2 0 .1 0 .2-.2.2ZM124.7 125.3H93.2c-.1 0-.2 0-.2-.2l.2-.2h31.5c.1 0 .2 0 .2.2 0 .1 0 .2-.2.2Z" fill="#987A00"/><path d="M129 95.5h-7.7c-.5 0-1-.4-1-1 0-.5.5-1 1-1h7.8c.5 0 .9.5.9 1 0 .6-.4 1-1 1ZM174.1 95.5h-7.7c-.5 0-1-.4-1-1 0-.5.5-1 1-1h7.7c.6 0 1 .5 1 1 0 .6-.4 1-1 1Z" fill="#D59F14"/><path d="M128.6 95h-7.8c-.5 0-.9-.5-.9-1 0-.6.4-1 1-1h7.7c.5 0 1 .4 1 1 0 .5-.5 1-1 1ZM173.7 95h-7.8c-.5 0-.9-.5-.9-1 0-.6.4-1 1-1h7.7c.5 0 .9.4.9 1 0 .5-.4 1-1 1Z" fill="#2D2F5A"/><path d="M24.7 105.7h-2.2c-4.3-.4-6.4-1.2-6.5-1.2v-.3s0-.2.2 0a26.6 26.6 0 0 0 9.6 1l.1.3-.1.2h-1.1Z" fill="#C69D47"/><path d="M107 85.8c0 .7-.2 1.6-.8 2.6l-1 1.2a1 1 0 0 1-.5.3c-.8.2-3 .5-5 0a3.4 3.4 0 0 1-2.5-2.3l-.1-.3-.2-.8h-1c-.3 0-.6-.3-.5-.7l.3-2c0-.4.2-.6.5-.6l1.6-.3s.7-1 3.2-1.4c1.7-.3 3.5-.4 4.3.4.3.7 1.6 2 1.6 3.9Z" fill="#F7C85F"/><path d="M107 85.8c0 .7-.2 1.6-.8 2.6-1.3.6-7.1 1.3-7.3.6-.3-1-.1-1.9.4-2.5.5-.5 3-1.6 5.5-1.6 1 0 1.7.4 2.1.9Z" fill="#F2C037"/><path d="M107 85.8c0 .7-.2 1.6-.8 2.6l-1 1.2a1 1 0 0 1-.5.3c-.8.2-3 .5-5 0a3.4 3.4 0 0 1-2.5-2.3l-.1-.3c.4.3 2 1.3 4.7 1.2 2.3 0 4.2-1.7 5.1-2.7Z" fill="#987A00"/><path d="M54.8 109.2a27 27 0 0 1 27.2-4.8c.3.1.5-.3.3-.5-4.9-3.1-18.2-9.7-28 5 0 .2.2.5.5.3ZM156 109.2a27 27 0 0 1 27.2-4.8c.3.1.5-.3.3-.5-4.9-3.1-18.2-9.7-28 5-.1.2.2.5.5.3Z" fill="#F9CD75"/><path d="M87.4 77.5h-.2V77l1.2-1.3h.4v.4l-1.3 1.4h-.1ZM90.5 73.5h-.1c-.1-.1-.2-.3 0-.4l1.3-2.3s.2-.2.3 0c.1 0 .2.2.1.3l-1.3 2.3-.3.1ZM81.6 80.7h-.1c-.1 0-.1-.3 0-.4l3-3.8c.1-.1.3-.2.4-.1 0 .1.1.3 0 .4l-3 3.9h-.3ZM87.2 73h-.1c-.1 0-.2-.3-.1-.4.7-1 1.2-2.2 1.7-3.2 0-.1.2-.2.4-.1v.3c-.4 1.1-1 2.2-1.7 3.3l-.2.1ZM105.3 65.5c-.8.8-1.6 1.7-2.6 2.5 4.7-8.7-7.8-5-8.6-4.8 2.3-1.2 4.6-2 6.6-3h1.3c.4 0 4.9-.1 4.3 3.3 0 .8-.5 1.5-1 2ZM117.7 81.8h-.1v-.5l5.7-7.2h.4v.3l-5.7 7.3h-.3ZM126.4 70.9h-.1c-.1-.2-.1-.3 0-.4l1.6-2.2h.4v.3l-1.7 2.2h-.2ZM122.1 82.8h-.1c-.1-.1-.1-.3 0-.4l.4-.6h.4v.3l-.5.6-.2.1ZM123.5 81h-.1v-.3l1-1.4c0-.1.3-.1.4 0v.3l-1 1.4h-.3ZM125.6 78.5h-.2V78l3.2-4h.3c.1 0 .1.3 0 .4l-3 4h-.3ZM131.8 70.7h-.2v-.4l.7-1c.1-.1.3-.1.4 0v.3l-.7 1h-.2ZM141.5 81.8h-.2v-.5l5.8-7.2h.3v.3l-5.7 7.3h-.2ZM150.2 70.9h-.2v-.4l1.7-2.2h.3v.3l-1.6 2.2h-.2ZM145.9 82.8h-.2v-.4l.5-.6h.4v.3l-.5.6-.2.1ZM147.2 81h-.1v-.3l1-1.4c.1-.1.3-.1.4 0v.3l-1 1.4h-.3ZM149.3 78.5h-.1V78l3.1-4h.4v.4l-3.1 4h-.3ZM155.5 70.7h-.1c-.1-.1-.1-.3 0-.4l.7-1c0-.1.3-.1.4 0v.3l-.8 1h-.2Z" fill="#343C60"/><path d="M79.8 122.5a40.5 40.5 0 0 0-13.5 0 8 8 0 0 1 13.5 0ZM176.6 122.5a40.5 40.5 0 0 0-13.6 0 8 8 0 0 1 13.6 0Z" fill="#C1BDCC"/><path d="M40.6 93.5c-4.7.7-6.8.4-7.5-.5l2.5-1c9.9-4.3 16.6-7.2 20.7-8.7l.1 1c1 2.3-.4 6.8-15.8 9.2Z" fill="#FFD880"/><path d="M54 122.3a30.6 30.6 0 0 0-.7 5.9c-.7.2-1.5.2-1.5.2l-3.2-1s-2.1-1.4.5-1.4c2.6.1 5-3.7 5-3.7Z" fill="#D59F14"/><path d="M99 73H99v-.4s5.2-4.7 10.7-8.7h.4v.4c-5.7 4-10.7 8.7-10.7 8.7H99Z" fill="#C69D47"/><path d="M131.7 122.1c-8.3 0-19.2 0-29.1-.9-.7 0-.8-1-.2-1.2a74.5 74.5 0 0 1 45.9-.9s-4.4 2.9-16.6 3Z" fill="#F9CD75"/><path d="M42.2 105.3c-1.8.7-4.7 1.5-6 1.7 0 0-1.8.3-3 .3-1.4 0-2.7-.3-3.6-1.5l-.4-.5c-.9-1.2-.3-1.8 1-2.5l5.9-3c.3 2.2 1.6 4.8 6 5.5Z" fill="#E6E3E1"/><path d="M136.2 107.5c-.2 0-.2 0-.2-.2V88.6c0-.1 0-.2.2-.2.1 0 .2 0 .2.2v18.7l-.2.2ZM177.1 104.7l-.2-.2.5-4.8c0-.2.1-.3.3-.2a83.8 83.8 0 0 0-.5 5.3ZM178 97.6c-.2 0-.3-.1-.3-.3.8-7.6-2-10.5-2-10.5-.2-.1-.2-.3 0-.3 0-.1.1-.1.2 0 .2 0 3.1 3 2.3 10.9 0 .1-.1.2-.3.2Z" fill="#D59F14"/><path d="M199 103.4v.6c-.2 2.7-.8 13.9-1 14.6 0 .8.3 3-3.8 2l-.2-.1c-5-1.3-6.5-3-6.3-4.6.1-1.3 1.4-2.7 2.8-3.8 2-1.5 4.4-2.6 4.5-2.8l4-5.9Z" fill="#F2C037"/><path d="M199.2 101v.9c-1.1.1-2 0-2-.7 0-2-3.7-5-3-7 .5-2.2 4-3 4-3 1.4 3.3 1.1 6.6 1 9.7Z" fill="#F47A59"/><path d="M199 104v.5l-1 14.2c0 .5 0 2-1.1 2.8-.6.3-1.5.4-2.9 0 0 0-.5 0-1.2-.3-1.2-.8-2.4-1.6-3.7-1.6 0 0-2.5-5.5-8-9.3 0 0 5.4 1.4 9.4 2 1.6.1 3 .2 3.8 0 3.1-1 4.6-8 4.7-8.3Z" fill="#F2C037"/><path d="M189.7 79.6c-3.7-.5-11.2-6-15.7-9.2l-7.4-5a.6.6 0 0 1 .1-1.1l1.2-.2c8.1 4.2 14.7 9.5 19.4 13.3l2.4 2.2Z" fill="#292A56"/></svg>