<svg width="27" height="24" viewBox="0 0 27 24" fill="none" xmlns="http://www.w3.org/2000/svg">
<path d="M17.3233 5.61603H17.2937V4.27502C17.2937 1.94306 15.3857 -0.0388625 13.0587 0.000578751C10.7958 0.04002 8.96175 1.89376 8.96175 4.16656V4.29475C8.96175 4.48702 9.11951 4.64479 9.31179 4.64479H10.4309C10.6232 4.64479 10.781 4.48702 10.781 4.29475V4.2553C10.781 3.00304 11.7226 1.90362 12.9749 1.82474C14.3356 1.74092 15.4696 2.82063 15.4696 4.16163V5.6111H12.0184V5.61603H8.82863C8.23701 5.63575 7.75879 6.11397 7.75879 6.71052V12.7746C7.75879 13.381 8.2518 13.874 8.85821 13.874H17.3184C17.9248 13.874 18.4178 13.381 18.4178 12.7746V6.71545C18.4227 6.10904 17.9297 5.61603 17.3233 5.61603ZM13.744 10.0187C13.6602 10.0778 13.6355 10.1419 13.6355 10.2405C13.6405 10.6842 13.6405 11.1279 13.6355 11.5766C13.6454 11.7639 13.5517 11.9414 13.3841 12.0252C12.9946 12.2224 12.6051 11.9463 12.6051 11.5766C12.6051 11.5766 12.6051 11.5766 12.6051 11.5717C12.6051 11.1279 12.6051 10.6793 12.6051 10.2356C12.6051 10.1468 12.5854 10.0827 12.5065 10.0236C12.1023 9.72778 11.9691 9.21997 12.1713 8.77133C12.3685 8.33747 12.8467 8.08111 13.2954 8.17478C13.7982 8.27338 14.1483 8.68259 14.1532 9.18053C14.168 9.53057 14.025 9.81652 13.744 10.0187Z" fill="currentColor"/>
<path d="M4.35141 18.0061C4.24806 17.8266 4.01418 17.7668 3.83469 17.8701L2.88829 18.4195V17.3262C2.88829 17.1195 2.71968 16.9509 2.513 16.9509C2.30631 16.9509 2.1377 17.1195 2.1377 17.3262V18.4195L1.1913 17.8701C1.01181 17.7668 0.777931 17.8266 0.674589 18.0061C0.571246 18.1856 0.631076 18.4195 0.810566 18.5228L1.7624 19.0776L0.810566 19.6324C0.631076 19.7357 0.571246 19.9696 0.674589 20.1491C0.777931 20.3286 1.01181 20.3884 1.1913 20.2851L2.1377 19.7357V20.829C2.1377 21.0357 2.30631 21.2043 2.513 21.2043C2.71968 21.2043 2.88829 21.0357 2.88829 20.829V19.7357L3.83469 20.2851C4.01418 20.3884 4.24806 20.3286 4.35141 20.1491C4.45475 19.9696 4.39492 19.7357 4.21543 19.6324L3.26359 19.0776L4.21543 18.5228C4.39492 18.414 4.46019 18.1856 4.35141 18.0061Z" fill="currentColor"/>
<path d="M7.82693 20.1437C7.93027 20.3232 8.16416 20.3831 8.34365 20.2797L9.29005 19.7304V20.8236C9.29005 21.0303 9.45866 21.1989 9.66534 21.1989C9.87203 21.1989 10.0406 21.0303 10.0406 20.8236V19.7304L10.987 20.2797C11.1665 20.3831 11.4004 20.3232 11.5038 20.1437C11.6071 19.9642 11.5473 19.7304 11.3678 19.627L10.4159 19.0722L11.3678 18.5174C11.5473 18.4141 11.6071 18.1802 11.5038 18.0007C11.4004 17.8212 11.1665 17.7614 10.987 17.8648L10.0406 18.4141V17.3209C10.0406 17.1142 9.87203 16.9456 9.66534 16.9456C9.45866 16.9456 9.29005 17.1142 9.29005 17.3209V18.4141L8.34365 17.8702C8.16416 17.7669 7.93027 17.8267 7.82693 18.0062C7.72359 18.1857 7.78342 18.4195 7.96291 18.5229L8.91475 19.0777L7.96291 19.627C7.78342 19.7304 7.72359 19.9642 7.82693 20.1437Z" fill="currentColor"/>
<path d="M7.15137 22.9938V23.6574C7.15137 23.8151 7.28191 23.9457 7.43964 23.9457H11.8942C12.052 23.9457 12.1825 23.8151 12.1825 23.6574V22.9938C12.1825 22.8361 12.052 22.7056 11.8942 22.7056H7.43964C7.27647 22.7056 7.15137 22.8361 7.15137 22.9938Z" fill="currentColor"/>
<path d="M14.2988 22.9938V23.6574C14.2988 23.8151 14.4294 23.9457 14.5871 23.9457H19.0417C19.1994 23.9457 19.33 23.8151 19.33 23.6574V22.9938C19.33 22.8361 19.1994 22.7056 19.0417 22.7056H14.5871C14.4294 22.7056 14.2988 22.8361 14.2988 22.9938Z" fill="currentColor"/>
<path d="M14.9744 20.1437C15.0777 20.3232 15.3116 20.3831 15.4911 20.2797L16.4375 19.7304V20.8236C16.4375 21.0303 16.6061 21.1989 16.8128 21.1989C17.0195 21.1989 17.1881 21.0303 17.1881 20.8236V19.7304L18.1345 20.2797C18.314 20.3831 18.5479 20.3232 18.6512 20.1437C18.7546 19.9642 18.6947 19.7304 18.5152 19.627L17.5634 19.0722L18.5152 18.5174C18.6947 18.4141 18.7546 18.1802 18.6512 18.0007C18.5479 17.8212 18.314 17.7614 18.1345 17.8648L17.1881 18.4141V17.3209C17.1881 17.1142 17.0195 16.9456 16.8128 16.9456C16.6061 16.9456 16.4375 17.1142 16.4375 17.3209V18.4141L15.4911 17.8648C15.3116 17.7614 15.0777 17.8212 14.9744 18.0007C14.8711 18.1802 14.9309 18.4141 15.1104 18.5174L16.0622 19.0722L15.1104 19.627C14.9309 19.7304 14.8711 19.9642 14.9744 20.1437Z" fill="currentColor"/>
<path d="M26.1892 22.7056H21.7346C21.5768 22.7056 21.4463 22.8361 21.4463 22.9938V23.6574C21.4463 23.8151 21.5768 23.9457 21.7346 23.9457H26.1892C26.3469 23.9457 26.4774 23.8151 26.4774 23.6574V22.9938C26.4774 22.8361 26.3469 22.7056 26.1892 22.7056Z" fill="currentColor"/>
<path d="M0.288271 23.9457H4.74288C4.90061 23.9457 5.03115 23.8151 5.03115 23.6574V22.9938C5.03115 22.8361 4.90061 22.7056 4.74288 22.7056H0.288271C0.130538 22.7056 0 22.8361 0 22.9938V23.6574C0 23.8151 0.130538 23.9457 0.288271 23.9457Z" fill="currentColor"/>
<path d="M22.1262 20.1437C22.2296 20.3232 22.4634 20.3831 22.6429 20.2797L23.5893 19.7304V20.8236C23.5893 21.0303 23.7579 21.1989 23.9646 21.1989C24.1713 21.1989 24.3399 21.0303 24.3399 20.8236V19.7304L25.2863 20.2797C25.4658 20.3831 25.6997 20.3232 25.803 20.1437C25.9064 19.9642 25.8466 19.7304 25.6671 19.627L24.7152 19.0722L25.6671 18.5174C25.8466 18.4141 25.9064 18.1802 25.803 18.0007C25.6997 17.8212 25.4658 17.7614 25.2863 17.8648L24.3399 18.4141V17.3209C24.3399 17.1142 24.1713 16.9456 23.9646 16.9456C23.7579 16.9456 23.5893 17.1142 23.5893 17.3209V18.4141L22.6429 17.8648C22.4634 17.7614 22.2296 17.8212 22.1262 18.0007C22.0229 18.1802 22.0827 18.4141 22.2622 18.5174L23.214 19.0722L22.2622 19.627C22.0827 19.7304 22.0174 19.9642 22.1262 20.1437Z" fill="currentColor"/>
</svg>
