<svg width="31" height="18" viewBox="0 0 31 18" fill="none" xmlns="http://www.w3.org/2000/svg">
<path d="M20.774 4.81924C20.774 4.81924 20.6383 1.8906 17.6546 1.63593C14.6257 1.38127 8.43219 1.63593 8.43219 1.63593C8.43219 1.63593 8.38698 0.702161 7.98011 0.192831C7.70886 -0.146723 6.98553 0.0655033 6.98553 0.0655033L6.89512 1.63593L-3.68354 1.67838C-3.68354 1.80571 -3.72875 1.89061 -3.72875 2.01794C-3.77396 2.14527 -3.77396 2.2726 -3.77396 2.39993C-3.77396 2.44238 -3.77396 2.48482 -3.77396 2.52726H6.8047C6.8047 2.52726 4.40868 3.97036 2.37432 4.3948C0.339964 4.81924 -1.83002 4.47969 -3.4575 4.18258C-3.63834 4.14014 -3.81917 4.0977 -3.95479 4.05525C-4 4.56458 -4 5.03147 -4 5.5408C-4 7.3659 -3.77396 9.14855 -3.32188 10.8463C-3.18626 11.3132 -3.05063 11.7801 -2.91501 12.247C-2.73418 12.7987 -2.55335 13.3505 -2.32731 13.8599C-0.925859 13.6476 0.746835 13.5203 2.32911 13.8174C4.36347 14.2419 6.75949 15.6425 6.75949 15.6425L-1.42315 15.685C-1.28752 15.9396 -1.1519 16.1943 -0.971067 16.449L6.84991 16.3641L6.94032 17.9345C6.94032 17.9345 7.66365 18.1467 7.9349 17.8072C8.34177 17.2978 8.43219 16.3641 8.43219 16.3641C8.43219 16.3641 14.6257 16.7036 17.6546 16.449C20.6835 16.1943 20.8192 13.3081 20.8192 13.3081C20.8192 13.3081 20.9548 11.3556 21 9.10611V9.06366C20.9096 6.77168 20.774 4.81924 20.774 4.81924ZM11.642 9.02123C11.642 10.8039 11.3255 12.4592 11.3255 12.4592C11.3255 12.4592 10.6474 14.9634 10.1049 15.1756C9.56239 15.3879 5.04159 13.6901 5.04159 13.6901L5.0868 9.02123V8.89389V4.22503C5.0868 4.22503 9.6528 2.56971 10.1953 2.78193C10.7378 3.03659 11.3707 5.49835 11.3707 5.49835C11.3707 5.49835 11.642 7.15368 11.642 8.93633V9.02123ZM18.1519 14.9634C17.5642 14.9634 17.1121 14.4116 17.1121 13.7325C17.1121 13.0534 17.6094 12.5016 18.1519 12.5016C18.7396 12.5016 19.1917 13.0534 19.1917 13.7325C19.1465 14.4541 18.6944 14.9634 18.1519 14.9634ZM18.1971 5.5408C17.6094 5.5408 17.1573 4.98903 17.1573 4.30992C17.1573 3.63081 17.6094 3.07904 18.1971 3.07904C18.7848 3.07904 19.2369 3.63081 19.2369 4.30992C19.2369 4.98903 18.7848 5.5408 18.1971 5.5408Z" fill="white"/>
<path d="M26.435 12.284L25.681 11.53C25.6244 11.4734 25.6244 11.398 25.681 11.3414L28.028 8.99435C28.0846 8.9378 28.0846 8.86239 28.028 8.80583L25.681 6.45874C25.6244 6.40219 25.6244 6.32678 25.681 6.27022L26.435 5.51614C26.4916 5.45958 26.567 5.45958 26.6236 5.51614L29.9133 8.80583C29.9698 8.86239 29.9698 8.9378 29.9133 8.99435L26.6236 12.284C26.5764 12.3312 26.4822 12.3312 26.435 12.284Z" fill="white"/>
</svg>
