<svg width="25" height="24" viewBox="0 0 25 24" fill="none" xmlns="http://www.w3.org/2000/svg">
<path d="M15.6483 15.9604C15.3967 15.9604 15.157 15.8765 14.9533 15.7327L11.3108 13.0008C11.0232 12.7851 10.8555 12.4377 10.8555 12.0782V6.60242C10.8555 5.96738 11.3707 5.45215 12.0057 5.45215C12.6408 5.45215 13.156 5.96738 13.156 6.60242V11.5031L16.3432 13.8875C16.5949 14.0672 16.7506 14.3428 16.7866 14.6424C16.8345 14.9419 16.7506 15.2534 16.5709 15.4931C16.3432 15.7926 16.0077 15.9604 15.6483 15.9604Z" fill="currentColor"/>
<path d="M12.006 24C5.37993 24 0 18.6201 0 12.006C0 5.39191 5.37993 0 12.006 0C18.632 0 24.012 5.37993 24.012 12.006C24.012 18.6321 18.6201 24 12.006 24ZM12.006 2.30055C6.662 2.30055 2.30055 6.65002 2.30055 12.006C2.30055 17.362 6.65002 21.7114 12.006 21.7114C17.3619 21.7114 21.7114 17.362 21.7114 12.006C21.7114 6.65002 17.35 2.30055 12.006 2.30055Z" fill="currentColor"/>
</svg>
