<svg width="43" height="36" viewBox="0 0 43 36" fill="none" xmlns="http://www.w3.org/2000/svg">
<path d="M18.0046 16.1871C18.1178 16.3682 18.231 16.5493 18.3442 16.7191C18.3668 16.7531 18.4234 16.7644 18.4234 16.7984C18.4461 17.6587 19.295 17.953 19.6346 18.5869C19.7252 18.768 19.6799 19.1076 19.5667 19.2887C19.1705 19.9226 18.7177 20.5339 18.265 21.1451C18.0499 21.4281 17.982 21.6545 18.197 21.9941C18.3555 22.2318 18.7291 22.6054 18.3102 22.8657C17.8461 23.16 17.6763 22.6959 17.5065 22.3563C17.4726 22.2884 17.4386 22.2318 17.3254 22.0281C17.0311 22.4243 16.7142 22.7186 16.5444 23.0921C15.2426 25.8315 14.0427 28.6161 12.673 31.3102C11.9825 32.6573 11.0204 33.8685 10.1487 35.125C9.46955 36.1098 8.4055 36.0871 7.43201 35.8947C4.70396 35.34 2.40606 34.0269 0.640191 31.8422C-0.0955887 30.9253 -0.186146 29.9632 0.31192 28.8878C1.25145 26.8842 2.23627 24.9372 3.60595 23.1714C4.97563 21.3942 6.19816 19.5151 7.46597 17.6587C7.6584 17.3757 7.715 17.0134 7.87348 16.5833C7.53388 16.5833 7.30749 16.6399 7.11506 16.572C6.94526 16.5154 6.80942 16.3229 6.66227 16.1871C6.78679 16.0626 6.94526 15.8136 7.03582 15.8362C7.98667 16.0399 8.24703 15.3947 8.4621 14.7042C8.90357 13.2779 9.86574 12.4516 11.2241 11.8856C12.7975 11.2291 14.2351 11.263 15.718 12.0441C16.5217 12.4742 17.3481 12.8252 17.5971 13.8326C17.6197 13.9345 17.7782 14.0024 17.8574 14.0703C17.6763 14.591 17.4952 15.1004 17.3141 15.6324C17.5971 15.7909 17.8348 15.9268 18.0838 16.0626C18.0612 16.0965 18.0272 16.1418 18.0046 16.1871ZM14.7898 21.9941C15.6048 21.247 16.4198 20.5112 17.2009 19.7528C17.3028 19.6509 17.3254 19.4019 17.2915 19.2434C17.0764 18.0662 16.3746 17.1832 15.4577 16.4814C14.0653 15.4174 12.5485 14.7382 10.7374 15.1004C10.443 15.157 10.0242 15.3042 9.93366 15.5306C9.50351 16.5493 9.17524 17.6021 8.81301 18.6661C11.1562 19.334 13.1598 20.4886 14.7898 21.9941ZM3.69651 26.2277C3.27768 26.9635 2.84753 27.6426 2.49662 28.3445C1.86272 29.5896 2.24759 30.9933 3.44748 31.7404C4.42097 32.3516 5.42842 32.9063 6.42455 33.461C6.9679 33.7553 7.5452 33.8571 8.16779 33.7213C9.94498 33.3364 10.194 31.6838 11.0883 30.4839C7.98667 30.0537 5.5869 28.6501 3.69651 26.2277Z" fill="currentColor"/>
<path d="M19.5894 15.8701C19.646 15.8021 19.7478 15.6776 19.7478 15.6663C19.5328 15.1456 19.4196 14.6928 19.1705 14.3079C19.0234 14.0816 18.7064 13.957 18.4348 13.7759C18.5819 13.5948 18.7404 13.3911 18.9555 13.142C18.6385 13.0854 18.3782 13.0288 18.0386 12.9609C18.0952 12.6553 18.1291 12.361 18.2084 12.078C18.3555 11.5686 18.5366 11.0818 18.6838 10.5725C19.3517 8.28587 20.9251 7.06335 23.223 6.6332C23.9927 6.48604 24.7059 6.48604 25.3964 6.89355C25.7246 7.08598 26.0869 7.2105 26.4038 7.40294C26.9019 7.70857 27.332 7.81044 27.7622 7.28974C27.9093 7.10862 28.181 6.89355 28.4187 7.23314C28.6338 7.53877 28.5093 7.75385 28.215 7.92364C28.0905 8.00288 27.9773 8.10476 27.7396 8.30851C28.181 8.53491 28.5206 8.78394 28.9055 8.88582C31.7128 9.65555 34.554 10.3234 37.3387 11.1724C38.7989 11.6139 40.1912 12.3383 41.5835 12.9835C42.7834 13.5382 42.9079 14.6815 42.8513 15.7795C42.7268 18.2246 41.9345 20.4545 40.4742 22.4242C40.2818 22.6845 40.0441 22.8996 39.829 23.126C39.1272 23.8731 38.2782 24.0429 37.2934 23.7825C35.2219 23.2279 33.1843 22.6279 31.26 21.6205C29.2338 20.5564 27.117 19.6508 25.0228 18.7C24.7512 18.5755 24.4116 18.5981 24.0154 18.5528C24.072 18.8585 24.1852 19.0849 24.1399 19.2773C24.1059 19.4697 23.9248 19.6395 23.8116 19.8093C23.6758 19.7074 23.4381 19.6056 23.4381 19.5037C23.4268 18.5076 22.7023 18.3944 21.9778 18.2472C21.8873 18.2246 21.7967 18.1906 21.7062 18.1906C20.8232 18.1453 20.4044 17.6473 20.212 16.8209C20.144 16.5153 19.8384 16.2436 19.5894 15.8701ZM28.2489 10.6404C27.5358 10.1536 26.834 9.67819 26.1322 9.21409C25.2945 8.6481 25.1247 8.63678 24.287 9.24805C22.9966 10.1763 22.3174 11.5007 21.9778 13.0175C21.7401 14.1042 21.6948 15.1909 22.2042 16.221C22.3061 16.4247 22.4872 16.6964 22.6683 16.7304C23.7324 16.9454 24.7964 17.1039 25.8944 17.285C26.1435 14.84 26.9585 12.6779 28.2489 10.6404ZM34.0786 20.93C34.8596 21.2016 35.5728 21.4846 36.3086 21.711C37.6103 22.1072 38.9234 21.5412 39.4441 20.2847C39.9195 19.1528 40.3271 17.9982 40.7006 16.8436C41.0515 15.7456 40.5761 14.5117 39.5686 13.9684C38.7649 13.5495 37.882 13.2779 36.9991 12.9269C37.0896 16.0172 36.1614 18.6321 34.0786 20.93Z" fill="currentColor"/>
<path d="M12.684 6.65598C12.2312 4.43732 11.7784 2.2413 11.337 0.0565985C11.3709 0.0339591 11.4162 0.0226394 11.4502 0C12.9104 1.53948 14.3707 3.07896 15.8762 4.66371C16.9063 3.66758 17.925 2.69409 19.0457 1.61872C18.8985 3.36195 18.7627 4.98067 18.6155 6.58806C18.5816 6.58806 18.5476 6.58806 18.525 6.58806C18.3552 5.76172 18.1741 4.92407 17.9703 3.95057C17.3138 4.67503 16.7252 5.30894 16.1705 5.93152C14.88 4.70899 13.6349 3.52043 12.3218 2.27526C12.7293 3.99585 13.1255 5.65985 13.533 7.36912C12.401 7.57288 11.337 7.75399 10.2616 7.94643C10.2503 7.9917 10.2277 8.02566 10.2163 8.07094C11.0993 8.61429 11.9709 9.15763 12.8538 9.70098C12.8425 9.73494 12.8199 9.7689 12.8085 9.80286C11.4275 9.27083 10.0465 8.7388 8.54102 8.1615C9.97862 7.62947 11.2917 7.15405 12.684 6.65598Z" fill="currentColor"/>
</svg>
