<svg width="271" height="220" viewBox="0 0 271 220" fill="none" xmlns="http://www.w3.org/2000/svg"><g clip-path="url(#a)"><path d="M135.3 220c74.8 0 135.4-10.4 135.4-23.3s-60.6-23.3-135.4-23.3C60.6 173.4 0 183.8 0 196.7S60.6 220 135.3 220z" fill="currentColor"/><path d="M98.5 153.3c0-.3-.1-.5-.2-.5a3 3 0 0 0-2 .4c-3.5-.1-7.5-.3-8.9-.1-2.6.3-11.2 0-15.8-.2l-18-.9c-5.3-.3-8.3-.5-10.7 0-2.4.6-6.4 3.7-7.7 11l-.3 1.3c-1.3 5.9-3 4.5-3 6s.8 1.7.8 1.7l2.4.6-7.5.5s-1.4.5-2.9 2.6c-1.7 2.3-3.5 6.7-3.4 14.5a118.7 118.7 0 0 0 1.8 20.3s27.4.7 43.4-.6c8.5-.7 15.6-1.8 20.4-2.7a32 32 0 0 0 7-1.8c.4-.6 7-15.8 7-17.4l1-34.5-3.4-.2z" fill="url(#b)"/><path d="M98.5 153.3c1 3.3.7 21.3-.2 22.8l-5.8 9.1c-.5 1-.1 11.9-.2 13.6 0 1.8-3.5 6-4.8 7.3-.3.2-.5.6-.6 1a32 32 0 0 0 7-1.8c.4-.5 7-15.8 7-17.3l1-34.5-3.4-.2z" fill="#33325D"/><path opacity=".2" d="M38 173.6c3.6-.6 11.8-1 17.8-1 6-.3 7.6-1.6 7.6-1.6s-2.7 0-2.2 0c.5-.2 1.7-1.3 1.7-1.3l-1-.3 1-.3s0-.4-3.5 0c-3.4.3-15-1.2-15.7-1.6-.6-.3-2.2-.8-5.2-1.5-1.3-.4-2.6-1-3.5-1.7-1.4 5.8-3.1 4.5-3 5.9 0 1.5.8 1.7.8 1.7l2.3.6-7.5.6s-1.4.5-2.9 2.5c4 .2 10.5-1.5 13.4-2z" fill="#02020F"/><path d="M98.3 152.8a3 3 0 0 0-2 .4h2.2l-.2-.4z" fill="#22224F"/><path opacity=".2" d="M92.3 198.8c0-1.7-.4-12.7.2-13.6.6-.9 4.7-7.6 5.8-9.1 1-1.5 1.1-19.5.2-22.8a368.7 368.7 0 0 0-2.2-.1c-.7.4-1.2 1-1.2 1.5 0 1.1.8 1.7.5 2.8-.2 1.2-1 3.7-1.7 4.4-.6.8-3.5 8.2-3.5 8.2s-6.1-.5-9.4-.5H66.2s3 1.2 8 1c5.2-.2 15.3 2 15.3 2s-1 1.9-1.4 4.1c-.4 2.3-1.7 7.5-1.7 7.5-.8 1.3-2.3 5-3.1 6.4-.8 1.3-.7 1.8-3.3 3.6-2.5 1.7-4 1.4-4 1.4-.3-1.1 1.7-2.7 1.7-2.7-3.4.6-5.7 4.2-5.7 4.2l-7 1.2.9-.7c-2.5.5-12 1.1-12 1.1 2.7-.3 5-1.5 5-1.5-7.3 1.5-13.8 1.8-13.8 1.8 4.6-.5 10.3-2.4 10.3-2.4s-2.6.7-13.8 2c-7.3.7-15.2-.2-20-.8.5 7.2 1.5 12.6 1.5 12.6s27.4.8 43.4-.5C75 209 82.1 208 87 207l.6-1c1.3-1.2 4.8-5.6 4.8-7.3z" fill="#02020F"/><path d="M60.2 176s-.2-1.1 2.2-.3c2.3.8 13.7 8.2 15.2 9.7s2.2 3 2.2 3-1.2 0-2.7-1.5a49 49 0 0 0-10.2-7.4c-3.3-1.5-6.7-3.4-6.7-3.4zm1 11.6s8.6 1.1 14.8 3.6l-14.8-3.6zm12.5-17.7s-2.6 2.3-.3 3.9c0 0-2.5-.6-.9-4.1l1.2.2zm2.5 4.2s8.9.8 13.8 1l-.4.9s-10 0-13.4-2z" fill="#22224F"/><path d="M167.7 216.8H163c-3.8 0-7.6-.4-11.4-.3-3 .1-5.9-.2-8.9-.4-3.3-.1-6.6 0-10-.2l-8.8-.5-8.2-.1c-2.2-.2-4.3-.3-6.5 0-.3 0-.7 0-.6-.5 0-.4-.5-.3-.8-.3-2.3-.3-4.6-.4-7-.6-1.2-.1-2.5-.2-3.8-.5l.5-.4c.3 0 .5-.2.2-.5-.8-1.1-.7-2.4-.9-3.7-.4-3-.3-6.1.4-9.2.2-1 .6-1.9 1.5-2.4.5-1 1.4-1.2 2.5-1.3 2.4-.2 4.8-.8 7.2-1 4.4-.6 8.8-.7 13.2-.4h1c4.2 0 8.6.3 12.9.2.6 0 1.4 0 1.7.5.2.4-.6.8-.8 1.3-.2.5-.8.6-1.3 1.2 1-.3 1.7-.7 2.4-1a6.8 6.8 0 0 1 2.8-.7c1.5 0 3-.3 4.5-.7.6-.2 1.2-.3 1.8-.2 2.3.2 4.7.2 7 .3l11.4.5c3.4.1 6.8.2 10.1-.1.2 0 .4 0 .5-.3-.3-.2-.6-.1-1 0l-10-.3-13.2-.6-5.3-.3c-5.5 0-11-.2-16.4-.4-4.2-.2-8.2.2-12.3.1-1 0-2-.2-2.8-.8-1.3-1-2.7-1.5-3.8-2 .9.4 2 1 3.2 1.8.3.1.6.3.5.7 0 .2-.4.2-.7.2l-5 .2a3.6 3.6 0 0 1-1.5-.2 9 9 0 0 0-6.2.3c-.4.1-1 .6-1.3.1-.5-.4-.2-1 0-1.5 1.1-2 3-3 5.2-3.1h2c-2.5-.4-4.7 0-6.4 1.9-.7.7-1 1.5-1.1 2.4 0 .7-.2 1.2-.7 1.7-.4.4-.7.9-.7 1.5 0 .4-.2.7-.6.6a.6.6 0 0 1-.3-.1c-.1-.3-.4-.4-.7-.3l-2 .2c-.4 0-.7.3-.8.7-.4 1.1-1 2.3-.3 3.6.1.3.1.6-.2.8-1 .5-2 .8-3.2.6-1.1-.2-1.8-.7-2.1-1.8a38.8 38.8 0 0 1-1.6-13.4c.2-.8 0-1.6.1-2.4 0-2.3 1.1-4.3 2.5-6a7 7 0 0 1 4.2-2.2c3-.7 6.2-.8 9.2-1.2 2.3-.2 4.6-.6 7-.5 1.5 0 3 .3 4.6.1l6.8-.1c1.7 0 3.4 0 5 .4 1.7.3 3.4.1 5 .3 2 .1 3.9.4 5.8.6l8.2.7 7.3.6 3.4.2c3.3 0 6.5.5 9.7.6 4.8.1 9.4.8 14 1.8 2.3.5 4.6.8 6.7 1.8.7.3 1.5.4 1.5 1.4l.2.2c2 1.2 3.3 3 4.9 4.6 1.6 1.7 3.4 3 5.3 4 1 .6 1.2.9 1 1.7l-.7 3c-.2.4-.6.3-1 .2a7 7 0 0 1-3.7-2c-1.7-1.6-3.2-3.3-4.7-5l-3-2.7c-.9-.8-2-1.3-3-1.7a39.2 39.2 0 0 0-11.7-1.8c-2.7 0-5.4-.4-8-.7-2.3-.3-4.5-.3-6.7-.5-4.3-.5-8.5-.4-12.8-.9l-7.2-.4h-9.9c-2.7 0-5.5.5-8.2.4a77.8 77.8 0 0 0-5.4 0c-2.8.1-5.5-.3-8.2-.8-1.4-.3-2.8 0-4.1.1l-6 .7a7.6 7.6 0 0 0-1.5.4c-2.3.8-3.2 1.9-3.2 4.4 0 2.8.2 5.6.7 8.4 0 .2.2.4.1.6a6 6 0 0 0 .5 3.5c0 .2-.1.1 0 .1-.5-1.2-.8-2.4-.5-3.7v-.8c-.5-2.8-.5-5.7-.5-8.6.1-2 1.1-3.3 3.2-3.6 3.9-.7 7.9-1 11.9-.5h1c1-.5 2.2-.3 3.3-.2 1.5.3 3 .3 4.4 0a5.7 5.7 0 0 1 1.3 0c4.3.3 8.6-.1 13-.2l6.9-.2c3.8 0 7.6.4 11.4.7 2.1.2 4.3.2 6.4.3 1.4.1 2.8.5 4.2.5l10 .9c3.1.3 6.4.2 9.6.7 2 .3 4 .9 6 1.5a9 9 0 0 1 3.8 2.3l4 4.2c1.2 1 2.1 2.4 3.4 3.3 1 .7 2 1.3 3.1 1.4.2 0 .5.1.6.3-1 2.5-2.2 5-3.4 7.4-1 2.1-2.5 4-4.3 5.5-.6.5-1.2 1-2.1 1-.3 0-.5.3-.8.4a25.7 25.7 0 0 1-12.2 3.7l-7 .5z" fill="#F25833"/><path d="M146.3 53.2c1.1-.1 2.2.1 3.4.1 1 .6 1.7 1.4 2.2 2.4 2 3 3.6 6.4 5 9.8.4.8.7 1.8 1.4 2.4l.6.6c.2.6.7 1 1.4 1.2.2 0 .5.2.5.5-.2 1.3-.9 2.5-1.3 3.7a325 325 0 0 0-9.8 30.7c0 .3 0 .9-.4.9-.5 0-.5-.6-.6-1a37.8 37.8 0 0 1-.9-12.3 16.6 16.6 0 0 0 0-3.3l-.7 8.7a54.7 54.7 0 0 1-1.5-17.4c0 2-1.3 3.7-1.4 5.7 0 .6-.5.6-.9.2-.5-.5-.9-1.2-1.1-2-.6-2.3-1.2-4.6-2-6.9 0-.2 0-.5-.3-.8-.2.3 0 .6 0 .8 1.3 5.3 2.4 10.6 4 15.7 1.3 4 2.2 8.3 3.7 12.3l1 3.1c0 .5.2 1 .6 1.2 1.1.8 1.3 2 1.2 3.2 0 .7-.4 1.4-.5 2.2 0 .3-.2.4-.4.5-2.2.3-4 1.6-5.8 2.6-2 1-3.8 2.3-5.6 3.8-.6.5-1 .5-1.8.1-1.1-.6-1.5-1.8-2.1-2.9-.3-.4.2-1 1-1.2 1.2-.2 2.2-.8 3.2-1.4 3.2-1.8 6.3-3.8 9.4-5.7.2-.2.6-.4.3-.7a75 75 0 0 1-9.7 5.7c-1.3.8-2.8 1.2-4.1 2-.4.4-.8.1-1-.2a7.4 7.4 0 0 1-1.8-2.2c-.7-1.3-1.4-2.5-2.3-3.7-.6-.9-1-1.8-1.3-2.9L124.8 96c0-.2-.2-.5 0-.8.4-.1.6-.2.5-.7l-.2-1.2c0-.3-.1-.6.3-.7.4.2.4.1.3-.2-.3-1.2-.8-2.3-1.2-3.4-.8-2.1-1.6-4.3-2-6.5 0-1.1-.4-2.2.1-3.3.2-.5 0-1-.2-1.5l-.3-1.5a46.5 46.5 0 0 1-.1-5.9c-.2-1.9.1-3.8 1.2-5.4.5-.7.9-1.5 1-2.3.3-1 1-1.6 1.7-2.3.8-1 1.6-2 2.8-2.6 1 .1 2 .5 2.8 1 .3.3.7.5 1 .1.6 0 1.2 0 1.7.4.4.4 1 .5 1.5.5h7c1.5 0 3.2-.1 4.7-.4.4 0 .8-.1.8-.6s.5-.7.6-1c.1-1.6-.8-2.6-1.8-3.6-.3-.3-.8-.4-.7-.9z" fill="#424783"/><path d="M192.8 74.2c1.6 4 2 8 1.2 12.2-.5 3.2-.9 6.5-1.5 9.7-.5 3-.5 6-1.2 8.8-.6 2.5-1 5.1-1.7 7.6-.2-.1-.2-1-.7-.2-.9 0-1.4.4-1.8 1.1-.5.8-1.1 1.4-1.6 2a3 3 0 0 1-1.8 1c-2 .5-3.8 1.4-5.9 1.4-.5 0-.4.5-.6.7-.4.2-.7.2-1 .1-1.9-.4-3.6-.8-5.2-1.7 2.5 1.7 5.3 2.2 8.3 2.4 1.5 0 3 0 4.6-.2.7.4.2.6 0 .8a8 8 0 0 1-5.1 2c-4.1.2-7.7-1-11.2-3-1.3-.6-1.7-2-.8-4 .5 0 .8.3 1.2.4.3.2.5.4 1 .4-1-1.1-.6-2.5-.8-3.7 0-.2 0-.5.3-.6.3 0 .4.3.5.5.2.4.2.8.7 1.2l-.2-1a8.4 8.4 0 0 1-.3-4.8c.3-1 .8-1.8 2-2.2 2.5-1 4.7-2.6 6.5-4.8l-2 1.6c-1 .9-2.1 1.1-3.3 1.3-.6 0-.9-.2-1-.7 0-.6.1-1 .4-1.6 1-2 2.2-3.9 3.4-5.8l1-1.8-1.6 2a81 81 0 0 0-4.6 8 12.3 12.3 0 0 0-1.3 5.5c0 1.1-.3 2-1.1 2.6-.8.7-1.1 1.7-2 2.2-.2.2-.2.5-.3.8 0 .3-.1.7-.3 1a4.5 4.5 0 0 0-.1 4.4 8 8 0 0 0-2 1.7c-.5.5-1.3.5-2.1.1l-.3-.4c-.6-.7-.6-.7.1-1.2-2-.3-2.7-1.6-2.1-3.8.2-.8.5-1.6.2-2.5.1 1.3-.6 2.3-.6 3.5-.1 1.5.4 2.7 1.5 3.7.3.2.5.3.6.6 0 .3-.3.4-.5.4-1.6 0-3.3-.2-4.8-1-.6-.2-1-.8-1.3-1.5L152 116c-.2-.5-.5-.9-1-.9a.6.6 0 0 1-.4-.2 1 1 0 0 1-.2-.4c.2-.7.4-1.5.4-2.4a4 4 0 0 0-.8-2.4 4.4 4.4 0 0 1-.5-3.8A709.3 709.3 0 0 1 161.2 71c.1-.4.2-.7.6-1 1-.2 2 .3 3 .4h1.9l1.1-.2c.5.2.3.5.1.7-.2.3-.4.6-.1 1 .3.4.6.3 1 .2a4 4 0 0 0 1.9-.8c1.7-1.2 3.1-2.8 4.7-4.3.9-.9 1-.8 2 0l6.7 5.3c.6.3 1.1.7 1.8.8 1.5.4 2.8 1.4 4.1 2.1.4.2.7.5 1.1.6.2 0 .5.2.7 0 .3-.2 0-.4-.2-.6V74.4c.2-.4.4-.7.8-.7.3 0 .4.2.4.5z" fill="#424783"/><path d="M175 151.3a64 64 0 0 1 13.2 3.3c.6.2 1.3.5 1.7 1.1.1.2.3.3.5.3 1.8.4 2.8 1.8 3.7 3.3l.7.9c1.5 1.3 2 3 2.3 5 0 .5-.3.8-.8 1-1.1.3-2.4.4-3.5.8-1.7.6-3.4 1-4.9 2-1 .6-1.7 1.3-2.4 2-.6.6-1.1 1-2 1-.4 0-.7.3-1.1.4-1.2.5-2.5.8-3.8.5-1-.2-1.9.1-2.8 0l-3.5-.5c-3-.5-6-1.2-9-1.5-2.2-.2-4.4-.6-6.6-1-.3 0-.8.1-.8-.5.7-.4 1.5-.2 2.3-.1 6.3.6 12.5 1.7 18.8 2.7.5 0 1 .1 1.6 0-2.4-.7-5-1-7.4-1.5-4.1-.7-8.3-1.3-12.5-1.7a59 59 0 0 0-4-.3l-11.6-.5-8.7-.4-4.7-.3c-2.6-.2-5-.6-7.7-.6-1.8 0-3.6-.5-5.4-.3l-6.6.3c-2 .1-4-.1-6.1-.4-1-.2-2 0-3 .3-.3.2-.7.2-1 0-.6-.5-1.3-.8-1.9-1a4.2 4.2 0 0 1-.4-.4 9 9 0 0 1-1.8-3 7.7 7.7 0 0 1 0-4c.7-1.5 2.1-1.9 3.5-2.3 1.6-.4 3.2 0 4.8-.2l3.5-.1c.5-.1 1-.1 1.5.2 2 1.2 4.2 2 6.5 2.4-1.5-.6-3-.9-4.3-1.5-.5-.2-1.4-.3-1.3-1 .2-.5 1-.3 1.5-.4 1.8-.2 3.6 0 5.3-.3h1c.4 0 1-.1 1.2.3.2.5-.3.8-.5 1a3.7 3.7 0 0 0 .5-.6c.4-.5 1-.7 1.5-.7 4.8-.1 9.6.1 14.3.3 3 0 6 0 9 .3l6.2.4h3c0-.4-.2-.4-.4-.4-2.3-.3-4.6-.4-7-.6l-7.4-.5-4.1-.1c-3.3 0-6.7-.5-10-.2-3.7.2-7.4 0-11.1.3a8 8 0 0 0-1.3.2c-2.2.5-4.5.6-6.7.9-1.8.1-3.5-.2-5.2-.5-.9-.2-1.8-.6-2.6.2-.3.2-.4-.1-.4-.3a1 1 0 0 1 0-.4c.1-.6.1-1 0-1.6v-.3a2.4 2.4 0 0 1 .2-.7c.9-1.2 2-2 3.4-2.5 2.5-.8 5.1-1.2 7.7-1.4.7 0 1.4-.3 2-.2 3.5-.2 7-.6 10.5-.2 1.4.2 2.9-.1 4.3-.3.8-.2 1.5 0 2.3 0 3.7 0 7.4 0 11.1.2H141.2c1.3.2 2.7.1 4 .2l9.7.8c.4 0 .7.2 1 .5 1 1.2 2.2 2.3 3 3.8 0 .5 0 1-.2 1.6-.4 2.7.4 5 1.9 7.2.7 1 1.7 2 3.2 2.5 1.3.3 2.5.9 3.8 1.2 2 .4 3.5-.2 4.8-1.7.8-1 .8-.9 2-.5 2.1.7 4.6-.7 5-2.9.4-1.7 0-3.3-.8-4.9-.7-.7-1.1-1.6-2-2-.8-.5-1.7-.8-2-1.9.1-.3.3-.3.4-.2z" fill="#F25833"/><path d="M233.2 155.3c.2-.7.1-1.5.3-2.2.5-4 2.3-7.1 6-9 1.7-.8 3.5-.5 5.1.6.8.6 1.9 1 2.4 1.9 3-2.2 5.3-2.1 8 .3 2.5 2.1 2.5 1.9 1.5 5.5-.4 1.3-1.1 2.4-1.5 3.7-.6 1.8 0 3.5.4 5.2.4 2 1 4 1 6 0 3.4-.1 6.8-1.4 10a15 15 0 0 0-1 3.2 20 20 0 0 1-1.5 4.8c-.1.2 0 .4-.2.5l.4-.3c.6-.2.7.3.8.7 0 1-.2 2-1.1 2.8-.6.4-.6.7-.4 1.3.3 1.3 0 2.4-.8 3.4-.2.3-.4.5-.7.4-.4-.1-.3-.5-.2-.8.1-.7.2-1.4-.4-2-1.8 2.1-4.5 2.7-7 3.5-1 .3-2 .3-3.1.2l-3-.3a14 14 0 0 1-9.3-3c-1-.7-2-1.4-2.8-2.3-.5-.5-1-.8-1.7-1a2.1 2.1 0 0 1-1-.9c-.2-.1-.2-.3-.2-.4.6-.6 1.3-.3 1.9-.2.8 0 1.5.5 2.3.2 1.9-.3 3.7-.4 5.6-.9 2.3-.6 3-2.5 3.7-4.4.2-.5-.2-.9-.6-1.1l-1.6-1c-.6-.4-1.3-.5-1.8-.8-1-.6-1.7-1.4-1.5-2.6.2-1 0-2 .8-2.7 1.3-1.2 3-1.5 4.5-2l2.3-.4c.5 0 .6-.3.3-.7-1.3-1.6-2-3.5-2.3-5.6-.1-1.1-.7-2.2-1.3-3.3a11 11 0 0 1-.9-6.3z" fill="#2B2B57"/><path d="M127 147.5c-1.3.1-2.7 0-4 .5-.7.2-1.7 0-2.4-.1-.2-.3-.1-.5-.1-.8V132c-.1-1.6-.1-1.6-1.7-2-2.5-.7-3.5-1.9-3.7-4.4-.1-.5-.5-.6-1-.7h-.8c-12.7-.4-25.4-.2-38-.3h-4.5c-.5 0-1 .2-1 .8-.3 2.6-2.1 3.8-4.3 4.6-.8.3-1 .6-1 1.4.2 6.5.4 13 .3 19.6l.1 1.1a.6.6 0 0 1 0 .5c-1 .4-2.1.2-3.2.2l-2 .1a6.5 6.5 0 0 1-.8 0h-1c-.5-.2-.9-.4-.6-1v-18.1l.4-9.8c0-2.2 2.2-4.7 4.4-5.4 1.2-.4 2.4-.5 3.6-.5 3.7.2 7.5.3 11.2 0 .2-.1.5 0 .6-.4 2.2.5 4.3.3 6.5 0-1.2-.2-2.5-.1-3.7-.1-1 0-1.9.1-2.8-.3l.4-1.7c0-.2.2-.5.5-.5.8 0 .8-.6 1-1.2.4-2.1 1.1-4.2 3-5.6 1-.7 1.8-1.8 3-2.4a19.6 19.6 0 0 1 18.6 1.7c2 1.3 3.1 3.5 3.6 5.8v1.2c-1.6.2-3.1 0-4.7 0-.4.1-1 0-1.3.4 2 .3 4.2.9 6.3 0 .8.2 1.1.8 1.2 1.6.2 1 .7 1.5 1.7 1.4l2.5-.2c.3-.2.6-.2 1-.1h2.3c2.1.3 4.2.4 6.3 1 2 .4 3.2 1.6 3.4 3.7.4 2 .4 4 .3 6 .6 3.9.3 7.7.4 11.5 0 2.4-.1 4.8.2 7.3l-.1.3z" fill="#F15863"/><path d="M171.5 2.5c3.4-1.1 6.7-2.4 10.4-2.5 4.6 0 8.2 1.7 11.1 5.2.6.7 1.1 1.6 1 2.6 0 .4.2.8.5 1 1.4.6 1.8 1.9 2.3 3 .2.4.2.8.1 1.2-1.2 1-2.5 1.1-3.8.3-1.1-.8-2-1.7-2-3.2h-.3c-.3.3-.2 1-.7 1-.4 0-.7-.3-1.1-.5-1-.4-2-.3-3-.3h-3c-1 0-2 .2-3 .7-.8.4-1.6.5-2.5.9 2.1-.7 4.3-1 6.5-1l2.6-.2c1 0 1.8.2 2.6.7l2.9 2c.8.8 1.8 1.3 2.9 1.7l1.1.8c.2 0 0 0 0 0 0-.3-.2-.5-.4-.7-.5-.4-.4-.7.2-.7.5.2 1 .5 1.1 1 1.4 1.7 2.2 3.7 3 5.7.2 1 .6 1.9 1 2.7l.2.3c0 .8.4 1.6.6 2.4-.1.7.3 1.3 0 2-.5.3-.7-.4-1.2-.5.3 2.2-.4 4.1-2 5.8l1-.8h.3c.1 0 .1.2 0 .4a4.4 4.4 0 0 1-2.6 3.1l-.5.1c-.8 0-2.8-1-3.3-1.8 0 .6.6 1 .5 1.6-.1.1-.4.1-.4.5.2-.2.2-.5.4-.5l.4.1c.7.7 1.5 1.2 2.4 1.2l.4.2v.3c-.5.7-1.3.8-2.3 0-.5-.3-.1.4-.3.2-.9.3-1.3-.4-2-.7v.8l-.7 1.8c-.2.4-.3.9-.7.8-.4-.2-.3-.6-.3-1l.7-3.9c0-.4-.1-.8-.5-1a6.3 6.3 0 0 1-2.2-2.9c-.2-.5-.5-.4-.8-.1-.7.6-1.2 1.3-1.7 2l-.7.8c-.1 0-.3.2-.5.1s-.2-.3-.1-.5a9 9 0 0 1 .9-1.8 8.3 8.3 0 0 1 1.9-2c0-.2-.2-.1-.2-.1-1.8.7-3.8.5-5.6 1.3-3.1 1.3-6.2 1-9.3-.3l-.7-.3a15.5 15.5 0 0 1-2.3-1.4c-.5-.4-1-.8-1.3-1.5-.1-.3-.3-.6 0-1 .5 0 .8.5 1.2.8a15 15 0 0 0 7.1 3.1c1 .3 1.8.1 2.6 0l-.8.1c-1 0-2.1 0-3-.7.2-.5.6-.2 1-.3l-2-1c-3-1-6-6.8-5.8-9.4l.1-1c.2-.4 0-.6-.3-.7-.6-.2-.4-.6-.1-1a13 13 0 0 1 2.3-2.3 25 25 0 0 1-1.8 1.7 8.3 8.3 0 0 0-2.1 4.3c-.3 1.6-.8 3.1-1 4.8-.2 1-.2 1.9.1 2.8l.2 1c0 .4.2.8.7.8.4 0 .7.3.3.7-.4.5-.4 1-.4 1.6 0 1.7-1.1 2.7-2.6 3.3-1 .4-2.6-.4-3.3-1.5l-.5-1.2c0-.1 0-.4-.4-.4-.3 0-.2.4-.2.6 0 1.3 1.4 3 2.8 3.4.3 0 .7 0 .7.5-1 .3-1.8-.3-2.5-.9-2-1.5-2.2-3.7-2-6 0-.4-.2-1 .3-1.2.6-.1.7.6 1 1 .5.6 1.9 1 2.6.8.3-.2.5-.4.6-.7.6-1.8.9-3.6.6-5.5 0-1-.7-1.8-.4-2.8l.4-.7c.6.2.2.8.5 1.2a23.4 23.4 0 0 1 0-6.4l.1-.9c0-.1 0 0 0 0 0-.1 0 0 0 0 0 .1-.2.4-.4.4s-.2-.3-.3-.4c0-1.1.3-2 .8-3-.1.2-.2.5-.5.7h-.3c1.4-3.8 3.2-7.2 6.7-9.6 0-.5.7-.6 1-1z" fill="#F6C75F"/><path d="M230.7 173.6c-.8 1.1-.7 2.5-.7 3.8.1.8 1.1 1.2 2 1.4.4.2.9.2 1.2.6 1.2 1.4 1.2 2.2.2 3.7-.7 1-1.6 1.6-2.9 1.9a38 38 0 0 1-7.9.8c-1.3 0-2.5-.2-3.7-.5a35.6 35.6 0 0 0-10.9-1l-7.5 1.1a7.3 7.3 0 0 1-3.5-.1c-1.6-.5-2.3-1.4-2.5-3.1a17 17 0 0 1 1.2-7.7c.6-2 1-4 .7-6.1 0-.4 0-.7.2-1 2 1.8 4.3 2.2 6.7 2.4.6 0 .9-.1.8-.8 0-.3 0-.7.2-1 .4.3.3.8.2 1.2 0 1.5.2 2.8.6 4.2.3 1.3 1 2.4 2 3.3 0-.6-.3-1.1-.5-1.7-.2-.4-.4-.8 0-1.3.2-.2 0-.5 0-.8-.6-2.9-.5-5.7.6-8.5 0-.2.2-.5 0-.7-.5-.1-.8.6-1.3.2 1-2 2.7-3.4 4.6-4.4a25 25 0 0 1 8.7-2.6c2.6-.4 5.2-.3 7.8-.1 2 .1 4.1.3 6.1 1 .2.4.2.8.2 1.2a30 30 0 0 0 .9 9.4c.4 1.4.4 1.4-.8 2.2-1.2.7-1.8 2-2.7 3z" fill="#FED3C8"/><path d="M192.6 166.8c1.2-.4 2.4-.8 3.7-.7l.1.9c0 .5-.1.9-.4 1.2l-1.9 2.9-.6 1.2c-.3 2.2-1 4.5-1 6.8.2 2.4.6 4.8 2.4 6.6a28 28 0 0 0 3.5 3c.7.6 1.5.9 2 1.6.8 1.3.7 2.3-.4 3.4l-1.4 1.1c.1-.7-.4-1-1-1.4-1.9-1-3.7-2.2-5.3-3.8l-4.5-4.6c-.4-.3-1-.4-1-1.1.1-.4-.6-.5-1-.7-2-1-4.3-1.3-6.6-1.8-3.2-.7-6.6-1.3-10-1.6l-6-.4c-4.5-.5-9.2-.3-13.8-.9l-9.6-.7-7.8-.9-2.3-.2c-4.6-.1-9.1-.9-13.7-.5-1.7.1-3.4.3-5.1.1-3.8-.4-7.5.4-11.2.7l-6.8.8c-.7-.8-.7-1.7-.1-2.4 2.1-2.6 2.6-6 3.9-9 .2-.5.2-1.1.9-1.3l.3.2c.5.7.2 1.6.4 2.4 0 .7.4 1 1.1 1.2 1 .3 2 .4 3 0l.7-.2h8.3c1.6.2 3.3.2 4.9.3.9.1 1.8-.3 2.7-.3 1.6 0 3 0 4.6.2a26.2 26.2 0 0 0 4.1.1c1.9 0 3.8.1 5.6.6 2.5.7 5 .6 7.5.7 1.8 0 3.6.4 5.5.6l6.3.5c2.6.1 5.2.7 7.8 1 1.3 0 2.3.9 3.6.9 3.9 0 7.7.8 11.5 1.3 1.6.2 3.3-.1 5 0 .5 0 1 0 1.5-.4 1.7-1.4 3.8-2 5.7-3.1a7.5 7.5 0 0 0 2.8-2.6c.6-.8 1.3-1.3 2.1-1.7z" fill="#F6CC53"/><path d="M158.7 152.8c-1.2-1.4-2.1-2.9-3.6-4-.3-.2-.7-.4-.9-.7-1-2.3-2.8-4-4.3-6l-.8-1.4c-.8-2-2-3.8-3-5.7l-3.6-7.2c-.2-.7-.2-1.2.2-1.8 2.1-3.1 4.7-5.8 7.8-7.8.9-.6 1-.5 1.4.3.4.8.5 1.7 1.2 2.3.4.6.4 1.3.7 2l1 2.6.5 1.1a158.7 158.7 0 0 0 2.6 6.3l1 2c.2.6.2 1.3 1 1.7v.2c.3 2.2 1.6 4 2.2 6 .1.3.3.6.6.6.2.4.1.8.2 1.3l.7-2.8c0-.3 0-.7.5-.7.4.5 0 1.1.5 1.7.5-.9.7-1.8.8-2.7.6-3.5 1.3-7 2.6-10.3.5-1.3.6-1.4 1.8-.7 2.5 1.3 5 1.5 7.7 1 .4 0 .8-.2.9.4-1.8 4.1-3.4 8.3-5 12.4l-.4 1.4c-.3.8-.4 1.6-1 2.3-.7 1.2-.4 2.5.3 3.7-.4.3-.8-.2-1.1-.3-.4 0-.8-.3-1 .1s.1.7.4 1l1 .5c1 .1 1.6.7 2 1.5.3.5.7.8 1.3.7.4 0 .7.2.9.6.2.4.4 1 .8 1.3.2.3.4.5.7.3.4-.2.2-.5 0-.7a14 14 0 0 0-.5-1.2c-.2-.3-.4-.6-.2-1 1 .5 1.4 1.4 2 2-.2.7-.2 1.4 0 2 .2.9-.2 1.7-.6 2.4-1 1.6-3 2.5-4.8 2-.6 0-1.2 0-1.8-.2-.4-.2-.7.1-1 .3-2 1.6-4.2 2.2-6.6 1-.1-.1 0 0-.1 0-3.1-.9-3.8-3.3-4-6 0-1.4-.5-2.6-1-3.8zM191 40v1c.6-.3.6-.9.8-1.3l.5-1.3c.6-.2.9.2 1.3.5.7.4 1.4.6 2.1 0 .2 0 .5 0 .5.4-1.1 1-1.9 2.2-2.6 3.5-2 3-4 5.9-6.8 8l-2.4 2.2a8.4 8.4 0 0 1-1.7 1c-1.2.3-2.4.5-3.6.4a8.6 8.6 0 0 1-7.5-4.4c-.6-1-1-2.1-1.3-3.3 0-.3 0-.6-.4-.8-.2.8-.4 1.5-.4 2.2 0 1.5-.3 3-.4 4.6 0 1.4.1 2.8.6 4.2.2.7 0 1.1-.6 1.6l-1.8 1.3c-1.1.8-1.5.7-2-.5-1-2-2-4-3.2-6l-.6-.9a6.2 6.2 0 0 1-1.1-4.3c0-.5 0-1 .3-1.4 1.6-2.4 2.5-5 3.6-7.6a9.6 9.6 0 0 1 2.5-3.4c.5-.4 1-.6 1.7-.6-.4-.3-1.2-.1-1.3-.8a1.9 1.9 0 0 1 0-.7c0-1.2.5-2 1.5-2.6.4-.3.5-1 1-1l2.2 1.3c1.6 1 3.4 1.4 5.3 1.6 2.7.2 5.4-.3 8-.1.3 0 .6-.2.7.2-.3.7-.7 1.3-.9 2.1.6-.2.6-.8 1-1l1-1c.4-.5.8-.4 1.2.1l2.1 3c1 1 1 2.4.7 3.8z" fill="#FED3C8"/><path d="M175.2 56c.3.2.7-.1 1 .2-.2.3-.3.5-.1.7.5.6 1 1.2 1.8 1.5a5 5 0 0 1 1.4 1.8c0 .2 0 .4.2.4 1.7-.2 2.3 1.1 3.3 2 0 .2 0 .3-.2.3s-.5-.1-.7-.3c-.6-.6-1.3-.6-1.8.1-.2.1-.5.2-.7 0-.1-.5-.5-1-.6-1.4 0-.1 0-.3-.2-.3-.2.1-.3.4-.4.6-3 3.6-6.7 6.5-10.9 8.6-.3.1-.5.3-.8.3-.7-.2-.2-.9-.5-1.2-.6-2-.7-4-1.2-5.9 0-.2 0-.6-.3-.7-.3 0-.4.3-.6.4a29.6 29.6 0 0 1-5 4.3c-.7.5-1 .5-1.2-.4-1.6-4.7-3.9-9-6.6-13.1-.5-.8-.5-1 .2-1.8 1-1 2-2 2.8-3.2.3-.3.5-.8 1.1-.8 1 1.4 1.8 3 3 4.2 2.5 2.2 4 4.8 5.2 7.7.2.6.5 1.3 1.3 1.4l1.3.5c.1.3-.1.4-.3.6 1.2-.4 2.2-1 3.3-1.6 1.7-1 3.3-2 4.8-3.3.4-.3 1-.5.6-1.1.2-.5.5-.4.8-.4z" fill="#424783"/><path d="M154.1 48.9c0 .8-.6 1.2-1 1.7l-1.7 1.7c-.4.4-.5.7-.2 1.2 2.6 3.6 4.5 7.6 6.2 11.7l.5 1.7c.2.6.3.8 1 .3 1.9-1.4 3.7-3 5.3-4.8a.5.5 0 0 1 .5-.2 409 409 0 0 0 1.5 7c0 .2.2.6-.1.7-.3.2-.6-.1-.7-.4-.4-.5-.6-1.2-.7-2l-.6-3.2c-.4 1.6-1 3-1.6 4.5-.2.5-.3 1-.8 1.5a713 713 0 0 0-8.7 25.2l-3.3 10.3c-.4 1.4-.3 2.8.7 4.2 1 1.4.7 3 0 4.7v.2h-.5c-.6-.3-.1-.6 0-.8.2-1 .6-2 .2-3-.3-.7-.4-1.3-1.1-1.5-.4-.1-.5-.5-.6-.9-1-4-2.3-7.8-3.5-11.7L141 82.8l-1.5-6v-.5c0-.3 0-.5.3-.5s.3.2.4.4c.6 2 1.3 4.1 1.8 6.3.4 1.3.5 2.7 1.8 3.7l.5-2.2c.5-1.3 1-2.6 1.1-4.1 0-.2.1-.6.4-.5.2 0 .2.3.2.6-.2 2.3-.4 4.5-.2 6.8.1 2.4.3 4.8.6 7.1l.5 3.6.3-3.5c0-1.6.3-3.2.2-4.9v-.5c0-.1.2-.3.4-.3s.3.2.3.4v3.8a34.8 34.8 0 0 0 1 13.2l1.3-5c2-7.4 4.4-14.6 7-21.7 1-3 2.2-5.8 3.3-8.8.3-1.5 1.1-2.8 1.7-4.3-1 .9-2 1.6-3 2.1-.4.2-.8.5-1.2.2-1.3-1.5-1.7-3.4-2.5-5a52.7 52.7 0 0 0-4.3-7.9c-.5-.7-1.2-1.1-1.7-1.9 1.3-1.7 2.9-3.1 4.4-4.5z" fill="#363A6F"/><path d="M200.4 190.3a23.7 23.7 0 0 1-5.8-4.6c-2.3-2.6-2.6-5.9-2-9.3l.4-3c.1-1 .4-1.7.9-2.4.8-1.3 1.8-2.6 2.5-4l.3.5a14 14 0 0 1-.5 6.2c-.4 1.5-1 3-1.3 4.6a14.1 14.1 0 0 0 0 4.7c.2 1.3 1.6 2.2 3.4 2.3 1.7.2 3.3-.4 4.9-.6 3-.4 6-1.2 9-.8 2.5.4 5.1.5 7.6 1.4a40.8 40.8 0 0 0 11.6-.7c1.6-.4 3-3.2 2.1-4.7l-.2-.5 1.8 1.2c.5.3.7.9.4 1.5L234 185c-.3.6-.9.8-1.5 1-1.5.7-3.1 1-4.8 1.1l-1.7.2c-.8-.1-1.5-.3-2.3-.2-.6 0-1.2-.5-1.8 0-.4.5-2.3.5-2.7.4l-5-.8c-2-.3-4-.2-6 0-3.2.2-5.6 1.7-8 3.6z" fill="#DDAFB5"/><path d="m94.3 212.1-5.4 1.2c-2.4.4-4.7.8-7 0-.8-.1-1.4-.5-2-1l-2.6-1.4c-.3-.1-.6 0-.9.1-2 1-4 1.8-6.1 2.4-.4 0-.6.2-.8.5-.2.4-.6.7-1 .8-2.5.8-5 1-7.5 0-1.3-.5-1.9-1.7-2.2-3-.1-.6.4-.9.9-1a4 4 0 0 0 1.6-.7c.3-.2 0-.1 0-.2-.1-.1-.1-.2 0-.2 1.3-.4 2.4-1 3.5-2 1.3-1 2.8-1.7 4-2.8 1.4-.9 2.8-1.6 4-2.5.5-.2 1-.4 1.5-.1l.2.1c.1.5 0 .8-.4 1-2.5 1.5-4.5 3.6-6.8 5.3-2 1.4-4 2.4-6 3.6.1.3.4.2.8.2.6 0 1.2.1 1.9.4a2 2 0 0 0 2.3-.5c1.9-1.7 4-3.3 6.7-3.6a7.5 7.5 0 0 0 1.8-.4c.6-.2 1.2-.3 1.8-.1a2.8 2.8 0 0 0 1.2 0c1.1 0 2 .7 3 .9 1 .2 2 .4 2.7 1.4.3.3.7.3 1 .1.8-.5 1.7-.6 2.7-.8 1.3-.3 2.6-1 4-.9.3 0 .4-.2.4-.4v-.4c0-1.2.6-2 1.7-2.3l.2.1c0 2 .8 4.1.8 6.2z" fill="#F8CEC5"/><path d="M175.2 56c-.2.3-.5.1-.7.4 0 .3-.3.5-.5.6-2.5 1.7-5 3.5-7.7 4.7h-.3c-.5.5-.8.1-1.2-.2-.3 0-.4-.3-.5-.6-2.1-3.7-4.1-7.5-7-10.7-.1-.2-.3-.4-.3-.8 1.4-1 2.2-2.5 3.1-4 1.4-2.2 2.7-4.5 3.7-6.9.1-.3.4-.6 0-1 .7-.3 1.5-.4 2-1l1.1-1.6c.1-.2.1-.6.5-.6.4.7 1.2.2 1.7.7 0 .2-.2.2-.4.3-2.3.4-3.2 2.2-4.1 4-1.2 2.5-2 5.2-3.6 7.5-.4.7-.4 1.3-.4 2 0 1.2.3 2.3 1 3.2 1.5 2.4 2.9 4.8 4 7.4.4 1 .6 1 1.4.4.6-.5 1.1-1 1.8-1.3.9-.4.8-1 .6-1.9a14 14 0 0 1-.3-6.1c.2-1.5 0-3 .5-4.3 0-.2 0-.6.3-.6s.5.3.6.7a10.4 10.4 0 0 0 3.6 6.4 7.8 7.8 0 0 0 4.2 1.6c1.3 0 2.7.2 4-.3l.4.1c-2 1-4 1.6-6.2 1.5h-.7c-.6-.4-.6 0-.6.5z" fill="#EAB8BC"/><path d="M178.4 130.5c-.1-.1-.2-.4-.5-.3-.5.4-1.2.3-1.8.3a10 10 0 0 1-6.7-1.4c-.5-.4-.8-.3-1 .3a53.3 53.3 0 0 0-2.7 11l-.6 2.2c-.1.2-.2.6-.5.6-.4 0-.3-.5-.4-.7l-.1-1.3c-.3-.4-.2-.9-.1-1.3l1.4-10v-.4l.1-1 .4-2.8.6-2.9.4-.8c.3-.3.5 0 .8.1 1 .8 2.2 1.1 3.4 1.4 2 .7 4 1.4 6.2 1.4.8 0 1.5-.2 2.3-.3.4 0 .9-.2 1.2.2-.2 1.4-1 2.5-1.4 3.8l-1 1.9z" fill="#DDAFB5"/><path d="M197.4 198.4c-2.5 0-4-1.5-5.7-3.2-2-2.1-4-4.3-6.2-6.3-2.3-2.1-5.2-2.4-8-3a38 38 0 0 0-8.2-.8c-2.3 0-4.5-.4-6.8-.7a41.3 41.3 0 0 0-3.4-.2c-2 0-4.1-.1-6.1-.7h-.7c-3.8 0-7.5-.5-11.3-.7a106 106 0 0 0-11.7-.2l-3.9.1a86.8 86.8 0 0 0-6.3.4l-1.7-.2-4.5.1c-1.5.2-3 .1-4.5-.2-1.2-.3-2.3.5-3.5.3-1.5-.3-3-.1-4.6-.2-2.6 0-5.1.4-7.7.8-1.4.2-2.4 1.5-2.4 3l.1 4.7c0 1.8.5 3.6.3 5.3 0 1.1 0 2.1.5 3.2.2.3.3.6 0 1.2-.5-1.6-1.4-3-.9-4.6.2-.7-.4-1.1-.4-1.8 0-.4-.2-.8-.1-1.2.2-2.1-.5-4.1-.4-6.2.2-1.7.5-3.2 2.1-4 .8-.5 1.7-.8 2.6-1l7.6-.7c.9 0 1.9-.3 2.7-.1 1.7.5 3.4.4 5.1.7 1.3.3 2.5.2 3.8.1a29.9 29.9 0 0 1 4 0c1.6.1 3.2 0 4.8-.1 3.4-.3 6.8-.1 10.3-.2 3.8-.2 7.6.2 11.5.5 2.4.2 4.8.4 7.2.4 3.1.1 6.3.6 9.4.7 2.9 0 5.6.7 8.5.7 4.5.2 9 .5 13.4 2a10.8 10.8 0 0 1 3.7 2c2.7 2.4 4.9 5.1 7.4 7.5 1.3 1.2 2.7 2 4.5 2 .4 0 .5.3 0 .5-.1.2-.3.1-.5.1z" fill="#CB482A"/><path d="M180.8 124.8c-1-.1-2 .3-3 .3a14 14 0 0 1-5.2-.9l-1.7-.5c-2-.8-3.7-1.8-5.3-3.1-.3-.3-.7-.5-.8-1-.6-.8-1-1.7-.6-2.8.5-.9.7-1.8 1-2.7 0-.2 0-.5.2-.7 1-.7 1.5-2 2.5-2.7.4-.3.6-.6.5-1-.2-2 .5-4 1-5.8.5-1.3 1.3-2.4 2-3.6 1.3-2.4 2.6-4.8 4.4-7 .1-.3.3-.7.6-.5.4.3 0 .6 0 .9-1.6 2.4-3.2 4.8-4.5 7.3 0 .3-.2.5-.3.7-.2 1.1 0 1.2 1.2 1.2 2.1-.2 3.3-2 5-3 0 0 .2 0 .4-.3-.2.7-.6 1.1-1 1.5-1.7 2-3.8 3.3-6.2 4.2-1.2.5-2 2.4-1.9 3.7.2 1.3.3 2.5.8 3.7.1.2.2.6-.1.7-.3.1-.4-.2-.6-.3-.4-.5-.3-1-.8-1.5.3 1.2-.4 2.7.7 3.8.2.1.4.3.2.5-.1.3-.4.2-.6 0-.6-.2-1.2-.6-1.8-1-.7-.2-1 0-1.2.8 0 .5-.4 1-.6 1.6-.3.4-.2.8.2 1.3 2.6 2.6 5.8 4.4 9.4 5 3 .5 6.2.2 9.2-.8 2.3-.6 3-2.5 3.6-4.4-1.2.7-2.4 1-3.8.9a23 23 0 0 1-4.8.1 15 15 0 0 1-8-2.2c-.3-.3-.6-.4-.8-1 2.3 1.2 4.5 2.1 7 2.2h2.2c1.6.2 3.2.3 4.6-.2 1.5-.5 3-1 3.6-2.9.3-1 .7-2.2 1.3-3.2 0-.3.2-.7.5-.5.4.1.1.6.2 1l-.1.8-.7 2.3c-.1.3 0 .7.1 1 .2 1.1 0 2.2-.5 3.2-1.2 3-3.4 4.3-6.4 4.7l-1.1.2z" fill="#363A6F"/><path d="M180 62.6c.5-.8 1.1-1 1.8-.4.3.3.6.5 1 .5l.7.4c3.2 3 6.6 6 9.5 9.3.5.7.5 1.3-.2 1.8-.5-.7-.8-.1-1 .2-.2.4-.4.6-.8.3-4-2.4-8.2-4.4-11.7-7.6a3 3 0 0 0-1.3-.7c-.6-.4-.6-1-.1-1.5l.9-1.2c.4-.5.8-.8 1.3-1.1z" fill="#4F6BBA"/><path d="M114.4 114.5c0-.2.4-.2.2-.5-1.7-2.3-1.2-4.7-.6-7.2l.8-2.6.8-2.4c.1-.2 0-.6.5-.6.3.2.2.6.2.9 0 .6.2 1.1.4 1.7.2.6.4.9 1.2.7.6-.1 1 .7 1.5 1 0 1.3-.4 2.6-.4 4 0 1.6.4 3.2.2 4.8 0 .4.1.6.5.7 2 .6 4 1.5 6 2.3l.7.4c.7.5.7 1.1 0 1.7a1.9 1.9 0 0 1-.5.3h-.5c-1.7-1-3.8-1.2-5.6-2.1-.6-.3-1.3-.3-2-.6a8.6 8.6 0 0 1-3.4-2.5z" fill="#3E427D"/><path d="M146.3 53.2c.7.6 1.5 1.2 2 2 .5.9.8 1.6.7 2.5-2.2-.1-4.3.5-6.5 0-.6-.2-1.2-.1-1.8-.1-1.8 0-3.7-.1-5.5-.4a1.2 1.2 0 0 1-.7-.2c-.8-.8-1.6-1.7-2.5-2.4l-.4-.8c0-.3.3-.5.5-.7.1-.4.5-.5.9-.5l7.1-.1c2.1 0 4.2-.1 6.2.7z" fill="#4F6BBA"/><path d="M230.7 173.6a6 6 0 0 1 2.8-3.4c.6-.4.7-.7.5-1.2a25 25 0 0 1-1-6.3c-.1-1.6-.2-3.3 0-5 .1-.7.3 3.6 2.5 6.6l.2.5c0 2.5 1.2 4.4 2.9 6.3-2.7.8-5.6.8-7.9 2.5z" fill="#DDAFB5"/><path d="M94.3 212.1c-.5-2-1-4.1-.9-6.3-.3-.5-.1-1-.2-1.6v-.6c.4-1.1.3-2.3.5-3.4.4-2.3 1-2.8 3.3-2.6l.2.1c.2.3 0 .5 0 .8-1.6 4-1.7 8-.4 12.2l.2.8c0 .6-.3 1-1 1h-1.3a3 3 0 0 1-.4-.4z" fill="#F25833"/><path d="m196.3 39.3-.6-.1c-.5 0-1 0-1.3-.7 0-.2-.1-.5.3-.4l.5.2c.6.3 1.3.7 2 0 0 0 .1-.1 0-.2-1.3 0-2.4-.7-3.3-1.6-.3-.7-1-1.3-.8-2.2a4.2 4.2 0 0 0 3.9 2.2c1.8 0 2.1-1.9 3-3.4-.9.4-1.1 1.2-2.1 1.2 2-1.9 3-4.1 2.4-6.9.3.7 1 .8 1.3 1.4a.6.6 0 0 1 .3.2c.3.9.2 1.8.2 2.7 0 .7-.3 1.4-.4 2.2-.2 1.9-1.1 3.5-2.3 5-.4.5-1 .5-1.6.5h-1.5z" fill="#DEB24D"/><path d="M114.4 114.5c.3 0 .6 0 .8.3 1 1.4 2.4 2.1 4.1 2.4.5 0 1 .3 1.5.5 1 .5 2.1 1 3.3 1.2.6.1 1 .5 1.7.8a46.2 46.2 0 0 0 7.6 3.5 4.1 4.1 0 0 1 1.6.8c.3.2.5.4.5.8v.3c-.3.5-.7.4-1 .3a66 66 0 0 1-7.7-2.5c-.3 0-.6-.2-.8-.5-.3-2.2-1.6-3.3-3.7-3.7l-5.7-.6-2.3-.7c-.7-.2-1-.6-.7-1.4a4 4 0 0 1 .8-1.5z" fill="#303352"/><path d="M206 164c.3 0 .6-.3.9-.6.1-.1.3-.3.5-.1.2.1.2.4.1.6a2.5 2.5 0 0 1-.1.7 15 15 0 0 0-.5 8.6c0 .3.4.8-.3 1-.2 0 0 .3 0 .4l.8 2c0 .2.3.5 0 .7-.3.2-.5-.1-.7-.3-1.2-1.5-2-3-2.3-4.8-.2-1.4 0-2.8-.1-4.1 0-1.6.6-3 1.6-4.2z" fill="#DDAFB5"/><path d="M94.7 212.6c.2-.5.6-.5 1-.4 1 .1 1.3-.2 1-1-.8-1.6-1-3.4-1-5 0-3 0-5.9 1.5-8.5.3 0 .6.1.7-.4.3-.1.6 0 .9.2-.8.3-1 .9-1.2 1.6-.8 3.3-1 6.7-.4 10.1 0 .7 0 1.3.2 2 0 .4.2.9.6 1.2.1.2.4.3.4.6-.1.3-.5.2-.7.3H97c-.8-.1-1.7-.1-2.3-.7z" fill="#CA482A"/><path d="M128.7 57.7a21 21 0 0 0-4 4.3c-.6.8-.5 2-1.3 2.7-.3-.6.2-1 .3-1.7-.5.3-.8.9-1.2 1.2-.3.4-.7.8-1 0 0-.5.3-1 .5-1.4-.2 0-.3.4-.6.2a.3.3 0 0 1 0-.2 15.6 15.6 0 0 1 2.5-3.6 16 16 0 0 1 4.3-3.1c.5-.3 1-.4 1.6 0 .6.3.3.9.3 1.4-.2.1-.4.2-.5 0-1.3-.5-2.5 0-3.6.6 1 0 1.7-.9 2.7-.4z" fill="#3E427D"/><path d="M167.5 34.3a8 8 0 0 1-1.5 2.3c-.6.7-1.3 1-2.1 1h-.7c-.2-.3-.6-.2-.9-.2-1.4-.4-3-2.3-2.9-3.7 0-.4-.1-.9.4-1 .6 0 .6.4.7.8.3 1 .9 1.9 2 2.3 1.7.7 3.9-.8 3.9-2.7l.2-1.7c0-.3.2-.4.3-.2 1 .6.7 1.5.6 2.4v.7z" fill="#DEB24D"/><path d="M131.7 53.7c.9 1.3 2.2 2.2 3.2 3.3.3.2.8.3.5.8-.3.2-.6.1-1.1.2 1.2.4 2.3.7 3.4.8 2.5.2 5 .5 7.3.4 1 0 2-.1 2.9-.7 0 0 .2-.2.3-.1.4.4.3.8-.4 1l-2 .2c-3.5.3-7 .2-10.5.2-.5 0-1 0-1.3-.5-.4-.6-1-.3-1.6-.4-.3.1-.4 0-.4-.3a1.5 1.5 0 0 1 1-1.1 9.8 9.8 0 0 1-1.8-2.5c-.1-.3-.4-.6-.2-1 .2-.3.4-.5.7-.3z" fill="#3E427C"/><path d="M176.6 153.1c.2.8.8 1.4 1.1 2.2.2.3.3.6 0 1-.5.2-.8 0-1.1-.3a7 7 0 0 1-.8-1c-.3-.6-.4-1.3-1.3-1-.4 0-.8-.4-1-.8-.4-.7-.8-1.3-1.8-1.4-.6-.1-1.1-.6-1.6-1-.2-.2-.3-.5-.2-.8.2-.3.4-.4.8-.4.6 0 1.1.5 1.7.6l2 1 .3.3a5 5 0 0 0 2 1.6z" fill="#DDB0B5"/><path d="M131 54c.5 1.1 1 2.2 2 3 .2.3.4.6-.2.8-.3.1-.5.5-.7.8-.8-.2-1.4-.6-2-1 0-.2-.3-.3-.2-.5.2-.8-.1-1.1-.8-1-.6 0-1 .3-1.5.6-1.1.7-2.4 1.4-3.4 2.4l-.3.2c1.5-2 3.2-3.5 5.5-4.3.7-.1 1-.8 1.6-1z" fill="#424784"/><path d="M157 49.4c3.3 3.6 5.5 7.9 7.9 12-1 .2-1.4-.6-1.6-1.3a27 27 0 0 0-3.5-6.1l-1-1c-1-.8-1.5-2-2.2-2.9l-1-1.2c-.1-.3-.5-.5-.3-1 .6-.1.8.4 1 .7l.7.8z" fill="#383C70"/><path d="M107.8 115c-.2.5-.6.7-1 .7-1.3 0-2.5.2-3.7-.1h-1.3c-.4 0-.8 0-.8-.5 0-.6.5-.6.8-.6a17.8 17.8 0 0 1 2.2 0c1.1 0 2.3-.2 3.4.1l.4.4z" fill="#D74A54"/><path d="M201.7 33.8c-.2-.7.2-1.4.1-2.2.2-.7.1-1.5 0-2.2v-1.6c-.3-.5 0-1-.3-1.5-.3-1-.2-1.8-.6-2.7l-.4-1.2c-.1-.4 0-.4.4-.4a8 8 0 0 1 1.5 4.4c.3 2.6.3 5-.7 7.4z" fill="#F6C964"/><path d="M77.5 117.4c.7-.2 1.4 0 2.2 0H84c.3 0 .5 0 .6.2 0 .3-.3.4-.5.5l-1.2.2h-4.3c-.5 0-1-.2-1.2-.6v-.3z" fill="#D74A54"/><path d="M163.9 15.3v.4c.2-.1.3-.3.3-.4.4.4 0 .9 0 1.3-.3 2-.1 4 .1 6v1c-.4-.6-.4-1.2-.4-1.9-.3.1 0 .9-.6.6-1-3.2-.7-6.2.4-9.2h.2c.2.4 0 .7-.1 1-.4 1.9-.6 5.6-.3 7 0 .1.2 0 0 0V21c-.2-1.7-.2-3.5 0-5.2 0-.2 0-.5.4-.5z" fill="#F1C45E"/><path d="M119.1 80.3c.1-.7.4-1.4.7-2.1.3-.8.2-1.5 0-2.3v-3c.6 0 .5.4.5.8l.6 5.7c0 .3 0 .7-.4 1-.6.4-.7 1-.7 1.6l-.2 1.4c-.1.3-.2.7-.7.5l.2-3.6z" fill="#454A84"/><path d="M117.3 95.8c0-1.3.4-2.5.2-3.8a149.5 149.5 0 0 0 1.6-11.7L119 84c.3.6 0 1.2 0 1.7-.5 3.1-1 6.3-1.2 9.4 0 .4 0 .8-.5.8z" fill="#454A85"/><path d="M121.4 62.8v.3c.2.2.1.4 0 .6-.5 1.2-.7 2.5-.9 3.8-.1.5 0 1 0 1.6-.2.4-.2.8-.7.6v-1.5c0-2 .5-3.7 1.6-5.4z" fill="#454A84"/><path d="M113.5 116.1c0 .7.3 1 1 1.2.8 0 1.5.4 2.1.8l-3.4-.2c-.1-.6 0-1.2.3-1.8z" fill="#393A6C"/><path d="M178 58.4c-.5.3-.7 0-1-.2l-1.2-1.2c-.4-.5-.3-.7.3-.8.7.7 1.5 1.2 1.8 2.2z" fill="#3C4074"/><path d="M188.9 116.7c-.5-.3-.6-.6-.3-1l.9-2.3-.6 3.3z" fill="#4A4F88"/><path d="M119.8 68.2v1.5c.5 1 .5 2 0 3v2.5c-.2-2.3-.3-4.6 0-7z" fill="#454A85"/><path d="M200.7 24c-.4-.8-1-1.7-.9-2.8l.4.6c.4.7 1 1.4.5 2.3z" fill="#F6C964"/><path d="M119.8 75.8c.3.8.4 1.6 0 2.4.2-.8 0-1.6 0-2.4z" fill="#454A85"/><path d="M183.5 63.1c-.4.2-.6-.1-.8-.4h.2c.2 0 .4.2.6.4z" fill="#434885"/><path d="M174.6 151.5a.6.6 0 0 1-.3-.4c.2 0 .5 0 .7.2a1.6 1.6 0 0 1-.4.2z" fill="#ED9485"/><path opacity=".2" d="M74.4 202.2c-.5 0-1 0-1.3.2l-4 2.5c-.7 0-.7-.4-.4-.8l2.3-3L73 198c.9-1.3 1.4-2.8 2.6-4 .2-.2.2-.6.4-1 .3-.4.9-.6 1.4-.9h.6c.3.3.1.5 0 .7a15.7 15.7 0 0 1-.8 1.2c-.2.3-.5.6-.4 1a27.7 27.7 0 0 0 4.5-2.2c1.3-.8 1.7-2 2.3-3.3.6-1.4 1.2-2.9 2-4.3 0-.3.2-.9.8-.5v3.4c-.2 2.7 0 5.4.4 8 .2 2 .7 3.7 1.2 5.5-.4.4-.9.2-1.3.1-3.7-.9-7.3-.3-11 .1-.5 0-1 .4-1.4.4z" fill="#02020F"/><path d="M98.8 197.5c-.3 0-.6 0-.9-.2-.4-.7.1-1.2.6-1.7s.7-1 .7-1.7c0-1.5 1-2.6 2.1-3.4.7-.5 1.5-.9 2.4-1 1 0 2-.5 3 0 .4 0 .8.2 1 .7-.7-.4-1.6-.3-2.4-.3-1.8 0-3.4.7-4.7 2.1a1.4 1.4 0 0 0-.3.5c-.3.5-.8 1.2-.5 1.7.4.4 1-.2 1.5-.4 1.9-.6 3.7-1 5.6-.3 1.1.4 2.2.4 3.3.2h4.1c-1.5-1.2-3.3-2-5-2.9.4-.3.7 0 1 0 1.7.7 3.4 1.4 4.9 2.5.4.3.9.4 1.4.4 2.3 0 4.7 0 7-.2 4.4-.1 8.9.2 13.3.2a359 359 0 0 1 18.5.7l7.7.4c4 .2 8.1.3 12.3.3.3 0 .8-.1.8.4s-.5.5-.9.5c-1.9.3-3.8.2-5.7.2-3 .1-6-.1-9-.2a192.3 192.3 0 0 1-8.5-.4 115.2 115.2 0 0 0-5.6-.2c-2 0-3.8.6-5.7 1h-.5c-1.3-.5-2.3.4-3.4.8l-1.9.9c-.1 0-.3.2-.5 0-.1-.2 0-.3.2-.4a11 11 0 0 0 2.3-2.5c-.6-.2-1.3-.2-2-.2l-13.2-.3h-7.5c-3.5 0-7 .4-10.3 1-1.3.3-2.5.6-3.8.5-.5 0-.8.1-.9.7 0 .3-.2.5-.5.6z" fill="#CA482A"/><path opacity=".2" d="M86.4 188v-2.6c0-.2 0-.6-.2-.8-.3-.4 0-.8.1-1.1a69 69 0 0 0 2.3-8.2c0-.8 1-1.2 1-2 0-.2.2-.5 0-.8-.3-.3-.9-.2-1-.7 0-1.4 1.1-2.1 2.2-2.7.9-1.8 1.5-3.7 2.3-5.5l1.8-3.7c.1-.3.2-.5.7-.7.2 1-.1 2.1.3 3.1s1.1 2 1.7 2.9c-.4.3-.5.7-.6 1l-2 5.4a8.8 8.8 0 0 1-1.7 3.4c-.8.8-.8 1.8-.4 2.8-1.2.4-2.3.9-3.4 1.6a4 4 0 0 0-1.1 1.2c-1.1 2-2.1 4-1.9 6.3v1.2z" fill="#02020F"/><path d="M74.4 202.2c.2-.4.6-.5 1-.6l6-.6c2.3-.3 4.5.3 6.7.6 1 1.7 2.3 2 4.5 1.2.2 0 .3-.2.5 0 .3.2.2.5.2.8l.1.4c0 .2 0 .4-.2.5-1 .8-2 1.1-3.2 1.4-.6.2-1 0-1.3-.6-.2-.3-.4-.4-.8-.4l-.9-.1c-1.9-1.2-4-.7-6-.6l-2.7.2c-1.1 0-1.4-.5-.8-1.5-1-.2-2.1 0-3-.7h-.1z" fill="#F8CEC5"/><path d="M93.2 203.7c-.3-.3-.2-.6-.1-1 .2-.2.2-.4 0-.6-.7-1.5 0-2.9.5-4.2.1-.3.3-.6.6-.5.9.2 1.7-.2 2.5-.2.5 0 .7 0 .5.5-.7.2-1.4.4-2.1.4-.6 0-.8.3-1 .8-.3 1.3-.3 2.6-.5 4 0 .2 0 .6-.4.8z" fill="#CB482A"/><path d="M119.8 72.8v-3c.5-.1.4-.5.4-.8 0-.6-.2-1.1.2-1.6.6.9 0 1.8.2 2.5 0-1.5 0-3.1.5-4.8 0-.4 0-.8.5-1 .2.6.5.4.7.2l1-1.3c.1-.2.4-.4.6-.2.3.2 0 .4 0 .6-.2.4-.5.8-.5 1.3s-.3.8-.5 1.2a7.9 7.9 0 0 0-.7 4.2c-.6 1-.3 2.2-.3 3.3 0 1 .3 1.9.5 2.8 0 .6.2 1.3.4 1.9.1.6.2 1.1-.1 1.7-.3.5-.1 1 0 1.5v1.2c-.5-.1-.4-.5-.5-.8l-.6-2.8c-.2.7 0 1.4 0 2.2.5 2.4 1.5 4.6 2.3 6.9 0 .3.3.7.2 1l-.3.2c-.3 0-.1.1-.1.3.2 2.2.6 4.4 1.2 6.6 0 .6.3 1 .1 1.6 0 .3-.1.6-.5.6-.3 0-.4-.3-.4-.6a35.2 35.2 0 0 1-1.8-6.7c.2.9 0 1.6 0 2.3-.3.9-.2 1.7-.4 2.6-.6 2.2-.9 4.5-1 6.8 0 .5-.2 1-.4 1.4-.2.6-.4 1-1 1.1h-.2c-.7.5-.8-.6-1.2-.5-.5 0-1 .5-1.4-.2-.3-.8-.7-1.6-.6-2.5v-.8l.3-1.1c0-.2 0-.4.2-.5 1-1.7 1.3-3.5 1.4-5.4.1-2.7.7-5.4.9-8.1.1-1.5 1-2.9.8-4.5 0-.4.4-.9.7-1.2.3-.3.4-.6.2-1l-.6-6.3c0-.1 0-.2-.2-.3z" fill="#393E75"/><path d="M149.9 114.9h.5c-.2.2 0 .4.2.6.3.5.2 1.3 1 1.5.7 1 1 2.3 1.5 3.5 0 .1 0 .3-.2.5-.8-.7-.8-1.8-1.3-2.6-.2-.4-.3-.5-.7-.2-3.3 2.1-6 5-8.2 8.3-.2.3-.2.7 0 1 1 2.6 2.3 5 3.6 7.4 1 2 2.3 3.8 3 5.9-.4 0-.5-.4-.8-.6a43.7 43.7 0 0 1-3.2-5l-.4-.6c-.3-.3-.3-.8-.7-1.1l-1.2-1.6-.2-.3-.3-.2-1.6-2.8-1.4-3a3 3 0 0 0-1.3-1.6c.4-.6-.2-.7-.4-1v-.3c.3-.8 1.1-1.2 1.8-1.7 3-2 6.2-3.9 9.6-5.3.2 0 .4-.2.4-.5l.3-.3z" fill="#DDAFB5"/><path d="M149.6 115.2c.5.4 0 .6-.3.7a52.2 52.2 0 0 0-10.5 5.9l-1 1c-.2.2-.5.3-.7.2-1.7-.5-3.2-1.4-3.4-3.7 0-.5-.3-.9-.7-1.2a8.3 8.3 0 0 1-2-2.4l-1.4-2.2c-1-1.4-1.8-2.8-2.1-4.6-.5-3-1.7-6-2.3-9 0-.7-.6-1.4-.3-2.1-.2-1.7-.8-3.4-1-5l-.7-4.2c.5 0 .4.4.6.5l.9 3.9c0 .7.4 1.3.2 2l1.3 5.4 2 8.6 1 2c1.1 1.5 2 3.1 2.9 4.7 0 .2.2.3.3.4.3.6.7 1 1.2 1.4.7.5 1-.4 1.4-.6a58 58 0 0 0 11.1-6.1l1.5-1c.3-.3.5-.6.8-.2.3.4.2.8-.2 1-2.1 1.3-4.3 2.6-6.3 4l-5.2 2.9c-.6.3-1.2.2-1.8.5-.6.3-.8.7-.2 1.2.2.2.2.4.3.7.3 1 1.3 1.5 2.2 2 .2.2.3 0 .5-.2a37.8 37.8 0 0 1 10-6.1 4.5 4.5 0 0 1 1.9-.4z" fill="#363A6F"/><path d="m124 89.1-1.9-5c-.5-1-.6-2.4-.8-3.6l-.2-1.3c0-.3 0-.8.5-.8.4 0 .4.4.4.8a9.7 9.7 0 0 0 .7 3.3c.8 3.4 2.3 6.6 3.2 10 .1.2.4.6 0 .7-.3.1-.3-.3-.5-.6-.7-1-1.4-2.1-1.4-3.5z" fill="#363A6F"/><path d="M158.1 68.1c1.4-.2 2.3-1 3.4-1.8l1.2-.9c-.6 1.6-1.2 3.2-2 4.7-1.3-.2-1.8-1.2-2.6-2z" fill="#3B4078"/><path d="m135.5 57.7-.6-.7c3.3.5 6.5.1 9.7.7.7.1 1.5 0 2.1-.2.9-.2 1.6-.1 2.3.2-.1.4-.5.5-.7.7l-.2.2a.4.4 0 0 1-.5 0 8 8 0 0 0-3-.5l-8.4-.2h-.4c-.2 0-.2-.1-.3-.2z" fill="#46599F"/><path d="M139.2 73.6c0-2.5-1.3-4.1-2.4-5.9-.2-.1-.3-.4-.1-.6.2-.2.4-.1.6 0 1.3.8 2.7 4.6 2.2 6 0 .2 0 .2-.3.5z" fill="#363A6F"/><path d="M124 89.1c.3 1.3 1 2.3 1.4 3.4-.2.7 0 1.4.2 2 0 .3 0 .6-.2.8l-.5-.2c-.4-2-1-4-1-6z" fill="#3E427C"/><path d="M130 57.5c.9.2 1.5.6 2 1 .1.3.2.4.4.5-.2.6-.6.1-.8 0-.9-.6-2-1-3-1.3-1 0-2 .8-3 1-.1-.4.2-.5.4-.6 1.2-.7 2.4-1.3 3.7-.6h.4z" fill="#373B70"/><path d="M122.4 76.2c-.8-1.7-.8-3.6-.8-5.5 0-.3.3-.4.6-.6 0 2 0 4 .2 6.1z" fill="#3E427C"/><path d="M169.7 95.9c-2.4.3-5.8-2.3-6.4-4.5-.6-2.3-.8-4.4.2-6.5.4-1 1-1.6 2-2.1 2.4-1.5 5-1.9 7.7-.8 1 .5 1.7 1.2 2.2 2.2a9.3 9.3 0 0 1 1 7.3 5 5 0 0 1-2.6 3.2 8 8 0 0 1-4.1 1.2z" fill="#F15863"/><path d="M183.8 119.4c1-.4 2-.3 2.9-.8l1.2-.9a6.2 6.2 0 0 1-5.7 6l-4.3.4c-3.7.4-6.8-1.1-9.8-3-1.2-.6-2.1-1.5-3.1-2.5-.4-.3-.4-.7-.2-1.1l.8-2c.4-1.2.3-1.2 1.3-.4-.7 2.4-.5 3.2 1.5 4.2 3.2 1.5 6.5 2.6 10 2.5 2.2-.1 4-.8 5.5-2.1.3-.3 0-.3 0-.3zM153 121c-.3-1.4-.9-2.7-1.6-4-.4-.6-.8-1.2-.5-2 .6-.3 1 0 1.2.5.6 1.2 1.2 2.4 1.6 3.7a3 3 0 0 0 2.3 2c1.1.2 2.3.5 3.5.5.2 0 .5.1.7-.2.3-.2.5-.2.7 0 1.1.4 1.6.3 2.2-.6.4-.7 1-1 1.8-1.2l.9.7-.1.9c-.5 1-1 1.9-1.3 2.9-.5.6-1.2.8-1.8.5-1-.3-2-.1-3 .2-1.3.4-2.5.1-3.7 0-1-.1-1.4-.7-1.4-1.5.4-.4 1-.4 1.5-.4 1 0 2 .2 3 0 .2-.1.5-.1.5-.5 0-.3-.3-.3-.6-.3-.9-.2-1.7-.1-2.6-.1-.7 0-1.5 0-2-.8.3.4.3.4 1 .8.3.1.6.3.5.6 0 .3-.3.2-.5.3-.2 0-.5.1-.7.3-.5.3-.6-.3-.9-.5l-.7-1.8zM179 63.6l-.8 1.3c-.6.5-.5.9-.1 1.4.1.2.4.1.4.4 0 .6.4 1 .9 1.4a55 55 0 0 0 5.8 4.5c.3.2.7.2.6.7-1.4-.2-2.4-1.1-3.4-2-2-1.4-3.8-3-5.7-4.5-.4-.4-.6-.2-.8 0l-2.8 2.8c-.9.9-1.9 1.6-2.9 2.3-.6.5-1.3.5-2 .6a.8.8 0 0 1-.8-.5c-.1-.4 0-.7.2-1 0-.2.5-.2.3-.6 0-.4.3-.4.5-.5 2.3-.9 4.3-2.4 6.1-4 1.6-1.4 3.1-2.8 4.2-4.7a.3.3 0 0 1 .3-.2c.2.6.8 1 .6 1.6 0 .5-.5.7-.6 1z" fill="#3E427D"/><path d="M188.9 112.1c-.3 1.8-1.2 3.4-1.9 5l-.2.3c-1 .2-1.8 1-2.8 1.1-2.2.5-4.4.2-6.7 0h-.1c-.4-.7-.2-1 .6-1 2.3 0 4.4-.8 6.6-1.5 1.2-.5 1.8-1.8 2.5-2.8.6-.7 1-1.5 2-1z" fill="#3E427C"/><path d="M161.7 70.3c.8-2.2 1.7-4.4 2.3-6.6h.3l.6 4 .6 1.7c0 .2.2.5.5.4.3 0 .1-.4.2-.6.5.2-.2.9.4 1 0 .2 0 .3.2.5-1.2.4-2.2 0-3.3-.2-.6 0-1.2-.3-1.8-.2z" fill="#3C4079"/><path d="m185.8 73.3-4-2.8a42.3 42.3 0 0 1-3-2.7c-.3-.3-.7-.6-.4-1.1.4 0 .7.3 1 .5 3.3 2.7 7 5 10.7 7.2.4.3 1 .3 1.5.6l.1.2c.2.2.8.4.4.8-.2.4-.7.2-1.1 0a225.6 225.6 0 0 1-3.7-2c-.5-.3-1-.6-1.5-.7z" fill="#3A3F77"/><path d="M166.8 70.7c-.4 0-.3-.2-.2-.4 3.8-1.8 7-4.3 10-7.3l1.9-2.2c.1-.2.3-.4.5-.3.3.2 0 .4 0 .6a25 25 0 0 1-9.7 8.7l-1.5.6c-.3.1-.6.3-1 .3zm-6 50.8h-.7c-2.3-1.4-2.7-3.1-2.2-5.3.2-.8.5-1.6.4-2.5 0-.2-.1-.5.2-.6.3 0 .5.3.5.6 0 .7.1 1.4-.2 2.1-.4.8-.3 1.6-.3 2.4 0 1 .9 1.6 1.8 1.5.2 0 .7-.4.8.1 0 .5-.5.5-.8.6l-.3.1c.3.4.8.5.8 1z" fill="#363A6F"/><path d="M191.6 75c-1.3.1-2.1-.7-3-1.3-1.7-.9-3.2-2-4.8-3a55.6 55.6 0 0 1-5.4-4 3.6 3.6 0 0 1-.3-.4c1 0 1.6.8 2.3 1.4 2.3 2 5 3.4 7.5 5 1 .6 2.3 1 3.2 1.9.4.3.5 0 .7-.2 0 .2 0 .4-.2.6z" fill="#414F8F"/><path d="M110 148c-3.3.5-6.5.6-9.7 1.7a7 7 0 0 0-3.3 2.5h-.3l-.1-.8v-5c0-1 .2-1.3 1.1-1.3h4.9c1.1 0 1.3-.2 1.3-1.3V141c0-1-.2-1.2-1.2-1.2H98c-1.3 0-1.5-.2-1.5-1.4v-4.7c0-1-.1-1.2-1.2-1.2h-2.6c-1.1 0-1.3.1-1.3 1.3v4.4c0 1.5-.2 1.6-1.6 1.6h-4.6c-1 0-1.2.2-1.2 1.2a44.5 44.5 0 0 0 0 2.9c0 .9.2 1 1.2 1l4.7.1c1.3 0 1.5.2 1.5 1.6v5.9l-.6.2c-2-.2-4 .5-6.1.4h-2.5c-.3-.1-.7 0-1-.3-.9-1.5-1.8-3-2.5-4.7a16.1 16.1 0 0 1-1.3-8.2c.2-1.7 1-3.4 1.8-5 2.4-5 6.5-8.3 12-9.4l.7-.2a51.3 51.3 0 0 1 5.3 0 16.6 16.6 0 0 1 13 10.7c.5 1.3 1 2.7 1.2 4.2a16 16 0 0 1-.6 6.7c-.2.5-.4.9-.8 1z" fill="#FEFEFE"/><path d="M110 148a15.6 15.6 0 0 0-.6-13.6 16.1 16.1 0 0 0-11.5-8.6l-.5-.2c.3-.3.7-.3 1.1-.3h15.7c.4 0 .9 0 1.2.3 0 2.5 1.6 4 4.4 4.3.6 0 .8.2.8.7.3 2.5.1 5 .2 7.5v8.6c0 .4 0 .8-.2 1.2-3.6-.4-7.1 0-10.6.2z" fill="#EA777F"/><path d="M145 134.4c.8.7 1 1.7 1.6 2.5 1 1.3 1.7 2.7 2.7 3.8.8 1.3 1.8 2.4 2.7 3.6.9 1.1 1.8 2.2 2.4 3.6.1.3.5.6.8 1l-7.9-.7a301.5 301.5 0 0 0-5.2-.3l-1-.1c.8-.2.5-.8.4-1.4v-.2a13.1 13.1 0 0 1 0-4.8c0-.9.5-1.8-.7-2.4l-.2-.5c-1 3-1.7 6.2-4 8.7.6.4 1.4-.2 1.8.5l-10-.1H127v-.2a.5.5 0 0 1 .2-.1c1.2-.4 1.2-.4 1.2-1.6-.1-4.2 1.6-7.6 4.3-10.7 1-1.2 2-1.6 3.4-1.1 1.5.4 3 .4 4.4.7l.2.2c.3.5.1 1.1.2 1.7v.2c.2 0 .1 0 .1-.1.2-.6 0-1.3.4-1.8 1 0 2-.3 2.9.3.2.6.6 1.2.5 2 .2-.5-.1-1-.1-1.4 0-.4-.1-.9.2-1.3z" fill="#424783"/><path d="M192.6 166.8c-.7.6-1.4 1.2-2 2-1 1.8-2.8 2.6-4.6 3.5-1 .5-2.1.9-3 1.6-1 .8-2 1.1-3.2 1-1-.2-1.9 0-2.8 0-2.1 0-4.2-.5-6.3-.8-1.8-.3-3.6-.5-5.5-.5-.8 0-1.7.1-2.3-.3-1.6-.9-3.3-.8-5-1-2-.3-3.9-.6-5.9-.7-2.4 0-4.8-.3-7.2-.6-1.6-.2-3.2-.6-4.8-.4-1.7.1-3.4 0-5-.3-1.4-.2-2.8-.6-4.2-1h-.5c-3.9.2-7.8-.4-11.7-.3-1 0-2.1.4-3.2.3-3.9-.4-7.8-.3-11.7-.4l-.9.1c-1.3.7-2.6.4-4 0-.3 0-.7-.2-.8-.7 0-1-.2-2-.1-3l2 1c.2.3.5.3.8.3h.2l1.3.2c3.7.4 7.4.6 11.2.3 2.3-.2 4.6 0 7 .2l5 .3c4.5.4 9 .6 13.6.9l6.1.2 9.7.5c.3 0 .7 0 1 .3l5.2.9c.7.1 1.5 0 2.1.3 0 .7.5.4.7.5l5.2.7c1 .1 2.1.4 3.2.3 1.3.2 2.5.4 3.7.4 2.4 0 4.8.6 7-.7 1.7.1 2.4-1.3 3.4-2.2.7-.6 1.5-1 2.3-1.5 1.3-.6 2.7-1 4-1.4z" fill="#E6BE49"/><path d="m155.8 169.5-12.5-.5c-3.5-.2-7.1-.5-10.7-.6-2.8-.1-5.5-.5-8.3-.7-1.5 0-3 0-4.6-.2-3.7-.4-7.4.2-11.1 0-2.2-.1-4.5 0-6.7-.5l-1-.4-.1-.2c.8 0 1.3-.7 2.2-.5 2.6.4 5.2.6 7.8.5 2.6-.2 5-.6 7.6-.2 2.7.3 5.4.3 8.2.6 3 .2 6 .6 9 .6 4 0 8 .4 12 .6l7.3.3c3 0 5.8.5 8.6.8l10.9 1.7 4.6 1c.2.1.5 0 .5.4 0 .2-.3.2-.6.2-1.2.1-2.4-.2-3.7-.4l-10.3-1.6c-3-.4-6-1-9.1-.9zm-59-14.7v.2c.1.1.2.3.2 0 .3-.7 1-.5 1.4-.4 2.2.3 4.3 1 6.5.7 2.4-.3 4.8-.4 7.1-1 1.1-.2 2.3-.2 3.3-.2l11.6-.2c3.6 0 7.3.2 11 .4l8.4.5 6.4.6c.4 0 .9 0 .9.5 0 .4-.5.5-.8.5-1.8.2-3.5 0-5.3-.2l-3.2-.2-7.6-.3-15.7-.3c-.8 0-1.5 0-2 .8-.3.4-.7 1-1.4 1 0-.8 1.3-.8 1.2-1.9l-8.6.5c1.9 1.4 4.2 1.6 6.4 2.6-.8.4-1.4 0-2 0-2-.6-4-1.1-5.6-2.3-.4-.4-1-.3-1.5-.2-.8.2-1.6.2-2.4.2l-5.8.1a2.6 2.6 0 0 0-1 .4c-.6.3-.9.8-1.6.8-.4 0-.4.7-.7 1-.3-.2-.3-.5-.3-.9.1-1 0-2.1 1.1-2.7z" fill="#CA482A"/><path d="M158.7 152.8c.5.2.5.6.7 1 .9 2 .3 4.2 1.4 6 .4.8.8 1.5 1.7 1.9 1.1.3 2 .9 3.2 1.1 1.8.4 3.1-.5 4.4-1.4.6-.4 1-.6 1.8-.4 3 1.1 5.4-.2 6.3-2.6.3-.7.2-1.4 0-2-.3-.6-.1-1 .4-1.4 1.5 2 2 6.5-1.3 8-1.2.6-2.3.7-3.5 0-.3 0-.6-.4-.8 0-1.6 2.4-3.7 3-6.3 2.3-1.5-.4-3-.8-4.2-1.5-1-.5-2-1.5-2.6-2.6a11 11 0 0 1-1.2-8.4z" fill="#DDAFB5"/><path d="M182.4 169c-2.8.6-5.6 1.1-8.4.8-2.9-.3-5.6-.9-8.5-1.4-2.2-.5-4.4-.7-6.7-.9a79.9 79.9 0 0 1-4.7-.6 8.6 8.6 0 0 0-1.3 0c-2.8 0-5.5-.7-8.3-.8-2.3 0-4.6-.5-7-.5-2 0-3.9-.5-5.8-.4-3.7.2-7.2-.6-10.9-.7-1.8-.1-3.6-.4-5.5-.4-1.4 0-2.7.5-4 .3-3-.3-5.8 0-8.6-.9-.8-.2-1.6-.4-2-1.4 1 .3 2 .8 3 1 1.4.3 2.7.5 4 .4 1.4 0 2.7.4 4 .2a26.5 26.5 0 0 1 5.1-.1c3.4.2 6.8.3 10.2.8 1.4.2 2.9.3 4.4.1.8-.2 1.8 0 2.7.2 1 .1 2.1 0 3.2 0l8.6.8h1.5c1 0 2-.1 2.8.4l1 .1c2.3 0 4.6.4 7 .7a73.8 73.8 0 0 0 3.8.4c2.3.1 4.6.7 7 1.1 2.7.6 5.5 1.2 8.4.9 3.5-.4 7-.9 10-3 1.7-1.2 3.5-2 5.5-2.5 1-.2 2-.2 3 .3a11 11 0 0 0-6.8 2 155.4 155.4 0 0 1-4.8 2.8l-.4.2c-.5.1-1-.3-1.5 0z" fill="#CB482A"/><path d="M96.8 154.8c-.6 1-1.1 2.2-.9 3.6a10 10 0 0 0 0 4c-.6-1-.2-2-.4-3.1a77.5 77.5 0 0 0-4.4 10c-.5.2-1 .1-1.5.2-.4-.2-.2-.5 0-.7 1-1 1.2-2.5 1.8-3.7.9-2.3 1-4.7 1.4-7v-.5c-.6-.3-.4-.9-.6-1.4 0-.5-.3-.9-1-.7-.7.2-1.5-.2-2.3 0a11 11 0 0 1-4-.8c-.3-.1-.5-.2-.5-.4 0-.3.3-.4.5-.4.7-.2 1.5 0 2.2 0 .7.1 1.5.3 1.5-.8 0-.4.4-.4.7-.4h2.1c1-.2 1.9-.2 2.8-.1.7.3.3.5 0 .7-.5.4-1.1.7-1.5 1.2 1-.2 1.8-1 2.3-1.8.5-.2 1-.2 1.4-.1a.7.7 0 0 1 .4.2 3.4 3.4 0 0 1 0 1.6v.4z" fill="#2F2F5A"/><path d="M138.3 147.7c-.5-.3-1.1-.1-1.7-.1-.5 0-.7-.3-.4-.6 2.5-2.4 3.1-5.7 4.2-8.8h.1c.3.4.5 1 1.1 1.2.5.1.2.8.1 1.2-.5 1.9-.3 3.8-.1 5.7-.8.2-1 0-1.1-.7-.1-1 .2-2 .3-3v-.9c-.5 0-.6.4-.7.8l-.4 2.6-.4 1.2c-.4.5-.4 1 .1 1.4h-1z" fill="#3D417B"/><path d="M139.4 147.7c-1-.3-1-.3-.5-1.3.8-1.4.8-3 1-4.4.2-.8 1-.4 1.1-.8.3.1.2.4.2.6a20 20 0 0 0-.5 3.6c0 .7.2 1 .9 1 .1.4.1.9-.5.8-.5 0-.5.4-.8.6h-.9z" fill="#34386B"/><path d="M172.3 172.2c-.2.2-.5.2-.8.2l-6.6-.9-1.8-.2c-.2 0-.6 0-.6-.3 0-.4.5-.2.7-.3 2.2.1 4.3.6 6.4 1l2.7.5z" fill="#F5C751"/><path d="m99.1 159.1.3-1.4c0-.2.3-.3.5-.2.2 0 .2.2.2.4-.4 1.3 0 2.7.1 4 0 .2.2.5-.1.6-.3.1-.4-.3-.4-.4l-.6-3z" fill="#CD492A"/><path d="M184.2 168.8c0-.2-.2-.3 0-.4 1.5-.5 2.7-1.5 4-2.3l.8-.2c-1.3 1.4-3 2.2-4.8 2.9z" fill="#D54C2C"/><path d="M140.3 147.7c.1-.4-.2-1.1.8-.7.5.2.5-.3.5-.7.4 1.2.4 1.4-.6 1.4h-.7z" fill="#3E427B"/><path d="M182.4 169c.5-.5 1-.3 1.5 0-.5.4-1-.1-1.5 0z" fill="#D54C2C"/><path d="M96.9 154.4v-1.6c.2.5.2 1 0 1.6z" fill="#CA482A"/><path d="M96.8 152.8h-.4c0-.3 0-.6.4-.5h.2c0 .1 0 .3-.2.5z" fill="#ECBEBE"/><path d="M91.7 125.7c-2.9.5-5.5 1.7-7.8 3.6a16.4 16.4 0 0 0-4.8 6.3c-.5 1.2-1 2.5-1.3 3.7-.4 2.1-.4 4.2.2 6.2.7 2.5 1.7 5 3.4 7-.2.5-.5.6-1 .6H78c-.4 0-.7 0-1 .2a1.9 1.9 0 0 1-.4.2c-.9.4-1.8.3-2.7.2l-4-.1c-1.5-.4-3-.2-4.5-.7-.2-.1-.5-.1-.6-.4v-.2a5 5 0 0 0 .7-3c-.2-4 .1-8.1.2-12.2l.1-5.7c0-.5 0-1 .7-1.2 1.8-.7 3-2.2 4-3.8.6-1 1.4-1.3 2.5-1.3 5.8.2 11.7.3 17.6.3.4 0 .8 0 1 .3z" fill="#EA777F"/><path d="M100.5 113.8c.2.6.4 1.3 0 2v.8c-.1 1.3-.1 1.2-1.5 1.3-4 .2-8 .4-12 .4-.7 0-1-.2-.9-1 .2-1-.2-2.1-1-3a.2.2 0 0 1 0-.1l.3-.6a8.4 8.4 0 0 1 3.1-3.4 9.5 9.5 0 0 1 7.3-1c2.4.4 4.4 2.5 4.7 4.6z" fill="#FEFEFE"/><path d="m140.7 134.8-6-1c-.4 0-.6 0-.8.2a17.4 17.4 0 0 0-5.2 9.7v2.6c0 .8-.2 1.3-1.2 1.1h-.5c-.3-.6-.3-1.3-.3-2v-9.6c0-2.2 0-4.4-.3-6.6v-.7h.3l6.7 1.6 1 .1a8 8 0 0 0 4.2.8h1.2c0 .2.2.2.1.4-.4.3-.9.1-1.3.1 2.6.3 3.2 1.3 2 3.3z" fill="#3D417B"/><path d="m91.7 125.7-12.2-.1-7.1-.2c-.6 0-1 .2-1.3.8-1.1 1.8-2.4 3.6-4.7 4.3-.2 0-.3.2-.3.4v.3c0 3.6 0 7-.2 10.6-.2 3 0 5.8-.2 8.7 0 .7 0 1.5-.9 1.8-.2 0-.5 0-.5-.5.3-1.3.1-2.7.2-4v-7.2l-.2-9.1c0-1.4 0-1.4 1.4-1.7 1.8-.4 3.8-2.7 3.8-4.5 0-.7.3-1 1-1l36.6.1 6.9.1c.7 0 1.3.2 1.4 1.1H91.7z" fill="#D64A54"/><path d="M69.9 153.3c1.4 0 2.9 0 4.4.2.8 0 1.6 0 2.4-.2.5-.2 1-.5 1.6 0a10.7 10.7 0 0 1-2 2.2c-1.5 1.2-3 2.2-3.9 4l-1.1 1.7c-.2.4-.5.4-.7 0l-.7-1c-.2-.6-.8-1-1.7-.9-.5.2-1 .3-1.6.3-.6 0-1.2 0-1.5-.7-.1-.2-.3-.4-.6-.4-.7-.1-1.2-.4-1.1-1.3 0-.4-.4-.6-.7-.6-1.3 0-2.4-.8-3.7-1-.6 0-1.4-1.8-1.2-2.4.2-.5.8 0 1-.4h.8c.1.3-.1.5-.2.8-.2.7 0 1 .6 1 1.5 0 3 .5 4.5.3 1.3-.1 2.7.4 3.8 1.2l.4.3c.8 0 2.6-1.2 2.8-2 .2-.5 0-.6-.5-.7-.3 0-.9.3-1.1-.4z" fill="#33335D"/><path d="M126.5 128.5h-.1c0-2 0-4-.4-6.1 2.7 1.1 5.5 2 8.3 2.8.3 0 .7.3 1-.1l.2.3c-.2 1.6-.3 3.3-1.2 4.7-2-.9-4.3-1-6.4-1.7-.5-.1-1-.3-1.4.1z" fill="#35396D"/><path d="M69.9 153.3c.5.4 1 .1 1.6.2.2 0 .5 0 .5.4 0 .8-.9 2-1.7 2.1-.6.1-1 .9-1.6.8-.5 0-.7-1-1.4-1-1.2-.2-2.3-.9-3.7-.5-1.3.3-2.7-.4-4-.4-.6 0-.6-.8-.4-1.3 0-.3.3-.5.4-.8 1.1-.4 2.2 0 3.3-.1l2-.1c1.6.5 3.3.4 5 .7z" fill="#31315B"/><path d="m100.5 113.8-.6-1.2c-1.4-2.9-4.1-3.5-7-3.5a8 8 0 0 0-6.2 3l-1.4 1.5c-.2 0-.7 0-.3-.4.6-.5.8-1 1-1.7.3-1.1 1-1.9 2-2.3 1.5-.8 3-1.4 4.8-1.6l1.9.2 2.1.5c1 .1 1.3 1 1.8 1.6.9 1 1.9 2 2 3.5l-.1.4z" fill="#D64A54"/><path d="M104.6 118.8h-3.3c-.3 0-.7 0-.7-.3-.1-.4.3-.5.6-.6.7-.3 1.3 0 2 0 1.6 0 3.3-.2 5 .2.2 0 .6 0 .6.3 0 .4-.5.4-.8.4h-3.4zm-19.5-4.7v.2a1 1 0 0 1-.7.4h-4c-.3.1-.6 0-.7-.3-.1-.3.1-.5.3-.5 1.7-.4 3.5-.6 5.1.2z" fill="#D74A54"/><path d="M165.7 28.8c-.6-1.1-.3-2.2-.2-3.3.2-1.8.9-3.5 1.1-5.2.2-1.2.9-2.2 1.6-3.1 2.5-3 5.6-5 9.4-6.1-3.5 1.8-7 3.7-9.5 7 .6 0 .9.3 1.2.5-.8 1.1-.5 2.3-.2 3.4a12 12 0 0 0 4.6 7c.8.5 1.6 1 2.5 1.2.3.1.8.2.6.6 0 .3-.5 0-.8 0h-.5c-.5.2-1 0-1.3-.3-.8-.3-1.5-.7-2.4-.8-.7 0-1.2-.5-1.7-1a8.5 8.5 0 0 1-1.7-2l-.5-.8c-.2-.2-.2-.7-.6-.6-.4 0-.8.3-1 .8v1.7c0 .5 0 1-.6 1z" fill="#DEB14D"/><path d="M188.5 26.8c-.5-1-1.5-1.1-2.5-1.3-.1 0-.4.1-.4-.2 0-.3.2-.3.4-.3 1.3-.2 2.7.5 3.3 1.7.3.7.3 1.5.7 2.1.2.2 0 .4-.1.6-.3.3-.4.7-.3 1.2 1.8-1.9 1.4-5-.8-6.4 1.1-.5 2.3 1 2.4 3.3.8-.6.8-.8.4-2.6-.2-1-.4-1.8-1-2.7-.4-.9-1.4-1.1-2.2-1.9 2 .1 3.3 1.8 3.8 5 .2-.9 1-1.7.2-2.7-.3-.3-.1-.8-.2-1.2-.3-1.5-.8-2.8-2.8-3.2 2-.5 3 .8 3.5 4.3 0-2.8.5-5.6-1-8.2 1.9 2 1.7 4.7 1.8 7.3 1-1.3 1.6-2.8 3.4-2.8-1.3 1-2.4 2-3 3.7 1.1-.5 2.1-.5 2.9.6-1-.3-1.9-.5-2.9.1-.8.7-1 1.7-1.4 2.7 1.3-.7 2.4-1.7 3.7-.5-1.2-.2-2.3-.1-3 .8-.5.6-1.2 1.3-1.5 2 2.1-.9 3.2.2 3.9 2-.4-.2-.6-.5-.8-.8-1.3-1.6-2.6-1-3.8.3l-1 1.3c-.3.3-.6 1-.8.7-.3-.3-.6-.7-.6-1.2v-.3a3 3 0 0 0-.4-2.7c0-.2.4-.5.1-.7z" fill="#DFB24D"/><path d="m196.6 14-.7.6c-.2 0-.8 0-.2.5.2.2.6.3.5.7-.5.1-.9-.2-1.2-.6-1.4-.3-2.5-1.1-3.7-2-.8-.6-1.6-1.3-2.5-1.8-.9-.5-1.8-.6-2.8-.5-2 .3-4 .2-6 .5l-2.4.6c-.3 0-.5.3-.9.1 0-.3.3-.3.4-.4 2.3-.8 4.5-2 7-1.7 1.7.1 3.4-.3 5 .3l.7.4c.4.2.5.1.5-.3 0-.3 0-.5.4-.6.2 0 .3-.4.5-.3.3.1.2.4.2.6a3.9 3.9 0 0 0 3.7 3.5c.3 0 .5-.2.7-.3.3-.2.6-.5 1-.3 0 .5 0 .7-.2 1z" fill="#DEB14D"/><path d="M165.7 28.8c.3-.2.3-.5.3-.8v-1.3c0-1 .7-1.4 1.3-1.8.2-.2.4 0 .5.3l.7 1.6c0 .3.1.6-.1.9 0 1 .7 1.6 1.4 2.3-.4.8-1 1.5-1.8 2-.3.1-.4.3-.4.6 0 .4.1.7-.1 1a3.5 3.5 0 0 0-.6-2.3c.2-.2.2-.5 0-.5-1.4.2-1-.9-1.3-1.6v-.4z" fill="#E6BB5E"/><path d="M186 33c-2.3.2-4.7 0-7 .3-1 .2-2.2-.2-3.4-.4-1.1-.2-2.2-.6-3.2-1.1l-.5-.5c1.4.5 2.8 1.1 4.3 1.3 2.1.3 4.2 0 6.1-1 .6-.2 1-.4 1.7-.3a3.9 3.9 0 0 0 2.4-.6c.7-.3 1.3 0 2-.2-.8.8-1.7 1.6-2.4 2.6z" fill="#DEB0B5"/><path d="M180.8 28.6c-1.6-.5-3.3-.7-4.5-2-1.1-1.1-2.4-2.3-3.2-3.8-.7-1.3-1.5-2.8-1.3-4.5 0-.4 0-.8.4-1.1-.3 3.3 1.4 5.6 3.6 7.6 1.4 1.3 3 2.2 4.6 3 .5.2 1 .4 1.6.4-.3.4-.7.4-1.2.4z" fill="#DFB24D"/><path d="M167.5 10c.5-1.3 1.7-2.2 2.8-3 2.5-1.9 5.3-3.5 8.4-4.2 2-.4 4.2-.5 6.3 0 .6.2.6.2 1 .7-7.6-1.7-13.3 1.5-18.4 6.7-.1.1-.2 0-.1-.2z" fill="#DFB24E"/><path d="M191 40c0-1.6-.2-3.2-1.5-4.5-.6-.6-1-1.4-1.5-2.1-.2-.5-.5-.5-.8-.2-.4.3-.6.8-1 1 .4-1 1.1-1.8 2-2.4.3-.3.5-.4.7.2a5.9 5.9 0 0 0 2.3 3c.4.2.6.6.5 1-.2 1.4-.3 2.8-.7 4z" fill="#DEB0B5"/><path d="M168.4 27.7c0-.3-.1-.7.2-1 .6.8 1.2 1.5 1.9 2 .6.6 1.2 1.2 2.1.9.2-.1.4.1.6.2.8.4 1.5.9 2.4 1 .9.5 1.9.6 2.8.7-.5.5-1.1.2-1.8.2-2.5-.3-4.8-1.4-6.8-2.9l-1.4-1.1z" fill="#DFB0B0"/><path d="M167.4 17.6c.1-2.9 4.7-6.2 9.5-6.8l-3.6 1.4c-1.2.5-2.3 1.3-3.4 2-1 .9-1.8 2-2.5 3.4z" fill="#E1B44F"/><path d="M163.9 15.3c-.3.8-.3 1.7-.4 2.6v3.5c-.5-2.8-.5-5.5.4-8.3.3-.4.4-1 1-1.3-.5 1.2-1 2.2-1 3.5z" fill="#E3B650"/><path d="M188.6 20c-2.9-.7-5.2-5.3-4-7.8-.3 3.5 1.3 5.7 4 7.7z" fill="#E3B651"/><path d="M176.6 15c-.6 3 1 5.3 2.8 7.5-2.4-1-4-5.4-2.8-7.6z" fill="#E4B651"/><path d="m194.4 38.5 1.3.7c-.5.9-1.1.4-1.7.2-.6-.2-1.1-.6-1.7-.9 0-.4-.1-.8.2-1.2.5.6 1 1.1 2 1.2z" fill="#DFB1B2"/><path d="M164.3 23.6c-.1-1.4-.5-2.7-.5-4 0-1.5.2-2.9.4-4.3l.4-.8c0 .9-.2 1.7-.3 2.6a21.4 21.4 0 0 0 0 4.5c.1.6.3 1.3 0 2z" fill="#E4B751"/><path d="M180.8 28.6c.4-.2.9 0 1.3-.4 1.1 0 2-.6 3-.9 1.1-.3 2-.8 3.1-.3.3 0 .3-.1.3-.3.4.3.3.5 0 .8-1-.6-1.8-.6-2.8 0-1.4.7-3 .8-4.5 1.2l-.4-.1z" fill="#E7B953"/><path d="M200.9 24.1c0-.2 0-.4.2-.5.5.8.3 1.8.6 2.7 0 .1.1.3-.2.3-.3-.8-.6-1.6-.6-2.5z" fill="#FDF7E9"/><path d="M175.8 28a5 5 0 0 1-2.2-1.7c.7.1 1.2.5 2.2 1.7z" fill="#E9BB55"/><path d="m201.4 26.6.2-.4c.3.5.2 1.1.2 1.6.2.3 0 .6.2 1v.5c-.4.1-.2-.3-.3-.4v-.1l-.3-2.2z" fill="#FBECCA"/><path d="m167.5 10 .2.2-1 1.4c0-.7.3-1.1.8-1.6z" fill="#E6B853"/><path d="M176.6 31.7c.6-.1 1.3.1 1.8-.2h1c-.9.2-1.8.6-2.8.2z" fill="#E7B896"/><path d="m193.9 36.5-.2.8c-.4-.2-.6-.4-.5-.8.2-.4.5 0 .7 0z" fill="#EDBDA1"/><path d="m195 15.3 1.3.5.4.4c-.6-.2-1.4-.2-1.7-1z" fill="#F8E0A9"/><path d="M190.3 32.7c-.4-.3-.4-.5-.5-.9.3.3.4.5.5 1z" fill="#EFC07B"/><path d="M197.2 38.1c.1 0 .3-.2.5-.1a.3.3 0 0 1 0 .2c0 .2-.3 0-.5.1v-.2z" fill="#F0D7A1"/><path d="M226.7 164.7c-1.7-.2-3.4-.7-4.8-1.6-.6-.4-1-.6-1.7-.3a2 2 0 0 0-1.1 1.6v.7c0 .2.3.6 0 .7s-.6-.3-.7-.6c-.4-.9 0-2.2 1-2.9 1-.7 1.7-.6 2.8.1 1.6 1 3.4 1.5 5.3 1.6.3 0 .6-.2.7.2 0 .4-.4.3-.6.4h-.9z" fill="#302F59"/><path d="M214.2 169c0 .3.1.5-.2.6-.2 0-.4-.2-.5-.3-.3-.5-.4-1-.5-1.6 0-.9-.2-1.8-.1-2.8 0-.2 0-.5.4-.5.2 0 .3.3.3.4.2 1.4.3 2.9.6 4.2z" fill="#32305A"/><path d="M228.2 171.6c0 .5 0 1.2-.3 1.8 0 .3-.2.7-.5.7-.4-.1-.2-.6-.2-1l.1-2.4-.2-1.3c0-.2-.2-.5.2-.6.3-.2.5.1.6.5.3.7.4 1.4.3 2.3z" fill="#34325B"/><path d="M227.7 160.8v.5c0 .3-.2.7-.5.7-.4 0-.2-.5-.2-.7-.1-1-.3-1.7-1-2.3-.2-.2-.4-.4-.2-.7.3-.2.5 0 .7.1.8.6 1.2 1.4 1.2 2.4z" fill="#36335C"/><path d="M224.7 170.6v-.3c0-.3-.3-.8.2-.9.6 0 .6.5.6 1v1c0 .3 0 .5-.4.5-.3 0-.4-.2-.4-.5v-.9z" fill="#38355E"/><path d="M225.6 161.4c0 .3 0 .7-.4.7s-.3-.4-.4-.6l-.3-1.3c0-.2 0-.5.2-.6.2 0 .4.1.5.4.2.4.4.9.4 1.4z" fill="#3B385F"/><path d="M165.7 128.5c0 .3 0 .6-.2.9a7 7 0 0 1-1.4 2.6 11 11 0 0 1-5.6 1.2c-.3 0-.5-.1-.7-.4-1-2-2-4-2.7-6.3.6-.2 1.3.1 2 .2l4-.3c.8 0 1.5.1 2.3.3.7.1 1.4.4 1.6 1.2 0 .5.4.5.7.6z" fill="#35396D"/><path d="M165.7 128.5c-.5.3-.9.5-1-.4 0-.6-.3-.9-.9-1-1.5-.4-3-.5-4.6-.3-1.4.1-2.8.3-4.1-.3a2 2 0 0 1-.4-1c.7-.6 1.5-.6 2.4-.5h1.8c1.4-.4 2.9-.3 4.3-.4.4 0 .7 0 1-.3.4-.2.7-.6 1.2-.6.8.4.7 1.2.7 1.9-.1 1 0 2-.4 3z" fill="#303352"/><path d="M162.6 143.3c-.1 0-.2.5-.5 0-.8-1.8-1.7-3.6-2.2-5.6-.3-1-1.2-1.7-1.3-2.9 1.5.4 2.7-.6 4-1 .3 0 .6-.3.9 0 .2 1 0 1.8-.1 2.7a137.3 137.3 0 0 1-.8 6.8z" fill="#424784"/><path d="M164 131.8c1.1 1 1 1.3-.6 2-1.2.5-2.4 1-3.6 1.3-.4.1-.8 0-1.2-.3l-.9-2c2.3.4 4.4 0 6.4-1z" fill="#3D417B"/><path d="M164.4 124.4c-.6.5-1.3.4-2 .5a31.4 31.4 0 0 1-4.2.2c-1.2 0-2.3.3-3.5.3-.5-.8-1-1.7-1-2.6.3 0 .4.5.8.5.1.8.7 1.3 1.6 1.4 1.7.3 3.3 0 4.8-.4.4 0 .7-.2 1 0 .9.5 1.6.4 2.4-.3.1 0 .2.2.1.4z" fill="#424782"/><path d="M180.7 47.1c-1 0-1.8-.5-2-1.3 0-.3 0-.5.2-.6.3-.1.3.1.4.3.4.7 1 1.1 1.8.7.8-.3 1-1 .7-1.9V44c1.2-.8 1.2-2.5 2-3.6.1-.3.2-.7.5-.5.4.1 0 .5 0 .7l-1.4 3.2c-.2.3-.2.6-.1.8 0 1.5-.8 2.5-2 2.5z" fill="#3A3D70"/><path d="M179.7 39.5c0 .6-.5 1.2-1 1.7-.6.4-1 0-1.2-.5-.1-.7.4-1.8 1-2.2.3-.1.6-.2.8 0 .3.2.4.5.4 1z" fill="#373B6F"/><path d="M180.2 35.2c1.3 0 2.1.4 2.4 1.3.2.4.3.8-.1 1-.5.3-.6-.2-.8-.5-.2-.6-.7-.9-1.3-.9h-1c-.2 0-.6 0-.6-.4 0-.5.4-.5.7-.5h.7z" fill="#3A3D70"/><path d="M188.4 43.5c0 .8-.8 1.8-1.5 1.9-.4 0-.7-.3-.7-.7 0-.7 1-2 1.5-2s.7.3.7.8z" fill="#373B6F"/><path d="M178.2 50c-.9 0-2-1-2.3-1.8 0-.3-.1-.6.2-.7.3-.2.4.1.5.3.4.7 1 1.2 1.7 1.3.3 0 .6.2.5.5 0 .3-.3.4-.6.4z" fill="#3E4071"/><path d="M190.1 41.6c0 .3 0 .5-.3.6-.4.1-.5-.1-.6-.4a2 2 0 0 0-1-1.4c-.2-.1-.3-.4-.1-.6.1-.3.4-.3.6-.2.7.2 1.5 1.2 1.4 2z" fill="#3D3F71"/><path d="M166 61.8c1-.9 2-1.1 3-1.7a208.6 208.6 0 0 0 5.5-3.6c.5 0 .6.1.2.5-.5.5-1 1.1-1.7 1.5-2 1.4-4 2.8-6.2 3.8-.5.2-1 .4-1.5.4 0-.5.7-.5.7-1z" fill="#383B70"/><path d="M179 63.6c0-.4.3-.6.5-.9l.6-.1-1.1 1z" fill="#434885"/><path d="M66.8 160.9c.2 0 .3.1.3.4l-.3.2c-.2 0-.3-.2-.3-.4s.1-.2.3-.2z" fill="#33335D"/><path d="M74.4 202.2c1.2.2 2.4.4 3.6.4 0 .4-.3.4-.4.5-.3.1-.4.4-.3.7 0 .3.3.4.6.4 1 0 2 0 2.8-.2 1.6-.3 3.2-.1 4.9-.2.3 0 .5.2.7.3.6.4 1.2.7 2 .5.3-.1.6-.2.5.4 0 .8.5.9 1.1.7 1.2-.3 2.2-.9 3.3-1.3.2.4.1 1 0 1.4 0 .2 0 .5-.2.5-1 0-1 .7-1 1.4-.3.6.2 1.4-1.2 1.5-2.1.2-4.3.7-6.3 1.6-.5.3-1 .4-1.2-.3 0-.1-.3-.4-.5-.4-1.8-.7-3.5-1.6-5.5-1.5l-.5-.1c-.4-.3-.9-.3-1.2-.2-2 .7-4.2.6-6 1.7-1.2.7-2.3 1.6-3.3 2.5-.7.6-1.7 1-2.5.5-.6-.4-1.2-.4-1.8-.4a3.5 3.5 0 0 1-.8 0c-.2-.1-.6-.1-.6-.4 0-.4.4-.3.6-.3l1.4-.7c2.1-1.4 4.4-2.5 6.3-4.2 1.5-1.4 3.2-2.9 5-3.9.5-.2.5-.5.5-.9z" fill="#FED3C8"/><path d="M93.3 205.8V204v1.9z" fill="#9D595D"/><path d="M167 121.8c-.3-.2-.4-.8-1-.3-.2 0-.4-.2-.5-.4-.3-.3-.4-.5.2-.7 1.6 1.3 3.4 2.2 5.2 3.3a7.2 7.2 0 0 1-4-1.9z" fill="#454983"/><path d="M168.1 114.6c-1.7-.8-1.8-1.6-.3-3v1.6c.1.4.3.9.3 1.4z" fill="#414682"/><path d="M125.4 100c.8 3 1.8 6 2.4 9.2.3 1.5 1 2.6 1.8 3.8 1 1.5 1.6 3.3 3.1 4.5.7.6 1.2 1.2 1.2 2.2.2 1.6 1.9 3 3.4 3.2l.5-.1v.2c.2.3-.1.6-.1 1-.6.8-1.5.7-2.4 1 0-.4-.1-.6-.4-.8a4.6 4.6 0 0 0-1.6-.7c-2.5-.6-4.6-1.9-6.8-3.1a1.8 1.8 0 0 1-.7-.7l.3-.4c.8-.8.7-1.2-.3-1.6a194.4 194.4 0 0 0-5.9-2.3l-.7-.2c-.2 0-.5-.1-.4-.4.5-2-.1-3.9 0-5.8 0-1.2.2-2.4.5-3.7.7-.2.5.5 1 .8.8-3.4.7-6.8 1.4-10l.3-2.8c.6 0 .6.5.6.8a34 34 0 0 0 1.3 4.7l.7 1.4c.2-.2.1-.6.5-.7.3 0 .2.3.3.4z" fill="#424783"/><path d="M196.7 37.3c-.8.1-1.4-.3-2-1 .8.3 1.3.8 2 1z" fill="#E9BB55"/><path d="m201.7 29 .3.3c0 .8.2 1.6-.2 2.3l-.1-2.7z" fill="#F7DFAB"/><path d="M135.3 125c.2-.2.2-.5.5-.4.8.1 1.3-.4 1.9-.9l.5.1c.8.2 1.3.8 1.5 1.5.3 1.1 1 2 1.4 3.2.1.7-.5.6-.9.7-.6.1-1.3 0-2 .4l1.1.8c.3.2.6.3.6.8l-3.5-.1a3.9 3.9 0 0 1-2-.8.4.4 0 0 1-.1-.2c.5-1.5.8-3 1-4.4v-.7z" fill="#D8D8D8"/><path d="M121.6 64.2c-.5 1-.6 2-.6 3l-.3 3.6s0 .2-.3.3v-3.7c0-1.5.5-3 1-4.3.4-.3.5-.8 1.1-.9-.2.8-.7 1.3-.9 2z" fill="#373B70"/><path d="M147.7 58.6h.3c.3.4 0 .3-.2.4-1.9.6-3.8.6-5.7.5l-3.7-.3c-1.3-.1-2.6-.5-3.9-.8-.3 0-.6-.2-.7-.7h1.8c1 .3 1.9.2 2.8.2 2.1.2 4.3.3 6.5.3h.5c.6.2 1.2.2 1.8.2l.5.2z" fill="#3A3F76"/><path d="M202 28.8c-.3-.3-.1-.7-.2-1 .3.3.2.6.2 1z" fill="#F7DFAB"/><path d="M120.6 79.4c.5.7-.2 1.2-.4 1.7 0 .2-.3.3-.4.5 0 2-.8 3.9-1 5.9 0 2.5-.5 5-.7 7.6v.5c0 1.6-.8 2.7-1.6 4 .6-1.2.5-2.6.8-3.8.3-.6.4-1.3.3-2 0-2.1.6-4.2.8-6.4l.5-3.5c.6-.5.5-1.2.5-1.8.1-.8 0-1.6 1-2 .3-.1.2-.4.2-.7z" fill="#3F437D"/><path d="M116.4 100c0 .5 0 .9-.4 1.2 0-.4.1-.8.4-1.1z" fill="#3E427D"/><path d="M84.3 171.3c-.2-.2-.7-.3-.2-.6l.7-.8c.3-.4.5-.5 1-.3.4.3.6 0 .8-.3h4.5c-1.3.4-2 1.3-2.4 2.5-.5.4-1 .1-1.6-.2-.9-.3-1.9 0-2.8-.3z" fill="#272853"/><path d="m125.4 100-.3-.3c-.3 0-.2.2-.2.4s.3.5 0 .6c-.4 0-.5-.3-.6-.5-1-1.7-1.3-3.6-1.8-5.4-.1-.5.1-1.2-.5-1.5.2-1 .3-2 .2-3 .8 2.6 1.2 5.3 2.3 7.8.3 0 .2-.3.4-.4l.5 2.2zm-3.8-4c-.2 2.5-.5 5-.6 7.6-.1.9-.2 1.7-.5 2.6 0 .2-.1.4-.4.4-.2 0-.2-.2-.3-.4 0-.4 0-.8-.5-.9a1 1 0 0 1 .3-.8c0 .2 0 .5.2.5s.2-.2.3-.4c.5-1.1.6-2.3.6-3.5a26 26 0 0 1 1-5.1z" fill="#3E427C"/><path d="M139.8 131.2c-.4-.6-1.2-.8-1.7-1.2-.2-.2-.5 0-.4-.4 0-.3.2-.4.5-.4a66 66 0 0 1 2.4-.3c.2 0 .4-.1.4-.4l1.6 2.9c-.9.3-1.7.5-2.6 0a1.2 1.2 0 0 0-.2-.2z" fill="#D1D1D3"/><path d="M144.3 135.2c-1-.4-2 0-2.9-.4-.4-.7-.3-1.5-.2-2.2.1-.7.8-.5 1.3-.8h.5c.5.4 1 1 1.3 1.5.2.6.4 1.3 0 1.9z" fill="#3D417B"/><path d="M142.7 132c-1.8.3-1.2 1.7-1.3 2.8 0 .7 0 1.5-.2 2.2-.2.1-.2-.1-.4-.2-.2-.7.1-1.3-.1-2 0-.6.2-1.2.1-1.8 0-.6-.1-1-.8-1a6 6 0 0 1-1.8-.6h4.4l.2.2c-.3.3-.7 0-1.2 0 .5.2.8 0 1 .3z" fill="#373B6D"/><path d="M144.3 135.2v-1.8c.4.2.5.7.7 1v2.9c0-.8-1-1.3-.7-2.1z" fill="#373A6E"/><path d="m138.2 123.9-.6-.1c-.2-.4.3-.5.2-.8.4 0 .6.2.8.5.2.5-.2.3-.4.4z" fill="#4A496B"/><path d="M142.7 132a1.3 1.3 0 0 1-1-.4h1.2l.1.2a.4.4 0 0 1-.3.1z" fill="#33355A"/><path d="M142.5 121a1.7 1.7 0 0 0-.2-.1l.2-.2h.2l-.2.3z" fill="#E8C9CD"/><path d="M147.7 58.6h-.4c-.6-.3-1.2 0-1.8-.2a65 65 0 0 1-7.3-.2c-.8-.1-1.8.1-2.6-.5 3-.1 6.1 0 9.1.2 1 0 2.2-.1 3 .7z" fill="#3E4986"/><path d="m173.8 90.6-1.8-.3c-.6-.2-1 0-1.1.7l-.4 1.2c-.1.7-.5.8-1.1.6-1.4-.3-1.5-.3-1-1.7.1-.2.1-.5.3-.7.2-.5 0-.7-.5-.9l-1.3-.3c-1-.2-1.5-1.3-.9-2.2.2-.2.4-.2.7-.1.7.2 1.6 0 2.3.5.4.1.5 0 .6-.4a30.1 30.1 0 0 1 .7-2.2c.3-1 1-.2 1.6-.2.5 0 .4.4.4.7l-.4 2c-.2.5 0 .7.5.8l1.5.3c.4 0 .8 0 .8.6 0 .5.2 1.1-.4 1.5l-.5.1z" fill="#FEFEFE"/><path d="M154.5 123.3c.3-.5.8-.5 1.3-.6-.5-.3-.9-.4-1.2-.7-.4-.1-.7-.4-.7-.8 0-.2 0-.4.2-.5.2 0 .3.1.3.3.3 1 1.1.8 1.8.9 1 0 2-.2 3.1.1.3.1.7.1.6.6 0 .3-.3.4-.6.5-1 .3-2.1.1-3.2.2h-1.6z" fill="#3B4078"/><path d="M165.5 121.1c.3 0 .5 0 .6.4-.1.9-.9 1.5-.7 2.3-.4.2-.5.6-1 .6l-.1-.4c0-1.1.7-2 1.2-2.9z" fill="#383C70"/><path d="m91.5 152.7-.3-.1-.1-1v-5.2c0-.9-.3-1-1-1h-5.2c-1 0-1.2 0-1.2-1.2v-3.3c0-1 .1-1.2 1.2-1.2h5.2c.7 0 1-.1 1-1v-5c0-1.4 0-1.4 1.4-1.4h3.1c1 0 1.2.1 1.2 1.2v5.2c0 .7.1 1 .9 1h5.3c1 0 1.2 0 1.2 1v3.6c0 .7-.3 1-1 1h-5.6c-.6 0-.8.1-.8.8v6l-.4.6h-4.9z" fill="#F15863"/><path d="M84.7 153c-2.6.3-5.2.2-7.8 0 1.2-.5 2.4-.1 3.6-.2.4 0 .6 0 .9-.3 0 .5.4.4.7.4h2.6z" fill="#F7F6F7"/><path d="M140.7 134.8c.4.6 0 1.3.2 2-.4-.7-.1-1.3-.2-2zm.2 2 .3.2c0 .1 0 .3-.2.2-.2 0-.1-.3-.1-.4z" fill="#3D417B"/><path d="M100.8 166.6c.4 0 .8.1 1 .4-.3 0-.7 0-1-.4z" fill="#F25833"/><path d="M94.5 152.8h.4v.6l-2 1.4c-.2.1-.4.2-.6 0-.2-.4 0-.5.3-.6l1.9-1.4z" fill="#252652"/><path d="m134.3 130.1.1.2a.4.4 0 0 1-.4.2c-2.5-.6-5-1-7.4-1.9h-.1c0-.7.2-.8.7-.7 2 .7 4.1 1.1 6.2 1.5.4.1.6.4.9.7z" fill="#303352"/><path d="M63.4 187.5c.2-.6.6-.2 1-.2.5 0 1 .2 1.6.4l7 1.5c.4.2.8.2 1 .6.8.5 1.8.5 2.4 1.1-1 0-2-.6-3-.8-2-.3-3.8-1.4-5.8-1.6l-4.2-1z" fill="#272853"/><path d="M145.5 58.4c.6.1 1.3-.2 1.8.2-.6-.1-1.2.2-1.8-.2z" fill="#424783"/></g><defs><linearGradient id="b" x1="-9.3" y1="171.2" x2="170.9" y2="198" gradientUnits="userSpaceOnUse"><stop offset=".1" stop-color="#33325D" stop-opacity="0"/><stop offset=".3" stop-color="#33325D"/></linearGradient><clipPath id="a"><path fill="#fff" d="M0 0h270.7v220H0z"/></clipPath></defs></svg>