<svg width="267" height="136" viewBox="0 0 267 136" fill="none" xmlns="http://www.w3.org/2000/svg"><path d="M133.5 135.3c73.7 0 133.4-10.3 133.4-23s-59.7-23-133.4-23S0 99.6 0 112.3s59.8 23 133.5 23z" fill="currentColor"/><path d="M16.7 97.6h.2c1.7-.3 1.7-.3 1.3-2.1-.9-3.4-.3-6.7 0-10 2.2-.6 2.5-2.7 3.2-4.3.4-1-.2-2-1.1-2.4-.4-.2-.7-.5-.9-.9 1.2-3.9 2.8-7.5 5.1-10.9a40 40 0 0 1 9.4-9.2l.6-.3c2-1.1 4.2-1.8 6.5-2.1l.9-.3c1.6-.5 3.4-.3 5-.5a25.2 25.2 0 0 1 11.3 1.2c1.3.7 2.8.9 4.1 1.3 3.5.9 7 2 9.8 4.3a29 29 0 0 1 5.3 5.4c.3.6.7 1 1.2 1.5l1 1.2 1 1.6 1.2 1.8c2.5 4 4.4 8.2 6.4 12.4a7 7 0 0 0 1.4 2.5l.2.2c.3.5.8.7 1.3.9.3.1.6.2.8.5 0 .3.2.3.4.4.4.1.7.2 1 .6 2 1.2 4 2.8 6.2 3.7 1.3.5 2.2 1.6 3.2 2.4.2.3.5.3.7 0 .4 0 .7.2.8.7-.2.5-.8.7-1.2 1-.7.5-.7.7-.1 1.3a27.1 27.1 0 0 0 5.1 4 56.1 56.1 0 0 0 2.4 1.4c.3.2.7.3.7.7-.5.5-.5 1-.4 1.6.4 1.8 1.2 3.6 1.7 5.4 1.3 2.5 3.1 4.4 6 4.8a6 6 0 0 0 2 0h1c.3.2.6.1.8.1 4.4-.2 8.6-1 13-1.6 4-.6 8.2-.9 12.2-1.9a153 153 0 0 0 8.1-2.2c2.2-.7 4.3-1.5 6.3-2.5l1.7-.8.9.1.4.6v.6c0 .7.3 1.3.3 2 0 1.1-.7 1.9-1.5 2.5a11 11 0 0 1-4.6 2.4c-1 0-2.1 0-2.8 1-1.3.5-2.6.9-4 1.2a4.8 4.8 0 0 0-1.3.4c-5 1.7-10.1 3.1-15.4 3.5l-3 .3c-.2 0-.3 0-.4-.2-.5-.4-.5 0-.5.3-1.6.3-3.1.8-4.7.8H121c-.7 0-1.4 0-2.1.3-2.4.8-4.9 1.4-7.4 1.4a84 84 0 0 1-4.8-.2c-2.4-.1-4.8-.1-7-.7-1.6-.4-3-1-4.5-1.7-.5-.2-.8-.7-1-1.2l-1-3c-.4-2.2-1-4.4-1.7-6.6-.3-1.1-.1-2.4-1-3.3-.4-.4-.6-1-.9-1.5-.9-1.8-2.3-3-4.1-3.9-1.8-.4-3.6-.4-5.4-.2a3.9 3.9 0 0 0-2.4 1.1 15.5 15.5 0 0 0-4.3 6.2 4.2 4.2 0 0 1-.4.8c-1.2 1-1.5 2.6-2.1 4-1 2.2-2 2.9-4.4 2.4-2.7-.5-5.3-.9-7.9-1.5L44 112.5c-2.1-.5-3.9-1.5-5.1-3.3-.7-.9-.8-1.9-1.1-3l-.8-5.4a5.8 5.8 0 0 0-.3-1l-1-2.3a12.2 12.2 0 0 0-1.4-2.3c-2.6-2.6-7-3-9.2.8-.8 1.3-1.5 2.6-1.8 4.1 0 .4-.2.8-.4 1.1-.7 1-1.6 1.7-2.8 1.4-1.4-.3-2.6-1-3-2.4a1.1 1.1 0 0 1-.1-.6c.2-.7 0-1.3-.3-2z" fill="#F1BF37"/><path d="M231 54.6a39 39 0 0 1 7 5c2.7 2.3 4.8 5.2 7 8 1.9 2.7 3.3 5.6 4.7 8.6.5 1 1.2 2 1.4 3.3-1.5.3-2.2 1.8-3.4 2.5-1 .6-1 .8-.5 2.3.8 1 1.5 2 1.9 3.2.4 1.1 1.2 1.8 2.5 1.5 0 3.3.2 6.5-.4 9.7 0 .3 0 .5-.2.7-.3.6 0 .7.5 1-.6.3-.9.8-.8 1.5-.6 3-4 4.3-6.5 2.3-.6-.6-1.2-1.1-1.4-2l-.6-1.2c-.7-2-1.7-4-3.4-5.5-.9-.8-2-1.2-2.8-2-1.4-1.3-3.1-1.2-4.8-1-1 0-1.8.2-2.7.4-.3.1-.7.1-1-.2-.3-.4 0-.6.2-1 .2-.6.8-1 .9-1.7.2-.3.5-.3.8-.4 3.6-.8 7-.6 10.3 1.1l1 .5c-.4-.7-.7-1.1-1.2-1.4a16.1 16.1 0 0 0-8.7-2.9c-.5 0-1 .2-1.4-.3.4-.4.4-.4 1.5-.4-1.2-.4-1.5-1-1.3-2.1 0-.6 0-1.2.3-1.7.4-.7 1 0 1.6 0 1.7-.1 3.5 0 5.3-.2a22.1 22.1 0 0 1 4 .3l-2.9-.8a.7.7 0 0 1-.3-.4c0-1.1-.6-1.6-1.7-1.5-1.2.2-2.4 0-3.6.2-1 .2-2.2-1-2.4-2v-1c0-1 .3-1.3 1.4-1.4.4 0 1-.1 1.4-.3.4-.3.8-.2 1.2 0 1 .5 2 .2 3.1-.3 1.3-.5 1.4-1.2 1.2-2.3 0-.9-.2-1.6-1-2-.6-.3-.6-1-1-1.4-1-1.6-2-3.3-3.2-4.9a22 22 0 0 0-6.3-5.2 30 30 0 0 0-5.5-2.6c-.5-.2-1.1-.2-1.3-.9 0-.5-.5-.5-.8-.6-2.4-.7-4.8-.8-7.3-.8.4.4.4.8.3 1.2v15c0 .4.1 1-.3 1-.5 0-.5-.5-.5-.9a17.3 17.3 0 0 1-.1-3V61c0-1.1-.4-1.5-1.5-1.7-.6 0-.9.2-1 .7V78.4l-.1 1.2c0 .3-.2.7-.7.5-.3-.4-.2-.9-.2-1.3V57c-.4.3-.2.6-.2 1v20.7c0 .5 0 1-.3 1.5-.8.2-1 0-1-.8v-4.8c0-.4 0-.9-.2-1.3V56.2c0-2.2-.8-3-3-3.4-2.6-.4-5.2 0-7.7.6l-2.8.6-.9.1c.6 0 1.2 0 1.9-.3 2.2-.2 4.4 0 6.5 0 .6 0 1 .4 1.2.8.2 1.8.2 3.5 0 5.3-.5.8-.1 1.7-.5 2.6-.6 0-.7-.3-.7-1 .1-.7.2-1.3 0-2 0-.2 0-.6-.4-.6-.3 0-.6.2-.7.4-.4.9-.8 1.7-.9 2.7v9.3l-.2 5.1c0 .3 0 .6-.2 1a.5.5 0 0 1-.4 0 .5.5 0 0 1-.2-.2c-.2-.6-.1-1.3 0-2 .2-1.2 0-2.6.1-4V71c.2-1 .2-2.1 0-3.2a5.7 5.7 0 0 1 0-2c.3-1.4.1-3 .2-4.4v-1.6c.2-1.4 0-1.7-1.4-1.7h-2.2c-2.1.4-4.3.6-6.4 1.1-3.6.9-6.6 2.9-9.3 5.3-.5.4-.9 1-1.5 1.3l-1 1a1.3 1.3 0 0 1-.2.2 14.5 14.5 0 0 0-3.6 5.3 1.7 1.7 0 0 1-.2.3l-.2.9-.4 1.4c0 .2 0 .4.2.5.2 0 .4-.1.5-.3l.1-.2A5.6 5.6 0 0 1 178 73c.2.1.5.2.6.5-.3 1.3-.2 2.6-.6 3.9-.3 1-.8 2.2-2.1 2.3-1.5.2-2.8-.2-3.6-1.5-.5-.6-1-.7-1.4-.1-.2.4 0 .8.3 1.1.2.6.6 1.1 1.2 1.4.5.3.9.7 1.1 1.2.4 1 1.2 1.7 1.4 2.8-1 .4-2 .3-3 .4l-6.2.5c-.4 0-.7.2-1-.1v.2a.6.6 0 0 1-.2.2c-1.3.8-2.8.5-4.2.7-1.3-.2-2.6-.1-3.9 0h-1.1c-.6 0-.9-.5-1.3-.7-.3-.3-.6-.4-1-.5-.5 0-.9-.4-1.3-.6-.7-.5-1.6-.8-2.1-1.5.3-.9 1-1 1.7-1.4.9-.4 1.8-.7 2.6-1.3.2-.3.7-.1 1-.3-.3 0-.5.2-.8 0 0-.7.5-.5.8-.5 1 .1 1.6-.4 2.2-1.2 3-4.5 6.4-8.8 9.9-13 2-2.4 4.3-4.4 6.5-6.5 1.3-1.2 2.7-2.3 3.8-3.6 1.1-1.1 2.6-1.9 4-2.7.5 0 1-.7 1.6 0 0 .2-.2.3-.3.5-1.5.9-2.8 1.8-4.1 2.9-1 .6-1.8 1.5-2.6 2.2a95.4 95.4 0 0 0-11 12.4s.2 0 0-.1v-.1c3.4-4.3 7-8.5 11-12.2.9-.8 1.7-1.6 2.6-2.2 1.3-1.2 2.8-2 4.2-3 .5 0 .5-.5.6-.9.8-.5 1.7-.7 2.6-.9 3-.5 5.9-1 8.8-1.3l9.5-1c4.1-.3 8 .6 12 1.2a56.1 56.1 0 0 1 14.8 4.4z" fill="#69AAD8"/><path d="m181.3 52.9-2.7 1.8c-1.2.8-2 2-3.2 3a66.4 66.4 0 0 0-12.2 12.8c-2 2.8-4.2 5.5-6.1 8.4-.5.6-1 1.1-2 1-.3 0-.7-.1-1 .2-.9.7-2.1.9-3 1.5-.9.3-1.6.9-2.5 1.1-.9 0-1.6-.8-2.5-.8a5 5 0 0 1-2-1.4c-.4-1.6-1-3.2-2.4-4.3-.2-.2-.3-.4-.1-.6 1-.3 1.9.3 2.9.3l3.9.7c.4.2.8.1 1.2.2h.3c1 .3 1.9-.1 2.8-.1 2-1 3.9-2.4 5.1-4.4l5.4-6a2.4 2.4 0 0 0 .6-.8c1.1-1 2-2.3 3-3.3.4-.2.7-.5.8-1 .4-.4.7-1 1.3-1.3.6 0 .8-.5 1.1-1 .3-.3.5-.8 1-1 .3-.1.5-.4.7-.7.3-1 .8-1.8 1.4-2.5.4-.4.2-.7 0-1.2-.6-1-1.6-1.5-2.2-2.4-.1-.3-.4-.5-.3-.8.1-.9-.4-1-1-1.2-1.2-.3-2.3-.4-3.3-1-.6-.4-1.4-.1-2.1-.2-.5 0-1.2 0-1-1 1.3-.4 2.8-.5 4.1-.8 1-.2 2.1 0 3.1-.4 1.5-.6 3.1-.6 4.6-.6 3.8 0 7.6-.6 11.5-.4 3.5.1 7.1.2 10.7.6 2.3.3 4.6.5 7 .5 2.3 0 4.7.5 7 .7l3.2.6c1.8.2 3.3 1 5 1.7 2.8 1.2 5.7 2.1 8.3 3.8l.4.3c-.6.3-1 0-1.6-.2-2.1-.8-4.4-1.4-6.6-1.9l-7.3-1.2c-2.1-.3-4.2-.8-6.4-.6-2 .2-4 .2-6 .5l-6.2.7c-3 .3-5.8.7-8.7 1.3-1.3.4-2.7.7-4 1.4z" fill="#7BBADF"/><path d="M85.6 103.4a9 9 0 0 1 4.6 4.5l.5 1c.4.8.8 1.6.7 2.5 0 1 .3 2 .4 3 .3 2.7.6 5.3.6 8 0 .6 0 1.3.4 1.9 1.4.7 3 1.2 4.5 1.7.3.2.7.1.8.6.2 2.8-2.3 5.6-5.4 6-3 .5-6 .5-9 .4a6.8 6.8 0 0 1-5.7-3.2c-1.4-2-2.3-4.3-3-6.7-.2-1-.2-2-.5-3-.5-.6 0-1.4 0-2 0-1.4.2-2.8.4-4.1.3-2 1-4 2-5.9 1.7-2.8 4.1-4.5 7.4-4.8l1.3.1z" fill="#272A56"/><path d="M240.9 110.2c-.9 5.3-5.9 9.4-11.2 9.3-3 0-5.9-.6-8.5-2a8 8 0 0 1-4.6-5.8c0-.5.4-.6.8-.8 1.3-.4 2-1.3 2-2.7l.1-2.4 1-4.5c.6-2 1.7-3.8 3-5.4.3-.3.6-.5 1-.6 2.2-.2 4.5-.4 6.8 0 6.9 1 9.8 6.8 9.8 11.4 0 1.2.3 2.4-.2 3.5z" fill="#2B2B56"/><path d="M98.1 126.6c-1.9-.6-3.7-1.2-5.4-2.1a2.3 2.3 0 0 0-.1-.1c-.2-.4 0-.9-.3-1.3a2.5 2.5 0 0 1 0-.3l-.3-6.3a2.3 2.3 0 0 1 0-.3c-.2-.5 0-1-.2-1.6a1 1 0 0 1 0-.3c0-.7-.4-1.3-.3-2a.4.4 0 0 1 .2-.2c1.2 3 1.7 6.4 2.8 9.5.2.8.7 1.2 1.4 1.5 3 1.3 6 2 9.1 2l6.2.3c2.4.2 4.8-.4 7-1.2 1-.3 1.8-.5 2.8-.5h6.2c1.5-.1 3-.5 4.5-.7.2-.2.4-.2.5 0l5.6-.7c4.5-.5 8.8-2 13.2-3.2h.3c.2.2 0 .3-.2.4-.3.2-.8.2-1 .3.8-.1.8-.1 2-1.1l4.1-1.1c.8-.6 1.7-1 2.7-1 1.6-.5 3-1.3 4.4-2.3.8-.5 1.5-1.4 1.6-2.5h.3c.3 1.4.3 2.7 0 4-1.2 2.6-3.4 4-6 4.7-1.9.5-3.8 1-5.5 2h-.8c-.2 0-.4.2-.6 0l-2 .5c-3.3.3-6.2 2-9.4 2.7l-2.9.5c-1.4 0-2.7.5-4 .5-2.8.1-5.5.7-8.2.9-5.8.5-11.5.7-17.3.3-3.5-.2-7-.4-10.4-1.3z" fill="#D49E14"/><path d="M34.5 95.2c.6.6 1 1.4 1.4 2.2a32.1 32.1 0 0 1 1.8 7.8c.5 1.8.4 3.7.4 5.6-.1 1.4 0 1.5 1.4 1.9.6.1 1.3 0 1.8.6-.3 2-1.8 4-3.8 4.4-2 .4-4 .8-6.2.7-1.9 0-3.4-.8-4.6-2.2a15 15 0 0 1-3-8.9c-.4-.4-.3-1-.2-1.5l.1-1.4c.4-3.3 1.4-6.2 3.8-8.6a6.3 6.3 0 0 1 4-1.8c1.3-.2 2.2.4 3 1.2z" fill="#272A56"/><path d="M52 50a75.3 75.3 0 0 1 19.4-2.3 134.2 134.2 0 0 1 38.9 6.8c.2.2.6.2.7.5-.1 1.2-.7 1.5-2.3 1.4l1.2.1c.6.1.7.3.6.9-2-.5-4.1-.6-6.2-.7-.8-.4-1.7-.2-2.6-.2-2 0-3.8-.6-5.7-1-1.7-.5-3.4-.6-5-1.2l-3-1c-.7-.4-1.5-.6-2.3-.5-.7 0-1.3-.2-1.8-.6-1.9-1-4-1-6-1.2-2-.1-4 .1-6 .4-3 .4-6 .1-8.9-.3l-3.1-.2c-1.6 0-3.2.1-4.8.4-1.3.2-2.3-.2-3-1.3z" fill="#F8BB5E"/><path d="M153.7 122.4c.6-.8 1.5-.8 2.3-1.2l3.6-1.1c2.3-.7 4-2 5.2-4.1.6-.8.4-1.7.4-2.6v-1.2c.4-1.2.9-2.4.9-3.7 0-1 0-2-.7-2.8-.3-.5 0-1 .2-1.5l.6-2.4c.4-.6.3-1.2 0-1.8-.4-1-1-2-1.6-2.8-.3-.4-.6-.7-.5-1.2.3-.4.7-.2 1 0 1.4.4 2.6 1.3 3.6 2.3 2.1 2.2 4 4.7 4.4 7.9a16 16 0 0 1 0 6.6c0 .4-.1.8-.5 1-.6 3-2.4 5.3-4.8 7.2-1.8 1.3-3.8 2-6 2-2.8.2-5.6.2-8.3-.3-.1-.2.1-.2.2-.3z" fill="#2B2B56"/><path d="M117.8 59.6c.2-1.7.2-3.5 1-5.2.2-.6.5-1.3 1-1.9.9.2 1.2.8 1.1 1.8v.6c0 1.7.8 2.3 2.5 1.9 1-.6 1.9-1.3 2-2.6 0-1 0-1.2-1.1-.9l-.6.1c-.3 0-.5-.2-.3-.5.9-1.2 1.9-2.2 3.4-2.4.1 0 .3.1.4 0 1.3-1 2.5-.5 3.7.1.3.2.5.5.8 0 .4 0 .6.2.8.5.2.6.5 1 .8 1.4-.3.6-.8.7-1.2 1-1 .6-1.4 1.5-1.2 2.5 0 .6.4 1 1 1.3 1 .5 2.2.8 3.4.7 1.3-.1 2.7-.3 4 0 .4.5-.2.6-.4.8-1.7 1.1-3.3 2.4-5 3.6l-.4.2a51 51 0 0 1-4.8 3.5c-.6.4-1 1-2 1a.4.4 0 0 1-.1-.2c-.4-1.1-1.3-1.4-2.3-1.7-.6-.4-1.3-.8-1.6-1.5.3-.7 1-.3 1.5-.5l-.3-.1c-1 .1-1.5-.2-1.5-1.3 0-.2-.2-.5-.7-.6.1.6.6 1.1.2 1.7h-.5A60.9 60.9 0 0 1 118 60a.7.7 0 0 1-.2-.5z" fill="#BAB9B9"/><path d="M136.1 23.7c1.8-.6 3.6-.5 5.4-.2 1.7.2 3.4.9 5.1 1.5 2.6.9 4.7 2.5 6.5 4.5a9 9 0 0 1 2.1 6.1c0 1-.6 1.7-1.3 2.4a2 2 0 0 1-2.3.5c-2.2-.9-4.3-1-6.5-.3l-.2-.1c-.5-.6 0-3.2.7-3.6.4-.2.5-.5.5-.9 0-1.2-1.3-3-2.5-3.3-.6-.2-1.2-.2-1.8.1-.7.4-1.3.3-2-.1-.5-.5-1-1-1.7-1.4-1.1-.8-2.4-1.3-3.8-.9-.3 0-.5.2-.7 0-.1-.4.2-.5.4-.7 1.3-.8 2.8-.9 4.3-.5.8.2 1.6.4 2.3.9.7.6 1.4.8 2.3.8.5 0 1 .2 1.6.4a5.7 5.7 0 0 0-2.7-3 15.6 15.6 0 0 0-2-.6c-.2-.1-.6-.2-.6-.6.1-.4.5-.4.7-.4-.8-.4-1.7-.4-2.6-.2-.4 0-1 .3-1.2-.4z" fill="#797A79"/><path d="M136.1 23.7c.5.4 1 .2 1.4.1 1-.2 2-.1 2.9.6-.3.3-.8-.1-1 .4 1 .5 2.4.7 3.4 1.5a6 6 0 0 1 2.1 3.2 5 5 0 0 0-3.3-.8c-.3 0-.5-.3-.6-.4-1.6-1.4-5.4-2.2-7.4-.4 2.5-1 4.2.3 5.8 1.7.8.7 1.5 1.2 2.6.5.9-.6 2-.1 2.7.4 1 .7 1.6 1.8 1.6 3.1 0 .5.2 1.3-.8 1.2-.2 0-.3 0-.3.3 0 .9-.3 1.7-.4 2.6l.2.3c-.3.9-1.2 1.3-1.5 2.1-.3.7-.8 1.3-1.3 1.9-1 1.3-2 2.6-3.4 3.6-.2.2-.4.4-.7.4-.5 0-.7-.2-.4-.6a8.3 8.3 0 0 0 3.2-3.4c1-2 .9-3.4-.6-5-.2-.1-.3-.3-.4-.6-.2-2.5-2.4-3.6-4.6-3.5-2 0-3-1-4-2.5-.8-1.4-.3-2.6.6-3.7a7.2 7.2 0 0 1 4.2-3z" fill="#8F8F8F"/><path d="M137.7 45.4c0 .9.5.3.8.2 1.3-.9 2.2-2.2 3.2-3.3l.4-.4c.2 0 0 .5.3.3 2-1.1 2.9-.8 3.7 1.2v.2c-.6 1.4-1.3 2.8-.5 4.4-.4.6-.6 1.1-.6 1.8s-.4 1.1-1 1.3c-1 .2-1.7 0-2.5-.3-.4-.3-.7-.6-.3-1.1.2-.2.5-.2.3-.5s-.6-.6-.8-.4c-1 .7-2 .3-2.9 0a1.4 1.4 0 0 0-1.8 1c-.1.8.3 1.4 1.3 1.6.2.1.8 0 .7.6-.4.2-.9.2-1.3.1s-.8-.2-1.3 0a2 2 0 0 1-.2 0c-.3 0-.7 0-1 .2-.3.1-.6.5-1 .2-.6 0-.7-.7-.9-1-.1-.4-.2-.7-.6-.7-.4.2-.6 0-.8-.3-1.2-1-2-1.2-3.4-.3l-.7.4a6.6 6.6 0 0 0-3.2 2.4c-.2.2 0 .2.2.3 1.8.6 2 1.3.5 2.7-.2.3-.7.4-.7 1-1.6.7-3 0-3-1.8v-1c0-.6.3-1.3-.7-1.3l-.2-.4a10 10 0 0 1 5.8-4.2c2.2-.7 4.6-.9 7-1 2 0 3.6-.8 5.2-2z" fill="#AAA"/><path d="M41.9 55.4c-2 .5-3.9.8-5.7 1.5l-1.7.6a51.5 51.5 0 0 1 15.4-7l1-.2c.7-.2 1.4-.5 1.9.5.3.5 1 .7 1.7.6.7-.2 1.5-.1 2.2-.4.6-.3 1.1-.2 1.7-.2 2.7 0 5.2.4 7.8.8 1.5.2 3.1.1 4.6-.1 3.8-.6 7.5-.8 11.2 0 .9.2 1.6.6 2.4.9l1.5.3c1.5 0 2.8.8 4.2 1.2 1.5.4 3 1 4.7 1.2.9 0 1.8.3 2.7.7.5.3 1.2.1 1.8.3.2 0 .4 0 .2.4-.5.5-1.4.1-2 .5-1.8.3-3.6.6-5.4.5-.2 0-.4-.2-.5-.3-.5-1.2-1.6-1.3-2.7-1.6-4.8-1-9.7-1.4-14.5-2.2-1.2-.2-2.5-.2-3.7-.2l-6.5-.2-13.4-.5c-1.9 0-3.8.2-5.7.5-1.3.2-2.2 1.2-3.2 1.9-.2.1-.1.3 0 .5z" fill="#F5C04E"/><path d="m41.3 113.3-2.2-.5c-1.3-.3-1.4-.5-1.3-1.8.2-1.2 0-2.3.1-3.4 0-.5-.1-.9.1-1.3a7 7 0 0 0 3.5 5c1.2.7 2.5 1 3.8 1.3 5 1.1 9.8 2.8 14.8 3.8 2.6.6 5.2 1.2 7.9 1.3 1 0 1.7-.4 2.2-1.3l.2-.3c.8-1.6 1-3.5 2.6-4.7.3.3.1.7 0 1.1l-.6 2.6c-.2 1-.4 2-.2 2.9.2.8-.3 1.6 0 2.4-.9.5-1.7.1-2.5 0-7.1-1.7-14.3-3.3-21.3-5.5l-5.9-1.5c-.4-.1-.8-.2-1.2 0z" fill="#D49E14"/><path d="M240.9 110.2c-.1-1.8.1-3.7-.3-5.5-1.1-5.2-4.1-8.3-9.2-9.2-2.3-.4-4.7 0-7 0 0-.4.4-.6.6-.8 2.4-1.5 5-2.2 7.7-2.2 1.2 0 2.4.2 3.5 1 2.4 1.2 4.4 3 5.5 5.5l.7 2c1.1 2.7 1.2 5.5.8 8.4 0 .3 0 .6-.4.6-.7.1-1.4-.5-2 .2z" fill="#2E608E"/><path d="M163.2 47c.2.5.6.7 1 .7 1 0 2-.1 3 .6.8.5 2 .5 3 .7.5.2 1 .2.6 1-.2.7.5 1.4 1 1.8 1 .5 1.1 1.5 2 2 .1.2 0 .5-.2.7-.8.9-1.5 1.8-1.8 3 0 .4-.4.6-1 .6-.2-.4 0-.8.1-1.2.4-1.7-.2-3-1.8-3.9-2.5-1.3-5.3-1.7-8-2.2l-6.8-.7a4.4 4.4 0 0 0-1 0c-.3 0-.7.2-.8-.3 1.7-.8 3.5-1.2 5.2-1.8a.4.4 0 0 1 .3 0c1 .6 1.8.1 2.6-.6.8 0 1.7-.5 2.6-.3z" fill="#7CBCE1"/><path d="M119.5 30c.6-.3 1 0 1.3.5.2.5 0 1-.3 1.4-.3.4-.8.7-.8 1.3 0 .6.1.6.6.4.7-.2 1.3-.8 2.1-.8L124 35c0 .5-.4.6-.7.7a5 5 0 0 0-1.8 1.8c-.3.4-.3 1 0 1.3.2.3.6 0 .9-.1h1.8c.5.1.8 0 .5-.6-.6-1.7-.6-1.7 1-2.8.2-.2.5-.1.8 0 .7 1.8.3 3.4-1 4.7a4.4 4.4 0 0 1-4.7 1.2c-2-.7-3.8-1.8-4.7-3.9l-.2-1c-.2-.7 0-1.5.4-2.1.8-1 1.4-2.2 2.6-2.9.7-.4.3-1 .6-1.5z" fill="#AAA"/><path d="m122.8 63.7 1.6 1.3c.9.5 1.7 1 2.3 2 .7.3 1.3.8 1.8 1.4 2 1.7 3.9 3.8 6 5.4l1 1c2 2.2 4.5 3.6 7 4.7.7.3 1.3.5 1.7 1l2 1.1c-.4.8-1.1.4-1.7.5-.7-.2-1.4-.2-2.1-.1-1.1-1-2.2-1.9-3.4-2.7a2.8 2.8 0 0 0-1.3-.5 6.6 6.6 0 0 1-3.7-2 .9.9 0 0 1-.1-.2.7.7 0 0 1 0-.4c.2-.3.5-.3.7-.5A77.7 77.7 0 0 0 130 71c-1.8-1.3-3.4-3-5.2-4.3l-.3-.3c-.2-.2-.5-.2-.7-.3.1.2.3.4 0 .6-.4 0-.6-.3-.8-.5a63 63 0 0 0-11.3-8c-.4-.3-.9-.4-1-1-.4-1-1.4-.6-2.2-1 1.2 0 2.2-.1 2.6-1.3 2.4 1 4.3 2.7 6.3 4.3.2 0 .3.2.5.3l4 3.3c.5 0 .8.3 1 .8z" fill="#F5C04E"/><path d="M219.8 105.8c-.1 1.1-.1 2.3-.3 3.4 0 1-.7 1.4-1.5 1.8-.5.1-1 .3-1.4.7-.2-.3-.6-.2-.9-.1-2.7.6-5.4.7-8.1.9-4 .3-7.8.5-11.6 1l-6.6.4c0-.2.1-.3.3-.4.5-.3.3-.5 0-.8l-1.2-.6c-.3-.2-.3-.4 0-.5 1-.2 2-.4 3-.3 4.6 0 9.2-.4 13.7-.6 3.4-.1 6.7-.7 10.1-.7 1.4 0 2.4-.8 3.2-1.9.3-.3.4-.8.5-1.2 0-.5.1-1 .8-1.1z" fill="#4A8EBD"/><path d="M72.2 120.5c-.3-.1-.7 0-.5-.4.6-1.2 0-2.5.3-3.8l1-5c.7-2.5 2.3-4.6 4-6.5 1.8-1.8 4-1.9 6.2-1.7.8 0 1.7-.2 2.4.3a9.5 9.5 0 0 0-7.8 3.8c-1.4 1.8-2 4-2.5 6.1-.4 2.3-.6 4.6-.8 6.9l-2.3.3z" fill="#977A00"/><path d="M242.8 110c.3-1.8.5-3.6.2-5.4l-.6-3.7c.3.4.6.9.7 1.4.4 1.3 2.4 2.8 3.8 2.7a3.9 3.9 0 0 0 3.6-3.1v-.7c.2-.4.4-.7.8-.7s.7.3.7.7c0 .5.1 1 0 1.6-.4 1.8-.3 3.7-.8 5.4-.2.5-.6.7-1 .8-2 .5-4 .8-6.2 1-.4 0-.8.2-1.2 0z" fill="#4A8DBD"/><path d="M138 52c-.1-.3-.4-.3-.6-.3-.7-.1-1.4-.1-1.5-1-.2-.7-.3-1.3.2-1.7.6-.6 1.4-.8 2.2-.4.7.3 1.3.7 2 0 .5-.4 1.5.1 1.7.7.2.3 0 .5-.3.5-.2 0-.5 0-.5.3s.2.4.4.5a4 4 0 0 0 2.2.3c.8-.1 1.1-.7 1-1.5 0-.6-.1-1.3.8-1.4.7.8 1.6 1 2.4 1.5.7.5 1.3 1 1.8 1.6v.1c-.8.9-1.7 1.7-3 1.9-.6-.2-1-.7-1.6-.8-.2 0-.5-.2-.7 0-.2.3 0 .6.2.8l-.1.2c-1.1.3-1.2 1.1-1 2a1 1 0 0 1-.7.5.6.6 0 0 1-.3 0c-1.2-.8-2.2-1.9-3.2-2.9-.5-.3-1.1-.4-1.4-1z" fill="#BAB9B9"/><path d="m188.3 111.7 1.2.7c.4.2.9.3.9.8 0 .6-.7.3-1 .7-2.6.3-5.3.4-8 .6-1.7 0-3.4.3-5.2.2-.3 0-.6 0-.9-.2.6-2.4.7-4.7.3-7.1-.2-.6-.4-1.3-.2-2 .3-.2.4 0 .6.2l.5.9c.3.4.5.8.6 1.3.4 2.4 2.3 3.7 4.8 3.7h6.1a.5.5 0 0 1 .3.2z" fill="#3F709E"/><path d="M172.7 113.9c.8-3.2.8-6.4-.3-9.6a15.3 15.3 0 0 0-6.5-7.8c-.5-.3-1.1-.5-1.8-.5-.5 0-.5 0-.8-.9a.5.5 0 0 1 0-.2c.3-.4.7-.3 1.1-.3a11.9 11.9 0 0 1 9 5.6l.1.6c.2 1.3.7 2.4 1 3.6.6 2.5 1 5 .7 7.6 0 .8-.2 1.6 0 2.4-1 0-1.6-.7-2.5-.5z" fill="#2E608E"/><path d="M16.7 97.6c.8.4.7 1.2.6 1.8-.2.5 0 .9.2 1.2 1.2 1.8 3.5 2.8 5.2.5.3.3.2.6.2 1-.4 1.7-.5 3.4-.5 5.2-1 .2-2-.2-3-.5-3.3-.7-3.4-.8-3.4-4.2v-3.8c0-.5.1-1 .7-1.2z" fill="#D49F14"/><path d="m247.6 81.8 1.7-1.6c.4-.6 1-.7 1.8-.7 1 2.5 1.1 5.1.8 7.8 0 .6 0 1.2-.3 1.7-1.2.6-1.4.5-2.2-.6-.2-.3-.5-.5-.5-.8-.3-1.3-1.1-2.3-1.9-3.3-.2-1-.3-1.8.6-2.5z" fill="#F37958"/><path d="M22.4 107.3c-.4-.1-.3-.4-.3-.8 0-1.8.3-3.6.6-5.4a19 19 0 0 1 2.3-5.4c2.5-3.8 6.7-3.3 9.4-.7v.2c-1-.5-2.1-1.2-3.6-1-2 .5-3.4 1.6-4.5 3.2a14 14 0 0 0-2.4 6.8l-.3 2.1c0 .4 0 .7-.4 1h-.8z" fill="#977900"/><path d="m214.4 47-6.6-.6-2.6-.2c-2.4 0-4.8-.6-7.2-.5-1.3 0-2.7-.1-4-.6-1-.3-2 0-3.1 0a74 74 0 0 0-7.2-.1c-3.9.1-7.7.3-11.6.6l-1.8.3c-1 .3-2-.1-2.9.3h-1a.4.4 0 0 1-.2-.1c2.3-.7 4.6-1 6.9-1.3 2.6-.5 5.2-.4 7.8-.4h6.3l11.3.4 8.2.8c2.4.4 4.8 1 7.3 1.3l.4.2z" fill="#85C7E3"/><path d="M146.2 43.6c-.5 0-.5-.4-.5-.7-.2-.5-.4-1-1-1-.8 0-1.6-.3-2.2.5-.1.2-.2.5-.6.5-.3-.4.3-.7.2-1 .9-1.4 1.5-3 3-3.9 2-1 4.2-.7 6.3.2.8.4 1.7.2 2.5-.2-1 1.4-2.5 2-3.8 2.8l-2.2 1.4c-.3-.1-.4-.4-.8-.4-.5 0-.8 0-.7.6 0 .4 0 .8-.2 1.2z" fill="#BAB9B9"/><path d="M99.4 56.3v-.1c-1.6.1-3-.6-4.3-1l-1.6-.1-4.9-1.5c-.7-.2-1.4-.6-2.3-.6-1.2 0-2.3-.5-3.4-1-1.2-.4-2.5-.4-3.8-.7-2.2-.5-4.4 0-6.6.3-2.1.2-4.2.5-6.3.2-1 0-2-.3-3-.4-2.2-.3-4.5-.8-6.8-.2-1 .3-2.5 1.1-3.4 0-1-1.3-2-.7-3-.7a6 6 0 0 1 2-.5l.6.1c.8 1.5 2.1 1 3.3.9l2.7-.3c2.5-.2 5 .2 7.5.5 2.8.3 5.6-.2 8.4-.4a26 26 0 0 1 8.3.6c.5.1.8.6 1.3.7 2.8.4 5.3 1.5 8 2.2 1.6.5 3.4.6 5 1.1 1.8.6 3.7.6 5.5 1 .5 0 1.2-.7 1.6.1-.4.5-1 .4-1.6.4l-2.2-.1c-.3-.2-.8.1-1-.5z" fill="#F6BD56"/><path d="M138 126c3.3-.5 6.4-1.7 9.4-2.8a5.5 5.5 0 0 1 2.8-.3c.2 1-.7 1.4-1.3 1.8a12 12 0 0 1-6.7 2c-2.2 0-4.5.4-6.7-.1.8-.7 1.7-.3 2.5-.6z" fill="#282B56"/><path d="M181.3 52.9c.7-.9 1.7-.9 2.6-1.1 3.5-1.1 7.1-1.4 10.8-1.9l7.1-.8a31.5 31.5 0 0 1 12.3.5c1.8.5 3.7.5 5.5 1 1.4.4 3 .4 4.4 1 1.3.5 2.6 1.2 4 1.3 1 .5 2.1 1 3 1.7a5.3 5.3 0 0 1-1.7-.5 44 44 0 0 0-10.5-3.2c-2.8-.6-5.7-.8-8.4-1.4-1.8-.4-3.7-.4-5.5-.1h-2c-1.8 0-3.6.3-5.3.5-3.6.5-7.2.8-10.7 1.6-1.3.2-2.5.3-3.7 1 0 .2-.1.3-.3.2-.6-.4-1 .3-1.6.2z" fill="#71B1DB"/><path d="M146.7 52.9c1.3-.2 2.1-1.2 3.1-1.8h.3l.4.5c1.5 2.8-.2 5.6-3.4 5.6-1.5 0-3-.4-4.2-1.4l.6-.4c.5.2 1 .4 1.4.4 1.1 0 1.5-.7 1.1-2.1a.5.5 0 0 1 .1-.3c.5.1.7 0 .6-.5z" fill="#AFAEB0"/><path d="M19.4 78c.9.6 2.3.9 2.3 2.3v.4a9.4 9.4 0 0 1-2.2 4.5c-.3.4-.8.3-1.2.3.3-2.4.2-4.9 1-7.2l.1-.4z" fill="#EE7A5D"/><path d="M175.1 114.4c-.4-.3-.4-.7-.3-1.2.7-4-.2-7.8-1.4-11.6 0-.3-.4-.6 0-.9.7.2.7 1 1 1.4.3.2.4.6.5 1 .3.7.7 1.4.6 2.3l.6 4c.2 1.6-.2 3.2-.3 4.8 0 .4-.3.2-.5.3h-.2z" fill="#2C4F7D"/><path d="M119.5 30c.3.8 0 1.2-.7 1.8-1.4 1.2-3 2.6-2.8 4.9.1.1 0 .2-.2.1-.6-1.7-.7-3.5.1-5.2.8-1.4 2.2-2 3.6-1.7zm3.2-4.7c-1.2-1-1.2-3.4.2-4.3.6-.4 1.2-.2 1.7 0s.6.7.5 1c0 .6.3 1.1.2 1.7-.6 1.3-1.3 1.8-2.6 1.6z" fill="#686868"/><path d="M152.5 49.8c1 .2 2 .1 3 .1 2.7.1 5.5.7 8.2 1.1 1.9.3 3.6.9 5.2 1.7 2.2 1 2.7 2.3 2.2 4.6l-.2.8c-.5.5-.7 1.3-1.3 1.7-.2.2-.3.6-.6.2 0-.7.6-1.2 1-1.7.8-1.1.8-2.4.5-3.6l-.2-.2c-.2-.5-.5-1-1.1-1a55.8 55.8 0 0 0-2.4-.9l-1.5-.6c-3-.5-6.1-1-9.2-1.3-1.1-.2-2.3 0-3.5 0-.4 0-.9 0-1.2-.4l1.1-.5z" fill="#7EC0E4"/><path d="M136 4.8c1.5 1 1.8 3.5.5 4.7-1 .9-2.4.5-3-.8l-.3-.8c.2-.7.8-1 1.5-1 1.2-.1 1.2-.2 1-1.3 0-.3 0-.5.2-.8z" fill="#909090"/><path d="M157.4 47.1c-.6-1.5.1-3 1.4-3.2 1-.2 1.8.5 1.9 1.6 0 .5-.4 1.2.3 1.6 0 .4-.3.3-.5.2-.2-.1-.5-.2-.7 0-.6.2-1.2.1-1.6-.4-.4-.4-.6 0-.8.2z" fill="#BABABA"/><path d="M151.4 50.3c1.9.2 3.7 0 5.6.2 2.8.4 5.7.8 8.5 1.4l.2.4a.6.6 0 0 1-.3.2 56.8 56.8 0 0 0-13-1.3c-.8 0-1.5.5-2.2.3-.2 0-.1-.2-.2-.3l1.4-.9z" fill="#262854"/><path d="m136 4.8.1.9c.2 1.3 0 1.5-1.2 1.4-.8 0-1.2.5-1.7.8-.4-.6-.4-1.4-.1-2 .8-1.9 1.4-2 2.8-1z" fill="#696969"/><path d="M126.4 35.5h-.9a.6.6 0 0 1-.2-.2c-.5-1-.6-1-1.4-.2-.7-.6-1.5-1.2-1.5-2.3 1.7-.7 3.8.7 4 2.7z" fill="#7B7B7A"/><path d="m152.2 15.6-1 1.8c-.3.4-.8.7-1.3.4-.5-.4-.3-.8 0-1.1l.5-1.9c1-.3 1.4-.1 1.8.8z" fill="#919191"/><path d="M161.4 24c.8.8.8 1.9.6 3-.8 0-1.1-.2-1.2-1-.2-.8-.8-1.4-.7-2.3 0-.2-.3-.5 0-.6.3-.2.7 0 1 .3.2.1.2.4.3.6z" fill="#7C7D7C"/><path d="M160.1 23.7c0 1 1.1 1.7 1 2.8 0 .3.7.1.9.5-.4.7-1 1-1.7.6-.7-.3-.9-1-.4-1.8.4-.7.1-1.4.2-2z" fill="#ABABAB"/><path d="M152.2 15.6c-.5-.6-1-.8-1.8-.8v-1.4c0-.3 0-.5.3-.6.3-.1.5 0 .7.2.8.5 1 1.5.8 2.6z" fill="#7D7E7D"/><path d="m251.2 108.2.6-6.3v-.6c0-.3-.1-.6-.5-.7-.3 0-.5.3-.6.6 0 .2 0 .5-.2.7 0-.8-.1-1.5 1-1.6.4.2.7.4.7 1 0 2.3-.3 4.6-1 7z" fill="#62A2CE"/><path d="M138 126c-.6.5-1.5 0-2.2.5 2.1.6 4.3 0 6.4.1-1.6.3-3.2.4-4.7.4-1 0-1.9-.3-2.8 0-.3 0-.5 0-.7-.3 1.3-.4 2.6-.8 4-.7z" fill="#2A2D58"/><path d="M146.2 43.6v-1.2c-.2-.5-.1-1 .4-.9.5 0 1.4-.4 1.3.7l-1.7 1.4z" fill="#ACACAC"/><path d="M160.5 47.3c.2 0 .4 0 .5-.2l3.3-.6 2.1-.4h1v.2l-4.2.8-2.8.6v-.4z" fill="#79BADF"/><path d="M157.4 47.1c0-.3-.2-.6.2-.7.4-.2.5.1.7.3.4.6 1 .6 1.6.2.5-.3.6 0 .6.4-.4.5-1 .4-1.5.5-.4 0-.7 0-1 .2h-.3c-.1-.3-.4-.5-.3-.9z" fill="#B3B2B2"/><path d="M137 2.1c-.7-.2-.7-1-1-1.5-.1-.4.3-.6.7-.5.3.1.6.3.8.6.2.3.2.7.1 1 0 .4-.1.6-.6.4z" fill="#6F6F6F"/><path d="M137 2.1c.8-.2.2-1 .5-1.4 1 .8 1.2 1.6.5 2.7L137 2z" fill="#7F807F"/><path d="M122.7 25.3c1.1-.1 2-.7 2.6-1.6 0 .4.4 1-.2 1.3-.7.2-1.4 1.4-2.4.3z" fill="#7B7C7B"/><path d="M23.2 107.3c.4-1 .3-2.1.7-3.1l-.2 3.1h-.5z" fill="#4B6585"/><path d="M166.4 46.1c-.6.3-1.4.4-2.1.4a5.2 5.2 0 0 1 2-.4h.1z" fill="#7CBCE1"/><path d="m153.7 122.4-.2.3h-.4c-.1 0-.4 0-.4-.3h1z" fill="#514853"/><path d="M115.8 36.8c.1 0 .2 0 .2-.2.2.3.6.5 0 .8l-.2-.6z" fill="#8F8E8E"/><path d="m152.7 122.4.4.3-.8-.1.4-.2z" fill="#827978"/><path d="M134 76.6c1.2 1 2.4 1.9 4 2 .8 0 1.1.5 1.6.9 1 .7 2.1 1.2 2.7 2.3 0 1.6-.2 3.2-1.5 4.3l-.4.6c-1 2.4-3.1 3.7-5.3 4.9a53.6 53.6 0 0 1-4.7 2c-.3.2-.7.4-.7.9s.4.6.8.8a6 6 0 0 0 4 .6l4.7-.7c1.4-.1 2.7-.5 4-1.2.9-.4 1.3-.3 1.9.5.2.3.4.3.7.2 1.4-.2 2.7-.8 4-1.5 1.3-.8 1.7-2.3 1.6-3.7 0-.8-.1-1.5.4-2.1.3-.4.1-.8.2-1.2.7-.2 1.3-.2 2-.6a11 11 0 0 1 2.3 2c.3 1.3.5 2.7 1 4l.4 1.2c.3 1.3 1 2.4 1.7 3.4.9 1.5 2.3 1.5 3.3 0 .2-.2.3-.6.7-.5.8 1 1.7 2 2.4 3.2.5.9.8 1.8.7 2.8l-1 4c.2.3.2.5.2.8l-.1.9c-.3.6-.1 1.4-.9 1.8l-.4-.4c-.3-.4-.2-.7 0-1.1.1 0 .1-.2 0-.2-1.5.4-3 .5-4.6.5-1 0-2 .2-2.8.5-6 2.1-12.1 3-18.3 4.3l-8.2 1.4a2.3 2.3 0 0 0-.7.2c-1.8 1-3.8 1.7-5.8 2.5-.8.3-1.6.8-2.5.6-1 0-2.1.3-3.3 0-2.9-.5-4.7-2.3-6-4.8-.2-2-.8-3.8-1.1-5.7l-.1-.4c0-.3 0-.6.2-.7.3-.1.5 0 .6.3.3.6.7.4 1 0 .6-.2 1.2 0 1.8.2l1.4.5h.3c.6.2 1.2 0 1.8.2.9.2 1.8.2 2.7 0 .6 0 1.3 0 2-.2 1.2-.3 1.7-1.3 1-2.5-.7-1-1.5-2-2.4-2.9l-3.7-3c-.6-.4-1.1-.7-1.8-.8-1.5-.5-3.1-.8-4.8-1-2-.4-3.8 0-5.7.5-.4.1-.8.4-1.2 0-.1-.4-.5-.5-.8-.5l-.5-.1a35.8 35.8 0 0 0-10.3-6.9.9.9 0 0 1-.3-.1c-.3-.6-1-.8-1.5-1-.4-.2-.8-.2-1.1-.6-.7-1-1-2-1.5-3a78 78 0 0 0-6.4-12.3L80.5 71c-.2-.5-.6-1-1-1.4-.3-.7-.9-1.2-1.3-1.9-.5-1-1.4-1.9-2.1-2.8-.7-.7-1.3-1.5-2.2-2-1.3-.9-2.4-2-3.7-2.8-2-1.2-4.2-1.8-6.4-2.5-1.8-.6-3.7-1-5.5-1.4-2-.6-4.2-1.1-6.3-1.3-3.3-.3-6.5.3-9.7.4l-.4.2H41c1.6-1.3 3-2.8 5.1-3 2.7-.1 5.3-.2 8-.1l12.5.4c2.6 0 5.2.2 7.7.4 2.4.2 4.7.6 7 1 2.9.4 5.8.7 8.6 1.4.8.3 1.5.4 1.8 1.3 0 .2.3.3.4.5 0 .5-.4.4-.7.5-2 .3-4 .9-6 1.3-1.3.3-2.6.8-3.8 1.5-1.2.6-1.5 1.2-.8 2.4 1.1 2.3 2.3 4.6 3.7 6.6 1 1.5 2 2.9 2.8 4.4 1.5 2.7 3.3 5.2 5 7.8 1 1.4 2.5 1.5 4 1.4 1.9-.2 3.8 0 5.7.1 2 .3 4 0 6 0 2.4-.2 4.9-.2 7.3-.6 3.7-.5 7.4-.4 11-1.7 2-.7 3.7-1.7 5.6-2.5.4-.1.6-.4.9-.8.3-.4.7-.8 1.2-1z" fill="#F6C75F"/><path d="M50.7 74.6c.6-4.8.7-9.6 1.4-14.4.1-.8.4-1.1 1.2-1 2.1.2 4.2.6 6.2 1.4 2 .6 3.8 1.3 5.6 2.3.6.4 1.3.7 2 1.3 2.7 1.7 4.5 4.2 6.3 6.9l1 1.7a47 47 0 0 1 3.3 7l.2 1.4c-.6.7-.9.2-1.2-.3-.5-1-1.2-1.8-2.1-2.4l-.7-.3c-2.8-.9-4.7.6-6.5 2.4-.6.6-1.1 1.4-1.3 2.3-.1.5-.4.6-1 .5-3-1-6-1.6-9-2.2a55.1 55.1 0 0 1-4.2-1c-.8-.2-1.2-.8-1.2-1.5 0-1.4-.2-2.7 0-4zM40.6 60.2a22.2 22.2 0 0 1 5.2-1.4c1.2-.2 1.6.3 1.5 1.6l-.6 8.9a.3.3 0 0 1 0 .2c0 .6 0 1.2-.2 1.7l-.7 5.4c-.2 1.4-.8 1.9-2.2 1.7l-14.4-3c-1.7-.4-2-1-1.5-2.7.6-2 1.9-3.6 3-5.4.1-.1.3-.3.3-.5.5-.8 1.2-1.4 1.9-2a42.7 42.7 0 0 1 7.7-4.5z" fill="#272A56"/><path d="M104 97.3c1.5-.3 2.9-.8 4.3-1 2.6-.3 5.2.4 7.7 1.2 1.5 1.6 1.2 4.5-.7 6-.8.4-1.5.8-2.3 1a1.9 1.9 0 0 1-.3.1c-2 .3-3.7-.6-5.4-1.3-1.8-1-3.3-2.4-4.8-3.7-.5-.6-.4-1 .2-1.5l1.4-.8z" fill="#F2F2F2"/><path d="m121.4 117.5 2.4-.7a41.5 41.5 0 0 0 5-2c1.1-.6 2.5-.8 3.7-1 1.4-.3 2.8-.5 4.2-.5a58.2 58.2 0 0 0 12.3-2 10 10 0 0 0 2-.5c.4-.2.8-.3 1.2-.1.2 0 .4.2.7 0 1.7-.5 3.6-.3 5.3-.8.9-.2 1.8-.3 2.6-.7.4-.2 1-.5 1.2.2-1.5 1-3.2 1.6-4.8 2.1-2.4.8-4.8 1.4-7.1 2-2.7.9-5.4 1.2-8.1 1.8-1.9.4-3.8.3-5.7.7l-6.9 1c-2 .4-4.1.5-6.2.7-.5 0-1 0-1.4.2-.2 0-.5 0-.4-.4z" fill="#DEA920"/><path d="M75.9 100.6c0-.6.2-1 .6-1.4 1.2-1.3 2.7-2 4.4-2.6 3.2-1.2 6.3-.8 9.2.9 1.4.7 2.6 1.7 3.3 3 .3.7.8 1.3 1.2 2a19 19 0 0 1 2.5 6.9c0 .2 0 .6-.2.6-.3.1-.5-.2-.6-.4l-.5-1.4c-.4-1.3-1.5-2.1-2.2-3.2-2-2.8-4.8-4.4-8-5.4s-6.1-.7-9 .8c-.2 0-.4.3-.7.2z" fill="#F6C75F"/><path d="M115 103.4c1.5-1 2.2-3.3 1.2-5.5l-.2-.4c1.3.2 2.1 1.2 3 1.9 2 1.4 3.7 3 5 4.9.8 1.3.2 2.6-1.3 2.9l-1.8.1c-1.7.1-3.3-.3-4.9-.2a2.4 2.4 0 0 1-1.3-.3c-.6-.4-1.3-.5-2-.5-.6 0-1.2-.4-1.7-.7-1-.8-2.2-1.1-3.1-2 .6-.1 1.1.4 1.7.5a6 6 0 0 0 3.3.3c.8-.2 1.6-.4 2.2-1z" fill="#E5E2E0"/><path d="M64.8 114.3c-1.2 0-2.3-.7-3.5-1-5.3-1.6-10.6-3-15.9-4.9a24.5 24.5 0 0 1-2.7-1.2c-.8-.4-.8-1.1-.2-2.4.4-.7.9-.8 1.7-.5 5.4 2.2 10.6 4.8 16.1 6.7 1.7.6 3.3 1.5 5 2.3.2.1.6.2.4.6-.2.3-.4.5-.9.4z" fill="#F6C75F"/><path d="M162 109.4c-.3-.3-.7-.2-1 0-1.8.9-3.9 1-5.9 1.2-.7 0-1.5.3-2.2.5-.3 0-.7.2-.7-.3-.2-.4-.5-.2-.8-.1-1 .4-2 .6-3.1.9-3.7.8-7.3 1.5-11 2l-.6-.1c-2.5.3-5 .6-7.5 1.3-1 .3-2 .8-3 1.3a9.5 9.5 0 0 1-2.4.7c1-.7 2-.9 3.1-1.4l.6-.2c2.7-1.7 6-1.8 9-2.3l10-2c4-.7 8-2 12-3.1a2.3 2.3 0 0 1 .6-.1c2 0 4 0 6-.7 0 .5-.4.5-.6.7-.3.4-.5.8-1 1-.4.3-.9.6-1.5.7z" fill="#E0AC2E"/><path d="M53.7 88.4c-.1-.4.3-.3.4-.7-2.2-.5-4.4-1.2-6.6-1.6-.5-1-.4-2.6.2-3.1 0 1.6 0 1.7 1.6 2a62 62 0 0 1 9.3 2.7c3.5 1.3 7 2.6 10.4 4.1 1.3.6 2.4 1.4 3.6 2.2l.2.3c-.1.2-.3.2-.4 0l-5-1.5c-2.1-.6-4-1.5-6-2.4-.7-.2-1.2-.2-1.6.3-.1-1-.7-1.3-1.5-1.5-1.5-.4-3-.7-4.6-.8z" fill="#D7B02D"/><path d="M25 91c.2-1 .7-1.3 1.1-1.6 2.5-2 5.3-2.7 8.3-1.3 1.7.8 2.8 2.2 3.9 3.6 1.2 1.6 1.6 3.6 2.2 5.6v.4c0 .3 0 .6-.3.6-.2 0-.2-.3-.3-.4-.7-1.3-1.2-2.7-2-4a5.6 5.6 0 0 0-1.3-1.4c-2.3-1.8-4.8-3-7.8-3-1.4 0-2.6.5-3.8 1.4z" fill="#F6C75E"/><path d="M30.8 81.7c2.2-.2 4.3.4 6.4 1 2.8.7 5.7 1 8.5 1.6 1 .3 1.2-.2 1.4-1 .3.3.1.7.2 1v.7c-.2.8-.2 1.6-.2 2.5 0 .3 0 .6-.4.7v-1c.2-1-.4-1.5-1.3-1.7l-9.8-2-4-.7c-.2-.5-.6-.7-.8-1.2z" fill="#D7B02D"/><path d="M58.3 56.1c1.5.1 3 .3 4.3.8l5 1.7c2 .6 3.7 2 5.4 3.3l1.1.8c.7.7 1.3 1.5 2.1 2 .8.9 1.7 1.7 2.2 2.8-.3.4.6.6.2 1-1-.6-1.5-1.6-2.2-2.4a24.2 24.2 0 0 0-7.1-6.3c-2.2-1.1-4.6-2-7-2.5-1.4-.3-2.7-.6-4-1.1z" fill="#F3BE43"/><path d="m53.7 88.4.6-.2c1.8.1 3.5.5 5.1 1.2.6.2.6.8.4 1.3-.4.3-.9.3-1.3.2l-4-1c-.7-.2-1-.7-.8-1.5z" fill="#3D5001"/><path d="M31 66.7 29 70.5a11.7 11.7 0 0 0-1 2.3c-.5 1.4-.2 2 1.2 2.4l5.2 1.1c3.1.6 6.2 1.4 9.4 1.9 1.2.2 1.7-.2 1.8-1.5.2-1.8.6-3.5.6-5.3l.2-.4c.5.6.1 1.3.2 2v.2c-.2.5-.1.9-.2 1.3a1.5 1.5 0 0 1 0 .3l-.4 2.5c0 .2-.2.5-.4.6-.5.5-1 .7-1.8.5l-10.4-2-4.6-1.1c-1.3-.4-1.6-.9-1.3-2.2.6-2.5 2.1-4.5 3.6-6.4z" fill="#355D9A"/><path d="M81.8 72.6c2 2.9 3.6 6 5 9.1.6 1 1 2.1 1.4 3.2.1.3.3.5-.2.6-2-4.3-4-8.5-6.4-12.6 0-.2 0-.3.2-.3z" fill="#BCA02D"/><path d="M92.5 89.6c.8.2 1.6.4 2.3.9 1.8 1.3 3.8 2.3 5.6 3.7.9.7 1.8 1.4 2.5 2.3 0 .2 0 .3-.2.2-1.2-.7-2-1.9-3.3-2.5-1.3-.6-2.3-1.5-3.5-2.2l-2.6-1.5-1-.6c-.2-.2 0-.2.2-.3z" fill="#BB9F31"/><path d="m45.5 78 .1-.6c.5-.9.3-1.8.5-2.7.3-.5 0-1 .2-1.4V73l.4-3.7v-.1c.4-.6.3-1.3.3-2 .2-2 .5-4 .5-6l.2-1.8c.3 1.6 0 3.2 0 4.9l-.6 5.3c-.3 2.6-.5 5.2-1 7.8 0 .1 0 1-.6.4z" fill="#F5C336"/><path d="M111 105.6c.7 0 1.3.3 1.7.7 0 .5-.3.8-.6.9-.4 0-.4-.5-.5-.8 0-.2-.2-.4-.4-.3-.3 0-.2.3-.1.5.6 1.6.4 3.4 1.1 4.9.2.4-.1.8 0 1.2-.6-2-1.4-3.8-1.8-5.8-.2-.7 0-1.1.6-1.3z" fill="#F5C14F"/><path d="M56.1 81c3 .7 6 1.3 9 2.2.6.2.7 0 .9-.5 1-2.6 3-4.2 5.6-4.8.9-.2 1.6 0 2.4.2 0 .1-.2.2-.3 0-3.6-.1-6.1 1.5-7.5 5-.2.3-.4.6-.9.4-3-1-6-1.5-9.1-2.3H56V81z" fill="#506C8D"/><path d="M47 84.3v-1l.8-10c.6.6.3 1.3.2 2 0 2.5-.2 5.1-.4 7.7-.3 1 0 2-.1 3 0 .3 0 .5-.2.7-.3-.2-.2-.5-.2-.8-.1-.5.2-1 0-1.6z" fill="#A0901C"/><path d="M30.8 81.7c.5.2 1 .4.8 1-1.3.3-2.5-.2-3.8-.5-.2 0-.5-.2-.5-.6 0-.4.5-.4.8-.4l2.7.5z" fill="#3D5002"/><path d="M74.3 72.8a47 47 0 0 0-3.8-5.5 19 19 0 0 0-3.5-3c0-.1.1-.1.2 0 1.9.9 3.2 2.4 4.4 4a27 27 0 0 1 3 4.4h-.3z" fill="#597693"/><path d="M93.3 90.5c1.8.5 3.3 1.7 4.8 2.7l1.3 1c-.6.2-1-.3-1.4-.5a290.4 290.4 0 0 0-4.8-3v-.2z" fill="#F3BF4B"/><path d="M164.7 109.2c.4-.5.4-1.2.7-1.9.1 0 .3 0 .4.2.4.4.3 1 .2 1.5 0 .4 0 .8-.2 1.2-.1.4-.2.8-.5 1-.7-.3-.5-.9-.6-1.4v-.6z" fill="#F1EEEA"/><path d="M74.3 72.8h.2a36 36 0 0 1 3.3 7.1c.2.5.4 1 0 1.6v-.3c0-1.8-1-3.3-1.7-4.8-.5-1.3-1.2-2.4-1.8-3.6z" fill="#56718E"/><path d="M48 75.3c0-.7.2-1.4-.2-2l.4-5.2c.6.5.3 1.2.2 1.8 0 1.8 0 3.6-.4 5.4z" fill="#B29A22"/><path d="M38 106.3v3.8c0 .3.1.6-.2.9 0-2 .2-4-.2-6-.2-.3 0-.7-.2-1l-.7-3.9.1-.5c.7 1 .5 2.2.8 3.3l.4 3.4z" fill="#C79F22"/><path d="M56.1 81v.2c-1.5-.1-3-.6-4.5-1-.7-.2-1-.8-1-1.3a13.5 13.5 0 0 1 .1-4.3v3c0 1.8.4 2.3 2 2.7l3.4.8z" fill="#688EA6"/><path d="M48.6 62.5c0-.8 0-1.6.2-2.5v-1c-.2-.1-.5-.1-.3-.4.1-.2.3-.1.4-.1.3 0 .3.3.3.5v1.7c-.3 1.2 0 2.5-.4 3.8-.3-.7.1-1.4-.2-2z" fill="#C8A729"/><path d="M47.3 85.9v.8a38 38 0 0 1-.4 5c-.4-.4-.1-1-.2-1.4v-2c.3-.8.1-1.6.2-2.3 0-.4-.1-.8.2-1.1.2.3 0 .7.2 1z" fill="#7C7C10"/><path d="M40.6 60.2c-1.9 1-3.8 1.9-5.6 3-.7.5-1.2 1.2-2.1 1.4 2.3-2 4.7-3.6 7.7-4.4z" fill="#66808E"/><path d="M48.6 62.5c.4.6.1 1.3.2 2 0 1.8 0 3.6-.4 5.4 0-.6.2-1.2-.2-1.8l.4-5.6z" fill="#B89E23"/><path d="M36.8 99.6c.2 1.5.6 3 .6 4.4-.7-1.6-.7-3.3-1.1-5-.2-.5-.5-1-.4-1.6.5.6.5 1.5 1 2.2z" fill="#3E4A1D"/><path d="M113 104.4c-1.2.5-2.4.3-3.5-.1-.6-.2-1-.5-1.6-.6-.3 0-.5-.2-.6-.4.8 0 1.6.4 2.4.7 1 .3 2.1.5 3.2.4z" fill="#E8E5E0"/><path d="m89.6 88 2 .7c.3.2.7.4.7.8-.2.2-.3.1-.4 0l-1.6-.7c-.3-.2-.7-.3-.7-.8z" fill="#C4A63B"/><path d="M65 63c-1.7-1-3.6-1.6-5.5-2.4 2.1.3 4 1.2 5.7 2.3l-.1.1z" fill="#6A8696"/><path d="M77.8 81.2v.3c-.7.5-1-.1-1.2-.6a6 6 0 0 0-2.9-2.7h.3c1.3.3 2 1.3 2.7 2.5.2.3.4 1 1 .5z" fill="#557290"/><path d="M46.7 90.3c.4.4 0 1 .2 1.4 0 .9.1 1.8-.2 2.7-.4-.4-.1-1-.2-1.4 0-.9-.1-1.8.2-2.7z" fill="#75780D"/><path d="M88 85.5c.3-.1.2-.4.2-.6l1.4 3.1a5.1 5.1 0 0 1-1.6-2.5z" fill="#C7A634"/><path d="M159 116.6c-1 .2-1.8.8-2.8 1-.1-.2 0-.3 0-.4.8-.5 1.7-.8 2.7-.6z" fill="#F2BD48"/><path d="M152.2 118.7c-.5 1.2-1.6 1-2.6 1.2l1.4-.5c.3 0 .4-.2 0-.3.3-.3.7-.4 1.2-.4z" fill="#D8A318"/><path d="M91.3 111.4c.1-1-.4-1.7-.6-2.5 1 .8.9 2 1 3.2a.3.3 0 0 1-.3 0c-.3-.2-.2-.5 0-.7z" fill="#D5AA26"/><path d="M78.6 68.5c.1-.4-.6-.5-.2-1 .4.7 1 1.2 1.3 2 0 0 0 .2-.2.2-.4-.3-.6-.8-1-1.2z" fill="#DFB43E"/><path d="m81.8 72.6-.1.3-1.2-1.7c-.1-.2-.1-.4.2-.4a8 8 0 0 1 1.1 1.8z" fill="#C5A532"/><path d="M46.5 93c.4.4 0 1 .2 1.4v1h-.4c0-.8-.1-1.6.2-2.4z" fill="#6F740C"/><path d="M80.7 70.8c-.2.1-.2.2-.2.4a395.6 395.6 0 0 1-1-1.5l.2-.2c.4.4.8.8 1 1.3z" fill="#D1AC38"/><path d="M72.4 94.4c.3 0 .3-.2.2-.4.4.1.8.3 1.2.9-.6 0-1-.2-1.4-.5z" fill="#E7B833"/><path d="m65 63 .2-.1a8 8 0 0 1 2 1.3H67c-.7-.3-1.3-.8-2-1.2z" fill="#698DA4"/><path d="M132.3 123h-.6a57.5 57.5 0 0 1-.7-.1c.7-.6.7-.6 1.3 0z" fill="#F3BE48"/><path d="M46.3 95.3h.4c0 .3 0 .7-.2 1h-.2c-.3-.4 0-.7 0-1z" fill="#6F730D"/><path d="M163.5 108.7c.3-.4.6-.8 1-1l-.2 1.1c-.2 0-.5-.2-.8-.1z" fill="#F2BE49"/><path d="M164.7 109.8c.2.5.1 1 .5 1.4.1 0 .2 0 .1.2 0 .2 0 .3-.3.4h-.1c0-.7-.6-1.3-.2-2z" fill="#F6C75F"/><path d="M91.9 89.5H92.5l-.2.4c-.2 0-.5.1-.7-.1 0-.2.2-.2.3-.3z" fill="#F4C556"/><path d="m102.7 96.7.2-.2.4.2c0 .2.3.4 0 .5-.3 0-.4-.3-.6-.5z" fill="#CCA82E"/><path d="M197.1 75.3V77c.1 1.4 0 1.5-1 1.8-2.5-.4-5-.3-7.6-.5l-3.3-.1c-1-.1-2 0-3 .2a2 2 0 0 1-1.5-.2c-.5-.3-.7-.8-.7-1.4a5.3 5.3 0 0 0-1.6-3.4 5 5 0 0 0-6.6 1.7c-.3.5-.6.5-1 .4-.5-.1-.2-.5-.1-.8 0-.5.3-1 .4-1.6.1-.3.1-.6.4-.8 1-2 2.2-4 3.9-5.6.2-.5.6-.8 1-1.2a40.5 40.5 0 0 1 3.5-3.2 22 22 0 0 1 11.9-4.3l1.9-.2c1-.2 2-.1 2.9 0 .7 0 1 .4 1 1.7a.1.1 0 0 0 0 .2c-.3 1.5-.1 3.1-.2 4.7v3.3a10.3 10.3 0 0 1 0 3.2c-.3 1 0 2.2-.2 3.2v1zM220 55.8c2.8 1 5.5 2.3 8 3.9 3.6 2.2 6.2 5.2 8.1 9l.3.4 1 2c.4.4.5 1 .5 1.5 0 1.4-.5 2-2 2.2-3.6.3-7.2.1-10.8.2l-7.8.2a10 10 0 0 1-3.3-.4c-.7-.2-1.3-.5-1.4-1.3.2-2.5-.3-5-.2-7.6v-9.7c-.2-.9 0-1.1 1-1.1h.7c-.4-.1-1 .1-1.6-.1 0-.4.4-.4.6-.5 2.3 0 4.5.2 6.6 1l.3.3z" fill="#272A55"/><path d="M219.8 105.8c-.4.3-.7.8-.6 1.4 0 .3-.1.6-.4.9-.3-.4-.1-.8-.1-1.2l.2-1a12.8 12.8 0 0 1 1-5.5c-.1.8-.5 1.2-1.2 1.1-.8 0-1-.6-1-1.3 0-1.9-.1-1.9-2-1.6-2.6.4-5.2.8-7.9 1-.4 0-.8.2-1 .7 0 .2-.2.4-.5.1-.3-1.4 0-3-.2-4.4 0-1.2.4-2.3.1-3.5v-9.2c0-.6 0-1.1.8-1l.3.1c.2.4.1 1 .3 1.4v11.1-11.1c-.1-.6-.1-1.1.4-1.5.9-.3 1.8-.3 2.7-.3 2 0 3.9-.4 5.8-.3 2.8.1 5.6-.3 8.4-.2 2.8.2 5.5.3 8.3.2h1.2a4.7 4.7 0 0 1 1-.1c.9 0 1.4-.4 1.5-1.3.7 0 .8.4.8 1l.2.3c0 .6-.7.5-1 .8-1.9.3-3.9.1-5.8.2l-.3.1c-1.3-1-.7.3-.8.7a5.2 5.2 0 0 0-.2.9c-.1 1 .2 1.5 1.3 1.6.3 0 .5 0 .8.4-.8.5-1.7-.1-2.5.4 0 .4-.3.3-.6.4-3.7.4-6.6 2.2-8.9 5.1-.8 1.1-1.6 2.3-2 3.6l-.3.5c-.1.6.1.9.6 1 .8.1.5-.5.6-.8a.5.5 0 0 1 .2-.2h1c-.3-.1-.5-.4-.5-.8 0-.2.1-.4.3-.5a3.6 3.6 0 0 0 1-1l.5-.4 1.3-.5c.6 0 .9-.6 1.1-1a.8.8 0 0 1 .5-.4c1.2.8 1.6-.4 2.2-1l.6-.2c.4 0 .8 0 1.1-.3.2 0 .4-.2.5 0h.5c.1.2 0 .3-.2.4-.8.3-.8 1.2-1.3 1.7-.2.4.3.5.7.4 1-.2 1.9-.5 2.9-.5 1.8-.1 3.6-.3 5 1.2-3.4-1.2-6.6-.6-9.8.7a6.4 6.4 0 0 0-2 1.5c-2.2 2-3.4 4.4-4 7.3l-.6 2.9z" fill="#67A9D7"/><path d="M237.7 81.2c-.2-.3-.3-.7-.8-1a35 35 0 0 0-3.3.1l-3 .4c-.8.2-1.8.1-2.7 0-5.6-.4-11.2-.3-16.8-.3-1 0-2 .4-3 0-.1 0-.2-.2-.1-.3.6-.2.4-.7.4-1V60.5c0-1.6.4-1.7 1.9-1.3 1.1.2 1.2.8 1.2 1.7v8.8c0 .6.2 1.1.3 1.7V55.2h.3c.4 1.9.2 3.7.2 5.5 0 3.8 0 7.7.2 11.6l.1 1.2c.6 1.2 1.8 1.2 2.8 1.4 2 .2 4 0 6 0 4.2-.2 8.3-.1 12.3-.3l2.6-.1c.8-.1 1.2-.5 1.2-1.4a6 6 0 0 0-.5-2.4l-.7-1.6c.4 1 1.5 1.4 2 2.4.4.9 0 1.9.3 2.8l-.3.4c-1 .1-1.5 1-2.4 1-.3.1-.6.2-.9.1-1.2-.6-2.4-.1-3.7 0-.8.1-1 .4-1.2 1.3 0 1.3.6 2 1.5 2.6l.5.2c1.2-.4 2.5 0 3.8-.3 1.2-.3 2.2.6 1.8 1.6zm-41.5-2.5c1-.1.7-1 1-1.6v.3c.2.2 0 .5.1.8 0 .1.1 0 0 0 0-.3-.1-.6 0-.8.2-.3.2-.6.3-1 .2-4.3.2-8.7.1-13.1.7 0 .7.6.8 1 .2.6.1 1.2.1 1.8 0 .4 0 .8.5.8 1 .2 1.1.9 1.2 1.6l.2 3.2c-.2-2.3-.2-5-.1-7.8 0-.5-.1-1 .2-1.4V61c0-.4 0-.7.4-.9.3.5 0 1 .1 1.6v21.3c0 .5 0 1-.2 1.5a.7.7 0 0 1-.2.3l-1.4.1c-5.1-.4-10.3-.3-15.5-.4H182c-.4-.2-.5-.6-.6-.9a6 6 0 0 0-.4-1.3c-.5-1-.7-1-1.7-.7-.6.2-1.3.5-1.9-.1 0-.4.4-.6.6-.8.9-.6 1.8-1.2 2.2-2.3 0-.2.3-.3.5-.1l1.4.2c3.2-.3 6.4 0 9.6.2l4.5.1z" fill="#67A9D7"/><path d="m200.8 61.4.2-1.4v-5.4h.1c1.6 0 2 .4 2 2.1V106l.1.5c-.2.8 0 1.5 1 1.6 0 .3-.4.4-.6.4-.8 0-1.4.2-1.8.8-.2.2-.5.3-.8.2-.6-1-.2-2.1-.3-3.2 0-4.6-.3-9.2-.2-13.8.1-1.8.2-3.5.1-5.3a1 1 0 0 1 .1-.3c.5-.4.2-1 .2-1.4l.1-1.2v-20c0-1 0-2-.2-3z" fill="#5389B3"/><path d="m227.1 90.7-.6.2c-.7.4-1.4 1-2.3 1-.1 0-.3 0-.4.2-.7.8-1.7 1-2.5 1.7a.7.7 0 0 0-.4.4c-.4.2-.7.6-1 1l-.3.3c-.2.3-.3.6-.6.8l-.2.3c-.3.3-.6.5-1 .4-.5-.2-.3-.6-.3-1l.1-.3a14 14 0 0 1 10-8.8c.7-.1 1.3.2 1.8-.2 3.7-.3 7 .8 10.2 2.8.6.4 1 1 1.4 1.5 0 .2.2.4 0 .6-.1.2-.3 0-.5-.1a13 13 0 0 0-7.5-2.1c-1.4 0-3 .2-4.3.7l-.4.2-1.2.4z" fill="#7AB9DF"/><path d="M201 54.6c-.4-.5-.8-.6-1.5-.6h-6.2c-.4.1-.7.3-1-.2 2.7-.7 5.4-1.3 8.2-1.4 1.2 0 2.4 0 3.5.3 1.4.3 2.2 1.4 2.2 2.9v17.7c.2 2 0 4 .1 5.9 0 .5 0 1 .3 1.5.4.8-.2 1.5-.3 2.2-.5.6-.6 1.3-.5 2 0 4.1-.1 8.2 0 12.3 0 1-.3 2-.3 3.1v2c-.3 1.2 0 2.4-.3 3.7 0 .1-.2.3-.4 0-.3-.3-.2-.8-.2-1.2 0-3 0-6 .3-9a9 9 0 0 0 0-.8V72.8l-.1-6.8.2-5.1c0-1.5-.2-3-.3-4.4 0-1.6-2.1-2.7-3.7-2v.1z" fill="#5483B0"/><path d="M180.7 78.2c-.2 0-.3 0-.4.3-.4 1.5-1.7 2-2.8 2.7-1.2.6-4 .2-4.8-.7-.5-.6-1-.9-1.6-1.2-.6-.3-.7-.9-.6-1.4.2-.5 1-.2 1.2-.7 0-.2.2.2.3.3.5.5.7 1.2 1.4 1.5 1.7.8 3.7 1 4.3-1.6.2-.6.4-1.2.3-1.8 0-.8.2-1.4.4-2 1.4.5 1.5 1.8 1.7 3 .2.5.2 1.1.6 1.6z" fill="#4F95C0"/><path d="M171 79.3c.8 0 1.3 0 1.7.8.3.7 1.1.8 1.8 1a11.6 11.6 0 0 0 3 .2c.7.4 1.4.1 2.1-.2.6-.2 1-.1 1.2.4.5.8 1 1.6 1 2.6l-.2.2a5 5 0 0 1-2 .3c-1.4 0-2.7 0-4.1.2-.4 0-.5-.2-.6-.5-.6-.3-.8-1-1.1-1.5-.4-1-1-1.7-1.8-2.2-.5-.3-.8-.7-1-1.3z" fill="#619AC8"/><path d="M200.6 62.5v10.7l-.1.2c-.4-.3-.2-.7-.2-1 0-1.5-.2-3-.4-4.4 0-.6-.4-1-1-.8-.6.1-.6-.1-.6-.5v-2c0-.5 0-1-.6-1.4-.2-1.3.3-2.5.7-3.7.1-.6.7-1 1.2-1.2.4-.2.6.2.6.6 0 .8.4 1.6 0 2.4 0 .4 0 .9.4 1.1z" fill="#68AAD8"/><path d="M175 84.3c0 .2.2.3.3.4.7 0 1.1.7 1.5 1.1.2.2 0 .3-.1.4-1 .3-1.8.1-2.7.2-.5 0-1.1 0-1.6.2-.1 0-.2.1-.4 0-2.4-.5-4.8-.2-7.2 0-.5-.3-.1-.8-.3-1.1v-.8c.2.3.2.8.9.6 1-.4 2-.2 3-.4l6.1-.4.4-.2z" fill="#629DCB"/><path d="M178.6 56.1c-3.9 3.5-7.5 7.1-10.7 11.2l-3.4 4c.3-1 .8-1.6 1.2-2.1 3-4 6.5-7.7 10.1-11.1.9-.7 1.6-1.7 2.6-2.1.2-.1.3 0 .2.1z" fill="#5482B0"/><path d="M207.2 80.3V56.7c0-.2 0-.6.3-.6s.3.4.3.6c.2.4 0 .7 0 1v13.9c-.5-.2-.3-.6-.3-1V57v14l.1 8.9c0 .2 0 .4-.2.5h-.2z" fill="#598EBC"/><path d="M144.4 81.8c.6 0 1.2.2 1.8-.2.9 0 1.6.8 2.5 1a.8.8 0 0 1 .4 0l.6.5 2 1.4c0 .3.1.7-.2.9-.9 0-1.6-.5-2.2-1l-4-1.9c-.3-.1-.8-.1-.9-.7z" fill="#F5BC60"/><path d="M212 55.2h-.2c.5-.8-.5-.6-.7-1.2 3.2 0 6.3.2 9.3 1.3 0 .4-.4.2-.5.5-1.4-.3-2.9-.8-4.4-1-1 0-2-.1-3.1.2 0 .1 0 .2-.2.3a.2.2 0 0 1-.2-.1z" fill="#67A9D7"/><path d="M206.2 83c.3-3.2-.1-6.5 0-9.7.3.3.2.7.2 1a230.2 230.2 0 0 1 0 5.2c0 .6.2.9.8.8.6.8.6 1.4 0 2.1-.7-.1-.8.3-.8.9v9.3c-.5 0-.5-.5-.5-.9V84c0-.4.1-.7.3-1z" fill="#598EBC"/><path d="M207.8 71.6v-.4h.2v9.1c.5.1 1 .3 1.2.8.5.7.3 1.1-.6 1.2l-.6.1c-.1.4-.3.9-.2 1.4-.1 0-.2.3-.4.1v-.1c-.2-.4 0-.7 0-1 .4-.9 0-1.8.2-2.7v-7.4c0-.4 0-.8.2-1.1z" fill="#5A91BF"/><path d="M175.7 61.7c-1.1 1.4-2.5 2.5-3.6 4a16.6 16.6 0 0 1-1.7 1.9c.3-1.3 1.3-2.2 2-3.1a7.5 7.5 0 0 1 2.9-3l.4.2z" fill="#5E96C3"/><path d="M155 86.3c1.5-.2 3-.3 4.4-.2.3 0 .6-.1.9.2-.3.3-.7.3-1 .4-.6.2-1.2.2-1.7.6l-.4.4c-.4.1-.7 0-1-.2-.3-.5-1.1-.5-1.1-1.2z" fill="#7CB9DB"/><path d="M157.4 87.2c.4-.6 1.2-.5 1.8-.7l1-.2c1.5-.2 3-.2 4.3-.6.2.2.1.4 0 .6-.3.5-.7.4-1.2.4l-4.3.5c-.6 0-1.1.4-1.6 0z" fill="#629ECB"/><path d="M237 82.4c0-.7.8-.3 1-.8 1.2 0 2.4.6 3.6 1v.2l-4.6-.4z" fill="#629ECC"/><path d="M208 71.2a4 4 0 0 1-.2 0V56.7c.3.3.2.7.2 1v13.5z" fill="#67A9D7"/><path d="m175.4 66.8-4 5.6c.4-1.7 1.4-3 2.5-4.2.4-.5.6-1.4 1.5-1.4z" fill="#629DCB"/><path d="M151.6 85.3c-.1-.3-.4-.7.2-.8l1.1.6c.3.2.9.1 1 .6-.5.4-1 1-1.7.4-.4-.2-.7-.3-.6-.8z" fill="#F2C054"/><path d="M180.7 57.3c1.7-1 3.4-1.7 5.3-2.1-1.6.8-3.3 1.3-4.7 2.5-.4.2-.6 0-.6-.4z" fill="#5889B6"/><path d="m175.7 61.7-.4-.1.1-.4 1.5-1.4c.7-.5 1.4-1.2 2.3-1.5.3.4-.2.5-.4.7-1 1-2.2 1.7-3 2.7z" fill="#598CB9"/><path d="M149.7 83.1a1 1 0 0 1-.7-.3c0-.6.6-.4 1-.6l1.1-.7a15.1 15.1 0 0 1 1.9-.8c.3-.1.6-.3.9 0-.6.7-1.6.9-2.4 1.3-.7.3-1.3.6-1.8 1.1z" fill="#78B7DC"/><path d="m175.5 61.4-.2.2c-1 .8-2 1.8-2.9 2.8-.3-.6.2-1 .6-1.3.6-.8 1.5-1.5 2.3-2.1.2 0 .3.2.2.4z" fill="#64A1CF"/><path d="m178.6 56.1-.2-.1a20 20 0 0 1 4-3c.3 0 .5 0 .5.3-1.5.8-3 1.8-4.3 2.8z" fill="#598CB9"/><path d="M164.5 86.3v-.8c.3.3.2.6.2 1 .4.4.3 1 .3 1.4-.1.9 0 1.6 1 2 .3 0 .5.3.4.6-.1.3-.5.2-.8.2-1.2-.2-1.6-.8-1.5-2.2.3-.7 0-1.5.4-2.2z" fill="#579CC7"/><path d="M178.8 59c.1-.2.4-.4.4-.7.4-.5 1-.8 1.5-1 .1.3.3.4.6.4-.7.6-1.6 1-2.5 1.3z" fill="#5F97C5"/><path d="M153.9 80.7c-1 0-1.8.7-2.7 1-.2 0-.3 0-.2-.3 1-.6 2-1 3-1.3h1c-.2.5-.8.2-1.1.6z" fill="#6694BB"/><path d="M197.4 65.8v-5.2l.1-.8V65l-.1.7zm.1-6.2V59c-.1-.8-.5-1-1.2-1h-2.6c1-.4 2.1-.2 3.2-.2.7 0 1 1.1.6 2z" fill="#67A9D7"/><path d="m153.9 85.7-1-.6c1 0 1.5.7 2.2 1.2.2.5.8.7 1.1 1.1l-.1.2-2.2-1.9z" fill="#9CB7AD"/><path d="M247.6 81.8c-.6.8-.7 1.6-.6 2.5-.6-1.5-.5-2 .6-2.5z" fill="#7BA4C7"/><path d="M197.1 75.3c0-1.5 0-2.9.2-4.3v3.5c0 .2.1.6-.2.8z" fill="#67A9D7"/><path d="m175.5 61.4-.2-.4 1.6-1.2c-.2.7-.9 1.1-1.4 1.6z" fill="#5E96C3"/><path d="M197.3 71v-3.3c.4 1.1.4 2.2 0 3.3z" fill="#67A9D7"/><path d="M192.3 53.8c.3.4.7.2 1 .2-.6.4-1.3.2-2 .2.4-.3.7-.4 1-.4z" fill="#5C92C0"/><path d="M182.9 53.3c-.1-.2-.3-.2-.4-.2l.4-.4.3-.2c.5.3.5.3-.3.8z" fill="#5F97C4"/><path d="M176.4 65.6a3 3 0 0 1-1 1.2c0-.6.5-1 1-1.2zm-4.9 6.8a1.3 1.3 0 0 1-.4.8c0-.4 0-.7.4-.8z" fill="#629DCB"/><path d="M197.4 77.4v1c-.3-.5-.2-.8-.2-1h.2z" fill="#68AAD8"/><path d="M150.2 51.5c.8-.4 1.6-.6 2.5-.6 4.1 0 8.1.6 12.1 1.3h.9l2.2.8c2.9.8 3 3 2 5.3-.4 1-1.3 1.7-2 2.6-2.8 3.3-5.8 6.4-8.5 9.9l-1.5 1.5c-1.2 2-3 3.3-5 4.3a5 5 0 0 1-2.8.2c-1.9-.2-3.8-.3-5.6-1-.2 0 .1.2 0 .3-1 0-2-.4-3-.4-.6 0-1-.4-1.5-.5-1-.6-1-1.5-.7-2.5.2-1 1.1-1.9 2.2-1.9l3.3-.3c1.5 0 2.8-.4 3.9-1.4 1-1 1.3-2 1.3-3.4a8 8 0 0 0-8.3-7.5c-.6-.1-1.2.2-1.6-.5.5-1 1.6-1.5 2.6-2a.2.2 0 0 0 .2 0c1.2.5 2.5 1 3.8 1.2 1.5.2 2.8-.3 3.6-1.6.8-1.2.7-2.5-.1-3.8z" fill="#272A56"/><path d="M140.2 75c.5.1.9.4 1.3.7a7.1 7.1 0 0 1 2.7 4.8 23.3 23.3 0 0 1-9.9-6.6.6.6 0 0 1 .6-.2c1.6.3 3.2 0 4.6 1l.7.4z" fill="#ABADAF"/><path d="M158 72.2c2.1-2.4 4-5 6.3-7.5 1.8-1.9 3.4-4 5-6 1-1 1-2.3.8-3.6 0-.6-.5-1-1-1.3l-2.5-1c-.3 0-.7 0-1-.5.5-.3.9.1 1.3.2.9 0 1.6.5 2.4.8.5.2.9.6 1.2 1.2a4 4 0 0 1-.4 4L169 60l-1.2 1.3-.8 1c-1.1 1-1.9 2.4-3 3.3l-.6.8c-1.9 2-3.4 4.2-5.4 6-.1 0-.1-.1 0-.2z" fill="#242551"/><path d="M158 72.2v.3a12 12 0 0 1-5 4.3c-1 0-2.1.4-3.2.2h-.1c-.4-.3-.9 0-1.3-.2-1.3-.1-2.7-.3-4-.7l-.4-.5 3.9.7c1.3.3 2.7.3 4.1.3.6 0 1-.2 1.5-.5a14 14 0 0 0 4.4-4z" fill="#262955"/><path d="m151 81.4.2.2c-.6.7-1.5.6-2.2 1.2l-.3-.2c.7-.4 1.4-.9 2.3-1.2z" fill="#6DA0C6"/><path d="M167.4 46.3v-.2c1-.7 2 0 3-.2-.8.3-1.6.4-2.4.3a1.2 1.2 0 0 0-.6.1z" fill="#7CBCE1"/><path d="M149.8 77c1 0 2.1-.3 3.2-.2a6 6 0 0 1-3.2.2z" fill="#272A56"/><path d="M167 62.3c.1-.4.4-.7.8-1 0 .6-.4.8-.8 1z" fill="#6CA3C9"/><path d="M148.4 76.8c.4 0 .9-.2 1.2.2-.4 0-.8 0-1.2-.2zm15-10.4c0-.4.2-.6.6-.8 0 .4-.4.5-.6.8z" fill="#272A56"/><path d="M88.1 119.9c0 1.6-.3 3.4-1 5-.5 1.1-1.3 2-2.6 2s-2.4-.4-3-1.6a12.8 12.8 0 0 1-.3-11.7c1-2 3.8-2.2 5.2-.3 1.3 2 1.7 4.2 1.7 6.6z" fill="#FEFEFE"/><path d="M91.3 111.4c0 .2 0 .5.2.8l.4 2.2c.2.6-.1 1.2.2 1.8 0 2 .3 4 .3 5.9v1c.3.5 0 1 .3 1.4-.2.2-.4.1-.4-.1l-.2-2c0-3.4-.3-6.8-1-10.3 0-.2 0-.5.2-.7z" fill="#242958"/><path d="M232.3 112.3c-1.5.7-3 .5-4.4-.2-1.2-.4-1.8-1.3-2.3-2.4-1.4-3.3 0-7.5 3.7-8.5 1.6-.4 3 .2 4.2 1.2a6.3 6.3 0 0 1-.5 9.6c-.2.2-.4.3-.7.3z" fill="#FEFEFE"/><path d="M233.4 102.5c-2.7-1.8-5-1.5-6.9.8a6.2 6.2 0 0 0 .7 8.2l.7.6c-.2.3-.4.1-.6 0-2.1-1.3-3.2-4.7-2.2-7.2 1-2.6 3.1-4 5.6-4 1.1 0 2 .7 3 1.4 0 .2 0 .3-.3.2z" fill="#1C1C4A"/><path d="m233.4 102.5.3-.2a6.2 6.2 0 0 1 0 9.3c-.4.4-.7 1-1.4.7 3.4-2 4-6.8 1.1-9.8z" fill="#252551"/><path d="M92.5 123.1c-.2 0-.2-.3-.2-.5.1-2.1-.3-4.3-.2-6.4.4 2.3.4 4.6.4 7z" fill="#272A56"/><path d="m165 111.8.3-.5c.2.3.1.6 0 .8 0 1 .2 2 0 3 0 .3 0 .7-.5.9.5-1.4.3-2.8.2-4.2z" fill="#2E2E58"/><path d="M91.9 114.4c-.3-.7-.4-1.5-.4-2.2a.2.2 0 0 1 .2 0c0 .7.3 1.5.2 2.2zm.2 1.8c-.4-.6-.1-1.2-.2-1.8.3.6.2 1.2.2 1.8zm.6 8.3c-.4-.4-.2-1-.2-1.4.2.5.1 1 .2 1.4z" fill="#272A56"/><path d="M28.1 106.3c0-1.4.2-2.8.8-4.2.5-.8 1-1.5 2-1.5 1.1 0 1.9.5 2.3 1.4 1.1 2.3 1.2 4.7.9 7.1a8.5 8.5 0 0 1-.8 2.3c-.4.9-1 1.4-2 1.4s-1.7-.6-2.2-1.4c-.7-1.6-1-3.3-1-5z" fill="#FEFEFE"/><path d="M37.4 104c.3.3.2.6.2 1-.3-.3-.2-.7-.2-1z" fill="#3E4A1D"/><path d="M134 76.6c-.7.8-1 1.8-2.1 2.2l-5 2.2c-2.6 1.2-5.4 1.3-8.3 1.6-5 .7-10 .9-15 1.1l-3.6-.2a87.8 87.8 0 0 0-5 0c-1.3 0-2.2-.7-3-1.8-2.3-3-4-6.4-6.2-9.6l-5.2-8.5c-1-1.6-.4-2.8 1.5-3.6 3-1.3 6.2-1.8 9.4-2.5.2 0 .4 0 .6-.2l5.4-.5c.9-.3 1.8 0 2.7-.2 1.4 0 2.7.1 4-.1 1.4.1 2.8 0 4.1.2.8.2 1.6.3 2.3.7 3.1 1.7 6 3.7 9 5.8 1.4 1 2.8 2.3 4.2 3.5 1.9 1.4 3.6 3 5.3 4.6l2.6 2.5 1.2 1.3c.5.5.9 1 1 1.5z" fill="#272A56"/><path d="M166.5 101.7c-.4-1.8-1.1-3.4-2.5-4.7-.3-.3-.5-.8-.7-1.3v-.5c.4.2.4.7.8.8.7 1.3 1.9 2.3 2.3 3.8.2.6.7 1.3 0 2z" fill="#DEB052"/><path d="M165.3 112.1v-.8c0-.4.2-.8.3-1.1.4-.4 0-.9.2-1.2l-.1-1.5c-.3-.3 0-.7-.2-1a44.3 44.3 0 0 1 0-.7c.3-.2.4 0 .5.2.6 2.1.5 4.2-.7 6.1z" fill="#262651"/><path d="M141.7 58c1 0 1.9.1 2.5 1 .2.2.4.4.3.7-.2.3-.5.3-.8.4-.7 0-1.4-.3-2.2-.1-1.2.3-1.5.6-1 1.8l1 2.6c.8 2.2-.3 3.8-2.6 4-1.8.1-3.4-.2-5-.7a5.3 5.3 0 0 0-4.7.6c-.2.1-.5.3-.8.2-.6-.5-1.3-1-1.7-1.5 1.6-.7 3-1.8 4.3-2.8.8-.6 1.8-1 2.4-1.9a2.6 2.6 0 0 0 1.8.8c.7 0 1.3.3 1.8.4-1-.4-2.1-.6-3.2-1.2 1.7-1.5 3.6-2.7 5.4-4l.2-.2c.1-.5 1.9-.4 2.3-.2z" fill="#AFAEB0"/><path d="M131.2 60.9c-1-.4-1.7-1-2.7-1-1 0-1.8.3-2.8.7.8-1.4 1.9-1.9 3.3-1.7.9 0 1.9.9 2.2 2zm-4.4-10.3c1.4-1.6 3-1.7 4.4-.1.1.2.3.2.5.3l.1.6c-.8-.4-1.4-1-2.2-1-1-.3-1.7-.2-2.3.4-.5.4-.4 0-.5-.2z" fill="#A4A3A3"/><path d="m122.8 63.7-1-.8c0-.5 0-1-.3-1.4 0-.2-.4-.5 0-.7.2-.1.4 0 .7.2.5.5.6 1.1.6 1.9.7-.2 1.4-.2 2 .5-.6.3-1.4-.2-2 .3z" fill="#A6A5A4"/><path d="M123.6 57c-.4-.3-.4-.5 0-.7a4 4 0 0 0 1.2-1.3c.5-.8.3-1.2-.7-1.4-.2 0-.5 0-.3-.3.5-.2 1.1-.7 1.7-.3.5.5.2 1.3 0 1.9-.3 1-1 1.6-2 2z" fill="#A5A4A4"/><path d="M133.8 62.3c1.3.1 2.5.8 3.9 1.2-.4.2-.8.2-1 .1l-2.1-.3c-.6 0-1-.3-1.2-1h.4z" fill="#9A999B"/><path d="m126.7 67-2.3-2c1.5.3 2.2.9 2.3 2z" fill="#AFAEB0"/><path d="m141.8 28-1.5-1.6c.6.4 1 .8 1.5 1.6z" fill="#868686"/><path d="M136.5 51.9h-1.2c.4-.3.8-.3 1.2 0zm-1.3 0c-.3.3-.7.2-1 .2.3-.3.6-.2 1-.2z" fill="#BAB9B9"/><path d="M100.2 56.5c-.9.3-1.8.2-2.7.3.6-.5 1.3 0 2-.5.1.4.5-.1.7.3z" fill="#F8BB5E"/><path d="M158 48c.3-.8 1-.2 1.6-.5.2-.1.6 0 .9-.2v.4c-1 1-1.4 1.1-2.5.3z" fill="#A8ADB1"/><path d="M124 35.1c0-.5.1-.9.6-.8.7 0 1 .5 1 1.2 0 .1 0 .3-.3.4-.9.5-1 .9-.5 1.9.1.3.6.7.3 1-.3.5-.8.3-1.3.2-.6-.1-1.3-.2-2 .3-.3.3-.5 0-.6-.3-.3-.7-.2-1.4.3-2 .7-.6 1.2-1.4 2.2-1.6l.2-.3z" fill="#BAB9B9"/><path d="m151.6 85.3.6.8c.1.7.1 1.4-.5 1.9-.4.3-.2.7 0 1 .2 1.6-.2 2.9-1.2 4-1 1-2.4 1.2-3.7 1.7l-.8.2c-.5.2-1 .5-1.2-.4-.1-.5-.7-.7-1.2-.4-2.7 1.6-5.9 1.4-8.8 2-1.7.4-3.1.1-4.6-.6-.4-.2-.8-.4-.8-1 0-.5.3-.8.8-1 1.8-.8 3.7-1.4 5.3-2.4 1.9-1.2 4-2.2 4.7-4.6 0-.3.3-.5.5-.7 1-.8 1.2-1.8 1.2-3 0-.3.2-.6.4-1 .7-.3 1.4-.2 2.1 0 2.5 1 4.7 2.4 7.2 3.5z" fill="#FED77F"/><path d="M128.4 68.5a5.7 5.7 0 0 1 5.7-1c1.5.5 3 .7 4.6.6 2.1 0 3.5-1.4 2.6-3.7l-1.3-3c-.3-.7 0-1.4 1-1.6.7-.1 1.4-.3 2.2 0 .3 0 .9.2 1-.1.3-.4-.3-.6-.5-.9-.5-.6-1.3-.6-2-.9 5-.1 9 4 8.4 9.2-.2 1.7-1.5 2.7-3 3.3-1.8.6-3.7.5-5.5.6-1 .1-1.7.6-2 1.6-.4 1-.3 1.8.6 2.5-.5 0-1 0-1.3-.4-.3-.3-.7-.3-1-.4-1.2 0-2.4-.5-3.6-.4-1-.6-1.8-1.5-2.7-2.3l-3.2-3z" fill="#A7A5A8"/><path d="m131.6 74-6.4-5.9c-.5-.5-1-.8-1.4-1.4 0-.3-.4-.5-.5-1 2.7 1.3 4.5 3.6 6.6 5.3 1.3 1.1 2.5 2.4 3.7 3.6.2.2.5.3.4.6-.2.3-.5.3-.7.2a1 1 0 0 1-.3 0l-1.4-1.5z" fill="#F1BE3B"/><path d="m133.2 75.3.8-.1-4-4.2c.3 0 .6.3.8.6 1.2 1.3 2.7 2.4 3.8 3.7.2.2.6.2.4.6 0 .3-.4 0-.6.2l-.4.1c-.4-.2-.7-.5-.8-1z" fill="#F2BD44"/><path d="m133.2 75.3.8 1v.3l-1.2-1.3c0-.1.2-.1.2 0h.2z" fill="#F6C75F"/><path d="M201.2 109.4c.7-1 1.8-1.2 3-1.3.6-.6 1.4-1.2 1.8-2 0-.2.2-.3.3-.3 1.5-.5 3-.5 4.6-.7l2.3-.2c.2 0 .5 0 .6-.2.5-1 0-1.7-.3-2.5-.3-.7-.8-.7-1.4-.6a77.3 77.3 0 0 1-5.8.7.6.6 0 0 1-.2-.2c-.1-.6-.2-1.1.3-1.6.1-1.2 1.1-1.2 2-1.2 2.4-.2 4.7-.7 7-1l1.8-.2c.5 0 .8.4.8.9v1c0 .6-.1 1.2.7 1.3.7 0 1.2-.3 1-1.1.4 1.1.4 1.1-.2 2.2-.2.3-.4.9-.3 1.3.4 1.5-.3 3-.4 4.4-.6 1.2-1.5 2-3 2.1-3.5.1-7 .7-10.5.8l-7.6.4c-2.4.2-4.8 0-7.1.2-.8 0-1.5.2-2.3.1a2.9 2.9 0 0 0-.2 0l-.9-.3c-1.3-1.1-3-1.5-4.6-1.5-.4 0-.9.1-.9-.5a.8.8 0 0 1 .3-.2c2-.2 4-.1 6 0 3.3.2 6.6 0 9.9.1 1 0 2.2.3 3.3.1z" fill="#69AAD8"/><path d="M146.2 53.4v.2c-.9.7-1.6 1.5-2.7 1.8-.8-1.3 0-2 1.1-2.3.7-.4 1.2-.5 1.6.3z" fill="#B2B0B0"/><path d="M146.2 53.4c-.5-.5-1-.3-1.6-.3-.7 0-.4-.5-.5-.8 0-.3.3-.4.6-.4.8 0 1.5.5 2 1 .2.3.6.6.3.9-.4.4-.5-.3-.8-.4z" fill="#A4A3A4"/><path d="M181.7 109.4c.4.8 1.1.3 1.6.3 1.6 0 3 .6 4.2 1.6l.6.4h-6.6c-2.4 0-4.3-1.4-4.6-3.8-.1-.5-.4-1-.6-1.4a12 12 0 0 1-.9-2.6c-.1-.4-.3-.7-.7-.8l-1.3-2.4a19.1 19.1 0 0 1-.2-.3c.4-.9.6-1 1.2-.3a22.1 22.1 0 0 1 3.8 6.2l.5 1c.4 1.2 1 2.1 2.4 1.9a.6.6 0 0 1 .6.2z" fill="#5584B0"/><path d="M174.7 103c.4 0 .7 0 .8.5l.8 3-.8-1.1-.8-2.3z" fill="#4979A7"/><path d="M181.7 109.4h-1.2c-.8 0-1.3-.3-1.6-1l-1.7-3.8c-.7-1.5-1.8-2.8-2.8-4.2-.5-.5-.8-.6-1.2 0-2-2.6-4.2-4.7-7.5-5.3-.8-.2-1.5-.5-2.3-.2h-.1c-.3-1.3-1.5-2-2.1-3-.2-.3-.6-.6-.4-1 .2-.5.6-.4 1-.4 3.6-.3 6.9.5 9.9 2.7-.5-1-1.5-2-2.6-2.7-1.2-.8-2.4-1.7-3.8-2.1-.3 0-.4-.2-.6-.4v-1.5c1-.5 2-.5 3-.4 1.5.1 3-.5 4.4.4.3-.5.8-.4 1.3-.4h3.5a.3.3 0 0 1 .2 0c.6.2 1 .6 1.5 1 .7.5 1.4.5 2.2.4 1 0 1-.9 1.3-1.5a.8.8 0 0 1 .3-.1l6.5.1c.3 0 .6.2.8.4.4 1 1 1.3 2 1.4h3.8c.7 0 1-.4 1-1 .2-.5.5-.4.9-.4h3l.4.4c0 6.5 0 13 .2 19.5-.5.6-1.3.5-2 .5-3.6 0-7.2.2-10.9.4l-3.7.2c-1.1.1-2.1.6-3.2.8-.2 0-.6.2-.5.5 0 .3.3.2.6.3.2 0 .4.1.4.4z" fill="#69AAD8"/><path d="M163.4 95.2v.5c-.9 1.6-2 2.2-3.1 1.7l-.6-.3c-1-1.3-1.8-2.6-2.1-4.3.1 0 .3 0 .4.2.6.5 1.2.9 2 .1.4-.5 1.1-.2 1.5.5.3.5.5 1 .9 1.4l.1.1c0-1.3-4.4-6.4-5.8-6.8l.5 2.3c.1.4.3.8 0 1-.7-1.2-.8-2.6-1.1-4a9.7 9.7 0 0 1 .1-.2l1 .2c1.4.7 2.4 2 3.3 3.2l1.9 2.3c.5.5.8 1 1 1.8v.3z" fill="#E5E2DF"/><path d="M150 40c-.6.1-1-.4-1.5-.6-.2-.2-.3-.4-.2-.6.2-.3.4-.2.6 0 .4 0 .7.3 1.1 0 .4 0 .8 0 1.2.2.2.1.1.3 0 .4-.2.5-.6.6-1.1.5z" fill="#A6A5A5"/><path d="M145.7 39.5c.3 0 .6 0 .9.3a.8.8 0 0 1 .2.2v.3c-.9-.5-.7 1-1 .6-.6-.5-.7-.3-1 0-.1.1-.3.2-.4.1-.2 0-.2-.3-.2-.4.2-.8.7-1 1.5-1z" fill="#A7A6A6"/><path d="M143.5 55.4c.9-.6 1.6-1.4 2.7-1.8.3.7.7 1.4-.1 2-1 .7-1.8.6-2.6-.2z" fill="#A8A6A8"/><path d="M170 58.5c.7-1.3.9-2.7.5-4 .7 1 .5 3.2-.4 4z" fill="#7CBDE2"/><path d="m170.5 54.4-1.2-1.1c.7 0 1 .5 1.2 1.1z" fill="#7CBCE1"/><path d="m166.9 52.5-1.2-.2-.2-.4a4.2 4.2 0 0 1 1.4.6z" fill="#272A56"/><path d="M159.8 46c-.5-.3-1-.4-1.4 0 .3-.8.8-.9 1.4 0z" fill="#B1B0B0"/><path d="M157.2 91.7a11.6 11.6 0 0 0-.7-2.9c-.1-.3-.2-.7 0-.9.3-.2.6.1.8.3 1.5 1.1 2.6 2.6 3.7 4 .7 1 1.7 1.5 1.9 2.7 0 .3.2.6 0 .7-.4.2-.6-.2-.7-.4l-.8-1.5c-.4-.5-.8-.9-1.5-.4-.3.2-.3.8-.8.6a3 3 0 0 1-1.3-.8l-.2-.3c-.3-.3-.4-.7-.4-1.1z" fill="#F1F1F1"/><path d="M150.6 103.6c-2.7 1.1-5.6 1.6-8.4 2.1-2.3.5-4.6 1-7 1.1-2.8.2-5.7.4-8.5-.3l-.7-.3a25 25 0 0 1 3.8.2c2.7.3 5.3 0 8-.5 3.9-.5 7.8-1.4 11.7-2.3l.5-.2c.3 0 .5-.2.6.2z" fill="#BF9D5C"/><path d="M150.6 103.6c-.1-.2-.4-.1-.6-.2l3.3-1.3c2.3-.9 4.2-2.3 6-3.8.2-.1.3-.3.5-.2-.6 1.5-5.8 4.6-9.2 5.5z" fill="#C5A25D"/><path d="m116 107.1.2-.1c1.6-.1 3.1 0 4.7.3a5 5 0 0 1-3 0c-.6-.3-1.2 0-1.9-.2z" fill="#E3E6F0"/><path d="M76.2 64.7s0 .3-.1.2c-.7-.7-1.6-1.2-2-2.2 1 .4 1.5 1.2 2.1 2z" fill="#DDB242"/><path d="M116 107.1c.7 0 1.3-.2 2 .2-.7 0-1.4.2-2-.2z" fill="#E5E2E0"/><path d="M165.5 106.5c.2.3.2.6.2 1l-.3-.2v-.8z" fill="#D0D0D9"/><path d="M46.7 69.4c0 1.3-.1 2.5-.4 3.7V71l.4-1.6z" fill="#F1BF37"/><path d="M115 103.4c-.4.9-1.2 1-2 1l2-1z" fill="#E8E5E0"/><path d="M136.7 113.5c3.7-.7 7.5-1.3 11.2-2.1h.6c.2-.1.5-.3.6.2-2.2.8-4.4 1-6.7 1.5-1.6.3-3.2.6-4.8.6-.3 0-.7 0-.9-.2z" fill="#D09F23"/><path d="M149 111.6c0-.3-.3-.2-.5-.2 1.3-.5 2.7-.9 4-1.1.2.4-.2.3-.3.5-.8-.1-1.4.4-2 .6l-1.1.2z" fill="#D5A42B"/><path d="M47.3 85.9c-.4-.3-.2-.7-.2-1v-.6c.4.5 0 1 .2 1.6z" fill="#7A7B10"/><path d="M46 74.7c0 .9.2 1.8-.4 2.7.2-1 .2-1.9.5-2.7zM46.3 73.3c0 .4.2 1-.2 1.4 0-.5 0-1 .2-1.4z" fill="#F1BF37"/><path d="M165.8 109c0 .4.3.9-.2 1.2l.2-1.2z" fill="#2E2E58"/><path d="M196.2 78.7c-1.3.5-2.7.3-4 .2-3-.2-6.2-.4-9.3-.4l-.8-.1c1-.6 2-.5 3-.4l7.7.4c1.1 0 2.3-.1 3.4.3z" fill="#252751"/><path d="M212 55.2h.2c.4 1.4 0 3 .2 4.4 0 .2.1 0 0 0 0-.6-.4-1.3.2-2v9.6l.2 5.3c0 .4.1.7-.2 1-.3-.2-.3-.6-.3-1a205.7 205.7 0 0 1-.2-5.6V55.2z" fill="#262853"/><path d="M212.6 57.7c-.4.7 0 1.4-.4 2.1v-4.6l.2-.2h2v.2h-1.3c-.5 0-.8.3-.6.8.2.6 0 1.1.1 1.7z" fill="#1F1A45"/><path d="M208 82.4c.4-.4 1.3 0 1.3-.6 0-.7-.6-1.2-1.3-1.5 4.2-.3 8.4-.2 12.6-.2l6.3.2 3.8.2c.1.9.7 1 1.6 1 .7 0 1.6-.2 2.3.4l-.4.1-7.7-.1c-2-.2-4.1-.3-6.2 0a3.7 3.7 0 0 1-.8.1c-3-.1-5.8.2-8.7.2l-2.8.2z" fill="#609CCA"/><path d="M206.2 83v8.6c0 .4 0 .8.2 1 .4.6.2 1.3.1 1.9v1.4c-.3 1.2-.1 2.4-.2 3.6 0 .9-.1 1-1 .9.4-5.5 0-11 .1-16.4 0-.7.4-.8.8-1z" fill="#5483B1"/><path d="M234.6 81.9h-3c-1 0-1.2-.3-.9-1.4 2.1-.5 4.2-.9 6.2-.2.3 1 .1 1.3-.9 1.4l-1.4.2z" fill="#272B56"/><path d="M205.3 100.4c.8-.1 1-.5 1-1.3 0-1-.3-2.1.1-3.2v4.7a4.6 4.6 0 0 0-.2 1.5c-.2.4-.5.5-1 .2v-2z" fill="#5483B0"/><path d="M207.8 90.7v5.5h-.4v-5.5c.1-.1.3-.1.4 0z" fill="#5687B4"/><path d="M217.6 95.7c.1.4-.2.9.2 1 .5.3.8-.2 1.2-.4v.3c0 .3.4.7 0 1-.5.2-1 0-1.3-.3a.8.8 0 0 1-.4-1l.3-.6zm3.7-2c.7-.8 1.6-1.2 2.5-1.6 0 .8-.5 1.3-1.3 1.3-.5 0-.7.5-1.2.4z" fill="#69AAD8"/><path d="M207.8 90.7h-.4v-4c.5-.1.1.4.4.5v3.5z" fill="#598DBB"/><path d="M224.2 91.9c.8-.4 1.4-1 2.3-1l-.3.4c-.9 1.2-1 1.2-2 .6z" fill="#69AAD8"/><path d="m207.8 87.2-.4-.5v-2.8l.4-.1v3.4z" fill="#5C93C0"/><path d="M207.8 80.3V82c0 .3 0 .6-.4.8a.4.4 0 0 1-.2-.2v-.2c.4-.7.2-1.4 0-2.1l.2-.2c.2-.1.3 0 .4.2z" fill="#4A719E"/><path d="M219 96.3c0-.4.3-.6.6-.8 0 .3.4.5.4.9-.4.2-.7 0-1-.1zm1-1.2c0-.5.4-.8 1-1a2.9 2.9 0 0 1-1 1zm7.1-4.4c.3-.4.7-.4 1.2-.4-.3.4-.8.4-1.2.4z" fill="#69AAD8"/><path d="m207.2 82.6.2.2v1c-.3-.4-.1-.8-.2-1.2z" fill="#5C93C0"/><path d="M235.1 75.2h-.7c.2-.2.4-.2.7 0z" fill="#69AAD8"/><path d="M200.4 86.7c-1 .1-2-.1-3.2 0-.2 0-.4-.2-.4.2-1.5-1-3.2-.7-4.9-1-.8 0-1.6.1-2.3.7-.2-.2-.4-.4-.8-.3-2.2 0-4.5 0-6.7-.2-.4-.6-.5-1.3-.4-2h9.2c3.2 0 6.5.3 9.7.4-.5.7-.4 1.4-.2 2.2z" fill="#609CCB"/><path d="M200.8 61.4c.3 1 .4 2 .4 3v20.1l-.3.1V61.3z" fill="#5484B1"/><path d="M200.4 86.7c-.8-1-.8-1.6.2-2.2h.2a3.2 3.2 0 0 1 0 2.3 15.2 15.2 0 0 1-.4-.1z" fill="#5A91BE"/><path d="M201 54.6c0-.2-.2-.5.2-.6 2-.3 4 1 4 3 0 2.1.2 4.2 0 6.3a72 72 0 0 0 0 7.3c.2 8 0 16 0 23.9 0 3.9-.3 7.8-.3 11.6-.6.4-1.3.6-2 .2l-.1-1.2V57c0-1.9 0-1.9-1.8-2.5z" fill="#272A56"/><path d="M181.7 109.4c-.3-.3-.7-.1-1-.2-.3 0-.5 0-.6-.3-.2-.4.1-.5.3-.6.2-.1.3-.3.5-.3 1.4-.3 2.6-.9 4-1 3.2 0 6.2-.3 9.3-.4h3.9l3-.3c0 1-.3 2.1.1 3.1-.2.5-.6.5-1 .4-2.4-.4-4.7-.1-7.1-.2l-11.4-.2z" fill="#7BBADF"/><path d="M202.1 102.7c-.4-14.9-.4-29.7 0-44.6v44.6z" fill="#558EB8"/><path d="m203 106.3 1.9-.2.2-.1c.4-.2.8-.5 1 .2-.3 1-1 1.6-2 1.9h-1.5c.4-.6.3-1.2.4-1.8z" fill="#5483B0"/><path d="M200.8 86.8v-2.3h.4v2c0 .4 0 .5-.4.3z" fill="#4C77A4"/><path d="M206 106.2c-.2-.4-.6-.2-1-.2.2-1.3-.1-2.5.3-3.7.3 0 .6 0 1-.2v.2c.4 1.2.4 2.4 0 3.6l-.2.3z" fill="#618EB5"/><path d="M181.7 84.1c.3.7.4 1.3.4 2-.2.2-.5.2-.8.3-1.4 0-2.8.2-4.2-.3h-.2l-1.6-1.4c.6-.3 1.3-.4 2-.4 1.4 0 3 0 4.4-.2z" fill="#5A8FBD"/><path d="m207.8 80.3-.4-.2V56.9h.2v13.7c0 .3-.1.7.2 1v8.7z" fill="#527FAC"/><path d="M163.3 95c-1.6-2.6-3.5-5-5.7-7l-.4-.4.2-.4 1.5-.2c.7-.2 1.4 0 2 .1l2.7.4c.7 0 1 .4.7 1 0 1.6.5 2 2.3 1.9-1.2-.5-2.3-1-1.9-2.4 3 .8 5.3 2.6 7.3 4.9.2.2.3.3.1.6-.2.2-.4 0-.5-.1-3-2.3-6.4-3-10.1-2.7-.2 0-.5 0-.6.2-.1.3.1.4.2.6l1.5 1.6c.4.6 1 1 .7 1.8z" fill="#7BBADF"/><path d="M164.3 88.6c0-.4 0-.8-.5-.8l-4.9-.8 4.4-.5c.4 0 .8 0 1.2-.2 0 .7.2 1.5-.2 2.3z" fill="#69AAD8"/><path d="M133 75.2h-.2c-.4-.3-.9-.7-1.2-1.3.6.3 1 .9 1.4 1.3z" fill="#F5C04E"/><path d="M141.7 68c.3-.9.9-.9 1.4-.8.6 0 1 .2 1.4.6v.4h-.3c-.8-.4-1.5-.6-2.5-.2z" fill="#9E9C9D"/><path d="M143.8 64.2c.6-1.3 1.3-1.4 2-.4.1.2.3.4 0 .6-.1.1-.3 0-.5-.1-.5-.6-1-.4-1.5-.1z" fill="#A1A0A1"/><path d="M206.2 106v-3.7l5-.8.7-.1c1.2-.4 1.5-.2 2 1l.4 1.2c.2 1-.2 1.5-1.2 1.6-2.3.2-4.6.3-6.9.8z" fill="#7ABADF"/><path d="M189.6 86.7c.2-.8.7-1 1.4-1 1.4 0 2.8 0 4.2.2.7 0 1.1.5 1.6 1 .1.8-.2 1.1-1 1.1-1.5.1-3 .2-4.5 0-.8 0-1.5-.4-1.7-1.3z" fill="#272A55"/><path d="M177 86h5c0 1.6-1.4 2.4-2.9 1.6-.8-.3-1.5-.8-2-1.5z" fill="#609CCB"/></svg>