<svg xmlns="http://www.w3.org/2000/svg" width="171" height="117" fill="none"><path fill="currentColor" d="M95.919 116.158c39.238 0 71.046-4.876 71.046-10.89 0-6.015-31.808-10.89-71.046-10.89-39.238 0-71.047 4.875-71.047 10.89 0 6.014 31.809 10.89 71.047 10.89Z"/><path fill="#99C6EA" d="m153.261 101.79-8.682 6.563a5.917 5.917 0 0 1-2.244 1.023c-.591.12-1.181.181-1.772.12L81.679 104.5c-2.008-.181-3.484-2.047-3.248-4.094l3.839-31.547s.65-1.084 1.654-2.71c1.83-2.95 4.311-7.705 6.2-10.776 1.064-1.685 1.773-2.83 1.89-2.95a7.32 7.32 0 0 1 5.553-2.287l41.401 2.167c3.721.18 6.91 2.589 8.269 5.96.177.422.354.903.472 1.385.177.722.355 1.505.532 2.287.413 1.807 1.358 3.793 1.831 5.72.827 3.552 1.594 7.224 2.244 10.234 1.358 6.743 2.422 15.112 2.894 19.386.118 1.806-.591 3.492-1.949 4.515Z"/><path fill="#8AAAC5" d="M122.254 93.543c-7.619 6.26-18.604 5.237-24.57-2.288-1.004-1.264-1.83-2.65-2.362-4.094.472.843.945 1.625 1.595 2.408 6.024 7.646 17.186 8.67 24.923 2.348 5.198-4.274 7.56-10.837 6.674-16.977 1.654 6.562-.531 13.967-6.26 18.603Z"/><path fill="#D3E7F4" d="M121.78 91.857c-5.847 4.816-13.702 5.358-19.785 2.047-1.949-1.084-3.662-2.529-5.138-4.335a21.123 21.123 0 0 1-1.595-2.408c-2.894-7.044-.827-15.653 5.493-20.83 6.024-4.937 14.174-5.359 20.258-1.566 1.594 1.023 3.071 2.288 4.311 3.853 1.477 1.927 2.54 4.034 3.13 6.261a18.472 18.472 0 0 1-6.674 16.978Z"/><path fill="#EBF9FF" d="M121.072 64.765c.059 2.047-1.063 4.455-4.312 7.225-9.922 8.428-14.115 7.525-14.588 19.626-.059.903-.059 1.625-.177 2.288-1.949-1.084-3.662-2.529-5.138-4.335a21.124 21.124 0 0 1-1.595-2.408c-2.894-7.044-.827-15.653 5.493-20.83 6.083-4.937 14.233-5.359 20.317-1.566Z"/><path fill="#8DBCE2" d="m153.261 101.79-8.682 6.563a5.917 5.917 0 0 1-2.244 1.023c-.414-6.683-.65-29.32-.355-39.253.296-11.318 2.067-17.64 5.316-11.86.177.422.354.903.472 1.385 1.3 5.418 3.485 12.883 4.548 18.302 1.358 6.743 2.421 15.11 2.894 19.385.118 1.746-.591 3.432-1.949 4.455Z"/><path fill="#80B2DA" d="M148.241 62.056c-1.831.542-4.075-.361-5.256-1.746-2.245-2.589-5.02-2.468-10.986-3.311-5.965-.903-28.408-1.746-34.786-2.047-2.54-.12-5.493-.662-5.139-2.468a7.32 7.32 0 0 1 5.552-2.288l41.402 2.167c3.721.18 6.91 2.589 8.268 5.96.177.422.355.904.473 1.385.118.723.295 1.505.472 2.348ZM153.261 101.79l-8.682 6.563a5.917 5.917 0 0 1-2.244 1.023c-.591.12-1.181.181-1.772.12L81.679 104.5c-2.008-.181-3.484-1.987-3.248-4.034l3.839-31.607 9.095 30.204s39.866 3.01 45.536 3.01c4.134 0 4.607-13.441 4.961-15.548.355-2.047 3.308 9.347 4.016 12.056.709 2.709 1.713 1.084 3.78-1.204 2.008-2.287 1.182-8.892.177-21.053-.354-4.696-.177-7.224.237-8.609.827 3.552 1.594 7.224 2.244 10.235 1.358 6.742 2.422 15.11 2.894 19.385.118 1.746-.591 3.432-1.949 4.455Z"/><path fill="#8AAAC5" d="M115.344 76.746c-1.654-1.806-4.489-1.987-6.497-.361-1.772 1.444-2.303 3.852-1.477 5.779-.059-.06-.177-.18-.236-.301-1.654-2.047-1.24-5.177.827-6.863 2.126-1.746 5.138-1.445 6.733.602.295.421.472.782.65 1.144Z"/><path fill="#9ABCD7" d="M113.867 82.525c-2.008 1.626-4.843 1.445-6.497-.36a4.969 4.969 0 0 1 1.477-5.78c2.008-1.626 4.843-1.445 6.496.36.827 1.927.296 4.335-1.476 5.78ZM101.575 84.73c1.153-1.08 1.264-2.868.249-3.994-1.016-1.127-2.773-1.164-3.926-.084-1.153 1.08-1.264 2.868-.249 3.995 1.015 1.126 2.773 1.163 3.926.083Z"/><path fill="#8AAAC5" d="M102.35 81.803c-.059-.06-.118-.18-.177-.241-1.004-1.144-2.776-1.144-3.898-.12-.827.782-1.122 1.926-.827 2.95-.827-1.144-.65-2.77.413-3.733 1.123-1.084 2.894-1.024 3.898.12.296.301.473.663.591 1.024Z"/><path fill="#9ABCD7" d="M107.759 91.254c.915-1.296.669-3.07-.549-3.964-1.218-.893-2.946-.567-3.861.728-.915 1.296-.669 3.07.549 3.964 1.218.893 2.947.567 3.861-.728Z"/><path fill="#8AAAC5" d="M107.961 88.184c-.059-.06-.118-.12-.236-.18-1.241-.903-2.953-.602-3.839.722-.65.963-.709 2.168-.178 3.07-1.004-.963-1.181-2.528-.354-3.732.886-1.264 2.658-1.625 3.839-.722.295.18.591.481.768.843Z"/><path fill="#9ABCD7" d="M116.676 91.885c.9-1.306.634-3.077-.593-3.957-1.228-.879-2.953-.533-3.853.773-.9 1.306-.634 3.077.593 3.956 1.228.88 2.953.534 3.853-.772Z"/><path fill="#8AAAC5" d="M116.82 88.847a.81.81 0 0 0-.237-.181c-1.24-.903-2.953-.542-3.838.722-.65.964-.709 2.168-.178 3.07-1.004-.902-1.24-2.528-.354-3.732.886-1.264 2.599-1.625 3.839-.722.354.18.591.481.768.843Z"/><path fill="#9ABCD7" d="M123.493 85.83c.856-1.337.53-3.098-.727-3.933-1.256-.836-2.969-.43-3.824.907s-.53 3.098.727 3.933c1.257.836 2.969.43 3.824-.907Z"/><path fill="#8AAAC5" d="M123.554 82.826c-.059-.06-.178-.12-.237-.18-1.24-.843-2.953-.422-3.78.903-.649.963-.59 2.167-.059 3.07-1.063-.903-1.299-2.528-.531-3.733.827-1.324 2.54-1.745 3.839-.902.295.18.59.481.768.842Z"/><path fill="#9ABCD7" d="M123.737 77.33c1.159-1.074 1.28-2.862.27-3.994-1.009-1.132-2.766-1.178-3.925-.105-1.158 1.074-1.279 2.861-.27 3.993 1.01 1.132 2.767 1.179 3.925.105Z"/><path fill="#8AAAC5" d="M124.557 74.398c-.059-.06-.118-.18-.177-.241-1.004-1.144-2.776-1.204-3.898-.12-.827.782-1.122 1.926-.827 2.95-.827-1.144-.65-2.77.413-3.733 1.123-1.084 2.894-1.024 3.898.12.237.301.473.602.591 1.024Z"/><path fill="#9ABCD7" d="M117.781 70.521c1.209-1.014 1.415-2.794.462-3.975-.954-1.18-2.707-1.315-3.916-.3-1.209 1.014-1.415 2.794-.461 3.975.953 1.18 2.706 1.315 3.915.3Z"/><path fill="#8AAAC5" d="M118.77 67.595c-.059-.06-.119-.18-.178-.241-.945-1.204-2.716-1.325-3.898-.301-.886.722-1.24 1.866-.945 2.89-.767-1.144-.531-2.77.591-3.733 1.181-1.023 2.953-.843 3.898.301.236.361.413.723.532 1.084Z"/><path fill="#9ABCD7" d="M108.427 70.165c1.38-.754 1.925-2.458 1.217-3.806-.709-1.348-2.402-1.83-3.782-1.077-1.38.753-1.925 2.457-1.217 3.806.709 1.348 2.402 1.83 3.782 1.077Z"/><path fill="#8AAAC5" d="M109.91 67.474c-.059-.12-.059-.18-.118-.24-.709-1.325-2.363-1.807-3.78-1.084a2.853 2.853 0 0 0-1.477 2.649c-.531-1.325.06-2.83 1.3-3.552 1.358-.723 3.071-.241 3.78 1.084.177.36.295.782.295 1.143Z"/><path fill="#9ABCD7" d="M101.747 76.01c1.355-.8 1.845-2.52 1.094-3.844-.751-1.325-2.459-1.75-3.814-.951-1.356.799-1.846 2.52-1.095 3.844.751 1.324 2.459 1.75 3.815.95Z"/><path fill="#8AAAC5" d="M103.177 73.314c-.059-.12-.059-.18-.118-.24-.768-1.325-2.421-1.747-3.78-.964a2.951 2.951 0 0 0-1.417 2.71c-.532-1.265-.06-2.83 1.18-3.553 1.359-.783 3.072-.361 3.781.963.177.362.295.723.354 1.084Z"/><path fill="#B5D6EE" d="M95.322 59.106c-3.898 2.83-6.615 2.649-9.922 4.636 1.83-2.95 2.894-5.298 4.784-8.369.886 2.529 8.327 1.445 5.138 3.733Z"/><path fill="#99C6EA" d="M168.145 55.373c-3.367.422-12.403 1.204-21.617-1.384 0 0-.059-.482-.059-1.325-.059-1.385.355-3.07.709-4.756 0 0 .532-2.107-.236-3.672-.355-.663-1.004-1.265-2.186-1.566-3.898-.903-25.691-1.866-25.691-1.866-18.959-1.084-22.857-1.806-23.624-.24-.532 1.083-.355 2.106-.178 2.588.118.301.178.361.178.361.177.301.177.903.059 1.626-.237 1.445-.945 3.913-.945 3.913s-3.485.843-11.694.301c-4.548-.301-6.26-.843-7.265-1.264-.472-.241-.827-.723-.827-1.265 0-1.204.06-2.528.296-3.552.059-.421.177-.782.295-1.083 1.004-9.272 6.556-14.93 8.682-16.918.59-.541 1.3-.963 2.067-1.143 9.509-2.228 33.428-1.626 33.428-1.626s13.466.723 26.105 1.806c5.552.482 10.868 1.024 14.943 1.626 1.122.18 2.126.782 2.894 1.625.531.602 1.122 1.385 1.772 2.408.059.12.177.241.236.422 2.362 3.672 5.02 9.271 4.784 17.399 0 .24 0 .481.059.722.118 2.288.118 3.251-.355 5.178-.295.903-1.004 1.565-1.83 1.685Z"/><path fill="#80B2DA" d="M95.499 45.139c-.237 1.445-.945 3.913-.945 3.913s-3.485.843-11.694.3c-4.548-.3-6.26-.842-7.265-1.263-.177-.602-.118-.843 3.249-.482 9.745 1.023 11.162-.542 11.93-3.432.354-1.505 3.071-.782 4.488-.842l.178.18c.177.361.177.963.059 1.626Z"/><path fill="#80B2DA" d="M146.941 44.115v.18c-.354-.661-1.004-1.263-2.185-1.564-3.898-.904-25.691-1.867-25.691-1.867-18.959-1.083-22.857-1.806-23.625-.24-.767 1.565 0 2.89 0 2.89.178.3.178.902.06 1.625l-3.662-1.626s2.126-4.334-.414-7.224c-2.185-2.468-1.122-3.01 1.89-1.626 3.012 1.385 8.091 1.867 33.842 3.312 17.128.963 18.722 0 19.785 6.14ZM170.448 53.748c-.118.903-.768 1.565-1.654 1.746-2.244.421-6.615.843-12.344.421-5.315-.421-9.922-1.204-10.158-1.926-.236-.903-.236-1.867-.177-2.77 0-.24.059-.481.059-.782v-.06c.059-.904.236-1.867.354-2.349 0-.06 0-.662.827-.481 1.831.3 6.378 1.324 13.289.963a55.108 55.108 0 0 0 9.508-1.264s.237-.843.414 2.83c.118 1.685.059 2.89-.118 3.672Z"/><path fill="#99C6EA" d="M160.407 53.387c-4.607.481-7.205.3-10.513-.783-1.358-.422-3.012-1.325-3.602-1.987v-.24c.059-.904.236-1.867.354-2.349 0-.06 0-.662.827-.481 1.594.3 6.496-.422 7.678.903.472.602 1.24.903 1.949.963 2.657.18 6.496.301 6.792 1.144.531 1.866.413 2.408-3.485 2.83Z"/><path fill="#80B2DA" d="M170.27 48.57c-.295 0-.531.06-.59.181-1.536-.602-4.666-.361-4.666-.361 2.244-3.793 2.894-7.225.413-13.185-1.122-2.709-1.299-5.599-.177-5.177.059.12.177.24.236.421 2.363 3.672 5.02 9.271 4.784 17.399-.059.24 0 .482 0 .722Z"/><path fill="#B5D6EE" d="M95.676 25.994c-4.902.12-18.073 9.693-16.124 16.616-2.716-.18-3.366 2.589-4.31 1.686-.178-.18-.296-.482-.178-1.024.059-.421.177-.782.295-1.083 1.004-9.272 6.556-14.93 8.682-16.918.59-.541 1.3-.963 2.067-1.143 9.51-2.228 33.429-1.626 33.429-1.626 8.8 1.024 11.28 2.589-23.86 3.492Z"/><path fill="#F4F7FF" d="M69.416.752 5.495 8.402a5 5 0 0 0-4.37 5.559l11.43 95.519a3.999 3.999 0 0 0 4.448 3.496l65.907-7.887a4 4 0 0 0 3.497-4.447L74.975 5.122a5 5 0 0 0-5.559-4.37Z"/><path fill="#3A4C82" d="m18.032 82.811-2.242.269a.165.165 0 0 0-.141.18l.268 2.242c.01.087.094.153.18.142l2.241-.268a.165.165 0 0 0 .142-.18l-.268-2.243a.157.157 0 0 0-.18-.142ZM18.686 88.276l-2.254.27a.165.165 0 0 0-.141.18l.268 2.243c.01.087.093.152.18.142l2.254-.27a.165.165 0 0 0 .141-.18l-.268-2.243c-.023-.085-.094-.152-.18-.142Z"/><path fill="#334B87" d="m12.623 31.847-3.108.372.372 3.11 3.108-.373-.372-3.11ZM27.442 25.184 8.95 27.396l.208 1.735 18.49-2.212-.207-1.735ZM36.122 35.055l-25.884 3.098.163 1.363 25.884-3.098-.163-1.363ZM25.477 40.15l-14.788 1.77.163 1.364 14.788-1.77-.163-1.363ZM34.474 65.584l-3.876.464.163 1.362 3.876-.463-.163-1.363ZM24.924 66.714l-11.109 1.33.163 1.363 11.11-1.33-.164-1.363ZM25.967 82.566l-6.118.732.141 1.177 6.118-.732-.14-1.177ZM26.623 88.043l-6.118.732.14 1.177 6.119-.732-.141-1.177Z"/><path fill="#3A4C82" d="m18.032 82.811-2.242.269a.165.165 0 0 0-.141.18l.268 2.242c.01.087.094.153.18.142l2.241-.268a.165.165 0 0 0 .142-.18l-.268-2.243a.157.157 0 0 0-.18-.142ZM18.686 88.276l-2.254.27a.165.165 0 0 0-.141.18l.268 2.243c.01.087.093.152.18.142l2.254-.27a.165.165 0 0 0 .141-.18l-.268-2.243c-.023-.085-.094-.152-.18-.142Z"/><path fill="#334B87" d="m13.402 31.326-3.937.471.471 3.94 3.938-.471-.472-3.94ZM28.123 25.102 8.95 27.396l.313 2.615 19.172-2.294-.313-2.615ZM36.122 35.055l-25.884 3.098.163 1.363 25.884-3.098-.163-1.363ZM71.214 25.966l-31.11 3.723.162 1.363 31.111-3.723-.163-1.363ZM64.871 39.835l-23.221 2.78.163 1.363 23.221-2.78-.163-1.363ZM65.326 43.64l-23.221 2.779.163 1.363 23.222-2.78-.163-1.362ZM54.81 61.264l-7.84.938.164 1.364 7.84-.939-.163-1.363ZM62.563 60.336l-6.366.762.164 1.363 6.366-.761-.164-1.364ZM71.878 59.222l-6.366.762.163 1.363 6.366-.762-.163-1.363ZM55.337 65.664l-7.84.938.164 1.363 7.84-.938-.164-1.363ZM63.09 64.736l-6.155.736.163 1.364 6.155-.737-.163-1.363ZM55.861 70.038l-7.84.938.164 1.364 7.84-.939-.164-1.363ZM71.64 68.15l-11.11 1.33.163 1.362 11.11-1.33-.164-1.362ZM72.206 63.645l-6.155.737.163 1.363 6.155-.737-.163-1.363ZM25.477 40.15l-14.788 1.77.163 1.364 14.788-1.77-.163-1.363ZM38.117 51.195l-26.008 3.113-1-8.353 26.008-3.112 1 8.352Zm-25.9 2.974 25.761-3.083-.97-8.105-25.76 3.083.97 8.105ZM55.946 88.594l-17.587 2.105-1.382-11.55 17.587-2.105 1.382 11.55ZM38.469 90.56l17.338-2.075-1.352-11.302-17.339 2.075 1.353 11.302ZM78.549 85.889l-17.587 2.105-1.382-11.55 17.586-2.105 1.383 11.55Zm-17.49 1.967 17.338-2.075-1.352-11.302-17.339 2.075 1.353 11.302ZM79.344 93.373l-40.09 4.798-.615-5.143 40.09-4.798.615 5.143Zm-39.98 4.66 39.841-4.769-.585-4.895-39.842 4.768.585 4.895ZM80.186 100.412l-61.677 7.381-.203-1.698 61.676-7.38.204 1.697Zm-61.568 7.242 61.429-7.351-.174-1.45-61.428 7.352.173 1.449ZM34.474 65.584l-3.876.464.163 1.362 3.876-.463-.163-1.363ZM24.924 66.714l-11.109 1.33.163 1.363 11.11-1.33-.164-1.363ZM25.967 82.566l-6.118.732.141 1.177 6.118-.732-.14-1.177ZM26.623 88.043l-6.118.732.14 1.177 6.119-.732-.141-1.177ZM59.54 35.383l-18.49 2.213.313 2.614 18.49-2.212-.313-2.615ZM71.402.514 3.51 8.64a3 3 0 0 0-2.622 3.335l1.436 12.004 73.851-8.839-1.437-12.003A3 3 0 0 0 71.403.514Z"/><path fill="#fff" d="M32.665 9.839 7.214 12.885l.258 2.156 25.45-3.046-.257-2.156ZM34.69 13.23 7.643 16.465l.258 2.157 27.049-3.238-.258-2.156Z"/><path fill="#334B87" d="m31.934 56.95-19.172 2.295.313 2.615 19.172-2.295-.313-2.614ZM32.488 74.91l-17.6 2.106.314 2.614L32.8 77.524l-.313-2.615ZM57.883 21.54l-18.49 2.213.313 2.615 18.49-2.213-.313-2.615ZM71.937 52.163l-28.733 3.439.313 2.615 28.733-3.44-.313-2.614Z"/></svg>