<svg width="64" height="64" viewBox="0 0 64 64" fill="none" xmlns="http://www.w3.org/2000/svg">
<circle opacity="0.2" cx="32" cy="32" r="32" fill="#61BBD6"/>
<path d="M26.8724 31.3838H26.8874C28.8122 31.3838 30.6167 30.6346 31.9701 29.2861C33.3235 27.9377 34.0603 26.1247 34.0754 24.1919C34.0754 22.2441 33.3385 20.4311 32.0002 19.0826C30.6468 17.7492 28.8423 17 26.9024 17C22.8874 17 19.7145 20.1464 19.6994 24.1769C19.6844 26.1097 20.4363 27.9077 21.7897 29.2711C23.143 30.6346 24.9476 31.3838 26.8724 31.3838ZM23.504 20.7757C24.3912 19.8917 25.6092 19.3973 26.9024 19.3973C28.1957 19.3973 29.3987 19.8917 30.2859 20.7757C31.1731 21.6747 31.6694 22.8884 31.6694 24.1919C31.6694 25.4804 31.1731 26.6941 30.2709 27.593C29.3837 28.492 28.1806 28.9865 26.9024 28.9865H26.8874C25.5942 28.9865 24.3912 28.477 23.4889 27.5781C22.5867 26.6791 22.0904 25.4654 22.1055 24.1769C22.1055 22.8734 22.6017 21.6597 23.504 20.7757Z" fill="#444B8C"/>
<path d="M48.1958 47.9999C49.1883 47.9999 50.0003 47.1908 50.0003 46.2019V29.2261C50.0003 28.2372 49.1883 27.4281 48.1958 27.4281H35.88C34.8875 27.4281 34.0755 28.2372 34.0755 29.2261V32.5823C33.489 32.6572 32.8875 32.8969 32.301 33.2565L32.1056 33.3764C31.7597 33.6011 31.3988 33.8259 31.0078 34.0207C29.6995 34.6799 28.4063 35.0245 27.1883 35.0245C26.4965 35.0245 25.8198 34.9196 25.1732 34.7099C24.3311 34.4402 23.5642 34.0356 22.8274 33.6461C22.3913 33.4213 21.9853 33.2116 21.5792 33.0168C21.489 32.9718 21.3838 32.9269 21.2935 32.8819C20.8725 32.6872 20.4514 32.4924 20.1507 32.4924H20.1206C17.9853 32.5823 16.4665 33.6011 15.474 35.6388C14.3762 37.8563 13.9251 40.4035 14.0604 43.6548C14.1206 45.0932 14.677 46.1719 15.7898 47.011C16.6619 47.6852 17.7146 47.9699 19.2785 47.9849L48.1958 47.9999ZM34.0755 45.5876C33.2183 45.5876 32.286 45.5876 31.1582 45.5876C30.4815 45.5876 27.0228 45.5876 27.0228 45.5876C26.2559 45.5876 25.489 45.5876 24.7371 45.5876H24.7221C23.9702 45.5876 23.2183 45.5876 22.4514 45.5876C21.2033 45.5876 20.1958 45.5876 19.2635 45.5726C18.0003 45.5576 17.5341 45.3329 17.2033 45.0932C16.6469 44.6736 16.4514 44.2691 16.4213 43.5349C16.301 40.7031 16.677 38.5306 17.5943 36.6876C18.2409 35.3841 18.9928 34.9946 19.9101 34.9047C20.0153 34.9496 20.1507 35.0095 20.2409 35.0545C20.3462 35.0994 20.4514 35.1594 20.5567 35.2043C20.9025 35.3542 21.2785 35.5489 21.6695 35.7587C22.4665 36.1782 23.3687 36.6427 24.4063 36.9873C25.2935 37.272 26.2259 37.4068 27.1582 37.4068C28.7672 37.4068 30.4213 36.9873 32.0755 36.1483C32.5567 35.9085 32.9928 35.6388 33.3687 35.3991L33.5492 35.2792C33.7296 35.1744 33.895 35.0845 34.0604 35.0245V45.5876H34.0755ZM47.895 45.9022H36.1807V29.5257H47.895V45.9022Z" fill="#444B8C"/>
<path d="M38.662 41.4973C38.2109 41.4973 37.835 41.1227 37.835 40.6732C37.835 40.2237 38.2109 39.8491 38.662 39.8491H45.4139C45.865 39.8491 46.241 40.2237 46.241 40.6732C46.241 41.1227 45.865 41.4973 45.4139 41.4973H38.662Z" fill="#444B8C"/>
<path d="M38.662 37.7663C38.2109 37.7663 37.835 37.3917 37.835 36.9422C37.835 36.4927 38.2109 36.1182 38.662 36.1182H45.4139C45.865 36.1182 46.241 36.4927 46.241 36.9422C46.241 37.3917 45.865 37.7663 45.4139 37.7663H38.662Z" fill="#444B8C"/>
<path d="M38.662 34.051C38.2109 34.051 37.835 33.6764 37.835 33.2269C37.835 32.7774 38.2109 32.4028 38.662 32.4028H45.4139C45.865 32.4028 46.241 32.7774 46.241 33.2269C46.241 33.6764 45.865 34.051 45.4139 34.051H38.662Z" fill="#444B8C"/>
</svg>
