<svg width="80" height="80" viewBox="0 0 80 80" fill="none" xmlns="http://www.w3.org/2000/svg">
<circle cx="40" cy="40" r="38.5" stroke="currentColor" stroke-width="3"/>
<path d="M64.4038 58.4016C63.9942 58.4016 56.6201 59.221 53.3427 59.4258C52.1137 59.4258 52.1137 59.4258 51.9088 59.221C51.704 58.8113 52.1137 58.1968 52.3185 57.992C52.5234 57.3775 52.933 56.9678 52.5233 56.3533C52.1137 55.7388 51.704 55.7388 50.8847 55.7388C50.8847 55.7388 32.0398 57.7871 30.8108 57.992C29.9914 58.1968 29.5817 58.6065 29.7866 59.221C29.7866 59.8355 30.4011 60.2452 31.0156 60.2452C31.2204 60.2452 46.9928 58.4016 46.9928 58.4016C47.6073 58.4016 48.017 58.1968 48.2218 58.8113C48.4266 59.221 48.017 59.6307 47.8121 60.0403C47.4025 60.8597 47.6073 61.679 48.4266 61.8838C48.8363 61.8838 49.246 61.8838 49.6556 61.8838C53.1379 61.4742 62.97 60.6548 64.4038 60.45C65.2232 60.45 65.6328 59.8355 65.428 59.221C65.6328 58.6065 65.2232 58.4016 64.4038 58.4016Z" fill="currentColor"/>
<path d="M25.8944 34.026C26.3041 34.4356 26.9186 34.2308 27.3283 33.8211C27.5331 33.6163 27.5331 33.4115 27.738 33.2066C29.5815 30.3389 31.2202 27.4712 32.8589 24.6035C33.0637 24.1938 33.2685 23.989 33.4734 23.7842C33.4734 23.7842 33.6782 23.5793 34.0879 23.5793C34.7024 22.76 35.1121 21.9407 35.5217 21.1213C33.6782 20.7116 32.0395 21.3261 31.0153 23.1697C29.3767 25.8325 27.738 28.4954 26.0993 31.1583C25.8944 31.5679 25.4848 31.9776 25.2799 32.3873C25.0751 33.2066 25.2799 33.6163 25.8944 34.026Z" fill="currentColor"/>
<path d="M49.0415 27.2662C49.4512 26.242 49.4512 26.0372 48.6318 25.4227L40.2336 20.5066C39.619 20.0969 39.4142 19.8921 39.2094 19.8921C39.0045 19.8921 38.7997 20.0969 38.1852 20.9163C33.6788 28.4952 24.4612 43.653 23.0273 46.1111L33.6788 52.461C35.1127 50.003 44.3303 35.0499 49.0415 27.2662Z" fill="currentColor"/>
<path d="M49.8592 18.458C49.0399 16.8193 47.606 16 45.5577 16C43.7141 16 42.2803 17.0242 41.4609 18.6629L49.4495 23.3741C50.6785 21.7354 50.6786 20.0967 49.8592 18.458Z" fill="currentColor"/>
<path d="M22.6145 48.9775L22 58.4C22 59.0145 22.6145 59.4242 23.229 59.2193L31.2176 54.3033L22.6145 48.9775Z" fill="currentColor"/>
</svg>
