<svg width="58" height="58" viewBox="0 0 58 58" fill="none" xmlns="http://www.w3.org/2000/svg">
<circle cx="29" cy="29" r="29" fill="#F36F56"/>
<path d="M35.8068 25.9219C36.4238 25.9219 36.924 26.422 36.924 27.0391C36.924 27.6561 36.4238 28.1562 35.8068 28.1562H21.7247C21.1077 28.1562 20.6075 27.6561 20.6075 27.0391C20.6075 26.422 21.1077 25.9219 21.7247 25.9219H35.8068Z" fill="white" stroke="#F36F56" stroke-width="0.5"/>
<path d="M20.6075 32.5078C20.6075 31.8908 21.1077 31.3906 21.7247 31.3906H30.2772C30.8943 31.3906 31.3944 31.8908 31.3944 32.5078C31.3944 33.1248 30.8943 33.625 30.2772 33.625H21.7247C21.1077 33.625 20.6075 33.1248 20.6075 32.5078Z" fill="white" stroke="#F36F56" stroke-width="0.5"/>
<path d="M20.365 44.5156H24.9375C25.5545 44.5156 26.0547 45.0158 26.0547 45.6328C26.0547 46.2498 25.5545 46.75 24.9375 46.75H20.365C17.4876 46.75 15.1462 44.4086 15.1462 41.5312V17.4688C15.1462 14.5914 17.4876 12.25 20.365 12.25H37.1738C40.0512 12.25 42.3926 14.5914 42.3926 17.4688V25.877C42.3926 26.494 41.8924 26.9941 41.2754 26.9941C40.6583 26.9941 40.1582 26.494 40.1582 25.877V17.4688C40.1582 15.8229 38.8196 14.4844 37.1738 14.4844H20.365C18.7192 14.4844 17.3806 15.8229 17.3806 17.4688V41.5312C17.3806 43.1771 18.7192 44.5156 20.365 44.5156Z" fill="white" stroke="#F36F56" stroke-width="0.5"/>
<path d="M39.4416 31.9707L39.4418 31.9705C40.9423 30.47 43.3861 30.4699 44.8877 31.9716C46.3893 33.4733 46.3893 35.917 44.8878 37.4186L37.3976 44.8947L37.3976 44.8947C37.2613 45.0307 37.0922 45.1292 36.9066 45.1806L36.9066 45.1806L31.3883 46.7092L31.3882 46.7092C31.2897 46.7365 31.1894 46.7498 31.0901 46.7498C30.793 46.7498 30.5035 46.6312 30.2903 46.4127C30.0058 46.1211 29.9026 45.6978 30.021 45.3078L31.6557 39.9263C31.6557 39.9263 31.6557 39.9263 31.6557 39.9263C31.7093 39.7501 31.8053 39.5901 31.9356 39.4601L39.4416 31.9707ZM35.9637 43.1233L36.027 43.1058L36.0735 43.0593L41.1083 38.034L41.2855 37.8572L41.1085 37.6802L39.1746 35.7464L38.998 35.5698L38.8213 35.7462L33.7566 40.7996L33.7122 40.8439L33.694 40.9039L32.8815 43.5788L32.7494 44.0137L33.1875 43.8924L35.9637 43.1233ZM43.3086 35.838L43.3088 35.8378L41.1976 33.7284L41.021 33.5514L41.0208 33.5516L40.757 33.8149L40.5798 33.9917L40.7568 34.1686L42.6903 36.1022L42.8669 36.2788L43.0437 36.1024L43.3086 35.838Z" fill="white" stroke="#F36F56" stroke-width="0.5"/>
<path d="M21.7247 20.4531H35.8068C36.4238 20.4531 36.924 20.9533 36.924 21.5703C36.924 22.1873 36.4238 22.6875 35.8068 22.6875H21.7247C21.1077 22.6875 20.6075 22.1873 20.6075 21.5703C20.6075 20.9533 21.1077 20.4531 21.7247 20.4531Z" fill="white" stroke="#F36F56" stroke-width="0.5"/>
</svg>
