<svg width="28" height="28" viewBox="0 0 28 28" fill="none" xmlns="http://www.w3.org/2000/svg">
<rect x="1" y="1" width="26" height="26" rx="4" stroke="white" stroke-width="2"/>
<path d="M20.9999 9.63488C20.9713 10.1995 20.7498 10.7855 20.2708 11.2643C17.6904 13.8514 15.1029 16.4313 12.5153 19.0112C12.4153 19.1112 12.2652 19.197 12.1222 19.2327C10.9714 19.49 9.82056 19.733 8.66975 19.9831C8.21943 20.076 7.91921 19.7759 8.01928 19.3256C8.26231 18.1893 8.50534 17.0459 8.76267 15.9096C8.79841 15.7452 8.89848 15.5737 9.01285 15.4593C11.5718 12.8794 14.1379 10.3138 16.704 7.74819C17.4617 6.9978 18.5267 6.79769 19.506 7.21219C20.421 7.59096 21.0071 8.50572 20.9999 9.63488ZM9.14866 18.8397C10.0136 18.6538 10.7855 18.5038 11.5432 18.318C11.7362 18.2679 11.9435 18.1607 12.0865 18.0178C13.902 16.2169 15.7105 14.4088 17.5189 12.6007C17.6047 12.5149 17.6833 12.4149 17.7262 12.3649C17.0114 11.6431 16.3323 10.9498 15.6461 10.2495C15.5961 10.2924 15.5246 10.3424 15.4674 10.4067C13.6161 12.2577 11.7648 14.1086 9.91349 15.9596C9.84201 16.0311 9.74194 16.1168 9.72049 16.2097C9.53465 17.053 9.35595 17.9035 9.14866 18.8397ZM18.5125 11.5359C18.8913 11.1714 19.3202 10.8212 19.6704 10.4139C20.1565 9.85642 20.085 8.99169 19.5775 8.4557C19.07 7.92685 18.1908 7.81965 17.6261 8.29133C17.1972 8.6558 16.8398 9.10603 16.4681 9.49909C17.1329 10.1637 17.8191 10.8498 18.5125 11.5359Z" fill="white" stroke="white" stroke-width="0.5"/>
</svg>
