<svg width="30" height="30" viewBox="0 0 30 30" fill="none" xmlns="http://www.w3.org/2000/svg">
<path d="M14.8672 29.9999C14.7034 29.9999 14.5434 29.9349 14.4247 29.8174C14.2772 29.6699 14.2122 29.4574 14.2534 29.2536L15.1372 24.8349C15.1622 24.7124 15.2197 24.6011 15.3084 24.5149L25.0309 14.7924C25.7609 14.0624 26.9522 14.0624 27.6822 14.7924L29.4497 16.5599C30.1809 17.2911 30.1809 18.4799 29.4497 19.2111L19.7272 28.9336C19.6409 29.0211 19.5297 29.0799 19.4072 29.1049L14.9884 29.9886C14.9484 29.9961 14.9072 29.9999 14.8672 29.9999ZM16.3272 25.2636L15.6647 28.5774L18.9784 27.9149L28.5672 18.3261C28.8109 18.0824 28.8109 17.6861 28.5672 17.4424L26.7997 15.6749C26.5559 15.4311 26.1597 15.4311 25.9159 15.6749L16.3272 25.2636ZM19.2859 28.4911H19.2984H19.2859Z" fill="currentColor"/>
<path d="M11.875 26.25H3.125C1.40125 26.25 0 24.8488 0 23.125V6.875C0 5.15125 1.40125 3.75 3.125 3.75H5.625C5.97 3.75 6.25 4.03 6.25 4.375C6.25 4.72 5.97 5 5.625 5H3.125C2.09125 5 1.25 5.84125 1.25 6.875V23.125C1.25 24.1588 2.09125 25 3.125 25H11.875C12.22 25 12.5 25.28 12.5 25.625C12.5 25.97 12.22 26.25 11.875 26.25Z" fill="currentColor"/>
<path d="M20.625 15C20.28 15 20 14.72 20 14.375V6.875C20 5.84125 19.1588 5 18.125 5H15.625C15.28 5 15 4.72 15 4.375C15 4.03 15.28 3.75 15.625 3.75H18.125C19.8488 3.75 21.25 5.15125 21.25 6.875V14.375C21.25 14.72 20.97 15 20.625 15Z" fill="currentColor"/>
<path d="M14.375 7.5H6.875C5.84125 7.5 5 6.65875 5 5.625V3.125C5 2.78 5.28 2.5 5.625 2.5H7.5625C7.8525 1.075 9.11625 0 10.625 0C12.1338 0 13.3975 1.075 13.6875 2.5H15.625C15.97 2.5 16.25 2.78 16.25 3.125V5.625C16.25 6.65875 15.4088 7.5 14.375 7.5ZM6.25 3.75V5.625C6.25 5.96875 6.53125 6.25 6.875 6.25H14.375C14.7188 6.25 15 5.96875 15 5.625V3.75H13.125C12.78 3.75 12.5 3.47 12.5 3.125C12.5 2.09125 11.6588 1.25 10.625 1.25C9.59125 1.25 8.75 2.09125 8.75 3.125C8.75 3.47 8.47 3.75 8.125 3.75H6.25Z" fill="currentColor"/>
<path d="M16.875 11.25H4.375C4.03 11.25 3.75 10.97 3.75 10.625C3.75 10.28 4.03 10 4.375 10H16.875C17.22 10 17.5 10.28 17.5 10.625C17.5 10.97 17.22 11.25 16.875 11.25Z" fill="currentColor"/>
<path d="M16.875 15H4.375C4.03 15 3.75 14.72 3.75 14.375C3.75 14.03 4.03 13.75 4.375 13.75H16.875C17.22 13.75 17.5 14.03 17.5 14.375C17.5 14.72 17.22 15 16.875 15Z" fill="currentColor"/>
<path d="M16.875 18.75H4.375C4.03 18.75 3.75 18.47 3.75 18.125C3.75 17.78 4.03 17.5 4.375 17.5H16.875C17.22 17.5 17.5 17.78 17.5 18.125C17.5 18.47 17.22 18.75 16.875 18.75Z" fill="currentColor"/>
</svg>
