<svg width="28" height="28" viewBox="0 0 28 28" fill="none" xmlns="http://www.w3.org/2000/svg">
<circle cx="14" cy="14" r="14" fill="#F36F56"/>
<path d="M22.0011 9.03467C21.9764 9.69437 21.6959 10.3953 21.1265 10.9643C18.1645 13.9247 15.2025 16.8851 12.2322 19.8373C12.0919 19.9692 11.8939 20.0764 11.7041 20.1259C10.4087 20.4228 9.10509 20.6949 7.80146 20.9753C7.23216 21.099 6.90212 20.7609 7.02589 20.1837C7.29816 18.9055 7.56219 17.6355 7.85097 16.3574C7.90047 16.1347 8.02424 15.8873 8.18925 15.7307C11.1183 12.7867 14.0473 9.8593 16.9846 6.92362C17.8922 6.01652 19.0886 5.76089 20.2437 6.23093C21.3081 6.66798 21.9929 7.70701 22.0011 9.03467ZM8.32127 19.6641C9.30311 19.458 10.1777 19.2848 11.0358 19.0786C11.2833 19.0209 11.5473 18.8725 11.7289 18.6993C13.8081 16.646 15.8708 14.5679 17.9417 12.5064C18.0572 12.3909 18.1562 12.2755 18.2305 12.193C17.4054 11.3601 16.6216 10.5685 15.8213 9.76034C15.7718 9.80157 15.7058 9.8428 15.648 9.90053C13.4945 12.0528 11.3328 14.2051 9.17935 16.3656C9.10509 16.4398 9.00608 16.5305 8.98958 16.6213C8.76681 17.6026 8.56054 18.5756 8.32127 19.6641ZM19.1381 11.2612C19.5754 10.8406 20.0292 10.4448 20.4335 9.99124C21.011 9.34803 20.978 8.37496 20.4087 7.73175C19.8477 7.09679 18.8493 6.94011 18.1728 7.45963C17.6364 7.87194 17.1827 8.38321 16.7124 8.82851C17.5457 9.66963 18.3378 10.4613 19.1381 11.2612Z" fill="white"/>
</svg>
