<svg width="226" height="180" viewBox="0 0 226 180" fill="none" xmlns="http://www.w3.org/2000/svg">
    <path d="M225.177 38.0133C225.177 45.9887 225.177 84.7747 225.177 84.7747C225.177 84.7747 223.769 101.108 211.806 110.256C199.843 119.404 174.277 134.884 174.277 134.884C174.277 134.884 172.249 137.129 168.835 137.069C167.192 137.044 165.229 136.486 163.019 134.884C156.216 129.959 124.318 109.319 124.318 109.319C124.318 109.319 109.072 37.076 109.304 36.1355C109.54 35.1981 117.042 10.7359 117.042 10.7359C117.042 10.7359 149.649 -0.452883 167.944 0.0142292C168.236 0.0204991 168.534 0.0330314 168.835 0.0455713C187.369 0.848127 221.922 12.015 223.769 13.6263C225.647 15.2628 225.177 30.0379 225.177 38.0133Z" fill="#F85858"/>
    <path d="M225.177 38.0134C225.177 45.9888 225.177 84.7748 225.177 84.7748C225.177 84.7748 223.769 101.108 211.806 110.256C199.843 119.404 174.277 134.884 174.277 134.884C174.277 134.884 172.249 137.129 168.835 137.069V0.0455933C187.369 0.848149 221.922 12.015 223.769 13.6264C225.647 15.2628 225.177 30.038 225.177 38.0134Z" fill="#EE4646"/>
    <path d="M207.994 50.9385H133.312V71.9961H207.994V50.9385Z" fill="white"/>
    <path d="M158.353 24.7252V98.2124H179.411V24.7252H158.353Z" fill="white"/>
    <path d="M82.682 180C128.346 180 165.364 175.414 165.364 169.758C165.364 164.101 128.346 159.516 82.682 159.516C37.018 159.516 0 164.101 0 169.758C0 175.414 37.018 180 82.682 180Z" fill="currentColor"/>
    <path d="M116.217 172.786H36.1182C29.2212 172.786 23.5782 167.143 23.5782 160.246V16.1967C23.5782 9.29971 29.2212 3.65674 36.1182 3.65674H116.217C123.114 3.65674 128.757 9.29971 128.757 16.1967V160.246C128.757 167.143 123.114 172.786 116.217 172.786Z" fill="#292955"/>
    <path d="M113.126 159.124H38.9397C34.4567 159.124 30.7888 155.456 30.7888 150.973V18.5764C30.7888 14.0934 34.4567 10.4255 38.9397 10.4255H113.126C117.609 10.4255 121.277 14.0934 121.277 18.5764V150.973C121.277 155.456 117.609 159.124 113.126 159.124Z" stroke="#292955" stroke-miterlimit="10"/>
    <path d="M121.277 19.2381V151.575C121.277 155.967 117.75 159.582 113.383 159.717C116.321 158.481 118.396 155.575 118.396 152.202V22.1254C118.396 17.6455 114.728 13.9776 110.245 13.9776H37.4318C34.8831 13.9776 32.5945 15.1657 31.0992 17.0154C32.0741 13.6045 35.2279 11.0903 38.9398 11.0903H113.126C117.609 11.0903 121.277 14.7582 121.277 19.2381Z" fill="#E3E8F8"/>
    <path d="M118.43 22.0562V152.192C118.43 155.566 116.355 158.475 113.417 159.71C113.333 159.716 113.248 159.716 113.16 159.716H38.9741C34.4911 159.716 30.8232 156.049 30.8232 151.565V19.1657C30.8232 18.3945 30.9298 17.6484 31.1335 16.9431C32.6289 15.0934 34.9174 13.9053 37.4662 13.9053H110.279C114.762 13.9053 118.43 17.5732 118.43 22.0562Z" fill="white"/>
    <path d="M121.277 39.0823H30.7888V79.5236H121.277V39.0823Z" fill="#FFD0D0"/>
    <path d="M66.3708 144.261C67.7559 144.261 68.8788 143.138 68.8788 141.753C68.8788 140.368 67.7559 139.245 66.3708 139.245C64.9856 139.245 63.8628 140.368 63.8628 141.753C63.8628 143.138 64.9856 144.261 66.3708 144.261Z" fill="#F85858"/>
    <path d="M75.4622 144.261C76.8473 144.261 77.9702 143.138 77.9702 141.753C77.9702 140.368 76.8473 139.245 75.4622 139.245C74.0771 139.245 72.9542 140.368 72.9542 141.753C72.9542 143.138 74.0771 144.261 75.4622 144.261Z" fill="#F85858"/>
    <path d="M85.1807 144.261C86.5658 144.261 87.6887 143.138 87.6887 141.753C87.6887 140.368 86.5658 139.245 85.1807 139.245C83.7956 139.245 82.6727 140.368 82.6727 141.753C82.6727 143.138 83.7956 144.261 85.1807 144.261Z" fill="#F85858"/>
    <path d="M66.4711 105.795C67.1106 105.296 68.0324 105.397 68.5496 106.024C69.7253 107.441 71.1705 110.077 71.5404 110.541C72.1173 111.262 71.9511 112.316 71.183 112.827C70.1046 113.541 68.7816 114.432 68.5057 114.679C68.0198 115.112 67.816 115.278 68.3051 116.347C68.744 117.31 72.3994 123.576 73.5311 124.545C74.6628 125.517 75.3651 125.946 76.2805 125.301C77.1959 124.655 78.221 123.36 78.7602 123.467C80.7353 123.862 84.0051 126.674 84.002 128.564C84.002 129.063 82.1648 131.025 80.6569 132.104C79.1459 133.182 76.2397 133.624 74.7882 132.966C70.5685 131.047 67.6812 126.163 64.5964 120.771C62.9443 117.883 61.6057 115.585 60.9567 113.689C60.2921 111.742 61.0288 109.588 62.7185 108.412L66.4711 105.795Z" fill="#F85858"/>
    <path fill-rule="evenodd" clip-rule="evenodd" d="M75.3214 110.813C75.4584 110.223 76.048 109.856 76.6383 109.993C79.8805 110.745 82.2933 113.65 82.2933 117.118C82.2933 117.807 82.1975 118.475 82.0162 119.112C81.8502 119.695 81.2431 120.033 80.6603 119.867C80.0775 119.7 79.7397 119.093 79.9057 118.511C80.0316 118.069 80.0988 117.602 80.0988 117.118C80.0988 114.693 78.4112 112.657 76.1421 112.13C75.5518 111.993 75.1844 111.404 75.3214 110.813Z" fill="#F85858"/>
    <path fill-rule="evenodd" clip-rule="evenodd" d="M77.7217 106.78C77.848 106.187 78.431 105.809 79.0236 105.935C83.445 106.878 86.7607 110.807 86.7607 115.511C86.7607 116.477 86.6197 117.412 86.3583 118.296C86.1863 118.877 85.5758 119.208 84.9947 119.036C84.4136 118.864 84.082 118.254 84.254 117.673C84.4566 116.988 84.5662 116.262 84.5662 115.511C84.5662 111.863 81.9946 108.813 78.5659 108.082C77.9733 107.955 77.5953 107.372 77.7217 106.78Z" fill="#F85858"/>
    <path d="M48.702 56.8765L45.0466 51.9358L53.9436 46.1674H59.6117V71.7082H52.9028V54.1115L52.3292 54.1428L48.702 56.8765Z" fill="#F85858"/>
    <path d="M65.8065 56.8765L62.1511 51.9358L71.0482 46.1674H76.7163V71.7082H70.0074V54.1115L69.4337 54.1428L65.8065 56.8765Z" fill="#F85858"/>
    <path d="M84.9894 54.8204C84.9894 54.8204 86.8422 52.4817 88.9614 52.0397C91.0807 51.5976 93.4194 51.6854 94.2125 53.6949C95.0057 55.7044 92.5354 58.2187 90.4161 59.7204C88.2969 61.222 81.2807 66.075 81.2807 66.075V71.7086H101.273V65.5013H91.7829L92.1372 65.0153L92.4005 64.3539C92.4005 64.3539 101.273 61.0433 101.273 54.3784C101.273 47.7134 94.5198 45.6851 90.8581 45.6851C87.1964 45.6851 82.6946 47.936 80.8826 50.8923L84.9894 54.8204Z" fill="#F85858"/>
    <path d="M89.9489 118.051C89.8423 118.051 89.7357 118.036 89.6291 118.004C89.0491 117.829 88.7231 117.214 88.8987 116.634C89.1432 115.832 89.2811 114.991 89.3031 114.145C89.441 109.474 86.0834 105.329 81.4938 104.505C81.2117 104.455 80.9201 104.417 80.6317 104.392C80.0267 104.339 79.5815 103.806 79.6316 103.204C79.6849 102.599 80.2148 102.154 80.8198 102.204C81.1741 102.235 81.5314 102.282 81.8794 102.345C87.5318 103.361 91.6668 108.458 91.4976 114.208C91.4662 115.252 91.3001 116.28 90.9991 117.271C90.8518 117.744 90.4191 118.051 89.9489 118.051Z" fill="#F85858"/>
</svg>
