<svg width="90" height="90" viewBox="0 0 90 90" fill="none" xmlns="http://www.w3.org/2000/svg">
<circle cx="45" cy="45" r="43" stroke="#49CF8F" stroke-width="4"/>
<path d="M55.3452 41.3438C55.3452 40.2219 54.4358 39.3125 53.314 39.3125H32.3921C31.2702 39.3125 30.3608 40.2219 30.3608 41.3438C30.3608 42.4656 31.2702 43.375 32.3921 43.375H53.314C54.4358 43.375 55.3452 42.4656 55.3452 41.3438Z" fill="#49CF8F"/>
<path d="M32.3921 47.4375C31.2702 47.4375 30.3608 48.3469 30.3608 49.4688C30.3608 50.5906 31.2702 51.5 32.3921 51.5H45.0987C46.2205 51.5 47.1299 50.5906 47.1299 49.4688C47.1299 48.3469 46.2205 47.4375 45.0987 47.4375H32.3921Z" fill="#49CF8F"/>
<path d="M37.1655 66.9375H30.3721C28.132 66.9375 26.3096 65.1151 26.3096 62.875V27.125C26.3096 24.8849 28.132 23.0625 30.3721 23.0625H55.3452C57.5852 23.0625 59.4077 24.8849 59.4077 27.125V39.6172C59.4077 40.739 60.3171 41.6484 61.4389 41.6484C62.5608 41.6484 63.4702 40.739 63.4702 39.6172V27.125C63.4702 22.6449 59.8253 19 55.3452 19H30.3721C25.8919 19 22.2471 22.6449 22.2471 27.125V62.875C22.2471 67.3551 25.8919 71 30.3721 71H37.1655C38.2873 71 39.1967 70.0906 39.1967 68.9688C39.1967 67.8469 38.2873 66.9375 37.1655 66.9375Z" fill="#49CF8F"/>
<path d="M67.0683 48.4094C64.6923 46.0335 60.8264 46.0333 58.452 48.4078L47.3001 59.535C47.0633 59.7713 46.8886 60.0624 46.7913 60.3825L44.3626 68.378C44.1473 69.0869 44.3349 69.8567 44.8523 70.3869C45.2398 70.7841 45.7663 70.9997 46.3064 70.9997C46.487 70.9997 46.6694 70.9756 46.8485 70.9259L55.0471 68.6549C55.3845 68.5614 55.692 68.3824 55.9399 68.135L67.0684 57.0274C69.4443 54.6514 69.4443 50.7856 67.0683 48.4094ZM53.4479 64.8824L49.3233 66.025L50.5303 62.051L58.055 54.543L60.9282 57.4162L53.4479 64.8824ZM64.1972 54.1536L63.8036 54.5463L60.9309 51.6736L61.3232 51.2822C62.1152 50.4902 63.4038 50.4902 64.1958 51.2822C64.9878 52.0742 64.9878 53.3628 64.1972 54.1536Z" fill="#49CF8F"/>
<path d="M53.314 31.1875H32.3921C31.2702 31.1875 30.3608 32.0969 30.3608 33.2188C30.3608 34.3406 31.2702 35.25 32.3921 35.25H53.314C54.4358 35.25 55.3452 34.3406 55.3452 33.2188C55.3452 32.0969 54.4358 31.1875 53.314 31.1875Z" fill="#49CF8F"/>
</svg>
