<svg width="130" height="130" viewBox="0 0 130 130" fill="none" xmlns="http://www.w3.org/2000/svg">
    <rect width="130" height="130" rx="10" fill="white"/>
    <path d="M83.082 95.2613H35.1288C31.8011 95.2613 29.0771 92.5384 29.0771 89.2119V53.4041C29.0771 50.0777 31.8011 47.3547 35.1288 47.3547H83.082C86.4097 47.3547 89.1336 50.0777 89.1336 53.4041V89.2119C89.1336 92.5384 86.4097 95.2613 83.082 95.2613Z" fill="#AEE7FF"/>
    <path d="M34.4485 94.4927C32.3067 94.4927 30.5746 92.8115 30.5171 90.6705C30.5099 90.5771 30.5099 90.4478 30.5171 90.3185V83.3782L44.7191 72.939C45.5887 72.2637 46.6452 71.9045 47.7665 71.9045C49.0458 71.9045 50.2604 72.3858 51.1948 73.2552L60.9622 81.8479C62.299 82.9759 64.0168 83.6153 65.7848 83.644H65.8926C67.2367 83.644 68.5519 83.2776 69.7163 82.5807L88.4749 71.7249V90.3616C88.4749 92.8259 86.06 94.4855 83.8104 94.4855L34.4485 94.4927Z" fill="#37AFB2"/>
    <path d="M88.1897 87.7031V90.4045C88.1897 92.8688 85.782 94.5284 83.5252 94.5284H34.1777C32.0287 94.5284 30.3038 92.8472 30.2391 90.7062C30.2319 90.6057 30.2319 90.4763 30.2463 90.347L30.2391 83.4067L30.6488 83.105V85.9644C30.6416 86.0938 30.6416 86.2231 30.6488 86.3165C30.7063 88.4647 32.4384 90.1458 34.5802 90.1458L83.9349 90.1387C85.6239 90.1387 87.3991 89.2119 88.1897 87.7031Z" fill="#229191"/>
    <path d="M67.2909 84.0032L65.76 84.8869C64.3657 85.7275 62.7773 86.1586 61.153 86.1298C59.0759 86.1011 57.0779 85.3539 55.4823 84.0248L45.0321 74.8214C43.3862 73.2839 40.8635 73.1617 39.0811 74.5268L43.2568 71.3081H50.0056L60.0174 81.4383L67.2909 84.0032Z" fill="#5CC7D4"/>
    <path d="M64.8518 67.299C67.5906 67.299 69.811 65.0795 69.811 62.3416C69.811 59.6038 67.5906 57.3843 64.8518 57.3843C62.1129 57.3843 59.8926 59.6038 59.8926 62.3416C59.8926 65.0795 62.1129 67.299 64.8518 67.299Z" fill="#FEC446"/>
    <path d="M91.8234 85.8279C91.9097 85.7704 92.0534 85.5908 92.0534 85.3393H90.616V53.6914C90.4938 50.0057 87.4895 47.0456 83.7881 46.9666H40.1113L41.0097 39.1714C41.2253 38.0578 41.7931 37.0879 42.6053 36.3838L42.6628 36.3407C43.4749 35.7731 44.4237 35.4785 45.4155 35.4785C45.5521 35.4785 45.6886 35.4857 45.818 35.4929L94.7271 41.1399C95.8555 41.2477 96.8904 41.7937 97.6235 42.6846C98.3566 43.5683 98.7016 44.6891 98.5938 45.8315L98.5722 46.0901L98.565 46.0973L94.3821 82.2428C94.3749 83.3923 93.8646 84.4484 92.9662 85.1669C92.6931 85.4255 92.3409 85.5836 92.0534 85.7129C91.9672 85.756 91.8809 85.7919 91.8234 85.8279Z" fill="#82B0C4"/>
    <path d="M91.0057 87.1501C87.9871 86.2161 89.6545 63.1393 89.676 54.9633C89.676 53.8784 87.254 50.5376 85.9387 48.8061C85.4284 48.138 84.6378 47.7572 83.7969 47.7788L41.0401 48.799C39.2361 48.8421 37.928 47.089 38.4886 45.3719C38.8408 44.2942 39.847 43.5686 40.9754 43.5686H84.2497C89.6761 43.5686 93.4853 47.7285 93.9381 53.1384L93.8878 85.6557C93.8806 85.6485 92.9606 87.7536 91.0057 87.1501Z" fill="#689CB1"/>
    <path d="M69.8176 62.3416C69.8176 64.7628 68.0783 66.7817 65.7856 67.2199C66.8349 66.3147 67.4961 64.9784 67.4961 63.4768C67.4961 60.7395 65.2753 58.5194 62.5298 58.5194C62.2063 58.5194 61.8829 58.5482 61.5811 58.6057C62.4507 57.8441 63.5935 57.3843 64.8512 57.3843C67.5968 57.3843 69.8176 59.6043 69.8176 62.3416Z" fill="#FCB139"/>
    <path d="M65.0537 70.1873C61.0935 70.1873 57.8809 66.9686 57.8809 63.0171C57.8809 59.0584 61.1007 55.8469 65.0537 55.8469C69.0067 55.8469 72.2266 59.0656 72.2266 63.0171C72.2266 66.9758 69.0067 70.1873 65.0537 70.1873ZM65.0537 58.7136C62.6819 58.7136 60.7486 60.6462 60.7486 63.0171C60.7486 65.388 62.6819 67.3207 65.0537 67.3207C67.4255 67.3207 69.3589 65.388 69.3589 63.0171C69.3589 60.6462 67.4255 58.7136 65.0537 58.7136Z" fill="#010101"/>
    <path d="M34.5281 97C34.449 97 34.3772 97 34.3053 96.9928C32.566 96.9497 30.9632 96.2384 29.7773 94.9883C28.5843 93.7382 27.959 92.1001 28.0021 90.3758V53.6915C28.0021 49.7831 30.9417 46.6075 34.5497 46.6075H37.6473L38.5817 38.9344C38.7686 37.1958 39.6598 35.5793 41.0469 34.5088C42.2112 33.5388 43.6702 33 45.1724 33C45.4742 33 45.7761 33.0216 46.0708 33.0647L95.0589 38.6255C98.7963 39.0638 101.513 42.4692 101.118 46.2124L96.9851 82.6165C96.7767 84.4198 95.8998 86.0579 94.5127 87.2218C93.5496 87.89 92.4428 88.3498 91.2641 88.5797L90.9694 88.6372V90.3615C90.9694 93.9609 87.6848 97 83.7965 97C83.7965 97 34.5353 97 34.5281 97ZM47.7598 72.2564C46.7248 72.2564 45.7402 72.5941 44.9208 73.2263L30.8698 83.5505V90.3615C30.8626 90.4477 30.8626 90.5555 30.8698 90.6704C30.9273 92.6031 32.4941 94.1334 34.4418 94.1262H83.7965C85.8736 94.1262 88.1017 92.6102 88.1017 90.3615V72.3498L69.8892 82.8824C68.6674 83.6152 67.2875 83.996 65.8788 83.996H65.771C63.9167 83.9672 62.1199 83.2991 60.7112 82.1064L50.9293 73.5065C50.0741 72.7018 48.9457 72.2564 47.7598 72.2564ZM45.4167 35.8379C44.4968 35.8379 43.6199 36.1109 42.8725 36.6354C42.0891 37.3107 41.5716 38.2088 41.3775 39.1859L40.5222 46.6147H83.8037C87.692 46.6938 90.8472 49.8119 90.9766 53.7131V85.3467H91.6953C91.6953 85.4544 91.6378 85.5263 91.6162 85.5406C91.6522 85.5119 91.8031 85.4401 91.9109 85.3898C92.184 85.2676 92.5218 85.1096 92.7518 84.8797C93.5568 84.2546 94.0311 83.2703 94.024 82.207L98.2213 45.9681L98.2357 45.9537L98.2429 45.767C98.3435 44.7539 98.0272 43.7265 97.3516 42.9147C96.6832 42.1028 95.7345 41.5999 94.678 41.4993L45.8049 35.8523C45.6683 35.8379 45.5461 35.8379 45.4167 35.8379ZM47.8245 69.4257C49.65 69.4257 51.4109 70.0795 52.798 71.2649L62.6589 79.9582C63.5573 80.7198 64.6857 81.1365 65.8572 81.1365C66.7412 81.1365 67.6109 80.8994 68.3727 80.4468L88.1017 68.9587V53.6915C88.0514 53.0305 87.8861 52.4342 87.6058 51.9097C87.383 51.4499 87.0595 51.026 86.6499 50.6596C85.888 49.9412 84.8746 49.5245 83.8109 49.4742H34.5497C32.2785 49.4742 30.8698 51.6655 30.8698 53.6915V79.9511L43.2821 70.9201C44.6118 69.943 46.1786 69.4257 47.8245 69.4257Z" fill="#010101"/>
</svg>
