<svg width="20" height="20" viewBox="0 0 20 20" fill="none" xmlns="http://www.w3.org/2000/svg">
<g clip-path="url(#clip0)">
<path d="M9.593 19.9962C9.06497 19.9962 8.53617 20.0017 8.00814 19.9946C7.18788 19.9837 6.58872 19.4708 6.44106 18.6574C6.38308 18.3382 6.33746 18.0158 6.28103 17.6957C6.13491 16.873 5.45458 16.4686 4.67375 16.7426C4.34595 16.8574 4.02589 16.9963 3.69654 17.1072C2.96055 17.353 2.25625 17.1056 1.85888 16.4335C1.29838 15.485 0.750249 14.5272 0.217581 13.5624C-0.169743 12.8614 -0.0259462 12.1206 0.573982 11.5898C0.83529 11.358 1.11593 11.1488 1.37646 10.9169C1.96943 10.3892 1.97021 9.6094 1.37801 9.08249C1.12675 8.85923 0.856164 8.65862 0.602586 8.43692C-0.0313579 7.88269 -0.173609 7.13409 0.233816 6.40109C0.757207 5.46046 1.28987 4.52451 1.83414 3.59636C2.24775 2.89069 2.96596 2.63465 3.73133 2.89928C4.04753 3.00857 4.35523 3.14283 4.67143 3.25368C5.45303 3.52767 6.13414 3.12488 6.2818 2.30367C6.33901 1.98362 6.38462 1.66201 6.44261 1.34196C6.58872 0.53013 7.19097 0.00946289 8.00814 0.00321801C9.06497 -0.00458808 10.121 -0.00380747 11.1779 0.0024374C12.0221 0.00712106 12.6205 0.523885 12.7666 1.35836C12.8246 1.6909 12.8686 2.02656 12.932 2.35832C13.0712 3.09131 13.7368 3.50191 14.4396 3.28022C14.7828 3.17171 15.1137 3.02418 15.4539 2.90474C16.2254 2.63309 16.9444 2.87742 17.3588 3.57919C17.9124 4.51748 18.452 5.46358 18.98 6.41671C19.3789 7.13565 19.2359 7.87723 18.6182 8.42053C18.3561 8.65081 18.0755 8.8608 17.8165 9.09498C17.2405 9.61486 17.239 10.3838 17.8142 10.9021C18.0639 11.1269 18.3345 11.3283 18.5888 11.5477C19.2398 12.1105 19.382 12.8622 18.9638 13.6131C18.4458 14.5421 17.9201 15.4663 17.3836 16.3843C16.9599 17.1095 16.2417 17.3671 15.457 17.0923C15.1408 16.9815 14.8339 16.8464 14.5177 16.7371C13.7562 16.4741 13.0751 16.8777 12.9282 17.6739C12.8694 17.9931 12.8238 18.3155 12.7681 18.6356C12.6228 19.4685 12.0213 19.9853 11.1802 19.9946C10.6498 20.0009 10.121 19.9962 9.593 19.9962ZM16.0105 15.6521C16.3051 15.1385 16.5703 14.6779 16.8331 14.2166C17.1014 13.7459 17.3681 13.2744 17.6387 12.7966C17.3658 12.5671 17.1168 12.361 16.8725 12.1503C15.4786 10.9497 15.4802 9.04346 16.8756 7.84444C17.1277 7.62821 17.3828 7.41589 17.6418 7.19654C17.0905 6.23404 16.5579 5.30434 16.0198 4.3637C15.6974 4.4847 15.4098 4.5932 15.1215 4.70093C13.365 5.35664 11.6634 4.35043 11.3781 2.49024C11.3317 2.18658 11.2714 1.88449 11.2188 1.58629C10.1172 1.58629 9.05337 1.58629 7.97567 1.58629C7.92155 1.91259 7.86898 2.21937 7.82027 2.52693C7.53345 4.33716 5.82103 5.34883 4.11866 4.71264C3.80942 4.59711 3.4994 4.48392 3.17934 4.36605C2.62889 5.3301 2.09777 6.26058 1.56278 7.19888C1.83723 7.42994 2.08617 7.63602 2.33124 7.846C3.72438 9.0419 3.72283 10.9536 2.32893 12.1526C2.07689 12.3689 1.82254 12.582 1.56355 12.8005C2.11478 13.763 2.64667 14.6935 3.18475 15.6334C3.50868 15.5124 3.79627 15.4046 4.08464 15.2961C5.83649 14.6373 7.54118 15.6459 7.82646 17.5076C7.87285 17.8113 7.93237 18.1134 7.98494 18.41C9.08739 18.41 10.1512 18.41 11.2474 18.41C11.3611 17.2289 11.5892 16.1205 12.7071 15.4585C13.8389 14.7872 14.9135 15.1431 16.0105 15.6521Z" fill="currentColor"/>
<path d="M9.60828 13.8481C7.53328 13.8676 5.80384 12.1487 5.79302 10.0559C5.7822 7.88816 7.43664 6.18175 9.57659 6.15364C11.6562 6.12632 13.3857 7.82727 13.4112 9.92477C13.4375 12.1019 11.7637 13.8286 9.60828 13.8481ZM9.59746 7.71877C8.34581 7.72033 7.34464 8.73122 7.34232 9.99502C7.34 11.2612 8.33498 12.2752 9.58586 12.2822C10.8561 12.2892 11.8657 11.2698 11.8596 9.98644C11.8541 8.72185 10.8522 7.71721 9.59746 7.71877Z" fill="currentColor"/>
</g>
<defs>
<clipPath id="clip0">
<rect width="19.2" height="20" fill="white"/>
</clipPath>
</defs>
</svg>
