<svg width="32" height="32" viewBox="0 0 32 32" fill="none" xmlns="http://www.w3.org/2000/svg">
<path d="M11.4334 16.0003C11.4334 13.4822 13.4826 11.4336 16.0001 11.4336C18.5175 11.4336 20.5667 13.4822 20.5667 16.0003C20.5667 18.5184 18.5175 20.567 16.0001 20.567C13.4826 20.567 11.4334 18.5184 11.4334 16.0003ZM13.9001 16.0003C13.9001 17.1582 14.8422 18.1003 16.0001 18.1003C17.158 18.1003 18.1001 17.1582 18.1001 16.0003C18.1001 14.8424 17.158 13.9003 16.0001 13.9003C14.8422 13.9003 13.9001 14.8424 13.9001 16.0003Z" fill="white" stroke="#F35933" stroke-width="0.2"/>
<path d="M27.8219 14.6777L27.8318 14.7667H27.9213H30.6667C31.3474 14.7667 31.9 15.3192 31.9 16C31.9 16.6808 31.3474 17.2333 30.6667 17.2333H27.9213H27.8318L27.8219 17.3223C27.2098 22.8285 22.8285 27.2098 17.3223 27.8219L17.2333 27.8318V27.9213V30.6667C17.2333 31.3474 16.6808 31.9 16 31.9C15.3192 31.9 14.7667 31.3474 14.7667 30.6667V27.9213V27.8318L14.6777 27.8219C9.17153 27.2098 4.79022 22.8285 4.17805 17.3223L4.16817 17.2333H4.07867H1.33333C0.652562 17.2333 0.1 16.6808 0.1 16C0.1 15.3192 0.652562 14.7667 1.33333 14.7667H4.07867H4.16817L4.17805 14.6777C4.79022 9.17153 9.17153 4.79022 14.6777 4.17805L14.7667 4.16817V4.07867V1.33333C14.7667 0.652562 15.3192 0.1 16 0.1C16.6808 0.1 17.2333 0.652562 17.2333 1.33333V4.07867V4.16817L17.3223 4.17805C22.8285 4.79022 27.2098 9.17153 27.8219 14.6777ZM6.56667 16C6.56667 21.2019 10.7981 25.4333 16 25.4333C21.2019 25.4333 25.4333 21.2019 25.4333 16C25.4333 10.7981 21.2019 6.56667 16 6.56667C10.7981 6.56667 6.56667 10.7981 6.56667 16Z" fill="white" stroke="#F35933" stroke-width="0.2"/>
</svg>
