<svg width="243" height="261" viewBox="0 0 243 261" fill="none" xmlns="http://www.w3.org/2000/svg">
<path d="M119.995 220.339H118.873C117.998 220.339 117.278 221.058 117.278 221.933V258.467C117.278 259.343 117.998 260.062 118.873 260.062H119.995C120.87 260.062 121.589 259.343 121.589 258.467V221.933C121.589 221.058 120.875 220.339 119.995 220.339Z" fill="currentColor"/>
<path d="M87.2463 40.1021C87.2984 39.6052 87.1895 39.1083 86.934 38.6824L85.112 35.6347C84.7382 35.0148 83.7917 35.223 83.7112 35.9423C82.5281 46.4813 82.708 56.0738 83.1386 62.7417L86.0538 65.1031C85.8929 53.5278 86.934 42.9604 87.2463 40.1021Z" fill="white"/>
<path d="M92.3858 31.1057C96.6165 29.6245 99.8582 29.1749 103.109 29.1749C106.36 29.1749 107.174 28.1196 107.174 28.1196V6.66309C98.9637 7.15052 90.4313 14.5472 88.2355 20.8885C86.0444 27.2252 88.155 32.5917 92.3858 31.1057Z" fill="white"/>
<path d="M116.085 29.175C119.336 29.175 122.573 29.6246 126.808 31.1058C131.039 32.587 133.154 27.2253 130.958 20.8839C128.763 14.5426 120.23 7.15061 112.02 6.65845V28.115C112.02 28.1197 112.833 29.175 116.085 29.175Z" fill="white"/>
<path d="M131.754 40.102C132.09 43.1828 133.273 55.2125 132.89 67.8005L135.44 67.8952C136.06 61.7431 136.832 49.6425 135.289 35.9376C135.209 35.2182 134.257 35.01 133.888 35.63L132.066 38.6776C131.811 39.113 131.702 39.6051 131.754 40.102Z" fill="white"/>
<path d="M133.165 74.388L134.23 73.0535C134.689 72.4809 134.982 71.7947 135.077 71.0612C135.082 71.0328 135.086 70.9996 135.086 70.9713L132.758 70.9003C132.701 71.984 132.635 73.0677 132.55 74.1419C132.526 74.4874 132.952 74.6578 133.165 74.388Z" fill="white"/>
<path d="M118.101 86.905C118.163 87.1984 117.973 87.4871 117.685 87.5486L116.686 87.7616C116.407 89.3138 115.635 90.7903 114.372 91.9261C113.108 93.0618 111.561 93.677 109.985 93.7906L109.668 94.7607C109.578 95.0447 109.27 95.2009 108.987 95.1062L108.731 95.021L108.471 95.8161C111.031 96.0811 113.686 95.3097 115.749 93.4546C117.841 91.5711 118.882 88.9636 118.858 86.3561L118.021 86.5359L118.101 86.905Z" fill="white"/>
<path d="M101.689 82.7122L101.036 82.1821C99.3231 85.5563 99.749 89.7776 102.432 92.7542C103.133 93.5351 103.942 94.1645 104.808 94.6519L105.073 93.8332L104.718 93.7196C104.434 93.6297 104.278 93.3221 104.372 93.0382L104.69 92.068C104.439 91.8551 104.197 91.6326 103.97 91.3818C102.186 89.399 101.685 86.7157 102.399 84.3306L101.604 83.687C101.372 83.4977 101.339 83.157 101.524 82.9251L101.689 82.7122Z" fill="white"/>
<path d="M104.112 79.7259L104.349 79.4372C104.538 79.2053 104.879 79.1722 105.11 79.3568L105.905 80.0004C108.835 78.3914 112.588 78.9308 114.921 81.5242C115.148 81.775 115.347 82.04 115.531 82.3145L116.53 82.1015C116.823 82.04 117.112 82.2293 117.173 82.518L117.23 82.783L118.058 82.6079C117.665 81.7324 117.135 80.8995 116.459 80.1471C113.066 76.3801 107.325 75.9921 103.454 79.1959L104.112 79.7259Z" fill="white"/>
<path d="M240.745 52.4014L148.961 71.9082V39.1224C148.961 38.4267 148.389 37.8541 147.693 37.8541H145.45C144.754 37.8541 144.181 38.4267 144.181 39.1224V68.2264L138.664 68.0182C139.061 64.3742 139.34 60.6215 139.468 56.7646C141.044 8.60343 125.063 0 109.593 0C94.132 0 78.1509 8.60343 79.7315 56.7646C79.7693 57.8862 79.8214 58.9983 79.8829 60.1009L74.9897 56.1399V39.1224C74.9897 38.4267 74.417 37.8541 73.7214 37.8541H71.4782C70.7826 37.8541 70.21 38.4267 70.21 39.1224V52.2736L11.6329 4.83174C11.6329 4.83174 6.05815 2.22421 0.942474 3.78115C0.0243964 4.06036 -0.321066 5.29077 0.350929 5.835L70.21 62.4103V124.56C70.21 125.256 70.7826 125.829 71.4782 125.829H73.7214C74.417 125.829 74.9897 125.256 74.9897 124.56V116.179L93.6588 115.616C94.1415 117.06 94.8656 119.407 95.6984 122.686L68.2981 207.012C68.2981 207.012 67.8627 213.155 71.147 217.367C71.7385 218.124 73.0068 218.005 73.2765 217.182L98.8739 138.412C100.724 150.044 102.295 165.912 102.295 186.261L106.474 246.083C106.554 247.682 107.87 248.936 109.47 248.936C111.069 248.936 112.389 247.682 112.465 246.083L116.644 186.27C116.644 146.05 122.791 123.311 125.067 116.274C125.176 116.047 125.28 115.815 125.389 115.583L144.186 116.146V124.565C144.186 125.261 144.759 125.833 145.454 125.833H147.698C148.393 125.833 148.966 125.261 148.966 124.565V79.9674L234.432 61.8046C234.432 61.8046 239.969 59.1119 241.976 54.1571C242.331 53.2674 241.592 52.2216 240.745 52.4014ZM144.181 71.2504V72.9256L137.84 74.2743C138.001 73.219 138.152 72.1495 138.29 71.0753L144.181 71.2504ZM101.6 83.6823L102.395 84.3259C101.68 86.7062 102.182 89.3942 103.966 91.3771C104.193 91.6279 104.434 91.855 104.685 92.0633L104.368 93.0334C104.278 93.3173 104.434 93.6249 104.714 93.7149L105.069 93.8284L104.804 94.6471C103.937 94.1597 103.133 93.5303 102.428 92.7495C99.7446 89.7681 99.3234 85.5515 101.032 82.1774L101.685 82.7074L101.515 82.9156C101.335 83.1522 101.373 83.4977 101.6 83.6823ZM115.754 93.4593C113.691 95.3144 111.036 96.0858 108.476 95.8208L108.736 95.0257L108.992 95.1109C109.276 95.2008 109.583 95.0447 109.673 94.7654L109.99 93.7953C111.561 93.6817 113.114 93.0665 114.377 91.9308C115.641 90.795 116.412 89.3185 116.691 87.7663L117.69 87.5533C117.983 87.4918 118.168 87.2031 118.106 86.9097L118.03 86.5453L118.868 86.3655C118.887 88.9683 117.846 91.5758 115.754 93.4593ZM132.762 70.9049L135.091 70.9759C135.086 71.0043 135.081 71.0374 135.081 71.0658C134.986 71.7946 134.693 72.4808 134.234 73.0581L133.169 74.3926C132.956 74.6577 132.53 74.492 132.559 74.1513C132.634 73.0723 132.705 71.9886 132.762 70.9049ZM133.889 35.6346C134.258 35.0147 135.209 35.2229 135.289 35.9422C136.832 49.6472 136.061 61.7478 135.441 67.8998L132.89 67.8052C133.273 55.2171 132.09 43.1875 131.754 40.1067C131.702 39.6098 131.811 39.1129 132.067 38.687L133.889 35.6346ZM112.02 6.66316C120.231 7.15059 128.763 14.5473 130.959 20.8886C133.155 27.23 131.04 32.5917 126.809 31.1105C122.578 29.6293 119.337 29.1797 116.085 29.1797C112.834 29.1797 112.02 28.1244 112.02 28.1244V6.66316ZM116.45 80.1377C117.127 80.8902 117.657 81.7231 118.049 82.5985L117.221 82.7737L117.164 82.5086C117.103 82.2152 116.814 82.0307 116.521 82.0922L115.522 82.3051C115.338 82.0354 115.139 81.7657 114.912 81.5148C112.579 78.9215 108.826 78.382 105.897 79.991L105.102 79.3474C104.87 79.1581 104.529 79.196 104.34 79.4279L104.103 79.7165L103.436 79.1771C107.321 75.9874 113.057 76.3708 116.45 80.1377ZM88.2355 20.8886C90.4313 14.5473 98.9638 7.15532 107.174 6.66316V28.1197C107.174 28.1197 106.36 29.175 103.109 29.175C99.8582 29.175 96.6213 29.6246 92.3858 31.1058C88.1551 32.5917 86.0444 27.2252 88.2355 20.8886ZM83.7114 35.9422C83.7918 35.2229 84.743 35.0147 85.1122 35.6346L86.9341 38.6823C87.1897 39.1082 87.2985 39.6051 87.2465 40.102C86.9341 42.9603 85.893 53.5277 86.0539 65.0983L83.1388 62.7369C82.7081 56.069 82.5236 46.4812 83.7114 35.9422ZM77.3416 68.1838L74.9944 68.2737V66.2814L77.3416 68.1838ZM74.9897 71.2835L80.9051 71.1037C83.0631 87.5959 87.7102 101.665 92.4331 112.507L74.9897 113.16V71.2835ZM144.181 113.118L126.781 112.464C130.353 104.254 133.879 94.2023 136.316 82.6506L144.181 80.9801V113.118Z" fill="currentColor"/>
</svg>
