<svg width="110" height="66" viewBox="0 0 110 66" fill="none" xmlns="http://www.w3.org/2000/svg">
<path d="M69.1487 21.7581L67.9972 8.1252L99.3114 8.01995L102.635 21.6456C103.596 25.6696 104.833 29.3338 106.225 32.519L109.17 39.168L75.6838 39.2806L72.7787 32.6314C71.3464 29.4463 70.1494 25.782 69.1487 21.7581Z" fill="#213D60"/>
<path d="M20.7832 71.1646L13.2015 71.1901L13.1382 52.3699L15.7722 48.8921L15.6298 6.50688L20.5658 6.49029L20.7832 71.1646Z" fill="#DD6849"/>
<path d="M31.8004 71.1276L17.7425 71.1748L17.6798 52.5142L20.7082 48.8755L20.5657 6.49028L29.5691 6.46002L29.711 48.6857L31.7334 51.191L31.8004 71.1276Z" fill="#834049"/>
<path d="M30.9064 4.90047L19.4943 4.93883L19.5002 6.69325L30.9123 6.65489L30.9064 4.90047Z" fill="#6F3E45"/>
<path d="M22.6139 4.92834L13.887 4.95767L13.8929 6.71209L22.6198 6.68276L22.6139 4.92834Z" fill="#DD6849"/>
<path d="M29.1936 0.48025L20.0718 0.51091L20.0867 4.93683L29.2085 4.90617L29.1936 0.48025Z" fill="#834049"/>
<path d="M21.4145 0.506399L15.6097 0.525909L15.6246 4.95183L21.4293 4.93232L21.4145 0.506399Z" fill="#DD6849"/>
<path d="M105.801 70.8789L79.8576 70.9661L79.7511 39.2669L94.1914 12.0245L105.695 39.1797L105.801 70.8789Z" fill="#BBC2D6"/>
<path d="M4.88129 39.5185L4.98783 71.2177L34.683 71.1179L79.8577 70.9661L79.7511 39.2669L4.88129 39.5185Z" fill="#EAEFFD"/>
<path d="M96.5122 21.8087C96.566 21.7142 96.6036 21.6114 96.6239 21.5046L98.9661 9.21158C99.0838 8.59399 98.6091 8.02231 97.9804 8.02442L24.7841 8.27045C24.4258 8.27165 24.0955 8.4645 23.9183 8.77596L16.4319 21.9353C14.1157 25.9703 11.2848 29.6482 7.93904 32.8494L2.74858 37.7997C2.09441 38.4236 2.53812 39.5264 3.44211 39.5234L80.7332 39.2636C80.99 39.2627 81.2367 39.1631 81.422 38.9853L88.1003 32.5799C91.4066 29.4166 94.2485 25.7876 96.5122 21.8087Z" fill="#5582AB"/>
<path d="M32.0694 33.6454L40.2053 22.2541L32.0312 22.2816L32.0694 33.6454Z" fill="#BBC2D6"/>
<path d="M23.1846 33.6753L32.0694 33.6455L32.0312 22.2816L27.5547 18.0302L23.1464 22.3115L23.1846 33.6753Z" fill="#EAEFFD"/>
<path d="M40.2053 22.2541L35.7683 18.0026L27.5547 18.0302L32.0312 22.2816L40.2053 22.2541Z" fill="#213D60"/>
<path d="M30.2172 23.0453L24.9653 23.063L24.9949 31.8749L30.2468 31.8573L30.2172 23.0453Z" fill="#B3C7D1"/>
<path d="M27.7692 23.1731L27.7983 31.8256" stroke="#64879A" stroke-miterlimit="10"/>
<path d="M25.1631 23.1819L25.1922 31.8344" stroke="#64879A" stroke-miterlimit="10"/>
<path d="M24.9812 27.8078L30.2332 27.7902" stroke="#64879A" stroke-miterlimit="10"/>
<path d="M24.966 23.3022L30.218 23.2845" stroke="#64879A" stroke-miterlimit="10"/>
<path d="M27.5719 23.1738L27.6015 31.9858" stroke="white" stroke-width="0.8364" stroke-miterlimit="10"/>
<path d="M24.9806 27.6085L30.2325 27.5908" stroke="white" stroke-width="0.8364" stroke-miterlimit="10"/>
<path d="M30.2172 23.0453L24.9653 23.063L24.9949 31.8749L30.2468 31.8573L30.2172 23.0453Z" stroke="white" stroke-width="0.8364" stroke-miterlimit="10"/>
<path d="M75.9014 33.4981L84.0373 22.1068L75.8632 22.1343L75.9014 33.4981Z" fill="#BBC2D6"/>
<path d="M67.0165 33.528L75.9013 33.4981L75.8631 22.1343L71.4261 17.8827L66.9783 22.1641L67.0165 33.528Z" fill="#EAEFFD"/>
<path d="M84.0373 22.1068L79.6002 17.8552L71.4261 17.8827L75.8632 22.1343L84.0373 22.1068Z" fill="#213D60"/>
<path d="M74.0492 22.898L68.7972 22.9156L68.8269 31.7276L74.0788 31.7099L74.0492 22.898Z" fill="#B3C7D1"/>
<path d="M71.6408 23.0257L71.6699 31.6781" stroke="#64879A" stroke-miterlimit="10"/>
<path d="M68.9951 23.0346L69.0242 31.6871" stroke="#64879A" stroke-miterlimit="10"/>
<path d="M68.8133 27.6605L74.0652 27.6429" stroke="#64879A" stroke-miterlimit="10"/>
<path d="M68.7981 23.1552L74.0501 23.1375" stroke="#64879A" stroke-miterlimit="10"/>
<path d="M71.4434 23.0263L71.473 31.8383" stroke="white" stroke-width="0.8364" stroke-miterlimit="10"/>
<path d="M68.8126 27.4612L74.0646 27.4435" stroke="white" stroke-width="0.8364" stroke-miterlimit="10"/>
<path d="M74.0492 22.898L68.7972 22.9156L68.8269 31.7276L74.0788 31.7099L74.0492 22.898Z" stroke="white" stroke-width="0.8364" stroke-miterlimit="10"/>
<path d="M53.9854 33.5718L62.1213 22.1805L53.9472 22.2079L53.9854 33.5718Z" fill="#BBC2D6"/>
<path d="M45.1006 33.6017L53.9854 33.5718L53.9472 22.2079L49.5102 17.9564L45.0624 22.2378L45.1006 33.6017Z" fill="#EAEFFD"/>
<path d="M62.1212 22.1805L57.6842 17.9289L49.5101 17.9564L53.9472 22.2079L62.1212 22.1805Z" fill="#213D60"/>
<path d="M52.1333 22.9716L46.8813 22.9893L46.911 31.8012L52.1629 31.7836L52.1333 22.9716Z" fill="#B3C7D1"/>
<path d="M49.6854 23.0995L49.7144 31.7519" stroke="#64879A" stroke-miterlimit="10"/>
<path d="M47.0791 23.1082L47.1082 31.7607" stroke="#64879A" stroke-miterlimit="10"/>
<path d="M46.8972 27.7342L52.1492 27.7165" stroke="#64879A" stroke-miterlimit="10"/>
<path d="M46.8821 23.2295L52.1341 23.2119" stroke="#64879A" stroke-miterlimit="10"/>
<path d="M49.5274 23.1L49.557 31.912" stroke="white" stroke-width="0.8364" stroke-miterlimit="10"/>
<path d="M46.8966 27.5348L52.1485 27.5172" stroke="white" stroke-width="0.8364" stroke-miterlimit="10"/>
<path d="M52.1333 22.9716L46.8813 22.9893L46.911 31.8012L52.1629 31.7836L52.1333 22.9716Z" stroke="white" stroke-width="0.8364" stroke-miterlimit="10"/>
<path d="M71.401 45.6349L60.9761 45.6699L61.0289 61.3799L71.4538 61.3449L71.401 45.6349Z" fill="#B3C7D1"/>
<path d="M64.5308 45.8972L64.5824 61.2483" stroke="#64879A" stroke-miterlimit="10"/>
<path d="M61.3717 45.9078L61.4233 61.2589" stroke="#64879A" stroke-miterlimit="10"/>
<path d="M61.0045 54.123L71.4294 54.0879" stroke="#64879A" stroke-miterlimit="10"/>
<path d="M60.9775 46.0686L71.4024 46.0336" stroke="#64879A" stroke-miterlimit="10"/>
<path d="M64.1754 45.8983L64.2282 61.6084" stroke="white" stroke-width="1.0646" stroke-miterlimit="10"/>
<path d="M68.519 45.8837L68.5706 61.2349" stroke="#64879A" stroke-miterlimit="10"/>
<path d="M68.1242 45.8851L68.177 61.5951" stroke="white" stroke-width="1.0646" stroke-miterlimit="10"/>
<path d="M61.0032 53.7641L71.4281 53.7291" stroke="white" stroke-width="1.0646" stroke-miterlimit="10"/>
<path d="M71.401 45.6349L60.9761 45.6699L61.0289 61.3799L71.4538 61.3449L71.401 45.6349Z" stroke="white" stroke-width="1.0646" stroke-miterlimit="10"/>
<path d="M75.4287 45.6213L71.6773 45.6339L71.7297 61.2243L75.4811 61.2117L75.4287 45.6213Z" fill="#5582AB"/>
<path d="M60.6996 45.6708L56.9482 45.6834L57.0006 61.2738L60.752 61.2612L60.6996 45.6708Z" fill="#5582AB"/>
<path d="M99.8064 61.2895L89.3815 61.3245L89.3196 42.9031C89.3098 39.9924 91.6317 37.632 94.5144 37.6223C97.397 37.6126 99.7347 39.9573 99.7445 42.8681L99.8064 61.2895Z" fill="#B3C7D1"/>
<path d="M92.8565 37.8272L92.9349 61.1531" stroke="#64879A" stroke-miterlimit="10"/>
<path d="M89.7759 61.1637L89.7145 42.9018C89.7051 40.1106 91.9483 37.8303 94.7125 37.821C97.4766 37.8117 99.7351 40.0769 99.7445 42.868L99.7531 45.4199" stroke="#64879A" stroke-miterlimit="10"/>
<path d="M89.3248 44.4581L99.7497 44.4231" stroke="#64879A" stroke-miterlimit="10"/>
<path d="M92.5024 38.2272L92.5807 61.5131" stroke="white" stroke-width="1.0646" stroke-miterlimit="10"/>
<path d="M96.8461 38.2126L96.9232 61.1397" stroke="#64879A" stroke-miterlimit="10"/>
<path d="M96.4499 37.8152L96.5295 61.4998" stroke="white" stroke-width="1.0646" stroke-miterlimit="10"/>
<path d="M89.3558 53.6688L99.7807 53.6338" stroke="white" stroke-width="1.0646" stroke-miterlimit="10"/>
<path d="M89.3236 44.0993L99.7486 44.0642" stroke="white" stroke-width="1.0646" stroke-miterlimit="10"/>
<path d="M99.8064 61.2895L89.3815 61.3245L89.3196 42.9031C89.3098 39.9924 91.6317 37.632 94.5144 37.6223C97.397 37.6126 99.7347 39.9573 99.7445 42.8681L99.8064 61.2895V61.2895Z" stroke="white" stroke-width="1.0646" stroke-miterlimit="10"/>
<path d="M46.4048 45.7189L34.9532 45.7574L35.0384 71.1167L46.49 71.0782L46.4048 45.7189Z" fill="#DD6849"/>
<g opacity="0.6">
<g opacity="0.6">
<path opacity="0.6" d="M41.9832 46.0926L42.0654 70.5349" stroke="#5C3B2A" stroke-width="3.69" stroke-miterlimit="10"/>
<path opacity="0.6" d="M35.0002 59.7529L46.4518 59.7144" stroke="#5C3B2A" stroke-width="2.69" stroke-miterlimit="10"/>
</g>
</g>
<path d="M34.9965 58.6364L46.4481 58.5979" stroke="#DD6849" stroke-width="2" stroke-miterlimit="10"/>
<path d="M40.6802 46.097L40.7642 71.0975" stroke="#DD6849" stroke-width="2" stroke-miterlimit="10"/>
<path d="M23.2252 45.7968L12.8003 45.8318L12.8531 61.5418L23.278 61.5068L23.2252 45.7968Z" fill="#B3C7D1"/>
<path d="M16.355 46.0591L16.4066 61.4103" stroke="#64879A" stroke-miterlimit="10"/>
<path d="M13.196 46.0697L13.2476 61.4209" stroke="#64879A" stroke-miterlimit="10"/>
<path d="M12.8288 54.2849L23.2537 54.2499" stroke="#64879A" stroke-miterlimit="10"/>
<path d="M12.8016 46.2306L23.2266 46.1955" stroke="#64879A" stroke-miterlimit="10"/>
<path d="M15.9996 46.0603L16.0524 61.7703" stroke="white" stroke-width="1.0646" stroke-miterlimit="10"/>
<path d="M20.3433 46.0457L20.3949 61.3969" stroke="#64879A" stroke-miterlimit="10"/>
<path d="M19.9484 46.047L20.0012 61.7571" stroke="white" stroke-width="1.0646" stroke-miterlimit="10"/>
<path d="M12.8275 53.926L23.2524 53.891" stroke="white" stroke-width="1.0646" stroke-miterlimit="10"/>
<path d="M23.2252 45.7968L12.8003 45.8318L12.8531 61.5418L23.278 61.5068L23.2252 45.7968Z" stroke="white" stroke-width="1.0646" stroke-miterlimit="10"/>
<path d="M27.253 45.7832L23.5016 45.7958L23.554 61.3863L27.3054 61.3736L27.253 45.7832Z" fill="#5582AB"/>
<path d="M12.5239 45.8328L8.77246 45.8454L8.82486 61.4358L12.5763 61.4232L12.5239 45.8328Z" fill="#5582AB"/>
<path d="M34.9566 46.7542L46.4082 46.7157" stroke="#C15E42" stroke-width="2" stroke-miterlimit="10"/>
<path d="M36.0205 46.1126L36.1045 71.1131" stroke="#C15E42" stroke-width="2.4" stroke-miterlimit="10"/>
</svg>
