<svg width="24" height="22" viewBox="0 0 24 22" fill="none" xmlns="http://www.w3.org/2000/svg">
<path d="M14.1801 21.9632C14.1801 19.9749 14.1801 18.0235 14.1801 16.026C12.6885 16.026 11.2434 16.026 9.73315 16.026C9.73315 17.9958 9.73315 19.9657 9.73315 21.9632C9.55602 21.9724 9.43482 21.9908 9.31362 21.9908C8.16691 21.9908 7.01088 22 5.86418 21.9908C4.38185 21.9816 3.32837 20.9967 3.3004 19.5239C3.26311 17.6645 3.28175 15.8142 3.3004 13.9548C3.3004 13.7063 3.44024 13.4117 3.6267 13.2276C6.19048 10.6778 8.76357 8.14646 11.3367 5.60588C11.8028 5.15483 12.1105 5.15483 12.5673 5.60588C15.1311 8.12805 17.6948 10.6502 20.24 13.1908C20.4451 13.3933 20.5942 13.7523 20.5942 14.0377C20.6222 15.8142 20.6036 17.6 20.6129 19.3766C20.6222 21.0427 19.2797 22.0553 17.9372 21.9908C16.8558 21.9356 15.765 21.9816 14.6742 21.9816C14.5251 21.9816 14.3759 21.9724 14.1801 21.9632Z" fill="currentColor"/>
<path d="M17.1459 3.4611C17.1459 2.99164 17.0993 2.51298 17.1553 2.05273C17.2671 1.0862 18.3579 0.570721 19.197 1.077C19.6724 1.36235 19.8962 1.79499 19.8962 2.34729C19.8962 3.51633 19.9055 4.67616 19.8868 5.8452C19.8775 6.2134 19.9801 6.47114 20.2504 6.72888C21.3226 7.75064 22.376 8.80001 23.4202 9.84938C24.0262 10.4569 24.0821 11.2117 23.5787 11.7916C23.1219 12.3255 22.3667 12.436 21.7701 12.0402C21.5929 11.9205 21.4344 11.764 21.2853 11.6167C18.4605 8.82762 15.6356 6.0385 12.8108 3.25859C12.093 2.5498 11.8319 2.5406 11.1234 3.24018C8.2706 6.05691 5.4085 8.88285 2.55571 11.6996C2.15483 12.0954 1.70734 12.3716 1.11068 12.2335C0.159747 12.0218 -0.287748 10.9908 0.225007 10.19C0.336881 10.0151 0.495369 9.85859 0.644534 9.7021C3.50664 6.86696 6.37807 4.04101 9.2495 1.20587C10.881 -0.395806 13.0346 -0.405011 14.6661 1.19666C15.4492 1.96068 16.223 2.7339 16.9968 3.50712C17.0434 3.48871 17.0993 3.47951 17.1459 3.4611Z" fill="currentColor"/>
</svg>
