<svg width="265" height="158" viewBox="0 0 265 158" fill="none" xmlns="http://www.w3.org/2000/svg"><path d="M140.5 157.4c68.8 0 124.5-9 124.5-20s-55.7-20-124.5-20-124.5 9-124.5 20 55.7 20 124.5 20Z" fill="currentColor"/><path d="M163 59.9 161 38.6l48.9-.2 5.2 21.3c1.5 6.3 3.4 12 5.6 17l4.6 10.4-52.3.1-4.5-10.3c-2.3-5-4.1-10.7-5.7-17Z" fill="#213D60"/><path d="M87.4 137H75.6l-.1-29.3 4-5.4-.1-66.2H87l.3 101Z" fill="#DD6849"/><path d="M104.6 137h-22v-29l4.7-5.8-.2-66.1h14l.2 65.8 3.2 4 .1 31Z" fill="#834049"/><path d="M103.2 33.6H85.4v2.8h17.8v-2.8Z" fill="#6F3E45"/><path d="M90.3 33.6H76.6v2.8h13.7v-2.8Z" fill="#DD6849"/><path d="M100.5 26.7H86.3v7l14.3-.1v-7Z" fill="#834049"/><path d="M88.4 26.7h-9v7h9v-7Z" fill="#DD6849"/><path d="m220.1 136.6-40.5.1-.1-49.5L202 44.7l18 42.4.1 49.5Z" fill="#BBC2D6"/><path d="m62.6 87.6.1 49.5 46.4-.1 70.5-.3-.1-49.5-117 .4Z" fill="#EAEFFD"/><path d="M205.7 59.9v-.3l3.9-20a1 1 0 0 0-1-1.1l-115.3.3a1 1 0 0 0-.8.5L80.6 60.2c-3.6 6.3-8 12-13.3 17l-9 8.7a1 1 0 0 0 .6 1.7l122.3-.4c.3 0 .5 0 .7-.3l10.6-10.1c5.2-5 9.6-10.7 13.2-17Z" fill="#5582AB"/><path d="m105 78.5 12.7-17.8H105v17.8Z" fill="#BBC2D6"/><path d="M91.1 78.5h14l-.1-17.8-7-6.6-7 6.7.1 17.7Z" fill="#EAEFFD"/><path d="m117.7 60.7-7-6.7H98l7 6.7h12.7Z" fill="#213D60"/><path d="M102.1 61.9H94v13.8h8.3V61.9Z" fill="#B3C7D1"/><path d="M98.3 62.1v13.5M94.2 62.1v13.5M94 69.3h8.2M94 62.3h8.1" stroke="#64879A" stroke-miterlimit="10"/><path d="M98 62.1v13.8M94 69h8.2M102.1 61.9H94v13.8h8.3V61.9Z" stroke="#fff" stroke-width=".8" stroke-miterlimit="10"/><path d="m173.4 78.2 12.7-17.8h-12.7v17.8Z" fill="#BBC2D6"/><path d="M159.6 78.3h13.8V60.4l-7-6.7-6.9 6.7v17.8Z" fill="#EAEFFD"/><path d="m186.1 60.4-6.9-6.6h-12.7l6.9 6.7H186Z" fill="#213D60"/><path d="M170.6 61.7h-8.2v13.8h8.2V61.6Z" fill="#B3C7D1"/><path d="M166.8 61.9v13.5M162.7 61.9v13.5M162.4 69.1h8.2M162.4 62h8.2" stroke="#64879A" stroke-miterlimit="10"/><path d="M166.5 61.9v13.7M162.4 68.8h8.2M170.6 61.7h-8.2v13.8h8.2V61.6Z" stroke="#fff" stroke-width=".8" stroke-miterlimit="10"/><path d="M139.2 78.3 152 60.6h-12.7v17.7Z" fill="#BBC2D6"/><path d="M125.4 78.4h13.8V60.5l-7-6.6-6.9 6.6v17.8Z" fill="#EAEFFD"/><path d="m152 60.6-7-6.7h-12.8l7 6.7h12.7Z" fill="#213D60"/><path d="M136.3 61.8h-8.2v13.8h8.3V61.7Z" fill="#B3C7D1"/><path d="M132.5 62v13.5M128.5 62v13.5M128.2 69.2h8.2M128.1 62.2h8.2" stroke="#64879A" stroke-miterlimit="10"/><path d="M132.3 62v13.7M128.2 69l8.2-.1M136.3 61.8h-8.2v13.8h8.3V61.7Z" stroke="#fff" stroke-width=".8" stroke-miterlimit="10"/><path d="M166.4 97.2h-16.3l.1 24.5h16.3V97.2Z" fill="#B3C7D1"/><path d="M155.7 97.6v24M150.8 97.6v24M150.2 110.4h16.3M150.1 97.8h16.3" stroke="#64879A" stroke-miterlimit="10"/><path d="m155.1 97.6.1 24.5" stroke="#fff" stroke-width="1.1" stroke-miterlimit="10"/><path d="M162 97.6v24" stroke="#64879A" stroke-miterlimit="10"/><path d="M161.3 97.6V122M150.2 109.9h16.3M166.4 97.2h-16.3l.1 24.5h16.3V97.2Z" stroke="#fff" stroke-width="1.1" stroke-miterlimit="10"/><path d="M172.7 97.1H167v24.4h5.9V97ZM149.7 97.2H144v24.4h5.9V97.2Z" fill="#5582AB"/><path d="M210.8 121.6h-16.3l-.1-28.7c0-4.5 3.6-8.2 8.1-8.2s8.2 3.6 8.2 8.1v28.8Z" fill="#B3C7D1"/><path d="M200 85v36.4M195.1 121.4V93c-.1-4.4 3.4-8 7.7-8 4.3 0 7.9 3.6 7.9 8v4M194.4 95.3h16.3" stroke="#64879A" stroke-miterlimit="10"/><path d="M199.4 85.6V122" stroke="#fff" stroke-width="1.1" stroke-miterlimit="10"/><path d="m206.1 85.6.2 35.8" stroke="#64879A" stroke-miterlimit="10"/><path d="m205.5 85 .2 37M194.5 109.7h16.2M194.4 94.8h16.3M210.8 121.6h-16.3l-.1-28.7c0-4.5 3.6-8.2 8.1-8.2s8.2 3.6 8.2 8.1v28.8Z" stroke="#fff" stroke-width="1.1" stroke-miterlimit="10"/><path d="M127.4 97.3h-17.9l.2 39.6h17.8l-.1-39.6Z" fill="#DD6849"/><g opacity=".6" stroke="#5C3B2A" stroke-miterlimit="10"><path opacity=".6" d="m120.5 97.9.1 38.1" stroke-width="3.7"/><path opacity=".6" d="M109.6 119.2h17.9" stroke-width="2.7"/></g><path d="M109.6 117.5h17.9M118.5 97.9v39" stroke="#DD6849" stroke-width="2" stroke-miterlimit="10"/><path d="M91.2 97.4H75L75 122h16.3V97.3Z" fill="#B3C7D1"/><path d="M80.5 97.8v24M75.6 97.8v24M75 110.7h16.3M75 98.1h16.2" stroke="#64879A" stroke-miterlimit="10"/><path d="M80 97.8v24.6" stroke="#fff" stroke-width="1.1" stroke-miterlimit="10"/><path d="M86.7 97.8v24" stroke="#64879A" stroke-miterlimit="10"/><path d="M86.1 97.8v24.5M75 110.1h16.3M91.2 97.4H75L75 122h16.3V97.3Z" stroke="#fff" stroke-width="1.1" stroke-miterlimit="10"/><path d="M97.5 97.4h-5.9l.1 24.4h5.9l-.1-24.4ZM74.5 97.5h-5.8v24.3h5.9V97.5Z" fill="#5582AB"/><path d="m109.5 99 17.9-.1" stroke="#C15E42" stroke-width="2" stroke-miterlimit="10"/><path d="m111.2 98 .1 39" stroke="#C15E42" stroke-width="2.4" stroke-miterlimit="10"/><path d="M114.4 125.6h-1.2v5.2h1.2v-5.2Z" fill="#FE9748"/><path d="m100.3 92.3-47-7.5c-1.7-.2-2.9-1.9-2.6-3.6l10.6-67c.3-1.8 2-3 3.7-2.7l46.9 7.5c1.7.2 3 1.9 2.6 3.6l-10.6 67c-.3 1.8-1.9 3-3.6 2.7Z" fill="#E8E5E3"/><path d="m98 28-32-5c-.3 0-.4-.3-.4-.5l.5-2.8c0-.2.2-.3.4-.3l32 5c.2.1.4.3.3.5l-.4 2.8c0 .2-.3.4-.5.3ZM97 33.2l-31.9-5c-.2-.1-.3-.3-.3-.5l.2-1.2c0-.2.2-.4.4-.4l32 5c.2.1.4.3.3.5l-.1 1.2c0 .2-.3.4-.5.4ZM103.5 54.4 62 47.8c-.2 0-.3-.2-.3-.4l.2-1.2c0-.2.2-.4.5-.4l41.4 6.6c.2 0 .3.2.3.5l-.2 1.2c0 .2-.2.3-.4.3ZM86 64.6l-26-4.1c-.2 0-.3-.3-.3-.5l.2-1.2c0-.2.2-.4.5-.3l26 4.1c.2 0 .4.2.3.5l-.2 1.2c0 .1-.2.3-.4.3ZM101.8 67l-11-1.7c-.2 0-.4-.2-.3-.5l.2-1.2c0-.2.2-.3.4-.3l11 1.8c.3 0 .4.2.4.4l-.2 1.2c0 .2-.2.4-.5.3ZM100 75.7l-18.8-3c-.3 0-.4-.2-.4-.5l.2-1.1c0-.3.3-.4.5-.4l18.9 3c.2 0 .4.3.3.5l-.2 1.2c0 .1-.2.3-.4.3ZM84 44l-20.8-3.3c-.2 0-.4-.2-.3-.4L63 39c0-.2.3-.4.5-.3L84.4 42c.2 0 .4.2.3.4l-.2 1.2c0 .2-.2.4-.4.3ZM104.6 47.3l-11.9-2c-.2 0-.3-.2-.3-.4l.2-1.2c0-.2.2-.3.5-.3l11.8 2c.2 0 .4.1.3.4L105 47c0 .2-.2.3-.4.3Z" fill="#18516B"/><path opacity=".2" d="m83.2 22.1-2 67.3L59.6 86c-1.9-.3-3.2-2.1-2.9-4l10.1-63.8 13 .4c2 0 3.4 1.6 3.4 3.5Z" fill="#18516B"/><path d="m70.9 102.2-53.7-1.5c-2 0-3.6-1.7-3.5-3.7L16 20.3c0-2 1.8-3.6 3.8-3.5l53.6 1.5c2 0 3.6 1.8 3.5 3.7l-2.2 76.7c0 2-1.7 3.6-3.7 3.5Z" fill="#E8E5E3"/><path d="m59 30.6-36.6-1.1c-.2 0-.4-.2-.4-.5V26c0-.3.3-.5.6-.5L59 26.5c.2 0 .5.2.4.5V30c0 .3-.3.5-.5.5ZM58.8 36.4l-36.5-1c-.3 0-.5-.3-.5-.5v-1.4c0-.2.3-.4.5-.4L59 34c.2 0 .4.3.4.5V36c0 .2-.3.4-.5.4ZM69 59.3l-47.4-1.4c-.2 0-.4-.2-.4-.5v-1.3c0-.3.3-.5.5-.5L69.1 57c.2 0 .4.2.4.5v1.3c0 .3-.3.5-.5.5ZM51 73.2l-29.8-.9c-.3 0-.5-.2-.5-.4v-1.4c0-.2.3-.5.6-.4L51 71c.3 0 .5.2.4.4v1.4c0 .2-.2.4-.5.4ZM69 73.7l-12.6-.3c-.3 0-.5-.3-.5-.5v-1.4c0-.2.3-.4.6-.4l12.6.4c.2 0 .4.2.4.4v1.4c0 .2-.2.4-.5.4ZM68.3 83.6 46.6 83c-.2 0-.5-.2-.4-.5v-1.3c0-.3.2-.5.5-.5l21.6.7c.3 0 .5.2.5.4v1.4c-.1.3-.3.5-.5.4ZM45.8 50.5l-24-.7c-.2 0-.4-.3-.4-.5V48c0-.3.3-.5.5-.5l24 .7c.2 0 .4.3.4.5v1.4c0 .2-.3.4-.5.4ZM69.2 51.2l-13.6-.5c-.2 0-.4-.2-.4-.4v-1.4c0-.2.3-.4.5-.4l13.6.4c.2 0 .4.2.4.5v1.3c0 .3-.2.5-.5.5Z" fill="#18516B"/><path opacity=".1" d="M94.3 65.8h-.1l-.1-.3.4-.7.3-.1v.2l-.4.8-.1.1ZM114.4 75.4c-.2-.1-.2-.3-.2-.4l.4-.5.3-.1v.3l-.3.6h-.2Z" fill="#75B5E0"/></svg>
