<svg width="116" height="72" viewBox="0 0 116 72" fill="none" xmlns="http://www.w3.org/2000/svg"><path d="M72.1 27.8 71 14h31.3l3.3 13.5c1 4 2.2 7.7 3.6 11l3 6.6H78.7l-3-6.6a64.9 64.9 0 0 1-3.6-10.8Z" fill="#213D60"/><path d="M23.8 77.2h-7.6V58.4l2.6-3.5-.2-42.4h5l.2 64.7Z" fill="#DD6849"/><path d="M34.8 77.1h-14l-.1-18.6 3-3.6-.1-42.4h9l.1 42.2 2 2.5.1 20Z" fill="#834049"/><path d="M34 10.9H22.4v1.8h11.4v-1.8Z" fill="#6F3E45"/><path d="M25.6 11H17v1.7h8.7v-1.8Z" fill="#DD6849"/><path d="M32.2 6.5H23V11h9.1V6.5Z" fill="#834049"/><path d="M24.4 6.5h-5.8V11h5.8V6.4Z" fill="#DD6849"/><path d="M108.8 76.9h-26V45.4L97.2 18l11.5 27.2.1 31.7Z" fill="#BBC2D6"/><path d="M7.9 45.5v31.7h29.8l45.2-.2-.1-31.7-75 .2Z" fill="#EAEFFD"/><path d="m99.5 27.8.1-.3 2.4-12.3a1 1 0 0 0-1-1.2l-73.2.3a1 1 0 0 0-.9.5l-7.5 13.1c-2.3 4-5.1 7.7-8.5 11l-5.2 4.9a1 1 0 0 0 .7 1.7l77.3-.2c.3 0 .5-.1.7-.3l6.7-6.4c3.3-3.2 6.1-6.8 8.4-10.8Z" fill="#5582AB"/><path d="m35 39.6 8.2-11.3H35v11.3Z" fill="#BBC2D6"/><path d="M26.2 39.7H35V28.2L30.5 24 26 28.3v11.4Z" fill="#EAEFFD"/><path d="M43.2 28.3 38.8 24h-8.2l4.4 4.3h8.2Z" fill="#213D60"/><path d="M33.2 29H28V38h5.2V29Z" fill="#B3C7D1"/><path d="M30.8 29.2v8.6M28.2 29.2v8.6M28 33.8h5.2M28 29.3h5.2" stroke="#64879A" stroke-miterlimit="10"/><path d="M30.6 29.2V38M28 33.6h5.2M33.2 29H28V38h5.2V29Z" stroke="#fff" stroke-width=".8" stroke-miterlimit="10"/><path d="M78.9 39.5 87 28.1H79v11.4Z" fill="#BBC2D6"/><path d="M70 39.5H79V28.1L74.4 24 70 28.2v11.3Z" fill="#EAEFFD"/><path d="M87 28.1 82.6 24h-8.2L79 28H87Z" fill="#213D60"/><path d="M77 28.9h-5.2v8.8h5.3V29Z" fill="#B3C7D1"/><path d="M74.6 29v8.7M72 29v8.7M71.8 33.7h5.3M71.8 29.2h5.3" stroke="#64879A" stroke-miterlimit="10"/><path d="M74.4 29v8.8M71.8 33.5h5.3M77 28.9h-5.2v8.8h5.3V29Z" stroke="#fff" stroke-width=".8" stroke-miterlimit="10"/><path d="M57 39.6 65 28.2H57v11.4Z" fill="#BBC2D6"/><path d="M48.1 39.6H57V28.2L52.4 24l-4.4 4.2v11.4Z" fill="#EAEFFD"/><path d="m65.1 28.2-4.4-4.3h-8.2l4.4 4.3h8.2Z" fill="#213D60"/><path d="M55.1 29H50v8.8h5.3V29Z" fill="#B3C7D1"/><path d="M52.7 29.1v8.7M50 29.1l.1 8.7M49.9 33.7h5.2M49.9 29.2H55" stroke="#64879A" stroke-miterlimit="10"/><path d="M52.5 29.1v8.8M49.9 33.5h5.2M55.1 29H50v8.8h5.3V29Z" stroke="#fff" stroke-width=".8" stroke-miterlimit="10"/><path d="M74.4 51.6H64v15.8h10.5l-.1-15.8Z" fill="#B3C7D1"/><path d="M67.5 51.9v15.3M64.4 52v15.3M64 60.1h10.4M64 52h10.4" stroke="#64879A" stroke-miterlimit="10"/><path d="M67.2 51.9v15.7" stroke="#fff" stroke-width="1.1" stroke-miterlimit="10"/><path d="M71.5 51.9v15.3" stroke="#64879A" stroke-miterlimit="10"/><path d="M71.1 51.9v15.7M64 59.8h10.4M74.4 51.6H64v15.8h10.5l-.1-15.8Z" stroke="#fff" stroke-width="1.1" stroke-miterlimit="10"/><path d="M78.4 51.6h-3.7v15.6h3.8V51.6ZM63.7 51.7h-3.8l.1 15.6h3.8l-.1-15.6Z" fill="#5582AB"/><path d="M102.8 67.3H92.4V49c0-3 2.2-5.3 5.1-5.3 2.9 0 5.2 2.4 5.2 5.3l.1 18.4Z" fill="#B3C7D1"/><path d="M95.9 43.8v23.4M92.8 67.2V48.9a5 5 0 0 1 5-5 5 5 0 0 1 5 5v2.5M92.3 50.5h10.5" stroke="#64879A" stroke-miterlimit="10"/><path d="M95.5 44.2v23.3" stroke="#fff" stroke-width="1.1" stroke-miterlimit="10"/><path d="m99.8 44.2.1 23" stroke="#64879A" stroke-miterlimit="10"/><path d="m99.4 43.8.1 23.7M92.4 59.7h10.4M92.3 50.1h10.4M102.8 67.3H92.4V49c0-3 2.2-5.3 5.1-5.3 2.9 0 5.2 2.4 5.2 5.3l.1 18.4Z" stroke="#fff" stroke-width="1.1" stroke-miterlimit="10"/><path d="M49.4 51.7H38v25.4h11.5l-.1-25.4Z" fill="#DD6849"/><g opacity=".6" stroke="#5C3B2A" stroke-miterlimit="10"><path opacity=".6" d="M45 52v24.5" stroke-width="3.7"/><path opacity=".6" d="M38 65.8h11.5" stroke-width="2.7"/></g><path d="M38 64.6h11.4M43.7 52.1v25" stroke="#DD6849" stroke-width="2" stroke-miterlimit="10"/><path d="M26.2 51.8H15.8v15.7h10.5V51.8Z" fill="#B3C7D1"/><path d="M19.4 52v15.4M16.2 52v15.4M15.8 60.3h10.5M15.8 52.2h10.4" stroke="#64879A" stroke-miterlimit="10"/><path d="M19 52v15.8" stroke="#fff" stroke-width="1.1" stroke-miterlimit="10"/><path d="M23.3 52v15.4" stroke="#64879A" stroke-miterlimit="10"/><path d="M23 52v15.8M15.8 60l10.5-.1M26.2 51.8H15.8v15.7h10.5V51.8Z" stroke="#fff" stroke-width="1.1" stroke-miterlimit="10"/><path d="M30.3 51.8h-3.8v15.6h3.8V51.8ZM15.5 51.8h-3.7v15.6h3.8V51.8Z" fill="#5582AB"/><path d="M38 52.8h11.4" stroke="#C15E42" stroke-width="2" stroke-miterlimit="10"/><path d="m39 52.1.1 25" stroke="#C15E42" stroke-width="2.4" stroke-miterlimit="10"/><path d="M41 69.8h-.7v3.4h.8v-3.4Z" fill="#FE9748"/></svg>