<svg width="260" height="151" viewBox="0 0 260 151" fill="none" xmlns="http://www.w3.org/2000/svg"><path d="M130 151c71.8 0 130-9.5 130-21.2 0-11.6-58.2-21-130-21s-130 9.4-130 21C0 141.5 58.2 151 130 151Z" fill="currentColor"/><g clip-path="url(#a)"><path d="M163 64.6v65.6H48.2c-2 0-3.7-1.7-3.7-3.7V65.9L163 64.6Z" fill="#EBEFF8"/><path d="M73 2v40.6c0 .8-.7 1.5-1.5 1.5H52.2c-.9 0-1.5-.7-1.5-1.5V2c0-.9.6-1.6 1.5-1.6h19.3c.9 0 1.5.7 1.5 1.6Z" fill="#DD6848"/><path d="M74.8 13.4h-9.3V10h9.3c.5 0 .8.4.8.8v1.7c0 .4-.3.8-.8.8Z" fill="#6F3E45"/><path d="M73 2v40.6c0 .8-.6 1.5-1.5 1.5H63V.5h8.5c.9 0 1.5.7 1.5 1.6Z" fill="#833C44"/><path d="M65.5 13.4H48.3a.4.4 0 0 1-.4-.4v-2.5c0-.2.2-.4.4-.4h17.2v3.3Z" fill="#DD6848"/><path d="M206.6 68.3V125a545.4 545.4 0 0 1-43.6 5.1V70.2s8.9-27.3 10.8-34.9c2-7.5 9.6-6.7 14.1-7.5a5 5 0 0 1 1.9.2c2.2.5 4.6 2.4 6.4 4a38 38 0 0 1 2.7 2.8l3 13.3 4.7 20.2Z" fill="#BBC2D5"/><path d="M194 79.5v28.3l-15.9.9V79.5c0-4.2 3.7-8 8-8h.3c4.1.2 7.6 4 7.6 8Z" fill="#3F484D"/><path d="M192.8 72.4a9.5 9.5 0 0 0-6.5-2.9c-5.6-.2-10 4-10 9.6v30.8c0 .4.3.8.7.7l17.8-1c.4-.1.7-.4.7-.8V79c0-2.6-1-5-2.7-6.7Zm.9 35.4-15.2.9c-.2 0-.4-.2-.4-.4V79.5c0-4.2 3.7-8 8-8h.3c4.1.2 7.6 3.9 7.6 8v28c0 .1-.1.3-.3.3Z" fill="#fff"/><path d="M212 69.6H205c-.6 0-1.1-.3-1.4-.9L185.5 26l-2.7-4 4.5-2.6 6.5-3.6 1.5 3.6 3.1 7.2 16.4 38.9c.8 2-.6 4.2-2.8 4.2Z" fill="#213D60"/><path opacity=".1" d="M206.6 68.3v14.4h-3c-.7 0-1.2-.4-1.4-1l-12.5-31.2-9.5 24.2a6 6 0 0 1-5.6 3.9L163 76.7l-118.5-.2V65.2S73 20 75.4 20l111.9-.5 19.3 49Z" fill="#213D60"/><path d="m193.8 17.5-.7 1.8-3.3 8.7L174 68a6 6 0 0 1-5.6 3.8H163l-118.5-.2H36a3 3 0 0 1-2.5-4.8A503 503 0 0 0 53.7 36l3.4-5.7c3.4-5.8 5.5-9.5 6.8-12a6 6 0 0 1 5.4-3.4h16.5l106-.5c1.5 0 2.6 1.6 2 3.1Z" fill="#5682AC"/><path d="M118.5 37.2c31.3 0 56.6-3 56.6-6.7s-25.3-6.7-56.6-6.7-56.6 3-56.6 6.7 25.3 6.7 56.6 6.7Z" fill="#5F8EB5"/><path d="M114.3 85.1v45H92.7v-45c0-.4.4-.7.8-.7h20c.3 0 .6.1.7.4l.1.3Z" fill="#3F484D"/><path opacity=".1" d="M59.3 109.4c-.6.4-6.1 1.3-6.1 1.3-.3 0-.4-.2-.4-.4V85.9c0-.2.1-.4.4-.4l6.8-.1-.7 24ZM77.6 109.4c.6.4 6.1 1.3 6.1 1.3.2 0 .4-.2.4-.4V85.9c0-.2-.2-.4-.4-.4l-6.8-.1.7 24Z" fill="#213D60"/><path d="m59.3 109.4-6.8.3c-.3 0-.4-.1-.4-.4v-24c0-.2.1-.4.4-.4l6.8-.1v24.6ZM77.5 109.4l6.3.3c.4 0 .8-.4.8-.8V85.6c0-.4-.3-.7-.7-.7l-6.4-.1v24.6Z" fill="#5682AC"/><path d="M76.4 85.9h-16v22.4h16V85.9Z" fill="#3F484D"/><path d="M59.3 84.8v24.6h18.2V84.8H59.3Zm17 23.5H60.6V85.9h15.9v22.4Z" fill="#fff"/><path opacity=".1" d="M130.4 109.8c-.6.4-6.3 1.3-6.3 1.3-.2 0-.4-.1-.4-.4V85.5c0-.2.2-.4.4-.4l7-.1-.7 24.8ZM149.3 109.8c.6.4 6.3 1.3 6.3 1.3.2 0 .4-.1.4-.4V85.5c0-.2-.2-.4-.4-.4l-7-.1.7 24.8Z" fill="#213D60"/><path d="m130.4 109.8-7 .3c-.3 0-.4-.1-.4-.4V85c0-.3.1-.4.3-.4l7.1-.1v25.4ZM149.2 109.8l6.5.3c.4 0 .8-.3.8-.8v-24c0-.5-.4-.8-.8-.8l-6.5-.1v25.4Z" fill="#5682AC"/><path d="M148 85.5h-16.4v23.2h16.5V85.5Z" fill="#3F484D"/><path d="M130.4 84.4v25.4h18.9V84.4h-18.9Zm17.7 24.3h-16.5V85.5h16.5v23.2Z" fill="#fff"/><path opacity=".1" d="m80.4 14.9-6.8 7.8a2 2 0 0 1-1.4.7l-11.4.4s1.8-3 3-5.6a6 6 0 0 1 5.5-3.3h11.1Z" fill="#213D60"/><path opacity=".3" d="m88 58.4.5-.2 14.4-13.5c.3-.3.4-.9.1-1.3l-4.5-5-7.4.5V47L88 58.4Z" fill="#213D60"/><path d="M88 58.4H70.1a.7.7 0 0 1-.7-.8V37.3l6.6-7.8h11.8v28.9Z" fill="#EFF2FA"/><path d="M82.3 40h-9.1v14.3h9.1V40Z" fill="#3F484D"/><path d="m98.5 39.7-.5 1.1L88.6 58c-.1.2-.4.4-.7.4V39h10.2l.4.7Z" fill="#BBC2D5"/><path d="M83 54.8H72.5V39.5H83v15.3Zm-9.5-1H82V40.6h-8.5v13.4Z" fill="#fff"/><path d="M100 39.7H86.5a1 1 0 0 1-.8-.3L77.5 31l-8 9h-2.8a.5.5 0 0 1-.4-.8l9.5-11c.2-.1.5-.3.9-.3H89c.3 0 .6.1.8.4l3 3 7.5 7.5c.3.4 0 1-.5 1Z" fill="#213D60"/><path opacity=".1" d="m99.5 39.6-.2.2h-.8l-3 5.5L88 41h-2.2c-.3 0-.5-.2-.7-.4L77.4 33l-8 7c-2.1-2.2 5.5-8.5 6-10 .4-1.6 3-.7 3.8-.6.6.2 6.9 6.7 10.2 7.5a62 62 0 0 0 8.5 1.4c1.3 0 1.6 1.3 1.6 1.3Z" fill="#213D60"/><path d="m92.8 31.2-6.7-.2c-6.2-.3-8.8-3.1-8.8-3.1h11.8c.3 0 .6.1.8.3l3 3Z" fill="#2E4E69"/><path opacity=".3" d="m141.4 58.4.5-.2 14.5-13.5c.3-.3.4-.9.1-1.3l-4.5-5-7.4.5V47l-3.2 11.4Z" fill="#213D60"/><path d="M141.4 58.4h-17.7a.7.7 0 0 1-.7-.8V37.3l6.5-7.8h11.9v28.9Z" fill="#EFF2FA"/><path d="M135.8 40h-9.1v14.3h9.1V40Z" fill="#3F484D"/><path d="m152 39.7-.6 1.1-9.3 17.2c-.2.2-.4.4-.7.4V39h10.2l.4.7Z" fill="#BBC2D5"/><path d="M136.4 54.8H126V39.5h10.3v15.3Zm-9.4-1h8.5V40.6H127v13.4Z" fill="#fff"/><path d="M153.5 39.7H140a1 1 0 0 1-.8-.3L131 31l-8 9h-2.8a.5.5 0 0 1-.5-.8l9.6-11c.2-.1.5-.3.8-.3h12.5c.3 0 .6.1.8.4l2.9 3 7.5 7.5c.4.4.1 1-.3 1Z" fill="#213D60"/><path opacity=".1" d="m153 39.6-.2.2h-.8l-3 5.5-7.6-4.3H139l-.7-.4L131 33l-8 7c-2.2-2.2 5.5-8.5 6-10 .4-1.6 3-.7 3.7-.6.7.2 7 6.7 10.3 7.5a62 62 0 0 0 8.5 1.4c1.3 0 1.6 1.3 1.6 1.3Z" fill="#213D60"/><path d="m146.3 31.2-6.7-.2c-6.2-.3-8.8-3.1-8.8-3.1h11.8c.3 0 .6.1.8.3l2.9 3Z" fill="#2E4E69"/><path opacity=".3" d="M73 2c0 .5-.3.8-.7.8H51.4a.8.8 0 0 1-.7-.7c0-.9.6-1.6 1.5-1.6h19.3c.9 0 1.5.7 1.5 1.6Z" fill="#E1A75A"/><path d="M123.7 44.8c7.2 1.9 4.4 4.5 11.8 4.1l.1-6.1s-1.2.3-3-4.2c-2-4.5-8.1-6.8-11-4.2-2.9 2.6-5.1 8.5 2 10.4Z" fill="#ACACAC"/><path d="M160.7 54.6c-.5.7-1.1 1.4-1.9 1.9l-1.2.8c-2.9 1.6-5.6 3.3-7 5-1 1-1.4 2.1-1.3 3.2.2 2.3.7 3 1.6 3.4l1.4.7.8.5c1.8 1.3 3.9 4.2 2.7 6.6-1 2.2-3.7 2.7-6.3 2l-1.3-.3-1-.4c-1.4-.7-2.3-1.7-3.3-2.7-1.3-1.3-2.5-2.5-4.9-2.7h-.9a11 11 0 0 0-4.6.9c-1.9.8-3.2 2.2-3.1 4 0 3.2 5.1 3.6 8.5 3 3.2-.3 6.4-.1 9.5.7a9 9 0 0 1 5.4 3.6c2.8 4.6 2.2 9.7-2 11.3-4.2 1.5-3.1 5.9-3.9 12.6h-7c-5-2.1-11.6-6.1-16.6-9.9-4-3-6.6-5.9-8.3-9.6-2.3-5-3.1-8.8.6-15.2l.4-.6c3.7-5.8 10.3-6.2 15-6.3 4.9-.1 5.3-1 7-2.2l.2-.1c1.7-1 2.6-1.2 3.4-2.6l1.7-3.2c.3-.6.4-1.2.4-1.8 0-.8-.2-1.5-.3-2 0-1.2-1.7-1-1.8-2.9 0-.8-1.2-6.2 5.2-9.2 9-4 12.2 2 13 3.5.4.5.6 1 .7 1.6.5 2.2.6 4.4-.8 6.4Z" fill="#BCBABA"/><path d="M123.7 38.3c-.3 0-.6.2-1 .7a1 1 0 0 1-.4.4h-.7c-.3 0-1-.6-1.6-1.2-.2-.3-.4-.6-.4-1-.2-.9 0-1.8.6-2.6 1-1.8 2.1-1.4 2.7-1.2.2 0 .4.1.5.3.2.2.3.4.2.6l.4 2.5.1.7c.1.6 0 1-.4.8Z" fill="#686969"/><path d="M125.9 54.4a5 5 0 0 1-2.2 3.8c-.6.5-1.4.9-2.3 1.1-.8.2-1.7.2-2.5 0a10 10 0 0 1-4.6-2.4l-1-.8a13.2 13.2 0 0 1-1.8-4c-.2-1-.2-2 0-2.9.2-1 .6-1.8 1.1-2.6 1.5-1.9 2.5-2.3 3.5-2l.8.1c.7.3 1.2.7 1.3 1.2 0 .7-.5 1.5-1.4 2.2-.4.4 0 0 0 .6 0 .7-.4.4-.2 1 .2.4 1 0 1 0a7 7 0 0 1 3.5-1.5l.7.1c1 .3 2.8 1.1 3.4 2.4.5 1.2.8 2.5.7 3.7Z" fill="#ACACAC"/><path d="M148.2 24.4a6 6 0 0 0-.3 1.1c0 .5-.1 1-.4 1.3-.4.7-1.4 1.3-2.2.5-.8-.8-1.4-1-1.4-2.4v-.4c.2-1.2 1-2.4 2-2.6 1.9-.4 2.4 2 2.3 2.5Z" fill="#BCBABA"/><path d="M160.7 54.6c-.5.7-1.1 1.4-1.9 1.9l-1.2.8c-2.9 1.6-5.6 3.3-7 5-1 1-1.4 2-1.3 3.2.2 2.3.7 3 1.6 3.4l1.4.7.8.5c-1 3.2-5.2 4.6-9.2 5.2-1.3-1.3-2.5-2.5-5-2.7h-.8c-1.6 0-3.2.3-4.6.9l-.2-.6c-.1-1.2-2-3.3-6.2-2.6-1.2.2-2.4.7-3.4 1.5-1 .7-1.9 1.6-2.5 2.6 0 0 2.3-.8 3 .2.7 1 0 3-1.6 4-1.6 1.1-5 1-4.7-2.6.1-1.7-.4-2.5-1-2.6 3.7-5.9 10.3-6.2 15-6.3 4.9-.2 5.3-1.1 7-2.3h.2c1.7-1.1 2.6-1.3 3.4-2.6a45 45 0 0 0 1.7-3.3c.2-.5.4-1.1.4-1.7 6-4 15.5-11.5 16.1-10.6.3.5.6 1 .7 1.6.6 2.2.7 4.4-.7 6.4Z" fill="#ACACAC"/><path d="M160.7 54.6c-.5.7-1.1 1.4-1.9 1.9l-1.2.8c-2.9 1.6-5.6 3.3-7 5-.3-1.2-.9-2.4-2-2.5-2-.2-2.7-.1-4.2 1.3 0 0 2.1-5 6-7.5 7-4.5 9-2.6 9.4-1.3.2.8.7 1.6 1 2.3Z" fill="#B4B2B3"/><path d="M155.8 76.8c-1.4 2.9-5.4 2.8-8.6 1.2-1.4-.7-2.3-1.7-3.3-2.7-1.3-1.3-2.5-2.5-4.9-2.7h-.9l-.7-1.4c-.6-2.2 1.8-3.4 2.7-3 .7.3 1.3.7 1.8 1.1 0 0 .4-1.7 2-1 1.5.5 2 1.7 1.3 2h-.7a1 1 0 0 1-.6-.4s.4 1.5 2.6 1.6c2.3.1 2.5-1.7 2.3-2.4-.3-.8 0-1.4.6-1 .5.2 1.1.8 1.5.8l1.4.7.8.5c1.8 1.4 4 4.3 2.7 6.7Z" fill="#BCBABA"/><path d="M147 74.8s2.2-1 3.5.5c1.3 1.3.7 1.8-.3 2.1-.5.2-1 .3-1.5.2-.5 0-1-.3-1.3-.6-.6-.7-.6-1.3-.8-1.6-.1-.3 0-.7.3-.6Z" fill="#B4B2B2"/><path d="M148 72.8c-.4.1-.2.7.3.7 0 0-.6.6 0 .6.7 0 1.6-.1 2.4.5 1 .6 1 .7.9 0-.1-.6-2-2.3-3.5-1.8Z" fill="#A6A5A5"/><g opacity=".7" fill="#A8A6A9"><path opacity=".7" d="M149.6 78.8ZM151.9 96c-4.2 1.7-3.1 6-3.8 12.6h-7.3c-5-2-11.6-6-16.6-9.8.9-3.3 2.8-6 5.7-6.4 4.3-.6 6.8 2 11 1 4.4-1 4.4-4.4 2.8-6-1.6-1.8-2.2-4.9 0-4.6 2 .4 5.8 1.6 5.2 0l-.5-1.6a9 9 0 0 1 5.4 3.6c2.8 4.6 2.3 9.7-2 11.3Z"/></g><path d="M133.6 86.7s.4-1.2 2.2-.7c1.7.5 3.2 1.9 4 1.5 0 0-.2.8-1.5.4-1.3-.5-2-1.1-3-.7 0 0-.4-.8-1.7-.5Z" fill="#99989A"/><path d="M122.6 72.8s.4-2.7 5-3.2c4.5-.5 5.7 2.6 5.7 2.6a6 6 0 0 0-5.9-1.6c-3.7 1-4.8 2.2-4.8 2.2Z" fill="#919090"/><path d="M123.7 38.3c-.3 0-.6.2-1 .7a1 1 0 0 1-.4.4h-.7c-.3 0-1-.6-1.6-1.2.4-.4.9-.5 1.6-.2 1.4.6 2-.4 2.5-1.2v.6c.1.7 0 1-.4 1Z" fill="#7A7B7A"/><path d="M117.3 58s.6-2 3.8-.4l1.1-.6s-1.7-.9-1.3-2.2c.5-1.4 2-1.6 2-1.6s-.6.2-.6-.8-.4-1.6-1.2-1.4c-1 .3-1 1.6-1 1.6s-2.4.6-2.2 2.2c0 0-2.1 0-.6 3.1Z" fill="#B4B2B2"/><path d="M125.9 54.4a5 5 0 0 1-2.2 3.8c-1.3 1-1.5-.7-.9-1.4l.6-1 .5-1.6v-1.4c-.2-.8-.8-1.3-1.5-2l-.9-.9c-.6-.7-.2-1.3.3-1.6 1 .3 2.8 1.1 3.4 2.4.5 1.2.8 2.5.7 3.7Z" fill="#919090"/><path d="M148 25.5c0 .4-.2.9-.4 1.3-.5.7-1.5 1.2-2.3.5-.7-.8-1.4-1-1.4-2.4v-.4c.6 1 1.3 1.7 2.2 1.4l1.9-.4Z" fill="#ACACAC"/><path d="M116 47c-1.8.8-1.8 1.1-3.5 3.6l-1 1.5c-.2-1-.2-2 0-3 .2-.9.6-1.8 1.1-2.6 1.5-1.8 2.6-2.2 3.6-2l.8.2c-.2.1-.3.3-.2.4.4 1 .8 1-.9 1.8Z" fill="#919090"/><path d="M112.3 51c0-1.2.4-2.2 1-3 1.3-1.4 2.4-2.3 3.4-1.9 1 .4 0 .4-1 .9-.9.5-2.7 2.5-3.4 4Z" fill="#B4B2B2"/><path d="M82 39.6v9.8s-.3 2.1-3.9 1.8c-3.6-.4-13-1-10.8-8 1-3.3 2-5.4 2.4-7.1.4-2 .1-3.4-1.9-5-.5-.6-1-1.1-1.2-1.7-1.6-3.2 1-7.4 5.2-6.2 1.8.5 3.6 1.6 4.9 3 2 2.2 2.9 5.2 1.3 7.8-1 1.7-.5 3 .5 3.9a8.5 8.5 0 0 0 3.5 1.7ZM116 18.2c-2 .8-1.7 3.7-.6 3.7 1.2 0 2.8-2.3 2.8-2.3s.5-2.5-2.2-1.4Z" fill="#ACACAC"/><path d="M73.6 13.7c0 2.5-2.6 6.2-4.5 5.1-1-.6-1.8-1.6-2-2.6-.4-2 .7-4 4.1-4.5 1.7-.2 2.4.7 2.4 2Z" fill="#A8A6A9"/><path d="M114.3 85v45.1l-16.6 3.8V89c0-.4.3-.9.6-1l15.4-3.5c.2 0 .4.1.5.3l.1.4Z" fill="#DD6848"/><path d="m107.9 131.5-1.9.5V86.3l1.9-.5v45.7Z" fill="#C25E42"/><path d="M97.8 112.8v-2.4l16.5-3.8v2.4l-16.5 3.8ZM114.3 85v1.7l-16.6 3.8V89c0-.4.3-.9.6-1l15.4-3.5c.2 0 .4.1.5.3l.1.4Z" fill="#C25E42"/><path d="M99.6 87.7v45.8l-1.9.4v-45c0-.4.3-.9.6-1l1.3-.2Z" fill="#C25E42"/><path d="M100.2 113h-.5v-5.7h.5c.3-.1.5.1.5.5v4.2c0 .4-.2.8-.5 1Z" fill="#F8994B"/><path d="M78.5 38c0 .8-.2 1.9-.5 3.5-.8 5.5-7.5 3.5-7-2.6.2-2.7-.5-2.9-1.4-2.8.5-2 .1-3.3-1.9-5-.5-.5-1-1-1.2-1.6 1.4-.7 3.8-.5 6.3-1.1a9.4 9.4 0 0 0 3.8-2.1c2 2.2 3 5.2 1.4 7.7-1 1.8-.4 3 .5 4ZM73.6 13.7h-.7c-2.4-.6-1-.4-4.9 2l-1 .5c-.3-2 .8-4 4.2-4.5 1.7-.2 2.4.7 2.4 2Z" fill="#BCBABA"/></g><defs><clipPath id="a"><path fill="#fff" transform="translate(33 .5)" d="M0 0h182v133.3H0z"/></clipPath></defs></svg>
