<svg width="146" height="106" viewBox="0 0 146 106" fill="none" xmlns="http://www.w3.org/2000/svg"><g clip-path="url(#a)"><path d="M102.3 52.4V106H8.1c-.5 0-1-.2-1.4-.3a3 3 0 0 1-1.7-2.8V53.5l35.2-.4 62.1-.7Z" fill="#EBEFF8"/><path d="M105 42.5H40.5v57.7H105V42.5Z" fill="#A1A8BB"/><path d="M28.5 1.2v33.2c0 .7-.6 1.2-1.3 1.2H11.3c-.7 0-1.2-.6-1.2-1.2V1.2c0-.7.5-1.2 1.2-1.2h16c.6 0 1.2.5 1.2 1.2Z" fill="#DD6848"/><path d="M30 10.5h-7.8V7.9H30c.3 0 .6.2.6.6v1.4c0 .3-.3.6-.6.6Z" fill="#6F3E45"/><path d="M28.5 1.2v33.2c0 .7-.6 1.2-1.3 1.2h-7V0h7c.7 0 1.3.5 1.3 1.2Z" fill="#833C44"/><path d="M22.2 10.5h-14a.3.3 0 0 1-.4-.3v-2c0-.2.2-.3.3-.3h14.1v2.6Z" fill="#DD6848"/><path d="M138 55.4v46.4c-14.3 2.5-35.7 4.2-35.7 4.2V57s7.3-22.3 8.9-28.5c1.6-6.2 7.9-5.6 11.6-6.2l1.5.1c.3 0 .6.2.8.3a16 16 0 0 1 4.5 3l2.2 2.3 2.5 10.9 3.8 16.5ZM40.8 46.1v54l-34 5.6A3 3 0 0 1 5 103V47.8l12.3-14.6h16.5l6.9 13Z" fill="#BBC2D5"/><path d="M127.8 64.5v23.2l-13.1.7V64.5c0-3.4 3-6.5 6.5-6.5h.3c3.4.2 6.3 3.2 6.3 6.5Z" fill="#AEC3CE"/><path d="M128 65v1.3c0-3.2-2.9-6.6-6-6.7h-.3c-3.2 0-6 3-6 6.3v22.8l-1.2.1V64.5c0-3.4 3.3-6.5 6.8-6.5h.3c4 0 6.5 3.6 6.5 7Z" fill="#6F9AA7"/><path d="M122.9 56.9h-1v32.5h1V56.9Z" fill="#6F9AA7"/><path d="M128.5 68.3v1.4l-14.6-.3V68l14.6.3Z" fill="#fff"/><path d="M128.5 69.4v1.4l-14.6-.2v-1.4l14.6.2ZM128.5 79.6V81l-14.8.2v-1.4l14.8-.2Z" fill="#6F9AA7"/><path d="M128.5 78.4v1.4l-14.8.2.2-1.4 14.6-.2Z" fill="#fff"/><path d="M126.8 58.8a7.9 7.9 0 0 0-5.4-2.4 7.8 7.8 0 0 0-8.2 7.8v25.2c0 .4.3.6.6.6l14.6-.9c.4 0 .6-.3.6-.6V64.2c0-2.1-.8-4-2.2-5.4Zm.7 29-12.5.6c-.1 0-.3-.1-.3-.3V64.5c0-3.4 3-6.5 6.5-6.5h.3c3.4.2 6.3 3.2 6.3 6.5v23l-.3.2Z" fill="#fff"/><path d="M121.9 56.8h-1.4v32.5h1.4V56.8Z" fill="#fff"/><path d="M142.5 56.5h-5.6c-.5 0-1-.3-1.2-.8l-14.9-35-2.3-3.3 3.8-2 5.3-3 1.3 3 2.5 5.8L144.9 53c.6 1.7-.6 3.5-2.4 3.5Z" fill="#213D60"/><path opacity=".1" d="M138 55.4v11.7h-2.4c-.5 0-1-.3-1.1-.7l-10.3-25.5-7.7 19.8a5 5 0 0 1-4.7 3.1l-9.4-1.5V57s7.2-22.3 8.8-28.5c1.6-6.2 8-5.5 11.6-6.1h1.5l.9.4L138 55.4Z" fill="#213D60"/><path d="m127.6 13.9-.5 1.5-2.8 7-10.3 26H0c3.9-5.6 8.7-13 12.6-19.4l2.7-4.7c2.8-4.7 4.6-7.8 5.6-9.8a5 5 0 0 1 4.5-2.7h9.1l4.4-.1 87-.4c1.3 0 2.2 1.4 1.7 2.6Z" fill="#5682AC"/><path d="M65.8 30c25.7 0 46.5-2.5 46.5-5.5S91.5 19 65.8 19s-46.5 2.5-46.5 5.5 20.8 5.4 46.5 5.4Z" fill="#5F8EB5"/><path opacity=".1" d="M34.5 11.7 29 18.2c-.3.3-.7.4-1.1.5l-9.4.3 2.5-4.5a5 5 0 0 1 4.5-2.7h9.1Z" fill="#213D60"/><path opacity=".3" d="m40.7 46.8.4-.2 11.9-11c.2-.3.3-.7 0-1l-3.6-4-6.1.2v6.7l-2.6 9.3Z" fill="#213D60"/><path d="M40.7 46.8H26.1a.6.6 0 0 1-.6-.6V29.6L31 23h9.8v23.7Z" fill="#EFF2FA"/><path d="M36 31.8h-7.4v11.6H36V31.8Z" fill="#AEC3CE"/><path d="m49.4 31.5-.5 1-7.7 14c-.1.1-.3.3-.5.3v-16H49l.4.7Z" fill="#BBC2D5"/><path d="M36 38.8v-.7h-7.4v.7H36ZM36.1 32.8v-.7h-7.5v.7H36Z" fill="#6F9AA7"/><path d="M28.9 43h.7V32.2H29v11Z" fill="#6F9AA7"/><path d="M36.6 43.8H28V31.3h8.5v12.5Zm-7.7-.7h6.9V32h-7v11Z" fill="#fff"/><path d="M50.6 31.5h-11c-.3 0-.5 0-.7-.2l-6.7-7-6.7 7.5h-2.3a.4.4 0 0 1-.3-.8l7.8-8.9.7-.3h10.3c.2 0 .5.1.6.3l2.4 2.4 6.2 6.3c.3.3 0 .7-.3.7Z" fill="#213D60"/><path d="M32.4 31.8h-.6v11.6h.6V31.8Z" fill="#fff"/><path d="M36 38v-.5h-7.4v.6H36Z" fill="#fff"/><path opacity=".1" d="m50.2 31.4-.2.1h-.6L46.9 36l-6.2-3.5h-1.9a1 1 0 0 1-.5-.3L32 26l-6.5 5.8c-1.8-2 4.4-7 4.8-8.3.4-1.2 2.6-.5 3.1-.4.6.1 5.7 5.4 8.5 6 2.7.7 5.8 1.2 6.9 1.2 1.1.1 1.4 1 1.4 1Z" fill="#213D60"/><path d="m44.7 24.5-5.5-.1c-5.1-.3-7.2-2.6-7.2-2.6h9.7c.2 0 .5.1.6.3l2.4 2.4Z" fill="#2E4E69"/><path opacity=".3" d="m84.6 46.8.4-.2 11.9-11c.2-.3.3-.7.1-1l-3.7-4-6 .2v6.7l-2.7 9.3Z" fill="#213D60"/><path d="M84.6 46.8H70a.6.6 0 0 1-.6-.6V29.6l5.4-6.5h9.8v23.7Z" fill="#EFF2FA"/><path d="M80 31.8h-7.5v11.6H80V31.8Z" fill="#AEC3CE"/><path d="m93.3 31.5-.5 1-7.6 14-.6.3v-16H93l.3.7Z" fill="#BBC2D5"/><path d="M80 38.9V38h-7.5v.8H80ZM80 32.9V32h-7.5v.8H80Z" fill="#6F9AA7"/><path d="M72.8 43h.7V32.2h-.7v11Z" fill="#6F9AA7"/><path d="M80.5 43.8H72V31.3h8.5v12.5Zm-7.7-.7h6.9V32h-7v11Z" fill="#fff"/><path d="M94.5 31.5h-11c-.3 0-.5 0-.6-.2l-6.8-7-6.6 7.5h-2.3a.4.4 0 0 1-.4-.8l7.8-8.8c.2-.2.5-.3.7-.3h10.3c.2 0 .5 0 .6.2l2.4 2.5 6.2 6.2c.3.3 0 .7-.3.7Z" fill="#213D60"/><path d="M76.3 31.8h-.6v11.6h.6V31.8Z" fill="#fff"/><path d="M80 38.1v-.6h-7.5v.6H80Z" fill="#fff"/><path opacity=".1" d="m94.1 31.4-.2.1h-.6L90.8 36l-6.2-3.5h-1.8a1 1 0 0 1-.6-.3L76 26l-6.6 5.8c-1.8-2 4.5-7 4.8-8.3.4-1.2 2.6-.5 3.2-.4.5.1 5.6 5.4 8.4 6 2.7.7 5.9 1.2 7 1.2 1 .1 1.3 1 1.3 1Z" fill="#213D60"/><path d="m88.6 24.5-5.5-.1C78 24 76 21.8 76 21.8h9.7c.2 0 .5.1.6.3l2.4 2.4Z" fill="#2E4E69"/><path opacity=".3" d="M28.5 1.2c0 .4-.3.7-.7.7H10.7a.6.6 0 0 1-.6-.7c0-.7.5-1.2 1.2-1.2h15.9c.7 0 1.3.5 1.3 1.2Z" fill="#E1A75A"/><path d="M102.3 65v3.8l-61.5-.5L5 68v-3.8l35.8.3 61.5.5Z" fill="#8591B2"/><path d="M102.3 60.2v4.7L5 64.2V64l34.3-3.8h63Z" fill="#EDF1FA"/><path d="m55.2 63.2 6.6-2.3h25.7l-5.1 2.3H55.2Z" fill="#DF6849"/><path d="M90.6 57.1h-1.2v6.7h1.2v-6.7Z" fill="#A46B40"/><path d="M90.4 57.4h-.9c-.5 0-.9-.4-.9-.9v-.8c0-.5.4-1 .9-1h.9c.5 0 .9.5.9 1v.8c0 .5-.4 1-1 1ZM84.8 94.8h-1.3v6.7h1.3v-6.7ZM102.3 97.6H84.8v3.9h17.5v-3.9Z" fill="#A46B40"/><path d="M102.3 95.3H88V99h14.2v-3.8Z" fill="#A46B40"/><path d="M102.3 92.4H91.8v3.8h10.5v-3.8Z" fill="#A46B40"/><path d="M102.3 89.5h-7.1v3.8h7.1v-3.8Z" fill="#A46B40"/><path d="M102.3 86.7h-4v3.9h4v-3.9Z" fill="#A46B40"/><path d="M102.3 84.2h-1v3.9h1v-3.9ZM84.6 95.1h-.9c-.5 0-1-.4-1-.9v-.8c0-.5.5-1 1-1h.9c.5 0 .9.5.9 1v.8c0 .5-.4 1-.9 1ZM89.5 56l-.3 1 14 5.7.3-.8-14-5.8Z" fill="#A46B40"/><path d="M34.7 72.1V102l-12.1 2.5-5.3-.3V68h14.3l3.1 4Z" fill="#DF6849"/><path d="M22.2 72v32.4l-5-.3V68h1l4 3.8Z" fill="#C85D40"/><path d="m24.7 93.6 7.9-1.1V99l-8 1.3v-6.7Z" fill="#833C44"/><path d="m84.8 97.6 3.3-2v2h-3.3ZM91.8 92.4l3.4-2v2h-3.4ZM95.2 89.5l3-2v2h-3ZM98.2 86.7l3-2v2h-3ZM88 95.3l3.8-2v2H88Z" fill="#89552C"/><path d="M65.6 73.3H52.8v17.2h12.8V73.3Z" fill="#AEC3CE"/><path d="M66 83.3v-.7H52.2v.7H66Z" fill="#6F9AA7"/><path d="M52 72.4v19h14.6v-19H51.9Zm13.7 18.1H52.8V73.3h12.9v17.2Z" fill="#fff"/><path d="M65.7 73.3v1.2h-12v16h-.9V73.3h12.9Z" fill="#6F9AA7"/><path d="M60.1 74.5v16h-.9V73.3l.9 1.2Z" fill="#6F9AA7"/><path d="M66 82.6v-.9H52.2v.9H66Z" fill="#fff"/><path d="M59.4 73h-.9v18.2h1V73Z" fill="#fff"/><path d="M102 78.5 84.1 94l.6.7 17.9-15.5-.6-.7Z" fill="#A46B40"/><path d="M62 95.1v4.3l-9.2-1c-.4-.1-2.5-.4-1.8-2.1.6-1.8-1.7-2.4.7-2.8 2.4-.4 2.6-.3 4.7 0 2 .3 5.6 1.6 5.6 1.6Z" fill="#885024"/><path d="M63.3 92.2v2.9H51.7l-2-4s1-5 6.5-5h.6a6.5 6.5 0 0 1 5 2.8 10 10 0 0 1 1.5 3.3Z" fill="#9F5F2E"/><path d="M50 94.1c1 0 1.9-.7 1.9-1.6 0-1-1-1.6-2-1.6s-2 .7-2 1.6c0 .9 1 1.6 2 1.6Z" fill="#6D401D"/><path d="M49.3 94s.4 0 .4 2 .3 3.6 2.1 3.6h10.6v-2.2h-9.6c-.6 0-1-.3-1-.9v-4H50l-.6 1.5ZM54.8 90.8a.4.4 0 1 0 0-.8.4.4 0 0 0 0 .8ZM56.9 90.8a.4.4 0 1 0 0-.8.4.4 0 0 0 0 .8ZM54.8 92.7a.4.4 0 1 0 0-.8.4.4 0 0 0 0 .8ZM56.9 92.7a.4.4 0 1 0 0-.8.4.4 0 0 0 0 .8Z" fill="#6D401D"/><path d="M61.6 95.1v4.3l8.4-1c.4-.1 2.2-.4 1.6-2.1-.5-1.8 1.5-2.4-.7-2.8-2.1-.4-2.3-.3-4.1 0-1.9.3-5.2 1.6-5.2 1.6Z" fill="#885024"/><path d="m72.7 91-2 4.1H59v-2.8s.4-1.7 1.6-3.3l.5-.7c1-1 2.4-2 4.3-2.1h.7c5.6 0 6.6 4.9 6.6 4.9Z" fill="#9F5F2E"/><path d="M72.6 94.1c1.1 0 2-.7 2-1.6 0-1-.9-1.6-2-1.6-1 0-1.9.7-1.9 1.6 0 .9.9 1.6 2 1.6Z" fill="#6D401D"/><path d="M73.3 94s-.4 0-.4 2-.2 3.6-2 3.6h-9.3v-2.2h8.2c.5 0 1-.3 1-.9v-4h1.8l.7 1.5ZM67.7 90.8a.4.4 0 1 0 0-.8.4.4 0 0 0 0 .8ZM65.7 90.8a.4.4 0 1 0 0-.8.4.4 0 0 0 0 .8ZM67.7 92.7a.4.4 0 1 0 0-.8.4.4 0 0 0 0 .8ZM65.7 92.7a.4.4 0 1 0 0-.8.4.4 0 0 0 0 .8ZM52.5 98.7v1.2c0 .2-.2.4-.4.5l-.6.2-.2.3v.1c0 .2.2.3.3.3h1c.6 0 1-.5 1-1V99l-1.1-.3Z" fill="#6D401D"/><path d="M70.1 98.7v1.2c0 .2.2.4.4.5l.6.2.2.3v.1c0 .2-.2.3-.3.3h-1a1 1 0 0 1-1-1V99l1.1-.3Z" fill="#6D401D"/><path d="M61.2 88.3v7.2h-.3l-.6.6s-3.8.4-1.7-.2h.1l.3-.1c1.7-.6 1.6-1 1.6-1V89c-.1-1.5-2.8-2.5-3.8-2.9 2 .2 3.4 1.1 4.4 2.2Z" fill="#885024"/><path d="m62 96.2-.6-.7h-.2v-7.2c1-1 2.4-2 4.3-2.2-1 .4-3.6 1.4-3.7 2.9v5.8s-.2.4 1.6 1h.2l.2.1c2 .6-1.8.3-1.8.3Z" fill="#885024"/><path d="M46.7 60v2.5H48V60l5-1.5v2.4h1.3v-4.7H31.9l-3.8 2.5v3.8h1.5V60h17Z" fill="#A46B40"/><path d="M39.1 55.1s.2-.8-.8-.8h-6a3 3 0 0 0-1 .2c-1.2.4-3.7 1.5-3.7 3.2v1.1h7.6l3.9-3.7Z" fill="#fff"/><path d="M34.1 60.6v-3.3l4.2-3 15 .2c.6 0 1.2.5 1.2 1.2v2.7l-7.2 2.2H34.1Z" fill="#1B3D60"/></g><defs><clipPath id="a"><path fill="#fff" d="M0 0h145v106H0z"/></clipPath></defs></svg>