<svg width="131" height="67" viewBox="0 0 131 67" fill="none" xmlns="http://www.w3.org/2000/svg">
<path d="M134.74 62.9772L105.74 110.588L101.249 117.947C100.687 118.92 99.4291 119.248 98.4613 118.689L2.97645 63.5608C2.00859 63.002 1.66348 61.7487 2.22519 60.7758L6.4287 53.2507L33.2807 5.16997C33.8425 4.19706 36.0889 2.96041 38.0968 4.30212L132.823 55.7495C134.066 56.4263 134.973 57.5786 135.335 58.9428C135.682 60.2982 135.466 61.7546 134.74 62.9772Z" fill="white"/>
<path opacity="0.2" d="M99.7611 115.103C99.2345 116.015 98.0483 116.323 97.1258 115.791L6.16263 63.2731C5.24015 62.7405 4.91407 61.559 5.44068 60.6469L34.4025 8.73741C34.9291 7.82531 37.0448 6.67535 38.962 7.96467L129.176 57.0298C130.358 57.6717 131.223 58.7586 131.574 60.0358C131.926 61.313 131.739 62.6846 131.05 63.8073L99.7611 115.103Z" fill="#46D0FA"/>
<path d="M95.0885 108.638L14.2424 61.9617C13.6456 61.6171 13.1813 61.2864 13.2142 61.2293L18.0395 52.8716C18.0725 52.8146 18.5911 53.0513 19.1879 53.3959L100.034 100.072C100.631 100.417 101.095 100.748 101.062 100.805L96.2368 109.162C96.2038 109.22 95.6852 108.983 95.0885 108.638Z" fill="white"/>
<path d="M109.173 57.9413C108.651 58.7752 107.809 59.2212 107.279 58.9157L75.6282 40.885C75.0232 40.5357 74.9845 39.5202 75.5023 38.6233C76.0201 37.7264 76.958 37.2544 77.5478 37.5949L109.169 55.8517C109.675 56.1638 109.695 57.1075 109.173 57.9413Z" fill="#8097EC"/>
<path d="M91.8369 87.1997C91.3152 88.0336 90.4992 88.434 89.9611 88.1437L58.6211 70.2724C58.0313 69.9319 57.9423 68.9684 58.4753 68.0803C58.9931 67.1834 59.8808 66.7635 60.4857 67.1127L91.7897 85.1861C92.3039 85.483 92.3435 86.3572 91.8369 87.1997Z" fill="#8097EC"/>
<path d="M105.415 64.4484C104.972 65.1454 103.867 65.2778 102.93 64.7364L72.6865 47.62C71.6796 47.0589 71.2204 46.0033 71.6568 45.2823L71.7007 45.2063C72.1219 44.4766 73.2809 44.3553 74.2877 44.9163L104.548 62.1437C105.485 62.685 105.902 63.6753 105.474 64.3811L105.415 64.4484Z" fill="#8097EC"/>
<path d="M101.616 70.7475C101.182 71.4293 100.077 71.5617 99.1399 71.0203L68.9896 53.9171C68.0067 53.3496 67.5387 52.3092 67.9663 51.6034L68.0102 51.5274C68.4466 50.8065 69.6055 50.6851 70.5885 51.2526L100.74 68.458C101.678 68.9993 102.094 69.9896 101.66 70.6714L101.616 70.7475Z" fill="#8097EC"/>
<path d="M23.6098 27.7823C23.5342 27.7387 23.5088 27.6429 23.5527 27.5669L34.1111 9.27924C35.1994 7.39423 37.4069 6.78373 39.267 7.85766L47.403 12.555C47.4787 12.5986 47.504 12.6944 47.4602 12.7704C47.4163 12.8464 47.3207 12.8723 47.2451 12.8286L39.109 8.13129C37.3699 7.12721 35.3775 7.67947 34.3594 9.44287L23.7922 27.7457C23.781 27.8001 23.6854 27.826 23.6098 27.7823Z" fill="#BFCFF6"/>
<path d="M111.24 65.3618L120.923 71.0125L111.24 65.3618Z" fill="#F3F6F9"/>
<path d="M50.5923 60.9843L20.4354 43.5733C20.2128 43.4447 20.1234 43.1762 20.2374 42.9787L36.9405 14.0482C37.0545 13.8507 37.3318 13.7938 37.5544 13.9224L67.7112 31.3334C67.9338 31.462 68.0233 31.7305 67.9092 31.928L51.2062 60.8585C51.0921 61.0561 50.8149 61.1129 50.5923 60.9843Z" fill="white"/>
<path d="M51.2427 60.1208C53.1615 54.9259 53.495 49.3664 53.495 49.3664L44.9922 57.5829C44.9922 57.5829 44.9717 57.724 44.9124 58.0111L49.6215 60.7146C50.2331 61.0524 51.001 60.7767 51.2427 60.1208Z" fill="url(#paint0_linear)"/>
<path d="M26.1559 47.1656C27.1067 46.2306 27.757 45.6577 27.757 45.6577L27.9815 34.6198C27.9815 34.6198 26.2094 35.2642 20.9176 41.8466C20.264 42.6625 20.4491 43.8708 21.3622 44.3979L26.1559 47.1656Z" fill="url(#paint1_linear)"/>
<path d="M42.0456 56.3395L48.4012 42.4317C44.0075 37.126 35.6205 35.3892 35.6205 35.3892L27.5729 47.9837L42.0456 56.3395Z" fill="url(#paint2_linear)"/>
<path d="M41.825 33.0984L39.7152 36.5155C39.5051 36.8531 39.5431 37.2881 39.7964 37.5874C40.5078 38.4112 42.0558 39.9474 44.155 40.318C44.5817 40.3961 44.9925 40.159 45.1541 39.7474L46.6825 35.8875L41.8317 33.0869L41.825 33.0984Z" fill="url(#paint3_linear)"/>
<path d="M43.7289 25.7204C43.7289 25.7204 40.7369 32.2997 41.1582 34.6541C41.1582 34.6541 44.9525 37.3342 46.9102 37.3172C46.9102 37.3172 49.7326 34.801 52.0164 30.5817C52.0164 30.5817 54.3898 26.919 50.4321 24.2057C45.7752 21.0428 43.7289 25.7204 43.7289 25.7204Z" fill="url(#paint4_linear)"/>
<path d="M50.4891 32.2426C50.4891 32.2426 51.4902 31.352 52.0952 31.7012C52.7001 32.0505 50.2805 34.5545 49.4358 34.0668L50.4891 32.2426Z" fill="url(#paint5_linear)"/>
<path d="M42.9742 28.2855C42.9742 28.2855 43.0634 26.9448 42.4169 26.694C41.7656 26.425 41.2612 29.8818 42.1721 30.2547L42.9742 28.2855Z" fill="url(#paint6_linear)"/>
<path d="M43.3541 26.5468C43.3541 26.5468 40.3757 32.8126 40.7909 35.8365C40.8266 36.1173 40.9839 36.3457 41.1989 36.5005C42.0056 37.0274 44.0822 38.3334 45.433 38.7614C45.7695 38.8639 46.1531 38.7794 46.4299 38.5109C46.9323 38.0361 47.3504 37.6809 47.4811 37.4809C48.0633 36.578 49.7526 34.1265 52.0535 30.7738C52.0464 30.6015 52.0346 30.4111 52.0276 30.2388C51.4774 31.0073 48.0057 35.8869 47.1453 35.5584C46.9608 35.4825 46.7981 35.3427 46.7981 35.3427C46.3717 34.9741 46.4534 34.5164 46.2681 34.0729C45.9311 33.3123 44.9031 32.8259 44.0855 32.9505C43.7512 33.0023 43.4638 33.1575 42.9649 33.099C42.6476 33.0687 42.3832 32.9467 42.3147 32.9072C41.7573 32.5548 42.4982 29.9535 43.9539 26.6942L43.3541 26.5468Z" fill="url(#paint7_linear)"/>
<path d="M51.3006 28.0268C51.3006 28.0268 46.6508 28.9372 43.279 26.9752C43.279 26.9752 43.8654 21.5312 48.0493 22.983C52.2331 24.4348 51.8221 25.4366 51.8221 25.4366C51.8221 25.4366 56.7578 27.0624 51.7342 31.2296L51.3006 28.0268Z" fill="url(#paint8_linear)"/>
<path d="M26.1453 47.1592L29.4667 49.0768L38.9227 36.3624C34.3308 34.2467 27.9823 34.62 27.9823 34.62L26.5774 44.961C26.4726 45.696 26.3204 46.4342 26.1453 47.1592Z" fill="url(#paint9_linear)"/>
<path d="M45.0337 58.0651C45.6668 57.3903 46.3124 56.7993 46.9989 56.2166L53.5136 49.3611C51.4188 44.159 45.8535 40.0127 45.8535 40.0127L40.0688 55.1986L45.0337 58.0651Z" fill="url(#paint10_linear)"/>
<defs>
<linearGradient id="paint0_linear" x1="52.0611" y1="42.8296" x2="48.3301" y2="58.6979" gradientUnits="userSpaceOnUse">
<stop stop-color="#040559"/>
<stop offset="1" stop-color="#14188A"/>
</linearGradient>
<linearGradient id="paint1_linear" x1="26.5989" y1="33.8436" x2="22.8124" y2="49.9481" gradientUnits="userSpaceOnUse">
<stop stop-color="#040559"/>
<stop offset="1" stop-color="#14188A"/>
</linearGradient>
<linearGradient id="paint2_linear" x1="113" y1="-15.7881" x2="99.4387" y2="-4.59302" gradientUnits="userSpaceOnUse">
<stop stop-color="#F09690"/>
<stop offset="1" stop-color="#EC7869"/>
</linearGradient>
<linearGradient id="paint3_linear" x1="43.002" y1="36.9993" x2="37.6557" y2="47.6899" gradientUnits="userSpaceOnUse">
<stop stop-color="#F3BDBB"/>
<stop offset="1" stop-color="#F09690"/>
</linearGradient>
<linearGradient id="paint4_linear" x1="46.562" y1="28.0493" x2="48.5864" y2="44.5496" gradientUnits="userSpaceOnUse">
<stop stop-color="#F3BDBB"/>
<stop offset="1" stop-color="#F09690"/>
</linearGradient>
<linearGradient id="paint5_linear" x1="50.1811" y1="27.6047" x2="52.2055" y2="44.105" gradientUnits="userSpaceOnUse">
<stop stop-color="#F3BDBB"/>
<stop offset="1" stop-color="#F09690"/>
</linearGradient>
<linearGradient id="paint6_linear" x1="42.344" y1="28.5662" x2="44.3684" y2="45.0665" gradientUnits="userSpaceOnUse">
<stop stop-color="#F3BDBB"/>
<stop offset="1" stop-color="#F09690"/>
</linearGradient>
<linearGradient id="paint7_linear" x1="41.2033" y1="30.268" x2="49.5572" y2="35.0912" gradientUnits="userSpaceOnUse">
<stop stop-color="#040559"/>
<stop offset="1" stop-color="#14188A"/>
</linearGradient>
<linearGradient id="paint8_linear" x1="43.6414" y1="35.8333" x2="52.6286" y2="20.267" gradientUnits="userSpaceOnUse">
<stop stop-color="#040559"/>
<stop offset="1" stop-color="#14188A"/>
</linearGradient>
<linearGradient id="paint9_linear" x1="33.6078" y1="34.7995" x2="29.5853" y2="51.9075" gradientUnits="userSpaceOnUse">
<stop stop-color="#040559"/>
<stop offset="1" stop-color="#14188A"/>
</linearGradient>
<linearGradient id="paint10_linear" x1="49.9662" y1="38.9192" x2="45.5646" y2="57.6398" gradientUnits="userSpaceOnUse">
<stop stop-color="#040559"/>
<stop offset="1" stop-color="#14188A"/>
</linearGradient>
</defs>
</svg>
