<svg width="130" height="70" viewBox="0 0 130 70" fill="none" xmlns="http://www.w3.org/2000/svg">
<path d="M134.74 62.9772L105.74 110.588L101.249 117.947C100.687 118.92 99.4291 119.248 98.4613 118.689L2.97645 63.5608C2.00859 63.002 1.66348 61.7487 2.22519 60.7758L6.4287 53.2507L33.2807 5.16997C33.8425 4.19706 36.0889 2.96041 38.0968 4.30212L132.823 55.7495C134.066 56.4263 134.973 57.5786 135.335 58.9428C135.682 60.2982 135.466 61.7546 134.74 62.9772Z" fill="#F0F0F0"/>
<path opacity="0.2" d="M99.7611 115.103C99.2345 116.015 98.0483 116.323 97.1258 115.791L6.16263 63.2731C5.24015 62.7405 4.91407 61.559 5.44068 60.6469L34.4025 8.73741C34.9291 7.82531 37.0448 6.67535 38.962 7.96467L129.176 57.0298C130.358 57.6717 131.223 58.7586 131.574 60.0358C131.926 61.313 131.739 62.6846 131.05 63.8073L99.7611 115.103Z" fill="#B5B5B5"/>
<path d="M95.0885 108.638L14.2424 61.9617C13.6456 61.6171 13.1813 61.2864 13.2142 61.2293L18.0395 52.8716C18.0725 52.8146 18.5911 53.0513 19.1879 53.3959L100.034 100.072C100.631 100.417 101.095 100.748 101.062 100.805L96.2368 109.162C96.2038 109.22 95.6852 108.983 95.0885 108.638Z" fill="white"/>
<path d="M109.173 57.9418C108.651 58.7757 107.809 59.2217 107.279 58.9161L75.6282 40.8855C75.0232 40.5362 74.9845 39.5207 75.5023 38.6238C76.0201 37.7269 76.958 37.2549 77.5478 37.5954L109.169 55.8522C109.675 56.1642 109.695 57.108 109.173 57.9418Z" fill="#A4A7B6"/>
<path d="M91.8369 87.2002C91.3152 88.0341 90.4992 88.4345 89.9611 88.1441L58.6211 70.2729C58.0313 69.9324 57.9423 68.9689 58.4753 68.0808C58.9931 67.1839 59.8808 66.764 60.4857 67.1132L91.7897 85.1866C92.3039 85.4835 92.3435 86.3577 91.8369 87.2002Z" fill="#A4A7B6"/>
<path d="M105.415 64.4489C104.972 65.1459 103.867 65.2783 102.93 64.7369L72.6865 47.6204C71.6796 47.0594 71.2204 46.0038 71.6568 45.2828L71.7007 45.2068C72.1219 44.4771 73.2809 44.3557 74.2877 44.9168L104.548 62.1442C105.485 62.6855 105.902 63.6758 105.474 64.3816L105.415 64.4489Z" fill="#A4A7B6"/>
<path d="M101.616 70.7475C101.182 71.4293 100.077 71.5617 99.1399 71.0203L68.9896 53.9171C68.0067 53.3496 67.5387 52.3092 67.9663 51.6034L68.0102 51.5274C68.4466 50.8065 69.6055 50.6851 70.5885 51.2526L100.74 68.458C101.678 68.9993 102.094 69.9896 101.66 70.6714L101.616 70.7475Z" fill="#A4A7B6"/>
<path d="M111.24 65.3613L120.923 71.012L111.24 65.3613Z" fill="#F3F6F9"/>
<path d="M108.658 69.8701L118.385 75.4452L108.658 69.8701Z" fill="#F3F6F9"/>
<path d="M50.5923 60.9848L20.4354 43.5738C20.2128 43.4452 20.1234 43.1767 20.2374 42.9792L36.9405 14.0487C37.0545 13.8511 37.3318 13.7943 37.5544 13.9228L67.7112 31.3339C67.9338 31.4624 68.0233 31.7309 67.9092 31.9285L51.2062 60.859C51.0921 61.0565 50.8149 61.1134 50.5923 60.9848Z" fill="white"/>
<path d="M51.2427 60.1213C53.1615 54.9264 53.495 49.3669 53.495 49.3669L44.9922 57.5834C44.9922 57.5834 44.9717 57.7245 44.9124 58.0116L49.6215 60.7151C50.2331 61.0529 51.001 60.7772 51.2427 60.1213Z" fill="#A3A7B6"/>
<path d="M26.1559 47.1656C27.1067 46.2306 27.757 45.6577 27.757 45.6577L27.9815 34.6198C27.9815 34.6198 26.2094 35.2642 20.9176 41.8466C20.264 42.6625 20.4491 43.8708 21.3622 44.3979L26.1559 47.1656Z" fill="#A3A7B6"/>
<path d="M42.0456 56.339L48.4012 42.4312C44.0075 37.1255 35.6205 35.3888 35.6205 35.3888L27.5729 47.9832L42.0456 56.339Z" fill="url(#paint0_linear)"/>
<path d="M41.825 33.0984L39.7152 36.5155C39.5051 36.8531 39.5431 37.2881 39.7964 37.5874C40.5078 38.4112 42.0558 39.9474 44.155 40.318C44.5817 40.3961 44.9925 40.159 45.1541 39.7474L46.6825 35.8875L41.8317 33.0869L41.825 33.0984Z" fill="#E4E4E4"/>
<path d="M43.7289 25.7204C43.7289 25.7204 40.7369 32.2997 41.1582 34.6541C41.1582 34.6541 44.9525 37.3342 46.9102 37.3172C46.9102 37.3172 49.7326 34.801 52.0164 30.5817C52.0164 30.5817 54.3898 26.919 50.4321 24.2057C45.7752 21.0428 43.7289 25.7204 43.7289 25.7204Z" fill="#E4E4E4"/>
<path d="M50.4891 32.2431C50.4891 32.2431 51.4902 31.3525 52.0952 31.7017C52.7001 32.051 50.2805 34.555 49.4358 34.0673L50.4891 32.2431Z" fill="#E4E4E4"/>
<path d="M42.9742 28.2864C42.9742 28.2864 43.0634 26.9458 42.4169 26.6949C41.7656 26.426 41.2612 29.8828 42.1721 30.2557L42.9742 28.2864Z" fill="#E4E4E4"/>
<path d="M43.3541 26.5473C43.3541 26.5473 40.3757 32.8131 40.7909 35.837C40.8266 36.1177 40.9839 36.3462 41.1989 36.5009C42.0056 37.0279 44.0822 38.3339 45.433 38.7619C45.7695 38.8644 46.1531 38.7799 46.4299 38.5114C46.9323 38.0366 47.3504 37.6814 47.4811 37.4814C48.0633 36.5784 49.7526 34.127 52.0535 30.7743C52.0464 30.602 52.0346 30.4116 52.0276 30.2393C51.4774 31.0077 48.0057 35.8874 47.1453 35.5589C46.9608 35.483 46.7981 35.3432 46.7981 35.3432C46.3717 34.9746 46.4534 34.5169 46.2681 34.0734C45.9311 33.3128 44.9031 32.8264 44.0855 32.951C43.7512 33.0027 43.4638 33.158 42.9649 33.0995C42.6476 33.0692 42.3832 32.9472 42.3147 32.9077C41.7573 32.5552 42.4982 29.954 43.9539 26.6946L43.3541 26.5473Z" fill="#A3A7B6"/>
<path d="M51.3006 28.0268C51.3006 28.0268 46.6508 28.9372 43.279 26.9752C43.279 26.9752 43.8654 21.5312 48.0493 22.983C52.2331 24.4348 51.8221 25.4366 51.8221 25.4366C51.8221 25.4366 56.7578 27.0624 51.7342 31.2296L51.3006 28.0268Z" fill="#A3A7B6"/>
<path d="M26.1453 47.1592L29.4667 49.0768L38.9227 36.3624C34.3308 34.2467 27.9823 34.62 27.9823 34.62L26.5774 44.961C26.4726 45.696 26.3204 46.4342 26.1453 47.1592Z" fill="#A3A7B6"/>
<path d="M45.0337 58.0651C45.6668 57.3903 46.3124 56.7993 46.9989 56.2166L53.5136 49.3611C51.4188 44.159 45.8535 40.0127 45.8535 40.0127L40.0688 55.1986L45.0337 58.0651Z" fill="#A3A7B6"/>
<defs>
<linearGradient id="paint0_linear" x1="113" y1="-15.7886" x2="99.4387" y2="-4.59351" gradientUnits="userSpaceOnUse">
<stop stop-color="#C4C4C4"/>
<stop offset="1" stop-color="#B7B4B4"/>
</linearGradient>
</defs>
</svg>
