<svg width="198" height="186" viewBox="0 0 198 186" fill="none" xmlns="http://www.w3.org/2000/svg">
<ellipse cx="102.5" cy="169" rx="95.5" ry="17" fill="currentColor" fill-opacity="0.2"/>
<path d="M166.607 88.2662C160.583 98.9916 131.12 155.1 131.412 149.927C131.412 149.927 126.027 149.222 127.101 137.545C127.207 136.364 127.381 135.075 127.637 133.658C130.398 118.241 144.325 60.5226 148.247 70.3028C152.169 80.0829 150.341 85.4756 153.432 76.3247C156.522 67.1737 159.858 58.333 164.042 64.1237C164.278 64.4545 164.522 64.7926 164.758 65.1303C168.682 70.7983 172.283 78.1531 166.607 88.2662Z" fill="url(#paint0_linear)"/>
<path opacity="0.3" d="M166.606 88.2662C160.583 98.9917 131.119 155.1 131.412 149.927C131.412 149.927 126.026 149.222 127.1 137.545C129.458 130.035 137.172 123.934 140.268 121.139C144.916 116.941 146.769 116.484 146.657 106.29C146.545 96.0948 149.219 91.9303 158.788 79.4546C163.108 73.8206 164.513 68.8697 164.757 65.1304C168.682 70.7984 172.282 78.1531 166.606 88.2662Z" fill="url(#paint1_linear)"/>
<path d="M186.263 126.972C174.067 135.215 142.392 149.403 133.706 149.447C131.761 149.454 130.969 148.751 131.813 147.115C131.813 147.115 158.065 67.4631 181.476 70.2404C184.61 70.6121 188.861 71.7708 191.241 73.9571C191.65 74.3371 192.009 74.729 192.326 75.1399C197.31 81.6062 190.981 91.8306 186.945 97.1842C185.445 99.1757 183.437 100.637 181.809 102.504C180.424 104.09 179.557 106.422 182.197 106.787C184.629 107.121 186.811 104.671 189.131 104.374C191.766 104.034 193.411 105.659 194.32 108.995C196.234 116.026 192.128 123.014 186.263 126.972Z" fill="url(#paint2_linear)"/>
<path opacity="0.3" d="M186.263 126.972C174.067 135.215 142.392 149.403 133.705 149.448C135.337 147.155 137.217 144.615 139.379 141.83C152.183 125.297 167.865 132.739 164.586 117.752C161.313 102.766 165.192 89.5714 178.857 85.8936C186.945 83.7184 190.649 78.7897 192.326 75.133C197.31 81.5993 190.981 91.8237 186.945 97.1772C185.444 99.1688 183.437 100.63 181.809 102.497C180.424 104.083 179.557 106.415 182.197 106.78C184.629 107.114 186.811 104.664 189.131 104.367C191.766 104.027 193.411 105.652 194.32 108.988C196.234 116.026 192.127 123.014 186.263 126.972Z" fill="url(#paint3_linear)"/>
<path d="M178.418 152.813L175.225 152.676L171.705 142.467C171.705 142.46 178.933 143.28 178.418 152.813Z" fill="url(#paint4_linear)"/>
<path d="M103.212 166.975L124.137 164.021C124.137 164.021 126.711 148.073 117.496 146.158C108.288 144.235 102.773 156.432 103.212 166.975Z" fill="url(#paint5_linear)"/>
<path d="M105.045 148.166L105.038 148.166C104.388 148.2 103.779 148.432 103.179 148.769C102.596 149.029 101.9 149.341 101.881 149.772L101.881 149.779C99.5987 151.96 97.9779 156.1 97.7684 160.81C97.4848 167.078 99.8202 172.252 103.155 172.981L103.148 172.988C103.376 173.032 106.15 174.169 115.07 173.549C115.471 169.747 116.539 148.152 116.539 148.152C116.539 148.152 109.458 147.485 105.045 148.166Z" fill="url(#paint6_linear)"/>
<path d="M122.275 160.665C121.966 167.838 118.392 173.636 114.365 173.609C110.414 173.586 107.513 167.948 107.817 161.026C108.122 154.111 111.521 148.333 115.475 148.113C119.506 147.889 122.583 153.499 122.275 160.665Z" fill="url(#paint7_linear)"/>
<path d="M119.122 160.69C118.903 165.775 116.509 169.91 113.804 169.919C111.141 169.93 109.182 165.901 109.395 160.934C109.616 155.967 111.926 151.842 114.594 151.72C117.303 151.6 119.34 155.611 119.122 160.69Z" fill="white"/>
<path d="M163.854 143.049C163.323 143.082 162.688 143.271 162.194 143.57C161.724 143.801 161.837 144.099 161 144.432L161 144.439C159.545 146.342 157.956 149.898 157.775 153.954C157.535 159.352 159.484 163.806 162.189 164.431L162.217 164.432C162.396 164.468 164.668 165.444 171.906 164.891C172.235 161.615 173.16 143.017 173.16 143.017C173.16 143.017 167.435 142.451 163.854 143.049Z" fill="url(#paint8_linear)"/>
<path d="M177.807 153.777C177.541 159.955 174.629 164.952 171.361 164.944C168.155 164.932 165.812 160.084 166.076 154.122C166.339 148.168 169.104 143.185 172.319 142.981C175.59 142.78 178.072 147.606 177.807 153.777Z" fill="url(#paint9_linear)"/>
<path d="M175.248 153.806C175.059 158.189 173.108 161.75 170.918 161.767C168.757 161.779 167.178 158.317 167.362 154.038C167.553 149.76 169.434 146.203 171.6 146.094C173.793 145.979 175.436 149.43 175.248 153.806Z" fill="white"/>
<path d="M26.7657 139.746L26.7587 139.746C25.9517 139.711 25.3221 140.088 24.5691 140.418C23.8478 140.659 23.365 141.189 23.0737 141.643L23.0731 141.657C19.9626 143.97 18.0342 148.78 17.7921 154.408C17.4702 161.894 20.3977 168.209 24.5774 169.232L24.5354 169.237C24.8185 169.298 28.2196 170.762 38.8907 170.433C39.3487 166.104 40.564 141.253 40.564 141.253C40.564 141.253 32.1529 139.434 26.7657 139.746Z" fill="url(#paint10_linear)"/>
<path d="M38.0453 170.473C42.7328 170.675 46.8142 164.298 47.1612 156.229C47.5082 148.16 43.9895 141.456 39.302 141.254C34.6145 141.052 30.5331 147.43 30.1861 155.499C29.839 163.567 33.3577 170.272 38.0453 170.473Z" fill="url(#paint11_linear)"/>
<path d="M37.384 166.207C40.5462 166.343 43.3107 161.778 43.5588 156.011C43.8068 150.244 41.4444 145.458 38.2823 145.322C35.1201 145.186 32.3556 149.751 32.1075 155.519C31.8595 161.286 34.2218 166.071 37.384 166.207Z" fill="url(#paint12_linear)"/>
<path d="M181.402 147.303C181.643 148.659 181.2 150.047 180.225 151.016L178.419 152.813C178.183 147.276 175.513 142.91 172.056 142.761C168.271 142.598 164.984 147.559 164.713 153.848C164.649 155.337 164.762 156.763 165.019 158.085L164.247 158.365L123.113 164.165C123.26 163.328 123.499 162.467 123.537 161.584C123.572 160.784 123.619 160.005 123.652 159.24C123.652 159.233 123.652 159.233 123.652 159.233C122.569 152.669 119.449 147.573 114.878 147.376C109.765 147.156 105.283 153.167 104.955 160.792C104.865 162.879 105.059 164.859 105.532 166.657L99.3822 167.522C99.375 167.528 99.3487 167.653 99.3342 167.666C99.1374 167.867 97.6065 169.104 90.3921 168.794L10.818 165.371C7.21424 165.216 4.66409 161.956 4.81878 158.36L4.83165 158.06C4.8909 156.683 5.60597 155.452 6.87095 154.886C6.87095 154.886 4.93727 148.474 7.00814 141.001C7.84066 138.012 9.25868 134.86 11.7152 131.871C13.142 130.134 14.8868 128.46 17.0515 126.908C17.0515 126.908 26.4327 119.784 43.1301 118.544C43.1301 118.544 57.3355 109.125 70.2201 103.03C76.5733 100.027 83.456 98.6505 90.4826 98.9527L136.552 100.934C144.545 101.278 152.297 103.842 158.92 108.343L170.602 116.276C170.602 116.276 173.395 118.103 176.141 122.32C179.267 127.11 182.329 134.985 181.147 146.741L181.402 147.303Z" fill="url(#paint13_linear)"/>
<path d="M99.3685 167.514C99.3612 167.521 99.3489 167.646 99.3344 167.659C98.7629 167.983 97.9939 169.658 79.5533 168.321L10.8181 165.364C7.21441 165.209 4.66426 161.949 4.81895 158.353L4.83182 158.053C4.83541 157.97 4.72709 157.896 4.73764 157.812C4.87648 156.529 5.62851 155.411 6.81546 154.877L86.8162 159.077C86.8162 159.077 94.4238 158.025 96.9534 159.493C97.3071 159.696 97.5541 159.951 97.6731 160.262C98.6507 162.813 99.9269 166.36 99.3685 167.514Z" fill="url(#paint14_linear)"/>
<g opacity="0.8">
<path opacity="0.8" d="M25.4722 141.942L25.4273 142.985C25.3923 143.799 25.0254 144.55 24.4168 145.089C23.8085 145.62 23.0095 145.885 22.204 145.816L13.6624 145.086C11.6137 144.914 9.70252 143.975 8.30438 142.451L6.95286 140.978C7.78538 137.989 9.23819 134.838 11.6877 131.849C11.7153 131.857 11.75 131.859 11.7779 131.86L15.75 135.279C17.8536 137.091 20.379 138.335 23.1012 138.891C24.5311 139.19 25.535 140.481 25.4722 141.942Z" fill="white"/>
</g>
<g opacity="0.4">
<path opacity="0.4" d="M63.5179 142.379C62.9254 143.03 61.9623 143.546 61.3779 143.521C50.685 143.061 39.999 142.601 29.3342 142.136C28.7498 142.111 27.9525 141.526 27.5641 140.833C27.1754 140.147 27.3866 139.612 28.0475 139.641C39.8188 140.147 51.597 140.654 63.3961 141.161C64.0431 141.189 64.1102 141.736 63.5179 142.379Z" fill="url(#paint15_linear)"/>
<path opacity="0.4" d="M59.7175 146.6C59.0887 147.284 58.2009 147.831 57.7281 147.804C49.0388 147.43 40.3568 147.05 31.6814 146.676C31.2083 146.656 30.4888 146.047 30.074 145.318C29.659 144.596 29.7809 144.03 30.3236 144.053C40.1538 144.476 49.9907 144.906 59.8349 145.329C60.3842 145.36 60.3391 145.923 59.7175 146.6Z" fill="url(#paint16_linear)"/>
</g>
<path opacity="0.8" d="M72.5917 148.206C70.6458 148.073 69.1485 146.587 69.2227 144.862L69.2678 143.811C69.3385 142.169 70.81 140.853 72.6674 140.772L76.1591 140.616L97.1047 136.052L96.5403 138.642C95.6819 142.557 92.5268 145.746 88.2625 147.012L85.142 147.937C83.0876 148.546 80.9099 148.78 78.7417 148.631L72.5917 148.206Z" fill="white"/>
<path d="M96.9367 159.568L88.194 161.569L4.61264 157.974C4.75507 156.607 5.56276 155.492 6.74971 154.958L86.7783 159.159C86.7855 159.153 94.407 158.101 96.9367 159.568Z" fill="url(#paint17_linear)"/>
<path d="M151.612 156.072C151.605 156.072 151.605 156.072 151.598 156.072C151.343 155.51 151.12 155.675 151.139 155.397C151.153 155.23 152.363 138.429 152.163 131.59C151.985 125.665 151.044 124.551 150.957 124.464C150.746 124.336 150.661 124.047 150.762 123.807C150.877 123.554 151.175 123.434 151.428 123.543C151.784 123.705 152.966 124.752 153.171 131.487C153.376 138.382 152.154 155.294 152.139 155.468C152.12 155.746 151.883 156.084 151.612 156.072Z" fill="url(#paint18_linear)"/>
<path opacity="0.2" d="M181.409 147.303L181.155 146.728C182.33 134.971 179.274 127.096 176.149 122.306C174.05 122.334 171.201 123.257 171.205 128.018C171.216 135.539 169.547 139.349 163.694 142.541C160.918 144.052 157.887 145.323 155.391 147.299C153.168 149.072 152.043 151.888 149.783 153.547C145.962 156.352 141.002 154.821 136.704 154.434C132.788 154.085 123.905 153.514 123.66 159.219C123.66 159.226 123.66 159.226 123.66 159.226C123.627 159.991 123.579 160.77 123.545 161.57C123.507 162.454 123.254 163.321 123.113 164.151L164.248 158.351L165.02 158.071C164.756 156.756 164.65 155.323 164.714 153.834C164.984 147.552 168.279 142.584 172.056 142.747C175.514 142.896 178.184 147.262 178.42 152.799L180.226 151.002C181.201 150.047 181.643 148.665 181.409 147.303Z" fill="url(#paint19_linear)"/>
<path d="M127.997 104.114C127.997 104.114 122.035 117.63 120.605 119.59C120.472 119.772 120.3 120.043 120.098 120.195C118.174 121.667 113.608 121.847 113.608 121.847L46.6399 118.966C62.0706 108.123 75.1236 101.84 75.1236 101.84L127.997 104.114Z" fill="url(#paint20_linear)"/>
<path d="M168.666 117.44C168.666 117.44 161.395 120.054 151.676 122.389C151.427 120.894 151.006 119.015 150.28 116.935C148.954 113.086 146.612 108.552 142.494 104.465C145.802 104.851 149.664 105.659 153.7 107.268C158.654 109.238 163.871 112.403 168.666 117.44Z" fill="url(#paint21_linear)"/>
<path d="M149.189 122.966C144.347 124.054 139.043 125.025 133.793 125.565C130.803 125.869 127.834 126.034 124.985 126.002C124.156 125.994 123.328 125.966 122.514 125.924C122.514 125.924 122.514 125.917 122.521 125.917C122.669 125.387 128.659 104.742 133.41 104.326C134.501 104.233 136.227 104.126 138.392 104.185C143.33 108.175 146.078 112.99 147.596 117.07C148.453 119.351 148.929 121.414 149.189 122.966Z" fill="url(#paint22_linear)"/>
<path opacity="0.3" d="M120.099 120.181C118.174 121.653 113.608 121.84 113.608 121.84L46.6399 118.959C62.0706 108.116 75.1236 101.833 75.1236 101.833L76.0697 101.873C77.5279 102.487 78.9184 103.864 80.1268 105.749C84.992 113.36 113.854 108.991 120.099 120.181Z" fill="url(#paint23_linear)"/>
<path opacity="0.3" d="M124.985 126.002C124.156 125.994 123.328 125.966 122.514 125.924C122.514 125.924 122.515 125.917 122.522 125.917C123.19 125.932 124.025 125.968 124.985 126.002Z" fill="url(#paint24_linear)"/>
<path opacity="0.3" d="M147.602 117.064C148.458 119.359 148.927 121.414 149.188 122.966C144.346 124.054 139.042 125.024 133.791 125.565C134.56 124.867 135.274 123.977 135.922 122.848C138.726 117.95 143.341 117.285 147.602 117.064Z" fill="url(#paint25_linear)"/>
<path opacity="0.3" d="M168.664 117.44C168.664 117.44 161.393 120.054 151.674 122.389C151.425 120.894 151.004 119.015 150.278 116.935C152.849 116.787 155.072 116.486 156.403 115.017C158.731 112.433 156.112 109.317 153.698 107.268C158.652 109.238 163.869 112.403 168.664 117.44Z" fill="url(#paint26_linear)"/>
<path d="M122.289 126.89C122.289 126.89 124.771 118.612 127.798 118.407C130.825 118.203 139.522 116.117 140.124 120.276C140.726 124.435 139.079 126.427 134.713 126.497C130.354 126.561 127.463 126.185 127.463 126.185L125.36 128.249C125.36 128.256 122.029 130.35 122.289 126.89Z" fill="url(#paint27_linear)"/>
<path d="M121.288 126.847C121.288 126.847 123.77 118.569 126.796 118.364C129.823 118.16 138.521 116.074 139.122 120.233C139.724 124.392 138.077 126.384 133.711 126.454C129.352 126.517 126.462 126.142 126.462 126.142L124.359 128.205C124.358 128.212 121.02 130.306 121.288 126.847Z" fill="url(#paint28_linear)"/>
<path opacity="0.61" d="M38.782 94.2275C36.881 94.2832 35.0287 93.8028 33.4202 92.8418C28.5318 89.9102 21.3038 85.0636 14.7999 78.7269C6.54825 70.6842 1.80615 62.5091 0.768599 54.4802L0.754674 54.3549L0.552734 20.0948C0.552734 13.3264 4.96755 7.82524 13.261 4.21818C20.113 1.23783 29.1933 -0.245377 38.782 0.0331601C48.2592 0.304734 57.0332 2.26146 63.53 5.52034C71.2455 9.39201 75.2983 14.8374 75.2983 21.2925L75.1172 54.0276L75.1033 54.146C74.1563 61.8336 69.7902 69.7789 62.0817 77.8217C55.8981 84.2698 48.9068 89.374 44.109 92.5424C42.5144 93.5938 40.676 94.1718 38.782 94.2275Z" fill="url(#paint29_linear)"/>
<path opacity="0.61" d="M40.6623 94.2275C38.7892 94.2832 36.9578 93.8028 35.3771 92.8418C30.5514 89.9102 23.4209 85.0636 17.0006 78.7269C8.86033 70.6842 4.1809 62.5091 3.15727 54.4802L3.14335 54.3549L2.94141 20.0948C2.94141 13.3264 7.30051 7.82524 15.4825 4.21818C22.244 1.23783 31.199 -0.245377 40.6693 0.0331601C50.0212 0.304734 58.6837 2.26146 65.09 5.52034C72.708 9.39201 76.7051 14.8374 76.7051 21.2925L76.5101 54.0346L76.4962 54.153C75.5631 61.8406 71.2597 69.7859 63.6486 77.8286C57.5487 84.2768 50.6479 89.381 45.9128 92.5493C44.346 93.5938 42.5355 94.1718 40.6623 94.2275Z" fill="url(#paint30_linear)"/>
<path opacity="0.61" d="M5.19727 20.1227L5.3992 54.2087C7.64143 71.6034 28.0791 85.6835 36.9853 91.0314C39.534 92.5633 42.7928 92.4728 45.3275 90.8085C54.0457 85.0707 73.3623 70.6355 75.4305 53.9163L75.6115 21.2717C75.6115 -2.95411 5.19727 -5.16849 5.19727 20.1227Z" fill="url(#paint31_linear)"/>
<path d="M41.1639 85.7738C41.0037 85.7808 40.753 85.7529 40.5024 85.5997C36.8396 83.3784 29.7299 78.7338 23.5534 72.6617C16.8754 66.1021 13.0246 59.7236 12.1403 53.7351L11.9453 20.2131C11.9523 16.996 14.5009 14.2455 19.4937 12.0381C25.0644 9.57998 32.9749 8.29174 41.1639 8.48672C49.2693 8.6817 56.95 10.3111 62.277 12.9503C66.9843 15.283 69.3658 18.0405 69.3727 21.1462L69.1917 53.5053C68.37 59.2989 64.756 65.5451 58.4053 72.1185C52.4377 78.2951 45.4673 83.1904 41.8254 85.5719C41.5747 85.732 41.331 85.7738 41.1639 85.7738Z" fill="url(#paint32_linear)"/>
<path opacity="0.61" d="M40.3279 83.4829C36.6234 81.2059 30.0429 76.798 24.2981 71.1507C18.024 64.9741 14.3961 59.0482 13.5396 53.568L13.3516 20.241C13.3585 17.9431 15.4684 15.8331 19.6187 13.9948C24.8969 11.6551 32.4592 10.4295 40.3349 10.6036C48.1339 10.7777 55.4803 12.3166 60.5358 14.8165C64.4632 16.7593 66.4477 18.8762 66.4477 21.1184L66.2667 53.3591C65.4659 58.6792 62.0399 64.4936 56.0513 70.6841C50.4875 76.429 44.0185 81.0457 40.3279 83.4829Z" fill="url(#paint33_linear)"/>
<path d="M38.0863 58.4495C36.9095 58.4495 35.8371 57.8855 35.2452 56.9663L26.0465 42.6565C25.2457 41.417 25.6774 39.6135 27.0214 38.5968C28.3932 37.5592 30.2176 37.7124 31.0811 38.9798L37.8495 48.9166L47.9465 29.9064C48.9283 28.0611 51.3377 26.8982 53.364 27.3439C55.4461 27.8035 56.2957 29.7602 55.2163 31.6891L41.178 56.7156C40.5931 57.7532 39.4581 58.4147 38.2116 58.4565C38.1629 58.4495 38.1281 58.4495 38.0863 58.4495Z" fill="white"/>
<path d="M103.24 49.0407L103.797 47.1954C103.797 47.1954 103.456 43.3725 105.218 44.1454C106.98 44.9184 107.62 46.6801 106.29 47.4531C104.96 48.226 104.57 49.7301 104.57 49.7301L103.24 49.0407Z" fill="url(#paint34_linear)"/>
<path d="M153.049 49.8763L152.102 48.0241C152.102 48.0241 151.725 43.8947 150.006 45.0576C148.286 46.2205 147.937 48.219 149.504 48.7831C151.071 49.3471 151.767 50.8721 151.767 50.8721L153.049 49.8763Z" fill="url(#paint35_linear)"/>
<path d="M124.242 176.583C124.242 176.583 124.73 178.561 124.744 179.278C124.758 179.995 116.868 180.991 116.75 180.469C116.631 179.946 117.947 178.978 118.901 178.602C119.855 178.226 122.655 177.196 122.655 177.196L124.242 176.583Z" fill="url(#paint36_linear)"/>
<path d="M122.16 174.738L122.613 177.21C122.613 177.21 123.581 177.746 124.354 177.21L124.542 174.466L122.16 174.738Z" fill="url(#paint37_linear)"/>
<path d="M138.628 178.7C138.628 178.7 139.115 180.677 139.129 181.395C139.143 182.112 131.254 183.108 131.135 182.585C131.01 182.056 132.333 181.095 133.287 180.719C134.241 180.343 137.04 179.313 137.04 179.313L138.628 178.7Z" fill="url(#paint38_linear)"/>
<path d="M136.547 176.855L136.999 179.327C136.999 179.327 137.967 179.863 138.74 179.327L138.928 176.583L136.547 176.855Z" fill="url(#paint39_linear)"/>
<path d="M118.378 109.539C117.612 111.468 116.846 113.397 116.08 115.326C116.191 125.973 116.749 137.518 117.974 149.815C118.886 158.965 120.07 167.6 121.421 175.692C122.661 175.538 123.893 175.378 125.133 175.225C126.644 171.52 128.329 165.957 127.988 159.279C127.632 152.315 125.453 151.563 125.056 144.899C124.541 136.265 127.967 133.674 129.067 123.145C129.485 119.121 129.568 113.898 128.475 107.666C125.105 108.286 121.741 108.912 118.378 109.539Z" fill="url(#paint40_linear)"/>
<path opacity="0.3" d="M128.469 107.659C126.652 108 124.834 108.334 123.024 108.676C120.189 114.678 119.744 120.722 120.538 123.32C121.659 126.989 123.915 128.013 124.096 131.773C124.277 135.499 122.167 136.634 121.13 141.118C120.412 144.224 120.886 146.988 121.875 152.392C123.852 163.276 126.77 166.423 124.841 170.198C124.291 171.27 123.253 172.579 121.102 173.686C121.213 174.355 121.318 175.023 121.429 175.685C122.668 175.532 123.901 175.371 125.14 175.218C126.652 171.514 128.337 165.95 127.996 159.272C127.64 152.308 125.461 151.556 125.064 144.892C124.549 136.258 127.975 133.667 129.075 123.139C129.479 119.121 129.562 113.898 128.469 107.659Z" fill="url(#paint41_linear)"/>
<path d="M123.574 112.485C126.046 121.718 128.365 131.62 130.398 142.163C132.857 154.885 134.59 166.932 135.788 178.143C137.153 178.073 138.518 178.004 139.883 177.934C144.402 166.883 144.151 159.662 143.002 155.038C142.557 153.255 141.463 149.781 140.858 144.502C140.433 140.826 140.447 137.999 140.468 134.6C140.516 127.15 141.171 125.471 140.83 119.803C140.509 114.483 140.314 111.795 138.671 110.347C134.347 106.524 124.333 112.053 123.574 112.485Z" fill="url(#paint42_linear)"/>
<path d="M105.504 48.9432C104.494 48.8735 103.491 48.8108 102.489 48.7412C100.964 50.8302 98.0737 55.4191 97.9902 61.5469C97.844 72.3472 106.151 85.3549 115.225 86.7685C119.716 87.4648 126.22 83.3982 127.042 80.585C127.271 79.805 128.873 77.2564 127.132 74.9933C122.481 68.9491 115.155 70.1677 111.158 66.9227C108.282 64.576 105.211 59.8131 105.504 48.9432Z" fill="url(#paint43_linear)"/>
<path d="M145.196 83.7534C143.72 87.5972 139.291 90.118 139.089 97.1301C138.97 101.239 140.259 107.443 141.094 111.475C141.902 115.34 142.313 116.307 141.637 117.554C140.008 120.555 134.256 120.193 122.76 119.483C118.247 119.204 116.291 118.849 115.183 117.31C114.417 116.245 114.438 115.145 114.647 113.759C114.842 112.457 115.197 110.897 115.218 108.898C115.267 104.212 113.415 103.585 111.026 96.023C109.439 90.9884 107.913 86.1627 108.805 80.2995C109.23 77.4863 109.954 72.7163 113.644 70.1468C115.552 68.8168 118.289 68.7193 123.693 68.5661C130.371 68.3851 133.713 68.2876 136.296 69.3948C136.673 69.555 144.555 73.0576 145.614 79.7007C145.871 81.2814 145.439 82.5766 145.196 83.7534Z" fill="url(#paint44_linear)"/>
<path d="M153.064 48.8528C152.2 49.5979 151.337 50.343 150.473 51.088C151.441 54.3678 152.151 58.8732 149.979 62.5986C146.964 67.7585 129.597 68.622 124.026 73.6148C121.276 76.0798 129.458 78.8722 128.156 86.8383C144.032 87.9316 156.796 78.6911 158.85 67.5218C160.535 58.3161 154.442 50.5379 153.064 48.8528Z" fill="url(#paint45_linear)"/>
<path d="M123.511 61.8257C123.511 61.8257 123.824 64.2977 124.736 66.0873C125.565 67.7098 129.304 68.4688 130.077 68.7822C130.85 69.0955 128.803 70.3629 126.686 70.7459C124.562 71.1358 118.42 71.1358 117.25 70.4116C116.087 69.6874 118.072 69.5899 119.555 68.9075C121.039 68.2251 121.679 65.1681 121.303 63.8312C120.927 62.5081 123.511 61.8257 123.511 61.8257Z" fill="url(#paint46_linear)"/>
<path d="M119.382 61.6933C118.755 60.9482 118.644 59.5903 119.277 58.6921C119.821 57.9191 120.726 57.7659 121.269 57.6754C122.843 57.4108 124.883 57.9609 125.656 59.3884C126.115 60.231 125.315 62.0763 125.196 62.4105C125.057 62.7865 124.778 62.9258 124.528 63.2183C124.18 63.6222 123.636 64.2628 122.752 65.3282C122.662 65.0288 122.529 64.6667 122.334 64.2698C122.258 64.1166 121.951 63.5247 121.513 63.0442C120.628 62.0832 119.974 62.4036 119.382 61.6933Z" fill="url(#paint47_linear)"/>
<path d="M124.04 64.3953C124.04 64.3953 123.086 66.164 121.004 66.1361C119.138 66.1152 118.643 61.9581 119.785 61.0111C120.168 60.6977 120.955 60.5306 121.61 60.6768C122 60.7604 122.132 60.9136 122.766 61.0459C123.351 61.1643 123.511 61.0946 123.692 61.2269C123.922 61.401 124.103 61.8397 123.803 63.0792C124.137 62.7032 124.555 62.543 124.869 62.6684C124.917 62.6892 125.05 62.7658 125.126 62.8982C125.419 63.3577 125.015 63.9914 124.04 64.3953Z" fill="url(#paint48_linear)"/>
<path d="M123.769 60.976C123.686 61.0456 123.978 61.3659 124.02 61.8395C124.11 62.7586 123.24 63.9076 122.293 64.0538C121.736 64.1374 121.562 63.8101 120.629 63.7614C120.051 63.7335 119.577 63.831 119.278 63.9146C119.041 64.9382 119.368 65.927 120.064 66.3587C120.817 66.8253 121.729 66.4701 122.105 66.3169C122.362 66.2195 123.177 65.9061 123.567 65.1192C123.978 64.3045 123.504 63.8449 123.999 63.2809C124.25 62.9954 124.584 62.8631 124.89 62.3199C124.974 62.1737 125.029 62.0414 125.057 61.9578C124.563 61.4704 123.894 60.8715 123.769 60.976Z" fill="url(#paint49_linear)"/>
<path d="M119.974 64.2489C119.974 64.2489 120.385 64.4369 121.081 64.3603C121.116 64.3533 121.151 64.3672 121.157 64.3812C121.178 64.4438 120.747 64.7641 120.329 64.6736C120.036 64.604 119.793 64.3463 119.828 64.2697C119.841 64.2419 119.911 64.2419 119.974 64.2489Z" fill="url(#paint50_linear)"/>
<path opacity="0.3" d="M139.09 97.13C138.971 101.238 140.26 107.443 141.095 111.475C141.903 115.339 142.314 116.307 141.638 117.554C140.009 120.555 134.257 120.193 122.76 119.483C118.248 119.204 116.291 118.849 115.184 117.31C114.418 116.245 114.439 115.144 114.648 113.759C115.198 115.033 116.326 116.44 118.548 115.681C122.287 114.392 123.77 110.653 128.213 112.589C132.662 114.525 135.427 114.392 135.497 111.684C135.559 108.975 133.275 106.182 136.451 102.575C139.626 98.9684 132.669 83.8299 145.19 83.7533C143.727 87.5901 139.292 90.1179 139.09 97.13Z" fill="url(#paint51_linear)"/>
<path d="M139.136 12.2529L106.025 10.4703C103.296 10.3241 101.074 12.3295 101.074 14.9547V33.1015C101.074 35.7267 103.296 37.9062 106.025 37.9759L116.853 38.2405L121.909 44.2082C122.215 44.5703 122.744 44.626 123.12 44.3405L127.981 38.5121L139.143 38.7836C141.671 38.8463 143.704 36.8617 143.704 34.3549V17.0368C143.697 14.5369 141.664 12.3922 139.136 12.2529Z" fill="url(#paint52_linear)"/>
<path d="M139.799 11.7306L106.687 9.94794C103.958 9.80171 101.736 11.8072 101.736 14.4324V32.5721C101.736 35.1974 103.958 37.3769 106.687 37.4465L117.515 37.7112L122.446 43.5326C122.794 43.9504 123.434 43.9504 123.79 43.5395L128.643 37.9758L139.805 38.2473C142.333 38.31 144.367 36.3254 144.367 33.8186V16.5145C144.36 14.0076 142.319 11.8629 139.799 11.7306Z" fill="url(#paint53_linear)"/>
<path d="M134.423 22.5171C134.242 19.0841 131.909 16.1943 128.998 15.8322C126.686 15.5397 124.632 16.8488 123.532 18.9657C122.432 16.7444 120.357 15.2333 118.003 15.303C115.009 15.3865 112.571 18.1023 112.383 21.6049C112.258 23.9167 113.094 26.0406 114.473 27.475L122.926 34.3619C123.288 34.6613 123.769 34.6752 124.131 34.3967L132.41 28.1157C133.74 26.7996 134.541 24.7872 134.423 22.5171Z" fill="white"/>
<defs>
<linearGradient id="paint0_linear" x1="134.208" y1="103.495" x2="162.835" y2="109.915" gradientUnits="userSpaceOnUse">
<stop offset="0.00359712" stop-color="#E38DDD"/>
<stop offset="1" stop-color="#9571F6"/>
</linearGradient>
<linearGradient id="paint1_linear" x1="134.479" y1="104.632" x2="162.605" y2="110.939" gradientUnits="userSpaceOnUse">
<stop offset="0.00359712" stop-color="#E38DDD"/>
<stop offset="1" stop-color="#9571F6"/>
</linearGradient>
<linearGradient id="paint2_linear" x1="146.066" y1="105.716" x2="192.445" y2="121.727" gradientUnits="userSpaceOnUse">
<stop stop-color="#FF9085"/>
<stop offset="1" stop-color="#FB6FBB"/>
</linearGradient>
<linearGradient id="paint3_linear" x1="148.292" y1="107.211" x2="192.221" y2="122.376" gradientUnits="userSpaceOnUse">
<stop stop-color="#FF9085"/>
<stop offset="1" stop-color="#FB6FBB"/>
</linearGradient>
<linearGradient id="paint4_linear" x1="170.452" y1="151.806" x2="174.825" y2="147.851" gradientUnits="userSpaceOnUse">
<stop stop-color="#FCB148"/>
<stop offset="0.0520724" stop-color="#FDBA46"/>
<stop offset="0.1424" stop-color="#FFC244"/>
<stop offset="0.3183" stop-color="#FFC444"/>
<stop offset="0.4849" stop-color="#FDB946"/>
<stop offset="0.7754" stop-color="#F99C4D"/>
<stop offset="0.8658" stop-color="#F8924F"/>
<stop offset="1" stop-color="#F8924F"/>
</linearGradient>
<linearGradient id="paint5_linear" x1="94.3353" y1="176.574" x2="113.596" y2="159.151" gradientUnits="userSpaceOnUse">
<stop stop-color="#FCB148"/>
<stop offset="0.0520724" stop-color="#FDBA46"/>
<stop offset="0.1424" stop-color="#FFC244"/>
<stop offset="0.3183" stop-color="#FFC444"/>
<stop offset="0.4849" stop-color="#FDB946"/>
<stop offset="0.7754" stop-color="#F99C4D"/>
<stop offset="0.8658" stop-color="#F8924F"/>
<stop offset="1" stop-color="#F8924F"/>
</linearGradient>
<linearGradient id="paint6_linear" x1="97.7875" y1="160.262" x2="115.985" y2="161.045" gradientUnits="userSpaceOnUse">
<stop stop-color="#444B8C"/>
<stop offset="0.9964" stop-color="#3E4177"/>
</linearGradient>
<linearGradient id="paint7_linear" x1="127.314" y1="139.172" x2="107.224" y2="174.698" gradientUnits="userSpaceOnUse">
<stop stop-color="#EBEFF2"/>
<stop offset="0.9946" stop-color="#B7C0CE"/>
</linearGradient>
<linearGradient id="paint8_linear" x1="157.799" y1="153.476" x2="172.693" y2="154.117" gradientUnits="userSpaceOnUse">
<stop stop-color="#444B8C"/>
<stop offset="0.9964" stop-color="#3E4177"/>
</linearGradient>
<linearGradient id="paint9_linear" x1="182.456" y1="135.369" x2="165.235" y2="165.822" gradientUnits="userSpaceOnUse">
<stop stop-color="#EBEFF2"/>
<stop offset="0.9946" stop-color="#B7C0CE"/>
</linearGradient>
<linearGradient id="paint10_linear" x1="17.7853" y1="154.509" x2="39.9534" y2="155.463" gradientUnits="userSpaceOnUse">
<stop stop-color="#444B8C"/>
<stop offset="0.9964" stop-color="#3E4177"/>
</linearGradient>
<linearGradient id="paint11_linear" x1="52.5997" y1="131.238" x2="29.7882" y2="171.576" gradientUnits="userSpaceOnUse">
<stop stop-color="#444B8C"/>
<stop offset="0.9964" stop-color="#3E4177"/>
</linearGradient>
<linearGradient id="paint12_linear" x1="32.1075" y1="155.522" x2="43.5566" y2="156.014" gradientUnits="userSpaceOnUse">
<stop stop-color="#444B8C"/>
<stop offset="0.9964" stop-color="#3E4177"/>
</linearGradient>
<linearGradient id="paint13_linear" x1="42.2594" y1="203.481" x2="-125.814" y2="397.61" gradientUnits="userSpaceOnUse">
<stop stop-color="#AA80F9"/>
<stop offset="0.9964" stop-color="#6165D7"/>
</linearGradient>
<linearGradient id="paint14_linear" x1="57.2097" y1="139.607" x2="44.6153" y2="195.943" gradientUnits="userSpaceOnUse">
<stop stop-color="#AA80F9"/>
<stop offset="0.9964" stop-color="#6165D7"/>
</linearGradient>
<linearGradient id="paint15_linear" x1="27.3415" y1="140.833" x2="63.8918" y2="142.405" gradientUnits="userSpaceOnUse">
<stop stop-color="#FCB148"/>
<stop offset="0.0520724" stop-color="#FDBA46"/>
<stop offset="0.1424" stop-color="#FFC244"/>
<stop offset="0.3183" stop-color="#FFC444"/>
<stop offset="0.4849" stop-color="#FDB946"/>
<stop offset="0.7754" stop-color="#F99C4D"/>
<stop offset="0.8658" stop-color="#F8924F"/>
<stop offset="1" stop-color="#F8924F"/>
</linearGradient>
<linearGradient id="paint16_linear" x1="29.7949" y1="145.321" x2="60.1787" y2="146.628" gradientUnits="userSpaceOnUse">
<stop stop-color="#FCB148"/>
<stop offset="0.0520724" stop-color="#FDBA46"/>
<stop offset="0.1424" stop-color="#FFC244"/>
<stop offset="0.3183" stop-color="#FFC444"/>
<stop offset="0.4849" stop-color="#FDB946"/>
<stop offset="0.7754" stop-color="#F99C4D"/>
<stop offset="0.8658" stop-color="#F8924F"/>
<stop offset="1" stop-color="#F8924F"/>
</linearGradient>
<linearGradient id="paint17_linear" x1="4.68147" y1="156.417" x2="96.8995" y2="160.384" gradientUnits="userSpaceOnUse">
<stop stop-color="#AA80F9"/>
<stop offset="0.9964" stop-color="#6165D7"/>
</linearGradient>
<linearGradient id="paint18_linear" x1="128.46" y1="149.092" x2="153.982" y2="138.751" gradientUnits="userSpaceOnUse">
<stop stop-color="#AA80F9"/>
<stop offset="0.9964" stop-color="#6165D7"/>
</linearGradient>
<linearGradient id="paint19_linear" x1="131.186" y1="173.091" x2="181.179" y2="127.87" gradientUnits="userSpaceOnUse">
<stop stop-color="#AA80F9"/>
<stop offset="0.9964" stop-color="#6165D7"/>
</linearGradient>
<linearGradient id="paint20_linear" x1="47.0348" y1="109.806" x2="127.601" y2="113.271" gradientUnits="userSpaceOnUse">
<stop stop-color="#444B8C"/>
<stop offset="0.9964" stop-color="#3E4177"/>
</linearGradient>
<linearGradient id="paint21_linear" x1="142.118" y1="113.213" x2="168.795" y2="114.361" gradientUnits="userSpaceOnUse">
<stop stop-color="#444B8C"/>
<stop offset="0.9964" stop-color="#3E4177"/>
</linearGradient>
<linearGradient id="paint22_linear" x1="122.997" y1="114.729" x2="149.493" y2="115.869" gradientUnits="userSpaceOnUse">
<stop stop-color="#444B8C"/>
<stop offset="0.9964" stop-color="#3E4177"/>
</linearGradient>
<linearGradient id="paint23_linear" x1="63.4724" y1="137.573" x2="103.443" y2="101.418" gradientUnits="userSpaceOnUse">
<stop stop-color="#444B8C"/>
<stop offset="0.9964" stop-color="#3E4177"/>
</linearGradient>
<linearGradient id="paint24_linear" x1="123.091" y1="126.555" x2="124.407" y2="125.363" gradientUnits="userSpaceOnUse">
<stop stop-color="#444B8C"/>
<stop offset="0.9964" stop-color="#3E4177"/>
</linearGradient>
<linearGradient id="paint25_linear" x1="136.219" y1="128.254" x2="148.046" y2="117.556" gradientUnits="userSpaceOnUse">
<stop stop-color="#444B8C"/>
<stop offset="0.9964" stop-color="#3E4177"/>
</linearGradient>
<linearGradient id="paint26_linear" x1="150.96" y1="121.597" x2="162.765" y2="110.919" gradientUnits="userSpaceOnUse">
<stop stop-color="#444B8C"/>
<stop offset="0.9964" stop-color="#3E4177"/>
</linearGradient>
<linearGradient id="paint27_linear" x1="127.504" y1="126.834" x2="144.019" y2="111.896" gradientUnits="userSpaceOnUse">
<stop stop-color="#AA80F9"/>
<stop offset="0.9964" stop-color="#6165D7"/>
</linearGradient>
<linearGradient id="paint28_linear" x1="92.522" y1="136.516" x2="125.266" y2="124.505" gradientUnits="userSpaceOnUse">
<stop stop-color="#AA80F9"/>
<stop offset="0.9964" stop-color="#6165D7"/>
</linearGradient>
<linearGradient id="paint29_linear" x1="81.7633" y1="-2.58733" x2="60.2213" y2="18.1181" gradientUnits="userSpaceOnUse">
<stop stop-color="#5EEB8C"/>
<stop offset="1" stop-color="#49F2A3"/>
</linearGradient>
<linearGradient id="paint30_linear" x1="17.7373" y1="2.13069" x2="90.9636" y2="121.897" gradientUnits="userSpaceOnUse">
<stop stop-color="#5EEB8C"/>
<stop offset="1" stop-color="#49F2A3"/>
</linearGradient>
<linearGradient id="paint31_linear" x1="56.5661" y1="70.321" x2="-2.90439" y2="-49.2618" gradientUnits="userSpaceOnUse">
<stop stop-color="#5EEB8C"/>
<stop offset="1" stop-color="#49F2A3"/>
</linearGradient>
<linearGradient id="paint32_linear" x1="11.9499" y1="47.122" x2="69.3717" y2="47.122" gradientUnits="userSpaceOnUse">
<stop stop-color="#144434"/>
<stop offset="1" stop-color="#2D6B2D"/>
</linearGradient>
<linearGradient id="paint33_linear" x1="49.8828" y1="91.0834" x2="33.3036" y2="0.726512" gradientUnits="userSpaceOnUse">
<stop stop-color="#5EEB8C"/>
<stop offset="1" stop-color="#49F2A3"/>
</linearGradient>
<linearGradient id="paint34_linear" x1="103.237" y1="46.8858" x2="106.998" y2="46.8858" gradientUnits="userSpaceOnUse">
<stop stop-color="#FFC444"/>
<stop offset="0.9964" stop-color="#F36F56"/>
</linearGradient>
<linearGradient id="paint35_linear" x1="152.632" y1="47.5841" x2="148.636" y2="48.3102" gradientUnits="userSpaceOnUse">
<stop stop-color="#FFC444"/>
<stop offset="0.9964" stop-color="#F36F56"/>
</linearGradient>
<linearGradient id="paint36_linear" x1="114.154" y1="155.64" x2="124.391" y2="192.584" gradientUnits="userSpaceOnUse">
<stop stop-color="#311944"/>
<stop offset="1" stop-color="#893976"/>
</linearGradient>
<linearGradient id="paint37_linear" x1="123.265" y1="181.76" x2="123.413" y2="169.297" gradientUnits="userSpaceOnUse">
<stop stop-color="#FFC444"/>
<stop offset="0.9964" stop-color="#F36F56"/>
</linearGradient>
<linearGradient id="paint38_linear" x1="126.97" y1="152.089" x2="137.207" y2="189.032" gradientUnits="userSpaceOnUse">
<stop stop-color="#311944"/>
<stop offset="1" stop-color="#893976"/>
</linearGradient>
<linearGradient id="paint39_linear" x1="137.676" y1="181.931" x2="137.825" y2="169.468" gradientUnits="userSpaceOnUse">
<stop stop-color="#FFC444"/>
<stop offset="0.9964" stop-color="#F36F56"/>
</linearGradient>
<linearGradient id="paint40_linear" x1="116.08" y1="141.677" x2="129.349" y2="141.677" gradientUnits="userSpaceOnUse">
<stop stop-color="#444B8C"/>
<stop offset="0.9964" stop-color="#26264F"/>
</linearGradient>
<linearGradient id="paint41_linear" x1="116.081" y1="141.677" x2="129.35" y2="141.677" gradientUnits="userSpaceOnUse">
<stop stop-color="#444B8C"/>
<stop offset="0.9964" stop-color="#26264F"/>
</linearGradient>
<linearGradient id="paint42_linear" x1="123.573" y1="143.573" x2="143.716" y2="143.573" gradientUnits="userSpaceOnUse">
<stop stop-color="#444B8C"/>
<stop offset="0.9964" stop-color="#26264F"/>
</linearGradient>
<linearGradient id="paint43_linear" x1="147.611" y1="101.19" x2="82.7565" y2="45.4478" gradientUnits="userSpaceOnUse">
<stop stop-color="#FFC444"/>
<stop offset="0.9964" stop-color="#F36F56"/>
</linearGradient>
<linearGradient id="paint44_linear" x1="125.565" y1="156.686" x2="127.627" y2="57.9608" gradientUnits="userSpaceOnUse">
<stop stop-color="#FFC444"/>
<stop offset="0.9964" stop-color="#F36F56"/>
</linearGradient>
<linearGradient id="paint45_linear" x1="150.365" y1="157.527" x2="140.297" y2="59.295" gradientUnits="userSpaceOnUse">
<stop stop-color="#FFC444"/>
<stop offset="0.9964" stop-color="#F36F56"/>
</linearGradient>
<linearGradient id="paint46_linear" x1="120.367" y1="74.1041" x2="127.593" y2="63.4749" gradientUnits="userSpaceOnUse">
<stop stop-color="#FFC444"/>
<stop offset="0.9964" stop-color="#F36F56"/>
</linearGradient>
<linearGradient id="paint47_linear" x1="126.747" y1="69.986" x2="121.458" y2="58.2846" gradientUnits="userSpaceOnUse">
<stop stop-color="#311944"/>
<stop offset="1" stop-color="#6B3976"/>
</linearGradient>
<linearGradient id="paint48_linear" x1="122.2" y1="61.5803" x2="122.211" y2="79.0118" gradientUnits="userSpaceOnUse">
<stop stop-color="#FFC444"/>
<stop offset="0.9964" stop-color="#F36F56"/>
</linearGradient>
<linearGradient id="paint49_linear" x1="125.34" y1="70.6285" x2="120.046" y2="58.9148" gradientUnits="userSpaceOnUse">
<stop stop-color="#311944"/>
<stop offset="1" stop-color="#6B3976"/>
</linearGradient>
<linearGradient id="paint50_linear" x1="120.38" y1="63.6583" x2="120.733" y2="65.8267" gradientUnits="userSpaceOnUse">
<stop stop-color="#FFC444"/>
<stop offset="1" stop-color="#F36F56"/>
</linearGradient>
<linearGradient id="paint51_linear" x1="114.535" y1="101.863" x2="145.198" y2="101.863" gradientUnits="userSpaceOnUse">
<stop stop-color="#FFC444"/>
<stop offset="0.9964" stop-color="#F36F56"/>
</linearGradient>
<linearGradient id="paint52_linear" x1="111.317" y1="7.27387" x2="129.009" y2="35.7176" gradientUnits="userSpaceOnUse">
<stop stop-color="#311944"/>
<stop offset="1" stop-color="#893976"/>
</linearGradient>
<linearGradient id="paint53_linear" x1="111.977" y1="6.74652" x2="129.668" y2="35.1902" gradientUnits="userSpaceOnUse">
<stop stop-color="#FF9085"/>
<stop offset="1" stop-color="#FB6FBB"/>
</linearGradient>
</defs>
</svg>
