<svg width="151" height="135" viewBox="0 0 151 135" fill="none" xmlns="http://www.w3.org/2000/svg">
    <path d="M120.219 106.33L65.4739 100.762C63.4633 100.546 61.964 98.7313 62.1801 96.7207L70.0928 18.5055C70.3089 16.4948 72.1236 14.9955 74.1342 15.2116L128.88 20.7797C130.89 20.9958 132.39 22.8105 132.173 24.8211L124.261 103.036C124.045 105.047 122.23 106.546 120.219 106.33Z" fill="#E8E5E3"/>
    <path d="M113.304 32.178L76.0232 28.4202C75.7777 28.3968 75.5643 28.166 75.6257 27.9117L75.9586 24.6737C75.9819 24.4282 76.2128 24.2148 76.467 24.2762L113.748 28.034C113.994 28.0574 114.207 28.2882 114.146 28.5425L113.813 31.7805C113.789 32.026 113.55 32.2013 113.304 32.178Z" fill="#18516B"/>
    <path d="M112.685 38.1632L75.4041 34.4054C75.1587 34.3821 74.9453 34.1512 75.0067 33.897L75.1264 32.5088C75.1497 32.2634 75.3806 32.05 75.6348 32.1113L112.916 35.8692C113.161 35.8925 113.375 36.1234 113.313 36.3776L113.194 37.7658C113.17 38.0112 112.969 38.1778 112.685 38.1632Z" fill="#18516B"/>
    <path d="M121.414 62.2781L73.1063 57.3844C72.8608 57.3611 72.6475 57.1302 72.7088 56.876L72.8285 55.4878C72.8519 55.2424 73.0827 55.029 73.337 55.0904L121.644 59.984C121.89 60.0074 122.103 60.2382 122.042 60.4925L121.922 61.8806C121.899 62.1261 121.659 62.3014 121.414 62.2781Z" fill="#18516B"/>
    <path d="M101.99 75.2056L71.629 72.131C71.3835 72.1077 71.1702 71.8768 71.2315 71.6226L71.3512 70.2344C71.3746 69.9889 71.6054 69.7756 71.8597 69.8369L102.221 72.9115C102.466 72.9349 102.679 73.1657 102.618 73.42L102.498 74.8081C102.466 75.0156 102.235 75.229 101.99 75.2056Z" fill="#18516B"/>
    <path d="M120.381 77.0421L107.513 75.7311C107.268 75.7078 107.054 75.4769 107.116 75.2227L107.235 73.8345C107.259 73.589 107.49 73.3757 107.744 73.437L120.611 74.748C120.857 74.7714 121.07 75.0023 121.009 75.2565L120.889 76.6446C120.866 76.8901 120.635 77.1035 120.381 77.0421Z" fill="#18516B"/>
    <path d="M118.912 87.1445L96.8299 84.9196C96.5844 84.8962 96.3711 84.6654 96.4324 84.4111L96.5521 83.023C96.5755 82.7775 96.8063 82.5642 97.0606 82.6255L119.142 84.8504C119.388 84.8738 119.601 85.1046 119.54 85.3589L119.42 86.747C119.388 86.9545 119.157 87.1679 118.912 87.1445Z" fill="#18516B"/>
    <path d="M98.3407 51.5983L73.9649 49.1427C73.7195 49.1194 73.5061 48.8885 73.5675 48.6343L73.6871 47.2461C73.7105 47.0007 73.9414 46.7873 74.1956 46.8487L98.5714 49.3042C98.8169 49.3276 99.0302 49.5584 98.9689 49.8127L98.8492 51.2008C98.817 51.4083 98.5862 51.6217 98.3407 51.5983Z" fill="#18516B"/>
    <path d="M122.263 53.9988L108.452 52.5856C108.206 52.5623 107.993 52.3314 108.054 52.0771L108.174 50.689C108.197 50.4435 108.428 50.2302 108.682 50.2915L122.494 51.7047C122.739 51.7281 122.953 51.9589 122.891 52.2132L122.771 53.6013C122.748 53.8468 122.509 54.0222 122.263 53.9988Z" fill="#18516B"/>
    <path opacity="0.2" d="M95.856 26.2811L97.9486 104.214L72.7309 101.654C70.5601 101.421 68.9412 99.4618 69.1745 97.2909L76.7407 22.8308L91.8105 22.4193C93.9467 22.315 95.7832 24.0944 95.856 26.2811Z" fill="#18516B"/>
    <path d="M86.8794 119.753L24.726 121.44C22.4372 121.516 20.472 119.664 20.4387 117.365L18.0166 28.519C17.9405 26.2303 19.7931 24.265 22.0918 24.2318L84.2452 22.5452C86.5339 22.4691 88.4992 24.3217 88.5324 26.6204L90.9017 115.433C90.9878 117.765 89.1682 119.677 86.8794 119.753Z" fill="#E8E5E3"/>
    <path opacity="0.1" d="M111.564 76.1159C111.526 76.1247 111.488 76.1334 111.441 76.1042C111.347 76.0458 111.312 75.8938 111.333 75.8091L111.756 74.871C111.815 74.7774 111.929 74.7511 112.052 74.7628C112.145 74.8212 112.18 74.9732 112.16 75.058L111.736 75.9961C111.64 76.0984 111.602 76.1071 111.564 76.1159Z" fill="#75B5E0"/>
    <path opacity="0.1" d="M135.485 85.8304C135.443 85.8403 135.4 85.8502 135.347 85.8172C135.241 85.7511 135.201 85.5794 135.225 85.4836L135.568 84.8164C135.634 84.7107 135.763 84.681 135.901 84.6942C136.007 84.7603 136.047 84.932 136.024 85.0278L135.68 85.6949C135.614 85.8006 135.571 85.8106 135.485 85.8304Z" fill="#75B5E0"/>
    <path d="M35.1967 84.0574C34.9911 83.6146 34.7886 83.2997 34.5862 82.9849C34.1781 82.2272 34.1749 82.0993 34.8093 81.5079C35.8233 80.5232 36.9069 79.7287 38.1218 78.995C38.3132 78.8623 38.5695 78.728 38.8242 78.5298C38.6201 78.151 36.7363 75.4465 35.3952 68.4421C35.1691 67.1682 35.1026 67.1058 34.8765 65.8319C34.4875 63.2184 34.5525 60.5938 34.5526 57.9707C34.5289 57.0117 34.5922 56.9461 35.5619 56.7942C37.1105 56.4361 38.7272 56.2043 40.2742 55.7822C43.3684 54.9381 46.3898 53.7759 49.1375 52.0446C50.3524 51.3109 51.5009 50.5148 52.7142 49.7171C53.4799 49.1864 53.608 49.1193 54.4005 49.6755C56.1831 50.911 58.0908 51.9515 60.125 52.8609C63.4057 54.3154 66.8035 55.2551 70.3848 55.7425C71.0365 55.8543 71.6202 55.8399 72.2703 55.8879C72.7259 55.9406 72.9268 56.1915 72.9378 56.6391C73.1149 58.554 73.3568 60.4674 73.1448 62.3919C73.0403 63.4181 73.034 63.1624 72.9944 64.187C72.8677 66.9411 72.4167 69.7032 71.7032 72.3439C71.1669 74.2765 70.4898 75.7646 69.8901 77.7627C70.6146 78.1927 71.4704 78.6834 72.2628 79.2396C72.8576 79.6728 73.4539 80.1698 74.0487 80.603C74.4457 80.9131 74.4536 81.2328 74.2701 81.6851C74.085 82.0736 73.8366 82.5275 73.6531 82.9799C74.7082 83.6576 75.6968 84.273 76.7503 84.8867C77.2121 85.1952 77.7389 85.5021 78.2008 85.8105C79.1894 86.4259 79.202 86.9374 78.1785 87.5385C77.0269 88.2067 75.8753 88.8749 74.6604 89.6086C74.6683 89.9283 74.6762 90.248 74.6841 90.5677C74.7109 91.6546 74.7362 92.6776 74.763 93.7646C74.782 94.5318 74.203 94.7381 73.6146 94.5607C73.4184 94.5015 73.2855 94.3769 73.0894 94.3177C70.7214 93.0327 68.4183 91.746 66.0504 90.461C65.1297 89.9719 65.125 89.7801 65.5553 88.8098C65.8037 88.3558 65.9856 87.8395 66.2308 87.2577C65.5095 86.9556 64.8547 86.7159 64.1998 86.4761C63.5639 87.0037 62.9928 87.5296 62.4217 88.0555C60.3273 89.9625 57.8927 91.2382 55.3902 92.3876C54.9409 92.5906 54.5518 92.6002 54.1579 92.418C51.4688 91.2689 48.9727 90.051 46.7203 88.1873C46.1904 87.7525 45.7269 87.3801 45.1306 86.883C44.4883 87.1548 43.8461 87.4265 43.0757 87.7654C43.4158 88.3968 43.6878 88.9019 43.895 89.4086C44.3031 90.1662 44.2446 90.4236 43.4773 90.8904C41.1124 92.3563 38.7475 93.8222 36.3825 95.288C36.3193 95.3536 36.1895 95.3568 36.1263 95.4223C35.3575 95.8252 34.8972 95.5806 34.8766 94.7494C34.8514 93.7264 34.8261 92.7034 34.8009 91.6804C34.793 91.3607 34.7851 91.041 34.7756 90.6574C33.855 90.1683 33.0008 89.7416 32.0818 89.3164C31.6215 89.0719 31.1627 88.8913 30.7657 88.5812C30.239 88.2743 30.2279 87.8268 30.6724 87.4319C30.8623 87.2353 31.0537 87.1026 31.2451 86.9699C32.3904 86.046 33.7936 85.0517 35.1967 84.0574ZM38.7853 63.8161C38.8628 64.326 38.9637 71.0411 42.4245 77.1614C43.7848 79.6868 45.4646 82.0125 47.717 83.8762C49.4396 85.3051 51.3457 86.2817 53.3799 87.1911C54.0364 87.4948 54.6849 87.4788 55.3904 87.1415C58.4055 85.7235 61.0204 83.8676 63.0959 81.1933C65.423 78.1929 66.9085 75.2773 67.7265 71.6104C68.1363 69.8089 68.4796 67.9451 68.5635 66.0877C68.6538 64.4861 68.7772 64.2271 68.8026 62.6271C68.7836 61.8598 68.6365 61.1597 68.6176 60.3925C68.5338 59.6268 68.3345 59.4398 67.5531 59.3311C67.0326 59.28 66.5771 59.2273 66.0566 59.1761C61.7572 58.5146 57.828 57.0762 54.2626 54.6051C53.6694 54.2359 53.4749 54.2407 52.9006 54.6387C50.735 56.2916 48.3653 57.5657 45.7932 58.5249C43.8633 59.2123 41.9302 59.7719 39.8596 60.0149C39.2126 60.0949 38.9595 60.357 38.9073 60.8701C38.8677 61.8947 38.8249 62.7915 38.7853 63.8161Z" fill="#19526C"/>
    <path d="M51.9713 72.1915C52.2877 71.8638 52.5408 71.6017 52.7955 71.4034C54.7571 69.3717 56.782 67.2745 58.7436 65.2427C59.0599 64.9151 59.4428 64.6497 59.8904 64.3827C60.5311 64.047 61.379 64.218 61.9089 64.6528C62.4403 65.1515 62.6554 65.9779 62.3469 66.6252C62.2251 66.9481 62.04 67.3366 61.7869 67.5987C59.1309 70.4153 56.4084 73.1696 53.7507 75.9222C53.1179 76.5776 52.414 76.9788 51.495 76.5537C51.2972 76.4306 51.0347 76.3092 50.9002 76.1205C49.4386 74.7491 47.9771 73.3777 46.5155 72.0063C45.587 71.1976 45.7532 70.0419 46.4508 69.3849C47.275 68.5968 48.2462 68.5089 49.1099 69.3192C49.9118 70.2591 50.9084 71.1941 51.9713 72.1915Z" fill="#19526C"/>
    <path d="M51.0366 102.668L29.9584 103.188C29.5693 103.198 29.3035 102.948 29.2941 102.565L29.2609 101.222C29.2514 100.838 29.5045 100.576 29.8937 100.567L51.0367 100.044C51.4258 100.035 51.6916 100.284 51.701 100.668L51.7342 102.011C51.6788 102.396 51.4257 102.658 51.0366 102.668Z" fill="#19526C"/>
    <path d="M79.8326 101.956L58.6896 102.478C58.3005 102.488 58.0347 102.239 58.0253 101.855L57.9921 100.512C57.9826 100.129 58.2357 99.8666 58.6249 99.857L79.7679 99.335C80.157 99.3254 80.4228 99.5747 80.4322 99.9583L80.4654 101.301C80.4749 101.685 80.1569 101.948 79.8326 101.956Z" fill="#19526C"/>
    <path d="M80.0315 110.013L69.2006 110.28C68.8115 110.29 68.5457 110.041 68.5362 109.657L68.5031 108.314C68.4936 107.931 68.7467 107.668 69.1359 107.659L79.9668 107.391C80.3559 107.382 80.6217 107.631 80.6312 108.015L80.6643 109.357C80.6738 109.741 80.3558 110.005 80.0315 110.013Z" fill="#19526C"/>
    <path d="M39.3369 44.0978L28.506 44.3652C28.1169 44.3748 27.8511 44.1255 27.8417 43.7418L27.8085 42.3991C27.799 42.0155 28.0521 41.7534 28.4413 41.7438L39.2722 41.4763C39.6614 41.4667 39.9271 41.7161 39.9366 42.0997L39.9697 43.4424C39.9792 43.826 39.6612 44.0898 39.3369 44.0978Z" fill="#19526C"/>
    <path d="M57.6187 38.0805L28.3686 38.8027C27.9795 38.8123 27.7138 38.563 27.7043 38.1794L27.6159 34.5989C27.6064 34.2152 27.8595 33.9531 28.2487 33.9435L57.4987 33.2212C57.8878 33.2116 58.1535 33.461 58.163 33.8446L58.2514 37.4251C58.2609 37.8088 58.0078 38.0709 57.6187 38.0805Z" fill="#19526C"/>
    <path d="M78.3801 43.1339L49.0004 43.8593C48.6113 43.8689 48.3455 43.6196 48.336 43.236L48.3029 41.8933C48.2934 41.5097 48.5465 41.2475 48.9357 41.2379L78.2505 40.5141C78.6397 40.5045 78.9054 40.7538 78.9149 41.1374L78.948 42.4801C79.0224 42.8622 78.7044 43.1259 78.3801 43.1339Z" fill="#19526C"/>
</svg>
