<svg width="152" height="123" viewBox="0 0 152 123" fill="none" xmlns="http://www.w3.org/2000/svg"><path d="M97.3 104c0 5-4 8-8.8 8-4.9 0-8.8-3-8.8-8a8.8 8.8 0 1 1 17.6 0Z" fill="#202048"/><path d="M91.2 107h4l25 .1-.1-8.4s.3-2.2-3.3-4.8c-3.6-2.7-2.8-4.6-8.1-5.1-5.4-.5-12-1.8-14.6.8-2.6 2.6-2 1.6-3.5 5.3-1 2.3-1.7 4.7-2.2 7.2l2.8 4.8Z" fill="#2E70A0"/><path d="M151.3 102.2c0 .5-.2 1-.4 1.3 0 .3-.2.6-.3.8-1.3 2-3.9 2.6-5.6 2.8h-24.9c0-1.6 0-3.2-.4-4.8-.9-4.4-3.7-10.5-12.3-11.2H104l-1.2.2h-.4l-.3.1-.6.2h-.4l-.6.3h-.4a12.2 12.2 0 0 0-4 2.6l-.4.2-.2.3-.4.4-.3.4-.4.5-.4.5-.2.4-.1.2a16.9 16.9 0 0 0-1.1 2.2l-.2.5-.2.4v.3l-.2.4a16.8 16.8 0 0 0-.7 3.9v.4l-.1.5v.9H69.5l-.2-.1H69l-1.1-.2h-.6a16 16 0 0 1-1.6-.5h-.4l-.3-.2h-.2l-.3-.2-.6-.2-.2-.1-.2-.1-.5-.3-.4-.2a8.3 8.3 0 0 1-1-.7 1.8 1.8 0 0 1-.3-.5l-.1-.2-.2-.8v-3.3c0-.2.1-.5.3-.7l.2-.2.5-.6c.2-.2.3-.4.3-.7V91a2.7 2.7 0 0 1 1-2A46.9 46.9 0 0 1 78 81.4c7.4-3 12.4-5 15.5-6l2.4-.8 16.9.6 16-13.7s-3-1.5-2.4-2.2c.5-.6 5.6-1.8 9.9-2.1 2-.1 3-.3 8.3-.3 3.2.1 6.5.7 7 2.2v.4c0 .5 0 1-.2 1.5l-.7 2.7c-.4 1.7-.7 3.8-.1 7.8.3 1.8.5 3.7.6 5.6.2 3.5-.2 5.6-.6 8.3-.4 2.7.7 8 1 12.5a19 19 0 0 1-.2 4.3Z" fill="#55B4F3"/><path opacity=".8" d="M151.3 102.2c0 .5-.2.9-.4 1.3 0 .3-.2.6-.3.8-1.3 2-3.9 2.6-5.6 2.8h-24.9a21 21 0 0 0-.5-5c-1-4.5-4-10.3-12.2-11H104l-1.2.2h-.4l-.3.1-.5.2h-.5l-.6.3h-.4a12.2 12.2 0 0 0-4 2.6c-.2 0-.2.1-.3.2l-.3.3-.4.4-.3.4-.4.5-.4.5-.2.4v.1a16.9 16.9 0 0 0-1.2 2.3l-.2.5-.1.4-.2.3v.4a16.7 16.7 0 0 0-.8 3.9v.4l-.1.5v.9H69.5l-.2-.1H69l-1.1-.2h-.6l-1.6-.5h-.4l-.3-.2h-.2l-.3-.2-.6-.2-.2-.1-.2-.1-.5-.3-.4-.2a8.3 8.3 0 0 1-1-.7 1.8 1.8 0 0 1-.3-.5l-.1-.2-.2-.8v-3.3c0-.2.1-.5.3-.7l.2-.2.5-.6c.2-.2.3-.4.3-.7v-4.3c1.8 0 3.5.4 5 1 2.6.7 4 1.6 5.2 2a5 5 0 0 0 3.7-.5c1.2-.8 2.4-1.2 4.5-3.3 2-2 10.4-7.4 18.1-9.4 5.4-1.3 12.5-3.3 16.1-4.2 1.7-.4 3-2.1 4.3-3.3 2.4-2.2 6.9-6.2 11.4-9.8 4.9-3.8 9-5.2 15.1-6a20 20 0 0 1 5.7-.1v.3l-.1 1.6-.7 2.7c-.4 1.6-.8 3.8-.1 7.7a49.5 49.5 0 0 1 .6 9.3c0 .8-.2 1.5-.3 2.3l-.3 2.3c-.4 2.7.7 8 1 12.5a19 19 0 0 1-.2 4.3Z" fill="#4BA5E2"/><path d="M150.6 104.3c-1.3 2-4 2.6-5.6 2.8h-24.9a21 21 0 0 0-.4-4.8c.4.6 1.6 2 5.8 2h25ZM70.2 101s-5.1 0-6-.2c-.9-.3-1.5 0-2.4-.8l-.7-.7c0-.3 0-.6.2-.8l.2-.2.6-.6.2-.6v-.7c1 0 1.9.3 2.7.7 1.2.7 1.3 1.2 3.4 2.6.9 1 1.2.7 1.8 1.2Z" fill="#3480B7"/><path d="m75.6 106.2-7-.7c-.7 0-2.7-1-4.1-1.2-1.4-.2-2-.3-2.3-.6L61 102v-2.8c0-.3.1-.6.3-.8l.2-.2c1.6 1 3.4 1.7 5.3 1.9 3 .2 3.3.4 5.3 2 1 .8 3.4 1.8 4.6 2.5 1.2.8-.2 1.5-1.1 1.5Z" fill="#55B4F3"/><path d="m91.3 105.3-.1 1.6H70.1l-.8-.1a19 19 0 0 1-4.3-1l-.5-.1a10.2 10.2 0 0 1-1.5-.7l-.4-.2-.8-.5a2 2 0 0 1-.6-.8l-.2-1v-1c1.7 1.3 3.8 2.2 6 2.5 2.1.3 6.6.4 8.6.5.5 0 1 .2 1.5.4.4.2.9.3 1.3.3 1.3 0 9.7-.4 12.9-.1v.2Z" fill="#3480B7"/><path d="M117.3 105.5c0 6.1-5.2 10.7-11.5 10.7-6.4 0-11.5-4.6-11.5-10.7v-.6c.3-6 5.3-10.7 11.5-10.7a11.4 11.4 0 0 1 11.5 11.3Z" fill="#292955"/><path d="M111.7 105.5c0 3.2-2.7 5.7-6 5.7a5.8 5.8 0 0 1-4.1-10 6 6 0 0 1 10.1 4.3Z" fill="#fff"/><path d="M130.5 61.6c-.1.6-.4 1-.8 1.4l-1.9 1.7c-4.3 3.9-10 8.4-12 9.8-.7.6-1.6 1-2.6 1.4-.6.2-1.2.3-2 .3a65 65 0 0 1-14.9-1.7s14.1-7.7 25.1-13.1c1.7-.9 3.4-1.4 5-2l.9-.2c.3 0 3.7 0 3.2 2.4ZM150.5 71.5c.3 1.8.5 3.7.6 5.6h-24.5l-2.2-2.4c2.1-2.7 4.5-5 7.3-7.1a32 32 0 0 1 19.6-6.6l-.7 2.7a18 18 0 0 0 0 7.8Z" fill="#292955"/><path d="M89 88a38.6 38.6 0 0 1-10.6 3.8l-2.2.2c-1 0-2-.2-2.6-1l-.3-.4c-.6-.9-.2-1.3.7-1.7a65 65 0 0 1 6.2-2.8c2.5-.8 4.3-.5 5.4-.4 1.2 0 2.3.4 3.3 1a.7.7 0 0 1 0 1.2Z" fill="#fff"/><path opacity=".6" d="M151 80.6c0 .8 0 1.7-.2 2.5H138c-5.6 0-18.5 0-28.2 2.1h-.1l-.1-.2v-.2l.1-.1c4.3-1.6 14-4.2 32.5-4.2h8.9Z" fill="#3480B7"/><path opacity=".5" d="M89.2 85a.1.1 0 0 1 0-.2c2.6-1 6.7-2.7 11.8-4.3 2.7-.8 5-1.2 6.7-1.6 2-.4 3.5-.7 4.5-1.3a.1.1 0 0 1 .1 0h.1a.1.1 0 0 1 0 .2c-1.1.6-2.7 1-4.6 1.4A129.8 129.8 0 0 0 89.3 85ZM122.2 103.3l-.1-.1a31.2 31.2 0 0 1-.7-7 .1.1 0 0 1 0 .1.1.1 0 0 1 .1.1 32 32 0 0 0 .8 6.9ZM121.3 93.2a.1.1 0 0 1-.2-.1v-1.6a89 89 0 0 1 1-12c-.5 4-.7 8-.7 12v1.6a.2.2 0 0 1-.2.1Z" fill="#292955"/><path opacity=".5" d="M147.3 82.5h-5.7a.7.7 0 1 0 0 1.3h5.7a.7.7 0 1 0 0-1.3Z" fill="#348BB7"/><path d="M147 82h-5.7a.7.7 0 1 0 0 1.4h5.7a.7.7 0 1 0 0-1.4Z" fill="#2C2E5A"/><path d="M151.3 102.2a226.7 226.7 0 0 1-21.9-.8.5.5 0 0 1 .2-.7c2.6-1 9-3 21.9-2.8 0 1.5 0 2.9-.2 4.3Z" fill="#55B4F3"/><g opacity=".5"><path opacity=".6" d="M70 90.9a22 22 0 0 1-6.6-1.1.1.1 0 0 1 .2 0 21.1 21.1 0 0 0 7.2.8.1.1 0 0 1-.1.2 7 7 0 0 1-.8 0Z" fill="#292955"/></g><path d="M131 77c0 .7-.3 1.3-.7 1.8l-.6.9-.5.2c-1.2.2-2.4.3-3.6 0a2.5 2.5 0 0 1-2-1.6v-.2a3 3 0 0 1-.1-.5h-.8a.4.4 0 0 1-.3-.1.4.4 0 0 1-.1-.4l.2-1.4a.4.4 0 0 1 .4-.4l1.1-.1s.6-.7 2.4-1c1.3-.2 2.6-.3 3.2.3.3.3 1.3 1.2 1.3 2.5Z" fill="#55B4F3"/><path d="M131 77c0 .7-.3 1.3-.7 1.8-.9.4-5.2 1-5.4.5-.2-.8 0-1.3.3-1.7.4-.4 2.3-1.2 4.1-1.2a2 2 0 0 1 1.6.6Z" fill="#4BA5E2"/><path d="M131 77c0 .7-.3 1.3-.7 1.8l-.6.9-.5.2c-1.2.2-2.4.3-3.6 0a2.5 2.5 0 0 1-2-1.6v-.2c.3.3 1.4 1 3.5.8 1.7 0 3-1.1 3.8-1.9Z" fill="#348BB7"/><path opacity=".8" d="M92.2 93.3a21 21 0 0 1 20.4-3.4.2.2 0 0 0 0-.3C109 87.4 99.2 82.9 92 93a.2.2 0 0 0 .3.3Z" fill="#55B4F3"/><g opacity=".2"><path opacity=".4" d="M116.5 71.3h-.2V71a19.6 19.6 0 0 0 1-1 .2.2 0 0 1 .2.1.2.2 0 0 1 0 .1v.1a20.3 20.3 0 0 1-1 1Z" fill="#75B5E0"/></g><g opacity=".2"><path opacity=".4" d="M118.8 68.6h-.1a.2.2 0 0 1-.1-.2v-.1a18.6 18.6 0 0 0 1.1-1.7.2.2 0 0 1 .3.3 18.9 18.9 0 0 1-1.2 1.7Z" fill="#75B5E0"/></g><g opacity=".2"><path opacity=".4" d="M112.2 73.6h-.2v-.1a.2.2 0 0 1 0-.2 53.1 53.1 0 0 0 2.5-2.8l.1.2a.2.2 0 0 1 0 .1 49.3 49.3 0 0 1-2.4 2.8Z" fill="#75B5E0"/></g><g opacity=".2"><path opacity=".4" d="M116.3 68.2a.2.2 0 0 1-.2-.2v-.1a26.6 26.6 0 0 0 1.4-2.3.2.2 0 0 1 .3.3 28 28 0 0 1-1.5 2.3Z" fill="#75B5E0"/></g><path opacity=".1" d="m129.7 63-1.9 1.7c3.5-6-5.8-3.5-6.4-3.3 1.8-.9 3.4-1.4 5-2l.9-.1c.3 0 3.6 0 3.2 2.3-.1.5-.4 1-.8 1.4Z" fill="#75B5E0"/><g opacity=".2"><path opacity=".4" d="M139 74.2h-.2a.2.2 0 0 1 0-.3l4.3-5a.2.2 0 0 1 .2 0 .2.2 0 0 1 0 .2l-4.2 5v.1h-.2Z" fill="#75B5E0"/></g><g opacity=".2"><path opacity=".4" d="M145.4 66.7h-.2a.2.2 0 0 1 0-.3l1.3-1.5a.2.2 0 0 1 .3 0v.2l-1.3 1.6h-.1Z" fill="#75B5E0"/></g><g opacity=".2"><path opacity=".4" d="M142.2 75h-.1V74.6l.3-.5a.2.2 0 0 1 .2 0 .2.2 0 0 1 .2 0v.2l-.4.5a.2.2 0 0 1-.2 0Z" fill="#75B5E0"/></g><g opacity=".2"><path opacity=".4" d="M143.2 73.8h-.1a.2.2 0 0 1 0-.3l.8-1a.2.2 0 0 1 .2 0 .2.2 0 0 1 0 .3l-.7 1a.2.2 0 0 1-.2 0Z" fill="#75B5E0"/></g><g opacity=".2"><path opacity=".4" d="M144.8 72h-.2V71.6l2.4-2.8a.2.2 0 0 1 .2 0v.1c.1 0 0 .1 0 .2l-2.3 2.7h-.1Z" fill="#75B5E0"/></g><path opacity=".2" d="M149.3 66.6h-.1V66.2l.6-.7a.2.2 0 0 1 .2 0V66l-.5.7a.2.2 0 0 1-.2 0Z" fill="#75B5E0"/><path opacity=".1" d="M151.3 61c-.1 1-.4 1.7-.7 2.7-13 .2-18.4 3.6-18.9 3.9a32 32 0 0 1 19.6-6.6Z" fill="#75B5E0"/><path d="M38.3 47.7c1 .7 7.8 2.4 11.2-5.4 2-4.9-2-5.3-2-5.3l-.4-.4-.1-.1-.4-.3-.4-.3-1-.4-.4-1.2c-.4-1.4-.3-1.8-.3-1.8.3.1 1.7.5 3 0 .5-.3 1-.9 1.6-1.6a13.7 13.7 0 0 0 3.2-8.3l.2-4.4V16l-.1-3-3.2-.2-8.4-.2h-2.1c-2.8.2-4.7-.3-5.5 2.7-.9 3 .3 3 .3 4.2 0 .4.3 2 1 3.9l.2.7c.6 1.3.5 4 .5 5.7 0 .2-.2 3.5-.8 4.7-.4 1-2.4 1.6-3 2.1-.6.5.3.9 0 1.2-1 1.5 2.9 6.6 7 9.8Z" fill="#FFD5CA"/><path opacity=".5" d="M42.8 34.1c2 2.1 3.3 2.5 4.1 2.4h.1-.1l-.3-.3-.4-.2-1-.4-.5-1.3c-.3-1.2-.2-1.6-.2-1.7-2.1-.5-3.9-2-4-2.2-.3-.3-1.6-.2 2.3 3.7ZM38.3 17.3c.1 1 1.3 2 1.8 1.3.5-.8.2-2.4.8-3.6.6-1.2 2.5-1 3.8-1 1.3-.1 1.2 2.3 2.8 2.2 1.5-.1 3 1 3.8 1.7.3.3.8.3 1.2.2v-2.2l-1.8-2.1c-.4-.4-1-.7-1.6-1a13 13 0 0 0-4.6-.9c-2.2 0-2.9.3-3.7.8-.4.3-.8.3-1.6.7-2 .9-.9 3-.9 4ZM34.7 24c.5 1.5.5 4 .5 5.8 0 .2.8-1.2.7-2.9-.2-2.5 1.2-4 1.7-3.6 0-.1-1.7-.9-3 0h-.2l.3.8Z" fill="#DFA8B6"/><path d="M32.4 20a11.7 11.7 0 0 0 1.8 3.6l.2.4.3.6v.2l.2.4.2 1.1c0-.3.3-1.3.3-2 0-.8.7-1.3.7-1.3s-.8-.6-1-1.5c1-.3 2 .2 3.1-1l.2-.2c1-1.1 1.8-1.6 1.7-4 0-.6.2-1.3.7-1.7.2-.3 1.1-.5 1.5-.7 1-.5 1.8-.5 2.8-.4l.5.1c1.9.5 1.4 1.5 3 1.7 1.5.2 2.1.5 3.4 1.6 1 .9 3-.7 4-2.3l.2-.4.3-.6c.6-1.7.6-3.3-.6-3.9l-.6-.5c-.3-.5-.2-1-1.3-2-1-1-3-1.3-5.1-1h-.6a7 7 0 0 1-2.8 0L42.2 6c-1.4.1-2.5.6-3.6.9-3 .9-3.8 2.4-4.9 5.3-.4 1-1.4 2-1.6 3.2V17l.3 3Z" fill="#2B2B58"/><path d="M32.4 20a11.7 11.7 0 0 0 1.8 3.6l.2.4.3.6v.2l.2.4.2 1.1c0-.3.3-1.3.3-2 0-.8.7-1.3.7-1.3s-.8-.6-1-1.5c1-.3 2 .2 3.1-1l.2-.2c1-1.1 1.8-1.6 1.7-4 0-.6.2-1.3.7-1.7-.8.5-1.7 2.2-3 2.9-1.1.5-2.8 1.3-4.3.8-.6-.2-.8-1.4-1.5-1.7v.4c0 .9.3 2.5.4 3Z" fill="#1A1A49"/><path d="M49.3 23.5c-.3 0-.5-.5-.4-1 0-.4.4-.7.7-.7.3 0 .5.5.4 1 0 .4-.3.7-.7.7ZM43.4 22.8c-.3 0-.5-.5-.5-1s.4-1 .8-.9c.3 0 .5.5.5 1-.1.6-.4 1-.8.9ZM51.7 21s-.5-1.4-2-1.5c-1.6 0-1.7.6-1.4.7.3.2 1-.3 2.1 0 .8.3 1.2 1.3 1.3.8ZM40.6 19.6s1-1.5 3-1.2c1.9.3 1.8 1 1.4 1.3-.5.2-1-.7-2.4-.6-1 .1-2 1.3-2 .5Z" fill="#2B2B58"/><path d="M45.2 13.6h.5c1.8.6 1.4 1.5 2.9 1.7 1.5.2 2.2.6 3.4 1.6 1 1 3-.7 4-2.3l.3-.6c-.6.5-1.8 1.5-3 1.6-2.2.1-2.5-.8-5.2-1.5-1.1-.3-2.1-.5-3-.5Z" fill="#1A1A49"/><path d="M49 6.2c.5.3.8 1 1.8 1 1.9-.1 1.8.7 3.8 1.8l.7.2c-.3-.4-.2-1-1.3-2-1-.9-2.9-1.3-5-1ZM35.3 11.5c.3-2.5 1.8-2.6 3.3-3.6 1.4-1 2.3-.4 6.2-1.4l.8-.2c-.8-.2-1.8-.3-3.4-.3-1.4.1-2.5.6-3.6.9-2.9.9-3.8 2.4-4.9 5.4-.4 1-1.5 2-1.6 3.3l.3-.2c.9-.4 2.7-2.2 3-4Z" fill="#363666"/><path d="M38.5 22.2s.4-3.6-2.4-3.6c-2.5-.1-2 4.2-.5 5 1.5.7 3.4-.5 3.4-.5l-.5-.9Z" fill="#FDD9CD"/><path opacity=".6" d="M37 22.2s-.7.4-1.3 0c-.7-.6-.7-1.8-.1-2 .6-.2 1.2-.2 1.5 1 0 0-.5 0-.5.5s.3.5.3.5Z" fill="#DFA8B6"/><path d="m37 22.4-.4-.2-.2-.5c0-.2.1-.4.3-.5l.3-.1c-.1-.3-.4-.9-1-.8-.3 0-.5 0-.6.3H35v-.2c.1-.2.4-.5.9-.5.8 0 1.2.9 1.3 1.3v.2h-.5v.6l.2.1c.1 0 .2 0 .2.2l-.1.1Z" fill="#AB888B"/><path d="M52.9 9.4c.4.2 2.5 1.1 2.5 1.8s-1.4 1.2-2.1.5c-.8-.7-1.7-.3-2-.8-.3-.5 0-2.3 1.6-1.5Z" fill="#363666"/><path opacity=".6" d="M45 31.1c-.3 0-.6-.2-.5-.4 0-.2.3-.3.6-.3s.6.3.6.5c0 .1-.3.3-.7.2Z" fill="#DFA8B6"/><path opacity=".5" d="M42.3 24.8c-.6 0-1.1-.4-1.1-.7 0-.4.5-.7 1.1-.7.6 0 1.2.3 1.1.7 0 .4-.5.7-1.1.7ZM49.8 25.5c-.4-.2-.6-.6-.5-.8.1-.3.5-.4 1-.2.3.1.6.5.5.8-.2.2-.6.3-1 .2Z" fill="#fff"/><path d="M35 11.4s.3-1.6 0-2.8c-.3-1-1 2.8-.6 3 .4 0 .6-.2.6-.2Z" fill="#363666"/><path d="M34.7 10.6s-.8 0-1.4.4c-.6.3.5.9 1.2.6.9-.4.2-1 .2-1Z" fill="#363666"/><path d="M45.3 36.3a23.7 23.7 0 0 1-.8-3.7l.1.1a23.7 23.7 0 0 0 .7 3.6ZM43.3 27.6s.4 1.1 1.2 1.7a2 2 0 0 0 2 .2c.5-.2 1-.6 1.5-1.5h-.8l-1.4.3-.8-.3-1.3-.3h-.4Z" fill="#2B2B58"/><path d="m43.3 27.6.4.2c.3.2 1.6.6 2.3.7.2 0 .6 0 .8-.3.2 0 .3-.2.4-.3a15 15 0 0 1-3.4-.8l-.4-.2-.3-.1.2.8Z" fill="#fff"/><path d="M43.2 27s0-.2.1-.1c.1 0 0-.4 0-.4h-.4v.4h.3ZM47.8 28s.2 0 .1.2c0 .2.5 0 .5 0s.3-.3-.1-.4c-.3-.2-.6 0-.6 0l.1.2Z" fill="#FFD5CA"/><path d="M48 25.8a1 1 0 0 0-.8-1.3v-.1l-.3-3.4v-.1l-.1.1v3.6c0 .2.4.3.6.6.3.5-.2 1-1 .9-.7-.1-1-.7-1-1 0 1.8 2.2 1.6 2.5.7Z" fill="#2B2B58"/><path opacity=".2" d="M117.3 106.2c-.3-.2-3-4-11.6-4-8.5 0-11.3 3.8-11.6 4 .4-6.7 5.4-12 11.6-12 6.2 0 11.3 5.3 11.6 12Z" fill="#292955"/><path opacity=".2" d="M82.9 90.6c-1.5.5-3 1-4.5 1.2l-2.2.2c-1 0-2-.2-2.6-1l-.3-.4c-.6-.9-.2-1.3.7-1.7a65 65 0 0 1 4.4-2c.2 1.4 1.2 3.2 4.5 3.7Z" fill="#6CACD8"/><path d="M81.7 82.4c-3.4.5-5 .2-5.6-.3l1.9-.8c7.3-2.9 12.3-5 15.4-6v.7c.7 1.6-.2 4.7-11.7 6.4Z" fill="#67C4F9"/><path d="M91.7 102.3a21.2 21.2 0 0 0-.5 4.1c-.5.2-1.2.2-1.2.2l-2.3-.7s-1.6-1 .4-1 3.6-2.6 3.6-2.6Z" fill="#3480B7"/><path d="M125.1 68.2a.2.2 0 0 1-.1 0 .2.2 0 0 1 0-.3 84.3 84.3 0 0 1 8.2-6 .2.2 0 0 1 0 .2 83.2 83.2 0 0 0-8 6.1Z" fill="#92CEEF"/><path d="M58.4 93.2v2.5c0 2.7-2.9 26.1-3.5 26.5-.8.5-14 .8-15 .3-1-.6-.5-22.7-.8-22.3-.1.3-1.6 1.5-2 3-.8 2.4-5.1 18-5.5 18.4-1 2.1-16.4 1.5-16.4-1.5.4-.5 1.8-19.8 2.1-21.3l.6-3.4S31 89 32 87.3c1-1.7 2.4-3 8-3.6 5.7-.7 13.6 3 16.8 4.5 3.3 1.6 1.7 5 1.7 5Z" fill="#2B2B58"/><path d="M58.4 93.2v2.5l-7.4-.1c-3.5 0-7-1.6-9.2-2.2-1.2-.4-6.7 2.5-8 3.3a35.4 35.4 0 0 1-13.3 2.8 6 6 0 0 1-3.2-.7l.6-3.4s.3-2 1.3-2.5c3.5-1.8 12-4.3 12.8-5.6 1-1.7 2.3-3 8-3.6 5.6-.7 13.5 3 16.7 4.5 3.3 1.6 1.7 5 1.7 5Z" fill="#1A1A49"/><path d="M96.1 61.4v.4a1.6 1.6 0 0 1-.7 1l-.3.2c-.9.4-2.4 1-3.5 1-1 .1-3.6.3-4 0l-3.4 2.3-.2-.3-.4-1.5-1.3-4.1 2.8-1.7.9-.8c.3-.3.5-.7.6-1v-.3l.3-1c.3-1.3.7-2.2.6-2.8l-.2-1.8.9-.3h.5c.6.4 1 1.7 1 2.4s-.1 1.4-.3 2l2.8-.5h2.4c.5.4.6.7.6 1.3l-.1.7H95l-.2.3h.2l.2.2c.2 0 .3.2.4.4 0 .3.2.8 0 1.1l-.4.2.3.2a.8.8 0 0 1 .4.6v.6a.7.7 0 0 1-.4.4v.1a1 1 0 0 1 .6.7Z" fill="#FFD5CA"/><path d="m95.4 62.9-.3.1c-.7.3-1.6 1-3 1.3-1.5.2-3 .1-4.4-.2h-.3l-3.2 2.2-.2-.3c0-.4 2-1.6 2.5-2.4l.6-1.1c.1-.5.6-.3.7.1a1.6 1.6 0 0 0 1 1.2s.4.3 2 .2c1.5 0 2.3-.3 3-.6l1.2-.7c.2-.1.2-.4.2-.4.1-.1.2 0 .2 0v.6Z" fill="#ECBABE"/><path opacity=".5" d="M92 55.6c-1.3.4-1.4 1.2-1.3 1.7 0 .6.9.7.9.7s-.4.2-.3.9c.1.7 1.1.8 1.1.8a1 1 0 0 0-.4.9 1 1 0 0 0 .7.8c-.5.2-.4.8-.1 1.2l-.8-.2c-.8-.5-1.2-1.2-1.7-1.4-.5-.2-.8-.6-.4-1 .3-.3.3-1.4.3-2 0-1.4.7-2.1.6-2.3l-1 .5-.2.1a.5.5 0 0 1-.7-.5c.1-.7.5-1.2.6-2.7.1-1.1-.3-1.4-.6-2l-.5-.4h.6c.5.4 1 1.7 1 2.4l-.3 2 2.7-.5h.4s-1.4.3-.7 1Z" fill="#F4C9C5"/><path d="M96 61.8a1.6 1.6 0 0 1-.9 1.2s.4-.5.3-.6l-.7.1-1.8.3a.7.7 0 0 1-.2-1.4 1 1 0 0 1-.7-.8 1 1 0 0 1 .4-.9s-1 0-1-.8c-.2-.7.2-1 .2-1s-.8 0-1-.6c0-.5.1-1.3 1.3-1.7a6 6 0 0 1 1.1-.2l-.7.3c-.4.1-.7.3-1 .6-.3.6.1.9.7 1h1l1.8-.4.2.1h.2a17 17 0 0 0-2 .6c-.4 0-.7.3-1 .6-.3.6.2 1 .7 1 .3 0 .5 0 .7-.2l1.5-.2.4.2-1.5.3c-.1 0-1.5.2-1.3 1 .1.5.5.6 1.1.5.1 0 1.9-.3 1.7-.1h.1l-1 .2-.6.1c-.5.2-1.1.3-1.1.7a.7.7 0 0 0 .3.6c.3.1.5.2.8 0 .6 0 1.5-.4 2-.5ZM83.6 61.1s1.7 3 3 2.7c1.3-.3-1.3 1-1.4 1-.1 0-.4.4-.7.1-.3-.3-1-3.2-1-3.2l.1-.6Z" fill="#ECBABE"/><path d="m45 13.3.5.1c1.8.5 1.4 1.5 3 1.7 1.4.2 2 .5 3.3 1.5 1 1 3-.7 4-2.2l.3-.6c-.6.5-1.8 1.4-3 1.5-2.2.2-2.5-.7-5.1-1.5l-3-.5Z" fill="#1A1A49"/><path d="M48.8 6c.6.4.9 1.1 1.8 1 2 0 1.8.8 3.9 1.8l.6.3c-.2-.5-.1-1-1.3-2-1-1-2.8-1.4-5-1ZM52.7 9.2c.5.2 2.5 1.1 2.6 1.8 0 .7-1.4 1.2-2.2.5-.7-.7-1.6-.4-2-.8-.2-.5 0-2.3 1.6-1.5ZM34.8 11.2c.2-1 .2-1.8 0-2.7-.3-1.1-1 2.7-.6 2.9a.5.5 0 0 0 .6-.2Z" fill="#363666"/><path d="m45 13.3.5.1c1.8.5 1.4 1.5 3 1.7 1.4.2 2 .5 3.3 1.5 1 1 3-.7 4-2.2l.3-.6c-.6.5-1.8 1.4-3 1.5-2.2.2-2.5-.7-5.1-1.5l-3-.5Z" fill="#1A1A49"/><path d="M48.8 6c.6.4.9 1.1 1.8 1 2 0 1.8.8 3.9 1.8l.6.3c-.2-.5-.1-1-1.3-2-1-1-2.8-1.4-5-1ZM52.7 9.2c.5.2 2.5 1.1 2.6 1.8 0 .7-1.4 1.2-2.2.5-.7-.7-1.6-.4-2-.8-.2-.5 0-2.3 1.6-1.5Z" fill="#363666"/><path d="M80.6 68.4c-.4-.5-3.8-4-2.6-7 .2-.4.5-.9.9-1.2 0 0 2.3-.9 3.6-.6l.3.2.3.3c.2.3 2.6 5.1 2.8 6l.1.5a1.6 1.6 0 0 1-.4 1.3c-.5.4-1 .9-1.7 1.2 0 0-2.8-.2-3.3-.7Z" fill="#F47056"/><path opacity=".6" d="M34.3 37.1s2.9 2.4 5.6 2.4c2.7 0 6.1-1.5 6.1-1.5l-.3 1.6s-2.4 1.3-3.3 1.4c-1 .2-5 0-5 0s-1.8.3-3.1-.6c-1.3-1-2-1.3-1.3-2l1.3-1.3Z" fill="#ECBABE"/><path d="M51.5 84.4c0-.1 0-.1 0 0ZM51.5 84.3l-2.2 2.5-2.5 3.1c-1.2-.3-2.3-.5-3.5-.5-1.7 0-1.3.6-3.2.7-.2 0 .3 0 0 0a38.2 38.2 0 0 1-4.7-.3h-.5l-.3-1.8-.3-1.4C33 79.5 30 66.4 29.8 66l2-24.8 2.8-3s1.8 2.2 5.5 2.2 6.7-2.7 6.7-2.7l3 9 3.3 21.8s-1.7 14.4-1.6 15.8Z" fill="#F7CD53"/><path d="m38 90-2.6-.2-.8-1.8-.3-.7v-.7l1.6-18c1.4 7 2.2 14.2 2.2 21.4ZM44.3 44.4l.8 10.7c.2 2.5 0 9.2.6 9.5.5.3 1.4-.7 1.4-.7l-.7-12.6s-.8-5.6-1.1-6M50.3 81s-.4 3-1 5.8L46.8 90c-1.2-.3-2.3-.5-3.5-.5-1.7 0-1.3.6-3.2.7 1.6-1.6 2.4-5.9 3-11.5a39 39 0 0 1 2.3-9.7l3.9 3.6 1 8.4Z" fill="#EBAD49"/><path d="M59.8 94a.9.9 0 0 1-.7.6 21 21 0 0 1-13-2.7c-.2-.2-.3-.5-.3-.8l-.3-8.8v-.8c-.4-15.3.8-9.7.7-20.3 0-10.7-1.3-14.2-2-17-.5-1.9.1-3.8 1.1-5.7 1-1.8.7-2.6.7-2.6 3 1 5.9 2.1 8.8 3.4 3 1.4 3.5 3.6 3.5 3.6l1.1 10.3-.4 20v.3c.1 2.4 0 4.2-.2 5.3 0 .8 0 2.3.3 3.5l.8 7.4.1 1.5c.1 1 0 1.8-.2 2.7Z" fill="#F35933"/><path d="M16.7 84.6c0 .1 0 .3-.2.4l-.2.2-.4.3-.7.4-.3.2-1.4.6-.4.2-.7.3-1 .4a29 29 0 0 1-1.8.5h-.3c-.4 0-.8-.1-1-.3-.7-.6-1.3-1.3-1.8-2 0 0 1-2.6 1.5-3.1.5-.6 3.9-4 6.8-2.8.6.2 1 .5 1.5 1 0 0 .6 2.5.4 3.7Z" fill="#F47056"/><path d="m56.1 92.9-1.6-.1c-4.5-.5-6.8-2.3-7-2.4V85c.2-2.9.3-6.5.2-9-.2-3.5.8-5.8 1-9.7l.2-2.7c0-2.7-.4-9.5-1-12.5l-.5-2.2c-.6-2.6-1.2-5.4-.9-6.6l1.6-5.2h.3L47 42.5c-.3 1.1.3 4 .8 6.5l.5 2.2c.6 3 1 9.8 1 12.6l-.1 2.7c-.2 3.9-1.3 6.1-1 9.6 0 2.5 0 6.1-.2 9 0 2.4-.2 4.4 0 5.2a14.8 14.8 0 0 0 11.5 2v.2c-1 .4-2.1.5-3.3.5Z" fill="#AA3722"/><path d="M84 70.4c-.4.5-4.3 2.8-6.5 3.7l-5.2 2.3a13 13 0 0 1-5.7 1.4c-1.2 0-3.4 1-7.6-5a41 41 0 0 1-1.3-2c-5-7.7-4.9-22.4-4.9-22.4l2.2-9s3.3 1.1 6 6c2.7 5 3.6 7 4.7 9.6 1 2.7 2.5 5.6 2.7 6.4l.2.5a2.4 2.4 0 0 1-.2 1.9 1 1 0 0 1 1-.4s0-.5 2.2-1c1.3-.4 2.6-.9 3.7-1.5.8-.4 2.5-1.6 3.8-1.2.7 0 1.4.5 1.9 1 .9.7 3 6.5 3 6.9.3 1.4.5 2.4 0 2.8Z" fill="#F35933"/><path d="M84 70.4c-.4.5-4.5 3-6.5 3.7-2.1.7-2.6 1.1-5.2 2.3a13 13 0 0 1-5.7 1.4c-1.2 0-3.4 1-7.6-5-1.4-5.8-2-11.9-2-18 0 0 1.3 19 8.5 19.9 7.1.9 16-3.9 17.5-4.8.9-.5 1-1.5 1-2.3.3 1.4.5 2.4 0 2.8ZM59 82.3c-.9-1-1.3-2.1-1.6-4.4-.3-2 1.2-3.7 1.7-4.4 0 2.4 0 4.2-.3 5.3 0 .8 0 2.3.3 3.5Z" fill="#CA482C"/><path opacity=".6" d="M59.8 94a.9.9 0 0 1-.7.6 21 21 0 0 1-13-2.7c-.2-.2-.3-.5-.3-.8l-.3-8.8v-.8c.6 3 1.9 7.6 4.8 9 4 1.7 6.5 1.6 7.6 1 .5-.4 1.7-.8 2-1.8l.1 1.5c.1 1 0 1.8-.2 2.7Z" fill="#C3452B"/><path d="M68.4 63.8c0 .5-.1 1-.4 1.4a3 3 0 0 1-1.2.8c-.2.1-.3.2-.4 0 .4-.3.8-.7 1-1.2.4-.7.7-1.6.7-2.4 0-.4.3-.5.5-.5a2.4 2.4 0 0 1-.2 1.9Z" fill="#D64D2E"/><path d="M68.4 63.8s.2-.2.2.4l-.2 2a.6.6 0 0 0 .5-.3l.2-1.2v-1h.2l.6.6v.2l.2-.3c-.1-.3-.4-.8-.7-.9h-.5l-.6.2v.3Z" fill="#D64D2E"/><path d="m28.1 43.5-1.7 12-2.7 2.1a76.9 76.9 0 0 0-4 3.6c-1.5 1.8-3.9 3.4-4.7 3.4-.5 0-.6-.2-.7-.1V65l-.3.3c-.3.2-.8.3-.5.6.3.3 1 6.3 1.1 6.7.2.5.1 1 .4 1.7l1.8 5.4c.4 1.5-.1 2.1-1.5 2.9l-3.2 1.7c-2 .9-4.2 1.7-5.3 1.5-1.8-.2-1.6-1.6-2-2.5-.4-1-3.6-12.8-4.5-16.9-.9-4.1.3-5.6 2.1-7.7 1.9-2 1.4-2.5 8.4-9.3 7-6.8 9.3-8.3 11.7-9.7l.4.3 5.2 3.4Z" fill="#F35933"/><path d="M36.7 89.2c-.1 1.3-.3 2.6-.8 3.8-.2.6-.6 1-1.1 1.4-2.4 1.3-5 2-7.7 2.1h-2.5c-8-.5-7.6-4.7-7.6-4.7l1.1-5.5a371 371 0 0 1 2.3-9.4c.2-1.1.4-1.7.8-2.3-.2-1.3 0-3.1 0-4.8L21 69v-.8c0-4 .2-5.6.4-8.9l.3-2.9v-.1L20.6 45l1.9-5.2.5-.3c2-1.1 2.4-1.1 4.2-1.8 1.9-.7 2.5-.8 4.2-1.3a15 15 0 0 0 2.1-.9s3.6 5.5 3 10.6c-.5 5-1 15-1 17.5s.4 7.3.8 11c.4 3.8.6 9.8.4 14.6Z" fill="#F35933"/><path d="M27.1 96.5h-2.5c-8-.5-7.6-4.7-7.6-4.7l1.8-9c.5-.3 1.1-.4 1.7-.2 1.6.3.7 2.3 1.3 3.7.6 1.4 4.2 2.4 5.2 4 .4.9 0 5.3.1 6.2Z" fill="#CA482C" opacity=".6"/><path d="M24.2 94c-1.3 0-2.6-.1-3.8-.4v-.3c3.8.8 8.5.1 11.3-.9 2.2-.8 2.3-3 2.5-7l.2-3.2c.3-4-.3-9-.9-13.3a140 140 0 0 1 0-17.2l.3-6.6c0-2.8-2.4-7.6-2.4-7.7l.3-.1c0 .2 2.5 5 2.5 7.8l-.4 6.6a140.6 140.6 0 0 0 0 17.2c.6 4.4 1.2 9.3 1 13.3l-.2 3.3c-.2 4.1-.3 6.4-2.8 7.3-2.5.8-5 1.2-7.6 1.2Z" fill="#A03320"/><path d="M24.6 79.3s-1.5-.2-2-1.4c-.3-1.2-1-2-3.3 3.3l1-4.4c.3-1 .5-1.6.9-2.2-.2-1.3 0-3.1 0-4.8L21 69a42 42 0 0 0 3.5 10.2Z" fill="#CA482C" opacity=".8"/><path d="M24.6 48.3a89 89 0 0 1-1 9.3c-1 7.2-2.4 10.4-2.5 10.7 0-4 .2-5.6.4-8.9l-1.8 1.8c-1.5 1.8-3.9 3.4-4.7 3.4-.5 0-.6-.2-.7-.1l-.9-.8s2.7-1.1 6.4-4.8c.8-.8 1.4-1.6 2-2.5 2.1-3.7 2.8-8 2.8-8ZM15.3 82.7l-3.2 1.7c1-1 2-2.2 2.8-3.5 1.1-2 0-7.4-.3-8.1l2.1 7c.5 1.5 0 2.1-1.4 2.9Z" fill="#CA482C"/><path d="M39.8 42.4c-1 0-2 0-3-.3a.2.2 0 0 1-.1-.3h.2c2 .4 4 .4 6 0h.2l-.1.3c-1 .2-2.1.3-3.2.3Z" fill="#DE9F3D"/><path d="M12.1 59s1.2 4.8 3.4 5l-2-.3s-1.8-2.8-1.4-4.8Z" fill="#CA482C"/><path d="M15 64.6c-.5 0-.6-.2-.7-.1V65c-.7-.1-2-.5-2.8-1.4-1-1.3-.6-1.4-.6-1.4s2 2 3.5 2.1c.2 0 .4 0 .5.2ZM13.4 66l-1-.1a1.7 1.7 0 0 1-1-1s1.4.5 2 .4a.6.6 0 0 1 .6 0c-.3.3-.8.4-.6.7Z" fill="#CA482C"/><path opacity=".8" d="M38.8 65.5a.1.1 0 0 1 0-.2s.8-.7 2.3-3.1a44.9 44.9 0 0 0 3.4-9.9.1.1 0 0 1 0 .2c0 .3-1.6 7.4-3.1 9.9a13.3 13.3 0 0 1-2.6 3.1ZM37.8 74.7a.1.1 0 0 1-.2 0 .1.1 0 0 1 .1-.2c3-1.3 3.5-7.5 3.5-7.6a.1.1 0 0 1 .1 0 .1.1 0 0 1 .2 0c0 .3-.5 6.5-3.7 7.8Z" fill="#D08531"/><path d="M26.4 91.1a.1.1 0 0 1-.1-.1.2.2 0 0 1 .1-.2 4.8 4.8 0 0 0 .4 0 .1.1 0 0 1 .1 0 .1.1 0 0 1 0 .2l-.4.1Zm-1.4 0h-.4a.1.1 0 0 1 0-.4 5.4 5.4 0 0 0 .4.2.1.1 0 0 1 .1.1.1.1 0 0 1-.1.1Zm3.1-.6a.1.1 0 0 1 0-.3l.2-.2a.1.1 0 1 1 .2.2l-.3.2Zm-4.8-.1h-.1l-.3-.3a.1.1 0 0 1 0-.2.1.1 0 0 1 .2 0l.3.2a.1.1 0 0 1 0 .2.2.2 0 0 1-.1 0Zm6.1-1.2a.2.2 0 0 1-.1-.2 2.6 2.6 0 0 0 .2-.4.1.1 0 0 1 .1 0 .2.2 0 0 1 .1.1l-.2.4Zm-7.4 0a.2.2 0 0 1-.1-.1l-.3-.3a.1.1 0 0 1 .2-.3v.1l.3.3a.1.1 0 0 1 0 .2H22Zm-1-1.6a.1.1 0 0 1-.1-.1l-.2-.4a.1.1 0 0 1 0-.1.1.1 0 0 1 .3 0l.1.3a.1.1 0 0 1-.1.3Zm8.9-.2a.1.1 0 0 1-.1-.2V87a.2.2 0 0 1 .1-.2.1.1 0 0 1 .1 0 .1.1 0 0 1 0 .2v.4a.1.1 0 0 1-.1 0Zm0-1.9a.2.2 0 0 1-.2 0V85a.1.1 0 0 1 .2-.2.1.1 0 0 1 .1.1v.4a.1.1 0 0 1 0 .1h-.1Zm-.3-1.8a.1.1 0 0 1-.2 0 13.4 13.4 0 0 0 0-.6.1.1 0 0 1 .2 0l.1.4a.1.1 0 0 1 0 .2h-.1Z" fill="#A03320"/><path opacity=".8" d="m20.7 86-.2-.1a.6.6 0 0 1-.3-.4l-.5-1.7a.6.6 0 0 1 .3-.7 33.3 33.3 0 0 0 7.6-4.2h.2a.6.6 0 0 1 .4.3l1 1.8a.6.6 0 0 1 0 .7 17 17 0 0 1-4.5 2.7.1.1 0 0 1 0-.3 16.7 16.7 0 0 0 4.3-2.8v-.2l-1-1.7a.3.3 0 0 0-.2-.2.3.3 0 0 0-.3 0 34 34 0 0 1-7.5 4.3v.2l.5 1.8a.3.3 0 0 0 .2.2h.1a38.5 38.5 0 0 0 1.9-.5.1.1 0 0 1-.1.2l-1.7.5h-.2ZM59 84.8a36.9 36.9 0 0 1-1.7-.8.1.1 0 0 1 .1 0 38 38 0 0 0 1.8.7.1.1 0 0 1-.2 0ZM55.1 83.2a17 17 0 0 1-4.3-2.6.6.6 0 0 1 0-.8l1-1.8a.6.6 0 0 1 .8-.1 30.6 30.6 0 0 0 6.3 3.6.1.1 0 0 1-.2.2 31.5 31.5 0 0 1-6.5-3.6.3.3 0 0 0-.2 0L51 80a.3.3 0 0 0 0 .3 16.6 16.6 0 0 0 4.3 2.7.1.1 0 0 1 0 .2.1.1 0 0 1-.2 0Z" fill="#A03320"/><path d="M26.2 93.4a.2.2 0 0 1-.1.1s-1 .1-1.3-.3l-1.3-1.4A3 3 0 0 0 22 91c.7.3 1.2.7 1.7 1.2a38 38 0 0 1 1.7 2.3v.1a.6.6 0 0 1-.6.3 2 2 0 0 1-1-.4L22 93c-.6-.3-1.2-.6-1.8-.7l1.8 1.4A26.4 26.4 0 0 1 24 96a.3.3 0 0 1-.1.2s-1 .2-1.5-.3l-1.1-1.1c-.5-.5-1-.9-1.7-1a13 13 0 0 1 2.4 2.3.3.3 0 0 1 0 .4v.1h-.2a1 1 0 0 1-.7 0c-.4-.3-.8-.6-1-1a9.7 9.7 0 0 0-2-1l-3-.6c-1.2-.1-2-1.6-2.2-2a4 4 0 0 1-.2-.6l-.8-2.4-.5-1.4 1.1-.4.6-.2.4-.2h.1l1.3-.6.4-.2.7-.5c.2.8.4 1.7.7 2l.8.3c.3-.1.5-.3.6-.5l1.4 1 .3.2c0 .3-.2.6.9.7h.4c1 .1 2.4.2 3 .8a18 18 0 0 1 2 2.7c.2.2.2.4.2.7Z" fill="#FFD5CA"/><path d="m20.6 87.5-1 1-.3.4.7.3-.4.2-1.5.6-2-1.2.4-.2.1-.2.7-.6h.1l.6-.5 1.3-1.1.9-1.4c.2 0 .5 0 .7.2l.3.2v.2c.2.5-.2 1.6-.6 2.1Z" fill="#FFD5CA"/><path d="M26.2 93.4a.3.3 0 0 1-.1.1s-1 .1-1.3-.3l-1.3-1.4c-.4-.4-1-.7-1.6-.8.9 0 1.5 0 2 .5.5.6 1 1.5 1.4 1.7a1 1 0 0 0 1 .2ZM25.3 94.4a.4.4 0 0 1 0 .2.6.6 0 0 1-.6.3 2 2 0 0 1-1-.4L22 93c-.5-.3-1.1-.6-1.8-.6.6-.2 1.3 0 1.8.2.4.1.7.3 1 .6.4.6 1 1.2 1.3 1.3h1ZM20.6 89.2h.4c-.5.1-1 0-1.5-.2-.2-.1-.3-.3 0-.6l.9-1.2c.5-.5.7-1.2.8-2v.2c.2.5-.2 1.7-.5 2.1l-1 1c0 .3-.2.6.9.7ZM22 96.5h-.2l-.1.2a1 1 0 0 1-.7-.1l-1-1a8.1 8.1 0 0 0-2-1l-3-.6c-1.2-.2-2-1.6-2.2-2l-.2-.6 2 1.8c.9.6 1.9.5 3.5 1 1.5.6 2.3 1.7 2.8 2a1.3 1.3 0 0 0 1 .3ZM12.4 87.2c-.3.5-.5 1-.6 1.7l-.5-1.3 1.1-.4ZM23.8 96.2s-1 .2-1.5-.3l-1.1-1.1c-.5-.5-1-.9-1.7-1 1.4 0 2.6 1.4 3.1 1.8a1.4 1.4 0 0 0 1.2.1.3.3 0 0 1 0 .5Z" fill="#ECBABE"/><path d="M54.5 89.7a.1.1 0 0 1-.1-.1.1.1 0 0 1 0-.2h.4a.1.1 0 0 1 .1.2h-.4Zm-1.3-.1H53a.1.1 0 0 1 0-.1.1.1 0 0 1-.1-.1.1.1 0 0 1 .1-.1h.4a.1.1 0 0 1 0 .2.1.1 0 0 1 0 .1Zm2.8-.4a.1.1 0 0 1-.1 0 .1.1 0 0 1 0-.2 3.4 3.4 0 0 0 .4-.2.1.1 0 0 1 0 .2l-.2.2Zm-4.3-.1-.3-.2a.1.1 0 0 1 0-.2.1.1 0 0 1 .2 0 4 4 0 0 0 .2.2.1.1 0 0 1 0 .1Zm5.6-.9h-.1a.1.1 0 0 1 0-.2l.2-.2a.1.1 0 0 1 .2 0v.1a3.1 3.1 0 0 1-.3.3Zm-6.7-.2a.1.1 0 0 1-.1 0 10.8 10.8 0 0 1-.2-.4v-.1a.1.1 0 0 1 .1 0 .1.1 0 0 1 .1 0l.2.3a.1.1 0 0 1 0 .2h-.1Zm7.6-1a.1.1 0 0 1-.1-.2l.2-.3a.1.1 0 1 1 .2.1 10 10 0 0 1-.2.3Zm-8.3-.5a4.1 4.1 0 0 1-.2-.4.1.1 0 0 1 0-.1h.1a.1.1 0 0 1 .2 0v.4a.1.1 0 0 1 0 .1Zm9-1a.1.1 0 0 1 0-.1v-.1a.1.1 0 0 1 .2 0v.2a.1.1 0 0 1-.1 0Zm-9.2-.5a.1.1 0 0 1-.1-.2v-.2a.1.1 0 0 1 .2 0v.2a.1.1 0 0 1 0 .2Zm.1-1.6a.1.1 0 0 1-.1-.2V83a.1.1 0 0 1 .2 0v.4h-.1Zm.3-1.6a.1.1 0 0 1-.1-.1v-.4a.1.1 0 0 1 .2 0 .1.1 0 0 1 .1.1v.3a.1.1 0 0 1-.2.1Z" fill="#A03320"/><path d="M113.6 23.2a15 15 0 0 1-2 8.2C109.5 35 100.9 41.6 96.8 45a4.3 4.3 0 0 1-5.1.1l-4.6-3.3a77.6 77.6 0 0 1-9-8.2 9 9 0 0 1-2.6-6.3v-4.9c0-7 .3-16.2 1.1-18.7C78-.4 82.6 0 93.7 0h13.7c6 0 6 4.2 6 4.2s.3 6.6.3 13l-.1 6Z" fill="#3BAF71"/><path d="M95.1 5C86.7 5 82 4.9 80.8 7.9c-.8 2.4-.8 13-.8 18a7 7 0 0 0 1.9 4.8 59.3 59.3 0 0 0 10.4 8.8 3.3 3.3 0 0 0 3.9-.1c3.1-2.5 9.3-7.6 11-10.3 2-3.7 1.5-6.2 1.5-11l-.1-9.6s.6-3.3-6-3.3h-7.5Z" fill="#44C86A"/><path d="M95 7.8c-7.2 0-11.2-.3-12 2.3-.8 2-.8 11-.8 15.2 0 1.5.6 3 1.6 4a50.4 50.4 0 0 0 8.8 7.5 2.8 2.8 0 0 0 3.3-.1c2.6-2 8-6.4 9.3-8.7 1.8-3.2 1-5 1-9.2V11s.7-3.2-4.8-3.2H95Z" fill="#54D174"/><path d="M95 7.8c-7.2 0-11.2-.3-12 2.3-.8 2-.8 11-.8 15.2 0 1.5.6 3 1.6 4a50.4 50.4 0 0 0 8.8 7.5 2.8 2.8 0 0 0 3.3-.1c2.6-2 8-6.4 9.3-8.7 1.8-3.2 1-5 1-9.2V11s.7-3.2-4.8-3.2H95Z" fill="#54D174"/><path d="m104.6 15.9-2-2.2a.7.7 0 0 0-1-.2l-.1.2-10.1 10.8-3.8-3.9a.7.7 0 0 0-1 0l-2 2.1a.8.8 0 0 0 0 1.1l6.5 6.7a.7.7 0 0 0 1 0L104.7 17a.8.8 0 0 0 0-1.1Z" fill="#44C86A"/><path d="m90.8 29-2-2.1a.8.8 0 0 1 0-1.1l12.5-13.5a.7.7 0 0 1 .5-.3.7.7 0 0 1 .5.3l2.1 2.2a.8.8 0 0 1 0 1L92 29.2a.7.7 0 0 1-1 0Z" fill="#fff"/><path d="m91.9 29 2-2a.8.8 0 0 0 0-1.1l-6.5-6.7a.7.7 0 0 0-1 0l-2 2.1a.8.8 0 0 0 0 1.1l6.5 6.7a.7.7 0 0 0 1 0Z" fill="#fff"/><path opacity=".5" d="M113.6 23.2a15 15 0 0 1-2 8.2C109.5 35 100.9 41.6 96.8 45a4.3 4.3 0 0 1-5.1.1l-4.6-3.3a77.6 77.6 0 0 1-9-8.2 9 9 0 0 1-2.6-6.3v-4.9a22 22 0 0 0 8.3 13.9c7.2 5.3 8 6.4 10.7 6.3 2.8 0 15.5-10.8 16.7-12.8.8-1.3 1.7-4.3 2.4-6.5Z" fill="#2E9E5E"/><path d="M112 12.5h-.1V9.4a.2.2 0 0 1 .3.2v2.6a.2.2 0 0 1-.2.2ZM112 7.8h-.1V6a4.8 4.8 0 0 0-5-4.8l-.1-.2a.2.2 0 0 1 0-.1.2.2 0 0 1 .2 0 5.2 5.2 0 0 1 5.2 5.1v1.5a.2.2 0 0 1-.2.2ZM102.7 1.3h-6.1a.2.2 0 0 1 0-.4h6a.2.2 0 0 1 .2.4h-.1ZM93.2 1.3h-1.6a.2.2 0 1 1 0-.4h1.6a.2.2 0 0 1 0 .4Z" fill="#54D174"/><path d="M113.6 23.2a15 15 0 0 1-2 8.2C109.5 35 100.9 41.6 96.8 45a4.3 4.3 0 0 1-5.1.1l-4.6-3.3a77.6 77.6 0 0 1-9-8.2 9 9 0 0 1-2.6-6.3v-4.9c0-7 .3-16.2 1.1-18.7C78-.4 82.6 0 93.7 0h13.7c6 0 6 4.2 6 4.2s.3 6.6.3 13l-.1 6Z" fill="#1CBB66"/><path d="M95.2 3.9c-9 0-14-.4-15.1 3-.9 2.4-1 13.7-1 19.1 0 2 .8 3.7 2 5.1a62.9 62.9 0 0 0 11 9.4 3.5 3.5 0 0 0 4.2-.1c3.3-2.7 9.9-8 11.5-11 2.3-4 1.7-6.6 1.7-11.8l-.1-10.2s.6-3.5-6.3-3.5h-8Z" fill="#20D374"/><path d="M95 7.8c-7.2 0-11.2-.3-12 2.3-.8 2-.8 11-.8 15.2 0 1.5.6 3 1.6 4a50.4 50.4 0 0 0 8.8 7.5 2.8 2.8 0 0 0 3.3-.1c2.6-2 8-6.4 9.3-8.7 1.8-3.2 1-5 1-9.2V11s.7-3.2-4.8-3.2H95Z" fill="#54D174"/><path d="M95.1 6.9c-7.5 0-11.7-.3-12.6 2.4-.7 2.1-.8 11.6-.8 16.2 0 1.5.6 3 1.7 4.2a53 53 0 0 0 9.2 8 2.9 2.9 0 0 0 3.4-.2c2.8-2.2 8.3-6.8 9.7-9.2 2-3.4 1.1-5.3 1.1-9.7v-8.3s.7-3.4-5-3.4h-6.7Z" fill="#36D982"/><path d="m105 16.6-2.2-2.2a.7.7 0 0 0-.8-.2l-.2.2-10.1 10.8-3.8-3.9a.7.7 0 0 0-1 0l-2 2.1a.8.8 0 0 0 0 1.1l6.5 6.7a.7.7 0 0 0 .9 0h.1L105 17.7a.8.8 0 0 0 0-1.1Z" fill="#20D374"/><path d="m90.8 29-2-2.1a.8.8 0 0 1 0-1.1l12.5-13.5a.7.7 0 0 1 .5-.3.7.7 0 0 1 .5.3l2.1 2.2a.8.8 0 0 1 0 1L92 29.2a.7.7 0 0 1-1 0Z" fill="#fff"/><path d="m91.9 29 2-2a.8.8 0 0 0 0-1.1l-6.5-6.7a.7.7 0 0 0-1 0l-2 2.1a.8.8 0 0 0 0 1.1l6.5 6.7a.7.7 0 0 0 1 0Z" fill="#fff"/><path opacity=".5" d="M113.6 23.2a15 15 0 0 1-2 8.2C109.5 35 100.9 41.6 96.8 45a4.3 4.3 0 0 1-5.1.1l-4.6-3.3a77.6 77.6 0 0 1-9-8.2 9 9 0 0 1-2.6-6.3v-4.9a22 22 0 0 0 8.3 13.9c7.2 5.3 8 6.4 10.7 6.3 2.8 0 15.5-10.8 16.7-12.8.8-1.3 1.7-4.3 2.4-6.5Z" fill="#20AC5C"/><path d="M112 12.5h-.1V9.4a.2.2 0 0 1 .3.2v2.6a.2.2 0 0 1-.2.2ZM112 7.8h-.1V6a4.8 4.8 0 0 0-5-4.8l-.1-.2a.2.2 0 0 1 0-.1.2.2 0 0 1 .2 0 5.2 5.2 0 0 1 5.2 5.1v1.5a.2.2 0 0 1-.2.2ZM102.7 1.3h-6.1a.2.2 0 0 1 0-.4h6a.2.2 0 0 1 .2.4h-.1ZM93.2 1.3h-1.6a.2.2 0 1 1 0-.4h1.6a.2.2 0 0 1 0 .4Z" fill="#54D174"/><path d="M49.3 94s.8 5.6 6.6 7.4M27.2 97.4s-2.8 4.1-8 5M40.5 99c.5-.5.7-1.2.8-2 .4-2.3.6-5.6.6-5.6" stroke="#1A1A49" stroke-miterlimit="10"/><path d="M25.2 59.5c.4 2.3 1.7 7.6 3.4 10.3M56.6 52.7c-.3-1.2-1-3.8-1.9-5.1" stroke="#C3452B" stroke-width=".5" stroke-linecap="round"/><path d="M1.7 66c.7 2 2.7 7 4.9 9.2" stroke="#D54C2E" stroke-width=".5"/><path d="m3.7 80.8.1-.1H4l.2.8c1.2 3.3 1.3 3.7 1.9 4 .8.4 3.4-.3 3.5-.3l.1.1-.1.2c-.1 0-2.6.8-3.6.2-.7-.3-.8-.7-2-4.2l-.3-.7Z" fill="#A03320"/><path d="M12.1 60.2c.3 1.3 1.2 4.6 3 4.2 2-.3 5.7-4 7.3-6" stroke="#A03320" stroke-width=".5" stroke-linecap="round"/><rect opacity=".6" x="145.1" y="103.2" width="3.4" height=".3" rx=".2" fill="#4488C1"/><path d="M105.7 113.5c-6.2 0-9.4-2.3-10.3-3.5.7 2 4 6.3 10.3 6.3 6 0 9.4-3.9 10.3-5.8-.9 1-4.1 3-10.3 3Z" fill="#1A1A3F" fill-opacity=".6"/><rect opacity=".6" x="124.1" y="103.2" width="17.6" height=".3" rx=".2" fill="#4488C1"/></svg>