<svg width="260" height="148" viewBox="0 0 260 148" fill="none" xmlns="http://www.w3.org/2000/svg">
    <path d="M130 148C201.797 148 260 138.598 260 127C260 115.402 201.797 106 130 106C58.203 106 0 115.402 0 127C0 138.598 58.203 148 130 148Z" fill="currentColor"/>
    <path d="M191.551 120.146C191.551 120.146 199.143 122.134 205.524 120.557C211.905 118.98 209.146 112.865 209.146 112.865C209.146 112.865 199.809 113.931 199.176 114.63C198.543 115.328 196.573 115.859 195.871 116.71C195.17 117.561 191.551 120.146 191.551 120.146Z" fill="#272A56"/>
    <path d="M155.752 97.6714C155.267 97.1929 146.861 98.0629 142.932 100.817C139.003 103.571 141.274 111.363 141.274 111.363L143.51 116.105L147.327 115.477C147.327 115.477 170.681 112.299 155.752 97.6714Z" fill="#987A00"/>
    <path d="M115.643 108.266C115.624 108.296 115.404 108.225 115.095 108.092C114.273 107.741 112.826 106.953 112.503 106.262C112.051 105.3 109.859 98.421 109.621 98.7092C109.382 98.9973 108.799 100.028 108.799 100.327C108.799 100.626 104.837 105.077 104.837 105.077H101.963L101.286 104.217C101.154 103.758 100.332 102.404 100.283 100.74C100.256 100.024 100.39 99.3118 100.678 98.6548C102.064 95.4819 106.344 92.0617 108.379 91.4826C112.043 90.4386 113.692 95.0333 115.084 96.7978C116.476 98.5623 115.706 108.157 115.643 108.266Z" fill="#987A00"/>
    <path d="M162.547 114.291C162.547 116.795 165.75 116.673 166.298 118.701C166.696 120.166 164.909 124.329 163.12 125.343C161.778 126.104 154.698 126.254 153.076 126.254C149.788 126.254 146.07 120.898 146.07 114.291C146.07 106.284 150.237 102.429 153.076 102.057C157.887 101.428 160.303 102.358 161.408 103.65C163.243 105.8 162.547 110.161 162.547 114.291Z" fill="#272A56"/>
    <path d="M153.807 120.717C155.561 120.717 156.983 118.008 156.983 114.665C156.983 111.323 155.561 108.613 153.807 108.613C152.054 108.613 150.632 111.323 150.632 114.665C150.632 118.008 152.054 120.717 153.807 120.717Z" fill="white"/>
    <path d="M116.957 104.277C116.957 106.354 118.166 106.59 118.62 108.273C118.949 109.491 117.697 112.414 116.494 113.222C115.431 113.937 110.343 113.937 108.995 113.937C106.272 113.937 103.181 109.763 103.181 104.282C103.181 98.8011 106.62 94.3613 108.995 94.3613C110.365 94.3613 114.995 94.3885 115.911 95.4488C117.434 97.2297 116.957 100.851 116.957 104.277Z" fill="#272A56"/>
    <path d="M222.051 102.597C221.873 103.073 221.534 103.53 221.594 103.845C221.687 104.176 221.727 104.519 221.712 104.862C221.689 105.105 221.628 105.343 221.534 105.569C221.194 106.384 221.235 106.401 221.26 107.056C221.26 107.496 221.44 108.388 221.517 109.147C221.559 109.458 221.566 109.774 221.539 110.087C221.44 110.819 221.38 112.98 220.24 113.752C219.101 114.524 219.783 114.584 216.487 115.674C213.191 116.765 207.314 119.179 196.231 120.731C188.913 121.756 177.994 123.35 168.227 121.43C165.783 120.984 163.376 120.354 161.029 119.546C160.958 117.472 160.881 114.924 160.834 112.958C160.798 111.932 160.668 110.911 160.445 109.908C159.708 106.46 157.894 102.453 154.76 101.52C151.001 100.403 148.028 102.157 146.842 104.052C146.122 105.226 145.524 106.469 145.055 107.763C144.079 110.438 143.557 113.256 143.51 116.101L114.98 109.117C114.98 109.117 115.032 108.739 115.081 108.084C115.216 106.28 115.197 104.468 115.026 102.668C114.854 100.895 114.719 98.8614 113.834 97.0697C111.251 91.8632 106.848 92.1759 104.596 95.3215C103.598 96.7136 103.226 98.0621 102.776 99.5031C102.361 100.924 102.114 102.389 102.042 103.867L101.96 105.044C101.96 105.044 98.2857 104.228 97.6857 103.815C97.0856 103.402 97.0281 103.062 97.0692 102.409C97.1103 101.757 96.9486 98.0295 97.0171 97.5346C97.0829 97.0888 97.2911 96.806 97.7843 96.7815C97.8445 96.7775 97.9049 96.7775 97.9651 96.7815C98.3245 96.8075 98.6853 96.8075 99.0447 96.7815C98.7212 95.1349 98.5143 93.4678 98.4254 91.7925C98.4345 90.1563 98.5425 88.5221 98.7487 86.8987C98.9779 84.7499 99.3532 82.619 99.8721 80.5204C100.071 79.7336 100.322 78.9607 100.623 78.2067C103.007 72.4048 104.924 70.1536 107.171 67.8481C109.489 65.5625 112.127 63.6212 115.004 62.0842C116.085 61.4935 117.195 60.9572 118.331 60.4774C123.262 58.3975 129.134 56.6358 138.756 56.1273C148.379 55.6189 159.579 57.0381 165.607 58.248C171.635 59.4579 176.189 61.1789 179.033 63.1989C181.877 65.219 190.052 71.7387 192.589 74.2155C195.127 76.6923 198.672 80.2132 198.672 80.2132L199.135 80.4388L199.272 80.5068L199.932 80.8304L200.206 80.9717L201.787 81.752L201.943 81.8309L202.338 82.0266L204.596 83.1549L205.089 83.4023L206.072 83.9026L206.557 84.15L207.27 84.517C207.694 84.7345 208.092 84.9493 208.489 85.1532L208.821 85.3272L209.223 85.542C209.47 85.6753 209.705 85.8139 209.925 85.9227L210.547 86.2734C210.801 86.4175 211.034 86.5453 211.248 86.6812L211.585 86.8851C211.703 86.9585 211.818 87.0292 211.925 87.0999L212.229 87.2957C212.278 87.3256 212.322 87.3582 212.369 87.3881L212.5 87.4778C212.846 87.7099 213.177 87.9623 213.492 88.2336L213.618 88.3478C213.684 88.4049 213.741 88.4566 213.793 88.5082L213.876 88.5844L213.955 88.6551L213.974 88.6741C214.103 88.6599 214.233 88.6718 214.357 88.7092C214.481 88.7466 214.596 88.8087 214.695 88.8916C214.867 89.052 214.802 90.251 215.588 90.9823C216.026 91.3929 216.884 91.6213 217.152 91.9176L217.369 92.1242C217.448 92.2085 217.643 92.2112 217.703 92.2738C218.221 92.948 220.144 94.1226 219.944 95.4086C219.944 95.4086 220.684 95.626 221.783 97.5102C222.882 99.3943 222.232 102.121 222.051 102.597Z" fill="#F15A34"/>
    <path d="M142.258 87.4044C142.258 87.4044 140.132 87.6926 140.255 89.0357C140.378 90.3788 144.179 90.6317 145.508 90.1015C146.836 89.5713 149.184 86.075 148.647 86.0451C148.11 86.0151 147.779 85.8058 146.809 86.529C145.839 87.2522 142.258 87.4044 142.258 87.4044Z" fill="#E9532E"/>
    <path d="M148.646 85.7407V86.2844L147.517 86.2654C147.517 86.2654 146.377 87.9728 143.459 87.9728C140.657 87.9728 139.763 86.2355 139.484 85.3165L139.55 85.3383C139.427 84.7735 139.444 84.1878 139.599 83.6309C139.599 83.9027 139.698 85.2812 140.544 85.9418C140.708 86.0689 140.879 86.186 141.057 86.2926C142.115 86.8164 143.311 87.0061 144.481 86.8363C146.221 86.5862 146.695 86.1648 147.021 85.8141C147.208 85.648 147.36 85.4465 147.468 85.2214C147.468 85.3627 147.534 85.7651 147.821 85.7651L148.646 85.7407Z" fill="#DB4D29"/>
    <path d="M183.515 112.064C183.126 112.494 182.433 113.837 187.45 113.573C192.466 113.31 214.67 110.855 220.457 105.713C226.243 100.572 198.305 105.928 198.305 105.928L183.515 112.064Z" fill="#DF512D"/>
    <path d="M101.792 83.089C101.69 83.8203 101.183 84.2988 100.97 84.6795C100.66 85.2423 100.104 86.9633 99.2436 86.9198L98.7422 86.9035C98.7422 86.9035 98.8546 86.0878 99.0162 84.9813C99.2382 83.5457 99.5642 81.648 99.8546 80.5251C100.24 80.5641 100.606 80.7104 100.911 80.9471C101.216 81.1838 101.447 81.5012 101.578 81.8628C101.766 82.2428 101.84 82.6684 101.792 83.089Z" fill="#F47958"/>
    <path d="M102.776 99.504C102.361 100.926 102.114 102.391 102.042 103.87L101.96 105.048C101.96 105.048 98.2857 104.232 97.6857 103.819C97.0856 103.405 97.0281 103.066 97.0692 102.413C97.1103 101.761 96.9486 98.0331 97.0171 97.5383C97.0829 97.0924 97.2911 96.8096 97.7843 96.7852C97.7843 96.8096 97.8062 96.8395 97.8172 96.8694C98.1761 97.9923 97.8172 98.7073 98.2282 99.3707C98.5898 99.958 99.157 100.665 100.28 100.711C100.437 100.72 100.593 100.715 100.749 100.698C101.637 100.608 102.294 99.9689 102.776 99.504Z" fill="#D59F14"/>
    <path d="M104.593 91.2618C104.593 91.2618 108.607 88.3527 112.514 91.2618C114.855 93.0062 116.526 95.4899 117.254 98.3035C117.254 98.3035 117.769 92.3221 113.037 89.3314C108.306 86.3408 104.593 91.2618 104.593 91.2618Z" fill="#F9CD75"/>
    <path d="M145.045 107.754C144.072 110.429 143.552 113.246 143.508 116.09L114.978 109.105C115.22 106.963 115.235 104.802 115.024 102.656C115.663 104.478 115.742 107.354 118.129 108.347C120.956 109.524 136.026 113.349 138.804 113.708C141.582 114.067 142.763 112.43 143.637 110.136C144.103 108.904 144.577 108.156 145.045 107.754Z" fill="#D59F14"/>
    <path d="M119.031 102.232C118.807 102.511 118.682 102.854 118.674 103.21C118.642 104.282 118.88 105.035 119.992 105.478C121.239 105.975 137.336 110.47 137.884 110.35C138.432 110.23 138.53 109.785 138.133 109.439C137.736 109.094 119.943 102.02 119.502 101.971C119.408 101.972 119.315 101.997 119.233 102.042C119.151 102.088 119.081 102.153 119.031 102.232Z" fill="#F9CD75"/>
    <path d="M146.326 99.0396C146.326 99.0396 150.235 96.0299 156.099 98.3762C161.962 100.723 164.121 107.052 164.121 107.052H164.686C164.686 107.052 164.327 101.745 160.932 98.3273C157.537 94.9098 151.419 93.0691 146.326 99.0396Z" fill="#F9CD75"/>
    <path d="M221.534 110.075C221.436 110.807 221.375 112.968 220.235 113.74C219.096 114.513 219.778 114.572 216.482 115.663C213.186 116.753 207.309 119.167 196.226 120.72C188.908 121.745 177.989 123.338 168.222 121.418C165.778 120.972 163.372 120.342 161.024 119.534C160.953 117.46 160.876 114.912 160.829 112.947C160.793 111.92 160.663 110.899 160.44 109.896C160.965 110.72 161.336 111.631 161.536 112.585C162.413 116.206 162.567 117.84 163.441 118.148C164.315 118.455 166.728 119.779 174.036 120.034C181.343 120.29 182.573 119.067 182.932 118.863C183.291 118.659 184.886 118.708 187.042 118.708C189.198 118.708 194.9 118.148 198.196 117.636C201.492 117.125 210.44 114.983 213.219 113.86C215.857 112.794 220.118 111.775 221.507 109.135C221.55 109.446 221.56 109.762 221.534 110.075Z" fill="#DB4D29"/>
    <path d="M222.052 102.599C221.874 103.074 221.534 103.531 221.594 103.846C221.688 104.177 221.727 104.52 221.712 104.863C220.068 105.464 218.197 105.339 217.235 105.249C216.635 105.174 216.026 105.281 215.487 105.554C206.993 108.816 191.924 110.72 191.924 110.72C187.54 113.167 184.929 113.936 181.998 113.528C179.066 113.12 177.677 110.668 177.066 107.199C176.455 103.73 175.989 102.596 170.846 97.3431C165.704 92.0904 158.298 88.9502 158.298 88.9502C157.218 87.1422 152.27 74.0729 145.645 68.203C139.02 62.3331 131.466 60.9764 124.162 60.6692C120.945 60.536 117.169 60.9982 115.005 62.0912C116.086 61.5004 117.196 60.9641 118.331 60.4843C118.928 60.2315 119.539 59.9814 120.17 59.734C120.852 59.4621 121.559 59.1902 122.29 58.9428C122.748 58.7797 123.214 58.6247 123.693 58.4697C127.606 57.2163 132.348 56.4714 138.762 56.1261C147.083 55.6829 156.572 56.6182 162.901 57.7356C163.89 57.9096 164.799 58.0836 165.616 58.2468C171.644 59.4539 176.197 61.1776 179.041 63.1977C181.885 65.2178 190.061 71.7375 192.598 74.2143C195.135 76.6911 198.672 80.2147 198.672 80.2147L199.135 80.4403L199.272 80.5083L199.933 80.8318L200.207 80.9732L201.788 81.7535L201.944 81.8324L202.338 82.0281L204.596 83.1564L205.089 83.4038L206.073 83.9041L206.558 84.1515L207.27 84.5185C207.695 84.736 208.092 84.9508 208.489 85.1547L208.821 85.3287L209.224 85.5435C209.47 85.6767 209.706 85.8154 209.925 85.9242L210.547 86.2749C210.802 86.419 211.035 86.5468 211.248 86.6827L211.585 86.8866C211.703 86.96 211.818 87.0307 211.925 87.1014L212.229 87.2971C212.279 87.327 212.323 87.3597 212.369 87.3896L212.501 87.4793C212.846 87.7114 213.177 87.9638 213.492 88.2351L213.618 88.3493C213.684 88.4064 213.742 88.4581 213.794 88.5097L213.876 88.5859L213.955 88.6565L213.975 88.6756C214.103 88.6614 214.234 88.6733 214.358 88.7107C214.481 88.7481 214.596 88.8102 214.695 88.8931C214.868 89.0535 215.717 89.812 216.504 90.5543L217.476 91.7913L217.575 92.3351C217.654 92.4194 217.78 91.8403 217.83 91.9028C218.347 92.5771 219.405 94.1947 219.956 95.0974C219.956 95.0974 220.685 95.6275 221.783 97.5117C222.882 99.3958 222.233 102.123 222.052 102.599Z" fill="#FF653F"/>
    <path d="M168.174 61.242C167.182 61.9968 166.105 62.6354 164.965 63.1452C163.047 63.9608 160.71 64.3986 159.291 62.577C157.951 60.856 149.304 59.3144 140.027 59.0779C130.38 58.825 120.116 59.8935 120.116 59.8935L120.168 59.7304C120.851 59.4585 121.557 59.1866 122.289 58.9392C122.747 58.7761 123.212 58.6211 123.692 58.4661C124.927 58.5232 128.182 58.0121 130.128 57.9632C136.391 57.8082 143.887 57.5064 151.047 58.091C161.009 58.8984 168.174 61.242 168.174 61.242Z" fill="#FF7755"/>
    <path d="M174.667 65.302L164.965 63.1269L161.852 62.4309C161.852 62.4309 151.23 56.3 141.577 56.7378C133.632 57.0994 126.138 58.766 122.299 58.9291C122.757 58.766 123.223 58.611 123.702 58.456C127.615 57.2027 132.358 56.4577 138.772 56.1124C147.093 55.6693 156.581 56.6045 162.91 57.722C163.474 57.9014 163.967 58.0754 164.378 58.2358C170.25 60.5468 174.667 65.302 174.667 65.302Z" fill="#FF7755"/>
    <path d="M169.605 96.2824C169.57 96.2827 169.537 96.27 169.511 96.2471C165.645 92.7507 160.982 90.3554 159.155 89.4881C158.497 89.1733 157.969 88.642 157.661 87.9846C157.489 87.6149 157.286 87.169 157.059 86.666C155.034 82.2181 150.823 72.9605 145.551 68.3005C145.537 68.2889 145.525 68.2745 145.516 68.2581C145.507 68.2417 145.502 68.2238 145.5 68.2053C145.499 68.1868 145.501 68.1682 145.507 68.1507C145.513 68.1332 145.523 68.117 145.535 68.1033C145.548 68.0896 145.563 68.0785 145.58 68.0708C145.597 68.0631 145.616 68.059 145.634 68.0586C145.653 68.0583 145.671 68.0617 145.689 68.0687C145.706 68.0757 145.722 68.0861 145.735 68.0993C151.045 72.7974 155.272 82.0903 157.305 86.5545C157.533 87.0575 157.735 87.5007 157.908 87.8704C158.19 88.4721 158.675 88.9575 159.278 89.2434C161.116 90.1162 165.807 92.525 169.69 96.0404C169.71 96.0588 169.724 96.0828 169.731 96.1093C169.737 96.1359 169.735 96.1637 169.725 96.1893C169.716 96.2148 169.698 96.2368 169.676 96.2524C169.653 96.2681 169.627 96.2766 169.599 96.277L169.605 96.2824Z" fill="#DF512D"/>
    <path d="M207.155 94.3769C204.84 94.9886 205.15 93.7135 203.659 94.173C202.169 94.6324 200.273 95.3448 196.163 95.4861C192.053 95.6275 188.398 94.3252 190.248 93.6102C192.097 92.8951 195.136 94.018 200.174 89.1704C202.552 86.8839 202.517 84.0753 201.818 81.748C204.109 82.8845 207.166 84.4179 209.254 85.5381C209.75 85.8099 210.188 86.0465 210.578 86.2694C211.558 90.16 209.293 93.8059 207.155 94.3769Z" fill="#FF7755"/>
    <path d="M173.906 102.11C175.977 103.651 180.011 105.274 184.013 104.943C187.099 104.687 187.099 104.687 187.301 104.075C187.504 103.464 187.611 102.953 186.786 101.982C185.962 101.011 183.285 97.7977 180.361 96.7265C177.438 95.6553 171.618 95.8184 169.484 97.3654C167.865 98.5372 170.821 99.815 173.906 102.11Z" fill="#F3F3F3"/>
    <path d="M104.503 83.5003C104.503 83.5003 114.175 83.0082 127.967 86.7302C138.31 89.5197 144.171 92.282 146.459 93.4891C146.515 93.5185 146.559 93.5663 146.583 93.6243C146.608 93.6823 146.611 93.7469 146.593 93.8072C146.575 93.8675 146.537 93.9197 146.484 93.9549C146.432 93.9901 146.368 94.0061 146.305 94.0003C145.083 93.8888 143.146 93.7284 141.195 93.6224C140.402 93.5807 139.627 93.3683 138.924 92.9998C135.485 91.1972 123.49 85.5557 104.503 83.5003Z" fill="#D8AC3E"/>
    <g opacity="0.7">
        <path opacity="0.7" d="M124.847 64.4395L122.236 99.7485C122.232 99.7933 122.237 99.8385 122.251 99.8813C122.265 99.9241 122.288 99.9634 122.319 99.9968C122.349 100.03 122.386 100.057 122.428 100.075C122.469 100.093 122.514 100.102 122.56 100.102C122.641 100.102 122.719 100.071 122.779 100.016C122.839 99.9612 122.876 99.8861 122.883 99.8056L125.173 64.4395H124.847Z" fill="#B59048"/>
    </g>
    <path d="M122.23 64.7746C122.351 64.7608 122.474 64.774 122.59 64.8133C122.706 64.8527 122.811 64.9172 122.899 65.0021C122.986 65.087 123.053 65.1902 123.096 65.3042C123.138 65.4182 123.154 65.5401 123.142 65.661L122.802 69.2335L121.742 80.4431C121.731 80.5578 121.696 80.6689 121.638 80.7692C121.581 80.8694 121.503 80.9564 121.409 81.0244C121.316 81.0925 121.208 81.1401 121.095 81.1641C120.981 81.1881 120.864 81.1879 120.75 81.1636L107.371 78.2789C107.173 78.2368 106.987 78.1515 106.826 78.0292C106.665 77.9068 106.533 77.7506 106.44 77.5716C106.347 77.3926 106.296 77.1954 106.289 76.9943C106.282 76.7931 106.321 76.593 106.402 76.4084C106.749 75.593 107.142 74.7971 107.577 74.024C108.54 72.2657 109.817 70.6952 111.344 69.3884C114.451 66.8444 118.23 65.2425 122.23 64.7746Z" fill="#272A56"/>
    <path d="M133.182 91.2048C133.132 91.2051 133.081 91.1987 133.032 91.1857L128.741 90.0765C128.671 90.0587 128.606 90.0275 128.548 89.9845C128.49 89.9415 128.442 89.8877 128.405 89.826C128.368 89.7644 128.344 89.6962 128.334 89.6253C128.324 89.5545 128.328 89.4823 128.347 89.4131C128.365 89.3428 128.397 89.2768 128.441 89.2191C128.485 89.1613 128.54 89.1128 128.604 89.0766C128.667 89.0404 128.737 89.0171 128.81 89.0081C128.882 88.9991 128.956 89.0046 129.026 89.0243L133.317 90.1335C133.387 90.1513 133.453 90.1826 133.511 90.2258C133.569 90.2689 133.617 90.323 133.654 90.385C133.691 90.4469 133.715 90.5154 133.724 90.5866C133.734 90.6578 133.73 90.7302 133.711 90.7997C133.68 90.9156 133.612 91.0181 133.516 91.0914C133.421 91.1647 133.303 91.2045 133.182 91.2048Z" fill="#272A56"/>
    <path d="M109.427 84.5594C109.401 84.5621 109.375 84.5621 109.35 84.5594L106.884 84.1543C106.765 84.1298 106.659 84.0603 106.591 83.9605C106.522 83.8606 106.495 83.7382 106.515 83.6189C106.535 83.4995 106.601 83.3926 106.699 83.3206C106.797 83.2486 106.919 83.2171 107.04 83.2327L109.506 83.6405C109.623 83.6584 109.729 83.7197 109.803 83.812C109.876 83.9044 109.911 84.0209 109.902 84.1381C109.892 84.2554 109.838 84.3646 109.75 84.4438C109.663 84.523 109.548 84.5662 109.429 84.5649L109.427 84.5594Z" fill="#272A56"/>
    <path d="M123.147 65.6601L122.807 69.2326C121.61 68.5936 119.379 67.8596 116.157 68.6344C113.294 69.3223 109.949 71.897 107.581 74.0285C108.545 72.2702 109.821 70.6997 111.349 69.393C114.454 66.8454 118.233 65.2406 122.234 64.771C122.356 64.7571 122.479 64.7703 122.595 64.8098C122.711 64.8493 122.817 64.9141 122.904 64.9993C122.992 65.0845 123.059 65.1881 123.101 65.3024C123.143 65.4168 123.158 65.539 123.147 65.6601Z" fill="#38385E"/>
    <path d="M109.604 109.603C111.059 109.603 112.24 107.354 112.24 104.579C112.24 101.804 111.059 99.5547 109.604 99.5547C108.148 99.5547 106.968 101.804 106.968 104.579C106.968 107.354 108.148 109.603 109.604 109.603Z" fill="white"/>
    <path d="M195.067 78.6219C195.233 78.7949 195.361 79.0011 195.441 79.2267C195.52 79.4524 195.551 79.6923 195.53 79.9305C195.509 80.1687 195.437 80.3998 195.319 80.6083C195.201 80.8167 195.039 80.9978 194.845 81.1395C193.401 82.2053 191.009 83.2901 187.015 84.1737C177.809 86.2101 167.361 85.737 161.775 85.2476C161.538 85.2273 161.307 85.1572 161.1 85.0419C160.892 84.9266 160.711 84.7687 160.569 84.5788C158.132 81.3041 155.864 77.9085 153.774 74.4051C152.624 72.4829 151.421 70.3649 150.213 68.0811C150.107 67.8785 150.044 67.6565 150.027 67.4288C150.011 67.2012 150.041 66.9725 150.117 66.7569C150.192 66.5414 150.312 66.3434 150.467 66.1751C150.623 66.0068 150.811 65.8718 151.021 65.7783C154.473 64.2531 161.928 61.9992 174.858 62.7876C175.103 62.8039 175.342 62.8715 175.559 62.9861C177.147 63.8498 178.68 64.8077 180.151 65.8544C181.757 66.98 183.639 68.402 185.828 70.2045C189.073 72.8262 192.158 75.637 195.067 78.6219Z" fill="#292955"/>
    <path d="M180.154 65.8572C177.065 65.6642 173.966 65.6424 170.874 65.7919C157.052 66.371 154.041 70.8652 153.772 74.4051C152.621 72.4829 151.418 70.3649 150.21 68.0811C150.104 67.8785 150.041 67.6565 150.025 67.4289C150.008 67.2012 150.039 66.9725 150.114 66.7569C150.19 66.5414 150.309 66.3434 150.465 66.1751C150.62 66.0068 150.809 65.8718 151.018 65.7783C154.471 64.2531 161.926 61.9992 174.855 62.7876C175.101 62.8039 175.34 62.8715 175.557 62.9861C177.146 63.8505 178.681 64.8093 180.154 65.8572Z" fill="#38385E"/>
    <path d="M187.304 104.081C187.099 104.693 187.099 104.693 184.017 104.948C180.014 105.28 175.983 103.657 173.912 102.115L173.652 101.925C174.663 102.294 175.724 102.51 176.8 102.564C179.315 102.591 181.049 101.286 181.104 99.7064C181.145 99.1333 181.062 98.5582 180.859 98.0201C180.656 97.482 180.339 96.9935 179.929 96.5879C180.082 96.6314 180.227 96.6803 180.367 96.732C183.299 97.8032 185.973 101.02 186.795 101.987C187.617 102.955 187.51 103.469 187.304 104.081Z" fill="#E6E3E1"/>
    <path d="M220.059 95.3125C219.827 95.797 219.504 96.2334 219.108 96.5985C218.596 97.0879 217.831 97.1939 216.708 96.0411C216.198 95.5218 215.637 94.2222 215.152 92.8792C214.571 91.2479 214.108 89.5758 214.001 89.1136C213.965 88.954 213.955 88.7897 213.971 88.627L213.99 88.646C214.119 88.6318 214.249 88.6437 214.373 88.6811C214.497 88.7185 214.612 88.7806 214.711 88.8635C214.883 89.0239 215.733 89.7824 216.519 90.5247L217.642 91.6394C218.212 92.1635 218.746 92.7239 219.242 93.3169C219.886 94.1352 220.108 95.2173 220.059 95.3125Z" fill="#F3F3F3"/>
    <path d="M219.999 95.4093C219.784 95.8629 219.477 96.2681 219.098 96.6002C218.586 97.0896 217.821 97.1956 216.698 96.0428C216.188 95.5235 215.627 94.2239 215.142 92.8809C215.522 93.3485 215.936 93.6965 216.325 93.6693C217.555 93.6149 217.501 92.5818 218.169 93.2805C218.838 93.9792 218.906 95.3251 219.539 94.7514C219.753 94.5665 220.06 95.3142 219.999 95.4093Z" fill="#E6E3E1"/>
    <path d="M194.553 104.373C192.733 104.387 190.913 104.28 189.107 104.052C189.089 104.05 189.071 104.044 189.056 104.034C189.04 104.025 189.026 104.013 189.016 103.998C189.005 103.984 188.997 103.967 188.993 103.95C188.988 103.932 188.987 103.914 188.99 103.896C188.993 103.878 188.999 103.861 189.008 103.846C189.018 103.83 189.03 103.817 189.045 103.806C189.059 103.795 189.076 103.787 189.094 103.783C189.111 103.779 189.13 103.778 189.148 103.781C189.304 103.805 204.894 106.059 215.724 98.2097C215.739 98.1992 215.755 98.1916 215.773 98.1874C215.791 98.1832 215.809 98.1825 215.827 98.1852C215.844 98.188 215.861 98.1943 215.877 98.2036C215.892 98.2129 215.906 98.2251 215.916 98.2396C215.927 98.2541 215.934 98.2705 215.939 98.2879C215.943 98.3052 215.944 98.3233 215.941 98.341C215.938 98.3586 215.932 98.3756 215.922 98.3909C215.913 98.4061 215.901 98.4194 215.886 98.4299C208.971 103.443 200.14 104.373 194.553 104.373Z" fill="#DE5532"/>
    <path d="M148.053 84.2616C146.861 81.1839 143.023 80.2405 140.601 82.179C140.123 82.5543 139.773 83.0671 139.601 83.6472C139.446 84.2041 139.429 84.7898 139.551 85.3546L139.486 85.3328C135.444 84.0658 129.414 82.9783 126.627 82.4183C126.366 82.3648 126.134 82.2188 125.974 82.0077C125.813 81.7965 125.736 81.5346 125.756 81.2709C126.06 77.2444 126.597 71.592 126.792 68.9439C126.805 68.74 126.819 68.5524 126.83 68.3865C126.874 67.7014 126.931 67.0842 127 66.535C127.022 66.3562 127.079 66.1834 127.169 66.0268C127.259 65.8702 127.379 65.7329 127.523 65.6228C127.667 65.5128 127.831 65.4322 128.007 65.3858C128.182 65.3393 128.365 65.328 128.545 65.3523C133.31 65.9586 138.39 67.8917 141.516 71.1053C144.256 73.9166 146.423 77.6549 147.481 80.1236C147.749 80.7191 147.965 81.3368 148.124 81.9696C148.549 83.9082 148.053 84.2616 148.053 84.2616Z" fill="#272A56"/>
    <path d="M147.478 80.1239C146.982 79.4823 146.407 78.7101 145.749 77.7966C137.686 66.5952 128.88 68.3298 126.789 68.9442C126.803 68.7403 126.817 68.5527 126.828 68.3869C126.872 67.7017 126.932 67.0845 127 66.5381C127.022 66.3587 127.079 66.1854 127.169 66.0283C127.259 65.8712 127.379 65.7334 127.524 65.623C127.668 65.5127 127.833 65.4319 128.009 65.3855C128.184 65.3391 128.368 65.3279 128.548 65.3527C133.31 65.959 138.387 67.8947 141.513 71.1057C144.251 73.9169 146.421 77.6552 147.478 80.1239Z" fill="#38385E"/>
    <path d="M100.775 84.2539C101.151 83.9012 101.491 83.5133 101.792 83.0957C101.69 83.8271 101.183 84.3056 100.97 84.6862C100.66 85.249 100.104 86.97 99.2436 86.9265L98.7422 86.9102C98.7422 86.9102 98.8545 86.0945 99.0162 84.988C99.4436 85.1348 100.019 84.9853 100.775 84.2539Z" fill="#EA644C"/>
    <path d="M133.517 136.005C133.517 136.005 142.632 138.391 150.293 136.498C157.954 134.605 154.642 127.264 154.642 127.264C154.642 127.264 143.431 128.543 142.671 129.382C141.912 130.221 139.546 130.858 138.704 131.879C137.862 132.901 133.517 136.005 133.517 136.005Z" fill="#272A56"/>
    <path d="M90.5368 109.024C89.9545 108.45 79.8625 109.495 75.1454 112.801C70.4283 116.108 73.1553 125.463 73.1553 125.463L75.8395 131.155L80.4217 130.401C80.4217 130.401 108.461 126.586 90.5368 109.024Z" fill="#987A00"/>
    <path d="M42.379 121.739C42.356 121.775 42.0928 121.69 41.7211 121.53C40.7343 121.109 38.9974 120.162 38.6093 119.333C38.0665 118.178 35.435 109.919 35.1488 110.265C34.8626 110.611 34.1619 111.849 34.1619 112.208C34.1619 112.567 29.4054 117.91 29.4054 117.91H25.9547L25.1422 116.879C24.9843 116.327 23.9975 114.701 23.9383 112.704C23.9053 111.845 24.0671 110.989 24.412 110.2C26.0764 106.391 31.2146 102.285 33.6586 101.589C38.0567 100.336 40.0369 105.852 41.708 107.971C43.379 110.089 42.4547 121.608 42.379 121.739Z" fill="#987A00"/>
    <path d="M98.6947 128.971C98.6947 131.977 102.54 131.831 103.198 134.266C103.675 136.025 101.53 141.022 99.3822 142.24C97.7704 143.154 89.2704 143.333 87.323 143.333C83.3757 143.333 78.9119 136.903 78.9119 128.971C78.9119 119.358 83.9151 114.73 87.323 114.282C93.0993 113.528 96.0006 114.645 97.3263 116.195C99.5302 118.777 98.6947 124.013 98.6947 128.971Z" fill="#272A56"/>
    <path d="M88.2012 136.684C90.3067 136.684 92.0136 133.431 92.0136 129.418C92.0136 125.405 90.3067 122.152 88.2012 122.152C86.0956 122.152 84.3887 125.405 84.3887 129.418C84.3887 133.431 86.0956 136.684 88.2012 136.684Z" fill="white"/>
    <path d="M43.9613 116.947C43.9613 119.441 45.4119 119.725 45.958 121.746C46.3527 123.208 44.8494 126.717 43.4054 127.686C42.1291 128.545 36.0205 128.545 34.4021 128.545C31.1324 128.545 27.4219 123.534 27.4219 116.954C27.4219 110.373 31.5502 105.043 34.4021 105.043C36.0468 105.043 41.606 105.076 42.7047 106.349C44.5337 108.487 43.9613 112.835 43.9613 116.947Z" fill="#272A56"/>
    <path d="M170.135 114.942C169.921 115.513 169.513 116.061 169.586 116.44C169.698 116.837 169.746 117.249 169.727 117.661C169.7 117.953 169.628 118.239 169.513 118.51C169.106 119.489 169.155 119.508 169.185 120.295C169.185 120.824 169.402 121.894 169.494 122.805C169.544 123.18 169.553 123.558 169.52 123.935C169.402 124.813 169.329 127.408 167.961 128.335C166.592 129.262 167.412 129.333 163.454 130.642C159.497 131.951 152.441 134.85 139.135 136.714C130.349 137.944 117.241 139.857 105.514 137.553C102.58 137.017 99.6908 136.261 96.8723 135.291C96.7868 132.8 96.6946 129.742 96.6387 127.382C96.5951 126.149 96.4388 124.923 96.1716 123.719C95.2868 119.58 93.1091 114.769 89.346 113.649C84.8329 112.308 81.2638 114.413 79.8394 116.688C78.9755 118.098 78.257 119.591 77.6947 121.144C76.5223 124.356 75.8954 127.739 75.8395 131.155L41.5863 122.769C41.5863 122.769 41.6488 122.316 41.708 121.529C41.8696 119.363 41.8476 117.188 41.6422 115.027C41.435 112.898 41.2738 110.457 40.2113 108.306C37.1093 102.055 31.8232 102.43 29.1192 106.207C27.9219 107.878 27.4745 109.497 26.935 111.227C26.4362 112.933 26.1403 114.692 26.0535 116.466L25.9548 117.88C25.9548 117.88 21.5436 116.9 20.8232 116.404C20.1028 115.908 20.0337 115.5 20.0831 114.717C20.1324 113.933 19.9383 109.458 20.0206 108.864C20.0995 108.329 20.3495 107.989 20.9416 107.96C21.0139 107.955 21.0865 107.955 21.1587 107.96C21.5902 107.991 22.0233 107.991 22.4548 107.96C22.0665 105.983 21.8181 103.981 21.7114 101.97C21.7222 100.006 21.8519 98.0436 22.0995 96.0946C22.3747 93.5148 22.8253 90.9564 23.4482 88.4369C23.6867 87.4922 23.9878 86.5643 24.3495 85.6591C27.2113 78.6933 29.514 75.9906 32.2113 73.2226C34.994 70.4785 38.1616 68.1478 41.6159 66.3026C42.9135 65.5934 44.2463 64.9495 45.6093 64.3735C51.5303 61.8764 58.5797 59.7612 70.1322 59.1508C81.6848 58.5404 95.1322 60.2443 102.369 61.6969C109.606 63.1494 115.073 65.2156 118.487 67.6409C121.902 70.0662 131.718 77.8936 134.764 80.8673C137.81 83.8409 142.066 88.068 142.066 88.068L142.622 88.3389L142.787 88.4205L143.579 88.809L143.908 88.9787L145.806 89.9155L145.994 90.0102L146.468 90.2452L149.178 91.5998L149.77 91.8969L150.951 92.4975L151.533 92.7945L152.389 93.2352C152.898 93.4963 153.375 93.7542 153.852 93.999L154.25 94.2079L154.734 94.4658C155.03 94.6257 155.313 94.7922 155.576 94.9227L156.323 95.3438C156.629 95.5168 156.908 95.6702 157.165 95.8334L157.569 96.0783C157.711 96.1664 157.849 96.2512 157.977 96.3361L158.342 96.5711C158.402 96.607 158.454 96.6462 158.51 96.6821L158.668 96.7898C159.083 97.0685 159.481 97.3715 159.859 97.6973L160.01 97.8344C160.089 97.9029 160.158 97.9649 160.221 98.027L160.319 98.1184L160.415 98.2032L160.438 98.2261C160.592 98.209 160.749 98.2234 160.898 98.2683C161.046 98.3132 161.184 98.3877 161.303 98.4872C161.51 98.6798 161.431 100.119 162.375 100.997C162.902 101.49 163.931 101.764 164.254 102.12L164.513 102.368C164.609 102.469 164.842 102.473 164.915 102.548C165.537 103.357 167.846 104.767 167.606 106.311C167.606 106.311 168.494 106.573 169.813 108.835C171.132 111.097 170.352 114.371 170.135 114.942Z" fill="#F2C037"/>
    <path d="M74.3361 96.7049C74.3361 96.7049 71.7835 97.0509 71.9315 98.6634C72.0795 100.276 76.642 100.579 78.2374 99.943C79.8328 99.3065 82.6519 95.1087 82.0071 95.0728C81.3624 95.0369 80.9644 94.7856 79.7999 95.6539C78.6354 96.5221 74.3361 96.7049 74.3361 96.7049Z" fill="#E3B43B"/>
    <path d="M82.0073 94.7205V95.3733L80.652 95.3505C80.652 95.3505 79.2836 97.4004 75.7803 97.4004C72.4152 97.4004 71.3429 95.3146 71.0073 94.2113L71.0863 94.2374C70.9396 93.5593 70.9599 92.8561 71.1455 92.1875C71.1455 92.5139 71.2639 94.1688 72.2803 94.962C72.4766 95.1146 72.6821 95.2552 72.8955 95.3831C74.1668 96.012 75.6017 96.2398 77.0073 96.0359C79.0961 95.7356 79.6652 95.2297 80.0566 94.8086C80.2813 94.6092 80.4636 94.3673 80.5928 94.097C80.5928 94.2668 80.6718 94.7499 81.0172 94.7499L82.0073 94.7205Z" fill="#D8AC3E"/>
    <path d="M123.869 126.311C123.402 126.827 122.57 128.439 128.593 128.123C134.616 127.806 161.273 124.858 168.221 118.686C175.168 112.513 141.626 118.944 141.626 118.944L123.869 126.311Z" fill="#DFAA20"/>
    <path d="M25.7539 91.5195C25.6322 92.3976 25.0237 92.9721 24.7671 93.429C24.3954 94.1047 23.7276 96.1709 22.6947 96.1187L22.0928 96.0991C22.0928 96.0991 22.2276 95.1199 22.4217 93.7914C22.6882 92.0679 23.0796 89.7895 23.4283 88.4414C23.8907 88.4882 24.3304 88.6638 24.6965 88.9479C25.0626 89.2321 25.3403 89.6133 25.4974 90.0474C25.7232 90.5036 25.8123 91.0145 25.7539 91.5195Z" fill="#F47958"/>
    <path d="M26.935 111.225C26.4359 112.932 26.1401 114.692 26.0535 116.467L25.9548 117.881C25.9548 117.881 21.5436 116.901 20.8232 116.405C20.1028 115.909 20.0337 115.501 20.0831 114.718C20.1324 113.934 19.9383 109.459 20.0206 108.865C20.0995 108.33 20.3495 107.99 20.9416 107.961C20.9416 107.99 20.9679 108.026 20.9811 108.062C21.412 109.41 20.9811 110.269 21.4745 111.065C21.9087 111.77 22.5897 112.619 23.9383 112.674C24.126 112.685 24.3141 112.679 24.5008 112.658C25.5666 112.55 26.3561 111.783 26.935 111.225Z" fill="#D59F14"/>
    <path d="M29.1159 101.321C29.1159 101.321 33.935 97.8283 38.6257 101.321C41.4359 103.415 43.4431 106.397 44.3165 109.775C44.3165 109.775 44.9349 102.594 39.254 99.0034C33.5731 95.4128 29.1159 101.321 29.1159 101.321Z" fill="#F9CD75"/>
    <path d="M77.6849 121.147C76.5162 124.359 75.8926 127.741 75.8395 131.155L41.5863 122.77C41.8766 120.198 41.8953 117.603 41.6422 115.027C42.4087 117.214 42.5041 120.668 45.3692 121.859C48.7639 123.272 66.8559 127.865 70.1915 128.296C73.527 128.727 74.9447 126.762 75.9941 124.007C76.5533 122.528 77.1224 121.63 77.6849 121.147Z" fill="#D59F14"/>
    <path d="M46.4513 114.509C46.1833 114.844 46.0331 115.256 46.0237 115.684C45.9842 116.97 46.2704 117.874 47.6059 118.406C49.1026 119.003 68.4282 124.399 69.0861 124.255C69.744 124.112 69.8624 123.577 69.3855 123.162C68.9085 122.747 47.5467 114.254 47.0171 114.195C46.9041 114.197 46.7932 114.227 46.6945 114.281C46.5957 114.336 46.5122 114.414 46.4513 114.509Z" fill="#F9CD75"/>
    <path d="M79.2178 110.685C79.2178 110.685 83.9118 107.072 90.9513 109.889C97.9907 112.705 100.583 120.304 100.583 120.304H101.26C101.26 120.304 100.83 113.933 96.7539 109.83C92.6783 105.727 85.3329 103.517 79.2178 110.685Z" fill="#F9CD75"/>
    <path d="M169.513 123.936C169.395 124.814 169.323 127.409 167.954 128.336C166.586 129.263 167.405 129.335 163.448 130.644C159.49 131.953 152.435 134.851 139.129 136.715C130.343 137.946 117.234 139.859 105.507 137.554C102.573 137.018 99.6843 136.262 96.8657 135.292C96.7802 132.801 96.6881 129.743 96.6321 127.383C96.5885 126.151 96.4322 124.925 96.165 123.721C96.7945 124.71 97.2401 125.803 97.4808 126.949C98.5335 131.297 98.7177 133.258 99.767 133.627C100.816 133.996 103.714 135.586 112.487 135.893C121.26 136.199 122.737 134.731 123.168 134.486C123.599 134.241 125.514 134.3 128.102 134.3C130.691 134.3 137.537 133.627 141.494 133.014C145.451 132.4 156.194 129.828 159.53 128.48C162.698 127.2 167.813 125.976 169.481 122.807C169.533 123.181 169.544 123.56 169.513 123.936Z" fill="#D59F14"/>
    <path d="M170.135 114.943C169.921 115.514 169.514 116.063 169.586 116.441C169.698 116.838 169.746 117.25 169.727 117.662C167.754 118.383 165.507 118.233 164.352 118.125C163.632 118.036 162.9 118.163 162.254 118.491C152.056 122.408 133.964 124.693 133.964 124.693C128.701 127.631 125.566 128.554 122.047 128.065C118.527 127.575 116.859 124.631 116.126 120.466C115.392 116.301 114.833 114.94 108.658 108.633C102.484 102.327 93.5928 98.5569 93.5928 98.5569C92.2967 96.3862 86.3559 80.6954 78.402 73.6481C70.4481 66.6007 61.3791 64.9719 52.6094 64.6031C48.7475 64.4431 44.2146 64.998 41.616 66.3102C42.9136 65.601 44.2464 64.9571 45.6094 64.3811C46.3265 64.0775 47.06 63.7772 47.8166 63.4802C48.6357 63.1538 49.4844 62.8274 50.3626 62.5303C50.912 62.3345 51.4712 62.1484 52.0469 61.9624C56.7442 60.4576 62.4383 59.5632 70.1389 59.1487C80.129 58.6166 91.5204 59.7395 99.1191 61.081C100.307 61.29 101.399 61.4989 102.379 61.6947C109.616 63.144 115.083 65.2135 118.497 67.6387C121.912 70.064 131.727 77.8915 134.774 80.8651C137.82 83.8388 142.066 88.0691 142.066 88.0691L142.622 88.34L142.787 88.4216L143.579 88.8101L143.908 88.9798L145.806 89.9166L145.994 90.0113L146.468 90.2463L149.178 91.6009L149.77 91.898L150.951 92.4986L151.533 92.7956L152.389 93.2363C152.898 93.4974 153.375 93.7553 153.852 94.0001L154.25 94.209L154.734 94.4669C155.03 94.6268 155.313 94.7933 155.576 94.9238L156.323 95.3449C156.629 95.5179 156.908 95.6713 157.165 95.8345L157.57 96.0794C157.711 96.1675 157.849 96.2524 157.977 96.3372L158.343 96.5722C158.402 96.6082 158.454 96.6473 158.51 96.6832L158.668 96.7909C159.083 97.0696 159.481 97.3726 159.859 97.6984L160.01 97.8355C160.089 97.904 160.158 97.966 160.221 98.0281L160.319 98.1195L160.415 98.2043L160.438 98.2272C160.592 98.2101 160.749 98.2245 160.898 98.2694C161.046 98.3143 161.184 98.3888 161.303 98.4883C161.51 98.6809 162.53 99.5916 163.474 100.483L164.642 101.968L164.76 102.621C164.856 102.722 165.007 102.027 165.066 102.102C165.688 102.911 166.958 104.853 167.619 105.937C167.619 105.937 168.494 106.574 169.813 108.836C171.132 111.098 170.352 114.372 170.135 114.943Z" fill="#F7C85F"/>
    <path d="M105.451 65.2948C104.26 66.201 102.968 66.9677 101.599 67.5798C99.2967 68.559 96.4908 69.0845 94.7869 66.8976C93.1783 64.8313 82.7968 62.9806 71.6587 62.6966C60.0765 62.393 47.7542 63.6758 47.7542 63.6758L47.8167 63.48C48.6357 63.1536 49.4844 62.8271 50.3627 62.5301C50.912 62.3343 51.4712 62.1482 52.0469 61.9621C53.5304 62.0307 57.4383 61.417 59.7738 61.3583C67.2936 61.1722 76.2935 60.8099 84.8889 61.5117C96.8494 62.4811 105.451 65.2948 105.451 65.2948Z" fill="#F6C14E"/>
    <path d="M113.247 70.1678L101.599 67.5565L97.8624 66.7209C97.8624 66.7209 85.1092 59.3602 73.5204 59.8857C63.981 60.3199 54.9843 62.3208 50.3757 62.5167C50.9251 62.3208 51.4843 62.1347 52.0599 61.9487C56.7573 60.4439 62.4513 59.5495 70.152 59.135C80.1421 58.6029 91.5335 59.7258 99.1322 61.0674C99.8098 61.2828 100.402 61.4917 100.895 61.6843C107.945 64.4588 113.247 70.1678 113.247 70.1678Z" fill="#F9BC5E"/>
    <path d="M107.168 107.356C107.127 107.356 107.087 107.341 107.056 107.313C102.415 103.116 96.8163 100.24 94.6222 99.1988C93.8323 98.8208 93.1987 98.1829 92.8294 97.3937C92.6222 96.9498 92.3788 96.4144 92.1057 95.8106C89.6748 90.4704 84.6189 79.3559 78.29 73.7612C78.2725 73.7472 78.2581 73.7299 78.2476 73.7102C78.2371 73.6906 78.2308 73.669 78.229 73.6468C78.2273 73.6246 78.2301 73.6023 78.2373 73.5813C78.2445 73.5602 78.256 73.5409 78.2711 73.5244C78.2861 73.5079 78.3044 73.4946 78.3248 73.4854C78.3452 73.4762 78.3673 73.4712 78.3897 73.4707C78.4121 73.4703 78.4344 73.4744 78.4551 73.4828C78.4759 73.4912 78.4947 73.5037 78.5104 73.5196C84.8854 79.1601 89.961 90.317 92.4018 95.6767C92.6748 96.2806 92.9182 96.8127 93.1255 97.2566C93.4642 97.9789 94.0457 98.5617 94.7702 98.905C96.9774 99.9528 102.609 102.845 107.27 107.065C107.295 107.087 107.312 107.116 107.319 107.148C107.327 107.18 107.325 107.213 107.313 107.244C107.302 107.275 107.281 107.301 107.254 107.32C107.227 107.339 107.195 107.349 107.162 107.349L107.168 107.356Z" fill="#C69D47"/>
    <path d="M152.25 105.074C149.471 105.809 149.842 104.278 148.053 104.829C146.264 105.381 143.987 106.236 139.053 106.406C134.119 106.576 129.731 105.012 131.951 104.154C134.171 103.295 137.82 104.643 143.869 98.8233C146.724 96.0781 146.681 92.7062 145.843 89.9121C148.592 91.2765 152.264 93.1175 154.77 94.4623C155.365 94.7888 155.892 95.0727 156.359 95.3404C157.537 100.011 154.816 104.389 152.25 105.074Z" fill="#FFD880"/>
    <path d="M112.333 114.354C114.82 116.205 119.662 118.154 124.468 117.756C128.172 117.449 128.172 117.449 128.415 116.714C128.658 115.98 128.787 115.366 127.797 114.201C126.806 113.036 123.593 109.177 120.083 107.891C116.573 106.605 109.586 106.801 107.024 108.658C105.08 110.065 108.629 111.599 112.333 114.354Z" fill="#F3F3F3"/>
    <path d="M29.0073 92.018C29.0073 92.018 40.6191 91.4272 57.1783 95.8958C69.596 99.2449 76.6322 102.561 79.3789 104.011C79.4462 104.046 79.4991 104.103 79.5286 104.173C79.558 104.242 79.5623 104.32 79.5406 104.392C79.5188 104.465 79.4725 104.527 79.4094 104.57C79.3463 104.612 79.2704 104.631 79.1946 104.624C77.7276 104.49 75.4019 104.298 73.0598 104.17C72.1069 104.121 71.1764 103.865 70.3328 103.423C66.2046 101.259 51.8033 94.4857 29.0073 92.018Z" fill="#D8AC3E"/>
    <g opacity="0.7">
        <path opacity="0.7" d="M53.4316 69.1367L50.2967 111.528C50.2911 111.582 50.2971 111.636 50.3141 111.688C50.3311 111.739 50.3588 111.786 50.3954 111.826C50.432 111.866 50.4767 111.898 50.5266 111.92C50.5765 111.942 50.6304 111.953 50.6848 111.953C50.7826 111.952 50.8767 111.915 50.9486 111.85C51.0204 111.784 51.0648 111.694 51.073 111.597L53.823 69.1367H53.4316Z" fill="#B59048"/>
    </g>
    <path d="M50.2935 69.5318C50.4394 69.5151 50.5873 69.531 50.7262 69.5783C50.8652 69.6255 50.9917 69.7029 51.0967 69.8049C51.2017 69.9069 51.2824 70.0308 51.3329 70.1676C51.3835 70.3045 51.4026 70.4508 51.3889 70.5959L50.981 74.885L49.708 88.3432C49.6949 88.4809 49.6525 88.6143 49.5836 88.7346C49.5147 88.8549 49.4209 88.9594 49.3084 89.0411C49.1959 89.1229 49.0672 89.18 48.9309 89.2088C48.7945 89.2376 48.6535 89.2374 48.5172 89.2082L32.4548 85.7449C32.2166 85.6943 31.9928 85.5919 31.7994 85.445C31.6061 85.2982 31.4479 85.1105 31.3365 84.8957C31.2251 84.6808 31.1632 84.4441 31.1552 84.2026C31.1472 83.9611 31.1933 83.7208 31.2903 83.4991C31.708 82.5202 32.1791 81.5646 32.7015 80.6365C33.858 78.5255 35.3904 76.6399 37.2245 75.0711C40.9538 72.0167 45.4912 70.0935 50.2935 69.5318Z" fill="#272A56"/>
    <path d="M63.4381 101.265C63.3771 101.266 63.3162 101.258 63.2572 101.243L58.1059 99.9107C58.022 99.8894 57.9432 99.8519 57.874 99.8003C57.8048 99.7487 57.7465 99.6841 57.7025 99.6101C57.6585 99.5361 57.6296 99.4542 57.6175 99.3691C57.6055 99.284 57.6105 99.1974 57.6322 99.1143C57.654 99.0299 57.6925 98.9507 57.7455 98.8813C57.7985 98.812 57.865 98.7538 57.941 98.7103C58.017 98.6668 58.1011 98.6389 58.1881 98.6281C58.2752 98.6173 58.3636 98.6239 58.448 98.6475L63.5993 99.9793C63.6836 100.001 63.7627 100.038 63.8322 100.09C63.9017 100.142 63.9602 100.207 64.0042 100.281C64.0483 100.355 64.077 100.438 64.0888 100.523C64.1006 100.609 64.0953 100.696 64.073 100.779C64.036 100.918 63.9537 101.041 63.8389 101.129C63.7241 101.217 63.5832 101.265 63.4381 101.265Z" fill="#272A56"/>
    <path d="M34.9185 93.2912C34.8879 93.2944 34.857 93.2944 34.8264 93.2912L31.8659 92.8048C31.7225 92.7754 31.5963 92.692 31.5136 92.5721C31.4309 92.4522 31.3983 92.3052 31.4226 92.1619C31.4468 92.0187 31.5261 91.8904 31.6438 91.8039C31.7614 91.7174 31.9082 91.6796 32.0534 91.6983L35.0139 92.1879C35.1546 92.2094 35.2818 92.283 35.37 92.3939C35.4581 92.5047 35.5006 92.6446 35.489 92.7854C35.4773 92.9262 35.4123 93.0573 35.307 93.1524C35.2018 93.2474 35.0641 93.2994 34.9218 93.2977L34.9185 93.2912Z" fill="#272A56"/>
    <path d="M51.3889 70.5956L50.981 74.8847C49.5435 74.1176 46.8659 73.2363 42.9975 74.1666C39.56 74.9924 35.5436 78.0836 32.7015 80.6427C33.858 78.5317 35.3905 76.6461 37.2245 75.0773C40.9523 72.0187 45.49 70.092 50.2935 69.5282C50.4397 69.5114 50.5879 69.5274 50.7271 69.5748C50.8663 69.6222 50.9931 69.6999 51.0981 69.8023C51.2031 69.9046 51.2838 70.029 51.3341 70.1662C51.3844 70.3035 51.4031 70.4502 51.3889 70.5956Z" fill="#38385E"/>
    <path d="M35.1324 123.348C36.88 123.348 38.2968 120.647 38.2968 117.315C38.2968 113.984 36.88 111.283 35.1324 111.283C33.3847 111.283 31.9679 113.984 31.9679 117.315C31.9679 120.647 33.3847 123.348 35.1324 123.348Z" fill="white"/>
    <path d="M137.737 86.1725C137.937 86.3802 138.09 86.6277 138.186 86.8986C138.281 87.1696 138.318 87.4576 138.293 87.7436C138.267 88.0296 138.181 88.307 138.039 88.5573C137.898 88.8076 137.704 89.025 137.471 89.1951C135.737 90.4747 132.866 91.7771 128.07 92.8379C117.017 95.2828 104.474 94.7148 97.767 94.1273C97.4822 94.1029 97.2058 94.0187 96.9563 93.8802C96.7067 93.7418 96.4897 93.5523 96.3196 93.3243C93.3934 89.3927 90.6706 85.3159 88.1618 81.1098C86.7802 78.802 85.3361 76.2593 83.8855 73.5174C83.7583 73.2741 83.6825 73.0076 83.6627 72.7342C83.6429 72.4609 83.6796 72.1864 83.7704 71.9276C83.8612 71.6687 84.0044 71.431 84.191 71.229C84.3777 71.027 84.6039 70.8649 84.8558 70.7526C89.0006 68.9214 97.9512 66.2155 113.474 67.1621C113.769 67.1816 114.056 67.2628 114.316 67.4003C116.222 68.4373 118.063 69.5873 119.829 70.844C121.757 72.1954 124.017 73.9025 126.645 76.0667C130.541 79.2143 134.245 82.5888 137.737 86.1725Z" fill="#292955"/>
    <path d="M119.833 70.8473C116.123 70.6157 112.404 70.5895 108.691 70.769C92.0961 71.4642 88.481 76.8599 88.1586 81.1098C86.777 78.8021 85.3329 76.2593 83.8823 73.5174C83.7551 73.2741 83.6793 73.0076 83.6595 72.7342C83.6397 72.4609 83.6764 72.1864 83.7672 71.9276C83.8581 71.6687 84.0012 71.431 84.1878 71.229C84.3745 71.027 84.6007 70.8649 84.8527 70.7526C88.9974 68.9214 97.948 66.2155 113.471 67.1621C113.766 67.1816 114.053 67.2628 114.313 67.4003C116.221 68.4382 118.064 69.5892 119.833 70.8473Z" fill="#38385E"/>
    <path d="M128.418 116.715C128.172 117.449 128.172 117.449 124.471 117.756C119.665 118.154 114.826 116.206 112.339 114.355L112.027 114.126C113.241 114.57 114.515 114.828 115.806 114.893C118.826 114.926 120.908 113.359 120.974 111.463C121.024 110.775 120.923 110.084 120.68 109.438C120.436 108.792 120.055 108.206 119.563 107.719C119.747 107.771 119.922 107.83 120.089 107.892C123.609 109.178 126.82 113.039 127.806 114.201C128.793 115.363 128.665 115.98 128.418 116.715Z" fill="#E6E3E1"/>
    <path d="M167.744 106.214C167.465 106.796 167.078 107.32 166.602 107.758C165.987 108.346 165.069 108.473 163.721 107.089C163.109 106.465 162.435 104.905 161.852 103.293C161.155 101.334 160.599 99.3267 160.471 98.7718C160.428 98.5802 160.415 98.3829 160.435 98.1875L160.458 98.2104C160.612 98.1933 160.768 98.2077 160.917 98.2526C161.066 98.2975 161.204 98.3719 161.323 98.4715C161.53 98.6641 162.55 99.5748 163.494 100.466L164.842 101.804C165.526 102.433 166.168 103.106 166.763 103.818C167.536 104.801 167.803 106.1 167.744 106.214Z" fill="#F3F3F3"/>
    <path d="M167.671 106.329C167.412 106.873 167.044 107.36 166.589 107.758C165.974 108.346 165.056 108.473 163.708 107.089C163.096 106.466 162.421 104.905 161.839 103.293C162.296 103.854 162.793 104.272 163.26 104.24C164.737 104.174 164.671 102.934 165.474 103.773C166.277 104.612 166.359 106.227 167.119 105.539C167.375 105.317 167.744 106.214 167.671 106.329Z" fill="#E6E3E1"/>
    <path d="M137.122 117.084C134.936 117.1 132.751 116.971 130.583 116.698C130.561 116.695 130.54 116.688 130.522 116.677C130.503 116.665 130.487 116.651 130.474 116.633C130.461 116.616 130.451 116.596 130.446 116.575C130.441 116.554 130.44 116.532 130.443 116.511C130.446 116.489 130.454 116.469 130.465 116.45C130.476 116.432 130.491 116.415 130.508 116.402C130.526 116.39 130.546 116.38 130.567 116.375C130.588 116.37 130.61 116.369 130.632 116.372C130.819 116.401 149.536 119.107 162.54 109.684C162.557 109.671 162.577 109.662 162.598 109.657C162.619 109.652 162.641 109.651 162.662 109.654C162.684 109.658 162.704 109.665 162.723 109.676C162.741 109.688 162.757 109.702 162.77 109.72C162.783 109.737 162.792 109.757 162.797 109.778C162.802 109.798 162.803 109.82 162.8 109.841C162.796 109.863 162.789 109.883 162.777 109.901C162.766 109.92 162.751 109.935 162.734 109.948C154.431 115.967 143.829 117.084 137.122 117.084Z" fill="#C69D47"/>
    <path d="M81.2934 92.9184C79.8625 89.2234 75.254 88.0907 72.3461 90.4181C71.7722 90.8686 71.3528 91.4843 71.1454 92.1807C70.9599 92.8493 70.9396 93.5525 71.0862 94.2306L71.0073 94.2045C66.1553 92.6834 58.9152 91.3777 55.5698 90.7053C55.2565 90.6411 54.9775 90.4659 54.785 90.2124C54.5924 89.9588 54.4996 89.6444 54.5238 89.3278C54.8889 84.4936 55.5337 77.7074 55.7672 74.5281C55.7837 74.2833 55.8001 74.0581 55.8133 73.859C55.8659 73.0364 55.9339 72.2955 56.0172 71.6361C56.0435 71.4213 56.1126 71.2139 56.2205 71.0259C56.3283 70.8379 56.4728 70.673 56.6454 70.5409C56.818 70.4088 57.0154 70.312 57.2261 70.2563C57.4367 70.2005 57.6565 70.1869 57.8725 70.2162C63.5928 70.9441 69.6915 73.2649 73.4448 77.1231C76.7342 80.4983 79.3362 84.9865 80.6059 87.9504C80.9284 88.6653 81.187 89.4069 81.379 90.1667C81.8888 92.4941 81.2934 92.9184 81.2934 92.9184Z" fill="#272A56"/>
    <path d="M80.6059 87.951C80.0105 87.1807 79.3197 86.2536 78.5302 85.1569C68.8493 71.7085 58.277 73.7911 55.7672 74.5288C55.7836 74.284 55.8 74.0587 55.8132 73.8596C55.8658 73.0371 55.9382 72.2961 56.0204 71.64C56.0464 71.4246 56.1153 71.2166 56.2231 71.0279C56.331 70.8393 56.4757 70.6739 56.6488 70.5414C56.8218 70.4089 57.0197 70.312 57.2309 70.2562C57.4422 70.2005 57.6625 70.1871 57.879 70.2168C63.5961 70.9447 69.6914 73.2688 73.4447 77.1238C76.7309 80.4989 79.3362 84.9871 80.6059 87.951Z" fill="#38385E"/>
    <path d="M24.5336 92.9101C24.9845 92.4866 25.3932 92.0209 25.7539 91.5195C25.6322 92.3976 25.0237 92.9721 24.7671 93.4291C24.3954 94.1047 23.7276 96.171 22.6947 96.1187L22.0928 96.0991C22.0928 96.0991 22.2276 95.1199 22.4217 93.7914C22.9349 93.9676 23.6257 93.7881 24.5336 92.9101Z" fill="#EA644C"/>
    <path d="M206.937 48C220.192 48 230.937 37.2548 230.937 24C230.937 10.7452 220.192 0 206.937 0C193.682 0 182.937 10.7452 182.937 24C182.937 37.2548 193.682 48 206.937 48Z" fill="#55B4F3"/>
    <path d="M208.699 37.0997H205.176C204.515 37.0997 204.075 36.5492 204.075 35.9988V12.9896C204.075 12.329 204.625 11.8887 205.176 11.8887H208.699C209.359 11.8887 209.8 12.4391 209.8 12.9896V35.9988C209.8 36.5492 209.249 37.0997 208.699 37.0997Z" fill="white"/>
    <path d="M194.276 26.3114V22.7884C194.276 22.1279 194.827 21.6875 195.377 21.6875H218.386C219.047 21.6875 219.487 22.238 219.487 22.7884V26.3114C219.487 26.9719 218.937 27.4123 218.386 27.4123H195.377C194.827 27.4123 194.276 26.8618 194.276 26.3114Z" fill="white"/>
</svg>
