<svg width="255" height="190" viewBox="0 0 255 190" fill="none" xmlns="http://www.w3.org/2000/svg">
<ellipse cx="127.5" cy="169.989" rx="126.763" ry="19.9584" fill="#442A4D" fill-opacity="0.1"/>
<path d="M162.062 141.766L93.4864 118.463C90.9712 117.592 89.5853 114.826 90.4579 112.317L123.771 14.5453C124.643 12.0357 127.415 10.6529 129.93 11.5235L198.506 34.8268C201.021 35.6975 202.407 38.4632 201.534 40.9727L168.222 138.744C167.349 141.254 164.577 142.637 162.062 141.766Z" fill="#E8E5E3"/>
<path d="M175.152 44.814L128.442 28.9882C128.134 28.8858 127.929 28.5273 128.083 28.22L129.469 24.1739C129.571 23.8666 129.93 23.6618 130.238 23.8154L176.948 39.6412C177.256 39.7436 177.461 40.1021 177.307 40.4094L175.921 44.4555C175.819 44.7628 175.46 44.9164 175.152 44.814Z" fill="#18516B"/>
<path d="M172.584 52.2916L125.875 36.4659C125.567 36.3634 125.361 36.0049 125.515 35.6976L126.08 33.9563C126.183 33.649 126.542 33.4441 126.85 33.5978L173.559 49.4235C173.867 49.526 174.073 49.8845 173.919 50.1918L173.354 51.9331C173.251 52.2404 172.943 52.3941 172.584 52.2916Z" fill="#18516B"/>
<path d="M176.64 85.7355L116.123 65.1979C115.815 65.0955 115.609 64.737 115.763 64.4297L116.328 62.6884C116.431 62.3811 116.79 62.1762 117.098 62.3298L177.615 82.8675C177.923 82.9699 178.128 83.3284 177.974 83.6357L177.41 85.377C177.307 85.6843 176.948 85.838 176.64 85.7355Z" fill="#18516B"/>
<path d="M147.895 96.5422L109.86 83.6358C109.552 83.5334 109.347 83.1749 109.501 82.8676L110.065 81.1262C110.168 80.8189 110.527 80.6141 110.835 80.7677L148.87 93.6741C149.178 93.7766 149.383 94.1351 149.229 94.4424L148.665 96.1837C148.562 96.4398 148.203 96.6447 147.895 96.5422Z" fill="#18516B"/>
<path d="M170.942 104.327L154.825 98.847C154.517 98.7445 154.311 98.386 154.465 98.0787L155.03 96.3374C155.133 96.0301 155.492 95.8252 155.8 95.9789L171.917 101.459C172.225 101.561 172.431 101.92 172.277 102.227L171.712 103.969C171.609 104.276 171.25 104.481 170.942 104.327Z" fill="#18516B"/>
<path d="M166.065 116.824L138.399 107.451C138.091 107.349 137.886 106.99 138.04 106.683L138.604 104.942C138.707 104.634 139.066 104.429 139.374 104.583L167.041 113.956C167.349 114.058 167.554 114.417 167.4 114.724L166.835 116.465C166.733 116.721 166.373 116.926 166.065 116.824Z" fill="#18516B"/>
<path d="M150.205 65.2493L119.664 54.9036C119.356 54.8012 119.15 54.4427 119.304 54.1354L119.869 52.394C119.972 52.0867 120.331 51.8819 120.639 52.0355L151.18 62.3812C151.488 62.4836 151.693 62.8421 151.539 63.1494L150.974 64.8907C150.872 65.1468 150.512 65.3517 150.205 65.2493Z" fill="#18516B"/>
<path d="M180.181 75.3899L162.883 69.5001C162.575 69.3976 162.37 69.0391 162.524 68.7318L163.089 66.9905C163.191 66.6832 163.551 66.4783 163.859 66.632L181.157 72.5218C181.465 72.6242 181.67 72.9828 181.516 73.29L180.951 75.0314C180.849 75.3387 180.489 75.4923 180.181 75.3899Z" fill="#18516B"/>
<path opacity="0.2" d="M147.177 36.3634L128.288 129.321L99.0303 119.385C96.5152 118.514 95.1293 115.748 96.0019 113.239L125.414 27.0421L143.43 30.6785C145.997 31.1394 147.69 33.7514 147.177 36.3634Z" fill="#18516B"/>
<path d="M111.056 139.882L40.0677 125.541C37.45 125.029 35.7048 122.417 36.2694 119.805L56.8011 18.5511C57.3144 15.9391 59.9322 14.1977 62.55 14.7611L133.538 29.1016C136.156 29.6137 137.901 32.2258 137.337 34.8378L116.754 136.041C116.24 138.704 113.674 140.394 111.056 139.882Z" fill="#E8E5E3"/>
<path d="M111.964 41.6386L63.6119 31.8564C63.3039 31.8052 63.0473 31.4466 63.1499 31.1393L63.9712 26.9908C64.0225 26.6835 64.3818 26.4275 64.6898 26.5299L113.042 36.3122C113.35 36.3634 113.607 36.7219 113.504 37.0292L112.683 41.1777C112.58 41.485 112.272 41.6898 111.964 41.6386Z" fill="#18516B"/>
<path d="M110.374 49.3723L62.0221 39.59C61.7141 39.5388 61.4574 39.1803 61.5601 38.873L61.9194 37.0804C61.9707 36.7731 62.33 36.5171 62.638 36.6195L110.99 46.4018C111.298 46.453 111.555 46.8115 111.452 47.1188L111.093 48.9113C111.041 49.2186 110.682 49.4235 110.374 49.3723Z" fill="#18516B"/>
<path d="M118.638 82.0481L56.0162 69.3465C55.7082 69.2953 55.4516 68.9368 55.5542 68.6295L55.9135 66.8369C55.9649 66.5296 56.3242 66.2735 56.6322 66.376L119.305 79.0263C119.613 79.0775 119.87 79.436 119.767 79.7433L119.408 81.5359C119.305 81.8944 118.946 82.0993 118.638 82.0481Z" fill="#18516B"/>
<path d="M91.4844 96.3885L52.1148 88.3989C51.8069 88.3476 51.5502 87.9891 51.6529 87.6818L52.0122 85.8893C52.0635 85.582 52.4228 85.3259 52.7308 85.4283L92.1003 93.418C92.4083 93.4692 92.6649 93.8277 92.5623 94.135L92.203 95.9276C92.1517 96.2349 91.8437 96.4398 91.4844 96.3885Z" fill="#18516B"/>
<path d="M115.352 101.203L98.6705 97.8226C98.3625 97.7714 98.1059 97.4129 98.2085 97.1056L98.5678 95.313C98.6192 95.0057 98.9785 94.7496 99.2865 94.852L115.968 98.2323C116.276 98.2835 116.533 98.642 116.43 98.9493L116.071 100.742C116.02 101.049 115.712 101.254 115.352 101.203Z" fill="#18516B"/>
<path d="M112.12 114.161L83.4781 108.373C83.1701 108.322 82.9135 107.963 83.0162 107.656L83.3755 105.864C83.4268 105.556 83.7861 105.3 84.0941 105.403L112.736 111.19C113.044 111.241 113.3 111.6 113.198 111.907L112.838 113.7C112.736 114.058 112.428 114.263 112.12 114.161Z" fill="#18516B"/>
<path d="M89.7903 65.0444L58.1715 58.6424C57.8635 58.5912 57.6069 58.2327 57.7095 57.9254L58.0688 56.1328C58.1201 55.8255 58.4795 55.5694 58.7874 55.6719L90.4062 62.0739C90.7142 62.1251 90.9709 62.4836 90.8682 62.7909L90.5089 64.5835C90.4576 64.8908 90.0983 65.0956 89.7903 65.0444Z" fill="#18516B"/>
<path d="M120.792 71.2928L102.879 67.6564C102.571 67.6052 102.314 67.2467 102.417 66.9394L102.776 65.1468C102.827 64.8395 103.186 64.5835 103.494 64.6859L121.408 68.3222C121.716 68.3734 121.973 68.732 121.87 69.0393L121.511 70.8318C121.46 71.1903 121.152 71.3952 120.792 71.2928Z" fill="#18516B"/>
<path d="M189.113 159.794C189.113 167.476 183.313 172.496 176.127 172.496C168.941 172.496 163.141 167.476 163.141 159.794C163.141 152.112 168.941 145.914 176.127 145.914C183.313 145.914 189.113 152.112 189.113 159.794Z" fill="#292955"/>
<path d="M82.8105 159.794C82.8105 167.476 77.0103 172.496 69.8242 172.496C62.6381 172.496 56.8379 167.476 56.8379 159.794C56.8379 152.112 62.6381 145.914 69.8242 145.914C77.0103 145.914 82.8105 152.112 82.8105 159.794Z" fill="#292955"/>
<path d="M73.7763 164.301H79.5765L116.585 164.608L116.534 151.343C116.534 151.343 117.047 147.861 111.657 143.661C106.268 139.461 107.602 136.491 99.6462 135.62C91.6902 134.801 81.8863 132.803 78.0366 136.9C74.1869 141.049 75.0595 139.359 72.8523 145.351C70.5938 151.343 69.6699 156.67 69.6699 156.67L73.7763 164.301Z" fill="#347098"/>
<path d="M234.642 154.877C234.642 156.465 234.488 157.694 234.18 158.667C233.307 161.433 231.049 162.099 227.148 162.252C221.81 162.406 218.884 160.408 218.884 160.408L220.167 154.98L220.783 152.316C220.783 152.316 234.642 148.885 234.642 154.877Z" fill="#4F92BF"/>
<path d="M234.18 158.667C233.307 161.433 231.049 162.099 227.148 162.252C221.81 162.406 218.884 160.409 218.884 160.409L220.167 154.98C221.707 153.597 223.041 152.675 223.041 152.675C223.041 152.675 221.912 159.948 228.072 159.948C230.69 159.897 232.743 159.333 234.18 158.667Z" fill="#347098"/>
<path d="M180.644 164.711H186.444L216.78 164.967L223.452 151.753C223.452 151.753 223.966 148.27 218.576 144.071C213.187 139.871 214.521 136.9 206.565 136.03C198.609 135.21 188.805 133.213 184.956 137.31C181.106 141.459 181.978 139.768 179.771 145.761C177.513 151.753 176.589 157.08 176.589 157.08L180.644 164.711Z" fill="#347098"/>
<path d="M235.053 133.674C235.053 134.032 235.002 134.34 235.002 134.647C234.95 135.057 234.95 135.415 234.899 135.774C233.718 148.117 230.895 153.443 223.658 153.443C223.658 153.443 218.73 137.054 203.075 137.054C183.262 137.054 181.003 152.368 181.157 160.204C181.157 161.382 181.26 162.355 181.311 163.123C181.414 163.891 181.465 164.403 181.516 164.557C181.516 164.608 181.516 164.608 181.516 164.608L116.636 164.557H116.585V164.506C116.636 164.199 116.636 163.225 116.585 161.791C116.585 161.638 116.585 161.433 116.534 161.279C116.482 160.05 116.277 158.565 116.02 156.977C116.02 156.926 116.02 156.926 116.02 156.926C114.737 149.858 110.579 140.383 97.8498 139.308C97.6958 139.308 97.4392 139.256 97.2852 139.256C97.0799 139.256 96.8232 139.256 96.6693 139.205H94.4108C94.1541 139.205 93.7948 139.205 93.4868 139.256C93.2815 139.256 93.0249 139.256 92.8196 139.308C92.2036 139.359 91.5877 139.41 91.023 139.564C90.8691 139.615 90.6124 139.615 90.4584 139.666C90.3044 139.666 90.1504 139.717 89.9451 139.769C89.6885 139.82 89.4318 139.871 89.1752 139.922C88.9699 139.973 88.7132 140.025 88.5079 140.127C88.2513 140.229 87.9433 140.281 87.6866 140.434C87.5327 140.486 87.276 140.537 87.122 140.639C85.4795 141.305 84.0936 142.073 82.8617 143.046C82.7077 143.149 82.6051 143.302 82.3997 143.354C81.8864 143.712 81.4758 144.122 81.0652 144.532C80.9112 144.634 80.8085 144.839 80.6545 144.941C80.5519 145.044 80.4492 145.197 80.2439 145.351C80.0386 145.607 79.7819 145.812 79.628 146.068C79.474 146.222 79.3713 146.427 79.166 146.683C79.166 146.683 79.1147 146.734 79.1147 146.785C78.9607 146.939 78.858 147.195 78.6527 147.4C78.4987 147.707 78.2421 147.963 78.0881 148.219C77.9854 148.373 77.8828 148.629 77.7288 148.834C77.6774 148.885 77.6261 148.987 77.5748 149.09C77.3695 149.5 77.1128 149.909 76.9075 150.421C76.5482 151.139 76.2402 151.907 75.9323 152.624C75.9323 152.675 75.8809 152.726 75.8809 152.726C75.8296 152.982 75.7269 153.187 75.6756 153.392C75.6243 153.648 75.5216 153.802 75.4703 154.058C75.419 154.263 75.3676 154.468 75.3163 154.672C75.265 154.826 75.2136 155.031 75.1623 155.133C75.0083 155.799 74.8543 156.465 74.649 157.028C74.2897 158.616 74.0844 160.153 73.9817 161.33C73.9817 161.587 73.9304 161.74 73.9304 161.996C73.9304 162.304 73.8791 162.611 73.8791 162.816V163.379C73.8791 163.43 73.8791 163.43 73.8791 163.482V163.584C73.8791 163.994 73.8791 164.25 73.8791 164.25H45.802C44.9807 164.25 44.1081 164.25 43.3382 164.199C43.0815 164.199 42.8249 164.147 42.5683 164.147H42.4143C42.2089 164.147 41.901 164.096 41.6957 164.096C41.6443 164.096 41.5417 164.096 41.439 164.045C41.285 164.045 41.1824 164.045 41.0284 163.994C40.4124 163.943 39.8478 163.789 39.3345 163.738C39.1805 163.738 38.9752 163.686 38.8212 163.635C38.7186 163.635 38.6159 163.584 38.4619 163.584H38.3079C37.4867 163.379 36.6654 163.174 35.9468 162.969C35.7928 162.918 35.5875 162.867 35.4335 162.816C35.2795 162.765 35.1255 162.713 34.9715 162.662C34.8175 162.611 34.6636 162.56 34.5096 162.508C34.4069 162.457 34.2529 162.406 34.0989 162.304V162.304C33.8423 162.201 33.5856 162.048 33.3803 161.945C33.2777 161.894 33.175 161.843 33.0723 161.791C32.9697 161.74 32.867 161.689 32.713 161.638C32.5077 161.535 32.2511 161.382 32.0971 161.279C31.8918 161.177 31.6865 161.023 31.5325 160.921C31.0705 160.613 30.7112 160.306 30.4032 160.101C30.3006 160.05 30.1979 159.948 30.1466 159.845C30.0439 159.794 29.9926 159.64 29.8899 159.538C29.8386 159.487 29.7873 159.384 29.7359 159.282L29.6846 159.231C29.6846 159.179 29.6333 159.128 29.582 159.077C29.582 159.026 29.5306 158.975 29.5306 158.872C29.4793 158.821 29.4793 158.718 29.428 158.616C29.274 158.36 29.2227 157.95 29.2227 157.489V152.316C29.2227 151.907 29.3766 151.497 29.6333 151.19L29.8386 150.882L30.6599 149.807C30.8652 149.551 30.9679 149.192 30.9679 148.834V147.809L31.0705 141.868L31.1218 139.103C31.1732 137.925 31.6351 136.747 32.4564 135.979C34.9202 133.725 39.7451 130.191 51.3969 125.018C52.3208 124.66 53.1934 124.25 54.1687 123.84C65.0505 119.231 72.4419 116.004 76.9588 114.365C79.32 113.546 80.6032 113.085 80.6032 113.085L105.601 114.109L129.161 92.4962C129.161 92.4962 124.9 90.0378 125.67 89.0647C126.44 88.0916 130.29 87.3233 136.603 86.3502C152.772 83.8919 162.371 84.865 175.716 85.7869C180.336 86.0942 184.853 87.5282 189.011 88.7062C191.474 89.372 203.537 95.057 205.641 96.491C210.825 99.9737 213.803 102.176 220.835 107.912C226.686 112.675 230.587 117.848 232.846 122.97C234.437 126.606 235.156 130.242 235.053 133.674Z" fill="#75B5E0"/>
<path d="M234.846 135.774C234.23 142.432 233.101 153.955 231.048 156.772C229.303 159.179 226.941 153.443 223.605 153.443C223.605 153.443 213.698 140.127 203.022 140.127C185.262 140.127 180.95 152.368 181.104 160.153C181.104 161.331 181.207 162.304 181.258 163.072C179.667 163.072 177.819 161.894 177.819 161.894C175.972 165.069 155.85 164.199 153.335 164.506H116.481V164.455C116.481 163.84 116.584 160.562 115.762 156.567V156.465C114.325 149.448 109.705 140.383 97.7458 139.256C97.5918 139.256 97.3351 139.205 97.1811 139.205C96.9758 139.205 96.7192 139.205 96.5652 139.154H94.3067C94.0501 139.154 93.6908 139.154 93.3828 139.205C93.1775 139.205 92.9208 139.205 92.7155 139.256C92.0995 139.308 91.4836 139.359 90.919 139.513C90.765 139.564 90.5083 139.564 90.3544 139.615C90.2004 139.615 90.0464 139.666 89.8411 139.717C89.5844 139.769 89.3278 139.82 89.0711 139.871C88.8658 139.922 88.6092 139.973 88.4038 140.076C88.1472 140.178 87.8392 140.281 87.5826 140.383C87.4286 140.434 87.1719 140.486 87.018 140.537C85.3754 141.203 83.9895 141.971 82.7576 142.944C82.6036 143.046 82.501 143.2 82.2957 143.251C81.7824 143.61 81.3204 144.02 80.9611 144.429C80.8071 144.532 80.7045 144.737 80.5505 144.839C80.4478 144.941 80.3452 145.095 80.1398 145.249C79.9345 145.505 79.6779 145.71 79.5239 145.966C79.3699 146.119 79.2672 146.324 79.0619 146.58C79.0619 146.58 79.0106 146.632 79.0106 146.683C78.8566 146.888 78.754 147.093 78.5486 147.297C78.3947 147.605 78.138 147.861 77.984 148.117C77.8814 148.322 77.7787 148.527 77.6247 148.731C77.5734 148.783 77.5221 148.885 77.4707 148.987C77.2654 149.397 77.0088 149.807 76.8034 150.319C76.4441 151.036 76.1362 151.804 75.8282 152.521C75.8282 152.573 75.7769 152.624 75.7769 152.624C75.7255 152.88 75.6229 153.085 75.5715 153.29C75.5202 153.546 75.4175 153.699 75.3662 153.955C75.3149 154.109 75.2636 154.365 75.2122 154.57C75.1609 154.775 75.1096 154.929 75.0583 155.031C74.9043 155.697 74.6989 156.363 74.545 156.926C74.1857 158.565 73.9803 160.05 73.8777 161.228C73.8777 161.484 73.8263 161.638 73.8263 161.894C73.8263 162.201 73.775 162.509 73.775 162.713V163.277C73.775 163.328 73.775 163.328 73.775 163.379V163.482C73.775 163.891 73.775 164.147 73.775 164.147H45.8006C44.9793 164.147 44.1067 164.147 43.3368 164.096C43.0801 164.096 42.8235 164.045 42.5668 164.045H42.4129C42.2075 164.045 41.8996 163.994 41.6943 163.994C41.6429 163.994 41.5403 163.994 41.4376 163.943C41.2836 163.943 41.181 163.943 41.027 163.891C40.411 163.84 39.8464 163.738 39.3331 163.635C39.1791 163.635 38.9738 163.584 38.8198 163.533C38.7172 163.533 38.6145 163.482 38.4605 163.482H38.3065C37.4853 163.277 36.664 163.072 35.9454 162.867C35.7914 162.816 35.6374 162.765 35.4321 162.713C35.2781 162.662 35.1754 162.611 34.9701 162.509C34.8161 162.457 34.7135 162.406 34.5082 162.304C34.4055 162.252 34.2515 162.201 34.0975 162.099V162.099C33.8409 161.996 33.5842 161.843 33.3789 161.74C33.2763 161.689 33.1736 161.638 33.0196 161.587C32.917 161.535 32.8143 161.484 32.6603 161.382C32.455 161.279 32.1983 161.126 32.0444 161.023C31.839 160.921 31.6337 160.767 31.4797 160.665C31.0178 160.357 30.6585 160.05 30.3505 159.845C30.2478 159.794 30.1452 159.64 30.0938 159.589C29.9912 159.538 29.9399 159.436 29.8372 159.282C29.7859 159.231 29.7345 159.077 29.6832 159.026L29.6319 158.975C29.6319 158.923 29.5806 158.872 29.5292 158.821C29.5292 158.77 29.4779 158.719 29.4779 158.616C29.4266 158.565 29.4266 158.411 29.3752 158.36C29.2212 158.104 29.1699 157.694 29.1699 157.233V152.06C29.1699 151.651 29.3239 151.241 29.5806 150.934L29.7859 150.626L30.6071 149.551C30.8125 149.295 30.9151 148.936 30.9151 148.578V147.553L31.0178 141.612C33.0709 141.664 36.3047 142.432 38.4605 143.098C42.1562 144.276 44.2094 147.81 46.0572 148.322C47.9051 148.783 50.1636 148.629 51.5495 147.605C53.2947 146.375 54.3726 140.537 57.4523 137.259C60.5321 133.981 72.9024 126.709 84.2975 123.687C92.1509 121.587 102.006 118.975 107.396 117.541C109.911 116.875 113.35 115.543 115.249 113.648C118.791 110.166 125.464 103.815 132.188 98.1812C145.739 85.1211 176.279 87.9892 186.135 91.3182C206.41 98.0788 219.55 111.241 228.738 120.409C232.536 124.353 234.179 130.038 234.846 135.774Z" fill="#6CACD8"/>
<path d="M116.636 164.506C116.636 164.199 116.687 163.225 116.584 161.791C116.584 161.638 116.584 161.433 116.533 161.279C116.43 159.999 116.276 158.411 115.917 156.721C115.917 156.772 115.968 156.875 116.02 156.926C116.02 156.977 116.071 157.028 116.071 157.08C116.584 158.104 118.432 160.255 124.694 160.255H181.156C181.208 162.611 181.464 164.301 181.516 164.608H116.636V164.506Z" fill="#4F92BF"/>
<path d="M42.6187 154.826C42.6187 154.826 35.0733 155.082 33.7901 154.621C32.5069 154.211 31.5829 154.57 30.2484 153.443C29.8891 153.136 29.5298 152.726 29.1191 152.317V152.265C29.1191 151.856 29.2731 151.446 29.5298 151.139L29.7351 150.831L30.5564 149.756C30.7617 149.5 30.9157 149.141 30.9157 148.783V147.758C32.3016 147.81 34.2007 148.424 34.9707 148.885C36.6645 150.012 36.5619 151.343 39.8983 152.931C41.4382 153.597 42.6187 154.826 42.6187 154.826Z" fill="#4F92BF"/>
<path d="M50.6774 163.123C49.3429 163.123 41.4382 162.047 40.3602 162.047C39.2823 162.047 36.2539 160.357 34.2007 160.05C32.1476 159.743 31.3776 159.64 30.8643 159.077C30.6077 158.77 29.8377 157.694 29.1191 156.67V152.112C29.1191 151.702 29.2731 151.292 29.5298 150.985L29.7351 150.677C29.7351 150.677 33.1742 153.187 37.6398 153.546C42.0541 153.955 46.5197 153.904 47.803 155.287C49.0862 156.67 50.6261 159.538 52.32 160.716C54.1678 162.047 52.0633 163.123 50.6774 163.123Z" fill="#75B5E0"/>
<path d="M51.9099 160.409C50.1647 160.357 41.6954 160.153 38.051 159.589C33.6367 158.821 30.7109 156.977 29.0684 155.543V154.98C30.4542 156.363 33.3287 158.514 38.1023 159.282C41.9007 159.948 51.5506 160.05 51.5506 160.05C51.5506 160.05 51.6532 160.255 51.9099 160.409Z" fill="#4F92BF"/>
<path d="M73.9296 161.638C73.7756 163.277 73.8269 164.25 73.8269 164.25H45.8011C44.6206 164.25 43.5427 164.199 42.5674 164.147C42.1568 164.147 41.7975 164.096 41.3868 164.045C40.6682 163.994 39.9496 163.84 39.2823 163.738C38.923 163.686 38.615 163.635 38.2557 163.533C37.0238 163.226 35.9459 162.918 35.022 162.56C34.7654 162.457 34.4574 162.304 34.2007 162.252H34.0981C33.8414 162.15 33.5848 161.996 33.3795 161.894C32.8662 161.638 32.4042 161.433 32.0449 161.177C31.8396 161.074 31.6343 160.921 31.4803 160.818C31.0183 160.511 30.659 160.204 30.351 159.999C30.0944 159.743 29.7864 159.436 29.6324 159.179C29.5811 159.077 29.5298 158.975 29.4784 158.872C29.2731 158.411 29.1191 157.848 29.1191 157.336V155.594C30.7617 157.028 33.6361 158.872 38.1018 159.64C41.7461 160.255 50.2155 160.409 51.9606 160.46C52.166 160.665 52.5253 160.87 52.9872 161.074C53.5005 161.331 54.1678 161.484 54.9377 161.484C56.8882 161.484 69.2073 160.921 73.9809 161.382C73.9295 161.433 73.9296 161.587 73.9296 161.638Z" fill="#4F92BF"/>
<path d="M113.299 161.996C113.299 171.83 105.292 179 95.3856 179C85.479 179 77.4717 171.779 77.4717 161.996C77.4717 161.689 77.4717 161.33 77.4717 161.023C77.9336 151.702 85.787 144.224 95.3342 144.224C104.881 144.224 112.735 151.651 113.197 161.023C113.299 161.33 113.299 161.638 113.299 161.996Z" fill="#292955"/>
<path d="M219.602 161.996C219.602 171.83 211.595 179 201.688 179C191.782 179 183.774 171.779 183.774 161.996C183.774 161.689 183.774 161.33 183.774 161.023C184.236 151.702 192.09 144.224 201.637 144.224C211.184 144.224 219.038 151.651 219.5 161.023C219.602 161.33 219.602 161.638 219.602 161.996Z" fill="#292955"/>
<path d="M210.568 161.996C210.568 166.862 206.615 170.652 201.688 170.652C196.76 170.652 192.808 166.811 192.808 161.996C192.808 157.182 196.76 153.238 201.688 153.238C206.615 153.238 210.568 157.131 210.568 161.996Z" fill="white"/>
<path d="M104.266 161.996C104.266 166.862 100.313 170.652 95.3858 170.652C90.4582 170.652 86.5059 166.811 86.5059 161.996C86.5059 157.182 90.4582 153.238 95.3858 153.238C100.313 153.238 104.266 157.131 104.266 161.996Z" fill="white"/>
<path d="M131.983 92.701C131.829 93.5204 131.418 94.2374 130.853 94.852C130.032 95.7739 129.057 96.6446 127.979 97.6689C121.614 103.712 113.042 110.831 110.27 113.034C109.09 114.007 107.807 114.775 106.421 115.236C105.599 115.543 104.573 115.799 103.546 115.799C100.518 115.799 85.0678 115.082 81.3721 113.187C81.3721 113.187 102.263 101.049 118.483 92.4449C121.05 91.062 123.513 90.2938 125.721 89.1671C125.721 89.1671 126.285 89.1158 127.106 89.0646C127.106 89.0646 127.106 89.0646 127.158 89.0646C127.722 88.911 132.701 88.8598 131.983 92.701Z" fill="#292955"/>
<path d="M162.626 117.08H126.285L123.103 113.392C123.103 113.392 126.798 107.758 133.882 102.073C140.298 96.9519 149.383 91.8303 162.883 91.6766L162.626 117.08Z" fill="#292955"/>
<path d="M167.246 91.6766C180.746 91.8815 189.831 96.9519 196.247 102.073C200.199 105.249 203.844 109.5 206.359 112.675C207.745 114.468 206.513 117.08 204.203 117.08H203.793H167.451L167.246 91.6766Z" fill="#292955"/>
<path d="M70.3881 134.237C67.719 135.774 65.4091 136.952 62.4834 138.13C62.2267 138.232 61.8674 138.386 61.4568 138.488C59.5063 139.205 56.3752 140.178 54.8353 140.332C54.8353 140.332 52.9361 140.639 51.5503 140.639C50.1644 140.588 48.6758 140.332 47.7006 139C47.5979 138.898 47.2899 138.539 47.2386 138.386C46.2633 137.054 46.982 136.388 48.3678 135.671C50.4723 134.545 52.8335 133.315 54.8867 132.445C55.9132 131.984 56.8372 131.625 57.5558 131.369C61.2001 130.089 63.8179 130.652 65.4605 130.755C67.719 130.959 69.3615 131.728 70.4394 132.393C71.1067 132.803 71.1067 133.879 70.3881 134.237Z" fill="white"/>
<path opacity="0.2" d="M162.114 126.555C156.365 126.555 147.639 126.606 141.48 126.606C132.6 126.606 111.965 126.606 96.5667 129.525C96.1047 129.576 95.9508 128.911 96.4127 128.757C103.24 126.504 118.69 122.867 148.204 122.867C153.593 122.918 158.367 122.918 162.473 122.97C162.473 122.97 205.949 123.635 214.881 126.555H162.114Z" fill="#4F92BF"/>
<path opacity="0.2" d="M70.9017 129.679C70.8503 129.679 70.7477 129.628 70.7477 129.577C70.6963 129.474 70.7477 129.321 70.8503 129.269C74.6487 127.579 80.7569 125.018 88.4049 122.56C92.2546 121.28 95.6423 120.563 98.2601 119.999C101.135 119.333 103.342 118.872 104.933 118.002C105.036 117.951 105.138 118.002 105.19 118.104C105.241 118.207 105.19 118.36 105.087 118.412C103.496 119.333 101.237 119.794 98.3115 120.46C95.6937 121.075 92.3573 121.792 88.4563 123.021C80.8595 125.531 74.7514 128.04 70.9017 129.73C70.953 129.679 70.9017 129.679 70.9017 129.679Z" fill="#292955"/>
<path opacity="0.2" d="M119.767 158.565C119.664 158.565 119.613 158.514 119.562 158.36C118.997 156.516 118.484 152.572 118.278 147.656C118.278 147.553 118.33 147.4 118.484 147.4C118.586 147.4 118.689 147.451 118.689 147.656C118.894 152.572 119.356 156.414 119.921 158.257C119.972 158.36 119.921 158.514 119.818 158.565H119.767V158.565Z" fill="#292955"/>
<path opacity="0.2" d="M118.279 142.586C118.176 142.586 118.073 142.483 118.073 142.329C118.073 141.51 118.073 140.691 118.073 139.871C118.073 130.755 118.792 124.045 119.202 120.819C119.202 120.716 119.305 120.563 119.408 120.614C119.51 120.614 119.562 120.716 119.562 120.87C119.151 124.045 118.433 130.755 118.433 139.82C118.433 140.639 118.433 141.51 118.433 142.278C118.535 142.483 118.433 142.586 118.279 142.586Z" fill="#292955"/>
<path opacity="0.2" d="M163.294 160.357H161.702C161.6 160.357 161.497 160.255 161.497 160.101C161.497 159.999 161.6 159.845 161.702 159.845H163.294C163.396 159.845 163.499 159.948 163.499 160.101C163.55 160.255 163.448 160.357 163.294 160.357Z" fill="#292955"/>
<path opacity="0.2" d="M159.445 160.357H154.414C154.312 160.357 154.209 160.255 154.209 160.101C154.209 159.999 154.312 159.845 154.414 159.845H159.445C159.547 159.845 159.65 159.948 159.65 160.101C159.701 160.255 159.599 160.357 159.445 160.357Z" fill="#292955"/>
<path opacity="0.2" d="M152.206 160.357H117.611C117.508 160.357 117.405 160.255 117.405 160.101C117.405 159.999 117.508 159.845 117.611 159.845H152.206C152.309 159.845 152.412 159.948 152.412 160.101C152.412 160.255 152.309 160.357 152.206 160.357Z" fill="#292955"/>
<path d="M156.929 127.733H148.408C147.844 127.733 147.382 127.272 147.382 126.657C147.382 126.043 147.844 125.582 148.408 125.582H156.929C157.494 125.582 157.956 126.043 157.956 126.657C157.956 127.272 157.494 127.733 156.929 127.733Z" fill="#4F92BF"/>
<path d="M156.416 127.118H147.896C147.331 127.118 146.869 126.657 146.869 126.043C146.869 125.428 147.331 124.967 147.896 124.967H156.416C156.981 124.967 157.443 125.428 157.443 126.043C157.443 126.606 156.981 127.118 156.416 127.118Z" fill="#2C2E5A"/>
<path d="M205.949 127.118H197.428C196.863 127.118 196.401 126.657 196.401 126.043C196.401 125.428 196.863 124.967 197.428 124.967H205.949C206.513 124.967 206.975 125.428 206.975 126.043C206.975 126.606 206.513 127.118 205.949 127.118Z" fill="#2C2E5A"/>
<path opacity="0.2" d="M42.3111 138.898C41.5925 138.898 40.8225 138.847 39.9499 138.795C35.2277 138.437 32.9692 137.617 32.8152 137.515C32.7125 137.464 32.6612 137.31 32.7125 137.208C32.7638 137.105 32.8665 137.003 32.9692 137.105C32.9692 137.105 35.3303 137.925 39.9499 138.283C41.1818 138.386 42.3624 138.386 43.4403 138.334C43.543 138.334 43.6456 138.386 43.6456 138.591C43.6456 138.693 43.5943 138.847 43.4403 138.847C43.081 138.898 42.6704 138.898 42.3111 138.898Z" fill="#292955"/>
<path d="M132.651 117.029C132.651 117.848 132.445 118.821 131.83 119.897C131.573 120.306 131.214 120.819 130.803 121.228C130.649 121.433 130.392 121.536 130.187 121.587C129.314 121.792 127.005 122.15 124.746 121.689C123.001 121.331 122.231 120.05 121.872 119.077C121.82 118.975 121.82 118.872 121.769 118.77C121.615 118.309 121.615 117.951 121.615 117.951H120.486C120.075 117.951 119.818 117.592 119.87 117.182L120.126 114.929C120.178 114.622 120.383 114.365 120.691 114.314L122.436 114.058C122.436 114.058 123.258 112.983 126.029 112.522C127.877 112.163 129.828 112.061 130.752 112.931C131.162 113.495 132.651 114.929 132.651 117.029Z" fill="#75B5E0"/>
<path d="M132.651 117.029C132.651 117.848 132.446 118.821 131.83 119.897C130.495 120.562 124.028 121.331 123.822 120.614C123.566 119.436 123.72 118.514 124.284 117.899C124.849 117.285 127.569 116.055 130.393 116.055C131.47 116.004 132.189 116.516 132.651 117.029Z" fill="#6CACD8"/>
<path d="M132.65 117.029C132.65 117.848 132.445 118.821 131.829 119.897C131.572 120.307 131.213 120.819 130.802 121.228C130.649 121.433 130.392 121.536 130.187 121.587C129.314 121.792 127.004 122.15 124.746 121.689C123 121.331 122.231 120.05 121.871 119.077C121.82 118.975 121.82 118.872 121.769 118.77C122.282 119.129 123.976 120.204 126.953 120.102C129.519 119.948 131.572 118.155 132.65 117.029Z" fill="#4F92BF"/>
<path d="M75.3154 142.739C79.2678 139.256 89.8416 132.24 105.24 137.464C105.6 137.566 105.805 137.105 105.497 136.849C100.159 133.418 85.5813 126.247 74.8535 142.278C74.6995 142.585 75.0588 142.944 75.3154 142.739Z" fill="#75B5E0"/>
<path d="M186.495 142.739C190.447 139.256 201.021 132.24 216.42 137.464C216.779 137.566 216.985 137.105 216.677 136.849C211.338 133.418 196.761 126.247 186.033 142.278C185.879 142.585 186.187 142.944 186.495 142.739Z" fill="#75B5E0"/>
<path opacity="0.1" d="M111.194 107.963C111.143 107.963 111.04 107.912 110.989 107.861C110.886 107.758 110.886 107.554 110.989 107.451C111.451 106.99 111.862 106.478 112.272 106.017C112.375 105.915 112.529 105.915 112.683 106.017C112.786 106.12 112.786 106.324 112.683 106.427C112.221 106.888 111.81 107.451 111.348 107.912C111.348 107.861 111.297 107.963 111.194 107.963Z" fill="#75B5E0"/>
<path opacity="0.1" d="M114.583 103.61C114.531 103.61 114.48 103.61 114.429 103.559C114.326 103.456 114.275 103.251 114.377 103.149C114.942 102.329 115.455 101.459 115.866 100.639C115.917 100.537 116.071 100.435 116.276 100.537C116.379 100.588 116.43 100.793 116.379 100.947C115.917 101.869 115.352 102.688 114.891 103.507C114.839 103.61 114.737 103.61 114.583 103.61Z" fill="#75B5E0"/>
<path opacity="0.1" d="M104.881 111.548C104.83 111.548 104.779 111.548 104.727 111.497C104.625 111.395 104.625 111.19 104.727 111.088C105.908 109.653 107.037 108.219 108.012 106.837C108.115 106.734 108.269 106.632 108.423 106.785C108.526 106.888 108.577 107.093 108.474 107.195C107.448 108.578 106.37 110.012 105.189 111.446C105.035 111.548 104.933 111.548 104.881 111.548Z" fill="#75B5E0"/>
<path opacity="0.1" d="M110.938 103.047C110.887 103.047 110.835 103.047 110.784 102.995C110.681 102.944 110.63 102.688 110.681 102.586C111.4 101.408 112.016 100.178 112.58 99.0517C112.632 98.9493 112.786 98.8469 112.991 98.9493C113.094 99.0005 113.145 99.2054 113.094 99.359C112.529 100.486 111.913 101.715 111.195 102.893C111.143 103.047 111.092 103.047 110.938 103.047Z" fill="#75B5E0"/>
<path opacity="0.1" d="M130.855 94.852C130.033 95.6715 129.058 96.6446 128.031 97.6177C133.164 88.0403 119.408 92.0864 118.587 92.3425C121.153 90.9596 123.617 90.1914 125.824 89.0646C125.824 89.0646 126.389 89.0134 127.21 88.9622C127.21 88.9622 127.21 88.9622 127.262 88.9622C127.724 88.9622 132.651 88.911 132.035 92.5985C131.83 93.4692 131.419 94.2374 130.855 94.852Z" fill="#75B5E0"/>
<path opacity="0.1" d="M144.508 112.624C144.456 112.624 144.405 112.624 144.354 112.573C144.251 112.47 144.251 112.266 144.302 112.163L150.616 104.276C150.718 104.173 150.872 104.173 151.026 104.225C151.129 104.327 151.129 104.532 151.078 104.634L144.764 112.522C144.662 112.573 144.559 112.624 144.508 112.624Z" fill="#75B5E0"/>
<path opacity="0.1" d="M154.055 100.691C154.004 100.691 153.953 100.691 153.901 100.639C153.799 100.537 153.799 100.332 153.85 100.23L155.698 97.8738C155.801 97.7714 155.955 97.7714 156.109 97.8226C156.211 97.925 156.211 98.1299 156.16 98.2323L154.312 100.588C154.209 100.639 154.107 100.691 154.055 100.691Z" fill="#75B5E0"/>
<path opacity="0.1" d="M149.333 113.751C149.281 113.751 149.23 113.751 149.179 113.7C149.076 113.597 149.076 113.392 149.127 113.29L149.692 112.624C149.795 112.522 149.949 112.522 150.103 112.573C150.205 112.675 150.205 112.88 150.154 112.983L149.589 113.648C149.487 113.751 149.435 113.751 149.333 113.751Z" fill="#75B5E0"/>
<path opacity="0.1" d="M150.821 111.907C150.77 111.907 150.718 111.907 150.667 111.856C150.564 111.753 150.564 111.549 150.616 111.446L151.796 109.961C151.899 109.858 152.053 109.858 152.207 109.91C152.31 110.012 152.31 110.217 152.258 110.319L151.078 111.805C151.026 111.856 150.872 111.907 150.821 111.907Z" fill="#75B5E0"/>
<path opacity="0.1" d="M153.132 109.039C153.08 109.039 153.029 109.039 152.978 108.988C152.875 108.885 152.875 108.68 152.926 108.578L156.417 104.225C156.519 104.122 156.673 104.122 156.827 104.173C156.93 104.225 156.93 104.481 156.879 104.583L153.388 108.937C153.286 109.039 153.183 109.039 153.132 109.039Z" fill="#75B5E0"/>
<path opacity="0.1" d="M159.906 100.537C159.855 100.537 159.803 100.537 159.752 100.486C159.649 100.383 159.649 100.178 159.701 100.076L160.522 99.0005C160.625 98.8981 160.779 98.8981 160.933 98.9493C161.035 99.0517 161.035 99.2566 160.984 99.359L160.163 100.435C160.009 100.537 159.957 100.537 159.906 100.537Z" fill="#75B5E0"/>
<path opacity="0.1" d="M170.583 112.624C170.531 112.624 170.48 112.624 170.429 112.573C170.326 112.47 170.326 112.266 170.377 112.163L176.691 104.276C176.794 104.173 176.948 104.173 177.102 104.225C177.204 104.327 177.204 104.532 177.153 104.634L170.839 112.522C170.737 112.573 170.634 112.624 170.583 112.624Z" fill="#75B5E0"/>
<path opacity="0.1" d="M180.079 100.691C180.028 100.691 179.976 100.691 179.925 100.639C179.822 100.537 179.822 100.332 179.874 100.23L181.721 97.8738C181.824 97.7714 181.978 97.7714 182.132 97.8226C182.235 97.925 182.235 98.1299 182.183 98.2323L180.336 100.588C180.284 100.639 180.182 100.691 180.079 100.691Z" fill="#75B5E0"/>
<path opacity="0.1" d="M175.408 113.751C175.357 113.751 175.305 113.751 175.254 113.7C175.151 113.597 175.151 113.392 175.203 113.29L175.767 112.624C175.87 112.522 176.024 112.522 176.178 112.573C176.281 112.675 176.281 112.88 176.229 112.983L175.665 113.648C175.562 113.751 175.511 113.751 175.408 113.751Z" fill="#75B5E0"/>
<path opacity="0.1" d="M176.896 111.907C176.845 111.907 176.794 111.907 176.742 111.856C176.64 111.753 176.64 111.549 176.691 111.446L177.872 109.961C177.974 109.858 178.128 109.858 178.282 109.91C178.385 110.012 178.385 110.217 178.333 110.319L177.153 111.805C177.102 111.856 176.948 111.907 176.896 111.907Z" fill="#75B5E0"/>
<path opacity="0.1" d="M179.207 109.039C179.155 109.039 179.104 109.039 179.053 108.988C178.95 108.885 178.95 108.68 179.001 108.578L182.492 104.225C182.595 104.122 182.748 104.122 182.902 104.173C183.005 104.225 183.005 104.481 182.954 104.583L179.463 108.937C179.361 109.039 179.258 109.039 179.207 109.039Z" fill="#75B5E0"/>
<path opacity="0.1" d="M185.981 100.537C185.93 100.537 185.879 100.537 185.827 100.486C185.725 100.383 185.725 100.178 185.776 100.076L186.597 99.0005C186.7 98.8981 186.854 98.8981 187.008 98.9493C187.11 99.0517 187.11 99.2566 187.059 99.359L186.238 100.435C186.084 100.537 186.033 100.537 185.981 100.537Z" fill="#75B5E0"/>
<path opacity="0.2" d="M112.375 161.023C112.016 160.665 107.91 156.67 95.3855 156.67C82.8611 156.67 78.7035 160.665 78.3955 161.023C78.8575 151.702 86.3002 144.224 95.3855 144.224C104.471 144.224 111.914 151.702 112.375 161.023Z" fill="#292955"/>
<path opacity="0.2" d="M218.678 161.023C218.319 160.665 214.213 156.67 201.688 156.67C189.164 156.67 185.006 160.665 184.698 161.023C185.16 151.702 192.603 144.224 201.688 144.224C210.773 144.224 218.216 151.702 218.678 161.023Z" fill="#292955"/>
<path d="M59.763 125.479C54.6814 126.248 52.269 125.889 51.499 125.018C52.3716 124.609 53.2955 124.25 54.2195 123.84C65.1013 119.231 72.4927 116.004 77.0097 114.365C77.0097 114.724 77.0096 115.134 77.1123 115.441C78.1389 118.002 76.753 122.867 59.763 125.479Z" fill="#83BCE3"/>
<path d="M74.5967 157.028C74.2374 158.667 74.032 160.153 73.9294 161.331C73.8781 162.252 73.8267 162.969 73.7754 163.482C72.9541 163.738 72.0815 163.789 72.0815 163.789L68.5398 162.662C68.5398 162.662 66.1787 161.177 69.1044 161.177C72.0302 161.228 74.5967 157.028 74.5967 157.028Z" fill="#4F92BF"/>
<path d="M124.027 103.098C123.976 103.098 123.873 103.047 123.822 102.996C123.719 102.893 123.719 102.688 123.822 102.586C123.873 102.535 129.468 97.3618 135.577 93.0596C135.679 92.9572 135.833 93.0084 135.987 93.1108C136.09 93.2133 136.038 93.4181 135.936 93.5206C129.828 97.8227 124.284 102.996 124.233 103.047C124.181 103.047 124.13 103.098 124.027 103.098Z" fill="#92CEEF"/>
<path d="M162.78 156.824C153.746 156.875 141.787 156.875 130.802 155.799C130.084 155.748 129.981 154.724 130.648 154.416C134.498 152.726 144.097 149.807 163.088 150.063C175.356 149.705 181.002 153.443 181.002 153.443C181.002 153.443 179.308 157.541 162.78 156.824Z" fill="#75B5E0"/>
<path opacity="0.1" d="M61.5086 138.488C59.558 139.205 56.427 140.178 54.8871 140.332C54.8871 140.332 52.9879 140.639 51.602 140.639C50.2161 140.588 48.7276 140.332 47.7523 139C47.6497 138.898 47.3417 138.539 47.2904 138.386C46.3151 137.054 47.0337 136.388 48.4196 135.671C50.5241 134.545 52.8852 133.315 54.9384 132.445C55.1437 134.801 56.581 137.669 61.5086 138.488Z" fill="#6CACD8"/>
<path d="M62.9968 13.6235L65.1013 55.7231C65.2552 59.0009 68.027 61.5617 71.3634 61.4593L91.0738 60.8447C94.4616 60.7423 97.0794 57.8742 96.9254 54.4939L94.8209 11.2676C94.7182 9.42383 93.127 8.041 91.2792 8.19465L65.9739 10.2433C64.2287 10.3457 62.8941 11.8822 62.9968 13.6235Z" fill="#AA534F"/>
<path d="M95.7961 53.2646C95.95 56.6449 93.3323 59.513 89.9445 59.6154L70.2341 60.23C66.949 60.3324 64.1772 57.7716 63.9719 54.4938L63.356 42.6629L62.1754 19.0523L61.8161 12.3942C61.7134 10.6529 63.048 9.11642 64.7932 8.96277L90.0985 6.91413C91.9464 6.76048 93.5376 8.14331 93.6402 9.98709L95.7961 53.2646Z" fill="#FF6C4A"/>
<path opacity="0.2" d="M70.3885 31.498L63.3564 42.6631L62.1758 19.0525L68.4893 22.9961C71.3637 24.8399 72.185 28.6299 70.3885 31.498Z" fill="#703636"/>
<path d="M91.4327 41.485C91.4327 47.9894 86.1458 53.2647 79.627 53.2647C76.6499 53.2647 73.8781 52.1379 71.825 50.2942C69.3612 48.1431 67.8213 44.9677 67.8213 41.485C67.8213 34.9806 73.1082 29.7053 79.627 29.7053C83.1687 29.7053 86.2998 31.2418 88.4556 33.7002C90.3548 35.7488 91.4327 38.5145 91.4327 41.485Z" fill="#F2C768"/>
<path d="M46.9301 39.0778L20.2389 81.331C19.315 82.8163 17.4158 83.3797 16.0813 82.5602L10.1784 78.8214C8.84384 78.002 8.53586 76.0558 9.45979 74.5705L36.151 32.3173C37.0749 30.832 38.9741 30.2687 40.3087 31.0881L46.2115 34.8269C47.5461 35.6976 47.8541 37.5926 46.9301 39.0778Z" fill="#A3A7A8"/>
<path d="M67.0514 27.964L54.1677 48.348C52.3712 51.2161 48.5215 52.0868 45.6471 50.2942L25.2694 37.439C22.3949 35.6464 21.5223 31.8052 23.3189 28.9883L29.0677 19.9231L30.0943 18.3354L36.2025 8.65558C37.999 5.78748 41.8487 4.91681 44.7231 6.70937L58.8387 15.5697L65.1522 19.5134C67.9753 21.3059 68.8479 25.1471 67.0514 27.964Z" fill="#313435"/>
<path opacity="0.2" d="M58.8387 15.5697C58.4281 17.0038 57.6581 18.0793 56.2722 18.0793C52.3712 18.0793 48.0596 14.1357 44.5179 14.1357C40.9761 14.1357 38.461 27.6055 31.9935 25.6593C27.8359 24.3789 28.2465 21.6645 29.1191 19.9231C29.5297 19.0012 30.0943 18.3866 30.1457 18.3354L36.2538 8.65558C38.0504 5.78748 41.9001 4.91681 44.7745 6.70937L58.8387 15.5697Z" fill="#686B6B"/>
<path d="M67.0515 27.9128L54.1679 48.2967C52.3714 51.1648 48.5217 52.0355 45.6472 50.2429L25.2695 37.3877C22.8057 35.8512 21.8305 32.8295 22.7544 30.2175C23.165 31.4979 24.0376 32.6758 25.2695 33.4441L45.6986 46.2993C48.573 48.0919 52.3714 47.2212 54.2192 44.3531L67.1029 23.9691C67.3595 23.5594 67.5648 23.0984 67.7188 22.6887C68.2321 24.3788 68.0781 26.3251 67.0515 27.9128Z" fill="#171919"/>
<path d="M46.9316 39.0778L40.1561 49.8332L29.377 43.0214L36.1524 32.3173C37.0763 30.832 38.9755 30.2687 40.3101 31.0881L46.2129 34.8269C47.5475 35.6976 47.8555 37.5926 46.9316 39.0778Z" fill="#313435"/>
<path d="M48.8292 28.3224C51.664 28.3224 53.9621 26.0294 53.9621 23.2008C53.9621 20.3722 51.664 18.0792 48.8292 18.0792C45.9944 18.0792 43.6963 20.3722 43.6963 23.2008C43.6963 26.0294 45.9944 28.3224 48.8292 28.3224Z" fill="white"/>
<path d="M78.6009 19.1036C80.5853 19.1036 82.1939 17.4985 82.1939 15.5185C82.1939 13.5385 80.5853 11.9333 78.6009 11.9333C76.6165 11.9333 75.0078 13.5385 75.0078 15.5185C75.0078 17.4985 76.6165 19.1036 78.6009 19.1036Z" fill="white"/>
<path d="M51.5503 27.8615C48.5732 24.7886 46.9307 20.7425 46.9307 16.4403C46.9307 7.37511 54.3221 0 63.4073 0C72.4926 0 79.884 7.37511 79.884 16.4403H77.3176C77.3176 8.75794 71.0554 2.5608 63.4073 2.5608C55.7593 2.5608 49.4971 8.80916 49.4971 16.4403C49.4971 20.0255 50.883 23.4569 53.3981 26.069L51.5503 27.8615Z" fill="#A3A7A8"/>
<path d="M84.8621 44.4043C84.8621 42.7142 83.4762 41.3314 81.6283 41.0241V36.5683H83.1169C83.2709 36.5683 83.3735 36.4659 83.3735 36.3122V35.544C83.3735 35.3903 83.2709 35.2879 83.1169 35.2879H81.6283V34.3148C81.6283 34.1611 81.5257 34.0587 81.3717 34.0587H80.6018C80.4478 34.0587 80.3451 34.1611 80.3451 34.3148V35.2367H78.7026V34.3148C78.7026 34.1611 78.5999 34.0587 78.4459 34.0587H77.676C77.522 34.0587 77.4193 34.1611 77.4193 34.3148V35.2367C75.3148 35.3903 73.7236 36.8756 73.7236 38.7194C73.7236 40.5631 75.3662 41.9972 77.4193 42.2021V46.6066H75.4688C75.3148 46.6066 75.2122 46.7091 75.2122 46.8627V47.631C75.2122 47.7846 75.3148 47.887 75.4688 47.887H77.4193V48.7065C77.4193 48.8601 77.522 48.9626 77.676 48.9626H78.4459C78.5999 48.9626 78.7026 48.8601 78.7026 48.7065V47.887H80.3451V48.7065C80.3451 48.8601 80.4478 48.9626 80.6018 48.9626H81.3717C81.5257 48.9626 81.6283 48.8601 81.6283 48.7065V47.8358C83.4762 47.4773 84.8621 46.0945 84.8621 44.4043ZM80.2938 36.5683V40.9217H78.6512V36.5683H80.2938ZM74.9042 38.7706C74.9042 37.6438 75.9821 36.7732 77.3167 36.6195V40.9729C75.9821 40.768 74.9042 39.8461 74.9042 38.7706ZM78.6512 46.6066V42.2533H80.2938V46.6066H78.6512ZM81.6283 46.5042V42.3557C82.7576 42.663 83.5788 43.4825 83.5788 44.4556C83.5275 45.3775 82.7063 46.1969 81.6283 46.5042Z" fill="#997047"/>
<path opacity="0.2" d="M26.0398 72.112L21.4202 79.4359C21.2662 79.692 20.8042 79.692 20.3936 79.4359L18.5971 78.3092C18.1864 78.0531 17.9811 77.6434 18.1351 77.3873L22.7547 70.0634C22.9087 69.8073 23.3707 69.8073 23.7813 70.0634L25.5779 71.1901C26.0398 71.395 26.2451 71.856 26.0398 72.112Z" fill="#313435"/>
<path opacity="0.2" d="M32.4563 61.9201L27.888 69.1416C27.734 69.3977 27.272 69.3977 26.8614 69.1416L25.0648 68.0149C24.6542 67.7588 24.4489 67.349 24.6029 67.093L29.1712 59.8715C29.3252 59.6154 29.7871 59.6154 30.1978 59.8715L31.9943 60.9983C32.4049 61.2543 32.6102 61.6641 32.4563 61.9201Z" fill="#313435"/>
<path opacity="0.2" d="M37.1276 40.6143L15.8773 74.2633C15.1074 75.4412 14.3374 76.3119 14.1321 76.2095L13.2082 75.6461C13.0029 75.4924 13.4648 74.4169 14.1834 73.2389L35.4337 39.59C36.2037 38.412 36.9736 37.5414 37.1789 37.6438L38.1029 38.2072C38.3595 38.3608 37.8975 39.4364 37.1276 40.6143Z" fill="#313435"/>
<path opacity="0.2" d="M91.4322 41.4849C91.4322 47.9894 86.1453 53.2646 79.6265 53.2646C76.0848 53.2646 72.9537 51.7281 70.7979 49.2698C72.851 51.1135 75.6228 52.2403 78.5999 52.2403C85.1187 52.2403 90.4056 46.9651 90.4056 40.4606C90.4056 37.4901 89.2764 34.7244 87.4285 32.6758C89.8923 34.8269 91.4322 38.0022 91.4322 41.4849Z" fill="#5B2A25"/>
<path opacity="0.2" d="M164.731 120.102V140.639" stroke="#292955" stroke-miterlimit="10"/>
<path opacity="0.2" d="M210.312 132.24C210.055 134.442 209.85 136.183 209.747 137.515" stroke="#292955" stroke-miterlimit="10"/>
<path opacity="0.2" d="M208.207 117.95C208.207 117.95 211.543 121.126 210.619 129.73" stroke="#292955" stroke-miterlimit="10"/>
<path d="M222.99 152.624C222.99 152.624 231.049 157.336 232.64 155.799C234.231 154.263 233.667 156.875 231.562 158.053C229.458 159.231 230.382 160.101 228.174 159.179C225.967 158.258 224.273 156.414 223.965 156.106C223.606 155.748 222.99 152.624 222.99 152.624Z" fill="#4F92BF"/>
<path d="M234.179 142.79C234.179 142.79 232.896 154.058 232.742 154.929C232.639 155.799 232.844 157.028 228.276 155.236C223.656 153.443 229.149 143.251 229.405 142.79C229.662 142.329 234.179 142.79 234.179 142.79Z" fill="#6CACD8"/>
<path d="M235.053 133.674C235.053 134.032 235.001 134.34 235.001 134.647C233.821 134.852 232.846 134.801 232.846 133.93C232.846 131.728 227.764 128.501 228.38 126.196C228.996 123.892 232.846 122.918 232.846 122.918C234.437 126.606 235.155 130.242 235.053 133.674Z" fill="#F97A58"/>
</svg>
