<svg width="136" height="73" viewBox="0 0 136 73" fill="none" xmlns="http://www.w3.org/2000/svg">
<path d="M140.711 61.7162L111.204 114.811L106.635 123.018C106.064 124.101 104.76 124.538 103.745 124.003L3.62178 71.2271C2.60691 70.6922 2.23026 69.3693 2.80106 68.2864L7.0692 59.9201L34.334 6.46534C34.9048 5.38245 37.2248 3.90268 39.3328 5.20844L138.615 54.082C139.918 54.7252 140.878 55.9017 141.273 57.3426C141.653 58.7751 141.449 60.354 140.711 61.7162Z" fill="#F0F0F0"/>
<path opacity="0.26" d="M104.598 119.819C104.064 120.832 102.838 121.242 101.874 120.734L6.80907 70.6244C5.84499 70.1162 5.49068 68.8727 6.02445 67.86L35.3568 10.297C35.8905 9.28441 38.0693 7.90958 40.0755 9.16114L134.316 55.6231C135.551 56.2308 136.463 57.3368 136.844 58.6811C137.226 60.0255 137.051 61.5074 136.352 62.7566L104.598 119.819Z" fill="#E4E4E4"/>
<path d="M115.749 58.9041C115.217 59.8324 114.32 60.3525 113.732 60.0425L78.5715 41.7681C77.8993 41.4138 77.8147 40.3115 78.34 39.3149C78.8653 38.3182 79.8651 37.7659 80.5204 38.1114L115.658 56.6328C116.22 56.9509 116.281 57.9759 115.749 58.9041Z" fill="#A3A7B6"/>
<path d="M93.6614 101.159C93.1519 101.954 91.7828 102.068 90.5819 101.435L17.8386 63.3003C16.461 62.5742 15.7187 61.328 16.1889 60.436C16.6512 59.5589 18.142 59.4708 19.5196 60.1969L92.3532 98.5884C93.5189 99.2028 94.1356 100.345 93.6614 101.159Z" fill="#A3A7B6"/>
<path d="M98.1267 91.4337C97.5945 92.3619 96.7243 92.8314 96.1272 92.5383L61.3118 74.4241C60.6565 74.0786 60.5194 73.0351 61.0616 72.0473C61.5869 71.0507 62.5342 70.5571 63.2064 70.9114L97.991 89.2468C98.5624 89.548 98.6421 90.4966 98.1267 91.4337Z" fill="#A3A7B6"/>
<path d="M111.935 66.1326C111.483 66.9088 110.287 67.099 109.245 66.5498L75.6536 49.2102C74.5356 48.6425 73.9922 47.5142 74.4364 46.7123L74.4809 46.6278C74.9083 45.817 76.163 45.6365 77.281 46.2042L110.895 63.6638C111.937 64.2129 112.431 65.272 111.996 66.057L111.935 66.1326Z" fill="#A3A7B6"/>
<path d="M108.071 73.1397C107.628 73.899 106.433 74.0892 105.391 73.54L71.9009 56.2109C70.8086 55.6352 70.2563 54.5238 70.6916 53.7387L70.7362 53.6543C71.1804 52.8523 72.435 52.6718 73.5273 53.2476L107.023 70.6877C108.065 71.2369 108.559 72.2959 108.116 73.0553L108.071 73.1397Z" fill="#A3A7B6"/>
<path d="M118.307 66.8828L129.068 72.6198L118.307 66.8828Z" fill="#F3F6F9"/>
<path d="M115.687 71.89L126.493 77.5431L115.687 71.89Z" fill="#F3F6F9"/>
<path d="M45.5286 67.522L19.991 54.0608C19.8025 53.9614 19.7194 53.7426 19.8071 53.5762L32.6526 29.2067C32.7403 29.0403 32.9677 28.9852 33.1563 29.0845L58.6938 42.5457C58.8824 42.645 58.9654 42.8639 58.8777 43.0303L46.0322 67.3998C45.9445 67.5661 45.7171 67.6213 45.5286 67.522Z" fill="white"/>
<path d="M45.1551 66.4868C46.4879 62.4012 46.5804 58.0803 46.5804 58.0803L40.2325 64.7056C40.2325 64.7056 40.2208 64.8156 40.1834 65.04L43.9158 66.9957C44.4001 67.2394 44.9873 67.0027 45.1551 66.4868Z" fill="#A3A7B6"/>
<path d="M25.3154 57.1917C26.0247 56.4383 26.5119 55.9745 26.5119 55.9745L26.3563 47.4087C26.3563 47.4087 25.0014 47.9613 21.0946 53.2236C20.6121 53.8758 20.7917 54.8072 21.5155 55.1887L25.3154 57.1917Z" fill="#A3A7B6"/>
<path d="M37.9105 63.8285L42.4235 52.8541C38.8579 48.8711 32.3025 47.7749 32.3025 47.7749L26.4383 57.7814L37.9105 63.8285Z" fill="#B6B4B3"/>
<path d="M37.0477 45.8149L35.5137 48.5277C35.3608 48.7957 35.4033 49.1319 35.6087 49.3564C36.1849 49.9739 37.4312 51.119 39.0701 51.3436C39.4033 51.3914 39.7147 51.1953 39.8277 50.8714L40.8976 47.8326L37.0525 45.8058L37.0477 45.8149Z" fill="#E4E4E4"/>
<path d="M38.3032 40.0378C38.3032 40.0378 36.1797 45.229 36.5767 47.042C36.5767 47.042 39.5989 49.007 41.1165 48.9353C41.1165 48.9353 43.2299 46.8998 44.8749 43.5599C44.8749 43.5599 46.6059 40.6488 43.4559 38.663C39.7503 36.3495 38.3032 40.0378 38.3032 40.0378Z" fill="#E4E4E4"/>
<path d="M43.7429 44.8926C43.7429 44.8926 44.4926 44.1721 44.9722 44.4249C45.4517 44.6777 43.6502 46.6916 42.9807 46.3387L43.7429 44.8926Z" fill="#E4E4E4"/>
<path d="M37.7954 42.0488C37.7954 42.0488 37.8245 41.0066 37.3157 40.8313C36.8026 40.6422 36.5148 43.3378 37.2322 43.5998L37.7954 42.0488Z" fill="#E4E4E4"/>
<path d="M38.0408 40.6894C38.0408 40.6894 35.9184 45.6371 36.3307 47.9695C36.3668 48.1861 36.4955 48.3586 36.6669 48.4722C37.3082 48.8567 38.9574 49.8074 40.0177 50.0989C40.2817 50.1684 40.5766 50.0914 40.7832 49.8749C41.1586 49.4917 41.4722 49.2038 41.5676 49.0448C41.9921 48.3272 43.2288 46.3759 44.9128 43.7074C44.9022 43.5739 44.8874 43.4266 44.8768 43.2932C44.4731 43.9056 41.9268 47.7931 41.2498 47.5641C41.1045 47.5107 40.9741 47.4071 40.9741 47.4071C40.6325 47.1341 40.6821 46.7767 40.5252 46.4383C40.2411 45.8586 39.4295 45.5122 38.7992 45.6332C38.5416 45.6833 38.3233 45.8123 37.9347 45.7818C37.6877 45.7678 37.4791 45.6811 37.4248 45.6525C36.982 45.3959 37.4789 43.3566 38.5103 40.7857L38.0408 40.6894Z" fill="#A3A7B6"/>
<path d="M44.2415 41.5996C44.2415 41.5996 40.663 42.4444 37.9898 41.0237C37.9898 41.0237 38.2819 36.7847 41.5696 37.7855C44.8572 38.7863 44.5685 39.5754 44.5685 39.5754C44.5685 39.5754 48.4443 40.6887 44.6733 44.0702L44.2415 41.5996Z" fill="#A3A7B6"/>
<path d="M25.3057 57.186L27.9385 58.5737L34.8913 48.4321C31.2674 46.9287 26.3557 47.4078 26.3557 47.4078L25.5752 55.4685C25.5159 56.0416 25.4198 56.6185 25.3057 57.186Z" fill="#A3A7B6"/>
<path d="M40.2785 65.0786C40.7492 64.5364 41.2322 64.0589 41.7471 63.5865L46.5941 58.076C44.8144 54.1046 40.375 51.0557 40.375 51.0557L36.3429 63.0041L40.2785 65.0786Z" fill="#A3A7B6"/>
<rect x="41.6699" y="13.623" width="28.9395" height="14.1168" transform="rotate(27.7942 41.6699 13.623)" fill="#6E6E79"/>
<circle cx="50.8677" cy="26.4492" r="4.44089" transform="rotate(27.7942 50.8677 26.4492)" stroke="#EDE8DE" stroke-linecap="round" stroke-dasharray="0.2 3"/>
</svg>
