<svg width="64" height="64" viewBox="0 0 64 64" fill="none" xmlns="http://www.w3.org/2000/svg">
<circle opacity="0.2" cx="32" cy="32" r="32" fill="#61BBD6"/>
<path d="M41.3281 47H21.6719C16.8902 47 13 43.1262 13 38.3648V26.6352C13 21.8738 16.8902 18 21.6719 18H41.3281C46.1098 18 50 21.8738 50 26.6352V38.3648C50 43.1262 46.1098 47 41.3281 47ZM21.6719 20.8784C18.4841 20.8784 15.8906 23.4609 15.8906 26.6352V38.3648C15.8906 41.5391 18.4841 44.1216 21.6719 44.1216H41.3281C44.5159 44.1216 47.1094 41.5391 47.1094 38.3648V26.6352C47.1094 23.4609 44.5159 20.8784 41.3281 20.8784H21.6719ZM24.7793 32.6079C22.3486 32.6079 20.3711 30.6388 20.3711 28.2184C20.3711 25.7979 22.3486 23.8288 24.7793 23.8288C27.21 23.8288 29.1875 25.7979 29.1875 28.2184C29.1875 30.6388 27.21 32.6079 24.7793 32.6079ZM24.7793 26.7072C23.9425 26.7072 23.2617 27.3851 23.2617 28.2184C23.2617 29.0517 23.9425 29.7295 24.7793 29.7295C25.6161 29.7295 26.2969 29.0517 26.2969 28.2184C26.2969 27.3851 25.6161 26.7072 24.7793 26.7072ZM44.291 25.34C44.291 24.5451 43.6439 23.9007 42.8457 23.9007H33.0898C32.2916 23.9007 31.6445 24.5451 31.6445 25.34C31.6445 26.1348 32.2916 26.7792 33.0898 26.7792H42.8457C43.6439 26.7792 44.291 26.1348 44.291 25.34ZM44.291 31.1687C44.291 30.3739 43.6439 29.7295 42.8457 29.7295H33.0898C32.2916 29.7295 31.6445 30.3739 31.6445 31.1687C31.6445 31.9636 32.2916 32.6079 33.0898 32.6079H42.8457C43.6439 32.6079 44.291 31.9636 44.291 31.1687ZM44.291 39.732C44.291 38.9371 43.6439 38.2928 42.8457 38.2928H35.6914C34.8932 38.2928 34.2461 38.9371 34.2461 39.732C34.2461 40.5269 34.8932 41.1712 35.6914 41.1712H42.8457C43.6439 41.1712 44.291 40.5269 44.291 39.732ZM30.9941 39.804C30.9941 38.2806 30.3944 36.8602 29.3054 35.8046C28.232 34.7641 26.8008 34.1911 25.2754 34.1911H24.484C21.3267 34.1911 18.8534 36.6566 18.8534 39.804C18.8534 40.5988 19.5005 41.2432 20.2988 41.2432C21.097 41.2432 21.7441 40.5988 21.7441 39.804C21.7441 38.245 22.922 37.0695 24.484 37.0695H25.2754C26.8613 37.0695 28.1035 38.2706 28.1035 39.804C28.1035 40.5988 28.7506 41.2432 29.5488 41.2432C30.3471 41.2432 30.9941 40.5988 30.9941 39.804Z" fill="#444B8C"/>
</svg>
