<svg width="136" height="73" viewBox="0 0 136 73" fill="none" xmlns="http://www.w3.org/2000/svg">
<path d="M140.711 61.7162L111.204 114.811L106.635 123.018C106.064 124.101 104.76 124.538 103.745 124.003L3.62178 71.2271C2.60691 70.6922 2.23026 69.3693 2.80106 68.2864L7.0692 59.9201L34.334 6.46534C34.9048 5.38245 37.2248 3.90268 39.3328 5.20844L138.615 54.082C139.918 54.7252 140.878 55.9017 141.273 57.3426C141.653 58.7751 141.449 60.354 140.711 61.7162Z" fill="#FFDDDA"/>
<path opacity="0.26" d="M104.598 119.82C104.064 120.832 102.838 121.243 101.874 120.735L6.80907 70.6249C5.84499 70.1167 5.49068 68.8732 6.02445 67.8605L35.3568 10.2975C35.8905 9.2849 38.0693 7.91007 40.0755 9.16163L134.316 55.6236C135.551 56.2313 136.463 57.3372 136.844 58.6816C137.226 60.026 137.051 61.5079 136.352 62.7571L104.598 119.82Z" fill="#FF9085"/>
<path d="M115.749 58.9037C115.217 59.8319 114.32 60.352 113.732 60.042L78.5715 41.7676C77.8993 41.4133 77.8147 40.311 78.34 39.3144C78.8653 38.3177 79.8651 37.7654 80.5204 38.1109L115.658 56.6323C116.22 56.9504 116.281 57.9754 115.749 58.9037Z" fill="#8097EC"/>
<path d="M93.6614 101.159C93.1519 101.954 91.7828 102.069 90.5819 101.436L17.8386 63.3008C16.461 62.5747 15.7187 61.3285 16.1889 60.4365C16.6512 59.5594 18.142 59.4713 19.5196 60.1974L92.3532 98.5889C93.5189 99.2033 94.1356 100.345 93.6614 101.159Z" fill="#8097EC"/>
<path d="M98.1267 91.4332C97.5945 92.3614 96.7243 92.8309 96.1272 92.5378L61.3118 74.4236C60.6565 74.0782 60.5194 73.0346 61.0616 72.0468C61.5869 71.0502 62.5342 70.5566 63.2064 70.9109L97.991 89.2463C98.5624 89.5475 98.6421 90.4961 98.1267 91.4332Z" fill="#8097EC"/>
<path d="M111.935 66.1326C111.483 66.9088 110.287 67.099 109.245 66.5498L75.6536 49.2102C74.5356 48.6425 73.9922 47.5142 74.4364 46.7123L74.4809 46.6278C74.9083 45.817 76.163 45.6365 77.281 46.2042L110.895 63.6638C111.937 64.2129 112.431 65.272 111.996 66.057L111.935 66.1326Z" fill="#8097EC"/>
<path d="M108.071 73.1397C107.628 73.899 106.433 74.0892 105.391 73.54L71.9009 56.2109C70.8086 55.6352 70.2563 54.5238 70.6916 53.7387L70.7362 53.6543C71.1804 52.8523 72.435 52.6718 73.5273 53.2476L107.023 70.6877C108.065 71.2369 108.559 72.2959 108.116 73.0553L108.071 73.1397Z" fill="#8097EC"/>
<path d="M118.307 66.8828L129.068 72.6198L118.307 66.8828Z" fill="#F3F6F9"/>
<path d="M115.687 71.89L126.493 77.5431L115.687 71.89Z" fill="#F3F6F9"/>
<path d="M45.5286 67.5215L19.991 54.0603C19.8025 53.9609 19.7194 53.7421 19.8071 53.5757L32.6526 29.2062C32.7403 29.0398 32.9677 28.9847 33.1563 29.084L58.6938 42.5452C58.8824 42.6446 58.9654 42.8634 58.8777 43.0298L46.0322 67.3993C45.9445 67.5656 45.7171 67.6208 45.5286 67.5215Z" fill="white"/>
<path d="M45.1551 66.4878C46.4879 62.4022 46.5804 58.0813 46.5804 58.0813L40.2325 64.7066C40.2325 64.7066 40.2208 64.8166 40.1834 65.041L43.9158 66.9967C44.4001 67.2404 44.9873 67.0037 45.1551 66.4878Z" fill="url(#paint0_linear)"/>
<path d="M25.3154 57.1922C26.0247 56.4387 26.5119 55.975 26.5119 55.975L26.3563 47.4092C26.3563 47.4092 25.0014 47.9618 21.0946 53.2241C20.6121 53.8762 20.7917 54.8077 21.5155 55.1892L25.3154 57.1922Z" fill="url(#paint1_linear)"/>
<path d="M37.9105 63.8294L42.4235 52.855C38.8579 48.8721 32.3025 47.7758 32.3025 47.7758L26.4383 57.7823L37.9105 63.8294Z" fill="url(#paint2_linear)"/>
<path d="M37.0477 45.8154L35.5137 48.5282C35.3608 48.7962 35.4033 49.1324 35.6087 49.3569C36.1849 49.9744 37.4312 51.1194 39.0701 51.3441C39.4033 51.3919 39.7147 51.1958 39.8277 50.8719L40.8976 47.8331L37.0525 45.8063L37.0477 45.8154Z" fill="url(#paint3_linear)"/>
<path d="M38.3032 40.0378C38.3032 40.0378 36.1797 45.229 36.5767 47.042C36.5767 47.042 39.5989 49.007 41.1165 48.9353C41.1165 48.9353 43.2299 46.8998 44.8749 43.5599C44.8749 43.5599 46.6059 40.6488 43.4559 38.663C39.7503 36.3495 38.3032 40.0378 38.3032 40.0378Z" fill="url(#paint4_linear)"/>
<path d="M43.7429 44.8931C43.7429 44.8931 44.4926 44.1726 44.9722 44.4254C45.4517 44.6781 43.6502 46.6921 42.9807 46.3392L43.7429 44.8931Z" fill="url(#paint5_linear)"/>
<path d="M37.7954 42.0493C37.7954 42.0493 37.8245 41.0071 37.3157 40.8318C36.8026 40.6427 36.5148 43.3383 37.2322 43.6002L37.7954 42.0493Z" fill="url(#paint6_linear)"/>
<path d="M38.0408 40.6894C38.0408 40.6894 35.9184 45.6371 36.3307 47.9695C36.3668 48.1861 36.4955 48.3586 36.6669 48.4722C37.3082 48.8567 38.9574 49.8074 40.0177 50.0989C40.2817 50.1684 40.5766 50.0914 40.7832 49.8749C41.1586 49.4917 41.4722 49.2038 41.5676 49.0448C41.9921 48.3272 43.2288 46.3759 44.9128 43.7074C44.9022 43.5739 44.8874 43.4266 44.8768 43.2932C44.4731 43.9056 41.9268 47.7931 41.2498 47.5641C41.1045 47.5107 40.9741 47.4071 40.9741 47.4071C40.6325 47.1341 40.6821 46.7767 40.5252 46.4383C40.2411 45.8586 39.4295 45.5122 38.7992 45.6332C38.5416 45.6833 38.3233 45.8123 37.9347 45.7818C37.6877 45.7678 37.4791 45.6811 37.4248 45.6525C36.982 45.3959 37.4789 43.3566 38.5103 40.7857L38.0408 40.6894Z" fill="url(#paint7_linear)"/>
<path d="M44.2415 41.6C44.2415 41.6 40.663 42.4449 37.9898 41.0242C37.9898 41.0242 38.2819 36.7852 41.5696 37.786C44.8572 38.7868 44.5685 39.5759 44.5685 39.5759C44.5685 39.5759 48.4443 40.6892 44.6733 44.0707L44.2415 41.6Z" fill="url(#paint8_linear)"/>
<path d="M25.3057 57.1869L27.9385 58.5747L34.8913 48.4331C31.2674 46.9297 26.3557 47.4088 26.3557 47.4088L25.5752 55.4695C25.5159 56.0426 25.4198 56.6195 25.3057 57.1869Z" fill="url(#paint9_linear)"/>
<path d="M40.2785 65.0791C40.7492 64.5369 41.2322 64.0593 41.7471 63.587L46.5941 58.0765C44.8144 54.1051 40.375 51.0562 40.375 51.0562L36.3429 63.0045L40.2785 65.0791Z" fill="url(#paint10_linear)"/>
<rect x="41.6699" y="13.6226" width="28.9395" height="14.1168" transform="rotate(27.7942 41.6699 13.6226)" fill="#0F127B"/>
<circle cx="50.8677" cy="26.4492" r="4.44089" transform="rotate(27.7942 50.8677 26.4492)" stroke="#FFC244" stroke-linecap="round" stroke-dasharray="0.2 3"/>
<defs>
<linearGradient id="paint0_linear" x1="45.2733" y1="53.0552" x2="42.8541" y2="65.4714" gradientUnits="userSpaceOnUse">
<stop stop-color="#040559"/>
<stop offset="1" stop-color="#14188A"/>
</linearGradient>
<linearGradient id="paint1_linear" x1="25.261" y1="46.8486" x2="22.8058" y2="59.4496" gradientUnits="userSpaceOnUse">
<stop stop-color="#040559"/>
<stop offset="1" stop-color="#14188A"/>
</linearGradient>
<linearGradient id="paint2_linear" x1="90.7764" y1="5.78011" x2="80.5951" y2="14.8662" gradientUnits="userSpaceOnUse">
<stop stop-color="#F09690"/>
<stop offset="1" stop-color="#EC7869"/>
</linearGradient>
<linearGradient id="paint3_linear" x1="38.0768" y1="48.8051" x2="34.2504" y2="57.2546" gradientUnits="userSpaceOnUse">
<stop stop-color="#F3BDBB"/>
<stop offset="1" stop-color="#F09690"/>
</linearGradient>
<linearGradient id="paint4_linear" x1="40.5697" y1="41.7591" x2="42.6322" y2="54.4935" gradientUnits="userSpaceOnUse">
<stop stop-color="#F3BDBB"/>
<stop offset="1" stop-color="#F09690"/>
</linearGradient>
<linearGradient id="paint5_linear" x1="43.3656" y1="41.306" x2="45.4282" y2="54.0404" gradientUnits="userSpaceOnUse">
<stop stop-color="#F3BDBB"/>
<stop offset="1" stop-color="#F09690"/>
</linearGradient>
<linearGradient id="paint6_linear" x1="37.3151" y1="42.2858" x2="39.3777" y2="55.0202" gradientUnits="userSpaceOnUse">
<stop stop-color="#F3BDBB"/>
<stop offset="1" stop-color="#F09690"/>
</linearGradient>
<linearGradient id="paint7_linear" x1="36.4842" y1="43.6392" x2="43.1061" y2="47.1297" gradientUnits="userSpaceOnUse">
<stop stop-color="#040559"/>
<stop offset="1" stop-color="#14188A"/>
</linearGradient>
<linearGradient id="paint8_linear" x1="38.5354" y1="47.8822" x2="45.0394" y2="35.5432" gradientUnits="userSpaceOnUse">
<stop stop-color="#040559"/>
<stop offset="1" stop-color="#14188A"/>
</linearGradient>
<linearGradient id="paint9_linear" x1="30.7232" y1="47.3799" x2="28.1151" y2="60.7662" gradientUnits="userSpaceOnUse">
<stop stop-color="#040559"/>
<stop offset="1" stop-color="#14188A"/>
</linearGradient>
<linearGradient id="paint10_linear" x1="43.5315" y1="50.0854" x2="40.6774" y2="64.7334" gradientUnits="userSpaceOnUse">
<stop stop-color="#040559"/>
<stop offset="1" stop-color="#14188A"/>
</linearGradient>
</defs>
</svg>
