<svg width="78" height="97" viewBox="0 0 78 97" fill="none" xmlns="http://www.w3.org/2000/svg">
<path d="M78 46.1287C78.0046 45.0182 77.5579 44.654 76.6736 44.3309C75.06 43.7438 72.1929 42.8244 70.5474 42.3647C69.2529 42.0006 69.2665 41.3998 69.2984 40.0844L69.303 39.7704C69.3714 35.9972 69.4078 31.9556 69.2027 27.9731C68.5053 14.4235 57.1827 2.27116 43.4261 0.304946C42.0085 0.100131 40.5635 0 39.1277 0H38.8724C37.4366 0 35.9916 0.100131 34.574 0.304946C20.8174 2.27116 9.49478 14.4235 8.79737 27.9731C8.59225 31.9556 8.62872 35.9972 8.69709 39.7704L8.70165 40.0844C8.73356 41.3998 8.74723 42.0006 7.4527 42.3647C5.80719 42.8244 2.94008 43.7438 1.32647 44.3309C0.44218 44.654 -0.00452367 45.0182 3.45336e-05 46.1287C0.0456166 58.9637 0.0456166 72.6635 0.00459274 89.2444C3.45335e-05 90.273 0.246178 90.6371 1.1487 90.9375C9.86399 93.8459 19.2265 95.7028 29.7697 96.6086C32.7826 96.868 35.8731 97 38.9681 97H39.0319C42.127 97 45.2174 96.868 48.2304 96.6086C58.7735 95.7028 68.1361 93.8459 76.8514 90.9375C77.7539 90.6371 78 90.273 77.9955 89.2444C77.9545 72.6635 77.9545 58.9637 78 46.1287ZM20.3479 13.2492C25.6718 7.73287 31.7798 4.9383 38.5032 4.9383C38.6673 4.9383 38.8359 4.9383 39 4.9474C39.1641 4.9383 39.3328 4.9383 39.4969 4.9383C46.2202 4.9383 52.3282 7.73287 57.6522 13.2492C65.155 21.0185 64.6536 30.9087 64.1704 40.4758L64.1431 40.9537L55.8745 39.4882V39.1832C55.8745 38.0863 55.8973 36.9985 55.9155 35.9199C55.9566 33.5486 55.9976 31.3093 55.8426 29.0427C55.168 19.2434 46.7672 13.3721 39 13.3357C31.2329 13.3721 22.8321 19.2434 22.1575 29.0427C22.0025 31.3093 22.0435 33.5486 22.0845 35.9199C22.1028 36.9985 22.1256 38.0863 22.1256 39.1832V39.4882L13.857 40.9537L13.8296 40.4758C13.3465 30.9087 12.8451 21.0185 20.3479 13.2492ZM27.0211 35.9153C26.9481 32.3015 26.8752 28.5648 28.1834 25.3014C30.0568 21.1869 34.5056 18.3104 39 18.3058C43.4944 18.3104 47.9432 21.1869 49.8167 25.3014C51.1249 28.5648 51.0519 32.3015 50.979 35.9153C50.9608 36.7118 50.9471 37.4992 50.9471 38.2638V38.6644L50.546 38.628C46.5986 38.2547 42.8563 38.0727 39.1049 38.0727H38.8952C35.1438 38.0727 31.4015 38.2547 27.4541 38.628L27.053 38.6644V38.2638C27.053 37.4992 27.0393 36.7118 27.0211 35.9153ZM72.9997 48.7185C72.9951 48.9642 72.9541 73.6284 72.9997 85.5031C73.0042 86.9459 72.0881 87.2053 71.2812 87.4329C60.6698 90.4277 51.1568 91.8842 39.0319 91.8842C26.9071 91.8842 17.3303 90.4277 6.71883 87.4329C5.91203 87.2053 4.99583 86.9459 5.00039 85.5031C5.04597 73.6284 5.00494 48.9642 5.00039 48.7185V48.4499L5.2602 48.368C12.0702 46.2516 19.4955 44.7769 27.3265 43.9759C31.1964 43.5799 35.121 43.3796 39 43.3796C42.8791 43.3796 46.8037 43.5799 50.6736 43.9759C58.5046 44.7769 65.9299 46.2516 72.7399 48.368L72.9997 48.4499V48.7185Z" fill="currentColor"/>
<path d="M36.598 79.131V72.7363C36.598 71.8806 36.1149 71.0932 35.3673 70.72C32.3133 69.2043 30.5311 66.0275 30.8182 62.6275C31.1464 58.7315 34.205 55.5956 38.0931 55.1677C38.4077 55.1313 38.7222 55.1177 39.0367 55.1177C43.5812 55.1177 47.2779 58.8089 47.2779 63.3467C47.2779 66.4826 45.5367 69.3045 42.7334 70.7109C41.9539 71.1023 41.4662 71.8806 41.4662 72.7454V79.1401H36.598V79.131ZM39.0321 60.188C37.2863 60.188 35.8687 61.6035 35.8687 63.3421C35.8687 65.0853 37.2863 66.5008 39.0321 66.5008C40.7779 66.5008 42.1955 65.0853 42.1955 63.3421C42.1955 61.6035 40.7779 60.188 39.0321 60.188Z" fill="currentColor"/>
</svg>
