<svg width="19" height="19" viewBox="0 0 19 19" fill="none" xmlns="http://www.w3.org/2000/svg">
<path d="M11.875 10.2916C11.4372 10.2916 11.0834 10.6463 11.0834 11.0832V14.25C11.0834 14.6862 10.7287 15.0416 10.2916 15.0416H7.91662V3.16662C7.91662 2.49053 7.48595 1.88649 6.83842 1.66166L6.60402 1.58324H10.2916C10.7287 1.58324 11.0834 1.93867 11.0834 2.375V4.75C11.0834 5.1869 11.4372 5.54162 11.875 5.54162C12.3128 5.54162 12.6666 5.1869 12.6666 4.75V2.375C12.6666 1.06559 11.601 0 10.2916 0H1.78125C1.7511 0 1.72588 0.0134812 1.69659 0.017395C1.65847 0.0142059 1.62209 0 1.58338 0C0.710152 0 0 0.710007 0 1.58324V15.8332C0 16.5093 0.430672 17.1134 1.0782 17.3382L5.84255 18.9264C6.00403 18.9762 6.16465 19 6.33338 19C7.20661 19 7.91662 18.2898 7.91662 17.4166V16.625H10.2916C11.601 16.625 12.6666 15.5594 12.6666 14.25V11.0832C12.6666 10.6463 12.3128 10.2916 11.875 10.2916Z" fill="currentColor"/>
<path d="M18.768 7.35717L15.6012 4.19055C15.3749 3.96412 15.0344 3.89599 14.7384 4.01863C14.4431 4.14141 14.2499 4.43031 14.2499 4.75023V7.12523H11.0833C10.6462 7.12523 10.2915 7.4798 10.2915 7.91685C10.2915 8.3539 10.6462 8.70847 11.0833 8.70847H14.2499V11.0835C14.2499 11.4034 14.4431 11.6923 14.7384 11.8151C15.0344 11.9377 15.3749 11.8696 15.6012 11.6433L18.768 8.47654C19.0774 8.16705 19.0774 7.66665 18.768 7.35717Z" fill="currentColor"/>
</svg>
