<svg width="120" height="36" xmlns="http://www.w3.org/2000/svg" viewBox="0 0 544.83 105.33"><defs><style>.cls-1{fill:#2e5bd8;}.cls-2{fill:#172d63;}</style></defs><g id="Layer_2" data-name="Layer 2"><g id="Layer_1-2" data-name="Layer 1"><path class="cls-1" d="M168.18,60.06c-16,8-42.68,4.2-64,7-32.31,4.22-42.72,38.28-42.72,38.28H32.38C43,82.42,64.83,70.94,65.48,70.46,47.57,76.61,31.13,92.84,24.1,105.33H0c14-29,44.56-44,64.58-48.93,28.82-7.14,73.74-3.81,84.13-5.15,8.53-1.09,21.79-2,21.79-21,0-19.34-23.81-19.77-23.81-19.77H35.78a3,3,0,0,1-2.43-4.8l3-4.11A3,3,0,0,1,38.81.31L149.29,0l9.13.1C190,2,191.66,48.31,168.18,60.06Z"/><path class="cls-2" d="M85.44,47.79a1,1,0,0,1-1-1.44c6.5-13.88,20.78-23.87,36.22-23.87,13.53,0,25.67,7.63,32.93,18.89a2,2,0,0,1-1.44,3.06c-.84.12-1.71.22-2.6.33-.71.08-1.41.16-2.11.26-1.61.21-4.56.32-7.51.39a2,2,0,0,1-1.67-.77c-3.8-4.94-11-8-17.6-8a23.61,23.61,0,0,0-18.37,9.19,2.08,2.08,0,0,1-1.49.81C95.6,46.9,90.15,47.3,85.44,47.79Z"/><path class="cls-2" d="M151,82.61a2,2,0,0,1,.24,2.65c-7.11,10.07-17.38,15.08-30.58,15.08A39.92,39.92,0,0,1,88,83.26a2,2,0,0,1,.33-2.71A39.22,39.22,0,0,1,98,74.78a2,2,0,0,1,2.4.58c4.86,6.2,12.4,10.88,20.24,10.88,8.69,0,15.77-3.07,20.34-10a2,2,0,0,1,3-.31Z"/><path class="cls-2" d="M245.08,97.86a10,10,0,0,1-2.74,1.46,9.55,9.55,0,0,1-3.13.49,8.11,8.11,0,0,1-3.19-.63,7.7,7.7,0,0,1-2.58-1.73,8.43,8.43,0,0,1-1.73-9,8.38,8.38,0,0,1,1.65-2.58,7.6,7.6,0,0,1,2.47-1.73,7.41,7.41,0,0,1,3-.63,6.93,6.93,0,0,1,2.94.63,7.25,7.25,0,0,1,2.36,1.73,8.38,8.38,0,0,1,1.57,2.58,8.5,8.5,0,0,1,.58,3.17v.72H233.39a6,6,0,0,0,1.92,3.87,5.7,5.7,0,0,0,4,1.54,7.71,7.71,0,0,0,2.39-.38,5.38,5.38,0,0,0,1.95-1.07ZM238.8,85.57A5.07,5.07,0,0,0,235.26,87a5.82,5.82,0,0,0-1.8,3.55H244A6,6,0,0,0,242.21,87,4.73,4.73,0,0,0,238.8,85.57Z"/><path class="cls-2" d="M261.05,97.64a9.74,9.74,0,0,0,3.89-.8,8.62,8.62,0,0,0,3.12-2.22l1.57,1.64a11.53,11.53,0,0,1-3.9,2.65,12,12,0,0,1-4.74,1,11.33,11.33,0,0,1-4.48-.88,11.21,11.21,0,0,1-3.63-2.4A11,11,0,0,1,250.46,93a11.69,11.69,0,0,1,0-8.9,10.86,10.86,0,0,1,2.42-3.61,11.24,11.24,0,0,1,3.63-2.41,11.51,11.51,0,0,1,4.48-.88,12.31,12.31,0,0,1,4.82,1,11.32,11.32,0,0,1,3.88,2.66l-1.6,1.69a9,9,0,0,0-3.19-2.26,9.89,9.89,0,0,0-3.91-.81,8.91,8.91,0,0,0-3.54.7A8.69,8.69,0,0,0,254.61,82a8.83,8.83,0,0,0-1.89,2.89,9.74,9.74,0,0,0,0,7.2,8.86,8.86,0,0,0,1.9,2.89,9.13,9.13,0,0,0,2.86,1.91A8.82,8.82,0,0,0,261.05,97.64Z"/><path class="cls-2" d="M275.82,77V99.53h-2.33v-22Z"/><path class="cls-2" d="M285.37,99.81a6.39,6.39,0,0,1-4.19-1.32,4.46,4.46,0,0,1,.07-6.93,7.36,7.36,0,0,1,4.59-1.3,10.38,10.38,0,0,1,2.44.28,10.61,10.61,0,0,1,2.18.78V89.25a3.62,3.62,0,0,0-1.07-2.84,4.51,4.51,0,0,0-3.11-1,8.69,8.69,0,0,0-2.34.33,14.08,14.08,0,0,0-2.59,1L280.47,85a17.8,17.8,0,0,1,3.14-1.19,11,11,0,0,1,2.89-.38,6.81,6.81,0,0,1,4.61,1.41,5.14,5.14,0,0,1,1.61,4.06V99.53h-2.26V98a7.28,7.28,0,0,1-2.34,1.36A8,8,0,0,1,285.37,99.81ZM281.79,95a2.56,2.56,0,0,0,1.11,2.15,4.69,4.69,0,0,0,2.88.84,7.35,7.35,0,0,0,2.58-.44,6.06,6.06,0,0,0,2.1-1.39v-3a6.94,6.94,0,0,0-2.09-1,9.44,9.44,0,0,0-2.47-.3,4.9,4.9,0,0,0-3,.84A2.62,2.62,0,0,0,281.79,95Z"/><path class="cls-2" d="M298.41,80.77a1.57,1.57,0,0,1-1.1-2.69,1.57,1.57,0,0,1,2.22,0,1.58,1.58,0,0,1,0,2.21A1.5,1.5,0,0,1,298.41,80.77Zm1.16,3V99.53h-2.32V83.78Z"/><path class="cls-2" d="M304.16,99.53V83.78h2.33v1.73a5.69,5.69,0,0,1,2-1.52,6.16,6.16,0,0,1,2.58-.52,5.65,5.65,0,0,1,2.93.77,5.36,5.36,0,0,1,2,2.09,6.37,6.37,0,0,1,2.34-2.15,6.49,6.49,0,0,1,3.07-.71,5.47,5.47,0,0,1,4.16,1.7,6.09,6.09,0,0,1,1.62,4.39v10H325V90a4.74,4.74,0,0,0-1.09-3.3,3.82,3.82,0,0,0-3-1.23,4.4,4.4,0,0,0-2.36.66,5.53,5.53,0,0,0-1.82,1.92c0,.23.08.46.11.7a6.36,6.36,0,0,1,.05.77v10h-2.3V90a4.7,4.7,0,0,0-1.1-3.3,3.75,3.75,0,0,0-2.95-1.23,4.6,4.6,0,0,0-2.28.58,5,5,0,0,0-1.74,1.72V99.53Z"/><path class="cls-2" d="M330.18,97.36l1.42-1.51a7.88,7.88,0,0,0,2.4,1.56,7.22,7.22,0,0,0,2.72.55,5.56,5.56,0,0,0,3.08-.79,2.36,2.36,0,0,0,1.19-2,1.93,1.93,0,0,0-.71-1.59,4.53,4.53,0,0,0-2.21-.8l-2.73-.38a6.44,6.44,0,0,1-3.51-1.4,3.68,3.68,0,0,1-1.15-2.84,4,4,0,0,1,1.67-3.28,6.66,6.66,0,0,1,4.24-1.31,9.94,9.94,0,0,1,6.19,2.08l-1.22,1.57A11.58,11.58,0,0,0,339,85.86a7.41,7.41,0,0,0-2.53-.44,4.47,4.47,0,0,0-2.63.72,2.21,2.21,0,0,0-1,1.88,1.88,1.88,0,0,0,.69,1.56,4.72,4.72,0,0,0,2.23.77l2.74.38a6.28,6.28,0,0,1,3.53,1.4A3.7,3.7,0,0,1,343.19,95a3.84,3.84,0,0,1-.49,1.9,4.6,4.6,0,0,1-1.35,1.54,6.6,6.6,0,0,1-2,1,8.53,8.53,0,0,1-2.52.36,10.51,10.51,0,0,1-3.66-.64A9.11,9.11,0,0,1,330.18,97.36Z"/><path class="cls-2" d="M352.18,95.76l1.6-1.67a12.51,12.51,0,0,0,3.63,2.72,9.29,9.29,0,0,0,4.07.93,6.94,6.94,0,0,0,4.24-1.23,3.72,3.72,0,0,0,1.67-3.11,3.1,3.1,0,0,0-1.18-2.61,8.78,8.78,0,0,0-3.88-1.35l-3.18-.5a9.08,9.08,0,0,1-4.68-1.87,4.77,4.77,0,0,1-1.51-3.7,5.42,5.42,0,0,1,2.14-4.43,8.74,8.74,0,0,1,5.59-1.69,14.43,14.43,0,0,1,4.56.75,14.13,14.13,0,0,1,4.12,2.17L368,82.05a14.5,14.5,0,0,0-3.65-2,10.66,10.66,0,0,0-3.74-.69,6.29,6.29,0,0,0-3.82,1.08,3.34,3.34,0,0,0-1.46,2.79,2.82,2.82,0,0,0,1,2.35,7.47,7.47,0,0,0,3.42,1.2l3.15.5a10.65,10.65,0,0,1,5.23,2,5,5,0,0,1,1.65,4,5.79,5.79,0,0,1-.62,2.66A5.9,5.9,0,0,1,367.47,98a8.38,8.38,0,0,1-2.67,1.35,11.24,11.24,0,0,1-3.41.49,12.45,12.45,0,0,1-5-1A12.14,12.14,0,0,1,352.18,95.76Z"/><path class="cls-2" d="M372.89,91.64a8.28,8.28,0,0,1,.63-3.21,8,8,0,0,1,1.71-2.6,7.72,7.72,0,0,1,2.56-1.73,8,8,0,0,1,8.81,1.73,8,8,0,0,1,1.72,2.6,8.7,8.7,0,0,1,0,6.45,8,8,0,0,1-1.72,2.6,8,8,0,0,1-8.81,1.73,7.72,7.72,0,0,1-2.56-1.73,8,8,0,0,1-1.71-2.6A8.35,8.35,0,0,1,372.89,91.64Zm8,6.13A5.47,5.47,0,0,0,385,96,6.06,6.06,0,0,0,386.21,94a6.77,6.77,0,0,0,0-4.8A6,6,0,0,0,385,87.3,5.79,5.79,0,0,0,383.18,86a5.5,5.5,0,0,0-2.25-.47,5.57,5.57,0,0,0-2.25.47,5.9,5.9,0,0,0-1.82,1.29,6.21,6.21,0,0,0-1.22,1.94,6.15,6.15,0,0,0-.46,2.4,6.52,6.52,0,0,0,.44,2.4A6.06,6.06,0,0,0,376.83,96a5.52,5.52,0,0,0,1.84,1.31A5.61,5.61,0,0,0,380.93,97.77Z"/><path class="cls-2" d="M395.14,77V99.53h-2.33v-22Z"/><path class="cls-2" d="M402,83.78v9.49a4.49,4.49,0,0,0,1.2,3.3,4.24,4.24,0,0,0,3.2,1.23,4.94,4.94,0,0,0,2.53-.65,4.88,4.88,0,0,0,1.81-1.8V83.78H413V99.53h-2.33V97.7a5.88,5.88,0,0,1-2.15,1.61,7.1,7.1,0,0,1-2.78.53,5.83,5.83,0,0,1-6.1-6.1v-10Z"/><path class="cls-2" d="M419.55,96V85.76h-3.39v-2h3.39v-4l2.3-.6v4.59h4.74v2h-4.74v9.65a2.44,2.44,0,0,0,.56,1.81,2.65,2.65,0,0,0,1.86.55,5.87,5.87,0,0,0,1.17-.1,6.13,6.13,0,0,0,1.12-.31v2a6.27,6.27,0,0,1-1.34.32,11.81,11.81,0,0,1-1.43.09,4.63,4.63,0,0,1-3.14-1A3.6,3.6,0,0,1,419.55,96Z"/><path class="cls-2" d="M430.86,80.77a1.57,1.57,0,0,1-1.1-2.69,1.56,1.56,0,0,1,1.1-.46A1.56,1.56,0,0,1,432,80.29,1.48,1.48,0,0,1,430.86,80.77Zm1.17,3V99.53H429.7V83.78Z"/><path class="cls-2" d="M435.89,91.64a8.28,8.28,0,0,1,.63-3.21,8.16,8.16,0,0,1,1.71-2.6,8,8,0,0,1,5.71-2.36,7.94,7.94,0,0,1,5.67,2.36,8.16,8.16,0,0,1,1.71,2.6,8.57,8.57,0,0,1,0,6.45,8.16,8.16,0,0,1-1.71,2.6,7.94,7.94,0,0,1-5.67,2.36,8,8,0,0,1-5.71-2.36,8.16,8.16,0,0,1-1.71-2.6A8.35,8.35,0,0,1,435.89,91.64Zm8.05,6.13a5.48,5.48,0,0,0,2.24-.47A5.58,5.58,0,0,0,448,96,6.23,6.23,0,0,0,449.22,94a6.77,6.77,0,0,0,0-4.8A6.19,6.19,0,0,0,448,87.3,5.83,5.83,0,0,0,446.18,86a5.6,5.6,0,0,0-4.49,0,5.79,5.79,0,0,0-1.82,1.29,6.23,6.23,0,0,0-1.23,1.94,6.69,6.69,0,0,0,0,4.8A5.89,5.89,0,0,0,439.84,96a5.48,5.48,0,0,0,1.83,1.31A5.66,5.66,0,0,0,443.94,97.77Z"/><path class="cls-2" d="M455.82,99.53V83.78h2.32v1.86A5.93,5.93,0,0,1,460.31,84a6.86,6.86,0,0,1,2.8-.55,5.82,5.82,0,0,1,6.06,6.09v10h-2.29V90a4.49,4.49,0,0,0-1.2-3.3,4.24,4.24,0,0,0-3.2-1.23,5,5,0,0,0-2.53.63,4.85,4.85,0,0,0-1.81,1.79v11.6Z"/><path class="cls-2" d="M472.09,97.36l1.42-1.51a7.88,7.88,0,0,0,2.4,1.56,7.22,7.22,0,0,0,2.72.55,5.54,5.54,0,0,0,3.08-.79,2.36,2.36,0,0,0,1.19-2,2,2,0,0,0-.7-1.59,4.58,4.58,0,0,0-2.22-.8l-2.73-.38a6.48,6.48,0,0,1-3.51-1.4,3.68,3.68,0,0,1-1.14-2.84,4,4,0,0,1,1.66-3.28,6.68,6.68,0,0,1,4.24-1.31,9.94,9.94,0,0,1,6.19,2.08l-1.22,1.57a11.58,11.58,0,0,0-2.56-1.32,7.37,7.37,0,0,0-2.53-.44,4.47,4.47,0,0,0-2.63.72,2.21,2.21,0,0,0-1,1.88,1.88,1.88,0,0,0,.69,1.56,4.73,4.73,0,0,0,2.24.77l2.73.38a6.28,6.28,0,0,1,3.53,1.4A3.7,3.7,0,0,1,485.1,95a3.94,3.94,0,0,1-.48,1.9,4.75,4.75,0,0,1-1.36,1.54,6.6,6.6,0,0,1-2,1,8.53,8.53,0,0,1-2.52.36,10.51,10.51,0,0,1-3.66-.64A9.11,9.11,0,0,1,472.09,97.36Z"/><path class="cls-2" d="M242.25,47.22V64.36h-11V6.1c9.07,0,18.39-.08,27.47-.08,28.63,0,28.71,41,0,41.2Zm0-10.07h16.49c14.06,0,14-20.65,0-20.65H242.25Z"/><path class="cls-2" d="M326.32,43.89c0,11.82-8.07,21.39-21.39,21.39s-21.31-9.57-21.31-21.39,8.16-21.39,21.23-21.39S326.32,32.15,326.32,43.89Zm-32.54,0c0,6.24,3.74,12.07,11.15,12.07s11.15-5.83,11.15-12.07-4.32-12.15-11.15-12.15C297.61,31.74,293.78,37.73,293.78,43.89Z"/><path class="cls-2" d="M344.22,23.33l.74,4.74c3.17-5.07,7.41-5.82,11.57-5.82a15.58,15.58,0,0,1,10.58,3.91L362.53,35a10.15,10.15,0,0,0-7.33-2.66c-5.32,0-10.24,2.83-10.24,10.4V64.36H334.81v-41Z"/><path class="cls-2" d="M398.32,34.23c-2.92-2.74-6.25-3.66-10.16-3.66-4.83,0-7.49,1.5-7.49,4.08s2.41,4.16,7.66,4.49c7.74.5,17.56,2.25,17.56,13.16,0,7.24-5.91,13.48-17.65,13.48-6.49,0-13-1.08-19-7.33l5-7.24c3.91,4.08,9.57,5.66,14.15,5.75,3.83.08,7.41-1.5,7.41-4.5,0-2.83-2.33-4.41-8.16-4.74-7.74-.59-17-3.41-17-12.74,0-9.49,9.82-12.82,17.31-12.82,6.41,0,11.24,1.25,16,5.41Z"/><path class="cls-2" d="M449.09,59.12a21.13,21.13,0,0,1-15.82,6.49c-11.9,0-21.8-7.16-21.8-21.72s9.9-21.73,21.8-21.73a19.49,19.49,0,0,1,14.82,6.08L441.68,35a12.47,12.47,0,0,0-8.24-3.24c-6.83,0-11.82,5-11.82,12.15,0,7.82,5.33,12,11.65,12a12.31,12.31,0,0,0,9-3.41Z"/><path class="cls-2" d="M465.32,6.1V28.91a15.14,15.14,0,0,1,12.82-6.16c11.65,0,16.81,7.9,16.81,20V64.36H484.8V42.81c0-7.49-3.92-10.66-9.33-10.66-6,0-10.15,5.08-10.15,11.24v21H455.16V6.1Z"/><path class="cls-2" d="M512.59,47.47c.67,5.08,5.08,8.74,12.24,8.74,3.75,0,8.66-1.42,11-3.83l6.49,6.41c-4.33,4.49-11.4,6.66-17.65,6.66-14.15,0-22.55-8.74-22.55-21.89,0-12.49,8.49-21.48,21.8-21.48,13.74,0,22.31,8.49,20.73,25.39Zm22.31-8.41c-.66-5.33-4.83-8-10.65-8-5.5,0-10,2.66-11.49,8Z"/></g></g></svg>
