<svg width="73" height="65" viewBox="0 0 73 65" fill="none" xmlns="http://www.w3.org/2000/svg">
<path d="M36.8874 65C35.7427 65 34.4707 64.872 33.3259 64.7441C25.9484 63.9764 19.0797 60.5217 13.8646 55.1476C10.8118 52.0768 8.52226 48.4941 6.86868 44.5276C5.5967 41.4567 4.83351 38.2579 4.57911 34.9311C4.07032 28.4055 5.4695 21.8799 8.77665 16.25C10.5574 13.1791 12.7198 10.3642 15.391 8.06102C21.3693 2.94291 28.874 0 36.8874 0C38.0322 0 39.177 0 40.3218 0.127953C47.5721 0.895669 54.4408 4.22244 59.7831 9.4685C62.7087 12.4114 64.9982 15.7382 66.6518 19.5768C66.3974 19.8327 66.143 20.2165 65.7614 20.4724L57.3663 28.5335C56.6031 24.311 54.4408 20.3445 51.5152 17.4016C48.9713 14.8425 45.7913 13.0512 42.357 12.1555C40.5762 11.7717 38.6682 11.5157 36.8874 11.5157C32.1811 11.5157 27.4748 13.1791 23.786 16.122C20.2245 19.065 17.6805 23.0315 16.5357 27.5098C16.1541 29.1732 15.8997 30.8366 15.8997 32.5C15.8997 33.3957 15.8997 34.2913 16.0269 35.187C16.6629 39.7933 18.8253 44.1437 22.1325 47.4705C26.0756 51.3091 31.2907 53.4843 36.7602 53.4843C39.9402 53.4843 42.8657 52.8445 45.7913 51.437C47.5721 50.5413 49.48 50.1575 51.388 50.1575C54.4408 50.1575 57.3663 51.3091 59.5287 53.3563L60.6735 54.3799C54.568 61.1614 45.9185 65 36.8874 65Z" fill="currentColor"/>
<path d="M1.78079 57.7067C0.254408 55.1476 -0.381583 52.0767 0.12721 49.1338C0.636002 45.935 2.41678 43.12 5.08794 41.3287L29.8916 23.9271C30.9092 23.2874 32.0539 22.9035 33.1987 22.9035C34.8523 22.9035 36.5059 23.6712 37.6507 24.9508L41.3394 29.4291L63.5991 13.1791L70.2134 8.31689C71.7397 10.748 72.3757 13.6909 71.9941 16.6338C71.6125 19.4488 70.3406 21.8799 68.3054 23.7992C67.9238 24.183 67.5422 24.5669 67.0334 24.8228L43.629 41.8405C42.6114 42.6082 41.4666 42.9921 40.3218 42.9921C38.6682 42.9921 37.0147 42.2244 35.8699 40.9448L32.1811 36.4665L20.6061 44.6555L1.78079 57.7067Z" fill="currentColor"/>
<path d="M36.8874 65C35.7427 65 34.4707 64.872 33.3259 64.7441C25.9484 63.9764 19.0797 60.5217 13.8646 55.1476C10.8118 52.0768 8.52226 48.4941 6.86868 44.5276C5.5967 41.4567 4.83351 38.2579 4.57911 34.9311C4.07032 28.4055 5.4695 21.8799 8.77665 16.25C10.5574 13.1791 12.7198 10.3642 15.391 8.06102C21.3693 2.94291 28.874 0 36.8874 0C38.0322 0 39.177 0 40.3218 0.127953C47.5721 0.895669 54.4408 4.22244 59.7831 9.4685C62.7087 12.4114 64.9982 15.7382 66.6518 19.5768C66.3974 19.8327 66.143 20.2165 65.7614 20.4724L57.3663 28.5335C56.6031 24.311 54.4408 20.3445 51.5152 17.4016C48.9713 14.8425 45.7913 13.0512 42.357 12.1555C40.5762 11.7717 38.6682 11.5157 36.8874 11.5157C32.1811 11.5157 27.4748 13.1791 23.786 16.122C20.2245 19.065 17.6805 23.0315 16.5357 27.5098C16.1541 29.1732 15.8997 30.8366 15.8997 32.5C15.8997 33.3957 15.8997 34.2913 16.0269 35.187C16.6629 39.7933 18.8253 44.1437 22.1325 47.4705C26.0756 51.3091 31.2907 53.4843 36.7602 53.4843C39.9402 53.4843 42.8657 52.8445 45.7913 51.437C47.5721 50.5413 49.48 50.1575 51.388 50.1575C54.4408 50.1575 57.3663 51.3091 59.5287 53.3563L60.6735 54.3799C54.568 61.1614 45.9185 65 36.8874 65Z" fill="currentColor"/>
<path d="M1.78079 57.7067C0.254408 55.1476 -0.381583 52.0767 0.12721 49.1338C0.636002 45.935 2.41678 43.12 5.08794 41.3287L29.8916 23.9271C30.9092 23.2874 32.0539 22.9035 33.1987 22.9035C34.8523 22.9035 36.5059 23.6712 37.6507 24.9508L41.3394 29.4291L63.5991 13.1791L70.2134 8.31689C71.7397 10.748 72.3757 13.6909 71.9941 16.6338C71.6125 19.4488 70.3406 21.8799 68.3054 23.7992C67.9238 24.183 67.5422 24.5669 67.0334 24.8228L43.629 41.8405C42.6114 42.6082 41.4666 42.9921 40.3218 42.9921C38.6682 42.9921 37.0147 42.2244 35.8699 40.9448L32.1811 36.4665L20.6061 44.6555L1.78079 57.7067Z" fill="currentColor"/>
</svg>
