<svg width="30" height="18" viewBox="0 0 30 18" fill="none" xmlns="http://www.w3.org/2000/svg">
<path d="M5.54031 14.5136C7.91655 12.5332 10.2928 10.5383 12.7581 8.5C10.3076 6.46173 7.90169 4.46684 5.5106 2.45748C5.4512 2.47194 5.39179 2.48639 5.33239 2.50085C5.33239 2.84779 5.34724 3.19473 5.33239 3.54167C5.30268 4.03316 5.03536 4.32228 4.63437 4.30782C4.23338 4.30782 3.96605 4.01871 3.93635 3.52721C3.9215 3.31037 3.9215 3.09354 3.9215 2.8767C3.9215 1.15646 5.05021 0.0144558 6.83239 0.0144558C10.7086 0 14.5997 0 18.476 0C21.1938 0 23.9116 0 26.6443 0.0144558C27.0601 0.0144558 27.4908 0.0289116 27.8918 0.115646C29.0948 0.37585 29.9562 1.43112 29.9562 2.70323C29.971 6.56293 29.971 10.4082 29.9562 14.2679C29.9413 15.8002 28.8571 16.8844 27.2532 16.9711C26.0948 17.0289 24.9215 17 23.7631 17C18.1789 17 12.5799 16.9711 6.99575 17C5.00565 17.0145 3.56506 15.7279 3.9215 13.2704C3.9809 12.8946 4.24823 12.6633 4.64922 12.6922C5.05021 12.7066 5.28783 12.9668 5.30268 13.3427C5.33239 13.7185 5.30268 14.0944 5.30268 14.4702C5.40664 14.4847 5.46605 14.4992 5.54031 14.5136ZM6.68387 1.46003C6.62447 1.51786 6.57991 1.59014 6.52051 1.64796C6.63932 1.69133 6.78783 1.69133 6.87694 1.76361C9.9809 4.35119 13.07 6.93878 16.174 9.51191C16.872 10.0901 17.0205 10.0901 17.7482 9.48299C20.8076 6.93878 23.867 4.3801 26.9264 1.82143C27.0453 1.72024 27.1344 1.60459 27.268 1.46003C20.3621 1.46003 13.5156 1.46003 6.68387 1.46003ZM13.8571 9.41072C11.4066 11.4634 9.01556 13.4439 6.52051 15.5255C13.5453 15.5255 20.3918 15.5255 27.4017 15.5255C24.8918 13.4294 22.5007 11.4345 20.0799 9.41072C19.5601 9.84439 19.0849 10.2492 18.5948 10.6539C17.4809 11.6224 16.4859 11.6224 15.372 10.6684C14.8819 10.2636 14.3918 9.85884 13.8571 9.41072ZM21.1492 8.5C23.5997 10.5527 25.9908 12.5332 28.5007 14.6293C28.5007 10.4949 28.5007 6.5051 28.5007 2.35629C26.0057 4.45238 23.6146 6.44728 21.1492 8.5Z" fill="currentColor"/>
<path d="M3.59406 10.8275C2.76238 10.8275 1.91584 10.8275 1.08416 10.8275C0.861386 10.8275 0.594059 10.8564 0.445545 10.7552C0.237624 10.5962 0 10.3215 0 10.1047C0.0148515 9.88784 0.282178 9.64209 0.504951 9.51199C0.668317 9.4108 0.935644 9.45417 1.15842 9.43971C2.83663 9.43971 4.51485 9.42526 6.19307 9.43971C6.99505 9.43971 7.35149 9.67101 7.35149 10.1336C7.35149 10.6106 6.9802 10.8275 6.19307 10.8275C5.31683 10.8275 4.45545 10.8275 3.59406 10.8275Z" fill="currentColor"/>
<path d="M4.60239 7.56029C3.99348 7.56029 3.36972 7.57474 2.76081 7.56029C2.31526 7.54583 1.98853 7.37236 1.95883 6.89532C1.92912 6.49056 2.27071 6.18699 2.80536 6.18699C4.03803 6.17253 5.27071 6.17253 6.50338 6.18699C7.03803 6.20145 7.36477 6.49056 7.33506 6.89532C7.30536 7.37236 6.97863 7.56029 6.53308 7.56029C5.87962 7.56029 5.241 7.56029 4.60239 7.56029Z" fill="currentColor"/>
</svg>
