<svg width="114" height="113" viewBox="0 0 114 113" fill="none" xmlns="http://www.w3.org/2000/svg">
<rect width="114" height="112.381" rx="10" fill="white"/>
<g clip-path="url(#clip0)">
<path d="M69.3001 17.8227V84.8982C69.3001 85.6397 68.7057 86.241 67.9724 86.241H25.1765C24.4433 86.241 23.8488 85.6399 23.8488 84.8982V81.4726C23.8488 81.0379 24.1564 80.6614 24.5803 80.5904C26.6824 80.2378 28.2845 78.3911 28.2845 76.1649C28.2845 73.9402 26.6823 72.0922 24.5802 71.7394C24.1562 71.6682 23.8486 71.2918 23.8486 70.8572V64.9364C23.8486 64.5017 24.1562 64.1252 24.5802 64.0542C26.6823 63.7016 28.2843 61.8549 28.2843 59.6287C28.2843 57.4026 26.6821 55.5559 24.5802 55.2032C24.1562 55.132 23.8486 54.7557 23.8486 54.321V48.4003C23.8486 47.9655 24.1562 47.5892 24.5802 47.518C26.6823 47.1653 28.2845 45.317 28.2845 43.0925C28.2845 40.8664 26.6823 39.0197 24.5803 38.667C24.1564 38.5959 23.8488 38.2196 23.8488 37.7848V31.8624C23.8488 31.4277 24.1564 31.0512 24.5803 30.9802C26.6824 30.6276 28.2845 28.7809 28.2845 26.5547C28.2845 24.3302 26.6823 22.482 24.5802 22.1292C24.1562 22.058 23.8486 21.6816 23.8486 21.247V17.8227C23.8486 17.0812 24.443 16.48 25.1763 16.48H67.9722C68.7057 16.48 69.3001 17.0811 69.3001 17.8227Z" fill="#EFEDEF"/>
<path d="M67.972 16.48H62.7822C63.5154 16.48 64.1099 17.0811 64.1099 17.8227V84.8982C64.1099 85.6397 63.5156 86.241 62.7822 86.241H67.972C68.7052 86.241 69.2997 85.6399 69.2997 84.8982V17.8227C69.2995 17.0811 68.7052 16.48 67.972 16.48Z" fill="#E3E0E4"/>
<path d="M91.7158 44.96L78.2588 27.8786C76.3546 25.4616 72.8158 25.2033 70.5881 27.3187L52.6272 44.3751C51.9107 45.0555 51.7726 46.1546 52.298 46.9948L53.0672 48.2246C54.5926 50.6635 57.8866 51.1983 60.09 49.3646L68.76 42.1501C69.6996 41.3684 71.1196 41.7375 71.5699 42.8807L73.9246 48.8598C74.428 50.1379 74.3113 51.5805 73.6092 52.7587L67.8265 62.4646V93.3246H85.0307V71.2211L92.5572 50.1281C93.1831 48.3745 92.8646 46.418 91.7158 44.96Z" fill="#FFD5CA"/>
<path d="M91.716 44.96L78.259 27.8787C76.6466 25.832 73.8624 25.3338 71.6943 26.5134C72.3006 26.842 72.8539 27.2972 73.3121 27.8787L86.7691 44.96C87.9179 46.4182 88.2364 48.3745 87.6106 50.1282L80.0841 71.2211V93.3246H85.031V71.2211L92.5575 50.1282C93.1833 48.3745 92.8648 46.418 91.716 44.96Z" fill="#F0C1C1"/>
<path d="M92.075 27.1682L88.9316 29.0037L91.5836 33.6491L94.7269 31.8136C95.9954 31.0729 96.4298 29.4326 95.6976 28.15C94.9654 26.8673 93.3433 26.4277 92.075 27.1682Z" fill="#E175A5"/>
<path d="M87.4249 28.1491L47.8641 51.2491C45.8855 52.4045 45.2075 54.9635 46.3498 56.9647C47.4922 58.9659 50.0226 59.6516 52.0013 58.4962L91.562 35.3963C91.9841 35.1498 92.1287 34.604 91.8849 34.177L88.6303 28.4758C88.3865 28.049 87.8469 27.9026 87.4249 28.1491Z" fill="#5766CC"/>
<path d="M91.8848 34.1774L89.921 30.7375C90.1788 31.1891 90.0457 31.7551 89.6235 32.0015L50.0628 55.1014C48.7125 55.8899 47.0805 55.7765 45.7959 54.9524C45.8082 55.6376 45.9868 56.3294 46.3495 56.965C47.4919 58.9662 50.0222 59.6519 52.0009 58.4965L91.5616 35.3966C91.9838 35.1501 92.1285 34.6042 91.8848 34.1774Z" fill="#3D4EC4"/>
<path d="M69.4577 74.0407L62.7471 70.1624C61.7598 69.5919 60.9388 68.7681 60.3668 67.7743L51.7325 52.7723C50.6232 50.8449 51.0984 48.3845 52.8431 47.021C54.7361 45.5417 57.4512 45.866 58.9514 47.7503L65.3489 55.786C65.3489 55.786 77.3821 58.9024 77.0886 59.1993C76.7951 59.4961 69.4577 74.0407 69.4577 74.0407Z" fill="#FFD5CA"/>
<path d="M64.7959 77.8721V82.9143H88.0609V77.8721C88.0609 77.0295 87.3855 76.3464 86.5523 76.3464H66.3045C65.4713 76.3464 64.7959 77.0295 64.7959 77.8721Z" fill="#F35933"/>
<path d="M86.5529 76.3464H81.8184C82.6515 76.3464 83.3269 77.0295 83.3269 77.8721V82.9143H88.0615V77.8721C88.0617 77.0295 87.3863 76.3464 86.5529 76.3464Z" fill="#CA482C"/>
<path d="M61.5645 98.7583V84.9019C61.5645 83.804 62.4445 82.914 63.53 82.914H89.3288C90.4144 82.914 91.2944 83.804 91.2944 84.9019V98.7583H61.5645Z" fill="#55B4F3"/>
<path d="M89.3283 82.914H84.5938C85.6793 82.914 86.5593 83.804 86.5593 84.9019V98.7583H91.2939V84.9019C91.2938 83.804 90.4138 82.914 89.3283 82.914Z" fill="#3E90CA"/>
<path d="M96.7603 27.5289C96.2422 26.6214 95.4056 25.9721 94.4046 25.7007C93.4036 25.4297 92.3581 25.5686 91.4608 26.0927L89.2996 27.3547C89.0508 27.1215 88.7483 26.9513 88.4111 26.8602C87.8668 26.7131 87.2981 26.7891 86.8103 27.0741L81.5937 30.1203L79.2176 27.1043C78.0973 25.6819 76.426 24.7909 74.6324 24.6599C73.1723 24.5538 71.7222 24.9566 70.5263 25.7809V17.8223C70.5263 16.3974 69.3801 15.2381 67.971 15.2381H39.7426C39.0646 15.2381 38.515 15.794 38.515 16.4797C38.515 17.1654 39.0646 17.7214 39.7426 17.7214H67.971C68.026 17.7214 68.0709 17.7665 68.0709 17.8223V28.0045L61.87 33.8935C61.7081 33.3993 61.2481 33.0424 60.7052 33.0424H36.8774C36.1994 33.0424 35.6497 33.5983 35.6497 34.284C35.6497 34.9697 36.1994 35.5257 36.8774 35.5257H60.1514L51.7866 43.4696C50.7785 44.4265 50.4878 45.9072 51.0065 47.163C50.7333 47.5392 50.5105 47.9454 50.338 48.3706L47.3444 50.1179H36.8779C36.1999 50.1179 35.6502 50.6739 35.6502 51.3596C35.6502 52.0453 36.1999 52.6012 36.8779 52.6012H45.0598C44.9341 52.8785 44.8293 53.1677 44.7498 53.4682C44.4872 54.459 44.5073 55.4806 44.7948 56.4385L40.8762 58.7262C40.289 59.0691 40.0877 59.8285 40.4267 60.4223C40.7673 61.0193 41.5193 61.2181 42.1037 60.8769L46.0252 58.5875C47.0526 59.6924 48.4811 60.2977 49.9414 60.2975C50.8505 60.2975 51.7716 60.0636 52.6136 59.5715L53.8194 58.8675L58.6122 67.1947H36.8774C36.1994 67.1947 35.6497 67.7506 35.6497 68.4363C35.6497 69.122 36.1994 69.6779 36.8774 69.6779H60.2282C60.7764 70.2959 61.4198 70.8257 62.1371 71.2407L66.5977 73.8185V75.1043H66.3042C64.7955 75.1043 63.5679 76.3458 63.5679 77.8717V81.6722H63.5287C61.7678 81.6722 60.3354 83.121 60.3354 84.9018V84.9993H25.1758C25.1208 84.9993 25.076 84.9539 25.076 84.8983V81.7581C27.6639 81.1827 29.512 78.8767 29.512 76.1639C29.512 73.4518 27.6639 71.1464 25.076 70.5712V65.2213C27.6639 64.646 29.512 62.3407 29.512 59.6287C29.512 56.9158 27.6639 54.6098 25.076 54.0344V48.6844C27.6639 48.1092 29.512 45.8039 29.512 43.0918C29.512 40.3798 27.6639 38.0743 25.076 37.4992V32.1474C27.6639 31.572 29.512 29.266 29.512 26.5531C29.512 23.8411 27.6639 21.5356 25.076 20.9605V17.8223C25.076 17.7667 25.1207 17.7214 25.1758 17.7214H34.0135C34.6915 17.7214 35.2411 17.1654 35.2411 16.4797C35.2411 15.794 34.6915 15.2381 34.0135 15.2381H25.1758C23.7669 15.2381 22.6206 16.3973 22.6206 17.8223V21.2459C22.6206 22.2958 23.36 23.182 24.379 23.3532C25.9304 23.6135 27.0565 24.9594 27.0565 26.5535C27.0565 28.1486 25.9304 29.4951 24.3786 29.7554C23.3598 29.9266 22.6204 30.8121 22.6204 31.861V37.7844C22.6204 38.8344 23.3598 39.7205 24.3788 39.8917C25.9303 40.152 27.0563 41.4979 27.0563 43.092C27.0563 44.6861 25.9303 46.032 24.3785 46.2924C23.3597 46.4636 22.6203 47.3498 22.6203 48.3997V54.3214C22.6203 55.3705 23.3598 56.2561 24.3786 56.4271C25.9301 56.6873 27.0561 58.0341 27.0561 59.629C27.0561 61.2231 25.9301 62.569 24.3786 62.8293C23.3597 63.0003 22.6203 63.8865 22.6203 64.9365V70.8566C22.6203 71.9066 23.3597 72.7928 24.3786 72.9639C25.9301 73.2242 27.0561 74.5701 27.0561 76.1642C27.0561 77.7593 25.9301 79.1059 24.3783 79.3661C23.3595 79.5373 22.6201 80.4228 22.6201 81.4717V84.8986C22.6201 86.3235 23.7663 87.4829 25.1753 87.4829H60.3347V98.7585C60.3347 99.4442 60.8844 100 61.5624 100H91.293C91.971 100 92.5207 99.4442 92.5207 98.7585V84.9021C92.5207 83.1213 91.0882 81.6726 89.3274 81.6726H89.2881V77.872C89.2881 76.3461 88.0606 75.1047 86.5519 75.1047H86.2587V71.4382L88.2417 65.8813C88.4718 65.2364 88.1415 64.5248 87.5036 64.2919C86.866 64.0595 86.1623 64.3932 85.932 65.0384L83.876 70.7995C83.8279 70.9346 83.8032 71.0773 83.8032 71.221V75.1047H69.053V73.098C69.053 72.6694 68.8286 72.2486 68.4345 72.02L63.3558 69.0851C62.5572 68.6229 61.8901 67.9535 61.427 67.1493L55.3302 56.5564L55.3284 56.5529L55.326 56.5491L52.7925 52.1474C51.9968 50.7638 52.3411 48.9818 53.5933 48.0029C54.9472 46.9453 56.9213 47.1812 57.994 48.5292L64.3926 56.565C64.5588 56.7737 64.7873 56.9224 65.0439 56.989C65.0711 56.9959 67.8023 57.7048 70.5932 58.4662C71.1129 58.612 71.688 58.3879 71.9723 57.9102L74.6601 53.399C75.5543 51.8981 75.7058 50.0295 75.0652 48.4002L74.4447 46.8235L86.2042 39.9568L90.7543 45.7328C91.6314 46.846 91.8798 48.3686 91.4027 49.7061L87.8752 59.5911C87.645 60.2361 87.9753 60.9476 88.6132 61.1805C88.7509 61.2307 88.8915 61.2545 89.0298 61.2545C89.5325 61.2545 90.0043 60.9398 90.1847 60.4341L93.7124 50.5489C94.4765 48.4062 94.0789 45.9678 92.6747 44.1854L88.3544 38.7011L92.1745 36.4705C92.6621 36.1855 93.0114 35.7261 93.1578 35.1768C93.2486 34.8358 93.2542 34.4853 93.1787 34.1506L95.3401 32.8884C96.2374 32.3645 96.8794 31.5183 97.1477 30.506C97.416 29.494 97.2784 28.4366 96.7603 27.5289ZM90.0653 84.902V97.5167H62.7907V84.902C62.7907 84.4904 63.1217 84.1556 63.5287 84.1556H89.3274C89.7344 84.1555 90.0653 84.4904 90.0653 84.902ZM86.8328 77.8718V81.6724H66.0231V77.8718C66.0231 77.7152 66.1492 77.5878 66.304 77.5878H86.5517C86.7067 77.5878 86.8328 77.7152 86.8328 77.8718ZM74.4557 27.1367C75.5835 27.2192 76.5926 27.757 77.2971 28.6515L79.4431 31.3756L56.2583 44.9134C55.3428 44.792 54.399 44.894 53.5182 45.2316L71.4274 28.2236C72.2519 27.4403 73.3281 27.0544 74.4557 27.1367ZM52.5841 56.7216L51.3856 57.4214C49.9982 58.2326 48.2154 57.749 47.4123 56.3441C46.6083 54.9351 47.084 53.1374 48.477 52.3241L49.9825 51.4453C50.0885 52.1178 50.3154 52.7793 50.6703 53.3965L52.5841 56.7216ZM64.4401 52.6656L68.0709 50.5454V55.2189C67.1898 54.9851 66.4682 54.7961 66.0495 54.6866L64.4401 52.6656ZM72.7837 49.3185C73.1424 50.2309 73.0577 51.2773 72.557 52.1178L70.5263 55.5263V49.1119L72.2958 48.0787L72.7837 49.3185ZM62.8816 50.7083L59.9065 46.972C59.6566 46.6579 59.3784 46.3788 59.0796 46.1335L87.7398 29.3988C88.8231 31.2968 89.1115 31.8023 90.6482 34.4946C87.333 36.4304 66.3677 48.6727 62.8816 50.7083ZM94.1126 30.7381L92.0327 31.9526L90.6088 29.4577L92.6886 28.2434C93.3699 27.8454 94.2404 28.081 94.6341 28.7707C95.0275 29.46 94.7943 30.3401 94.1126 30.7381Z" fill="#222222"/>
</g>
<defs>
<clipPath id="clip0">
<rect width="83.8095" height="84.7619" fill="white" transform="translate(18.0469 15.2381)"/>
</clipPath>
</defs>
</svg>
