<svg width="260" height="203" viewBox="0 0 260 203" fill="none" xmlns="http://www.w3.org/2000/svg"><path d="M153.5 170.2c58.8 0 106.5-7.7 106.5-17.2s-47.7-17.2-106.5-17.2S47 143.5 47 153s47.7 17.2 106.5 17.2Z" fill="currentColor"/><path d="m183.7 148.8 3.4 1.4s2.4-2.5 1.7-4.2c-.7-1.8-1.5-7-4.1-8.8-2.6-1.9-6.3-3.5-7.5-3-1.1.6-2.4 1.2-1 3.3 1.2 2.1 7.5 11.3 7.5 11.3Z" fill="#2E608F"/><path d="m239.1 146.7-3.6-.2s2.6-3.2-3-6.5c-5.7-3.3-6.5-3.2-6.5-3.2s-4.7 1.3-2.3-1.3c2.4-2.6 8.9-4.4 12.2-1.4 3.3 2.9 4.7 9.3 4.1 11-.6 1.8-.9 1.6-.9 1.6Z" fill="#2E6393"/><path d="m168 136.6 2-.6s3-1.5 5.2-1.2a12 12 0 0 1 9 7c2.3 5.3.2 13.4-6.8 15a46 46 0 0 1-9.5-.4c-1.2-.2 1.6-.6.7-1a7.9 7.9 0 0 1-4.5-6.3c-.3-4 1.3-10.2 1.4-10.4l2.5-2Z" fill="#2B2B56"/><path d="M176 151c2.4 0 4.4-2.2 4.4-5s-2-5-4.4-5c-2.4 0-4.4 2.2-4.4 5s2 5 4.4 5Z" fill="#fff"/><path d="M224.2 135.6s4.7-.4 5.8-.1c1.1.2 4.2.4 6.2 4.2 2 3.7 1.7 8-.2 10.7a8.2 8.2 0 0 1-7.8 3.5c-3-.2-4.8-.7-5.7-1.1-.9-.4-2.7-2-3.4-3.8-.7-1.8-.4-3-.4-3.8 0-.3.5 1.2.8.6.6-1 1.1-4.1 1.1-4.1l1.4-3.7 2.2-2.4Z" fill="#2B2B56"/><path d="M229.3 149c2.3 0 4.2-2 4.2-4.6 0-2.6-1.9-4.7-4.2-4.7-2.3 0-4.2 2-4.2 4.7 0 2.5 2 4.6 4.2 4.6Z" fill="#fff"/><path d="m246.2 140.8-.6 4.5c0 .3-1.5.8-3 1.1-1.7.3-3.5.3-3.5.3a25 25 0 0 0-.3-6.6c-.4-1.9-2.5-6.6-7.3-6.7a9.3 9.3 0 0 0-9 5.2c-.8 1.3-1.1 2.9-1.3 4.2l-.2 2.9c0 1.3-1.2 1.8-1.2 1.8-.6.3-1.4.4-2 .5-2 .3-11.4 1-19.5 1.5l-11.3.7s.8-4.8-.9-9l-.6-1.4-1-1.5c-1-1-2-1.8-3.3-2.5-2-1-4.7-1.3-7.8-.7-6.6 1.3-12.7 2-12.7 2l-3.2 6.2-15.5-24.8c0-.2-.2-.3-.3-.5v-.1c.5-.4 8.6-5 14.7-9.4 6.3-4.7 9.4-7.7 17-10a80.3 80.3 0 0 1 23.6-2.3c7.9 0 18.5 0 28.8 5.2l3.8 2.1c8 4.9 12.4 10.9 15.8 19.4v.1a67.5 67.5 0 0 1 0 16.1c.2.2 1 .5.8 1.7Z" fill="#68AAD9"/><path d="M178.4 136.2h-.1V135.8h.2v.3h-.1Z" fill="#292955"/><path d="M229.5 103.5c-14.8-6.7-28.5-3.4-33.7-2.5-5.4 1-10.6 5.8-14.4 10.3-3.9 4.4-9.6 12.2-9.6 12.2-4 1.3-7.4 4-7.4 4l-12-3.5s-8-2.6-10.4-5.5l-.3-.5v-.2l3.8-2.2c3-1.8 7.3-4.5 11-7.1 2.8-2.1 5-3.9 7.2-5.4a34.8 34.8 0 0 1 9.7-4.6 80.3 80.3 0 0 1 23.6-2.3c7.9 0 18.5 0 28.8 5.2l3.7 2.1Z" fill="#7BBBE0"/><path d="m182.5 107.3-2.5 3-7 8.2c-1 1.1-2.1 3.1-5 2.9-2.5-.2-16-2.7-22.5-5.8 3-1.8 7.3-4.5 10.9-7 2.8-2.2 5-4 7.3-5.5 1.3-.8 2.6-1.7 4.1-2.4h1.3c5.8.1 11.3 1 13 2.3 1.5 1.3 1.6 2.7.4 4.3ZM204 106.3l-.1 4.2-.3 12.1-12.8-.3s0-2.8-1.4-3.7l-.6-.3c-2-.5-4.2-.3-4.9 1.7l-1 .1s1-4.3 6.1-9.3h.1c5.2-5 14.5-4.5 14.9-4.5Z" fill="#272A56"/><path d="M178.4 117.2c-.1 0-.2-.1-.1-.2 0-.1 7.4-11 15-14.9v.1c.1 0 0 .1 0 .2-7.4 3.7-14.7 14.7-14.8 14.7l-.1.1Z" fill="#5787B5"/><path d="m183 113.8-.1-.2s4.3-6.3 11.7-9.4l.1.2c-7.4 3-11.6 9.3-11.6 9.4Z" fill="#5787B5"/><path d="M209 145.3c-1.8 0-2.3 1.2-2.3 1.2V104.4c0-.6-.4-1-1-1-1.5 0-4.4 0-6.6.3 0 0 4.2-1.7 7.9-1.5 3.6.2 3.7 1 3.7 3.7v37.4s.1 2-1.7 2Z" fill="#5584B1"/><path d="m209.7 143.6-1.7.2v-39.4l-1.7-.9s2-.5 2.8.4c.8.9.6 1.2.6 11.8v28Z" fill="#272A56"/><path d="M184.4 133.6c.2.2-.1.6-.4.4l-2-1c-5.5-3-13.5 1.1-13.7 1.1-.1 0-10.4-3.8 1.6-5 9-.8 13 2.6 14.5 4.5Z" fill="#7BBBE0"/><path d="m178.6 127.9-.2 3.4s3.6 2.2 6 5.3c2.6 3 3.8-2.6 2.9-3.8l-2.5-2.9-6.2-2Z" fill="#69ABD9"/><path d="M176.5 128.5c6.3-1 17.3-2.4 30.2-1.4v1.9s-16.6-1.6-28.9-.4c-2.5.2-5 .6-1.3 0Z" fill="#619DCC"/><path d="M239.3 126s-8.8-2-28.7-.8v-1.4h1s14.2-.6 20.4.4c6.2 1 7.3 1.7 7.3 1.7Z" fill="#609DCB"/><path d="M221.3 142.8c-.2 1.2-.2 2.2-.2 2.9a2 2 0 0 1-1.3 1.8c-.6.3-1.4.4-2 .5-3.2.5-26.7 2-30.8 2.2 0 0 .9-4.8-.9-9-.1-.5-.4-1-.6-1.4 2 2.1 2.4 6 3.5 7.2 1.4 1.3 9.1 1 13.9.7 4.2-.3 12-.6 15-1h.9s.8-.1 1.5-1.1c.6-1 .5-2 1-2.8Z" fill="#4A8EBE"/><path d="M183.5 122.6s0 .8 1 1.5 1.3 1.5 1.3 1.8a7 7 0 0 0 2.8 3c1.4.5 1.7 1.1 3.3.2 0 0 .2-4.2-1.4-4.9 0 0-1.1 1-2.4.4a51 51 0 0 0-1.7-1l-1.8-1h-1.1Z" fill="#619DCC"/><path d="M190.8 122.3s-.6 1.8-2.7 2.1c-2 .4-3.2-.6-3.7-1.4h-1s-.4 0-.5-1.3h1s-.2-.3 0-.7c0 0 .9 2.5 3.4 2.1 1.5-.3 1.5-2 1.5-2.6 0-.6-.2-1.4.6-2 1.5 1 1.3 3.8 1.3 3.8Z" fill="#5097C3"/><path opacity=".2" d="m198.4 149.5-11.3.7s.8-4.8-1-9a11 11 0 0 0-.6-1.4l-1-1.5c-.9-1-2-1.8-3.2-2.5 2 0 4.8.6 7.2 4.4 1.5 2.5 2 4.5 2.3 5.5l.2.4.5.2c2.5 0 3.8.7 4.9 1.7 1 1 2.2.4 2 1.5Z" fill="#272A56"/><path d="m198.8 129.7 3.6.2c.5 0 1-.4 1-.9s-.4-.8-1-.9l-3.5-.1c-.5 0-1 .4-1 .8 0 .5.4.9.9 1Z" fill="#272A55"/><path d="m182.5 107.3-2.5 3c-.5-1.7-1.6-3.4-3.5-5-3.2-2.6-8.3-2.8-12.8-2.2a35 35 0 0 1 4.2-2.5h1.2c5.9.1 11.4 1 13 2.4 1.5 1.3 1.6 2.7.4 4.3ZM204 106.3l-.1 4.2c-2.4-3.2-10.3-1.3-14.8.2 5.2-4.9 14.5-4.4 14.9-4.4Z" fill="#38385E"/><path d="M165.2 126.5v-.1c-.1 0-.1-.1 0-.2 1.5-1 5.8-3 5.8-3h.2v.2c-.1 0-4.4 2-6 3ZM211.7 136.2c-.1 0-.2 0-.2-.2v-31.2s0-.2.2-.2l.2.2V136l-.2.2Z" fill="#5787B5"/><path d="M245.9 130.7c-1.1.6-2.3-1-2.5-2.1-.2-1.2-1.1-1-1.3-1.8 0-.7.4-1.8 1.8-3 .6-.4 1-.7 1.5-.7.4 1.2.5 4.4.5 7.6Z" fill="#F47958"/><path d="m234.2 124.8-3.8.2c-.4 0-.6-.2-.7-.6 0-.4.3-.6.6-.7l3.8-.2c.3 0 .6.3.6.6 0 .4-.2.7-.5.7Z" fill="#272A55"/><path d="M206.7 144v2.5l-15.3-.2-.5-.2c.4-.5.6-1 2.2-1.3 3.7-.8 13.6-.8 13.6-.8Z" fill="#7BBBE0"/><path d="m219.6 136.5-.1-.3v-.2l.1-.3c0-.3.2-.5.3-.7l.6-1.2a11 11 0 0 1 6.9-5c1.8-.4 3.9-.4 5.7.2 1 .3 1.8.7 2.6 1.3l1 .8.6.5.2.3c.1 0 .2.2.1.3l-.1.2c-.4 0-.5-.2-.7-.3l-.5-.3-1.2-.5a9 9 0 0 0-2.4-.6H230l-.3.1h-.6l-1.2.3a16.7 16.7 0 0 0-4.5 1.9l-1.9 1.5-.8 1-.4.5-.2.3-.3.2h-.2Z" fill="#7ABAE0"/><path d="m210.6 140.6 5.3-.6s1.6.5.9 3l-6.2.6v-3Z" fill="#7BBBE0"/><path d="m246.2 140.8-.6 4.5c0 .3-1.5.8-3 1-1.7.4-3.5.3-3.5.3a25 25 0 0 0-.2-6c.7 1 2 2.2 3.6 2 2.7-.3 2.6-2.2 2.9-3.4.2 0 1 .4.8 1.6Z" fill="#4A8EBE"/><path d="M178.6 122.8v8.3h-.2c.4 0 .8 0 1.2.2.1 0 .2.2.1.3 0 .1-.1.2-.3.1l-1-.4h-.2v-.2l.4-8.3Z" fill="#5787B5"/><path d="M215 105.6c0-1 .8-1.6 1.7-1.6 2.6.2 7.6 1 11.6 4.5 4.4 3.8 5.9 6.5 6.4 8.8.3.9-.4 1.8-1.4 1.9l-16.3.5c-.9 0-1.5-.7-1.6-1.5l-.3-12.6Z" fill="#272A55"/><path d="M170.4 90.7a5 5 0 0 1-1.1 1.2l-.8.5c-1.7 1-3.4 2-4.3 3-.5.7-.8 1.3-.7 2 0 1.4.4 1.8 1 2.1l.8.4.5.3c1 .8 2.3 2.6 1.6 4-.6 1.4-2.2 1.7-3.8 1.3l-.8-.2-.6-.3c-.9-.4-1.4-1-2-1.6-.8-.8-1.6-1.5-3-1.7h-.5c-1 0-2 .2-2.8.6-1.2.5-2 1.3-2 2.4.1 2 3.2 2.2 5.2 1.9 1.3-.2 3.7-.2 5.8.4 1.4.4 2.6 1 3.3 2.2 1.7 2.8 1.4 5.9-1.2 6.9-2.5 1-5.2-.5-6 1.8-.8 2.2 4 2.4 3.5 6.5-.3 2.8-8.8-2.5-14.3-6.7a19.2 19.2 0 0 1-4.4-4c-.6-1.7-1.1-4-1.1-4s-1.4-3.2.8-7.1l.2-.4c2.3-3.6 6.3-3.8 9.2-3.8 3-.1 3.2-.7 4.3-1.4 1-.7 1.7-.8 2.1-1.6l1-2 .3-1-.2-1.3c0-.7-1-.7-1-1.7 0-1.1-1.2-2.2-3.2-2.5-2-.2-2.1-.2-3.2-1.3s0-3.5 1-4.5a6 6 0 0 1 4.1-1.3c1 0 2.3 0 4 .4.2 0 .5 0 .7.2 3.9 1 6.6 3.6 7.7 5.5l.4 1c.3 1.2.4 2.6-.5 3.8Z" fill="#BBBABA"/><path d="M158.3 63.8c-.7.5-.1 1-.5.8-.3-.2 0-.4-.5-1.1-.7-.7-1.6-1.5-1-1.8.5-.2 1.1.1 1.6.6.5.4.8 1.2.4 1.5ZM156.5 69c-.8.6-1.5.4-2.2-.8l-.2-.4c-.3-1.1.2-2.6.7-2.8.5-.3 1.1 0 1.6.4s.8 1 1 1.3c0 .6-.2 1.5-1 2.2Z" fill="#686868"/><path d="m169 73.4-.2.4c-.3.6-.8 1.4-1.2 1.6-.6.1-.8-.4-.6-.8l.5-1.3v-.5c0-.6 0-1.4.3-1.5 1-.1 1.2 1.6 1.1 2Z" fill="#797A79"/><path d="M176.5 82.2c-.2.5-.5.8-1.2.7-.7 0-.9-1-.6-1.2.2-.2.4-.6.4-1v-.2l-.1-1c.1-.3.7 0 .7.3s.5.2.7.7c.1.5.2 1.2.1 1.7Z" fill="#909090"/><path d="M147.9 80.8c-.2 0-.4 0-.6.4-.3.3-.4.3-.7.3-.2 0-.7-.4-1-.8l-.3-.6c0-.4 0-.9.4-1.6.6-1 1.3-.8 1.6-.8.4.1.5.3.5.6a11.9 11.9 0 0 0 .3 1.9c0 .5 0 .7-.2.6Z" fill="#686868"/><path d="M149.2 90.6a3 3 0 0 1-1.3 2.3c-.8.6-1.7.9-2.9.7-1-.2-1.9-.7-2.8-1.5l-.5-.5c-.3-.3-.8-1.3-1.1-2.2l-.1-.2c-.2-1 0-2.4.7-3.4 1-1.2 1.5-1.4 2.2-1.3l.4.2c.4.1.8.4.8.7 0 .4-.3.9-.8 1.3-.3.3 0 0 0 .4s-.3.2-.2.6c.2.3.7 0 .7 0 1-.6 1.6-.8 2.1-.8h.4c.7.1 1.7.7 2.1 1.5 0 0 .4 1.2.3 2.2Z" fill="#ABABAB"/><path d="m175.4 97.1-.1.7c0 .3-.1.6-.3.8-.3.4-.9.8-1.3.3-.5-.5-1-.7-.9-1.5v-.2c.2-.8.7-1.5 1.2-1.6 1.1-.2 1.5 1.3 1.4 1.5Z" fill="#BBBABA"/><path d="M170.4 90.7a5 5 0 0 1-1.1 1.2l-.8.5c-1.7 1-3.4 2-4.3 3-.5.7-.8 1.3-.7 2 0 1.4.4 1.8 1 2.1l.8.4.5.3c-.6 2-3.2 2.8-5.6 3.2-.8-.8-1.6-1.5-3-1.7h-.5c-1 0-2 .2-2.8.6l-.1-.4c0-.7-1.3-2-3.8-1.5-2.5.4-3.6 2.5-3.6 2.5s1.4-.6 1.8 0c.4.7 0 2-1 2.5-1 .7-3 .6-2.8-1.6 0-1-.2-1.5-.7-1.6 2.3-3.6 6.3-3.8 9.2-3.9 3 0 3.2-.6 4.3-1.3 1-.7 1.7-.8 2.1-1.6l1-2 .3-1c3.6-2.5 9.4-7 9.8-6.6l.4 1c.4 1.3.5 2.7-.4 4Z" fill="#ABABAB"/><path d="M170.4 90.7a5 5 0 0 1-1.1 1.2l-.8.5c-1.7 1-3.4 2-4.3 3-.2-.7-.5-1.4-1.1-1.5-1.3-.1-1.7 0-2.6.8 0 0 1.3-3 3.7-4.5 4.1-2.8 5.4-1.6 5.6-.8l.6 1.3Z" fill="#B3B2B2"/><path d="M164.7 87.8c-.2.9-2.7 5.7-3.6 6.3-.8.5-1.2 1.6-1.7 2-.5.5-.5.2-1.3.8-.4.4-.6.4-.8 0 1-.6 1.6-.7 2-1.5l1-2c.5-1 .2-1.7.1-2.3 0-.7-1-.7-1-1.7 0-1.1-1.2-2.2-3.2-2.5-2-.2-2.1-.2-3.2-1.3s0-3.5 1-4.5c1.2-.9 3-2 8-1l.8.3c.5 1.2 1 2.6 1.5 3.2 1.1 1.1-.3 1.4.2 2.6.5 1 .5.6.2 1.6Z" fill="#909090"/><path d="M169.3 91.9v-.2c.6-3-3.8-1.7-4.9-1.2-1 .6-1.8 1.5-1.3.3s.6-1.4.5-2.2c0-.7.5-.1.8-.5.2-.4-.3-3-2.1-3.3-1.3-.2-1.7.1-2 .6-.2-.3-.6-.6-1.2-.8 0 0-2-2.6-5-1.3a5 5 0 0 1 6.5.6s1.4-.5 2.7.7c0 0 .1-2.7-4.5-3.8h-.2c.7-.1 1.4 0 2.3.3-.1 0-1.1-.9-2.7-1.3 1 0 2.3 0 3.9.4.3 0 .5 0 .8.2 4.5 1.1 7.5 4.6 8 6.4.4 1.8.4 3.6-1.6 5Z" fill="#878787"/><path d="M167.4 104.3c-.8 1.7-3.3 1.7-5.2.7-.9-.4-1.4-1-2-1.6-.8-.8-1.6-1.5-3-1.7h-.5a3 3 0 0 1-.5-.8c-.4-1.4 1.1-2.1 1.7-1.9l1.1.7s.3-1 1.2-.7c1 .4 1.3 1.1.8 1.3-.4.2-.8-.2-.8-.2s.2 1 1.6 1c1.4 0 1.5-1 1.3-1.5 0-.5 0-.9.4-.6l1 .5.8.4.5.3c1 .8 2.3 2.6 1.6 4Z" fill="#BBBABA"/><path d="M162 103s1.4-.5 2.2.3c.9.9.4 1.1-.2 1.3-.6.3-1.3.1-1.6-.3-.4-.3-.4-.7-.6-.9 0-.1 0-.4.2-.4Z" fill="#B3B1B1"/><path d="M162.7 101.8c-.3 0-.2.4.2.5 0 0-.4.3 0 .3s.9 0 1.4.3c.6.4.6.4.5 0 0-.3-1.2-1.4-2.1-1.1Z" fill="#A6A5A5"/><g opacity=".7" fill="#A8A6A9"><path opacity=".7" d="M163.6 105.5c-.3 0-.5-.1-.8-.3l.8.3ZM165 116c-2.5 1-5.2-.5-6 1.8-.8 2.2 4 2.5 3.5 6.6-.3 2.8-8.8-2.6-14.3-6.7.5-2 1.7-3.7 3.4-4 2.7-.3 4.2 1.3 6.8.7 2.6-.6 2.6-2.7 1.6-3.7s-1.3-3 0-2.7c1.3.2 3.5 1 3.2 0l-.3-1c1.4.4 2.6 1 3.3 2.2 1.7 2.7 1.4 5.8-1.2 6.8Z"/></g><path d="M153.3 109.1c-1.1-.7-3-1.6-5-.7 0 0 .7-1.7 3-1.2 1.2.3 1.7 1.2 2 2Z" fill="#A4A3A3"/><path d="M154 110.3s.1-.7 1.2-.4c1.1.3 2 1.1 2.5.9 0 0-.2.5-1 .2-.7-.3-1.1-.6-1.8-.4 0 0-.2-.5-1-.3Z" fill="#99989A"/><path d="M160.6 114s.8-.6 1.7-.3c.9.2 1 .9 1 .9s-1-.8-1.5-.6c-.5.2-1.2 0-1.2 0Z" fill="#9E9C9D"/><path d="M162.3 111.4s.5-1 1.4 0c0 0 0-.8-.6-1-.4 0-.8 1-.8 1Z" fill="#A09FA1"/><path d="M165.7 92s.7-.2 1 .5c0 0 .8-.3 1.2-.1 0 0-.5-.4.4-.6 0 0-.6-.5-1.5.1 0 0-.5-.7-1 0ZM165 92.7c-.7-.1-1.6-.1-2.3.5 0 0 .2-1.1 1.4-1 .5 0 .8.3.9.5Z" fill="#909090"/><path d="M147.8 110.8c-1.3-.5-3 .4-3 .4s-.2 0 .3-.7c.5-.6-.4-2-.4-2 1.8.3 1.3 1.8 1.3 1.8 1-.3 1.5.1 1.8.5Z" fill="#A4A3A3"/><path d="M159.5 86.8s.4-1.2 2-1c1.8.3 1.5 2.3 1.5 2.3s-.4-1.4-1.7-1.7c-1-.3-1 0-1.8.4ZM160.2 89.4s-.3-.9.6-1c.8 0 1 1 1 1s-.5-.6-.9-.6-.7.6-.7.6ZM153.5 84.8s0-1.3 2-1c2 .3 1.7 2.2 1.7 2.2s-.5-1.5-1.2-1.6c-.8-.2-1.4 0-1.4.6s.5.6 1 .4c0 0-.1 1-1 .8-.9-.3-1.3-1-1-1.4ZM154.7 81.9s-.3-1 1-1.2c1.4-.2 2.3 1.3 2.3 1.3s-1-1-1.9-1c-1 .2-1.1.2-1.4.9Z" fill="#878787"/><path d="M147.2 101.8s.3-1.6 3-2c2.8-.3 3.5 1.7 3.5 1.7s-1.3-1.6-3.6-1c-2.2.5-2.9 1.3-2.9 1.3ZM148.2 108.4s.6-1.8 3.4-1.1c0 0-.4-1.2-2-.8-1.7.4-1.4 2-1.4 2Z" fill="#909090"/><path d="M176.5 82.2c-.2.5-.5.8-1.2.7-.7 0-.9-1-.6-1.2.2-.2.4-.6.4-1 .4 0 .7.3.6.7 0 .7.1.9.6.8h.2Z" fill="#ABABAB"/><path d="M168.8 73.8c-.3.6-.8 1.4-1.2 1.6-.6.1-.8-.4-.6-.8l.5-1.3c.5-.3.8-.3 1.3.5ZM156.5 69c-.8.6-1.5.4-2.2-.8l-.2-.4c.4-.6 1.1-1 2.6-.7 0 0-.8-.6-.3-1.7.5.4.8 1 1 1.3 0 .6-.2 1.5-1 2.2Z" fill="#909090"/><path d="M158.3 63.8c-.7.5-.1 1-.5.8-.3-.2 0-.4-.5-1.1 0-.4 0-1 .6-1.2.5.4.8 1.2.4 1.5ZM147.9 80.8c-.2 0-.4 0-.6.4-.3.3-.4.3-.7.3-.2 0-.7-.4-1-.8.2-.2.5-.3 1-.1.8.3 1.2-.3 1.5-.8v.4c0 .5 0 .7-.2.6Z" fill="#797A79"/><path d="M144 92.7s.4-1.1 2.3-.2l.7-.3s-1-.5-.8-1.4c.2-.8 1.2-1 1.2-1s-.4.2-.4-.4c0-.6-.2-1-.7-.8-.6.1-.6 1-.6 1s-1.5.4-1.4 1.3c0 0-1.3 0-.3 1.8Z" fill="#B3B1B1"/><path d="M149.2 90.6a3 3 0 0 1-1.3 2.3c-.8.6-.9-.4-.6-.9.2-.1.3-.4.4-.6l.3-1v-.8c0-.5-.5-.8-1-1.2l-.5-.5c-.3-.5-.1-.8.2-1 .7.1 1.7.6 2.1 1.4.1.2.5 1.3.4 2.3Z" fill="#909090"/><path d="M154.8 68.2c0 .1.3-1 1.4-.8 0 0-.8 0-1.4.8Z" fill="#797A79"/><path d="M175.3 97.8c0 .3-.1.6-.3.8-.3.4-.9.8-1.3.3-.5-.5-1-.7-.9-1.5v-.2c.4.5.8 1 1.3.8l1.2-.2Z" fill="#ABABAB"/><path d="M143.1 86c-1 .5-1 .7-2 2.2l-.6 1c-.2-1-.1-2.4.7-3.4.9-1.2 1.5-1.4 2.1-1.3l.5.2c-.1 0-.2.1-.1.2.2.6.5.6-.6 1.1Z" fill="#909090"/><path d="M141 88.5s-.1-1 .6-1.8 1.4-1.3 2-1.1c.6.2 0 .2-.6.5-.5.3-1.6 1.5-2 2.4Z" fill="#B3B1B1"/><path d="M151 158.8s7 1.8 13 .4c6-1.5 3.4-7.2 3.4-7.2s-8.7 1-9.3 1.6c-.6.7-2.4 1.2-3 2-.7.8-4 3.2-4 3.2Z" fill="#272A56"/><path d="M117.9 137.8c-.5-.4-8.3.4-11.9 3-3.6 2.5-1.5 9.8-1.5 9.8l2 4.4 3.6-.6s21.6-3 7.8-16.6ZM80.7 147.7l-.5-.2c-.7-.3-2-1-2.4-1.7-.4-.9-2.4-7.3-2.6-7-.3.2-.8 1.2-.8 1.5 0 .3-3.7 4.4-3.7 4.4h-2.6l-.6-.8c-.2-.4-1-1.7-1-3.2 0-.6.1-1.3.4-2a15 15 0 0 1 7.1-6.6c3.4-1 5 3.3 6.2 5 1.3 1.5.6 10.5.5 10.6Z" fill="#987A00"/><path d="M124.2 153.3c0 2.3 3 2.2 3.5 4.1.3 1.4-1.3 5.3-3 6.2a40 40 0 0 1-9.3.9c-3 0-6.5-5-6.5-11.2 0-7.5 3.9-11 6.5-11.4 4.5-.6 6.7.3 7.7 1.5 1.7 2 1.1 6 1.1 10Z" fill="#272A56"/><path d="M116.1 159.3c1.6 0 3-2.5 3-5.6 0-3.1-1.4-5.7-3-5.7s-3 2.6-3 5.7 1.4 5.6 3 5.6Z" fill="#fff"/><path d="M82 144c0 2 1 2.1 1.5 3.7.3 1.1-.9 3.9-2 4.6-1 .7-5.7.7-7 .7-2.4 0-5.3-3.9-5.3-9s3.2-9.3 5.4-9.3c1.3 0 5.6 0 6.4 1 1.4 1.7 1 5 1 8.3Z" fill="#272A56"/><path d="M179.3 142.4c-.1.5-.5 1-.4 1.2l.1 1c0 .1 0 .4-.2.6-.3.7-.2.7-.2 1.4l.2 2v.8c0 .7-.1 2.7-1.2 3.4-1 .7-.4.8-3.4 1.8s-8.5 3.3-18.8 4.7c-6.8 1-16.9 2.5-26 .7-3-.6-5.1-1.2-6.6-1.8l-.2-6.1c0-.8-.1-1.8-.4-2.9-.6-3.2-2.3-7-5.2-7.8-3.5-1-6.2.6-7.4 2.4a24 24 0 0 0-3 11.3L80 148.4l.1-1c.1-1 .2-2.9 0-5-.2-1.6-.3-3.5-1.1-5.2-2.4-4.9-6.5-4.6-8.6-1.6-1 1.3-1.3 2.5-1.7 3.9-.3 1-.5 2.3-.7 4v1.2s-3.5-.8-4-1.2c-.5-.4-.6-.7-.6-1.3v-4.5c0-.5.2-.7.7-.7h1.2s-.6-2.7-.6-4.7c0-.9 0-2.6.3-4.6a45.4 45.4 0 0 1 1.7-8c2.3-5.5 4-7.6 6-9.7a31 31 0 0 1 10.4-7 52 52 0 0 1 19-4.2c8.9-.5 19.2 1 24.8 2.2a33 33 0 0 1 12.4 4.6 171 171 0 0 1 18.7 16.1l.7.4.3.1 1.4.8h.2l.3.2 2.1 1 .5.3 1 .5.4.2.6.3 1.2.6.3.2.3.2.7.4.6.3.6.4.3.2.3.2.3.1.2.1v.1l1 .7.1.1.2.2.1.1s.5 0 .7.3c.2.1.1 1.2.9 2 .4.3 1.1.5 1.4.8l.2.2.3.1c.5.7 2.3 1.8 2 3 0 0 .8.2 1.8 2 1 1.5.4 4 .2 4.5Z" fill="#F2C037"/><path d="M111.3 126.7v.5h-1s-1 1.6-3.8 1.6c-2.6 0-3.4-1.6-3.7-2.5l.1-1.5c0 .2.1 1.5 1 2.1l.4.4c1 .5 2.2.6 3.2.5 1.6-.3 2-.7 2.3-1l.5-.5c0 .1 0 .5.3.5h.7Z" fill="#D8B12D"/><path d="M143.6 151.3c-.4.4-1 1.6 3.7 1.4 4.6-.3 25.2-2.5 30.5-7.3 5.4-4.8-20.5.2-20.5.2l-13.7 5.7Z" fill="#DFAA20"/><path d="M67.1 125.7c-.2.5-.7 2.1-1.5 2H65l1-5.9c.6.1 1.2.3 1.6 1.3.6 1.3-.3 2-.6 2.6Z" fill="#F07E5B"/><path d="M68.8 139.5c-.3 1.1-.5 2.4-.7 4.1v1.1s-3.5-.7-4-1.1c-.5-.4-.6-.7-.6-1.3v-4.6c0-.4.2-.6.7-.7v.1c.4 1 0 1.7.4 2.3.3.6.8 1.2 1.9 1.3h.4c.8-.1 1.5-.7 2-1.2Z" fill="#D59F14"/><path d="M70.5 131.8s3.7-2.7 7.3 0a12 12 0 0 1 4.4 6.6s.5-5.6-3.9-8.4c-4.4-2.8-7.8 1.8-7.8 1.8Z" fill="#F9CD75"/><path d="M108 147.2a24 24 0 0 0-1.5 7.8l-26.4-6.5s.4-2.7 0-6c.7 1.7.7 4.4 3 5.3 2.6 1.1 16.5 4.7 19.1 5 2.6.3 3.7-1.2 4.5-3.3a6 6 0 0 1 1.3-2.3Z" fill="#D59F14"/><path d="m83.9 142-.4 1c0 1 .2 1.7 1.3 2.1 1.1.5 16 4.7 16.5 4.6.6-.1.6-.6.3-.9-.4-.3-16.9-7-17.3-7-.2 0-.3.1-.4.3ZM109.2 139.1s3.6-2.8 9-.6c5.4 2.2 7.4 8 7.4 8h.5s-.3-4.9-3.4-8c-3.2-3.2-8.8-5-13.5.6Z" fill="#F9CD75"/><path d="M178.8 149.4c0 .7-.1 2.7-1.2 3.4-1 .7-.4.8-3.4 1.8s-8.5 3.3-18.8 4.7c-6.8 1-16.9 2.5-26 .7-3-.6-5.1-1.2-6.6-1.8l-.2-6.1c0-.8-.1-1.8-.4-2.9.4.6.8 1.4 1 2.5.9 3.4 1 5 1.8 5.2.8.3 3 1.6 9.8 1.8 6.8.2 8-.9 8.3-1 .3-.3 1.8-.2 3.8-.2 2 0 7.3-.5 10.3-1 3-.5 11.3-2.5 14-3.5 2.4-1 6.3-2 7.6-4.4v.8Z" fill="#D59F14"/><path d="M179.3 142.4c-.1.5-.5 1-.4 1.2l.1 1c-1.5.5-3.3.4-4.1.3-1 0-1.7.3-1.7.3-7.8 3-21.8 4.8-21.8 4.8-4 2.3-6.5 3-9.2 2.6-2.7-.4-4-2.7-4.6-6-.5-3.2-1-4.2-5.7-9-4.8-5-11.7-8-11.7-8-1-1.6-5.5-13.8-11.7-19.3a30 30 0 0 0-19.9-7c-3-.1-6.4.3-8.4 1.3l3-1.5 1.7-.7 2-.7 1.3-.5c3.6-1.1 8-2.1 14-2.4 7.7-.4 16.5.7 22.3 1.8l2.5.4a33 33 0 0 1 12.5 4.7 170.8 170.8 0 0 1 18.6 16l.1.1.6.3.3.2 1.5.7h.1l.4.2 2 1.1.5.2 1 .5.4.2.6.4 1.2.5.3.2.4.2.6.4.6.3.6.4.4.2.3.2.3.1.1.1.1.1 1 .7v.1l.2.2.2.1s.4 0 .7.2l1.6 1.6 1 1.2v.5c.1 0 .2-.5.3-.4l2 3s.6.4 1.6 2.2c1 1.7.4 4.3.2 4.7Z" fill="#F7C85F"/><path d="M129.4 103.8s-1.3 1.1-3 1.8c-1.8.8-4 1.2-5.2-.5-1.3-1.7-9.3-3-17.9-3.3-9-.2-18.4.8-18.4.8v-.2l2-.7 1.3-.5c1.1 0 4.1-.7 6-.7 5.8-.1 12.7-.4 19.3.1 9.3.8 15.9 3.2 15.9 3.2Z" fill="#F6C14E"/><path d="m135.4 107.6-9-2-2.8-.6s-9.9-6-18.8-5.6c-7.4.3-14.3 2.1-17.9 2.3l1.3-.5c3.7-1.1 8-2.1 14-2.4 7.7-.4 16.5.7 22.4 1.8l1.3.4c5.4 2.2 9.5 6.6 9.5 6.6Z" fill="#F9BC5E"/><path d="M130.7 136.5a42.7 42.7 0 0 0-9.6-6.3 3 3 0 0 1-1.4-1.4l-.6-1.2c-1.9-4.2-5.8-12.8-10.6-17.2-.1 0-.1 0 0-.1h.1c5 4.3 8.9 13 10.7 17.2l.6 1.2c.3.6.7 1 1.3 1.3a43.1 43.1 0 0 1 9.6 6.5Z" fill="#C69D47"/><path d="M165.5 134.8c-2.1.5-1.8-.7-3.2-.2-1.4.4-3.2 1-7 1.2-3.8.1-7.2-1.1-5.5-1.8 1.7-.6 4.5.4 9.2-4.1 2.2-2.2 2.2-4.8 1.5-7l6.9 3.6 1.2.6c1 3.7-1.1 7.1-3 7.7Z" fill="#FFD880"/><path d="M134.7 142c2 1.4 5.7 3 9.4 2.6 2.8-.2 2.8-.2 3-.8.2-.6.3-1-.5-2-.7-.9-3.2-3.8-6-4.9-2.6-1-8-.8-10 .6-1.5 1.1 1.2 2.3 4.1 4.5Z" fill="#F3F3F3"/><path d="M70.4 124.6s9-.4 21.8 3a41.1 41.1 0 0 1 17.2 7.9s-4.6-2.1-8-2.3c0 0-10-6.3-31-8.6Z" fill="#D8B12D"/><path d="M89.3 106.8 86.8 136c0 .1.2.3.4.3l.3-.3 2.1-29.1h-.3Z" fill="#A4921C"/><path d="M86.8 107.1c.5 0 1 .4.9.9l-.3 3.3-1 10.4c0 .5-.5.8-1 .7l-12.3-2.7c-.8-.1-1.2-1-1-1.7.4-.7.7-1.5 1.2-2.2.8-1.5 2-3 3.5-4.3 3.7-3.2 7.8-4.1 10-4.4ZM97 131.8h-.1l-4-1a.5.5 0 0 1-.4-.7c0-.3.3-.4.6-.3l4 1c.3 0 .4.3.4.6 0 .2-.3.4-.5.4ZM75 125.6l-2.4-.4c-.2 0-.4-.2-.3-.5 0-.2.2-.4.5-.3l2.2.3c.3 0 .4.3.4.5s-.2.4-.4.4Z" fill="#272A56"/><path d="m87.7 108-.3 3.3a8.6 8.6 0 0 0-6.2-.6c-2.6.7-5.7 3-8 5 1-1.5 2-3 3.6-4.3 3.8-3.1 7.8-4 10-4.3.5 0 1 .4.9.9Z" fill="#38385E"/><path d="M75.1 149c1.4 0 2.5-2.1 2.5-4.7s-1.1-4.7-2.5-4.7c-1.3 0-2.4 2-2.4 4.7 0 2.6 1 4.7 2.4 4.7Z" fill="#fff"/><path d="M154.3 120c.7.7.6 1.9-.2 2.4-1.3 1-3.5 2-7.2 2.9a81.8 81.8 0 0 1-23.4 1c-.5 0-.9-.3-1.1-.7a105.7 105.7 0 0 1-9.6-15.4c-.4-.8 0-1.8.7-2.1a47.6 47.6 0 0 1 22.8-2.6 45.6 45.6 0 0 1 9.5 6.7c3.7 3 6.5 5.7 8.5 7.9Z" fill="#292955"/><path d="M140.5 108.2c-2.4-.2-5.2-.2-8.6 0-12.8.4-15.6 4.7-15.8 8l-3.3-6c-.5-.8-.1-1.8.7-2.1a47.6 47.6 0 0 1 22.8-2.6c1 .6 2.5 1.4 4.2 2.7Z" fill="#38385E"/><path d="M147.1 143.8c-.2.6-.2.6-3 .8a14.7 14.7 0 0 1-9.6-2.8c1 .3 2 .6 3 .6 2.3 0 3.8-1.2 3.9-2.7 0-1-.2-2-1-2.9l.3.1c2.7 1 5.2 4 6 5 .7.8.6 1.3.4 1.9Z" fill="#E6E3E1"/><path d="M177.5 135.6c-.3.5-.6 1-1 1.2-.4.5-1.1.6-2.1-.5-.5-.5-1-1.7-1.5-3-.5-1.4-1-3-1-3.5v-.4s.4 0 .6.2l1.7 1.6 1 1s1 .9 1.5 1.6c.6.7.8 1.8.8 1.8Z" fill="#F3F3F3"/><path d="M177.4 135.7c-.2.5-.5.8-.8 1.1-.5.5-1.2.6-2.2-.5-.5-.5-1-1.7-1.5-3 .4.5.8.8 1.1.8 1.2 0 1.1-1 1.7-.4.7.7.7 2 1.3 1.4.2-.2.5.5.4.6Z" fill="#E6E3E1"/><path d="M153.9 144a31.8 31.8 0 0 1-5.2-.4h.1c.2 0 14.6 2 24.7-5.3h.1v.2a34 34 0 0 1-19.7 5.6Z" fill="#C69D47"/><path d="M110.8 125.3a4.5 4.5 0 0 0-7-2c-.4.4-.7.9-.9 1.4-.1.5-.2 1 0 1.6h-.1c-3.8-1.2-9.3-2.2-12-2.7a1 1 0 0 1-.7-1.1l1-11.5v-.5c0-.7 0-1.3.2-1.8 0-.7.7-1.2 1.4-1 4.4.5 9.1 2.3 12 5.3a29.7 29.7 0 0 1 6.1 10.1c.4 1.9 0 2.2 0 2.2Z" fill="#272A56"/><path d="m110.2 121.4-1.5-2.1c-7.5-10.5-15.7-8.9-17.6-8.3v-.5l.2-1.7c0-.8.7-1.2 1.4-1.1 4.4.5 9.1 2.3 12 5.3 2.5 2.7 4.5 6.1 5.5 8.4Z" fill="#38385E"/><path d="m111.2 25.2-5.5 6.8-1.3-.8-1.3-.8s-.1-.3-.8.4c-.7.7-3 1.3-5 1.4h-4.9s-.5-1.8-.7-3.6c-.3-1.6-.2-3.4.7-4.2 1.9-2 3.2-2.5 6.3-2.9 3.1-.4 4.5-.7 5.6 0 .7.5 3.2 1.7 5 2.7l1.9 1Z" fill="#FFD4C9"/><path d="m111.2 25.2-5.5 6.8-1.3-.8-1.3-.8s-.1-.3-.8.4c-.7.7-3 1.3-5 1.4h-4.9s-.5-1.8-.7-3.6c1.1.8 3 1.6 5.4 1.1 4.6-1 5.2-1.5 5.8-1.3.6 0 1.4.8 2.7-.5 1-.9 2-3 3.7-3.7l1.9 1Z" fill="#ECBABE"/><path d="M98.1 21s-2.7 2.8-1.5 7.2c1.2 4.5 5 .6 5 .6s-6 3.3-7 2.8c-.9-.6-1 1.7-2.7-1.3-1.6-3.1-9.4-2.7-.6-7.5s6.8-1.7 6.8-1.7Z" fill="#ECBABE"/><path d="M91.5 158h-1.1l-45.1-3.2-7.7-.6-4.4-.3h-.8v.6l-.6 2.8-6.8 39.4 30.2 5.3 7.3-24h1l2.5 24 30.2-.8 3.5-38.8.2-3 .1-.8-8.5-.6Zm-58.3-1.6v.5s-.5.2-.9-2c.2.6.4 1 .9 1.5Z" fill="url(#a)"/><path d="M91.5 158h-1.1l-45.1-3.2-7.7-.6-4.4-.3h-.8v.6l-.6 2.8c.7 1.1 2 2.5 4 4 8 5.4 23.8 10.4 43.7 7a81 81 0 0 0 20.2-5.9l.2-3 .1-.8-8.5-.6Zm-58.4-1s-.3 0-.7-2c0 .5.3 1 .8 1.4v.5Z" fill="#1E1F4D"/><path d="M96.3 39.4c-.2 1.6-2.4 1.3-2.4 1.3s0 1.6-1 4.2l-.9 2c-.6 1-1.2 1.5-1.7 1.8-.8.3-4.3.5-5 .2-.9-.4-.9-.3-1.2-.3-.4 0-1.2 2.2-.9 5.9.3 3.6 1.9 4.4 1.9 4.4l-2.5 2.4s-24.5-.5-22.4-3c2.2-2.4 2.3-3.7 2.6-6.5.4-2.8-.2-7.1-.2-7.1s3.5-2.9 7-4.3c3.4-1.5 5-5.7 7.6-8.5 2.6-2.7 3.2-2.8 7.6-4 4.4-1 5.9-2.3 6.5-2.7.7-.4 3.3 0 3.3 0s-.4 3.4 0 6c.2 2.2 0 3.3.5 4.6l.3.7c1 1.6 1.1 1.2.9 2.9Z" fill="#FFD4C9"/><path d="m95.1 35.7-.9-.4c-1.7-1.1-1.2-3.3-1.8-3.7-.6-.5 0-.8-1-1.4l-4-1.7s-1.7.8-2.5 1.5c-.7.7 2.3-.8 2.3.7s2.7 4 2.7 4 .1 2.6-2.1 2.3c-2.3-.3-2.6-.6-2.6-.6s-2 1.8-3.2 4c-1 2.2-2.3 5-3.3 6.5-1 1.4-2.4 3.5-4.4 4.3-2 .7-9.1-.7-10.7 5 0 0 4.5 3 9 3.4 4.7.5 7.5-.2 8.3-2.9.7-2.6-.4-8.5 1.3-13.2 0 .2-.6 3.7 4 4.1 2.5.3 4.5-.3 5.8-.8-.6 1.1-1.3 1.6-1.8 1.8-.7.4-4.2.6-5 .2-.8-.3-.8-.2-1.2-.2-.4 0-1.1 2.2-.8 5.8.2 3.7 1.8 4.5 1.8 4.5l-2.4 2.4s-24.6-.5-22.4-3c2.2-2.4 2.3-3.7 2.6-6.5.3-2.8-.3-7.1-.3-7.1s3.5-2.9 7-4.3c3.5-1.5 5.1-5.8 7.7-8.5 2.5-2.8 3.2-2.8 7.6-4 4.4-1.1 5.9-2.4 6.5-2.7.7-.4 3.2 0 3.2 0s-.3 3.4 0 6c.3 2.2.1 3.3.6 4.5Z" fill="#ECBABE"/><path d="M99.4 15.4c0 4-1 8.3-2 9.2-1 1-1.8.8-2.5 1.8 0 0-.4.3-.9-.4-.4-.6-2-.7-2.6 1.8-.6 2.4-.6 4.3-.6 4.3s-.4-3.4-3.4-2.8c-3 .6-2.7 3.8-3.2 5.4-.5 1.6-3.8 4.4-5.3 7.3-1.4 3-1.3 6.2-10.5 6.8-2 0-5.7-.9-6-1.5-.5-.6-1-1.8-1.5-3.3-.4-1.5-2-5.2-2.7-6.6-.5-1.4-2.2-2.4-2.6-3.8l-1.2-3.5-.3-1.3-.3-1.7c0-2.1.8-5.2 3.5-7.2l-.2-.5s-1 .6-1.6-.5c0 0 .4-1 1.9-.9 0 0 0-3 1.3-3.3 0 0 1 .9.2 2.8 0-.1 2.6-4.4 4.7-5 0 0 .8-2 4-3.3 3.2-1.2 4.7-1.8 6-1.8 0 0 .6-3 6.4-4.2 0 0 1.9-3.8 6.3-3 4.5.9 3.4 3 4.5 3.8.7.6 1.1 1.7 1.6 2.2.2.2.4.3.6.2.8-.3 2.6-.2 3.2 1.1l1.8 3.1a10 10 0 0 1 1.4 4.8Z" fill="#2B2B57"/><path d="M92.4 6.2c-.8-.2-2.2-1-3.2-1.4-1.3-.6-2.1-.2-2.4.8-.2 1-5 .7-6.2.9-1.1.2-.8 1.3-.2 2.5.6 1 1.1 2-.5 3.4-1.7 1.3-1.4.2-4.1-.2-2.7-.3-3.5.7-3.5 2.4s-1.9 3.1-3.2 3.1c-1.4 0-.2-1.7.3-2.9.4-1.1-.3-1.5-1.3-1.8-1-.2-1.6 1.5-1.5 2.5 0 1-1.1 2-2.4 1.7-1.4-.3-2.3-.3-4 1-1.7 1.4-2.2 4.1-2 5.7 0 1.6-1 4.7-2 5-1.2.2-.8-1.4-.8-1.4s.3-.7-.4.4c-.3.5-.7.7-1 .9l-.2-1.8c-.1-2.1.8-5.2 3.5-7.2l-.2-.4s-1.1.5-1.6-.6c0 0 .3-1 1.8-.9 0 0 0-3 1.3-3.3 0 0 1 .9.2 2.9.1-.2 2.7-4.5 4.7-5 0 0 .9-2 4-3.3 3.3-1.3 4.8-1.9 6-1.9 0 0 .6-3 6.5-4.1 0 0 1.8-4 6.3-3 4.5.9 3.4 3 4.5 3.8.7.6 1.1 1.7 1.6 2.2Z" fill="#363666"/><path d="M99.4 15.4c0 4-1 8.3-2 9.2-1 1-1.8.8-2.5 1.8 0 0-.4.3-.9-.4-.4-.6-2-.7-2.6 1.8-.6 2.4-.6 4.3-.6 4.3s-.4-3.4-3.4-2.8c-3 .6-2.7 3.8-3.2 5.4-.5 1.6-3.8 4.4-5.3 7.3-1.4 3-1.3 6.2-10.5 6.8-2 0-5.7-.9-6-1.5-.5-.6-1-1.8-1.5-3.3-.4-1.5-2-5.2-2.7-6.6-.5-1.4-2.2-2.4-2.6-3.8l-1.2-3.5c.5.8 1.1 1.6 2 2 2.3 1.2 4.3 1 6.1-1 1.8-2.2.2.9.8 2.5.7 1.7 4.4 6 9.6 3 0 0 .3.7-.5 1.1 0 0 3.7-.5 5.2-3.8 1.6-3.2 2.4-8.7 5.7-9.4 1.7-.4 3-.3 3.7-.1-.2-.4-.6-.8-1-.8 0 0 4.8-.2 6 .5l4.2-2.5s-3.5-2-5.6-1.3c0 0-.7-.7 1.1-1.1 1.8-.5 4-1.6 5.2-3.5 1-1.6 1.5-3 1.2-5 .7 1.2 1.3 2.9 1.3 4.7Z" fill="#1A1A48"/><path d="M77.2 26.4a14.7 14.7 0 0 1 3.3-3c.3-.4.8-.6 1.3-.8l.2.1v.3a70.8 70.8 0 0 0-4.8 3.4ZM86.7 22.7s4.2-.2 5.2 1.7c1 2 2.8-.7 2.8-.7l2.1-1.5s.5-1.7-.2-1.8l-2.8-.6H92s2.2.8 2.4 1.7c0 0-1.9-1.3-4-.6 0 0 3.2.3 3.5 2l-2.5-.7.5.5s-2.8-.8-5.2 0ZM95.3 13.4v1.2c0 .4-.3.7-.5 1l-.8.7-.4.4-.4.2H93v-.2l.4-.3.4-.3.7-.7a2.4 2.4 0 0 0 .4-1.8l.1-.3.3.1ZM92.7 8c0-.3.1-.4.3-.5l.4-.4h.3L94 7h.5l.1.1.1.1.2.1.4.4.6.7v.2c-.1.1-.2 0-.2 0l-.3-.4L95 8l-.4-.3h-.1l-.1-.1h-.1c-.3-.2-.5-.2-.7 0-.3 0-.4.3-.5.6-.1.1-.2.2-.4.1-.2 0-.2-.2-.1-.3Z" fill="#1A1A48"/><path d="M147.7 49.8a24.1 24.1 0 0 0-4.4-7c-7.5-9.2-26.2-19-27-19.3-.7-.2-1 .1-1 .1s-3.1-1.3-4.3-.8c-.4.1-1.3 1.1-2.4 2.5-2.5 3.1-6 8-5.7 9.1a5.9 5.9 0 0 0 1.7 2.7s-1.2 2.2-.2 3.7 7.6 5.8 9.3 7.2c1.6 1.5 2.7 2 2.7 2a23 23 0 0 0-5.6 4.4l-1.8 1.9-2 .5a23.9 23.9 0 0 0-6.7 4.1l-2.9.2c-2 .2-2 .5-2 .5-3.7-1.3-7.3-.5-7.3-.5-.5-1-2.6-3.3-2.6-3.3l-1 .4a24 24 0 0 1-7 1.4l-3.7.1c-8.4.2-9.9-1.3-11.4-1.9-.7-.2-1-.5-1.1-.7-.2-.2-.4-.3-1.2-.1-1.3.3-3.1 2.2-3.4 2.5 0 0-1.1 0-3.4.8l-.8.3c-2.7.9-8 2-13 3.3-5.8 1.4-12.4 9-22 23l-2.2 3.4A172.4 172.4 0 0 0 .3 120c-.4 2.4.3 4.7 4 10a109.6 109.6 0 0 0 21.3 23.4c2.5 2 3.1 3 4.7 2.6 1.7-.3 2-2.3 2-2.3v.9l.1.3c.1.6.4 1 1 1.5.6.6 1.7 1.2 3.7 2.2 4.1 2 14 5.4 26.9 6.3a79 79 0 0 0 36-5.5l.3-.1.8-.4c.2-1.3 1.8-9.5 1.8-10.1.1-.7.5-.9.5-.9 1 .5 2.6-1 3.7-3.4l.2-.6c.5-2.3-1.7-5-2-6-.5-1.2 0-3.5.3-8.3.3-4.8-.5-18.3-.5-18.3l.1-.7.2-1v-.6l.2-.7v-.8l.2-.8V105c.3-3.5.2-6.2.2-6.2l.5-1.5v-.2l.1-.4v-1.2c2-1.2 4.6-4.5 4.6-4.5 2.7-1.2 6.7-4.3 17.2-13.5 10.6-9.3 14.7-14 15.4-15 .8-1.2 1.6-1.4 3-4 1-1.7 2.5-4.3.9-8.7ZM35.2 112.2a25 25 0 0 1-2 9c-.8 2.2-1.6 5.5-1.7 7.7l-3.7-5.9-2-3.2s1.7-.7 4-3.7c2.4-3 5-7.7 5-7.7l.4 3.8Z" fill="#F35833"/><path d="m105.1 138-.1-1v-.7l.4-6.6V122.5l-.4-11 .1-.8.2-1 .1-.6v-.7l.1-.3v-.4l.2-.8v-.7l.1-1.1a238 238 0 0 1-19.7 9.5H86l-1.4.6-.4.2a43.5 43.5 0 0 1-16.1 4.4c-2.3-.2-5.3-1.2-8.4-2.5l-1.2-.5c-8.5-3.9-17.7-10.4-18.2-14.3-.5-3.7.1-8.8.3-12v-2.6l-.3-.5c-1.1-.8-1.9 3.3-3.3 5.6l-.6 1-1.2 1.4c-1.3 1.4-2.8 2.8-4.1 5.1l-.5.9-.8 1.3a85.4 85.4 0 0 1-10.6 12.5c-4 3.6-2 .3-4.8 0s.9 3.4-7.5 5.5c-3.2.8-5.3.4-6.7-.5l-.2 1.3c0 2 1 4.3 4 8.6a108.8 108.8 0 0 0 21.5 23.5c2.5 1.9 3 2.9 4.7 2.5 1.2-.2 1.7-1.5 1.9-2v-.3a7.6 7.6 0 0 0 .2 1.2c0 .6.3 1 .8 1.5.7.6 1.9 1.2 3.8 2.2a77.1 77.1 0 0 0 34.5 6.6c6.4-.1 12-1 16.5-2a73.4 73.4 0 0 0 11.8-3.7h.2l.3-.2.7-.3 1.2-6.4v-.4l.1-.3.6-3c0-.4.1-.6.3-.8l.2-.1c1 .4 2.5-1 3.6-3.4l.2-.6.1-.6c.1-2.3-1.8-4.6-2.1-5.6Zm-71.4-18.3-.6 1.6c-.7 2-1.5 5.4-1.7 7.6l-3.7-6-1.9-3s1.6-.8 4-3.8a63 63 0 0 0 5-7.7l.4 3.7v.4c0 1.5-.8 5.7-1.5 7.2Z" fill="#E55533"/><path d="M15.2 90.3c-1.6 4.3-5.4 15-8.5 19a62.1 62.1 0 0 1-4.1 4.6c2.3-5.5 6.7-14.5 12.6-23.6Z" fill="#CB482A"/><path d="m101.9 141-.1.4v-.3Z" stroke="#2B2B57" stroke-miterlimit="10"/><path d="M105.1 138c-.4-1.3 0-3.6.4-8.4.3-4.8-.5-18.2-.5-18.2l.1-.7.2-1v-.7l.2-.7v-.7l.1-.8v-.7l.2-1.1-4.7 2.4-1.1 5.3c-1 2.6-5.6 3.8-5.6 3.8s3.5.4 5.2-.1c1.7-.5 1.4 0 2.3 1.4.8 1.3.2 7 .2 7s.2.6 1.5 2c1.3 1.3 1.3 10.6.3 8.9-1.1-1.7-4.5-2.7-4.5-2.7s1.9 1.6 2.6 3.3c.7 1.5 0 4-.2 4.8l1.4-.7c1.8-.6 4.5.8 3 3.3s-5.2.9-5.2.9 0 .6-2 2-3.2-.7-3.2-.7l.4-.9c-4.3 3.7-9.6.7-9.6.7 1.6 2.7 6.1 3.5 6.1 3.5-7.2 3.9-15 5.3-15 5.3l4.6.2-12.2 1c3.6-1 5-2.8 5-2.8-23.9 3.5-27-8-27-8 7-2.2 8-7.7 8-7.7-3.6 3.2-10.7 3-13.1 2.5-2.5-.5-4.7-4.4-6-8.2-1.5-3.8-.6-8.8 1.1-10.6 1.7-1.7 6.5-1.5 6.5-1.5s-4.3-3-5.6-10.4a42.2 42.2 0 0 1 1.7-18.6c.7-3 1.2-6 .6-4.3l-.7 1.7a28.1 28.1 0 0 1-3.8 5.7l-.4.4-1.2 1.4c-1.3 1.6-3 3.7-4.6 6l-.8 1.2c-2.3 3.8-2.2 11.4-4.1 13.2-2 1.8-2.3-1.2-2.3-1.2s-1.7 3.8-.6 7c1 3.2.7 4 .7 4 .7 0 1-.9 1-.9.7 1-.1 3.7-.1 3.8 1.7-1 1.3-2.8 1.3-2.8s3.5 8 2.2 9.9c-1.3 1.8-3.4 1.3-3.4 1.3-1.5 6-6.5 3.5-6.5 3.5 3.8-2.4 1.6-5.5 1.6-5.5-.2 3.6-7 2.3-9.5-1.7s1-8 1-8c-.5 1-.2 1.8-.2 1.8 0-.9 2-3.5 1.9-4-.3-.3-1.2.4-1.9 1-.7.8-2.6.5-4.3 0-1.7-.3-2.1 0-4.3-.7C1 123 .5 121.3.2 120c-.5 2.3.2 4.6 3.9 9.9a109.6 109.6 0 0 0 21.4 23.5c2.5 2 3 2.9 4.7 2.6 1.6-.3 2-2.3 2-2.3a7.5 7.5 0 0 0 0 1.2c.2.6.5 1 1 1.4.7.6 1.8 1.3 3.7 2.2 4.2 2.2 14 5.5 27 6.4 15.7 1.2 27-2.1 32.7-4.2.2-.1.4.5.5.4l2.8-.7v-1l.2-.2.8-.3 1.9-10.2c0-.6.5-.8.5-.8 1 .4 2.5-1 3.6-3.4l.2-.6c.6-2.2-1.7-5-2-6ZM29.8 116c2.4-3 4.9-7.7 4.9-7.7l.4 3.8a25 25 0 0 1-2 9c-.7 2.2-1.5 5.5-1.7 7.7l-3.7-5.9-2-3.2s1.7-.7 4-3.7Zm61.1 44.4c-2.4.4-11.6 1.7-23.7 1.8-12 0-22.8-4.2-26.3-5.5-2.9-1-3.5-1.8-3.3-2.6 0-.2 0-.3.2-.5 1-1.7 2.6-1.3 4-.4l3.4 1.5a68.1 68.1 0 0 0 19.2 4.4c9.5.4 22.9-.6 25.6-1.2h1.5c1.4.4 1.3 2.1-.6 2.5Z" fill="#CB482A"/><path d="M65.6 104.1S58.4 120 49.9 127c-.2.2-.2.6 0 .8l.5.5.5.1c1-.2 5.1-1 8.2-4.4 0 0-4.2 2-6 2.4 0 0 6.8-5.9 12.5-22.2ZM76.7 102.4s5.7 6.5 8.2 14.7c0 0 0-2.5-1.4-5.5l3 3.3c-.1 0-4.4-8.1-9.8-12.5ZM67.8 138a3.5 3.5 0 0 1-.7 1.6 2.1 2.1 0 0 1-1.5.9l-.1-.1v-.2c.3 0 .5-.2.7-.3l.5-.5.3-.7.2-.7c0-.1.1-.3.3-.3.2 0 .3.2.3.4ZM73.8 132.3s1.2 10.8 15 6.9c0 0-8.7.7-10.5-1.9-1.8-2.5-3.8-2.4-4.5-5ZM38.2 64.7c.4-.1.9 0 1.2.3l.8 1c.3.7.6 1.5.7 2.2a33.8 33.8 0 0 1 .5 4.6 80.8 80.8 0 0 1-.1 9.2l-.2-.1v-4.6a80 80 0 0 0-.8-9c-.1-.6-.3-1.4-.7-2-.1-.3-.3-.6-.6-.8-.2-.3-.5-.5-.8-.5L38 65c0-.1 0-.2.2-.2ZM96.6 78.2c-.3-.6-.6-1.2-.8-2a16.2 16.2 0 0 1-.2-6.3l.3-1 .2-1 .2-.5.2-.5.3-1 .8-2 1-1.9a1 1 0 0 1 1.2-.4c.4.3.6.8.4 1.2v.1L99 64.6l-1 1.8-.4 1-.1.4-.2.5-.4 1-.2.9a15.8 15.8 0 0 0-.4 6c0 .6.2 1.3.5 2v.1h-.2Z" fill="#CB482A"/><path d="M107 56.8c-.8 1-2.8 2.3-3.4 2.6-.8.2-2.3 1.5-2.3 1.5h1c-1.6 1-3.1 3.2-3.1 3.2s-.6-.3-1 .5-2.8 7.9-2.4 4.9c.4-3 2.2-7.4 2.4-8 0-.2-.4-.4-.8-.4l2.8-.2s3-2.7 6.8-4.1ZM118.5 48c2.3-1.4 4.5 0 4.5 0-7 .4-5.7 6.2-5.7 6.2-1.3-1-.5-2.8-.5-2.8-1 .7-3.2 7-3.2 7V55c0-1.7-1.5-1.3-2.8-.6 1.6-1.6 4-3.7 5.5-4.4 0 0-1-.5-2.7-2-1.6-1.5-8.2-5.7-9.2-7.2-1-1.6.2-3.7.2-3.7s-1.4-1.2-1.8-2.7c-.2-1 3.2-6 5.7-9.1.2 1.1-3.7 6.9-4.2 7.8-.6 1.2-.3 1.7-.3 1.7 3.3-6.3 9.5-9.3 9.5-9.3-7.5 7.6-9.3 13.9-8.1 15 1.1 1.1 4.5 3.9 6.3 5.2 1.8 1.3 2 1.5 3.5 1.2 1.4-.2 2.9-3 5.1-3.8 2.3-.7 6.7 1.2 7 1.3-5.3-.9-11.1 5-8.8 3.6ZM57.7 62a8 8 0 0 0-5.3-1.4l.8-.3c2.3-.9 3.4-.8 3.4-.8 1.3 1 1 2.5 1 2.5Z" fill="#CB482A"/><path d="M146.8 58.5c-1.4 2.6-2.2 2.8-3 4-.7 1-4.8 5.7-15.4 15A97.7 97.7 0 0 1 111.2 91s-2.7 3.3-4.6 4.5l-.2 1.8a23 23 0 0 1-5-3.4c-7-5.7-3.9-7.9-3.9-7.9 4.9 2.9 6.4-1.3 12.1-3.6 5.8-2.3-3.3-.3 1.4-2 4.8-1.8 4-1.9 7.4-3.7a86.4 86.4 0 0 0 21-21c3.2-5 4.2-9.4 4.5-12.1 2 2.4 3 4.5 3.7 6.2a9 9 0 0 1-.8 8.7Z" fill="#E65533"/><path d="m58.8 61.9 1.9.8 1.9.7 3.9 1 1 .2 1 .1 2 .3 2 .2 2 .2s.1 0 0 .2h-4.1l-2-.2-1.1-.2-1-.2a27.2 27.2 0 0 1-7.7-3V62h.2ZM77.7 65a34.2 34.2 0 0 0 8.6-2.7c.9-.5 1.7-1 2.5-1.7h.5v.6c-1 .6-1.8 1.2-2.7 1.6a25.3 25.3 0 0 1-5.9 2 26.8 26.8 0 0 1-3.1.4v-.1ZM146.8 58.5c-1.4 2.6-2.2 2.8-3 4-.7 1-4.8 5.7-15.4 15A97.7 97.7 0 0 1 111.2 91s-2.7 3.3-4.6 4.5c0 0 .1 1.6-.7 3.3v6.2l-.3 2.5-2 1.3s-3.3 5-2.5-1.4c.8-6.4-1.4-10.4-1.4-10.4-5-7.7-2.8-11.5-2.8-11.5 0 3.7 4 7 7 7.7 2.9.8 9.2-4.2 10.6-8.1 1.5-3.9 2.8-8 2.8-8-.6 6.3 1.3 6.3 6 3.4 4.6-2.8 15.3-14.4 15.3-14.4-5.1.6-5.6-1-5.6-1 5.7.4 8.6-1.8 9.5-3 .8-1.3 2.1-4.3 2.1-4.3-2.1 1.5-3.8.6-3.8.6s2.3-.7 5.1-2.5c1.8-1.1 2-4 1.7-6a9 9 0 0 1-.8 8.6Z" fill="#CB482A"/><path d="M32.4 136.9c-.3.5-1.5 2.5-.9 5.5s3.6 4.8 3.6 4.8c-1.2-.1-1.8-.6-1.8-.6a32.8 32.8 0 0 0 0 8.9v.8c-.6-.4-.8-.8-1-1.4v-.4c-.3-2.5.4-8.5.4-8.5s-1.8-1.7-2-4.1c-.3-3.5 1.1-5.6 1.1-5.6-.7-3-.6-6.4-.6-6.4-1.4-3.1-4.7-8.4-5-8.7a104.4 104.4 0 0 1 5 7.1c.6-3.4 1.3-5.6 2-7 .5-1.4 1-1.9 1-1.9-2 5.5-1.2 4.3-2 8.7-.7 4.3.4 7.6.4 7.6.8-1.2 2.6-1.2 3.5-1-1.4.3-3 .8-2.8 2.2.5 2.7 6.4 3.2 6.4 3.2-7.1.5-7.3-3.2-7.3-3.2ZM37.4 147.5c1 .7 2.3 1.3 3.6 1.8l.9.4 1 .4 1.8.7a74 74 0 0 0 15.9 3.6l4 .4a199.2 199.2 0 0 1 4.2.6H64.6l-4.1-.4-2-.2-1.1-.2-1-.2-2-.3-2-.4c-2.7-.6-5.4-1.3-8-2.3l-1.9-.8-1-.4a14.4 14.4 0 0 1-1.8-1l-.8-.4c-.6-.4-1.2-.7-1.7-1.2-.1 0-.1-.1 0-.2h.2ZM77.7 154.3a117.4 117.4 0 0 0 18.9-3c2-.6 4-1.3 5.6-2.6h.2v.2c-.7.8-1.6 1.5-2.5 2a17.8 17.8 0 0 1-3 1.4c-2 .8-4.2 1.2-6.3 1.6a69.7 69.7 0 0 1-13 .6l.1-.2Z" fill="#BB452B"/><path d="M107.2 144c0 .2 0 .4-.2.6-1 2.4-2.7 3.8-3.6 3.3 0 0-.5.3-.5 1l-2 10-.7.4a41 41 0 0 0 1.5-6.8c.3-3.4 0-3.7 0-3.7s-1 .4-.9-.2c0-.5 1.5-1 1.7-1 0 0-1.8-.5-1.4-1.8 0 0 1 1.5 2.8 1 1.2-.4 2.6-2 3.3-2.8Z" fill="#CB482A"/><path d="m38.3 94.3-1 2.3-.4 1.2-.4 1.2c-.4 1.6-.8 3.3-1 4.9l-.1 2.5v2.5l.1 1.3.2 1.2v.6l.2.6.3 1.2-.1.2h-.2c-.5-1.7-.9-3.3-1-5V107.7l-.1-1.3c0-.8 0-1.7.2-2.5a27.1 27.1 0 0 1 3-9.7h.2s.1 0 0 .1Z" fill="#BB452B"/><path opacity=".7" d="M94.7 25.2a44.4 44.4 0 0 0-.1 5.4v1c.2.8.1 1.5.2 2.2 0 .8.1 1.5.5 2l.5 1 .6 1c.1.3.2.7.1 1.1 0 .4-.2.7-.4 1-.3.4-.7.6-1 .6h-1.2.2c0 1-.3 2-.5 3-.3 1-.7 1.9-1.2 2.8l-.8 1.3a4 4 0 0 1-1.3.9l-.7.3-.7.2-1.6.1V49a8.7 8.7 0 0 0 2.3-.3l.7-.3c.4-.3.8-.5 1.2-1a17 17 0 0 0 2.4-7v-.1h.1c.7.1 1.5 0 1.9-.5l.4-1c0-.3 0-.6-.2-1l-.5-.9-.5-1c-.4-.6-.5-1.3-.5-2v-2.3l-.2-1v-1.2a37.5 37.5 0 0 1 .2-4.4v.2Z" fill="#1A1A48"/><path d="M33.9 167.6c.9.5 1.8 1 2.7 1.3l.7.3.7.3 1.4.5a80.2 80.2 0 0 0 11.7 3.3h.7l.8.2 1.5.3 3 .4s.1.1 0 .2v.1l-1.6-.1-1.5-.2-1.5-.2-.8-.1-.7-.2-1.5-.3-1.5-.3-3-.7a60.3 60.3 0 0 1-11.3-4.6v-.2h.2Z" fill="url(#b)"/><path d="M55.9 175.9a66.7 66.7 0 0 1-1.9 8l-1.2 3.9c-.4 1.2-.9 2.6-1.5 3.8h-.2v-.1c.5-1.3 1-2.6 1.3-3.9l1.2-3.9L56 176Z" fill="url(#c)"/><path d="M34 168.3a123.2 123.2 0 0 0-1.8 13.4v4.5a8.5 8.5 0 0 0 1.3 1.9l1.6 1.6c1.2 1 2.7 1.8 4.1 2.3 1.5.5 3.1.8 4.7.9 1.6 0 3.2 0 4.8-.2h.2l-.1.2c-1.6.3-3.3.4-4.9.4-1.6 0-3.2-.3-4.8-.8a13.7 13.7 0 0 1-6.2-4l-.7-1a7 7 0 0 1-.7-1v-.1a35.5 35.5 0 0 1 .5-9.2 83 83 0 0 1 1.9-9.1v.2Z" fill="url(#d)"/><path d="M33.8 173.5c.7.5 1.5.8 2.2 1.1l1.2.5 1.1.5a40.7 40.7 0 0 0 9.8 2.3l2.5.2a73.1 73.1 0 0 0 2.7.3l-.2.1h-2.5l-2.5-.2-1.3-.1-1.2-.2c-.5 0-.9-.2-1.3-.3l-1.2-.2a36.9 36.9 0 0 1-6-2l-1.2-.5-2.3-1.2v-.2h.2Z" fill="url(#e)"/><path d="M51.3 188.8c-.1 0-.2-.1-.1-.2l.5-1.3.1-.1.1.2-.5 1.3Zm1-2.7h-.1s-.1-.1 0-.2l.3-1.3.1-.2.2.2-.4 1.4h-.2Zm.6-2.8-.1-.1.3-1.4.2-.1v.1l-.2 1.4-.2.1Zm.7-2.7c-.2 0-.2-.1-.2-.2l.3-1.4.2-.1v.1c0 .5 0 1-.2 1.4l-.1.2Zm.5-2.8-.1-.2a59.8 59.8 0 0 0 .4-1.5l.1.2s0 .5-.3 1.4h-.1Z" fill="url(#f)"/><path d="M33.6 176.3h-.1v-.8l.2-.1c.1 0 .2 0 .1.1v.7l-.2.1Z" fill="url(#g)"/><path d="m33.2 181.6-.2-.1a322.5 322.5 0 0 0 .3-1.5l.1.2v1.3l-.2.1Zm.2-2.6-.2-.2.1-1.3.2-.1.1.1v1.3l-.2.2Z" fill="url(#h)"/><path d="M33 183.6v-.8l.1-.1.2.1v.7l-.2.1Z" fill="url(#i)"/><path d="M92.1 171a60.2 60.2 0 0 1-11.7 3.3l-3 .3-1.5.2-1.6.1h-1.5l-1.5.1h-3.1l-.1-.1.1-.2h3l1.5-.2h1.6l6-.8 6-1.2 1.4-.4.8-.2.7-.2c1-.3 2-.6 2.8-1l.2.1v.2Z" fill="url(#j)"/><path d="m69.2 176.5 1.4 8 .7 4a88.5 88.5 0 0 0 .9 4.1H72a63.3 63.3 0 0 1-1.8-8l-.6-4-.4-4.1Z" fill="url(#k)"/><path d="M92.2 171.3a81.9 81.9 0 0 1 .1 18.3v.1l-.8 1-.8 1-2 1.5c-1.5.8-3 1.4-4.6 1.7-1.7.3-3.3.4-5 .3-1.5-.2-3.2-.5-4.7-1l-.1-.1.2-.1c1.5.4 3.1.7 4.7.8 1.6 0 3.2 0 4.7-.4a13.4 13.4 0 0 0 6.3-3.3 12 12 0 0 0 1.4-1.8v.1a33 33 0 0 0 .8-9l-.1-4.5-.4-4.5.1-.2.2.1Z" fill="url(#l)"/><path d="M91.6 176.9a24.2 24.2 0 0 1-3.6 1.4l-1.2.3-5 1h-1.3l-1.3.1h-5.1l-2.5-.3-.1-.1c0-.1 0-.2.1-.1l2.5.1h2.6a42 42 0 0 0 14.9-2.5c.1 0 0 0 0 0Z" fill="url(#m)"/><path d="M72.3 189.8v-.1l-.4-1.4.1-.2s.2 0 .2.2c0 .5.2 1 .3 1.3l-.1.2Zm-.5-2.8h-.2l-.2-1.5.1-.2.2.1.2 1.4-.1.2Zm-.4-2.8-.2-.1-.2-1.4.2-.2.1.1.2 1.4-.1.2Zm-.4-2.8-.1-.2-.1-1.4.1-.1.2.1v1.4c.1 0 0 .2 0 .2Zm-.2-2.9-.1-.1a135.5 135.5 0 0 1 0-1.6 132 132 0 0 0 0 1.7Z" fill="url(#n)"/><path d="m91.3 179.4-.1-.1v-.7l.1-.2.2.2v.7l-.2.1Z" fill="url(#o)"/><path d="m91.2 184.7-.2-.1v-1.3l.2-.2c.1 0 .2 0 .2.2v1.3l-.2.1Zm0-2.6v-1.6l.2.1v1.3l-.1.2Z" fill="url(#p)"/><path d="M91 186.8V185.9l.1-.1.2.1-.1.7-.1.2Z" fill="url(#q)"/><path d="M33.9 167.6c.9.5 1.8 1 2.7 1.3l.7.3.7.3 1.4.5a80.2 80.2 0 0 0 11.7 3.3h.7l.8.2 1.5.3 3 .4s.1.1 0 .2v.1l-1.6-.1-1.5-.2-1.5-.2-.8-.1-.7-.2-1.5-.3-1.5-.3-3-.7a60.3 60.3 0 0 1-11.3-4.6v-.2h.2Z" fill="url(#r)"/><path d="M55.9 175.9a66.7 66.7 0 0 1-1.9 8l-1.2 3.9c-.4 1.2-.9 2.6-1.5 3.8h-.2v-.1c.5-1.3 1-2.6 1.3-3.9l1.2-3.9L56 176Z" fill="url(#s)"/><path d="M34 168.3a123.2 123.2 0 0 0-1.8 13.4v4.5a8.5 8.5 0 0 0 1.3 1.9l1.6 1.6c1.2 1 2.7 1.8 4.1 2.3 1.5.5 3.1.8 4.7.9 1.6 0 3.2 0 4.8-.2h.2l-.1.2c-1.6.3-3.3.4-4.9.4-1.6 0-3.2-.3-4.8-.8a13.7 13.7 0 0 1-6.2-4l-.7-1a7 7 0 0 1-.7-1v-.1a35.5 35.5 0 0 1 .5-9.2 83 83 0 0 1 1.9-9.1v.2Z" fill="url(#t)"/><path d="M33.8 173.5c.7.5 1.5.8 2.2 1.1l1.2.5 1.1.5a40.7 40.7 0 0 0 9.8 2.3l2.5.2a73.1 73.1 0 0 0 2.7.3l-.2.1h-2.5l-2.5-.2-1.3-.1-1.2-.2c-.5 0-.9-.2-1.3-.3l-1.2-.2a36.9 36.9 0 0 1-6-2l-1.2-.5-2.3-1.2v-.2h.2Z" fill="url(#u)"/><path d="M51.3 188.8c-.1 0-.2-.1-.1-.2l.5-1.3.1-.1.1.2-.5 1.3Zm1-2.7h-.1s-.1-.1 0-.2l.3-1.3.1-.2.2.2-.4 1.4h-.2Zm.6-2.8-.1-.1.3-1.4.2-.1v.1l-.2 1.4-.2.1Zm.7-2.7c-.2 0-.2-.1-.2-.2l.3-1.4.2-.1v.1c0 .5 0 1-.2 1.4l-.1.2Zm.5-2.8-.1-.2a59.8 59.8 0 0 0 .4-1.5l.1.2s0 .5-.3 1.4h-.1Z" fill="url(#v)"/><path d="M33.6 176.3h-.1v-.8l.2-.1c.1 0 .2 0 .1.1v.7l-.2.1Z" fill="url(#w)"/><path d="m33.2 181.6-.2-.1a322.5 322.5 0 0 0 .3-1.5l.1.2v1.3l-.2.1Zm.2-2.6-.2-.2.1-1.3.2-.1.1.1v1.3l-.2.2Z" fill="url(#x)"/><path d="M33 183.6v-.8l.1-.1.2.1v.7l-.2.1Z" fill="url(#y)"/><path d="M92.1 171a60.2 60.2 0 0 1-11.7 3.3l-3 .3-1.5.2-1.6.1h-1.5l-1.5.1h-3.1l-.1-.1.1-.2h3l1.5-.2h1.6l6-.8 6-1.2 1.4-.4.8-.2.7-.2c1-.3 2-.6 2.8-1l.2.1v.2Z" fill="url(#z)"/><path d="m69.2 176.5 1.4 8 .7 4a88.5 88.5 0 0 0 .9 4.1H72a63.3 63.3 0 0 1-1.8-8l-.6-4-.4-4.1Z" fill="url(#A)"/><path d="M92.2 171.3a81.9 81.9 0 0 1 .1 18.3v.1l-.8 1-.8 1-2 1.5c-1.5.8-3 1.4-4.6 1.7-1.7.3-3.3.4-5 .3-1.5-.2-3.2-.5-4.7-1l-.1-.1.2-.1c1.5.4 3.1.7 4.7.8 1.6 0 3.2 0 4.7-.4a13.4 13.4 0 0 0 6.3-3.3 12 12 0 0 0 1.4-1.8v.1a33 33 0 0 0 .8-9l-.1-4.5-.4-4.5.1-.2.2.1Z" fill="url(#B)"/><path d="M91.6 176.9a24.2 24.2 0 0 1-3.6 1.4l-1.2.3-5 1h-1.3l-1.3.1h-5.1l-2.5-.3-.1-.1c0-.1 0-.2.1-.1l2.5.1h2.6a42 42 0 0 0 14.9-2.5c.1 0 0 0 0 0Z" fill="url(#C)"/><path d="M72.3 189.8v-.1l-.4-1.4.1-.2s.2 0 .2.2c0 .5.2 1 .3 1.3l-.1.2Zm-.5-2.8h-.2l-.2-1.5.1-.2.2.1.2 1.4-.1.2Zm-.4-2.8-.2-.1-.2-1.4.2-.2.1.1.2 1.4-.1.2Zm-.4-2.8-.1-.2-.1-1.4.1-.1.2.1v1.4c.1 0 0 .2 0 .2Zm-.2-2.9-.1-.1a135.5 135.5 0 0 1 0-1.6 132 132 0 0 0 0 1.7Z" fill="url(#D)"/><path d="m91.3 179.4-.1-.1v-.7l.1-.2.2.2v.7l-.2.1Z" fill="url(#E)"/><path d="m91.2 184.7-.2-.1v-1.3l.2-.2c.1 0 .2 0 .2.2v1.3l-.2.1Zm0-2.6v-1.6l.2.1v1.3l-.1.2Z" fill="url(#F)"/><path d="M91 186.8V185.9l.1-.1.2.1-.1.7-.1.2Z" fill="url(#G)"/><path d="M103.2 148.2c-.2.1-.3.4-.3.7l-.6 3.3-.1.4-1.2 6.3-.3 1.6c-.1.4-.5.7-1 .7-2 0-6.2 1-11.7 2-4.5 1-10.1 1.8-16.5 1.9l-7.6-.1c-12.9-.8-22.7-4.3-26.9-6.4-2-1-3-1.6-3.7-2.2-.5-.4-.8-.8-1-1.4v-1.3.3-3.6c-.2-1.6.4-4.5.4-4.5-.2 1.8 0 8.1.7 9.3.8 1 5.3 3.6 10.7 5.4 5.5 1.7 10.5 3.4 24.6 3.6 14.1.1 19.1-1.8 24.6-2.8l2.8-.5c2.7-.4 3-.4 3.5-1.1l.2-.4c.7-1.3 1.2-5.3 1.5-7 .4-1.7.2-2.8.8-4.2.4-.8.8-.5 1.1-.1Z" fill="#BB452B"/><path d="M38.7 153.1V158.8c0 .1 0 .2-.2.2l-.1-.2-.2-1.4V156c0-1 0-2 .2-2.9 0 0 0-.1.1 0h.2ZM45.4 157a8 8 0 0 1-.5 3.6h-.2v-.1a33 33 0 0 0 .4-3.6l.2-.1.1.1ZM52.3 158l.2 1v1c0 .6 0 1.2-.3 1.9H51.9v-2l.1-1.9s.1-.1.2 0h.1ZM59.4 158.7a6.6 6.6 0 0 1 .3 2v1l-.1 1c0 .2-.1.2-.2.2l-.1-.2v-3l-.2-1h.1c.1-.1.2 0 .2 0ZM67.5 159.2l.2 1v1.1l-.1 1.1c0 .4-.2.7-.3 1l-.2.1H67v-2.1l.2-2.1c0-.1 0-.2.2-.1h.1ZM74.3 159.2v4H74l-.2-1v-2c0-.4 0-.7.2-1l.1-.1.2.1ZM79.5 159a10.6 10.6 0 0 1 .5 3.3l-.1.1h-.2l-.3-.9a7 7 0 0 1-.1-.8V159l.1-.1.1.1ZM86.1 158l.4 1.9v2l-.2-.2-.4-1.8v-2c.2 0 .2 0 .2.2ZM92.3 157c.3.2.3.5.4.8l.2.9.2 1.8-.1.1h-.2l-.5-1.8a8 8 0 0 1-.2-.9c-.1-.2-.2-.5 0-.9 0 0 0-.1.1 0h.1Z" fill="#BB452B"/><defs><linearGradient id="a" x1="63" y1="179.5" x2="61.5" y2="198" gradientUnits="userSpaceOnUse"><stop stop-color="#2B2B57"/><stop offset="1" stop-color="#2A2A53" stop-opacity="0"/></linearGradient><linearGradient id="b" x1="45.6" y1="168.4" x2="44.5" y2="193.2" gradientUnits="userSpaceOnUse"><stop stop-color="#131B49"/><stop offset=".4" stop-color="#181E4B" stop-opacity=".6"/><stop offset=".9" stop-color="#262751" stop-opacity=".1"/><stop offset="1" stop-color="#2A2A53" stop-opacity="0"/></linearGradient><linearGradient id="c" x1="54.1" y1="168.8" x2="53.1" y2="193.6" gradientUnits="userSpaceOnUse"><stop stop-color="#131B49"/><stop offset=".4" stop-color="#181E4B" stop-opacity=".6"/><stop offset=".9" stop-color="#262751" stop-opacity=".1"/><stop offset="1" stop-color="#2A2A53" stop-opacity="0"/></linearGradient><linearGradient id="d" x1="41" y1="168.2" x2="40" y2="193" gradientUnits="userSpaceOnUse"><stop stop-color="#131B49"/><stop offset=".4" stop-color="#181E4B" stop-opacity=".6"/><stop offset=".9" stop-color="#262751" stop-opacity=".1"/><stop offset="1" stop-color="#2A2A53" stop-opacity="0"/></linearGradient><linearGradient id="e" x1="43.8" y1="168.3" x2="42.7" y2="193.1" gradientUnits="userSpaceOnUse"><stop stop-color="#131B49"/><stop offset=".4" stop-color="#181E4B" stop-opacity=".6"/><stop offset=".9" stop-color="#262751" stop-opacity=".1"/><stop offset="1" stop-color="#2A2A53" stop-opacity="0"/></linearGradient><linearGradient id="f" x1="53.4" y1="168.7" x2="52.3" y2="193.6" gradientUnits="userSpaceOnUse"><stop stop-color="#131B49"/><stop offset=".4" stop-color="#181E4B" stop-opacity=".6"/><stop offset=".9" stop-color="#262751" stop-opacity=".1"/><stop offset="1" stop-color="#2A2A53" stop-opacity="0"/></linearGradient><linearGradient id="g" x1="34" y1="167.9" x2="32.9" y2="192.7" gradientUnits="userSpaceOnUse"><stop stop-color="#131B49"/><stop offset=".4" stop-color="#181E4B" stop-opacity=".6"/><stop offset=".9" stop-color="#262751" stop-opacity=".1"/><stop offset="1" stop-color="#2A2A53" stop-opacity="0"/></linearGradient><linearGradient id="h" x1="33.9" y1="167.9" x2="32.8" y2="192.7" gradientUnits="userSpaceOnUse"><stop stop-color="#131B49"/><stop offset=".4" stop-color="#181E4B" stop-opacity=".6"/><stop offset=".9" stop-color="#262751" stop-opacity=".1"/><stop offset="1" stop-color="#2A2A53" stop-opacity="0"/></linearGradient><linearGradient id="i" x1="33.8" y1="167.9" x2="32.7" y2="192.7" gradientUnits="userSpaceOnUse"><stop stop-color="#131B49"/><stop offset=".4" stop-color="#181E4B" stop-opacity=".6"/><stop offset=".9" stop-color="#262751" stop-opacity=".1"/><stop offset="1" stop-color="#2A2A53" stop-opacity="0"/></linearGradient><linearGradient id="j" x1="80.3" y1="169.9" x2="79.2" y2="194.7" gradientUnits="userSpaceOnUse"><stop stop-color="#131B49"/><stop offset=".4" stop-color="#181E4B" stop-opacity=".6"/><stop offset=".9" stop-color="#262751" stop-opacity=".1"/><stop offset="1" stop-color="#2A2A53" stop-opacity="0"/></linearGradient><linearGradient id="k" x1="71.4" y1="169.5" x2="70.3" y2="194.4" gradientUnits="userSpaceOnUse"><stop stop-color="#131B49"/><stop offset=".4" stop-color="#181E4B" stop-opacity=".6"/><stop offset=".9" stop-color="#262751" stop-opacity=".1"/><stop offset="1" stop-color="#2A2A53" stop-opacity="0"/></linearGradient><linearGradient id="l" x1="84.4" y1="170.1" x2="83.3" y2="194.9" gradientUnits="userSpaceOnUse"><stop stop-color="#131B49"/><stop offset=".4" stop-color="#181E4B" stop-opacity=".6"/><stop offset=".9" stop-color="#262751" stop-opacity=".1"/><stop offset="1" stop-color="#2A2A53" stop-opacity="0"/></linearGradient><linearGradient id="m" x1="82" y1="170" x2="80.9" y2="194.8" gradientUnits="userSpaceOnUse"><stop stop-color="#131B49"/><stop offset=".4" stop-color="#181E4B" stop-opacity=".6"/><stop offset=".9" stop-color="#262751" stop-opacity=".1"/><stop offset="1" stop-color="#2A2A53" stop-opacity="0"/></linearGradient><linearGradient id="n" x1="72.1" y1="169.6" x2="71" y2="194.4" gradientUnits="userSpaceOnUse"><stop stop-color="#131B49"/><stop offset=".4" stop-color="#181E4B" stop-opacity=".6"/><stop offset=".9" stop-color="#262751" stop-opacity=".1"/><stop offset="1" stop-color="#2A2A53" stop-opacity="0"/></linearGradient><linearGradient id="o" x1="91.7" y1="170.4" x2="90.6" y2="195.3" gradientUnits="userSpaceOnUse"><stop stop-color="#131B49"/><stop offset=".4" stop-color="#181E4B" stop-opacity=".6"/><stop offset=".9" stop-color="#262751" stop-opacity=".1"/><stop offset="1" stop-color="#2A2A53" stop-opacity="0"/></linearGradient><linearGradient id="p" x1="91.8" y1="170.4" x2="90.7" y2="195.3" gradientUnits="userSpaceOnUse"><stop stop-color="#131B49"/><stop offset=".4" stop-color="#181E4B" stop-opacity=".6"/><stop offset=".9" stop-color="#262751" stop-opacity=".1"/><stop offset="1" stop-color="#2A2A53" stop-opacity="0"/></linearGradient><linearGradient id="q" x1="91.8" y1="170.4" x2="90.7" y2="195.3" gradientUnits="userSpaceOnUse"><stop stop-color="#131B49"/><stop offset=".4" stop-color="#181E4B" stop-opacity=".6"/><stop offset=".9" stop-color="#262751" stop-opacity=".1"/><stop offset="1" stop-color="#2A2A53" stop-opacity="0"/></linearGradient><linearGradient id="r" x1="45.6" y1="168.4" x2="44.5" y2="193.2" gradientUnits="userSpaceOnUse"><stop stop-color="#131B49"/><stop offset=".4" stop-color="#181E4B" stop-opacity=".6"/><stop offset=".9" stop-color="#262751" stop-opacity=".1"/><stop offset="1" stop-color="#2A2A53" stop-opacity="0"/></linearGradient><linearGradient id="s" x1="54.1" y1="168.8" x2="53.1" y2="193.6" gradientUnits="userSpaceOnUse"><stop stop-color="#131B49"/><stop offset=".4" stop-color="#181E4B" stop-opacity=".6"/><stop offset=".9" stop-color="#262751" stop-opacity=".1"/><stop offset="1" stop-color="#2A2A53" stop-opacity="0"/></linearGradient><linearGradient id="t" x1="41" y1="168.2" x2="40" y2="193" gradientUnits="userSpaceOnUse"><stop stop-color="#131B49"/><stop offset=".4" stop-color="#181E4B" stop-opacity=".6"/><stop offset=".9" stop-color="#262751" stop-opacity=".1"/><stop offset="1" stop-color="#2A2A53" stop-opacity="0"/></linearGradient><linearGradient id="u" x1="43.8" y1="168.3" x2="42.7" y2="193.1" gradientUnits="userSpaceOnUse"><stop stop-color="#131B49"/><stop offset=".4" stop-color="#181E4B" stop-opacity=".6"/><stop offset=".9" stop-color="#262751" stop-opacity=".1"/><stop offset="1" stop-color="#2A2A53" stop-opacity="0"/></linearGradient><linearGradient id="v" x1="53.4" y1="168.7" x2="52.3" y2="193.6" gradientUnits="userSpaceOnUse"><stop stop-color="#131B49"/><stop offset=".4" stop-color="#181E4B" stop-opacity=".6"/><stop offset=".9" stop-color="#262751" stop-opacity=".1"/><stop offset="1" stop-color="#2A2A53" stop-opacity="0"/></linearGradient><linearGradient id="w" x1="34" y1="167.9" x2="32.9" y2="192.7" gradientUnits="userSpaceOnUse"><stop stop-color="#131B49"/><stop offset=".4" stop-color="#181E4B" stop-opacity=".6"/><stop offset=".9" stop-color="#262751" stop-opacity=".1"/><stop offset="1" stop-color="#2A2A53" stop-opacity="0"/></linearGradient><linearGradient id="x" x1="33.9" y1="167.9" x2="32.8" y2="192.7" gradientUnits="userSpaceOnUse"><stop stop-color="#131B49"/><stop offset=".4" stop-color="#181E4B" stop-opacity=".6"/><stop offset=".9" stop-color="#262751" stop-opacity=".1"/><stop offset="1" stop-color="#2A2A53" stop-opacity="0"/></linearGradient><linearGradient id="y" x1="33.8" y1="167.9" x2="32.7" y2="192.7" gradientUnits="userSpaceOnUse"><stop stop-color="#131B49"/><stop offset=".4" stop-color="#181E4B" stop-opacity=".6"/><stop offset=".9" stop-color="#262751" stop-opacity=".1"/><stop offset="1" stop-color="#2A2A53" stop-opacity="0"/></linearGradient><linearGradient id="z" x1="80.3" y1="169.9" x2="79.2" y2="194.7" gradientUnits="userSpaceOnUse"><stop stop-color="#131B49"/><stop offset=".4" stop-color="#181E4B" stop-opacity=".6"/><stop offset=".9" stop-color="#262751" stop-opacity=".1"/><stop offset="1" stop-color="#2A2A53" stop-opacity="0"/></linearGradient><linearGradient id="A" x1="71.4" y1="169.5" x2="70.3" y2="194.4" gradientUnits="userSpaceOnUse"><stop stop-color="#131B49"/><stop offset=".4" stop-color="#181E4B" stop-opacity=".6"/><stop offset=".9" stop-color="#262751" stop-opacity=".1"/><stop offset="1" stop-color="#2A2A53" stop-opacity="0"/></linearGradient><linearGradient id="B" x1="84.4" y1="170.1" x2="83.3" y2="194.9" gradientUnits="userSpaceOnUse"><stop stop-color="#131B49"/><stop offset=".4" stop-color="#181E4B" stop-opacity=".6"/><stop offset=".9" stop-color="#262751" stop-opacity=".1"/><stop offset="1" stop-color="#2A2A53" stop-opacity="0"/></linearGradient><linearGradient id="C" x1="82" y1="170" x2="80.9" y2="194.8" gradientUnits="userSpaceOnUse"><stop stop-color="#131B49"/><stop offset=".4" stop-color="#181E4B" stop-opacity=".6"/><stop offset=".9" stop-color="#262751" stop-opacity=".1"/><stop offset="1" stop-color="#2A2A53" stop-opacity="0"/></linearGradient><linearGradient id="D" x1="72.1" y1="169.6" x2="71" y2="194.4" gradientUnits="userSpaceOnUse"><stop stop-color="#131B49"/><stop offset=".4" stop-color="#181E4B" stop-opacity=".6"/><stop offset=".9" stop-color="#262751" stop-opacity=".1"/><stop offset="1" stop-color="#2A2A53" stop-opacity="0"/></linearGradient><linearGradient id="E" x1="91.7" y1="170.4" x2="90.6" y2="195.3" gradientUnits="userSpaceOnUse"><stop stop-color="#131B49"/><stop offset=".4" stop-color="#181E4B" stop-opacity=".6"/><stop offset=".9" stop-color="#262751" stop-opacity=".1"/><stop offset="1" stop-color="#2A2A53" stop-opacity="0"/></linearGradient><linearGradient id="F" x1="91.8" y1="170.4" x2="90.7" y2="195.3" gradientUnits="userSpaceOnUse"><stop stop-color="#131B49"/><stop offset=".4" stop-color="#181E4B" stop-opacity=".6"/><stop offset=".9" stop-color="#262751" stop-opacity=".1"/><stop offset="1" stop-color="#2A2A53" stop-opacity="0"/></linearGradient><linearGradient id="G" x1="91.8" y1="170.4" x2="90.7" y2="195.3" gradientUnits="userSpaceOnUse"><stop stop-color="#131B49"/><stop offset=".4" stop-color="#181E4B" stop-opacity=".6"/><stop offset=".9" stop-color="#262751" stop-opacity=".1"/><stop offset="1" stop-color="#2A2A53" stop-opacity="0"/></linearGradient></defs></svg>
