<svg width="64" height="64" viewBox="0 0 64 64" fill="none" xmlns="http://www.w3.org/2000/svg">
<circle opacity="0.2" cx="32" cy="32" r="32" fill="#61BBD6"/>
<rect x="33.8" y="13.8" width="19.4" height="18.4" stroke="#444B8B" stroke-width="2.4" stroke-linejoin="round"/>
<path d="M36.0354 23.5264L36.0354 23.5264L36.0363 23.5281C37.645 26.3961 40.4408 28.1 43.5 28.1C46.5592 28.1 49.355 26.3961 50.9637 23.5281L50.9637 23.5281L50.9646 23.5264C51.1451 23.1895 51.1451 22.8105 50.9646 22.4736L50.9646 22.4736L50.9637 22.4719C49.355 19.6039 46.5592 17.9 43.5 17.9C40.4224 17.9 37.6449 19.604 36.0363 22.4719L36.0363 22.4719L36.0354 22.4736C35.8549 22.8105 35.8549 23.1895 36.0354 23.5264ZM43.5 25.947C41.4155 25.947 39.5219 24.8843 38.275 23.009C39.5219 21.1338 41.4155 20.0711 43.5 20.0711C45.566 20.0711 47.4596 21.1334 48.7245 23.009C47.4596 24.8847 45.566 25.947 43.5 25.947Z" fill="#444B8B" stroke="#444B8B" stroke-width="0.2"/>
<path d="M45.5 23C45.5 24.0943 44.5943 25 43.5 25C42.4057 25 41.5 24.1132 41.5 23C41.5 21.9057 42.4057 21 43.5 21C44.5943 21 45.5 21.9057 45.5 23Z" fill="#444B8B"/>
<path d="M26.5307 49.9992H20.3157C19.8191 49.9847 19.2941 49.9992 18.84 49.9992H18.8116C17.265 50.0137 16.1156 49.9992 15.0514 49.9847H15.0372C13.5048 49.9702 12.5115 49.6803 11.6744 49.0133L11.6034 48.9553C10.5676 48.1144 10.0568 47.0705 10 45.6786C9.8723 42.4454 10.298 39.9081 11.3622 37.7043C11.8446 36.7039 12.469 35.9354 13.2068 35.4135C13.9163 34.9205 14.7535 34.6305 15.7325 34.5725L16.0163 34.558L16.2859 34.645C16.3143 34.6595 16.3569 34.674 16.3994 34.6885C16.5697 34.761 16.7542 34.8335 16.9812 34.9495C17.0238 34.9785 17.0663 34.993 17.1089 35.0075L17.1515 35.022C17.194 35.051 17.2366 35.0655 17.2508 35.08H17.265C17.6197 35.2395 17.9319 35.4135 18.3008 35.6165H18.315C18.3576 35.6455 18.4001 35.66 18.4427 35.6889L18.5137 35.7324C19.1664 36.0804 19.9042 36.5009 20.7272 36.7619C21.3374 36.9648 22.0184 37.0808 22.6712 37.0808C23.8631 37.0808 25.0976 36.7474 26.3462 36.0804L26.3604 36.0659C26.5591 35.9644 26.7435 35.8629 26.9138 35.7469V35.7324L27.6091 35.2975C28.8719 34.5145 30.149 34.3841 31.3267 34.9495C31.8233 35.196 32.2774 35.544 32.7031 35.9934L32.7315 36.0224C33.6112 36.9648 34.2355 38.1827 34.6612 39.7341V39.7486C35.1579 41.6769 35.3565 43.6778 35.243 45.7076V45.7221C35.1011 47.9114 33.6822 49.4773 31.5537 49.8108H31.5396C30.972 49.8832 30.447 49.9267 29.9361 49.9267C29.4821 49.9267 29.0138 49.9267 28.5172 49.9267H27.9922C27.5665 49.9992 27.0699 49.9992 26.5307 49.9992ZM20.3725 47.0125H26.5307C27.0699 47.0125 27.5523 47.0125 28.0064 47.0125H28.5314C29.028 47.0125 29.5105 47.0125 29.9645 47.0125C30.3335 47.0125 30.7308 46.9835 31.1564 46.9255C31.9369 46.8095 32.3058 46.389 32.3625 45.5916C32.4619 43.8808 32.2916 42.1989 31.8801 40.5895C31.5821 39.5021 31.1848 38.7047 30.6314 38.1247L30.5889 38.0812C30.4186 37.9073 30.2625 37.7768 30.1064 37.7043C30.0213 37.6608 29.922 37.6318 29.851 37.6318C29.6382 37.6318 29.3969 37.7478 29.2125 37.8638L28.9571 38.0233C28.6165 38.2407 28.1909 38.5162 27.7084 38.7627C26.0482 39.6471 24.3597 40.0966 22.6854 40.0966C21.7205 40.0966 20.7414 39.9371 19.8333 39.6326C18.7691 39.2846 17.8609 38.7772 17.1373 38.3857L17.0947 38.3422C17.038 38.3132 16.9812 38.2697 16.9244 38.2407C16.6123 38.0667 16.3569 37.9218 16.1156 37.8203L15.9028 37.7188C15.846 37.6898 15.7893 37.6608 15.7183 37.6318C15.6758 37.6173 15.6474 37.6028 15.619 37.5883C15.321 37.6318 15.0798 37.7333 14.8812 37.8783C14.5548 38.0957 14.271 38.4872 14.0156 39.0237C13.1784 40.7635 12.8379 42.8368 12.9514 45.5481C12.9798 46.0846 13.0933 46.331 13.4906 46.65L13.5332 46.6935C13.6893 46.8095 14.0156 46.9835 15.094 46.998H15.1082C16.1582 47.0125 17.2792 47.0125 18.8116 47.0125H18.8258C19.2941 47.0125 19.8333 47.0125 20.3725 47.0125Z" fill="#484C88"/>
<path d="M22.8697 33.4709H22.4157C20.5427 33.4709 18.7974 32.7315 17.4919 31.3686C16.1865 30.0202 15.4771 28.2224 15.4771 26.3085C15.5054 22.2924 18.5703 19.1606 22.4441 19.1606C24.3171 19.1606 26.0482 19.9001 27.3536 21.2485C28.6448 22.5968 29.3543 24.3947 29.3543 26.3375C29.3543 28.2659 28.6306 30.0637 27.3252 31.4121C26.1475 32.63 24.5867 33.3549 22.9265 33.4854L22.8697 33.4709ZM22.4441 22.1474C20.1596 22.1474 18.4143 23.9452 18.4001 26.323C18.4001 27.4394 18.8258 28.4978 19.5778 29.2808C20.3298 30.0637 21.3373 30.4842 22.4157 30.4842H22.7562C23.7069 30.3972 24.5583 29.9912 25.2394 29.2953C26.0056 28.5123 26.4171 27.4539 26.4171 26.3375C26.4171 25.1921 26.0056 24.1337 25.2536 23.3508C24.5157 22.5678 23.5224 22.1474 22.4441 22.1474Z" fill="#484C88"/>
</svg>
