<svg width="144" height="132" viewBox="0 0 144 132" fill="none" xmlns="http://www.w3.org/2000/svg">
<path d="M114.536 40.2714C106.398 40.2714 98.9592 35.657 94.6804 27.9383C94.3168 27.2672 94.3168 26.4561 94.6804 25.757C98.9592 18.0383 106.37 13.4239 114.536 13.4239C122.674 13.4239 130.113 18.0383 134.392 25.757C134.756 26.4282 134.756 27.2672 134.392 27.9383C130.113 35.657 122.674 40.2714 114.536 40.2714ZM99.2389 26.8477C102.791 32.4689 108.412 35.7968 114.536 35.7968C120.661 35.7968 126.282 32.4689 129.834 26.8477C126.282 21.2265 120.661 17.8985 114.536 17.8985C108.412 17.8985 102.791 21.2265 99.2389 26.8477Z" fill="#AC92AA"/>
<path d="M114.537 35.7689C109.615 35.7689 105.587 31.7418 105.587 26.8197C105.587 21.8977 109.615 17.8706 114.537 17.8706C119.459 17.8706 123.486 21.8977 123.486 26.8197C123.486 31.7418 119.459 35.7689 114.537 35.7689ZM114.537 22.3452C112.076 22.3452 110.062 24.3587 110.062 26.8197C110.062 29.2807 112.076 31.2943 114.537 31.2943C116.998 31.2943 119.011 29.2807 119.011 26.8197C119.011 24.3587 116.998 22.3452 114.537 22.3452Z" fill="#AC92AA"/>
<path d="M83.1864 116.339C81.9559 116.339 80.9491 115.332 80.9491 114.102C80.9491 106.691 74.9364 100.678 67.5254 100.678C66.2949 100.678 65.2881 99.671 65.2881 98.4405C65.2881 97.21 66.2949 96.2032 67.5254 96.2032C77.3974 96.2032 85.4237 104.23 85.4237 114.102C85.4237 115.332 84.4169 116.339 83.1864 116.339Z" fill="#AC92AA"/>
<path d="M67.5258 100.678H56.3393C55.1088 100.678 54.1021 99.671 54.1021 98.4405C54.1021 97.21 55.1088 96.2032 56.3393 96.2032H67.5258C68.7563 96.2032 69.7631 97.21 69.7631 98.4405C69.7631 99.671 68.7563 100.678 67.5258 100.678Z" fill="#AC92AA"/>
<path d="M4.88131 132C2.4203 132 0.406738 129.986 0.406738 127.525C0.406738 126.295 1.41352 125.288 2.64403 125.288C3.87453 125.288 4.88131 126.295 4.88131 127.525C6.11182 127.525 7.1186 128.532 7.1186 129.763C7.1186 130.993 6.11182 132 4.88131 132Z" fill="#AC92AA"/>
<path d="M80.9487 132C79.7182 132 78.7114 130.993 78.7114 129.763C78.7114 128.532 79.7182 127.525 80.9487 127.525C80.9487 126.295 81.9555 125.288 83.186 125.288C84.4165 125.288 85.4233 126.295 85.4233 127.525C85.4233 129.986 83.4097 132 80.9487 132Z" fill="#AC92AA"/>
<path d="M83.1865 129.763C81.956 129.763 80.9492 128.756 80.9492 127.526V114.102C80.9492 112.871 81.956 111.865 83.1865 111.865C84.417 111.865 85.4238 112.871 85.4238 114.102V127.526C85.4238 128.756 84.417 129.763 83.1865 129.763Z" fill="#AC92AA"/>
<path d="M2.64403 116.311C1.41352 116.311 0.406738 115.304 0.406738 114.074C0.406738 104.202 8.43301 96.1754 18.305 96.1754C19.5356 96.1754 20.5423 97.1822 20.5423 98.4127C20.5423 99.6432 19.5356 100.65 18.305 100.65C10.894 100.65 4.88131 106.663 4.88131 114.074C4.88131 115.332 3.87454 116.311 2.64403 116.311Z" fill="#AC92AA"/>
<path d="M18.3047 100.678C17.0742 100.678 16.0674 99.671 16.0674 98.4405C16.0674 97.21 17.0742 96.2032 18.3047 96.2032H29.4911C30.7216 96.2032 31.7284 97.21 31.7284 98.4405C31.7284 99.671 30.7216 100.678 29.4911 100.678H18.3047Z" fill="#AC92AA"/>
<path d="M2.64403 129.735C1.41352 129.735 0.406738 128.728 0.406738 127.497V114.074C0.406738 112.843 1.41352 111.836 2.64403 111.836C3.87453 111.836 4.88131 112.843 4.88131 114.074V127.497C4.88131 128.756 3.87453 129.735 2.64403 129.735Z" fill="#AC92AA"/>
<path d="M80.9491 132H4.88133C3.65082 132 2.64404 130.993 2.64404 129.763C2.64404 128.532 3.65082 127.526 4.88133 127.526H80.9491C82.1796 127.526 83.1864 128.532 83.1864 129.763C83.1864 130.993 82.1796 132 80.9491 132Z" fill="#AC92AA"/>
<path d="M29.4912 100.65C28.2607 100.65 27.2539 99.6432 27.2539 98.4127V88.4288C27.2539 87.1983 28.2607 86.1915 29.4912 86.1915C30.7217 86.1915 31.7285 87.1983 31.7285 88.4288V98.4127C31.7285 99.6712 30.7217 100.65 29.4912 100.65Z" fill="#AC92AA"/>
<path d="M56.3393 100.65C55.1088 100.65 54.1021 99.6432 54.1021 98.4127V88.4288C54.1021 87.1983 55.1088 86.1915 56.3393 86.1915C57.5698 86.1915 58.5766 87.1983 58.5766 88.4288V98.4127C58.5766 99.6712 57.5698 100.65 56.3393 100.65Z" fill="#AC92AA"/>
<path d="M42.9153 93.9658C25.6322 93.9658 11.5933 79.9268 11.5933 62.6438C11.5933 61.4133 12.6 60.4065 13.8305 60.4065C15.0611 60.4065 16.0678 61.4133 16.0678 62.6438C16.0678 77.4378 28.1212 89.4912 42.9153 89.4912C57.7094 89.4912 69.7628 77.4378 69.7628 62.6438C69.7628 61.4133 70.7695 60.4065 72 60.4065C73.2306 60.4065 74.2373 61.4133 74.2373 62.6438C74.2373 79.8989 60.1704 93.9658 42.9153 93.9658Z" fill="#AC92AA"/>
<path d="M13.8305 64.8814C12.6 64.8814 11.5933 63.8746 11.5933 62.6441V42.5085C11.5933 41.278 12.6 40.2712 13.8305 40.2712C15.0611 40.2712 16.0678 41.278 16.0678 42.5085V62.6441C16.0678 63.8746 15.0611 64.8814 13.8305 64.8814Z" fill="#AC92AA"/>
<path d="M72 64.8815C70.7695 64.8815 69.7627 63.8747 69.7627 62.6442V38.034C69.7627 36.8035 70.7695 35.7968 72 35.7968C73.2305 35.7968 74.2373 36.8035 74.2373 38.034V62.6442C74.2373 63.8747 73.2305 64.8815 72 64.8815Z" fill="#AC92AA"/>
<path d="M71.9999 40.2711C70.7694 40.2711 69.7626 39.2643 69.7626 38.0338C69.7626 31.8533 64.7567 26.8474 58.5762 26.8474C57.3456 26.8474 56.3389 25.8406 56.3389 24.6101C56.3389 23.3796 57.3456 22.3728 58.5762 22.3728C67.2177 22.3728 74.2372 29.3923 74.2372 38.0338C74.2372 39.2643 73.2304 40.2711 71.9999 40.2711Z" fill="#AC92AA"/>
<path d="M58.5762 26.8477C57.3456 26.8477 56.3389 25.8409 56.3389 24.6104V15.6612C56.3389 14.4307 57.3456 13.4239 58.5762 13.4239C59.8067 13.4239 60.8134 14.4307 60.8134 15.6612V24.6104C60.8134 25.8409 59.8067 26.8477 58.5762 26.8477Z" fill="#AC92AA"/>
<path d="M58.576 17.8985H40.6777C39.4472 17.8985 38.4404 16.8917 38.4404 15.6612C38.4404 14.4307 39.4472 13.4239 40.6777 13.4239H58.576C59.8065 13.4239 60.8133 14.4307 60.8133 15.6612C60.8133 16.8917 59.8065 17.8985 58.576 17.8985Z" fill="#AC92AA"/>
<path d="M13.8305 44.746C12.6 44.746 11.5933 43.7392 11.5933 42.5087C11.5933 26.4561 24.6255 13.4239 40.678 13.4239C41.9085 13.4239 42.9153 14.4307 42.9153 15.6612C42.9153 16.8917 41.9085 17.8985 40.678 17.8985C27.1144 17.8985 16.0678 28.9451 16.0678 42.5087C16.0678 43.7392 15.0611 44.746 13.8305 44.746Z" fill="#AC92AA"/>
<path d="M72.0001 55.932C71.4408 55.932 70.8535 55.7082 70.406 55.2887L63.6942 48.5769C62.8272 47.7099 62.8272 46.2836 63.6942 45.4167C64.5611 44.5497 65.9874 44.5497 66.8543 45.4167L73.5662 52.1286C74.4331 52.9955 74.4331 54.4218 73.5662 55.2887C73.1467 55.7082 72.5594 55.932 72.0001 55.932Z" fill="#AC92AA"/>
<path d="M42.9151 53.6948C30.4423 53.6948 20.0948 49.2202 19.6473 49.0244C18.5287 48.521 17.9973 47.2066 18.5007 46.088C19.0041 44.9693 20.3185 44.438 21.4372 44.9414C21.549 44.9973 31.4211 49.2202 42.9151 49.2202C54.4651 49.2202 64.2812 44.9693 64.3931 44.9414C65.5118 44.438 66.8541 44.9693 67.3296 46.088C67.8329 47.2066 67.3016 48.549 66.1829 49.0244C65.7355 49.2202 55.388 53.6948 42.9151 53.6948Z" fill="#AC92AA"/>
<path d="M13.8307 55.932C13.2714 55.932 12.6841 55.7082 12.2366 55.2887C11.3697 54.4218 11.3697 52.9955 12.2366 52.1286L18.9485 45.4167C19.8155 44.5497 21.2417 44.5497 22.1087 45.4167C22.9756 46.2836 22.9756 47.7099 22.1087 48.5769L15.3968 55.2887C14.9773 55.7082 14.39 55.932 13.8307 55.932Z" fill="#AC92AA"/>
<path d="M36.2033 105.153C35.7838 105.153 35.3363 105.041 34.9728 104.789L28.2609 100.314C27.2262 99.6153 26.9465 98.245 27.6457 97.2102C28.3448 96.1755 29.7152 95.8958 30.7499 96.595L37.4618 101.07C38.4965 101.769 38.7762 103.139 38.077 104.174C37.6296 104.789 36.9304 105.153 36.2033 105.153Z" fill="#AC92AA"/>
<path d="M36.2036 105.153C35.2807 105.153 34.3858 104.565 34.0782 103.614C33.6866 102.44 34.3299 101.181 35.5044 100.79L42.2163 98.5526C43.3909 98.161 44.6493 98.7763 45.0409 99.9788C45.4324 101.153 44.7892 102.412 43.6146 102.803L36.9027 105.041C36.679 105.097 36.4273 105.153 36.2036 105.153Z" fill="#AC92AA"/>
<path d="M49.6268 105.153C48.8997 105.153 48.2006 104.817 47.7531 104.146C47.0539 103.111 47.3336 101.741 48.3683 101.042L55.0802 96.5672C56.115 95.868 57.4853 96.1477 58.1845 97.1824C58.8836 98.2172 58.6039 99.5875 57.5692 100.287L50.8573 104.761C50.4938 105.013 50.0463 105.153 49.6268 105.153Z" fill="#AC92AA"/>
<path d="M49.6269 105.152C49.4031 105.152 49.1514 105.125 48.9277 105.041L42.2159 102.803C41.0413 102.412 40.3981 101.153 40.7896 99.9788C41.1811 98.8042 42.4396 98.1889 43.6142 98.5525L50.326 100.79C51.5006 101.181 52.1438 102.44 51.7523 103.614C51.4447 104.537 50.5498 105.152 49.6269 105.152Z" fill="#AC92AA"/>
<path d="M42.9717 114.102C41.7412 114.102 40.7344 113.095 40.7344 111.864C40.7344 110.634 41.7132 109.627 42.9717 109.627H42.9996C44.2301 109.627 45.2369 110.634 45.2369 111.864C45.2369 113.095 44.2022 114.102 42.9717 114.102Z" fill="#AC92AA"/>
<path d="M42.9717 123.051C41.7412 123.051 40.7344 122.044 40.7344 120.813C40.7344 119.583 41.7132 118.576 42.9717 118.576H42.9996C44.2301 118.576 45.2369 119.583 45.2369 120.813C45.2369 122.044 44.2022 123.051 42.9717 123.051Z" fill="#AC92AA"/>
<path d="M94.3725 60.4068C93.981 60.4068 93.6174 60.3229 93.2818 60.1271C92.5827 59.7356 92.1352 58.9805 92.1352 58.1695V53.6949H87.6606C86.4301 53.6949 85.4233 52.6881 85.4233 51.4576V2.23729C85.4233 1.00678 86.4301 0 87.6606 0H141.356C142.586 0 143.593 1.00678 143.593 2.23729V51.4576C143.593 52.6881 142.586 53.6949 141.356 53.6949H106.174L95.5191 60.0992C95.1835 60.2949 94.792 60.4068 94.3725 60.4068ZM89.8979 49.2203H94.3725C95.603 49.2203 96.6098 50.2271 96.6098 51.4576V54.2263L104.412 49.5559C104.748 49.3322 105.167 49.2483 105.559 49.2483H139.118V4.47458H89.8979V49.2203Z" fill="#AC92AA"/>
<path d="M96.6381 82.8078C91.7161 82.8078 87.689 78.7806 87.689 73.8586C87.689 72.6281 88.6957 71.6213 89.9263 71.6213C91.1568 71.6213 92.1635 72.6281 92.1635 73.8586C92.1635 76.3196 94.1771 78.3332 96.6381 78.3332C97.8686 78.3332 98.8754 79.34 98.8754 80.5705C98.8754 81.801 97.8686 82.8078 96.6381 82.8078Z" fill="#AC92AA"/>
<path d="M89.9263 107.418C88.6957 107.418 87.689 106.411 87.689 105.18V73.8864C87.689 72.6559 88.6957 71.6491 89.9263 71.6491C91.1568 71.6491 92.1635 72.6559 92.1635 73.8864V105.18C92.1635 106.411 91.1568 107.418 89.9263 107.418Z" fill="#AC92AA"/>
<path d="M127.96 82.8077C119.319 82.8077 112.299 75.7882 112.299 67.1466C112.299 65.9161 113.306 64.9094 114.537 64.9094C115.767 64.9094 116.774 65.9161 116.774 67.1466C116.774 73.3272 121.78 78.3331 127.96 78.3331C129.191 78.3331 130.198 79.3399 130.198 80.5704C130.198 81.8009 129.191 82.8077 127.96 82.8077Z" fill="#AC92AA"/>
<path d="M132.435 82.8078C131.205 82.8078 130.198 81.801 130.198 80.5705C130.198 79.34 131.205 78.3332 132.435 78.3332C134.896 78.3332 136.91 76.3196 136.91 73.8586C136.91 72.6281 137.916 71.6213 139.147 71.6213C140.377 71.6213 141.384 72.6281 141.384 73.8586C141.384 78.7806 137.385 82.8078 132.435 82.8078Z" fill="#AC92AA"/>
<path d="M139.147 107.418C137.916 107.418 136.91 106.411 136.91 105.181V73.8586C136.91 72.6281 137.916 71.6213 139.147 71.6213C140.377 71.6213 141.384 72.6281 141.384 73.8586V105.181C141.384 106.411 140.377 107.418 139.147 107.418Z" fill="#AC92AA"/>
<path d="M116.773 129.79C115.543 129.79 114.536 128.784 114.536 127.553C114.536 126.323 115.543 125.316 116.773 125.316C127.876 125.316 136.909 116.283 136.909 105.18C136.909 103.95 137.916 102.943 139.146 102.943C140.377 102.943 141.384 103.95 141.384 105.18C141.384 118.744 130.337 129.79 116.773 129.79Z" fill="#AC92AA"/>
<path d="M101.141 82.8077C99.9101 82.8077 98.9033 81.8009 98.9033 80.5704C98.9033 79.3399 99.9101 78.3331 101.141 78.3331C107.321 78.3331 112.327 73.3272 112.327 67.1466C112.327 65.9161 113.334 64.9094 114.564 64.9094C115.795 64.9094 116.802 65.9161 116.802 67.1466C116.802 75.7882 109.754 82.8077 101.141 82.8077Z" fill="#AC92AA"/>
<path d="M112.299 129.79C98.7356 129.79 87.689 118.744 87.689 105.18C87.689 103.95 88.6957 102.943 89.9263 102.943C91.1568 102.943 92.1635 103.95 92.1635 105.18C92.1635 116.283 101.197 125.316 112.299 125.316C113.53 125.316 114.536 126.323 114.536 127.553C114.536 128.784 113.53 129.79 112.299 129.79Z" fill="#AC92AA"/>
<path d="M101.141 82.8079H96.6382C95.4077 82.8079 94.4009 81.8011 94.4009 80.5706C94.4009 79.3401 95.4077 78.3333 96.6382 78.3333H101.141C102.371 78.3333 103.378 79.3401 103.378 80.5706C103.378 81.8011 102.371 82.8079 101.141 82.8079Z" fill="#AC92AA"/>
<path d="M132.435 82.8079H127.96C126.729 82.8079 125.723 81.8011 125.723 80.5706C125.723 79.3401 126.729 78.3333 127.96 78.3333H132.435C133.665 78.3333 134.672 79.3401 134.672 80.5706C134.672 81.8011 133.665 82.8079 132.435 82.8079Z" fill="#AC92AA"/>
<path d="M114.509 114.102C113.278 114.102 112.271 113.095 112.271 111.864V89.9668C112.271 88.7363 113.278 87.7296 114.509 87.7296C115.739 87.7296 116.746 88.7363 116.746 89.9668V111.864C116.746 113.095 115.739 114.102 114.509 114.102Z" fill="#AC92AA"/>
<path d="M112.495 125.316H116.746L117.137 126.323L112.718 127.106C112.718 127.106 111.572 126.994 111.404 126.658C111.236 126.351 112.495 125.316 112.495 125.316Z" fill="#AC92AA"/>
<path d="M112.299 129.791H117.333L117.752 127.442C117.752 127.442 117.025 126.239 116.857 126.239C116.69 126.239 115.235 126.099 114.256 126.239C113.278 126.379 111.879 126.016 111.628 126.882C111.348 127.749 112.299 129.791 112.299 129.791Z" fill="#AC92AA"/>
</svg>
