<svg width="26" height="26" viewBox="0 0 26 26" fill="none" xmlns="http://www.w3.org/2000/svg">
<path d="M18.6676 23.2765C17.894 22.9973 17.1855 22.5668 16.5847 22.0109H5.28671C4.94125 22.0129 4.59615 21.9884 4.25455 21.9376C3.87388 21.9163 3.51624 21.7509 3.25633 21.4757C2.99643 21.2006 2.85434 20.8371 2.85974 20.461C2.77675 19.1036 2.91169 17.7417 3.25959 16.4258C3.44933 15.6454 3.83277 14.9237 4.37543 14.3257C4.60587 14.0402 4.93881 13.853 5.30531 13.8029C5.59247 13.8203 5.86921 13.9155 6.105 14.0781L6.25378 14.1606C6.54204 14.3349 6.87679 14.5458 7.24874 14.7292C8.33152 15.2999 9.52835 15.6287 10.7544 15.6922H10.9217C11.398 15.6725 11.8713 15.608 12.3351 15.4996C12.9138 15.3653 13.4776 15.1748 14.0182 14.931C14.0182 14.3991 14.0182 13.8946 14.074 13.4636H19.0488C18.938 13.3177 18.8168 13.1798 18.6862 13.0509C18.3997 12.7194 18.0452 12.4515 17.6461 12.265C17.247 12.0784 16.8124 11.9775 16.3708 11.9688C15.7413 11.9868 15.1281 12.1704 14.5947 12.5007L14.4274 12.6107C14.1562 12.7906 13.8736 12.9529 13.5812 13.0968C13.1917 13.2991 12.7839 13.4649 12.363 13.592C11.8962 13.7415 11.4118 13.8309 10.9217 13.858H10.7544C9.82278 13.7953 8.91578 13.5357 8.09492 13.0968C7.80252 12.9529 7.51987 12.7906 7.24874 12.6107L7.08136 12.5007C6.54798 12.1704 5.93481 11.9868 5.30531 11.9688C4.86374 11.9775 4.42907 12.0784 4.02996 12.265C3.63086 12.4515 3.27639 12.7194 2.98992 13.0509C2.25539 13.8763 1.74087 14.8691 1.49283 15.9398C1.08274 17.4484 0.916417 19.0114 0.999998 20.5711C1.02604 21.3606 1.33904 22.1146 1.88189 22.6954C2.42473 23.2763 3.16123 23.6453 3.95699 23.7351C4.38745 23.8034 4.82282 23.8371 5.25881 23.836H16.5103C16.9463 23.8371 17.3816 23.8034 17.8121 23.7351C18.6052 23.6404 19.3392 23.2735 19.8857 22.6988C19.5037 22.9373 19.095 23.1312 18.6676 23.2765Z" fill="currentColor"/>
<path d="M10.9125 11.0609C10.1743 11.0711 9.44172 10.9333 8.75918 10.6559C8.07663 10.3784 7.45838 9.96705 6.94193 9.44677C6.40972 8.93467 5.9892 8.32073 5.70618 7.64261C5.42316 6.96449 5.28359 6.23648 5.29605 5.50326C5.29029 4.7805 5.43316 4.06409 5.71605 3.39732C5.99894 2.73055 6.41597 2.12728 6.94193 1.62395C7.45592 1.09984 8.07352 0.685341 8.75648 0.406128C9.43945 0.126914 10.1733 -0.0110779 10.9125 0.000694561C11.6501 -0.00981868 12.3822 0.128785 13.0635 0.407961C13.7447 0.687138 14.3608 1.10097 14.8737 1.62395C15.3988 2.12792 15.8153 2.73132 16.0981 3.39794C16.3809 4.06455 16.5243 4.78065 16.5196 5.50326C16.5283 6.23188 16.3869 6.95464 16.1039 7.62776C15.821 8.30089 15.4025 8.91036 14.8737 9.41926C14.3614 9.94425 13.7459 10.3606 13.0647 10.6429C12.3836 10.9252 11.6513 11.0674 10.9125 11.0609ZM10.9125 1.96328C10.4347 1.95323 9.95994 2.04095 9.51822 2.22089C9.0765 2.40083 8.67738 2.6691 8.34604 3.00876C8.00757 3.33231 7.73913 3.72017 7.55693 4.14892C7.37473 4.57767 7.28256 5.03839 7.28598 5.50326C7.27418 5.9788 7.36226 6.45161 7.54469 6.89195C7.72712 7.33229 7.99996 7.73064 8.34604 8.06196C8.67874 8.39985 9.07811 8.66694 9.51951 8.84676C9.96091 9.02657 10.435 9.11529 10.9125 9.10744C11.3885 9.11457 11.861 9.02549 12.3008 8.84568C12.7405 8.66588 13.1383 8.39915 13.4696 8.06196C13.8175 7.73201 14.0916 7.3339 14.2742 6.89323C14.4567 6.45256 14.5438 5.97909 14.5297 5.50326C14.5391 5.03348 14.4498 4.56685 14.2674 4.1328C14.0849 3.69874 13.8133 3.30665 13.4696 2.98125C13.1373 2.64726 12.7387 2.38447 12.2987 2.20931C11.8587 2.03416 11.3868 1.9504 10.9125 1.96328Z" fill="currentColor"/>
<path d="M24.8885 12.7026C24.8562 12.4449 24.7279 12.2083 24.5285 12.0388C24.3292 11.8693 24.073 11.779 23.8098 11.7855H13.5812C13.3181 11.779 13.0619 11.8693 12.8625 12.0388C12.6631 12.2083 12.5348 12.4449 12.5026 12.7026C12.5026 12.9502 12.4468 13.2528 12.4282 13.6197C12.3944 14.2551 12.3944 14.8918 12.4282 15.5272C12.4432 17.8221 13.1065 20.0674 14.3437 22.0111C14.8504 22.7248 15.4798 23.3456 16.2035 23.8453C16.8712 24.3213 17.6079 24.6954 18.3887 24.955C18.5058 24.9924 18.6282 25.011 18.7513 25.01C18.8713 25.0104 18.9906 24.9918 19.1047 24.955C25.3999 22.8181 25.1767 15.3255 24.8885 12.7026ZM19.923 22.6897C19.5439 22.9276 19.1383 23.1215 18.7141 23.2675C17.9248 22.9965 17.2001 22.5689 16.5847 22.0111C14.5669 20.1769 14.102 17.2055 14.0927 14.9403C14.0927 14.4084 14.0927 13.904 14.1484 13.4729H23.2519C23.4472 15.9858 23.317 20.5896 19.923 22.6897Z" fill="currentColor"/>
</svg>
