<svg width="181" height="358" viewBox="0 0 181 358" fill="none" xmlns="http://www.w3.org/2000/svg">
<path d="M157.865 121.874L157.639 329.231C157.639 329.231 157.414 346.994 147.316 351.788C140.546 355.059 126.782 357.596 95.3035 357.878C94.1753 357.878 93.047 357.878 91.9188 357.935C91.4111 357.935 90.9034 357.935 90.452 357.935C90.3956 357.935 90.3392 357.935 90.2828 357.935C89.7751 357.935 89.2674 357.935 88.8161 357.935C54.9121 357.765 40.5269 355.397 32.6856 351.224C27.3264 348.348 24.9571 341.581 23.8852 336.336C23.0954 332.389 23.039 329.231 23.039 329.231L22.9826 296.861L22.757 121.874C22.757 121.874 21.6851 80.1996 25.8032 47.379C27.0443 37.4538 28.1726 30.4047 29.3572 25.3857C29.4701 24.9346 29.5829 24.5398 29.6393 24.1451C29.8085 23.5248 29.9778 22.9044 30.147 22.2841C32.6856 13.5432 35.619 12.1898 40.4705 9.37015C48.2554 4.91511 73.7539 0.0653229 89.7751 0.0653229H90.9034C93.8932 0.0653229 97.1651 0.234502 100.663 0.516466C115.781 1.8135 133.89 5.70461 140.208 9.37015C145.116 12.1898 148.049 13.5432 150.588 22.3969C150.757 22.9608 150.926 23.5812 151.096 24.2579C152.393 29.3896 153.578 36.6643 154.932 47.379C158.993 80.1996 157.865 121.874 157.865 121.874Z" fill="currentColor"/>
<path opacity="0.12" d="M157.019 336.336C155.947 341.637 153.578 348.348 148.219 351.224C140.547 355.341 126.444 357.709 93.6679 357.935C93.1602 357.935 92.6524 357.935 92.0883 357.935C91.5806 357.935 91.0729 357.935 90.6216 357.935H90.2267C89.7754 357.935 89.3805 357.935 88.9292 357.935C88.3087 357.935 87.7446 357.935 87.1804 357.935C54.4047 357.709 40.3016 355.341 32.6295 351.224C27.2703 348.348 24.9009 341.581 23.8291 336.336C23.8291 336.336 29.0191 343.893 34.7731 346.938C40.358 349.927 51.979 351.168 91.2985 351.28H91.355C129.151 351.168 140.49 349.927 146.019 346.938C151.829 343.837 157.019 336.336 157.019 336.336Z" fill="#00384B"/>
<path d="M139.7 339.663C140.151 341.017 139.136 342.37 137.726 342.427C130.166 342.539 108.222 343.385 90.3391 343.385C72.4563 343.385 50.5118 342.539 42.9525 342.427C41.5422 342.427 40.5267 341.017 40.978 339.663C41.9371 336.731 43.1781 334.588 43.8551 333.404C44.25 332.84 44.8705 332.445 45.5475 332.445C50.3989 332.276 71.328 331.486 90.3391 331.486C109.35 331.486 130.279 332.276 135.131 332.445C135.808 332.445 136.428 332.84 136.823 333.404C137.556 334.588 138.741 336.731 139.7 339.663Z" fill="#00384B"/>
<path d="M33.2497 327.764L29.5829 325.058C28.7931 324.494 28.3418 323.591 28.3418 322.689V166.03C28.3418 165.127 29.1316 164.394 30.0906 164.394L34.2087 164.507C35.1113 164.507 35.8447 165.24 35.8447 166.142L35.5626 326.693C35.5626 327.821 34.1523 328.441 33.2497 327.764Z" fill="#00384B"/>
<path d="M42.4451 214.64H26.0854V218.813H42.4451V214.64Z" fill="currentColor"/>
<path d="M42.4451 268.495H26.0854V272.669H42.4451V268.495Z" fill="currentColor"/>
<path d="M28.3418 92.3241V144.206C28.3418 146.292 29.3572 148.322 31.106 149.619L33.9266 151.762C34.7164 152.383 35.9011 151.819 35.9011 150.86V116.347C35.9011 109.298 34.0395 102.306 30.4855 96.1024L28.3418 92.3241Z" fill="#00384B"/>
<path d="M146.809 327.765L150.476 325.058C151.265 324.494 151.717 323.591 151.717 322.689V166.03C151.717 165.127 150.927 164.394 149.968 164.394L145.85 164.507C144.947 164.507 144.214 165.24 144.214 166.142L144.552 326.693C144.496 327.821 145.85 328.441 146.809 327.765Z" fill="#00384B"/>
<path d="M137.582 218.775L153.941 218.775L153.941 214.602L137.582 214.602L137.582 218.775Z" fill="currentColor"/>
<path d="M137.582 272.607L153.941 272.607L153.941 268.433L137.582 268.433L137.582 272.607Z" fill="currentColor"/>
<path d="M151.717 92.3241V144.206C151.717 146.292 150.701 148.322 148.952 149.619L146.132 151.762C145.342 152.383 144.157 151.819 144.157 150.86V116.347C144.157 109.298 146.019 102.306 149.573 96.1024L151.717 92.3241Z" fill="#00384B"/>
<g opacity="0.5">
<g opacity="0.4">
<path opacity="0.4" d="M45.548 219.152H44.1377L44.7018 116.573H45.2659L45.548 219.152Z" fill="#00384B"/>
</g>
<g opacity="0.4">
<path opacity="0.4" d="M44.1377 219.152H45.548L44.9839 321.73H44.4198L44.1377 219.152Z" fill="#00384B"/>
</g>
</g>
<g opacity="0.5">
<g opacity="0.4">
<path opacity="0.4" d="M136.146 219.152H134.736L135.3 116.573H135.864L136.146 219.152Z" fill="#00384B"/>
</g>
<g opacity="0.4">
<path opacity="0.4" d="M134.736 219.152H136.146L135.582 321.73H135.018L134.736 219.152Z" fill="#00384B"/>
</g>
</g>
<g opacity="0.5">
<g opacity="0.4">
<path opacity="0.4" d="M87.3491 131.235H88.7594L88.1953 233.814H87.6312L87.3491 131.235Z" fill="#00384B"/>
</g>
</g>
<g opacity="0.5">
<g opacity="0.4">
<path opacity="0.4" d="M65.9689 321.449H64.5586L65.1227 218.87H65.6868L65.9689 321.449Z" fill="#00384B"/>
</g>
</g>
<path d="M145.68 70.1053C145.68 71.1204 139.644 102.362 138.403 105.464C138.121 106.253 136.992 106.704 135.977 106.479C131.803 105.52 111.55 103.49 89.4931 103.434H89.3803C67.323 103.49 49.4966 105.52 45.3785 106.479C44.3631 106.704 43.3476 106.31 42.9527 105.464C41.7117 102.306 34.8857 71.1204 34.8857 70.1053C34.8857 68.0188 37.0858 67.0601 37.0858 67.0601C37.0858 67.0601 58.6918 61.0261 89.3239 61.0261C119.956 61.0261 143.424 67.0601 143.424 67.0601C143.424 67.0601 145.68 68.0188 145.68 70.1053Z" fill="#00384B"/>
<path d="M44.8143 355.059L38.891 353.818C33.2497 352.577 29.4701 350.152 27.4392 346.374L24.675 340.34C24.2801 339.607 24.8442 338.761 25.6904 338.818H25.7468C26.7623 338.705 27.7213 339.1 28.2854 339.945C29.8085 342.088 32.9676 346.149 36.2396 347.897C40.7526 350.322 45.0399 352.013 45.0399 352.013L45.4348 354.382C45.6041 354.777 45.2092 355.171 44.8143 355.059Z" fill="#FA6850"/>
<path d="M135.864 355.284L141.788 354.044C147.429 352.803 151.209 350.378 153.239 346.6L156.004 340.566C156.399 339.833 155.834 338.987 154.988 339.043H154.932C153.916 338.93 152.957 339.325 152.393 340.171C150.87 342.258 147.711 346.374 144.439 348.122C139.926 350.547 135.639 352.239 135.639 352.239L135.244 354.608C135.075 355.002 135.47 355.397 135.864 355.284Z" fill="#FA6850"/>
<g opacity="0.4">
<path opacity="0.4" d="M36.0142 67.7368H35.168L35.5064 38.2997H35.8449L36.0142 67.7368Z" fill="#00384B"/>
</g>
<path opacity="0.7" d="M58.4659 13.2613V14.3328C58.4659 14.5019 58.4095 14.6711 58.2966 14.8403C57.3376 15.9118 56.9992 17.096 56.8863 17.8855C56.8299 18.3366 56.6043 18.7314 56.3222 19.0698C56.2094 19.1825 56.0966 19.2953 55.9273 19.4081C55.8709 19.4645 55.8145 19.5209 55.7017 19.5209C54.3478 20.254 51.7528 21.6074 47.4654 23.694C42.2755 26.2317 38.3266 31.7582 36.747 34.1831C36.5214 34.5214 36.0137 34.3522 36.0137 33.9575C36.0701 32.3785 36.1829 30.9687 36.2957 29.6716C36.2957 29.6152 36.2957 29.5024 36.2957 29.4461C37.3676 20.7051 40.7523 17.6035 46.45 15.3478C51.7528 13.2049 55.9837 12.6974 57.6197 12.5846C58.1274 12.5282 58.4659 12.8665 58.4659 13.2613Z" fill="white"/>
<g opacity="0.4">
<path opacity="0.4" d="M143.537 67.7368H144.383L144.044 38.2997H143.706L143.537 67.7368Z" fill="#00384B"/>
</g>
<path opacity="0.12" d="M25.8032 47.379C25.8032 47.379 23.8852 104.223 23.8852 115.389C23.8852 126.555 23.8852 286.372 23.8852 286.372C23.8852 286.372 23.716 293.365 22.9826 296.861L22.757 121.874C22.757 121.874 21.6851 80.1996 25.8032 47.379Z" fill="#00384B"/>
<path opacity="0.12" d="M154.875 47.379C154.875 47.379 156.794 104.223 156.794 115.389C156.794 126.555 156.794 286.372 156.794 286.372C156.794 286.372 156.963 293.365 157.696 296.861L157.865 121.874C157.865 121.874 158.937 80.1996 154.875 47.379Z" fill="#00384B"/>
<path d="M58.4658 13.2613V14.3328C58.4658 14.5019 58.4094 14.6711 58.2965 14.7839C57.2811 15.8554 56.9991 17.0396 56.8862 17.8291C56.8298 18.2803 56.6042 18.675 56.3221 19.0134C46.2807 20.3104 39.8496 25.6113 36.3521 29.446C37.4239 20.7051 40.8086 17.6035 46.5063 15.3478C51.8091 13.2049 56.04 12.6974 57.676 12.5846C58.1273 12.5282 58.4658 12.8665 58.4658 13.2613Z" fill="white"/>
<path opacity="0.7" d="M120.915 13.2613V14.3327C120.915 14.5019 120.971 14.6711 121.084 14.8403C122.043 15.9117 122.382 17.096 122.495 17.8855C122.551 18.3366 122.777 18.7314 123.059 19.0697C123.172 19.1825 123.284 19.2953 123.454 19.4081C123.51 19.4645 123.566 19.5209 123.679 19.5209C125.033 20.254 127.628 21.6074 131.915 23.694C137.105 26.2316 141.054 31.7581 142.634 34.2394C142.86 34.5778 143.367 34.4086 143.367 34.0139C143.311 32.4349 143.198 31.025 143.085 29.728C143.085 29.6716 143.085 29.5588 143.085 29.5024C142.013 20.7615 138.629 17.6599 132.931 15.4042C127.628 13.2613 123.397 12.7537 121.761 12.6409C121.254 12.5282 120.915 12.8665 120.915 13.2613Z" fill="white"/>
<path d="M120.915 13.2613V14.3328C120.915 14.5019 120.971 14.6711 121.084 14.7839C122.1 15.8554 122.382 17.0396 122.495 17.8291C122.551 18.2803 122.777 18.675 123.059 19.0134C133.1 20.3104 139.531 25.5549 142.972 29.446C141.901 20.7051 138.516 17.6035 132.818 15.3478C127.515 13.2049 123.284 12.6974 121.648 12.5846C121.254 12.5282 120.915 12.8665 120.915 13.2613Z" fill="white"/>
<path opacity="0.12" d="M100.663 0.516461C100.381 0.516461 100.098 0.460068 99.8164 0.460068C100.098 0.460068 100.381 0.516461 100.663 0.516461Z" fill="#00384B"/>
<path opacity="0.12" d="M150.531 22.3969C148.049 18.9569 143.593 14.5019 135.695 11.6823C123.284 7.28361 103.314 4.63315 90.6213 4.63315C74.5437 4.63315 57.2814 7.28361 44.8707 11.6823C37.0857 14.4455 32.6291 18.7878 30.147 22.2841C32.6855 13.5432 35.619 12.1898 40.4705 9.37015C48.2554 4.91511 73.7539 0.0653229 89.7751 0.0653229H90.9033C93.8932 0.0653229 97.1651 0.234502 100.663 0.516466C115.781 1.8135 133.89 5.70461 140.208 9.37015C145.059 12.1898 147.993 13.5432 150.531 22.3969Z" fill="#00384B"/>
<path opacity="0.12" d="M79.9595 0.516461C80.2415 0.516461 80.5236 0.460068 80.8057 0.460068C80.5236 0.516461 80.2415 0.516461 79.9595 0.516461Z" fill="#00384B"/>
<path d="M154.029 80.7636C153.972 81.3839 154.424 81.9478 155.101 82.0606L157.865 82.3426L160.065 82.5681L160.008 80.6508V80.3688L159.839 76.0265L156.003 75.6318L155.721 75.5754C155.101 75.519 154.536 75.9702 154.424 76.6469L154.254 78.3387L154.029 80.7636Z" fill="currentColor"/>
<path opacity="0.12" d="M154.029 80.7636C153.972 81.3839 154.424 81.9478 155.101 82.0606L157.865 82.3426L160.065 82.5681L160.008 80.6508C158.372 80.1432 156.003 80.3124 155.495 79.5229C155.044 78.7334 155.552 76.4213 155.947 75.6318L155.665 75.5754C155.044 75.519 154.48 75.9702 154.367 76.6469L154.198 78.3387L154.029 80.7636Z" fill="#00384B"/>
<path d="M180.599 91.3654L178.399 96.2716C178.117 97.0047 177.552 97.5123 176.932 97.7942C176.424 98.0198 175.804 98.0762 175.24 97.907C170.275 96.6664 162.603 93.9595 162.603 93.9595C161.644 93.3956 160.911 92.4933 160.572 91.4218C160.459 91.0835 159.444 80.3688 159.67 79.5229C160.008 78.2259 159.162 77.098 159.895 75.9138L173.491 82.8501L178.173 85.2186C178.681 85.5006 179.358 86.2337 179.978 87.0232C180.937 88.3202 181.163 89.9556 180.599 91.3654Z" fill="currentColor"/>
<path opacity="0.12" d="M180.599 91.3654L178.399 96.2716C178.117 97.0047 177.552 97.5123 176.932 97.7942C177.158 96.2716 177.383 94.0159 177.383 91.0835C177.383 85.8389 173.716 83.0757 173.491 82.9065L178.173 85.275C178.681 85.557 179.358 86.2901 179.978 87.0796C180.937 88.3202 181.163 89.9556 180.599 91.3654Z" fill="#00384B"/>
<path d="M26.8745 80.7636C26.9309 81.3839 26.4796 81.9478 25.8027 82.0606L23.0385 82.3426L20.8384 82.5681L20.8948 80.6508V80.3688L21.064 76.0266L24.9001 75.6318L25.1821 75.5754C25.8027 75.519 26.3668 75.9702 26.4796 76.6469L26.6489 78.3387L26.8745 80.7636Z" fill="currentColor"/>
<path opacity="0.12" d="M26.8745 80.7636C26.9309 81.3839 26.4796 81.9478 25.8027 82.0606L23.0385 82.3426L20.8384 82.5681L20.8948 80.6508C22.5308 80.1432 24.9001 80.3124 25.4078 79.5229C25.8591 78.7334 25.3514 76.4213 24.9565 75.6318L25.2386 75.5754C25.8591 75.519 26.4232 75.9702 26.536 76.6469L26.7053 78.3387L26.8745 80.7636Z" fill="#00384B"/>
<path d="M0.304163 91.3645L2.50425 96.2707C2.78632 97.0038 3.35044 97.5113 3.97098 97.7933C4.47869 98.0189 5.09923 98.0753 5.66336 97.9061C10.6277 96.6655 18.2998 93.9586 18.2998 93.9586C19.2588 93.3947 19.9921 92.4924 20.3306 91.4209C20.4434 91.0826 21.4589 80.3679 21.2332 79.522C20.8947 78.225 21.7409 77.0971 21.0076 75.9128L7.46856 82.962L2.78632 85.3305C2.2786 85.6124 1.60165 86.3455 0.981114 87.135C-0.0343121 88.3193 -0.259962 89.9547 0.304163 91.3645Z" fill="currentColor"/>
<path opacity="0.12" d="M0.30483 91.3654L2.50492 96.2716C2.78698 97.0047 3.35111 97.5123 3.97165 97.7942C3.746 96.2716 3.52035 94.0159 3.52035 91.0835C3.52035 85.8389 7.18716 83.0757 7.41282 82.9065L2.73057 85.275C2.22286 85.557 1.54591 86.2901 0.925369 87.0796C-0.033645 88.3202 -0.259295 89.9556 0.30483 91.3654Z" fill="#00384B"/>
</svg>
