<svg width="118" height="55" viewBox="0 0 118 55" fill="none" xmlns="http://www.w3.org/2000/svg">
  <path d="M85.805 34.13c-.325 1.263-1.047 2.634-2.634 3.537-1.01-1.444-2.563-2.49-4.8-3.067-3.536-.902-6.495-.902-10.32-1.01a114.437 114.437 0 00-4.006-.071h-3.356c-2.96-.685-6.929-1.01-9.563.11-2.706 1.154-2.093 1.804-1.443 2.092a7.423 7.423 0 00-1.912 2.094l-9.132-20.28.541-1.01.686-1.588c.325 1.912 1.155 3.825 2.634 5.593 5.847 6.856 19.776 8.55 28.978 5.266 3.789-1.336 5.954-2.563 7.145-3.862v5.485c0 3.645 2.924 6.64 6.568 6.711h.614z" fill="#A3A8AB"/>
  <path d="M36.365 23.309l-.108.397-11.51 21.327a2.014 2.014 0 01-1.37.975 1.887 1.887 0 01-2.021-1.01 1.546 1.546 0 01-.217-.794v-.253c0-.325.036-.65.216-.938l9.417-18.73 1.299-2.598.288-.613 1.372-.397 1.046-.29.217.398 1.371 2.526z" fill="#242955"/>
  <path d="M42.391 12.266l-.613 1.48-1.227 2.887-.541.974-2.31 4.259-.757 1.407c-.108.216-.252.36-.505.36h-.216a6.17 6.17 0 01-2.346-.468c-1.01-.397-1.588-1.046-1.877-1.515-.036-.073-.072-.109-.108-.18a.69.69 0 010-.65l.505-.975 4.907-9.816.469-.974.072-.108 1.732-.65.614 1.516 2.201 2.453z" fill="#242955"/>
  <path d="M41.166 45.898c0 11.006-9.056 19.09-20.17 19.091-11.079.001-19.993-8.117-19.994-19.087v-1.083c.54-10.465 9.308-18.874 19.99-18.875 10.681 0 19.487 8.334 19.993 18.871.18.325.18.686.18 1.083z" fill="#262955"/>
  <path d="M33.477 45.899c0 6.82-5.52 12.125-12.376 12.126-6.857 0-12.378-5.376-12.38-12.124 0-6.748 5.52-12.27 12.377-12.27 6.857-.001 12.378 5.447 12.379 12.268z" fill="#fff"/>
  <path d="M21.1 54.019a8.552 8.552 0 100-17.105 8.552 8.552 0 000 17.105z" fill="#D1D3D4"/>
  <path opacity=".1" d="M29.653 45.466c0 4.438-3.391 8.12-7.757 8.517 3.464-1.083 5.953-4.331 5.953-8.156a8.587 8.587 0 00-8.59-8.588c-.288 0-.54 0-.83.036a8.884 8.884 0 012.599-.397c4.8 0 8.625 3.86 8.625 8.588z" fill="#222954"/>
  <path opacity=".2" d="M34.522 31.14l-8.66 14.218c-.72 1.191-2.092 1.84-3.463 1.697l-1.696-.18 7.324-15.157 1.299-1.552 2.02 1.551 3.176-.577z" fill="#222954"/>
  <path opacity=".1" d="M34.522 31.14l-8.66 14.218c-.72 1.191-2.092 1.84-3.463 1.697l-1.696-.18 7.324-15.157 1.299-1.552 2.02 1.551 3.176-.577z" fill="#222954"/>
  <path opacity=".1" d="M19.293 33.198s13.064 1.875 12.524 13.64c-.54 11.763-9.995 13.677-9.995 13.677s9.455 3.824 12.088-5.522c2.67-9.347 1.406-18.08 1.406-18.08s-10.141-8.046-10.394-8.01c-.216.037-5.629 4.295-5.629 4.295z" fill="#222954"/>
  <path opacity=".1" d="M19.293 33.198s13.064 1.875 12.524 13.64c-.54 11.763-9.995 13.677-9.995 13.677s9.455 3.824 12.088-5.522c2.67-9.347 1.406-18.08 1.406-18.08s-10.141-8.046-10.394-8.01c-.216.037-5.629 4.295-5.629 4.295z" fill="#222954"/>
  <path d="M47.48 1.765s1.227-.181 3.176.216c0 0 .794.721.145 1.732l-2.238.47s-.722-1.66-.83-1.769c-.108-.108-.252-.65-.252-.65z" fill="#242955"/>
  <path d="M47.044 3.171s-.83.433-.361-.721c.469-1.155 2.057-.65 2.454-.217.866.938.216 2.31-1.408 1.913-1.587-.397-.685-.975-.685-.975z" fill="#242955"/>
  <path d="M131.235 46.323c.001 10.898-8.875 18.873-19.845 18.874-10.97.001-19.848-8.045-19.849-18.87V45.28c.504-10.357 9.2-18.657 19.773-18.658 10.573-.001 19.271 8.225 19.777 18.654.144.325.144.65.144 1.047z" fill="#292A56"/>
  <path d="M123.187 45.962c.001 6.496-5.267 11.548-11.799 11.55-6.531 0-11.8-5.124-11.8-11.547-.002-6.424 5.266-11.693 11.798-11.693s11.801 5.195 11.801 11.69z" fill="#fff"/>
  <path fill-rule="evenodd" clip-rule="evenodd" d="M111.404 39.52l-32.44 1.23-.032-.826 32.441-1.23.031.827zm-31.09 7.663l30.71 5.12-.137.817L80.177 48l.137-.817z" fill="#252955"/>
  <path d="M90.097 31.35l-10.21 12.235 2.525 3.067L95.51 30.123l-5.413 1.228z" fill="#798387"/>
  <path opacity=".1" d="M90.097 31.35l-10.21 12.235 2.525 3.067L95.51 30.123l-5.413 1.228z" fill="#292A56"/>
  <path d="M111.389 53.145a7.254 7.254 0 10-.002-14.508 7.254 7.254 0 00.002 14.508z" fill="#D1D3D4"/>
  <path opacity=".1" d="M118.642 45.602c-1.119-2.562-3.681-4.366-6.64-4.366a7.254 7.254 0 00-7.253 7.254v.325a7.254 7.254 0 016.639-10.177 7.22 7.22 0 017.254 6.964z" fill="#222954"/>
  <path d="M113.05 46.071c0 .397-.18.794-.433 1.047a1.532 1.532 0 01-1.046.433l-31.323.003 1.227-2.96 30.132-.002c.216 0 .397.036.577.108.505.252.866.758.866 1.371z" fill="#798387"/>
  <path d="M112.901 45.458l-2.454 1.768-1.913-2.67-5.161-7.253 1.552-1.732 1.118-1.227.217.36 1.227 1.985 5.414 8.769z" fill="#798488"/>
  <path opacity=".1" d="M113.05 46.071c0 .397-.18.794-.433 1.047a1.532 1.532 0 01-1.046.433l-29.771.003c-.036-.145 0-.325.18-.505 1.191-1.336 1.768-1.191 1.768-1.191l26.524-.003c.793 0 1.515-.47 1.876-1.191.541.289.902.794.902 1.407z" fill="#292A56"/>
  <path opacity=".1" d="M109.188 44.556h-.65l-5.161-7.252 1.552-1.733c.505-.36.938-.65 1.335-.866l1.227 1.985s.397 1.119-.577 1.66c-.975.614 2.274 6.206 2.274 6.206z" fill="#262955"/>
  <path d="M107.095 35.39c-.938 1.913-2.779 2.347-3.573 2.455a.592.592 0 01-.577-.253l-1.444-1.984-4.583-6.279-.36-.469 3.86-4.222 1.155 1.768 4.114 6.242 1.372 2.093a.608.608 0 01.036.65z" fill="#676F7C"/>
  <path d="M105.687 32.684c-2.634.686-3.752 1.949-4.185 2.96l-4.584-6.28c.108-.396.253-.685.325-.865.397-.686 3.356-1.733 4.33-2.094l4.114 6.279z" fill="#484D66"/>
  <path d="M39.684 5.699l-2.237 5.268-1.696 3.537s-.252.108-.685.253c-.903.289-2.707.83-4.872.722-1.407-.072-1.84-1.48-1.985-4.114 0-.18 0-.36-.036-.541V9.561c0-2.85.18-5.485 1.154-6.784.577-.758 2.814-.722 4.366-.614 5.016.324 5.99 3.536 5.99 3.536z" fill="#6CACD8"/>
  <path d="M35.464 14.432c-.18.108-.29.253-.397.361-.902.289-2.707.83-4.872.722-1.407-.072-1.84-1.48-1.985-4.113 0-.18 0-.361-.036-.542.289.18.469.109.505-.036 0 0 .072 1.371.65 1.371.577 0 1.299-1.046 1.443-2.093 0 0 .578 2.021 2.49 1.949 1.913-.073 3.175-1.516 3.175-1.516s.181 2.995-.973 3.897z" fill="#508EBD"/>
  <path d="M34.922 23.38l-.216.398-11.907 22.05c-.288.54-.83.902-1.407 1.01a2.014 2.014 0 01-2.093-1.01 1.676 1.676 0 01-.216-.83v-.253c0-.325.072-.685.216-.974l9.813-19.343 1.263-2.67.325-.614 1.443-.397 1.083-.325.216.397 1.48 2.562z" fill="#798488"/>
  <path opacity=".5" d="M85.947 31.026s.83 4.583-2.778 6.676c-.686.398-1.516.686-2.526.867-.289.036-.578.108-.866.144-6.026.975-13.388 1.517-16.24-4.22-.144-.289-.252-.578-.396-.866 0-.036-.036-.073-.036-.109-2.31-6.026-4.909-9.165-1.77-11.294.47-.289 1.01-.578 1.732-.866 5.63-2.166 6.965-3.61 11.078-2.564a52.61 52.61 0 015.305 1.66c2.49.974 4.692 2.092 5.666 3.21 1.732 1.913.83 7.362.83 7.362z" fill="#798387"/>
  <path opacity=".5" d="M68.087 30.45s1.3 7.146-5.881 8.373c-7.181 1.228-16.491 2.24-19.415-5.483-2.923-7.722-6.352-11.222-.073-13.64 6.278-2.419 7.722-4.007 12.305-2.852 4.547 1.154 10.32 3.319 12.197 5.447 1.877 2.13.867 8.156.867 8.156z" fill="#798387"/>
  <path d="M41.055 11.977l-.65 1.552-.577 1.407-.685 1.588-.541 1.01-2.382 4.367-.721 1.48a.699.699 0 01-.614.36h-.216a6.615 6.615 0 01-2.418-.468c-1.047-.397-1.66-1.083-1.949-1.588-.036-.072-.072-.108-.108-.18a.764.764 0 010-.686l.505-1.01 5.05-10.141.506-1.01.072-.109 1.371-.505.433-.18.614 1.551 1.191 1.3 1.119 1.262z" fill="#798488"/>
  <path d="M48.781 40.124l-.288 2.742-.505 5.16-.036-.072-.722-1.587v-.036l-2.454-5.413-6.606-14.686-1.949-4.294-.685-1.552 2.309-4.583.794 1.732 9.131 20.28.433 1.01.578 1.299z" fill="#798387"/>
  <path d="M83.783 46.869c0 6.098-12.846 5.739-15.733 5.703-4.402-.036-10.32-.216-14.362-1.045l-.433-.109c-.036 0-.072 0-.072-.036l-.433-.108c-.145-.036-.289-.108-.433-.144a1.24 1.24 0 01-.325-.145c-.072-.036-.108-.036-.145-.072-.072-.036-.18-.072-.252-.108l-.217-.108h-.036c-.108-.072-.216-.108-.325-.18a5.284 5.284 0 01-.866-.614c-.072-.072-.144-.108-.216-.18a6.91 6.91 0 01-1.408-1.696s0-.036-.036-.036c0 0 0-.036-.036-.036a6.734 6.734 0 01-.36-.722l-.217-.541c-.036-.109-.072-.18-.109-.289v-.036c-.65-1.913-.613-3.825-.614-4.872 0-1.118.325-2.453 1.119-3.68a8.006 8.006 0 011.912-2.094c.505-.36 1.047-.721 1.696-1.01 1.913-.83 5.232-1.12 8.84-1.192.867 0 1.697-.036 2.49 0h.867c1.588 0 2.995.036 4.006.072 3.825.108 5.99.107 9.526 1.01 2.274.576 3.79 1.623 4.8 3.066.433.577.758 1.227 1.01 1.912.722 2.021.362 4.511.362 7.29z" fill="#5C6370"/>
  <path d="M76.772 44.481c0 6.546-6.295 7.906-8.87 7.978-4.365-.035-10.66-.214-14.703-1.036l-.43-.107c-.035 0-.07 0-.07-.036l-.43-.107c-.143-.036-.286-.108-.43-.143a1.268 1.268 0 01-.321-.143c-.036-.036-.107-.036-.143-.072-.072-.036-.179-.071-.25-.107l-.215-.108h-.036c-.107-.071-.215-.107-.322-.178-.107-.072-.215-.108-.286-.18a1.087 1.087 0 01-.25-.178s-.036 0-.036-.036a1.915 1.915 0 01-.286-.214 1.002 1.002 0 00-.215-.18.948.948 0 00-.215-.178c-.071-.072-.143-.107-.179-.179l-.035-.036c-.072-.071-.108-.143-.18-.178-.07-.072-.107-.144-.178-.215l-.108-.107c-.035-.072-.107-.108-.143-.18-.143-.178-.25-.393-.393-.571l-.036-.036s0-.036-.036-.036a6.684 6.684 0 01-.358-.715c0-.036-.035-.072-.035-.072-.036-.107-.108-.215-.143-.322-.036-.036-.036-.107-.072-.143-.036-.107-.072-.179-.107-.286v-.036c-.644-1.896-.609-3.791-.609-4.829 0-1.109.322-2.432 1.109-3.648a8.84 8.84 0 01.68-.93c.035-.537.07-1.11.035-1.324v-.072s0-.035-.036-.035l-.358-.358a.692.692 0 01-.214-.465c0-.143.035-.25.107-.358l.107-.107a.653.653 0 00.108-.787c-.036-.072-.072-.107-.108-.179l-.179-.179c-.25-.25-.25-.68 0-.966l.072-.071c.179-.18.25-.43.179-.644a.732.732 0 00-.18-.322l-.035-.036a.715.715 0 010-.966l.036-.035.286-.287.143-.143a.66.66 0 00.179-.429V27.78c0-.358.286-.644.643-.68l.823-.035 3.935-.18 1.86-.107c.358 0 .644.214.715.536v.322l1.252-.001v-.179c0-.393.322-.715.716-.68l6.653.322c.179 0 .358.107.465.214a.68.68 0 01.179.465v1.36c0 .071 0 .107.036.178a.778.778 0 00.179.287l.465.465c.286.286.286.68 0 .965l-.036.036a.715.715 0 000 .966l.072.072c.286.286.286.68 0 .965l-.179.18a.65.65 0 000 .965.692.692 0 01.215.465.577.577 0 01-.215.465l-.357.358v.036c.035.035.107.035.143.071.536.215 1.287.394 2.29.537 3.147.357 7.654 1.43 8.299 7.01 0 .357.035.822.035 1.323z" fill="#798387"/>
  <path d="M85.689 30.842s.289 1.48-.144 3.14h-.614c-3.644-.072-6.568-3.067-6.568-6.712v-5.448c-1.227 1.263-3.356 2.49-7.145 3.861-1.732.614-3.645 1.047-5.63 1.336-2.561.325-5.268.398-7.902.145-.433-.036-.83-.108-1.263-.144a29.203 29.203 0 01-2.562-.433c-4.728-1.01-8.986-3.066-11.62-6.133-1.48-1.768-2.346-3.68-2.635-5.593l-.686 1.587-.541 1.011 9.132 20.28c.216-.325.433-.65.685-.939.036-.541.072-1.119.036-1.335v-.072c.036-.036.072-.036.072-.072.072.036.18.072.29.108.901.288 1.84.433 2.778.469 3.68.107 11.403.36 11.944.431-.541-.036-8.516.579-12.522 1.156-1.443.217-2.381.614-2.85 1.264-.686.902-.505 2.237.325 4.077.289.614.65 1.3 1.083 2.057 2.598 4.474 12.233 4.005 12.233 4.005-1.118-1.444-1.624-2.995-1.768-4.62 0 0 1.407 2.382 5.34 2.887 3.934.505 6.388-2.058 6.388-2.058 1.443 1.588.974 2.887.974 2.887 2.454-1.083 4.113-4.763 4.186-4.908.036.433.072.902.072 1.371 0 6.604-6.35 7.976-8.948 8.048-4.403-.035-10.754-.215-14.832-1.045l-.433-.108c-.036 0-.072 0-.072-.036l-.433-.108c-.145-.036-.289-.108-.433-.144a1.285 1.285 0 01-.325-.145c-.036-.036-.108-.036-.144-.072-.072-.036-.18-.072-.253-.108a145.55 145.55 0 00-.217-.108h-.036c-.108-.073-.216-.109-.324-.18-.109-.073-.217-.109-.29-.181a1.101 1.101 0 01-.252-.18s-.036 0-.036-.037c-.108-.072-.216-.144-.288-.216-.073-.072-.145-.144-.217-.18a.904.904 0 00-.216-.18c-.073-.073-.145-.11-.181-.181l-.036-.036c-.072-.073-.108-.145-.18-.18-.073-.073-.109-.145-.181-.217l-.108-.109c-.036-.072-.108-.108-.145-.18-.144-.18-.252-.397-.397-.577l-.036-.073s0-.036-.036-.036a6.726 6.726 0 01-.36-.721c0-.036-.037-.072-.037-.072-.036-.109-.108-.217-.144-.325-.036-.036-.036-.108-.072-.145-.037-.108-.073-.18-.109-.288v-.036l-2.454-5.413c.108-2.201-.253-5.918-1.336-8.805-1.444-3.897-2.202-6.495-3.429-6.856-.685-.18-1.371.361-1.876.939l-1.95-4.294-.72 1.48a.698.698 0 01-.614.36h-.217l-11.906 22.05a1.95 1.95 0 01-1.407 1.01 2.014 2.014 0 01-2.093-1.01c.288-.072.902-.253 1.768-.686 1.335-.685 5.628-9.78 8.046-13.46 2.417-3.682 1.767-5.486 1.55-6.857-.216-1.335-1.515-.505-1.623-.433l1.262-2.67c-.036-.072-.072-.108-.108-.18a.764.764 0 010-.686l.505-1.01c.433.36.902.649 1.335.83.434.143.903.18 1.336.071.288-.072.541-.18.83-.397 4.15-2.96 2.128-8.589 2.128-8.589l-.578-2.056.505-1.01.073-.11 1.37-.504c.217.721 1.192 3.68 1.986 4.799.18.288.397.469.541.541.072.036.109.072.18.108 1.011.65 2.96 3.175 2.96 3.175s3.826 5.413 9.455 5.015c3.212-.216 5.738-.108 8.553.505 2.129.469 4.402 1.262 7.217 2.38 1.768.722 6.206-2.057 10.031-3.79.29-.143.578-.252.866-.36.037.036.109.036.145.072 2.418.938 4.547 2.057 5.521 3.14 1.733 1.803.83 7.252.83 7.252z" fill="#6B7479"/>
  <path d="M68.59 23.378v4.655c0 .072 0 .144-.036.216-.072.397-.397.686-.793.758-.397.036-.939.109-1.733.18-1.587.11-4.077.218-8.119.218h-1.226c-3.754-.035-6.352-.18-8.084-.36-1.155-.108-1.913-.216-2.418-.324-.469-.072-.794-.505-.794-.974V23.38c0-.325.18-.613.433-.794a.972.972 0 01.541-.18l21.255-.002a.97.97 0 01.974.974z" fill="#5C6370"/>
  <path fill-rule="evenodd" clip-rule="evenodd" d="M65.776 39.02a5.288 5.288 0 100 10.576 5.288 5.288 0 000-10.575zm-6.116 5.29a6.115 6.115 0 1112.23-.001 6.115 6.115 0 01-12.23 0z" fill="#515372"/>
  <path d="M41.49 23.957s-1.372-2.923 1.912-3.5c3.284-.578-1.841-5.594-2.635-5.702-.794-.108-2.418-3.067-3.392-.577-.974 2.454 2.924 10.429 3.14 10.465.18.036.975-.686.975-.686z" fill="#6C7480"/>
  <path d="M68.593 27.78v-3.067c-.108-.072-.18-.108-.253-.072-.433.072-6.856.434-12.052-.18-4.078-.468-7.903-1.478-10.502-1.875a.992.992 0 00-.432.794v4.367a1 1 0 00.794.974c.505.108 1.263.216 2.418.325a.6.6 0 01-.18.433l-.145.144c2.526.144 5.593.18 8.408.18h1.227c2.346 0 4.403-.073 5.666-.073 1.37-.037 2.237-.037 2.778-.037l-.18-.18a.787.787 0 01-.18-.289c.793-.072 1.334-.108 1.731-.18.397-.073.722-.361.794-.758l.108-.506zm-2.598.975c-1.84.253-5.124.253-8.083.254H56.18a50.028 50.028 0 01-7.578-.65c-.65-.107-1.191-.216-1.588-.288-1.407-.288-.939-2.995 1.443-1.876.433.216 1.01.433 1.624.65 1.804.612 4.294 1.153 6.568 1.442.433.072.83.108 1.227.144.686.072 1.335.072 1.912.072a126.1 126.1 0 006.171-.253c.758-.036 1.444-.072 1.949-.073-.145.181-.361.361-1.913.578z" fill="#5C6370"/>
  <path opacity=".15" d="M83.169 37.702c.433.577.758 1.227 1.01 1.912-1.154-.18-2.995.18-4.366-.901-6.027-4.727-12.306-3.644-13.496-3.175-2.562 1.047-10.79.29-11.98.001.54 0 9.49 0 11.222-.83.83-.398.65-1.156.757-1.156 1.588 0 .722.037 1.733.073 3.825.107 6.784.107 10.32 1.009 2.238.577 3.79 1.623 4.8 3.067z" fill="#182028"/>
  <path d="M29.723 14.577c.618 0 1.119-2.505 1.118-5.594 0-3.089-.501-5.593-1.119-5.593s-1.118 2.504-1.118 5.593c0 3.09.501 5.594 1.12 5.594z" fill="#fff"/>
  <path d="M104.497 18.936c0 .505 0 1.01-.036 1.48a19.493 19.493 0 01-.289 2.634c-.541 3.392-1.767 5.882-2.994 7.686-.036.037-.036.073-.072.109-1.624 2.273-4.294 3.573-7.073 3.5l-8.227-.215h-.614c-3.644-.072-6.568-3.067-6.568-6.711l-.001-9.96h.036l1.624.108 1.119.072 22.95 1.333.145-.036z" fill="#6CACD8"/>
  <path d="M116.221 12.258c-.289.325-1.624 1.588-1.876 2.166-.361.902-.361 1.624-.938 2.418-2.057 1.66-7.975 3.392-10.79 3.465l-23.383.002c-.217 0-.397-.036-.578-.072-3.211-.577-3.176-4.222-2.454-7.433a26.313 26.313 0 011.118-3.645c.289-.794.505-1.3.505-1.3h.217c.36 0 .83-.036 1.335-.036h.902c6.279-.109 19.991-.11 30.529.033.83 0 1.66.036 2.453.036.542 0 1.083.036 1.624.036h.325s.65.253.938 1.732c.109.686.145 1.516.073 2.598z" fill="#262955"/>
  <path opacity=".6" d="M116.15 9.769c-2.02 1.263-2.453 2.995-3.427 4.33-1.047 1.408.758 3.212-6.171 3.754-6.928.542-22.59.327-27.137-2.38-1.299-.793-2.381-1.659-3.211-2.561a26.311 26.311 0 011.118-3.645c.288-.794.505-1.299.505-1.299h.216c.361 0 .433-.036 1.336-.036a6.489 6.489 0 011.768 2.886c.975 3.104 4.078 4.042 9.491 4.041 5.413 0 15.553.612 18.007-.832 1.948-1.118 1.515-4.583 4.618-6.026.542 0 1.083.036 1.624.036h.325c0-.036.649.216.938 1.732z" fill="#191E39"/>
  <path d="M119.539 8c0 .542 0 1.228-.072 2.058-.108 1.263-.902 2.381-2.02 3.031a2.544 2.544 0 00-.686.577c-.289.325-.577.758-.83 1.372-.036.108-.108.216-.18.36-.686 1.372-3.031 5.053-10.104 5.054h-1.154c-4.114 0-18.296-.035-25.838-.07H73.82L75.406 7.5l1.949 1.696 2.96 2.562s1.371 4.871 6.748 4.87l18.151-.001c6.026 0 6.206-4.26 6.242-4.403.541-2.057 1.516-3.176 2.273-3.754.506-.397 1.155-.577 1.805-.577l4.005.108z" fill="#6CACD8"/>
  <path d="M115.717 15.399c-.685 1.37-3.031 5.052-10.104 5.053h-1.154a19.49 19.49 0 01-.289 2.634c-2.093-.469-4.69-.793-8.155-.685-8.336.253-14.903.868-17.393 1.698v-3.717h-2.49c.721-1.046 1.66-2.093 2.489-2.887l.036-.036c.902-.902 1.66-1.516 1.696-1.552-.036.072-.289.902 1.01 1.732 1.372.866 4.403 1.732 11.223 1.731 4.944 0 8.769-.145 11.728-.398 5.16-.47 7.759-1.3 9.31-2.455.614-.505 1.335-.866 2.093-1.118z" fill="#508EBD"/>
  <path d="M80.389 15.871c-.036.577-.072 1.119-.108 1.66-.036.686-.109 1.3-.253 1.913-.108.36-.216.721-.397 1.082a6.167 6.167 0 01-1.01 1.444c-1.227 1.263-3.356 2.49-7.144 3.862-9.238 3.284-23.168 1.59-28.978-5.266-1.48-1.768-2.346-3.68-2.635-5.593a13.137 13.137 0 01-.144-2.057v-.072c.036-.686.108-1.371.252-2.021.866-3.825 3.716-6.857 7.216-7.182 6.352-.578 25.008 1.513 28.906 2.884 3.86 1.299 4.547 4.835 4.295 9.346z" fill="#6CACD8"/>
  <path d="M48.524 3.605s-.541-.036-1.48.614c-.937.65-1.118.866-1.118.866s1.083 1.443.18 2.454c-1.298 1.443-4.149.83-4.149.83s-.902 1.985 2.815 5.377c3.32 3.03 4.908 4.438 5.305 5.16.434.721.794 2.309.145 3.32-.613 1.01-1.696 1.262-2.959.83-1.227-.433-3.392-1.552-4.15-2.562-.758-1.01-2.13-3.933-2.851-5.16-.722-1.263-1.084-5.593-.65-6.532.432-.902 3.716-4.98 4.907-5.124 1.227-.145 2.778-.65 2.887-.614.072.036 1.335-.145 1.335 0 .072.072-.217.541-.217.541z" fill="#508EBD"/>
  <path d="M80.03 19.443c-.576 2.237-2.344 4.15-8.551 6.352-9.238 3.284-23.167 1.59-28.977-5.266-2.058-2.418-2.888-5.16-2.78-7.722a.633.633 0 01.361.036s5.233 9.887 17.286 10.283c11.873.36 17.718.215 22.662-3.683z" fill="#508EBD"/>
  <path d="M33.222 3.461c.499 0 .903-.161.903-.36 0-.2-.404-.361-.903-.361-.498 0-.902.161-.902.36 0 .2.404.361.902.361z" fill="#50739C"/>
  <path d="M30.844 10.137c-.108 2.526-.54 4.439-1.082 4.44-.505 0-.902-1.589-1.047-3.79 0 0 .072 1.371.65 1.371.577 0 1.299-1.046 1.443-2.093 0 0 0 .036.036.072z" fill="#D5E5F4"/>
  <path d="M45.746 5.554s0 .866-.108 1.083c-.216.469-1.19.902-2.345.902-1.155 0-1.732-.36-1.732-.36l1.154-.758 2.165-.434.758-.397.108-.036z" fill="#7A868A"/>
  <path opacity=".4" d="M45.746 5.554s0 .866-.108 1.083c-.216.469-1.19.902-2.345.902-1.155 0-1.732-.36-1.732-.36l1.154-.758 2.165-.434.758-.397.108-.036z" fill="#50739C"/>
  <path d="M45.024 3.064s-.541-.758 0-1.263c.541-.505 1.227-.614 1.912-.65 0 0 0-.397.505-.36.506 0 .361.613 0 .577-.396-.037-1.695.252-1.804.541-.108.325.65.65.65.65s.541.216 0 .396c-.541.217-1.263.109-1.263.109z" fill="#242955"/>
  <path d="M47.984 3.533c-1.696-.144-5.485 3.068-5.196 3.176 0 0-2.418 1.696-1.84 3.14.613 1.587 2.273 2.345 2.273 2.345s-.324 1.082-.974 1.624a.632.632 0 00.18.144c.614.397-1.984.253-1.984.253s-2.67-2.742-3.212-3.933c-.542-1.227.216-3.464 2.237-4.62.216-.144 4.15-2.778 6.098-2.995.577-.072 1.912-.18 1.912-.18s1.3.36 1.191 1.046h-.685z" fill="#7A868A"/>
  <path d="M48.67 17.245l-4.764-5.052a1.36 1.36 0 00-.541-.324c-.794-.18-2.779-.325-3.284 2.201-.072.325.036.686.253.939l4.98 5.52c.253.289.614.397.974.361.794-.144 2.057-.65 2.635-2.598.108-.397 0-.794-.253-1.047z" fill="#242955"/>
  <path d="M40.26 11.184c.47.216-.143 1.227-.685 1.624-.54.36-1.696.65-1.515 1.515.18.866.722 1.768 2.382 3.248 1.552 1.407 2.201 2.49 1.877 3.175-.325.686-1.336.506-1.191-.541.036-.18.18-.325.36-.433 0 0-.432-.65-3.247-2.814-1.84-1.408-2.382-3.284-1.408-4.547.974-1.263 2.995-1.444 3.428-1.227z" fill="#242955"/>
  <path d="M47.659 19.662c.578-.578.897-1.195.714-1.378-.183-.183-.8.137-1.378.715-.577.578-.897 1.194-.714 1.378.183.183.8-.137 1.378-.715z" fill="#6CACD8"/>
  <path d="M62.848 5.263c0 .722-3.428 1.336-7.686 1.336.18-.108.325-.18.433-.288.072-.073.108-.145.108-.217 0-.541-1.443-.974-3.212-.974-1.768 0-3.211.433-3.211.975v.072c-1.19-.217-1.913-.541-1.913-.866 0-.722 3.464-1.336 7.723-1.336 4.258 0 7.758.54 7.758 1.298z" fill="#89C9E4"/>
  <path d="M45.746 5.507c.062-.755-1.192-1.475-2.8-1.607-1.61-.133-2.964.37-3.026 1.125-.063.755 1.19 1.475 2.8 1.608 1.608.133 2.963-.371 3.026-1.126z" fill="#7A868A"/>
  <path d="M44.585 5.32c.031-.378-.716-.747-1.67-.826-.953-.079-1.751.163-1.782.54-.032.378.716.748 1.67.826.953.08 1.75-.163 1.782-.54z" fill="#242955"/>
  <path d="M56.172 5.914c0 .072-.036.144-.108.216-.072.108-.216.217-.433.289-.072.036-.108.072-.18.072-2.454-.072-4.547-.324-5.738-.685.108-.505 1.515-.938 3.212-.939 1.804.036 3.247.505 3.247 1.047z" fill="#89C9E4"/>
  <path opacity=".6" d="M55.706 6.058v.47c0 .54-1.443.974-3.211.974-1.768 0-3.212-.433-3.212-.974v-.47c0 .073.036.145.108.217.361.433 1.624.758 3.14.758s2.779-.325 3.103-.759a.513.513 0 00.072-.216z" fill="#242955"/>
  <path fill-rule="evenodd" clip-rule="evenodd" d="M49.853 6.013c.032.018.07.038.114.06.154.072.358.143.61.205a8.098 8.098 0 001.879.201c1.01 0 1.844-.14 2.344-.328l.088-.033h.01a1.13 1.13 0 01.033-.018l.033-.016.035-.012a.728.728 0 00.069-.027 2.425 2.425 0 00-.468-.193c-.527-.166-1.286-.288-2.155-.323-.804 0-1.525.105-2.043.258a2.4 2.4 0 00-.549.226zm.254-1.217c.635-.189 1.462-.302 2.349-.302h.02c.932.038 1.792.168 2.436.371.318.1.613.228.84.391.215.155.469.418.469.802a.809.809 0 01-.226.546 1.339 1.339 0 01-.623.434l-.003.001a.72.72 0 01-.269.103c-.653.233-1.595.372-2.644.372a9.123 9.123 0 01-2.127-.232 4.302 4.302 0 01-.804-.275 1.785 1.785 0 01-.594-.423.817.817 0 01-.127-.186.692.692 0 01-.077-.303v-.2l.011-.053c.07-.33.323-.55.535-.687.23-.147.519-.266.834-.36z" fill="#242955"/>
  <path d="M55.705 10.786c2.053 0 3.717-.291 3.717-.65 0-.359-1.664-.65-3.717-.65-2.053.001-3.717.292-3.717.65 0 .36 1.665.65 3.717.65z" fill="#89C9E4"/>
  <path d="M120.119 8.542c-.072-.433-.578-.686-.975-.506-1.046.434-3.031 1.372-3.969 2.31-1.263 1.264-.469 1.805 1.227 1.263 1.696-.505 3.176-1.624 3.176-1.624s.721-.541.541-1.443z" fill="#F47C5C"/>
  <path d="M59.86 30.92c0 .18-.144.289-.288.289l-11.367.001c-.036-.108-.072-.216-.18-.325l-.037-.036c-.252-.288-.252-.721 0-.974h.145s-.109.758 1.804.758l6.784-.001h2.887c.108 0 .253.144.253.288zm-.11 2.057c0 .18-.145.29-.29.29H48.239c-.036-.072-.072-.108-.108-.18l-.18-.18c-.253-.253-.253-.686 0-.975l.035-.036h.036s-.108.758 1.805.758l6.784-.001h2.851c.144.036.288.144.288.324zm.037 2.238c0 .18-.144.288-.288.288l-11.007.002c0-.073 0-.109-.036-.109l-.36-.36a.699.699 0 01-.217-.47.61.61 0 01.108-.36h.036s-.108.757 1.805.757h9.634a.27.27 0 01.325.252zm3.102-4.295c0 .18.144.289.288.289h3.248a.738.738 0 01.18-.325l.037-.037c.252-.288.252-.721 0-.974h-.145s.109.758-1.804.758h-1.552c-.108 0-.252.145-.252.289zm.109 2.057c0 .18.145.289.289.289h3.103c.036-.073.072-.109.109-.181l.18-.18c.252-.253.252-.686 0-.975l-.036-.036h-.036s.108.758-1.805.758h-1.551c-.108.036-.253.145-.253.325zm-.038 2.238c0 .18.143.288.288.288h2.887c0-.072 0-.108.036-.108l.36-.361a.699.699 0 00.217-.47.61.61 0 00-.108-.36h-.036s.108.758-1.805.758h-1.551c-.18-.036-.289.108-.289.252z" fill="#5C6370"/>
  <path opacity=".6" d="M101.177 30.736c-.036.036-.036.072-.072.108-1.624 2.274-4.294 3.573-7.073 3.502l-8.227-.216h-.614c-3.644-.072-6.568-3.067-6.568-6.711v-.29s1.336 5.81 9.96 5.846c6.712.035 9.816.035 12.594-2.239z" fill="#508EBD"/>
  <path opacity=".4" fill-rule="evenodd" clip-rule="evenodd" d="M86.973 24.679a.31.31 0 01.16.409l-1.768 4.041a.31.31 0 11-.569-.248l1.768-4.042a.31.31 0 01.409-.16zm3.502 0a.31.31 0 01.16.409l-1.768 4.041a.31.31 0 11-.569-.248l1.768-4.042a.31.31 0 01.409-.16zm3.5-.001a.31.31 0 01.16.409l-1.768 4.042a.31.31 0 11-.569-.249l1.768-4.042a.31.31 0 01.409-.16zm3.498 0a.31.31 0 01.16.409l-1.768 4.041a.31.31 0 11-.569-.248l1.768-4.042a.31.31 0 01.409-.16z" fill="#3E4363"/>
  <path opacity=".4" fill-rule="evenodd" clip-rule="evenodd" d="M81.768 22.885l18.835-.002.072.21-.294.1.294-.1v.003l.001.003.003.01.011.033.034.121c.027.105.062.255.094.445.064.38.118.92.08 1.57-.075 1.302-.519 3.036-1.974 4.79l-.002.003a3.575 3.575 0 01-2.726 1.264l-10.754.001c-1.934 0-3.518-1.538-3.558-3.442l-.116-5.009zm18.376.62l-17.741.001.101 4.374c.033 1.56 1.336 2.836 2.938 2.835h10.754c.88 0 1.696-.392 2.252-1.045 1.358-1.638 1.762-3.24 1.831-4.428a6.492 6.492 0 00-.073-1.43 5.145 5.145 0 00-.062-.308z" fill="#3E4363"/>
  <path opacity=".4" d="M67.472 39.472c-2.31.109-4.98.939-6.712 3.573 0 0 .974-3.861 4.98-3.861a5.28 5.28 0 011.732.288zm-19.306.218s-.541-1.804 5.81-2.49c5.846-.614 10.14-.434 10.14-.434s-9.96.795-11.548 1.192c-1.587.36-3.536.541-4.402 1.732z" fill="#A9B2B6"/>
  <path d="M30.447 21.902c.433.758 1.48 1.804 3.97 1.84" stroke="#5C6370" stroke-width=".5" stroke-miterlimit="10" stroke-linecap="round"/>
  <path d="M104.063 37.737c.685.036 2.057-.686 2.67-1.805" stroke="#5C6370" stroke-width=".75" stroke-miterlimit="10" stroke-linecap="round"/>
</svg>
