<svg width="33" height="19" viewBox="0 0 33 19" fill="none" xmlns="http://www.w3.org/2000/svg">
<path d="M25.9975 1.29419V4.42892C25.9975 4.57265 25.9427 4.70954 25.8401 4.80536C25.7442 4.90118 25.6142 4.94909 25.4773 4.94909C25.4705 4.94909 25.4705 4.94909 25.4636 4.94909C25.094 4.9354 21.8292 4.77798 21.8292 2.86155C21.8292 0.945121 25.094 0.780856 25.4636 0.774011C25.6073 0.767167 25.7442 0.821922 25.8469 0.917744C25.9496 1.01357 26.0043 1.15045 25.9975 1.29419Z" fill="currentColor"/>
<path d="M22.5469 2.08062C22.4442 2.38862 22.1568 2.58026 21.8556 2.58026C21.7803 2.58026 21.705 2.56657 21.6229 2.5392L17.2425 1.42357C16.8592 1.29352 16.6539 0.882862 16.7839 0.499577C16.914 0.116293 17.3315 -0.0890377 17.7079 0.0410052L22.0883 1.15664C22.4716 1.28668 22.6769 1.69734 22.5469 2.08062Z" fill="currentColor"/>
<path d="M28.085 14.2973C27.9687 14.3589 27.8455 14.3931 27.7223 14.3931C27.4691 14.3931 27.2227 14.2631 27.0858 14.0235L21.9456 4.40031C21.7472 4.05125 21.8635 3.60636 22.2194 3.40788C22.5616 3.20939 23.0134 3.32574 23.2187 3.68165L28.352 13.3048C28.5573 13.6539 28.441 14.0988 28.085 14.2973Z" fill="currentColor"/>
<path d="M13.6445 13.9284C13.6445 14.3322 13.316 14.6607 12.9122 14.6607H5.06165C4.80841 14.6607 4.5757 14.5238 4.43881 14.3117C4.30877 14.0926 4.30192 13.8257 4.41144 13.5999L6.49898 9.37002C6.68378 9.00727 7.11497 8.86354 7.47773 9.04149C7.84048 9.21945 7.98421 9.65749 7.80626 10.0202L7.73781 10.1571L6.15676 13.1892H12.9122C13.316 13.1892 13.6445 13.5246 13.6445 13.9284Z" fill="currentColor"/>
<path d="M0.723347 7.86345C1.44885 7.11057 2.68084 6.69306 5.06268 6.62462V5.88543C5.06268 5.67325 5.1585 5.46792 5.32277 5.33103C5.48703 5.1873 5.70605 5.1257 5.91823 5.16677C5.9593 5.17361 10.1617 5.88543 11.6333 5.88543C11.7839 5.88543 11.9139 5.92649 12.0303 6.00178C14.1589 4.26331 17.9164 2.57959 21.8588 2.57959C22.0231 2.57959 22.5843 2.64119 22.7965 3.39407C22.8581 3.63362 23.125 4.83139 23.125 5.23521C23.125 6.95315 19.9218 15.1596 18.286 15.1596H13.0911C12.9406 15.1596 12.8037 15.1117 12.6805 15.0295C11.7223 14.3793 9.67579 11.6347 7.80043 10.5807C5.11744 9.08175 2.95461 9.32815 1.2093 9.32815C0.812321 9.32815 0.305836 9.22548 0.285303 8.83535C0.292147 8.71216 0.30584 8.29465 0.723347 7.86345Z" fill="currentColor"/>
<path d="M5.46604 19.0001C8.42281 19.0001 10.832 16.5909 10.832 13.6341C10.832 10.6773 8.42281 8.26807 5.46604 8.26807C2.50926 8.26807 0.10004 10.6773 0.10004 13.6341C0.10004 16.5909 2.50242 19.0001 5.46604 19.0001ZM5.46604 9.97232C7.48513 9.97232 9.12094 11.615 9.12094 13.6272C9.12094 15.6395 7.47828 17.2821 5.46604 17.2821C3.45379 17.2821 1.81114 15.6395 1.81114 13.6272C1.81114 11.615 3.44694 9.97232 5.46604 9.97232Z" fill="currentColor"/>
<path d="M27.634 18.9991C30.5908 18.9991 33 16.5898 33 13.6262C33 10.6626 30.5908 8.26025 27.634 8.26025C24.6772 8.26025 22.268 10.6695 22.268 13.6262C22.268 16.583 24.6704 18.9991 27.634 18.9991ZM27.634 9.97134C29.6531 9.97134 31.2889 11.614 31.2889 13.6262C31.2889 15.6385 29.6463 17.2811 27.634 17.2811C25.6218 17.2811 23.9791 15.6385 23.9791 13.6262C23.9791 11.614 25.6149 9.97134 27.634 9.97134Z" fill="currentColor"/>
</svg>
