<svg width="162" height="349" viewBox="0 0 162 349" fill="none" xmlns="http://www.w3.org/2000/svg">
<path d="M80.9642 0C73.4476 0 67.3628 6.12028 67.3628 13.6806V49.1063H94.494V13.6806C94.5656 6.12028 88.4808 0 80.9642 0Z" fill="#00384B"/>
<path d="M105.017 51.1943L95.9972 55.2985L81.3936 56.9546L81.0356 57.0266L80.6777 56.9546L66.0741 55.2985L57.0542 51.1943C57.0542 51.1943 58.7007 47.4502 80.7493 47.3782C80.8925 47.3782 80.9641 47.3782 81.1072 47.3782C81.2504 47.3782 81.322 47.3782 81.4652 47.3782C103.371 47.4502 105.017 51.1943 105.017 51.1943Z" fill="white"/>
<path d="M123.844 149.551V219.034C123.844 223.426 120.337 226.954 115.97 226.954H45.9585C42.0928 226.954 38.8714 224.146 38.2272 220.402C38.1556 219.97 38.084 219.466 38.084 219.034V149.551C38.084 145.159 41.5917 141.63 45.9585 141.63H115.97C120.337 141.63 123.844 145.231 123.844 149.551Z" fill="#798386"/>
<path d="M129.07 200.313H32.8582C29.8516 200.313 27.4893 197.865 27.4893 194.913V173.744C27.4893 170.72 29.9232 168.344 32.8582 168.344H129.142C132.149 168.344 134.511 170.792 134.511 173.744V194.913C134.511 197.937 132.077 200.313 129.07 200.313Z" fill="#798386"/>
<path opacity="0.12" d="M78.6737 200.313C78.2441 211.042 76.6692 221.842 75.8102 226.954H45.9587C42.093 226.954 38.8716 224.146 38.2273 220.402C41.1624 219.106 45.6723 214.714 47.3904 200.313C47.8199 196.641 48.1063 192.249 48.1063 187.065C48.1063 178.568 47.0325 172.52 45.3144 168.272C43.4532 163.447 40.8045 160.927 38.1558 159.631V149.551C38.1558 145.159 41.6635 141.63 46.0303 141.63H66.5756C68.9379 150.343 71.6582 160.279 73.949 168.272C75.0943 172.232 76.0965 175.76 76.9556 178.424C78.6737 184.112 78.96 192.177 78.6737 200.313Z" fill="#00384B"/>
<path opacity="0.12" d="M83.3265 200.313C83.756 211.042 85.3309 221.842 86.1899 226.954H115.97C119.836 226.954 123.057 224.146 123.701 220.402C120.766 219.106 116.256 214.714 114.538 200.313C114.109 196.641 113.822 192.249 113.822 187.065C113.822 178.568 114.896 172.52 116.614 168.272C118.475 163.447 121.124 160.927 123.773 159.631V149.551C123.773 145.159 120.265 141.63 115.898 141.63H95.2814C92.9191 150.343 90.1988 160.279 87.908 168.272C86.7626 172.232 85.7604 175.76 84.9014 178.424C83.2549 184.112 82.9685 192.177 83.3265 200.313Z" fill="#00384B"/>
<path d="M84.1853 79.4916C83.1115 79.3476 82.0377 79.2036 80.9639 79.1316C81.6797 79.0596 82.4672 79.0596 83.183 79.0596C83.541 79.1316 83.8989 79.2036 84.1853 79.4916Z" fill="currentColor"/>
<path d="M80.9639 208.45L83.3978 206.938C83.2546 208.81 83.1831 209.818 83.1831 209.818L80.9639 208.45Z" fill="currentColor"/>
<path d="M122.985 132.054C121.768 140.19 114.538 162.799 109.026 178.568C105.733 188.001 103.227 194.985 103.227 194.985L89.0533 203.625L83.4695 207.009L81.0356 208.522L78.6017 207.009L73.0179 203.625L58.7722 194.985C58.7722 194.985 56.1951 188.001 52.9737 178.496C47.5332 162.727 40.2314 140.19 39.086 132.054C37.869 123.846 45.0992 109.949 51.2557 99.9406C54.835 94.1083 57.9848 89.6441 58.7722 88.204C59.9892 86.1159 63.8549 83.5958 68.9375 81.7237C71.6578 80.7877 74.6644 79.9957 77.7426 79.4916C77.9574 79.4196 78.1721 79.4196 78.4585 79.4196C79.3175 79.3476 80.1766 79.2036 81.0356 79.2036C81.8946 79.2756 82.7537 79.3476 83.6127 79.4916C83.8275 79.4916 84.0422 79.5636 84.257 79.5636C87.4068 79.9956 90.4134 80.7877 93.1337 81.7957C98.2163 83.6678 102.154 86.1879 103.299 88.276C103.943 89.4281 106.306 92.8842 109.169 97.3484C115.54 107.357 124.345 123.054 122.985 132.054Z" fill="currentColor"/>
<path d="M80.9641 79.1316C79.8903 79.2036 78.8165 79.3476 77.7427 79.4916C78.029 79.2036 78.387 79.0596 78.7449 79.0596C79.4608 79.1316 80.2482 79.1316 80.9641 79.1316Z" fill="currentColor"/>
<path d="M78.5303 206.938L80.9642 208.45L78.745 209.818C78.745 209.818 78.6734 208.81 78.5303 206.938Z" fill="currentColor"/>
<path d="M79.3891 349H82.5389C90.8429 349 97.572 342.232 97.572 333.879V299.894H64.356V333.879C64.356 342.232 71.0851 349 79.3891 349Z" fill="#00384B"/>
<path d="M61.5645 288.373C61.5645 288.373 56.6251 285.493 54.3343 278.509C52.0436 271.524 45.6724 246.899 45.6724 240.275C45.6724 233.651 57.842 193.041 61.7077 193.041C65.5734 193.041 81.8951 193.041 81.8951 193.041V302.27L61.5645 288.373Z" fill="#00384B"/>
<path d="M100.364 288.373C100.364 288.373 105.304 285.493 107.594 278.509C109.885 271.524 116.256 246.899 116.256 240.275C116.256 233.651 104.087 193.041 100.221 193.041C96.3554 193.041 80.0337 193.041 80.0337 193.041V302.27L100.364 288.373Z" fill="#00384B"/>
<path d="M81.5367 288.373V312.062H80.964C69.7965 312.062 61.4925 311.126 56.8394 306.806C56.1235 306.158 55.7656 305.294 55.6224 304.286C54.7634 298.526 61.5641 288.373 61.5641 288.373H81.5367Z" fill="currentColor"/>
<path d="M100.364 288.373C100.364 288.373 109.742 302.414 105.089 306.878C100.364 311.27 91.9167 312.134 80.4629 312.134V288.445H100.364V288.373Z" fill="currentColor"/>
<path d="M101.366 61.9948C98.2164 66.459 92.2031 70.6352 80.964 70.6352C68.7943 70.6352 62.7811 65.811 59.846 60.9148C56.911 56.0906 56.9826 51.1943 56.9826 51.1943L79.2459 52.6344C80.4629 52.7064 81.6083 52.7064 82.8253 52.6344L105.089 51.1943C105.017 51.1943 105.089 56.8106 101.366 61.9948Z" fill="currentColor"/>
<path d="M81.8947 139.47C88.0228 139.47 92.9906 134.474 92.9906 128.31C92.9906 122.146 88.0228 117.149 81.8947 117.149C75.7666 117.149 70.7988 122.146 70.7988 128.31C70.7988 134.474 75.7666 139.47 81.8947 139.47Z" stroke="#00384B" stroke-miterlimit="10"/>
<path d="M83.8991 72.7953L83.5412 79.3476V79.9956C83.3265 80.1396 82.539 80.6436 81.0357 81.0036C79.4608 81.4357 77.0984 81.7957 73.5907 81.7957C72.159 81.7957 70.5841 81.7237 68.9376 81.5797C68.4365 81.5797 67.9354 81.5077 67.3627 81.4357C65.0003 81.2197 62.5664 81.0036 60.1325 80.7876C51.6137 80.0676 42.9517 79.4916 37.9407 79.2036C37.8691 79.2036 37.7975 79.2036 37.7259 79.2036C37.0101 79.2036 36.2226 79.4916 35.6499 79.9236L7.3017 102.029C7.08694 102.245 6.65743 102.317 6.29949 102.317C6.08473 102.317 5.86998 102.245 5.65522 102.173L3.50762 100.661C2.29066 99.7245 1.78955 99.1485 1.78955 98.5005C1.78955 97.9964 2.0759 97.4924 2.79176 96.9164C4.65301 95.2603 6.8006 93.3162 9.4493 90.8681C12.3128 88.204 16.25 84.8198 19.9725 81.7237C27.9902 75.0994 33.6455 71.1392 35.5783 70.8512C35.7931 70.8512 36.2942 70.7792 37.5828 70.7792C43.3812 70.7792 59.4882 71.4992 71.1568 72.0752C75.094 72.2912 78.6018 72.4353 80.8925 72.5793C82.3958 72.7233 83.398 72.7953 83.8991 72.7953Z" fill="currentColor"/>
<path d="M26.0575 86.2598C26.7734 86.7639 26.7733 87.7719 26.1291 88.3479L6.37123 103.685C5.87013 104.045 5.01109 104.189 4.4384 103.973C4.36681 103.901 4.22364 103.901 4.15206 103.829L2.00446 102.317C4.47258e-05 100.804 -0.858992 99.5084 1.21701 97.7084C2.8635 96.2683 5.08268 94.3242 8.30406 91.3001C10.9528 88.8519 14.7468 85.5398 18.6841 82.2276C19.1136 81.8676 19.7579 81.7956 20.259 82.1556L26.0575 86.2598Z" fill="#00384B"/>
<path d="M160.139 98.7165C160.139 99.2925 159.566 99.9406 158.421 100.877L156.273 102.389C156.13 102.461 155.915 102.533 155.701 102.533C155.343 102.533 154.985 102.389 154.698 102.245L126.35 80.1397C125.777 79.7076 125.062 79.4196 124.274 79.4196C124.203 79.4196 124.131 79.4196 124.059 79.4196C119.836 79.7076 113.107 80.1397 106.02 80.7157C102.226 81.0037 98.2882 81.3637 94.6373 81.6517C94.0646 81.7237 93.5635 81.7237 92.9909 81.7957C91.3444 81.9397 89.8411 81.9397 88.4093 81.9397C84.9016 81.9397 82.5392 81.5797 80.9643 81.1477C79.3894 80.7157 78.6736 80.2837 78.4588 80.1397L78.3872 79.4916L78.0293 72.9393C78.5304 72.9393 79.5326 72.8673 80.9643 72.7953C84.1857 72.6513 89.4831 72.3633 95.2816 72.0753C106.234 71.5713 119.191 70.9952 124.274 70.9952C125.563 70.9952 126.064 71.0672 126.279 71.0672C128.211 71.3553 133.867 75.3154 141.884 81.9397C145.607 85.0359 149.544 88.42 152.408 91.0842C155.128 93.6043 157.204 95.4764 159.065 97.1324C159.781 97.7085 160.139 98.2125 160.139 98.7165Z" fill="currentColor"/>
<path d="M136.014 86.26C135.299 86.764 135.299 87.772 135.943 88.348L155.629 103.685C156.13 104.045 156.989 104.189 157.562 103.973C157.634 103.901 157.777 103.901 157.848 103.829L159.996 102.317C162 100.805 162.859 99.5086 160.783 97.7085C159.137 96.2684 156.918 94.3243 153.696 91.3002C151.048 88.8521 147.254 85.5399 143.316 82.2278C142.887 81.8677 142.242 81.7957 141.741 82.1558L136.014 86.26Z" fill="#00384B"/>
<path opacity="0.12" d="M109.169 97.2764L81.0356 85.8999L51.1841 99.9405C54.7634 94.1083 57.9132 89.6441 58.7007 88.204C59.9176 86.1159 63.7833 83.5958 68.8659 81.7237C68.3648 81.7237 67.8637 81.6517 67.291 81.5797C64.9287 81.3637 62.4947 81.1477 60.0608 80.9317C62.5663 78.4836 62.28 78.8436 68.8659 73.8033C69.725 73.1553 70.5124 72.5793 71.1567 72.0753C75.0939 72.2913 78.6017 72.4353 80.8924 72.5793C84.1138 72.4353 89.4112 72.1473 95.2097 71.8593C101.509 74.0194 104.874 78.0515 104.874 78.0515L105.948 80.5717C102.154 80.8597 98.2163 81.2197 94.5654 81.5077C93.9928 81.5797 93.4916 81.5797 92.919 81.6517C98.0016 83.5238 101.939 86.0439 103.084 88.132C103.943 89.3561 106.306 92.7402 109.169 97.2764Z" fill="#00384B"/>
<path opacity="0.12" d="M101.366 61.9948C98.2165 66.459 92.2032 70.6352 80.9642 70.6352C68.7945 70.6352 62.7812 65.811 59.8462 60.9148C59.8462 60.9148 66.9332 64.371 80.9642 64.371C94.9951 64.299 101.366 61.9948 101.366 61.9948Z" fill="#00384B"/>
<path d="M83.4699 204.417V205.137L80.9644 204.777L83.4699 204.417Z" fill="#00384B"/>
<path opacity="0.12" d="M109.026 178.568C105.733 188.001 103.228 194.985 103.228 194.985L89.0535 203.625L83.4697 204.417L80.9642 204.777L78.4587 204.417L72.9465 203.625L58.7008 194.985C58.7008 194.985 56.1237 188.001 52.9023 178.496C53.1171 178.856 57.0544 183.968 80.8926 184.328H80.9642C105.59 183.968 108.954 178.496 108.954 178.496L109.026 178.568Z" fill="#00384B"/>
<path d="M80.964 204.777L78.4585 205.137V204.417L80.964 204.777Z" fill="#00384B"/>
<path d="M80.9641 308.75V312.71C69.7967 312.71 61.4926 311.774 56.8395 307.454C56.1237 306.806 55.7657 305.942 55.6226 304.934C56.0521 304.79 56.6248 304.79 57.269 304.934C60.6336 305.654 64.3561 308.75 80.9641 308.75Z" fill="#FF7E5A"/>
<path d="M80.9644 308.75V312.71C92.1318 312.71 100.436 311.774 105.089 307.454C105.805 306.806 106.163 305.942 106.306 304.934C105.876 304.79 105.304 304.79 104.659 304.934C101.295 305.654 97.5724 308.75 80.9644 308.75Z" fill="#FF7E5A"/>
</svg>
