<svg width="244" height="194" viewBox="0 0 244 194" fill="none" xmlns="http://www.w3.org/2000/svg"><path d="M179.2 122.7s1.8-3.2 4.2-2c1 .5 1.7 4 1.7 4l.2 1.5-4-.7-.6-1.4-1.5-1.4Z" fill="#CC4929"/><path d="m185.8 140.2-6.2 13.3-9.8-.6s-2.7-2.4-6.2-2.5c-3.5 0-6.1-.1-10.8-1.5-4.6-1.4-22.2-8.8-22.2-8.8l-2.2-6 15.7-11.3s5-6.8 6.6-10c1.5-3.3 8.3-7.7 9-7.8.7-.1 5 .7 5 .7l.3.1 1.6 2.8.5 2.7c.6 2.7 1.2 6.4 1.4 6.4l5.6-.5s1.4.8 3.6 3.5a16 16 0 0 0 5.2 3.5l2.8 1.3s1.1 5.6 1.9 7.8c.7 2.1-1.8 6.9-1.8 6.9Z" fill="#E0B5B1"/><path d="m205.7 81.4-.1.2c-2.7 6.5-6.4 7.4-6.4 7.4l-6.9-.7 3.2-9.9 4-12.7 5.5 3.4s3.1 5.9.7 12.3Z" fill="#FEEFEC"/><path d="m130.7 99.8-1.3 3.3s0 4-.9 6.6c-1 2.7-.7 6-2.1 8.1a24 24 0 0 0-2.3 5.5s2.9 2.2.2 4.6c-1.7 1.3 3.2 4.4 3.2 4.4l10.1-3.6s-.3-5.1.9-7.4a33 33 0 0 0 3-8.6c0-1.9 2.5-11.3.7-13.4-1.9-2-.3-2.8-2.7-3h-.5l-8.3 3.5Z" fill="#E5ABA1"/><path d="m168.7 89.6-.2 2.2c-.4 2.7-1 5.7-3 13l-3.7 12.5-2.9 9-2.3 6.8c-2.8 8.3-8.2 11.5-14.4 9.6-6.6-1.9-8.9-8.7-8.3-14.6a223.3 223.3 0 0 1 8.3-30.8l.7-2 3-8.8.2-.6 2 .3s20.9-.2 20.6 3.4Z" fill="#475BA9"/><path d="m158.9 126.3-2.3 6.8c-2.8 8.3-8.2 11.5-14.4 9.6-6.6-1.9-8.9-8.7-8.3-14.6a223.3 223.3 0 0 1 8.3-30.8l4.4 1.7s-1.4 2.7-3.2 3.2c-1.9.6-1.8 3.4-1.8 3.4s4.4 3 2.4 6.4c-2 3.5-5 .1-5.5 2.9-.5 2.7 5 5 2.3 7-2.8 1.9-6 3.4-3.7 4.8s4.5 4 3.1 7.2c-1.4 3.3-1.5 6.2 2.3 7 3.7.9 8.7-2.7 13.3-10.4l3.1-4.2Z" fill="#31439B"/><path d="M168.5 91.8c-.4 2.7-1 5.7-3 13l-3.8 12.5c-2.6-.4-5-3-5.3-6.2-.4-4.6-2.8-6.2-6.5-8.7-3.4-2.3-4.8-1.4-8.4-3.2l1.3-4 3-8.8 22.7 5.4Z" fill="#31439B"/><path d="M200.8 66.9a40.3 40.3 0 0 1-4.1 18.1 32.4 32.4 0 0 1-5.1 7.3c-1.8 1.9-3.3 3.3-4.4 4.2-.7.6-1.7.8-2.8.7a180 180 0 0 1-24.6-5.7c-2.2-.8-4.2-3-5.8-5.8-5-8.3-7.3-22.8-5.6-25.5a111 111 0 0 0 6.3-13.9l1.5-3.5s19.4 6 29.2 8.5 11 3.7 13.8 8.5c.3.6.6 1.4.8 2.3.5 1.4.7 3 .8 4.8Z" fill="#3D51A3"/><path opacity=".3" d="m205.7 81.4-.1.2c-2.7 6.5-6.4 7.4-6.4 7.4l-4.6-.5c.8-1 1.5-2.2 2.2-3.4a29 29 0 0 0 1.9-4.5c1.8.9 4 1.2 7 .8Z" fill="#BFB5BA"/><path d="M167.4 64v1.7a29.2 29.2 0 0 1-6.3 16.1 35.1 35.1 0 0 1-7 6.7s-19.6 1.9-34 4.6c-14.6 2.7-26.7 3.2-26.7 3.2s-2-3.8 6.3-9c3.7-2.4 6.5-7.8 8.7-13.4 3-7.2 4.8-15 6.5-18.1 1.3-2.6 2.2-8.8 2.6-15.1a149.5 149.5 0 0 0 .3-16.2c-.3-1.3-1-4.8-2-8.4l-3-12c.3.3 4 5.7 14.5 14.1l32 25.6s3.8 1.6 6.2 7.7c.9 2.2 1.5 4.8 1.8 8V64Z" fill="#EFE4E8"/><path d="m176.4 62.7 8.4 2.5M175.7 72.5l8.7 2.7M171.6 82.4l9 2.6" stroke="#fff" stroke-miterlimit="10"/><path d="m167.4 63.9-50-23.3c.6-3.6.7-7 .5-10.5a43.2 43.2 0 0 0-3.6-15.1l1.5 1 49.7 35.5c1.1 3 2 7 1.9 12.4Z" fill="#F8F4F6"/><path opacity=".3" d="M161 81.8c-3.4 4.4-7 6.7-7 6.7s-19.6 1.9-34.1 4.6c-14.5 2.7-26.7 3.2-26.7 3.2s-2-3.8 6.3-9c3.7-2.4 9.9-15 12.2-20.8-.1.2-4.6 12 2.6 11.8 7.4-.3 19.1 5.7 25.8 5.9 6.3.2 16.5.1 21-2.4Z" fill="#BFB5BA"/><path d="M106.7.4c-13.2-3.5-30 15.7-37.3 43-1.6 5.9-2.6 11.7-3.2 17.2-1.8 20 3.4 36 13.7 38.8 13.2 3.6 30-15.7 37.3-43a97.2 97.2 0 0 0 3.2-17.9c1.7-19.7-3.5-35.3-13.7-38Z" fill="#4A5FAB"/><path d="m113.6 49.2-1.5 6a78.4 78.4 0 0 1-16 31.8c-5.2 5.8-10.8 8.6-15.7 7.3-11-3-14.3-25.2-7.8-49.7.7-2.6 1.5-5.2 2.4-7.6 7.3-20.4 19.7-34.1 29.4-31.5 3.7 1 6.5 4.2 8.4 9 .7 1.7 1.3 3.6 1.7 5.7 1.6 7.8 1.3 18-1 29Z" fill="#EFE4E8"/><path opacity=".3" d="M113.6 49.2c-5-2.4-14.8-6.9-15.8-6.9-1.4 0-7-2-7-2 1.6-7.6 10.2-22.8 23.7-20.1 1.6 7.8 1.3 18-1 29Z" fill="#BFB5BA"/><path d="M108 67.6c-1.1 2.6-2.3 5-3.5 7.4-7 13.4-16.4 21.4-24 19.3-11-3-14.4-25.2-7.8-49.7l.3-1.3.3-.8 1.1-3.6.6-1.9c-.2 1-5.2 41.1 11 44.4 15.8 3.1 21.9-13.8 21.7-23.6-1.7 4.7.5 5.9.3 9.8Z" fill="#F8F4F6"/><path d="M115.6 35.7a96.4 96.4 0 0 1-11 39.3L95 67l-4-3.5 5.9-26.7 14.8-1 3.9-.1Z" fill="#3D51A3"/><path d="M102.5 52.4c2-7.4 0-14.3-4.3-15.5-4.3-1.2-9.5 3.8-11.4 11.2-2 7.4-.1 14.3 4.2 15.5 4.4 1.2 9.5-3.9 11.5-11.2Z" fill="#EE2D34"/><path d="M100 51.7c1.4-5.1.1-9.9-2.9-10.7-3-.8-6.5 2.7-7.9 7.8-1.4 5 0 9.9 3 10.7 3 .8 6.5-2.7 7.8-7.8Z" fill="#FFFCFD"/><path d="M97.6 51c.9-3 .1-6-1.6-6.4-1.8-.5-3.9 1.6-4.7 4.7-.9 3.1-.1 6 1.6 6.5 1.8.5 3.9-1.7 4.7-4.8Z" fill="#EF4244"/><path d="M177.7 121.6s-9.6 3.7-11.4.7c-1.8-3-1.3-7.3-2.3-9.2-1.1-2-2.7-7.6-2.7-7.6l-.4-.6a88 88 0 0 0-6.2-7.8c-3.5-3.9-2.6-7.2-.7-9.6 2-2.4 4.4-.6 7.2 1.8 2.9 2.4 6.6 4.8 9.9 11a70 70 0 0 1 5.5 15c1 3.8 1 6.3 1 6.3Z" fill="#FCD5CA"/><path d="M191.6 92.3c-1.8 2-3.3 3.3-4.4 4.2-.7.6-1.7 1-2.8.8a180 180 0 0 1-24.6-5.8c-1.7-.6-3.2-2-4.6-3.8 1.3-1 3.6-3 5.8-5.8 0 .2-.2 5.2 4.4 7a96.7 96.7 0 0 0 18.8 4.2c2.2 0 5.2 0 7.4-.8Z" fill="#31439B"/><path d="m143 100.4-6.2 2.7h-.1l-.2.1c-1.4 1-2.6 3-2.6 3l-3.5-1.7c-1-.4-1.7-3-1.1-5.5.4-2.6 3.7-4.9 3.7-4.9s3.8-3 8-2.5c1.3.1 2.4.9 3.1 1.8l.6.8c1.1 2.3.8 5-1.8 6.2Z" fill="#FCD5CA"/><path d="M145.8 108.4c-.1 2.7-2.6 4.2-5.1 3.8-2.3-.4-7 .9-8 1.2 0 0-3.5 1.3-5.3 1.1-1.3 0-1.7-2.3-1-4.4.1-.7.4-1.4.8-2 1.1-1.7 3.4-2.5 4.7-2.8l1-.2 2.2-.4c1.3-.2 3-.4 5.2-.4 3.5 0 5 1 5.4 2.8l.1 1.3ZM182.8 124.2c0 2.4-.3 5-1.2 7.7-4.4 13.3-10.2 12.3-10.4 11.3-.2-.9-6.8-11-8.9-4.8-2 6.2-10.3 5-4.7.4 5.6-4.7 1.7-9.8 4.2-15.2 2.5-5.3 2-11 2-11l3.4-1.2c.5 2.6 1.2 6.3 1.4 6.3l5.6-.4s1.3.8 3.5 3.5c1.1 1.3 3.3 2.6 5 3.4ZM141 129c0 5.5-5.7 4.2-7.8 4.6-2.5.2-1.7 1.6-1.7 1.6s3 6.5-1.5 4.8c-1.4-.6-2.8-2.1-4-3-2.7-1.7-4.5-3.4-4-6.9.6-5 6.3-5.2 6.3-5.2s7.3-.7 9.2 0c1.9.6 3.3 1.3 3.5 3.6v.5Z" fill="#FCD5CA"/><path d="M141 129c0 5.5-5.7 4.2-7.8 4.6-2.5.2-1.7 1.6-1.7 1.6s3 6.5-1.5 4.8c-1.4-.6-2.8-2.1-4-3-.2-1.2-.3-2.6-.1-4 .9-5.3 7.8-2 12.3-3 1.5-.4 2.3-.9 2.8-1.4v.4Z" fill="#E9BEB9"/><path d="M141.4 121.4c-2.6 2-3.7.2-7.6 1.3l-.6.2-.4.1-7 2c-1.3.5-2.8-.4-3.3-2-.3-1-.2-2.1.3-3.5 1.5-3.9 7-4.3 7-4.3s5.2-1.2 9.2-1c1.8 0 3 1 3.5 2.2.8 1.6.4 3.7-1 5Z" fill="#FCD5CA"/><path d="M141.4 121.4c-2.6 2-3.7.2-7.6 1.3l-.6.2-.4.1-7 2c-1.3.5-2.8-.4-3.3-2 .5-.5 1.1-.7 2-.3 1.7.7 4-1 7.7-2.2 3.6-1.3 5.8.7 7.6-.3 1.8-1 2.7-3.8 2.7-3.8.8 1.6.4 3.7-1 5ZM145.8 108.4c-.1 2.7-2.6 4.2-5.1 3.8-2.3-.4-7 .9-8 1.2 0 0-3.5 1.3-5.3 1.1-1.3 0-1.7-2.3-1-4.4 0 0 .9 3.5 4.6 2.8 3.8-.8 8.1-3.2 9.6-2.7 1.3.5 4-1.2 5-3.1.2.3.2.8.2 1.3ZM144.1 93.4c-.7-1-1.8-1.6-3-1.7-4.3-.6-8.1 2.5-8.1 2.5s-3.2 2.3-3.7 4.9c-.5 2.6 0 5 1 5.5l1.6.7 1-.2 2.1-.4 1.4-1.4h.2l.1-.1 6.2-2.8c2.5-1 2.9-4 1.7-6.1 0 0-.3-1-.5-.9Zm.5 3c0 .7-6.4 3.3-9.3 4.2-2.8 1-4 1.6-4.4-.3-.2-.9 2.7-4.7 6-6 2.8-1.2 4.4-1.8 7-.2.5 1 .7 1.9.7 2.2ZM139.2 91.1h.4-.4Z" fill="#E9BEB9"/><path d="M183.4 120.8s1.4 7.8.4 12a25 25 0 0 1-7.5 13.3c-2.1 2.4-9.7 7.3-8.4 9.4 2.5 4 4 1.8 5.4.2 1.3-1.5 4.2.6 11-12s3.5-20.3 3.5-20.3l-4.4-2.6Z" fill="#E55531"/><path d="M243.8 161.5a81.7 81.7 0 0 1-5.5 21.8 17 17 0 0 1-8.5 8.7 28 28 0 0 1-3.7 1.5c-1.8.7-3.9.6-5.5-.5L215 189l-2.1-1.4-.8-.5c-8-5.4-16.3-9.8-20.6-11.8a196.1 196.1 0 0 1-20.4-11.7l-.2-.2c-1-1-2.4-2.5-1.5-4.5 0 0 0-.2.2-.3l.8-1 .2-.2.2-.2.6-.5.5-.4 1.7-1.1c4.6-3 8-6 12.4-16.7 4.4-10.6.7-15.2.7-15.2s-1.1-.5.4-2.2c1.5-1.8 5.7.2 9 2 3.8 2 8 8.2 18.6 13.2 10.6 5 22.1 11.7 27.3 14.1 0 .1 2.7 3.9 1.7 11Z" fill="#F15A34"/><path d="M173.7 105.6c-.8-.4-1.7-1-3-2-5-4.4-8.2-10-10.5-10.5-2.3-.4-4.7 1.8-2.2 4.2 1.4 1.3 2.4 4.6 2.9 7.6a88 88 0 0 0-6.2-7.8c-3.5-3.9-2.6-7.2-.7-9.6 2-2.4 4.4-.6 7.2 1.8 2.9 2.4 6.6 4.8 9.9 11 1 1.8 1.9 3.6 2.6 5.3Z" fill="#E9BEB9"/><path d="m229.8 192-3.7 1.6c-1.8.7-3.9.5-5.5-.6l-5.6-3.8-2-1.4c-8.4-5.6-17.1-10.2-21.5-12.2-3.6-1.6-12.3-6.4-17.3-9.5 2.8-4.8 8.3-10.7 8.5-11-.2.4-4.7 8.5 12.2 9.8 17.4 1.3 18.6 10.9 24 5 5.3-5.7 6-6 6 4.7.3 7.8.3 14 5 17.4Z" fill="#E55531"/><path d="M226.2 193.5a6 6 0 0 1-5.5-.5c-2.1-1.3-3.8-2.6-5.5-3.9l-2.1-1.4-.8-.5c-8-5.2-16-8-20.2-10a67 67 0 0 1-20.8-13.5l-.2-.2c-1-1-2.5-2.5-1.5-4.5l.1-.3 1-1v-.2l.3-.2.6-.5.4-.4 1.8-1.1c4.6-3 7.9-6 12.3-16.7 4.4-10.6.7-15.2.7-15.2s4.3 3 4 11c-.3 6.8-3.6 12.4-5.5 17-2 4.5-8.8 7.8-3.9 12.9 5 5 29 13.9 31.2 15.8.7.8 5.4 6.3 13.6 13.4Z" fill="#CC4929"/><path d="m200.8 66.9-4.2-.8a1049 1049 0 0 1-29.3-6.6c-.3-3.3-1-5.9-1.8-8 0 0 26.8 8 29.2 9l5.4 1.6c.4 1.4.6 3 .7 4.8Z" fill="#4A5FAB"/><path d="m58.7 50.7-35.9 8.8 1.5-13v-.2h-.5L0 45.1 32.7 37l-3.3 14.5 29.3-.8Z" fill="#F2973B"/><path d="m58.7 50.7-35.9 8.8 1.5-13 2.3 8.9 32-4.7Z" fill="#F58934"/><path d="m29.4 51.5.3-9L0 45.2 32.7 37l-3.3 14.5Z" fill="#F7BB73"/><path d="m31.4 11.5 18.3 17.6 2.6-8.8V20l.4.2 15.5 8.2-16.6-16.2-3.1 9.8-17-10.6Z" fill="#F2973B"/><path d="m31.4 11.5 18.3 17.6 2.6-8.8-3.4 5-17.5-13.8Z" fill="#F58934"/><path d="m48.5 22.1 3-5.5 16.7 11.9-16.6-16.2-3.1 9.8Z" fill="#F7BB73"/><path d="M58.3 63.7 47.4 74.2 46 68.9l-.2.1-9.2 4.9 9.8-9.7 1.9 5.8 10.1-6.3Z" fill="#F2973B"/><path d="M58.3 63.7 47.4 74.2 46 68.9l2 3.1 10.4-8.3Z" fill="#F58934"/><path d="m48.2 70-1.8-3.2-10 7 10-9.6 1.8 5.8Z" fill="#F7BB73"/><path d="M120.4 38.5c-.5 5.7-1.5 11.7-3.1 18C109.9 83.6 93.2 103 80 99.3c-10.4-2.8-15.6-18.8-13.7-38.7-.1 2.3-.5 28.4 10.4 34.7 11.5 6.7 24.3-8.6 31.1-18.7 6.6-9.7 12.3-36.5 12.6-38.2Z" fill="#3D51A3"/><path d="M115.6 35.7a96.4 96.4 0 0 1-11 39.3L95 67s9.8 2 14.3-12.3c4.3-13.9 2.4-18.6 2.4-18.8l3.9-.2Z" fill="#31439B"/></svg>