<svg width="265" height="158" viewBox="0 0 265 158" fill="none" xmlns="http://www.w3.org/2000/svg"><path d="M140.5 157.4c68.8 0 124.5-9 124.5-20s-55.7-20-124.5-20-124.5 9-124.5 20 55.7 20 124.5 20Z" fill="#DFDFEC"/><path d="m179 134.9 3.7 1.4s2.6-2.6 1.9-4.4c-.8-1.9-1.6-7.5-4.5-9.5-2.8-2-6.7-3.6-8-3-1.2.5-2.5 1.2-1.1 3.4l8 12Z" fill="#2E608F"/><path d="m238.6 132.6-3.9-.2s2.8-3.4-3.3-6.9c-6.1-3.5-7-3.4-7-3.4s-5 1.3-2.4-1.4c2.6-2.8 9.6-4.6 13.1-1.5 3.6 3 5 9.9 4.4 11.8-.6 1.8-1 1.6-1 1.6Z" fill="#2E6393"/><path d="m162.3 121.9 2-.7s3.3-1.6 5.6-1.3a13 13 0 0 1 9.8 7.6c2.4 5.5.2 14.2-7.3 15.8-1.9.4-8.8 0-10.3-.3-1.3-.3 1.7-.7.7-1.2a8.4 8.4 0 0 1-4.7-6.7c-.4-4.3 1.4-10.8 1.4-11l2.8-2.2Z" fill="#2B2B56"/><path d="M170.8 137.3c2.6 0 4.7-2.4 4.7-5.4 0-3-2-5.4-4.7-5.4-2.6 0-4.7 2.4-4.7 5.4 0 3 2.1 5.4 4.7 5.4Z" fill="#fff"/><path d="M222.5 120.7s5.1-.3 6.3 0c1.1.2 4.4.4 6.6 4.4 2.2 4 1.9 8.5-.2 11.4-2.1 3-5 4-8.3 3.8-3.4-.2-5.2-.8-6.2-1.2-1-.4-3-2-3.7-4-.8-2-.4-3.2-.4-4 0-.4.5 1.2.9.5.6-1 1.2-4.3 1.2-4.3l1.5-4 2.3-2.6Z" fill="#2B2B56"/><path d="M228 135.1c2.5 0 4.5-2.2 4.5-5 0-2.7-2-5-4.4-5-2.5 0-4.5 2.3-4.5 5 0 2.8 2 5 4.5 5Z" fill="#fff"/><path d="m246.1 126.3-.6 4.8c0 .3-1.6 1-3.2 1.2-1.2.2-2.5.3-3.8.3a26.7 26.7 0 0 0-.3-7c-.4-2-2.6-7-7.9-7.2a10 10 0 0 0-9.6 5.5 14 14 0 0 0-1.3 4.6l-.2 3a2.1 2.1 0 0 1-1.3 2l-2.1.5c-2.2.3-12.3 1-21 1.6l-12.1.7s.8-5-1-9.6l-.7-1.4-1-1.6c-1-1.1-2.2-2-3.5-2.7-2.3-1-5-1.4-8.4-.7-7.1 1.4-13.7 2.2-13.7 2.2l-3.4 6.4-16.6-26.3-.3-.5-.2-.2c.7-.4 9.4-5.2 15.9-10 6.8-5 10-8.2 18.3-10.6a86 86 0 0 1 25.3-2.5c8.4 0 19.8 0 30.9 5.6l4 2.2a39 39 0 0 1 17 20.7v.1a72.8 72.8 0 0 1 0 17.2c.3 0 1 .5.8 1.7Z" fill="#68AAD9"/><path d="M173.4 121.5a.2.2 0 0 1-.2-.1v-.3h.3l-.1.4Z" fill="#292955"/><path d="M228.2 86.6c-15.8-7.2-30.6-3.6-36.1-2.6-5.9 1-11.4 6.2-15.5 10.9-4.2 4.7-10.3 13-10.3 13-4.3 1.5-8 4.3-8 4.3l-12.8-3.7s-8.6-2.8-11.2-6a2.2 2.2 0 0 1-.4-.6c.3-.2 2-1 4.2-2.4 3.2-2 7.8-4.8 11.7-7.6 3-2.2 5.4-4.1 7.8-5.7a36 36 0 0 1 10.4-4.9 85.7 85.7 0 0 1 25.3-2.5c8.5 0 19.8 0 31 5.6l4 2.2Z" fill="#7BBBE0"/><path d="m177.8 90.6-2.7 3.2-7.6 8.8c-1 1.2-2.2 3.3-5.3 3-2.6-.2-17.1-2.9-24.1-6.1 3.2-2 7.8-4.8 11.6-7.6 3.1-2.3 5.4-4.1 7.9-5.7 1.4-1 2.9-1.9 4.4-2.6h1.4c6.3 0 12.2 1 13.9 2.4 1.7 1.4 1.7 3 .5 4.6ZM200.9 89.5l-.2 4.6-.3 12.8-13.8-.3s.2-3-1.5-4l-.5-.2c-2.3-.6-4.5-.4-5.3 1.8h-1s.9-4.5 6.5-9.9h.1c5.5-5.2 15.5-4.8 16-4.8Z" fill="#272A56"/><path d="M173.4 101.2a.1.1 0 0 1-.2 0v-.2a55.6 55.6 0 0 1 16.3-15.7.1.1 0 0 1-.1 0c-8 4-15.8 15.7-16 15.8Z" fill="#5787B5"/><path d="m178.4 97.5-.2-.1s4.6-6.8 12.6-10l.1.2c-8 3.2-12.5 9.9-12.5 10Z" fill="#5787B5"/><path d="M206.2 131c-2 0-2.4 1.4-2.4 1.4v-45a1 1 0 0 0-1.1-1c-2.4 0-4.7.1-7 .4 0 0 4.4-1.8 8.3-1.6 4 .2 4 1 4 4v39.7s.2 2.2-1.8 2.2Z" fill="#5584B1"/><path d="m207 129.3-1.9.3V87.5l-1.8-.9s2.2-.5 3 .4c1 1 .7 1.3.7 12.5v29.8Z" fill="#272A56"/><path d="M179.8 118.6v.4a.3.3 0 0 1-.4 0c-.7-.2-1.5-.7-2.1-1-6-3.2-14.6 1.2-14.7 1.2-.2 0-11.2-4 1.7-5.3 9.7-1 14 2.8 15.5 4.7Z" fill="#7BBBE0"/><path d="m173.6 112.6-.3 3.6s4 2.4 6.6 5.6c2.7 3.3 4-2.7 3-4l-2.7-3-6.6-2.2Z" fill="#69ABD9"/><path d="M171.4 113.2c10.7-1.7 21.6-2.2 32.4-1.4v2s-17.9-1.7-31-.5c-2.8.2-5.4.6-1.4 0Z" fill="#619DCC"/><path d="M238.7 110.5s-9.4-2-30.7-.7v-1.5h1s15.3-.7 22 .3c6.6 1.1 7.7 1.9 7.7 1.9Z" fill="#609DCB"/><path d="m219.4 128.5-.2 3a2.1 2.1 0 0 1-1.3 2l-2.1.5c-3.6.5-28.7 2-33.1 2.3 0 0 .8-5-1-9.6l-.7-1.4c2.3 2.2 2.6 6.4 3.8 7.6 1.5 1.4 9.8 1.1 14.9.7 4.5-.3 13-.6 16.2-1l.9-.1s.9 0 1.6-1.1c.6-1 .5-2 1-3Z" fill="#4A8EBE"/><path d="M178.8 107a2.2 2.2 0 0 0 1 1.5c1.1.7 1.5 1.6 1.5 2 0 .4 1.6 2.4 3 3 1.5.7 1.8 1.4 3.6.4 0 0 .2-4.5-1.5-5.2 0 0-1.3 1-2.7.3l-1.7-1s-1.7-1-2-1h-1.2Z" fill="#619DCC"/><path d="M186.6 106.6a3.7 3.7 0 0 1-2.8 2.3c-2.2.4-3.5-.7-4-1.5h-1s-.5 0-.6-1.4h1a1 1 0 0 1 0-.8s1 2.7 3.8 2.3c1.6-.4 1.6-2.2 1.6-2.9 0-.6-.2-1.5.5-2 1.7 1 1.5 4 1.5 4Z" fill="#5097C3"/><path opacity=".2" d="m194.8 135.6-12.1.7s.8-5-1-9.6l-.7-1.4-1-1.6c-1-1.1-2.2-2-3.5-2.7 2.1 0 5.2.6 7.7 4.7 1.7 2.7 2.2 4.8 2.5 5.8 0 .2 0 .3.2.4.1.2.3.2.5.2 2.7.1 4 .8 5.3 1.8 1.2 1.1 2.4.5 2.1 1.7Z" fill="#272A56"/><path d="m195.3 114.5 3.8.2a1 1 0 0 0 1-.5v-.4a1 1 0 0 0-1-.9l-3.7-.2a1 1 0 0 0-.7.3 1 1 0 0 0-.4.6c0 .3.1.5.3.7l.7.2Z" fill="#272A55"/><path d="m177.8 90.6-2.7 3.2c-.7-2.1-2-4-3.7-5.3-3.5-2.8-9-3-13.8-2.4 1.4-1 2.9-1.8 4.4-2.6h1.4c6.3.2 12.2 1.1 13.9 2.5 1.7 1.4 1.7 3 .5 4.6ZM200.9 89.6l-.2 4.5c-2.5-3.4-11-1.4-15.8.1 5.5-5.1 15.5-4.7 16-4.7Z" fill="#38385E"/><path d="M159.2 111h-.1a.1.1 0 0 1 0-.2c1.7-1 6.3-3.3 6.4-3.3a.1.1 0 0 1 .1 0v.1a.1.1 0 0 1 0 .1 112.6 112.6 0 0 0-6.4 3.3ZM209.1 121.4a.2.2 0 0 1-.2-.2V88a.2.2 0 0 1 .2-.2.2.2 0 0 1 .2.2v33.2a.2.2 0 0 1-.2.2Z" fill="#5787B5"/><path d="M245.8 115.5c-1.2.7-2.4-1-2.7-2.2-.2-1.3-1.2-1.1-1.3-1.9-.1-.8.4-1.9 2-3.2.3-.4.9-.6 1.4-.8.5 1.4.7 4.7.6 8.1Z" fill="#F47958"/><path d="m233.1 108-4 .1c-.4 0-.7.4-.6.8 0 .3.3.6.7.6l4-.2c.4 0 .6-.4.6-.7 0-.4-.3-.7-.7-.7Z" fill="#272A55"/><path d="M203.8 129.8v2.6l-16.4-.3c-.2 0-.4 0-.5-.2.3-.5.6-1 2.3-1.4 4-.7 14.6-.7 14.6-.7Z" fill="#7BBBE0"/><path d="m217.6 121.7-.1-.3v-.2l.1-.3c0-.3.2-.5.3-.7a12.2 12.2 0 0 1 3.8-4.7 11.4 11.4 0 0 1 13.1-.3c.5.2.9.5 1.2.8l.6.6.2.2.2.4a.2.2 0 0 1-.2.2c-.4 0-.5-.2-.7-.3l-.6-.3a9.2 9.2 0 0 0-3.8-1.2h-2.9l-.3.1-.7.1-1.3.3a18.5 18.5 0 0 0-4.7 2 10.7 10.7 0 0 0-3 2.6l-.3.6-.2.2-.4.2a.3.3 0 0 1-.3 0Z" fill="#7ABAE0"/><path d="m208 126 5.7-.6s1.7.6.9 3.3l-6.6.5v-3.1Z" fill="#7BBBE0"/><path d="m246.1 126.3-.6 4.8c0 .3-1.6 1-3.2 1.2-1.2.2-2.5.3-3.8.3.2-2.1.1-4.3-.2-6.4.8 1 2 2.3 3.9 2 2.9-.2 2.8-2.3 3.1-3.6.3 0 1 .5.8 1.7Z" fill="#4A8EBE"/><path d="m173.6 107.1-.1 9-.1-.2a8 8 0 0 1 1.4.3v.4H174.5l-1.2-.4v-.2l.3-8.9Z" fill="#5787B5"/><path d="M212.8 88.8a1.6 1.6 0 0 1 .5-1.2 1.6 1.6 0 0 1 1.2-.5c2.7.2 8.1 1 12.4 4.8 4.8 4 6.3 7 7 9.3a1.6 1.6 0 0 1-.9 1.9l-.7.2-17.5.5a1.7 1.7 0 0 1-1.5-1l-.2-.6-.3-13.4Z" fill="#272A55"/><path d="m164.8 73-1.2 1.2-.8.5c-1.9 1-3.7 2.1-4.6 3.3-.6.6-.9 1.3-.8 2 0 1.5.4 2 1 2.3l1 .4.5.3c1.1 1 2.5 2.8 1.7 4.4-.7 1.4-2.4 1.7-4 1.3a7 7 0 0 1-1-.3l-.6-.2c-1-.5-1.5-1.2-2.2-1.8-.8-.8-1.6-1.6-3.2-1.7h-.5c-1 0-2 .1-3 .5-1.2.6-2 1.5-2 2.6 0 2.1 3.3 2.4 5.5 2 2-.2 4.2 0 6.2.5a6 6 0 0 1 3.5 2.3c1.8 3 1.5 6.3-1.2 7.3-2.8 1-5.6-.5-6.5 1.9-.9 2.4 4.3 2.6 3.8 7-.3 3-9.5-2.7-15.4-7.1a21 21 0 0 1-4.8-4.3l-1.1-4.2s-1.5-3.5.9-7.7l.2-.3c2.5-3.8 6.8-4 9.9-4.2 3.1 0 3.4-.7 4.6-1.4 1.1-.7 1.7-.9 2.3-1.7l1-2.1.3-1.2-.1-1.3c0-.7-1.2-.7-1.2-1.8 0-1.2-1.2-2.4-3.4-2.6-2.2-.3-2.3-.3-3.5-1.5-1.1-1.2 0-3.7 1.2-4.7.8-.7 2-1.4 4.4-1.5a19 19 0 0 1 5 .6c4.1 1.1 7 3.9 8.2 6 .2.2.3.6.4 1 .3 1.4.4 2.8-.5 4.1Z" fill="#BBBABA"/><path d="M151.8 44.2c-.7.6-.1 1-.5.9-.4-.2 0-.4-.6-1.2-.7-.7-1.7-1.5-1-1.8.5-.2 1.2 0 1.6.5.6.5.9 1.3.5 1.6ZM149.8 49.7c-.8.8-1.5.5-2.3-.7a2 2 0 0 1-.2-.5c-.4-1.2.2-2.7.7-3 .6-.3 1.2 0 1.8.5.5.4.8 1 1 1.3a2.6 2.6 0 0 1-1 2.4Z" fill="#686868"/><path d="m163.2 54.5-.2.4c-.2.6-.8 1.5-1.2 1.7-.7.2-.9-.4-.7-.8l.6-1.4V54c0-.7 0-1.5.3-1.6 1-.2 1.3 1.6 1.2 2.2Z" fill="#797A79"/><path d="M171.4 63.8v.1c-.2.5-.6.9-1.4.7-.7 0-.9-1-.6-1.2.3-.3.4-.7.4-1.1V62l-.1-1c.2-.3.8 0 .7.3 0 .3.6.3.8.8.2.5.2 1.1.2 1.7Z" fill="#909090"/><path d="M140.6 62.4c-.2 0-.4 0-.6.4l-.3.3h-.4c-.2 0-.7-.4-1-.8-.3-.2-.4-.4-.4-.6-.1-.6 0-1.3.4-1.8.7-1.1 1.4-.9 1.8-.8a.6.6 0 0 1 .5.7l.2 1.6.1.4c0 .4 0 .6-.3.6Z" fill="#686868"/><path d="M142 72.8a3.2 3.2 0 0 1-1.4 2.5 4 4 0 0 1-3 .7c-1.1-.2-2.1-.8-3-1.6l-.7-.5a8.7 8.7 0 0 1-1.2-2.6 4.5 4.5 0 0 1 .7-3.6c1-1.2 1.7-1.5 2.3-1.3l.5.1c.5.2.8.5.8.8 0 .4-.3 1-.8 1.4-.3.3 0 0 0 .5 0 .4-.4.2-.2.5.1.4.7 0 .7 0 1-.6 1.7-.8 2.3-.9h.4c.7.2 1.8.8 2.2 1.6.4.8.5 1.6.4 2.4Z" fill="#ABABAB"/><path d="m170.2 79.8-.2.7c0 .3 0 .6-.2.8-.4.5-1 .8-1.5.3-.5-.4-1-.6-1-1.5v-.3c.2-.8.8-1.5 1.4-1.7 1.2-.2 1.6 1.4 1.5 1.7Z" fill="#BBBABA"/><path d="m164.8 73-1.2 1.2a8 8 0 0 1-.8.5c-1.9 1-3.7 2.1-4.6 3.3-.6.6-.9 1.3-.8 2 0 1.5.4 2 1 2.3l1 .4.5.3c-.6 2.1-3.5 3-6 3.4-.9-.8-1.7-1.6-3.3-1.7h-.5c-1 0-2 .1-3 .5l-.2-.3c0-.8-1.3-2.2-4-1.7a5.6 5.6 0 0 0-3.8 2.7s1.5-.6 2 0c.4.7-.1 2-1.2 2.7-1 .7-3.2.6-3-1.7 0-1.1-.3-1.6-.7-1.7 2.5-3.8 6.8-4 9.8-4.1 3.2-.1 3.5-.7 4.6-1.5h.1c1.1-.7 1.7-.8 2.3-1.7l1-2.1.3-1.2c4-2.5 10.2-7.4 10.6-6.9l.4 1c.3 1.5.4 3-.5 4.2Z" fill="#ABABAB"/><path d="m164.8 73-1.2 1.2-.8.5c-1.9 1-3.7 2.1-4.6 3.3-.2-.8-.6-1.6-1.2-1.7-1.4-.1-1.8 0-2.9.9 0 0 1.4-3.2 4-4.9 4.5-2.9 5.8-1.7 6-.8l.7 1.4Z" fill="#B3B2B2"/><path d="M158.7 69.8c-.3 1-3 6.1-3.9 6.7-.9.6-1.3 1.7-1.8 2.2-.6.5-.6.1-1.4.8-.4.4-.7.4-.9 0 1.1-.6 1.7-.8 2.2-1.6l1.1-2.1c.5-1.1.2-1.8.1-2.5 0-.7-1.1-.7-1.2-1.8 0-1.2-1.2-2.4-3.4-2.6-2.2-.3-2.2-.3-3.4-1.5-1.2-1.1 0-3.7 1.2-4.7s3.2-2.1 8.5-1l.9.1c.5 1.3 1 2.8 1.6 3.5 1.2 1.2-.4 1.5.2 2.7.5 1.3.5.8.2 1.8Z" fill="#909090"/><path d="M163.6 74.2V74c.6-3.3-4.1-1.9-5.3-1.3-1.1.7-1.9 1.6-1.4.3s.7-1.5.6-2.3c0-.8.6-.1.8-.6.3-.4-.3-3.1-2.2-3.4-1.4-.3-1.8 0-2.1.5-.4-.4-.8-.6-1.3-.8 0 0-2.3-2.8-5.4-1.4 0 0 3.5-2.6 7 .7 0 0 1.4-.6 2.9.7 0 0 0-3-5-4v-.1a5 5 0 0 1 2.3.3 8.4 8.4 0 0 0-2.8-1.4 19 19 0 0 1 5 .7c4.8 1.3 8 4.9 8.6 6.9.5 1.9.4 3.8-1.7 5.4Z" fill="#878787"/><path d="M161.6 87.4c-1 1.8-3.5 1.8-5.6.8-1-.5-1.6-1.2-2.2-1.8-.8-.8-1.6-1.6-3.2-1.7h-.5a3 3 0 0 1-.5-1c-.4-1.4 1.1-2.2 1.8-1.9l1.1.7s.3-1 1.3-.7c1 .4 1.4 1.1 1 1.3a.9.9 0 0 1-1-.2s.3 1 1.8 1c1.4.1 1.5-1 1.4-1.5-.1-.5 0-1 .4-.7l1 .6 1 .4.5.3c1 1 2.5 2.8 1.7 4.4Z" fill="#BBBABA"/><path d="M155.8 86s1.5-.5 2.3.4c1 .9.5 1.1-.2 1.4a1.7 1.7 0 0 1-1.8-.3c-.4-.4-.4-.9-.5-1-.1-.2 0-.5.2-.4Z" fill="#B3B1B1"/><path d="M156.5 84.8c-.3 0-.2.4.2.4 0 0-.4.4 0 .4s1 0 1.6.3c.5.4.6.5.5 0 0-.3-1.3-1.4-2.3-1.2Z" fill="#A6A5A5"/><g opacity=".7" fill="#A8A6A9"><path opacity=".7" d="M157.5 88.7ZM159 100c-2.7 1-5.5-.6-6.4 1.8-1 2.4 4.2 2.7 3.8 7-.4 3-9.6-2.7-15.4-7.1.5-2.2 1.8-3.9 3.7-4.2 2.8-.4 4.4 1.3 7.2.6 2.8-.6 2.8-2.8 1.8-3.9-1-1-1.5-3.1 0-2.9 1.3.2 3.8 1 3.4 0l-.3-1a6 6 0 0 1 3.5 2.3c1.8 3 1.5 6.3-1.3 7.3Z"/></g><path d="M146.4 92.6c-1.1-.7-3.3-1.8-5.4-.8 0 0 .9-1.9 3.3-1.3a2.9 2.9 0 0 1 2 2Z" fill="#A4A3A3"/><path d="M147 93.8s.3-.8 1.5-.4c1.1.3 2.1 1.2 2.7 1 0 0-.2.5-1 .2-.9-.3-1.3-.7-2-.5 0 0-.3-.5-1.1-.3Z" fill="#99989A"/><path d="M154.3 97.7c.5-.3 1.1-.4 1.8-.3 1 .3 1 1 1 1s-1-.8-1.5-.6l-1.3-.1Z" fill="#9E9C9D"/><path d="M156.1 95s.6-1 1.5-.1c0 0 0-.8-.6-.9-.5 0-.9 1-.9 1Z" fill="#A09FA1"/><path d="M159.7 74.2a1 1 0 0 1 1.1.7s.8-.4 1.3-.2c0 0-.5-.4.4-.5 0 0-.7-.6-1.6 0 0 0-.5-.7-1.2 0ZM159 75c-.7-.1-1.8 0-2.5.6 0 0 .3-1.2 1.5-1a1.2 1.2 0 0 1 1 .4Z" fill="#909090"/><path d="M140.5 94.3c-1.4-.5-3.3.5-3.3.5s-.2 0 .4-.8c.6-.7-.4-2-.4-2 1.9.2 1.4 1.8 1.4 1.8 1-.3 1.6.1 2 .5Z" fill="#A4A3A3"/><path d="M153.1 68.8s.4-1.3 2.2-1c1.9.3 1.6 2.4 1.6 2.4s-.5-1.5-1.8-1.9c-1.2-.3-1.2 0-2 .5ZM153.8 71.5s-.3-.9.6-1c1-.1 1.2 1 1.2 1s-.6-.6-1-.6c-.5 0-.8.6-.8.6ZM146.7 66.6s0-1.3 2.1-1c2.1.3 1.8 2.3 1.8 2.3s-.5-1.6-1.3-1.7c-.8-.2-1.4 0-1.5.6 0 .7.6.7 1 .5 0 0 0 1.1-1 .8-.9-.2-1.3-1-1.1-1.5ZM148 63.5s-.4-1 1-1.2c1.6-.3 2.5 1.3 2.5 1.3s-1-1-2-1c-1 .2-1.3.2-1.5.9Z" fill="#878787"/><path d="M139.9 84.8s.3-1.8 3.2-2.1c3-.4 3.8 1.7 3.8 1.7a4 4 0 0 0-3.9-1c-2.4.5-3.1 1.4-3.1 1.4ZM141 91.8s.6-2 3.6-1.2c0 0-.4-1.2-2.2-.8-1.8.4-1.4 2-1.4 2Z" fill="#909090"/><path d="M171.4 63.8v.1c-.2.5-.6.9-1.4.7-.7 0-.9-1-.6-1.2.3-.3.4-.7.4-1.1a.7.7 0 0 1 .5.2.6.6 0 0 1 .2.5c0 .8 0 1 .6.8h.3Z" fill="#ABABAB"/><path d="M163 55c-.2.5-.7 1.4-1.2 1.6-.7.2-.9-.4-.7-.8l.6-1.4c.5-.4.8-.4 1.3.5ZM149.8 49.7c-.8.8-1.5.5-2.3-.7a2 2 0 0 1-.2-.5c.4-.6 1.2-1 2.7-.7 0 0-.8-.7-.2-1.8.5.4.9 1 1 1.3a2.6 2.6 0 0 1-1 2.4Z" fill="#909090"/><path d="M151.8 44.2c-.7.6-.1 1-.5.9-.4-.2 0-.4-.6-1.2a1.4 1.4 0 0 1 .6-1.3c.6.5.9 1.3.5 1.6ZM140.6 62.4c-.2 0-.4 0-.6.4l-.3.3h-.4c-.2 0-.7-.4-1-.8.1-.3.4-.3.9-.1 1 .4 1.3-.3 1.6-.8l.1.4c0 .4 0 .6-.3.6Z" fill="#797A79"/><path d="M136.4 75.1s.5-1.2 2.5-.2l.8-.4s-1.2-.6-.9-1.5c.3-.8 1.4-1 1.4-1s-.5.2-.5-.5c0-.6-.2-1-.8-.9-.6.2-.6 1-.6 1s-1.6.5-1.5 1.4c0 0-1.4 0-.4 2.1Z" fill="#B3B1B1"/><path d="M142 72.8a3.2 3.2 0 0 1-1.4 2.5c-.8.6-1-.5-.6-1 .2-.1.3-.4.4-.6l.3-1c.1-.3.2-.6 0-1 0-.5-.5-.8-1-1.2l-.5-.6c-.4-.5-.2-.8.2-1 .7.1 1.8.7 2.2 1.5.4.8.5 1.6.4 2.4Z" fill="#909090"/><path d="M148.1 49a1.2 1.2 0 0 1 1.4-.8 1.8 1.8 0 0 0-1.4.8Z" fill="#797A79"/><path d="M170 80.5c0 .3 0 .6-.2.8-.4.5-1 .8-1.5.3-.5-.4-1-.6-1-1.5v-.3c.4.6.9 1.2 1.5 1l1.2-.3Z" fill="#ABABAB"/><path d="M135.5 68c-1 .5-1.1.7-2.2 2.3l-.6 1a4.5 4.5 0 0 1 .7-3.6c1-1.2 1.7-1.5 2.3-1.3l.5.1v.3c.1.6.4.6-.7 1.1Z" fill="#909090"/><path d="M133.2 70.5c0-.7.2-1.3.7-1.9.7-.9 1.4-1.4 2.1-1.2.7.3 0 .3-.6.6s-1.8 1.6-2.3 2.5Z" fill="#B3B1B1"/><path d="M144 145.5s7.6 2 14 .4c6.3-1.6 3.5-7.6 3.5-7.6s-9.3 1-9.9 1.7c-.6.7-2.6 1.2-3.3 2-.7 1-4.3 3.5-4.3 3.5Z" fill="#272A56"/><path d="M108.4 123.2a24 24 0 0 0-12.7 3c-4 2.8-1.7 10.6-1.7 10.6l2.3 4.7 3.7-.6s23.3-3.2 8.4-17.7ZM68.5 133.7l-.5-.2c-.8-.3-2.3-1.1-2.6-1.8-.4-1-2.6-7.8-2.9-7.5a5 5 0 0 0-.8 1.6c0 .3-4 4.7-4 4.7H55l-.6-.8c-.2-.5-1-1.8-1-3.5 0-.7 0-1.4.4-2a16 16 0 0 1 7.6-7.2c3.7-1 5.3 3.5 6.7 5.3 1.4 1.7.6 11.3.5 11.4Z" fill="#987A00"/><path d="M115.2 139.7c0 2.5 3.2 2.3 3.7 4.4.4 1.4-1.4 5.6-3.1 6.6-1.4.7-8.4.9-10 .9-3.3 0-7-5.4-7-12 0-7.9 4.1-11.7 7-12 4.7-.7 7.2.2 8.2 1.5 1.9 2.1 1.2 6.5 1.2 10.6Z" fill="#272A56"/><path d="M106.5 146c1.7 0 3.1-2.6 3.1-6 0-3.3-1.4-6-3.1-6-1.8 0-3.2 2.7-3.2 6 0 3.4 1.4 6 3.2 6Z" fill="#fff"/><path d="M69.8 129.7c0 2 1.2 2.3 1.7 4 .3 1.2-1 4.1-2.1 5-1 .6-6.1.6-7.5.6-2.7 0-5.8-4.1-5.8-9.6 0-5.4 3.5-9.8 5.8-9.8 1.4 0 6 0 7 1 1.4 1.8 1 5.4 1 8.8Z" fill="#272A56"/><path d="M174.4 128c-.2.5-.6 1-.5 1.3l.1 1c0 .2 0 .5-.2.7-.3.8-.3.8-.2 1.5l.2 2v1c0 .7-.1 2.9-1.2 3.6-1.2.8-.5.9-3.8 2-3.3 1-9.1 3.4-20.1 5-7.3 1-18.2 2.6-27.9.7a49 49 0 0 1-7.1-1.9l-.2-6.5c0-1-.2-2-.4-3-.7-3.5-2.5-7.5-5.7-8.4-3.7-1.1-6.7.6-7.8 2.5a25.4 25.4 0 0 0-3.3 12l-28.4-7v-1c.2-1.8.2-3.6 0-5.4-.1-1.7-.3-3.8-1.2-5.5-2.5-5.2-7-5-9.1-1.8-1 1.4-1.4 2.7-1.9 4.2-.4 1.4-.6 2.8-.7 4.3v1.2s-3.7-.8-4.3-1.2c-.6-.4-.7-.8-.6-1.4 0-.7-.2-4.4 0-4.9 0-.4.2-.7.7-.7H52c-.3-1.7-.5-3.3-.6-5l.3-4.9a47.3 47.3 0 0 1 1.9-8.6c2.4-5.8 4.3-8 6.5-10.3a33.7 33.7 0 0 1 11.1-7.3c5-2.1 10.8-3.9 20.3-4.4 9.6-.5 20.7 1 26.7 2.2a36 36 0 0 1 13.4 4.9 184.7 184.7 0 0 1 19.5 16.9l.5.2h.1l.7.4.2.1 1.6.8.2.1.3.2 2.3 1.1.5.3 1 .5.4.2.8.4 1.2.6.3.2.4.2.7.4.6.3.7.4.3.2.4.2.3.2.1.1.2.1 1 .8.2.2.1.1h.1v.1a1 1 0 0 1 .7.2c.2.2.1 1.4 1 2.1.4.4 1.2.6 1.5 1l.2.1.3.2c.5.7 2.5 1.8 2.3 3.1 0 0 .7.2 1.8 2.1 1 1.9.4 4.6.3 5Z" fill="#F2C037"/><path d="M95 113s-2.1.2-2 1.6c.1 1.3 4 1.6 5.2 1 1.4-.5 3.7-4 3.2-4-.6 0-.9-.2-1.9.5-1 .7-4.5.8-4.5.8Z" fill="#E3B43B"/><path d="M101.4 111.3v.5h-1.2s-1.1 1.7-4 1.7c-2.8 0-3.7-1.7-4-2.6h.1v-1.7c0 .3.2 1.6 1 2.3l.5.4c1 .5 2.3.7 3.4.5 1.7-.3 2.2-.7 2.5-1l.5-.6c0 .1 0 .5.3.5h.9Z" fill="#D8AC3E"/><path d="M136 137.5c-.4.4-1 1.7 4 1.5 5-.3 27-2.7 32.8-7.8 5.7-5.2-22 .2-22 .2l-14.8 6Z" fill="#DFAA20"/><path d="M54.8 108.7c-.1.7-.6 1.2-.9 1.5-.3.6-.8 2.3-1.7 2.3h-.5l.3-2 .8-4.4a2 2 0 0 1 1.8 1.3l.2 1.3Z" fill="#F47958"/><path d="M55.7 125c-.4 1.4-.6 2.8-.7 4.3v1.2s-3.7-.8-4.3-1.2c-.6-.4-.7-.8-.6-1.4 0-.7-.2-4.4 0-4.9 0-.4.2-.7.7-.7.4 1.2 0 1.9.4 2.5.4.6 1 1.3 2 1.4h.5c1-.1 1.6-.8 2-1.2Z" fill="#D59F14"/><path d="M57.6 116.8s4-3 7.8 0c2.4 1.7 4 4.2 4.7 7 0 0 .6-6-4.2-9-4.7-3-8.3 2-8.3 2Z" fill="#F9CD75"/><path d="M97.8 133.2c-1 2.7-1.5 5.5-1.5 8.3l-28.4-7c.2-2 .2-4.2 0-6.4.7 1.8.7 4.7 3.1 5.7 2.8 1.2 17.8 5 20.6 5.3 2.7.4 4-1.3 4.8-3.5.4-1.3 1-2 1.4-2.4Z" fill="#D59F14"/><path d="M72 127.7c-.3.3-.4.6-.4 1 0 1 .2 1.8 1.3 2.2 1.2.5 17.2 5 17.8 4.9.5-.2.6-.6.2-1a459.5 459.5 0 0 0-18.8-7.3l-.2.2ZM99 124.5s4-3 9.8-.6c5.8 2.3 8 8.6 8 8.6h.5s-.4-5.3-3.7-8.7c-3.4-3.4-9.5-5.2-14.6.7Z" fill="#F9CD75"/><path d="M173.8 135.5c0 .7-.1 2.9-1.3 3.6-1 .8-.4.9-3.7 2-3.3 1-9.1 3.4-20.1 5-7.3 1-18.2 2.6-27.9.7-2.4-.5-4.8-1-7.1-1.9l-.2-6.5c0-1-.2-2-.4-3 .5.7.9 1.6 1 2.6 1 3.6 1.1 5.2 2 5.5.8.3 3.2 1.7 10.5 2 7.3.2 8.5-1 8.9-1.3.3-.2 1.9-.1 4-.1 2.2 0 7.9-.6 11.1-1 3.3-.6 12.2-2.7 15-3.8 2.6-1 6.8-2.1 8.2-4.7v.9Z" fill="#D59F14"/><path d="M174.4 128c-.2.5-.6 1-.5 1.3l.1 1c-1.6.6-3.5.5-4.4.4a3 3 0 0 0-1.8.3c-8.4 3.2-23.4 5.1-23.4 5.1-4.4 2.5-7 3.2-9.9 2.8-2.9-.4-4.3-2.8-4.9-6.3-.6-3.4-1-4.5-6.2-9.8a44 44 0 0 0-12.4-8.3c-1.1-1.8-6-14.8-12.6-20.6A32.4 32.4 0 0 0 77 86.4c-3.2-.2-7 .3-9.1 1.4a36.6 36.6 0 0 1 7.2-3.2 49.3 49.3 0 0 1 16.4-2.8 114.7 114.7 0 0 1 26.7 2.1 36 36 0 0 1 13.4 5 184.7 184.7 0 0 1 19.5 16.9l.5.2h.1l.7.4.2.1 1.6.8.2.1.3.2 2.3 1.1.5.3 1 .5.4.2.8.4 1.2.6.3.2.4.2.7.4.6.3.7.4.3.2.4.2.3.2.1.1.2.1 1 .8.2.2.1.1h.1v.1a1 1 0 0 1 .7.2l1.8 1.7 1 1.2.1.5.3-.4a49 49 0 0 1 2 3.2s.8.5 1.9 2.4c1 1.9.4 4.6.3 5Z" fill="#F7C85F"/><path d="M120.8 87c-1 .7-2 1.3-3.2 1.8-2 .8-4.2 1.3-5.7-.5-1.3-1.8-9.9-3.3-19.1-3.5-9.6-.3-19.8.8-19.8.8v-.2a42.3 42.3 0 0 1 3.5-1.2c1.3 0 4.5-.5 6.4-.5 6.3-.2 13.7-.5 20.8.1 10 .8 17 3.1 17 3.1Z" fill="#F6C14E"/><path d="m127.2 91-9.6-2.2-3.1-.7s-10.6-6-20.2-5.6c-7.9.3-15.3 2-19.1 2.1a49.3 49.3 0 0 1 16.3-2.8A114.7 114.7 0 0 1 117 84c5.8 2.3 10.2 7 10.2 7Z" fill="#F9BC5E"/><path d="M122.2 121.8a45.1 45.1 0 0 0-10.4-6.8c-.6-.3-1.2-.8-1.5-1.5l-.6-1.3c-2-4.4-6.2-13.6-11.4-18.3a.1.1 0 0 1 0-.1.1.1 0 0 1 .2 0c5.2 4.6 9.4 13.9 11.5 18.3l.6 1.3c.2.6.7 1 1.3 1.4a45.3 45.3 0 0 1 10.4 7h-.1Z" fill="#C69D47"/><path d="M159.5 119.9c-2.3.6-2-.7-3.4-.2-1.5.4-3.4 1.1-7.5 1.3-4 .1-7.7-1.2-5.9-1.9 1.9-.7 4.9.4 9.9-4.4 2.4-2.3 2.3-5 1.6-7.4a298 298 0 0 1 7.4 3.8l1.3.7c1 3.9-1.2 7.5-3.4 8Z" fill="#FFD880"/><path d="M126.5 127.6c2 1.5 6 3.1 10 2.8 3.1-.3 3.1-.3 3.3-.9.2-.6.3-1-.5-2s-3.5-4.2-6.4-5.3c-3-1-8.7-.9-10.8.6-1.6 1.2 1.3 2.5 4.4 4.8Z" fill="#F3F3F3"/><path d="M57.5 109s9.6-.4 23.3 3.3a91.2 91.2 0 0 1 18.5 7 .3.3 0 0 1-.3.2l-5-.4c-.8 0-1.6-.2-2.3-.6a98.6 98.6 0 0 0-34.2-9.4Z" fill="#D8AC3E"/><path opacity=".7" d="M77.7 90.1 75 125.2a.3.3 0 0 0 .3.4l.2-.1.1-.2L78 90h-.3Z" fill="#B59048"/><path d="M75 90.4a.8.8 0 0 1 1 .6v.3l-.3 3.6-1 11.1a.8.8 0 0 1-.4.6.8.8 0 0 1-.7.1L60.3 104a1.4 1.4 0 0 1-1-.7 1.3 1.3 0 0 1 0-1.2l1.2-2.4c1-1.7 2.2-3.3 3.8-4.6A21 21 0 0 1 75 90.4ZM86 116.7h-.2l-4.2-1.1a.5.5 0 0 1-.4-.4.5.5 0 0 1 0-.4.6.6 0 0 1 .6-.2l4.3 1a.6.6 0 0 1 .3.3.5.5 0 0 1-.4.8ZM62.4 110.1h-.1l-2.5-.4s-.2 0-.3-.2a.5.5 0 0 1 .1-.6l.4-.1 2.4.4c.2 0 .3 0 .3.2a.5.5 0 0 1-.3.7Z" fill="#272A56"/><path d="m76 91.3-.3 3.6a9.2 9.2 0 0 0-6.7-.6c-2.8.7-6.1 3.2-8.5 5.3 1-1.7 2.2-3.3 3.8-4.6a21 21 0 0 1 11.2-4.5.8.8 0 0 1 .5.5v.3Z" fill="#38385E"/><path d="M62.5 135c1.5 0 2.7-2.2 2.7-5 0-2.7-1.2-5-2.7-5-1.4 0-2.6 2.3-2.6 5 0 2.8 1.2 5 2.6 5Z" fill="#fff"/><path d="M147.5 104.2a1.7 1.7 0 0 1-.2 2.5c-1.4 1-3.8 2.2-7.8 3a88.6 88.6 0 0 1-25.8 1l-.5-.6a119.1 119.1 0 0 1-10.5-17 1.7 1.7 0 0 1 1-1.6 51.3 51.3 0 0 1 24.4-2.8 92 92 0 0 1 10.2 7.2c3.3 2.6 6.3 5.4 9.2 8.3Z" fill="#292955"/><path d="M132.7 91.5c-3-.2-6.2-.2-9.2 0-13.8.5-16.8 5-17 8.5a137.8 137.8 0 0 1-3.8-7 1.6 1.6 0 0 1 1-1.5 51.3 51.3 0 0 1 24.4-2.8c1.6.8 3.1 1.8 4.6 2.8Z" fill="#38385E"/><path d="M139.8 129.5c-.2.6-.2.6-3.3.9-4 .3-8-1.3-10-2.8l-.3-.2c1 .3 2 .6 3.2.6 2.5 0 4.2-1.3 4.2-2.8a4 4 0 0 0-1.1-3.1l.4.1c3 1 5.6 4.3 6.4 5.2.8 1 .7 1.5.5 2.1Z" fill="#E6E3E1"/><path d="M172.4 120.8c-.3.5-.6 1-1 1.3-.5.5-1.2.6-2.4-.6-.5-.5-1-1.8-1.5-3a43.4 43.4 0 0 1-1.2-4.3 1 1 0 0 1 .8.2l1.8 1.7 1 1 1.7 1.7c.6.9.8 2 .8 2Z" fill="#F3F3F3"/><path d="M172.3 121c-.2.4-.5.8-.9 1.1-.5.5-1.3.6-2.4-.6-.5-.5-1-1.8-1.5-3 .4.4.8.7 1.2.7 1.2 0 1.1-1 1.8-.4.7.7.7 2 1.4 1.5.2-.2.5.5.4.6Z" fill="#E6E3E1"/><path d="M147 129.8a40.9 40.9 0 0 1-5.5-.5.1.1 0 0 1 .1 0c.2 0 15.7 2.2 26.5-5.6h.1a.1.1 0 0 1 0 .2c-6.9 5-15.6 6-21.2 6Z" fill="#C69D47"/><path d="M100.8 109.8c-1.2-3-5-4-7.4-2a3 3 0 0 0-1 1.4c-.2.6-.2 1.1 0 1.7h-.2c-4-1.3-10-2.4-12.7-3a1 1 0 0 1-.9-1l1-12.3V94a30.2 30.2 0 0 1 .4-2.3 1.4 1.4 0 0 1 1.4-.7c4.7.6 9.8 2.5 12.9 5.7a32 32 0 0 1 6.5 10.8c.5 2 0 2.3 0 2.3Z" fill="#272A56"/><path d="m100.2 105.7-1.7-2.3c-8-11.2-16.8-9.4-18.9-8.8V94a30.5 30.5 0 0 1 .4-2.3 1.4 1.4 0 0 1 1.4-.7c4.7.6 9.8 2.5 12.9 5.7a32 32 0 0 1 5.9 9Z" fill="#38385E"/><path d="M53.8 109.8a8 8 0 0 0 1-1.1c-.1.7-.6 1.2-.9 1.5-.3.6-.8 2.3-1.7 2.3h-.5l.3-2c.4.2 1 0 1.8-.7Z" fill="#EA644C"/><path d="m100.3 92.3-47-7.5c-1.7-.2-2.9-1.9-2.6-3.6l10.6-67c.3-1.8 2-3 3.7-2.7l46.9 7.5c1.7.2 3 1.9 2.6 3.6l-10.6 67c-.3 1.8-1.9 3-3.6 2.7Z" fill="#E8E5E3"/><path d="m98 28-32-5c-.3 0-.4-.3-.4-.5l.5-2.8c0-.2.2-.3.4-.3l32 5c.2.1.4.3.3.5l-.4 2.8c0 .2-.3.4-.5.3ZM97 33.2l-31.9-5c-.2-.1-.3-.3-.3-.5l.2-1.2c0-.2.2-.4.4-.4l32 5c.2.1.4.3.3.5l-.1 1.2c0 .2-.3.4-.5.4ZM103.5 54.4 62 47.8c-.2 0-.3-.2-.3-.4l.2-1.2c0-.2.2-.4.5-.4l41.4 6.6c.2 0 .3.2.3.5l-.2 1.2c0 .2-.2.3-.4.3ZM86 64.6l-26-4.1c-.2 0-.3-.3-.3-.5l.2-1.2c0-.2.2-.4.5-.3l26 4.1c.2 0 .4.2.3.5l-.2 1.2c0 .1-.2.3-.4.3ZM101.8 67l-11-1.7c-.2 0-.4-.2-.3-.5l.2-1.2c0-.2.2-.3.4-.3l11 1.8c.3 0 .4.2.4.4l-.2 1.2c0 .2-.2.4-.5.3ZM100 75.7l-18.8-3c-.3 0-.4-.2-.4-.5l.2-1.1c0-.3.3-.4.5-.4l18.9 3c.2 0 .4.3.3.5l-.2 1.2c0 .1-.2.3-.4.3ZM84 44l-20.8-3.3c-.2 0-.4-.2-.3-.4L63 39c0-.2.3-.4.5-.3L84.4 42c.2 0 .4.2.3.4l-.2 1.2c0 .2-.2.4-.4.3ZM104.6 47.3l-11.9-2c-.2 0-.3-.2-.3-.4l.2-1.2c0-.2.2-.3.5-.3l11.8 2c.2 0 .4.1.3.4L105 47c0 .2-.2.3-.4.3Z" fill="#18516B"/><path opacity=".2" d="m83.2 22.1-2 67.3L59.6 86c-1.9-.3-3.2-2.1-2.9-4l10.1-63.8 13 .4c2 0 3.4 1.6 3.4 3.5Z" fill="#18516B"/><path d="m70.9 102.2-53.7-1.5c-2 0-3.6-1.7-3.5-3.7L16 20.3c0-2 1.8-3.6 3.8-3.5l53.6 1.5c2 0 3.6 1.8 3.5 3.7l-2.2 76.7c0 2-1.7 3.6-3.7 3.5Z" fill="#E8E5E3"/><path d="m59 30.6-36.6-1.1c-.2 0-.4-.2-.4-.5V26c0-.3.3-.5.6-.5L59 26.5c.2 0 .5.2.4.5V30c0 .3-.3.5-.5.5ZM58.8 36.4l-36.5-1c-.3 0-.5-.3-.5-.5v-1.4c0-.2.3-.4.5-.4L59 34c.2 0 .4.3.4.5V36c0 .2-.3.4-.5.4ZM69 59.3l-47.4-1.4c-.2 0-.4-.2-.4-.5v-1.3c0-.3.3-.5.5-.5L69.1 57c.2 0 .4.2.4.5v1.3c0 .3-.3.5-.5.5ZM51 73.2l-29.8-.9c-.3 0-.5-.2-.5-.4v-1.4c0-.2.3-.5.6-.4L51 71c.3 0 .5.2.4.4v1.4c0 .2-.2.4-.5.4ZM69 73.7l-12.6-.3c-.3 0-.5-.3-.5-.5v-1.4c0-.2.3-.4.6-.4l12.6.4c.2 0 .4.2.4.4v1.4c0 .2-.2.4-.5.4ZM68.3 83.6 46.6 83c-.2 0-.5-.2-.4-.5v-1.3c0-.3.2-.5.5-.5l21.6.7c.3 0 .5.2.5.4v1.4c-.1.3-.3.5-.5.4ZM45.8 50.5l-24-.7c-.2 0-.4-.3-.4-.5V48c0-.3.3-.5.5-.5l24 .7c.2 0 .4.3.4.5v1.4c0 .2-.3.4-.5.4ZM69.2 51.2l-13.6-.5c-.2 0-.4-.2-.4-.4v-1.4c0-.2.3-.4.5-.4l13.6.4c.2 0 .4.2.4.5v1.3c0 .3-.2.5-.5.5Z" fill="#18516B"/><path opacity=".1" d="M94.3 65.8h-.1l-.1-.3.4-.7.3-.1v.2l-.4.8-.1.1ZM114.4 75.4c-.2-.1-.2-.3-.2-.4l.4-.5.3-.1v.3l-.3.6h-.2Z" fill="#75B5E0"/></svg>