<svg width="106" height="89" viewBox="0 0 106 89" fill="none" xmlns="http://www.w3.org/2000/svg">
<path d="M90.4517 0.283203H15.5467C6.97429 0.283203 0 7.78494 0 17.0054V54.3682C0 62.8307 5.87516 69.8455 13.4683 70.9416V86.4807C13.4683 87.3847 13.9749 88.1999 14.7512 88.5459C15.0084 88.6606 15.2783 88.7162 15.5462 88.7162C16.087 88.7162 16.6187 88.4889 17.0164 88.0616L37.4457 71.0906H90.4515C99.0251 71.0906 106 63.5888 106 54.3684V17.0054C106 7.78471 99.0251 0.283203 90.4517 0.283203ZM101.844 54.3684C101.844 61.124 96.7333 66.6201 90.4517 66.6201H36.5846C36.0335 66.6201 35.5048 66.8556 35.1149 67.2747L17.6251 81.0844V68.8553C17.6251 67.6207 16.6944 66.6201 15.5467 66.6201C9.26614 66.6201 4.15679 61.124 4.15679 54.3684V17.0054C4.15679 10.2497 9.26614 4.7537 15.5467 4.7537H90.4515C96.7331 4.7537 101.843 10.2497 101.843 17.0054L101.844 54.3684Z" fill="currentColor"/>
<path d="M81.6093 26.8521C76.7382 26.8521 72.7754 30.816 72.7754 35.6882C72.7754 40.5592 76.7385 44.5221 81.6093 44.5221C86.4814 44.5221 90.4454 40.559 90.4454 35.6882C90.4454 30.816 86.4814 26.8521 81.6093 26.8521ZM81.6093 40.0516C79.2035 40.0516 77.2459 38.0942 77.2459 35.6882C77.2459 33.2811 79.2033 31.3226 81.6093 31.3226C84.0164 31.3226 85.9749 33.2808 85.9749 35.6882C85.9749 38.094 84.0164 40.0516 81.6093 40.0516Z" fill="currentColor"/>
<path d="M53.0002 26.8521C48.128 26.8521 44.1641 30.816 44.1641 35.6882C44.1641 40.5592 48.128 44.5221 53.0002 44.5221C57.8712 44.5221 61.8341 40.559 61.8341 35.6882C61.8341 30.816 57.8712 26.8521 53.0002 26.8521ZM53.0002 40.0516C50.593 40.0516 48.6346 38.0942 48.6346 35.6882C48.6346 33.2811 50.5928 31.3226 53.0002 31.3226C55.406 31.3226 57.3636 33.2808 57.3636 35.6882C57.3636 38.094 55.406 40.0516 53.0002 40.0516Z" fill="currentColor"/>
<path d="M24.3879 26.8521C19.5155 26.8521 15.5518 30.816 15.5518 35.6882C15.5518 40.5592 19.5155 44.5221 24.3879 44.5221C29.26 44.5221 33.224 40.559 33.224 35.6882C33.224 30.816 29.26 26.8521 24.3879 26.8521ZM24.3879 40.0516C21.9807 40.0516 20.0222 38.0942 20.0222 35.6882C20.0222 33.2811 21.9805 31.3226 24.3879 31.3226C26.7952 31.3226 28.7535 33.2808 28.7535 35.6882C28.7535 38.094 26.795 40.0516 24.3879 40.0516Z" fill="currentColor"/>
</svg>
