<svg width="177" height="128" viewBox="0 0 177 128" fill="none" xmlns="http://www.w3.org/2000/svg"><g clip-path="url(#a)"><path d="M72 105.1v2.9c-.1 3.2.1 17.9-.5 18.2-1 .6-6.6 1.4-10.5.6-3.9-.8-7.7.4-9-.2-1.1-.6-2.2-15-2.2-16l-.5-2.6c-.3-1.3-.8-2.4-1.1-2-.2.3-.7 2-1.2 3.8-.8 2.6-2.4 15.8-2.8 16.2-.6.7-5.1.8-7.3.4-2.2-.3-8-.5-9.2-.3-1.1.3-6 .5-5-.5.5-.5 1.9-12.3 2.2-14l.7-4s14.5-7.4 15.6-9.3c1-2 3.6-3.5 10.1-4.2 6.6-.7 15 3.4 18.8 5.3 3.6 1.8 1.8 5.7 1.8 5.7Z" fill="url(#b)"/><path d="M72 105.1v2.9l-8.4-.1c-4 0-8.8-1.9-11.1-2.6-1.5-.4-2.5 1.3-3.2 2.7-.4-1.3-.9-2.4-1.1-2-.2.3-.7 2-1.2 3.8-.9-.7-2.2-1.6-3.7-.7a39.2 39.2 0 0 1-14.9 3.3c-1.7 0-2.8-.3-3.5-.8l.6-4s.4-2.3 1.4-2.8c4-2 13.6-5 14.4-6.5 1.1-2 3.6-3.5 10-4.2 6.3-.7 15.1 3.4 18.8 5.3 3.6 1.8 1.8 5.7 1.8 5.7Z" fill="#171744"/><path d="M116 66.6v.5c0 .4-.3.9-.8 1.2l-.3.2c-1 .4-2.8 1.1-4 1.2-1.3 0-4.2.2-4.7 0l-3.8 2.5-.3-.4-.4-1.6-1.6-4.8 3.3-2 1-.8c.5-.5.6-.8.8-1.3V61l.3-1.1c.4-1.6.8-2.6.7-3.2l-.2-2.2s.4-.3 1-.3l.6.1c.7.4 1.1 2 1.2 2.7 0 .7-.4 2.4-.4 2.4l3.2-.7h.5c1-.2 2-.2 2.4.1.5.3.6.7.6 1.4 0 .5 0 .7-.2.8l-.2.4h.2l.2.1.5.5c0 .3.2 1-.1 1.3l-.4.2.3.3c.2.1.5.4.5.7l-.1.6c0 .2-.2.4-.4.5l.2.1c0 .2.5.5.5.9Z" fill="#FFD5CA"/><path d="m115.2 68.3-.3.2c-.8.3-1.8 1.1-3.5 1.3-1.4.2-3 .3-5 0h-.5l-3.6 2.4-.3-.4c.2-.4 2.4-1.8 3-2.7l.6-1.3c.1-.5.7-.3.8.2.1.5.4 1 1.1 1.3 0 0 .6.4 2.4.3 1.8-.2 2.7-.4 3.4-.8.4-.2 1.2-.5 1.5-.8.2-.1.2-.4.3-.5h.2v.8Z" fill="#ECBABE"/><path opacity=".5" d="M111.2 59.9c-1.4.4-1.6 1.3-1.5 1.9.2.7 1 .8 1 .8s-.3.2-.2 1c.1.9 1.3 1 1.3 1s-.5.3-.5 1 .7 1 .7 1c-.5.2-.4.8 0 1.3-.3 0-.7-.1-1-.3-1-.5-1.4-1.3-2-1.5-.6-.2-.8-.8-.4-1.2.4-.4.3-1.6.3-2.3 0-1.7.8-2.5.7-2.7l-1.2.7h-.2c-.4.3-.9 0-.8-.5.1-.8.6-1.4.7-3.1.1-1.4-.3-1.7-.8-2.3 0-.2-.4-.4-.5-.5h.6c.6.4 1 2 1.1 2.7l-.3 2.5 3.1-.7.6-.1c.1 0-1.5.5-.7 1.3Z" fill="#F4C9C5"/><path d="M116 67.1c0 .4-.3 1-.8 1.2l-.3.2c-.1-.1.4-.6.3-.8l-.7.2c-.3 0-1.4.4-2.1.3-.8-.2-1-1.2-.3-1.6 0 0-.8-.2-.8-1 0-.7.5-1 .5-1s-1.1 0-1.2-.9c-.1-.8.2-1 .2-1s-.9-.1-1-.8c-.2-.6 0-1.5 1.5-2l1.2-.2-.9.4c-.3 0-.8.2-1 .6-.4.7 0 1 .8 1.2l1.1-.1 2-.4.3.1.2.1-1.4.2-1 .3c-.5.2-1 .5-1 .7-.4.7.1 1.2.8 1.2.2 0 .5 0 .8-.2a8 8 0 0 1 1.7-.2l.4.2-1.7.3c-.1 0-1.7.3-1.5 1.2.1.6.6.7 1.3.6l2-.2v.1l-1 .2-.7.2c-.7.1-1.3.3-1.4.7 0 .4.2.6.5.8h.9c.6-.1 1.7-.6 2.3-.6ZM101.7 66.3s1.9 3.4 3.4 3c1.5-.3-1.5 1.1-1.6 1.2-.1 0-.5.5-.8.1-.3-.3-1.1-3.7-1.1-3.7v-.6Z" fill="#ECBABE"/><path d="M48.4 48.3c1 .8 9 2.8 13-6.3 2.3-5.5-2.3-6-2.3-6l-.6-.4-.2-.1c0-.2-.2-.3-.3-.4l-.5-.3c-.2 0-1-.3-1.2-.5l-.6-2c-.5-1.6-.3-2-.3-2 .3 0 2 .5 3.4-.2.5-.3 1-.8 1.8-1.7a16 16 0 0 0 3.7-9.4l.3-5.1v-2.4L64.3 8h-3.7c-3-.2-6.9-.3-9.6-.3h-2.5c-3.2.3-5.4-.3-6.4 3-1 3.5.4 3.5.5 4.9 0 .5.3 2.3 1 4.4.1.3.3.5.3.8.7 1.6.6 4.5.6 6.5 0 .2 0 4.7-.7 6-.4 1-2.8 1.8-3.6 2.4-.5.5.5 1 .2 1.4-1.2 1.7 3.3 7.5 8 11.2Z" fill="#FFD5CA"/><path opacity=".6" d="M53.6 32.7c2.4 2.4 3.9 2.8 4.8 2.7h.1-.1c-.2 0-.2-.1-.3-.3l-.6-.3-1.1-.5-.6-2V32c-.5-1.3-.4-1.7-.4-1.8-2.5-.6-4.5-2.4-4.7-2.5-.4-.3-1.5.4 3 5ZM48.3 13c0 1.1 1.4 2.3 2 1.4.6-1 .2-2.8 1-4.2.6-1.3 2.8-1 4.3-1 1.5-.2 1.4 2.5 3.2 2.5 1.7-.2 3.4 1 4.4 1.9.4.3 1 .3 1.4.2v-2.5c-.7-1-1.5-2-2-2.4-.5-.4-1.1-.8-1.8-1.1-1.3-.5-3-1-5.4-1-2.6-.2-3.4.2-4.3.8-.5.4-1 .4-1.8.8-2.3 1-1.1 3.3-1 4.5ZM44 20.6c.7 1.6.6 4.5.6 6.5 0 .3 1-1.3.9-3.2-.2-3 1.4-4.6 2-4.2-.1 0-2-1-3.5 0h-.2c0 .4.2.7.3 1Z" fill="#DFA8B6"/><path d="M41.4 16c.4 1.3 1 2.5 1.8 3.7l.3.4c0 .2.2.3.3.5l.2.6.2.3.1.4.2 1.3.5-2.4c0-.9.7-1.3.7-1.3s-1-.8-1.1-1.8c1.1-.3 2.3.2 3.6-1.1 0-.2.1-.2.2-.3 1.2-1.3 2-1.8 2-4.5-.1-.8.2-1.5.7-2 .3-.4 1.4-.5 1.8-.7 1.2-.6 2.1-.6 3.2-.5l.6.1c2.1.6 1.6 1.7 3.4 2 1.7.2 2.5.5 4 1.8 1 1 3.3-.8 4.5-2.6l.3-.5.4-.7c.7-2 .7-3.7-.7-4.4l-.8-.6c-.2-.6-.1-1.1-1.4-2.3C65.2.4 63 0 60.5.2c-.2 0-.5 0-.7.2-1.3.2-2.1 0-3.1 0-1-.2-2-.4-4-.3-1.6.1-2.7.6-4 1-3.4 1-4.4 2.7-5.7 6-.4 1.3-1.6 2.3-1.9 3.7v1.7l.3 3.5Z" fill="#2B2B58"/><path d="M41.4 16c.4 1.3 1 2.5 1.8 3.7l.3.4c0 .2.2.3.3.5l.2.6.2.3.1.4.2 1.3.5-2.4c0-.9.7-1.3.7-1.3s-1-.8-1.1-1.8c1.1-.3 2.3.2 3.6-1.1 0-.2.1-.2.2-.3 1.2-1.3 2-1.8 2-4.5-.1-.8.2-1.5.7-2-.9.5-1.9 2.6-3.4 3.3-1.3.6-3.3 1.5-5 1-.6-.3-1-1.7-1.6-2.1v.5l.3 3.5Z" fill="#1A1A49"/><path d="M61 20c-.4-.1-.6-.6-.5-1.1 0-.5.4-1 .8-.8.3 0 .6.5.5 1 0 .5-.4.9-.8.8ZM54.2 19.1c-.4 0-.7-.5-.6-1.1 0-.6.4-1 .8-1 .4.1.7.6.6 1.2 0 .6-.4 1-.8 1ZM63.7 17s-.5-1.5-2.4-1.6c-1.7-.1-1.9.6-1.5.8.3.2 1.2-.4 2.4 0 1 .4 1.4 1.5 1.5.9ZM51 15.5s1.1-1.7 3.4-1.4c2.1.3 2.1 1.3 1.6 1.5-.5.2-1.2-.8-2.8-.6-1.3.1-2.3 1.4-2.3.5Z" fill="#2B2B58"/><path d="m56.2 8.6.5.1c2.2.6 1.7 1.7 3.4 2 1.8.2 2.5.5 4 1.8 1.1 1 3.4-.8 4.6-2.6l.4-.7c-.8.6-2.1 1.6-3.6 1.7-2.5.2-2.9-.8-5.9-1.7-1.3-.4-2.5-.6-3.4-.6Z" fill="#1A1A49"/><path d="M60.5.2c.7.4 1 1.2 2.1 1.2 2.3-.2 2.1.7 4.5 2l.8.3c-.3-.5-.2-1.1-1.5-2.3C65.2.4 63-.2 60.5.2ZM44.7 6.2c.4-2.8 2.2-2.9 3.8-4 1.7-1.2 2.7-.5 7.3-1.6l.9-.3c-1-.2-2.1-.4-4-.3-1.6.2-2.8.6-4.1 1-3.3 1-4.3 2.8-5.6 6.2-.5 1.2-1.8 2.2-2 3.7 0 .2.2 0 .5 0 1-.6 3-2.6 3.2-4.7Z" fill="#363666"/><path d="M48.4 18.5s.5-4-2.8-4.2c-2.8 0-2.3 4.8-.5 5.7 1.8.9 4-.5 4-.5l-.7-1Z" fill="#FDD9CD"/><path opacity=".6" d="M46.7 18.4s-.7.6-1.5 0c-.7-.7-.8-2-.1-2.2.7-.2 1.5-.2 1.8 1.1 0 0-.6 0-.6.6 0 .5.4.5.4.5Z" fill="#DFA8B6"/><path d="M46.9 18.5s-.6 0-.6-.6c0-.7.7-.5.7-.5s-.2-1.4-1.4-1.3c-.4 0-.7.2-.9.5" stroke="#AB888B" stroke-width=".9" stroke-miterlimit="10" stroke-linecap="round" stroke-linejoin="round"/><path d="M65 3.9c.6.2 3 1.2 3 2s-1.6 1.4-2.5.6c-.8-.8-1.8-.5-2.2-1C63 5 63.3 3 65.1 4Z" fill="#363666"/><path opacity=".6" d="M55.5 28.5c-.4 0-.7-.3-.7-.5s.4-.3.8-.3.7.3.7.5-.4.3-.8.3Z" fill="#DFA8B6"/><path opacity=".5" d="M52.9 21.4c-.8 0-1.3-.4-1.3-.8 0-.5.6-.8 1.3-.8.7 0 1.3.4 1.3.8 0 .5-.6.8-1.3.8ZM61.6 22.2c-.5-.2-.8-.6-.6-.9 0-.3.6-.4 1-.2.5.2.7.6.6.9-.1.3-.6.4-1 .2Z" fill="#fff"/><path d="M44.4 6.1s.3-1.8 0-3.1c-.4-1.2-1.2 3.1-.7 3.3.5.2.7-.2.7-.2Z" fill="#363666"/><path d="M44.2 5.3s-1 0-1.7.4c-.7.3.5 1 1.4.7 1-.4.3-1.1.3-1.1Z" fill="#363666"/><path d="m55.4 30.4 1.1 4.8" stroke="#2B2B58" stroke-width=".5" stroke-linecap="round"/><path d="M54 24.7s.5 1.2 1.4 2c.7.5 1.7.5 2.3.2.6-.3 1.2-.7 1.7-1.7l-.9-.2-1.6.5-1-.4-1.5-.4H54Z" fill="#2B2B58"/><path d="m54 24.7.5.2c.4.1 1.8.7 2.6.8.3 0 .8 0 1-.3l.4-.4c-1-.1-2.5-.4-3.8-1l-.5-.1-.3-.1.1.9Z" fill="#fff"/><path d="M53.9 23.9s0-.2.1-.1c.2 0 0-.4 0-.4h-.4v.4h.3ZM59.2 25.1s.2 0 0 .2c0 .2.7-.1.7-.1s.3-.2 0-.4c-.5-.2-.8 0-.8 0l.1.3Z" fill="#FFD5CA"/><path d="M59.4 22.6c.2-1-.5-1.4-.8-1.5l-.1-.2-.2-4H58V21c0 .4.5.4.7.8.3.6-.3 1-1.2 1-.7 0-1-.8-1-1.1h-.1c-.1 2 2.5 1.9 2.9.9Z" fill="#2B2B58"/><path d="M48.4 48.3c1 .8 9 2.8 13-6.3 2.3-5.5-2.3-6-2.3-6l-.6-.4-.2-.1c0-.2-.2-.3-.3-.4l-.5-.3c-.2 0-1-.3-1.2-.5l-.6-2c-.5-1.6-.3-2-.3-2 .3 0 2 .5 3.4-.2.5-.3 1-.8 1.8-1.7a16 16 0 0 0 3.7-9.4l.3-5.1v-2.4L64.3 8h-3.7c-3-.2-6.9-.3-9.6-.3h-2.5c-3.2.3-5.4-.3-6.4 3-1 3.5.4 3.5.5 4.9 0 .5.3 2.3 1 4.4.1.3.3.5.3.8.7 1.6.6 4.5.6 6.5 0 .2 0 4.7-.7 6-.4 1-2.8 1.8-3.6 2.4-.5.5.5 1 .2 1.4-1.2 1.7 3.3 7.5 8 11.2Z" fill="#FFD5CA"/><path opacity=".6" d="M53.6 32.7c2.4 2.4 3.9 2.8 4.8 2.7h.1-.1c-.2 0-.2-.1-.3-.3l-.6-.3-1.1-.5-.6-2V32c-.5-1.3-.4-1.7-.4-1.8-2.5-.6-4.5-2.4-4.7-2.5-.4-.3-1.5.4 3 5ZM48.3 13c0 1.1 1.4 2.3 2 1.4.6-1 .2-2.8 1-4.2.6-1.3 2.8-1 4.3-1 1.5-.2 1.4 2.5 3.2 2.5 1.7-.2 3.4 1 4.4 1.9.4.3 1 .3 1.4.2v-2.5c-.7-1-1.5-2-2-2.4-.5-.4-1.1-.8-1.8-1.1-1.3-.5-3-1-5.4-1-2.6-.2-3.4.2-4.3.8-.5.4-1 .4-1.8.8-2.3 1-1.1 3.3-1 4.5ZM44 20.6c.7 1.6.6 4.5.6 6.5 0 .3 1-1.3.9-3.2-.2-3 1.4-4.6 2-4.2-.1 0-2-1-3.5 0h-.2c0 .4.2.7.3 1Z" fill="#DFA8B6"/><path d="M41.4 16c.4 1.3 1 2.5 1.8 3.7l.3.4c0 .2.2.3.3.5l.2.6.2.3.1.4.2 1.3.5-2.4c0-.9.7-1.3.7-1.3s-1-.8-1.1-1.8c1.1-.3 2.3.2 3.6-1.1 0-.2.1-.2.2-.3 1.2-1.3 2-1.8 2-4.5-.1-.8.2-1.5.7-2 .3-.4 1.4-.5 1.8-.7 1.2-.6 2.1-.6 3.2-.5l.6.1c2.1.6 1.6 1.7 3.4 2 1.7.2 2.5.5 4 1.8 1 1 3.3-.8 4.5-2.6l.3-.5.4-.7c.7-2 .7-3.7-.7-4.4l-.8-.6c-.2-.6-.1-1.1-1.4-2.3C65.2.4 63 0 60.5.2c-.2 0-.5 0-.7.2-1.3.2-2.1 0-3.1 0-1-.2-2-.4-4-.3-1.6.1-2.7.6-4 1-3.4 1-4.4 2.7-5.7 6-.4 1.3-1.6 2.3-1.9 3.7v1.7l.3 3.5Z" fill="#2B2B58"/><path d="M41.4 16c.4 1.3 1 2.5 1.8 3.7l.3.4c0 .2.2.3.3.5l.2.6.2.3.1.4.2 1.3.5-2.4c0-.9.7-1.3.7-1.3s-1-.8-1.1-1.8c1.1-.3 2.3.2 3.6-1.1 0-.2.1-.2.2-.3 1.2-1.3 2-1.8 2-4.5-.1-.8.2-1.5.7-2-.9.5-1.9 2.6-3.4 3.3-1.3.6-3.3 1.5-5 1-.6-.3-1-1.7-1.6-2.1v.5l.3 3.5Z" fill="#1A1A49"/><path d="M61 20c-.4-.1-.6-.6-.5-1.1 0-.5.4-1 .8-.8.3 0 .6.5.5 1 0 .5-.4.9-.8.8ZM54.2 19.1c-.4 0-.7-.5-.6-1.1 0-.6.4-1 .8-1 .4.1.7.6.6 1.2 0 .6-.4 1-.8 1ZM63.7 17s-.5-1.5-2.4-1.6c-1.7-.1-1.9.6-1.5.8.3.2 1.2-.4 2.4 0 1 .4 1.4 1.5 1.5.9ZM51 15.5s1.1-1.7 3.4-1.4c2.1.3 2.1 1.3 1.6 1.5-.5.2-1.2-.8-2.8-.6-1.3.1-2.3 1.4-2.3.5Z" fill="#2B2B58"/><path d="m56.2 8.6.5.1c2.2.6 1.7 1.7 3.4 2 1.8.2 2.5.5 4 1.8 1.1 1 3.4-.8 4.6-2.6l.4-.7c-.8.6-2.1 1.6-3.6 1.7-2.5.2-2.9-.8-5.9-1.7-1.3-.4-2.5-.6-3.4-.6Z" fill="#1A1A49"/><path d="M60.5.2c.7.4 1 1.2 2.1 1.2 2.3-.2 2.1.7 4.5 2l.8.3c-.3-.5-.2-1.1-1.5-2.3C65.2.4 63-.2 60.5.2ZM44.7 6.2c.4-2.8 2.2-2.9 3.8-4 1.7-1.2 2.7-.5 7.3-1.6l.9-.3c-1-.2-2.1-.4-4-.3-1.6.2-2.8.6-4.1 1-3.3 1-4.3 2.8-5.6 6.2-.5 1.2-1.8 2.2-2 3.7 0 .2.2 0 .5 0 1-.6 3-2.6 3.2-4.7Z" fill="#363666"/><path d="M48.4 18.5s.5-4-2.8-4.2c-2.8 0-2.3 4.8-.5 5.7 1.8.9 4-.5 4-.5l-.7-1Z" fill="#FDD9CD"/><path opacity=".6" d="M46.7 18.4s-.7.6-1.5 0c-.7-.7-.8-2-.1-2.2.7-.2 1.5-.2 1.8 1.1 0 0-.6 0-.6.6 0 .5.4.5.4.5Z" fill="#DFA8B6"/><path d="M46.9 18.5s-.6 0-.6-.6c0-.7.7-.5.7-.5s-.2-1.4-1.4-1.3c-.4 0-.7.2-.9.5" stroke="#AB888B" stroke-width=".9" stroke-miterlimit="10" stroke-linecap="round" stroke-linejoin="round"/><path d="M65 3.9c.6.2 3 1.2 3 2s-1.6 1.4-2.5.6c-.8-.8-1.8-.5-2.2-1C63 5 63.3 3 65.1 4Z" fill="#363666"/><path opacity=".6" d="M55.5 28.5c-.4 0-.7-.3-.7-.5s.4-.3.8-.3.7.3.7.5-.4.3-.8.3Z" fill="#DFA8B6"/><path opacity=".5" d="M52.9 21.4c-.8 0-1.3-.4-1.3-.8 0-.5.6-.8 1.3-.8.7 0 1.3.4 1.3.8 0 .5-.6.8-1.3.8ZM61.6 22.2c-.5-.2-.8-.6-.6-.9 0-.3.6-.4 1-.2.5.2.7.6.6.9-.1.3-.6.4-1 .2Z" fill="#fff"/><path d="M44.4 6.1s.3-1.8 0-3.1c-.4-1.2-1.2 3.1-.7 3.3.5.2.7-.2.7-.2Z" fill="#363666"/><path d="M44.2 5.3s-1 0-1.7.4c-.7.3.5 1 1.4.7 1-.4.3-1.1.3-1.1Z" fill="#363666"/><path d="m55.4 30.4 1.1 4.8" stroke="#2B2B58" stroke-width=".5" stroke-linecap="round"/><path d="M54 24.7s.5 1.2 1.4 2c.7.5 1.7.5 2.3.2.6-.3 1.2-.7 1.7-1.7l-.9-.2-1.6.5-1-.4-1.5-.4H54Z" fill="#2B2B58"/><path d="m54 24.7.5.2c.4.1 1.8.7 2.6.8.3 0 .8 0 1-.3l.4-.4c-1-.1-2.5-.4-3.8-1l-.5-.1-.3-.1.1.9Z" fill="#fff"/><path d="M53.9 23.9s0-.2.1-.1c.2 0 0-.4 0-.4h-.4v.4h.3ZM59.2 25.1s.2 0 0 .2c0 .2.7-.1.7-.1s.3-.2 0-.4c-.5-.2-.8 0-.8 0l.1.3Z" fill="#FFD5CA"/><path d="M59.4 22.6c.2-1-.5-1.4-.8-1.5l-.1-.2-.2-4H58V21c0 .4.5.4.7.8.3.6-.3 1-1.2 1-.7 0-1-.8-1-1.1h-.1c-.1 2 2.5 1.9 2.9.9Z" fill="#2B2B58"/><path d="M98.1 74.6c-.5-.5-4.3-4.6-3-8 .3-.5.5-.9 1-1.4 0 0 2.7-1 4.2-.7l.4.2.3.3c.3.4 3 6 3.2 7l.1.6c.1.5 0 1-.4 1.5l-2 1.4s-3.2-.3-3.8-.9Z" fill="#F47056"/><path opacity=".7" d="M43.8 36.1S47 39 50.3 39c3.1 0 7-1.7 7-1.7L57 39s-2.8 1.5-3.8 1.6c-1.1.2-5.8 0-5.8 0s-2.1.4-3.6-.7c-1.6-1.1-2.2-1.5-1.5-2.3l1.5-1.5Z" fill="#ECBABE"/><path d="M64.6 95v-.1ZM64.5 94.9 62 97.8l-2.9 3.6s-2-.7-4-.7c-1.9 0-1.5.7-3.7.8h-3.2l-3.1-.3h-.6s0-.8-.3-2l-.3-1.7c-1.5-8.2-5-27.6-5.2-28L40.9 41l3.3-3.4s2 2.4 6.3 2.4 7.7-3.1 7.7-3.1l3.6 10.4 3.7 25.1s-1.1 20.9-1 22.6Z" fill="#F7CD53"/><path d="m48.2 101.5-3.1-.3-1-2-.3-.9.1-.8 1.8-20.7s2.5 11.3 2.5 24.7ZM55.3 44.6l1 12.3c.2 3 0 10.7.6 11 .7.4 1.7-.8 1.7-.8l-.8-14.5s-.9-6.6-1.3-7M63.1 91s-.4 3.4-1.1 6.8l-2.9 3.6s-2-.7-4-.7c-1.9 0-1.5.7-3.7.8 1.8-1.8 2.8-6.7 3.5-13.3.7-6.5 2.6-15.4 2.6-15.4L62 77 63 91Z" fill="#EBAD49"/><path d="M74.2 106c-.1.4-.4.7-.8.7-4.6.8-9.3-.4-12.3-1.6l-2-.8c-.6-.3-1-1-1.1-1.6l-.3-10.2v-.8c-.6-17.7 0-15.5-.1-27.7-.1-12.4-1.5-16.4-2.4-19.7-.6-2.2.2-4.4 1.3-6.5 1.2-2.2.8-3 .8-3 2.5.7 6.6 2.3 10.2 3.9 3.5 1.6 4 4 4 4l1.4 12-.5 23.2a307.8 307.8 0 0 0 .4 11.6l.5 3a173.5 173.5 0 0 1 1.1 10.4c.1 1.3 0 2.3-.2 3Z" fill="#F35933"/><path d="m20.8 95-.1.5-.3.3a7.4 7.4 0 0 1-1.6 1l-1.6.7H17c-.1.2-.3.2-.4.3L13 99h-.5l-.3.1c-.4 0-.9 0-1.2-.4a15 15 0 0 1-2-2.2c0-.1 1.2-3.1 1.8-3.7.5-.5 4.4-4.5 7.9-3.2.5.2 1 .6 1.6 1.1 0 0 .7 3 .4 4.4Z" fill="#F47056"/><path d="m59.9 36.1-1.8 6c-.5 1.8.9 6.8 1.6 10.2.7 3.3 1.2 11.3 1.1 14.5-.1 3.2-.8 13.2-.5 18.5.3 5.3-.5 14.6-.2 16.5 0 0 2.8 2.1 8 2.7 2.4.2 4.3 0 5.6-.5" stroke="#C9472C" stroke-miterlimit="10"/><path d="M102.2 77c-.6.5-5.1 3.2-7.7 4.2l-6 2.7a15 15 0 0 1-6.6 1.6c-1.3 0-4.7-1.1-9.6-8L70.7 75c-5.7-9-5.5-26-5.5-26l2.5-10.3s3.8 1.3 7 7c3 5.7 5.1 10 6.3 13.1l3 7.7.2.6c.2.7.3 1.4-.2 2.2.2-.3.6-.6 1.2-.5 0 0 0-.6 2.4-1.2C90 67 91.2 66.5 92 66c.8-.5 2.8-1.8 4.4-1.4 1.5.4 1.7.9 2 1.2a33 33 0 0 1 3.6 8c.4 1.5.6 2.7.2 3.1Z" fill="#F35933"/><path opacity=".6" d="M102.2 77c-.6.5-5.3 3.3-7.7 4.2l-6 2.7a15 15 0 0 1-6.6 1.6c-1.3 0-4.7-1.1-9.6-8-2.7-11.6-2.4-21-2.4-21S72.3 80.9 80.6 82c8.3 1 18.5-4.5 20.2-5.5 1-.6 1.2-1.7 1.2-2.7.4 1.6.6 2.8.2 3.2ZM73.3 92.5c-1-1-1.6-2.4-2-5a8 8 0 0 1 1.1-5.2c0 2.8.2 6 .4 7.2l.5 3ZM74.2 106c-.1.4-.4.7-.8.7-4.6.8-9.3-.4-12.3-1.6l-2-.8c-.6-.3-1-1-1.1-1.6l-.3-10.2v-.8c.6 3.4 2 8.7 5.4 10.3 4.7 2 7.6 1.9 8.8 1.2.6-.4 1.9-.9 2.3-2l.2 1.7c.1 1.3 0 2.3-.2 3Z" fill="#C3452B"/><path opacity=".6" d="M84.1 69.3s0 .9-.5 1.6c-.3.4-1 .8-1.4 1-.2 0-.3.1-.4 0 0 0 .7-.5 1.2-1.4.5-.7.7-2 .8-2.8 0-.5.3-.6.5-.5.1.7.2 1.4-.2 2.1Z" fill="#C3452B"/><path opacity=".6" d="M84 69.3s.3-.2.3.5l-.2 2.4c.2 0 .4-.2.5-.4.1-.3.3-.8.3-1.4v-1.2l.2.1c.3.1.5.4.7.6v.3s.3-.3.2-.4c-.1-.4-.4-1-.8-1h-.6l-.7.2.1.3Z" fill="#C3452B"/><path d="m36.7 43.5-2 13.8-3.1 2.5-2.5 2A21 21 0 0 0 27 64c-1.8 2-5.4 4.4-6 5.4-.6 1-2.2 2.5-3.1 2.5h-.1c-.5 0-.7-.2-.8-.1v.7l-.3.3c-.4.3-1 .4-.6.7.4.4.6 2.2.8 3.3l.7 3 .6 1.5.8 2c.7 1.7 1.4 4.4 2 6.2.4 1.7-.1 2.4-1.7 3.3l-3.8 2c-2.2 1-4.8 2-6 1.8-2.2-.3-2-1.9-2.3-3-.4-1-1.6-4.9-2.8-7.9-1.2-3-3-7.6-4-12.4-1-4.7.3-6.5 2.4-8.9 2-2.4 3.8-4.4 11.9-12.2a94.1 94.1 0 0 1 15.5-13l.5.3 6 4Z" fill="#F35933"/><path d="M46.5 100.5c0 1.7-.4 3.2-.8 4.4-.2.7-.7 1.2-1.3 1.6a20 20 0 0 1-11.8 2.4c-9.3-.5-8.8-5.4-8.8-5.4l1.4-6.4 1.3-5.9 1.2-5c.3-1.2.4-1.8 1-2.5-.2-1.6 0-3.6 0-5.7l-.1-.8v-.8c-.1-4.6.3-10.8.5-14.6l.2-3.3v-.2l-1.3-13 2.2-6.1.5-.4c2.3-1.2 2.8-1.2 4.9-2 2.2-.8 2.9-.9 4.8-1.5 1.8-.6 2.5-1 2.5-1s4.1 6.3 3.5 12.2c-.6 6-1.2 17.4-1.2 20.3 0 2.9.5 12.6 1 17 .5 4.2.6 11.2.3 16.7Z" fill="#F35933"/><path opacity=".6" d="M35.5 109h-2.9c-9.3-.6-8.8-5.5-8.8-5.5l1.4-6.4c.4-.2 1-.4 1.9-.3 1.9.4.8 2.8 1.5 4.4.7 1.6 4.8 2.7 6 4.7.5 1 .8 2 1 3.1Z" fill="#C3452B"/><path d="M40.6 36.4s2.8 5.7 2.8 9c0 3.2-1.3 19.7-1 25 .2 5.3 2.2 15 1.7 22-.5 7 0 10.8-3.3 12-3.4 1.2-8.8 2-13 1" stroke="#C3452B" stroke-miterlimit="10"/><path opacity=".3" d="M32.6 89.1s-1.8-.2-2.2-1.7c-.4-1.4-1.3-2.3-3.9 3.8l1.2-5c.4-1.2.5-1.8 1-2.5-.2-1.6 0-3.6 0-5.7v-.8c.6 3.1 2.3 9.8 3.9 11.9Z" fill="#C3452B"/><path d="M32.6 49c-.1 3.2-.5 7-1 10.8-1.2 8.2-3 16.2-3 16.6-.1-4.6.3-10.8.5-14.6A21 21 0 0 0 27 64c-1.8 2-5.4 4.5-6 5.5-.6 1-2.2 2.4-3.1 2.4-.6 0-.8-.2-.9 0l-1-1s2-.6 3.8-1.6c1.8-1.1 3-3.7 7.3-8 .8-.8 1.6-1.8 2.2-2.9 2.5-4.2 3.3-9.3 3.3-9.3ZM19.3 92.8l-3.8 2s1.8-1.6 3.3-4c1.3-2.4-.4-8.6-.6-9.5l.8 2c.7 1.7 1.4 4.4 2 6.2.4 1.8-.2 2.4-1.7 3.3Z" fill="#C3452B"/><path opacity=".3" d="M46.5 41.6s3.1 1 7.5 0" stroke="#F35933" stroke-miterlimit="10"/><path d="M14.5 65.3s1.4 5.7 3.9 5.9l-2.3-.3s-2-3.3-1.6-5.6Z" fill="#C3452B"/><path d="M17.8 71.9c-.5 0-.7-.2-.8-.1v.7c-.7-.1-2.3-.5-3.2-1.7-1-1.4-.6-1.6-.6-1.6s2.4 2.4 4 2.5c.3 0 .5 0 .6.2ZM16 73.5H15c-.8-.4-1.1-1.3-1.1-1.3s1.5.7 2.3.5c.2 0 .4 0 .6.2-.4.2-1 .3-.6.6Z" fill="#C3452B"/><path d="m33.1 107.7-.1.2s-1 0-1.5-.4L30 106c-.6-.6-1.3-.7-1.8-.9.5.3 1.2.5 2 1.3a55.5 55.5 0 0 1 2 2.5c0 .2 0 .3-.2.4 0 .2-.4.3-.6.2-.4 0-.9 0-1.2-.4-.5-.5-1.4-1.4-2-1.8-.6-.5-1.4-.7-2-.8l2 1.6a28 28 0 0 1 2.2 2.4l-.1.6s-1.1.2-1.7-.4l-1.3-1.3c-1-1-1.9-1-2-1.1 1.3 1 2.4 2 2.9 2.6v.5H28l-.2.2-.8-.1c-.5-.3-1-1-1.2-1l-1-.7-1.3-.6c-1-.3-2.5-.5-3.4-.6-1.4-.2-2.2-1.9-2.6-2.4l-.2-.7c-.2-.6-.5-1.3-1.2-2.2l-1-1.3-2.6-2.9.5-.1a25 25 0 0 0 4-1.4h.1l1-.5h.1l.4-.2c.2 0 .4-.2.5-.3l.5-.2c.4 1.1 1.7 4 2.4 4.5.4.3.6.5.9.4.2 0 .4-.2.7-.6l1.6 1.3.2.2c0 .3-.1.7 1 .8h.6c1.2 0 2.8.3 3.5 1 .5.4 2 2.3 2.3 3 .1.2.3.6.2.8Z" fill="#FFD5CA"/><path opacity=".8" d="M55 60s-.7 8.7-2.2 11.8c-1.5 3-2.4 4-2.4 4M45.3 69.6s2.3 3.8 2.2 9.6M54.4 81.3s.4 7.3-3 9.3" stroke="#D08531" stroke-width=".8" stroke-miterlimit="10" stroke-linecap="round"/><path d="M38.2 93.6c.7 2.1 1 5.7-.4 7.2-2.1 2.4-7 3.5-9.8-3.4" stroke="#A03320" stroke-width=".9" stroke-miterlimit="10" stroke-linecap="round" stroke-dasharray="1.07 1.07"/><path d="M32.8 94.8a19 19 0 0 0 4.9-3c.1-.2.2-.5 0-.7l-1.1-2c-.2-.3-.5-.4-.8-.2-.9.7-3.3 2.5-8.5 4.7-.2.1-.3.4-.2.6l.5 2c.1.3.4.5.7.4l1.9-.7M73.3 95.3l-2-.7M68.7 93.4a19 19 0 0 1-4.8-3 .5.5 0 0 1-.1-.6l1.1-2c.2-.4.6-.4.8-.2.8.6 3 2.1 7.2 4" stroke="#A03320" stroke-width=".9" stroke-miterlimit="10" stroke-linecap="round"/><path d="m26.7 101-1.1 1.2-.5.4.8.3-.4.2-1.8.8-2.3-1.5.4-.2.2-.2.8-.6.1-.1.7-.6 1.4-1.2 1.1-1.7s.5 0 .9.3l.2.2.1.2c.3.6-.2 2-.6 2.5Z" fill="#FFD5CA"/><path d="m33.1 107.7-.1.2s-1 0-1.5-.4L30 106c-.6-.6-1.3-.7-1.8-.9 1 0 1.7 0 2.2.5.7.8 1.3 1.7 1.7 2 .6.4 1 .2 1 .2ZM32.1 108.9v.3c-.2.2-.5.3-.7.2-.4 0-.9 0-1.2-.4-.5-.5-1.4-1.4-2-1.8-.6-.5-1.4-.7-2-.8 0 0 .8-.2 2 .3.4.2.8.3 1.1.6.6.7 1.2 1.5 1.6 1.6H32ZM26.6 103h.4c-.3 0-1.3 0-1.7-.3-.2-.1-.3-.3 0-.7.2-.4.6-1 1-1.3.8-.9.9-2.2.9-2.4v.2c.3.6-.2 2-.6 2.5l-1.1 1.2c0 .3-.1.6 1 .7ZM28.2 111.3l-.1.1-.2.1h-.8c-.5-.3-1-1-1.2-1.1l-1-.7-1.3-.6c-1-.3-2.4-.4-3.4-.6-1.4-.2-2.2-1.8-2.6-2.4l-.2-.7c.7.8 1.7 1.7 2.4 2.2.9.6 2.1.6 3.9 1.2 1.8.6 2.7 1.8 3.2 2.3.6.4 1.2.2 1.3.2ZM15.1 102l-2.5-3 .5-.1c1-.2 2.3-.7 3.6-1.2l.4-.2h.1l1-.5c-.4.3-4.4 2.7-3 5ZM30.3 111s-1.1.3-1.7-.4l-1.3-1.2c-1-1-1.9-1.2-2-1.2 1.7 0 3 1.6 3.7 2.1.6.5 1.4.2 1.4.2.1.1 0 .4-.1.5Z" fill="#ECBABE"/><path d="M63 91.5s-2.4 7.5 2.8 9.2c4.6 1.4 6.5-3 7.4-4.7" stroke="#A03320" stroke-width=".7" stroke-miterlimit="10" stroke-linecap="round" stroke-dasharray="0.93 0.93"/><path d="m127.2 25.7 2.5 27.2c.1 1 1 1.7 1.8 1.6l3.8-.3c.8-.1 1.4-1 1.4-2L134 25.2c0-1-.8-1.7-1.7-1.6l-3.8.3c-.8.1-1.5 1-1.4 2Z" fill="#A3A7A8"/><path d="m120.2 15.4 1.2 13a3.4 3.4 0 0 0 3.7 3.1l13-1.2a3.4 3.4 0 0 0 3.1-3.7l-.6-5.8v-1l-.6-6.2a3.4 3.4 0 0 0-3.7-3l-9 .7-4 .4a3.4 3.4 0 0 0-3.1 3.7Z" fill="#313435"/><path opacity=".2" d="M127.3 11.3c-.2.8-.1 1.6.6 1.9 1.9 1 5 .1 6.7 1 1.7.9-.4 8 3.2 8.7 2.3.4 2.8-1 2.8-2.1v-1l-.7-6.3a3.4 3.4 0 0 0-3.6-3l-9 .8Z" fill="#686B6B"/><path d="m120.2 15.3 1.2 13.1a3.4 3.4 0 0 0 3.7 3l13-1.1a3.3 3.3 0 0 0 3-3c-.4.6-1.2 1-2 1l-13 1.3a3.4 3.4 0 0 1-3.7-3.1l-.2-1.5-.6-7-.4-4.6v-.8c-.7.7-1.1 1.7-1 2.7Z" fill="#171919"/><path d="m127.2 25.7.7 7 6.9-.7-.7-6.9c0-1-.8-1.7-1.7-1.6l-3.8.3c-.8.1-1.5 1-1.4 2Z" fill="#313435"/><path d="M129 20a2.8 2.8 0 1 1 2.5-5 2.8 2.8 0 0 1-2.5 5Z" fill="#fff"/><path opacity=".2" d="m129.2 47 .4 4.7c0 .2.3.3.5.2h1.2c.2 0 .4-.2.4-.4l-.4-4.7c0-.2-.2-.3-.5-.3l-1.1.2c-.3 0-.5.1-.5.3ZM128.6 40.4l.4 4.7c0 .1.3.3.5.2h1.2c.3 0 .5-.2.4-.4l-.4-4.7c0-.1-.2-.2-.5-.2l-1.1.1c-.3 0-.5.2-.5.3ZM131.6 28.9l2 21.6c0 .8.3 1.4.4 1.4h.6v-1.4l-2-21.7c0-.7-.2-1.4-.3-1.4h-.6c-.1.1-.2.7 0 1.5Z" fill="#313435"/><path d="m111.6 30.3-15.2 24c-.5.9-1.6 1.2-2.3.7L90.7 53c-.7-.5-1-1.6-.4-2.4l15.2-24.1c.5-.8 1.6-1.2 2.3-.7l3.4 2.1c.7.5 1 1.6.4 2.5Z" fill="#A3A7A8"/><path d="m123 24-7.3 11.5a3.5 3.5 0 0 1-4.8 1.1l-11.6-7.3a3.5 3.5 0 0 1-1.1-4.8l3.2-5.2.6-.9 3.5-5.5c1-1.6 3.2-2.1 4.8-1l8 5L122 19c1.6 1 2.1 3.2 1.1 4.8Z" fill="#313435"/><path opacity=".2" d="M118.4 16.9c-.3.8-.7 1.4-1.5 1.4-2.2 0-4.7-2.3-6.7-2.3s-3.4 7.7-7.1 6.6c-2.4-.7-2.1-2.3-1.6-3.3.2-.5.5-.8.6-.9l3.4-5.5c1-1.6 3.2-2.1 4.9-1l8 5Z" fill="#686B6B"/><path d="m123 23.9-7.3 11.6a3.5 3.5 0 0 1-4.8 1.1l-11.6-7.3c-1.4-.9-2-2.6-1.4-4 .2.6.7 1.3 1.4 1.7l11.6 7.4c1.6 1 3.8.5 4.8-1.1l7.4-11.7.3-.7c.3 1 .2 2-.4 3Z" fill="#171919"/><path d="m111.6 30.3-3.9 6-6-3.8 3.8-6.1c.5-.8 1.6-1.2 2.3-.7l3.4 2.1c.7.5 1 1.6.4 2.5Z" fill="#313435"/><path d="M112.7 24.1a3 3 0 1 0 0-5.8 3 3 0 0 0 0 5.8ZM129.6 18.9a2 2 0 1 0 0-4.1 2 2 0 0 0 0 4Z" fill="#fff"/><path d="M114.2 23.9a9.4 9.4 0 1 1 16.1-6.5H129a8 8 0 1 0-13.6 5.4l-1 1Z" fill="#A3A7A8"/><path opacity=".2" d="m99.7 49-2.6 4.2c0 .2-.4.2-.6 0l-1-.6c-.2-.2-.4-.4-.3-.5l2.7-4.2h.5l1 .6c.3.2.4.4.3.6ZM103.4 43.3l-2.6 4c-.1.2-.4.2-.6 0l-1-.6c-.3-.1-.4-.3-.3-.5l2.6-4.1c0-.2.4-.2.6 0l1 .6c.2.2.4.4.3.6ZM106 31.1 94 50.3c-.5.7-1 1.2-1 1.1l-.6-.3.6-1.4 12-19.2 1-1 .6.3c.1 0-.1.7-.6 1.3Z" fill="#313435"/></g><defs><linearGradient id="b" x1="47.4" y1="112.3" x2="47.4" y2="126.7" gradientUnits="userSpaceOnUse"><stop offset=".2" stop-color="#1A1A4F"/><stop offset=".9" stop-color="#1A1A49" stop-opacity="0"/></linearGradient><clipPath id="a"><path fill="#fff" d="M0 0h176.5v127.2H0z"/></clipPath></defs></svg>