<svg width="134" height="130" viewBox="0 0 134 130" fill="none" xmlns="http://www.w3.org/2000/svg"><path d="M50.5 91C75.1 91 95 87.9 95 84s-20-7-44.5-7C25.9 77 6 80.1 6 84s20 7 44.5 7Z" fill="#DFDFEC"/><path d="M69.6 59.8v28.4H20c-.9 0-1.6-.7-1.6-1.6V60.4l51.2-.6Z" fill="#EBEFF8"/><path d="M88.4 61.4V86c-7.6 1.3-18.8 2.2-18.8 2.2v-26s3.8-11.8 4.7-15.1c.8-3.3 4.1-3 6-3.3h.8c1 .3 2 1.1 2.8 1.9l1.2 1.2 1.3 5.7 2 8.8Z" fill="#BBC2D5"/><path d="M83 66.2v12.3L76 79V66.2c0-1.8 1.6-3.4 3.5-3.4h.1c1.8 0 3.3 1.7 3.3 3.4Z" fill="#AEC3CE"/><path d="M83.1 66.5v.7c0-1.7-1.5-3.5-3.1-3.6h-.2c-1.7 0-3.2 1.6-3.2 3.3v12.2H76V66.2c0-1.8 1.7-3.5 3.6-3.5h.1c2.2 0 3.4 2 3.4 3.8Z" fill="#6F9AA7"/><path d="M80.4 62.2h-.5v17.2h.5V62.2Z" fill="#6F9AA7"/><path d="M83.4 68.2v.8l-7.7-.2v-.7l7.7.1Z" fill="#fff"/><path d="M83.4 68.8v.7h-7.7v-.8l7.7.1ZM83.4 74.2v.8h-7.8v-.7h7.8Z" fill="#6F9AA7"/><path d="M83.4 73.6v.7l-7.8.1v-.7l7.8-.1Z" fill="#fff"/><path d="M82.5 63.2a4.1 4.1 0 0 0-2.9-1.3 4 4 0 0 0-4.3 4.2v13.3c0 .2.2.4.3.3l7.7-.4c.2 0 .3-.2.3-.4V66.1a4 4 0 0 0-1.1-3Zm.3 15.3-6.5.4c-.1 0-.2 0-.2-.2V66.2c0-1.8 1.6-3.4 3.4-3.4h.2c1.8 0 3.3 1.6 3.3 3.4v12.2l-.2.1Z" fill="#fff"/><path d="M79.9 62.1h-.7v17.3h.7V62Z" fill="#fff"/><path d="M90.8 62h-3a.7.7 0 0 1-.6-.4L79.3 43l-1.2-1.8 2-1 2.8-1.6.7 1.5 1.3 3.2 7 16.8c.4.9-.2 1.9-1.1 1.9Z" fill="#213D60"/><path opacity=".1" d="M88.4 61.4v6.2h-1.3a.7.7 0 0 1-.6-.4l-5.4-13.5-4 10.5c-.5 1-1.4 1.6-2.5 1.6l-5-.8H18.4v-5s12.4-19.6 13.4-19.6l48.3-.2 8.3 21.2Z" fill="#213D60"/><path d="m83 39.3-.4.8-1.5 3.8-6.7 17.3C74 62.2 73 63 72 63H14.8c-1.1 0-1.7-1.3-1.1-2.2 2-3 5.9-8.5 8.7-13.3l1.4-2.5 3-5.2c.4-1 1.3-1.5 2.3-1.5h7.1L82 38a1 1 0 0 1 1 1.3Z" fill="#5682AC"/><path d="M48.6 68.7v19.5h-9.4V68.7c0-.2.2-.3.4-.3h8.6l.3.1v.2Z" fill="#DD6848"/><path opacity=".1" d="M24.8 79.2c-.2.2-2.6.6-2.6.6l-.2-.2V69s0-.2.2-.2h3l-.4 10.4ZM32.7 79.2c.2.2 2.6.6 2.6.6l.2-.2V69s0-.2-.2-.2h-3l.4 10.4Z" fill="#213D60"/><path d="m24.8 79.2-3 .1-.1-.1V68.7l.1-.1h3v10.6ZM32.7 79.2l2.7.1c.2 0 .3-.1.3-.3V69c0-.2-.1-.3-.3-.3h-2.7v10.6Z" fill="#5682AC"/><path d="M32.2 69h-6.9v9.7h6.9V69Z" fill="#AEC3CE"/><path d="M32.4 74.7v-.4h-7.5v.4h7.5Z" fill="#6F9AA7"/><path d="M24.8 68.5v10.7h7.9V68.5h-7.9Zm7.4 10.2h-6.9V69h6.9v9.7Z" fill="#fff"/><path d="M32.2 69v.7h-6.4v9h-.5V69h6.9Z" fill="#6F9AA7"/><path d="M29.3 69.7v9h-.5V69l.5.7Z" fill="#6F9AA7"/><path d="M32.4 74.3v-.5h-7.5v.5h7.5Z" fill="#fff"/><path d="M28.8 69h-.4V79h.4V68.9Z" fill="#fff"/><path opacity=".1" d="M55.5 79.4c-.2.2-2.7.6-2.7.6l-.2-.2v-11l.2-.1h3l-.3 10.7ZM63.7 79.4c.2.2 2.7.6 2.7.6l.2-.2v-11l-.2-.1h-3l.3 10.7Z" fill="#213D60"/><path d="m55.5 79.4-3 .1-.2-.1V68.6c0-.1 0-.2.2-.2h3v11ZM63.6 79.4l2.8.1c.2 0 .4-.1.4-.3V68.7l-.3-.3h-2.9v11Z" fill="#5682AC"/><path d="M63.2 68.9H56v10h7.2v-10Z" fill="#AEC3CE"/><path d="M63.3 74.7v-.4h-7.6v.4h7.6Z" fill="#6F9AA7"/><path d="M60.1 69.7v9h-.4V69l.4.7Z" fill="#6F9AA7"/><path d="M55.5 68.3v11.1h8.2v-11h-8.2ZM63.2 79H56v-10h7.2v10Z" fill="#fff"/><path d="M63.2 68.9v.6h-6.7V79H56v-10h7.2Z" fill="#6F9AA7"/><path d="M63.3 74.3v-.6h-7.6v.6h7.6Z" fill="#fff"/><path d="M59.7 68.7h-.5v10.6h.5V68.7Z" fill="#fff"/><path opacity=".1" d="m34 38.2-3 3.4-.6.3-5 .2 1.4-2.4c.4-1 1.3-1.5 2.3-1.5H34Z" fill="#213D60"/><path opacity=".3" d="M37.2 57h.2l6.2-5.9c.2-.1.2-.4 0-.5l-1.8-2.2-3.3.2V52l-1.3 5Z" fill="#213D60"/><path d="M37.2 57h-7.7a.3.3 0 0 1-.3-.3V48l2.8-3.4h5.2V57Z" fill="#EFF2FA"/><path d="M34.7 49h-4v6.2h4v-6.1Z" fill="#AEC3CE"/><path d="m41.8 49-.3.4-4 7.5-.3.1v-8.4h4.4l.2.4Z" fill="#BBC2D5"/><path d="M34.7 52.8v-.4h-4v.4h4ZM34.8 49.7v-.4h-4v.4h4Z" fill="#6F9AA7"/><path d="M31 55h.4v-5.7H31V55Z" fill="#6F9AA7"/><path d="M35 55.5h-4.4v-6.6H35v6.6Zm-4-.4h3.6v-5.8h-3.7V55Z" fill="#fff"/><path d="M42.4 49h-5.8c-.1 0-.3 0-.3-.2l-3.6-3.6-3.5 3.9H28a.2.2 0 0 1-.2-.4L32 44l.4-.2h5.4c.1 0 .2 0 .3.2l1.3 1.2 3.2 3.3c.2.2 0 .5-.1.5Z" fill="#213D60"/><path d="M32.8 49h-.3v6.2h.3v-6.1Z" fill="#fff"/><path d="M34.8 52.4v-.3h-4v.3h4Z" fill="#fff"/><path opacity=".1" d="M42.2 48.9h-.5l-1.3 2.4-3.2-1.8h-1c-.1 0-.2 0-.3-.2L32.6 46l-3.4 3c-1-1 2.3-3.6 2.5-4.3.2-.7 1.4-.3 1.6-.2.3 0 3 2.9 4.5 3.2l3.6.6c.6 0 .8.6.8.6Z" fill="#213D60"/><path d="M39.3 45.2h-3c-2.6-.2-3.7-1.4-3.7-1.4h5c.2 0 .3 0 .4.2l1.3 1.2Z" fill="#2E4E69"/><path opacity=".3" d="M60.3 57h.2l6.2-5.9c.2-.1.2-.4 0-.5L65 48.4l-3.3.2V52l-1.3 5Z" fill="#213D60"/><path d="M60.3 57h-7.7a.3.3 0 0 1-.3-.3V48l2.8-3.4h5.2V57Z" fill="#EFF2FA"/><path d="M57.9 49h-4v6.2h4v-6.1Z" fill="#AEC3CE"/><path d="m64.9 49-.3.4-4 7.5-.3.1v-8.4h4.4l.2.4Z" fill="#BBC2D5"/><path d="M57.9 52.8v-.4h-4v.4h4ZM57.9 49.7v-.4h-4v.4h4Z" fill="#6F9AA7"/><path d="M54 55h.4v-5.7H54V55Z" fill="#6F9AA7"/><path d="M58.1 55.5h-4.4v-6.6H58v6.6Zm-4-.4h3.6v-5.8h-3.6V55Z" fill="#fff"/><path d="M65.5 49h-5.8c-.1 0-.2 0-.3-.2l-3.6-3.6-3.5 3.9h-1.2a.2.2 0 0 1-.2-.4L55 44l.4-.2h5.4c.1 0 .3 0 .3.2l1.3 1.2 3.3 3.3c0 .2 0 .5-.2.5Z" fill="#213D60"/><path d="M56 49h-.4v6.2h.3v-6.1Z" fill="#fff"/><path d="M57.9 52.4v-.3h-4v.3h4Z" fill="#fff"/><path opacity=".1" d="M65.3 48.9h-.5l-1.2 2.4-3.3-1.8h-1c-.1 0-.2 0-.3-.2L55.7 46l-3.4 3c-1-1 2.3-3.6 2.5-4.3.2-.7 1.4-.3 1.6-.2.3 0 3 2.9 4.5 3.2l3.6.6c.6 0 .8.6.8.6Z" fill="#213D60"/><path d="M62.4 45.2h-2.9c-2.7-.2-3.8-1.4-3.8-1.4h5c.2 0 .3 0 .4.2l1.3 1.2Z" fill="#2E4E69"/><path d="M45 68.4h-1.1v19.8h1V68.4Z" fill="#C25E42"/><path d="M48.6 79v-1h-9.3v1h9.3ZM48.6 68.7v.7h-9.4v-.7c0-.2.2-.3.4-.3h8.6l.3.1v.2Z" fill="#C25E42"/><path d="M40.3 68.4v19.8h-1V68.7c0-.2.1-.3.3-.3h.7Z" fill="#C25E42"/><path d="M40.6 79.4h-.3v-2.5h.3c.2 0 .3.1.3.3V79c0 .2-.1.4-.3.4Z" fill="#F8994B"/><path d="M43 100.5h-5.4L37 97h5.2l.9 3.5ZM2.3 80.6h22.4l-1 1h.8l-.5.6.5.5-1.1.4H3v.4l-.7-2.9ZM21 93.3H2.3v2.4H21v-2.4Z" fill="#C05E42"/><path d="M36.6 100.5H30.7l-.2-.1-1.5-3.9-2.9-7.2V89l.3-2.4 2 .5.6-2.8c0-.3 2.3 2 2.3 2l.8 2 4.8 11.8c0 .1 0 .3-.3.3Z" fill="#DD694A"/><path d="M29 94.4v5.7c0 .3-.2.4-.4.4h-5a.4.4 0 0 1-.4-.4V89l.8.8 1-.3 1.4-.2 1-.9 1.6 6ZM22 76v24.1c0 .3-.2.4-.5.4h-5.2a.4.4 0 0 1-.4-.4V76l2.8-3c.2-.2.5-.2.7 0l2.5 2.8v.2ZM14.3 100.6c0 .2 0 .3-.2.3l-5.9.3-.3-.3-.4-25.1.8-1.1c.8-1.3 2.2-3 2.5-3l.2.1a17.9 17.9 0 0 1 2.8 4l.5 24.8ZM7.3 100.8c0 .2-.2.4-.4.4H1.3a.4.4 0 0 1-.4-.4V75.4L1 75l.1-.1 2.5-3c.2-.2.4-.2.6-.1l2 2.4.7.8.2.3.2 25.4Z" fill="#DD694A"/><path d="m20.7 103.1 1.6-.5 1.8.2h2.5l3.1 1.4-3 .5h-1.9l-1.6-.5-1.6.5-1-1.6ZM33.8 102.6l2.2-.4 1 .4-.6 1-1.5.6-1.1-1.6Z" fill="#DD6849"/><path d="M4.1 75a6.2 6.2 0 0 1 .5 3.8v.2l-.2.3v.4c-.2.3-.2.6-.2 1a5.8 5.8 0 0 0 .5 1.8c0 .1 0 0 0 0-.2-.2-.3-.6-.4-.9l-.2-1v-1l.2-.4V79l.1-.3a6.4 6.4 0 0 0-.3-3.7v-.1ZM2.3 78.2l.2 1 .3.9.5.9.3 1 .2 1 .3.9.5.8c.2.3.3.7.3 1 0 .4-.2.7-.3 1l-.6.8c-.2 0-.4.2-.6.1a.8.8 0 0 1-.4-.2l-.2-.2-.1-.3-.1-.5c0-.3 0-.7.2-1a3 3 0 0 1 .4-.6c0-.1 0-.2.2-.2l.2.1.2.3.1.5-.1 1V86a2 2 0 0 0-.1-1l-.1-.2-.2-.1-.2.1-.1.2-.2.4-.2 1a1.4 1.4 0 0 0 .2.7l.2.2.4.2.4-.1.6-.7.2-1c0-.3 0-.6-.2-.9l-.6-.8a2 2 0 0 1-.2-.5V83l-.2-1-.3-1-.5-.8c-.2-.6-.5-1.3-.4-2ZM2.7 88.4l.5.9.5.8a2 2 0 0 1 .3.7v.3l-.2 1c-.2.6-.3 1.2-.3 1.9l.1.2v.2l.3.4.5.9.4 1v1l-.3.4-.1.2-.2.2-.5.2a1 1 0 0 1-.5-.1 1 1 0 0 1-.7-.8v-1a7.8 7.8 0 0 0 0-2h.1l.2 1v1l-.1.5v.5a.8.8 0 0 0 1 .7c.1 0 .3 0 .4-.2l.2-.1.1-.2.2-.4v-1l-.4-.8-.5-.8-.2-.5v-.2l-.1-.3v-1l.3-1 .2-.9v-.5l-.2-.4-.5-.8c-.2-.3-.4-.5-.5-.9 0-.1 0 0 0 0ZM10.2 74v.8l-.1.8L10 77a28.3 28.3 0 0 0 0 3 4.6 4.6 0 0 0 .7 2l.2.4.3.3.1.3.1.4.2.8v1.5l.1 3v3l.1.8.1.3v.2l.2.2.1.3.2.4.2.7a17.4 17.4 0 0 1 .4 3h-.1l-.1-1.4-.4-1.5-.2-.7c0-.1 0-.3-.2-.4v-.1l-.1-.2v-.2l-.1-.2-.1-.4-.1-.7v-3l-.1-3-.2-1.6-.1-.7-.1-.4s0-.2-.2-.3l-.1-.3a352.9 352.9 0 0 0-.6-1c-.2-.5-.4-1-.4-1.5v-1.5a54.2 54.2 0 0 1 .1-3l.1-.8.1-.8h.1ZM9.4 83.5a10 10 0 0 0 .3 5l.3 1c.2.2.3.5.4.9l.4 1a5 5 0 0 1 .3 2v2a6 6 0 0 0 .3 2 16.3 16.3 0 0 1 .5 2 20 20 0 0 0-.7-2l-.3-1-.1-1v-3l-.3-1-.7-2a79 79 0 0 0-.6-1.9 9.5 9.5 0 0 1 .2-4Z" fill="#C05F43"/><path d="m11.2 78.7-.3 2c0 .7 0 1.4.2 2v.2l-.2-.1a7 7 0 0 1 .2-4l.1-.1ZM11.3 74.7V75l.2.4.2.7a3.6 3.6 0 0 1 0 1.5l-.2.1-.1-.1.1-.7a3.2 3.2 0 0 0-.1-1.5l-.1-.3-.1-.2v-.2ZM19.6 85.7l-.1 1.2-.2 1.1v1.1l.2 1.1a10.7 10.7 0 0 1 0 2.3l-.4 2.3a21 21 0 0 0 .3-3.4l-.1-1.1c-.1-.8-.2-1.5-.1-2.3l.1-1.2a10.6 10.6 0 0 0 .2-1.1ZM18.6 74.7c-.2.7-.4 1.3-.4 2a7.3 7.3 0 0 0 .4 3c0 .4.2.7.3 1a13.1 13.1 0 0 1 .4 2l-.5-2-.4-.9a6.5 6.5 0 0 1 .1-5s0-.1 0 0c.1-.1.1 0 .1 0ZM18.9 97.8l.4.6.1.2h.1l.1-.1.4-.6.2-.6.3-.6.1-.7-.1-1.3v-2.6l.2-1.4.1-1.3v2.7a21.9 21.9 0 0 0-.1 2.6l.1 1.3-.1.7a8.7 8.7 0 0 1-.6 1.2l-.3.6-.2.1-.2.1-.1-.1-.1-.2-.4-.6ZM17 81.5l.1 1a22.6 22.6 0 0 0 .6 2.7l.2 1 .2.9-.2 2-.2 1.8.2 1c.1.2.3.5.3.8V94l-.1.2-.2.4-.2 1 .2.9a2 2 0 0 1-.3-1c0-.3 0-.6.2-.9l.1-.5V94l.1-.2v-1l-.2-.8-.3-1 .2-2a8 8 0 0 0 .2-1.8l-.1-1-.1-.4-.2-.4a28.8 28.8 0 0 1-.5-2.9v-.9Z" fill="#C05F43"/><path d="M20.3 81.6c-.2-.8 0-4.9 0-5.2h.2c-.1.3-.2 4.4 0 5.1h-.2Z" fill="#DD694A"/><path d="m31.6 96.3-.1-.3c0-.4 0-1.2-.4-1.3-.8-.3-1.6-.6-1.8-1.6-.1-.4-.3-.5-.5-.7-.2-.2-.5-.4-.7-1v-.1h.2c.2.7.4.9.6 1 .2.2.4.3.5.8.2.9 1 1.2 1.7 1.5.6.1.5 1 .5 1.4V96c.4-.7 0-1.6-.5-2.6a10.6 10.6 0 0 1-1-3.3c-.2-.8-.3-1.4-.7-2.4v-.1h.1l.7 2.5.3 1.3c.1.7.4 1.3.7 2 .5 1 .9 1.9.6 2.6l-.2.4Z" fill="#C05F43"/><path d="M7.3 100.8c0 .2-.2.4-.4.4H1.3a.4.4 0 0 1-.4-.4V75.4h.3l.1 15.1.2 9.8c0 .4 3 .1 3.8.1.9 0 1.2-.3 1.2-.7l-.2-6.9V74.3l.6.9.2.3.2 25.3ZM36.6 100.5H30.7c.4-1.8 2.2-2.7 2.6-3.3.3-.6.1-1.5-.2-2.4-.3-.9-.4-1.6-.2-2 .3-.5.1-.6-.3-2.2-.3-1-.5-1.6-.5-2.1l4.7 11.7c.1.1 0 .3-.2.3ZM29 96.5v3.6c0 .3-.2.4-.4.4h-.9c0-.9-.2-2-1-3.7l-3.5-5.3V89l.8.8 1-.3 1.1-.2 2.9 7.3ZM22 95.7v4.4c0 .3-.2.4-.5.4h-5.2a.4.4 0 0 1-.4-.4v-3a25 25 0 0 1 1.8 2c.5.5.6 1.2 2 .4 1.3-.7 1.9-1.7 1.9-2.9 0-.6.1-1 .3-1ZM14.3 100.6c0 .2 0 .3-.2.3l-5.9.3-.3-.3-.4-25.1.8-1.1c0 .6-.4.6-.4 1l.4 19.1c.1 5 0 5.7.6 5.6h3.4c.5 0 1 0 1.1-.5.2-.5 0-5.5 0-5.5l-.2-19.8.6 1.2.5 24.8Z" fill="#C05E42"/><path d="M4.2 71.9 4 72c-.2 0-2.8 3.3-2.8 3.3H.8l.1-.2.1-.1 2.5-3c.2-.2.4-.2.6-.1ZM11 71.8l-3.1 4h-.4l.8-1.1c.8-1.2 2.2-3 2.5-3l.2.1Z" fill="#DB774B"/><path d="M10.6 88s-.2 0-.3-.2c-.7-1.4-.2-3-.1-3 0 0 .1 0 0 0 0 0-.4 1.6.2 2.9l.2.2.2-.3c.1-.8 0-2-.1-2-.3.2-.2 1.1-.1 1.4v.1h-.1s-.3-1.3 0-1.6h.2c.3.1.3 1.5.2 2.2 0 .2-.2.3-.3.4ZM29 99v1.1c0 .3-.2.4-.4.4h-5a.4.4 0 0 1-.4-.4v-4.4l1 .3c.6.5.6 2 1 2.8.3.7 1.1.5 2.2.5.9 0 1.3-.3 1.6-.2Z" fill="#C05F43"/><path d="M16.3 76.3ZM19.4 73l-.2.1c-.3.1-1.8 2.1-2.4 2.7l-.5.5h-.4V76l2.8-3c.2-.2.5-.2.7 0Z" fill="#DB774B"/><path d="M0 109.6v.4c0 .2.1.4.3.4l4.7.9h.3l9-4.2.2-.4-.1-.9-9.4 2.6-5 1.2Z" fill="#C05E42"/><path d="M14.4 105.8 7 109.5l-1.8.9-5.2-.8 2.7-4 .3-.2 2.2-.9 3-1.1c.2 0 .4 0 .4.2v1.2l2.7-.8.7.4 2.4 1.4Z" fill="#DD694A"/><path d="M40.3 109v.6l.2.3 3.4 2.5c.2.2.5.1.7 0l2.5-2.5.1-.3v-.5l-6.9-.2Z" fill="#C05E42"/><path d="m41 103.6-.7 5.3 3.8 2.6h.5l2.7-2.4-.4-5.5-.5-.7-.5.7-.3-.7-.9 1-1.4-.3-1.1.5-1.1-.5Z" fill="#DD694A"/><path d="M3.7 108c2-1.2 4.3-1 6.5-1.7l1.6-.8c0-.1 0-.3-.1-.2-1.9 1.3-4.3 1.2-6.4 1.8a8 8 0 0 0-1.7.6c-.1 0 0 .3.1.2ZM7.2 107.9h.2v-.2H7v.2ZM2.5 109.5c1-.5 1.9-.9 2.8-1.1.2 0 .1-.3 0-.2-1 .2-2 .6-2.9 1.2 0 0 0 .2.1.1ZM5.7 105.5l.8-.2v-.1l-.1-.1c-.3 0-.5.2-.8.3v.1ZM42.6 105.1c0 1 0 1.8-.3 2.7 0 .1.2.2.2 0 .3-.8.3-1.8.3-2.7 0-.1-.1-.1-.2 0ZM44 105.2v.5l-.1.4-.1 1c0 1 .2 2 .6 3 0 .2.2.1.2 0-.4-1-.6-2-.6-3v-1l.1-.3v-.5c.1-.1 0-.2-.1-.1ZM45.4 104.4c0 .7-.1 1.3-.3 2-.2.6-.3 1.1-.1 1.8h.2c-.2-.7 0-1.3.1-1.9.2-.6.3-1.2.3-2h-.2Z" fill="#C05E42"/><g clip-path="url(#a)"><path d="M123.5 64.6c-9.8.5-20.1-23.6-20.1-23.6s-.9-3.5-1.6-3.8l-1.6-.6c-.2-.1-1.4-.5-1.4-1.3 0-.7-.2-1.7-.7-2.7-.4-1 .1-2.9.1-3.5 0-.7-.5-2.9-.5-2.9l-3.7-.6s-4.7.4-6-5.6l-.1-.8c-1-5.4.7-7.7 3.4-10 0 0-1 .1-2.3 1.7 0 0 .7-3.9 6.4-5 0 0 2.5-6 10.8-5.9 8.4.2 13 4.5 14.3 10.1 1.4 5.6 1.5 10.5 2.5 14.5.9 4 3.2 9.2 5 13l3 6.4a51 51 0 0 1 2.4 7.3c1.2 4.8 0 12.9-9.9 13.3Z" fill="#703C27"/><path d="M123.5 64.6c-9.8.5-20.1-23.6-20.1-23.6s-.9-3.5-1.6-3.8l-1.6-.6c-.2-.1-1.4-.5-1.4-1.3 0-.7-.2-1.7-.7-2.7-.4-1 .1-2.9.1-3.5 0-.7-.5-2.9-.5-2.9l-3.7-.6s-4.7.4-6-5.6l-.1-.8c0 .2.7 2.4 4.1 3.5 0 0-1.9-4.7-.5-7.9.6-1.2 1.2-1.7 1.7-1.9 0-1 .4-3 1.8-4.2 2-1.9 5-5.1 10.6-6.3-.2 0-2.5.7-3.7 2 0 0 1.4-.7 4-.7 0 0-5 .5-5.5 4 0 0-.4-2-2.7 1.9 0 0 .3-3.1-1.8.4-2.1 3.6-.8 5.4 1 6.5 0 0-.7-3.2 1.4-4.6 0 0 1.1 6.1 8.6 5.8 7.4-.3 9.5-9.4 9.5-9.4s1.8 3.1.3 8.2c0 0 4 1 5 6.8 0 0-1.5-.6-.7 1.3.8 2 .5 2.4 0 3.9-.4 1.5 1 2.2 2 3.5 1 1.4 4 7.1 4.4 9.7.3 1.4 2 2 3.6 2.3a51 51 0 0 1 2.4 7.2c1.2 4.9 0 13-9.9 13.4Z" fill="#532C1D"/><path d="M98.3 47v.7c0 1-.4 1.4-.4 1.4l-2.7 9.6-8.6 2.1c-4.3 1-7 1.6-9.3 1.6-2.4 0-3.5-.3-3.5-.3l-.3-1.2.7-7.4h5.3c3.3-.1 4.3-2 7.6-4.3 3.2-2.2 6.6-5.2 8.5-6.9 2-1.7 2.7-.6 2.7-.6l-.4 2.4v.5l.4 2.3Z" fill="#E9E8E8"/><path d="M98.3 47.7c0 1-.4 1.4-.4 1.4l-2.7 9.6-8.6 2.1c-4.3 1-7 1.6-9.3 1.6-2.4 0-3.5-.3-3.5-.3l-.3-1.2.7-7.4h4.1c-.6.5-1.3 1.4-.9 2.9.8 2.7 6 1.4 9 .5 2.9-1 7.6-3.5 7.6-3.5s.4.8-.4 1.8c0 0 1-.7 2.8-5 .8-2 1.4-2.9 1.9-3.3v.8Z" fill="#CFCFCE"/><path d="M73 60.3c-.2-.1-1 0-1.7.3l-1.9.7c-.5.3-1.2.4-1.8.4-2.2-.1-6.6-.5-7.8-2.1a4.2 4.2 0 0 1-.8-1.9c-.1-1.2.3-2.2.6-3a1 1 0 0 1 1.3-.5c1.6.7 3.8.6 3.1 0-.7-.6.2-1.6 1.5-1 .2.1 2.3 1.2 4.1 1.2h2.8s1.5 6.2.7 5.9Z" fill="#FCD4CA"/><path d="M73 60.3c-.2-.1-1 0-1.7.3l-1.9.7c-.5.3-1.2.4-1.8.4-2.2-.1-6.6-.5-7.8-2.1a4.2 4.2 0 0 1-.8-1.9l.3.3c.9 1.8 4.3 2 5.8 2s3.7.4 4.9-1c.9-1 1.1-3.5 1.2-4.6h1.2s1.5 6.2.7 5.9Z" fill="#F4C9C0"/><path d="M75.3 52c-.1-.5-3.8 0-3.8.5 0 .4 0 6.8-.8 9.4 0 0 0 .7 1.2 1.2 1.4.4 2.3.1 2.3.1s1.8-7 1-11.2Z" fill="#F1EDED"/><path d="m114.3 35.7-2.6 8.6c0 .1-1.8 1.4-3 2.6l-.5.7c-.7 1-.9 2-.9 2l-3.3-.3-.8-1.6-.7-1.2-.6-1-.8-1.6s-.3-2.4 0-5.4c.2-2 .2-4.5.2-5.9v-1l5.8 1 1.4-.3.8-.9 3.4-3.7 1-1.2V35l.6.8Z" fill="#F5CAC0"/><path d="m114.3 35.7-2.6 8.6c0 .1-1.8 1.4-3 2.6l-.5.7-1.1-.3h-1l-3 .4-.5-1.2-.7-.9-.8-1.7s-.3-2.4 0-5.4c.3-2 .2-4.5.2-5.9l.6 1.2v2.3c0 1.2 1 2.7 1 2.9-.1.2-.9.6-.6 1.5l.5 3c.4 1.3 1.6 2 1.6 2s.6-1.9 2.3-3c1.6-1.1 5.5-5.3 5.5-5.3s.4-4 0-4.8l-1.2-2.2s-1.6 2.3-1.7 1.3c-.2-1-.2-2.3.2-3 .5-.5 1.8-.8 3.2-.8l1 .1.1 7.2.5.7Z" fill="#DDADB3"/><path d="M93 19s0 7.3 5.3 12.6c4 4 6.2 4.1 7.3 4 2.3-.1 6.5-4.5 7.6-6.3.6-.9 1-3.6 1-3.6s3.1.4 3.6-2.8c.4-2.8-1-4-2-4.7-.4-.3-3.3-.8-3.8 2-.5 2.6-4.4 3.2-7.4 3-3-.4-6.3-1.9-7.3-3.5 0 0-.4 1 .3 2-1.5-.3-3.1-1.3-4.7-2.6Z" fill="#FCD4CA"/><path d="M126.5 50a43 43 0 0 1-.8 2.8c-1.3 4-1.3 4.2-1.2 10.7 0 6.3-2.1 7.3-2.2 7.3.1 0-20.9 5.4-23.3 3.9a5.4 5.4 0 0 1-2.1-2.5l-.4-1c-.3-1 0-.4 0-.4l-1.1-9.2s-.5-.4-1-1.1a8.8 8.8 0 0 1-1.3-6.3c.7-5.1 2.4-6.5 2.4-6.5 2-4 2.4-6.4 2.4-6.4l.7-2 1.8-.8 1.8.3c.2-.2 1.2.2 1.2.5 0 .4-1.4 2-1.8 3.2-.5 1-.4 1.4.3 2 .7.7 1.4 1.4 1.3 2.7l.6-.6 1-.8c.8-1 3.2-2.5 4-3l.2-.1v-.8l-.4-3.4 6-2.4 1.5.8a19.4 19.4 0 0 0 3 1.2c1.6.4 5.2 1 7 4l.7 1.6.3 1.8c0 1.4-.2 3-.6 4.6Z" fill="#DDD"/><path d="M110.5 43.3v.8a20 20 0 0 0-4.5 3.3c-.7 1-1.2 6.1-2.4 8.1-1.1 2-4 4.6-4 4.6l-1.3.5-.3-.4s1-1 2.4-3c1.5-2 2.7-3.3 2.9-5 .1-1.9.2-3.6.4-4.4l.1-1.2 1-.8c.9-1 3.2-2.5 4-3l.3-.1-.1-.8.2-.1 1.3 1.5Z" fill="#D4D2D2"/><path d="m124.1 110.8-1.7 10.5-.2 1-.9 6.7-5.9.1H111.7l-7.2.3h-5c-.7 0-.8-2.1-1.1-6.7l-.4-5-.1-2.3-.3-4.5 26.5-.1Z" fill="#EFBFB0"/><path d="M105.1 125.1c0 1.9-.3 3.3-.5 4.3l-5.2.1c-.6-.1-.7-2.2-1-6.7 0-1.5-.2-3.3-.4-5l4 2c1 .3 3.3.4 3.1 5.3Z" fill="#F5CAC0"/><path d="m124.1 110.8-1.7 10.5-.2 1-1.3-4.5c-1-3.6-6.1-.9-7.1.2-1 1-.6 5.7.9 8.2.7 1.3.8 2.3.7 3H111.7c.3-4 0-9.7-.7-11-.9-1.5-5.5-1.3-9.4-1.7-1.9-.2-3-.7-3.7-1l-.3-4.6 26.5-.1Z" fill="#DDAEA2"/><path d="M130 103c-1.4 7.6-2.9 9.5-4.2 9.9-1.6.4-9.6.8-17.3.9-6.7 0-12.8 0-13.2-.3-.8-.8-2-10-2.6-17.7-.6-7.8-.1-7.7.5-14.8.7-7 3.3-9.8 3.3-9.8l3.7-.9a104.3 104.3 0 0 0 17 .6c4.2-.9 7-3.7 7-3.7 0 3.7 3.7 6.5 6 13.4 2.3 7 1.3 15-.2 22.5Z" fill="#A16784"/><path d="M117.5 101a20.2 20.2 0 0 1-9 12.8c-6.7 0-12.8 0-13.2-.3-.8-.8-2-10-2.6-17.7-.5-7.2-.2-7.7.4-13.2l.1-1.6c.7-7 3.3-9.8 3.3-9.8l3.7-.9 1.5.2c3 .3 10 1 14 .6a54 54 0 0 1 1.8 29.9Z" fill="#77485F"/><path d="m101.7 70.5-2.7 3a26 26 0 0 0-5.9 9l.1-1.5c.7-7 3.3-9.8 3.3-9.8l3.7-.9 1.5.2Z" fill="#653F51"/><path d="M124.8 70c-.8 1-2 1.8-3.2 2.3-1.2.5-2.5.7-3.7 1a39 39 0 0 1-7.6.5 67.3 67.3 0 0 1-15-1.7v-.4a76.5 76.5 0 0 0 11.2 1.2h3.8a53.4 53.4 0 0 0 9.3-.8l1.8-.5c1.1-.4 2.2-1 3.1-1.8l.3.3Z" fill="#602647"/><path d="M80.8 70c-.8.2-1.8.3-3 .8-1.1.4-1 1.3-3.8.7-3-.5-7.6-1.7-8.8-2.4-.6-.3-1-.6-1-1-.3-.4-.2-1 0-2 .6-1.6 1.1-3 2-3l3 .2s-.6-.8 2-1c2.8 0 3.7 1.1 4.3 1.9.7.7.9.8 1.6.7h2.4l.7 2.8.6 2.3Z" fill="#FCD4CA"/><path d="M80.8 70c-.8.2-1.8.3-3 .8-1.1.4-1 1.3-3.8.7-3-.5-7.6-1.7-8.8-2.4-.6-.3-1-.6-1-1 1.7.5 4.8 1.7 6.1 1.9 1.8.3 3.5.1 6.5-.7 1.9-.5 2.9-1.2 3.4-1.6l.6 2.3Z" fill="#F4C9C0"/><path d="M89.4 17.6s-.4-4 2-5.7c0 0-4 1-2 5.7Z" fill="#532C1D"/><path d="m116.7 37.2-.4.2-5.4 7.8-2.1-2.4.3-.1-.5-4.2 6-2.4 1.5.9.6.2ZM103.2 47.2c-.2 1-.5 1.8-.5 1-.2-1.9-1.4-1.6-1.7-1.8L98.7 43a5 5 0 0 1-.8-1.8l.7-1.9 1.8-.9 1.8.3c.2-.1 1.2.2 1.2.6 0 .3-1.4 2-1.8 3-.5 1.2-.4 1.5.3 2.2.7.6 1.4 1.3 1.3 2.6Z" fill="#D4D2D2"/><path d="M110.8 42s0 1.2-1.7 2.2c-1.8 1-4 2.2-4.3 2.9-.3.6-.2 2.8-1.3 6-1.7 5.3-4.9 6.9-4.9 6.9M103 46s-.2 5.3-2 8.7a24.4 24.4 0 0 1-4.7 6.1" stroke="#B5B5B6" stroke-width="2" stroke-miterlimit="10"/><path d="M102.4 54c.2 0 .4-.2.4-.3 0-.2-.2-.3-.4-.3s-.4.1-.4.3c0 .1.2.3.4.3ZM103.7 50.2c.2 0 .3-.2.3-.3 0-.2-.1-.3-.3-.3-.3 0-.4.1-.4.3 0 .1.1.3.4.3ZM100.5 57.2c.2 0 .4-.1.4-.3 0-.2-.2-.3-.4-.3s-.4.1-.4.3c0 .2.2.3.4.3Z" fill="#B5B5B6"/><path d="M113.3 5.2c.2-.5-.3-1.2-1.1-1.6-.8-.4-1.7-.4-2 .1-.2.5.3 1.2 1.2 1.6.8.4 1.7.3 1.9-.1ZM109 6.2c.3-.1.4-.4.2-.7-.1-.2-.4-.3-.7-.1-.3.2-.4.5-.2.7.1.2.4.3.7.1Z" fill="#824E37"/><path d="m99.8 42.6-2.2-3.2 1.6-4.4 4.4 3.8-3.8 3.8ZM111.4 43l5-5.8-1.7-3.6-6.2 4.8 2.9 4.5Z" fill="#F1EDED"/><path d="m127.1 48.5-.6 1.6c-.7 1.5-1.8 2.6-4.6 6.1l-.4.4A121.3 121.3 0 0 1 104 71.7l-.3.1h-.2l-.4.1a4 4 0 0 1-.5.1l-1 .1h-.9l-.5.1h-8.6c-4.5.1-7.2 0-8.5-.1H82s-1.3-3.3-1.3-6.6c0-.8 0-1.5.2-2 .5-1.5 1.5-1.8 1.5-1.8s6.4-.4 12-1.2c2.9-.5 5.6-1 7-1.8 4.1-2 8.3-7.4 11.3-11.4 3-3.9 5.4-9.4 5.5-9.5l1 .3c1.4.4 4.9 1 6.7 3.9l.1.1c.3.5.6 1 .7 1.6l.3 1.8c.3 1.2.3 2.4.1 3Z" fill="#F1EDED"/><path d="m127.1 48.5-.6 1.6c-.7 1.5-1.8 2.6-4.6 6.1l-.4.4A121.3 121.3 0 0 1 104 71.7l-.3.1h-.2l-.4.1a4 4 0 0 1-.5.1l-1 .1h-.1a10.5 10.5 0 0 1-1.3.1h-8.6c-4.5.1-7.2 0-8.5-.1H82s-1.3-3.3-1.3-6.6c0-.8 0-1.5.2-2l1.3-1.4s1.7 2.6 4.4 2.5c2.6 0 11.2 1.2 15.1.2 3.9-1 8.7-5.6 13.7-8.4 5-2.8 10.1-5.8 10.5-8.4.3-2.1.1-5 0-6l.2.2.7 1.5.3 1.8c.2 1.2.2 2.4 0 3Z" fill="#E6E6E5"/><path d="M93 72.2h-1.3c-4.6.1-7.3 0-8.6-.1a52 52 0 0 0-1.3-5.9l.4-3.1s.4 0 3 4.6c1.4 2.8 5.1 4 7.8 4.5Z" fill="#CFCFCE"/><path d="M84.1 74.4c-.2.8-3.4.5-3.4.5-.4 0-.8-.2-1-.9a71 71 0 0 1-1.3-9.8c-.2-2.1 0-2.8.6-3 .7 0 3.7-.3 3.6.4 0 .7 0 3 .4 5.6l.2 1.1c.5 2.4 1 5.3.9 6Z" fill="#F1EDED"/><path d="M84.1 74.4c-.2.8-3.4.5-3.4.5-.4 0-.8-.2-1-.9 1 .4 2 .5 2.8 0 1-1 1.2-3 .7-5.6.5 2.3 1 5.2.9 6Z" fill="#CFCFCE"/></g><path d="m105.8 31.3-.6.1a5 5 0 0 0-.7.2l-.6.1-.6.3c-.2.2-.2.4 0 .6l.3.1c.2 0 .4 0 .6-.2l.5-.2.6-.3.6-.3v-.3h-.1ZM96.4 24l.4-.4.4-.2a1.2 1.2 0 0 1 1 0c.2 0 .4 0 .5-.3 0-.2 0-.4-.3-.5a3 3 0 0 0-.8 0c-.2 0-.4 0-.6.2-.2 0-.4.2-.6.4l-.4.5.1.3h.3ZM105.2 22.7a2 2 0 0 0-.5-.4l-.7-.3a2 2 0 0 0-1.4.3c-.2 0-.3.3-.2.5.1.2.4.3.6.2l.4-.2h1l.5.3h.3v-.4ZM103.3 25.4c-.2-.6 0-1.3.4-1.3.4-.1.8.4 1 1 0 .8-.1 1.4-.5 1.4-.4.1-.8-.4-1-1ZM97 26.5c-.1-.7 0-1.2.4-1.3.3-.1.7.3.9 1 .2.6 0 1.1-.3 1.2-.4.1-.8-.3-1-1ZM100.6 26.1c0 .7-.2 1.4-.5 2l-.6.8c0 .4 0 1 .4 1.2.3.3.8.3 1.1.2.2 0 .4-.1.5-.3.2-.1.3-.3.3-.5l-.1-.2-.1.1c-.2.2-.4.4-.7.4-.2 0-.5 0-.7-.2-.1-.1-.2-.3-.1-.5 0-.3.2-.5.4-.7v-.1l.3-1V26l-.2.1Z" fill="#35335C"/><defs><clipPath id="a"><path fill="#fff" transform="translate(59)" d="M0 0h74.8v129.5H0z"/></clipPath></defs></svg>