<svg width="232" height="189" viewBox="0 0 232 189" fill="none" xmlns="http://www.w3.org/2000/svg"><ellipse cx="116" cy="161.5" rx="116" ry="27.5" fill="currentColor"/><path d="M202 127.7c-1.8.2-3.5.8-5.3 1.1-1.4.3-2.7 1-4.2.8-.4-.4-.3-.9-.3-1.4V60.1c0-.6-.2-1.4.9-1l.3.2c.4.2.6.6 1 .7 2.4 1.7 4.6 3.6 6.9 5.3l.8.8v61.6Z" fill="#A9BACB"/><path d="m202 66.1-6.6-5.2-1-.7c-.2-.2-.5-.3-.6-.6 0-.1 0-.2.2-.3l7.4 5.9c.2.1.4.3.7.3v.6Z" fill="#EEF3F6"/><path d="M183.5 135.4c.5 1.8 0 3.5-.3 5.3l-.6 3.1c-.1.8 0 1 .9 1 .3 0 .6 0 .9.2-.3.6-.4 1.1-.4 1.8.1 1.5-.8 2.4-2 3a3 3 0 0 1-3.5-.4 8 8 0 0 1-.9-.8c-.5-1-.8-2.2-1.2-3.3-.6-2-1.9-3.4-3.7-4.4-.5-.3-1-.5-1.6-.5-1.5.1-3 0-4.3 1-2 1.4-2.8 3.5-3.4 5.8l-.4 1.2-1 6c-.5 2.4-2 4-4.2 5-1.3.5-2.7.8-4.1 1l-13 3.2c-3.2.7-6.4 1.3-9.7 1.5-1.7.2-2.7-.7-3.4-2.2l-1.1-2.7c-.3-1-1.4-1.6-1.6-2.6l-.7-1.6c-.9-2.2-2.5-3.8-4.2-5.4a5 5 0 0 0-3.5-1.2c-1.5 0-3-.3-4.5.3-3.2 1.4-4.8 4.1-5.7 7.3l-.4 1.5c-1.2 3.1-1.7 6.4-2.8 9.5-.4 1.1-1 1.8-2 2.3-2.6 1-5.2 1.6-8 1.7l-7.5.2a25 25 0 0 1-8.3-1.5c-.8-.3-1.5-.4-2.4-.4-3-.1-6-.3-9-.2-.8-.9-1.8-1.3-2.7-2-1.8-1.1-3.4-2.7-5.3-3.8-.8-.3-1-1.3-2-1.4h-.3l-.4-.4c-.3-.3-.4 0-.4.3 0 1.2.3 2.3.7 3.4.4.8 1 1.6 1 2.7-1 .2-1.8-.2-2.4-1.1-.8-1.6-1.8-3.1-2.4-4.9-.7-2-2.4-3.2-4-4.3-.3-.3-.6-.2-.9 0l-1.2.9c-.5.3-.5.7 0 1 .4.3.8.7.7 1.3l.1.4c1.6 1 1.8 2.8 2.6 4.2.4.6.6 1.3 1.1 1.9.5.5.5 1.1-.2 1.6h-.3c-.5 0-1-.2-1.5-.5-.4-.3-.5-.7-.7-1l-5.5-14c-.2-.5-.4-.9-.2-1.4.2-.3.6-.4 1-.4.8-.2 1.7-.6 2.5-1 1-.7 1.6-.5 2.3.5l1.8 3c.3 1 .9 1.4 1.8 1h1.1c1.3 0 1.5 0 1.8 1.3.1.8.6 1.3 1.5 1.4 1.2.2 2.5.6 3.7.6 2 0 3.8.4 5.7.5.4 0 .9-.1 1 .5a19.8 19.8 0 0 1-10.4-.5c-.7-.2-1.4.3-2 0-1.4-.4-2.7-1-3.9-1.6-.6-.4-.7-1.1-.9-1.8-.2-.9-.4-1.8-1-2.6l-.4-.4c0 .2.2.2.3.3.6.7.9 1.6 1 2.5.2 1.1.7 1.9 1.7 2.4s2 1 3 1.2c.5.2 1 .2 1.4 0 1.2-.2 2.2.3 3.3.6 2.6.6 5.2.4 7.8-.1 2-.9 3.8-.7 5.6.4l3.1 1.8c2.9 1.5 6.9.3 8.4-2.5 1.3-2.4 2.3-5 3-7.6 0-.5-.1-1-.3-1.4 0-.6.5-.8 1-1 .7-.5 1.6-.8 2.4-1.4l.7-.4 3.8-3c1.1-1 1.1-1 0-2l-.3-.3c-.2-.3-.3-.6 0-.8 1.2-.5 1.9-1.4 2.9-2 .6-.5 1.1-1.1 2-1.3.4 0 .9-.2 1.3-.4 1.5-1.2 3.2-2 4.8-3l.4-.3c.4-.2.9-.4 1.2-.8.5-.5 1.2-.5 1.7-1l1-1.4c.2-.4.5-.8.6-1.3 2-3.8 3.5-7.7 5.7-11.4l1-1.4 1.7-2.8c.5-.6.8-1.3 1.4-1.8l.3-.2c1.6-2 3.4-4 5.2-5.9 2-2 4.2-3.3 6.8-4.3 3.3-1.2 6.7-1.9 10.1-2.8 2-.5 3.9-.8 5.8-1.1 1-.2 2 0 3 0 2.3.3 4.7.4 7 .8 2.6.3 5 1.3 7.5 2.2.4.2.7.3 1.1.3 1.1.2 1.9 1 2.7 1.6a41 41 0 0 1 3.3 2.5l2 2a20.3 20.3 0 0 1 2 2.4l.8 1c1 1.4 2 3 2.8 4.6.6 1.4 1.4 2.9 1.9 4.4l.2.6c.3.7.8 1.3 1 2 .1.5.2.9 0 1.3l-.4.3c-.4 0-.7 0-1 .5-.2.3-.4.8-.8 1.1-.6.7-.7 1.5-.1 2.3l.4.7.7 1.1c.3.7.7 1.3 1.6 1.3.3 0 .6.2.6.6 0 1-.1 2 .1 2.8Z" fill="#69AAD8"/><path d="M93.3 142.2c-.3.3 0 .5 0 .7-.4.3-.8 0-1.2-.1-2.4-.8-4.8-1.4-7.4-1.4-1.4 0-2.7.6-4 1-.7.1-1.2.4-1.7.8-2.2 1.7-4.5 3.2-6.4 5.3-.3.4-.7.8-.9 1.3-.3 1 .3 2.2 1.3 2.5 1.7.4 3.5.3 5.3.3a16 16 0 0 0 6-1.5c.4-.2.9-.4 1.3-.2.6.5.7 1 .5 1.6-.7 2.8-1.7 5.5-3.2 8-1.4 2.6-5.6 4-8.4 2.4-1-.5-2-1-2.9-1.7-1.5-1-3-1.3-4.8-.9h-1l-.2-.1c-2 .2-3.7-.5-5.6-.5-1.7 0-3.4-.3-5.1-.7-1-.1-1.3-1-1.3-1.8s-.3-.9-.8-.9c-.9 0-1.7 0-2.4.3-.6.1-.8 0-1-.5l-2-3.7c-.7-1-1.1-1.3-2.1-.6-1.1.8-2.4.9-3.6 1.3-.4 0-.5-.3-.6-.6l-2.4-6c0-.3-.2-.6 0-.9.5 0 .8.2 1 .4l.7.6c1.7 1.2 3.3 2.3 5.6 2a10.1 10.1 0 0 1 5.6 1.2c1.5.8 3.2 1 4.9 1.5h.7c.7-.8 1.5-.5 2.3-.2a54.4 54.4 0 0 1 7 1.2l-7.1-1.4c-1.2 0-2.2-.4-3.3-.5-2.8-.4-3-.7-3.8-4v-.3c.4-1-.4-1.4-1-1.9-.7-1-1.7-2-2.5-3.2 0-.4-.3-.7-.7-1-.4 0-.3.3-.4.4-.8.3-1.4.9-2.2 1.3-.8.2-1.3.6-1.7 1.3l-.6.5-.4.2c-1 .2-2 0-3-.2l-2.1-.4a8.1 8.1 0 0 1-1.7-4.3c.4-2 1.2-4 1.7-6v-.4c.2-2.2 2-3 3.6-3.8l1-.5c.7.1.5.6.4 1-1.2 3.1.3 5.5 2.5 7.5 1.3 1.1 2.8 2 4.6 2.3 2.6.4 5.2 1 7.8 1.6 2.2.6 4.5.8 6.7.6 1-.1 2-.3 2.4-1.3.4-.7.3-1.2-.4-1.7-.9-.5-1.8-.8-2.8-1.2a14.7 14.7 0 0 1-8.9-6.9 9.7 9.7 0 0 0-5.1-4.6c-.4 0-.8-.2-.3-.7l3.1-1.5a25 25 0 0 0 8.2-5.4c6.4-6 13-11.7 20.1-16.9 1.5-1 3-2.3 4.8-3h.1c1 1.4 2.4 1.1 3.8 1.2l6.3.2c1 0 2 0 3-.3 3.7-.9 7.4-1.4 11-2.7a6 6 0 0 1 2-.4c.6 0 1.1-.1 1.6-.3 3.8-1.5 7.8-1.7 11.9-1 4.1.7 8.3.7 12.5 0 1.8-.4 3.5-.2 5.2.2l1.5.3c.8.2 1.6 0 2-.8.2-.3.4-.4.8-.5 1.4.1 2.8.7 4.2 1.1l2 .7.7.3c1.3.6 2.7 1.1 4 1.8l1.2.6 4.7 2.6c.3.2.9.4.5 1-1.1-.1-2.1-.7-3.2-1-3.4-1.2-7-1.2-10.5-1.8-3-.4-5.8.3-8.6 1-3.3.6-6.5 1.5-9.6 2.5a17 17 0 0 0-7.3 4 2 2 0 0 1-1 .6c-.8.3-1.2 1-1.7 1.5-.7.8-1.5 1.6-2.1 2.5l-1.6 2.1-1.3 1.7-1.7 2.6a71.8 71.8 0 0 0-6.5 12.7l-.7 1.5c-.3.6-.5 1.2-1.1 1.6-.7.5-1.8.3-2.3 1.3l-.2.2c-.2 0-.3 0-.5-.2v.1c-.8.8-1.8 1-2.6 1.5-3 1.8-5.9 3.5-8.4 6h-.2Z" fill="#7BBADF"/><path d="m145.8 21 3 2.5c.6.5.8 1.1.8 1.9v17.2c0 1 .2 1.2 1.1 1.2h6.2c.8 0 1.8-.2 2.3.8-.6.1-1 .3-1 1s-.4 1.2-.7 1.7c-.6 1-1.2 2-1.6 3-.5 1.3-1.3 1.7-2.6 1.7H128.9c-1.7 0-1.8 0-1.8 1.7v2.2c0 1.1.3 1.4 1.4 1.4h24.7c.4.2.8.4.8.9l.1 2.9-.2.4-.4.2h-24.9c-1.5 0-1.5 0-1.5 1.5v2.4c0 .7.4 1 1.1 1h23.4l1.2.1c.7 0 1.1.4 1 1.1v2.7c0 .7-.4 1-1 1H128c-1.5 0-1.5 0-1.5 1.6v2.4c0 .6.3 1 1 1H151c2.3 0 2.4.2 1.6 2.3-.7 1.8-1.1 2.1-3 2.1h-20.3c-.7 0-1.4-.4-2.1 0l-.3.2c-.4.2-.4.6-.4 1v2.7c0 .8.4 1.2 1.2 1.3H143c.5.1.7.5.5.9-.5 1.2-1.3 2.1-2 3.2 0 .2-.2.1-.3.1a2 2 0 0 0-1-.2h-11.9c-.3 0-.6 0-.9.2-.3.2-.3.6-.5 1l-.3.2c-1.1.1-2.3.3-3.5-.2-.3-.4-.2-1-.2-1.5V75.5c0-1-.1-2-1-2.7-.2-.1-.3-.3-.2-.5.5-.6.5-1.3.5-2V30.2c0-.4 0-1 .2-1.5 0-.1.2-.2.4-.1.4.4.3 1 .3 1.5v12.5c0 1.3 0 1.3 1.2 1l.3-.1c1.7-.4 1.7-.4 1.7-2V30.4c0-2 0-2-2.1-2.1-.5 0-1 .2-1.5 0-.3-.6.2-1 .7-1 .9-.2 1.7-.2 2.6 0 .8.1 1.3.7 1.3 1.8v12.6c0 1.6.1 1.7 1.7 1.7h1.2c1.5.4 3 .4 4.5 0 1.8 0 3.7 0 5.5.2 2.3.2 4.6 0 7 0h1c.5 0 .8-.1.9-.5V26c0-1-.5-1.6-1-2.3-.8-.8-2-1.3-2.4-2.4v-.4Z" fill="#E9EDF1"/><path d="M27.2 145.9a3 3 0 0 1 .4-3.1c.7-1 .5-1.8.1-2.8l-2.6-6.8c-.7-1.6-.4-3 .4-4.5l1.5-2.5c.1-.2.4.6.5 0 0-.3.3-.5.4-.8.4-.8 1-1.5 1.3-2.3.2-.4.4-.7.4-1.1.4-1.4.2-1.7-1-2.4l-4.9-3c-1.5-1-2.3-3.5-1.7-5.5l11-32.3v-.1c1.8.6 3.5 1.3 5 2.5.8.5 1 1.2.9 2.2a143 143 0 0 1-5.3 18.2c-1.1 2.9-2.2 5.7-3.9 8.3-.6 1-.5 1.3.6 1.6l5.2 1.6c2 1.2 4.2 2.2 5.8 4l.5 1c0 .6-.4 1-.7 1.4a14 14 0 0 1-5.6 3.6c-.5.2-.8.4-1 .9l-4.1 8.2c-.4.6-.3 1.1 0 1.8 3.6 5.3 6.4 11 8.8 17 1.4 3.5 3 7 4.6 10.3 1.9 3.8 3.2 7.8 4.7 11.7.3.8 0 1.6-.5 2.2-1.6 2-3.8 2.6-6.3 1.6-1-1.9-1.5-4-2.3-5.9l-1.3-3.6a3 3 0 0 0-.8-1.2l-1-2.8-1-2.3-2-5.6a668.6 668.6 0 0 0-5-12.7c-.4.7-.7 1.3-.8 2 0 .4 0 .9-.3 1.2ZM74.6 7c2.2 1 3.2 3.1 2.6 5.8-.6 3.1-1.9 6-3 9a1671.8 1671.8 0 0 1-17 48.8 51 51 0 0 1-2.5 5.7c-1.1 2.2-3 2.7-5.2 2.5-2.3-.2-4.6-.7-6.9-1.1H42c-.6 0-1.2-.3-1.7-.5-2.1-.7-4.2-1.3-6.4-1.5 0-.6-.4-.6-.8-.8-2-.6-3.9-1.1-5.8-1.8-1.8-.7-3.5-1.8-4-4-.2-1 0-1.9.2-2.8.9-3.3 1.7-6.7 3.1-10 .4 0 .4.3.5.6v.3c1-4.2 2.8-8.5 4-13 .3-.4 0-.9 0-1.3.7-3 1.8-5.7 2.8-8.6l5.7-17c.2-.3.5-.5.5-.9 1.2-4 2.8-7.9 4.4-11.7 1.2-2.9 4.2-4.2 7.3-3.5 3.3.6 6.4 1.7 9.5 2.6 3.9 1 7.7 2.1 11.5 3.3.6.4 1.2-.2 1.8 0Z" fill="#BEC7D5"/><path d="M122.5 44.2v27c0 .6.2 1.3-.8 1.1-.5.1-1-.2-1.6 0-.6-.1-1-.5-1-1.1-.3-.7-.3-1.4-.3-2.1V28.7c0-.6-.3-.8-.8-.8-2.6-.3-2.8-.1-2.8 2.5v39.4c0 2.1-.3 2.3-2.3 2.5-3.8.3-7.7 0-11.5.1-1 0-2 0-2.8.6H98c.6-1 1.4-1.3 2.5-1.3h10.1c1.2 0 1.4-.2 1.1-1.4V19l.1-1.5c.3-1.2.7-1.6 2-1.7h25c.4 0 .9-.1 1.2.2-.9.3-1.3 1.1-1.6 1.9l-3.5 8.5c-.2.6.1 1.4-.8 1.6h-.3c-.8-.2-1.6-.2-2.3 0-.3 0-.5.2-.6.4l-.3.2v13.5c0 .5 0 1-.4 1.4-.1.8-.6.3-.9.2-2.3-.1-2.3-.1-2.3-2.4v-12c0-1.5-.3-1.7-1.9-1.7h-1.4c-.7 0-1 .2-1 .8l.1.2h-.3v15.6ZM164.6 101.7c-1.8-1.2-3.7-2.2-5.6-3.2-.2-.6.3-.5.6-.5.9 0 1.8.2 2.6.3.7.1 1-.2 1-.8V61c0-.5-.4-1.3.5-1.6.3.4.2 1 .2 1.4V97 60.4c0-.4.1-.9-.2-1.3 0-.6.7-.7 1.1-.9h.9c2.2 0 2 .2 2-2.1 0-.9-.2-1.7 0-2.5.5.2.5.6.5 1v2.6c-.1.9.2 1 1 1H191c.5 0 1 0 1.4.3 0 .6-.8.8-1 1.4-.2.4-.5.8-.5 1.3-2 3.4-2.4 7.2-2.3 11a91.5 91.5 0 0 1-.6 12.4c-.1.2-.2.5-.5.5s-.4-.3-.5-.5v-2.2c0-.4 0-1-.7-1h-4.6c-.5.3-.3.8-.3 1.2V90c0 1-.3 1.6-1 2.2a8 8 0 0 0-2 2.7c-.2.6-.7 1-1.4 1h-2.2c-.6 0-.9.1-.9.7v9.3l.3.9c.2.7.3 1.4-.6 1.8l-2-2c-.2-.5-.2-1-.2-1.6v-7.7c0-1-.2-1.2-1.3-1.2h-2.8c-.7 0-1 .3-1 1 .3 1.4.1 2.8.2 4.2 0 .4 0 .7-.3 1-.7.3-1.2 0-1.5-.6Z" fill="#EEF3F6"/><path d="M186.3 81c.7 0 .8.5.8 1 0 1 0 2 .2 3.2.7-1.6.5-3.1.7-4.5.4-3.8 0-7.6.2-11.4a15 15 0 0 1 2.1-7.8l.3-.7c0-.2.3-.4.4-.6.1-.2 0-.6.5-.5.3.1.4.4.4.7V128c0 .6.2 1.2-.3 1.7h-7.2c-.7 0-1 .2-.9.9v4.8c-.4-1 0-2-.3-3 0-.3-.3-.6-.3-1-.3-1.4.2-2.8 0-4.3l-.3-1.4a7 7 0 0 1-.3-1c.1-1.3-.9-2.2-1.1-3.4.1-.4.4-.2.6-.1h3.5c.9 0 1.3-.4 1.3-1.2v-8.2c0-.5-.2-.8-.7-.8h-3.5c-.8 0-1 .5-1 1.1v7.5c0 .5.3 1-.4 1.3l-2-4.5c-.5-1.3-.3-2.8-.2-4.2 0-1.2 0-1.2-1.2-1.2-.7 0-1.5.1-2.2-.3l-1.9-2.2c.3-.6.8-1.2.1-2l-.1-.8v-9c0-.9.3-1.3 1.1-1.2h.8c1.5.3 2.7 0 3.2-1.7.1-.4.5-.8.8-1 1.3-1 1.7-2.2 1.6-3.8v-6.8c0-.5-.1-1 .6-1.1v9.4c0 .6.1 1 .8 1h3.4c.6 0 .8-.4.8-1l-.1-4.6c-.2-1-.2-2 0-3 0-.7 0-1.3-.2-1.8Z" fill="#E0E8ED"/><path d="M105.7 158.2c.4-1.7 1-3.3 1.9-4.9 1-1.8 2.5-3 4.3-3.8 3.6-.6 6.2 1 8.4 3.7 2 2.4 2.8 5.4 3.4 8.5 0 .5 0 1 .2 1.5.6 2.1.2 4.2 0 6.3l-1.1 3.9c-.6 1.9-1.7 3.6-3 5-1 1.4-2.5 2.1-4.1 2.2-3.6 0-7-.1-10.6-.7-3.4-.5-5.4-3.7-5.7-6.5.7-.9 1.8-1 2.7-1.3 2.4-.8 2.5-.7 2.4-3.3 0-3.6.3-7.1 1.2-10.6Z" fill="#272A56"/><path d="M98 73c1.3-1.2 2.8-.9 4.3-.9h7.5l4.2-.2c.4 0 .6-.1.7-.5l.2-1.7V29.5c0-1.7.3-2 2-2 2.2.2 2.2.2 2.2 2.4v39.4l.2 2c.1.7.5.7 1.1.6.3.6 0 1.1-.2 1.6l-2.8 4.4c-.3.5-.7.7-1.3.5h-2l-.5.2-.2.2c-.4 1.5 0 3.1-.2 4.7 0 .4-.1 1 .2 1.4l.3.1.3.2c2.2.2 2.2.2 2.2 2.5 0 1.4.1 2.7-.4 4-.5.4-1.1.5-1.7.5-5 .5-10 1.2-14.9 2.1-.4 0-1 .3-1.4 0 .3-.5.2-1 .2-1.4V73Z" fill="#E9EDF1"/><path d="M163.7 59.3c-.4.4-.2.9-.2 1.3V97c0 1.7 0 1.7-1.7 1.5l-2.4-.3c-.2 0-.4 0-.4.3-.4-.2-.8-.3-1-.6-.5-.6-.3-1.3-.4-2 0-.4.3-1-.4-1-.6-.2-1.3-.3-1.7.4-.3.8-.9 1-1.6.9l-.6-.2c1.3-.8 1-2 1.1-3.3 0-2 0-2-2-2h-23.3l-1.5.1c-.2 0-.4.4-.8.3 0-.3 0-.6.2-.9.3-.2.7-.2 1-.2h12c.4 0 .8 0 1 .2.3 0 .5-.1.5-.2.1-1.1 1.1-1.7 1.6-2.7 0-.2.4-.4.3-.7-.2-.3-.5-.2-.8-.2h-14.9c-1.1 0-1.5-.5-1.5-1.6v-3c0-.5 0-1 .6-1v.6c-.2.3 0 .6 0 1v2.3c0 .3-.1.6.2.8l.3.1h9c5.6 0 11.3.4 17 .3 1.3 0 1.3 0 1.3-1.4V82c0-.7-.3-1-1-1-1.3-.1-2.5.1-3.7.1h-21.8c-.4 0-1 .1-1.3-.3.3-.3.6-.4 1-.4 3 .5 6 .2 9 .2h12.7c1.8 0 2.4-.4 2.9-2.1V78c.4-1.2.4-1.2-1-1.2h-23.6c-1.5 0-1.6-.1-1.6-1.6v-2.7c-.1-1 .2-1.3 1.2-1.3h25.1c.8 0 1.1 0 1-1-.1-.7-.2-1.6 0-2.5.2-.4 0-.6-.4-.7h-24.9c-1.4 0-1.4 0-1.4-1.4v-3.2c0-.8.2-1 1-1h25.9c-.2.7-.7.5-1.1.6H129c-1.7 0-1.7 0-1.7 1.6v2c0 .6.3.9.9.9h25.2c.7 0 1-.4 1-1 0-1 0-2 .2-2.9.1-.7-.6-.8-1-1.1.1-.2.5-.3.3-.6-.4-.6-.3-1.4-.2-2 .3-1.2-.4-1.3-1.3-1.3h-23.8c-1.6 0-1.8-.1-1.8-1.7v-3c0-.8.4-1.2 1.1-1.2h25.9c.8 0 1.3-.2 1.6-1a19 19 0 0 1 2.1-4.1c.3-.4.4-.8.4-1.2 0-1 .5-1.2 1.3-.8 1.3.9 2.1 2.2 3.2 3.3l1.7 1.8s.1.1 0 .2c-1.3-.4-2-1.5-2.9-2.5l-1.9-2h-.3c-.3.5-.1 1-.1 1.5v45.5c0 1.4-.3 2.8-.2 4.2 0 .7.2 1 1 1 .6 0 1.2 0 1.9.2.7 0 1.1-.2 1.1-1V61.3c0-2.7.8-3.5 3.5-3.6 1.1 0 1 0 1.2-1.2.2-1.3-.4-2.5-.8-3.6 0-.2.1-.2.3-.2.2.4.5.7.8.9.5 1.4.2 2.9.2 4.3 0 .7-.5.6-.9.6-1.1 0-2.3-.3-3.3.6v.2Z" fill="#DCE3E9"/><path d="M162.8 148.2c.5-1.9 1-3.7 2.2-5.3.4-.7 1-1.3 1.7-1.7 1.9-1 3.7-.5 5.3.6 1.8 1.1 3 2.8 3.8 4.8 1 2.6 1.4 5.3 1.5 8 0 .1 0 .2-.2.3-.3.7 0 1.4-.2 2a15 15 0 0 1-2.3 6.8c-1.3 2-3 3.1-5.5 3a19 19 0 0 1-7.3-1.4 5.7 5.7 0 0 1-3-4.1c-.2-.8.4-.8.9-1 .7-.2 1.7 0 2-.7.5-.7.2-1.5.2-2.3-.1-2.6.4-5.2.8-7.7 0-.5-.1-.9.1-1.3Z" fill="#272A56"/><path d="M105.7 158.2a72.1 72.1 0 0 0-.9 12c0 1-.3 1.5-1.2 1.8l-4.2 1.4a64.3 64.3 0 0 1-14.1 1.3c-6 0-12-.4-17.8-1.2l-7.6-1h-1.7c-.3-.2-.6-.2-1-.2-2.5-.5-5-1-7.4-2v-.6c.4-.3.7-.6.3-1-1.4-1.6-1.7-3.6-2.8-5.3-.2-.4-.4-1-1-1-.4.1-.6-.1-.4-.4.5-.8-.1-1-.6-1.3-.7-.4-.7-.9 0-1.4l1.6-1.1c.3-.2.6-.2.9 0 1.9 1.4 3.7 2.9 4.5 5.4.4 1.5 1.4 2.9 2.2 4.3.4.7 1.2.8 2 1 .5-.2.4-.6.2-1-.6-1.4-1-3-1.6-4.3-.2-.5-.6-1 .3-1.1l.2.2c1.2 1 2 2.3 2.9 3.5L60 168c.1 0 .1-.2 0 0v-.1a40.3 40.3 0 0 1-4-5.2c1.1 0 1.3 1 2 1.5 1.3 1.1 2.4 2.5 3.7 3.7.3.2.4.6 0 1-.3 0-.5 0-.7-.2.2.3.5.2.8.2 1.3 0 2.6.3 3.8.9.6.5 1.1 0 1.6 0 3-.2 5.8 0 8.7.2 2 .2 3.7 1.2 5.6 1.5 3.2.6 6.4.5 9.6.2 1.5 0 3 0 4.6-.2 2.1-.4 4.1-1 6-2 .6-.2.7-.6 1-1 1.1-3.2 1.6-6.6 2.8-9.8l.2-.5Z" fill="#4A8DBD"/><path d="M97.8 94.2c6-1.2 12-2 18-2.5.7-.5 1.5-.5 2.4-.5.8 0 1.6 0 2.4-.2h1.9c.2 0 .5.1.7.3a1495.9 1495.9 0 0 1 4.1-.2l.6-.1a69.8 69.8 0 0 1 18.7 2.5c.2 0 .6 0 .7.6-.3 0-.5 0-.7.2-.7 1.2-1.2 1.4-2.5 1.1-1.7-.3-3.4-.8-5.1-.7l-7.2.8c-1.4.2-2.7-.2-4-.3-2.6 0-5-.7-7.5-.7a20 20 0 0 0-5.3.7c-3.6 1.1-7.3 2-11 3a32 32 0 0 1-11.6 1.4c-1.7-.2-3.4-.2-5.1-.2-1 0-1.6-.6-1.9-1.5 2.4-1.3 5-1.9 7.4-2.5l5-1.2ZM49.2 124.7c0 .2-.2.4 0 .5 2.8.7 4.4 2.6 5.8 4.9 2 3.2 4.8 5.2 8.4 6.5 1.2.4 2.4.8 3.4 1.5.6.4.6.8.4 1.3-.4 1.3-1.4 2-3 2-3.2 0-6.2-.4-9.3-1.3-1.3-.5-2.7-.6-4.1-.8-1.4-.2-2.6-.6-3.8-1.2a9.5 9.5 0 0 1-4.8-5.4c-.5-1.2 0-2.3.2-3.5 0-.3.4-.7 0-1 2-1.6 4.4-2.5 6.8-3.5Z" fill="#87C9E4"/><path d="M49.8 169.7v.4c0 .2-.3.3-.5.3-.4.2-.1.3 0 .5l1.4.3c1.4.5 3 .5 4.4.8v.3c-2 .4-4-.5-6.1-.8l1.7 4.4c.4 1 1 2 .9 3.2 0 1-.5 1.5-1.4 1.7-1.9.4-3.8.3-5.8.2-.7 0-1.2-.4-1.5-1.1-.5-1-1-2-1.2-3 1.2-.1 2.4.3 3.6 0 1.3-.5 2-1.3 2.8-2.3.4-.4.4-.9.2-1.4-1.7-4.3-3.1-8.7-5.3-12.9-2.2-4.4-4-9.1-6-13.7-2-4.4-4-8.7-6.9-12.6-.4-.7-.4-1.2 0-1.8l4.3-8.7c.1-.3.3-.5.8-.7 2.5-.8 4.7-2 6.3-4.3l.2-.3c.4 1.3-.2 2.4-.9 3.5-2 3-3.9 6-5.7 9.2-1 1.7-1.2 3.2-.3 4.9l.5 1.1c.5.6.7 1.3.9 2 .2 1.4.9 2.7 1.5 4 .4.3.5 1 .8 1.4l.2.7c0 .2.2.4 0 .7 1 2.5 1.9 5 3 7.4l3.4 8.7 3 7.5c.4.5 1 .5 1.5.5h.2Z" fill="#A7AEB9"/><path d="M133.8 27.8c.3 0 .6 0 .6-.3.8-3.4 2.5-6.4 3.8-9.6.3-.8.3-2.2 1.8-1.9l5.8 5v.2c-.6.2-.9-.2-1.2-.5l-3.7-3c-.2-.3-.5-.6-.8-.4-.3.1-.2.5-.2.8v24c0 1.2.2 1.3 1.3 1.3h6.4c.7 0 1.2-.2 1.8-.3 0 .6-.1.9-.8.9H140c-1.8-.2-3.6-.2-5.4-.2-.4-.5-.3-1-.3-1.6v-12c0-.8 0-1.7-.6-2.4Z" fill="#E0E8ED"/><path d="M162.8 148.2c0 1.6-.4 3-.5 4.6-.2 2.1-.3 4.2 0 6.3.1.6 0 .9-.6 1l-2 .5c-.4 0-.8.1-1 .6-.3-.6-.9-.4-1.4-.3-4 .7-7.8 2-11.7 3-6 1.4-12 2.7-18 3.8-.4.1-1 .3-1.5 0 0-1.8.2-3.6-.2-5.4-.3-1.2-.5-2.5-.9-3.7 0-.4-.3-.8 0-1.2 1.4 1.8 2.2 3.8 3 5.8.6 1.4 2.3 2 4.4 1.6 6.7-1 13.2-2.7 19.7-4.3 1.6-.4 3.2-.6 4.7-1.1 3-1 4.8-3.1 5.2-6.3.2-1.7.3-3.3.8-4.9Z" fill="#4A8EBD"/><path d="M33.9 75.7c.2-.1.3-.5.7-.3 2.4.7 5 1 7.4 2.3-1.2 4.4-2.8 8.6-4.2 13l-5.4 16.5-.7 2c-.3.7 0 1.3.7 1.8l3.1 2c-.3.5-.6.1-1 0l-5-1.4c-.5-.2-.8-.4-.4-1 1.5-2.4 2.5-5 3.6-7.6 1.6-3.6 2.6-7.4 3.7-11.2l2.2-8.5c.2-1 0-1.4-.7-1.9a14 14 0 0 0-4-2c-.3-.2-.8-.1-1-.7l1-3Z" fill="#A7AEB9"/><path d="m125 157.4 1 4.2c.3 1.2.6 2.3.4 3.5-.1.6 0 1.3.2 1.9.1.4 0 .7-.5.6-.7.1-1.4-.5-2 0-.4.3.1 1.3-.3 1.9a30 30 0 0 0-1-10.7 13 13 0 0 0-5.5-8 8.8 8.8 0 0 0-5.4-1.3c3-.7 6.9-.8 9 1.4 1.7 2 3.3 4 4.2 6.5Z" fill="#2E608E"/><path d="M191.6 129.7V59.6c-.5.5-.6 1-1 1.2.2-1 .8-1.8 1.7-2.3.6 0 1 .6 1.7.8v.2c-.2.2-.3.1-.5 0-1.2-.5-1.1-.5-1.1.8V129l-.1.8h-.7Z" fill="#E6ECF1"/><path d="m177.8 148.4.7.6c1 1 2.1 1.2 3.4.6 1.2-.7 2-1.5 1.9-3-.1-.6-.4-1.4.6-1.6.5 0 .6.5.6 1v6.2c0 1.2-.8 1.7-1.8 2-2 .5-4 1-6 .9-.2 0-.2-.2 0-.3.5-.3.7-1 .7-1.6 0-1.1-.3-2.2-.4-3.4 0-.4-.1-1 .3-1.4Z" fill="#4A8EBD"/><path d="M72.9 7.3 62.4 4.4c-3.6-1-7.3-2.2-11-3-2.8-.6-5.8 1-6.9 3.8l-3.8 9.7a7 7 0 0 0-.5 1.8c-.2.1-.3-.1-.4-.2 1.4-4.5 2.8-9 4.8-13.2 1.2-2.6 2.9-3.8 6-3.1 4 .8 7.8 2.1 11.7 3.3l8.4 2.3c.3 0 .6.1.9.4.8.2 1.7.4 2.4 1-.4.4-.8.2-1.1.1Z" fill="#D9E3F1"/><path d="M27.2 145.9c0-1.4.2-2.7 1.3-3.8l2.3 6 2.4 6.2v.5c-.7 0-1.1-.6-1.7-.8-.4-.2-.7-.6-1.1-.5-.5 0-.7.4-.8.9-.3.9-.3 1.9-.4 2.8l-.4.6h-.2V156c1.3-3-.3-5.5-.9-8.2l-.5-2Z" fill="#7BBADF"/><path d="m28.7 157.8.2-.4c.5-.3.8 0 1 .3.2.6.6 1.1 1 1.6 1.7 1.7 3.4 3 5.5 4 .5 1 1 1.7.9 2.8-1.6-.5-3.2-1-4.7-1.7-2-1-3.4-2.6-3.9-4.8a4 4 0 0 1 0-1.8Z" fill="#4A8EBE"/><path d="M192.3 129.7V59.9c0-.4-.4-.7 0-1 .3-.2.6.1.8.3l.4.3c-.4.1-.7-.2-1-.3v70.4h-.2Z" fill="#B0C0D0"/><path d="M26.8 57c0-.3 0-.5-.2-.7.8-3 2-6 2.9-9 .5-1.4.9-3 1.6-4.4.4.4.7.8.2 1.3-.5.4-.5 1.1-.6 1.7-1.1 3.6-2.5 7-3.5 10.7 0 .2 0 .4-.4.4Z" fill="#C8D0DD"/><path d="M36.2 138.9c-.5-.6-.7-1.3-.9-2 .7.4 1 0 1.2-.6l1.2-4.6c0-.4 0-.9.5-1.1 1-.7 1.7-2 3.1-2l-1.6 1c-1.6 1-1.8 2.8-2.2 4.4l-1.3 4.9Z" fill="#E6E9EA"/><path d="M29.6 122c.2.3.2.6 0 1l-1.5 2.6c-.4 0-.3-.2-.2-.5l.4-1c.4-.7.7-1.5 1.3-2.1Z" fill="#D4DDEB"/><path d="M55.2 172.3v-.2c.3-.3.6-.2 1 0 .4 0 .9.2 1.3 0 .3.1.8-.3.7.4-1 .4-2 .3-3-.2Z" fill="#596082"/><path d="M164.1 50v-.3c1 .9 2 1.8 2.8 3h-.5c-1-.8-1.9-1.6-2.3-2.8Z" fill="#EEF3F6"/><path d="M72.9 7.3h1c-.8-.7-1.6-.7-2.3-1 1 0 2 .3 3 .8-.6.2-1 .7-1.7.2Z" fill="#CAD3E0"/><path d="M28.3 124.1c.2.5-.6 1-.2 1.5-.4.1-.2 1.4-1 .6l1.2-2.1Z" fill="#C9D2DF"/><path d="M177.1 154.8v.3c-.1.6.2 1.2-.2 1.8 0-.7-.2-1.4.2-2Z" fill="#2E608E"/><path d="M28.7 157.8v1.8c-.3-.6-.2-1.2-.1-1.8h.1Z" fill="#69AAD8"/><path d="m39.8 16.5.4.2c0 .4-.3.5-.6.6l.2-.8Z" fill="#C9D2DE"/><path d="M193.5 59.5h.5l.4.7c-.5 0-.7-.3-.9-.7Z" fill="#B0C0D0"/><path d="M148.4 112.4c-.2 3.4.2 7 .3 10.6.1 2-.3 2.6-2.3 3-4.3 1-8.7 1.6-13 2.8-.6.2-.7-.2-.9-.7a8 8 0 0 0-6-5c-1.8-.5-3.3.2-4.4 1.7l-1 1.4c-.1.2-.3.5-.6.4-.2-.1-.3-.4-.3-.6l.1-1c1.9-5 4.2-9.6 8-13.5 3.9-4.1 9-6.1 14.5-7.2 1.2-.2 2.4-.5 3.6-.5 1 0 1.5.5 1.7 1.5.4 2.3.2 4.6.3 7.1ZM173.5 119.9c-.3 1-1.2 1.3-2.2 1.4l-11.6 2.2-3.4.6c-1.4.1-1.9-.3-2-1.6-.4-5.7-.9-11.3-.9-17 0-1.7.5-2.2 2.1-1.8a23.6 23.6 0 0 1 15.9 10.4c.8 1.5 1.7 3 2 4.8.2.3.3.6 0 1Z" fill="#272A56"/><path d="M80.5 142.3c3-1.7 6.2-1.3 9.3-.5 1.2.2 2.4.6 3.5 1.1l.9.6c.6.5.6 1 0 1.5-1.4 1.2-2.7 2.5-4.4 3.4l-3 1c-2.5.8-4.5.3-6.3-1.4a16 16 0 0 0-.7-.7c-.8-1.3-.7-2.7-.2-4.1.1-.5.5-.7 1-1Z" fill="#FEFEFE"/><path d="M99 156c.5-1.4 1-2.8 1.3-4.2 1-3.6 3.2-6.3 6.2-8.3 3-2 6.3-2.6 9.8-1.5 1.5.5 2.9 1.2 4.2 2 .8.6 1.3 1.4 1.8 2.2 0 .2.3.4.1.6-.2.3-.4 0-.6-.1a10 10 0 0 0-4-1.7c-2.5-.5-5 0-7.2 1.1-2.1 1-4 2.3-5.8 4a15.7 15.7 0 0 0-4.1 6.1c-.3.6-.7 1-1.1.8-.5 0-.3-.6-.6-1Z" fill="#7BBADF"/><path d="M158.1 153.6c.2.8-.4.8-1 1a356 356 0 0 1-24 8c-.4.3-.6.1-1-.1-.2-.4.1-.5.2-.8.6-1.3 2-1.4 3.2-2 4.5-2 9-4 13.6-5.8 2.4-1 4.8-1.8 7-3 .6-.2 1-.2 1.2.4.4.7 1 1.3.8 2.3Z" fill="#7ABADF"/><path d="M80.5 142.3c-1.3 1.4-1.2 3.1-.6 4.9 1.2 2.1 4.6 3.1 7 2 .7-.2 1.4-.7 2.2-.3-1 1-2.4 1.2-3.5 2-1.3.5-2.6 1.2-4 1.5-3 .6-6 .9-9 0-1.2-.3-1.7-2-1-3.1 1.5-2 3.3-3.5 5.3-4.9l2.5-1.9c.4-.2.7-.3 1.1-.2Z" fill="#E7E9E9"/><path d="M181 121c.3-.4.2-.8.2-1.2v-8c0-.9.1-1.2 1-1.1h3.7c.7 0 1 .2 1 1v8.6c0 .9-.4 1.3-1.4 1.3h-3a3 3 0 0 1-1.3-.2c-.2-.1-.2-.3-.2-.5Z" fill="#BBC4D3"/><path d="M165.8 102.4c.4-1.8.3-3.5.1-5.3 0-.9.3-1.3 1-1.3h3.7c.8 0 1 .5 1 1.2v9.7c-2-1.5-3.6-3.1-5.7-4.1-.2 0-.2-.2 0-.2Z" fill="#BEC7D5"/><path d="M159.4 144c0-.7.3-1.6.6-2.4 1.2-2.8 2.6-5.4 5.5-6.8a8.4 8.4 0 0 1 9 1.4l.5.5c.2.3.7.6.5 1-.4.3-.7-.2-1-.4a8 8 0 0 0-8 .3 13.2 13.2 0 0 0-6.2 6.8c-.2.2-.3.5-.7.5-.1 0-.2-.1-.2-1Z" fill="#7ABADF"/><path d="M127.4 138.8c2-1.4 4.2-2 6.4-2.9 4.5-1.7 9-3.4 13.8-4.4 1.3-.3 2.4-.6 3.7-.7.6-.1.7-.4.7-1 .1 0 .2 0 .3.2.2.9.4 1.8-.1 2.7-.2-.4-.4-.6-.9-.5l-5.5 1.3c-.3.1-.7.2-.5.7-1 .4-2.2.3-3.3.6l-1.3.4c-1.3.3-1.3.4-1.3 1.7h-.3c-.5-1.1-1.2-.8-2-.4-2.8 1.4-6 2-9 3-.4.1-.9.1-1.3.4h-.2c-.2.1-.3.1-.4 0-.1-.2 0-.3.2-.4l1-.7Z" fill="#5E96C3"/><path d="M177.8 148.4c0 1.8.4 3.6.4 5.4 0 .8-.2 1.1-1 1-.4-2.9-.7-5.8-1.8-8.5-1.2-2.9-4-5.5-7.2-5.3l-1.5.2c.9-1.1 2.2-.8 3.4-1 2.8-.6 5.6 2.2 6.3 4.4l1.4 3.8Z" fill="#2E608E"/><path d="M165.8 102.4v.2c-1.3 0-2.4-.7-3.5-1.1-2.4-1-4.9-1.4-7.4-1.7-2-.3-4.2-.3-6.2-.6-1.5-.2-3 .3-4.5.6-3.6.6-7.1 1.7-10.6 2.6-3.2 1-6.2 2.2-8.6 4.7-2 2-3.9 3.8-5.5 6 0 .2-.2.3-.4.4-.2-.8.6-1.1.8-1.7 0-.2.5-.3.3-.7.6-1 1.3-1.8 2.1-2.5a3 3 0 0 0 1.5-1.5c1.2-.2 1.9-1.2 2.7-1.9 1.8-1.4 3.9-2.2 6-2.8 3-.9 5.9-1.8 9-2.5 2.5-.5 5-1.4 7.7-1.1 3.9.4 7.8.5 11.6 1.7l3.8 1.2 1.2.7Z" fill="#72B2DB"/><path d="M152.6 130.5c4.5-.7 9-1.4 13.5-2.4 1.2-.3 2.5-.5 3.8-.3-.3.6-1 .6-1.3 1.2-4.2.6-8.4 1.4-12.6 2.3-.6 0-1.1.2-1.7.3-1 0-1.8.4-1.5 1.7-.8-.9-.4-1.8-.2-2.8Z" fill="#5E96C4"/><path d="M139.4 137c-.6-1-.6-1.5.3-1.8 1.8-.6 3.7-1.1 5.6-1 .5 1.1.4 1.5-.7 1.8-1.7.4-3.4 1-5.2 1Z" fill="#282B57"/><path d="M65.8 160.4c-.3.4-.9.4-1.3.4-2.2.4-4.4.6-6.6-.1a8.2 8.2 0 0 0-3.7-.4c-1.3.2-2.6-.7-3.8-1.3-1.3-.6-2-1.5-2.1-3-.1-.8-.5-1.6-1-2.2 0-.4.2-.4.4-.3a6 6 0 0 1 1.2 2.8c.2 1.2.8 1.9 1.8 2.3l2.4 1c.5 0 1 .4 1.4-.1.2-.2.6 0 .8.1 2.7.8 5.4 1.1 8.2.8h2.3Z" fill="#598BB9"/><path d="M61.6 168.7c.4-.5 0-.6-.3-1-1.2-1-2.4-2.1-3.4-3.5 1.2.2 1.9 1.2 2.7 1.8 1.6 1.1 3.2 2.4 4.9 3.4.1 0 .3.1.1.4-1.4 0-2.6-.7-4-.7-.2-.1-.2-.3 0-.4Z" fill="#7ABADF"/><path d="M109.1 130.3c1.8-4.5 3.8-8.8 6.6-12.8.4 0 .4.2.2.4-2.5 4.2-4.5 8.6-6.6 13-.5 0-.3-.3-.2-.6Z" fill="#5986B0"/><path d="M175.4 110.7h3c.5 0 .9.3.8.8-.3 1.7 0 3.3-.2 5l-2.8-4.7c.6-.5 1.3-.2 2-.5-1-.3-1.9.2-2.6-.4l-.2-.2Z" fill="#B8C3D2"/><path d="M93.3 142.2c2.1-2.2 4.6-3.9 7.3-5.4l3.8-2.2.7.2c0 .4-.3.4-.5.6l-.2.2c-1.8.7-3.4 1.8-5 2.8-.5.3-.9.6-1.4.6-1.4.9-2.6 2-4 3-.1.2-.3.7-.7.2Z" fill="#5E89B1"/><path d="M55.4 162.5c-.3.2-.5.3-.2.7.8 1.6 1.2 3.4 2 5 .2.8 0 1-.7.7l-1-2.4a7.5 7.5 0 0 1-1-4c0-.2 0-.6.4-.6.5 0 .5.3.5.6Z" fill="#79B9DE"/><path d="M168.6 129c-.2-1 .8-1 1.3-1.2l1.5-.3c.4-.2.8 0 1.2 0 .4 0 .7 0 .8.4 0 .4-.3.6-.5.7-.6.4-1.4.2-2 .4-.8 0-1.5.4-2.3 0Z" fill="#2A305C"/><path d="M152 128c-.5-1.2-.3-2.4-.4-3.7-.3-2.8-.3-5.6-.5-8.5v-.6c0-.1.1-.1.2 0 .5 1 .2 2.1.4 3.2.3 2.4.3 4.8.5 7.2-.4.8.2 1.6-.3 2.4Z" fill="#4A6E9B"/><path d="M151.1 115.2v.6l-.2-.3-.6-10.9v-1h.4c-.2 2 .2 3.8.3 5.7l.3 4.4c-.2.5 0 1-.2 1.5Z" fill="#527FAC"/><path d="M89.1 148.9c-1.2.1-2.3.7-3.5 1-2.2.4-5-1-5.7-2.7.8.6 1.5 1.4 2.5 1.9 1.3.5 2.6.6 3.9.2 1.1-.4 2.2-1 3.5-.9-.2.3-.4.4-.7.5Z" fill="#F4F5F5"/><path d="M182.3 124.8c.4 0 .4.3.4.6-2.1.4-2.8 2.1-1.7 4l.5 1c.2 1 .7 1.4 1.6 1.2.3.2.2.5.1.8-1-.1-2-.4-2.2-1.7l-.7-1-.4-.7c-.4-.9-.5-1.7.2-2.5.3-.4.4-.9.9-1.1.1-.4.5-.5.8-.6h.5Z" fill="#989BAE"/><path d="M56 162.7c1 .9 1.7 2 2.5 3 .7 1 1.2 2 2 2.6-2.2-1.3-3.3-3.7-4.9-5.6h.4Z" fill="#4276A5"/><path d="M98 139c1.7-1.2 3.4-2.2 5.3-3.1.4-.2.7-.3 1.1-.3l-5.2 3.3c-.3.2-.7.5-1.2.1Z" fill="#79B8DE"/><path d="M152.8 134.6v1.4c.2.4 0 1 .2 1.3l.4 4.9c0 .2.2.6-.3.6-.3 0-.3-.4-.3-.6v-2c-.2-.7 0-1.5-.2-2.2v-1c0-.8-.4-1.7.2-2.4Z" fill="#3E5783"/><path d="M152.8 134.6c-.4.7 0 1.6-.2 2.4-.4-1.5-.1-3-.4-4.3v-2.8c-.1-.4-.4-.8.2-1 0 .5 0 1 .2 1.6 0 1-.2 1.9.2 2.8v1.3Z" fill="#3F5985"/><path d="M175.6 111h2.6c.2 0 .6-.1.6.3 0 .3-.3.4-.6.5h-2c-.3-.2-.5-.5-.6-.9Z" fill="#A4B2C3"/><path d="M173.5 119.9c-.1-1.5-.8-2.9-1.4-4.2-.3-.5-.7-1-.7-1.6 1.2 1.5 2 3.3 2.3 5.2 0 .2 0 .4-.2.6Z" fill="#517DAA"/><path d="M105 134.6c.1-.7.7-1 1.1-1 .5 0 .9-.3 1.3-.3.2 0 .3 0 .2.2-.3.7-1.2.5-1.7 1-.3.3-.6.3-.8 0Z" fill="#608DB4"/><path d="M116 118c0-.3-.1-.4-.3-.5.4-1 1-1.8 1.7-2.5.2-.1.3 0 .2.2-.4 1-1 1.8-1.7 2.7Z" fill="#6192BA"/><path d="M171 129c.3-.3.9-.1 1.3-.3.4-.2 1-.3.9-.8-.1-.5-.6-.4-1-.4h-.8c.9-.5 1.7-.1 2.6.1-.7 1.3-1.8 1.6-3 1.4Z" fill="#5F98C5"/><path d="m45.2 153.5-2.7.1a.2.2 0 0 1-.2-.2c0-.1 0-.2.2-.2.9 0 1.8-.2 2.7.3Z" fill="#5A8FBC"/><path d="M152.4 128.8c-.4.3-.2.7-.2 1.1h-.2v-2c0-.7-.3-1.5.2-2.3l.2 3.2Z" fill="#43618D"/><path d="m117.6 115.2-.2-.2c.3-.7.8-1.3 1.3-1.8.2 0 .3 0 .2.3-.4.5-.7 1.2-1.3 1.7Z" fill="#679CC5"/><path d="m119 113.5-.3-.3c.4-.8 1-1.4 1.5-2 .4.5-.3.6-.4.9-.1.5-.6.8-.7 1.4h-.2Z" fill="#6FA9D1"/><path d="M180.1 126.5c-.4.8-.4 1.7-.2 2.5-.8-1.1-.7-1.6.2-2.5Z" fill="#7BA4C7"/><path d="M126.4 139.5c-.1.2-.2.4.2.4l-1.3.6h-.3c.3-.6.8-.9 1.4-1Z" fill="#629CCA"/><path d="M109.1 130.3c0 .2 0 .5.2.6l-.6 1.3c-.4 0-.4-.2-.2-.4l.6-1.5Z" fill="#5D8CB5"/><path d="M49.6 169.8c-.6.2-1.2.5-1.5-.5.6 0 1 .2 1.5.5Z" fill="#C2CEDD"/><path d="M108.5 131.8c0 .2 0 .3.2.4-.4.5-.5 1-1 1.3-.2 0-.2-.1-.3-.2.6-.3.7-1 1-1.5Z" fill="#6599C1"/><path d="M105 134.6h1a2 2 0 0 1-1.4.8l.5-.6v-.2Z" fill="#79B3D8"/><path d="M152.6 138c.4.7.1 1.4.2 2.2-.3-.7-.2-1.5-.2-2.2Z" fill="#3F5985"/><path d="M47.7 153.5c-.2 0-.3 0-.4.3-.3 0-.7-.2-.5-.5.3-.4.6 0 1 .2Z" fill="#5F97C5"/><path d="M126.8 139.9c.3-.4.8-.4 1.3-.4a2 2 0 0 1-1.3.4Z" fill="#629CCA"/><path d="M180.3 129.7c.4.2.6.6.7 1-.5-.2-.6-.6-.7-1Z" fill="#7BA4C7"/><path d="M127.4 138.8c-.2.5-.6.6-1 .7.2-.5.6-.6 1-.7Z" fill="#629CCA"/><path d="M151.1 115.2c0-.5-.2-1 .2-1.5v1.5h-.2Z" fill="#496C99"/><path d="M150.7 103.7h-.4c0-.4.1-.6.4-.4.3 0 .2.2 0 .4Z" fill="#405A87"/><path d="m181.8 124.8-.8.6c0-.5.4-.7.8-.6Z" fill="#7BA4C7"/><path d="M153 137.3c-.3-.4-.1-.8-.2-1.3.3.4.2.9.2 1.3Z" fill="#3F5985"/><path d="M73.1 109c2.8-2.2 5.8-4 8.6-6 3.4-2.5 7-3.5 11.2-3.2 4.9.3 9.8.7 14.6 1.5 2.9.5 5.7 1.3 8.3 2.5 2.4 1 2.6 2 1.3 4.2L107 124.6l-.6.9a5.1 5.1 0 0 1-5.1 2.7c-1.6-.1-3.1.2-4.7.1-6.2 0-12.3-.5-18.4-1.3l-2.1-.3c-2.4-.5-4.7-1-7-1.7-.8-.3-1.5-.6-2.4-.6-.9-.1-1.7-.6-2.6-1-.5-.2-1-.4-1.5-.8-1.3-1-1.5-1.6-.8-3.2.2-.2.3-.5.6-.6 3.2-3.3 6.6-6.2 10-9.3l.7-.5Z" fill="#272A56"/><path d="M147.3 94c-2.4-.8-4.9-1.2-7.4-1.6l-5-.7c.3-.7.9-.5 1.4-.5H152.9c.3 0 .6.1.8-.2h-24.5l-1.6-.1a.8.8 0 0 1-.4-.2c.3-.4.8-.2 1.1-.2h25.3c1.3 0 1.3 0 1.2 1.3v2c0 1.1 0 2.1-1.5 2.2-2-.7-4-1.5-6-2Z" fill="#BAC4D3"/><path d="m38.8 145.7-.3-.7c.5-.3.8 0 1 .3 1.3.9 1.7.8 2.7-.4 1.2-1.4 3.7-1.9 5.3-1 .6.4 1.3.7 1.8 1.2l2 4.8c-1.8-.7-3.7-1.3-5.7-1-2.2.3-3.7-1-5.3-2l-1.5-1.2Z" fill="#69AAD8"/><path d="m49.2 145.2-2-1c-.8-.7-1.6-.5-2.5-.3-1.2.2-2 .7-2.8 1.7-.8 1-1.3.9-2.3.1-.4-.2-.6-.7-1-.7-.3-.1-.3-.4-.3-.6v-.4c.6-.2.9.4 1.3.7 1.3.8 2 .6 2.1-1 .4-.3 1 .1 1.3-.2l.2-.2c.4-.2 1 0 1.3-.2l1-.2c1.1-.4 2-.1 3 .6l2.7 2.1s0 .3.2.2l.1-.4c.6-.2.8.2.9.7.3.5.4 1.2.5 1.8.4 1.6 1.6 2.1 3.1 2.2.2.3.7 0 .6.4 0 .3-.4.3-.7.3-1.3 0-2.6-.2-3.7-.9-.2-.2-.7-.3-.3-.8.3-.1.2-.3.1-.5-.2-1.3-1.3-1.7-2-2.5l-.8-.9Z" fill="#588AB7"/><path d="m73.1 109-9 8.4-1.7 1.6c-.7-1-.2-1.5.5-2 2.7-2.5 5.4-4.9 8.2-7.2a2 2 0 0 1 1-.4c.3-.2.6-.5 1-.4Z" fill="#6AAAD7"/><path d="M153.9 96.2c.6-.3 1.3-.3 1.4-1.2 0-.4 2.3-.8 2.5-.5l.1.6v2.8l-4-1.7Z" fill="#DFE5EC"/><path d="M72 109.4c-1.8 1-3.1 2.6-4.7 3.8-1.6 1.3-3.1 2.8-4.6 4.2-.2.2-1.1.5 0 .8.2.1-.4.5-.3.8l-.6.4c-.1-.5-.4-.4-.7-.2-.1 0-.3.2-.5 0-.1-.2 0-.4.2-.5l2-2c2.7-2.5 5.5-4.8 8.3-7.1.3-.3.6-.4 1-.2Z" fill="#70B1DA"/><path d="M52.4 146c-.4 0-.4-.6-.8-.5a.6.6 0 0 1-.4-.3c-.6-1-1.2-1.9-2-2.8-1-1.3-1.5-1.3-2.8-.4l-.6.4-1.3 1c-.4.4-.8-.2-1.3 0l.5-.5c.5-.5 1-1.1 1.7-1.3.7-.5 1.2-1.4 2.3-1.3.6 0 1 .3 1.3.7.9 1 1.8 2 2.5 3.2.5.5 1.2 1 1 1.9h-.1Z" fill="#70A2C2"/><path d="M52.2 149.7c.7.3 1.4.8 2.1.8.7-.1 1.4.3 2.2 0l-.5-.4c1.1 0 2.1.7 3.2.5.2.2.3.5 0 .8-.5-.4-1-1-1.6 0-.1.3-.4.3-.6.2-1.9-.3-3.8-.6-5.5-1.7.2-.2.5-.2.7-.2Z" fill="#68A8D5"/><path d="M59.2 151.4v-.8l3.8.6 3.6 1c-2.4 0-5-.4-7.4-.8Z" fill="#6697BD"/><path d="M64.1 123.5c.7 0 1.4.3 2 .6.6.1 1.2.4 1.8-.1.2-.2.6-.2.5.1 0 .8.6.8 1 .9l6.7 1.7c-3.2-.3-6.2-1.3-9.3-2-1-.3-2-.5-2.7-1.2Z" fill="#2B315C"/><path d="M52.2 149.7c-.2.3-.4.2-.7.2h-.2c-1-1.4-1.6-3-2-4.7.2.2.6.3.8.7.5 1 .9 2 1.7 2.9.2.1.5.1.4.5-.7.1.1.3 0 .4Z" fill="#5C91BE"/><path d="M43 143.5c-.3.5-1 0-1.3.4-1 .6-2 .4-3-.4.3-.6.7-.3 1.1-.2 1 0 2.1.4 3.2.2Z" fill="#5D91BE"/><path d="M49 141c-.5-.1-1-.3-1.3-.7-.5-.4-.1-.6.3-.5.6 0 1 .4 1 1.2Z" fill="#85C5E1"/><path d="M39.8 143.3c-.3 0-.7-.1-1 .2l-.5.4v.5c-.4-.4-.5-1-.6-1.5.7 0 1.4 0 2.1.4Z" fill="#6FA2C7"/><path d="M123.8 107c0 .8-.7 1.6-1.5 1.6.4-.6 1-1.1 1.5-1.5Z" fill="#6DA4CB"/><path d="m52.4 146-.9-1.8c1.1.6 1.4 1.2 1 1.9Z" fill="#84C5E2"/><path d="M45.4 141.6c-.7.3-1 1.1-1.7 1.3.2-.9.8-1.2 1.7-1.3Z" fill="#83C3E0"/><path d="M104.4 134.6c-.2 0-.4 0-.5-.2 0-.1 0-.2.2-.2.3 0 .3.2.3.4Z" fill="#8EC4E4"/><path d="M149.4 43.1c-.2.5-.6.7-1.2.7h-7.5c-.8 0-1.1-.3-1.1-1.1V17.3c0-.2-.1-.6.2-.7a3111 3111 0 0 1 5.1 4c.3.2.5.5.9.6.5.8 1.4 1.3 2.1 2a4 4 0 0 1 1.5 3.4v16.5Z" fill="#A9BACB"/><path d="M123.2 91.3h-.6c-.5-.5-.4-1.2-.4-1.7V75c0-.6 0-1.3-.4-1.7-.2-.2-.3-.5-.6-.4-.2.1-.2.4-.2.6v16c0 .6 0 1.2-.4 1.7-1.6.3-3.3.2-4.9.4l.3-5c0-.9-.3-1.2-1.2-1.2-.4 0-1 .4-1.2-.4h.2l.1-.1c2.2 0 2.2 0 2.2-2v-3c0-.8-.3-1.2-1-1.2-.5 0-1-.1-1.3-.5.8-.4 1.6-.3 2.4-.1.4 0 .6 0 .9-.4l2.8-4.3c.3-.5.3-1 .5-1.6.5-.1 1 .1 1.3.4 1.1.8 1.5 1.8 1.5 3.1v15.9Z" fill="#DCE3E9"/><path d="M122.8 28.6v-.2c.5-.4 2.9-.6 3.4-.3.3.3.4.6.4 1v13.7c0 .6-.2 1-.8 1-.8 0-1.6 0-2.3.5-.3.3-.6 0-.7-.4V28.6Z" fill="#C0C9D6"/><path d="M133.8 27.8c.7.2 1 .6 1 1.4l-.1 14.6c-1.5.2-3 .5-4.5-.3V29.2c0-.4-.2-1 .7-1v13.7c0 1.5.1 1.6 1.7 1.6.4 0 .8 0 1.2-.3.3-.1.3-.3.3-.6-.3-3.6 0-7.3-.1-11l.2-2.2c0-.6-.3-1-1-1-.5.1-1 .1-1.6 0-.3 0-.6 0-.7-.2 0-.3.1-.4.4-.4.8-.2 1.7-.2 2.5 0Z" fill="#DEE4EB"/><path d="M141 90.2h-14c.1-.5.5-.4.8-.4h12.8c.2 0 .7-.2.5.4Z" fill="#EFF2F5"/><path d="M153 71h-26.1V71H153v.1Z" fill="#EEF2F4"/><path d="M127.3 61h25.9v.2h-26l.1-.2Z" fill="#F0F3F6"/><path d="m122.5 44.2-.2-.5V28.4c.2 0 .2.1.2.2v15.6Z" fill="#F3F8FA"/><path d="M127.2 90.7h.3c.1.2-.1.4-.3.6h-.4V91l.4-.4Z" fill="#B2BDCC"/><path d="M30.9 159.5c-.6-.4-1-1-1.3-1.6-.1-.4-.3-.5-.7-.5-.1-1.3.3-2.4.5-3.6 0-.7.7-.4 1-.7.8 1 2 1.4 3 2.1l2.2 5.8c.1.7-.4.5-.7.4-1.1-.3-2.1-.8-3.1-1.4l-1-.5Z" fill="#69AAD8"/><path d="M33.8 83.3c0 1.3-.5 2.4-1 3.5-2.5 6.5-4.9 13-7.2 19.6l-1 2.3c-.5 1.5-1 3-.7 4.7-.6-.2-.7-.6-.7-1a30 30 0 0 1 1.7-6.7c1.2-3.1 2.2-6.4 3.3-9.5 1.6-4.3 3.3-8.5 5.2-12.6 0-.2 0-.3.4-.3Z" fill="#D9E3F1"/><path d="M30.9 159.5c.4-.4.6 0 1 .2 1 .6 2 1.2 3 1.5.3 0 .6.3.7-.2.4.7.7 1.5.8 2.3-1.2.1-1.9-.8-2.7-1.3-1-.8-2-1.5-2.8-2.5Z" fill="#7ABADF"/><path d="m31.3 147.8-2.9-8.5.4-.1c1.4 2.4 2.2 5.2 2.7 8 0 .2.3.5-.2.6Z" fill="#D7E1EE"/><path d="M32.3 118.2c1.2 0 2.2-.1 2.6.8.5 1-.2 1.7-.7 2.4 0-1.4-.5-2.4-2-3.2Z" fill="#D7E1EF"/><path d="M27.9 129.6c-1.1.6-1.7 1.5-2 2.6-.2-2.3.5-3.3 2-2.6Z" fill="#D6E0EE"/><path d="M33.4 155.2c-1.2-.4-2.5-.7-3-2 1 .3 2 1 2.8 1.6l.2.4Z" fill="#5E96C3"/><path d="M31.3 147.8c.2-.2.2-.4.2-.7.3.6.4 1.2.4 2-.5-.4-.6-.8-.6-1.3Z" fill="#CDD7E5"/><path d="M46.7 6.2c1.6-2.4 3.8-2 6.2-1.4C58.5 6.2 64 8 69.7 9.6l2.7.8c1 .4 1.5 1.2 1.2 2.3-.8 3.3-2.4 6.3-3.4 9.5-1.7 5.7-4.1 11.1-6 16.8l-3.6 10.8L57.1 60c-1.4 4-2.8 8.1-4.6 12l-.5 1c-1.4.6-2.8.2-4.2 0-4.2-.7-8.3-1.4-12.5-2.4-2.2-.5-4.2-1.5-6.1-2.8-1.3-.8-1.8-2-1.5-3.5l.7-3 7-21.8c.8-2.1 1.7-4.2 2.4-6.4.1-.2.2-.5.5-.7.6 0 .4.5.4.9.1 3.3 1 6.3 3.1 9l1.1.9c3 2.8 9.5 2.7 12.5-1a9 9 0 0 0 1.3-9.6c-.2-.3-.1-.8-.6-.7-2.9-3.2-6.7-4.9-10.4-6.9-.4-.2-.9-.6-1.4-.1-1.1-.2-1.9.4-2.6 1-.3.3-.5.6-1 .6l-.2-.5c0-1.3.6-2.4 1-3.7l1.1-3.9c1-2.8 1.7-5.7 2.8-8.5.4-1.2 1-2.4 1.3-3.7Z" fill="#A7AEB9"/><path d="M38.3 32.5c-3.6 9.4-6.3 19.2-9.6 28.8l-.8 3.2c-.2 1.4.4 2.4 1.6 3.2 3.4 2.4 7.4 3 11.3 3.8l8.7 1.4H52c-1 1.6-2.5 1.7-4 1.5-5.4-.8-10.6-2.3-15.9-3.7-1.4-.4-2.8-1-4.2-1.7-1.2-.6-1.5-1.3-1.3-2.7.3-1.9 1-3.7 1.5-5.5l3.7-11.6 3.4-10C37.6 32 40 25 42.6 18c.4 0 .3.1.2.4-.4 2.2-1.2 4.3-1.8 6.4l-.3 1.3c-.2.3 0 .8-.3 1.2l-1.4 4c-.2.5-.3.9-.7 1.2Z" fill="#8D929A"/><path d="M26.8 57c1.2-4.2 2.7-8.3 4-12.5l.3-.6s0-.3.2 0v.3c-1.1 4.7-3 9.2-4.1 13.9h-.4V57Z" fill="#D7E0EE"/><path d="M42.8 18.4c0-.2 0-.4-.2-.4a73 73 0 0 1 2.8-8.6c.4 0 .3.2.2.5l-2.8 8.5Z" fill="#90959D"/><path d="M45.6 9.9c0-.2 0-.4-.2-.5l1.3-3.2c.2.2.2.4 0 .7-.5 1-.5 2-1.1 3Z" fill="#999FA8"/><path d="M133.8 27.8h-2.5c.8-.4 1.7-.4 2.5 0Z" fill="#E0E8ED"/><path d="M171.6 86.4v4.2c0 .9-.3 1.2-1.1 1.1h-3.3c-1 0-1.2-.3-1.2-1.2v-7.3c0-2.1 0-2.1 2.2-2.1h2.5c.6 0 .9.2.9 1v4.3Z" fill="#BFC8D5"/><path d="M171.6 71.5v4.2c0 .9-.4 1.4-1.4 1.3h-3c-.8 0-1.2-.3-1.2-1.2V68c0-1.9 0-1.9 1.9-1.9h2.6c.8 0 1.1.3 1 1.1v4.3ZM173.7 71.6c-.1-1.3.2-3-.1-4.6-.1-.5.1-.9.7-.9h4c.6 0 1 .4 1 1-.5 2.7-.2 5.4-.2 8 0 1.9-.1 1.9-1.8 1.9H175c-1 0-1.3-.4-1.3-1.4v-4Z" fill="#BEC7D5"/><path d="M174 81.3c1.5-.5 3-.2 4.6-.2.4 0 .7.4.6.8-.4 2.9-.1 5.7-.1 8.6 0 1-.3 1.3-1.3 1.2h-3c-.8 0-1.1-.2-1.1-1v-8c0-.4-.6-1 .2-1.4.3.5.7.7 1.3.6h3c-.2-.4-.7-.3-1-.3-1.1-.2-2.3.2-3.3-.3Z" fill="#C0C8D6"/><path d="M181.6 81.3V81h4.7c.4.3.6.6.5 1.3-.2 1.3-.1 2.6 0 3.9.2 1.6.1 3.2.1 4.8 0 .5-.4.6-.8.6H182c-.5 0-.8-.1-.8-.7.4-3 0-5.9.2-8.9h.3c.2 1.3 0 2.6.1 3.8v4c0 .8.2 1.2 1 1.1h2.4c.6.2.9 0 .8-.7v-1.7c-1 .9-2 1.6-3.1 1.9-.8.2-1.1 0-1-.8l-.1-6.4c0-.7.3-1 1-1h2.2c.3 0 .7.1.9-.3-1-.5-1.9-.1-2.8-.2-.5 0-1.1 0-1.5-.5Z" fill="#BFC8D5"/><path d="M163.7 59.3v-.2c.3 0 .9-.2.5.5-.2.3 0 .7 0 1v36.6c0 .4 0 .8-.2 1.2h-.3v-39Z" fill="#F1F5F8"/><path d="M181.2 66.6V66c.2-.2.5-.3.9-.3 1.4.1 2.9-.1 4.3.2.1 0 .2.2.1.3-.3.4-.8.3-1.2.3-1.2.1-2.3-.1-3.4.2l-.2.4v7.5c0 1.5.1 1.5 1.6 1.6h1.3c1.5 0 1.6-.1 1.6-1.7v-5.5c0-.6 0-1.2.2-1.8.1-.4-.2-.8.3-1 .5 0 .3.5.3.8v8.7c0 .8-.3 1.2-1 1.2h-4c-.4 0-.6-.1-.8-.4-.3-1.1-.1-2.3-.1-3.4 0-2.2-.2-4.4 0-6.6Z" fill="#CBD3DD"/><path d="M186.5 66.3v-.2h.2c.5.1.4.5.4.9v9c0 .8-.4 1.2-1 1.2H182c-.5 0-.8-.1-.8-.6 1.6.4 3.4.2 5 .1.5 0 .7-.4.7-.9V67c0-.4 0-.6-.4-.7Z" fill="#E0E6EC"/><path d="M187.4 76.4v-10h.4v10h-.4Z" fill="#F2F6F9"/><path d="M165.8 65.6h5.6v.2h-5.6v-.2ZM179.1 65.8h-5.5v-.2h5.5v.2Z" fill="#EFF4F7"/><path d="M181.2 66c0-.3.2-.5.4-.5h4.8c.2 0 .5.1.3.4-1.8.2-3.7.2-5.5 0Z" fill="#F3F7F9"/><path d="M181.2 66.6v10c-.3-.2-.2-.4-.2-.7v-8.7c0-.2 0-.5.2-.6Z" fill="#E0E6EC"/><path d="M181.2 66h5.5v.1h-5.5V66Z" fill="#E4EAF0"/><path d="M181.4 96.2c.1-.3.4-.4.8-.4h3.6c.7 0 1.1.3 1.1 1.2v8.4c0 .8-.3 1.3-1.2 1.3h-3.6c-.6 0-1-.2-1-.9v-9.1c0-.2.2-.3.3-.5.2.2.4.6.8.6 1.2-.1 2.5.1 3.7-.2-1-.3-2 0-3.1-.1-.5 0-1 0-1.4-.3ZM173.7 101.3V97c0-.8.3-1 1-1l3.4-.2c.7 0 1.1.3 1 .9-.2 2.8 0 5.7 0 8.5 0 1.4 0 1.4-1.5 1.4h-2.8c-.9.1-1.1-.3-1.1-1v-4.3Z" fill="#BAC4D3"/><path d="M183.1 131.6c-.8.6-1.3.3-1.6-.5l-1.1-2.3c-.8-1.2 0-2 .7-3 .4-.6.9-.8 1.6-.4.6 1 .5 2.2.5 3.3l-.1 2.9Z" fill="#DD8471"/><path d="M181.6 81.3c1.3.4 2.7.1 4 .2.3 0 .8-.2.9.4-.5.4-1 .4-1.6.3-1.1 0-2.2.2-3.3 0h-.2c-.2-.4-.1-.7.2-1Z" fill="#A8B4C4"/><path d="m109.8 163 .8-2.1c.6-1.5 1.7-2.4 3.3-2.4 1.7 0 2.6 1 3.1 2.5.9 2.1 1 4.4.8 6.6l-.2 1.3c-.3 1.6-.6 3.2-2 4.5-1.3 1-2.7 1-4 .2-1.2-1-1.6-2.3-1.9-3.5-.6-2.4-.5-4.8 0-7.2Z" fill="#FEFEFE"/><path d="M109.8 163c-.3 1.8-.5 3.6-.3 5.5.3 1.8.8 3.6 2 5-.6.1-.8-.4-1-.8-1.4-3-1.6-6.2-1-9.5l.3-.3Z" fill="#4E5074"/><path d="M115.7 173.4a13 13 0 0 0 2-4.5c-.2 1.7-.4 3.4-2 4.5Z" fill="#5D6080"/><path d="M115.3 50V29.2c0-1 .3-1.4 1.3-1.3 2.6 0 2.3-.3 2.3 2.3v40c0 1.6 0 1.6-1.5 1.6-2.3 0-2.1.3-2.1-2.1V49.9Z" fill="#BEC7D5"/><path d="M101.7 85.1c-.3-.2-.3-.5-.3-.8v-5c0-.7.3-1.1 1-1h.5c1.5 0 1.5 0 1.5 1.5v4.7c0 .6-.1 1-.8.8-.7 0-1.3.3-2-.2.4-.3.4-.7.4-1v-4.4 4.1c0 .5 0 1-.3 1.3Z" fill="#BDC6D4"/><path d="m113.8 78.3.7.1c.6.2 1.3-.2 1.7.4.4.6.1 1.3.2 2V84c0 1-.3 1.4-1.3 1.2-.4 0-1 .2-1.3-.2.4-.3.3-.7.3-1v-4.4 4c0 .6 0 1-.3 1.4h-.2c-.2-.2-.3-.5-.3-.8v-5c0-.3 0-.6.3-.8l.2-.2Z" fill="#BFC8D6"/><path d="M109 83.5c1.4-.8 1.4.1 1.4 1 0 .6-.2.8-.8.8h-1c-1 .1-1.2-.3-1.2-1v-5c0-.7.3-1 1-1h.8c1-.1 1.3.3 1.2 1.2 0 .8 0 1.5-1.4 4-1.2 1.4-.9 1.3-.6 1.3 1.3-.2 1.3-.2 1.3-1.5v-3.5c0-.6-.2-1-.8-.8-.4 0-.7-.2-1 .2v5.4c0 .2-.2.4 1.1-1.1Z" fill="#BFC8D5"/><path d="M101.1 78.4v7h-.1v-7h.1Z" fill="#EAEFF2"/><path d="M113.4 85.1c-.4.3-.4 0-.4-.3v-6c0-.1 0-.5.4-.3v6.6Z" fill="#EEF1F5"/><path d="M113.4 85.1v-6.6h.2v6.6h-.2Z" fill="#DCE3E9"/><path d="M164.1 50c.9.8 1.6 2 2.6 2.7 1.3 1.3 1 3 1 4.6 0 .6 0 1-.9.8h-1.2c-1.8 0-2.5.8-2.5 2.5v36c0 1.5-.3 1.7-1.8 1.5l-2-.2c-.6 0-1-.2-1-1 .1-.8 0-1.7.2-2.5V45.9c0-.3-.1-.8.3-1 .3-.2.5 0 .6.3-.3.5-.2 1-.2 1.6V94l-.1 2.6.1-2.5V46.8c0-.5-.1-1 .2-1.6 1.5 1.1 2.4 2.7 3.8 3.9l1 .8Z" fill="#AABBCB"/><path d="M154.7 52.5c.1 1.3.4 2.7.2 4 0 .5-.3 1-1 .7h-25.3c-1.6 0-1.6 0-1.6-1.6v-2.7h26.6c.2 0 .4 0 .6-.2l.5-.2Z" fill="#BFC8D6"/><path d="M154.7 71.7c.4.9 0 1.8 0 2.7.1 2.2 0 2.2-2.2 2.2h-24.3c-1.5 0-1.6-.1-1.6-1.7v-2.6c0-.3-.1-.8.4-.8.2.3.2.7.6.9h24.8c.4.2.8.4.8.8.1.8 0 1.6-.2 2.4 0 .3-.3.5-.6.5h-23.8c-.6 0-1.4.2-1.2-.8-.2.7.1.9.8.9h24.6c.4-.3 1.1.2 1.4-.5v-3.3c.1-.3.2-.5.5-.7ZM126.6 82.1c-.3-.3-.3-.5 0-.8h.3c.2.2.3.4.6.5h21.2c.6 0 1.4-.2 1.6.5 0 .6-.8.6-1.2.8-1.2.6-2.4 1.1-3.5 1.9-.5.3-1 .3-1.5.3h-15.5 24.7c.6 0 .9-.3.9-1s-.1-1.6.1-2.4l.3-.2c.5 1.3.2 2.6.2 4 0 .3-.4.4-.8.4-3.4-.1-6.8.2-10.2-.2H128c-.4 0-.8 0-1.2-.2-.4-.7 0-1.5 0-2.2-.2-.5 0-1-.2-1.4Z" fill="#BEC7D5"/><path d="M153.7 61.4c1.1.1 1.4.5 1.2 1.5-.3 1-.2 1.8-.1 2.7 0 1-.3 1.2-1.2 1.2h-25.5c-.8 0-1.1-.3-1-1v-2.4c0-2-.3-1.7 1.7-1.7h23.7c.4 0 .8.1 1.2-.3Z" fill="#BCC6D4"/><path d="M154.5 76c-.3.7-1 .2-1.5.4-.2-.4 0-.6.3-.7.4-.3.4-.7.5-1 0-1.9-.2-2.2-2-2.2h-23.6c-.4 0-.8.1-1.2-.2a.7.7 0 0 1 0-.8h25c.6 0 1.2 0 1.8-.2.4-.1.8 0 1 .4l-.3.6c-.2 1.2-.2 2.4 0 3.6Z" fill="#B6C1CE"/><path d="M126.8 81.3h-.2l.2-.5H148l5.6-.2c1 0 1.4.4 1.4 1.3v3.2c0 .8-.3 1-1.1 1-3 0-6.1.2-9.2 0-5.6-.3-11.2 0-16.8-.1-.4 0-.8.1-1-.2h11.8c4.9 0 9.8.3 14.7.2 1 0 1.5-.3 1.3-1.4 0-1 .3-2-.2-2.9-.6-.3-1.3-.3-2-.3H128l-1.2-.1Z" fill="#CBD3DE"/><path d="M127.2 53h-.2c0-.6.3-.8.8-1h25.6c.5 0 1-.1 1.3.5 0 .2 0 .3-.2.4-.4-.2-.9-.1-1.3-.1h-24.5l-1.5.1Z" fill="#BAC3D1"/><path d="M126.6 82.1c.5 1.2 0 2.4.2 3.6-.3 0-.5-.3-.4-.6.3-1 .1-2 .2-3Z" fill="#CBD3DE"/><path d="M166.7 158.5c-1.1-3-1-6 0-8.9.5-1 1.3-1.8 2.6-1.8 1.2 0 2 .8 2.3 2 1.2 3 1 6.2-.3 9.3-.8 2-3 2-4.2.2l-.4-.8Z" fill="#FEFEFE"/><path d="M166.7 158.5c.3.2.4.5.4.8-.4-.2-.5-.5-.4-.8Z" fill="#A8A9BB"/><path d="M57.5 172.1c-.8.6-1.6-.2-2.3 0-1.7.2-3.2-.2-4.7-.7l-1.3-.4c-.4 0-.7-.2-.6-.6.1-.4.5-.2.7-.2h.5l7 1.8.7.1Z" fill="#2E345E"/><path d="M61.6 168.7v.4c-.3 0-.7 0-.7-.2 0-.4.5-.2.7-.2Z" fill="#5598C6"/><path d="M120.6 91.3V73.7c0-.5-.3-1.1.3-1.4.3-.2 1.6 1 1.6 1.5v17.5h-1.9Z" fill="#A9BACB"/><path d="m127.2 91.3.3-.6h25.8c.5 0 1-.2 1.2.4-.1.3-.4.3-.7.3-6.4-.2-12.7-.1-19 0-2 0-4-.3-6-.2h-1.6Z" fill="#A5B2C3"/><path d="M127.7 91.3c.3-.4.7-.2 1-.2h23.9c.6 0 1.3.4 2 0-.1.5-.4.4-.8.4h-18.2c-.2 0-.5 0-.7.2-2.4-.3-4.8-.5-7.2-.4Z" fill="#B2BDCC"/><path d="M49.2 171c.5 0 1-.1 1.3.4-.5 0-1-.1-1.3-.4Z" fill="#57597B"/><path d="M184 111h1.8c.3 0 .6-.1.7.3 0 .4-.2.6-.6.6h-4c-.3 0-.5-.2-.5-.5 0-.4.3-.5.6-.5h2Z" fill="#AAB7C7"/><path d="M168.8 96.2h1.9c.3 0 .6 0 .6.5 0 .3-.4.3-.7.2-1-.1-2-.2-3 .1h-.9c-.2 0-.4-.1-.4-.4 0-.2.3-.4.5-.4h2Z" fill="#AAB6C6"/><path d="m51.3 145.2.3.3.3 1-3.3-2.5c-1-1-2.1-1.3-3.5-.7h-.6c.2-.5.8-.6 1-1 1.6-1 2.7-.4 3.9.8.7.7 1 1.6 2 2.1Z" fill="#69AAD7"/><path d="m38.3 144-.1-.5h.6c1 .4 2 .6 3 .4.7.6-.1 1-.3 1.2-.3.3-.8.7-1.4.3l-1.8-1.5Z" fill="#68A9D7"/><path d="M51.6 149c-.6-1-1.5-1.8-1.5-3.1.8.8 2.1 1.3 2.1 2.7 0 .6-.5.2-.6.5Z" fill="#68A8D6"/><path d="M51.6 149c.2 0 .4-.2.6-.4.3.2.7.5 0 .7-.2-.3-.4-.2-.6-.2Z" fill="#68A8D5"/><path d="M51.3 145.2c-.3 0-.7 0-.9-.4-.4-1-1.4-1.5-2-2.3-.6-.6-1.1-.8-1.9-.3-.2.1-.6.4-1 0l1-.6c1.1-.8 1.6-.8 2.5.1 1 1 1.9 2.2 2.3 3.5Z" fill="#86C7E2"/><path d="M123.2 44.2V29c0-.3 0-.7.4-.7.3 0 .4.3.4.6v.6l.1 13.6c0 .6-.4.7-1 1.2Z" fill="#A5B2C2"/><path d="M130.9 28.2h.6c.2 0 .3.2.4.4.2 1.1.1 2.2.1 3.3v10.2c0 .5.1 1-.2 1.5-.9.3-1-.1-1-1V30c0-.4 0-.8-.2-1.2l.3-.6Z" fill="#AAB6C6"/><path d="m131.7 28.4-.2-.2h1.8c1-.1 1.3.3 1.2 1.2-.4 3.8-.2 7.7-.2 11.5l.1 1.8c.2.3 0 .7-.3.8l-.2-.1c-.2-.5-.2-1-.2-1.5v-9c0-1.3-.2-2.5-.3-3.7 0-.4-.3-.5-.6-.5-.4 0-.8 0-1-.3Z" fill="#BEC7D5"/><path d="M130.6 28.8c.4.3.3.8.3 1.1v12.7c0 .6 0 1 .8 1 .8-.9 1.6-.4 2.4 0-1 .4-2 .1-3 .1-.6 0-.5-.6-.5-1V28.9ZM44.3 24.8c.2-.9.7-.4 1-.2 1.5.7 3 1.4 4.3 2.2 2 1.2 4.2 2.2 5.7 4l1 1c.3.3.4.6.6 1 .6 1.4.7 2.9.1 4.4a11.1 11.1 0 0 1-6.4 7c-.5.2-1.1.4-1.7 0 0-.3.1-.5.3-.7 1.4-1.6 1.3-3.5 1.2-5.3a24.8 24.8 0 0 0-2.5-9.2c-.8-1.5-1.8-2.8-3.2-3.8-.2 0-.3-.2-.4-.4ZM52.2 6.2c.2-.8.7-.4 1-.2l4.3 2.3c2 1.1 4.1 2.2 5.7 4l1 1 .6.9c.6 1.4.7 3 .1 4.4a11 11 0 0 1-6.4 7c-.5.3-1.2.6-1.5-.2v-.2c1.9-2.4 1.3-5 1-7.7l-.8-3.6c-.4-1.2-.8-2.3-1.4-3.4C55 9 54 7.6 52.6 6.7c-.2-.1-.4-.2-.4-.5ZM38.1 46.3c.2-.8.7-.4 1-.2 1.5.7 3 1.4 4.3 2.3 2 1.1 4.2 2.1 5.7 4l1 1c.3.2.4.5.6.9.7 1.4.7 3 .2 4.4a11 11 0 0 1-6.5 7c-.5.2-1.1.6-1.5-.3v-.2c2-2.3 1.3-5 1-7.6a20.1 20.1 0 0 0-2.1-7c-.3-.7-.8-1.3-1.3-1.8-.5-1-1.6-1.7-2.4-2.5Z" fill="#BEC7D5"/><path d="M44.3 24.8c1.8.8 2.8 2.4 3.8 4-1.3.6-2.6 1.3-3.8 2.2-2.5 2.1-3.9 7.3-2.6 9.4.2.7.6 1.3.9 2 .1.2.4.5.2 1-1.4-.7-2-2-2.7-3.2-.9-2-1.4-4-1.8-6 0-.6.6-1.2 0-1.7.6-1.9 1.1-3.7 2-5.4.2-.1.3-.5.6-.6.4-.8 1.3-1.2 2-1.8.4-.4.9.2 1.4 0ZM52.2 6.2c1.8.8 2.8 2.4 3.8 4-1.3.7-2.6 1.3-3.8 2.3-2.5 2-3.9 7.2-2.6 9.4l.9 1.9c0 .3.4.6.2 1-1.4-.7-2.1-1.9-2.7-3.2-.9-1.9-1.7-3.9-1.7-6 0-2.2.4-4.3 1.6-6.2.5-1 1.1-1.9 2-2.6.8-.6 1.4-.8 2.3-.6ZM38.1 46.3c1.1.5 2 1.3 2.6 2.3-.2.4-.5.5-.7.6-3.8 1.9-5.3 5.2-5.9 9.2 0 .8 0 1.7-.5 2.4-2.2-4.6-1.7-9 1.3-13 .7-1 1.6-2 3.2-1.5Z" fill="#8E96A3"/><path d="M43 65.5c.7.5 1.2 0 1.8-.2 3.1-1.2 6.5-5.8 6.1-9.1 0-.7-.3-1.3-.4-2-.2-.2-.2-.4.2-.4 1.7 3 .8 8.1-2.2 11-2.6 2.4-8.9 2.7-11.2.7l-.9-.8c-.1-.3-.4-.5-.1-.8.2 0 .5 0 .7.2a7.8 7.8 0 0 0 5.2 1.3l.8.1ZM50.7 24.8l-.4-1c.3 0 .5 0 .8.2 1.5 1 3.2 1.5 5 1.3.3 0 .6 0 1 .2.6.4 1.2-.1 1.8-.3 3.1-1.2 6.4-5.8 6-9.1 0-.7-.2-1.3-.4-2 0-.2-.1-.4.3-.4 1.7 3 .8 8.1-2.3 11-2.5 2.4-8.8 2.7-11.1.7-.3-.2-.6-.3-.7-.6ZM42.8 43.3l-.4-.9c.3-.1.6 0 .9.2 1.4 1 2.9 1.3 4.5 1.3.4 0 .9 0 1.2.3 2 0 3.4-1 4.7-2.2 2-2 3.5-4.3 3.4-7.4 0-.7-.3-1.3-.4-2-.2-.2-.2-.4.2-.4 1.7 3.1.8 8.2-2.3 11-2.5 2.5-8.8 2.8-11.1.8l-.7-.7Z" fill="#7E8597"/><path d="M33.6 60.8c.2-3 .6-5.9 2.3-8.5 1.2-1.7 2.7-3 4.8-3.7.6.5 1 1.1 1.2 1.8-1.4.5-2.7 1.2-3.8 2.2a10 10 0 0 0-3 7.8c0 .5.1 1 .4 1.6 0 .2.2.5 0 .8-.2.2-.4.4-.8.1-.6-.6-.9-1.3-1-2Z" fill="#7E8596"/><path d="m34.7 63 .8-.3c.6.3.8.7.7 1.3l.2.7c-.8-.3-1.3-1-1.7-1.8Z" fill="#8B939A"/><path d="M40.9 26.5c-.2.2-.1.7-.7.6.1-.4.2-.7.5-1 0 .1 0 .3.2.4Z" fill="#9EA5AF"/><path d="M50.7 53.8c-.2 0-.2.2-.2.4-.3-.2-.4-.5-.5-.9.5-.2.5.3.7.5ZM56.9 32.2c-.2.1-.2.3-.2.5-.3-.3-.4-.6-.5-.9.5-.2.5.3.7.4ZM64.8 13.7c-.2 0-.2.3-.3.4l-.4-.8c.5-.3.5.2.7.4Z" fill="#929AAA"/><path d="m168.7 81.5 2-.1c.3 0 .6 0 .6.3s-.3.4-.6.3c-1.3-.2-2.5-.2-3.8 0-.3 0-.5 0-.5-.3 0-.2.2-.2.4-.2h1.9Z" fill="#A8B4C4"/><path d="M170.5 67.2c-1.1 0-2.3-.1-3.6.1-.4 0-.6-.2-.6-.5 0-.4.3-.5.6-.4 1.3.3 2.6.2 3.8 0 .4 0 .6 0 .6.4s-.2.7-.8.4ZM177.9 67.2c-1 0-2.1-.1-3.3.1-.4 0-.6 0-.6-.4s.2-.5.6-.4h3.6c.3-.1.6 0 .6.3 0 .4-.2.6-1 .4Z" fill="#A1AEBF"/><path d="M174 81.3h4c.4 0 .9 0 .8.6-.1.7-.5.3-.9.3-1-.1-2-.3-3 0s-1-.2-1-1Z" fill="#B2BDCB"/><path d="M181.6 82.1c1.6-.4 3.3 0 4.9-.2-.2.5-.5.7-1 .7h-2.6c-.6 0-.9.1-.9.8v6.2c0 .7.1.8.8.6a5.4 5.4 0 0 0 3.3-2.6c.4 1.3 0 2.4.3 3.5 0 .4-.5.5-.8.4a9.1 9.1 0 0 0-3.6 0c-.4 0-.5-.2-.5-.6l.1-8.8Z" fill="#BAC4D3"/><path d="M186.7 67.2c-.4 1.6-.1 3.2-.2 4.9v3.5c0 .7-.3 1-1 1h-3c-.9 0-1.1-.3-1.1-1.1v-8c1-.5 2-.3 3.1-.4l2.2.1Z" fill="#BEC7D5"/><path d="M181.4 67v-.4c1.5-.3 3 0 4.5-.1.3 0 .5 0 .5.3 0 .2-.2.5-.4.5-1.5 0-3 .2-4.5-.1l-.1-.2Z" fill="#A4B0C1"/><path d="M181.4 67c1.4.4 3 .1 4.4.2.2 0 .4-.2.4-.4-.1-.3-.4-.2-.6-.2h-4.2c.8-.5 1.6-.2 2.5-.2h2.6c.1.2.3.5.2.8-.4.4-1 .2-1.5.2h-3.8V67Z" fill="#B0BBCA"/><path d="M181.4 96.2h4c.6 0 1 0 1.1.6-1 .3-2 0-3 .1l-1.5.1c-.7.1-.6-.4-.6-.8Z" fill="#AAB7C7"/><path d="M182 97c1-.4 2.2 0 3.2-.2h1.3c-.2.3-.5.4-.8.4-1.2-.3-2.5 0-3.7-.2Z" fill="#B7C2D0"/><path d="M174.3 100V98c0-.5.2-.9.8-.8.5 0 1.2-.3 1.5.1.4.4-.3.8-.4 1.3-.5 1.2-1 2.4-1.2 3.7 0 .2-.1.5-.4.5-.3 0-.2-.4-.2-.6v-2Z" fill="#BEC7D5"/><path d="M176.6 96.9h-2.1c-.2 0-.4 0-.5-.2 0-.3.2-.5.4-.5h4c.2 0 .4.2.3.5 0 .3-.3.3-.5.2-.5-.2-1 0-1.6 0Z" fill="#AAB6C6"/><path d="M182.7 128c0 1-.2 1.8 0 2.7 0 .3 0 .7-.3.7-.3.1-.5-.2-.6-.4l-1.2-3c-.3-.5.7-2.2 1.2-2.4.4-.3.5 0 .6.3.2.7.4 1.4.3 2.1Z" fill="#EF7A5B"/><path d="M116.2 50V70.8c0 .3 0 .5-.3.6-.3 0-.4-.3-.4-.6V29.2c0-.3-.1-.9.4-.8.6 0 .3.4.3.8V50Z" fill="#A9B4C5"/><path d="M101.7 85.1v-5.6c0-.3-.1-.8.2-.8.5 0 .4.5.4.8v4.8c0 .4 0 .9-.6.8Z" fill="#A6B2C3"/><path d="M113.8 85.1v-5.8c0-.3-.1-.7.3-.7.3 0 .3.4.3.7v5.2c0 .5-.2.6-.6.6Z" fill="#A7B3C4"/><path d="M108.7 78.7c1.2-.4 1.4.2 1.3 1.3v3.8c0 .7.1 1.4-1 1.2l-.5.1c-.6-1.5-.2-3-.3-4.6 0-.5-.1-1 .3-1.4.6.3.5.8.5 1.2l.1 3.5c.1-1.4.2-2.7 0-4 0-.3-.2-.5-.4-.6v-.5Z" fill="#BEC7D4"/><path d="M108.7 78.7v.4c-.4.7-.2 1.4-.2 2.1v4h-.9v-.5c.3-1.5 0-3 .1-4.4l.1-1.6c.3-.4.6-.1.9 0Z" fill="#AFBAC9"/><path d="M107.8 78.7v5c0 .3.1.7-.2 1v-5c0-.3 0-.7.2-1Z" fill="#BEC7D4"/><path d="M159.4 45.2v52.6c-.6-.6-.4-1-.4-1.5V46.1c0-.4 0-.8.4-.9Z" fill="#A6B8C9"/><path d="M127.2 53c.1-.6.5-.5.9-.5h25.6c.3 0 .7-.1.8.4l-.4.2c-.3-.1-.6 0-.8 0h-24.8c-.3 0-.6-.1-.8 0-.2 0-.4 0-.5-.2Z" fill="#ABB7C6"/><path d="M127.7 53.1c.3-.3.7-.2 1-.2H153c.4 0 .8-.1 1.1.2h-26.4Z" fill="#BAC3D1"/><path d="M127 72.3h25.7c1.4 0 1.4 0 1.4 1.5v.7c0 .7.2 1.5-1 1.6v.3h-24.4c-1.5 0-1.5 0-1.5-1.5V74l.2.2c.1 1.7.1 1.7 2 1.7h22.2c1 0 1.4-.2 1.2-1.1v-.3c.1-1.8.1-1.8-1.7-1.8h-22.4c-.5 0-1.3.7-1.7-.4Z" fill="#BDC6D4"/><path d="M154.5 76a6.5 6.5 0 0 1 0-3.7V76Z" fill="#BDC6D4"/><path d="M154.5 82v2.9c0 .6-.2 1-.9.7h-25c-.4 0-.8 0-1.3-.2.3-.4.7-.3 1-.3h14.1c1.7.1 3.1-.3 4.4-1.2 1-.7 2.2-1 3.4-1.5-.4-.4-.8-.3-1.2-.3h-20.8c-.4 0-.8.2-1.2-.2.4-.4 1-.3 1.4-.3h24.7c.5 0 1 0 1.4.3Z" fill="#BAC4D3"/><path d="M154.5 82H127c-.2-.2-.2-.5-.2-.7a38113 38113 0 0 0 26.8-.2c.4 0 1-.1 1 .6v.2Z" fill="#AEB9C8"/><path d="M140.4 66.1h-11.7c-.8 0-1-.2-1-1 0-2.2 0-2.2 2-2.2h22.5c1 0 1.3.3 1.3 1.3 0 2 0 2-2 2h-11Z" fill="#BFC8D5"/><path d="M141 62.6c-4.4 0-8.9-.2-13.3 0-.2 0-.4 0-.4-.2s0-.4.2-.5H154c.3 0 .6 0 .6.3 0 .4-.3.4-.6.4h-12.8Z" fill="#A5B2C2"/><path d="M134 43.5c-.7.2-1.5-.4-2.3 0V28.4h2.2c.3 5.1.1 10.1.2 15.1Z" fill="#BDC7D5"/><path d="M49 44.2c-2.4.2-4.6-.3-6.6-1.8l-.9-1.8c-.3-.9 0-1.7.4-2.4a9 9 0 0 1 5.6-5.6c.7-.2 1.4-.4 2 0a22 22 0 0 1 1.2 8.5c-.1 1.3-1 2.1-1.7 3Z" fill="#FEB035"/><path d="M49.6 32.7c-3.7-.5-7 3.3-7.8 6.7l-.3 1.2c-.4-.6-.6-1.3-.6-2 0-4.2 1.9-7.5 5.7-9.4.5-.3 1-.4 1.5-.4.6 1.2 1.2 2.5 1.5 3.9Z" fill="#E19C31"/><path d="M57 25.5c-2.1.5-4.1 0-6-1.2l-.7-.4-.9-1.8c-.3-1.4.3-2.6 1-3.7 1.5-2.8 3.7-4.5 7-4.7a22 22 0 0 1 1.1 9c0 1-.8 1.9-1.5 2.8Z" fill="#E34C4C"/><path d="M57.3 13.7c0 .3-.3.4-.6.4-2.3 0-4 1.4-5.3 3.1a9.7 9.7 0 0 0-2 4.9c-.5-.6-.6-1.3-.6-2a10 10 0 0 1 5.7-9.5c.5-.2 1-.4 1.5-.3.5 1 1.1 2.1 1.3 3.4Z" fill="#C43F3F"/><path d="m36.2 64-.7-1.3-.2-.6c-.3-1.4.4-2.6 1-3.7 1.5-2.7 3.7-4.4 7-4.7 1 3 1.3 6 1.1 9 0 1.2-.8 2-1.4 2.8-2.2.6-4.2 0-6-1.1-.3-.1-.5-.4-.8-.4Z" fill="#50AA54"/><path d="M43.3 53.7c0 .4-.3.5-.6.5-2.4 0-4 1.4-5.3 3a9.6 9.6 0 0 0-2 5c-1-1.4-.7-2.9-.4-4.3a9.8 9.8 0 0 1 5.5-7.2c.5-.3 1-.4 1.4-.3.6 1 1.1 2.1 1.4 3.3Z" fill="#4E9351"/><path d="M108.7 79.1c.5-.2.8 0 .8.6v4.2c0 .3 0 .7-.3.7-.5 0-.5-.4-.5-.7v-4.8Z" fill="#BFC8D5"/><path d="M132 36v-6.3c0-.5-.1-.9.5-.9.7 0 .7.4.7.9.2 2.6-.4 5-.6 7.7v5c0 .2 0 .6-.4.6s-.3-.4-.3-.6V36Z" fill="#BEC7D5"/></svg>