<svg xmlns="http://www.w3.org/2000/svg" width="31.7234" height="20.2193" viewBox="0 0 31.7234 20.2193"><path fill="currentColor" d="M31.66,9.383C31.3767,8.9953,24.6241-.11,16-.11S.6227,8.9953.34,9.3826a1.0468,1.0468,0,0,0,0,1.2344C.6227,11.0047,7.3756,20.11,16,20.11s15.3768-9.1051,15.66-9.4924A1.0454,1.0454,0,0,0,31.66,9.383ZM16,18.018c-6.3527,0-11.8548-6.0431-13.4836-8.0187C4.143,8.022,9.6335,1.982,16,1.982c6.3523,0,11.8541,6.0421,13.4835,8.0187C27.8568,11.978,22.3662,18.018,16,18.018Z" transform="translate(-0.1383 0.1097)"/><path fill="currentColor" d="M16,3.725A6.275,6.275,0,1,0,22.2749,10,6.2822,6.2822,0,0,0,16,3.725Zm0,10.4583A4.1833,4.1833,0,1,1,20.1831,10,4.1879,4.1879,0,0,1,16,14.1833Z" transform="translate(-0.1383 0.1097)"/></svg>
