<svg xmlns="http://www.w3.org/2000/svg" fill="currentColor" width="25.4581" height="21.8433" viewBox="0 0 25.4581 21.8433"><path d="M25.2842,10.3871a24.1376,24.1376,0,0,0-5.4988-5.2362l3.5877-3.5877A.9092.9092,0,0,0,22.11.2552l-.0224.0224-3.92,3.9159A11.7582,11.7582,0,0,0,12.729,2.7388C5.819,2.7388.4011,10.0743.1738,10.387a.9092.9092,0,0,0,0,1.0692,24.1372,24.1372,0,0,0,5.4988,5.2361L2.0849,20.28A.9092.9092,0,1,0,3.3481,21.588l.0224-.0223L7.29,17.65a11.7583,11.7583,0,0,0,5.4389,1.4548c6.91,0,12.3279-7.3355,12.5552-7.6483A.9087.9087,0,0,0,25.2842,10.3871Zm-18.29,4.986a22.6381,22.6381,0,0,1-4.9269-4.4514C3.406,9.3005,7.7465,4.5572,12.729,4.5572a9.6238,9.6238,0,0,1,4.0815,1L15.2321,7.1357A4.5387,4.5387,0,0,0,8.94,13.4274Zm8.1893-5.62a2.6844,2.6844,0,0,1,.2728,1.1684,2.7276,2.7276,0,0,1-2.7277,2.7276,2.6825,2.6825,0,0,1-1.1683-.2728Zm-4.91,2.3367a2.6833,2.6833,0,0,1-.2728-1.1684A2.7276,2.7276,0,0,1,12.729,8.194a2.6829,2.6829,0,0,1,1.1684.2727Zm2.4548,5.1961a9.6252,9.6252,0,0,1-4.0814-1l1.5784-1.5784a4.5388,4.5388,0,0,0,6.2917-6.2917L18.4634,6.47a22.6417,22.6417,0,0,1,4.927,4.4515C22.052,12.5428,17.7115,17.2861,12.729,17.2861Z"/></svg>
