<svg width="12" height="12" viewBox="0 0 12 12" fill="none" xmlns="http://www.w3.org/2000/svg">
<path d="M11 3.02683C10.978 3.46112 10.8075 3.91191 10.4391 4.28023C8.45419 6.27027 6.46376 8.25482 4.47333 10.2394C4.39636 10.3163 4.28089 10.3823 4.17092 10.4098C3.28568 10.6077 2.40043 10.7946 1.51519 10.987C1.16879 11.0585 0.937855 10.8276 1.01483 10.4812C1.20178 9.60717 1.38873 8.72759 1.58667 7.85351C1.61416 7.72707 1.69114 7.59513 1.77911 7.50718C3.74754 5.52263 5.72147 3.54908 7.6954 1.57553C8.27824 0.998306 9.0975 0.84438 9.85078 1.16323C10.5546 1.45459 11.0054 2.15825 11 3.02683ZM1.88358 10.1074C2.54889 9.9645 3.14272 9.84905 3.72555 9.70612C3.87401 9.66764 4.03346 9.58518 4.14343 9.47523C5.54003 8.0899 6.93113 6.69907 8.32222 5.30823C8.3882 5.24227 8.44869 5.1653 8.48168 5.12682C7.93184 4.57159 7.40949 4.03834 6.88164 3.4996C6.84315 3.53259 6.78817 3.57107 6.74418 3.62055C5.32009 5.04436 3.896 6.46818 2.47191 7.89199C2.41693 7.94697 2.33995 8.01293 2.32346 8.0844C2.1805 8.73309 2.04304 9.38727 1.88358 10.1074ZM9.0865 4.48913C9.37792 4.20876 9.70782 3.93939 9.97725 3.62604C10.3511 3.19725 10.2962 2.53207 9.90577 2.11977C9.51538 1.71296 8.83907 1.6305 8.4047 1.99333C8.07479 2.27369 7.79987 2.62003 7.51396 2.92238C8.02531 3.43363 8.55316 3.96138 9.0865 4.48913Z" fill="currentColor" stroke="currentColor" stroke-width="0.5"/>
</svg>
