<svg width="64" height="64" viewBox="0 0 64 64" fill="none" xmlns="http://www.w3.org/2000/svg">
<circle opacity="0.2" cx="32" cy="32" r="32" fill="#61BBD6"/>
<g clip-path="url(#clip0)">
<path d="M24.2241 46.4853L24.2241 46.4853C25.1484 46.5 26.1339 46.5001 27.3738 46.5001C27.6004 46.5001 27.8387 46.4985 28.0831 46.4969C28.5915 46.4936 29.1265 46.4901 29.6385 46.5001H29.6415H29.6459H29.6504H29.6548H29.6593H29.6637H29.6682H29.6726H29.6771H29.6815H29.686H29.6904H29.6948H29.6993H29.7037H29.7082H29.7126H29.7171H29.7215H29.726H29.7304H29.7349H29.7393H29.7437H29.7482H29.7526H29.7571H29.7615H29.766H29.7704H29.7748H29.7793H29.7837H29.7882H29.7926H29.7971H29.8015H29.8059H29.8104H29.8148H29.8192H29.8237H29.8281H29.8326H29.837H29.8414H29.8459H29.8503H29.8547H29.8592H29.8636H29.8681H29.8725H29.8769H29.8814H29.8858H29.8902H29.8947H29.8991H29.9035H29.908H29.9124H29.9168H29.9213H29.9257H29.9301H29.9346H29.939H29.9434H29.9479H29.9523H29.9567H29.9612H29.9656H29.97H29.9744H29.9789H29.9833H29.9877H29.9922H29.9966H30.001H30.0054H30.0099H30.0143H30.0187H30.0232H30.0276H30.032H30.0364H30.0409H30.0453H30.0497H30.0541H30.0586H30.063H30.0674H30.0718H30.0763H30.0807H30.0851H30.0895H30.094H30.0984H30.1028H30.1072H30.1117H30.1161H30.1205H30.1249H30.1293H30.1338H30.1382H30.1426H30.147H30.1515H30.1559H30.1603H30.1647H30.1691H30.1736H30.178H30.1824H30.1868H30.1912H30.1957H30.2001H30.2045H30.2089H30.2133H30.2178H30.2222H30.2266H30.231H30.2354H30.2398H30.2443H30.2487H30.2531H30.2575H30.2619H30.2663H30.2708H30.2752H30.2796H30.284H30.2884H30.2928H30.2973H30.3017H30.3061H30.3105H30.3149H30.3193H30.3238H30.3282H30.3326H30.337H30.3414H30.3458H30.3502H30.3547H30.3591H30.3635H30.3679H30.3723H30.3767H30.3811H30.3856H30.39H30.3944H30.3988H30.4032H30.4076H30.412H30.4165H30.4209H30.4253H30.4297H30.4341H30.4385H30.4429H30.4473H30.4517H30.4562H30.4606H30.465H30.4694H30.4738H30.4782H30.4826H30.487H30.4915H30.4959H30.5003H30.5047H30.5091H30.5135H30.5179H30.5223H30.5267H30.5312H30.5356H30.54H30.5444H30.5488H30.5532H30.5576H30.562H30.5664H30.5708H30.5753H30.5797H30.5841H30.5885H30.5929H30.5973H30.6017H30.6061H30.6105H30.6149H30.6194H30.6238H30.6282H30.6326H30.637H30.6414H30.6458H30.6502H30.6546H30.659H30.6634H30.6679H30.6723H30.6767H30.6811H30.6855H30.6899H30.6943H30.6987H30.7031H30.7075H30.7119H30.7164H30.7208H30.7252H30.7296H30.734H30.7384H30.7428H30.7472H30.7516H30.756H30.7604H30.7648H30.7693H30.7737H30.7781H30.7825H30.7869H30.7913H30.7957H30.8001H30.8045H30.8089H30.8133H30.8178H30.8222H30.8266H30.831H30.8354H30.8398H30.8442H30.8486H30.853H30.8574H30.8618H30.8663H30.8707H30.8751H30.8795H30.8839H30.8883H30.8927H30.8971H30.9015H30.9059H30.9103H30.9148H30.9192H30.9236H30.928H30.9324H30.9368H30.9412H30.9456H30.95H30.9544H30.9589H30.9633H30.9677H30.9721H30.9765H30.9809H30.9853H30.9897H30.9941H30.9986H31.003H31.0074H31.0118H31.0162H31.0206H31.025H31.0294H31.0338H31.0383H31.0427H31.0471H31.0515H31.0559H31.0603H31.0647H31.0691H31.0735H31.078H31.0824H31.0868H31.0912H31.0956H31.1H31.1044H31.1088H31.1133H31.1177H31.1221H31.1265H31.1309H31.1353H31.1397H31.1442H31.1486H31.153H31.1574H31.1618H31.1662H31.1706H31.1751H31.1795H31.1839H31.1883H31.1927H31.1971H31.2015H31.206H31.2104H31.2148H31.2192H31.2236H31.228H31.2325H31.2369H31.2413H31.2457H31.2501H31.2545H31.259H31.2634H31.2678H31.2722H31.2766H31.2811H31.2855H31.2899H31.2943H31.2987H31.3031H31.3076H31.312H31.3164H31.3208H31.3252H31.3297H31.3341H31.3385H31.3429H31.3473H31.3518H31.3562H31.3606H31.365H31.3694H31.3739H31.3783H31.3827H31.3871H31.3916H31.396H31.4004H31.4048H31.4093H31.4137H31.4181H31.4225H31.4269H31.4314H31.4358H31.4402H31.4446H31.4491H31.4535H31.4579H31.4623H31.4668H31.4712H31.4756H31.4801H31.4845H31.4889H31.4933H31.4978H31.5022H31.5066H31.511H31.5155H31.5199H31.5243H31.5288H31.5332H31.5376H31.542H31.5465H31.5509H31.5553H31.5598H31.5642H31.5686H31.5731H31.5775H31.5819H31.5864H31.5908H31.5952H31.5997H31.6041H31.6085H31.613H31.6174H31.6218H31.6263H31.6307H31.6351H31.6396H31.644H31.6484H31.6529H31.6573H31.6617H31.6662H31.6706H31.6751H31.6795H31.6839H31.6884H31.6928H31.6973H31.7017H31.7061H31.7106H31.715H31.7194H31.7239H31.7283H31.7328H31.7372H31.7417H31.7461H31.7505H31.755H31.7594H31.7639H31.7683H31.7728H31.7772H31.7816H31.7861H31.7905H31.795H31.7994H31.8039H31.8083H31.8128H31.8172H31.8217H31.8261H31.8306H31.835H31.8395H31.8439H31.8483H31.8528H31.8572H31.8617H31.8661H31.8706H31.8751H31.8795H31.884H31.8884V48.0001L31.8884 46.5001H31.8886H31.8888H31.889H31.8894H31.8898H31.8903H31.8909H31.8916H31.8923H31.8931H31.894H31.8949H31.896H31.8971H31.8983H31.8995H31.9008H31.9022H31.9037H31.9053H31.9069H31.9086H31.9104H31.9122H31.9141H31.9161H31.9181H31.9203H31.9225H31.9247H31.9271H31.9295H31.9319H31.9345H31.9371H31.9398H31.9425H31.9453H31.9482H31.9512H31.9542H31.9573H31.9604H31.9636H31.9669H31.9703H31.9737H31.9771H31.9807H31.9843H31.988H31.9917H31.9955H31.9994H32.0033H32.0073H32.0113H32.0155H32.0196H32.0239H32.0282H32.0325H32.037H32.0415H32.046H32.0506H32.0553H32.06H32.0648H32.0696H32.0745H32.0795H32.0845H32.0896H32.0947H32.0999H32.1051H32.1105H32.1158H32.1212H32.1267H32.1322H32.1378H32.1435H32.1492H32.1549H32.1607H32.1666H32.1725H32.1785H32.1845H32.1905H32.1967H32.2029H32.2091H32.2154H32.2217H32.2281H32.2345H32.241H32.2475H32.2541H32.2608H32.2675H32.2742H32.281H32.2878H32.2947H32.3016H32.3086H32.3156H32.3227H32.3298H32.337H32.3442H32.3515H32.3588H32.3661H32.3735H32.381H32.3885H32.396H32.4036H32.4112H32.4189H32.4266H32.4343H32.4421H32.45H32.4579H32.4658H32.4738H32.4818H32.4898H32.4979H32.506H32.5142H32.5224H32.5307H32.539H32.5473H32.5557H32.5641H32.5725H32.581H32.5895H32.5981H32.6067H32.6153H32.624H32.6327H32.6415H32.6502H32.6591H32.6679H32.6768H32.6857H32.6947H32.7037H32.7127H32.7218H32.7309H32.74H32.7492H32.7584H32.7676H32.7769H32.7861H32.7955H32.8048H32.8142H32.8236H32.8331H32.8426H32.8521H32.8616H32.8712H32.8808H32.8904H32.9001H32.9097H32.9194H32.9292H32.939H32.9487H32.9586H32.9684H32.9783H32.9882H32.9981H33.0081H33.018H33.028H33.0381H33.0481H33.0582H33.0683H33.0784H33.0886H33.0987H33.1089H33.1192H33.1294H33.1397H33.1499H33.1602H33.1706H33.1809H33.1913H33.2017H33.2121H33.2225H33.2329H33.2434H33.2539H33.2644H33.2749H33.2855H33.296H33.3066H33.3172H33.3278H33.3384H33.3491H33.3597H33.3704H33.3811H33.3918H33.4025H33.4133H33.424H33.4348H33.4455H33.4563H33.4671H33.478H33.4888H33.4996H33.5105H33.5214H33.5323H33.5431H33.5541H33.565H33.5759H33.5868H33.5978H33.6087H33.6197H33.6307H33.6417H33.6527H33.6637H33.6747H33.6857H33.6967H33.7077H33.7188H33.7298H33.7409H33.7519H33.763H33.7741H33.7852H33.7962H33.8073H33.8184H33.8295H33.8406H33.8517H33.8628H33.8739H33.8851H33.8962H33.9073H33.9184H33.9295H33.9407H33.9518H33.9629H33.974H33.9852H33.9963H34.0074H34.0186H34.0297H34.0408H34.0519H34.0631H34.0742H34.0853H34.0964H34.1075H34.1186H34.1298H34.1409H34.152H34.1631H34.1742H34.1852H34.1963H34.2074H34.2185H34.2296H34.2406H34.2517H34.2627H34.2738H34.2848H34.2958H34.3069H34.3179H34.3289H34.3399H34.3509H34.3618H34.3728H34.3838H34.3947H34.4057H34.4166H34.4275H34.4384H34.4493H34.4602H34.4711H34.482H34.4928H34.5037H34.5145H34.5253H34.5361H34.5469H34.5577H34.5684H34.5792H34.5899H34.6006H34.6113H34.622H34.6327H34.6433H34.6539H34.6646H34.6752H34.6857H34.6963H34.7069H34.7174H34.7279H34.7384H34.7489H34.7593H34.7698H34.7802H34.7906H34.801H34.8113H34.8216H34.832H34.8423H34.8525H34.8628H34.873H34.8832H34.8934H34.9036H34.9137H34.9238H34.9339H34.944H34.954H34.964H34.974H34.984H34.9939H35.0038H35.0137H35.0236H35.0334H35.0432H35.053H35.0627H35.0725H35.0822H35.0918H35.1015H35.1111H35.1207H35.1302H35.1398H35.1492H35.1587H35.1681H35.1775H35.1869H35.1963H35.2056H35.2148H35.2241H35.2333H35.2425H35.2516H35.2607H35.2698H35.2789H35.2879H35.2969H35.3058H35.3147H35.3236H35.3324H35.3412H35.35H35.3587H35.3674H35.3761H35.3847H35.3933H35.4018H35.4103H35.4188H35.4272H35.4356H35.444H35.4523H35.4605H35.4688H35.477H35.4851H35.4932H35.5013H35.5093H35.5173H35.5253H35.5332H35.541H35.5489H35.5566H35.5644H35.5721H35.5797H35.5873H35.5949H35.6024H35.6098H35.6173H35.6246H35.632H35.6393H35.6465H35.6537H35.6608H35.6679H35.675H35.682H35.689H35.6959H35.7027H35.7095H35.7163H35.723H35.7297H35.7363H35.7428H35.7494H35.7558H35.7622H35.7686H35.7749H35.7812H35.7874H35.7935H35.7996H35.8057H35.8117H35.8176H35.8235H35.8293H35.8351H35.8408H35.8465H35.8521H35.8577H35.8632H35.8686H35.874H35.8793H35.8846H35.8898H35.895H35.9001H35.9052H35.9102H35.9151H35.92H35.9248H35.9295H35.9342H35.9389H35.9434H35.948H35.9524H35.9568H35.9611H35.9654H35.9696H35.9738H35.9778H35.9819H35.9858C36.6884 46.5001 37.3101 46.4964 37.887 46.4926L38.0253 46.4917C38.5485 46.4883 39.0389 46.4851 39.5171 46.4851C40.0012 46.4851 40.48 46.4469 40.9559 46.3807C42.4571 46.1537 43.3698 45.1598 43.4733 43.6501C43.5825 41.7861 43.4038 39.9278 42.9263 38.1279C42.5439 36.7386 41.9924 35.7384 41.2826 35.0016L41.2734 34.992L41.2734 34.992C40.6229 34.3045 39.9702 34.0525 39.3979 34.0525C38.9678 34.0525 38.4764 34.1852 37.9038 34.5346C37.9027 34.5353 37.9016 34.5359 37.9005 34.5366L37.7184 34.6493L37.7005 34.6605C37.3588 34.8753 36.9531 35.1303 36.5051 35.3563C35.0326 36.1207 33.5334 36.5247 32.0374 36.5247C31.2155 36.5247 30.3731 36.3969 29.5768 36.1365C28.6116 35.8242 27.7502 35.3645 27.0429 34.987L27.0104 34.9697L27.0051 34.9669L27.0051 34.9669C26.9459 34.935 26.8889 34.9041 26.8336 34.8743C26.469 34.6772 26.1823 34.5222 25.8861 34.3945L25.8455 34.377L25.806 34.3571C25.7861 34.3472 25.7598 34.3348 25.7068 34.3102L25.7002 34.3072C25.6587 34.2879 25.5968 34.2592 25.5345 34.2281C25.3418 34.1349 25.1897 34.0655 25.0666 34.0195C25.0393 34.0093 25.0174 34.0018 25.0004 33.9963C24.2377 34.0433 23.6467 34.2501 23.1662 34.5789C22.6592 34.9258 22.1875 35.4689 21.7764 36.3013C20.8284 38.2349 20.4018 40.517 20.5287 43.5929L24.2241 46.4853ZM24.2241 46.4853L24.2147 46.4852M24.2241 46.4853L24.2147 46.4852M24.2147 46.4852C22.8482 46.472 22.175 46.2256 21.6661 45.8286L21.662 45.8253M24.2147 46.4852L21.662 45.8253M21.662 45.8253C20.9144 45.2463 20.5703 44.5964 20.5287 43.5932L21.662 45.8253Z" stroke="#444B8C" stroke-width="3"/>
<path d="M35.7264 28.2434C34.7633 29.2119 33.5162 29.7859 32.1685 29.8838H31.7539C30.246 29.8838 28.8293 29.294 27.7723 28.2193C26.7135 27.1427 26.1332 25.7118 26.1318 24.1824C26.1585 20.9645 28.6455 18.5 31.7837 18.5C33.3072 18.5 34.7087 19.0902 35.7503 20.1494L36.8198 19.0976L35.7503 20.1494C36.7917 21.2084 37.376 22.6398 37.376 24.2069C37.376 25.7484 36.7843 27.1796 35.7264 28.2434Z" stroke="#444B8C" stroke-width="3"/>
</g>
<defs>
<clipPath id="clip0">
<rect width="26" height="31" fill="white" transform="translate(19 17)"/>
</clipPath>
</defs>
</svg>
