<svg width="52" height="52" viewBox="0 0 52 52" fill="none" xmlns="http://www.w3.org/2000/svg">
<rect x="52" y="52" width="52" height="52" rx="8" transform="rotate(-180 52 52)" fill="currentColor"/>
<g clip-path="url(#clip0_764:14769)">
<path d="M25.9996 38C21.7975 38 17.5953 38 13.4464 38C11.7443 38 11.0528 37.2599 11.0528 35.5683C11.0528 30.4405 11.0528 25.3128 11.0528 20.2379C11.0528 18.652 11.7975 17.859 13.3932 17.859C14.9358 17.859 16.4783 17.859 18.0209 17.859C18.3932 17.859 18.606 17.7533 18.7656 17.4361C19.2443 16.4846 19.8294 15.5859 20.3081 14.6344C20.5209 14.2115 20.8932 14 21.4783 14C24.5102 14 27.5422 14 30.6273 14C31.1592 14 31.5315 14.2115 31.7443 14.6872C32.223 15.5859 32.7549 16.4846 33.2336 17.4361C33.3932 17.8062 33.6592 17.9119 34.0315 17.9119C35.5741 17.9119 37.0634 17.9119 38.606 17.9119C40.2017 17.9119 40.9996 18.7048 40.9996 20.2907C40.9996 25.4185 40.9996 30.5463 40.9996 35.674C40.9996 37.3128 40.2549 38.0529 38.606 38.0529C34.4039 38 30.2017 38 25.9996 38ZM26.0528 34.1938C30.3081 34.0881 33.4464 30.7577 33.34 26.5286C33.2337 22.6696 29.7762 19.4449 25.8932 19.5507C21.6911 19.6035 18.4996 22.9868 18.606 27.2159C18.7124 31.0749 22.1698 34.2996 26.0528 34.1938Z" fill="white"/>
<path d="M25.9992 23.1967C28.0205 23.1967 29.6694 24.8354 29.6694 26.8442C29.6694 28.853 28.0205 30.4918 25.9992 30.5447C23.9248 30.5447 22.2758 28.853 22.2758 26.8442C22.329 24.8354 23.9779 23.1967 25.9992 23.1967Z" fill="white"/>
</g>
<defs>
<clipPath id="clip0_764:14769">
<rect width="30" height="24" fill="white" transform="translate(11 14)"/>
</clipPath>
</defs>
</svg>
