<svg width="245" height="200" viewBox="0 0 245 200" fill="none" xmlns="http://www.w3.org/2000/svg"><path d="M127.2 127.7c64.9 0 117.4-10.5 117.4-23.4 0-12.9-52.5-23.3-117.4-23.3C62.4 81 9.8 91.4 9.8 104.3c0 13 52.6 23.4 117.4 23.4Z" fill="#EDEAEE"/><path d="M162.1 59.5V114H66.3a3 3 0 0 1-3.1-3V60.5l99-1.1Z" fill="#EAEEF7"/><path d="M87 7.5v33.7a1.3 1.3 0 0 1-1.3 1.2H69.6a1.3 1.3 0 0 1-1.3-1.2V7.5a1.3 1.3 0 0 1 1.3-1.3h16.1A1.3 1.3 0 0 1 87 7.5Z" fill="#DC6848"/><path d="M80.7 14.2h7.8a.6.6 0 0 1 .6.6v1.5a.6.6 0 0 1-.6.6h-7.8v-2.7Z" fill="#6F3E45"/><path d="M87 7.5v33.7a1.3 1.3 0 0 1-1.3 1.2h-7.1V6.2h7.1A1.3 1.3 0 0 1 87 7.5Z" fill="#823C44"/><path d="M66.3 14.2h14.4v2.7H66.3a.3.3 0 0 1-.3-.3v-2a.3.3 0 0 1 .3-.4Z" fill="#DC6848"/><path d="M198.5 62.6v47.1c-14.7 2.6-36.4 4.3-36.4 4.3V64.1s7.4-22.6 9-29c1.6-6.2 8-5.6 11.8-6.2l1.5.1c1.9.5 3.9 2 5.4 3.4l2.2 2.4 2.6 11 3.9 16.8Z" fill="#BAC1D4"/><path d="M188 71.9v23.5l-13.3.7V72c0-3.5 3-6.7 6.6-6.7h.3c3.5.2 6.4 3.3 6.4 6.7Z" fill="#3F484D"/><path d="M187 66a8 8 0 0 0-5.5-2.4 7.9 7.9 0 0 0-8.3 8v25.6a.6.6 0 0 0 .2.4.6.6 0 0 0 .4.2l14.9-1a.6.6 0 0 0 .5-.6V71.5c0-2-.8-4-2.2-5.5Zm.7 29.4-12.7.7a.3.3 0 0 1-.2 0 .3.3 0 0 1-.1-.3v-24c0-3.4 3-6.6 6.6-6.6h.3c3.5.2 6.4 3.3 6.4 6.7V95a.3.3 0 0 1-.3.3Z" fill="#fff"/><path d="M203 63.7h-5.8a1.3 1.3 0 0 1-1.1-.8l-15.2-35.6-2.3-3.3 3.7-2.1 5.5-3 1.3 3 2.5 6L205.3 60a2.5 2.5 0 0 1-2.3 3.6Z" fill="#213D60"/><path opacity=".1" d="M198.5 62.6v12h-2.6a1.3 1.3 0 0 1-1.1-.9l-10.5-25.9-7.9 20.1a5 5 0 0 1-4.7 3.2l-9.6-1.5-99-.2V60s24-37.7 25.8-37.7l93.4-.4 16.2 40.7Z" fill="#213D60"/><path d="m187.8 20.3-.6 1.6-2.8 7.1-13 33.3a5 5 0 0 1-4.8 3.2h-4.5l-99-.2h-7a2.5 2.5 0 0 1-2-4c4-5.7 11.3-16.4 16.7-25.6l2.8-4.7c2.9-4.8 4.7-8 5.7-10a5 5 0 0 1 4.5-2.8h13.8l88.5-.5a1.9 1.9 0 0 1 1.7 2.6Z" fill="#5681AB"/><path d="M125 36.7c26 0 47.2-2.5 47.2-5.6 0-3-21.1-5.6-47.3-5.6-26 0-47.3 2.5-47.3 5.6 0 3 21.2 5.6 47.3 5.6Z" fill="#5F8DB4"/><path d="M121.4 76.6V114h-18V76.6a.6.6 0 0 1 .7-.7h16.7a.6.6 0 0 1 .6.7Z" fill="#3F484D"/><path opacity=".1" d="M75.5 96.8a50.3 50.3 0 0 1-5.4.8V77.2a.3.3 0 0 1 .3-.3l5.7-.1-.6 20ZM90.8 96.8a50.2 50.2 0 0 0 5.4.8V77.2a.3.3 0 0 0-.3-.3l-5.7-.1.6 20Z" fill="#213D60"/><path d="m75.5 96.8-5.7.2a.3.3 0 0 1-.3-.3v-20a.3.3 0 0 1 .3-.3l5.7-.1v20.5ZM90.7 96.8l5.3.2a.6.6 0 0 0 .6-.6V77a.6.6 0 0 0-.6-.6l-5.3-.1v20.5Z" fill="#5681AB"/><path d="M89.8 77.2H76.5v18.6h13.3V77.2Z" fill="#3F484D"/><path d="M75.5 76.3v20.5h15.2V76.3H75.5Zm14.3 19.5H76.5V77.2h13.3v18.6Z" fill="#fff"/><path opacity=".1" d="M134.9 97.1c-.5.3-5.3 1-5.3 1a.3.3 0 0 1-.3-.3V76.6h.3l5.9-.2-.6 20.7ZM150.6 97.1a51.7 51.7 0 0 0 5.6.9V76.8a.3.3 0 0 0-.3-.3H150l.6 20.6Z" fill="#213D60"/><path d="m134.9 97.1-6 .2a.3.3 0 0 1-.2-.2V76.3a.3.3 0 0 1 .3-.3l5.9-.1v21.2ZM150.6 97.1l5.4.2a.6.6 0 0 0 .5-.2l.1-.2V76.7a.6.6 0 0 0-.6-.7l-5.4-.1v21.2Z" fill="#5681AB"/><path d="M149.6 76.9H136V96h13.7V77Z" fill="#3F484D"/><path d="M134.9 75.9v21.2h15.7V75.9h-15.7Zm14.7 20.2H136V77h13.7V96Z" fill="#fff"/><path opacity=".1" d="m93.2 18.1-5.8 6.6a1.5 1.5 0 0 1-1 .5l-9.6.4 2.5-4.6a5 5 0 0 1 4.5-2.8h9.4Z" fill="#213D60"/><path opacity=".3" d="m99.4 54.3.4-.2L112 43a1 1 0 0 0 .1-1.1l-3.7-4.1-6.2.3v6.8l-2.7 9.4Z" fill="#213D60"/><path d="M99.4 54.3H84.6a.6.6 0 0 1-.6-.6V36.8l5.5-6.5h10v24Z" fill="#EEF1F9"/><path d="M94.8 39H87V51h7.7V39Z" fill="#3F484D"/><path d="m108.3 38.8-.5 1L100 54a.6.6 0 0 1-.6.3V38.2h8.5l.4.6Z" fill="#BAC1D4"/><path d="M95.2 51.3h-8.6V38.6h8.6v12.7Zm-7.8-.7h7V39.4h-7v11.2Z" fill="#fff"/><path d="M109.5 38.8H98.3a1 1 0 0 1-.7-.2l-6.9-7L84 39h-2.3a.5.5 0 0 1-.4-.8l8-9a1 1 0 0 1 .7-.3h10.4c.2 0 .5 0 .7.3l2.4 2.4 6.3 6.3.1.3a.5.5 0 0 1-.2.4l-.2.1Z" fill="#213D60"/><path opacity=".1" d="m109.1 38.7-.2.1h-.6l-2.5 4.6-6.4-3.6h-1.8a1 1 0 0 1-.6-.3l-6.3-6.3-6.7 5.9c-1.8-2 4.5-7.2 5-8.4.3-1.3 2.5-.6 3-.5.7.1 5.9 5.6 8.7 6.2a56.1 56.1 0 0 0 7.9 1.5l.5.8Z" fill="#213D60"/><path d="m103.5 31.7-5.6-.2c-5.2-.2-7.3-2.5-7.3-2.5h9.8c.2 0 .5 0 .6.3l2.5 2.4Z" fill="#2D4E69"/><path opacity=".3" d="m144 54.3.5-.2 12-11.1a1 1 0 0 0 .2-1.1l-3.8-4.1-6.2.3v6.8l-2.6 9.4Z" fill="#213D60"/><path d="M144 54.3h-14.7a.6.6 0 0 1-.7-.6V36.8l5.5-6.5h10v24Z" fill="#EEF1F9"/><path d="M139.4 39h-7.7V51h7.7V39Z" fill="#3F484D"/><path d="m153 38.8-.6 1-7.8 14.2a.6.6 0 0 1-.5.3V38.2h8.5l.3.6Z" fill="#BAC1D4"/><path d="M139.9 51.3h-8.6V38.6h8.6v12.7Zm-7.8-.7h7V39.4h-7v11.2Z" fill="#fff"/><path d="M154.1 38.8H143a1 1 0 0 1-.6-.2l-7-7-6.7 7.5h-2.3a.5.5 0 0 1-.3-.8l8-9a1 1 0 0 1 .6-.3H145c.3 0 .5 0 .7.3l2.4 2.4 6.3 6.3a.5.5 0 0 1 0 .7l-.3.1Z" fill="#213D60"/><path opacity=".1" d="m153.8 38.7-.2.1h-.7l-2.5 4.6-6.3-3.6h-1.9a1 1 0 0 1-.6-.3l-6.3-6.3-6.7 5.9c-1.8-2 4.6-7.2 5-8.4.4-1.3 2.6-.6 3.1-.5.6.1 5.8 5.6 8.6 6.2a56.1 56.1 0 0 0 8 1.5l.5.8Z" fill="#213D60"/><path d="M148.1 31.7c-1 0-2.8 0-5.5-.2-5.3-.2-7.4-2.5-7.4-2.5h9.8c.3 0 .5 0 .7.3l2.4 2.4Z" fill="#2D4E69"/><path opacity=".3" d="M87 7.5a.6.6 0 0 1-.6.6H68.9a.6.6 0 0 1-.6-.6 1.3 1.3 0 0 1 1.3-1.3h16.1A1.3 1.3 0 0 1 87 7.5Z" fill="#E0A65A"/><path d="M129.3 43c6 1.6 3.7 3.8 9.8 3.5l.1-5.2s-1 .3-2.6-3.4c-1.5-3.7-6.7-5.7-9-3.5-2.5 2.2-4.3 7 1.7 8.6Z" fill="#AAABAB"/><path d="M160.2 51.2c-.4.6-1 1.1-1.6 1.6l-1 .6a22.7 22.7 0 0 0-5.9 4.2c-.7.9-1 1.7-1 2.7.2 1.9.6 2.4 1.3 2.8l1.2.6.7.4c1.5 1.1 3.2 3.5 2.2 5.5-.9 1.8-3 2.2-5.2 1.7a9 9 0 0 1-1.1-.3l-.9-.4c-1.1-.5-2-1.4-2.7-2.2-1-1-2.1-2-4.1-2.2h-.7a9 9 0 0 0-3.9.7c-1.5.7-2.6 1.9-2.6 3.3 0 2.7 4.3 3 7.1 2.6 2.7-.4 5.4-.2 8 .5 1.8.6 3.5 1.5 4.4 3 2.4 3.8 2 8-1.5 9.3-3.5 1.3-2.7 5-3.3 10.5h-6a71 71 0 0 1-13.8-8.2 20.5 20.5 0 0 1-7-8c-1.9-4.2-2.5-7.4.6-12.7l.3-.4c3.1-4.9 8.6-5.2 12.5-5.3 4.1 0 4.4-.9 6-1.8v-.1c1.4-.9 2.2-1 2.9-2.1l1.4-2.7.3-1.5-.2-1.7c0-1-1.5-.9-1.5-2.3 0-.8-1-5.3 4.3-7.7 7.5-3.4 10.2 1.6 11 2.9l.5 1.3c.4 1.9.5 3.7-.7 5.4Z" fill="#BAB9B9"/><path d="M129.3 37.7c-.3-.1-.5 0-.9.5 0 .2-.2.3-.3.4h-.6c-.2 0-.9-.5-1.3-1l-.4-.8c-.1-.8 0-1.6.5-2.3.9-1.4 1.8-1.1 2.3-1a.8.8 0 0 1 .6.8 20.5 20.5 0 0 0 .4 2.6c.1.6 0 .8-.3.8Z" fill="#686868"/><path d="M131 51a4 4 0 0 1-1.7 3.2 5 5 0 0 1-4 .9c-1.3-.2-2.6-1-3.8-2l-.8-.7a11 11 0 0 1-1.6-3.3 5.8 5.8 0 0 1 1-4.6c1.2-1.6 2-2 3-1.7.1 0 .4 0 .6.2.5.2 1 .6 1 1 0 .5-.4 1.2-1.1 1.8-.4.3 0 0 0 .5 0 .6-.4.3-.2.8.2.4.9 0 .9 0a6 6 0 0 1 2.9-1.2h.5c1 .3 2.4 1 2.9 2 .4 1 .6 2 .5 3.1Z" fill="#AAABAB"/><path d="m149.7 26-.2 1c0 .4-.1.7-.3 1-.4.6-1.2 1-1.9.5-.7-.7-1.2-.9-1.2-2V26c.2-1 .9-2 1.7-2.1 1.5-.4 2 1.7 1.9 2Z" fill="#BAB9B9"/><path d="M160.2 51.2c-.4.6-1 1.1-1.6 1.6l-1 .6a22.7 22.7 0 0 0-5.9 4.2c-.7.9-1 1.7-1 2.7.2 1.9.6 2.4 1.3 2.8l1.2.6.7.4c-.8 2.7-4.4 3.8-7.7 4.3-1-1-2.1-2-4.1-2.2h-.7a9 9 0 0 0-3.9.7 1 1 0 0 1-.1-.5c-.1-1-1.7-2.7-5.2-2.1a7.2 7.2 0 0 0-4.9 3.4s1.9-.7 2.5.1c.6 1 0 2.6-1.4 3.4-1.3.9-4 .8-3.9-2.2.1-1.4-.3-2-.9-2.2 3.2-4.8 8.7-5.2 12.6-5.3 4.1 0 4.4-.9 5.9-1.8h.1c1.4-1 2.2-1 2.9-2.2.5-.9 1-1.8 1.3-2.7.3-.5.4-1 .4-1.5 5-3.2 13-9.5 13.5-8.8l.5 1.3c.5 1.9.6 3.7-.6 5.4Z" fill="#AAABAB"/><path d="M160.2 51.2c-.4.6-1 1.1-1.6 1.6l-1 .6a22.7 22.7 0 0 0-5.9 4.2c-.2-1-.7-2-1.5-2-1.8-.3-2.3-.2-3.6 1 0 0 1.8-4 5-6.2 5.8-3.7 7.5-2.2 7.8-1.1l.8 1.9Z" fill="#B3B1B1"/><path d="M156.1 69.6c-1.2 2.4-4.5 2.4-7.2 1-1.2-.5-2-1.4-2.7-2.2-1.1-1-2.1-2-4.1-2.2h-.7l-.6-1.2c-.6-1.8 1.4-2.9 2.3-2.5l1.4 1s.4-1.5 1.7-1c1.3.5 1.8 1.5 1.1 1.7a1.1 1.1 0 0 1-1.1-.3s.4 1.3 2.2 1.4c1.9 0 2-1.5 1.9-2-.2-.7 0-1.2.5-1 .4.3 1 .8 1.2.8l1.2.6.7.4c1.4 1.1 3.2 3.5 2.2 5.5Z" fill="#BAB9B9"/><path d="M148.7 68s1.9-.8 3 .3c1.1 1.2.5 1.5-.3 1.9a2.2 2.2 0 0 1-2.3-.5c-.5-.5-.5-1-.7-1.2-.1-.2 0-.6.3-.5Z" fill="#B3B0B0"/><path d="M149.6 66.3c-.4.1-.3.6.2.6 0 0-.5.4 0 .4.6 0 1.3 0 2 .5.8.5.8.5.7 0 0-.5-1.7-1.9-2.9-1.5Z" fill="#A5A4A3"/><path opacity=".7" d="M150.9 71.3ZM152.8 85.7c-3.5 1.3-2.6 4.8-3.2 10.4h-6a70 70 0 0 1-13.9-8.1c.7-2.8 2.3-5 4.8-5.4 3.6-.5 5.7 1.6 9.2.8 3.6-.8 3.6-3.6 2.3-5-1.3-1.4-1.8-4 0-3.7 1.7.3 4.8 1.3 4.3 0l-.4-1.4c1.9.6 3.6 1.5 4.5 3 2.3 3.8 2 8-1.6 9.4Z" fill="#A7A4A8"/><path d="M137.5 77.9s.4-1 1.8-.6c1.5.4 2.8 1.6 3.5 1.2 0 0-.3.8-1.3.3-1.1-.4-1.6-.8-2.5-.5 0 0-.4-.7-1.5-.4Z" fill="#989798"/><path d="M128.4 66.3s.3-2.2 4.1-2.7c3.8-.4 4.8 2.2 4.8 2.2a5 5 0 0 0-5-1.3c-3 .7-4 1.8-4 1.8Z" fill="#8F8F8F"/><path d="M129.3 37.7c-.3-.1-.5 0-.9.5 0 .2-.2.3-.3.4h-.6c-.2 0-.9-.5-1.3-1 .3-.4.7-.5 1.3-.2 1.2.5 1.7-.4 2-1l.1.5c.1.6 0 .8-.3.8Z" fill="#797A7A"/><path d="M124 54s.5-1.6 3.1-.4l1-.5s-1.5-.6-1.1-1.8c.4-1.1 1.7-1.3 1.7-1.3s-.6.2-.6-.6-.3-1.4-1-1.2c-.7.2-.8 1.3-.8 1.3s-2 .6-1.9 1.8c0 0-1.7 0-.5 2.6Z" fill="#B3B0B0"/><path d="M131 51a4 4 0 0 1-1.7 3.2c-1 .8-1.2-.6-.8-1.2l.5-.9.4-1.2c.2-.4.2-.8.1-1.2-.2-.7-.8-1.1-1.3-1.6l-.7-.8c-.5-.6-.3-1 .2-1.3.9.2 2.3.9 2.9 2 .4 1 .6 2 .5 3Z" fill="#8F8F8F"/><path d="M149.5 27c0 .4-.1.7-.3 1-.4.6-1.2 1-1.9.5-.7-.7-1.2-.9-1.2-2V26c.5.8 1 1.5 1.8 1.3l1.6-.4Z" fill="#AAABAB"/><path d="M122.8 44.8c-1.4.7-1.5 1-2.9 3l-.8 1.3a5.8 5.8 0 0 1 1-4.6c1.2-1.6 2-2 3-1.8l.6.2-.2.4c.3.8.7.8-.7 1.5Z" fill="#8F8F8F"/><path d="M119.7 48.1c0-.9.4-1.7 1-2.4 1-1.2 1.8-1.9 2.7-1.6.9.3 0 .4-.8.8-.7.4-2.3 2-2.9 3.2Z" fill="#B3B0B0"/><path d="M94.4 38.7V47s-.2 1.7-3.2 1.4c-3-.3-10.8-.7-9-6.6.8-2.7 1.6-4.5 2-5.9.3-1.7 0-2.8-1.6-4.2-.4-.4-.8-.8-1-1.3-1.4-2.7.8-6.2 4.3-5.2 1.6.4 3 1.3 4 2.5 1.8 1.9 2.5 4.3 1.3 6.5-.9 1.4-.5 2.5.4 3.2 1 1 2.8 1.4 2.8 1.4ZM122.8 20.9c-1.7.6-1.4 3-.4 3 1 0 2.3-1.9 2.3-1.9s.4-2-1.9-1.1Z" fill="#AAABAB"/><path d="M87.4 17.2c0 2-2.1 5.2-3.7 4.2a3.5 3.5 0 0 1-1.7-2.2c-.3-1.5.6-3.3 3.5-3.7 1.4-.1 2 .6 2 1.7Z" fill="#A7A4A8"/><path d="M121.4 76.5v37.4l-13.8 3.2V79.7a.7.7 0 0 1 .5-.8l12.9-3a.4.4 0 0 1 .4.3v.3Z" fill="#DC6848"/><path d="m116 115.2-1.5.3v-38l1.6-.3v38Z" fill="#C15E42"/><path d="M107.7 99.5v-2l13.7-3.1v2l-13.7 3.1ZM121.4 76.5v1.4L107.6 81v-1.4a.7.7 0 0 1 .5-.7l12.9-3a.4.4 0 0 1 .4.3v.3Z" fill="#C15E42"/><path d="M109.2 78.7v38l-1.6.4V79.7a.7.7 0 0 1 .5-.8l1-.2Z" fill="#C15E42"/><path d="M109.6 99.7h-.4V95h.4c.3-.1.5 0 .5.4V99a.7.7 0 0 1-.5.8Z" fill="#F7984B"/><path d="m91.6 37.3-.4 3c-.7 4.6-6.3 2.9-6-2.2.3-2.2-.3-2.4-1-2.3.3-1.7 0-2.8-1.6-4.2-.4-.4-.8-.8-1-1.3 1.1-.6 3.2-.4 5.2-1 1.2-.3 2.3-.9 3.2-1.7 1.7 1.9 2.4 4.3 1.2 6.4-.9 1.5-.4 2.6.4 3.3ZM87.4 17.2h-.6c-2-.5-.8-.4-4 1.6l-.8.4c-.3-1.5.6-3.3 3.5-3.7 1.4-.1 2 .6 2 1.7Z" fill="#BAB9B9"/><path d="M192.2 131.5h-38a1.9 1.9 0 0 1 0-3.8h38a11.2 11.2 0 0 0 11.2-11.2V86.2a1.9 1.9 0 1 1 3.8 0v30.3a15 15 0 0 1-15 15ZM205.3 46.8a1.9 1.9 0 0 1-2-2V15a11.2 11.2 0 0 0-11.1-11.2h-38a1.9 1.9 0 0 1 0-3.8h38a15 15 0 0 1 15 15V45a1.9 1.9 0 0 1-2 1.9ZM46.3 46.8a1.9 1.9 0 0 1-2-2V15a15 15 0 0 1 15-15h38a1.9 1.9 0 1 1 0 3.8h-38A11.2 11.2 0 0 0 48.3 15V45a1.9 1.9 0 0 1-2 1.9Z" fill="#1A1A48"/><path d="m89.8 68.1-7-.4L87 81.4l-9.6-7.1-1.3 8.4-6.6-9.2-4.5 6.6-1.6-9.5-6.9-14.5 12.9 8.5.1-1L72.2 49l5 8.8 7.4-6.5-1.5 9.1h9.7l-8.2 5.1 5.2 2.6Z" fill="#fff"/><path d="M97.4 131.5h-38a15 15 0 0 1-15-15V86.2a1.9 1.9 0 0 1 3.8 0v30.3a11.2 11.2 0 0 0 11.2 11.2h38a1.9 1.9 0 1 1 0 3.8Z" fill="#1A1A48"/><path d="M83.5 71.1c-.7 1.3-1.4 2.5-1.6 3.2-.2.6.2-.3-.5-1-.4-.3-1.8-.3-2-.5h-.2l.4-.4.7-.6.3-.4-.2-2.4.2-3.3s2 3 1.7 4.5l1.2 1Z" fill="#FED3C8"/><path d="M84 70.6c-.5 1-1.8 2.7-2 3.6-.1.6-.6 0-1.3-.6-.4-.4-1-.6-1.3-.8l.2-.4.2-.4a1.7 1.7 0 0 0 1-.6l.2-.5c.3-.9.7-1.3.7-1.3s.3 1.3.1 2c-.1.5.2.4.6 0 .3-.4.8-1.3 1.2-1.2l.4.2Z" fill="#EBB9BD"/><path d="M78.5 65.6v9a1 1 0 0 1-1 .9H61.7a1 1 0 0 1-1-1v-8.9a1 1 0 0 1 1-.9h15.8a1 1 0 0 1 1 1Z" fill="#3F6D8E"/><path d="M60.7 74.6v-1.2a1 1 0 0 0 1 .8h15.8a1 1 0 0 0 1-.8v1.2a1 1 0 0 1-1 .9H61.7a1 1 0 0 1-1-1Z" fill="#365E7D"/><path d="M77.4 63.6v.8a.3.3 0 0 1-.3.3h-2a.3.3 0 0 1-.3-.2v-.9a.3.3 0 0 1 .2-.2h2a.3.3 0 0 1 .4.2Z" fill="#477B9E"/><path d="M64 69.4V72a.8.8 0 0 0 1 .8h4.7a.8.8 0 0 0 .9-.8v-2.7a.8.8 0 0 0-.9-.9H65a.8.8 0 0 0-.8.9Z" fill="#3D4C70"/><path d="M70.6 70v-.6a.8.8 0 0 0-.9-.9H65a.8.8 0 0 0-.8.9v.7a.8.8 0 0 1 .8-.9h4.8a.8.8 0 0 1 .9.9Z" fill="#324059"/><path d="M60.7 65.6V67h17.8v-1.4a.9.9 0 0 0-.9-.9h-16a.9.9 0 0 0-.9 1Z" fill="#DBEDFF"/><path d="M71.7 65.6v9a.9.9 0 0 0 1 .9h1.9a.9.9 0 0 1-1-1v-8.9a.9.9 0 0 1 1-.9h-2a.9.9 0 0 0-.9 1Z" fill="#365E7D"/><path d="M69.6 63.1H65a1 1 0 0 0-1 1v1.1c0 .5.5 1 1 1h4.6c.6 0 1-.5 1-1v-1.1c0-.6-.4-1-1-1Z" fill="#477B9E"/><path d="M64.4 64.7v.8a1 1 0 0 0 1 .9h4.5a1 1 0 0 0 1-1v-.7h-6.5Z" fill="#477B9E"/><path d="M66.2 64.3v.7a.4.4 0 0 0 .2.3h1.7a.4.4 0 0 0 .4-.3v-.7a.4.4 0 0 0-.4-.4h-1.5a.4.4 0 0 0-.4.4Z" fill="#3D4C70"/><path d="M75.8 64.7h1.3a.3.3 0 0 0 .3-.3v-.8a.3.3 0 0 0-.2-.2H75.8a.3.3 0 0 1 .3.2v.8a.3.3 0 0 1-.3.3Z" fill="#3F6D8E"/><path d="M75.7 75.5h2a.9.9 0 0 0 .8-1v-8.9a.9.9 0 0 0-.9-.9h-2a.9.9 0 0 1 1 1v8.9a.9.9 0 0 1-1 .9Z" fill="#365E7D"/><path d="M68.5 64.8v-.5a.4.4 0 0 0-.4-.4h-1.5a.4.4 0 0 0-.4.4v.5a.4.4 0 0 1 .4-.4H68a.4.4 0 0 1 .4.4Z" fill="#324059"/><path d="m17.9 195 5.7-32.4a.5.5 0 0 1 .6-.3l27.7 4.6 21.4-1h.2l.1.1a.4.4 0 0 1 .2.4c0 1.4-.3 5.8-1 13.8a1440 1440 0 0 0-1.6 18.5l-.4.2a46.9 46.9 0 0 1-22-.4l-.1-.3-1.6-17.6a.5.5 0 0 0-.3-.4h-.2a.5.5 0 0 0-.3.3L41 197.6l-.2.3h-.3a40 40 0 0 1-22.7-2.8v-.2Z" fill="url(#a)"/><path d="M22.3 157.6s-2.5 6 4.6 9.8c7 3.9 13.2 6 23.6 6a84 84 0 0 0 23.1-5c2-.7 2-1.7-.3-2.5a79 79 0 0 0-23.6-4c-15.5 0-27.4-4.3-27.4-4.3ZM24.7 175.9a40.5 40.5 0 0 0-1 6.3V182.8a16 16 0 0 0 .1 3.2 8.6 8.6 0 0 0 2.7 4.2 7.3 7.3 0 0 0 4.6 1.9c1.7 0 3.3-.5 4.8-1.3l.6-.3.5-.3.8-1c.5-.7.9-1.4 1.2-2.2a58.5 58.5 0 0 0 2.3-10l.1.2a40.7 40.7 0 0 1-16.1-4.6h.3l-.5 1.9-.4-.1.5-2v-.2h.3a40.2 40.2 0 0 0 16 4.6l.1.1v.2a58.3 58.3 0 0 1-2.4 10 12 12 0 0 1-1.2 2.3l-.8 1-.6.3-.6.3a10 10 0 0 1-5 1.3c-1.7 0-3.4-.7-4.7-1.9a8.9 8.9 0 0 1-3-7.6v-.3h.1V182.1a36.2 36.2 0 0 1 .5-3.8l.4-2.6h.4Z" fill="#20214E"/><path d="M39 180.9c-6.6-.3-13.2-3.2-13.3-3.2l.2-.4s6.6 2.9 13.2 3.2v.4ZM25 177.8h-.3l.2-.7h.2l-.2.7ZM31.7 191.1h-.5v-.2h1.3v.2h-.8Zm-1.8-.1-1.2-.4v-.2l1.3.3v.3Zm4-.2v-.2l1.1-.5.1.2-1.2.5Zm-6.4-.8-1-.9.1-.1 1 .8-.1.2Zm8.7-.5-.1-.1.9-1 .1.2a8 8 0 0 1-.9 1ZM25.7 188c-.3-.3-.5-.7-.6-1.1l.2-.1c.1.4.3.8.6 1.1l-.2.1Zm12.2-.5h-.2l.7-1.2h.1c-.1.5-.4.9-.6 1.2Zm-13.2-2-.2-1.2h.2l.2 1.2h-.2Zm14.3-.4H39l.3-1.3h.2c0 .5-.2 1-.4 1.3ZM24.3 183v-1.3h.2v1.3h-.2Zm15.4-.4h-.2l.2-1.3h.2c0 .4 0 .9-.2 1.3Zm-15.1-2.2h-.2l.1-1.4h.2l-.1 1.4ZM40 180H40v-.7h.2v.7ZM68 177.2l.5 2.5c0 .9.2 1.7.3 2.6l.1 1.3v.2h.1v1.1c0 .8 0 1.7-.2 2.5a8.9 8.9 0 0 1-2.7 4.4 7.5 7.5 0 0 1-4.8 1.9 10 10 0 0 1-5-1.3c-.2 0-.3-.2-.5-.3-.2 0-.4-.2-.6-.4a5 5 0 0 1-.9-1 12 12 0 0 1-1.1-2.2 59 59 0 0 1-2.4-10v-.2h.1a40.3 40.3 0 0 0 16-4.6l.2-.1v.2l.6 2h-.4l-.5-1.9.3.1a40.7 40.7 0 0 1-16.2 4.6l.2-.2a55.4 55.4 0 0 0 2.3 10c.3.8.7 1.5 1.2 2.2l.8 1 .5.3.5.3c1.5.8 3.2 1.3 4.9 1.3 1.7 0 3.3-.7 4.6-1.9a8.6 8.6 0 0 0 2.7-4.2 9 9 0 0 0 .1-2.5v-1.3a29.7 29.7 0 0 0-1-6.3l.3-.1Z" fill="#20214E"/><path d="M53.3 182.3v-.4c6.6-.3 13.2-3.1 13.2-3.1l.2.3s-6.7 2.9-13.4 3.2ZM67.4 179.2v-.6h.1l.2.6h-.3ZM60.7 192.5h-.9v-.2h1.3v.2h-.4Zm1.8-.1v-.2a7 7 0 0 0 1.1-.4l.1.2a7 7 0 0 1-1.2.4Zm-4-.2-1.2-.5v-.2l1.3.5-.1.2Zm6.4-.8-.1-.2 1-.8.1.1a6 6 0 0 1-1 .9Zm-8.7-.4-1-1 .2-.1 1 .9-.2.2Zm10.5-1.6h-.2l.6-1.2h.2l-.6 1.3Zm-12.2-.5-.7-1.1.2-.1.6 1.1-.1.1Zm13.2-1.9h-.2l.2-1.3h.2l-.2 1.3Zm-14.4-.4-.4-1.3h.3l.3 1.2h-.2Zm14.8-2.2h-.3V183h.3v1.3Zm-15.4-.4-.3-1.3h.3c0 .4 0 .8.2 1.3h-.2Zm15.1-2.2-.1-1.3h.2l.1 1.3h-.2ZM52.3 181.4v-.7h.2v.7h-.2Z" fill="#20214E"/><path d="M.1 138v-1H0v1.6h.1v-.6Z" fill="#F4CCC2"/><path d="M.1 138.6H0v.4l.3.2-.2-.6Z" fill="#FDFDFD"/><path d="m5.2 137.1 1.3-.3c.7 0 1.1-.4 1.5-.9.7-.9 1.4-1.8 2.3-2.5.3-.2.6-.4 1-.3a.7.7 0 0 1 .5.8c0 .4.1.3.4.3 1.8-.3 2.7-1.8 3.8-3 1.9-2.2 3.6-4.5 5.3-6.9 1-1.5 2-3.2 3.2-4.7.5-.7 1-1.5 2-1.5.4-.1.4-.6.8-.7.3-1.2.8-2.4 1-3.6.2-.8.8-1.2 1.8-1.1l.2-.1.2-.7c.4.3.3.7.3 1 1 2.1.5 4.1 0 6.2l-.1.2c-1 2-.5 3.8.2 5.6 1 2.7 3 4.6 5.4 6a34.6 34.6 0 0 0 7.4 3.4l3-5.3 1.4-2.8c.2-.3.3-.5.7-.7-.5 1.5-1 3-1.7 4.3l-2.3 4.9c.1.3.4.3.6.3l4.2 1.5c1.3.6 2.6.5 3.9.2 3-.6 5.9-1.4 8.7-2.4.2 0 .5 0 .6-.4-1.4-3.4-3-6.8-5.4-9.7.2 0 .3.2.4.3 2.5 2.5 4.5 5.3 6.2 8.3-.6-.4-1-1.1-1.7-1.4l1 2.4c1 0 1.8-.6 2.6-1 3-1.2 6-2.9 8.8-4.6 0-.3-.1-.5.1-.7.2-1.8.3-3.5.3-5.3a3 3 0 0 0-.6-1.7 18 18 0 0 1-2.7-5.9c-1-.8-1-1.9-.2-2.7 0-.2.2-.2.4-.2 1 0 2 .4 2.8.8.2 0 .4.2.6 0 .6-.4 1.4-.5 2.1-.7 2-.8 3.6-2 5.2-3.2-.2-.3-.6-.3-.8-.7 1.2-.5 2.2-1.3 3.5-1.3.3 0 .5 0 .8-.2.1-.4 0-.8.4-1.2a1 1 0 0 0 .5-.6 2 2 0 0 1 1.6-1.5c.5-.1 1-.3 1.3-.7 1.8-1.8 3.8-3.5 5.6-5.4 2.2-2.3 4.5-4.6 6.4-7.3 1.1-1.6 2-3.3 2.9-5.2l1.9-4.3.2-.1c-.3-.5-7.3-7.2-7.8-7.3a80 80 0 0 1-6.7-3.4l-.4-.1a.2.2 0 0 1-.2.1 3 3 0 0 1-.8-.2c-1-.5-2-.6-3 0-.2.1-.5.1-.6-.2 0-.3-.5-.4-.4-.8l-.2-.1c-.2 0-1.5-.1-2 .2a17 17 0 0 0-1.9 3l-.3.6c.3-.1.4-.5.8-.6a.6.6 0 0 1-.2.5c-1 1.4-1.7 3-2.2 4.7v1l1.1-2 1.7-2.2c.1-.2.3-.2.5-.3l1.6-1.6c.3-.5.8-1 1.4-1.2-.3.6-.9 1-1.2 1.4l-.3.2c.2.3 0 .4-.1.6-1.1 1.2-2 2.7-2.6 4.3-.5 1.2-.6 2.5-.8 3.8v.9A4 4 0 0 0 84 83c1.6 1-.4.4 1.3 1.3 1 0 1.8-.4 2.4-1.2.5-.7 1-1.3 1.6-1.8a3.1 3.1 0 0 1 2.9-.7l.8-.4s.2-.1.2 0l-.1.3c.3.4.8.2 1.1.4l1 .3c0 .3-.2.2-.3.2-1.6.1-3 .7-4.3 1.6l-.3.2c-.3.5-1.7-.2-2.1.2.2.2-.8-.6-.9.8-.3-.5-1 2.9-.8 2.2-1 1.3-1.5 2.9-2 4.4-.3-.2-.2-.4-.2-.6.1-.5.2-1 0-1.5 0-.6-.3-.8-.9-.6-.6 0-1.1.5-1.5 1-.2-.2 0-.4 0-.5-.7.8-1.5 1.1-2.5 1.4l-.6.3c.2 0 .5.1.2.3l-2.2 1.5c-.6.3-.6.3-.9 1l-.3.3a8.2 8.2 0 0 0-3 3.6v.2c-.4 1.2-1 2.2-1.1 3.5a9 9 0 0 0 .2 4.5v.8c-.3-.3-.5-.7-.6-1a9.2 9.2 0 0 1 0-4.8c.2-1.4.6-2.7 1.3-3.9L73 95c-.6.3-.7.8-1 1.2l.6-1.7c.3-.4.6-.9-.2-1-.1-.1 0-.3 0-.4H72c-.9.5-1.8 0-2.7 0-.3 0-.6.1-.8-.1H68c-.4.2-.7.4-1.1 0a.5.5 0 0 0-.4.1c-.9.7-1.8 1.4-2.9 1.7-1.3.4-2.6 1-4 1.3l-1.5.1c0 .1-.1 0-.1 0h-.3l2-.4A24.2 24.2 0 0 0 66 93c-.5-.7-1.2-1.3-1.9-1.9a1.3 1.3 0 0 0-1.5-.1c-.4.3-.8.4-1.3.5-1 .2-2.2.5-3.3.5-2 .2-4.2.3-6.3 0-2 0-3.9-.5-5.7-1.3l-.6-.6-1 .1c-1.1.3-1.8 1.1-2.5 1.9.6 0 .9-.5 1.3-.7-.1.5-.9.6-.8 1 .1.4.4.8.3 1.2-.9-.3-1.7-.7-2.6-.6-.4 0-.7 0-1 .2-.2 0-.4 0-.4-.2-2 .4-3.8 1.2-5.8 1.5-1.5.2-3 .6-4.5 1a8.6 8.6 0 0 1 2 5.2l.2 3.1.1 3.7a1.4 1.4 0 0 1-.3 1c-.1-.9-.2-1.8-.1-2.7 0-1.3 0-2.6-.2-3.9-.3-1-.3-2-.5-3-.1-.7-.5-1.2-.7-1.7l-.7-1.7c-.4 0-.8.2-1.2.5-1.6 1-3.1 2.3-4.4 3.7a78.5 78.5 0 0 0-6.7 8.4c-1.4 2-2.6 4.2-4.3 6-.4.3-.7.8-.8 1.3.7.5.2 1 0 1.5l-1.4 2.6-2.7 6.9c-.3.8-.9 1.4-1.3 2-.9 1.3-2 2.4-2.7 3.7l-1.2 1.6c-.1.2-.2.3-.4 0l-1 3a5 5 0 0 0 5 .4Zm50-40.7c0 .2-.3.1-.5.1h-4c-.7 0-1.3-.2-2-.4a31 31 0 0 1-5-2 .8.8 0 0 1-.2-.5c3.7 2 7.7 2.7 11.8 2.8Z" fill="#F25833"/><path d="M21.3 163c.6.6 1 .6 1.5 0l1-.8c.2-.2.2-.4.2-.6v-2.9c0-.6 0-1.2.2-1.7a1.1 1.1 0 0 0-.3-1 6 6 0 0 1-1.2-4c0-.7.3-1.3.6-1.8.2-.5.3-1 .2-1.6-.2-1-.2-2-.2-2.8 0-1-.4-1.9-1-2.7l-2-3.8c-.3-.4-.6-.7-.8-1.2.3 0 .5.4.7.5l-.7-1.2c-.2-.3-.1-.5 0-.6-.3 0-.6.3-1 0s-.7-.7-.9-1.2c0-.1-.1-.3 0-.4.3-.1.3.1.4.2l.4.6c.3.4.7.6 1.3.3.2 0 .4-.2.5 0a23 23 0 0 0 4.3-5.4c.5-.7.8-1.5 1.4-2.1-.3-1.8 0-3.5.3-5.2.4-1.8 1-3.5 1.7-5.2 0-.2.1-.7.4-.5.3 0 0 .4 0 .7-1 2.6-1.6 5.3-2 8-.2.7.2 1.5.1 2.2 0 .9.1 1.8.5 2.6.1.2.2.5.1.7-.2 0-.1-.2-.3-.2l-.1.4c-.3-.3-.1-.8-.6-1-.3 2-.6 4-1.1 6a45.4 45.4 0 0 0-1 6l.1 1-.1 1.6c0 1 .1 1.8.3 2.8l.8-.7h.6c.1.3-.1.5-.3.6-.4.1-.4.3-.3.7a3.4 3.4 0 0 0 3.4 2.5c.3 0 1-.3 1 .2s-.7.5-1.1.5c-2.1-.2-3.5-1-3.8-3.1v-.3a5.1 5.1 0 0 0-1.2 4.2 6.3 6.3 0 0 0 2.4 3.7l-.2.1c-.8-.2-.8-.2-.7.6l-.2 1.2c0 1.3.3 2.6.2 4a.7.7 0 0 0 .2.6c1 .8 2.1 1.5 3.3 2.2V163c-.5-.6-.5-1 0-1.5.2.1.1.3.1.5h.3c0-.8.3-1 1-.7 4.5 1.7 9 3.1 13.6 4 .2 0 .5 0 .7.2h.2c2 .3 3.8.4 5.7.5h4.3c.2 0 .5 0 .5.4.2 0 0-.5.4-.4.2.1.1.4.1.6 0 .6-.1 1.2.1 1.8.2-.7.3-1.3 0-2 0-.3 0-.5.4-.5 1 0 2-.2 3 0 .4-.2.5 0 .5.3 0 .5.3 1 .2 1.6 0 0 .2.1.2.3h-.1c-.2 0 0-.2-.1-.3l-.3.3c-.5.3-1.1.1-1.7.2l-2 .2c-.1.3.1.8-.2.8-.5.1-.3-.5-.5-.8h-3.2c-.6 0-1-.1-.9-.9a1.4 1.4 0 0 0-.2-1.1l-.2 2.2c0 .2-.1.3-.3.3-.2 0-.1-.2-.1-.3v-1.1c-.3.8-.4.8-1.4.7l-3-.2c-.5 0-.8 0-.7-.8.1-.5 0-1-.3-1.4 0 .8.2 1.6 0 2.3 0 .1 0 .2-.2.3-.3-.2-.2-.5-.2-.7 0-.6.1-1.3-.1-1.9v1.5c0 .3-.1.5-.4.4l-4-.6c-.2 0 0-.3 0-.5-.1-.5.1-1.1-.4-1.5-.1.8.2 1.7-.3 2.6-.4-.3-.4-.6-.4-.9.3-.3.1-.7.2-1.1-.3.4-.1.8-.2 1.1l-3.6-1c-.5-.2-.8-.4-1-.9-.1.5 0 1-.2 1.6 0 .1 0 .3-.2.3s-.1-.2-.1-.4v-1.5c-.1.3-.3.2-.5.1l-3.1-1.1c-.6-.2-.6-.7-.7-1 0-.3 0-.5-.2-.6v2.8c0 .5.2.7.6.9a56.5 56.5 0 0 0 16.7 3.4l5.2.4c1.4.1 2.8 0 4.3-.2l3-.2 4.4-.6c2.6-.3 5.2-1 7.9-1.3 1-.2 2.1-.7 3.2-.8l.2-.1c.5-2.3 1.1-4.5 1.3-6.8 0-.2.2-.7-.1-.8-.3-.2-.5.2-.8.4a15 15 0 0 1-5.4 2.2c-2.9.6-5.7 1-8.6 1a.7.7 0 0 1-.6.2l-5.7.4h-2a7 7 0 0 0 3.4-1.9h-.3c-2.1.8-4.3.5-6.6.4l-3.6-.3c-1.3-.1-2.5-.6-3.7-1-.7-.4-1.5-.5-2.2-1-1.2-.7-2-1.8-2.9-3-.2-.3-.6-.7-.6-1 0-.4.7-.4 1-.6a12 12 0 0 0 4.6-4c.2-.4.6-1 .2-1.2-.4-.3-.5.4-.8.6l-.2.2c-.5.7-1.2.6-1.9.8a10.9 10.9 0 0 1-3.4.3h-.1a6 6 0 0 1-2 .2c-.7 0-1.5-.3-2.1-.8l-1.4-1.2c-1.2-1.5-2-3.2-2.3-5-.2-1-.5-2-.4-3 0-1.5.3-2.8 1.2-4 .2-.3.6-.6 1-.7 1.1-.4 2.3-.2 3.4-.6l.5-.2c-1.1-.5-1.7-1.5-2.3-2.4-1.3-2-1.8-4.1-1.8-6.4v-1.3c0-4.3.2-8.5 1.6-12.7 0-.2 0-.5.2-.7 0-.3 0-.7-.3-1l-.2.7c-.7 1.2-1 2.6-1.8 3.8 0 .5-.4.8-.7 1.3.2-.5.3-1 .7-1.3 0-.4 0-.5-.4-.2s-.4.9-.9 1.2c-.3.1-.4.6-.7.7l-1.6 2.5a27.1 27.1 0 0 0-3 5.6c.5-1.3.7-2.8 1.5-4-.8.6-1 1.5-1.5 2.3-1 2.2-1.3 4.5-2 6.8-.1.9-.5 1.8-1 2.4-.7.7-1.1.6-1.5-.2l-.1-.3c-.5.7-.5 1.5-.6 2.2a10.9 10.9 0 0 0 .7 5v.2a.4.4 0 0 0 .1.5c.3.2.4-.2.6-.3.2.6.2 1.2 0 1.7 0 .2-.1.6.1.7.3 0 .5-.3.6-.5l.4-1.4c.6 1 .8 2.2 1.2 3.3.3 1 .4 2 .4 3.1s-1.1 2-2.2 1.9c-.4-.1-.5 0-.5.3-.3 1.5-2.5 3.2-4.3 2.4-.2 0-.3-.1-.2-.4l.4-.5c.8-.6.9-1.5 1-2.4 0-.3-.2-.5-.4-1-.2.8-.5 1.3-1 1.5l-1.1.2c-1 0-2.2 0-3-.7a6 6 0 0 1-2-2.7l-.6-2c-.1-1.2.3-2.2 1-3.1.1.3-.2.6 0 .9.3 0 .3-.2.4-.3.2-.8.7-1.4 1.2-2 .1-.3.2-.4 0-.6a.4.4 0 0 0-.3-.2.4.4 0 0 0-.3.1l-1 .8c-.7.6-1.5.6-2.3.4a6 6 0 0 0-2.3-.4c-1.7.1-2.7-.6-3-2.3l-.2.3V139.3l.5 1 2.1 3.9c1 1.6 2.1 3 3.1 4.4 1.5 2.5 3.6 4.5 5.6 6.6.2 0 .4.2.4.4l.5.5c2.4 2.6 5 5 8 6.9.4-.4.7 0 1 .2Zm47 1.8c0-.2.1-.4.3-.4.2 0 .2.2.3.3l.2 1.7c0 .2.1.5-.1.6-.3 0-.3-.3-.3-.5a4 4 0 0 1-.3-1.7Zm-3.5.3 1.8-.2c.5 0 1.4.5 1.6.9.3.5 0 .9-.5 1-.7.5-1.6.5-2.4.8-.2 0-.3-.2-.4-.4l-.4-1.6c-.1-.3 0-.4.3-.5Zm-5.1.7 3.9-.4c0-.2 0-.4.2-.3a.4.4 0 0 1 .4.4l.3 1.7c0 .1.4.3 0 .5 0 0 0 .2-.2.3l-.2-.3s0-.2-.2-.3c0 .2 0 .4-.2.4-1.1.1-2.2.4-3.4.4-.2 0-.4 0-.4-.3 0-.6-.2-1.2-.4-1.7 0-.2-.1-.4.2-.4ZM37.1 161c2.4.6 4.9 1 7.3 1.3l4.5.5c.8 0 1.6 0 2.4.4a.6.6 0 0 1-.5.2 56.3 56.3 0 0 1-14.8-2c-2.9-.9-5.7-1.8-8.2-3.7 0 0-.2-.1-.2-.3l.7.2c2.8 1.7 5.8 2.6 8.8 3.4Z" fill="#CA482A"/><path d="M40.5 70c.6.7 1 1.4 1.9 2 .8.4 1.7.6 2.5 0 .7-.3 1.3-.6 1.7-1.3a.3.3 0 0 1 .5-.2v.3c-.5 2.1.2 3.6 2.3 4.5 1.3.5 3.3.5 4.6.1.2 0-.5.5.2.4a4.8 4.8 0 0 0 3.3-2.6l.2-.5c-.3-1.3.2-2.6.7-3.7.5-1.2 1.6-1.8 2.6-2.5.8-.5 1.8-.8 2.8-.7.2 0 .5.2.6-.3 0-.1.3 0 .4 0a9.8 9.8 0 0 1 3.3.3c-1-1-2.3-.9-3.4-1.2h4.8c-.3-.6-.9-.7-1.4-.9-.2-.1-.7 0-.6-.3 0-.4.5-.2.8-.1l1.7.4c-.6-.4-1.3-1-2.2-.8-.2 0-.6.1-.7-.2 0-.4.3-.4.5-.5 1.1-.5 2.3-1 3.3-1.6 1.4-.8 2-2 2-3.7 0-.2-.1-.5.1-.8l-.5-1c-.5-.8-.9-1.6-1.6-2.2l-.2-.1a1 1 0 0 1-.5-.3H69c-.4.1-.6-.2-1-.4-.7-.5-1.4-.8-2.4-.8-.4 0-.7.1-.9.6-.3.8-1 .7-1.7.8l-3 .1c-.6 0-.8.3-.6 1l.4.7c.6.7.5 1.3.1 2-.7 1-1.4 1.4-2.5.8-.9-.4-1.8-.4-2.6-.1-.7.1-.9.7-.9 1.2 0 1.1-.7 1.9-1.4 2.6-.4.3-.8.2-1.2.1-.4-.1-.5-.4-.3-.8.2-.5.7-1 .8-1.6 0-.7 0-1-.7-1-.7-.2-1.3.3-1.4.9v.4c0 1-.8 1.7-1.8 1.5-.7-.1-1.4 0-2 .3-1.5.9-2.6 2.1-2.5 4a10 10 0 0 1-.9 4c-.2.3-.4.5-.9.4-.5 0-.3-.5-.4-.8-.4.4-.9.6-1 1.2a.5.5 0 0 0 .2.4v-.2c.2-.1.2 0 .2.1Zm28.7-9.7c1.3-1.4 1.2-1.6 1.5-2.5.5.8-.5 2.4-1.5 2.5Zm1.7-7.4c0 .5 0 .9.2 1.3l-1-.7c-.4-.2-.7.3-1.2.2.4-.6 1.1-.9 2-.8Zm-10 12-3.3 2.6c.4-1 2.3-2.6 3.3-2.6Z" fill="#2B2B57"/><path d="M50 83.7c.7 0 1.3 0 2 .2l.4.1h.3c.3-.2.7 0 1 0l2-.7c-.1-.2-.4 0-.5-.1 1.6-.3 2.1-1.4 2.7-2.6.3-.8.7-1.6 1.2-2.3.6-1 1.6-2 2.4-3 .7-.8 1.2-1.8 1.3-3 0-.6.3-1.2.7-1.7.4-.5 1-.8 1.5-1 1.2-.3 2 .3 2.3 1.7.3-.3 0-.8.2-1.2 0-.7.2-1.5.5-2.1a1.7 1.7 0 0 1 1.6-1c.3.1.3.3.4.5h.5l.6-.5a3.6 3.6 0 0 0 2-2.8l.3-.5.1-.6c0-.4.1-.9.3-1.3l.1-1.3c0-1 0-1.9-.3-2.8l-.2-1-.3-.6c-.3.2-.2.6-.2.8 0 1.6-.6 2.9-2 3.7-1 .7-2.2 1.1-3.3 1.6-.2.1-.6 0-.5.5.1.3.5.2.7.2 1-.2 1.6.4 2.2.8l-1.7-.4c-.3-.1-.7-.3-.8 0-.1.3.4.3.6.4.5.2 1.1.3 1.4.9H64.7c1.1.3 2.4.1 3.4 1.2-1.1-.3-2.2-.4-3.3-.4l-.4.1c0 .5-.4.3-.6.3-1 0-2 .2-2.8.7-1 .7-2 1.4-2.6 2.5-.5 1.1-1 2.4-.7 3.7l-.1.5a4.8 4.8 0 0 1-3.4 2.6c-.6.1 0-.4-.2-.4-1.3.5-3.2.4-4.6-.1-2-.9-2.8-2.4-2.3-4.5v-.3a.3.3 0 0 0-.4.2c-.4.7-1.1 1-1.7 1.3-1 .6-1.7.4-2.6 0-.8-.6-1.3-1.3-1.8-2 0-.1-.1-.3-.2-.2v.2c0 .9.6 1.6.7 2.5.1.6.5 1 .9 1.5 1 1.2 1.7 2.5 2.2 3.9l1.5 4c.2.5.6 1 1 1.3l.8.3 2.6.2ZM59 69c0 1-.5 1.8-.8 2.5 0-.9.3-1.7.8-2.5Z" fill="#1A1A48"/><path d="M107 90c-.8.2-1.5.6-2.2 1-.1.2-.4.2-.3.5.1.2.4.1.5 0 .8-.1 1.5-.4 2.3-.6-.5.7-.7 1.5-1 2.1-1 2-2.6 3-4.8 3-.9 0-1.7.1-2.6.3 1.4 1 2.8.7 4.3 1-.6.6-1.2 1.1-1.7 1.8-1.8 2.2-4.2 3.8-6.3 5.6-1.2 1-2.4 1.9-3.5 3-.7.7-1.6 1-2.6 1.1-.5 0-1 .2-1.4-.3a3 3 0 0 1-.6-2.1v-.4c.3-.6 0-.8-.6-.7-.2.3-.2.7-.3 1.1-.5 2.3-.9 4.7-2.4 6.6-.9 1.1-2 2.1-3.3 3l-.6.1c-.3 0-.5 0-.5.4 0 .3-.4.3-.6.4h-2.1c-1.1-.2-1.9-.7-2.7-1.3-.5-.4-.7-1-1-1.7l-.5-1.7c0-.4-.3-.3-.5-.5-.2 0-.4 0-.4.2-.2 1 0 1.8.2 2.7a18 18 0 0 0 2.7 6c.4.4.6 1 .6 1.6 0 1.8-.1 3.5-.3 5.3l-.1.6v.2c0 1.2-.4 2.3-.7 3.5-.2.5-.8.9-1.2 1.2-.8.7-1.7 1.3-2.8 1.6 1 .6 2 .3 3 .1l.6-.2c1.2-.3 2.2.5 2.3 1.7.2 1.4.2 2.7.2 4 0 .3 0 .6.2.8 1.2 1.5 1.5 3.3 1.8 5.1l.1.7.2-.1v-.3l.2-1.3v-6.9c0-2-.2-4-.5-6v-2.4l.5-3v-.2l.1-1v-3c0-.8 0-1.6.2-2.3l.3-1c-.1-.5.2-.8.6-1-1 .2-2 .5-3.1.3-1 0-1.8-.4-2.5-1-.1-.2-.3-.3-.1-.5.1-.2.3 0 .4 0a4.9 4.9 0 0 0 6.2-.2c.2-.2.5-.7.6 0l.5-.4c.4-.4.6-1 1-1.1.8-.2 1.3-.7 2-1l.4-.5.3-.2.4-.4.6-.6a4 4 0 0 1 1-.9l3.8-2.8.5-.4 1-.8.5-.4L96 105l.5-.5.5-.4.4-.4 1.1-1 .4-.4.4-.3 1.7-1.6.6-.5 1.1-1.1.4-.4 2.9-2.8.4-.5c.3-.5.5-1 1-1.5l.7-.7.2-.2.7-.8.5-.8.3-.7.3-1.3c.1-.3 0-.6.2-.9 0-.6 0-1.1-.2-1.7l-.2-.5c-.4.4-.4.9-.4 1.3A3.4 3.4 0 0 1 107 90Z" fill="#CA482A"/><path d="m106.8 80.2-2 4.3c-.7 1.9-1.7 3.6-2.8 5.2-1.9 2.7-4.2 5-6.4 7.3-1.8 1.9-3.8 3.6-5.6 5.4-.4.3-.8.6-1.3.7a2 2 0 0 0-1.6 1.5 1 1 0 0 1-.5.6c.5 0 .8.2.6.8l-.1.3c0 .8.1 1.5.6 2.2.4.5.9.4 1.4.3 1-.2 1.9-.4 2.6-1.1 1-1.1 2.3-2 3.5-3 2.1-1.8 4.5-3.4 6.3-5.6l1.7-1.9c-1.5-.2-3 0-4.2-1a12 12 0 0 1 2.5-.2c2.2 0 3.8-1 4.8-3l1-2.1-2.2.7-.6-.1c0-.3.2-.4.3-.5.7-.4 1.4-.8 2.2-1 1.3-.5 2.2-1.3 2.5-2.7 0-.4 0-1 .4-1.3-.4-1-.5-2-1.2-3-.6-.9-1.2-1.9-1.7-3l-.2.2Z" fill="#E55533"/><path d="M41.1 68.4c.2.3 0 .7.4.8.5 0 .8-.1 1-.5v-.2c.5-1.2.9-2.4.8-3.7 0-1.9 1-3.1 2.5-4 .6-.3 1.3-.5 2-.3 1 .2 1.8-.4 1.9-1.5v-.4c0-.7.6-1 1.3-1 .6 0 .8.4.7 1.1 0 .7-.6 1-.8 1.6-.2.4-.1.7.3.8.4.1.9.2 1.2-.1.7-.8 1.4-1.5 1.4-2.6 0-.6.3-1 .9-1.2.8-.3 1.7-.3 2.6.1 1.1.6 1.8.2 2.5-.8.4-.7.5-1.3 0-2-.2-.2-.4-.5-.4-.8-.2-.6 0-.8.6-1h2.9c.6-.1 1.4 0 1.7-.8.2-.5.5-.6 1-.6.9 0 1.6.3 2.4.8.3.2.5.5.9.4a7 7 0 0 0-1.2-1.5 1 1 0 0 1-.5-.6l-.4-.6-.9-1-1.1-.7c-2.2-.7-4 0-5.2 1.8a.6.6 0 0 1-.5.3 6 6 0 0 0-4.4 2.8.6.6 0 0 1-.5.3c-1.7.3-3.2 1.2-4.8 1.7-.8.3-1.4 1-2 1.6 0 .2-.2.4-.4.5-.7.4-1.2 1-1.7 1.6L44 60.4v-.3c0-.5.1-1-.4-1.2-.5-.1-.7.5-.8.9-.1.8-.4 1.4-1.3 1.7-.5.2-.4.5 0 .8.3.2.6 0 1 .2-.8.7-1.5 1.5-2 2.5-.6 1.5-.7 3-.3 4.6 0-.6.6-.8 1-1.2Z" fill="#363666"/><path d="M86.3 168.7h.1Z" fill="#272A56"/><path d="m76.3 158.6.1-.7a.7.7 0 0 1 .5-.4c.6-.2 1.3-.2 1.7-.8-.3-.3-.5 0-.7 0-.9.3-1.7.5-2.4-.3-.1 0-.3-.2-.4 0a.3.3 0 0 0 0 .4l.6.8h.2-.2c-.2 0-.3.2-.5.3-.2 0-.4 0-.3.3 0 .2.3 0 .4.2-1 .8-2.1 1.4-3.3 1.8-2.2.8-4.5 1.3-6.9 1.6-1.2 0-2.5.3-3.7.5-.6.1-1.2 0-1.8.3l.5.1h.5c3 .2 5.8-.3 8.6-.9 2-.4 3.8-1 5.5-2.2.2-.1.5-.5.7-.4.3.1.2.6.2.9-.2 2.2-.8 4.4-1.3 6.7l-.2.2c-1.1 0-2.1.5-3.3.7-2.6.3-5.2 1-7.9 1.3l-4.3.6-3 .3c-1.5 0-3 .2-4.3.1-1.8 0-3.5-.2-5.2-.4l-7.6-1c-3.2-.5-6.1-1.4-9.1-2.4-.5-.2-.6-.4-.6-.9v-2.8l-.1-.4h-.3l-.1 1v2.6a35.8 35.8 0 0 1-3.5-2.5v-.3l-.2-4c0-.4.2-.8.1-1.2 0-.8 0-.8.8-.6h.2a6.3 6.3 0 0 1-2.4-3.8c-.3-1.5.1-2.9 1.1-4.2l.1.3c.3 2.2 1.7 2.9 3.8 3 .4.1 1 .1 1-.4s-.6-.2-1-.2c-1.6 0-2.8-.9-3.3-2.5-.1-.3-.1-.6.3-.7.2-.1.4-.3.3-.5-.1-.2-.4-.2-.6 0l-.8.6c-.2-1-.4-1.9-.3-2.8l.1-1.6v-.9c.2-1.8.5-3.5 1-5.3 0-.2.1-.5-.1-.7-1 1.8-1.3 3.8-1.5 5.9v.1l-3.2-4.8c-.2 0-.4-.4-.7-.5l.7 1.2 2.2 3.8c.5.8.9 1.6.9 2.7 0 1 0 1.9.2 2.8.1.5 0 1.1-.2 1.6l-.6 1.8a6 6 0 0 0 1.2 4 1.1 1.1 0 0 1 .3 1 6 6 0 0 0-.2 1.7v3c0 .1 0 .3-.2.5l-1 .9c-.5.5-1 .5-1.5 0-.2-.2-.5-.6-.8-.2 0 .2.2.3.3.5 1 .8 1.4 1 2.5-.1h.1l.5-.6c.3-.2.3.1.3.3 0 .7.5 1 1 1.4 1.4.9 2.8 2 4.3 2.4 3.6 1.2 7.1 2.3 10.8 2.8a73 73 0 0 0 24.4-.3c2.7-.5 5.4-1 8-1.7h1.4c.2 0 .4 0 .5-.2l.3-.6a1442.4 1442.4 0 0 1 .9-3.4l.4-2.4c0-.9-.1-1.7.1-2.4Z" fill="#BA452B"/><path d="M91 121.3h-.3.3Z" fill="#F8BB5E"/><path d="M80.7 116.9a4.9 4.9 0 0 1-6.2.3c0-.1-.2-.3-.4-.1-.1.2 0 .3.1.4.7.7 1.6 1 2.5 1.1 1 .2 2.1-.1 3.2-.3l1.4-1.2.1-.2c-.2-.8-.5-.2-.7 0Z" fill="#BB452B"/><path d="M87.5 69c.1.3.4.3.6.2 1-.6 2-.5 3 0a3 3 0 0 0 .8.3.2.2 0 0 0 .2-.2l-.4-.3a45.1 45.1 0 0 1-4.6-.8c0 .4.4.5.4.8Z" fill="#BE482D"/><path d="M11.5 155a.6.6 0 0 0 .4.5c0-.2-.2-.3-.4-.4Z" fill="#FDFDFD"/><path d="M.1 138v-.1l.2-.3c.4 1.7 1.4 2.4 3.1 2.3a6 6 0 0 1 2.3.4c.8.2 1.6.2 2.3-.4a15.2 15.2 0 0 1 1.1-.9.4.4 0 0 1 .5.2c.2.2.1.3 0 .5-.5.7-1 1.3-1.2 2 0 .2-.1.4-.4.4-.2-.3.1-.6 0-1-.7 1-1.2 2-1 3.1.1.7.4 1.4.6 2a6 6 0 0 0 2 2.8c.8.7 2 .7 3 .7.3 0 .7 0 1-.2.6-.2 1-.7 1-1.4h.1c.2.4.4.6.3 1 0 .8-.1 1.7-1 2.3l-.3.5c-.1.3 0 .3.2.4 1.8.8 4-.9 4.3-2.4 0-.3 0-.4.5-.3 1 .2 2.1-.8 2.2-1.9 0-1-.1-2.1-.4-3.1-.4-1.1-.6-2.2-1.3-3.3 0 .5-.2 1-.3 1.4-.1.2-.3.6-.6.5-.3-.1-.1-.5 0-.7l-.1-1.7c-.2.1-.3.5-.6.3a.4.4 0 0 1-.1-.5.6.6 0 0 0 0-.5c-.6-1.5-.8-3.1-.7-4.7 0-.7.1-1.5.5-2.2l.2.3c.3.8.8 1 1.4.2.6-.6 1-1.5 1.2-2.4.6-2.3.9-4.6 1.9-6.8.4-.8.7-1.7 1.4-2.3-.8 1.2-1 2.7-1.4 4l.3-.3a27 27 0 0 1 2.6-5.3l1.6-2.5c-1 0-1.5.8-2 1.5l-3.2 4.7a87.5 87.5 0 0 1-5.3 7c-1 1.2-2 2.6-3.8 2.9-.3 0-.5.1-.4-.3a.7.7 0 0 0-.6-.8c-.3-.1-.6 0-.9.3-1 .7-1.6 1.6-2.3 2.5-.4.5-.8 1-1.5 1-.5 0-.9 0-1.3.3a5 5 0 0 1-5-.5v1.3Z" fill="#E55533"/><path d="M46.1 90.7c1.8.8 3.8 1.2 5.7 1.3.2-.2.1-.3 0-.3a12 12 0 0 1-2.8-1.1l-1.3-.8c-.3-.2-.4-.4-.2-.8a4.3 4.3 0 0 1 3.3-2.6h.9c1.4.1 2.8-.3 4.1-.8l.6-.2c-.3.5-.8.5-1.2 1 .6 0 1.1-.3 1.5-.7.8-.7 1.4-1.6 1.9-2.6 1-2.2 1.6-4.6 3.2-6.5l1-1c.3-.6.7-.7 1.3-.4.5.2 1 .4 1.6.1l-1.5-.5c-.6-.3-1-1.2-.7-1.9v-1.3c-.1.3 0 .6 0 .8l-.2.3c0-.5-.2-1 .2-1.4a.4.4 0 0 0 0-.7c-.4.5-.7 1-.7 1.7 0 1.2-.6 2.2-1.3 3l-2.4 3c.2.1.1.2 0 .3l-1 1.9s0 .3-.2.1c-.6 1.2-1.1 2.3-2.6 2.5v.1c0 .1.3-.1.4.2l-2 .5a2 2 0 0 1-1 .1h-.3a1 1 0 0 1-.6.2c-1.2 0-2.5 0-3.7-.4l-.6-.3-.9-.3c0 1.4.1 2.8-.1 4.2-.2 1-.3 2-1 2.7l.6.6Z" fill="#EBB9BD"/><path d="m1.6 133.7 1.2-1.6c.8-1.3 1.8-2.4 2.7-3.7.4-.6 1-1.2 1.3-2 1-2.3 1.7-4.7 2.7-7l1.3-2.5c.3-.5.8-1 0-1.5l-1.2 2c-2 3.3-4 6.8-5.6 10.4l-2.8 6c.2.2.3 0 .4 0Z" fill="#CA482A"/><path d="M29 97.2c.3.5.6 1 .7 1.6.3 1 .2 2.1.5 3.1.3 1.3.3 2.6.2 4v2.6a1.4 1.4 0 0 0 .4-1l-.1-3.7-.2-3c0-2-.7-3.8-2-5.3h-.2l.7 1.7Z" fill="#CD492B"/><path d="m39.2 93.2 1-.2c1-.1 1.7.3 2.6.6.1-.4-.1-.8-.2-1.2-.1-.4.6-.5.8-1-.5.2-.8.7-1.3.7-1.2 0-2.3.4-3.3.9 0 .3.2.2.4.2Z" fill="#CC492B"/><path d="M29 126.3v1.3c0 2.3.5 4.5 1.8 6.4.6 1 1.2 1.9 2.3 2.4l-.4.2c-1.1.4-2.3.2-3.4.6-.5.2-.8.4-1 .8-1 1.1-1.2 2.5-1.3 3.9 0 1 .2 2 .4 3 .4 1.8 1.1 3.5 2.4 5l1.4 1.2c.6.5 1.3.8 2.1.8a41.4 41.4 0 0 0 7.5-1.5c.3-.2.4-1 .9-.6.4.3 0 .8-.3 1.1a12 12 0 0 1-4.5 4c-.4.3-1 .3-1 .6 0 .4.3.8.6 1.2.8 1 1.7 2.2 3 3 .6.4 1.4.5 2.1.8 1.2.5 2.3 1 3.6 1.1 1.2.2 2.5.2 3.7.3 2.2 0 4.4.4 6.6-.4h.2a7 7 0 0 1-3.4 2l2-.1 5.8-.4a.7.7 0 0 0 .5-.3H58c3.7-1 7.2-2.8 11-4a12 12 0 0 1-4-2c-.2 0-.6-.2-.4-.5.2-.2.4.1.6.2 1 .5 2 .6 3.2.5 1-.1 1.8-.3 2.6-1 0 0 .3-.3.3.2h.2c.6-.2 1.3-.2 1.8-.6.7-.4 1.4-.4 2-.3 1 .2 2 .1 3 0 .7-.2 1-.8 1.4-1.3 0-.8-.3-1.6-.9-2.3 0 .2 0 .4-.2.4-1.8 0-1.8 0-3 .9.5-1.4.6-2.7-.2-4-.8-1.2-2-1.7-3-2.4.9-.2 1.7 0 2.8.6l-.4-.9c.4 0 .8.2 1 .5 1 1 1.8 2 2.3 3.3l.3-3.3s0 .2-.2 0l-.1-.6c-.3-1.8-.6-3.6-1.8-5-.2-.3-.3-.6-.2-.8l-.1-4c-.2-1.3-1.2-2.1-2.4-1.8l-.6.2c-1 .2-2 .5-3 0 1.2-.4 2-1 2.8-1.7.5-.3 1-.7 1.2-1.2.3-1.1.8-2.3.7-3.5a77.4 77.4 0 0 1-8.7 4.6c-.9.3-1.7.9-2.7 1 0 0 .2.3 0 .4-.3.1-.3-.2-.5-.4 0 .4-.4.3-.6.4-2.8 1-5.7 1.8-8.7 2.4-1.3.3-2.5.4-3.8-.2-1.4-.6-2.9-1-4.3-1.5-.2 0-.4 0-.5-.3-1 1.4-1.8 3-2.8 4.3l-1.5 1.8-.5.7 2.4-.9c.2 0 .4-.2.5 0a.4.4 0 0 1-.1.6 6.6 6.6 0 0 1-5.3 1.8c-.3 0-.3-.2-.5-.3a68.3 68.3 0 0 0 6.6-8.4l-.7-.2c-2.3-.8-4.6-1.8-6.7-3.1a13 13 0 0 1-5.4-6.1c-.7-1.8-1.2-3.7-.2-5.6v-.2c.6-2 1-4.1.1-6.1-.2.1-.1.4-.2.7a39 39 0 0 0-1.5 12.6Zm27 21.3c.6.5 1 1 1.6 1.3.2.1.4.2.4.4 0 .7.7 1 1.2 1.2 1.7.8 3.7 1 5.6.8h1c-1.2.5-2.5.7-3.8.5-1-.1-2-.2-3-.6-1.8-.6-3.3-1.7-4-3.6v-1.5c.4.6.6 1.1 1 1.5Zm-7.3 4.3c.9 0 1-.9 1.3-1.4 0-.1 0-.2.2-.2.2.8-.6 1.9-1.3 2-.2 0-.3 0-.3-.2a.1.1 0 0 1 0-.1v-.1Z" fill="#E55533"/><path d="M60.3 89.2v-2.8c-.2-1.3 0-2.6.2-4 0-.6 0-1.2.5-1.9.3.7.5 1.3 1 1.8.6.6 1.4 1 2.2 1l2.5-.1c.6 0 1-.5 1.4-.7.7-.8.8-1.8 1.3-2.7l.2-1.5c0-.6.3-.7.8-.6 1-.5 1-1 .6-1.9a12 12 0 0 1-1.2-5.1c-.1-.6-1.3-1.1-2-.8a4 4 0 0 0-.3.2c-.3.4.1.9-.2 1.2-.4-1.4-1.1-2-2.3-1.6-.6 0-1 .4-1.5 1a.4.4 0 0 1 0 .6v1.6a2 2 0 0 0 1.2 2c.8.3 1.4-.1 2-.6l.5-.7c0 .3-.2.6-.4.8-.2.4-.6.7-1.1 1-.6.2-1 0-1.6-.2-.6-.3-1-.2-1.4.3l-.9 1.1c-1.6 2-2.2 4.3-3.2 6.5-.5 1-1 1.9-1.9 2.6-.4.4-1 .6-1.5.7.4-.5 1-.5 1.2-1l-.6.2c-1.3.5-2.7.9-4.1.8h-.9a4.3 4.3 0 0 0-3.3 2.6c-.2.4-.1.6.2.8l1.3.8c.8.5 1.8.8 2.7 1 .2.1.3.2.1.4 2.1.3 4.2.2 6.3 0 1.3-.5 2.2-1.5 2.2-2.8Zm6.3-15.6c-.2.3-.4.5-.7.4-.6-.1-1.1-.3-1.3-1-.3-.5-.1-1-.2-1.6.2-.7.7-1 1.3-.7.7.4 1 1.4.6 2-.2.3-.1.4.2.4.3 0 .3.2 0 .5Z" fill="#FED3C8"/><path d="M72.5 112.2c0 .6.3 1.2.6 1.7.2.6.4 1.2 1 1.7.7.6 1.5 1.1 2.6 1.3h2.1c.2 0 .6-.1.6-.4 0-.4.2-.4.5-.4.2 0 .4 0 .6-.2 1.3-.8 2.4-1.8 3.4-3 1.5-1.8 1.9-4.2 2.3-6.5l-.8.3c-1.3 0-2.3.7-3.4 1.2 0 .4.6.4.7.7-1.6 1.2-3.2 2.4-5.2 3.2-.7.3-1.4.3-2 .8-.3.1-.5 0-.6-.1-1-.4-1.9-.7-2.9-.8.2.2.5.1.5.5Z" fill="#E55533"/><path d="M37.1 142.7c.1.1.2.3.5.3 2 .2 3.8-.4 5.3-1.8a.4.4 0 0 0 0-.6c0-.2-.2 0-.4 0l-2.4 1 .5-.8L42 139c1-1.4 1.8-2.9 2.7-4.3l2.3-4.9 1.7-4.3c-.4.2-.5.4-.6.7l-1.5 2.8-3 5.3c-2 2.8-4 5.5-6.5 8 0 0-.2.2 0 .4Z" fill="#CA482A"/><path d="M61.9 87.3v-1.4l-.4 1.9-.2.9c-.2-.5 0-.9 0-1.3l.4-1.7c0-.2 0-.3.2-.2.2-.2.1-.5.2-.7.1-.6.4-.9 1-.7.7.2 1.5.4 2.2.2a.5.5 0 0 0 .7 0h-.7c.1-.3.4-.3.6-.3 1 0 1.8-.5 2.2-1.5-.5.1-.8.6-1.4.7h-2.5c-.8 0-1.6-.3-2.2-.9-.5-.5-.7-1.1-1-1.8-.4.7-.4 1.3-.5 2-.2 1.3-.4 2.6-.3 4 .2.8.2 1.8.1 2.7 0 1.3-1 2.2-2.2 2.7 1.2.1 2.2-.2 3.3-.4.5 0 1-.3 1.3-.5l-.1-.5a6 6 0 0 1-.7-3.2Z" fill="#EBB9BD"/><path d="m84.6 83.8.7.6c-.6-.3-.7-.4-.7-.5Z" fill="#BB452B"/><path d="M84.6 83.8c-.2-.1.4.6-1.2-.5-.9-.5-1.7-1.1-2-2.2l.1-1.3a.6.6 0 0 0-.2-.8 3 3 0 0 1-.7-.7c-.5-.7-.6-1-.1-1.8l.4-.8.1-.7a17.6 17.6 0 0 1 1.7-3c.3-.2.4-.6.8-.7a.6.6 0 0 1-.2.5 12 12 0 0 0-2 4.1 18 18 0 0 0-.3 1v.7c.3.3.4.9.8 1.1.6-1.6.8-3.4 2-4.7l.6-1 1.6-1.5.1.1-.2.3-1 1.3c-1.7 2-2.5 4.3-3 6.9 0 .4 0 1 .4 1.3A4 4 0 0 0 84 83c1 .6.7.6.6.7ZM93.3 80.4l-.2.2c-1 1-2 1.7-2.8 2.7-.2.3-1 0-1.6 0a.6.6 0 0 0-.5.2.8.8 0 0 0-.3.6c.5.1 1-.4 1.3.3l-.5.1c-.4 0-.7 0-1 .3-.6.5-1 .4-1.7.1a.8.8 0 0 1-.4-.3l-.3-.2c.8.5.3-.4 1 0 .5.3.6.3.8-.1.7-1.5 2.7-1.5 4-2.6l1-1 .9-.4s.2-.1.2 0Z" fill="#BB452B"/><path d="M87.7 84.8c-.6.5-1 .4-1.7.1 0 .4-.3.4-.5.5a8.7 8.7 0 0 0-3.6 3.3c0 .1-.2.3 0 .5.4-.5 1-.9 1.5-1 .6-.2 1 0 1 .6v1.5c-.1.2-.2.4 0 .6.6-1.5 1-3.1 2-4.4-.1.7.3 1.1.6 1.6 0-1.4.2-2.8 1.7-3.6-.4 0-.7 0-1 .3ZM87.1 84.3c.7-1.5 2.7-1.5 4-2.6l1-1a3.1 3.1 0 0 0-2.8.8c-.6.5-1.1 1-1.6 1.7-.6.8-1.4 1.1-2.4 1.2.8.5.3-.4 1 0 .5.3.6.3.8-.1Z" fill="#CA482A"/><path d="M63.3 134.3c.2-.1 0-.3 0-.5l-1-2.4c.8.3 1.1 1 1.7 1.4-1.7-3-3.8-5.8-6.2-8.2l-.4-.4c2.3 3 4 6.3 5.4 9.7.2.1.2.5.5.4ZM77.5 91l-1.4.9c-1 .8-2.3 1.4-3.7 1.2v.3c.8.2.5.7.2 1.1l-.5 1.6c.2-.3.3-.9.9-1l-.6 1.3.3-.1v.3l-.2.7.2-.2a8 8 0 0 1 3-3.6l.2-.3c.3-.7.3-.7 1-1l2-1.4c.5-.3.1-.3 0-.4-.4.4-.9.6-1.4.7ZM44 94.4a31 31 0 0 0 4.8 1.7c.6.2 1.2.4 1.9.4h4c.2 0 .4.1.6-.1-4.1-.1-8-.8-11.8-2.8a.8.8 0 0 0 .5.8Z" fill="#CB482A"/><path d="M72.7 96.6v-.3l-.3.1c-.7 1.2-1.1 2.5-1.3 3.9a9.2 9.2 0 0 0 0 4.8c.1.3.3.7.6 1v-.8c-.6-1.5-.5-3-.2-4.5.1-1.3.7-2.3 1-3.5l.2-.7Z" fill="#BC452B"/><path d="M28.2 116.2c.3-.3.4-.2.4.2.7-1.2 1-2.6 1.7-3.8h-.2c-1 0-1.6.3-1.8 1.2-.2 1.2-.7 2.4-1 3.6.4-.3.4-1 .9-1.2Z" fill="#E55433"/><path d="M65.7 93.1c-2 1.1-3.8 2.1-6 2.7l-1.9.4h.3c.6 0 1.1 0 1.6-.2 1.4-.2 2.7-.8 4-1.2 1.1-.3 2-1 2.9-1.7L66 93l-.4.1Z" fill="#CC492B"/><path d="M85 73.1c-1.8 2-2.6 4.4-3 7 0 .4-.2 1 .3 1.3v-.8c.3-1.3.4-2.7.9-4 .6-1.5 1.5-3 2.6-4.2.1-.2.3-.3.1-.5L85 73Z" fill="#CA482A"/><path d="M81.8 78.7c.6-1.6.8-3.4 2-4.8l.6-.9-.5.3-1.7 2.2c-.4.7-.7 1.4-1.2 2 .3.4.4 1 .8 1.2Z" fill="#CA482A"/><path d="M90.3 83.3c.1 0 .2 0 .3-.2 1.2-1 2.7-1.5 4.3-1.5 0 0 .3 0 .3-.2l-1-.4c-.3-.2-.8 0-1.1-.4-1 1-2 1.7-2.8 2.7Z" fill="#CB482A"/><path d="M71.6 112c-.9.7-.8 1.8.2 2.6-.2-.9-.4-1.8-.2-2.7Z" fill="#E55533"/><path d="M86.2 71.6c.3-.4.9-.8 1.2-1.4-.6.3-1 .7-1.4 1.3h.2Z" fill="#CC4B2D"/><path d="M68.1 93H67c.4.4.7.2 1.1 0ZM68.5 93c.2.2.5 0 .8.1-.3-.1-.6-.2-.8-.1Z" fill="#DC5738"/><path d="M74.8 127.5c-.2.2-.1.4-.1.6.2-.2 0-.4.1-.6ZM29 163c0 .4.1 1 .6 1.1l3.1 1.1c.3 0 .5.2.6 0 0-.4 0-.9.3-.8.4 0 .2.5.3.7 0 .5.4.7.9.8l3.6 1.1c0-.3-.1-.7.1-1.1.1-.3-.2-.9.5-.6.6.4.4 1 .4 1.5 0 .2-.1.4.2.5l3.9.6c.2 0 .3-.1.3-.4V166c0-.1 0-.3.2-.4-.2-.2-.5-.2-.7-.2-4.7-.9-9.2-2.3-13.6-4-.7-.3-1-.2-1 .7l.1.4c.2.1.1.3.1.5ZM44.7 167.4c-.1.7.2.8.8.8 1 0 2 0 2.9.2 1 .1 1.1 0 1.4-.7l.1-1.1c.1-.4.3-.4.5 0a1.4 1.4 0 0 1 .2 1.1c0 .8.3.9.9.9h3.2v-2c0-.5-.3-.4-.5-.4l-4.3-.1c-2-.1-3.8-.2-5.7-.5l.1.4c.5.4.5 1 .4 1.4Z" fill="#E55533"/><path d="M27.6 157.4c0 .2.1.2.2.3 2.4 1.9 5.3 2.8 8.3 3.6a52.2 52.2 0 0 0 15.2 1.9c-.8-.3-1.6-.4-2.4-.4-1.5-.2-3-.2-4.5-.5-2.4-.3-4.9-.8-7.3-1.3-3-.8-6-1.7-8.8-3.4-.2 0-.4-.3-.7-.2Z" fill="#BB452B"/><path d="M59.9 167.9c0 .3.2.3.4.3 1.2 0 2.3-.3 3.4-.4.2 0 .2-.2.2-.4l-.3-2-4 .4c-.2 0-.2.2-.1.4l.4 1.7ZM55.3 168.6l2-.2c.7-.1 1.3 0 1.8-.2-.3-.7-.4-1.5-.4-2.3l-3 .1c-.3 0-.4.2-.3.5v2Z" fill="#E55533"/><path d="M26 131.3c.5.1.3.7.6 1 .1-.1 0-.3 0-.4.3 0 .2.3.4.2v-.7c-.5-.8-.7-1.7-.6-2.6 0-.7-.3-1.5-.2-2.1.4-2.8 1.1-5.5 2.1-8.1 0-.3.3-.6 0-.7-.3-.2-.3.3-.4.5-.8 1.7-1.3 3.4-1.7 5.2-.4 1.7-.6 3.4-.3 5.2l.1 2.5Z" fill="#BB452B"/><path d="M65 167.2c0 .2 0 .4.3.4.8-.3 1.7-.3 2.4-.7.5-.2.8-.6.5-1.1-.2-.4-1.1-1-1.6-.9l-1.8.2c-.3 0-.4.2-.3.5l.4 1.6Z" fill="#E55533"/><path d="M35.3 151.6a.4.4 0 0 0 .3.1c1 0 2.1 0 3.2-.3.6-.2 1.4-.1 1.9-.8l-1 .1-4.4 1Z" fill="#BC452B"/><path d="M54.7 166.5v2.1c.2.3 0 .9.5.8.3 0 0-.5.1-.8-.2-.7 0-1.3 0-2-.1-.1 0-.4-.2-.5-.3 0-.2.3-.4.4ZM64 167.7c0 .2.1.3.3.3l.1-.3v-.5a9.5 9.5 0 0 0-.3-2l-.3-.1c-.2 0-.2.1-.2.3l.3 2c.2 0 .1.2.2.3Z" fill="#BB452B"/><path d="m19.6 136.7.6-.3c-.1-.3-.3-.2-.5 0-.6.2-1 0-1.3-.4l-.4-.6c0-.1-.1-.3-.3-.2-.2 0-.1.3 0 .4.1.5.4 1 .9 1.3.3.2.6-.2 1-.2Z" fill="#BC462C"/><path d="M50.4 166.5c-.2-.3-.3-.3-.5 0-.1.4-.2.8-.1 1.2v1.1l.1.3c.2 0 .2-.1.3-.3l.2-2.2ZM39 165.3c-.7-.3-.4.3-.5.6 0 .4.2.8 0 1.1 0 .3 0 .7.2.9.6-.9.3-1.8.3-2.6ZM69 167c.2 0 0-.4.1-.6l-.2-1.7c0-.1-.1-.3-.3-.3-.2 0-.2.2-.2.4 0 .6 0 1.2.3 1.7 0 .2 0 .5.3.5Z" fill="#BB452B"/><path d="M33.6 164.4c-.3 0-.2.4-.2.7-.2.5-.2 1-.2 1.5 0 .2 0 .4.2.4s.2-.2.2-.3c.2-.5 0-1 .3-1.6-.1-.2.1-.7-.3-.7Z" fill="#BC452B"/><path d="M43.8 166c.3.6.1 1.3.2 1.9 0 .2 0 .5.2.7l.1-.3c.3-.7 0-1.5 0-2.3v-.4H44c-.2.1-.2.3-.2.4ZM59.4 168l-.2-1.8c0-.2 0-.5-.4-.3 0 .8 0 1.6.3 2.3l.3-.3Z" fill="#BB452B"/><path d="M28.4 161.6c-.6.5-.6 1-.1 1.5l.1-1v-.5Z" fill="#E05231"/><path d="M27.9 117.7c.2-.5.6-.8.7-1.3-.4.3-.6.8-.7 1.3Z" fill="#E55433"/><path d="M64.4 167.2v.5c.5-.2.1-.4 0-.5ZM59.5 168.2c.1-.2 0-.2-.1-.3v.3Z" fill="#E55533"/><path d="M57.6 67.4 61 65c-1 0-2.9 1.5-3.3 2.5ZM70.1 53.5l1 .7c-.2-.4-.1-.9-.2-1.3-1 0-1.6.2-2 .8.5.1.8-.4 1.2-.2ZM70.9 53Z" fill="#1B1B49"/><path d="M69.2 60.3c1 0 2-1.7 1.5-2.5-.3.9-.2 1-1.5 2.5Z" fill="#1C1C49"/><path d="M69.8 70.6c.2-1 .2-2 .2-3.1-.1-.2-.1-.4-.4-.4a1.7 1.7 0 0 0-1.6.9c-.3.6-.5 1.4-.5 2.1l.4-.2c.6-.3 1.8.2 1.9.7Z" fill="#EBB9BD"/><path d="M71 75.8c.5.9.3 1.4-.6 2-.3 0-.7 0-.8.5l-.2 1.5v.4c.3-.5.4-1 .5-1.6 0-.3.2-.4.4-.4 1.4-.3 1.9-1.5 1-2.6-.8-1.2-1-2.6-1-4-.1-1.4.2-2.8.2-4.2H70c0 1.1 0 2.2-.2 3.2 0 1.8.3 3.6 1.2 5.2Z" fill="#454065"/><path d="m52 83.9-2-.2-2.5-.2.6.3c1.2.4 2.4.3 3.7.4.2 0 .4 0 .6-.2 0-.2-.3 0-.5-.1Z" fill="#323059"/><path d="m58.2 80.4 1-1.8v-.3c-.6.7-1 1.5-1.3 2.3.2.2.2 0 .3-.2Z" fill="#EBC2BD"/><path d="M58.2 71.4c.3-.7.7-1.5.8-2.5-.5.8-.7 1.6-.8 2.5Z" fill="#262652"/><path d="M52.7 84h1c-.3 0-.7-.2-1 0Z" fill="#323059"/><path d="m75.9 157.5-.2.1h.2Z" fill="#CA482A"/><path d="M79.7 153.9c-.4.5-.7 1-1.4 1.2-1 .2-2 .3-2.9.1-.7 0-1.4 0-2 .3-.6.4-1.3.4-1.9.6h-.1c0-.5-.3-.2-.4-.2-.8.7-1.7.9-2.6 1-1.1.1-2.2 0-3.2-.5-.2-.1-.4-.4-.6-.2-.2.3.2.4.4.6l.7.4c1 .6 2 1.2 3.2 1.5-3.7 1.2-7.1 3-11 4h2.3c-.2-.2-.4 0-.6-.1.6-.3 1.2-.2 1.8-.3l3.7-.5c2.4-.3 4.7-.8 6.9-1.6 1.2-.4 2.3-1 3.4-1.8-.2-.1-.5 0-.5-.2 0-.3.2-.3.3-.3l.5-.3-.6-.8a.3.3 0 0 1 0-.4c.1-.2.3 0 .4 0 .7.8 1.6.6 2.4.3.2 0 .4-.3.7 0 .8-.8 1.2-1.7 1.1-2.8Z" fill="#CA482A"/><path d="M77.3 158.2a.3.3 0 0 0 .2-.3c0-.3-.3-.3-.6-.4a.7.7 0 0 0-.5.4c.2.5.6.3 1 .3Z" fill="#F5C65D"/><path d="M23.6 165Z" fill="#2A2D58"/><path d="M65.7 75.3c.5-.2.9-.5 1.1-.9l-.1-.1c-.6.5-1.2.9-2 .5a2 2 0 0 1-1.1-1.9c-.3.7 0 1.6.6 1.9l1.5.5Z" fill="#C49D9D"/><path d="M63.5 71.6v-.3c-.4.4-.1.9-.2 1.3l.1-.2.1-.8Z" fill="#BA9496"/><path d="M78 150c-.4-1.3-1.3-2.3-2.2-3.3-.2-.3-.6-.4-1-.5l.5.9c-1.2-.7-2-.8-3-.6 1.2.7 2.3 1.2 3.1 2.5.8 1.2.7 2.5.2 3.9 1.2-.9 1.2-.9 3-1 .2 0 .2 0 .2-.3-.3-.5-.6-1-.7-1.6ZM59 151.2c1 .4 2 .5 3 .6 1.3.2 2.6 0 3.8-.5h-1c-2 .3-3.9 0-5.6-.8-.5-.3-1.2-.5-1.2-1.2 0-.2-.2-.3-.4-.4-.6-.3-1-.8-1.5-1.3-.5-.4-.7-1-1.2-1.6.1.7 0 1.1.2 1.6.6 2 2 3 4 3.6Z" fill="#CA482A"/><path d="M48.8 152.2c.8 0 1.6-1.1 1.4-1.9l-.2.2c-.4.5-.4 1.3-1.3 1.4h-.1a.1.1 0 0 0 0 .2c0 .2.1.1.2.1Z" fill="#CD492B"/><path d="M69.4 79.8c-.5.9-.6 2-1.3 2.7-.4 1-1.1 1.5-2.2 1.5-.2 0-.4 0-.6.3h.7c.6-.1 1.3-.2 1.8-.8.8-1 1.4-2 1.7-3.3-.2 0-.1-.2-.1-.4Z" fill="#4F4C6F"/><path d="m61.7 85.7-.3 1.7.1.4.4-1.9v-.4c-.1-.1-.2 0-.2.2Z" fill="#8B728A"/><path d="m78.8 90.4-1.3.7c.5-.1 1-.3 1.3-.7Z" fill="#F25833"/><path d="M65.9 72.4c.2-.4 0-.8-.3-1-.2-.4-.5-.3-.8-.1h-.4c0 .6 0 1.2.2 1.8.2.6.7.8 1.3 1 .3 0 .5-.2.7-.5-1-.1-1.1-.4-.7-1.2Z" fill="#EABBBE"/><path d="M66.5 73.1c-.3 0-.4 0-.2-.4.4-.6 0-1.6-.6-2-.6-.2-1.1 0-1.3.7l.4-.1c.3-.2.6-.3.8 0 .3.3.5.7.3 1.1-.4.8-.2 1.1.7 1.2.2-.3.2-.4-.1-.5Z" fill="#AE8A8D"/><path d="M70.4 77.7c-.5 0-.9 0-.8.6.1-.4.5-.5.8-.6Z" fill="#4F4C6F"/><path d="M66.8 74.4c.3-.2.4-.5.4-.8l-.5.7.1.1Z" fill="#D8B1AC"/><path d="M61.4 87.4c-.2.4-.3.8-.1 1.3l.2-1-.1-.3Z" fill="#AD8B9C"/><path d="M81 67.2v5.3a.5.5 0 0 1-.4.4h-1a1.9 1.9 0 0 1-1.7-1l-.4-1.2c-.4-1.3-1.2-1.5-1.8-1.7-.5-.2-1 0-1.6-.7l-.8-.5c-.1-.1-.3-1.6.4-1.5l1 .2c.4 0 .7.2.9.3.7.2 1.1.2 1.8-.3a1.2 1.2 0 0 0 .6-1.3l-.2-.5h.6a2.5 2.5 0 0 1 2.6 2.5Z" fill="#FED3C8"/><path d="M80.9 66.3s-1.7.8-2.2.7c-.5 0-.6-1-.6-1l-.3-1.9-.4-.4a.3.3 0 0 0-.3-.3h-1c.6-1.8 1.7-1 1.7-1l1.3 1c.5.4.8.8 1 1.3l.8 1.6Z" fill="#FED3C8"/><path d="M77.7 67.3c-.6.4-1.8.4-2.4.2-.6-.3-.5-1-.5-1 .3 0 .6.2.8.3.7.2 1.1.2 1.8-.3a1.2 1.2 0 0 0 .6-1.3h.1c.2.2.1 1.8-.4 2.1Z" fill="#EBB9BD"/><path d="m77.5 63.9-1-.7.6-.2.3.1.3.4-.1.3Z" fill="#FED3C8"/><path d="M81 72.5a.5.5 0 0 1-.4.4h-1a1.9 1.9 0 0 1-1.7-1l-.4-1.2c-.4-1.3-1.2-1.5-1.8-1.7-.5-.2-1 0-1.6-.7l-.8-.5c.6 0 1 .2 1.5.5.6.4 2 .4 2.6 1 .6.6 1.3 2.7 2.1 2.7.6 0 1.2.2 1.5.5Z" fill="#EBB9BD"/><path d="M81 70.8s-.2 1.4-.7 1.4c-.6.1.1.2.4.4.3.2.8.1.8.1s.2-.2 0-.8c0-.4-.2-.8-.5-1Z" fill="#EBB9BD"/><defs><linearGradient id="a" x1="45.2" y1="207.1" x2="46.7" y2="144.2" gradientUnits="userSpaceOnUse"><stop offset=".1" stop-color="#33325D" stop-opacity="0"/><stop offset=".2" stop-color="#33325D" stop-opacity=".4"/><stop offset=".3" stop-color="#33325D"/></linearGradient></defs></svg>