<svg width="204" height="220" viewBox="0 0 204 220" fill="none" xmlns="http://www.w3.org/2000/svg"><path d="M117.9 198.6c42 0 76-6.8 76-15.1 0-8.4-34-15.2-76-15.2s-76 6.8-76 15.2c0 8.3 34 15.1 76 15.1Z" fill="#EDEAEE"/><path d="M159.7 2H73v185.8h86.6V2Z" fill="#FCD8B2"/><path d="M159.7 2H73L88.6 0h79l-8 1.9Z" fill="#FFE9CF"/><path d="m168 181.8-8.3 6V2l8.2-2v181.8Z" fill="#DFB480"/><path d="M112.7 29.1V42l-4.2 3a1.3 1.3 0 0 1-.4-.9V31.2l4.6-2Z" fill="#3B6A90"/><path d="m111 45.3 40.4 5a3.3 3.3 0 0 0 3.6-2.8c.3-1.8.7-4 .8-5.4a5.4 5.4 0 0 0-1.6-4.3h-36.9l-6.3 7.5ZM81.8 33.1l19.1 2.3a1.6 1.6 0 0 0 1.8-1.3l.3-2.5a2.5 2.5 0 0 0-.7-2H84.8l-3 3.5Z" fill="#DFB480"/><path d="m156.2 41.4-4 3.7V31.2l4-2v12.2Z" fill="#3B6A90"/><path d="M152.2 45s-.1.3-.7.3-.4-1-.4-1l.4-.5h.7l.3.4-.3.9Z" fill="#3B6A90"/><path d="M142.6 12.9h-22.1v24.6h22V13Z" fill="#B2C6D0"/><path d="M142.6 12.9h-22.1v24.6h22V13Z" stroke="#B2C6D0" stroke-miterlimit="10"/><path d="M133.8 12.9H132v24.6h1.7V13Z" fill="#6F92A1"/><path d="M144 12h-23.4a1 1 0 0 0-1 1v24.5a1 1 0 0 0 1 1H144a1 1 0 0 0 1-1V13a1 1 0 0 0-.3-.7 1 1 0 0 0-.7-.3Zm-.7 26.2h-22V13.5h22v24.7Z" fill="#BBB6A6"/><path d="M122.1 12.9h-1.6v24.6h1.6V13Z" fill="#6F92A1"/><path d="M142.6 14.2v-1.3h-22.1v1.3h22Z" fill="#6F92A1"/><path d="M132 12.9h-1.6v24.6h1.7V13Z" fill="#fff"/><path d="M143.3 11.3h-23.5a1 1 0 0 0-1 1v24.5a1 1 0 0 0 1 1h23.5a1 1 0 0 0 1-1V12.3a1 1 0 0 0-1-1Zm-.7 26.2h-22.1V13h22v24.6Z" fill="#fff"/><path d="M99.1 12H84.7V28H99V12Z" fill="#B2C6D0"/><path d="M99.1 12H84.7V28H99V12Z" stroke="#B2C6D0" stroke-miterlimit="10"/><path d="M93.4 12h-1.1V28h1V12ZM85.7 12h-1V28h1V12Z" fill="#6F92A1"/><path d="M99.1 12.8V12H84.6v.8h14.5Z" fill="#6F92A1"/><path d="M92.3 12h-1.1V28h1V12Z" fill="#fff"/><path d="M99.6 11H84.2a.6.6 0 0 0-.6.6v16a.6.6 0 0 0 .6.7h15.4a.6.6 0 0 0 .6-.7v-16a.6.6 0 0 0-.6-.7ZM99 28H84.7V12H99V28Z" fill="#fff"/><path d="M152.2 31.2v13.5a.7.7 0 0 1-.6.6h-42.2A1.3 1.3 0 0 1 108 44V31.2h44.1Z" fill="#5583AD"/><path d="M83.2 27.6v4.8l-2 1.1a.5.5 0 0 1-.1-.4v-4.7l2-.8Z" fill="#3B6A90"/><path d="M83 29.5s-.6-1 .1-2c.8-1.1 1.8-1.1 2.5-.8.7.3.8.1 1.2-.2.4-.2 1.8-.5 2.4 0 .7.5 1 1.2 1.9 1.1.8-.1 1.3-.3 1.4 0 0 0 .4-1.5 2-1.5 1.7 0 2 1.4 2 1.4s1.7-1 2.5.7a2.3 2.3 0 0 1 1.9-.9c1.2 0 1 1.4 1 1.4l-.3.5-5 .3-9 .3-4.6-.3Z" fill="#549766"/><path d="m103 32.2-1.8 1.4v-5.2l1.9-.8v4.6Z" fill="#3B6A90"/><path d="M93.4 28.7a.5.5 0 1 0 0-.9.5.5 0 0 0 0 1ZM100.3 28.7a.5.5 0 1 0 0-.9.5.5 0 0 0 0 1ZM86.2 28.7a.5.5 0 1 0 0-.9.5.5 0 0 0 0 1Z" fill="#DF6848"/><path d="M101.2 33.6h-.3c-.3 0-.2-.3-.2-.3l.2-.2h.3l.2.1-.2.4Z" fill="#3B6A90"/><path d="M101.2 28.4v5.2H81.2a.5.5 0 0 1-.2-.5v-4.7h20.1Z" fill="#5583AD"/><path d="M88.6 27.8a.3.3 0 1 0 0-.6.3.3 0 0 0 0 .6ZM87.1 27a.3.3 0 1 0 0-.6.3.3 0 0 0 0 .6ZM84.2 27.9a.3.3 0 1 0 0-.7.3.3 0 0 0 0 .7ZM90.6 28a.4.4 0 1 0 0-.8.4.4 0 0 0 0 .7ZM97.9 28a.4.4 0 1 0 0-.8.4.4 0 0 0 0 .7ZM95 27.4a.4.4 0 1 0 0-.7.4.4 0 0 0 0 .7Z" fill="#DF6848"/><path d="M112.7 77.2v12.7l-4.2 3.1a1.3 1.3 0 0 1-.4-1V79.4l4.6-2.1Z" fill="#3B6A90"/><path d="m111 93.4 40.4 4.9a3.3 3.3 0 0 0 3.6-2.8l.8-5.3a5.4 5.4 0 0 0-1.6-4.3h-36.9l-6.3 7.5ZM81.8 81.2l19.1 2.3a1.6 1.6 0 0 0 1.8-1.3l.3-2.6a2.5 2.5 0 0 0-.7-2H84.8l-3 3.6Z" fill="#DFB480"/><path d="m156.2 89.5-4 3.6V79.3l4-2.1v12.3Z" fill="#3B6A90"/><path d="M144 60h-23.4a1 1 0 0 0-1 1v24.5a1 1 0 0 0 1 1H144a1 1 0 0 0 1-.6V61a1 1 0 0 0-1-1Zm-.7 26.3h-22V61.6h22v24.7Z" fill="#BBB6A6"/><path d="M152.2 93.1s-.1.3-.7.3-.4-1-.4-1l.4-.5h.7l.3.4-.3.8Z" fill="#3B6A90"/><path d="M142.6 61h-22.1v24.6h22V60.9Z" fill="#3F484D"/><path d="M143.3 59.4h-23.5a1 1 0 0 0-1 1v24.5a1 1 0 0 0 1 1h23.5a1 1 0 0 0 1-1V60.4a1 1 0 0 0-.3-.7 1 1 0 0 0-.7-.3Zm-.7 26.2h-22.1V61h22v24.7Z" fill="#fff"/><path d="M132 61h-1.6v24.6h1.7V61Z" fill="#fff"/><path d="M99.1 60H84.7v16.2H99V60Z" fill="#3F484D"/><path d="M99.6 59H84.2a.6.6 0 0 0-.6.6v16.1a.6.6 0 0 0 .6.6h15.4a.6.6 0 0 0 .6-.6v-16a.6.6 0 0 0-.1-.5.7.7 0 0 0-.5-.2Zm-.7 17.2h-14V60.3h14v15.9Z" fill="#fff"/><path d="M152.2 79.3v13.4a.7.7 0 0 1-.6.7h-42.2A1.3 1.3 0 0 1 108 92V79.3h44.1Z" fill="#5583AD"/><path d="M83.2 75.7v4.7l-2 1.2a.5.5 0 0 1-.1-.4v-4.7l2-.8Z" fill="#3B6A90"/><path d="M83 77.5s-.6-1 .1-2c.8-1 1.8-1 2.5-.7.7.3.8 0 1.2-.2.4-.3 1.8-.5 2.4 0 .7.5 1 1.2 1.9 1 .8 0 1.3-.2 1.4 0 0 0 .4-1.5 2-1.5 1.7 0 2 1.5 2 1.5s1.7-1 2.5.7a2.3 2.3 0 0 1 1.9-1c1.2 0 1 1.5 1 1.5l-.3.4-5 .4-9 .3-4.6-.4Z" fill="#549766"/><path d="m103 80.3-1.8 1.3v-5.1l1.9-.8v4.6Z" fill="#3B6A90"/><path d="M93.4 76.8a.5.5 0 1 0 0-.9.5.5 0 0 0 0 .9ZM100.3 76.8a.5.5 0 1 0 0-.9.5.5 0 0 0 0 .9ZM86.2 76.8a.5.5 0 1 0 0-.9.5.5 0 0 0 0 .9Z" fill="#DCC647"/><path d="M101.2 81.6h-.3c-.3 0-.2-.2-.2-.2l.2-.2h.3l.2.1-.2.3Z" fill="#3B6A90"/><path d="M101.2 76.5v5a.3.3 0 0 1-.3.2H81.7l-.4-.1a.4.4 0 0 1-.2-.4v-4.7h20.1Z" fill="#5583AD"/><path d="M84.2 76a.3.3 0 1 0 0-.7.3.3 0 0 0 0 .6Z" fill="#DCC647"/><path d="M112.7 125.2V138l-4.2 3a1.3 1.3 0 0 1-.4-.9v-12.7l4.6-2.2Z" fill="#3B6A90"/><path d="m111 141.4 40.4 5a3.3 3.3 0 0 0 3.6-2.8c.3-1.8.7-4 .8-5.4a5.4 5.4 0 0 0-1.6-4.3h-36.9l-6.3 7.5ZM81.8 129.2l19.1 2.3a1.6 1.6 0 0 0 1.8-1.3l.3-2.5a2.5 2.5 0 0 0-.7-2H84.8l-3 3.5Z" fill="#DFB480"/><path d="m156.2 137.6-4 3.6v-13.8l4-2.2v12.4Z" fill="#3B6A90"/><path d="M152.2 141.2s-.1.2-.7.2-.4-.9-.4-.9l.4-.6h.7l.3.4-.3.9Z" fill="#3B6A90"/><path d="M142.6 109h-22.1v24.7h22V109Z" fill="#B2C6D0"/><path d="M142.6 109h-22.1v24.7h22V109Z" stroke="#B2C6D0" stroke-miterlimit="10"/><path d="M133.8 109H132v24.7h1.7V109Z" fill="#6F92A1"/><path d="M144 108h-23.4a1 1 0 0 0-1 1v24.6a1 1 0 0 0 .6.9H144a1 1 0 0 0 1-1v-24.4a1 1 0 0 0-.3-.7 1 1 0 0 0-.7-.3Zm-.7 26.3h-22v-24.7h22v24.7Z" fill="#BBB6A6"/><path d="M122.1 109h-1.6v24.7h1.6V109Z" fill="#6F92A1"/><path d="M142.6 110.3V109h-22.1v1.3h22Z" fill="#6F92A1"/><path d="M132 109h-1.6v24.7h1.7V109Z" fill="#fff"/><path d="M143.3 107.4h-23.5a1 1 0 0 0-1 1V133a1 1 0 0 0 1 1h23.5a1 1 0 0 0 1-1v-24.5a1 1 0 0 0-1-1Zm-.7 26.3h-22.1V109h22v24.7Z" fill="#fff"/><path d="M99.1 108H84.7v16.2H99v-16.1Z" fill="#B2C6D0"/><path d="M99.1 108H84.7v16.2H99v-16.1Z" stroke="#B2C6D0" stroke-miterlimit="10"/><path d="M93.4 108h-1.1v16.2h1v-16.1ZM85.7 108h-1v16.2h1v-16.1Z" fill="#6F92A1"/><path d="M99.1 109v-1H84.6v1h14.5Z" fill="#6F92A1"/><path d="M92.3 108h-1.1v16.2h1v-16.1Z" fill="#fff"/><path d="M99.6 107H84.2a.6.6 0 0 0-.6.7v16a.6.6 0 0 0 .6.7h15.4a.6.6 0 0 0 .6-.6v-16.1a.6.6 0 0 0-.6-.7Zm-.5 17.2H84.7v-16.1H99v16.1Z" fill="#fff"/><path d="M152.2 127.4v13.4a.7.7 0 0 1-.6.6h-42.2a1.3 1.3 0 0 1-1.3-1.3v-12.7h44.1Z" fill="#5583AD"/><path d="M83.2 123.8v4.7l-2 1.1a.5.5 0 0 1-.1-.3v-4.8l2-.8Z" fill="#3B6A90"/><path d="M83 125.6s-.6-1 .1-2c.8-1.1 1.8-1 2.5-.8.7.3.8.1 1.2-.1.4-.3 1.8-.5 2.4 0 .7.4 1 1.2 1.9 1 .8-.1 1.3-.2 1.4 0 0 0 .4-1.5 2-1.5 1.7 0 2 1.4 2 1.4s1.7-.9 2.5.7a2.2 2.2 0 0 1 1.9-.9c1.2 0 1 1.4 1 1.4l-.3.5-5 .4-9 .3-4.6-.4Z" fill="#549766"/><path d="m103 128.3-1.8 1.4v-5.2l1.9-.8v4.6Z" fill="#3B6A90"/><path d="M93.4 124.9a.5.5 0 1 0 0-1 .5.5 0 0 0 0 1ZM100.3 124.9a.5.5 0 1 0 0-1 .5.5 0 0 0 0 1ZM86.2 124.9a.5.5 0 1 0 0-1 .5.5 0 0 0 0 1Z" fill="#DF6848"/><path d="M101.2 129.7h-.3c-.3 0-.2-.3-.2-.3l.2-.2h.3l.2.2-.2.3Z" fill="#3B6A90"/><path d="M101.2 124.5v5a.3.3 0 0 1-.3.2H81.3a.5.5 0 0 1-.2-.4v-4.8h20.1Z" fill="#5583AD"/><path d="M88.6 124a.3.3 0 1 0 0-.7.3.3 0 0 0 0 .7ZM87.1 123.1a.3.3 0 1 0 0-.6.3.3 0 0 0 0 .6ZM84.2 124a.3.3 0 1 0 0-.7.3.3 0 0 0 0 .7ZM90.6 124a.4.4 0 1 0 0-.7.4.4 0 0 0 0 .7ZM97.9 124a.4.4 0 1 0 0-.7.4.4 0 0 0 0 .7ZM95 123.5a.4.4 0 1 0 0-.7.4.4 0 0 0 0 .7Z" fill="#DF6848"/><path d="m142.7 67.7-1.8.7a13.2 13.2 0 0 1-8.1.8l-6.5-1.5c-2.4 0-4.8-.9-6.7-2.4-2.2-1.6-2-2.5-3-4.5l-.4-1.2c-.8-2.2-2.5-4.7-.8-7.6l.2-.3c2-3.1 5.5-3.3 8-3.4 2.7 0 3-.6 3.9-1.2 1-.6 1.5-.7 1.9-1.4l.9-1.7.2-1-.1-1.1c0-.6-1-.5-1-1.5 0-.5-.7-3.4 2.8-5 4.8-2.1 6.6 1.1 7 2l.4.8c.2 1.2.3 2.4-.5 3.4-.2.4-.6.8-1 1l-.6.5c-1.6.9-3 1.7-3.8 2.7-.5.5-.7 1-.7 1.7.1 1.2.4 1.6.9 1.8l.7.4c.2 0 .3.1.5.3 1 .7 2 2.2 1.4 3.5-.6 1.2-2 1.4-3.4 1.1l-.7-.2-.5-.2c-.8-.4-1.3-1-1.8-1.5-.7-.7-1.3-1.3-2.6-1.4a6 6 0 0 0-3 .5c-1 .4-1.7 1.2-1.7 2.1 0 1.7 2.8 2 4.6 1.7 1.7-.3 3.5-.1 5.1.3 1.2.4 2 1.4 3 2l.7.3c3.5 2 5.7 6.1 6.5 9.5Z" fill="#BAB9B9"/><path d="M119.2 33c-.2-.1-.3 0-.5.3a.5.5 0 0 1-.6.2c-.2 0-.6-.3-.9-.7a1 1 0 0 1-.2-.4c-.1-.5 0-1 .3-1.5.5-1 1.2-.7 1.4-.6a.5.5 0 0 1 .4.5l.3 1.3v.3c0 .4 0 .6-.2.5ZM120.4 41.5a2.6 2.6 0 0 1-1.2 2 3.3 3.3 0 0 1-2.5.7c-.9-.2-1.7-.7-2.5-1.3l-.5-.5a7.2 7.2 0 0 1-1-2.1 3.7 3.7 0 0 1 .6-3c.8-1 1.3-1.2 1.9-1h.4c.3.2.6.4.6.7 0 .4-.2.8-.7 1.2-.2.2 0 0 0 .3 0 .4-.2.2-.1.5s.6 0 .6 0c.9-.6 1.4-.7 1.8-.8h.4c.6.2 1.5.7 1.8 1.4.3.6.4 1.3.4 2Z" fill="#AAABAB"/><path d="m132.4 25.4-.1.6c0 .3-.1.5-.3.7-.2.4-.8.7-1.2.3-.4-.4-.8-.6-.7-1.3v-.2c0-.7.5-1.3 1-1.4 1-.2 1.4 1.1 1.3 1.3Z" fill="#BAB9B9"/><path d="M139.1 41.6c-.2.4-.6.8-1 1l-.6.5c-1.6.9-3 1.7-3.8 2.7-.5.5-.7 1-.7 1.7.1 1.2.4 1.6.9 1.8l.7.4c.2 0 .3.1.5.3-.5 1.7-2.9 2.4-5 2.7-.7-.7-1.4-1.3-2.6-1.4h-.5c-.9 0-1.7.1-2.5.5v-.3c-.1-.7-1.2-1.8-3.4-1.4a4.6 4.6 0 0 0-3.2 2.2s1.3-.5 1.6 0c.4.6 0 1.7-.8 2.2-.9.6-2.7.5-2.5-1.4 0-.9-.3-1.3-.6-1.4 2-3.1 5.5-3.3 8-3.4 2.7 0 3-.6 3.9-1.2 1-.6 1.5-.7 1.9-1.4l.9-1.7.2-1c3.2-2 8.4-6.1 8.7-5.7l.4.9c.2 1.2.3 2.4-.5 3.4Z" fill="#AAABAB"/><path d="M139.1 41.6c-.2.4-.6.8-1 1l-.6.5c-1.6.9-3 1.7-3.8 2.7-.2-.7-.5-1.3-1-1.4-1.2 0-1.5 0-2.3.7 0 0 1.1-2.6 3.2-4 3.7-2.4 4.8-1.4 5-.7l.5 1.2Z" fill="#B3B1B1"/><path d="M136.5 53.5c-.8 1.6-3 1.5-4.7.7-.7-.4-1.2-1-1.7-1.5-.7-.7-1.4-1.3-2.7-1.4h-.4l-.4-.8c-.3-1.1 1-1.8 1.5-1.6l1 .6s.1-.9 1-.6c.8.4 1.1 1 .7 1.1a.7.7 0 0 1-.7-.2s.2.9 1.4 1c1.2 0 1.3-1 1.2-1.4-.1-.4 0-.7.3-.5.3.1.6.4.9.4l.7.4c.2 0 .3.2.5.3.9.7 2 2.2 1.4 3.5Z" fill="#BAB9B9"/><path d="M131.7 52.4s1.2-.4 2 .3c.7.7.3 1-.3 1.2a1.4 1.4 0 0 1-1.4-.3l-.5-.8c0-.1 0-.4.2-.4Z" fill="#B3B0B0"/><path d="M132.3 51.4c-.3 0-.2.3.2.4 0 0-.4.3 0 .3.3 0 .8 0 1.2.2.5.4.6.4.5 0 0-.2-1.1-1.2-1.9-1Z" fill="#A5A4A3"/><path d="M124.5 58.8s.2-.6 1.2-.3 1.7 1 2.2.8c0 0-.2.4-.8.2-.7-.3-1-.6-1.6-.4 0 0-.3-.4-1-.3Z" fill="#989798"/><path d="M118.6 51.4s.2-1.5 2.7-1.7c2.4-.3 3 1.4 3 1.4a3.2 3.2 0 0 0-3.1-.9c-2 .5-2.6 1.2-2.6 1.2Z" fill="#8F8F8F"/><path d="M119.2 33c-.2-.1-.3 0-.5.3a.5.5 0 0 1-.6.2c-.2 0-.6-.3-.9-.7.2-.2.5-.2.8 0 .8.3 1.1-.3 1.4-.7v.3c0 .4 0 .6-.2.5Z" fill="#797A7A"/><path d="M115.8 43.4s.3-1 2-.2l.6-.3s-1-.4-.7-1.2c.3-.7 1.1-.8 1.1-.8s-.4.1-.4-.4c0-.6-.2-1-.6-.8-.5.2-.5.9-.5.9s-1.3.3-1.2 1.1c0 0-1.2 0-.3 1.7Z" fill="#B3B0B0"/><path d="M120.4 41.5a2.6 2.6 0 0 1-1.2 2c-.7.6-.8-.3-.5-.7l.3-.6c.2-.2.2-.5.3-.8v-.7c0-.5-.4-.8-.8-1a4 4 0 0 1-.5-.6c-.3-.4-.1-.7.2-.8.6.1 1.5.6 1.8 1.3.3.6.4 1.3.4 2Z" fill="#8F8F8F"/><path d="M132.3 26c0 .3-.1.5-.3.7-.2.4-.8.7-1.2.3-.4-.4-.8-.6-.7-1.3v-.2c.3.5.6 1 1.1.8l1-.3Z" fill="#AAABAB"/><path d="M115 37.5c-1 .5-1 .7-1.8 2l-.6.8a3.8 3.8 0 0 1 .7-3c.8-1 1.3-1.2 1.9-1h.4l-.1.3c.2.5.4.5-.5 1Z" fill="#8F8F8F"/><path d="M113 39.7c0-.6.3-1.2.6-1.6.7-.8 1.3-1.2 1.8-1 .6.2 0 .2-.5.5-.5.2-1.5 1.3-1.9 2Z" fill="#B3B0B0"/><path d="M142.7 67a1 1 0 0 1-.6 1l-1.2.4a13.2 13.2 0 0 1-8.1.8l-6.5-1.5c-2.4 0-4.8-.9-6.7-2.4-2.2-1.6-2-2.5-3-4.5l-.4-1.2c1.2-.6 3.8 0 5.3 2.7 2 3.7 3 4.5 6.8 3.7 3.9-1 5.3-3.4 1.9-4.2-3.5-.7.9-3.3 2.2-2.6 1.3.7 4.1 2.8 4 1.4l-.2-2.3c3.3 2 7.1 0 6.5 8.7Z" fill="#AAABAB"/><path d="M99.1 47.6c0 .9-.9 2.2-1.6 1.8a1.5 1.5 0 0 1-.7-1c-.2-.6.2-1.4 1.5-1.5.6-.1.8.2.8.7Z" fill="#A7A4A8"/><path d="M99 60.4v4.8s-.2 1-2 .8c-1.8-.1-6.4-.4-5.3-3.8l1.2-3.5c.2-1 0-1.6-1-2.5l-.6-.8c-.7-1.5.6-3.6 2.6-3 1 .3 1.8.8 2.4 1.5 1 1 1.4 2.5.7 3.8-.5.8-.3 1.4.2 1.9a4 4 0 0 0 1.7.8Z" fill="#AAABAB"/><path d="M97.2 59.6c0 .4 0 1-.2 1.7-.4 2.7-3.7 1.7-3.5-1.2.1-1.4-.2-1.4-.7-1.4.3-1 .1-1.6-.9-2.5l-.6-.8c.7-.3 2-.2 3.1-.5.7-.2 1.4-.5 1.9-1 1 1 1.4 2.5.7 3.8-.5.8-.3 1.5.2 1.9ZM99.1 47.6H99c-.9-.2-.4-.2-1.8.7l-.3.2c-.2-.7.2-1.5 1.5-1.6.6-.1.8.2.8.7Z" fill="#BAB9B9"/><path d="M188.3 178.7h-39.4a1.8 1.8 0 1 1 0-3.7h39.4a11.8 11.8 0 0 0 11.7-11.7v-31.4a1.8 1.8 0 1 1 3.6 0v31.4a15.4 15.4 0 0 1-15.3 15.4ZM201.8 90.9A1.8 1.8 0 0 1 200 89V58a11.8 11.8 0 0 0-11.7-11.8h-39.4a1.8 1.8 0 0 1 0-3.6h39.4a15.4 15.4 0 0 1 15.3 15.4v31a1.8 1.8 0 0 1-1.8 1.8ZM37.1 90.9a1.8 1.8 0 0 1-1.8-1.8V58a15.4 15.4 0 0 1 15.4-15.4H90a1.8 1.8 0 1 1 0 3.6H50.7a11.8 11.8 0 0 0-11.8 11.8v31a1.8 1.8 0 0 1-1.8 1.8Z" fill="#1A1A48"/><path d="m89 92-6.7-.4 4 13-9-6.8-1.3 8-6.2-8.7-4.3 6.2-1.5-9-6.6-13.8 12.2 8.1.2-.9 2.5-14 4.6 8.5L84 76l-1.4 8.7h9.2L84 89.5l5 2.5Z" fill="#fff"/><path d="M90 178.7H50.7a15.4 15.4 0 0 1-15.4-15.4v-31.4a1.8 1.8 0 0 1 3.6 0v31.4A11.8 11.8 0 0 0 50.7 175H90a1.8 1.8 0 1 1 0 3.7Z" fill="#1A1A48"/><path d="M79.3 97.6c-.6 1.1-1.3 2.3-1.5 3-.1.5.2-.4-.5-1-.4-.3-1.6-.3-2-.4V99s0-.2.3-.4a20.7 20.7 0 0 0 1-.9l-.2-2.2.2-3.2s1.9 2.9 1.6 4.3l1 .9Z" fill="#FED3C8"/><path d="M79.8 97c-.5 1-1.7 2.6-1.9 3.5-.1.5-.6 0-1.3-.6-.4-.4-1-.6-1.2-.7l.2-.5.2-.4a1.6 1.6 0 0 0 .9-.5l.3-.5c.2-.8.6-1.2.6-1.2s.3 1.2.1 1.8c-.1.6.2.5.5 0 .3-.3.8-1.1 1.2-1l.4.2Z" fill="#EBB9BD"/><path d="M74.6 92.3v8.5a.9.9 0 0 1-1 .9h-15a.9.9 0 0 1-1-.9v-8.5a.9.9 0 0 1 1-.8h15a.9.9 0 0 1 1 .8Z" fill="#3F6D8E"/><path opacity=".5" d="M57.7 100.8v-1.1a.9.9 0 0 0 .9.8h15a.9.9 0 0 0 1-.8v1.1a.9.9 0 0 1-1 .9h-15a.9.9 0 0 1-1-.9Z" fill="#365E7D"/><path d="M73.5 90.4v.8a.3.3 0 0 1-.3.3h-2a.3.3 0 0 1-.2-.3v-.8a.3.3 0 0 1 .2-.2h2a.3.3 0 0 1 .3.2Z" fill="#477B9E"/><path d="M60.9 95.9v2.6a.8.8 0 0 0 .8.8h4.5a.8.8 0 0 0 .8-.8v-2.6a.8.8 0 0 0-.8-.8h-4.5a.8.8 0 0 0-.8.8Z" fill="#3D4C70"/><path d="M67 96.5V96a.8.8 0 0 0-.8-.8h-4.5a.8.8 0 0 0-.8.8v.6a.8.8 0 0 1 .8-.8h4.5a.8.8 0 0 1 .8.8Z" fill="#324059"/><path d="M57.7 92.3v1.3h16.9v-1.3a.9.9 0 0 0-.9-.8H58.5a.9.9 0 0 0-.8.8Z" fill="#DBEDFF"/><path opacity=".5" d="M68.2 92.3v8.5a.9.9 0 0 0 .8.9H71a.8.8 0 0 1-.9-.9v-8.5a.9.9 0 0 1 .9-.8H69a.9.9 0 0 0-.8.8Z" fill="#365E7D"/><path d="M61.8 92.8h4.4c.5 0 .8-.4.8-.9v-1c0-.6-.3-1-.8-1h-4.4c-.5 0-1 .4-1 1v1c0 .5.5 1 1 1Z" fill="#477B9E"/><path opacity=".8" d="M61.1 91.5v.7a.9.9 0 0 0 1 .9h4.3a.9.9 0 0 0 1-1v-.6H61Z" fill="#477B9E"/><path d="M62.9 91v.7a.4.4 0 0 0 .3.4h1.5a.4.4 0 0 0 .4-.4v-.6a.4.4 0 0 0-.4-.4h-1.5a.4.4 0 0 0-.3.4Z" fill="#3D4C70"/><path opacity=".5" d="M72 91.5h1.2a.3.3 0 0 0 .3-.3v-.8a.3.3 0 0 0-.3-.2H72a.3.3 0 0 1 .3.2v.8a.3.3 0 0 1-.3.3Z" fill="#3F6D8E"/><path opacity=".5" d="M71.9 101.7h1.8a.8.8 0 0 0 .9-.9v-8.5a.9.9 0 0 0-.9-.8H72a.9.9 0 0 1 .9.8v8.5a.9.9 0 0 1-.6.8H72Z" fill="#365E7D"/><path d="M65 91.5v-.4a.4.4 0 0 0-.3-.4h-1.5a.4.4 0 0 0-.3.4v.4a.4.4 0 0 1 .3-.3h1.5a.4.4 0 0 1 .4.3Z" fill="#324059"/><path d="m17 215.1 5.5-30.6a.4.4 0 0 1 .5-.4l26.3 4.5 20.3-1h.2a.4.4 0 0 1 .2.3v.1c0 1.4-.2 5.6-.8 13.2a1365 1365 0 0 0-1.6 17.6l-.3.1a44.6 44.6 0 0 1-21-.4v-.2l-1.5-16.8a.4.4 0 0 0-.3-.3.4.4 0 0 0-.4 0l-.2.3-5 16.2a.4.4 0 0 1-.4.3 38 38 0 0 1-21.5-2.7v-.2Z" fill="url(#a)"/><path d="M21.2 179.7s-2.4 5.7 4.3 9.3a42 42 0 0 0 22.5 5.7c7 0 17-3 22-4.8 1.8-.6 1.8-1.6-.4-2.3a75.1 75.1 0 0 0-22.4-3.7c-14.7-.1-26-4.2-26-4.2ZM23.5 197a36.7 36.7 0 0 0-1 6V203.7a14.9 14.9 0 0 0 .1 3c.5 1.5 1.3 3 2.5 4a7 7 0 0 0 4.4 1.7c1.6 0 3.2-.4 4.6-1.2l.6-.2.5-.4a11.2 11.2 0 0 0 1.9-3c.5-1.5 1-3 1.3-4.7l.8-4.8.2.2A38.7 38.7 0 0 1 24 194l.3-.1-.5 1.8h-.3l.4-2 .1-.2.2.1a38.3 38.3 0 0 0 15.2 4.4h.2v.2a55.5 55.5 0 0 1-2.3 9.5c-.3.8-.7 1.5-1.2 2.2l-.8 1c-.2 0-.3.2-.5.3l-.6.3c-1.4.7-3 1.2-4.7 1.2-1.7 0-3.3-.7-4.5-1.8a8.5 8.5 0 0 1-2.8-7.3V203a34.8 34.8 0 0 1 .5-3.6l.4-2.4h.4Z" fill="#20214E"/><path d="M37 201.8c-6.2-.3-12.5-3-12.6-3l.2-.4s6.3 2.7 12.5 3v.4ZM23.7 198.8h-.2l.1-.6h.2l-.1.6ZM30 211.5h-.3v-.2h1.2v.2h-.8Zm-1.6-.1-1.2-.4.1-.2 1.2.4v.2Zm3.8-.2v-.2c.3 0 .7-.3 1-.4l.1.1-1.1.5Zm-6.1-.8-1-.8.2-.1 1 .8-.2.1Zm8.3-.4-.1-.1.8-.9.2.1-1 1Zm-10-1.4-.6-1.1h.2c.2.3.3.7.6 1l-.2.1Zm11.6-.5H36l.5-1.2.2.1-.6 1.1Zm-12.5-1.8-.3-1.3h.2l.3 1.2h-.2Zm13.6-.4-.2-.1.4-1.2h.2L37 206Zm-14-2.1v-1.3h.2v1.3h-.2Zm14.7-.4h-.3l.3-1.2h.2l-.3 1.2Zm-14.4-2-.2-.1V200h.3l-.1 1.3ZM38 201H38v-.7h.2v.6ZM64.6 198.3l.4 2.4.4 2.4v1.3l.1.1v.1l.1.4v.6c0 .8 0 1.6-.3 2.4-.4 1.6-1.3 3-2.5 4.2a7.1 7.1 0 0 1-4.6 1.8c-1.6 0-3.2-.5-4.7-1.2l-.5-.3a3 3 0 0 1-.6-.4c-.3-.2-.5-.6-.8-1-.4-.6-.8-1.3-1.1-2.1a56 56 0 0 1-2.3-9.5v-.2h.2a38.2 38.2 0 0 0 15.1-4.3l.2-.2.1.3.5 1.9h-.4l-.5-1.8h.3a38.6 38.6 0 0 1-15.3 4.3h.1a52.8 52.8 0 0 0 2.2 9.4l1.1 2.2.8.9c.2 0 .3.2.5.3.2 0 .4.2.5.3 1.5.7 3 1.2 4.7 1.2a7 7 0 0 0 4.3-1.8c1.2-1 2.1-2.4 2.5-4 .2-.8.3-1.6.2-2.4v-1.2a28.2 28.2 0 0 0-1-6h.3Z" fill="#20214E"/><path d="M50.7 203.2v-.4c6.2-.3 12.4-3 12.5-3l.1.3s-6.3 2.7-12.6 3ZM64 200.2v-.6h.2v.6h-.1ZM57.7 212.9h-.9v-.3h1.3v.3h-.4Zm1.6-.2v-.2l1.2-.3v.2a7 7 0 0 1-1.2.3Zm-3.7-.1-1.2-.5.1-.2 1.1.5v.2Zm6-.8v-.2l.9-.8.1.2-1 .8Zm-8.2-.4-1-.9.2-.1 1 .8-.2.2Zm10-1.4-.2-.1.5-1.1h.2l-.5 1.2Zm-11.7-.5-.6-1.1.2-.1.6 1-.2.2Zm12.6-1.9h-.2l.2-1.2h.2l-.2 1.2Zm-13.6-.4-.4-1.2h.2l.4 1.1-.2.1Zm14-2h-.3v-1.3h.3V205.1Zm-14.7-.4-.2-1.3h.2l.2 1.2H50Zm14.4-2.2-.1-1.2h.2l.1 1.2h-.2ZM49.7 202.3v-.6h.2v.6h-.2Z" fill="#20214E"/><path d="M.1 161v-.8H0v1.4h.1v-.6Z" fill="#F4CCC2"/><path d="M.1 161.6H0v.4l.2.2v-.6Z" fill="#FDFDFD"/><path d="M5 160.3c.3-.2.7-.3 1.2-.3.6 0 1-.4 1.4-.9.7-.8 1.3-1.7 2.2-2.4.3-.2.5-.4.9-.3a.7.7 0 0 1 .5.8c0 .4.1.3.4.2 1.7-.2 2.6-1.6 3.6-2.8 1.8-2 3.4-4.3 5-6.5l3-4.5c.6-.7 1-1.4 2-1.4.4-.1.4-.6.7-.7.3-1.2.8-2.2 1-3.4.2-.8.8-1.1 1.7-1.1h.2l.2-.7c.4.2.3.6.3 1 .8 2 .5 3.9 0 5.8l-.1.2c-1 1.8-.5 3.6.2 5.3 1 2.6 2.9 4.4 5.1 5.8a32.8 32.8 0 0 0 7 3.2l3-5 1.2-2.7c.2-.3.3-.6.6-.7l-1.6 4.1-2 4.6c0 .3.3.3.4.3l4 1.4a6 6 0 0 0 3.7.2c2.8-.5 5.6-1.3 8.3-2.2.2-.1.5 0 .6-.4-1.4-3.3-3-6.4-5.1-9.3 0 .2.2.3.3.4 2.3 2.3 4.3 5 5.9 7.9-.6-.4-.9-1.1-1.6-1.4l1 2.3c.9 0 1.6-.6 2.4-1 3-1.2 5.6-2.7 8.3-4.3v-.1c0-.2 0-.4.2-.6l.2-5c0-.6-.2-1.2-.5-1.6a17.2 17.2 0 0 1-2.6-5.7c-1-.7-1-1.8-.1-2.5 0-.2.1-.2.3-.2 1 0 1.8.4 2.7.7.2 0 .4.3.6.1.5-.4 1.3-.5 2-.7 1.8-.7 3.3-2 4.9-3-.2-.4-.6-.3-.8-.7 1.1-.5 2-1.2 3.3-1.2.3 0 .5-.1.8-.3.1-.3 0-.7.3-1a.9.9 0 0 0 .6-.7 2 2 0 0 1 1.5-1.4c.4 0 .9-.3 1.2-.7l5.3-5c2.1-2.3 4.3-4.4 6-7 1.2-1.5 2-3.2 2.8-5l1.9-4 .1-.1c-.3-.5-6.9-6.8-7.4-7-1.6-.7-6.1-3-6.3-3.2l-.4-.1a.2.2 0 0 1-.2.1c-.3 0-.5 0-.7-.2-1-.5-2-.6-3 0-.1.1-.4.2-.5-.2 0-.3-.4-.4-.4-.8h-.1c-.2 0-1.5-.1-2 .1-.1.2-1.4 2-1.7 2.9l-.3.6c.3-.1.4-.5.7-.6a.6.6 0 0 1-.1.5 14 14 0 0 0-2.2 4.5v1c.5-.6.7-1.3 1.1-2 .5-.7 1.2-1.3 1.6-2 0-.2.3-.3.5-.4l1.5-1.4c.3-.5.8-1 1.3-1.2-.3.5-.8.9-1.2 1.3l-.2.2c.2.3 0 .4-.1.5-1 1.2-2 2.6-2.5 4.1-.4 1.2-.5 2.5-.7 3.7l-.1.8c.3.7 1 1.2 1.6 1.6 1.6 1-.3.4 1.3 1.3.9-.1 1.7-.4 2.2-1.2.5-.6 1-1.2 1.6-1.6a3 3 0 0 1 2.7-.8l.7-.3h.3l-.2.3c.3.3.8.1 1.1.3l1 .4c-.1.2-.3.2-.4.2-1.5 0-2.8.5-4 1.5l-.3.1c-.3.5-1.7-.2-2 .2.2.2-.7-.6-.8.8-.3-.5-1 2.7-.9 2-1 1.3-1.3 2.8-1.8 4.2-.3-.1-.2-.3-.2-.5v-1.5c0-.5-.3-.7-.9-.6-.5.2-1 .5-1.4 1-.2-.2 0-.3 0-.5-.6.8-1.5 1.1-2.4 1.4a3 3 0 0 0-.5.3c.2 0 .5 0 .1.3-.7.4-1.3 1-2 1.3-.6.3-.6.3-.9 1l-.3.3c-1.3.8-2 2-2.8 3.4l-.1.2c-.3 1.1-.9 2.2-1 3.3-.2 1.5-.3 2.9.2 4.3v.7l-.5-1c-.5-1.4-.3-3 0-4.4.1-1.3.5-2.6 1.2-3.7l.5-1.3c-.5.2-.6.7-.8 1 0-.5.2-1 .5-1.5.2-.4.5-.9-.2-1v-.3c-.1 0-.3-.1-.4 0-.8.4-1.7 0-2.6 0-.2 0-.5 0-.7-.2h-.4c-.3.2-.7.5-1 0a.5.5 0 0 0-.4.1c-.9.7-1.7 1.3-2.8 1.6-1.2.4-2.4 1-3.8 1.2l-1.4.2c0 .1-.1 0-.1 0h-.3l1.9-.4a23 23 0 0 0 6-2.7c-.5-.7-1.2-1.2-1.8-1.7a1.2 1.2 0 0 0-1.5-.2c-.3.3-.7.5-1.2.5-1 .2-2 .5-3 .4-2 .3-4 .4-6 0-2 0-3.8-.4-5.5-1.2l-.6-.5h-1a5 5 0 0 0-2.3 1.9c.6 0 .8-.5 1.3-.7-.2.5-.9.6-.8 1 .1.3.3.7.2 1.1-.8-.2-1.5-.7-2.4-.6l-1 .2c-.2 0-.3 0-.4-.2-1.8.4-3.6 1.1-5.4 1.4-1.5.2-2.9.7-4.3 1a8.1 8.1 0 0 1 1.9 5l.1 3 .2 3.4a1.3 1.3 0 0 1-.3 1c-.1-.9-.2-1.7-.1-2.6 0-1.2 0-2.5-.2-3.7-.3-1-.2-2-.5-3l-.6-1.5-.7-1.6c-.4 0-.8.2-1.1.4-1.6 1-3 2.2-4.2 3.6a74.7 74.7 0 0 0-6.4 8c-1.3 2-2.5 3.9-4.1 5.6-.4.4-.6.8-.8 1.3.7.5.2 1 0 1.4-.5.8-.9 1.6-1.2 2.5-1 2.1-1.7 4.4-2.6 6.5-.3.8-.9 1.3-1.3 2-.8 1.2-1.8 2.2-2.6 3.5L1.5 157c-.1.1-.2.3-.3 0a11 11 0 0 0-1 2.8c1.5 1 3 1.1 4.7.5Zm47.5-38.8c-.1.3-.3.2-.5.2H48c-.6 0-1.2-.2-1.8-.4a29.8 29.8 0 0 1-4.8-2l-.2-.4c3.6 1.9 7.3 2.5 11.2 2.6Z" fill="#F25833"/><path d="M20.3 184.9c.5.5.9.5 1.3 0l1-.9c.2-.1.2-.3.2-.5v-2.8c0-.5 0-1 .2-1.6a1 1 0 0 0-.3-1c-.8-1-1.2-2.4-1.1-3.8 0-.6.2-1.1.5-1.7.3-.4.3-1 .2-1.5-.2-.9-.1-1.8-.2-2.7 0-1-.4-1.7-.8-2.5l-2-3.6c-.3-.4-.6-.6-.8-1.1.4 0 .5.3.7.4l-.7-1.1c-.1-.3-.1-.4.1-.6-.3 0-.6.3-1 0-.4-.2-.7-.6-.8-1-.1-.2-.2-.4 0-.5.2-.1.2.1.3.2l.4.5c.3.5.7.6 1.2.4.2-.1.4-.2.5 0 1.7-1.5 3-3.3 4.1-5.2.4-.7.7-1.4 1.3-2-.3-1.7 0-3.3.3-4.9a27 27 0 0 1 1.6-5c0-.1.1-.6.4-.5.3.1 0 .5 0 .7-1 2.5-1.6 5-2 7.7l.2 2c0 .9 0 1.7.5 2.5v.7c-.1 0 0-.2-.2-.2l-.1.3c-.3-.2-.1-.8-.6-1-.2 2-.6 4-1 5.8.2.3 0 .5 0 .8-.4 1.6-.8 3.3-1 5l.1.8-.1 1.5c0 1 .1 1.8.3 2.7l.8-.6c.1-.1.4-.2.5 0 .1.2 0 .4-.2.5-.4.1-.4.4-.3.7a3.2 3.2 0 0 0 3.2 2.3c.3 0 .9-.2.9.3s-.7.5-1 .4c-2-.2-3.4-.8-3.6-3v-.2a4.8 4.8 0 0 0-1.2 4 6 6 0 0 0 2.3 3.5l-.2.1c-.7-.2-.7-.2-.7.6v4.9a.7.7 0 0 0 .2.6c1 .7 2 1.4 3.2 2v-2.4c-.5-.5-.5-1 0-1.4.2.1 0 .3.1.5h.2c0-.8.3-1 1-.7 4.2 1.6 8.5 3 12.9 3.8.2 0 .5 0 .7.2h.2c1.8.3 3.6.4 5.4.4l4 .1c.3 0 .6 0 .6.4.2-.1 0-.5.3-.4.2 0 .1.3.2.5 0 .6-.2 1.2 0 1.8.2-.7.3-1.3.1-2 0-.2 0-.4.4-.4 1 0 1.9-.2 2.8-.1.3-.2.5 0 .5.3 0 .5.2 1 .1 1.6.1 0 .2.1.2.3-.2 0-.2-.2-.2-.3l-.2.2c-.5.3-1.1.2-1.7.2l-2 .2c0 .3.2.8 0 .8-.5 0-.4-.5-.5-.7v-.1h-3c-.6 0-1-.1-.9-.8a1.3 1.3 0 0 0-.2-1.1 388.9 388.9 0 0 1-.5 2.4c-.2 0-.1-.2-.1-.3v-1c-.3.7-.4.8-1.3.7a22 22 0 0 0-2.8-.3c-.5 0-.9 0-.7-.7 0-.4 0-1-.4-1.3 0 .7.3 1.4 0 2.2l-.1.2c-.3-.1-.2-.4-.2-.6 0-.6.1-1.2-.1-1.8v1.4c0 .3-.1.4-.4.4-1.2-.2-2.5-.3-3.7-.6-.3 0-.1-.3-.2-.4 0-.5.2-1.1-.3-1.5 0 .8.2 1.7-.3 2.4-.3-.2-.3-.4-.3-.7.2-.4 0-.8.1-1.1-.2.3 0 .7-.1 1l-3.5-1c-.4-.1-.7-.3-.8-.7-.2.4 0 1-.2 1.4 0 .1-.1.3-.3.3l-.1-.3.1-1.4c-.2.2-.4.1-.6 0l-3-1c-.4-.2-.5-.7-.6-1l-.1-.6v2.7c0 .5.1.7.5.8a53.7 53.7 0 0 0 16 3.3l4.8.4c1.4 0 2.7 0 4-.2l3-.2 4.1-.6 7.5-1.2c1-.2 2-.6 3.1-.7.2 0 .2-.1.2-.2.5-2.1 1-4.2 1.2-6.4 0-.3.2-.7-.1-.8-.3-.1-.5.2-.7.4-1.6 1-3.3 1.7-5.2 2.1a32 32 0 0 1-8.2.9.7.7 0 0 1-.5.2l-5.4.4h-2c1.3-.3 2.4-.8 3.3-1.8h-.3c-2 .7-4.1.4-6.2.4l-3.5-.3c-1.2-.1-2.3-.6-3.4-1-.7-.3-1.5-.5-2.1-.9-1.2-.7-2-1.7-2.8-2.8-.2-.3-.6-.7-.6-1 0-.4.6-.4 1-.6 1.7-1 3.3-2.1 4.3-3.9.2-.3.6-.7.2-1-.4-.3-.5.4-.8.6l-.1.1c-.5.7-1.2.7-1.8.8a10.4 10.4 0 0 1-3.2.3h-.2l-1.8.2c-.8 0-1.5-.3-2-.8-.5-.3-1-.7-1.3-1.1-1.3-1.4-2-3-2.3-4.9-.2-.9-.4-1.8-.4-2.8.1-1.3.3-2.6 1.1-3.7.3-.3.6-.6 1-.7 1-.4 2.2-.2 3.3-.6l.4-.1c-1-.5-1.6-1.5-2.2-2.4a10.6 10.6 0 0 1-1.7-6V150c0-4.1.2-8.2 1.5-12 .1-.3 0-.6.2-.7 0-.4.1-.8-.3-1l-.2.6c-.6 1.2-.9 2.5-1.6 3.6 0 .5-.4.8-.7 1.2.2-.4.3-.9.7-1.2 0-.3 0-.4-.4-.2-.4.3-.4.9-.8 1.2-.4 0-.4.5-.7.7l-1.6 2.3A25.8 25.8 0 0 0 21 150c.4-1.3.5-2.7 1.3-4-.7.7-1 1.5-1.4 2.3-1 2.1-1.2 4.3-1.8 6.5-.2.8-.5 1.7-1 2.3-.6.7-1 .6-1.5-.2v-.3c-.5.7-.5 1.4-.6 2a10.3 10.3 0 0 0 .7 4.7v.3a.4.4 0 0 0 .1.5c.2.1.3-.2.5-.3.2.6.2 1.1 0 1.6l.1.7c.3 0 .5-.3.6-.5l.3-1.3c.6 1 .9 2 1.2 3.1.3 1 .4 2 .4 3s-1 2-2.1 1.7c-.4 0-.4 0-.5.4-.2 1.4-2.3 3-4 2.2-.3 0-.4 0-.2-.3 0-.2.2-.4.3-.5.8-.6.9-1.4 1-2.3 0-.3-.2-.5-.4-.9-.2.7-.4 1.1-1 1.4l-1 .1c-1 0-2 .1-2.8-.6a5.7 5.7 0 0 1-2-2.6l-.5-2c-.1-1 .3-2 1-2.9 0 .4-.2.6 0 1 .2 0 .3-.3.3-.4l1.1-2c.2-.1.2-.3 0-.4a.4.4 0 0 0-.2-.2h-.2l-.1.1-1 .7c-.6.6-1.4.6-2.2.4-.7-.2-1.4-.4-2.1-.4-1.6.1-2.5-.5-3-2.1l-.1.3v1.2c0 .4.4.6.5.9.5 1.3 1.3 2.5 2 3.8.8 1.5 2 2.7 3 4.2 1.4 2.3 3.3 4.2 5.2 6.2.2.1.4.2.4.4l.4.5c2.3 2.5 4.8 4.7 7.6 6.5h.1c.4-.3.7 0 .9.2Zm44.6 1.6c0-.1 0-.3.3-.3.2 0 .2.1.2.3l.3 1.6c0 .2 0 .4-.2.5-.2 0-.2-.3-.3-.4-.2-.6-.3-1.1-.3-1.7Zm-3.3.3 1.7-.2c.4 0 1.3.5 1.5.8.3.6 0 .9-.4 1.1-.7.4-1.6.5-2.3.6-.3 0-.4 0-.4-.3l-.4-1.5c-.1-.3 0-.4.3-.5Zm-4.9.6 3.7-.3c0-.2 0-.4.3-.3a.4.4 0 0 1 .3.4l.2 1.6c.1.1.4.3 0 .4l-.1.3c-.2 0-.2 0-.2-.2 0-.1 0-.2-.2-.3 0 .2 0 .3-.2.4-1 0-2 .3-3.2.3-.2 0-.4 0-.4-.3 0-.5-.2-1-.4-1.6 0-.2 0-.3.2-.3ZM35.3 183c2.3.5 4.6 1 7 1.3l4.1.4c.8 0 1.6.1 2.3.4a.6.6 0 0 1-.4.2 53.5 53.5 0 0 1-14-2c-2.8-.7-5.6-1.6-7.9-3.4 0 0-.2-.1-.2-.3l.7.2c2.6 1.6 5.5 2.4 8.4 3.2Z" fill="#CA482A"/><path d="M38.5 96.4c.5.7 1 1.4 1.8 1.9.8.4 1.6.6 2.4.1.6-.4 1.2-.6 1.6-1.3a.3.3 0 0 1 .4-.1c.2 0 0 .1 0 .2-.5 2 .3 3.5 2.2 4.3 1.3.5 3.1.5 4.4 0 .2.1-.4.6.2.4a4.6 4.6 0 0 0 3.2-2.4V99c-.2-1.2.3-2.4.8-3.5.5-1 1.5-1.7 2.5-2.3a4 4 0 0 1 2.6-.7c.2 0 .5.2.6-.3 0-.1.2 0 .4 0a9.3 9.3 0 0 1 3 .3c-.9-1-2-.9-3.1-1.2h.3-.1H66c-.3-.5-.8-.6-1.3-.8-.2-.1-.7-.1-.6-.3 0-.4.5-.2.8-.1l1.6.4c-.6-.4-1.2-1-2-.8-.3 0-.6.1-.7-.2-.1-.4.2-.3.4-.4l3.2-1.5c1.3-.8 1.8-2 1.9-3.5 0-.3-.1-.6 0-.8 0-.4-.3-.7-.4-1-.5-.8-.8-1.5-1.6-2l-.1-.2a1 1 0 0 1-.5-.3h-1.3c-.3.1-.5-.1-.8-.3-.7-.5-1.5-.8-2.3-.8-.4 0-.7.1-.9.6-.3.8-1 .6-1.7.7l-2.7.1c-.6.1-.8.3-.6 1l.4.7c.5.6.4 1.2 0 1.8-.6 1-1.3 1.4-2.4.8-.8-.4-1.6-.4-2.5-.1-.5.1-.8.6-.8 1.2 0 1-.7 1.7-1.3 2.4-.3.3-.8.2-1.2.1-.4 0-.4-.4-.3-.8.3-.5.8-.8.8-1.4 0-.7 0-1-.6-1.1-.7 0-1.3.3-1.3 1v.4c-.1 1-.8 1.5-1.8 1.3-.6 0-1.3 0-1.9.3-1.5.9-2.4 2-2.3 3.9a9.4 9.4 0 0 1-.9 3.7c-.2.3-.4.5-.8.4-.5 0-.3-.4-.4-.8-.4.4-.9.6-1 1.2a.4.4 0 0 0 .2.4v-.2c.2-.1.2 0 .2 0Zm27.2-9.1c1.3-1.4 1.2-1.6 1.5-2.4.4.8-.5 2.3-1.5 2.4Zm1.6-7c.1.4 0 .8.2 1.2a10 10 0 0 0-.9-.7c-.4-.2-.7.3-1.1.2.3-.6 1-.9 1.8-.7ZM58 91.6 54.7 94c.4-1 2.2-2.3 3.2-2.4Z" fill="#2B2B57"/><path d="M47.6 109.5c.5 0 1.1 0 1.7.2l.5.1h.3c.3-.2.6-.1 1-.1l1.8-.5c-.1-.3-.3 0-.4-.2 1.4-.2 2-1.3 2.5-2.5l1.2-2.1c.6-1 1.4-2 2.2-2.8a5 5 0 0 0 1.3-3c0-.5.2-1.1.7-1.5.3-.5.8-.8 1.4-1 1-.2 1.8.3 2.1 1.6.3-.3 0-.8.2-1.1 0-.7.2-1.4.5-2a1.6 1.6 0 0 1 1.6-.9c.2 0 .2.3.3.4h.5l.5-.5a3.4 3.4 0 0 0 2-2.6l.2-.5.1-.5c0-.5.2-1 .3-1.3l.1-1.3c0-.8 0-1.7-.2-2.6-.1-.3-.3-.6-.3-1l-.2-.5h-.1c-.3.2-.1.5-.1.8-.1 1.5-.6 2.7-2 3.5l-3 1.5c-.3 0-.6 0-.5.4 0 .4.4.3.6.2.9-.1 1.5.4 2.1.8-.5 0-1-.3-1.6-.4-.3-.1-.7-.2-.8 0 0 .3.4.3.6.4.5.2 1 .3 1.3.9h-4.5c1 .3 2.2 0 3.2 1v.1c-1-.3-2-.4-3.1-.3-.2 0-.4-.1-.4 0 0 .5-.4.3-.6.3a4 4 0 0 0-2.6.7c-1 .6-2 1.3-2.5 2.3-.5 1-1 2.3-.7 3.5l-.1.5c-.7 1.3-1.8 2-3.2 2.5-.6.1 0-.4-.2-.4-1.2.4-3 .4-4.3-.1-2-.8-2.7-2.2-2.2-4.3V97a.3.3 0 0 0-.5.1c-.3.7-1 1-1.6 1.3-.8.5-1.6.4-2.4-.1-.8-.5-1.3-1.2-1.8-1.9 0 0 0-.2-.2-.1v.2l.8 2.3c0 .6.4 1 .8 1.5A14 14 0 0 1 42 104l1.5 3.8c.1.5.4 1 .8 1.3l.9.2 2.4.2Zm8.4-14c0 1-.4 1.6-.7 2.3 0-.8.3-1.6.7-2.4Z" fill="#1A1A48"/><path d="m101.6 115.4-2 1c-.2.2-.4.2-.3.5.1.2.3.1.5 0l2.1-.6-1 2a4.9 4.9 0 0 1-4.5 3c-.8 0-1.6 0-2.4.2 1.2.9 2.6.6 4 .8l-1.6 1.8c-1.7 2-4 3.6-6 5.3-1.1 1-2.3 1.8-3.3 2.9a4 4 0 0 1-2.4 1c-.6.1-1 .2-1.4-.3-.5-.6-.6-1.3-.6-2l.1-.4c.2-.5 0-.7-.6-.6-.2.3-.2.7-.3 1-.4 2.2-.8 4.5-2.2 6.3-1 1-2 2-3.2 2.8l-.6.2c-.3 0-.5 0-.5.3s-.3.3-.5.4h-2c-1.1-.1-1.8-.7-2.6-1.2-.5-.5-.7-1-1-1.6-.1-.5-.4-1-.4-1.7 0-.3-.4-.3-.5-.4-.2 0-.3 0-.4.2a5 5 0 0 0 .2 2.5c.4 2 1.4 4 2.6 5.7.3.4.5 1 .5 1.6 0 1.7 0 3.3-.3 5v.6c0 1.3-.4 2.4-.7 3.5-.2.5-.7.8-1.1 1.1a7 7 0 0 1-2.7 1.5c1 .6 1.9.4 2.8.1l.6-.1c1.1-.4 2.1.4 2.2 1.6.2 1.2.2 2.5.1 3.8 0 .3 0 .5.2.7 1.2 1.4 1.5 3.2 1.8 4.9l.1.6c0 .2.1 0 .2 0v-.3l.2-1.3v-6.5c0-2-.2-3.8-.5-5.7a6 6 0 0 1 0-2.4l.5-2.7v-4.1c0-.7 0-1.5.3-2.2l.2-.8c0-.6.2-.8.6-1-1 .1-2 .4-3 .3-.9-.1-1.7-.4-2.3-1.1-.1-.1-.3-.2-.1-.4.1-.2.3 0 .4 0a4.6 4.6 0 0 0 5.8-.2c.2-.2.5-.7.7 0l.4-.4c.4-.3.5-.9 1-1 .7-.2 1.2-.7 1.8-1l.5-.4.2-.2.4-.4c.2-.3.4-.4.6-.5l1-1 3.5-2.6.5-.4 1-.7.4-.4 2.6-2.3.4-.4.5-.4.4-.4 1-1 .4-.3c.1-.1.2-.3.4-.3l1.6-1.5.6-.5 1-1 .4-.4 2.8-2.7.4-.5c.2-.5.5-1 .9-1.4l.7-.6.2-.2.7-.9.4-.7.3-.6.3-1.3c0-.3 0-.5.2-.8 0-.6 0-1-.2-1.6l-.2-.5c-.3.3-.3.8-.4 1.2a3.2 3.2 0 0 1-2.4 2.5Z" fill="#CA482A"/><path d="m101.5 106.2-1.9 4c-.7 1.8-1.6 3.5-2.7 5-1.8 2.6-4 4.7-6.1 7l-5.3 5c-.3.4-.8.6-1.2.7a2 2 0 0 0-1.5 1.4.9.9 0 0 1-.6.7c.6-.1.8 0 .6.6v.4c-.1.7 0 1.4.5 2 .4.5.9.4 1.4.3a4 4 0 0 0 2.4-1l3.3-2.9c2-1.7 4.3-3.2 6-5.3l1.7-1.8c-1.5-.2-2.8 0-4.1-.8l2.4-.3c2.1 0 3.6-1 4.6-2.8.3-.7.5-1.4 1-2.1l-2.2.7-.5-.1c0-.2.1-.3.3-.4.6-.5 1.3-.8 2-1 1.3-.5 2.1-1.2 2.4-2.6 0-.4 0-.9.4-1.2-.4-1-.5-2-1.1-2.8a18 18 0 0 1-1.6-2.8h-.2Z" fill="#E55533"/><path d="M39 95c.2.3 0 .7.5.7.4.1.6-.1.8-.4l.1-.3c.4-1 .8-2.2.8-3.4-.1-1.9.8-3 2.3-3.9.6-.3 1.3-.4 2-.3.9.2 1.6-.4 1.7-1.4v-.4c0-.6.6-1 1.3-.9.5 0 .7.3.6 1 0 .7-.5 1-.8 1.5-.1.4 0 .7.3.8.4.1.9.2 1.2-.1.6-.7 1.3-1.4 1.3-2.4 0-.6.3-1 .8-1.2.9-.3 1.7-.3 2.5.1 1.1.6 1.8.2 2.4-.8.4-.6.5-1.2 0-1.8-.2-.2-.4-.5-.4-.8-.2-.6 0-.8.6-.9l2.7-.1c.6 0 1.4 0 1.7-.7.2-.5.5-.6.9-.6a4 4 0 0 1 2.3.8c.3.2.5.4.8.4v-.1l-1-1.4a.9.9 0 0 1-.6-.5l-.3-.6-.9-1-1-.7c-2.1-.6-3.8 0-5 1.8a.6.6 0 0 1-.4.3c-1.8.3-3.3 1-4.3 2.6a.6.6 0 0 1-.4.3c-1.6.3-3 1.1-4.5 1.6a4 4 0 0 0-1.9 1.6l-.5.4c-.6.4-1.1 1-1.6 1.6l-1.2 1.6V87c0-.4.1-1-.4-1-.5-.2-.7.3-.7.7-.2.9-.5 1.4-1.3 1.7-.4.2-.3.5 0 .7.3.2.6.1 1 .2-.8.7-1.4 1.5-1.9 2.4-.6 1.4-.7 2.9-.3 4.4 0-.6.5-.8.9-1.2Z" fill="#363666"/><path d="M82 203h.1-.1Z" fill="#272A56"/><path d="m72.5 180.6.1-.6a.6.6 0 0 1 .5-.4c.5-.2 1.2-.2 1.6-.8-.3-.2-.5 0-.7 0-.8.3-1.6.5-2.3-.2 0-.1-.2-.2-.3 0a.3.3 0 0 0 0 .3l.5.8h.2-.2l-.5.2c-.1.1-.3.1-.3.3 0 .2.3.1.5.2-1 .8-2 1.4-3.2 1.8-2.1.7-4.3 1.2-6.5 1.4l-3.6.6c-.6 0-1.1 0-1.6.2.1.1.3 0 .4.2h.5a32 32 0 0 0 8.2-.9c1.8-.4 3.6-1 5.1-2 .3-.3.5-.6.8-.5.2.1 0 .5 0 .8 0 2.2-.7 4.3-1.1 6.4 0 .1 0 .2-.2.2-1 0-2 .5-3.1.7-2.5.3-5 1-7.5 1.2l-4 .6-3 .2c-1.4.1-2.8.3-4.1.2-1.6 0-3.3-.2-5-.4l-7.2-1c-3-.4-5.8-1.3-8.6-2.3-.4-.1-.6-.3-.5-.8v-2.7l-.2-.3H27l-.1 1v2.4a34.6 34.6 0 0 1-3.3-2.4v-.3l-.2-3.8.1-1c0-.9 0-.9.7-.7h.2a6 6 0 0 1-2.3-3.6c-.2-1.4.2-2.7 1.1-4v.3c.3 2 1.6 2.7 3.7 3 .3 0 1 0 1-.5s-.6-.2-1-.3c-1.5 0-2.6-.8-3.1-2.3-.2-.3-.2-.6.2-.7.2 0 .4-.2.3-.5-.1-.2-.4-.1-.5 0l-.8.6c-.2-.9-.4-1.8-.3-2.6 0-.6.1-1 0-1.6v-.8c.2-1.7.6-3.4 1-5 0-.3.2-.5 0-.7-1 1.7-1.2 3.6-1.5 5.6v.1l-3-4.5c-.3-.1-.4-.5-.7-.5l.7 1.1 2 3.6c.5.8 1 1.6 1 2.6 0 .8-.1 1.8.1 2.6.1.5 0 1-.2 1.6-.3.5-.5 1-.5 1.7-.1 1.3.3 2.6 1.1 3.7a1 1 0 0 1 .3 1c-.2.5-.2 1-.2 1.6v2.8c0 .2 0 .4-.2.6l-1 .8c-.4.5-.9.5-1.3 0-.2-.2-.5-.5-.9-.2 0 .2.3.3.4.5.9.7 1.3 1 2.4-.1l.5-.6c.3-.1.3.2.3.3 0 .7.5 1 1 1.4 1.3.8 2.6 1.8 4 2.3 3.4 1 6.8 2.1 10.3 2.6a69 69 0 0 0 23.2-.3l7.6-1.6h1.3c.2 0 .3 0 .5-.2l.2-.6a1145.3 1145.3 0 0 1 1.3-5.5v-2.3Z" fill="#BA452B"/><path d="m86.4 158-.2-.1h.2Z" fill="#F8BB5E"/><path d="M76.7 141a4.6 4.6 0 0 1-5.9.3c-.1-.1-.2-.3-.4-.1-.1.2 0 .3.1.4.7.7 1.5 1 2.4 1 1 .2 2 0 3-.3l1.3-1 .1-.3c-.1-.7-.5-.2-.6 0Z" fill="#BB452B"/><path d="M83.1 95.5c.1.4.4.3.6.2 1-.6 2-.5 2.9 0a2.8 2.8 0 0 0 .7.3.2.2 0 0 0 .2-.2l-.4-.3a42.9 42.9 0 0 1-4.4-.8c0 .4.4.5.4.8Z" fill="#BE482D"/><path d="M11 177.3a.6.6 0 0 0 .3.4c0-.2-.2-.3-.4-.4Z" fill="#FDFDFD"/><path d="m.1 161 .2-.3c.4 1.6 1.4 2.3 3 2.1.7 0 1.4.2 2 .4.9.3 1.7.2 2.3-.4a14.4 14.4 0 0 1 1-.8h.2a.4.4 0 0 1 .3.2c.2.2.1.3 0 .5-.4.6-.9 1.2-1.2 2 0 0 0 .3-.3.2-.2-.2.1-.5 0-.8-.7.9-1.1 1.8-1 2.9l.6 2c.3 1 1.2 1.8 2 2.6.7.6 1.8.6 2.7.6.4 0 .7 0 1-.2.6-.2.9-.7 1-1.3.3.3.4.5.4.8-.1.9-.2 1.7-1 2.3l-.3.5c-.1.3 0 .3.2.4 1.7.7 3.8-.9 4-2.3.1-.3.2-.4.5-.4 1 .2 2-.7 2.1-1.7 0-1 0-2-.4-3-.3-1-.5-2.1-1.1-3.1-.2.5-.2 1-.4 1.3 0 .3-.2.6-.5.5-.3 0-.1-.4 0-.7l-.1-1.5c-.2 0-.3.4-.6.2a.4.4 0 0 1-.1-.5.6.6 0 0 0 0-.5c-.6-1.4-.8-3-.6-4.4 0-.7 0-1.4.5-2.1v.3c.4.8.9.9 1.5.2.6-.6.8-1.5 1-2.3.6-2.1 1-4.4 1.9-6.4.3-.9.6-1.7 1.4-2.3-.8 1.2-1 2.6-1.4 3.9l.2-.4c.7-1.7 1.5-3.4 2.6-5l1.5-2.3c-1 0-1.5.7-2 1.4l-3 4.5a83.2 83.2 0 0 1-5 6.5c-1 1.2-1.9 2.6-3.6 2.8-.3 0-.5.2-.4-.2a.7.7 0 0 0-.5-.8c-.4-.1-.6 0-.9.3-.9.7-1.5 1.6-2.2 2.4-.3.5-.8.8-1.4.9-.4 0-.9 0-1.3.3-1.6.6-3.2.5-4.6-.5l-.2.4v.8Z" fill="#E55533"/><path d="M43.8 116.1c1.7.8 3.6 1.2 5.4 1.2.2-.1.1-.2 0-.2l-2.7-1-1.1-.8c-.4-.2-.4-.4-.3-.8a4 4 0 0 1 3.2-2.5h.8c1.4.1 2.7-.2 4-.7l.5-.2c-.3.5-.8.5-1.2.9.6 0 1-.2 1.5-.6.7-.7 1.3-1.5 1.7-2.5 1-2 1.6-4.3 3.1-6.1l1-1c.3-.6.7-.7 1.2-.4.5.2 1 .4 1.5.1-.5 0-1-.3-1.4-.5-.6-.3-.9-1-.6-1.8V98c-.2.3-.1.5-.2.8v.2c0-.5-.3-1 .2-1.3a.4.4 0 0 0 0-.6c-.4.4-.7 1-.7 1.6a5 5 0 0 1-1.3 2.9c-.8.9-1.6 1.7-2.2 2.8v.3l-1 1.7s0 .3-.2.1c-.5 1.2-1 2.2-2.5 2.4 0 .2.3 0 .4.2l-1.8.6h-1.3a1 1 0 0 1-.6.2c-1.2 0-2.3 0-3.5-.3l-.6-.3-.8-.3c0 1.3.1 2.7-.1 4-.2.9-.3 1.8-1 2.6l.6.5Z" fill="#EBB9BD"/><path d="m1.5 157 1.1-1.5c.8-1.3 1.8-2.3 2.6-3.5.4-.7 1-1.2 1.3-2 .9-2.1 1.6-4.4 2.6-6.5.3-.9.8-1.7 1.2-2.5.2-.4.7-1 0-1.4l-1.2 1.9a99 99 0 0 0-5.3 9.9l-2.6 5.7c.1.2.2 0 .3-.1Z" fill="#CA482A"/><path d="M27.6 122.3c.2.5.5 1 .6 1.6.3 1 .2 2 .5 2.9.3 1.2.2 2.5.2 3.7v2.5a1.3 1.3 0 0 0 .4-1l-.2-3.4-.1-3c0-1.8-.7-3.5-1.9-4.9H27l.7 1.6Z" fill="#CD492B"/><path d="m37.2 118.5 1-.2c.9-.1 1.6.4 2.5.6l-.3-1.2c0-.3.6-.4.8-.8v-.1c-.5.2-.7.7-1.2.7-1.2-.1-2.2.4-3.2.8 0 .3.2.2.4.2Z" fill="#CC492B"/><path d="M27.6 150v1.2c0 2.2.5 4.2 1.7 6 .6 1 1.1 1.9 2.2 2.4l-.5.1c-1 .4-2.2.2-3.2.6l-1 .7c-.9 1.1-1 2.4-1.1 3.7 0 1 .2 2 .4 2.9.3 1.7 1 3.4 2.2 4.8l1.3 1.1c.6.5 1.3.8 2 .8s1.3-.1 1.9-.3a39.3 39.3 0 0 0 5.3-1.1c.3-.2.4-1 .8-.6.4.3 0 .7-.2 1-1 1.8-2.7 2.9-4.3 3.9-.4.2-1 .2-1 .5 0 .4.3.8.6 1 .8 1.2 1.6 2.2 2.7 3l2.1.8c1.1.4 2.3.9 3.5 1 1.1.2 2.3.2 3.5.3 2 0 4.1.4 6.2-.4h.3c-1 1-2 1.5-3.3 1.8h2l5.4-.4a.7.7 0 0 0 .5-.2h-2.5c3.5-1 6.8-2.8 10.4-3.8a11.5 11.5 0 0 1-3.8-1.9c-.1-.1-.5-.3-.3-.6.2-.2.4.2.5.2 1 .5 2 .7 3 .5 1 0 1.8-.2 2.5-.9.1 0 .4-.3.4.1 0 .1 0 0 .2 0 .5-.1 1.1-.2 1.7-.5.6-.4 1.2-.4 2-.3.8.2 1.8.1 2.7 0 .6-.2 1-.8 1.3-1.2 0-.8-.3-1.6-.8-2.2 0 .2 0 .3-.2.3-1.7 0-1.7 0-2.9 1 .5-1.4.6-2.6-.2-3.8-.7-1.2-1.8-1.7-2.9-2.3 1-.3 1.7-.1 2.8.5l-.4-.8c.4 0 .7.1 1 .4.8 1 1.6 2 2 3.1 0-1 .3-2 .4-3 0 0-.1.2-.2 0l-.1-.6c-.3-1.7-.6-3.5-1.7-4.9a1 1 0 0 1-.2-.7l-.1-3.8c-.1-1.2-1.2-2-2.3-1.6l-.6.2c-.9.2-1.8.4-2.8-.1a7 7 0 0 0 2.7-1.5c.4-.4 1-.7 1-1.2.4-1.1.8-2.2.8-3.4a73.9 73.9 0 0 1-8.3 4.4c-.9.3-1.6.8-2.6.9 0 .2.2.3 0 .4-.2.2-.3-.2-.4-.3 0 .3-.4.3-.6.4-2.7 1-5.4 1.7-8.3 2.2a6 6 0 0 1-3.6-.1c-1.3-.6-2.7-1-4-1.4-.2-.1-.5-.1-.6-.4-.8 1.4-1.6 2.8-2.6 4l-1.4 1.8a2 2 0 0 0-.5.7l2.3-.8c.2-.1.3-.2.5 0a.4.4 0 0 1-.2.5c-1.4 1.3-3 1.9-5 1.8-.2 0-.3-.2-.4-.4-.2-.2 0-.3.1-.4 2.3-2.3 4.2-5 6.1-7.5l-.6-.2c-2.2-.8-4.4-1.7-6.4-3a12.4 12.4 0 0 1-5.1-5.8c-.7-1.7-1.2-3.4-.2-5.3v-.2c.6-2 1-3.9.1-5.8-.2.2-.1.4-.2.7-1.3 3.9-1.5 8-1.5 12Zm25.7 20.2c.5.5.9 1 1.5 1.3 0 0 .3.1.3.3 0 .7.6 1 1.1 1.1 1.7.8 3.5 1 5.4.8h1c-1.2.5-2.5.7-3.7.5-1-.1-2-.2-2.8-.5-1.8-.6-3.1-1.7-3.8-3.5l-.1-1.5 1 1.5Zm-7 4c.8 0 .9-.8 1.2-1.3 0 0 0-.2.2-.1.1.7-.6 1.7-1.3 1.8l-.3-.1v-.1a.1.1 0 0 1 .1-.1Z" fill="#E55533"/><path d="M57.3 114.7V112c-.2-1.3 0-2.5.2-3.8 0-.6 0-1.2.4-1.8.3.6.5 1.2 1 1.7s1.3.8 2.1.9l2.4-.1c.6 0 .8-.5 1.3-.6.6-.8.8-1.8 1.2-2.6l.2-1.4c0-.6.3-.7.8-.6.8-.4 1-1 .5-1.8-.8-1.5-1-3.2-1.1-4.9-.1-.5-1.2-1-1.8-.8l-.4.3c-.3.3.1.8-.2 1.1-.3-1.3-1-1.8-2.1-1.6-.6.2-1 .5-1.4 1a.4.4 0 0 1 0 .6v1.5a1.9 1.9 0 0 0 1 1.8c.8.4 1.4 0 2-.5l.4-.6c0 .3-.1.6-.3.8-.3.4-.7.7-1 .8-.6.3-1.1 0-1.6-.1-.5-.3-1-.1-1.3.3l-.9 1c-1.5 1.9-2.1 4.2-3 6.3-.5.9-1 1.7-1.8 2.4-.4.4-1 .6-1.5.6.4-.4 1-.5 1.2-.9l-.6.2c-1.2.5-2.5.8-3.9.8-.3 0-.6-.2-.8-.1a4 4 0 0 0-3.2 2.5c-.2.4 0 .6.3.8l1.1.7c.9.5 1.7.8 2.6 1 .2.1.3.2.1.3 2 .4 4 .2 6 0 1.2-.5 2-1.3 2.1-2.6Zm6-14.9c-.2.3-.4.6-.7.5-.6-.1-1-.4-1.3-1-.2-.4 0-1 0-1.5 0-.6.6-.9 1.1-.6.6.3 1 1.2.6 1.9-.2.2-.1.3.1.3.3 0 .3.2.2.4Z" fill="#FED3C8"/><path d="M68.9 136.5c0 .6.3 1.2.5 1.7.2.6.4 1.2 1 1.6.7.5 1.4 1 2.4 1.2a6 6 0 0 0 2 0c.3 0 .6-.1.6-.3 0-.4.2-.4.5-.4.2 0 .4 0 .6-.2 1.2-.8 2.3-1.7 3.2-2.8 1.4-1.8 1.8-4 2.2-6.3-.2.2-.5.3-.8.3-1.2 0-2.2.7-3.2 1.2 0 .4.5.3.7.7-1.6 1-3.1 2.3-5 3-.6.2-1.3.3-2 .7-.1.2-.3 0-.5 0-.9-.4-1.7-.8-2.7-.8.2.2.5.1.5.4Z" fill="#E55533"/><path d="M35.3 165.5c0 .2.2.3.4.4 2 0 3.6-.5 5-1.8a.4.4 0 0 0 .1-.6c0-.2-.3 0-.4 0l-2.3 1 .4-.8L40 162c1-1.3 1.7-2.7 2.6-4l2.1-4.7a47 47 0 0 0 1.6-4c-.3 0-.4.3-.6.5-.4 1-.8 1.9-1.3 2.7l-2.9 5c-1.9 2.7-3.8 5.3-6.1 7.6-.1.1-.3.2-.1.4Z" fill="#CA482A"/><path d="M58.8 112.9v-1.3l-.4 1.8-.2.8c-.1-.4 0-.8.1-1.2l.3-1.6c0-.2 0-.3.2-.1.2-.3.1-.5.2-.8.1-.6.3-.8 1-.6.6.2 1.3.4 2 .1l.4.2.3-.1H62c0-.3.3-.3.5-.3 1 0 1.7-.5 2.1-1.4-.5.1-.8.5-1.3.6H61c-.8 0-1.6-.3-2.1-.8s-.7-1-1-1.7c-.4.6-.3 1.2-.4 1.8-.2 1.3-.4 2.5-.3 3.8.1.9.2 1.7.1 2.6 0 1.3-.9 2.2-2 2.6 1 0 2-.2 3-.4.5 0 .9-.2 1.2-.5v-.4c-.6-1-.8-2-.7-3.1Z" fill="#EBB9BD"/><path d="m80.4 122.4.6.5-.6-.5ZM80.4 109.6c-.2-.1.4.5-1.2-.5-.8-.5-1.6-1-1.8-2.1v-1.2a.6.6 0 0 0-.2-.8l-.6-.6c-.5-.7-.6-1-.2-1.7l.4-.9.2-.6a16.8 16.8 0 0 1 1.6-3c.3 0 .4-.4.7-.5a.6.6 0 0 1-.1.5c-.6.7-1 1.5-1.4 2.4a20 20 0 0 0-.9 2.5v.6c.4.3.4.8.8 1 .5-1.5.8-3.2 1.8-4.5l.7-.8 1.5-1.5h.1l-.2.3-1 1.3A12.2 12.2 0 0 0 78 106c0 .4-.2 1 .3 1.3.3.7 1 1.2 1.6 1.6 1 .6.6.6.6.7ZM88.6 106.3l-.2.2-2.6 2.6c-.3.3-1 0-1.6 0a.6.6 0 0 0-.4.2.7.7 0 0 0-.3.6c.4 0 1-.4 1.2.2l-.4.2c-.4 0-.7 0-1 .2-.5.5-1 .4-1.6.1a.8.8 0 0 1-.4-.2l-.3-.2c.8.4.3-.4 1 0 .4.3.6.2.7-.2.7-1.4 2.6-1.4 3.8-2.4l1-1 .8-.3c.1 0 .2-.2.3 0Z" fill="#BB452B"/><path d="M83.3 110.5c-.5.5-1 .4-1.6.1 0 .4-.3.4-.5.5a8.3 8.3 0 0 0-3.4 3.1c0 .2-.2.3 0 .5.4-.5.9-.8 1.5-1 .5-.1.8 0 .9.6v1.5c-.1.2-.2.4 0 .5.6-1.4 1-3 2-4.1-.2.6.1 1 .4 1.5.1-1.4.3-2.7 1.7-3.4-.4 0-.7 0-1 .2ZM82.7 110c.7-1.4 2.6-1.4 3.8-2.4l1-1a3 3 0 0 0-2.6.8c-.6.4-1.1 1-1.6 1.6-.5.8-1.3 1.1-2.2 1.2.7.4.2-.4 1 0 .3.3.5.2.6-.1Z" fill="#CA482A"/><path d="M60.1 157.5c.2 0 0-.3 0-.4l-1-2.3c.8.3 1.1 1 1.7 1.4a35.8 35.8 0 0 0-5.9-7.9l-.3-.4c2.2 2.9 3.7 6 5 9.3.2.1.3.5.5.3ZM73.7 116.5l-1.4.8c-1 .8-2.2 1.3-3.5 1.1v.3c.7.2.4.7.2 1-.3.5-.4 1-.5 1.6.2-.4.3-.8.8-1l-.5 1.3.3-.2v.3l-.2.7.1-.2a7.7 7.7 0 0 1 2.9-3.4l.2-.3c.3-.7.3-.7.9-1 .7-.3 1.3-.9 2-1.3.4-.2 0-.3 0-.3h-.1c-.3.3-.8.5-1.2.6ZM41.8 119.7c1.5.6 3 1.2 4.5 1.6.6.2 1.2.4 1.8.4H52c.2 0 .4 0 .5-.2-3.9 0-7.6-.7-11.2-2.6a.7.7 0 0 0 .5.8Z" fill="#CB482A"/><path d="M69.1 121.7v-.3l-.3.2c-.7 1.1-1.1 2.3-1.3 3.6-.3 1.5-.5 3 0 4.6l.6 1c.1-.3 0-.6 0-.8a8.7 8.7 0 0 1-.2-4.3c.1-1.2.7-2.2 1-3.3l.2-.7Z" fill="#BC452B"/><path d="M26.8 140.3c.3-.2.3 0 .3.2.8-1 1-2.4 1.7-3.6l-.2.1c-1 0-1.5.3-1.7 1.1-.2 1.2-.7 2.3-1 3.4.4-.3.5-.9.9-1.2Z" fill="#E55433"/><path d="M62.4 118.5a23 23 0 0 1-5.6 2.4l-1.9.5h.3c.6 0 1 0 1.5-.2 1.3-.2 2.6-.8 3.8-1.2a8 8 0 0 0 2.8-1.6h-.9Z" fill="#CC492B"/><path d="M80.7 99.5a12.2 12.2 0 0 0-2.8 6.5c0 .4-.2 1 .3 1.3v-.8c.3-1.2.4-2.5.8-3.7.6-1.5 1.4-2.9 2.5-4 .1-.2.3-.3.1-.6l-1 1.3Z" fill="#CA482A"/><path d="M77.7 104.8c.5-1.6.8-3.3 1.9-4.6l.6-.9-.5.3c-.4.8-1.1 1.4-1.6 2.1-.4.7-.6 1.4-1.1 2 .3.3.3.8.7 1Z" fill="#CA482A"/><path d="m85.8 109.1.3-.1c1.2-1 2.5-1.4 4-1.5.1 0 .3 0 .4-.2l-1-.4c-.3-.2-.8 0-1-.4-1 1-2 1.7-2.7 2.6Z" fill="#CB482A"/><path d="M68 136.3c-.8.7-.8 1.8.2 2.5a5 5 0 0 1-.1-2.5Z" fill="#E55533"/><path d="M81.8 98c.4-.4.9-.8 1.2-1.3-.5.2-1 .7-1.3 1.2h.1Z" fill="#CC4B2D"/><path d="M64.7 118.3h-1c.3.4.6.2 1 0ZM65 118.3c.3.2.5.1.8.1h-.7Z" fill="#DC5738"/><path d="M71 151v.7-.6ZM27.5 184.8c.1.4.1.9.7 1l3 1.1c.1.1.3.2.5 0 0-.3-.1-.8.2-.8.4 0 .2.5.3.8 0 .4.4.6.8.7l3.5 1c0-.3-.1-.7.1-1 0-.3-.2-.8.5-.6.5.4.3 1 .3 1.4 0 .2 0 .4.2.5l3.7.6c.2 0 .3-.1.3-.4v-1.4c0-.2 0-.3.2-.4-.2-.2-.5-.2-.7-.2-4.4-.8-8.7-2.2-12.9-3.8-.7-.3-1-.2-1 .7l.2.3v.5ZM42.5 189c-.2.7.2.7.7.7 1 0 1.8.1 2.8.3.9 0 1 0 1.3-.7l.1-1c.1-.4.3-.4.5-.1a1.3 1.3 0 0 1 .2 1.1c-.1.7.3.8.8.8h3v-2c0-.3-.2-.3-.5-.3h-4a60 60 0 0 1-5.4-.5l.1.4c.4.4.5.9.4 1.3Z" fill="#E55533"/><path d="M26.2 179.5c0 .2.1.2.2.3 2.3 1.8 5 2.7 7.8 3.4a49.8 49.8 0 0 0 14.6 1.8c-.8-.3-1.6-.3-2.4-.4l-4.2-.4c-2.3-.3-4.6-.8-7-1.3-2.8-.8-5.7-1.6-8.3-3.2-.2 0-.4-.3-.7-.2Z" fill="#BB452B"/><path d="M56.9 189.4c0 .3.2.3.4.3 1.1 0 2.1-.2 3.2-.3.2 0 .2-.2.2-.4l-.3-2-3.7.5c-.3 0-.2.1-.2.3l.4 1.6ZM52.6 190h1.9c.6-.1 1.1 0 1.7-.3-.4-.6-.4-1.4-.4-2.1H53c-.3 0-.4.3-.3.5.2.7 0 1.3 0 2Z" fill="#E55533"/><path d="M24.7 154.7c.5.2.3.7.6 1v-.4c.2 0 .2.3.4.2l-.1-.7c-.4-.8-.6-1.6-.5-2.5 0-.7-.3-1.4-.2-2 .4-2.6 1-5.2 2-7.7 0-.2.3-.6 0-.7-.3 0-.3.4-.4.6a27 27 0 0 0-1.6 4.9c-.4 1.6-.6 3.2-.3 5l.1 2.3Z" fill="#BB452B"/><path d="M61.7 188.8c0 .2.1.4.4.3.7-.2 1.6-.2 2.3-.6.4-.2.7-.5.4-1-.2-.4-1-1-1.5-.9l-1.7.2c-.3 0-.4.2-.3.5l.4 1.5Z" fill="#E55533"/><path d="M33.5 174a.4.4 0 0 0 .3.1c1 0 2 0 3-.3.6-.1 1.4-.1 1.8-.8a39.4 39.4 0 0 1-5.2 1Z" fill="#BC452B"/><path d="M52 188.2v1.9c.1.3 0 .9.4.8.3 0 .1-.5.2-.8-.3-.6 0-1.2-.1-1.8 0-.2 0-.4-.2-.5-.2 0-.1.3-.3.4ZM60.9 189.3c0 .1 0 .3.2.2l.1-.2v-.5a9 9 0 0 0-.3-1.9l-.3-.1c-.2 0-.2.1-.2.3l.3 2c.2 0 .1.1.2.2Z" fill="#BB452B"/><path d="m18.6 159.9.6-.4c-.1-.2-.3-.1-.5 0-.5.2-1 0-1.2-.4l-.4-.5c0-.1-.1-.3-.3-.2-.2 0-.1.3 0 .4.1.5.4.9.8 1.2.4.2.7-.2 1-.1Z" fill="#BC462C"/><path d="M47.9 188.2c-.2-.3-.3-.3-.5 0l-.1 1v1.1l.1.3c.2 0 .2-.1.2-.2l.3-2.2ZM37 187c-.6-.2-.3.3-.4.6 0 .3.1.7-.1 1 0 .3 0 .6.3.8.5-.8.2-1.6.3-2.4ZM65.5 188.6c.3 0 .1-.3.2-.5l-.3-1.6c0-.2 0-.3-.2-.3s-.2.2-.3.3c0 .6.1 1.1.3 1.7.1.1 0 .4.3.4Z" fill="#BB452B"/><path d="M32 186.1c-.4 0-.3.5-.3.8a5 5 0 0 0-.1 1.4l.1.3c.2 0 .2-.2.2-.3.2-.5 0-1 .3-1.4-.1-.3.1-.8-.3-.8Z" fill="#BC452B"/><path d="M41.7 187.7c.2.6 0 1.2 0 1.7 0 .3 0 .6.3.7l.1-.2c.3-.8 0-1.5 0-2.2l-.1-.4h-.2c-.2.1-.1.3-.1.4ZM56.4 189.5l-.1-1.6c0-.2-.2-.5-.5-.3 0 .7 0 1.5.4 2.1l.2-.2Z" fill="#BB452B"/><path d="M27 183.5c-.6.4-.6.9-.1 1.4l.1-1v-.4Z" fill="#E05231"/><path d="M26.5 141.7c.2-.4.6-.7.6-1.2-.4.3-.5.8-.6 1.2ZM27.1 140.5Z" fill="#E55433"/><path d="M61.2 188.8v.5c.4-.2.1-.4 0-.5ZM56.5 189.8h.1c0-.2 0-.2-.2-.3l.1.3Z" fill="#E55533"/><path d="m54.7 94 3.2-2.4c-1 0-2.8 1.5-3.2 2.4ZM66.6 80.8l1 .7-.3-1.2c-.8-.2-1.5.1-1.8.7.4 0 .7-.4 1.1-.2ZM67.3 80.3Z" fill="#1B1B49"/><path d="M65.7 87.3c1-.1 2-1.7 1.5-2.4-.3.8-.2 1-1.5 2.4Z" fill="#1C1C49"/><path d="M66.3 97c.2-1 .2-2 .2-3-.1 0 0-.3-.3-.3a1.6 1.6 0 0 0-1.6.8c-.3.7-.5 1.4-.5 2l.4-.2c.6-.2 1.7.2 1.8.8Z" fill="#EBB9BD"/><path d="M67.4 102c.5.8.3 1.3-.5 1.8-.3.1-.7.2-.8.6l-.2 1.4.1.4.4-1.5c0-.4.1-.4.4-.5 1.3-.2 1.8-1.3 1-2.4-.8-1.2-1-2.4-1-3.8-.2-1.3.1-2.6.2-4h-.5c0 1 0 2-.2 3 0 1.8.3 3.4 1.1 5Z" fill="#454065"/><path d="m49.3 109.7-1.7-.2-2.5-.2.6.3c1.1.3 2.3.3 3.5.3h.6c-.1-.3-.3-.2-.5-.2Z" fill="#323059"/><path d="m55.3 106.4 1-1.7-.1-.3c-.5.6-1 1.4-1.2 2.1.2.2.2 0 .3-.1Z" fill="#EBC2BD"/><path d="M55.3 97.8c.3-.7.7-1.4.7-2.4a6 6 0 0 0-.7 2.4Z" fill="#262652"/><path d="m50 109.8 1-.1h-1Z" fill="#323059"/><path d="m72 179.6-.1.1h.2Z" fill="#CA482A"/><path d="M75.7 176.2c-.4.4-.7 1-1.3 1.1-1 .2-1.9.3-2.8.1-.7 0-1.3 0-2 .3-.5.3-1 .4-1.6.6h-.2c0-.5-.3-.3-.4-.2-.7.7-1.6.8-2.4 1-1 0-2.1-.1-3-.6-.2 0-.4-.4-.6-.2-.2.3.2.5.4.6l.6.4c1 .6 2 1.2 3 1.5-3.4 1-6.7 2.7-10.3 3.8h2c0-.2-.3 0-.4-.2.5-.2 1-.1 1.6-.2l3.6-.6c2.2-.2 4.4-.7 6.5-1.4 1.1-.4 2.2-1 3.2-1.8-.2 0-.4 0-.5-.2 0-.2.2-.2.3-.3l.5-.2-.5-.8a.3.3 0 0 1 0-.4h.3c.7.8 1.5.6 2.3.3.2 0 .4-.2.6 0 .8-.7 1.2-1.6 1.1-2.6Z" fill="#CA482A"/><path d="M73.4 180.3a.2.2 0 0 0 .2-.1.2.2 0 0 0 0-.2c0-.3-.3-.3-.5-.4a.6.6 0 0 0-.5.4c.2.4.5.3.8.3Z" fill="#F5C65D"/><path d="M22.4 186.7Z" fill="#2A2D58"/><path d="M62.4 101.5c.5-.1.8-.4 1.1-.8l-.1-.2c-.6.5-1.2.9-2 .5a1.9 1.9 0 0 1-1-1.8c-.3.7 0 1.5.6 1.8l1.4.5Z" fill="#C49D9D"/><path d="M60.4 98v-.3c-.5.3-.2.8-.2 1.3v-.2c0-.3 0-.6.2-.8Z" fill="#BA9496"/><path d="M74.2 172.4a9.8 9.8 0 0 0-2.1-3c-.3-.4-.6-.5-1-.5l.4.8c-1-.6-1.9-.8-2.8-.5 1 .6 2.2 1.1 3 2.3.6 1.2.6 2.4.1 3.7 1.2-.8 1.2-.8 2.8-.8.3 0 .3-.2.3-.4-.3-.5-.6-1-.7-1.6ZM56 173.6c1 .4 2 .5 2.9.6 1.2.2 2.5 0 3.7-.5h-1c-1.9.3-3.7 0-5.4-.8-.5-.2-1-.4-1.1-1.1 0-.2-.2-.3-.4-.3l-1.4-1.3c-.5-.4-.7-1-1.1-1.5l.1 1.5c.6 1.8 2 2.8 3.8 3.4Z" fill="#CA482A"/><path d="M46.4 174.6c.7 0 1.4-1 1.3-1.8l-.2.1c-.3.5-.4 1.3-1.3 1.4v.2l.2.1Z" fill="#CD492B"/><path d="M65.9 105.8c-.4.8-.6 1.8-1.2 2.6-.4.9-1 1.4-2.1 1.4-.2 0-.4 0-.5.2h.6c.6 0 1.3-.2 1.7-.7.8-1 1.3-2 1.6-3.1l-.1-.4Z" fill="#4F4C6F"/><path d="m58.6 111.4-.3 1.6c0 .1 0 .3.2.4l.3-1.8v-.4c-.1-.1-.2 0-.2.2Z" fill="#8B728A"/><path d="M74.9 115.9c-.5.1-.9.3-1.2.6.4 0 .8-.3 1.2-.6Z" fill="#F25833"/><path d="M62.6 98.8c.2-.5 0-.8-.2-1-.3-.4-.6-.3-.8-.1h-.4l.1 1.7c.2.5.7.8 1.3.9.3 0 .5-.2.7-.4-1-.1-1-.4-.7-1.2Z" fill="#EABBBE"/><path d="M63.1 99.5c-.2 0-.3-.2-.1-.4.3-.6 0-1.6-.6-2-.5-.2-1 0-1.2.7l.4-.1c.2-.2.5-.3.8 0 .2.3.4.6.2 1-.4.8-.2 1.1.7 1.1.1-.2.1-.3-.2-.3Z" fill="#AE8A8D"/><path d="M66.9 103.8c-.5 0-.8 0-.8.6.1-.4.5-.5.8-.6Z" fill="#4F4C6F"/><path d="M63.5 100.7c.2-.2.3-.5.3-.8l-.4.6.1.2Z" fill="#D8B1AC"/><path d="M58.3 113c-.1.4-.2.8 0 1.2l.1-.8c-.1-.1 0-.3 0-.4Z" fill="#AD8B9C"/><path d="M143.3 153h-29.4v36h29.4v-36Z" fill="#B2C6D0"/><path d="M143.3 153h-29.4v36h29.4v-36Z" stroke="#B2C6D0" stroke-miterlimit="10"/><path d="M131.6 153h-2.2v36h2.2v-36Z" fill="#6F92A1"/><path d="M145.2 151.6H114c-.8 0-1.4.7-1.4 1.5v35.8c0 .8.6 1.5 1.4 1.5h31c.8 0 1.4-.7 1.4-1.5v-35.8c0-.8-.6-1.5-1.3-1.5Zm-1 38.4H115v-36h29.3v36Z" fill="#BBB6A6"/><path d="M116.2 153h-2.3v36h2.3v-36Z" fill="#6F92A1"/><path d="M143.3 154.9v-2h-29.4v2h29.4Z" fill="#6F92A1"/><path d="M129.4 153H127v36h2.3v-36Z" fill="#fff"/><path d="M144.2 150.7H113c-.7 0-1.3.6-1.3 1.4V188c0 .8.6 1.4 1.3 1.4h31.2c.7 0 1.3-.6 1.3-1.4V152c0-.8-.6-1.4-1.3-1.4Zm-1 38.4H114V153h29.4v36Z" fill="#fff"/><path d="M150.8 187.8H108v3.8h43v-3.8Z" fill="#EDEAEE"/><path d="m81.8 173.8 19.1 2.3a1.6 1.6 0 0 0 1.8-1.3l.3-2.6a2.5 2.5 0 0 0-.7-2H84.8l-3 3.6Z" fill="#DFB480"/><path d="M99.1 152.6H84.7v16.2H99v-16.2Z" fill="#B2C6D0"/><path d="M99.1 152.6H84.7v16.2H99v-16.2Z" stroke="#B2C6D0" stroke-miterlimit="10"/><path d="M93.4 152.6h-1.1v16.2h1v-16.2ZM85.7 152.6h-1v16.2h1v-16.2Z" fill="#6F92A1"/><path d="M99.1 153.5v-.9H84.6v.9h14.5Z" fill="#6F92A1"/><path d="M92.3 152.6h-1.1v16.2h1v-16.2Z" fill="#fff"/><path d="M99.6 151.6H84.2a.6.6 0 0 0-.6.6v16a.6.6 0 0 0 .6.7h15.4a.7.7 0 0 0 .5-.2.6.6 0 0 0 .1-.4v-16a.6.6 0 0 0-.1-.5.7.7 0 0 0-.5-.2Zm-.5 17.2H84.7v-16.2H99v16.2Z" fill="#fff"/><path d="M83.2 168.3v4.7l-2 1.2a.4.4 0 0 1-.1-.4V169l2-.8Z" fill="#3B6A90"/><path d="M83 170.1s-.6-1 .1-2c.8-1 1.8-1 2.5-.7.7.3.8 0 1.2-.2.4-.3 1.8-.5 2.4 0 .7.5 1 1.2 1.9 1 .8 0 1.3-.2 1.4 0 0 0 .4-1.5 2-1.5 1.7 0 2 1.5 2 1.5s1.7-1 2.5.7a2.3 2.3 0 0 1 1.9-1c1.2 0 1 1.5 1 1.5l-.3.4-5 .4-9 .3-4.6-.4Z" fill="#549766"/><path d="m103 172.9-1.8 1.3v-5.1l1.9-.8v4.6Z" fill="#3B6A90"/><path d="M93.4 169.4a.5.5 0 1 0 0-1 .5.5 0 0 0 0 1ZM100.3 169.4a.5.5 0 1 0 0-1 .5.5 0 0 0 0 1ZM86.2 169.4a.5.5 0 1 0 0-1 .5.5 0 0 0 0 1Z" fill="#DF6848"/><path d="M101.2 174.2h-.3c-.3 0-.2-.3-.2-.3l.2-.2h.3l.2.2-.2.3Z" fill="#3B6A90"/><path d="M101.2 169v5.2H81.2a.4.4 0 0 1-.2-.4v-4.7h20.1Z" fill="#5583AD"/><path d="M88.6 168.5a.3.3 0 1 0 0-.6.3.3 0 0 0 0 .6ZM87.1 167.7a.3.3 0 1 0 0-.7.3.3 0 0 0 0 .7ZM84.2 168.5a.3.3 0 1 0 0-.6.3.3 0 0 0 0 .6ZM90.6 168.6a.4.4 0 1 0 0-.8.4.4 0 0 0 0 .8ZM97.9 168.6a.4.4 0 1 0 0-.8.4.4 0 0 0 0 .8ZM95 168a.4.4 0 1 0 0-.7.4.4 0 0 0 0 .8Z" fill="#DF6848"/><path d="M155.8 161.3h-5.6v7.5h5.6v-7.5Z" fill="#5C6166"/><path d="M154.7 160.7H149v7.5h5.6v-7.5ZM110.6 159.5h-3v4h3v-4Z" fill="#A5A29B"/><path d="M156.7 158.2v-4c0-.3-.3-.6-.6-.6h-6.4c-.3 0-.6.3-.6.6v4c0 .3.3.6.6.6h6.4c.3 0 .6-.3.6-.6Z" fill="#1A1A48"/><path d="M152.2 156c.2 0 .3 0 .5.2l.1.5a.8.8 0 0 1-.2.7 1 1 0 0 1-.7.2l-.6-.1a.9.9 0 0 1-.4-.5l.5-.2a.4.4 0 0 0 .5.3l.3-.1a.4.4 0 0 0 0-.4v-.2h-.5l-.2-.4.6-.7h-1v-.5h1.6v.5l-.5.6ZM153 157.6v-.4l1-1 .3-.5a.4.4 0 0 0-.1-.3h-.2v-.1h-.4l-.2.3-.4-.3.4-.4.5-.1c.2 0 .5 0 .6.2l.2.3.1.3a1.3 1.3 0 0 1-.4 1l-.6.4h1v.6H153Z" fill="#fff"/><path d="M154 161.5h-4.2v1.3h4.2v-1.3Z" fill="#1A1A48"/><path d="m149.1 168.1 1.1.7.4-.3v-.4H149ZM154.7 160.7v1.7l1-.5v-.6l-1-.6Z" fill="#5C6166"/><path d="M109.3 163.5V162h-.4v1.5h.4Z" fill="#1A1A48"/><path d="M77 93.8v5a.5.5 0 0 1-.5.5h-.8a1.8 1.8 0 0 1-1.7-1l-.4-1.2c-.3-1.2-1.2-1.4-1.7-1.5-.5-.2-1-.1-1.5-.8a2 2 0 0 0-.7-.4c-.2-.1-.3-1.5.3-1.5l1 .2.8.3c.6.2 1 .2 1.8-.2a1.1 1.1 0 0 0 .5-1.3l-.2-.4h.6a2.4 2.4 0 0 1 2.5 2.3Z" fill="#FED3C8"/><path d="M76.8 93s-1.5.7-2 .6c-.6 0-.6-1-.6-1l-.3-1.7-.4-.4a.3.3 0 0 0-.3-.3h-.8c.4-1.7 1.5-.9 1.5-.9l1.3 1c.4.3.7.7.9 1.2l.7 1.4Z" fill="#FED3C8"/><path d="M73.8 94c-.5.3-1.7.3-2.2 0-.6-.1-.6-.9-.6-.9l.8.3c.6.2 1 .2 1.8-.2a1.1 1.1 0 0 0 .5-1.3h.1c.2.2.1 1.7-.4 2Z" fill="#EBB9BD"/><path d="m73.7 90.7-1-.7.5-.2.4.1.2.4-.1.3Z" fill="#FED3C8"/><path d="M77 98.8a.5.5 0 0 1-.5.5h-.8a1.8 1.8 0 0 1-1.7-1l-.4-1.2c-.3-1.2-1.2-1.4-1.7-1.6-.5-.1-1 0-1.5-.7a2 2 0 0 0-.7-.4v-.1c.5.1 1 .3 1.3.6.7.3 2 .3 2.6 1 .5.5 1.1 2.5 2 2.4.5 0 1 .3 1.4.5Z" fill="#EBB9BD"/><path d="M77 97.2s-.2 1.3-.7 1.4c-.6 0 0 .2.4.4h.7s.2-.2 0-.8c0-.3-.2-.7-.4-1Z" fill="#EBB9BD"/><defs><linearGradient id="a" x1="42.9" y1="226.8" x2="44.4" y2="167" gradientUnits="userSpaceOnUse"><stop offset=".1" stop-color="#33325D" stop-opacity="0"/><stop offset=".2" stop-color="#33325D" stop-opacity=".4"/><stop offset=".3" stop-color="#33325D"/></linearGradient></defs></svg>