<svg width="21" height="25" viewBox="0 0 21 25" fill="none" xmlns="http://www.w3.org/2000/svg">
<path d="M20.7495 10.4624C20.737 13.2686 19.7065 15.665 17.757 17.6641C15.6214 19.8494 13.436 21.9975 11.2631 24.158C10.5926 24.8285 10.1953 24.8285 9.52477 24.1704C7.33943 21.9975 5.12926 19.8494 2.99358 17.6393C-1.68751 12.7843 -0.756257 5.17289 4.93059 1.54722C9.04051 -1.06029 14.6777 -0.302868 17.9681 3.29797C19.843 5.34673 20.7495 7.68107 20.7495 10.4624ZM10.2449 22.4073C10.3443 22.4197 10.4436 22.4197 10.5429 22.4321C10.7664 22.1589 10.9527 21.8609 11.201 21.6126C12.8773 19.9239 14.5659 18.2601 16.2422 16.559C18.5765 14.1998 19.396 11.3937 18.6014 8.1529C17.3349 3.08689 11.3252 0.3428 6.68134 2.71439C1.30491 5.44606 0.237078 12.3001 4.52084 16.5466C5.32792 17.3537 6.13501 18.1483 6.92968 18.9554C8.04718 20.0978 9.13985 21.2525 10.2449 22.4073Z" fill="currentColor"/>
<path d="M14.7645 9.86642C14.7645 12.2877 12.8151 14.2619 10.4063 14.2743C7.97258 14.2868 6.01074 12.3001 6.01074 9.84158C6.01074 7.40791 7.96016 5.45849 10.369 5.44607C12.8151 5.43366 14.7645 7.39549 14.7645 9.86642ZM10.4435 7.34583C8.99075 7.33341 7.84841 8.41366 7.82358 9.84158C7.81116 11.2074 8.94108 12.3622 10.3318 12.387C11.7597 12.4118 12.9268 11.2943 12.9393 9.89125C12.9641 8.48816 11.8466 7.35824 10.4435 7.34583Z" fill="currentColor"/>
</svg>
