<svg width="39" height="38" viewBox="0 0 39 38" fill="none" xmlns="http://www.w3.org/2000/svg">
<path d="M29.5339 30.2261C29.5846 28.9415 29.3311 27.6569 28.8241 26.4479C28.2156 25.0373 26.7706 23.0222 25.3002 20.982C25.0467 20.6293 24.7932 20.2515 24.5397 19.8989H24.4383C24.3369 19.8989 24.2862 19.8989 24.2862 19.8989H24.1848L24.0834 19.8737C23.2721 19.7225 21.5483 19.3699 20.3821 17.8082C19.3681 16.448 19.9511 14.8864 20.4582 14.1559L20.4835 14.1055C20.4075 13.9292 20.3061 13.7025 20.2047 13.4758C19.3174 11.3348 17.4921 7.12833 16.0724 4.50873C14.7035 1.9647 8.41636 0.680088 1.749 0.0755653C1.47014 0.0503769 1.01382 0.0251884 0.481445 0V3.95458C5.39957 4.15609 9.70927 4.60948 10.3938 4.73543C11.7627 5.03769 12.8782 5.94447 13.3852 7.1787L17.2639 16.6244C17.2639 16.6244 14.3232 17.0778 9.68392 17.4556H9.65857C7.07275 17.6319 3.9292 17.8082 0.481445 17.8586V37.5308H29.2043L29.5592 32.745L29.5339 30.2261ZM24.0327 29.5712C22.5623 32.0901 18.8103 32.8961 16.7315 33.148C15.9203 33.2487 15.1598 32.7702 15.1598 32.1656C15.1344 31.1329 15.4133 29.4705 16.9597 27.6569C18.4554 25.9441 19.8244 24.5587 20.7117 23.7275C21.2694 23.1985 22.3595 23.2489 22.8919 23.8031C24.0327 25.0625 25.4016 27.2539 24.0327 29.5712Z" fill="#3A4C83"/>
<g opacity="0.4">
<path opacity="0.4" d="M24.769 18.9923C24.5408 18.9923 24.3126 18.9671 24.0845 18.9168C23.1972 18.7153 22.0564 18.3374 21.2198 17.2291C20.3579 16.0705 21.2705 14.7355 21.3212 14.6851L21.3465 14.6599C22.5127 13.2494 25.3267 12.7204 27.2534 13.5516C28.5716 14.131 29.2054 15.2393 29.0279 16.7002C28.7744 18.6397 26.0365 18.9419 24.8957 18.9671C24.8197 18.9923 24.7943 18.9923 24.769 18.9923ZM21.7775 15.0126C21.7015 15.1133 21.093 16.0957 21.6761 16.9017C22.3859 17.8588 23.4 18.1863 24.2112 18.3626C24.414 18.413 24.6422 18.4382 24.845 18.413C25.6309 18.3878 28.2167 18.1863 28.4195 16.6246C28.6223 15.1133 27.7604 14.408 26.9999 14.0806C25.3267 13.3753 22.7916 13.8287 21.7775 15.0126Z" fill="#3A4C83"/>
</g>
<path d="M34.0703 8.23647C35.3632 7.07781 35.7942 6.57404 35.7942 5.66725C35.7942 4.50859 34.9069 3.67737 33.7914 3.67737C32.7013 3.67737 31.8648 4.40783 31.3831 5.7932L29.2029 4.86122C29.8874 2.54389 31.5859 1.25928 33.8675 1.25928C36.4026 1.25928 38.4814 3.02247 38.4814 5.46575C38.4814 6.92668 37.7716 7.98459 36.2759 9.29439C34.9576 10.4531 34.5013 10.9064 34.5013 11.6117C34.5013 11.788 34.5013 12.2666 34.5013 12.2666H32.1183C32.1183 12.2666 32.0929 11.511 32.0929 11.1331C32.1183 10.1256 32.7774 9.31958 34.0703 8.23647Z" fill="#3A4C83"/>
<path d="M34.5767 13.6016H32.219V15.9441H34.5767V13.6016Z" fill="#3A4C83"/>
</svg>
