<svg width="37" height="37" viewBox="0 0 37 37" fill="none" xmlns="http://www.w3.org/2000/svg">
<path d="M12.2226 29.5681C13.7811 29.5681 15.3396 29.5681 16.8982 29.5681C17.764 29.5681 17.9227 29.7269 17.9227 30.5639C17.9227 32.3677 17.9227 34.1715 17.9227 35.9609C17.9227 36.7979 17.7351 36.9855 16.9126 36.9855C13.7667 36.9855 10.6209 36.9855 7.47498 36.9855C6.60915 36.9855 6.46484 36.8556 6.46484 35.9753C6.46484 34.1715 6.46484 32.3677 6.46484 30.5783C6.46484 29.6692 6.58029 29.5537 7.53271 29.5537C9.10564 29.5681 10.6641 29.5681 12.2226 29.5681Z" fill="currentColor"/>
<path d="M24.8494 29.5681C26.379 29.5681 27.9231 29.5681 29.4528 29.5681C30.4052 29.5681 30.5062 29.6835 30.5206 30.5926C30.5206 32.3965 30.5206 34.2003 30.5206 35.9897C30.5206 36.8555 30.3907 36.9998 29.5105 36.9998C26.3646 36.9998 23.2187 36.9998 20.0729 36.9998C19.2503 36.9998 19.0627 36.8122 19.0627 35.9752C19.0627 34.1714 19.0627 32.3676 19.0627 30.5782C19.0627 29.7268 19.2215 29.5825 20.0873 29.5825C21.6747 29.5536 23.262 29.5681 24.8494 29.5681Z" fill="currentColor"/>
<path d="M4.73866 17.9368L4.73865 17.9368L4.73859 17.9393C4.70958 19.1289 4.70953 20.3041 4.73846 21.4936C4.73974 21.8199 4.83586 22.1305 5.0778 22.3653C5.30653 22.5873 5.60453 22.6812 5.88829 22.7179C6.06664 22.7463 6.25231 22.7419 6.37935 22.7389C6.41222 22.7381 6.44116 22.7374 6.46504 22.7374H6.48745H6.50985H6.53226H6.55467H6.57707H6.59948H6.62188H6.64429H6.66669H6.68909H6.7115H6.7339H6.7563H6.77871H6.80111H6.82351H6.84591H6.86831H6.89071H6.91311H6.93551H6.95791H6.98031H7.00271H7.02511H7.04751H7.06991H7.09231H7.11471H7.1371H7.1595H7.1819H7.2043H7.22669H7.24909H7.27148H7.29388H7.31628H7.33867H7.36107H7.38346H7.40585H7.42825H7.45064H7.47304H7.49543H7.51782H7.54021H7.56261H7.585H7.60739H7.62978H7.65217H7.67456H7.69695H7.71935H7.74174H7.76413H7.78652H7.8089H7.83129H7.85368H7.87607H7.89846H7.92085H7.94324H7.96562H7.98801H8.0104H8.03279H8.05517H8.07756H8.09995H8.12233H8.14472H8.1671H8.18949H8.21187H8.23426H8.25664H8.27903H8.30141H8.3238H8.34618H8.36856H8.39095H8.41333H8.43571H8.45809H8.48048H8.50286H8.52524H8.54762H8.57001H8.59239H8.61477H8.63715H8.65953H8.68191H8.70429H8.72667H8.74905H8.77143H8.79381H8.81619H8.83857H8.86095H8.88333H8.9057H8.92808H8.95046H8.97284H8.99522H9.0176H9.03997H9.06235H9.08473H9.1071H9.12948H9.15186H9.17423H9.19661H9.21899H9.24136H9.26374H9.28611H9.30849H9.33086H9.35324H9.37561H9.39799H9.42036H9.44274H9.46511H9.48749H9.50986H9.53223H9.55461H9.57698H9.59935H9.62173H9.6441H9.66647H9.68885H9.71122H9.73359H9.75596H9.77834H9.80071H9.82308H9.84545H9.86782H9.89019H9.91257H9.93494H9.95731H9.97968H10.002H10.0244H10.0468H10.0692H10.0915H10.1139H10.1363H10.1586H10.181H10.2034H10.2258H10.2481H10.2705H10.2929H10.3152H10.3376H10.36H10.3823H10.4047H10.4271H10.4494H10.4718H10.4942H10.5165H10.5389H10.5613H10.5837H10.606H10.6284H10.6508H10.6731H10.6955H10.7179H10.7402H10.7626H10.785H10.8073H10.8297H10.8521H10.8744H10.8968H10.9192H10.9415H10.9639H10.9863H11.0086H11.031H11.0534H11.0757H11.0981H11.1205H11.1428H11.1652H11.1876H11.2099H11.2323H11.2547H11.277H11.2994H11.3217H11.3441H11.3665H11.3888H11.4112H11.4336H11.4559H11.4783H11.5007H11.523H11.5454H11.5678H11.5901H11.6125H11.6349H11.6572H11.6796H11.702H11.7243H11.7467H11.7691H11.7914H11.8138H11.8361H11.8585H11.8809H11.9032H11.9256H11.948H11.9703H11.9927H12.0151H12.0374H12.0598H12.0822H12.1045H12.1269H12.1493H12.1716H12.194H12.2163H12.2387H12.2611H12.2834H12.3058H12.3282H12.3505H12.3729H12.3953H12.4176H12.44H12.4624H12.4847H12.5071H12.5294H12.5518H12.5742H12.5965H12.6189H12.6413H12.6636H12.686H12.7084H12.7307H12.7531H12.7755H12.7978H12.8202H12.8426H12.8649H12.8873H12.9097H12.932H12.9544H12.9767H12.9991H13.0215H13.0438H13.0662H13.0886H13.1109H13.1333H13.1557H13.178H13.2004H13.2228H13.2451H13.2675H13.2899H13.3122H13.3346H13.357H13.3793H13.4017H13.4241H13.4464H13.4688H13.4912H13.5135H13.5359H13.5583H13.5806H13.603H13.6254H13.6477H13.6701H13.6925H13.7148H13.7372H13.7596H13.7819H13.8043H13.8267H13.849H13.8714H13.8938H13.9162H13.9385H13.9609H13.9833H14.0056H14.028H14.0504H14.0727H14.0951H14.1175H14.1398H14.1622H14.1846H14.2069H14.2293H14.2517H14.2741H14.2964H14.3188H14.3412H14.3635H14.3859H14.4083H14.4307H14.453H14.4754H14.4978H14.5201H14.5425H14.5649H14.5873H14.6096H14.632H14.6544H14.6767H14.6991H14.7215H14.7439H14.7662H14.7886H14.811H14.8334H14.8557H14.8781H14.9005H14.9228H14.9452H14.9676H14.99H15.0123H15.0347H15.0571H15.0795H15.1018H15.1242H15.1466H15.169H15.1914H15.2137H15.2361H15.2585H15.2809H15.3032H15.3256H15.348H15.3704H15.3927H15.4151H15.4375H15.4599H15.4823H15.5046H15.527H15.5494H15.5718H15.5942H15.6165H15.6389H15.6613H15.6837H15.7061H15.7284H15.7508H15.7732H15.7956H15.818H15.8403H15.8627H15.8851H15.9075H15.9299H15.9522H15.9746H15.997H16.0194H16.0418H16.0642H16.0865H16.1089H16.1313H16.1537H16.1761H16.1985H16.2209H16.2432H16.2656H16.288H16.3104H16.3328H16.3552H16.3776H16.3999H16.4223H16.4447H16.4671H16.4895H16.5119H16.5343H16.5567H16.5791H16.6014H16.6238H16.6462H16.6686H16.691H16.7134H16.7358H16.7582H16.7806H16.803H16.8254H16.8477H16.8701H16.8925H16.9149H16.9373H16.9597H16.9821H17.0045H17.0269H17.0493H17.0717H17.0941H17.1165H17.1389H17.1613H17.1837H17.2061H17.2285H17.2509H17.2733H17.2957H17.3181H17.3404H17.3628H17.3852H17.4076H17.43H17.4524H17.4748H17.4972H17.5196H17.542H17.5645H17.5869H17.6093H17.6317H17.6541H17.6765H17.6989H17.7213H17.7437H17.7661H17.7885H17.8109H17.8333H17.8557H17.8781H17.9005H17.9229C17.951 22.7374 17.9851 22.7381 18.0235 22.7389C18.1723 22.7419 18.3871 22.7463 18.5762 22.7172C18.8269 22.6786 19.0956 22.5839 19.306 22.3803C19.5273 22.1661 19.6344 21.8796 19.6351 21.5624C19.6495 20.3337 19.6495 19.1049 19.6351 17.8761C19.6343 17.5579 19.5263 17.2715 19.2999 17.0597C19.0874 16.8609 18.8189 16.7732 18.5762 16.7358C18.3871 16.7067 18.1723 16.7111 18.0235 16.7141C17.9851 16.7149 17.951 16.7156 17.9229 16.7156H17.9116H17.9003H17.8889H17.8776H17.8663H17.8549H17.8436H17.8323H17.821H17.8096H17.7983H17.787H17.7757H17.7643H17.753H17.7417H17.7304H17.719H17.7077H17.6964H17.6851H17.6737H17.6624H17.6511H17.6398H17.6284H17.6171H17.6058H17.5945H17.5832H17.5718H17.5605H17.5492H17.5379H17.5266H17.5152H17.5039H17.4926H17.4813H17.47H17.4586H17.4473H17.436H17.4247H17.4134H17.4021H17.3908H17.3794H17.3681H17.3568H17.3455H17.3342H17.3229H17.3116H17.3002H17.2889H17.2776H17.2663H17.255H17.2437H17.2324H17.2211H17.2097H17.1984H17.1871H17.1758H17.1645H17.1532H17.1419H17.1306H17.1193H17.108H17.0966H17.0853H17.074H17.0627H17.0514H17.0401H17.0288H17.0175H17.0062H16.9949H16.9836H16.9723H16.961H16.9497H16.9384H16.9271H16.9158H16.9045H16.8932H16.8818H16.8705H16.8592H16.8479H16.8366H16.8253H16.814H16.8027H16.7914H16.7801H16.7688H16.7575H16.7462H16.7349H16.7236H16.7123H16.701H16.6897H16.6784H16.6671H16.6559H16.6446H16.6333H16.622H16.6107H16.5994H16.5881H16.5768H16.5655H16.5542H16.5429H16.5316H16.5203H16.509H16.4977H16.4864H16.4751H16.4638H16.4525H16.4412H16.43H16.4187H16.4074H16.3961H16.3848H16.3735H16.3622H16.3509H16.3396H16.3283H16.317H16.3058H16.2945H16.2832H16.2719H16.2606H16.2493H16.238H16.2267H16.2154H16.2042H16.1929H16.1816H16.1703H16.159H16.1477H16.1364H16.1252H16.1139H16.1026H16.0913H16.08H16.0687H16.0574H16.0462H16.0349H16.0236H16.0123H16.001H15.9897H15.9785H15.9672H15.9559H15.9446H15.9333H15.922H15.9108H15.8995H15.8882H15.8769H15.8656H15.8544H15.8431H15.8318H15.8205H15.8092H15.798H15.7867H15.7754H15.7641H15.7528H15.7416H15.7303H15.719H15.7077H15.6964H15.6852H15.6739H15.6626H15.6513H15.6401H15.6288H15.6175H15.6062H15.595H15.5837H15.5724H15.5611H15.5499H15.5386H15.5273H15.516H15.5048H15.4935H15.4822H15.4709H15.4597H15.4484H15.4371H15.4258H15.4146H15.4033H15.392H15.3807H15.3695H15.3582H15.3469H15.3357H15.3244H15.3131H15.3018H15.2906H15.2793H15.268H15.2568H15.2455H15.2342H15.223H15.2117H15.2004H15.1891H15.1779H15.1666H15.1553H15.1441H15.1328H15.1215H15.1103H15.099H15.0877H15.0765H15.0652H15.0539H15.0427H15.0314H15.0201H15.0089H14.9976H14.9863H14.9751H14.9638H14.9525H14.9413H14.93H14.9187H14.9075H14.8962H14.8849H14.8737H14.8624H14.8511H14.8399H14.8286H14.8174H14.8061H14.7948H14.7836H14.7723H14.761H14.7498H14.7385H14.7272H14.716H14.7047H14.6935H14.6822H14.6709H14.6597H14.6484H14.6371H14.6259H14.6146H14.6034H14.5921H14.5808H14.5696H14.5583H14.5471H14.5358H14.5245H14.5133H14.502H14.4908H14.4795H14.4682H14.457H14.4457H14.4345H14.4232H14.4119H14.4007H14.3894H14.3782H14.3669H14.3557H14.3444H14.3331H14.3219H14.3106H14.2994H14.2881H14.2769H14.2656H14.2543H14.2431H14.2318H14.2206H14.2093H14.1981H14.1868H14.1755H14.1643H14.153H14.1418H14.1305H14.1193H14.108H14.0968H14.0855H14.0742H14.063H14.0517H14.0405H14.0292H14.018H14.0067H13.9955H13.9842H13.9729H13.9617H13.9504H13.9392H13.9279H13.9167H13.9054H13.8942H13.8829H13.8717H13.8604H13.8492H13.8379H13.8267H13.8154H13.8041H13.7929H13.7816H13.7704H13.7591H13.7479H13.7366H13.7254H13.7141H13.7029H13.6916H13.6804H13.6691H13.6579H13.6466H13.6354H13.6241H13.6129H13.6016H13.5904H13.5791H13.5679H13.5566H13.5454H13.5341H13.5229H13.5116H13.5004H13.4891H13.4779H13.4666H13.4554H13.4441H13.4329H13.4216H13.4104H13.3991H13.3879H13.3766H13.3654H13.3541H13.3429H13.3316H13.3204H13.3091H13.2979H13.2866H13.2754H13.2641H13.2529H13.2416H13.2304H13.2191H13.2079H13.1966H13.1854H13.1741H13.1629H13.1516H13.1404H13.1291H13.1179H13.1066H13.0954H13.0841H13.0729H13.0616H13.0504H13.0392H13.0279H13.0167H13.0054H12.9942H12.9829H12.9717H12.9604H12.9492H12.9379H12.9267H12.9154H12.9042H12.8929H12.8817H12.8704H12.8592H12.8479H12.8367H12.8255H12.8142H12.803H12.7917H12.7805H12.7692H12.758H12.7467H12.7355H12.7242H12.713H12.7017H12.6905H12.6792H12.668H12.6568H12.6455H12.6343H12.623H12.6118H12.6005H12.5893H12.578H12.5668H12.5555H12.5443H12.533H12.5218H12.5106H12.4993H12.4881H12.4768H12.4656H12.4543H12.4431H12.4318H12.4206H12.4093H12.3981H12.3868H12.3756H12.3644H12.3531H12.3419H12.3306H12.3194H12.3081H12.2969H12.2856H12.2744H12.2631H12.2519H12.2407H12.2294H12.2182H12.2069H12.1957H12.1844H12.1732H12.1619H12.1507C10.5192 16.7156 8.87865 16.7156 7.26765 16.6868L7.26765 16.6867H7.25872C7.1678 16.6867 7.07265 16.6859 6.97465 16.685C6.66278 16.6822 6.322 16.6792 5.9965 16.7024L5.9965 16.7024L5.99172 16.7028C5.67687 16.7283 5.3493 16.8104 5.09986 17.0425C4.83809 17.2861 4.74819 17.6127 4.73866 17.9368Z" fill="currentColor" stroke="#D7F1FA"/>
<path d="M36.9856 23.4205C36.9856 24.8924 37 26.2778 36.9856 27.6775C36.9856 28.1393 36.7691 28.3125 36.3218 28.3558C36.1486 28.3702 35.9899 28.3702 35.8167 28.3702C32.4111 28.3702 28.9911 28.3702 25.5855 28.3702C25.4123 28.3702 25.2536 28.3846 25.0804 28.3558C24.633 28.3125 24.4166 28.1249 24.4166 27.6775C24.4022 26.4798 24.4022 25.2821 24.4166 24.0699C24.431 23.637 24.6619 23.435 25.0948 23.3917C25.2103 23.3772 25.3401 23.3917 25.4556 23.3917C29.0632 23.3917 32.6564 23.3917 36.2641 23.3917C36.4805 23.3917 36.6826 23.4061 36.9856 23.4205Z" fill="currentColor"/>
<path d="M6.2918 28.3702C4.53127 28.3702 2.78517 28.3702 1.02464 28.3702C0.144372 28.3702 6.5933e-05 28.2404 6.5933e-05 27.3745C6.5933e-05 26.3355 -0.0143646 25.3109 6.5933e-05 24.2719C6.5933e-05 23.5937 0.187663 23.3917 0.85147 23.3917C4.48798 23.3773 8.11005 23.3773 11.7466 23.3917C12.3959 23.3917 12.5835 23.6081 12.5835 24.2864C12.598 25.3398 12.598 26.4077 12.5835 27.4611C12.5835 28.1826 12.4104 28.3558 11.6888 28.3702C9.89944 28.3702 8.09562 28.3702 6.2918 28.3702Z" fill="currentColor"/>
<path d="M5.28164 33.3057C5.28164 34.2437 5.29608 35.1817 5.28164 36.1197C5.26721 36.8412 5.10848 36.9999 4.37252 36.9999C3.54998 37.0144 2.74186 37.0144 1.91932 36.9999C0.779306 36.9855 0.0289156 36.2207 0.014485 35.0951C5.44654e-05 33.5366 5.44654e-05 31.9781 0.014485 30.4196C0.014485 29.7702 0.187652 29.5826 0.822597 29.5826C2.0492 29.5682 3.2758 29.5682 4.48796 29.5826C5.07962 29.597 5.26721 29.7702 5.28164 30.3619C5.29608 31.3287 5.28164 32.3244 5.28164 33.3057Z" fill="currentColor"/>
<path d="M31.7186 33.3055C31.7186 32.3386 31.7041 31.3862 31.7186 30.4194C31.733 29.7411 31.8917 29.568 32.5844 29.568C33.7533 29.5535 34.9366 29.5535 36.1055 29.568C36.827 29.568 36.9857 29.7411 36.9857 30.4771C37.0002 31.9923 37.0002 33.5075 36.9857 35.0083C36.9713 36.2205 36.2209 36.9708 35.0087 36.9853C34.2151 36.9997 33.4214 36.9997 32.6277 36.9853C31.8917 36.9708 31.733 36.8265 31.7186 36.105C31.7186 35.167 31.7186 34.229 31.7186 33.3055Z" fill="currentColor"/>
<path d="M33.7964 22.2376C33.0028 22.2376 32.2091 22.252 31.4154 22.2376C30.6939 22.2231 30.4774 22.0067 30.463 21.2852C30.4485 20.2317 30.4485 19.1783 30.463 18.1104C30.4774 17.4611 30.6939 17.2302 31.3288 17.2157C32.5843 17.2013 33.8253 17.1724 35.0808 17.2157C36.2641 17.259 36.9712 18.0238 37 19.2072C37.0145 19.8565 37 20.5059 37 21.1553C37 22.0644 36.8269 22.2231 35.8889 22.2231C35.1962 22.252 34.4891 22.2376 33.7964 22.2376Z" fill="currentColor"/>
<path d="M20.6506 2.09133L17.2008 8.00764C17.1452 8.11236 17.0339 8.16472 16.9226 8.11236L11.8592 6.59401C11.6366 6.54165 11.4141 6.80344 11.581 6.96051L15.0308 10.259C15.142 10.3637 15.0864 10.5731 14.9195 10.6255L9.18837 11.8297C8.9658 11.882 8.91016 12.1962 9.18837 12.2485L14.6969 13.8193C14.8639 13.8716 14.9195 14.0287 14.8638 14.1334L12.7495 17.6413C12.6382 17.8507 12.8607 18.0602 13.0833 17.9031L16.5331 16.0706C16.6444 16.0182 16.8113 16.0706 16.867 16.1753L19.3708 21.8822C19.4265 22.0393 19.7603 22.0393 19.816 21.8822L22.3199 16.1753C22.3755 16.0706 22.5424 16.0182 22.6537 16.0706L26.1591 17.9554C26.3817 18.0602 26.6043 17.8507 26.493 17.6937L24.8237 14.6046C24.7681 14.4999 24.8237 14.3428 24.935 14.2905L30.8331 12.3533C31.0556 12.3009 31.0556 11.9868 30.8331 11.9344L25.1576 10.3113C25.0463 10.259 24.935 10.1543 24.9907 10.0496L26.7712 6.38459C26.8825 6.17516 26.6599 6.01809 26.4374 6.1228L22.3755 8.06C22.2086 8.11236 22.0416 8.06001 22.0416 7.85058L21.1514 2.19604C21.0957 1.98661 20.7619 1.93426 20.6506 2.09133Z" fill="currentColor"/>
<path d="M4.52186 17.7537L4.52186 17.7537L4.52179 17.7562C4.49278 18.9458 4.49274 20.121 4.52166 21.3105C4.52294 21.6368 4.61906 21.9474 4.86101 22.1822C5.08973 22.4042 5.38773 22.4981 5.6715 22.5348C5.84984 22.5632 6.03551 22.5588 6.16256 22.5558C6.19542 22.555 6.22437 22.5543 6.24824 22.5543H6.27065H6.29306H6.31546H6.33787H6.36027H6.38268H6.40508H6.42749H6.44989H6.4723H6.4947H6.5171H6.53951H6.56191H6.58431H6.60671H6.62911H6.65152H6.67392H6.69632H6.71872H6.74112H6.76352H6.78592H6.80832H6.83072H6.85311H6.87551H6.89791H6.92031H6.9427H6.9651H6.9875H7.0099H7.03229H7.05469H7.07708H7.09948H7.12187H7.14427H7.16666H7.18906H7.21145H7.23384H7.25624H7.27863H7.30102H7.32342H7.34581H7.3682H7.39059H7.41298H7.43538H7.45777H7.48016H7.50255H7.52494H7.54733H7.56972H7.59211H7.6145H7.63689H7.65927H7.68166H7.70405H7.72644H7.74883H7.77121H7.7936H7.81599H7.83838H7.86076H7.88315H7.90553H7.92792H7.95031H7.97269H7.99508H8.01746H8.03985H8.06223H8.08461H8.107H8.12938H8.15177H8.17415H8.19653H8.21892H8.2413H8.26368H8.28606H8.30844H8.33083H8.35321H8.37559H8.39797H8.42035H8.44273H8.46511H8.48749H8.50987H8.53225H8.55463H8.57701H8.59939H8.62177H8.64415H8.66653H8.68891H8.71129H8.73366H8.75604H8.77842H8.8008H8.82318H8.84555H8.86793H8.89031H8.91268H8.93506H8.95744H8.97981H9.00219H9.02457H9.04694H9.06932H9.09169H9.11407H9.13644H9.15882H9.18119H9.20357H9.22594H9.24831H9.27069H9.29306H9.31544H9.33781H9.36018H9.38256H9.40493H9.4273H9.44968H9.47205H9.49442H9.51679H9.53917H9.56154H9.58391H9.60628H9.62865H9.65103H9.6734H9.69577H9.71814H9.74051H9.76288H9.78525H9.80762H9.82999H9.85236H9.87473H9.89711H9.91948H9.94184H9.96421H9.98658H10.009H10.0313H10.0537H10.0761H10.0984H10.1208H10.1432H10.1655H10.1879H10.2103H10.2326H10.255H10.2774H10.2997H10.3221H10.3445H10.3669H10.3892H10.4116H10.434H10.4563H10.4787H10.5011H10.5234H10.5458H10.5682H10.5905H10.6129H10.6353H10.6576H10.68H10.7024H10.7247H10.7471H10.7695H10.7918H10.8142H10.8366H10.8589H10.8813H10.9037H10.926H10.9484H10.9708H10.9931H11.0155H11.0379H11.0602H11.0826H11.105H11.1273H11.1497H11.172H11.1944H11.2168H11.2391H11.2615H11.2839H11.3062H11.3286H11.351H11.3733H11.3957H11.4181H11.4404H11.4628H11.4852H11.5075H11.5299H11.5523H11.5746H11.597H11.6193H11.6417H11.6641H11.6864H11.7088H11.7312H11.7535H11.7759H11.7983H11.8206H11.843H11.8654H11.8877H11.9101H11.9325H11.9548H11.9772H11.9995H12.0219H12.0443H12.0666H12.089H12.1114H12.1337H12.1561H12.1785H12.2008H12.2232H12.2456H12.2679H12.2903H12.3127H12.335H12.3574H12.3797H12.4021H12.4245H12.4468H12.4692H12.4916H12.5139H12.5363H12.5587H12.581H12.6034H12.6258H12.6481H12.6705H12.6929H12.7152H12.7376H12.76H12.7823H12.8047H12.827H12.8494H12.8718H12.8941H12.9165H12.9389H12.9612H12.9836H13.006H13.0283H13.0507H13.0731H13.0954H13.1178H13.1402H13.1625H13.1849H13.2073H13.2296H13.252H13.2744H13.2967H13.3191H13.3415H13.3638H13.3862H13.4086H13.4309H13.4533H13.4757H13.498H13.5204H13.5428H13.5651H13.5875H13.6099H13.6322H13.6546H13.677H13.6994H13.7217H13.7441H13.7665H13.7888H13.8112H13.8336H13.8559H13.8783H13.9007H13.923H13.9454H13.9678H13.9902H14.0125H14.0349H14.0573H14.0796H14.102H14.1244H14.1467H14.1691H14.1915H14.2139H14.2362H14.2586H14.281H14.3033H14.3257H14.3481H14.3705H14.3928H14.4152H14.4376H14.4599H14.4823H14.5047H14.5271H14.5494H14.5718H14.5942H14.6166H14.6389H14.6613H14.6837H14.7061H14.7284H14.7508H14.7732H14.7956H14.8179H14.8403H14.8627H14.8851H14.9074H14.9298H14.9522H14.9746H14.9969H15.0193H15.0417H15.0641H15.0864H15.1088H15.1312H15.1536H15.1759H15.1983H15.2207H15.2431H15.2655H15.2878H15.3102H15.3326H15.355H15.3774H15.3997H15.4221H15.4445H15.4669H15.4893H15.5116H15.534H15.5564H15.5788H15.6012H15.6235H15.6459H15.6683H15.6907H15.7131H15.7355H15.7578H15.7802H15.8026H15.825H15.8474H15.8698H15.8921H15.9145H15.9369H15.9593H15.9817H16.0041H16.0264H16.0488H16.0712H16.0936H16.116H16.1384H16.1608H16.1832H16.2055H16.2279H16.2503H16.2727H16.2951H16.3175H16.3399H16.3623H16.3846H16.407H16.4294H16.4518H16.4742H16.4966H16.519H16.5414H16.5638H16.5862H16.6086H16.6309H16.6533H16.6757H16.6981H16.7205H16.7429H16.7653H16.7877H16.8101H16.8325H16.8549H16.8773H16.8997H16.9221H16.9445H16.9669H16.9893H17.0117H17.0341H17.0565H17.0789H17.1013H17.1237H17.1461H17.1685H17.1908H17.2132H17.2356H17.258H17.2804H17.3029H17.3253H17.3477H17.3701H17.3925H17.4149H17.4373H17.4597H17.4821H17.5045H17.5269H17.5493H17.5717H17.5941H17.6165H17.6389H17.6613H17.6837H17.7061C17.7342 22.5543 17.7683 22.555 17.8067 22.5558C17.9555 22.5588 18.1703 22.5631 18.3594 22.5341C18.6101 22.4955 18.8788 22.4008 19.0892 22.1971C19.3105 21.983 19.4176 21.6965 19.4183 21.3793C19.4327 20.1506 19.4327 18.9218 19.4183 17.693C19.4176 17.3747 19.3095 17.0884 19.0831 16.8766C18.8706 16.6778 18.6021 16.5901 18.3594 16.5527C18.1703 16.5236 17.9555 16.528 17.8067 16.531C17.7683 16.5318 17.7342 16.5325 17.7061 16.5325H17.6948H17.6835H17.6721H17.6608H17.6495H17.6381H17.6268H17.6155H17.6042H17.5928H17.5815H17.5702H17.5589H17.5475H17.5362H17.5249H17.5136H17.5022H17.4909H17.4796H17.4683H17.4569H17.4456H17.4343H17.423H17.4116H17.4003H17.389H17.3777H17.3664H17.355H17.3437H17.3324H17.3211H17.3098H17.2984H17.2871H17.2758H17.2645H17.2532H17.2419H17.2305H17.2192H17.2079H17.1966H17.1853H17.174H17.1626H17.1513H17.14H17.1287H17.1174H17.1061H17.0948H17.0834H17.0721H17.0608H17.0495H17.0382H17.0269H17.0156H17.0043H16.9929H16.9816H16.9703H16.959H16.9477H16.9364H16.9251H16.9138H16.9025H16.8912H16.8799H16.8685H16.8572H16.8459H16.8346H16.8233H16.812H16.8007H16.7894H16.7781H16.7668H16.7555H16.7442H16.7329H16.7216H16.7103H16.699H16.6877H16.6764H16.6651H16.6538H16.6424H16.6311H16.6198H16.6085H16.5972H16.5859H16.5746H16.5633H16.552H16.5407H16.5294H16.5181H16.5068H16.4955H16.4842H16.4729H16.4616H16.4504H16.4391H16.4278H16.4165H16.4052H16.3939H16.3826H16.3713H16.36H16.3487H16.3374H16.3261H16.3148H16.3035H16.2922H16.2809H16.2696H16.2583H16.247H16.2357H16.2245H16.2132H16.2019H16.1906H16.1793H16.168H16.1567H16.1454H16.1341H16.1228H16.1115H16.1002H16.089H16.0777H16.0664H16.0551H16.0438H16.0325H16.0212H16.0099H15.9986H15.9874H15.9761H15.9648H15.9535H15.9422H15.9309H15.9196H15.9084H15.8971H15.8858H15.8745H15.8632H15.8519H15.8406H15.8294H15.8181H15.8068H15.7955H15.7842H15.7729H15.7617H15.7504H15.7391H15.7278H15.7165H15.7052H15.694H15.6827H15.6714H15.6601H15.6488H15.6376H15.6263H15.615H15.6037H15.5924H15.5812H15.5699H15.5586H15.5473H15.536H15.5248H15.5135H15.5022H15.4909H15.4796H15.4684H15.4571H15.4458H15.4345H15.4233H15.412H15.4007H15.3894H15.3782H15.3669H15.3556H15.3443H15.3331H15.3218H15.3105H15.2992H15.288H15.2767H15.2654H15.2541H15.2429H15.2316H15.2203H15.209H15.1978H15.1865H15.1752H15.1639H15.1527H15.1414H15.1301H15.1189H15.1076H15.0963H15.085H15.0738H15.0625H15.0512H15.04H15.0287H15.0174H15.0062H14.9949H14.9836H14.9723H14.9611H14.9498H14.9385H14.9273H14.916H14.9047H14.8935H14.8822H14.8709H14.8597H14.8484H14.8371H14.8259H14.8146H14.8033H14.7921H14.7808H14.7695H14.7583H14.747H14.7357H14.7245H14.7132H14.7019H14.6907H14.6794H14.6681H14.6569H14.6456H14.6343H14.6231H14.6118H14.6006H14.5893H14.578H14.5668H14.5555H14.5442H14.533H14.5217H14.5104H14.4992H14.4879H14.4767H14.4654H14.4541H14.4429H14.4316H14.4204H14.4091H14.3978H14.3866H14.3753H14.364H14.3528H14.3415H14.3303H14.319H14.3077H14.2965H14.2852H14.274H14.2627H14.2514H14.2402H14.2289H14.2177H14.2064H14.1952H14.1839H14.1726H14.1614H14.1501H14.1389H14.1276H14.1163H14.1051H14.0938H14.0826H14.0713H14.0601H14.0488H14.0375H14.0263H14.015H14.0038H13.9925H13.9813H13.97H13.9587H13.9475H13.9362H13.925H13.9137H13.9025H13.8912H13.88H13.8687H13.8574H13.8462H13.8349H13.8237H13.8124H13.8012H13.7899H13.7787H13.7674H13.7562H13.7449H13.7336H13.7224H13.7111H13.6999H13.6886H13.6774H13.6661H13.6549H13.6436H13.6324H13.6211H13.6099H13.5986H13.5874H13.5761H13.5648H13.5536H13.5423H13.5311H13.5198H13.5086H13.4973H13.4861H13.4748H13.4636H13.4523H13.4411H13.4298H13.4186H13.4073H13.3961H13.3848H13.3736H13.3623H13.3511H13.3398H13.3286H13.3173H13.3061H13.2948H13.2836H13.2723H13.2611H13.2498H13.2386H13.2273H13.2161H13.2048H13.1936H13.1823H13.1711H13.1598H13.1486H13.1373H13.1261H13.1148H13.1036H13.0923H13.0811H13.0698H13.0586H13.0473H13.0361H13.0248H13.0136H13.0023H12.9911H12.9798H12.9686H12.9573H12.9461H12.9348H12.9236H12.9123H12.9011H12.8898H12.8786H12.8673H12.8561H12.8449H12.8336H12.8224H12.8111H12.7999H12.7886H12.7774H12.7661H12.7549H12.7436H12.7324H12.7211H12.7099H12.6986H12.6874H12.6761H12.6649H12.6536H12.6424H12.6312H12.6199H12.6087H12.5974H12.5862H12.5749H12.5637H12.5524H12.5412H12.5299H12.5187H12.5074H12.4962H12.4849H12.4737H12.4625H12.4512H12.44H12.4287H12.4175H12.4062H12.395H12.3837H12.3725H12.3612H12.35H12.3387H12.3275H12.3162H12.305H12.2938H12.2825H12.2713H12.26H12.2488H12.2375H12.2263H12.215H12.2038H12.1925H12.1813H12.1701H12.1588H12.1476H12.1363H12.1251H12.1138H12.1026H12.0913H12.0801H12.0688H12.0576H12.0463H12.0351H12.0239H12.0126H12.0014H11.9901H11.9789H11.9676H11.9564H11.9451H11.9339C10.3024 16.5325 8.66186 16.5325 7.05085 16.5037L7.05086 16.5036H7.04193C6.951 16.5036 6.85586 16.5028 6.75786 16.5019C6.44598 16.4991 6.1052 16.4961 5.7797 16.5193L5.7797 16.5193L5.77492 16.5197C5.46007 16.5452 5.1325 16.6273 4.88306 16.8594C4.62129 17.103 4.53139 17.4296 4.52186 17.7537Z" fill="currentColor" stroke="#D7F1FA"/>
</svg>
