<svg width="22" height="22" viewBox="0 0 22 22" fill="none" xmlns="http://www.w3.org/2000/svg">
<path d="M12.5239 21.9999H9.45301C9.06915 21.9999 8.78125 21.688 8.78125 21.3282V0.695682C8.78125 0.311821 9.09314 0.0239258 9.45301 0.0239258H12.5239C12.9077 0.0239258 13.1956 0.335812 13.1956 0.695682V21.3282C13.2196 21.688 12.9077 21.9999 12.5239 21.9999Z" fill="white"/>
<path d="M0 12.5234V9.45252C0 9.06866 0.311887 8.78076 0.671756 8.78076H21.3043C21.6881 8.78076 21.976 9.09265 21.976 9.45252V12.5234C21.976 12.9073 21.6641 13.1952 21.3043 13.1952H0.671756C0.311887 13.2191 0 12.9073 0 12.5234Z" fill="white"/>
</svg>
