<svg width="28" height="24" viewBox="0 0 28 24" fill="none" xmlns="http://www.w3.org/2000/svg">
<path d="M9.93719 11.1358H9.94883C11.439 11.1358 12.836 10.5558 13.8838 9.51183C14.9316 8.46785 15.5021 7.06427 15.5137 5.5679C15.5137 4.05993 14.9432 2.65635 13.9071 1.61237C12.8593 0.57999 11.4623 0 9.96048 0C6.85206 0 4.3956 2.43596 4.38396 5.5563C4.37232 7.05267 4.95442 8.44465 6.0022 9.50023C7.04998 10.5558 8.44702 11.1358 9.93719 11.1358ZM7.32939 2.92315C8.01626 2.23876 8.95926 1.85597 9.96048 1.85597C10.9617 1.85597 11.893 2.23876 12.5799 2.92315C13.2668 3.61913 13.651 4.55872 13.651 5.5679C13.651 6.56548 13.2668 7.50506 12.5683 8.20105C11.8814 8.89704 10.95 9.27983 9.96048 9.27983H9.94883C8.94762 9.27983 8.01626 8.88544 7.31774 8.18945C6.61922 7.49346 6.23504 6.55388 6.24668 5.5563C6.24668 4.54712 6.63087 3.60754 7.32939 2.92315Z" fill="currentColor"/>
<path d="M26.4454 23.9996C27.2138 23.9996 27.8424 23.3732 27.8424 22.6076V9.46503C27.8424 8.69945 27.2138 8.07306 26.4454 8.07306H16.9106C16.1422 8.07306 15.5136 8.69945 15.5136 9.46503V12.0634C15.0595 12.1214 14.5938 12.307 14.1398 12.5854L13.9885 12.6782C13.7207 12.8522 13.4413 13.0262 13.1386 13.177C12.1257 13.6874 11.1245 13.9542 10.1815 13.9542C9.64599 13.9542 9.1221 13.873 8.6215 13.7106C7.96955 13.5018 7.3758 13.1886 6.80535 12.887C6.46773 12.713 6.1534 12.5506 5.83906 12.3998C5.76921 12.365 5.68772 12.3302 5.61786 12.2954C5.29189 12.1446 4.96591 11.9938 4.73307 11.9938H4.70979C3.05662 12.0634 1.88078 12.8522 1.11241 14.4297C0.262546 16.1465 -0.0867142 18.1185 0.0180637 20.6356C0.0646317 21.7492 0.495385 22.5844 1.35689 23.234C2.03213 23.756 2.84707 23.9764 4.05784 23.988L26.4454 23.9996ZM15.5136 22.132C14.85 22.132 14.1282 22.132 13.255 22.132C12.7311 22.132 10.0535 22.132 10.0535 22.132C9.45972 22.132 8.86598 22.132 8.28388 22.132H8.27224C7.69014 22.132 7.10804 22.132 6.5143 22.132C5.54801 22.132 4.768 22.132 4.04619 22.1204C3.06827 22.1088 2.70736 21.9348 2.45124 21.7492C2.02049 21.4244 1.86914 21.1112 1.84586 20.5428C1.75272 18.3505 2.04377 16.6685 2.75393 15.2417C3.25454 14.2325 3.83664 13.931 4.5468 13.8614C4.62829 13.8962 4.73307 13.9426 4.80292 13.9774C4.88442 14.0122 4.96591 14.0586 5.04741 14.0934C5.31517 14.2093 5.60622 14.3601 5.90891 14.5225C6.52594 14.8473 7.22446 15.2069 8.02775 15.4737C8.71463 15.6941 9.43644 15.7985 10.1582 15.7985C11.4039 15.7985 12.6846 15.4737 13.9652 14.8241C14.3377 14.6385 14.6753 14.4297 14.9664 14.2441L15.1061 14.1513C15.2458 14.0702 15.3739 14.0006 15.5019 13.9542V22.132H15.5136ZM26.2125 22.3756H17.1434V9.69703H26.2125V22.3756Z" fill="currentColor"/>
<path d="M19.0646 18.966C18.7154 18.966 18.4243 18.676 18.4243 18.328C18.4243 17.98 18.7154 17.69 19.0646 17.69H24.2919C24.6411 17.69 24.9322 17.98 24.9322 18.328C24.9322 18.676 24.6411 18.966 24.2919 18.966H19.0646Z" fill="currentColor"/>
<path d="M19.0646 16.0771C18.7154 16.0771 18.4243 15.7871 18.4243 15.4391C18.4243 15.0911 18.7154 14.8011 19.0646 14.8011H24.2919C24.6411 14.8011 24.9322 15.0911 24.9322 15.4391C24.9322 15.7871 24.6411 16.0771 24.2919 16.0771H19.0646Z" fill="currentColor"/>
<path d="M19.0646 13.2003C18.7154 13.2003 18.4243 12.9104 18.4243 12.5624C18.4243 12.2144 18.7154 11.9244 19.0646 11.9244H24.2919C24.6411 11.9244 24.9322 12.2144 24.9322 12.5624C24.9322 12.9104 24.6411 13.2003 24.2919 13.2003H19.0646Z" fill="currentColor"/>
</svg>
