<svg width="22" height="26" viewBox="0 0 22 26" fill="none" xmlns="http://www.w3.org/2000/svg">
<path d="M4.37169 24.9875L4.37169 24.9876C5.14942 25 5.97816 25 7.01752 25C7.21115 25 7.41294 24.9987 7.61897 24.9973C8.04428 24.9945 8.48763 24.9916 8.91447 25H8.91572H8.91946H8.92319H8.92692H8.93065H8.93439H8.93812H8.94185H8.94558H8.94931H8.95304H8.95677H8.9605H8.96424H8.96796H8.97169H8.97542H8.97915H8.98288H8.98661H8.99034H8.99407H8.99779H9.00152H9.00525H9.00898H9.0127H9.01643H9.02015H9.02388H9.02761H9.03133H9.03506H9.03878H9.04251H9.04623H9.04995H9.05368H9.0574H9.06113H9.06485H9.06857H9.07229H9.07602H9.07974H9.08346H9.08718H9.0909H9.09463H9.09835H9.10207H9.10579H9.10951H9.11323H9.11695H9.12067H9.12439H9.12811H9.13183H9.13555H9.13926H9.14298H9.1467H9.15042H9.15414H9.15785H9.16157H9.16529H9.16901H9.17272H9.17644H9.18016H9.18387H9.18759H9.1913H9.19502H9.19873H9.20245H9.20616H9.20988H9.21359H9.21731H9.22102H9.22474H9.22845H9.23216H9.23588H9.23959H9.2433H9.24702H9.25073H9.25444H9.25815H9.26187H9.26558H9.26929H9.273H9.27671H9.28042H9.28413H9.28785H9.29156H9.29527H9.29898H9.30269H9.3064H9.31011H9.31382H9.31753H9.32124H9.32495H9.32866H9.33236H9.33607H9.33978H9.34349H9.3472H9.35091H9.35461H9.35832H9.36203H9.36574H9.36944H9.37315H9.37686H9.38057H9.38427H9.38798H9.39169H9.39539H9.3991H9.4028H9.40651H9.41022H9.41392H9.41763H9.42133H9.42504H9.42874H9.43245H9.43615H9.43986H9.44356H9.44727H9.45097H9.45468H9.45838H9.46208H9.46579H9.46949H9.4732H9.4769H9.4806H9.48431H9.48801H9.49171H9.49542H9.49912H9.50282H9.50653H9.51023H9.51393H9.51763H9.52133H9.52504H9.52874H9.53244H9.53614H9.53985H9.54355H9.54725H9.55095H9.55465H9.55835H9.56205H9.56575H9.56946H9.57316H9.57686H9.58056H9.58426H9.58796H9.59166H9.59536H9.59906H9.60276H9.60646H9.61016H9.61386H9.61756H9.62126H9.62496H9.62866H9.63236H9.63606H9.63976H9.64346H9.64716H9.65086H9.65456H9.65826H9.66196H9.66566H9.66936H9.67306H9.67675H9.68045H9.68415H9.68785H9.69155H9.69525H9.69895H9.70265H9.70635H9.71004H9.71374H9.71744H9.72114H9.72484H9.72854H9.73223H9.73593H9.73963H9.74333H9.74703H9.75073H9.75443H9.75812H9.76182H9.76552H9.76922H9.77291H9.77661H9.78031H9.78401H9.78771H9.7914H9.7951H9.7988H9.8025H9.8062H9.80989H9.81359H9.81729H9.82099H9.82469H9.82838H9.83208H9.83578H9.83948H9.84317H9.84687H9.85057H9.85427H9.85797H9.86166H9.86536H9.86906H9.87276H9.87645H9.88015H9.88385H9.88755H9.89124H9.89494H9.89864H9.90234H9.90604H9.90973H9.91343H9.91713H9.92083H9.92453H9.92822H9.93192H9.93562H9.93932H9.94302H9.94671H9.95041H9.95411H9.95781H9.96151H9.96521H9.9689H9.9726H9.9763H9.98H9.9837H9.9874H9.99109H9.99479H9.99849H10.0022H10.0059H10.0096H10.0133H10.017H10.0207H10.0244H10.0281H10.0318H10.0355H10.0392H10.0429H10.0466H10.0503H10.054H10.0577H10.0614H10.0651H10.0688H10.0725H10.0762H10.0799H10.0836H10.0873H10.091H10.0947H10.0984H10.1021H10.1058H10.1095H10.1132H10.1169H10.1206H10.1243H10.128H10.1317H10.1354H10.1391H10.1428H10.1465H10.1502H10.1539H10.1576H10.1613H10.165H10.1687H10.1724H10.1761H10.1798H10.1835H10.1872H10.1909H10.1946H10.1983H10.202H10.2057H10.2094H10.2131H10.2168H10.2205H10.2242H10.2279H10.2316H10.2353H10.239H10.2427H10.2465H10.2502H10.2539H10.2576H10.2613H10.265H10.2687H10.2724H10.2761H10.2798H10.2835H10.2872H10.2909H10.2946H10.2983H10.302H10.3057H10.3094H10.3131H10.3168H10.3206H10.3243H10.328H10.3317H10.3354H10.3391H10.3428H10.3465H10.3502H10.3539H10.3576H10.3613H10.365H10.3688H10.3725H10.3762H10.3799H10.3836H10.3873H10.391H10.3947H10.3984H10.4021H10.4058H10.4096H10.4133H10.417H10.4207H10.4244H10.4281H10.4318H10.4355H10.4392H10.443H10.4467H10.4504H10.4541H10.4578H10.4615H10.4652H10.4689H10.4727H10.4764H10.4801H10.4838H10.4875H10.4912H10.4949H10.4987H10.5024H10.5061H10.5098H10.5135H10.5172H10.5209H10.5247H10.5284H10.5321H10.5358H10.5395H10.5432H10.547H10.5507H10.5544H10.5581H10.5618H10.5656H10.5693H10.573H10.5767H10.5804H10.5841H10.5879H10.5916H10.5953H10.599H10.6027H10.6065H10.6102H10.6139H10.6176H10.6214H10.6251H10.6288H10.6325H10.6362H10.64H10.6437H10.6474H10.6511H10.6549H10.6586H10.6623H10.666H10.6698H10.6735H10.6772H10.6809H10.6847H10.6884H10.6921H10.6958H10.6996H10.7033H10.707H10.7107H10.7145H10.7182H10.7219H10.7257H10.7294H10.7331H10.7368H10.7406H10.7443H10.748H10.7518H10.7555H10.7592H10.763H10.7667H10.7704H10.7741H10.7779H10.7816H10.7853H10.7891H10.7928H10.7965H10.8003H10.804V26L10.804 25H10.8041H10.8043H10.8045H10.8048H10.8052H10.8056H10.8061H10.8067H10.8073H10.8079H10.8087H10.8095H10.8104H10.8113H10.8123H10.8133H10.8144H10.8156H10.8169H10.8182H10.8195H10.8209H10.8224H10.824H10.8256H10.8272H10.829H10.8307H10.8326H10.8345H10.8364H10.8384H10.8405H10.8427H10.8448H10.8471H10.8494H10.8518H10.8542H10.8566H10.8592H10.8618H10.8644H10.8671H10.8699H10.8727H10.8755H10.8784H10.8814H10.8844H10.8875H10.8907H10.8938H10.8971H10.9004H10.9037H10.9071H10.9106H10.9141H10.9176H10.9212H10.9249H10.9286H10.9324H10.9362H10.94H10.944H10.9479H10.9519H10.956H10.9601H10.9643H10.9685H10.9727H10.977H10.9814H10.9858H10.9902H10.9947H10.9993H11.0039H11.0085H11.0132H11.0179H11.0227H11.0275H11.0324H11.0373H11.0423H11.0473H11.0523H11.0574H11.0626H11.0677H11.073H11.0782H11.0836H11.0889H11.0943H11.0997H11.1052H11.1108H11.1163H11.1219H11.1276H11.1333H11.139H11.1448H11.1506H11.1564H11.1623H11.1683H11.1742H11.1803H11.1863H11.1924H11.1985H11.2047H11.2109H11.2171H11.2234H11.2297H11.2361H11.2425H11.2489H11.2554H11.2619H11.2684H11.275H11.2816H11.2883H11.295H11.3017H11.3084H11.3152H11.322H11.3289H11.3358H11.3427H11.3496H11.3566H11.3637H11.3707H11.3778H11.3849H11.3921H11.3992H11.4065H11.4137H11.421H11.4283H11.4356H11.443H11.4504H11.4578H11.4653H11.4727H11.4803H11.4878H11.4954H11.503H11.5106H11.5183H11.526H11.5337H11.5414H11.5492H11.557H11.5648H11.5726H11.5805H11.5884H11.5963H11.6043H11.6123H11.6203H11.6283H11.6363H11.6444H11.6525H11.6606H11.6688H11.6769H11.6851H11.6933H11.7016H11.7098H11.7181H11.7264H11.7347H11.7431H11.7515H11.7599H11.7683H11.7767H11.7851H11.7936H11.8021H11.8106H11.8191H11.8277H11.8363H11.8449H11.8535H11.8621H11.8707H11.8794H11.8881H11.8968H11.9055H11.9142H11.9229H11.9317H11.9405H11.9493H11.9581H11.9669H11.9757H11.9846H11.9935H12.0024H12.0113H12.0202H12.0291H12.038H12.047H12.056H12.0649H12.0739H12.0829H12.0919H12.101H12.11H12.1191H12.1281H12.1372H12.1463H12.1554H12.1645H12.1736H12.1827H12.1919H12.201H12.2102H12.2193H12.2285H12.2377H12.2469H12.2561H12.2653H12.2745H12.2837H12.2929H12.3022H12.3114H12.3207H12.3299H12.3392H12.3485H12.3577H12.367H12.3763H12.3856H12.3949H12.4042H12.4135H12.4228H12.4321H12.4414H12.4507H12.46H12.4693H12.4786H12.488H12.4973H12.5066H12.5159H12.5253H12.5346H12.5439H12.5533H12.5626H12.5719H12.5813H12.5906H12.5999H12.6093H12.6186H12.6279H12.6373H12.6466H12.6559H12.6652H12.6746H12.6839H12.6932H12.7025H12.7118H12.7211H12.7304H12.7397H12.749H12.7583H12.7676H12.7769H12.7861H12.7954H12.8047H12.8139H12.8232H12.8324H12.8417H12.8509H12.8601H12.8693H12.8785H12.8877H12.8969H12.9061H12.9153H12.9245H12.9336H12.9428H12.9519H12.961H12.9702H12.9793H12.9884H12.9975H13.0066H13.0156H13.0247H13.0337H13.0428H13.0518H13.0608H13.0698H13.0788H13.0878H13.0967H13.1057H13.1146H13.1235H13.1324H13.1413H13.1502H13.1591H13.1679H13.1767H13.1856H13.1944H13.2031H13.2119H13.2207H13.2294H13.2381H13.2468H13.2555H13.2642H13.2728H13.2815H13.2901H13.2987H13.3073H13.3158H13.3244H13.3329H13.3414H13.3499H13.3583H13.3668H13.3752H13.3836H13.392H13.4003H13.4087H13.417H13.4253H13.4335H13.4418H13.45H13.4582H13.4664H13.4745H13.4827H13.4908H13.4989H13.5069H13.515H13.523H13.531H13.5389H13.5469H13.5548H13.5627H13.5705H13.5784H13.5862H13.594H13.6017H13.6094H13.6171H13.6248H13.6325H13.6401H13.6477H13.6552H13.6627H13.6702H13.6777H13.6852H13.6926H13.7H13.7073H13.7146H13.7219H13.7292H13.7364H13.7436H13.7508H13.7579H13.765H13.7721H13.7791H13.7861H13.7931H13.8H13.8069H13.8138H13.8206H13.8275H13.8342H13.841H13.8477H13.8543H13.8609H13.8675H13.8741H13.8806H13.8871H13.8936H13.9H13.9063H13.9127H13.919H13.9253H13.9315H13.9377H13.9438H13.9499H13.956H13.962H13.968H13.974H13.9799H13.9858H13.9916H13.9974H14.0031H14.0089H14.0145H14.0202H14.0258H14.0313H14.0368H14.0423H14.0477H14.0531H14.0584H14.0637H14.0689H14.0741H14.0793H14.0844H14.0895H14.0945H14.0995H14.1044H14.1093H14.1142H14.119H14.1237H14.1284H14.1331H14.1377H14.1423H14.1468H14.1513H14.1557H14.1601H14.1644H14.1687H14.1729H14.1771H14.1813H14.1853H14.1894H14.1934H14.1973H14.2012H14.205H14.2088H14.2126H14.2162H14.2199H14.2235H14.227H14.2305H14.2339H14.2373H14.2406C14.8307 25 15.3529 24.9969 15.8368 24.9937L15.9526 24.993C16.3916 24.9901 16.8022 24.9874 17.2023 24.9874C17.6225 24.9874 18.0366 24.9542 18.4462 24.8972C19.8264 24.6891 20.6834 23.7559 20.7781 22.3679C20.8714 20.7773 20.7189 19.1904 20.3109 17.6528C19.9816 16.4558 19.5011 15.575 18.869 14.9189L18.8628 14.9125L18.8628 14.9125C18.2779 14.2944 17.6659 14.0439 17.1023 14.0439C16.685 14.0439 16.2267 14.1735 15.7141 14.4864L15.5571 14.5835L15.5445 14.5914C15.2558 14.7729 14.9239 14.9815 14.5586 15.1657C13.3539 15.7912 12.1365 16.1173 10.929 16.1173C10.2657 16.1173 9.58618 16.0141 8.94505 15.8044C8.15739 15.5496 7.45193 15.1731 6.85515 14.8547L6.83419 14.8435L6.83067 14.8416L6.83068 14.8416C6.78169 14.8152 6.73414 14.7895 6.68783 14.7645C6.38308 14.5997 6.13162 14.4637 5.87194 14.3518L5.84486 14.3401L5.81851 14.3268C5.79758 14.3163 5.77169 14.3042 5.72802 14.2839L5.72315 14.2817C5.68758 14.2652 5.63793 14.2421 5.58861 14.2175C5.42541 14.1386 5.28829 14.0757 5.17271 14.0325C5.11796 14.012 5.0798 14.0005 5.05608 13.9947C4.35496 14.031 3.79898 14.2183 3.34276 14.5304C2.87345 14.8516 2.45127 15.3451 2.09134 16.0741C1.2722 17.7446 0.910906 19.7043 1.01853 22.3143L4.37169 24.9875ZM4.37169 24.9875L4.3654 24.9875M4.37169 24.9875L4.3654 24.9875M4.3654 24.9875C3.18782 24.9761 2.55961 24.7629 2.07164 24.3822L2.06887 24.38M4.3654 24.9875L2.06887 24.38M2.06887 24.38C1.38077 23.847 1.05655 23.2308 1.01854 22.3145L2.06887 24.38Z" stroke="currentColor" stroke-width="2"/>
<path d="M14.206 9.61204C13.3522 10.4706 12.2443 10.9794 11.0481 11.0639H10.6912C9.35779 11.0639 8.10314 10.5419 7.16777 9.59084C6.23117 8.63852 5.71871 7.37262 5.71777 6.02309C5.74066 3.18437 7.93961 1 10.7162 1C12.0625 1 13.3045 1.52238 14.227 2.46048C15.1495 3.39848 15.6646 4.66471 15.6646 6.04453C15.6646 7.40474 15.142 8.6708 14.206 9.61204Z" stroke="currentColor" stroke-width="2"/>
</svg>
