<svg width="274" height="197" viewBox="0 0 274 197" fill="none" xmlns="http://www.w3.org/2000/svg"><path d="M183.6 173.3c0 7.9-6.4 13-14.3 13s-14.3-5.1-14.3-13a14.3 14.3 0 1 1 28.6 0Z" fill="#292955"/><path d="M173.7 178h6.4l40.7.3v-13.7s.5-3.6-5.4-8c-6-4.2-4.4-7.3-13.2-8.2-8.7-.8-19.5-2.9-23.7 1.3-4.3 4.3-3.3 2.6-5.8 8.7-2.4 6.2-3.5 11.7-3.5 11.7l4.5 7.9Z" fill="#347098"/><path d="M271.5 170.2c-.1.9-.3 1.6-.6 2.2l-.6 1.2c-2 3.3 1.5 4.3-1.2 4.6h-48.3c0-.6.2-3.8-.6-7.8-1.4-7.3-6-17.2-20-18.3h-.6l-.7-.1h-3.5l-.8.1-2 .3-.5.1-.6.1-.9.2-.7.2-1 .3-.5.2c-1.8.7-3.4 1.5-4.7 2.4l-.5.4c-.6.3-1 .8-1.5 1.2l-.4.4-.4.5-.7.7-.5.6v.1l-.6.6-.6 1-.4.5-.1.3a26 26 0 0 0-1.8 3.6v.1l-.3.7c0 .3-.2.4-.3.7l-.2.6-.1.5-.6 2a39 39 0 0 0-.7 4.4l-.1.7v2.3h-34.5l-.8-.2h-.8l-1.8-.3-.6-.1-.3-.1h-.2l-2.6-.6-.6-.2-.5-.2-.4-.2-.5-.2a10.1 10.1 0 0 1-1.6-.7l-.7-.4-.6-.3-1.2-1c-.1 0-.2 0-.3-.2l-.3-.3-.2-.2-.2-.3v-.1l-.2-.3c-.2-.4-.2-.8-.2-1.3v-5.3c0-.5.2-1 .4-1.2l.3-.3.9-1.1c.2-.3.4-.6.4-1v-7.2l.1-2.8c.1-1.2.6-2.4 1.5-3.2 2.7-2.4 8-6 20.8-11.3l3-1.2c12-4.8 20.1-8.1 25-9.8l4-1.3 27.5 1 26-22.2s-4.7-2.5-3.9-3.5c.9-1 9-3 16.1-3.5 3.2-.2 5-.5 13.6-.5 5.2.3 10.6 1.1 11.2 3.7v.4c0 1 0 1.8-.2 2.6l-1.1 4.4a28 28 0 0 0-.2 12.6c.6 3.7.9 6.6 1 9.1.3 5.7-.4 9.1-1 13.6s1.1 13 1.5 20.4c.3 2.8.2 5.2-.2 7.2Z" fill="#75B5E0"/><path d="M271.5 170.2c-.1.9-.3 1.6-.6 2.2l-.6 1.2c-2 3.3 1.5 4.3-1.2 4.6h-48.3c0-.7.1-4-.8-8.2v-.1c-1.6-7.2-6.6-16.6-19.8-17.8h-.6l-.7-.1h-3.5l-.8.1-2 .3-.5.1-.6.1-.9.2-.7.2-1 .3-.5.2c-1.8.7-3.4 1.5-4.7 2.4l-.5.4c-.6.3-1 .8-1.5 1.2l-.4.4-.4.5-.7.7-.5.6v.1l-.6.6-.6 1-.4.5-.1.3a26 26 0 0 0-1.8 3.6v.1l-.3.7c0 .3-.2.4-.3.7l-.2.6-.1.5-.6 2a39 39 0 0 0-.7 4.4l-.1.7v2.3h-34.5l-.8-.2h-.8l-1.8-.3-.6-.1-.3-.1h-.2l-2.6-.6-.6-.2-.5-.2-.4-.2-.5-.2a10.1 10.1 0 0 1-1.6-.7l-.7-.4-.6-.3-1.2-1c-.1 0-.2 0-.3-.2l-.3-.3-.2-.2-.2-.3v-.1l-.2-.3c-.2-.4-.2-.8-.2-1.3v-5.3c0-.5.2-1 .4-1.2l.3-.3.9-1.1c.2-.3.4-.6.4-1v-7.2c2.4 0 5.9.9 8.3 1.6 4 1.2 6.3 4.8 8.3 5.3 2 .5 4.5.3 6-.7 2-1.3 3.1-7.3 6.5-10.7 3.4-3.4 17-10.8 29.5-14l25.4-6.3c2.7-.7 6.5-2 8.6-4a330 330 0 0 1 18.6-16 44.5 44.5 0 0 1 24.5-9.7c2.8-.4 6-.7 9.3-.2v.5c0 1 0 1.7-.2 2.5l-1.1 4.4a28 28 0 0 0-.2 12.6 79.9 79.9 0 0 1 1 15.3 58.7 58.7 0 0 1-1 7.5c-.6 4.4 1.2 13 1.5 20.3a34 34 0 0 1-.3 7.3Z" fill="#6CACD8"/><path d="M270.3 173.6c-2 3.3 1.5 4.3-1.2 4.6h-48.3c0-.7.1-4-.8-8.2l.2.4c.5 1 2.6 3.3 9.5 3.3h40.6ZM139.5 168.2s-8.3.2-9.7-.2c-1.4-.5-2.4 0-4-1.3l-1.1-1.1v-.1c0-.4.1-.9.4-1.2l.2-.3 1-1c.2-.3.3-.7.3-1v-1.1c1.6 0 3.7.7 4.5 1.2 1.8 1.1 1.7 2.5 5.4 4.1 1.7.8 3 2 3 2Z" fill="#4F92BF"/><path d="M148.3 176.7c-1.5 0-10.2-1-11.3-1-1.2 0-4.5-1.8-6.8-2.1-2.3-.3-3-.5-3.7-1l-1.9-2.5v-4.7c0-.4.2-.8.4-1.1l.3-.3s3.7 2.6 8.7 3c4.8.4 9.7.3 11 1.7 1.5 1.4 3.2 4.4 5 5.6 2.2 1.3-.2 2.4-1.7 2.4Z" fill="#75B5E0"/><path d="M149.6 174c-1.9-.1-11.2-.3-15.2-1-4.8-.7-8-2.6-9.8-4.1v-.6c1.5 1.5 4.7 3.7 10 4.5 4 .7 14.7.8 14.7.8l.3.3Z" fill="#4F92BF"/><path d="M173.8 175.2v2.8H143l-3.6-.2h-1.3a27.1 27.1 0 0 1-7-1.6l-.9-.3-.9-.4-1.4-.7-.7-.4-1.2-.8-.8-.9-.2-.3c-.2-.5-.3-1-.3-1.6V169c1.7 1.5 5 3.4 9.8 4.2 4 .6 13.3.8 15.2.9l1.1.6c.6.2 1.3.4 2.2.4 2.1 0 15.7-.5 20.9-.1v.2Z" fill="#4F92BF"/><path d="M216.1 175.6c0 10-8.3 17.5-18.7 17.5-10.3 0-18.7-7.5-18.7-17.5v-1c.5-9.7 8.7-17.4 18.7-17.4s18.1 7.7 18.6 17.4l.1 1Z" fill="#292955"/><path d="M207.1 175.6c0 5.2-4.3 9.3-9.6 9.3a9.5 9.5 0 0 1-9.7-9.3c0-5.3 4.3-9.5 9.7-9.5 5.3 0 9.6 4.2 9.6 9.5Z" fill="#fff"/><path d="M237.7 104.2c-.2.8-.6 1.6-1.3 2.2-.9 1-2 1.8-3.1 2.9-7 6.2-16.4 13.5-19.5 15.8-1.2 1-2.7 1.8-4.2 2.3-1 .3-2 .6-3.1.6a107 107 0 0 1-24.4-2.7s23-12.6 40.8-21.4c2.8-1.5 5.5-2.3 8-3.4h1.5c.5-.2 6-.3 5.3 3.7ZM270.2 120.2c.6 3.7 1 6.7 1 9.1h-39.9l-3.5-3.8s4-5.8 11.8-11.7c7.1-5.3 17-10.5 32-10.7l-1.3 4.4c-.6 2.8-1.1 6.3 0 12.7Z" fill="#292955"/><path d="M170 147a69.4 69.4 0 0 1-9.8 4.3c-2.1.8-5.6 1.8-7.2 2l-3.7.2c-1.5 0-3.1-.3-4.2-1.6l-.5-.6c-1-1.4-.3-2 1.2-2.8A121 121 0 0 1 156 144c4-1.3 7-.8 8.7-.7 2.5.2 4.3 1 5.5 1.7.7.4.6 1.5 0 1.8Z" fill="#fff"/><path opacity=".5" d="m271.2 135.4-.4 3.7H248c-9.8 0-32.4 0-49.3 3a.4.4 0 0 1-.2-.8c7.5-2.3 24.5-6 57-6l15.6.1Z" fill="#4F92BF"/><path opacity=".5" d="M170.6 142c3.8-1.5 10.6-4.2 19.2-6.8 8.9-2.7 15-3 18.3-4.8M222.8 160.8c.3 5.1.8 9 1.4 11M223.9 133.3c-.5 3.4-1.3 10.3-1.3 19.5v2.5M267.8 173.6h1.8M262.3 173.6h5.5M221.8 173.6h38" stroke="#292955" stroke-width=".8" stroke-miterlimit="10" stroke-linecap="round"/><path opacity=".5" d="M265.1 140.3h-9.3c-.7 0-1.1-.5-1.1-1.1 0-.6.4-1.1 1-1.1h9.4c.6 0 1.1.5 1.1 1 0 .7-.5 1.2-1 1.2Z" fill="#4F92BF"/><path d="M264.6 139.6h-9.4a1.1 1.1 0 1 1 0-2.2h9.4c.6 0 1 .5 1 1.1 0 .6-.4 1.1-1 1.1Z" fill="#2C2E5A"/><path opacity=".6" d="M271.5 170.2c-9.9.1-23 .1-35.1-1-.8 0-1-1.1-.2-1.4a95.2 95.2 0 0 1 35.6-4.5c.1 2.5 0 5-.3 7Z" fill="#75B5E0"/><path opacity=".5" d="M140.4 151.5h-3.9c-5.1-.4-7.7-1.3-7.7-1.3" stroke="#292955" stroke-width=".8" stroke-miterlimit="10" stroke-linecap="round"/><path d="M238.4 129.3c0 .8-.2 1.8-1 3l-1 1.3c-.2.2-.5.3-.7.3-1 .2-3.5.6-6 .2a4 4 0 0 1-3.1-2.7l-.1-.4-.2-.8H225a.7.7 0 0 1-.6-.8l.3-2.4c0-.3.3-.5.6-.6l1.9-.2s1-1.1 4-1.6c2-.4 4.1-.5 5.1.4.5.6 2 2.1 2.1 4.3Z" fill="#75B5E0"/><path d="M238.4 129.3c0 .8-.2 1.8-1 3-1.4.6-8.5 1.4-8.7.7-.3-1.3-.1-2.2.5-2.8.6-.6 3.6-2 6.7-2 1.2 0 2 .5 2.5 1Z" fill="#6CACD8"/><path d="M238.4 129.3c0 .8-.2 1.8-1 3l-1 1.3c-.2.2-.5.3-.7.3-1 .2-3.5.6-6 .2a4 4 0 0 1-3.1-2.7l-.1-.4c.5.4 2.4 1.5 5.7 1.4 2.7-.1 5-2 6.2-3.1Z" fill="#4F92BF"/><path d="M175.4 155.7c4.4-3.6 16-10.8 33-5.4.3.1.5-.4.2-.6-5.8-3.6-21.9-11-33.7 5.6-.2.3.2.6.5.4Z" fill="#75B5E0"/><path opacity=".2" d="m216.3 118-1.5 1.5M220.2 112.6c-.4.9-1 1.7-1.6 2.6M211.5 118.9l-3.6 4.4M216.7 111l-2.1 3.6" stroke="#75B5E0" stroke-miterlimit="10" stroke-linecap="round"/><path opacity=".1" d="m236.4 106.4-3.1 2.8c5.7-9.8-9.5-5.6-10.4-5.4 2.8-1.4 5.5-2.2 8-3.3l1.5-.2c.5 0 6 0 5.3 3.8a4 4 0 0 1-1.3 2.3Z" fill="#75B5E0"/><path opacity=".2" d="m258.4 116.3-7 8M264 109.7l-2 2.4M257.4 124.9l-.7.7M259.7 122.1l-1.3 1.5M264.7 116.3l-3.8 4.4M269.2 110.9l-.9 1" stroke="#75B5E0" stroke-miterlimit="10" stroke-linecap="round"/><path opacity=".1" d="M271.6 103.1c-.3 1.5-.8 2.9-1.2 4.4-21 .3-29.9 5.8-30.7 6.3 7-5.3 17-10.5 31.9-10.7Z" fill="#75B5E0"/><path opacity=".2" d="M216.1 174.6c-.3-.4-4.9-4.5-18.6-4.5-13.8 0-18.4 4-18.7 4.5.5-9.7 8.7-17.4 18.7-17.4s18 7.7 18.6 17.4Z" fill="#292955"/><path opacity=".1" d="M160.2 151.3c-2.1.8-5.6 1.8-7.2 2l-3.7.2c-1.5 0-3.1-.3-4.2-1.6l-.5-.6c-1-1.4-.3-2 1.2-2.8l7.2-3.3c.2 2.4 1.8 5.3 7.2 6.1Z" fill="#6CACD8"/><path d="M158.3 138c-5.6.8-8.2.4-9-.5.9-.5 1.9-.8 3-1.3 11.9-4.7 20-8 25-9.7l.1 1c1 2.7-.5 7.8-19 10.4Z" fill="#83BCE3"/><path d="M174.6 170.4a38.8 38.8 0 0 0-.9 6.7l-1.8.3-4-1.2s-2.5-1.5.7-1.5 6-4.3 6-4.3Z" fill="#4F92BF"/><path d="M229 114.6s6-5.3 12.9-9.8" stroke="#92CEEF" stroke-miterlimit="10" stroke-linecap="round"/><path d="M111.7 162.9v4.3c0 5 .3 27.8-.7 28.3a35 35 0 0 1-16.1 1c-6.1-1.3-12.1.5-14-.4-1.8-1-3.4-23.3-3.4-24.7 0-.7-.4-2.4-.8-4-.5-2-1.3-3.9-1.7-3.2-.3.5-1 3-2 5.8-1.2 4-3.6 24.6-4.2 25.2-1 1-8 1.1-11.3.6-3.4-.5-12.5-.8-14.3-.5-1.7.4-9.3.8-7.7-.7.8-.8 2.9-19.1 3.4-21.7l1-6.1s22.5-11.7 24.2-14.6c1.7-3 5.6-5.3 15.7-6.5 10.1-1 23.3 5.3 29.1 8.2 5.6 3 2.8 9 2.8 9Z" fill="url(#a)"/><path d="M111.7 162.9v4.3H99c-6.2 0-13.7-3-17.3-4-2.2-.7-3.8 1.9-5 4.2-.5-2-1.2-3.9-1.6-3.2-.3.5-1 3-1.9 5.8-1.4-1-3.3-2.4-5.7-1a60.7 60.7 0 0 1-23 5.1c-2.7 0-4.4-.5-5.5-1.2l1-6.1s.5-3.6 2.2-4.5c6-3.2 20.9-7.8 22.2-10.1 1.7-3 5.5-5.3 15.4-6.5 9.8-1 23.5 5.3 29.1 8.2 5.6 3 3 9 3 9Z" fill="#171744"/><path d="M180.1 103.1v.8c-.2.6-.5 1.4-1.3 1.9l-.5.2h-.2c-1.3.7-4 1.9-6 2-2 0-6.4.3-7.3 0l-5.9 3.9-.4-.6-.7-2.6-2.4-7.4 5-3s1.1-.8 1.6-1.4c.8-.7 1-1.2 1.2-2l.1-.4.4-1.8c.6-2.3 1.2-3.9 1.2-5 0-1-.4-3.3-.4-3.3s.6-.4 1.6-.4l1 .1c.9.6 1.6 3 1.7 4.2 0 1.1-.5 3.7-.5 3.7l4.9-1 .8-.2c1.4-.1 3-.1 3.7.3.7.5.9 1 1 2.2 0 .6-.2 1-.4 1.2v.1l-.3.4.3.2.3.1c.3.1.5.4.7.7.2.5.4 1.5-.1 2-.1.1-.3.3-.6.3l.5.4c.3.3.7.7.7 1.2l-.1 1c-.1.3-.3.6-.6.7l.2.2c.2.3.8.7.8 1.3Z" fill="#FFD5CA"/><path d="m178.8 105.8-.5.2c-1.3.6-2.9 1.8-5.4 2.2a23 23 0 0 1-7.9-.2l-.6.1-5.6 3.8-.5-.6c.3-.7 3.8-2.9 4.6-4.2l1-2c.2-.9 1-.6 1.3.2.1.8.6 1.6 1.7 2 0 0 .8.6 3.6.4 2.8-.1 4.3-.4 5.4-1.1l2.3-1.3c.3-.2.3-.6.4-.8h.3v1.3Z" fill="#ECBABE"/><path opacity=".5" d="M172.6 92.7c-2.2.7-2.5 2.1-2.3 3 .2 1.1 1.6 1.2 1.6 1.2s-.5.4-.4 1.7c.2 1.3 2 1.4 2 1.4s-.8.5-.8 1.6c0 1 1.1 1.5 1.1 1.5-.7.3-.6 1.3-.1 2-.3 0-1-.1-1.5-.4-1.4-.7-2.1-2-3-2.3-.9-.4-1.3-1.2-.7-1.8.6-.6.5-2.6.5-3.6.1-2.6 1.2-3.9 1-4.2l-1.8 1-.3.2a.9.9 0 0 1-1.3-1c.3-1.2 1-2 1.1-4.7.2-2.1-.4-2.6-1.1-3.6l-.9-.8c.4 0 .7 0 1 .2 1 .5 1.7 3 1.7 4.1 0 1.2-.5 3.8-.5 3.8l4.9-1.1.9-.2c.1.1-2.4.8-1 2Z" fill="#F4C9C5"/><path d="M180 104c0 .6-.4 1.3-1.2 1.8-.1.2-.3.2-.5.3h-.2c0-.2.8-1 .7-1.2l-1.1.3c-.5 0-2.2.6-3.3.4-1.2-.3-1.5-1.9-.5-2.4 0 0-1.2-.4-1.2-1.5s.8-1.5.8-1.5-1.8-.2-2-1.5c0-1.3.5-1.7.5-1.7s-1.4 0-1.7-1.2c-.2-.9.2-2.2 2.4-3l1.9-.4-1.4.6c-.5.1-1.3.4-1.6 1-.5 1 .1 1.6 1.2 1.8h1.8l3.2-.6h.3l.4.2-2.2.4-1.5.4c-.8.3-1.6.8-1.7 1-.6 1.2.2 2 1.3 2l1.2-.3c.8-.3 2.8-.5 2.7-.4l.6.4c-.8 0-1.9.2-2.7.4-.1 0-2.5.5-2.2 2 .1.8 1 1 2 .8.1 0 3.3-.5 3-.3l.2.2a19.5 19.5 0 0 0-2.8.5c-1 .2-2 .4-2 1.1 0 .6.1 1 .6 1.2.3.2.8.2 1.4.2 1-.3 2.6-1 3.7-1ZM157.8 102.6s3 5.3 5.3 4.8c2.3-.6-2.3 1.6-2.5 1.8-.2 0-.7.8-1.2.2-.5-.5-1.8-5.7-1.8-5.7l.2-1Z" fill="#ECBABE"/><path d="M75.4 74.8C77 76 89.4 79 95.3 65c3.7-8.6-3.4-9.3-3.4-9.3l-1-.7-.2-.2-.6-.5a2 2 0 0 0-.8-.5c-.3 0-1.6-.5-1.8-.7l-.9-3.2c-.7-2.5-.5-3-.5-3 .5 0 3.1.8 5.3-.3.8-.5 1.6-1.4 2.8-2.7a24.7 24.7 0 0 0 5.7-14.6c.2-2.8.4-5.5.4-7.9v-3.7l-.3-5.3-5.7-.2c-4.5-.2-10.6-.3-14.9-.3h-3.8c-5 .3-8.3-.5-9.8 4.7-1.6 5.2.5 5.4.6 7.4 0 .8.5 3.7 1.7 6.8l.4 1.3c1 2.4.9 7 .9 10 0 .5 0 7.3-1 9.4-.7 1.6-4.5 2.7-5.6 3.7-.9.8.7 1.5.2 2.1-1.8 2.6 5.2 11.7 12.4 17.4Z" fill="#FFD5CA"/><path opacity=".6" d="M83.4 50.7c3.6 3.6 6 4.3 7.3 4.2h.2-.2l-.4-.5a2 2 0 0 0-.8-.5c-.4 0-1.9-.7-1.9-.7l-1-3.3v-.2c-.6-2-.5-2.6-.5-2.8-3.8-.9-7-3.7-7.2-3.8-.6-.5-2.4.6 4.5 7.6ZM75.1 20c.1 1.9 2.2 3.7 3.1 2.3 1-1.5.4-4.4 1.5-6.5 1-2 4.4-1.5 6.7-1.7 2.4-.1 2.2 4 5 4 2.7-.2 5.3 1.6 6.9 3 .6.5 1.4.4 2 .2v-3.7c-1-1.5-2.3-3.1-3.2-3.9-.6-.6-1.6-1.1-2.7-1.6-1.9-.8-4.5-1.4-8.3-1.6-4-.2-5.2.4-6.6 1.3-.8.5-1.6.6-2.9 1.2-3.5 1.5-1.6 5.2-1.5 7ZM68.6 32c1 2.4.8 6.9.8 10 0 .4 1.6-2 1.3-5-.2-4.6 2.3-7 3.1-6.4-.1-.2-3-1.5-5.4-.2l-.2.2c0 .5.2 1 .4 1.3Z" fill="#DFA8B6"/><path d="M64.5 24.7c.6 2 1.6 4 2.7 5.8l.5.7.4.7.4.9c0 .2.2.4.3.5l.2.7.3 2c.1-.6.6-2.5.7-3.8 0-1.3 1.2-2 1.2-2s-1.6-1.2-1.8-2.8c1.7-.5 3.6.4 5.5-1.8l.4-.3c1.8-2 3.2-2.9 3-7a4 4 0 0 1 1.2-3.1c.5-.6 2-.8 2.8-1.1 1.9-1 3.2-1 5-.8l.9.2c3.2 1 2.5 2.6 5.2 3 2.7.3 3.9.9 6 2.8 1.9 1.5 5.3-1.2 7.2-4l.5-.7.6-1.2c1-3 1-5.7-1.1-6.7-.7-.4-1-.7-1.2-1-.4-.8-.3-1.7-2.3-3.5C101.3.6 98-.2 94.1.4c-.4 0-.8 0-1 .2-2.2.3-3.5.1-5-.1a26 26 0 0 0-6-.4c-2.6.2-4.4 1-6.4 1.6C70.5 3.3 69 5.9 67 11c-.8 1.8-2.6 3.4-3 5.7v2.6c0 1.5.3 4.3.5 5.3Z" fill="#2B2B58"/><path d="M64.5 24.7c.6 2 1.6 4 2.7 5.8l.5.7.4.7.4.9c0 .2.2.4.3.5l.2.7.3 2c.1-.6.6-2.5.7-3.8 0-1.3 1.2-2 1.2-2s-1.6-1.2-1.8-2.8c1.7-.5 3.6.4 5.5-1.8l.4-.3c1.8-2 3.2-2.9 3-7a4 4 0 0 1 1.2-3.1c-1.4.8-3 4-5.3 5-2 1-5 2.4-7.7 1.5-1-.4-1.5-2.5-2.6-3.1v.8c0 1.5.4 4.3.6 5.3Z" fill="#1A1A49"/><path d="M94.8 30.9c-.5 0-1-.8-.8-1.6.1-.8.7-1.4 1.2-1.3.6 0 1 .8.8 1.6 0 .8-.6 1.3-1.2 1.3ZM84.2 29.6c-.6 0-1-.8-.9-1.7.1-.9.7-1.6 1.4-1.5.6.1 1 1 .9 1.8-.1.9-.8 1.5-1.4 1.4ZM99 26.4s-.8-2.4-3.7-2.6c-2.6-.1-3 1-2.3 1.3.5.3 1.7-.6 3.7 0 1.4.5 2.2 2.3 2.3 1.3ZM79.2 24s1.9-2.6 5.5-2.1c3.2.5 3.2 1.9 2.4 2.3-.8.3-1.9-1.2-4.4-1-2 .2-3.5 2.1-3.5.8Z" fill="#2B2B58"/><path d="m87.3 13.3 1 .2c3.2 1 2.4 2.6 5.2 3 2.7.3 3.8.9 6 2.8 1.8 1.5 5.3-1.2 7.2-4l.6-1.1c-1.2 1-3.2 2.6-5.5 2.7-3.9.2-4.5-1.3-9.1-2.6-2.1-.6-3.9-1-5.4-1Z" fill="#1A1A49"/><path d="M94 .3c1.2.6 1.7 1.9 3.3 1.8 3.5-.2 3.3 1.2 7 3.1.4.3.8.4 1.2.5-.5-.8-.4-1.7-2.4-3.5-1.8-1.6-5-2.4-9-1.9ZM69.6 9.7c.5-4.4 3.3-4.5 5.9-6.4C78 1.5 79.6 2.7 86.7 1L88 .4C86.6.2 84.9 0 82 .1c-2.5.1-4.4.9-6.4 1.5-5.2 1.6-6.7 4.3-8.7 9.5-.7 1.8-2.7 3.4-3 5.9 0 .2.3 0 .7-.2 1.5-.9 4.7-4 5-7.1Z" fill="#363666"/><path d="M75.4 28.7s.6-6.4-4.4-6.5c-4.4-.2-3.6 7.4-.8 8.8 2.7 1.3 6-.8 6-.8l-.8-1.5Z" fill="#FDD9CD"/><path opacity=".6" d="M72.6 28.5s-1 .9-2.2 0c-1.2-1-1.3-3.1-.2-3.4 1-.3 2.3-.4 2.8 1.7 0 0-1-.1-1 .9 0 .8.6.8.6.8Z" fill="#DFA8B6"/><path d="M72.9 28.7s-1 0-.8-1c0-1 1-.8 1-.8s-.3-2.1-2.1-2c-.7 0-1 .3-1.4.7" stroke="#AB888B" stroke-width=".9" stroke-miterlimit="10" stroke-linecap="round" stroke-linejoin="round"/><path d="M101.1 6c.8.3 4.5 2 4.6 3.2 0 1.2-2.6 2-3.9.8-1.3-1.2-2.9-.6-3.4-1.4-.6-.8 0-4 2.7-2.6Z" fill="#363666"/><path opacity=".6" d="M86.3 44.1c-.6 0-1-.4-1-.7 0-.3.5-.6 1.1-.5.7 0 1 .4 1 .7 0 .4-.5.6-1 .5Z" fill="#DFA8B6"/><path opacity=".5" d="M82.2 33.1c-1.1 0-2-.6-2-1.2 0-.7 1-1.2 2-1.2 1.2 0 2 .6 2 1.2 0 .7-.9 1.3-2 1.2ZM95.7 34.4c-.8-.3-1.1-1-1-1.4.2-.5 1-.6 1.7-.3s1.1.9 1 1.3c-.3.5-1 .7-1.7.4Z" fill="#fff"/><path d="M69 9.5s.6-2.8 0-4.9c-.5-1.9-1.8 4.9-1 5.2.8.2 1-.3 1-.3Z" fill="#363666"/><path d="M68.7 8.1s-1.4.2-2.5.7c-1.1.6.8 1.6 2.1 1 1.5-.6.4-1.7.4-1.7Z" fill="#363666"/><path d="M86.2 47c.2 1.5.7 4.1 1.7 7.5" stroke="#2B2B58" stroke-width=".5" stroke-linecap="round"/><path d="M84 38.2s.7 2 2 3c1.2 1 2.8.9 3.8.4.8-.4 1.7-1 2.5-2.6l-1.4-.2-2.4.6L87 39l-2.4-.6H84Z" fill="#2B2B58"/><path d="m84 38.2.8.4c.5.2 2.7 1.1 4 1.2.4 0 1.1-.1 1.6-.5l.6-.5a28 28 0 0 1-6-1.5l-.7-.3-.5-.2.2 1.4Z" fill="#fff"/><path d="M83.8 37s0-.3.2-.2c.2.1 0-.6 0-.6l-.7.1v.5l.5.2ZM92 38.9s.3 0 .2.3c-.2.2.9-.2.9-.2s.5-.4-.1-.6c-.7-.2-1 0-1 0v.5Z" fill="#FFD5CA"/><path d="M92.3 35c.4-1.4-.8-2.1-1.2-2.3l-.2-.3-.3-6-.2-.3V32.7c0 .4.7.5 1 1 .5 1-.4 1.7-1.8 1.6-1.1-.1-1.6-1.2-1.7-1.7h-.1c-.2 3.2 4 3 4.5 1.4Z" fill="#2B2B58"/><path d="M75.4 74.8C77 76 89.4 79 95.3 65c3.7-8.6-3.4-9.3-3.4-9.3l-1-.7-.2-.2-.6-.5a2 2 0 0 0-.8-.5c-.3 0-1.6-.5-1.8-.7l-.9-3.2c-.7-2.5-.5-3-.5-3 .5 0 3.1.8 5.3-.3.8-.5 1.6-1.4 2.8-2.7a24.7 24.7 0 0 0 5.7-14.6c.2-2.8.4-5.5.4-7.9v-3.7l-.3-5.3-5.7-.2c-4.5-.2-10.6-.3-14.9-.3h-3.8c-5 .3-8.3-.5-9.8 4.7-1.6 5.2.5 5.4.6 7.4 0 .8.5 3.7 1.7 6.8l.4 1.3c1 2.4.9 7 .9 10 0 .5 0 7.3-1 9.4-.7 1.6-4.5 2.7-5.6 3.7-.9.8.7 1.5.2 2.1-1.8 2.6 5.2 11.7 12.4 17.4Z" fill="#FFD5CA"/><path opacity=".6" d="M83.4 50.7c3.6 3.6 6 4.3 7.3 4.2h.2-.2l-.4-.5a2 2 0 0 0-.8-.5c-.4 0-1.9-.7-1.9-.7l-1-3.3v-.2c-.6-2-.5-2.6-.5-2.8-3.8-.9-7-3.7-7.2-3.8-.6-.5-2.4.6 4.5 7.6ZM75.1 20c.1 1.9 2.2 3.7 3.1 2.3 1-1.5.4-4.4 1.5-6.5 1-2 4.4-1.5 6.7-1.7 2.4-.1 2.2 4 5 4 2.7-.2 5.3 1.6 6.9 3 .6.5 1.4.4 2 .2v-3.7c-1-1.5-2.3-3.1-3.2-3.9-.6-.6-1.6-1.1-2.7-1.6-1.9-.8-4.5-1.4-8.3-1.6-4-.2-5.2.4-6.6 1.3-.8.5-1.6.6-2.9 1.2-3.5 1.5-1.6 5.2-1.5 7ZM68.6 32c1 2.4.8 6.9.8 10 0 .4 1.6-2 1.3-5-.2-4.6 2.3-7 3.1-6.4-.1-.2-3-1.5-5.4-.2l-.2.2c0 .5.2 1 .4 1.3Z" fill="#DFA8B6"/><path d="M64.5 24.7c.6 2 1.6 4 2.7 5.8l.5.7.4.7.4.9c0 .2.2.4.3.5l.2.7.3 2c.1-.6.6-2.5.7-3.8 0-1.3 1.2-2 1.2-2s-1.6-1.2-1.8-2.8c1.7-.5 3.6.4 5.5-1.8l.4-.3c1.8-2 3.2-2.9 3-7a4 4 0 0 1 1.2-3.1c.5-.6 2-.8 2.8-1.1 1.9-1 3.2-1 5-.8l.9.2c3.2 1 2.5 2.6 5.2 3 2.7.3 3.9.9 6 2.8 1.9 1.5 5.3-1.2 7.2-4l.5-.7.6-1.2c1-3 1-5.7-1.1-6.7-.7-.4-1-.7-1.2-1-.4-.8-.3-1.7-2.3-3.5C101.3.6 98-.2 94.1.4c-.4 0-.8 0-1 .2-2.2.3-3.5.1-5-.1a26 26 0 0 0-6-.4c-2.6.2-4.4 1-6.4 1.6C70.5 3.3 69 5.9 67 11c-.8 1.8-2.6 3.4-3 5.7v2.6c0 1.5.3 4.3.5 5.3Z" fill="#2B2B58"/><path d="M64.5 24.7c.6 2 1.6 4 2.7 5.8l.5.7.4.7.4.9c0 .2.2.4.3.5l.2.7.3 2c.1-.6.6-2.5.7-3.8 0-1.3 1.2-2 1.2-2s-1.6-1.2-1.8-2.8c1.7-.5 3.6.4 5.5-1.8l.4-.3c1.8-2 3.2-2.9 3-7a4 4 0 0 1 1.2-3.1c-1.4.8-3 4-5.3 5-2 1-5 2.4-7.7 1.5-1-.4-1.5-2.5-2.6-3.1v.8c0 1.5.4 4.3.6 5.3Z" fill="#1A1A49"/><path d="M94.8 30.9c-.5 0-1-.8-.8-1.6.1-.8.7-1.4 1.2-1.3.6 0 1 .8.8 1.6 0 .8-.6 1.3-1.2 1.3ZM84.2 29.6c-.6 0-1-.8-.9-1.7.1-.9.7-1.6 1.4-1.5.6.1 1 1 .9 1.8-.1.9-.8 1.5-1.4 1.4ZM99 26.4s-.8-2.4-3.7-2.6c-2.6-.1-3 1-2.3 1.3.5.3 1.7-.6 3.7 0 1.4.5 2.2 2.3 2.3 1.3ZM79.2 24s1.9-2.6 5.5-2.1c3.2.5 3.2 1.9 2.4 2.3-.8.3-1.9-1.2-4.4-1-2 .2-3.5 2.1-3.5.8Z" fill="#2B2B58"/><path d="m87.3 13.3 1 .2c3.2 1 2.4 2.6 5.2 3 2.7.3 3.8.9 6 2.8 1.8 1.5 5.3-1.2 7.2-4l.6-1.1c-1.2 1-3.2 2.6-5.5 2.7-3.9.2-4.5-1.3-9.1-2.6-2.1-.6-3.9-1-5.4-1Z" fill="#1A1A49"/><path d="M94 .3c1.2.6 1.7 1.9 3.3 1.8 3.5-.2 3.3 1.2 7 3.1.4.3.8.4 1.2.5-.5-.8-.4-1.7-2.4-3.5-1.8-1.6-5-2.4-9-1.9ZM69.6 9.7c.5-4.4 3.3-4.5 5.9-6.4C78 1.5 79.6 2.7 86.7 1L88 .4C86.6.2 84.9 0 82 .1c-2.5.1-4.4.9-6.4 1.5-5.2 1.6-6.7 4.3-8.7 9.5-.7 1.8-2.7 3.4-3 5.9 0 .2.3 0 .7-.2 1.5-.9 4.7-4 5-7.1Z" fill="#363666"/><path d="M75.4 28.7s.6-6.4-4.4-6.5c-4.4-.2-3.6 7.4-.8 8.8 2.7 1.3 6-.8 6-.8l-.8-1.5Z" fill="#FDD9CD"/><path opacity=".6" d="M72.6 28.5s-1 .9-2.2 0c-1.2-1-1.3-3.1-.2-3.4 1-.3 2.3-.4 2.8 1.7 0 0-1-.1-1 .9 0 .8.6.8.6.8Z" fill="#DFA8B6"/><path d="M72.9 28.7s-1 0-.8-1c0-1 1-.8 1-.8s-.3-2.1-2.1-2c-.7 0-1 .3-1.4.7" stroke="#AB888B" stroke-width=".9" stroke-miterlimit="10" stroke-linecap="round" stroke-linejoin="round"/><path d="M101.1 6c.8.3 4.5 2 4.6 3.2 0 1.2-2.6 2-3.9.8-1.3-1.2-2.9-.6-3.4-1.4-.6-.8 0-4 2.7-2.6Z" fill="#363666"/><path opacity=".6" d="M86.3 44.1c-.6 0-1-.4-1-.7 0-.3.5-.6 1.1-.5.7 0 1 .4 1 .7 0 .4-.5.6-1 .5Z" fill="#DFA8B6"/><path opacity=".5" d="M82.2 33.1c-1.1 0-2-.6-2-1.2 0-.7 1-1.2 2-1.2 1.2 0 2 .6 2 1.2 0 .7-.9 1.3-2 1.2ZM95.7 34.4c-.8-.3-1.1-1-1-1.4.2-.5 1-.6 1.7-.3s1.1.9 1 1.3c-.3.5-1 .7-1.7.4Z" fill="#fff"/><path d="M69 9.5s.6-2.8 0-4.9c-.5-1.9-1.8 4.9-1 5.2.8.2 1-.3 1-.3Z" fill="#363666"/><path d="M68.7 8.1s-1.4.2-2.5.7c-1.1.6.8 1.6 2.1 1 1.5-.6.4-1.7.4-1.7Z" fill="#363666"/><path d="M86.2 47c.2 1.5.7 4.1 1.7 7.5" stroke="#2B2B58" stroke-width=".5" stroke-linecap="round"/><path d="M84 38.2s.7 2 2 3c1.2 1 2.8.9 3.8.4.8-.4 1.7-1 2.5-2.6l-1.4-.2-2.4.6L87 39l-2.4-.6H84Z" fill="#2B2B58"/><path d="m84 38.2.8.4c.5.2 2.7 1.1 4 1.2.4 0 1.1-.1 1.6-.5l.6-.5a28 28 0 0 1-6-1.5l-.7-.3-.5-.2.2 1.4Z" fill="#fff"/><path d="M83.8 37s0-.3.2-.2c.2.1 0-.6 0-.6l-.7.1v.5l.5.2ZM92 38.9s.3 0 .2.3c-.2.2.9-.2.9-.2s.5-.4-.1-.6c-.7-.2-1 0-1 0v.5Z" fill="#FFD5CA"/><path d="M92.3 35c.4-1.4-.8-2.1-1.2-2.3l-.2-.3-.3-6-.2-.3V32.7c0 .4.7.5 1 1 .5 1-.4 1.7-1.8 1.6-1.1-.1-1.6-1.2-1.7-1.7h-.1c-.2 3.2 4 3 4.5 1.4Z" fill="#2B2B58"/><path d="M152.3 115.6c-.7-.8-6.7-7.2-4.6-12.4.4-.8.7-1.4 1.5-2.2 0 0 4.2-1.6 6.4-1l.6.2c.2 0 .3.3.5.5a86 86 0 0 1 5 10.9l.2.8c.1.8-.1 1.6-.7 2.3-.6.7-1.8 1.4-3.1 2.3.1 0-4.9-.6-5.8-1.4Z" fill="#F47056"/><path opacity=".7" d="M68 56s5.3 4.2 10.2 4.2c5 0 11-2.6 11-2.6l-.5 2.7s-4.4 2.4-6 2.6c-1.7.3-9 0-9 0s-3.3.5-5.6-1.1c-2.3-1.7-3.4-2.4-2.3-3.5l2.3-2.3Z" fill="#ECBABE"/><path d="M100.3 147c0 .1 0 .1 0 0 .1-.1.1-.1 0 0ZM100.3 147c-.4.2-2.2 2.3-4 4.4L92 157s-3.1-1-6.3-1c-2.9 0-2.2 1-5.7 1.2l-1.2.1-3.7-.1-4.8-.4-.9-.1-.5-3-.5-2.6-8-43.4 3.4-44.4 5-5.2s3.2 3.7 9.9 3.7c6.6 0 11.8-4.8 11.8-4.8L96 73l5.8 39s-1.8 32.3-1.5 34.8Z" fill="#F7CD53"/><path d="m75 157.2-4.8-.4-1.4-3.2-.6-1.3.1-1.2L71 119c0-.1 4 17.5 4 38.2ZM86 69s1 14.6 1.5 19.1c.4 4.6 0 16.6 1 17.1 1 .6 2.6-1.3 2.6-1.3l-1.2-22.5s-1.4-10-2-10.6M98.1 141s-.7 5.3-1.8 10.4L92 157s-3.1-1-6.3-1c-2.9 0-2.2 1-5.7 1.2 2.8-2.8 4.4-10.4 5.5-20.5 1.1-10.2 4-23.9 4-23.9l7 6.3L98 141Z" fill="#EBAD49"/><path d="M115.2 164.1c-.1.7-.6 1.2-1.3 1.2-7 1.1-14.3-.7-19-2.6l-3-1.2c-1-.4-1.7-1.4-1.8-2.4 0-4-.3-9-.5-15.8V142c-.8-27.4.1-24 0-43-.3-19.1-2.4-25.3-3.7-30.3-1-3.4.2-6.9 2-10.2 1.7-3.3 1.2-4.7 1.2-4.7 3.8 1.2 10.3 3.6 15.7 6.1 5.5 2.5 6.4 6.4 6.4 6.4l2 18.4-.7 36v6.9a104.4 104.4 0 0 0 1.3 15.7 268.8 268.8 0 0 1 1.8 16c.1 2 0 3.7-.4 4.8Z" fill="#F35933"/><path d="M32.6 147.3c0 .3 0 .4-.2.6 0 .2-.3.3-.5.5a11.5 11.5 0 0 1-2.5 1.6l-2.4 1-.1.1h-.1l-.6.3a58.3 58.3 0 0 1-6.3 2l-.5.1c-.7 0-1.3-.1-1.8-.6-.8-.5-2.3-2.3-3.2-3.5 0-.1 2-4.7 2.8-5.6.7-.8 6.9-7 12.2-5 .8.3 1.6 1 2.5 1.7 0 0 1.2 4.5.7 6.8Z" fill="#F47056"/><path d="m93 56-2.7 9.3c-.7 2.7 1.4 10.4 2.5 15.6 1 5.3 1.9 17.6 1.7 22.5-.2 5-1.2 20.6-.7 28.8.5 8-.8 22.6-.3 25.5 0 0 4.2 3.2 12.3 4.1 3.8.4 6.7 0 8.6-.7" stroke="#C9472C" stroke-miterlimit="10"/><path d="M158.6 119.1a65 65 0 0 1-11.8 6.7c-3.7 1.4-4.7 2-9.3 4.2-4.7 2.2-8 2.4-10.3 2.4-2.1 0-7.3-1.7-15-12.4l-2.3-3.6c-8.9-14-8.6-40.3-8.6-40.3l4-16s5.8 2 10.6 10.8c4.8 8.9 8 15.5 10 20.4 1.8 4.9 4.1 10.5 4.5 11.9l.4 1c.3 1 .4 2.1-.3 3.2.3-.3.8-.9 1.8-.7 0 0 0-1 3.7-2a26 26 0 0 0 6.8-2.4c1.3-.8 4.4-2.9 6.8-2.3 2.4.7 2.6 1.4 3.2 2a51 51 0 0 1 5.5 12.3c.6 2.4 1 4.2.3 4.8Z" fill="#F35933"/><path opacity=".6" d="M158.6 119.1c-.9 1-8.2 5.4-11.8 6.7-3.8 1.4-4.7 2-9.3 4.2-4.7 2.2-8 2.4-10.3 2.4-2.1 0-7.3-1.7-15-12.4-4-18-3.5-32.3-3.5-32.3s3.6 37.5 16.5 39.2c12.8 1.6 28.6-7 31.3-8.6 1.6-.9 1.8-2.7 1.8-4 .6 2.4 1 4.2.3 4.8ZM113.8 143.3c-1.6-1.7-2.4-3.7-3-7.8-.4-3.8 1-6.7 1.7-8 0 4.3.3 9.4.6 11l.7 4.8ZM115.2 164.1c-.1.7-.6 1.2-1.3 1.2-7 1.1-14.3-.7-19-2.6l-3-1.2c-1-.4-1.7-1.4-1.8-2.4 0-4-.3-9-.5-15.8V142c1 5.3 3.2 13.6 8.5 16 7.2 3.2 11.7 2.9 13.6 1.8 1-.6 3-1.3 3.6-3l.2 2.6c.2 2 0 3.6-.3 4.7Z" fill="#C3452B"/><path opacity=".6" d="M130.6 107.4s0 1.3-.8 2.4c-.5.7-1.4 1.3-2.2 1.6-.2.1-.5.2-.6.1 0 0 1.1-1 2-2.3.6-1 1-3.1 1-4.3.1-.8.6-1 .9-.9.2 1.2.3 2.2-.3 3.4Z" fill="#C3452B"/><path opacity=".6" d="M130.4 107.3s.5-.3.5.8l-.3 3.8c.3 0 .6-.3.8-.6a7 7 0 0 0 .4-2.2v-1.8h.3c.4.3.8.6 1 1l.2.4s.3-.4.2-.6c-.2-.6-.6-1.5-1.2-1.6h-1l-1 .4.1.4Z" fill="#C3452B"/><path d="m57.2 67.3-3.1 21.4-4.9 3.9-3.8 3.2a32.6 32.6 0 0 0-3.3 3.3c-2.7 3.1-8.4 7-9.3 8.5-.9 1.6-3.4 3.7-4.8 3.7h-.2c-.7 0-1-.3-1-.2l-.1.8v.4l-.5.5c-.6.5-1.4.6-1 1 .6.7 1 3.4 1.3 5.2.4 1.7.5 2.3 1.2 4.5.3 1 .4 1.7.8 2.4l1.2 3c1 2.7 2.3 7 3 9.7.8 2.7 0 3.8-2.5 5.2-1 .6-3.3 1.9-5.9 3-3.4 1.6-7.4 3.2-9.3 2.9-3.3-.5-3-3-3.6-4.7-.6-1.6-2.5-7.5-4.3-12.2-1.9-4.7-4.6-11.9-6.2-19.2-1.6-7.3.5-10.1 3.7-13.8 3.3-3.7 6-6.8 18.5-19a145.8 145.8 0 0 1 24-20.1l.8.5 9.3 6.1Z" fill="#F35933"/><path d="M72.4 155.7c-.1 2.6-.6 4.9-1.2 6.7-.4 1.1-1.1 2-2.1 2.5a30.9 30.9 0 0 1-18.2 3.8c-14.5-.9-13.6-8.4-13.6-8.4l2-9.8 2-9.2 2-7.7c.4-2 .6-3 1.4-4-.2-2.4 0-5.6 0-8.7l-.1-1.3v-1.3a313.5 313.5 0 0 1 1.1-27.8v-.2l-2-20.3 3.3-9.3.9-.5c3.5-2 4.3-2 7.5-3.2 3.4-1.2 4.5-1.4 7.5-2.4l3.9-1.5s6.3 9.7 5.4 18.9c-1 9.2-1.8 27-1.8 31.4 0 4.5.7 19.6 1.4 26.3.8 6.6 1 17.4.6 26Z" fill="#F35933"/><path opacity=".6" d="M55.4 168.8h-4.5c-14.5-1-13.6-8.5-13.6-8.5l2-9.8a4 4 0 0 1 3-.5c2.9.5 1.3 4.2 2.3 6.7 1 2.5 7.5 4.3 9.3 7.3.8 1.4 1.2 3.2 1.5 4.8Z" fill="#C3452B"/><path d="M63.2 56.3s4.3 8.9 4.3 14c0 5-2 30.6-1.6 38.7.5 8.2 3.5 23.2 2.7 34.1-.8 11 .2 16.8-5 18.6-5.3 1.9-13.7 3-20.3 1.5" stroke="#C3452B" stroke-miterlimit="10"/><path opacity=".3" d="M50.8 138s-2.7-.4-3.4-2.6c-.7-2.1-2-3.6-6 5.9l1.9-7.7c.5-2 .7-3 1.5-4-.3-2.4 0-5.6-.1-8.7v-1.3a74 74 0 0 0 6.1 18.4Z" fill="#C3452B"/><path d="M50.8 76c-.2 4.9-.8 10.8-1.6 16.6a431.2 431.2 0 0 1-4.6 25.7c-.1-7.2.4-16.7.8-22.5A32.6 32.6 0 0 0 42 99c-2.7 3.1-8.4 7-9.3 8.5-.9 1.6-3.4 3.8-4.8 3.8-.8 0-1.1-.3-1.3-.2l-1.5-1.4s3-1 5.8-2.6c2.7-1.6 4.6-5.7 11.2-12.2 1.4-1.4 2.6-3 3.5-4.6a45.6 45.6 0 0 0 5.1-14.4ZM30.2 143.8c-1 .6-3.3 1.9-6 3 0 0 2.9-2.4 5.2-6.3 2-3.6-.6-13.2-1-14.5l1.3 3c1 2.6 2.3 6.9 3 9.6.7 2.7-.1 3.8-2.5 5.2Z" fill="#C3452B"/><path opacity=".3" d="M72.4 64.4s4.8 1.6 11.6 0" stroke="#F35933" stroke-miterlimit="10"/><path d="M22.9 101.2s2 8.8 6 9l-3.7-.4s-3.1-5-2.3-8.6Z" fill="#C3452B"/><path d="M27.8 111.3c-.7 0-1-.3-1-.2l-.1.8v.4c-1.2-.2-3.7-.9-5-2.6-1.6-2.2-1-2.5-1-2.5s3.8 3.6 6.2 3.8c.5 0 .8.2 1 .3ZM25.2 113.8h-1.8c-1.3-.5-1.7-2-1.7-2s2.4 1.1 3.5.9c.4-.1.7 0 1 .2-.6.4-1.4.5-1 1Z" fill="#C3452B"/><path d="m51.7 166.8-.3.3s-1.6.1-2.3-.5c0-.2-1.4-1.6-2.3-2.6-1-1-2.1-1-2.8-1.3.8.4 1.9.7 3 2a85.7 85.7 0 0 1 3 3.9v.5c-.2.3-.7.5-1 .4-.7-.1-1.4-.2-1.8-.6l-3.2-3c-1-.6-2.2-.9-3.1-1-.2 0 2.5 1.7 3.2 2.3.7.6 2.6 3 3.3 3.9.1.2 0 .6-.2.8 0 0-1.7.4-2.6-.6l-2-2c-1.7-1.6-2.9-1.7-3-1.8 1.9 1.6 3.6 3.1 4.4 4.2v.6l-.2.2-.3.2c-.3 0-.7 0-1.1-.2-.8-.4-1.8-1.4-2-1.6l-1.6-1c-.7-.5-1.4-.8-1.9-1-1.7-.4-3.8-.6-5.2-.9-2.2-.3-3.6-2.9-4-3.7l-.5-1c-.3-1-.7-2-1.8-3.5a33 33 0 0 0-1.6-2l-4-4.4.8-.2c1.6-.4 3.5-1 5.5-1.9.3 0 .4-.2.6-.3h.3a22 22 0 0 0 1.6-.8h.1l.6-.3.8-.4c.3 0 .4-.2.7-.3.7 1.7 2.6 6.2 3.7 7 .7.4 1 .7 1.4.5.3 0 .6-.3 1.1-.8l2.5 1.9.3.3c0 .6-.2 1 1.7 1.2l.7.1c2 .1 4.5.4 5.5 1.5.8.7 3 3.6 3.6 4.7l.4 1.2Z" fill="#FFD5CA"/><path opacity=".8" d="M85.6 93s-1.2 13.5-3.5 18.2c-2.3 4.7-3.7 6.1-3.7 6.1M70.4 107.8s3.7 5.9 3.5 15M84.6 126s.6 11.3-4.7 14.4" stroke="#D08531" stroke-width=".8" stroke-miterlimit="10" stroke-linecap="round"/><path d="M59.5 145c1 3.2 1.5 8.8-.7 11.2-3.2 3.6-10.7 5.3-15.1-5.3" stroke="#A03320" stroke-width=".9" stroke-miterlimit="10" stroke-linecap="round" stroke-dasharray="1.07 1.07"/><path d="M51.2 146.8c2.6-1.2 5.4-2.8 7.5-4.7.2-.3.3-.6.1-1L57 138c-.2-.4-.8-.5-1.2-.2a60.7 60.7 0 0 1-13.1 7.3c-.4.2-.6.5-.5.9l.9 3.2c.1.4.6.7 1 .6l3-1M113.8 147.6l-3-1M106.7 144.7a29.3 29.3 0 0 1-7.5-4.7.7.7 0 0 1 0-1l1.7-3.1c.2-.5.8-.6 1.2-.3 1.3 1 4.5 3.3 11.1 6.4" stroke="#A03320" stroke-width=".9" stroke-miterlimit="10" stroke-linecap="round"/><path d="M41.6 156.4c-.3.5-1.1 1.3-1.7 1.8l-.7.6 1.3.6-.7.3L37 161l-3.5-2.2.6-.4.3-.3a42 42 0 0 0 2.5-2c1-.8 1.8-1.4 2.2-2l1.7-2.5s.7 0 1.3.4l.4.4.1.3c.4.8-.4 3-1 3.8Z" fill="#FFD5CA"/><path d="m51.7 166.8-.3.3s-1.6.1-2.3-.5c0-.2-1.4-1.6-2.3-2.6-1-1-2.1-1-2.8-1.3 1.5 0 2.6 0 3.4.8 1 1 2 2.6 2.6 3 1 .6 1.7.3 1.7.3ZM50 168.6v.5c-.2.3-.7.5-1 .4-.7-.1-1.4-.2-1.8-.6-.8-.8-2.2-2.2-3.2-3-1-.6-2.2-1-3.1-1 0 0 1.3-.4 3.1.4.6.3 1.3.4 1.8 1 .8 1 1.8 2.2 2.4 2.3.8.3 1.9 0 1.9 0ZM41.5 159.4h.7c-.5.2-2.1.1-2.7-.3-.3-.3-.5-.5 0-1.2.3-.6.9-1.3 1.5-2a5.9 5.9 0 0 0 1.4-3.6l.1.3c.4.9-.4 3-1 3.8l-1.7 1.9c.1.4-.2 1 1.7 1.1ZM44 172.4l-.2.2-.2.2c-.4 0-.7 0-1.2-.2-.8-.4-1.7-1.4-2-1.6l-1.6-1c-.7-.5-1.4-.9-1.9-1l-5.2-1c-2.2-.2-3.6-2.8-4-3.7l-.5-1a26 26 0 0 0 3.8 3.3c1.4 1 3.2 1 6 1.9 2.8.9 4.2 2.9 5 3.5 1 .7 1.9.4 2 .4ZM23.8 157.9l-4-4.5.8-.2c1.6-.4 3.5-1 5.5-1.9l.7-.3h.2a22 22 0 0 0 1.6-.8c-.6.4-6.9 4.2-4.8 7.7ZM47.2 172s-1.7.3-2.6-.6l-2-2c-1.7-1.6-2.9-1.7-3-1.8 2.5 0 4.7 2.5 5.6 3.3 1 .7 2.2.2 2.2.2.2.3.1.6-.2.8Z" fill="#ECBABE"/><path d="M98 141.7s-3.7 11.7 4.3 14.2c7 2.2 10-4.5 11.5-7.2" stroke="#A03320" stroke-width=".7" stroke-miterlimit="10" stroke-linecap="round" stroke-dasharray="0.93 0.93"/><path d="M273.6 90h-23.5V185h23.5V90Z" fill="url(#b)"/><defs><linearGradient id="a" x1="73.8" y1="173.9" x2="73.8" y2="196.2" gradientUnits="userSpaceOnUse"><stop offset=".2" stop-color="#1A1A4F"/><stop offset=".9" stop-color="#1A1A49" stop-opacity="0"/></linearGradient><linearGradient id="b" x1="250.1" y1="137.4" x2="273.7" y2="137.4" gradientUnits="userSpaceOnUse"><stop offset=".6" stop-color="#fff" stop-opacity="0"/><stop offset=".8" stop-color="#fff"/></linearGradient></defs></svg>