<svg width="110" height="110" viewBox="0 0 110 110" fill="none" xmlns="http://www.w3.org/2000/svg">
<rect width="110" height="110" rx="10" fill="white"/>
<path d="M49.5589 14.1935H16.9138C15.4114 14.1935 14.1934 15.4116 14.1934 16.914V49.5591C14.1934 51.0615 15.4114 52.2796 16.9138 52.2796H49.5589C51.0613 52.2796 52.2794 51.0615 52.2794 49.5591V16.914C52.2794 15.4116 51.0613 14.1935 49.5589 14.1935ZM46.8385 46.8387H19.6342V19.6344H46.8385V46.8387Z" fill="#222222"/>
<path d="M27.7956 41.3978H38.6773C40.1797 41.3978 41.3978 40.1798 41.3978 38.6774V27.7957C41.3978 26.2934 40.1797 25.0753 38.6773 25.0753H27.7956C26.2933 25.0753 25.0752 26.2934 25.0752 27.7957V38.6774C25.0752 40.1798 26.2933 41.3978 27.7956 41.3978ZM30.5161 30.5161H35.9569V35.957H30.5161V30.5161Z" fill="#222222"/>
<path d="M49.5589 57.7204H16.9138C15.4114 57.7204 14.1934 58.9385 14.1934 60.4408V93.086C14.1934 94.5883 15.4114 95.8064 16.9138 95.8064H49.5589C51.0613 95.8064 52.2794 94.5883 52.2794 93.086V60.4408C52.2794 58.9385 51.0613 57.7204 49.5589 57.7204ZM46.8385 90.3656H19.6342V63.1613H46.8385V90.3656Z" fill="#222222"/>
<path d="M27.7956 84.9247H38.6773C40.1797 84.9247 41.3978 83.7066 41.3978 82.2043V71.3225C41.3978 69.8202 40.1797 68.6021 38.6773 68.6021H27.7956C26.2933 68.6021 25.0752 69.8202 25.0752 71.3225V82.2043C25.0752 83.7066 26.2933 84.9247 27.7956 84.9247ZM30.5161 74.043H35.9569V79.4838H30.5161V74.043Z" fill="#222222"/>
<path d="M93.0863 14.1935H60.4411C58.9388 14.1935 57.7207 15.4116 57.7207 16.914V38.6774H63.1616V19.6344H90.3659V46.8387H63.1616V44.1183H57.7207V49.5591C57.7207 51.0615 58.9388 52.2796 60.4411 52.2796H93.0863C94.5886 52.2796 95.8067 51.0615 95.8067 49.5591V16.914C95.8067 15.4116 94.5886 14.1935 93.0863 14.1935Z" fill="#222222"/>
<path d="M82.2037 41.3978C83.7061 41.3978 84.9241 40.1798 84.9241 38.6774V27.7957C84.9241 26.2934 83.7061 25.0753 82.2037 25.0753H71.322C69.8196 25.0753 68.6016 26.2934 68.6016 27.7957V38.6774C68.6016 40.1798 69.8196 41.3978 71.322 41.3978H82.2037ZM74.0424 30.5161H79.4833V35.957H74.0424V30.5161Z" fill="#222222"/>
<path d="M63.1616 63.1613H71.3229V57.7204H60.4411C58.9388 57.7204 57.7207 58.9385 57.7207 60.4408V71.3226H63.1616V63.1613Z" fill="#222222"/>
<path d="M76.7637 74.043H60.4411C58.9388 74.043 57.7207 75.2611 57.7207 76.7634V93.086C57.7207 94.5883 58.9388 95.8064 60.4411 95.8064H76.7637C78.266 95.8064 79.4841 94.5883 79.4841 93.086V76.7634C79.4841 75.2611 78.266 74.043 76.7637 74.043ZM74.0433 90.3656H63.1616V79.4839H74.0433V90.3656Z" fill="#222222"/>
<path d="M93.0872 57.7204H76.7646V63.1613H90.3668V68.6021H95.8077V60.4408C95.8077 58.9385 94.5896 57.7204 93.0872 57.7204Z" fill="#222222"/>
<path d="M93.0858 71.3226H84.9245V76.7634H90.3654V90.3656H82.2041V95.8064H93.0858C94.5882 95.8064 95.8062 94.5884 95.8062 93.086V74.043C95.8062 72.5407 94.5882 71.3226 93.0858 71.3226Z" fill="#222222"/>
<path d="M68.6016 65.8817H82.2037V71.3226H68.6016V65.8817Z" fill="#222222"/>
</svg>
