<svg width="39" height="39" viewBox="0 0 39 39" fill="none" xmlns="http://www.w3.org/2000/svg">
<path d="M16.7183 0H1.28602C0.575821 0 0 0.575821 0 1.28602V16.7183C0 17.4285 0.575821 18.0043 1.28602 18.0043H16.7183C17.4285 18.0043 18.0043 17.4285 18.0043 16.7183V1.28602C18.0043 0.575821 17.4285 0 16.7183 0ZM15.4323 15.4323H2.57204V2.57204H15.4323V15.4323Z" fill="currentColor"/>
<path d="M6.43055 12.8603H11.5746C12.2848 12.8603 12.8607 12.2845 12.8607 11.5743V6.43019C12.8607 5.71999 12.2848 5.14417 11.5746 5.14417H6.43055C5.72035 5.14417 5.14453 5.71999 5.14453 6.43019V11.5743C5.14453 12.2845 5.72035 12.8603 6.43055 12.8603ZM7.71657 7.71621H10.2886V10.2882H7.71657V7.71621Z" fill="currentColor"/>
<path d="M16.7183 20.5763H1.28602C0.575821 20.5763 0 21.1521 0 21.8623V37.2946C0 38.0048 0.575821 38.5806 1.28602 38.5806H16.7183C17.4285 38.5806 18.0043 38.0048 18.0043 37.2946V21.8623C18.0043 21.1521 17.4285 20.5763 16.7183 20.5763ZM15.4323 36.0085H2.57204V23.1483H15.4323V36.0085Z" fill="currentColor"/>
<path d="M6.43055 33.4366H11.5746C12.2848 33.4366 12.8607 32.8608 12.8607 32.1506V27.0065C12.8607 26.2963 12.2848 25.7205 11.5746 25.7205H6.43055C5.72035 25.7205 5.14453 26.2963 5.14453 27.0065V32.1506C5.14453 32.8608 5.72035 33.4366 6.43055 33.4366ZM7.71657 28.2925H10.2886V30.8645H7.71657V28.2925Z" fill="currentColor"/>
<path d="M37.2949 0H21.8627C21.1525 0 20.5767 0.575821 20.5767 1.28602V11.5742H23.1487V2.57204H36.0089V15.4323H23.1487V14.1462H20.5767V16.7183C20.5767 17.4285 21.1525 18.0043 21.8627 18.0043H37.2949C38.0051 18.0043 38.581 17.4285 38.581 16.7183V1.28602C38.581 0.575821 38.0051 0 37.2949 0Z" fill="currentColor"/>
<path d="M32.1503 12.8603C32.8605 12.8603 33.4363 12.2845 33.4363 11.5743V6.43019C33.4363 5.71999 32.8605 5.14417 32.1503 5.14417H27.0062C26.296 5.14417 25.7202 5.71999 25.7202 6.43019V11.5743C25.7202 12.2845 26.296 12.8603 27.0062 12.8603H32.1503ZM28.2923 7.71621H30.8643V10.2882H28.2923V7.71621Z" fill="currentColor"/>
<path d="M23.1487 23.1483H27.0068V20.5763H21.8627C21.1525 20.5763 20.5767 21.1521 20.5767 21.8623V27.0064H23.1487V23.1483Z" fill="currentColor"/>
<path d="M29.5788 28.2924H21.8627C21.1525 28.2924 20.5767 28.8682 20.5767 29.5784V37.2945C20.5767 38.0047 21.1525 38.5805 21.8627 38.5805H29.5788C30.289 38.5805 30.8648 38.0047 30.8648 37.2945V29.5784C30.8648 28.8682 30.289 28.2924 29.5788 28.2924ZM28.2928 36.0085H23.1487V30.8644H28.2928V36.0085Z" fill="currentColor"/>
<path d="M37.2957 20.5763H29.5796V23.1483H36.0097V25.7204H38.5817V21.8623C38.5817 21.1521 38.0059 20.5763 37.2957 20.5763Z" fill="currentColor"/>
<path d="M37.2947 27.0066H33.4367V29.5786H36.0087V36.0087H32.1506V38.5808H37.2947C38.0049 38.5808 38.5807 38.005 38.5807 37.2948V28.2926C38.5807 27.5824 38.0049 27.0066 37.2947 27.0066Z" fill="currentColor"/>
<path d="M25.7202 24.4343H32.1503V27.0064H25.7202V24.4343Z" fill="currentColor"/>
</svg>
