<svg width="22" height="21" viewBox="0 0 22 21" fill="none" xmlns="http://www.w3.org/2000/svg">
<g clip-path="url(#clip0)">
<path d="M1.60178 11.8723C1.24804 11.8723 0.960938 11.5841 0.960938 11.229V9.75219C0.960938 9.39713 1.24804 9.10896 1.60178 9.10896H9.09198C9.58671 9.10896 9.98916 8.70502 9.98916 8.20845V0.664709C9.98916 0.309649 10.2763 0.0214844 10.63 0.0214844H12.1475C12.5013 0.0214844 12.7884 0.309649 12.7884 0.664709V2.76677C12.7884 5.34481 12.7909 7.90227 12.7832 10.4597C12.7807 11.2522 12.2424 11.8542 11.5298 11.8594C10.0763 11.8697 8.53829 11.8748 6.54398 11.8748C5.59297 11.8748 1.60178 11.8723 1.60178 11.8723Z" fill="#43204C"/>
<path d="M10.6786 20.9999C10.3248 20.9999 10.0352 20.7117 10.0352 20.3567V18.8773C10.0352 18.5222 10.3223 18.234 10.676 18.234H18.1867C18.6814 18.234 19.0839 17.8301 19.0839 17.3335V9.7692C19.0839 9.41414 19.371 9.12598 19.7247 9.12598H21.2371C21.5909 9.12598 21.878 9.41414 21.878 9.7692V13.1114C21.878 15.18 21.878 17.2512 21.8754 19.3198C21.8728 20.4956 21.3704 20.9973 20.1887 20.9973H15.7387L10.6786 20.9999Z" fill="#43204C"/>
<path d="M1.58811 6.76415C1.23436 6.76415 0.947266 6.47599 0.947266 6.12093V0.643225C0.947266 0.288165 1.23436 0 1.58811 0H7.04555C7.39929 0 7.68639 0.288165 7.68639 0.643225V6.12093C7.68639 6.47599 7.39929 6.76415 7.04555 6.76415H1.58811ZM3.10563 1.77015C2.89287 1.77015 2.72113 1.94254 2.72113 2.15609V4.60806C2.72113 4.82161 2.89287 4.994 3.10563 4.994H5.54084C5.7536 4.994 5.92535 4.82161 5.92535 4.60806V2.15609C5.92535 1.94254 5.7536 1.77015 5.54084 1.77015H3.10563Z" fill="#43204C"/>
<path d="M15.7248 6.76415C15.3711 6.76415 15.084 6.47599 15.084 6.12093V0.643225C15.084 0.288165 15.3711 0 15.7248 0H21.1848C21.5386 0 21.8257 0.288165 21.8257 0.643225V6.12093C21.8257 6.47599 21.5386 6.76415 21.1848 6.76415H15.7248ZM17.2423 1.78816C17.0296 1.78816 16.8578 1.96055 16.8578 2.1741V4.61578C16.8578 4.82933 17.0296 5.00171 17.2423 5.00171H19.6827C19.8954 5.00171 20.0672 4.82933 20.0672 4.61578V2.1741C20.0672 1.96055 19.8954 1.78816 19.6827 1.78816H17.2423Z" fill="#43204C"/>
<path d="M1.60374 20.9513C1.24999 20.9513 0.962891 20.6631 0.962891 20.3081V14.8278C0.962891 14.4727 1.24999 14.1846 1.60374 14.1846H7.0663C7.42005 14.1846 7.70715 14.4727 7.70715 14.8278V20.3081C7.70715 20.6631 7.42005 20.9513 7.0663 20.9513H1.60374ZM3.10331 15.9779C2.89055 15.9779 2.71881 16.1503 2.71881 16.3638V18.8055C2.71881 19.019 2.89055 19.1914 3.10331 19.1914H5.54365C5.75641 19.1914 5.92816 19.019 5.92816 18.8055V16.3638C5.92816 16.1503 5.75641 15.9779 5.54365 15.9779H3.10331Z" fill="#43204C"/>
<path d="M15.7307 11.8359C15.3769 11.8359 15.0898 11.5477 15.0898 11.1926V9.76725C15.0898 9.41219 15.3769 9.12402 15.7307 9.12402H17.1482C17.502 9.12402 17.7891 9.41219 17.7891 9.76725V11.1926C17.7891 11.5477 17.502 11.8359 17.1482 11.8359H15.7307Z" fill="#43204C"/>
<path d="M10.6936 16.8958C10.3398 16.8958 10.0527 16.6076 10.0527 16.2526V14.8297C10.0527 14.4747 10.3398 14.1865 10.6936 14.1865H12.1137C12.4674 14.1865 12.7545 14.4747 12.7545 14.8297V16.2526C12.7545 16.6076 12.4674 16.8958 12.1137 16.8958H10.6936Z" fill="#43204C"/>
<path d="M15.7229 16.8962C15.3691 16.8962 15.082 16.6081 15.082 16.253V14.8405C15.082 14.4854 15.3691 14.1973 15.7229 14.1973H17.1635C17.5172 14.1973 17.8043 14.4854 17.8043 14.8405V16.253C17.8043 16.6081 17.5172 16.8962 17.1635 16.8962H15.7229Z" fill="#43204C"/>
</g>
<defs>
<clipPath id="clip0">
<rect width="20.93" height="21" fill="white" transform="translate(0.947266)"/>
</clipPath>
</defs>
</svg>
