<svg width="124" height="59" viewBox="0 0 124 59" fill="none" xmlns="http://www.w3.org/2000/svg">
  <path d="M34.427 59.297c-1.681 1.391-3.925 2.097-6.34 1.935-3.817-.257-6.928-2.603-7.886-6.142l10.892.732.036.082 2.597.175c.074 1.129.314 2.21.701 3.218zM16.6 52.324a.632.632 0 01-.159-.16c.052.056.107.112.16.16z" stroke="#E0E0E0" stroke-width=".5" stroke-miterlimit="10"/>
  <path d="M8.676 51.395c.61.1 1.291.199 1.993.291a48.773 48.773 0 01-1.993-.29zm5.121.651c.43.043.837.084 1.206.123-.369-.035-.776-.077-1.206-.123z" fill="#4F92BF"/>
  <path d="M8.676 51.395c.61.1 1.291.199 1.993.291a48.773 48.773 0 01-1.993-.29zm5.121.651c.43.043.837.084 1.206.123-.369-.035-.776-.077-1.206-.123z" fill="#4F92BF"/>
  <path d="M62.333 54.094c-.076-.005-.112-.049-.144-.131-.293-1.28-.453-3.978-.383-7.309.005-.08.048-.16.162-.153.076.006.15.052.141.174-.07 3.33.058 5.943.351 7.223.033.082-.01.162-.09.195l-.037-.002v.003zm-.259-10.878c-.076-.005-.147-.09-.141-.173l.11-1.66c.412-6.156 1.205-10.66 1.613-12.829.006-.08.087-.158.16-.111.076.005.11.087.103.17-.405 2.128-1.198 6.632-1.61 12.787l-.11 1.66c.03.082-.049.16-.125.156zm29.488 14.061l-1.057-.07c-.076-.006-.146-.09-.14-.174.004-.08.086-.158.162-.153l1.057.071c.076.005.147.09.141.173-.005.084-.087.158-.163.153zm-2.587-.174l-3.392-.228c-.076-.005-.146-.09-.14-.173.005-.08.086-.158.162-.153l3.392.228c.076.005.147.09.141.173-.005.083-.087.158-.163.153zm-4.905-.329l-23.29-1.565c-.076-.005-.147-.09-.141-.173.005-.08.086-.158.162-.153l23.293 1.565c.075.005.146.09.14.173-.005.083-.086.158-.162.153z" fill="#ACC2C0"/>
  <path opacity=".2" d="M11.094 37.266c-.49-.032-1.017-.11-1.577-.186-3.152-.455-4.658-1.127-4.731-1.17-.073-.047-.106-.13-.063-.206.044-.078.122-.114.196-.067 0 0 1.544.674 4.657 1.127.824.136 1.615.189 2.336.199.076.005.15.052.141.173-.005.08-.049.16-.163.153a6.825 6.825 0 01-.796-.023z" fill="#292955"/>
  <path d="M72.876 26.57c-.038.568-.234 1.206-.697 1.905a7.25 7.25 0 01-.736.846.891.891 0 01-.43.214c-.613.081-2.174.22-3.66-.165-1.152-.321-1.624-1.21-1.802-1.91-.033-.083-.03-.125-.063-.207.322.265 1.403 1.07 3.447 1.126 1.697.034 3.174-1.088 3.94-1.81z" stroke="#E0E0E0" stroke-width=".5" stroke-miterlimit="10"/>
  <path opacity=".1" d="M58.852 19.444c-.038-.002-.11-.049-.146-.09a.206.206 0 01.019-.284c.322-.302.647-.607.931-.912a.174.174 0 01.263.018.206.206 0 01-.02.284c-.321.302-.65.649-.972.951.042 0 .001.038-.075.033zm2.493-2.764c-.038-.002-.076-.005-.112-.049-.07-.084-.1-.208-.019-.287.415-.543.791-1.085 1.133-1.633.043-.077.16-.11.268-.062.073.047.103.17.057.29-.341.586-.759 1.129-1.135 1.67-.044.081-.116.077-.192.071zm-2.425-.57c-.038-.002-.076-.004-.111-.049-.074-.046-.101-.208-.057-.289a30.391 30.391 0 001.44-2.302c.044-.077.16-.11.268-.062.073.047.103.17.057.29a29.741 29.741 0 01-1.44 2.301c-.043.12-.081.117-.157.112zm13.754-4.646c-.605.53-1.287 1.136-2.01 1.738 3.9-6.248-5.555-4.115-6.133-3.99 1.797-.816 3.49-1.232 5.013-1.902 0 0 .38-.016.948-.017l.038.003c.3.02 3.623.202 3.037 2.686a3.136 3.136 0 01-.893 1.482zm8.393 12.644c-.038-.002-.076-.005-.11-.049-.072-.085-.063-.206-.02-.287l4.616-5.061a.225.225 0 01.265-.024c.071.084.063.206.02.287l-4.617 5.061c-.04.04-.12.076-.154.073zm6.945-7.628c-.038-.002-.076-.005-.111-.049-.07-.085-.063-.206-.02-.286l1.35-1.497a.224.224 0 01.265-.024c.07.085.063.206.02.287l-1.35 1.496a.26.26 0 01-.154.074zm-3.754 8.615c-.038-.002-.076-.005-.112-.049-.07-.085-.062-.206-.019-.287l.407-.422a.225.225 0 01.265-.023c.07.084.063.206.02.286l-.407.422c-.04.081-.078.078-.154.073zm1.099-1.185c-.038-.003-.076-.006-.111-.05-.071-.085-.063-.206-.02-.287l.859-.959a.225.225 0 01.265-.024c.071.085.063.207.02.287l-.86.959c-.037.04-.115.076-.153.073zm1.677-1.842c-.038-.002-.076-.005-.112-.049-.07-.085-.062-.206-.019-.287l2.533-2.799a.225.225 0 01.265-.024c.073.047.063.206.019.287l-2.536 2.799c-.037.081-.112.076-.15.073zm4.943-5.443c-.038-.003-.076-.005-.111-.05-.07-.084-.063-.205-.019-.286l.615-.69a.225.225 0 01.265-.024c.071.085.063.207.02.287l-.616.69c-.078.078-.116.076-.154.073zm6.633 8.662c-.038-.003-.076-.005-.11-.05-.072-.084-.064-.205-.02-.286l4.616-5.062a.224.224 0 01.265-.024c.071.085.063.207.019.287l-4.616 5.062c-.037.04-.116.076-.154.073zm6.947-7.627c-.038-.003-.076-.006-.111-.05-.071-.085-.063-.206-.019-.287l1.349-1.497a.224.224 0 01.265-.024c.071.085.063.207.019.287l-1.349 1.497c-.037.04-.116.076-.154.073zm-3.756 8.614c-.038-.003-.076-.005-.112-.05-.07-.084-.062-.205-.019-.286l.407-.422a.224.224 0 01.265-.024c.071.085.063.206.019.287l-.406.422c-.044.08-.082.078-.154.073zm1.101-1.186c-.038-.003-.076-.005-.112-.05-.07-.084-.062-.205-.019-.286l.859-.959a.224.224 0 01.265-.024c.071.085.063.206.019.287l-.858.959c-.038.039-.116.075-.154.073zm1.676-1.841c-.038-.002-.076-.005-.111-.05-.07-.084-.062-.205-.019-.286l2.533-2.8a.224.224 0 01.265-.023c.073.046.062.206.019.287l-2.536 2.799c-.04.08-.116.076-.151.073zm4.944-5.443c-.038-.003-.076-.005-.111-.05-.071-.084-.063-.206-.019-.286l.615-.69a.225.225 0 01.265-.024c.071.085.063.206.019.287l-.615.69c-.078.078-.116.075-.154.073z" fill="#75B5E0"/>
  <path d="M68.912 15.824c-.028-.002-.078-.033-.103-.066a.15.15 0 01.013-.201c.03-.026 2.864-2.318 5.914-4.188.056-.055.137-.018.185.04.048.063.018.144-.041.2-3.05 1.87-5.86 4.163-5.89 4.189.003 0-.023.03-.078.026z" fill="#ACC2C0"/>
  <path opacity=".1" d="M24.039 37.85c-1.352.397-3.506.903-4.533.956 0 0-1.295.115-2.238.052-.94-.105-1.907-.33-2.528-1.27a2.619 2.619 0 01-.273-.426c-.58-.934-.101-1.35.874-1.773 1.485-.673 3.121-1.377 4.52-1.893.045 1.598.897 3.608 4.178 4.354z" fill="#ACC2C0"/>
  <path d="M94.344 30.11l-.926 13.867m31.049-3.612a122.585 122.585 0 00-.626 3.554m-.136-13.301s2.095 2.3 1.082 8.063M30.223 35.38a41.296 41.296 0 01-5.492 2.278 7.021 7.021 0 01-.694.197c-1.351.396-3.505.903-4.532.956 0 0-1.295.114-2.238.051-.94-.105-1.907-.33-2.528-1.27a2.612 2.612 0 01-.274-.425c-.58-.934-.1-1.351.875-1.773 1.485-.673 3.121-1.378 4.519-1.893a15.28 15.28 0 011.859-.606c2.505-.685 4.253-.202 5.343-.049a7.46 7.46 0 013.28 1.32c.4.271.35 1.003-.118 1.215zm27.619 20.732c-.04.603-.124 1.189-.249 1.755-1.242 5.664-6.519 9.345-12.581 8.938-4.936-.332-8.995-3.306-10.588-7.508a10.952 10.952 0 01-.702-3.218 11.35 11.35 0 01-.001-1.588l.043-.648a11.888 11.888 0 012.478-5.982 12.075 12.075 0 0110.302-4.589c6.425.432 11.368 5.809 11.262 12.186.066.21.052.411.036.654z" stroke="#E0E0E0" stroke-width=".5" stroke-miterlimit="10"/>
  <path d="M51.744 55.702c-.22 3.292-3.047 5.675-6.353 5.453-3.302-.222-5.785-3-5.568-6.254a5.879 5.879 0 011.18-3.166 5.967 5.967 0 015.174-2.364 5.957 5.957 0 014.829 3.04c.542.966.818 2.095.738 3.29zm77.635 5.212c-.443 6.644-6.16 11.141-12.826 10.693-4.937-.331-8.999-3.306-10.592-7.507a11.224 11.224 0 01-.688-3.009 11.696 11.696 0 01-.015-1.797l.043-.648c.74-6.297 6.355-11.002 12.78-10.57a12.081 12.081 0 0110.525 7.84c.33.882.555 1.812.665 2.777.039.347.064.704.075 1.06l.017.318.026.44c.008.13 0 .258-.01.403z" stroke="#E0E0E0" stroke-width=".5" stroke-miterlimit="10"/>
  <path d="M123.28 60.508c-.219 3.293-3.05 5.675-6.352 5.454-3.303-.222-5.789-3-5.572-6.255a5.884 5.884 0 011.183-3.165 5.961 5.961 0 015.175-2.364 5.957 5.957 0 014.828 3.04 5.88 5.88 0 01.738 3.29z" stroke="#E0E0E0" stroke-width=".5" stroke-miterlimit="10"/>
  <path opacity=".2" d="M89.546 54.743c-6.072-.366-14.138-.908-21.478-2.136-.488-.074-.518-.765-.052-.94 2.677-.958 9.255-2.51 22.022-1.49 7.479.701 11.902 3.101 11.902 3.101s-3.337 1.966-12.394 1.465z" fill="#ACC2C0"/>
  <path d="M72.88 26.57l-.003.041c-.044.558-.242 1.182-.694 1.865a7.243 7.243 0 01-.736.845.874.874 0 01-.434.215c-.61.08-2.17.223-3.66-.163-1.152-.32-1.623-1.209-1.802-1.91-.032-.086-.03-.124-.062-.21-.093-.33-.077-.572-.077-.572l-.753-.05c-.266-.019-.436-.277-.38-.555l.29-1.527a.502.502 0 01.404-.38l1.182-.084s.142-.158.498-.35c.385-.203 1.015-.436 1.983-.542 1.26-.159 2.585-.15 3.149.497.273.426 1.19 1.462 1.095 2.88zm15.563 7.879l-5.73-.385c-.377-.026-.656-.368-.629-.774.027-.405.35-.707.726-.682l5.73.385c.377.025.656.368.629.773-.027.406-.35.708-.726.683zm33.317 2.238l-5.731-.385c-.376-.025-.655-.368-.628-.773.027-.406.349-.708.725-.683l5.731.385c.376.026.655.368.628.774-.027.405-.349.707-.725.682zm12.606-10.609c-2.744-.575-8.011-5.047-11.206-7.56-2.146-1.686-4.163-3.329-5.212-4.144a.44.44 0 01.18-.778c.296-.06.556-.057.885-.111 5.76 3.537 10.38 7.823 13.63 10.865.611.57 1.186 1.148 1.723 1.728zM97.297 10.96c9.077.732 14.951 4.583 19.053 8.358 2.5 2.319 4.793 5.384 6.332 7.649.863 1.266-.108 2.97-1.632 2.877l-.29-.016-24.463-1.643 1-17.225z" stroke="#E0E0E0" stroke-width=".5" stroke-miterlimit="10"/>
  <path d="M94.34 10.765l-1.3 17.2-20.163-1.354.003-.041c.095-1.418-.822-2.454-1.095-2.88-.564-.647-1.89-.656-3.149-.497-.968.105-1.598.338-1.983.542l-.054-.07s2.741-3.638 7.748-7.166c4.567-3.192 10.9-6.223 19.993-5.734zm-20.817-.709a2.98 2.98 0 01-.85 1.408c-.608.569-1.287 1.136-2.052 1.774-4.57 3.8-10.656 8.234-12.604 9.607-.835.595-1.737 1.064-2.702 1.323-.58.163-1.267.28-1.944.235-2.035-.137-12.407-1.321-14.807-2.784 0 0 14.607-7.277 25.926-12.376 1.796-.815 3.49-1.23 5.012-1.901 0 0 .38-.017.948-.017l.038.003c.341-.016 3.698.168 3.035 2.728z" stroke="#E0E0E0" stroke-width=".5" stroke-miterlimit="10"/>
  <path d="M27.982 33.044c3.534-1.643 7.92-3.256 12.059-4.081l15.809-3.13c1.725-.33 4.082-1.066 5.45-2.276 2.533-2.19 7.303-6.183 12.082-9.685 9.71-8.218 30.143-4.892 36.619-2.219 13.349 5.507 21.585 14.986 27.363 21.62a8.59 8.59 0 011.351 2.117M3.04 42.71l.344-4.005c1.393.132 3.506.803 4.944 1.349 2.433.974 3.67 3.46 4.891 3.865 1.222.41 2.74.39 3.729-.236.916-.58 1.696-2.905 2.965-4.912" stroke="#E0E0E0" stroke-width=".5" stroke-miterlimit="10"/>
  <path opacity=".2" d="M33.158 41.353c2.834-2.17 10.235-6.432 20.366-2.21.22.094.393-.218.217-.394-3.428-2.548-12.941-8.068-20.864 2.3-.128.196.08.454.281.304z" fill="#ACC2C0"/>
  <path d="M9.914 47.399c-.836-.116-1.73-.231-2.615-.378-2.835-.42-4.94-2.1-5.164-2.286l.593-.663c.16-.153.252-.39.268-.633l.046-.69c.94.105 2.195.597 2.663.952 1.079.845.943 1.73 3.133 2.978.413.209.783.474 1.076.72z" stroke="#E0E0E0" stroke-width=".5" stroke-miterlimit="10"/>
  <path opacity=".2" d="M51.007 52.411c-1.374-.322-3.022-.582-4.984-.714-1.955-.131-3.62-.097-5.02.039a5.966 5.966 0 015.175-2.364 5.957 5.957 0 014.829 3.04z" fill="#ACC2C0"/>
  <path d="M23.457 28.987c-3.465.296-5.07-.055-5.557-.697.623-.244 1.24-.446 1.902-.687 7.52-2.628 12.64-4.48 15.767-5.367-.016.242-.035.527.028.733.56 1.785-.601 5-12.14 6.018zM69.43 7.299c.571-.613 3.17-.964 7.472-1.33 10.978-.933 17.396.167 26.351 1.38 3.084.42 6.116 1.463 8.825 2.575 2.462 1.011 4.778 2.235 6.934 3.56 5.76 3.538 10.38 7.824 13.63 10.866.61.57 1.186 1.148 1.723 1.727 2.752 2.96 4.608 6.026 5.667 8.99l-.001.004c.921 2.579.546 5.032.324 7.322a11.76 11.76 0 01-.09.67c-.038.258-.086.512-.127.764" stroke="#E0E0E0" stroke-width=".5" stroke-miterlimit="10"/>
  <path opacity=".2" d="M107.947 46.377c2.834-2.17 10.235-6.431 20.366-2.21.219.094.393-.218.217-.393-3.428-2.549-12.941-8.069-20.864 2.299-.128.197.081.454.281.304z" fill="#ACC2C0"/>
  <path d="M103.555 59.942c-.014-.51-.021-1.188.021-1.98.266-5.277 3.746-13.645 15.669-12.576 3.015.272 5.42 1.464 7.291 2.947 3.847 3.044 5.439 7.311 5.439 7.311" stroke="#E0E0E0" stroke-width=".5" stroke-miterlimit="10"/>
  <path opacity=".2" d="M122.542 57.217c-1.373-.322-3.022-.582-4.984-.714-1.955-.131-3.619-.097-5.019.039a5.961 5.961 0 015.175-2.365 5.957 5.957 0 014.828 3.04z" fill="#ACC2C0"/>
  <path d="M4.723 35.7s3.058 1.375 7.326 1.429" stroke="#E0E0E0" stroke-width=".5" stroke-miterlimit="10"/>
  <path opacity=".1" d="M92.273 34.34c-3.882-.26-9.726-.611-13.875-.89-5.993-.402-19.862-1.334-30.36-.045-.304.022-.388-.433-.08-.534 4.7-1.23 15.267-2.96 35.13-1.626 3.616.285 6.819.5 9.607.725 0 0 29.214 2.405 35.106 4.803L92.273 34.34z" fill="#ACC2C0"/>
  <path d="M31.375 53.888c-.001.014-.002.028-.006.038h.003l-.01.163c-.188 1.087-.195 1.776-.195 1.776L12.32 54.6a34.772 34.772 0 01-2.178-.226c-.266-.018-.525-.077-.789-.133-.484-.075-.97-.187-1.416-.3-.226-.054-.447-.111-.673-.168-.815-.257-1.517-.51-2.14-.795-.184-.092-.369-.188-.553-.239l-.038-.002c-.184-.096-.327-.186-.474-.276a10.251 10.251 0 01-.872-.55 3.105 3.105 0 01-.36-.267 8.375 8.375 0 01-.716-.616 2.24 2.24 0 01-.452-.601c-.033-.082-.068-.127-.101-.209a2.56 2.56 0 01-.154-1.069l.232-3.483c.02-.284.152-.56.314-.752l.166-.194s2.183 1.856 5.183 2.301c2.958.485 5.977.646 6.743 1.634.68.84 1.422 2.407 2.31 3.41.025.03.051.056.073.081l.017.019c.028.044.08.103.159.16.02.016.036.034.055.053.145.124.34.273.595.398a3.06 3.06 0 001.3.373c.93.063 5.329.177 8.963.41.15-.02.356-.027.629-.01 1.956.17 3.88-2.548 3.88-2.548a28.067 28.067 0 00-.648 2.888z" stroke="#E0E0E0" stroke-width=".5" stroke-miterlimit="10"/>
  <path d="M16.601 52.324c-1.165-.12-6.85-.623-9.272-1.19-2.942-.727-4.82-2.117-5.847-3.16l.154-2.309c.02-.284.152-.56.314-.752l.166-.194s2.183 1.856 5.183 2.301c2.958.485 5.977.646 6.743 1.634.744.917 1.562 2.705 2.559 3.67z" stroke="#E0E0E0" stroke-width=".5" stroke-miterlimit="10"/>
  <path d="M103.575 57.966c-.042.79-.035 1.47-.021 1.98.021.526.049.876.062.992.002.028.005.042.005.042l-43.673-2.976-.038-.002.002-.042c.034-.19.11-.863.127-1.847l.003-.351c.003-.825-.038-1.83-.166-2.929l-.007-.05v-.002c-.558-4.832-2.927-11.46-11.441-12.759-.114-.008-.264-.06-.374-.067-.152-.01-.304-.02-.412-.07l-1.51-.1c-.186-.013-.414-.029-.641-.002-.152-.01-.304-.02-.456.011-.417.014-.834.024-1.22.082-.112.03-.264.02-.381.054-.11-.007-.227.027-.344.057-.19.03-.344.06-.537.086-.151.032-.306.063-.46.09-.192.072-.385.097-.577.168-.117.033-.271.061-.385.095-1.124.37-2.102.834-2.975 1.426-.116.076-.197.15-.314.185-.355.22-.674.484-.959.746-.12.076-.2.192-.281.267-.082.078-.163.153-.285.266-.16.153-.322.306-.447.458-.119.114-.203.23-.328.385 0 0-.04.039-.043.08-.122.114-.205.269-.328.383-.127.196-.286.35-.414.543-.084.116-.17.274-.255.39-.04.039-.08.116-.121.155-.171.27-.342.545-.512.86-.26.47-.52.982-.743 1.455-.002.041-.043.077-.043.077-.049.16-.132.318-.178.437-.05.16-.133.276-.182.437-.046.118-.095.275-.141.394-.046.119-.093.241-.136.318-.14.436-.284.876-.425 1.274a27.897 27.897 0 00-.647 2.884c-.01.163-.057.282-.068.445-.013.2-.061.403-.072.562l-.025.368-.005.08-.005.079-.03.447-18.846-1.266a21.5 21.5 0 01-1.656-.153c-.19-.013-.339-.065-.525-.077l-.114-.008c-.152-.01-.336-.06-.488-.07a.364.364 0 01-.184-.055c-.114-.008-.19-.013-.263-.06-.412-.065-.783-.174-1.12-.235a.992.992 0 01-.332-.106c-.076-.005-.15-.048-.226-.053l-.11-.008c-.559-.159-1.076-.357-1.559-.512-.11-.049-.219-.098-.33-.144-.111-.049-.185-.096-.293-.141-.11-.05-.184-.096-.295-.142-.07-.046-.181-.095-.255-.142l-.038-.003a5.414 5.414 0 01-.474-.275c-.073-.044-.143-.09-.216-.137-.074-.043-.147-.09-.22-.136-.143-.09-.29-.18-.399-.27-.143-.09-.251-.181-.36-.269a8.178 8.178 0 01-.715-.619c-.073-.043-.144-.131-.18-.172-.07-.046-.102-.129-.172-.217-.036-.04-.068-.126-.104-.167l-.035-.044c.003-.042-.032-.086-.068-.127.003-.041-.032-.085-.03-.123-.031-.044-.026-.124-.061-.168-.103-.17-.122-.457-.1-.78l.232-3.483c.019-.284.152-.56.313-.752l.166-.19.615-.694c.16-.153.252-.39.268-.633l.046-.686.343-4.005.163-1.862c.092-.808.444-1.558 1.045-2.046 1.761-1.428 5.16-3.598 13.234-6.554.621-.202 1.241-.446 1.902-.687 7.518-2.628 12.641-4.48 15.768-5.367a103.18 103.18 0 012.506-.689" stroke="#E0E0E0" stroke-width=".5" stroke-miterlimit="10"/>
  <path d="M129.186 62.318l-.016.086L9.383 54.356l.006-.087 119.797 8.049zm10.418-3.993c-.005.03-.014.058-.019.086L1.397 49.127l.005-.087 138.202 9.285zm-.895-4.749l-.016.086L2.256 44.496l.071-.082 136.382 9.162zm.714-4.646c-.002.032-.008.06-.009.087L3.277 39.87l.01-.087 136.136 9.147zm.627-4.647c-.001.028-.007.056-.012.087L4.119 35.238l.058-.083 135.873 9.128zm.543-4.656c-.002.028-.001.06-.006.087L10.924 31.003l.021-.01.005-.076 129.643 8.71zm-.574-4.644L21.141 26.995c.07-.023.138-.047.21-.073l118.636 7.97a.808.808 0 01.032.09zm-2.43-4.853l-105.12-7.062a4.81 4.81 0 01.223-.072L137.53 30.04a.77.77 0 01.06.091zm-4.04-4.964l-90.04-6.05c.051-.024.105-.048.159-.075l89.786 6.032c.033.033.062.063.095.093zm-5.524-5.061L52.014 15c.053-.024.107-.049.157-.077l75.742 5.089c.036.03.073.06.112.095zm-6.638-5.138L60.74 10.892l.165-.076 60.339 4.054c.05.031.097.062.143.097zM111.46 9.61L70.178 6.836a.773.773 0 00.103-.035l.003-.048L111.182 9.5c.091.037.186.071.278.109zm3.607.152l-.087-.006-.006.09.087.006.006-.09z" fill="#839593"/>
  <path d="M127.248 19.444l-3.364 50.406-.09.053 3.372-50.527c.026.023.056.046.082.068zm-6.105-4.644l-3.789 56.777a.711.711 0 01-.086-.003l3.793-56.828c.026.016.056.035.082.054zm-6.08-5.038l-.086-.006-.006.09.086.006.006-.09zm-.093 1.414l-3.92 58.742c-.026-.016-.056-.032-.083-.051l3.92-58.731c.027.012.057.025.083.04zm-6.241-2.564l-3.794 56.853-.086-.006 3.796-56.877c.027.009.057.018.084.03zm-6.319-1.437l-3.915 58.661c-.027-.005-.058-.01-.085-.02l3.914-58.654a.72.72 0 01.086.013zm-6.355-.852l-3.68 55.147a1.873 1.873 0 01-.078-.144L95.97 6.313c.027.002.055.004.086.01zm-6.371-.61l-3.605 54.008-.086-.006 3.605-54.007a.358.358 0 01.086.005zm-6.406-.145l-3.586 53.72-.086-.006 3.585-53.713h.087zm-6.434.345l-3.533 52.94-.086-.006 3.532-52.93.087-.004zm-6.473.846l-.086-.006-3.447 51.657.086.006L70.37 6.759zm-6.595 2.746L60.54 57.98l-.086-.005 3.232-48.43c.03-.016.061-.028.09-.04zm-6.62 3.057l-3.438 51.523c-.03.029-.059.051-.092.077l3.441-51.56c.029-.012.06-.028.09-.04zm-6.623 3.148L47.13 66.716c-.027.001-.055.006-.086.004l3.401-50.967.09-.043zm-6.627 3.214l-3.131 46.923-.086-.006 3.128-46.874c.029-.012.057-.028.09-.043zm-6.593 2.693l-2.562 38.39c-.028-.057-.051-.114-.075-.172l2.548-38.193.089-.025zm-6.547 2.023L28.26 61.177a.355.355 0 01-.086-.005l2.502-37.504c.029-.008.06-.02.089-.028zm-6.571 2.284L22.03 58.377c-.029-.03-.054-.063-.08-.093l2.158-32.328c.032-.012.06-.02.088-.032zm-6.566 2.326l-1.772 26.54-.085-.005 1.768-26.5.089-.035zm-6.594 2.673l-.086-.006-1.564 23.439.086.005 1.564-23.438zm-6.681 4.031l-1.122 16.82c-.004 0-.004-.004-.007-.004-.027-.016-.053-.035-.077-.05L4.26 35.06c.03-.037.06-.073.094-.106z" fill="#839593"/>
  <path opacity=".05" d="M138.537 54.755c.627-2.785 1.038-6.712 1.472-9.73l.001-.017c.014-.1.031-.2.044-.296l.129-.837c.041-.252.089-.506.127-.765.036-.22.068-.44.09-.67.222-2.289.597-4.742-.323-7.321v-.004c-1.058-2.964-2.915-6.03-5.667-8.99a33.822 33.822 0 00-1.723-1.727c-3.25-3.042-7.87-7.328-13.629-10.866-2.157-1.325-4.473-2.55-6.935-3.56-2.708-1.112-5.741-2.155-8.825-2.574-8.954-1.215-15.373-2.314-26.351-1.38-4.303.365-6.9.716-7.472 1.328l-4.94 1.945C53.218 14.39 38.61 21.666 38.61 21.666l-.562-.117s-.886.226-2.506.688c-3.126.886-8.25 2.739-15.767 5.367-.661.241-1.281.485-1.902.687C9.799 31.247 6.4 33.417 4.639 34.845c-.602.489-.953 1.238-1.046 2.046l-.162 1.862-.344 4.005-.045.686c-.017.243-.109.48-.268.633l-.615.694-.166.19a1.349 1.349 0 00-.314.752l-.232 3.483c-.022.323-.003.61.1.78.036.044.03.124.062.168-.002.038.033.082.03.124.035.04.07.084.068.126l.035.044c.036.04.068.127.104.167.07.089.103.17.172.217.036.041.106.13.18.172.179.176.428.398.715.62.109.087.217.178.36.267.109.091.255.181.398.27.074.047.147.094.22.137.074.047.143.094.217.137.146.093.293.183.474.275l.038.003c.073.047.185.096.254.142.112.046.185.093.296.142.108.046.181.092.293.142.111.045.219.094.33.144.482.154 1 .352 1.558.512l.111.007c.076.005.15.048.225.053a.994.994 0 00.333.107c.336.06.707.169 1.12.235.073.047.149.052.263.06.07.046.145.05.183.053.152.01.336.061.488.071l.114.008c.187.013.336.064.526.077.522.077 1.089.115 1.655.153l7.876.53c.957 3.538 4.07 5.885 7.886 6.141 2.415.162 4.658-.543 6.34-1.934 1.594 4.2 5.652 7.175 10.589 7.507 6.062.407 11.339-3.273 12.58-8.938.006-.024.008-.051.016-.075l2.306.172-.003.042.038.002 31.871 2.173c1.044 3.38 4.088 5.611 7.8 5.86 2.415.163 4.659-.54 6.341-1.934-.21-.553-.21-.553 0 0 1.593 4.201 5.656 7.176 10.592 7.507 6.666.448 12.383-4.048 12.826-10.692.008-.118.012-.226.012-.334l.726-.122c.916.417 2.36.886 4.305.961 2.654.102 4.181-.262 4.907-2.09.262-.65.418-1.482.489-2.55.061-1.016-.478-1.668-1.329-2.08z" fill="#ACC2C0"/>
</svg>
