<svg width="124" height="59" viewBox="0 0 124 59" fill="none" xmlns="http://www.w3.org/2000/svg">
  <path d="M34.127 59.298c-1.687 1.39-3.938 2.096-6.36 1.934-3.83-.256-6.953-2.603-7.913-6.142l10.927.732.037.082 2.606.175c.074 1.13.315 2.21.703 3.219zm-17.885-6.973a.637.637 0 01-.16-.16c.052.055.107.111.16.16z" stroke="#30F9E1" stroke-width=".5" stroke-miterlimit="10"/>
  <path d="M8.291 51.395c.613.1 1.296.199 2 .291a49.087 49.087 0 01-2-.29zm5.137.651c.432.043.84.084 1.21.123-.37-.035-.778-.077-1.21-.123z" fill="#4F92BF"/>
  <path d="M8.291 51.395c.613.1 1.296.199 2 .291a49.087 49.087 0 01-2-.29zm5.137.651c.432.043.84.084 1.21.123-.37-.035-.778-.077-1.21-.123z" fill="#4F92BF"/>
  <path d="M62.127 54.095c-.076-.005-.111-.05-.144-.132-.294-1.28-.454-3.978-.384-7.308.005-.08.049-.16.163-.153.076.005.15.052.142.173-.07 3.33.058 5.943.351 7.223.033.082-.01.163-.09.196l-.038-.003v.004zm-.261-10.879c-.076-.005-.147-.09-.141-.173l.11-1.66c.413-6.156 1.209-10.66 1.619-12.829.005-.08.087-.158.16-.111.077.005.11.087.104.17-.407 2.128-1.203 6.632-1.615 12.787l-.111 1.66c.029.082-.05.16-.126.156zm29.587 14.061l-1.06-.07c-.077-.006-.148-.09-.142-.174.005-.08.087-.158.163-.153l1.06.071c.077.005.148.09.142.173-.005.084-.087.158-.163.153zm-2.595-.174l-3.403-.227c-.076-.006-.147-.09-.142-.174.006-.08.087-.157.164-.152l3.403.228c.076.005.147.09.142.173-.006.083-.087.157-.164.152zm-4.92-.329l-23.37-1.565c-.076-.005-.147-.09-.141-.173.005-.08.087-.158.163-.153l23.37 1.565c.076.005.147.09.142.173-.006.083-.088.158-.164.153z" fill="#30F9E1"/>
  <path opacity=".2" d="M10.716 37.267c-.492-.033-1.02-.11-1.582-.186-3.161-.456-4.673-1.128-4.746-1.17-.074-.047-.107-.13-.063-.207.043-.077.122-.114.196-.067 0 0 1.55.675 4.673 1.128.826.135 1.62.188 2.343.198.077.005.15.052.142.173-.005.08-.049.16-.163.153a6.87 6.87 0 01-.8-.022z" fill="#292955"/>
  <path d="M72.705 26.57c-.038.568-.234 1.206-.699 1.906-.21.271-.456.579-.739.845a.895.895 0 01-.432.215c-.614.08-2.18.22-3.672-.166-1.155-.32-1.629-1.209-1.808-1.91-.033-.083-.03-.124-.063-.207.324.266 1.408 1.07 3.459 1.127 1.703.034 3.185-1.089 3.954-1.81z" stroke="#30F9E1" stroke-width=".5" stroke-miterlimit="10"/>
  <path opacity=".1" d="M58.634 19.444c-.038-.002-.112-.049-.147-.09a.206.206 0 01.019-.284c.323-.302.65-.607.935-.912a.175.175 0 01.263.018.206.206 0 01-.019.284c-.323.302-.653.649-.976.951.042 0 .001.038-.075.033zm2.502-2.763c-.038-.003-.076-.005-.112-.05-.07-.084-.1-.208-.019-.286a21.12 21.12 0 001.136-1.633c.044-.077.161-.111.27-.062.073.046.103.17.056.289-.342.586-.761 1.13-1.138 1.671-.044.081-.117.076-.193.071zm-2.433-.571c-.038-.002-.076-.004-.112-.049-.073-.046-.1-.208-.057-.289a30.372 30.372 0 001.446-2.302c.043-.077.16-.11.269-.062.073.047.103.17.057.29-.43.744-.9 1.527-1.446 2.301-.043.12-.08.117-.157.112zm13.798-4.646c-.606.53-1.29 1.136-2.017 1.738 3.914-6.248-5.573-4.115-6.152-3.99 1.802-.816 3.5-1.232 5.029-1.902 0 0 .38-.016.951-.017l.038.003c.302.02 3.636.202 3.048 2.686a3.132 3.132 0 01-.897 1.482zm8.423 12.645c-.038-.003-.076-.005-.112-.05-.07-.084-.062-.206-.019-.286l4.632-5.062a.226.226 0 01.266-.024c.07.085.063.206.02.287l-4.632 5.062c-.041.039-.12.075-.155.073zm6.967-7.628c-.038-.003-.076-.005-.111-.05-.071-.084-.063-.205-.02-.286l1.354-1.497a.226.226 0 01.266-.024c.071.085.063.206.02.287l-1.354 1.497c-.038.04-.117.076-.155.073zm-3.766 8.615c-.038-.003-.076-.005-.111-.05-.071-.084-.063-.206-.02-.286l.408-.422a.226.226 0 01.266-.024c.071.085.063.206.02.287l-.408.422c-.04.08-.079.078-.155.073zm1.103-1.186c-.038-.003-.076-.006-.111-.05-.072-.085-.063-.206-.02-.287l.862-.959a.226.226 0 01.266-.024c.07.085.063.207.02.287l-.862.959c-.038.04-.117.076-.155.073zm1.682-1.841c-.038-.003-.076-.005-.111-.05-.071-.084-.063-.205-.02-.286l2.541-2.8a.226.226 0 01.267-.023c.073.046.063.206.019.286l-2.544 2.8c-.037.08-.114.076-.152.073zm4.96-5.444c-.038-.002-.076-.005-.112-.049-.07-.085-.062-.206-.019-.287l.618-.69a.226.226 0 01.266-.023c.07.085.063.206.019.287l-.617.69c-.079.078-.117.075-.155.072zm6.656 8.662c-.038-.003-.077-.005-.112-.05-.07-.084-.063-.205-.02-.286l4.632-5.062a.227.227 0 01.267-.024c.07.085.062.207.019.287l-4.632 5.062c-.037.04-.116.076-.154.073zm6.969-7.627c-.038-.003-.077-.005-.112-.05-.071-.084-.063-.206-.019-.286l1.354-1.497a.225.225 0 01.266-.024c.071.085.062.206.019.287l-1.354 1.497a.264.264 0 01-.154.073zm-3.768 8.614c-.038-.002-.076-.005-.112-.049-.071-.085-.063-.206-.019-.287l.408-.421a.226.226 0 01.266-.024c.071.085.063.206.019.287l-.408.421c-.043.08-.081.078-.154.073zm1.105-1.186c-.039-.003-.077-.005-.112-.05-.071-.084-.063-.205-.019-.286l.861-.959a.227.227 0 01.267-.024c.07.085.062.206.019.287l-.862.959a.264.264 0 01-.154.073zm1.682-1.84c-.038-.003-.076-.006-.112-.05-.071-.084-.063-.206-.019-.286l2.541-2.8a.226.226 0 01.266-.024c.074.047.063.206.019.287l-2.544 2.8c-.04.08-.116.075-.151.073zm4.96-5.444c-.038-.002-.077-.005-.112-.049-.071-.085-.063-.206-.019-.287l.617-.69a.226.226 0 01.266-.023c.071.084.063.206.019.286l-.617.69c-.078.078-.116.076-.154.073z" fill="#75B5E0"/>
  <path d="M68.728 15.825c-.028-.002-.078-.034-.104-.067a.15.15 0 01.014-.2c.03-.027 2.874-2.318 5.934-4.188.055-.056.137-.019.185.04.048.062.018.144-.041.2-3.06 1.87-5.88 4.163-5.91 4.188.003 0-.023.03-.078.027z" fill="#30F9E1"/>
  <path opacity=".1" d="M23.704 37.85c-1.357.397-3.518.904-4.548.956 0 0-1.3.115-2.246.052-.943-.105-1.913-.33-2.536-1.27a2.616 2.616 0 01-.274-.426c-.582-.933-.101-1.35.877-1.772 1.49-.673 3.132-1.378 4.534-1.893.047 1.597.9 3.608 4.193 4.354z" fill="#30F9E1"/>
  <path d="M94.244 30.11l-.928 13.868m31.152-3.613a127.44 127.44 0 00-.628 3.554m-.135-13.301s2.102 2.3 1.086 8.063M29.91 35.38a41.515 41.515 0 01-5.51 2.278 7.058 7.058 0 01-.696.197c-1.356.396-3.517.903-4.548.956 0 0-1.3.114-2.245.051-.944-.105-1.914-.33-2.537-1.27a2.62 2.62 0 01-.274-.425c-.582-.934-.101-1.351.877-1.773 1.49-.673 3.132-1.378 4.535-1.893.7-.277 1.362-.48 1.864-.606 2.515-.685 4.268-.202 5.361-.049a7.498 7.498 0 013.293 1.32c.4.271.35 1.003-.12 1.215zm27.711 20.732c-.04.603-.125 1.189-.25 1.755-1.246 5.664-6.54 9.345-12.623 8.938-4.952-.332-9.025-3.306-10.623-7.508a10.92 10.92 0 01-.704-3.218 11.32 11.32 0 01-.002-1.588l.044-.648a11.867 11.867 0 012.486-5.982 12.132 12.132 0 0110.337-4.589c6.446.432 11.406 5.809 11.299 12.186.066.21.052.411.036.654z" stroke="#30F9E1" stroke-width=".5" stroke-miterlimit="10"/>
  <path d="M51.503 55.702c-.22 3.293-3.057 5.675-6.374 5.453-3.313-.222-5.804-3-5.587-6.254a5.867 5.867 0 011.184-3.165 5.995 5.995 0 015.192-2.364 5.979 5.979 0 014.844 3.04c.545.965.821 2.094.74 3.29zm77.894 5.212c-.445 6.644-6.181 11.141-12.87 10.693-4.953-.331-9.028-3.306-10.627-7.507a11.188 11.188 0 01-.69-3.009 11.696 11.696 0 01-.015-1.797l.043-.648c.742-6.297 6.377-11.002 12.823-10.57a12.116 12.116 0 0110.56 7.84c.331.882.557 1.812.667 2.777.039.347.064.704.075 1.06l.017.318.026.44c.009.13 0 .258-.009.403z" stroke="#30F9E1" stroke-width=".5" stroke-miterlimit="10"/>
  <path d="M123.278 60.508c-.221 3.293-3.061 5.675-6.374 5.454-3.313-.222-5.808-3-5.59-6.255a5.864 5.864 0 011.187-3.165 5.989 5.989 0 015.192-2.364 5.978 5.978 0 014.844 3.04c.545.966.821 2.095.741 3.29z" stroke="#30F9E1" stroke-width=".5" stroke-miterlimit="10"/>
  <path opacity=".2" d="M89.43 54.743c-6.092-.366-14.184-.908-21.549-2.136-.49-.074-.52-.765-.052-.94 2.686-.958 9.286-2.51 22.095-1.49 7.504.701 11.943 3.101 11.943 3.101s-3.349 1.966-12.437 1.465z" fill="#30F9E1"/>
  <path d="M72.709 26.57l-.003.041c-.045.558-.243 1.182-.696 1.865-.21.271-.457.579-.739.845a.878.878 0 01-.436.215c-.61.08-2.176.223-3.672-.163-1.155-.32-1.628-1.209-1.808-1.91-.032-.086-.03-.124-.062-.21-.093-.33-.077-.572-.077-.572l-.755-.05c-.267-.019-.438-.277-.381-.555l.29-1.527a.503.503 0 01.405-.38l1.186-.084s.143-.158.5-.35c.386-.203 1.018-.436 1.99-.542 1.264-.159 2.593-.15 3.159.497.274.426 1.193 1.462 1.099 2.88zm15.615 7.88l-5.75-.386c-.378-.025-.658-.368-.63-.773.027-.406.35-.708.727-.682l5.75.384c.378.026.658.368.63.774-.026.405-.35.707-.727.682zm33.428 2.237l-5.75-.385c-.378-.025-.658-.367-.631-.773.027-.405.35-.708.728-.682l5.75.385c.378.025.658.368.631.773-.028.406-.351.708-.728.682zM134.4 26.078c-2.753-.575-8.038-5.047-11.243-7.56-2.154-1.686-4.178-3.329-5.23-4.144a.44.44 0 01.181-.778c.296-.06.557-.057.888-.111 5.779 3.537 10.415 7.823 13.675 10.865.613.57 1.19 1.148 1.729 1.728zM97.207 10.96c9.107.732 15.001 4.583 19.117 8.358 2.508 2.319 4.809 5.384 6.353 7.649.866 1.266-.108 2.97-1.637 2.877l-.292-.016-24.545-1.643 1.004-17.225z" stroke="#30F9E1" stroke-width=".5" stroke-miterlimit="10"/>
  <path d="M94.24 10.765l-1.305 17.201-20.23-1.354.003-.042c.095-1.418-.824-2.454-1.099-2.88-.566-.647-1.895-.656-3.159-.497-.971.106-1.603.339-1.99.543l-.054-.07s2.75-3.639 7.774-7.166c4.583-3.192 10.937-6.224 20.06-5.735zm-20.885-.709a2.98 2.98 0 01-.853 1.408c-.61.569-1.291 1.136-2.058 1.774-4.586 3.8-10.693 8.234-12.647 9.607-.837.595-1.743 1.064-2.71 1.323-.582.163-1.272.28-1.952.235-2.041-.137-12.448-1.321-14.856-2.784 0 0 14.656-7.277 26.013-12.376 1.802-.815 3.5-1.23 5.029-1.901 0 0 .38-.017.951-.017l.038.003c.343-.016 3.71.168 3.045 2.728z" stroke="#30F9E1" stroke-width=".5" stroke-miterlimit="10"/>
  <path d="M27.66 33.044c3.547-1.643 7.947-3.256 12.1-4.081l15.862-3.13c1.731-.33 4.096-1.066 5.468-2.276 2.542-2.19 7.328-6.183 12.123-9.685 9.742-8.218 30.243-4.892 36.742-2.219 13.393 5.507 21.656 14.986 27.454 21.62a8.55 8.55 0 011.355 2.117M2.636 42.71l.345-4.005c1.398.132 3.518.803 4.961 1.35 2.442.974 3.682 3.46 4.908 3.865 1.226.41 2.748.39 3.74-.237.92-.579 1.703-2.904 2.976-4.911" stroke="#30F9E1" stroke-width=".5" stroke-miterlimit="10"/>
  <path opacity=".2" d="M32.855 41.353c2.844-2.17 10.27-6.431 20.434-2.21.22.094.394-.218.218-.393-3.44-2.549-12.985-8.069-20.934 2.299-.128.197.08.455.282.304z" fill="#30F9E1"/>
  <path d="M9.533 47.399c-.838-.116-1.735-.231-2.624-.378-2.844-.42-4.956-2.1-5.18-2.286l.594-.663c.16-.153.253-.39.269-.633l.046-.69c.944.105 2.202.597 2.673.952 1.082.845.946 1.73 3.142 2.978a5.71 5.71 0 011.08.72z" stroke="#30F9E1" stroke-width=".5" stroke-miterlimit="10"/>
  <path opacity=".2" d="M50.762 52.411c-1.378-.322-3.031-.582-5-.714-1.962-.131-3.631-.097-5.037.039a5.994 5.994 0 015.193-2.364 5.98 5.98 0 014.844 3.04z" fill="#30F9E1"/>
  <path d="M23.12 28.987c-3.477.296-5.086-.055-5.575-.697.625-.244 1.244-.446 1.908-.687 7.546-2.628 12.683-4.48 15.82-5.367-.016.242-.035.527.028.733.563 1.785-.603 5-12.18 6.018zM69.247 7.299c.574-.613 3.18-.964 7.497-1.33 11.015-.933 17.455.167 26.439 1.38 3.095.42 6.138 1.463 8.855 2.575 2.47 1.011 4.794 2.235 6.958 3.56 5.779 3.538 10.414 7.824 13.675 10.866.612.57 1.19 1.148 1.729 1.727 2.761 2.96 4.624 6.026 5.685 8.99v.004c.924 2.579.548 5.032.325 7.322a11.76 11.76 0 01-.09.67c-.039.258-.087.512-.128.764" stroke="#30F9E1" stroke-width=".5" stroke-miterlimit="10"/>
  <path opacity=".2" d="M107.894 46.378c2.844-2.17 10.269-6.432 20.434-2.21.22.094.394-.218.218-.394-3.44-2.549-12.985-8.069-20.934 2.3-.128.196.081.454.282.304z" fill="#30F9E1"/>
  <path d="M103.488 59.942c-.015-.51-.022-1.188.021-1.98.266-5.277 3.758-13.645 15.721-12.576 3.025.272 5.438 1.464 7.316 2.947 3.859 3.044 5.456 7.311 5.456 7.311" stroke="#30F9E1" stroke-width=".5" stroke-miterlimit="10"/>
  <path opacity=".2" d="M122.538 57.218c-1.378-.322-3.032-.583-5.001-.715-1.961-.13-3.631-.096-5.036.04a5.989 5.989 0 015.192-2.365 5.981 5.981 0 014.845 3.04z" fill="#30F9E1"/>
  <path d="M4.324 35.7s3.07 1.375 7.351 1.429" stroke="#30F9E1" stroke-width=".5" stroke-miterlimit="10"/>
  <path opacity=".1" d="M92.167 34.341c-3.895-.26-9.759-.612-13.921-.89-6.014-.403-19.929-1.335-30.463-.045-.304.021-.389-.434-.079-.535 4.716-1.23 15.318-2.96 35.246-1.626 3.63.285 6.843.5 9.64.726 0 0 29.313 2.405 35.224 4.802l-35.647-2.432z" fill="#30F9E1"/>
  <path d="M31.066 53.888c-.001.014-.002.028-.006.038h.003l-.01.163c-.188 1.088-.196 1.777-.196 1.777L11.947 54.6a35.082 35.082 0 01-2.185-.227c-.266-.018-.527-.077-.791-.133a15.264 15.264 0 01-1.422-.3c-.226-.054-.448-.11-.674-.167-.819-.257-1.522-.51-2.147-.795-.185-.093-.37-.189-.555-.24l-.038-.002c-.185-.096-.329-.185-.476-.275-.329-.186-.62-.37-.875-.55a3.113 3.113 0 01-.362-.268 8.395 8.395 0 01-.718-.615 2.24 2.24 0 01-.454-.602c-.033-.082-.068-.126-.1-.208a2.551 2.551 0 01-.155-1.07l.233-3.482c.019-.284.152-.56.315-.752l.166-.194s2.19 1.856 5.2 2.301c2.969.484 5.997.645 6.766 1.633.682.84 1.427 2.407 2.317 3.41.026.03.052.056.075.082l.016.018a.61.61 0 00.16.16c.02.016.036.035.055.053.145.125.34.274.597.399.329.185.774.337 1.305.373.932.062 5.346.177 8.992.41.151-.02.357-.028.631-.01 1.963.17 3.892-2.548 3.892-2.548a27.975 27.975 0 00-.649 2.887z" stroke="#30F9E1" stroke-width=".5" stroke-miterlimit="10"/>
  <path d="M16.243 52.325c-1.17-.12-6.873-.624-9.303-1.19-2.952-.727-4.837-2.117-5.867-3.161l.155-2.308c.019-.284.152-.56.315-.752l.166-.194s2.19 1.856 5.2 2.301c2.969.484 5.997.645 6.766 1.633.747.917 1.567 2.706 2.568 3.67z" stroke="#30F9E1" stroke-width=".5" stroke-miterlimit="10"/>
  <path d="M103.508 57.966a23.92 23.92 0 00-.021 1.98 15.998 15.998 0 00.066 1.035l-43.819-2.976-.038-.003.003-.041c.034-.19.11-.863.127-1.847l.003-.352c.003-.825-.038-1.83-.166-2.928l-.007-.05v-.003c-.56-4.831-2.937-11.459-11.48-12.759-.114-.007-.264-.059-.375-.066-.153-.01-.305-.02-.413-.07l-1.515-.101a3.533 3.533 0 00-.644-.002 1.669 1.669 0 00-.457.011c-.418.014-.837.025-1.224.082-.113.03-.266.02-.383.055-.11-.008-.228.026-.345.057-.19.029-.345.06-.538.085-.152.032-.307.063-.462.091-.193.071-.386.096-.579.167-.117.034-.272.062-.386.096-1.128.37-2.11.834-2.985 1.426-.116.076-.198.15-.315.184-.356.22-.676.484-.962.747-.12.075-.2.192-.283.267-.081.078-.163.152-.285.266-.16.153-.324.305-.449.457-.119.114-.203.23-.328.386 0 0-.041.039-.044.08-.123.114-.206.268-.329.382-.128.197-.288.35-.415.543-.085.116-.172.274-.256.39-.041.04-.081.117-.122.156-.171.27-.343.544-.514.86-.261.47-.522.982-.745 1.454-.002.042-.043.077-.043.077-.05.16-.133.319-.18.437-.048.16-.133.277-.182.437-.046.119-.095.276-.14.395-.047.118-.094.24-.137.318-.14.436-.285.875-.426 1.273a27.808 27.808 0 00-.65 2.885c-.01.163-.057.281-.068.444-.013.201-.061.403-.072.563l-.025.367-.005.08-.005.08-.03.447-18.91-1.267a21.72 21.72 0 01-1.66-.153c-.191-.012-.341-.064-.528-.077l-.115-.007c-.152-.01-.337-.061-.49-.071a.366.366 0 01-.184-.054c-.114-.008-.19-.013-.264-.06-.413-.066-.785-.174-1.122-.235a.998.998 0 01-.334-.106c-.077-.005-.15-.049-.227-.054l-.11-.007c-.56-.16-1.08-.358-1.564-.512-.112-.05-.22-.098-.332-.144-.111-.05-.185-.096-.293-.142-.112-.049-.185-.096-.297-.141-.07-.047-.182-.096-.255-.143l-.038-.002a5.461 5.461 0 01-.476-.276c-.074-.043-.144-.09-.217-.136a7.248 7.248 0 01-.22-.137c-.144-.09-.292-.18-.4-.27-.144-.09-.253-.18-.362-.268a8.198 8.198 0 01-.717-.62c-.074-.042-.145-.13-.18-.171-.07-.047-.103-.13-.174-.217-.035-.041-.068-.127-.104-.167l-.035-.045c.003-.041-.032-.085-.068-.126.003-.042-.033-.086-.03-.124-.032-.044-.027-.123-.062-.168-.103-.17-.122-.457-.1-.78l.232-3.483c.02-.284.153-.56.315-.751l.166-.191.618-.693c.16-.153.252-.39.268-.633l.046-.686.345-4.005.163-1.862c.092-.809.445-1.558 1.05-2.047C5.96 33.37 9.371 31.2 17.471 28.243c.623-.202 1.245-.446 1.909-.687 7.542-2.628 12.683-4.48 15.82-5.367 1.625-.462 2.514-.688 2.514-.688" stroke="#30F9E1" stroke-width=".5" stroke-miterlimit="10"/>
  <path d="M129.204 62.318l-.016.086L9 54.357l.006-.087 120.198 8.048zm10.452-3.993c-.005.031-.014.059-.019.086L.987 49.127l.005-.087 138.664 9.285zm-.897-4.749l-.016.086L1.85 44.496l.071-.082 136.838 9.162zm.715-4.645c-.002.031-.008.059-.009.086L2.873 39.871l.01-.086 136.591 9.146zm.631-4.647c-.002.028-.008.055-.013.086L3.719 35.239c.02-.03.038-.057.058-.084l136.328 9.129zm.542-4.657c-.002.028 0 .06-.005.087L10.545 31.003l.021-.01.006-.076 130.075 8.71zm-.574-4.644L20.797 26.996c.071-.023.139-.046.21-.073l119.034 7.97c.012.03.024.062.032.09zm-2.439-4.853L32.162 23.068c.075-.026.15-.05.224-.072l105.188 7.043a.93.93 0 01.06.091zm-4.054-4.964l-90.34-6.05.159-.075 90.087 6.032c.032.033.062.063.094.093zm-5.541-5.061L51.774 15c.053-.024.107-.049.158-.077l75.995 5.089.112.095zm-6.66-5.138l-60.85-4.075.166-.076 60.541 4.054c.05.031.096.062.143.097zm-9.961-5.357l-41.42-2.773a.781.781 0 00.103-.035l.003-.049 41.036 2.748c.091.037.186.072.278.11zm3.62.152l-.087-.006-.006.09.087.006.006-.09z" fill="#30F9E1"/>
  <path d="M127.258 19.444l-3.375 50.407c-.033.019-.061.034-.091.053l3.384-50.528c.026.023.056.046.082.068zm-6.124-4.644l-3.802 56.778a.814.814 0 01-.086-.003l3.805-56.829a.944.944 0 01.083.054zm-6.1-5.038l-.087-.006-.006.09.087.006.006-.09zm-.094 1.414l-3.934 58.742c-.026-.016-.057-.032-.083-.05l3.932-58.733c.027.013.058.025.085.04zm-6.261-2.564l-3.807 56.853-.087-.005 3.809-56.878c.027.009.058.018.085.03zm-6.341-1.437L98.41 65.837c-.027-.005-.058-.01-.086-.02l3.928-58.655a.72.72 0 01.086.013zm-6.377-.852L92.27 61.47a1.859 1.859 0 01-.078-.144l3.684-55.014a.754.754 0 01.086.01zm-6.392-.609l-3.617 54.008-.086-.006 3.616-54.008c.032-.001.06 0 .087.006zm-6.428-.145l-3.597 53.72-.086-.006L83.054 5.57l.087-.001zm-6.455.344l-3.545 52.94-.086-.005 3.544-52.93.087-.005zm-6.494.847l-.086-.007-3.46 51.658.087.006 3.46-51.658zm-6.617 2.745l-3.246 48.477-.087-.006 3.243-48.431c.03-.016.061-.028.09-.04zm-6.643 3.057l-3.45 51.523c-.03.03-.059.052-.092.078l3.453-51.561c.028-.012.06-.028.09-.04zm-6.644 3.148l-3.416 51.007c-.028.002-.056.007-.087.005l3.413-50.969c.032-.015.06-.027.09-.043zm-6.648 3.214l-3.143 46.924-.086-.006 3.139-46.875c.028-.012.057-.027.09-.043zm-6.618 2.694l-2.57 38.39a2.902 2.902 0 01-.076-.172l2.558-38.193.088-.025zm-6.568 2.022L27.94 61.178a.361.361 0 01-.086-.006l2.51-37.504c.03-.008.061-.02.09-.028zm-6.592 2.284l-2.173 32.454c-.03-.03-.055-.063-.08-.093l2.164-32.329c.032-.012.06-.02.089-.032zm-6.588 2.326l-1.777 26.542-.087-.006 1.775-26.5.09-.036zm-6.617 2.673l-.087-.005L9 54.356l.087.006 1.57-23.44zm-6.703 4.032l-1.126 16.82c-.004-.001-.004-.005-.007-.005-.027-.016-.053-.035-.077-.05L3.86 35.06c.03-.037.06-.073.094-.105z" fill="#30F9E1"/>
  <path opacity=".1" d="M138.586 54.755c.629-2.785 1.042-6.712 1.477-9.729l.001-.017c.014-.1.031-.2.044-.297l.129-.837c.042-.251.09-.506.128-.764.036-.22.068-.441.09-.67.223-2.29.6-4.743-.324-7.322v-.003c-1.062-2.964-2.924-6.03-5.685-8.99a33.972 33.972 0 00-1.73-1.728c-3.26-3.042-7.896-7.328-13.675-10.865-2.163-1.325-4.487-2.55-6.957-3.561-2.718-1.112-5.76-2.154-8.855-2.574-8.984-1.214-15.424-2.314-26.439-1.38-4.317.365-6.924.716-7.497 1.329l-4.956 1.945C52.981 14.39 38.325 21.667 38.325 21.667l-.564-.118s-.888.226-2.514.688c-3.137.887-8.277 2.74-15.82 5.368-.664.24-1.286.484-1.909.686-8.1 2.957-11.511 5.127-13.278 6.554-.603.49-.956 1.238-1.049 2.047l-.163 1.862-.344 4.005-.046.686c-.017.242-.11.48-.27.633l-.616.693-.166.191a1.346 1.346 0 00-.315.752l-.234 3.483c-.021.322-.002.609.101.78.036.044.03.123.062.167-.002.038.033.083.03.124.036.04.071.085.068.127l.036.044c.035.04.068.126.103.167.071.088.104.17.174.217.035.04.106.129.18.172.18.176.43.398.717.619.11.087.218.178.362.268.109.09.256.18.4.27.073.047.146.094.22.137.074.047.144.093.217.136.147.094.294.184.476.276l.038.002c.074.047.185.096.255.143.112.046.186.092.297.142.109.045.182.092.294.141.111.046.22.095.331.144.484.154 1.004.353 1.564.512l.11.008c.077.005.15.048.227.053.108.049.22.098.334.106.337.06.71.17 1.123.235.073.047.15.052.264.06.07.046.146.051.184.054.153.01.337.06.49.07l.114.009c.187.012.337.064.528.077a22.12 22.12 0 001.66.153l7.902.529c.961 3.538 4.083 5.885 7.913 6.142 2.423.162 4.674-.544 6.361-1.935 1.599 4.201 5.671 7.176 10.624 7.507 6.083.407 11.377-3.273 12.623-8.937.005-.024.007-.052.016-.076l2.314.172-.003.042.038.003 31.977 2.172c1.048 3.381 4.101 5.612 7.827 5.861 2.423.162 4.673-.54 6.361-1.934-.21-.554-.21-.554 0 0 1.599 4.2 5.675 7.175 10.627 7.507 6.689.448 12.425-4.049 12.87-10.693a5.59 5.59 0 00.012-.333l.729-.122c.919.416 2.367.886 4.318.961 2.664.102 4.195-.262 4.924-2.09.262-.65.419-1.483.491-2.55.061-1.016-.481-1.669-1.334-2.08z" fill="#30F9E1"/>
</svg>
