<svg width="275" height="144" viewBox="0 0 275 144" fill="none" xmlns="http://www.w3.org/2000/svg"><path d="m106.4 0-1.7.5-1.5 2.3H102l-1.6.8h-.5l.6 12.8 2 19.7 16 1S138 48 144.6 54c6.8 5.9 9 7.5 9 7.5l1.1-2.7 2.8 1.2.8-2.2 2.7 1.4.5-3 1.8 1v-2.5l1.5.3v-3l-1.7-8.6-41.5-29.1L106.4 0Z" fill="#92B789"/><path d="m166.8 51.9-1.2-22.7v-1.7L152 20.1c-6.3-3.5-28.9-12.6-34-15.8-5.1-3-11.6-4.3-11.6-4.3l-.9 23 1.4 4.7 9.2 4.3s25 11.1 31.8 13.8c6.8 2.6 15.6 6.2 18.9 6Z" fill="#9FCE94"/><path d="M108.7 2.8s-1 14.2.1 19.4a9 9 0 0 0 5.1 6.6s9.7 4.4 16.6 7.2c6.9 2.8 29.6 12.3 32.1 12.3 1.3 0 1.2-5.1.7-11.8l-.6-8s-12.2-6.6-17.6-9.2c-5.3-2.6-18.7-7.8-25-11-6.2-3.2-11.4-5.5-11.4-5.5Z" stroke="#3E494F" stroke-miterlimit="10"/><path d="M119.6 23.7c1.7 0 3-2.3 3-5s-1.3-5-3-5c-1.6 0-3 2.3-3 5s1.4 5 3 5ZM152.7 38.2c1.5 0 2.8-2 2.8-4.6 0-2.6-1.3-4.6-2.8-4.6-1.5 0-2.8 2-2.8 4.6 0 2.5 1.3 4.6 2.8 4.6ZM136.5 37c3.6 0 6.4-4.4 6.4-9.7 0-5.3-2.8-9.7-6.4-9.7-3.5 0-6.4 4.4-6.4 9.7 0 5.3 2.9 9.6 6.4 9.6Z" stroke="#3E494F" stroke-miterlimit="10"/><path d="M180.6 83.6c-3 1.6-2 2.6-8 2.7-2.7 0-4 .2-4.9.3a8 8 0 0 1-4.5-.5c-2.3-1.3-4.1-4.4-4.1-4.4a6.8 6.8 0 0 0-5.3-5c-3.9-1-7.8-.5-8.5-5.5v-.1c-.4-2.7 2.2-3 5.3-2.5a38 38 0 0 1 8.7 2.6c3.3 1.2 6.9.6 10 .8 2.2.1 4.8.3 7.4 1.7a11 11 0 0 1 3.2 2.5c3.5 3.7 3.7 5.9.7 7.4Z" fill="#FCD4CA"/><path d="M165 83c-3 1.5 13.5 3.2 7.5 3.3-2.6 0-4 .2-4.8.3l-4.5-.5c-2.3-1.3-4.1-4.4-4.1-4.4a6.8 6.8 0 0 0-5.3-5c-3.9-1-7.8-.5-8.5-5.5v-.1c1.3 1.7 3.8 3.5 8.7 3.4 9.3 0 14 6.9 11 8.5Z" fill="#EFC4BD"/><path d="M136 95c-4.5-.3-8.5-2-10.4-2.7-1.8-.7-4.3-1.7-6.4-2.7-2-1-3.2-1.7-2.5-3.8.3-.7.9-1.2 1.7-1.4.6-.2 1.5-.3 2.6-.2 2.2.1 6.2 2.4 6.2 2.4l5.7 3.8c3 2.4 5.6 4.7 3.2 4.6Z" fill="#FCD4CA"/><path d="m136 95-1.6-.2-.7-.1c-1.8-.3-3.5-.8-4.8-1.2l-3.3-1.2c-1.8-.7-4.3-1.7-6.4-2.7-2-1-3.2-1.7-2.5-3.8.3-.7.9-1.2 1.7-1.4v1c-.2 2 3.4 4.5 6.4 5.2 2.9.8 1.5-2.2 1.4-2.4h.1v.1h.2l.2.2.4.1 1.6.9h.3l.3.2.3.1 2 .8H132.5c.2 0 .3-.1.3-.2 3 2.4 5.6 4.7 3.2 4.6Z" fill="#EFC4BD"/><path d="m129 91.4-2.5-2.8c.3.1 2.8 2 3.2 2 .5.1.7 1 .7 1l-.2.3 3.5 2.9c-1.8-.3-3.5-.8-4.8-1.3 0 0 .2 0 .4-.5s.1-1.2-.3-1.6Z" fill="#E0B1AD"/><path d="M192 93.1c-3.5 2.7-12.8 3.5-18.4 3.6-5.5.1-11.7.7-12 .8l-6.3-2.2a336.8 336.8 0 0 1-9.2-3c-.5 0-7.2-7-5-8h.8l2 .1c1.7.2 2.4-.4 5-2.2l2.7-1.6c6.3-3.5 10.2-1 14-3 3.7-2 7-4.9 11.7-2.2 4.7 2.7 9.7 2.2 9.7 2.2l2.2 6.9 2.7 8.6Z" fill="#FCD4CA"/><path d="M161 87s5.2-5.8 15-4.4" stroke="#EFC4BD" stroke-miterlimit="10"/><path d="M158.3 98.1c-3.8.5-7.1.6-7.1.6-2.2-.3-3.7-1.1-7.3-5-3.7-3.8-4.6-3.5-5-6.1-.3-1.9-1.2-5-1.4-8.2l1.1-.4s1.4 2 3.7 3l1 .8c.1.5.2 1 .5 1.6.5 1.4 4.7 4.3 6.7 5.2 2 1.9 3.9 4 5.8 6 .8.9 1.5 1.7 2 2.5Z" fill="#EFC4BD"/><path d="m149.5 93.3-.4 1.2-.3.6a7 7 0 0 1-1.6 1.9 3.7 3.7 0 0 1-3.6.8l-.8-.4a50.8 50.8 0 0 1-6-4c-1.2-.8-2.6-3.7-3.6-6v-.1l-1-2.5v-.2c-.7-2-2-3.4-2-7s-.2-6 1.2-6.1c1.3-.1 2.3.8 3.1 3.6l1.7 5.5.8 1.1.9.7c1 .6 2 .8 2.3.8l1 1.2v.1c1.1 1.3 3.4 2.2 5.8 3.9 1.8 1.1 3 2.8 2.5 5Z" fill="#FCD4CA"/><path d="M145 97.4h-2.3L140 97c-1.9-.2-3.3-.7-4.6-1.3-2.3-1-7.3-5.9-8-6.5a21.8 21.8 0 0 1-5.5-7.6c-1.4-3.6.8-4.2 2.9-3.2 2 .9 3.4 4.2 5.2 5.4.8.6 1.6.8 2.3.8h1.5a242.2 242.2 0 0 0 5.6 4.6l.4.4c2 1.8 3.9 3.6 5.1 5 1.2 1.6 1.7 2.8.3 2.8Z" fill="#FCD4CA"/><path d="M145 97.4h-2.3c-3.3-.3-5.5-.9-7.4-1.7a4 4 0 0 1-1-.6h-.1l-.5-.3a54.8 54.8 0 0 1-7.3-6.6v.1h.2l.2.2.3.1 1.7.9h.3c0 .1.1.2.3.2l.2.1 2 .8H132.7c.2 0 .2-.1.3-.2.6-.9.2-3.3.2-3.3s.5 1 1.3 2c.5.6 1 1.3 1.9 1.8 1 .5 1.3.3 1.5-.7 0-.6 0-1.5-.2-2.7 4.2 4 10.6 9.9 7.4 9.9Z" fill="#EFC4BD"/><path d="M142.7 97.3c-3.3-.1-5.5-.8-7.4-1.6a4 4 0 0 1-1-.6h.2s1 .4 2.4.2c.5 0 .2-1-.4-2.1-.8-1.6-2.3-3.5-2.4-3.7l.2-.3c.5.7 1.1 1.4 1.9 1.8 1 .6 1.4.4 1.5-.6l.6.5c1.3 1 2.7 2 3.9 3.6.6.9.6 2 .5 2.8Z" fill="#E0B1AD"/><path d="M148.8 95c-1.8 2.9-3.6 3.2-5.2 2.7-.3 0-.6-.2-1-.4l-6-3.9v-.1c-.8-.7-1.7-2.2-2.5-3.7l-1-2.2c.1.2.5 1 1.2 1.8.5.7 1.1 1.4 1.9 1.8 1 .6 1.4.4 1.5-.6.1-.8-.1-2.1-.3-3.8a34 34 0 0 1-.4-5 6 6 0 0 0 3.2 1.5l1 1.3c1.1 1.3 3.4 2.2 5.8 3.8 2.4 1.7 3.5 4 1.8 6.8Z" fill="#EFC4BD"/><path d="M169.5 94.2a8 8 0 0 1-3 1.9 30.4 30.4 0 0 1-8.2 2c-3.8.6-7.1.6-7.1.6a7.2 7.2 0 0 1-4-1.7c-.7-.5-1.6-1.3-2.6-2.4l-.7-.8c-2.4-2.5-3.6-3.2-4.3-4.2l-.3-.4-.4-1.6a47 47 0 0 1-1.4-8.2c-.2-1.3-.1-2 0-3.1 1-4 1.5-6 2.6-6.3 1-.3 2.7 2.3 2.9 4.2.2 2-.4.7-.3 4.4 0 2.3.4 3.3.6 4.2 0 .5.2 1 .4 1.6.6 1.4 4.8 4.3 6.8 5.2l.6.3c1.5.5 3.3 0 4.5-.8l.8.6 1.4-.1 2.7-.3s3.4.8 6.4 1c2.3 0 4.2 2 2.6 3.9Z" fill="#FCD4CA"/><path d="M192 93.1c-3.5 2.7-12.7 3.5-18.4 3.6a117.5 117.5 0 0 0-15.3 1.5c-3.8.5-7.1.5-7.1.5-1.4-.2-2.5.3-4-.9-1.3 1-2.5.4-3.6 0l-.8-.4c-1.2-.6-2.9-1.7-4.3-2.6-1-2.7-.5-5 .7-5.6h.2c.3-.1.8 0 1.3.3 2.3 1.8 4.9 3.6 8.4 5l1.1.5c1.7.5 3.3.6 5.1.4 2.7-.3 5.5-1 10.2-1h4c4.9-.4 7-1.5 14-3.4 3.9-1.1 5.3-3.8 5.7-6.4l2.7 8.5Z" fill="#EFC4BD"/><path d="M155.6 90c-1.2.9-3 .3-4.5-.2l-.6-.3c-2-1-6.1-3.7-6.7-5.2 1.8.3 2.4-.4 5-2.1 1.1.4-.8 2.5 2.2 3.8 3.7 1.6 4.6 4 4.6 4Z" fill="#EFC4BD"/><path d="M265 66.2V105c-31.2-.9-68-2-70.2-2.6-.8-.2-1.4-1-2-2.4l-.2-.3h-2.5c-3.4 0-2.2 0-4-5.4-1.8-5.6-.6-14.4-.6-14.4l-1.5.2.9-.7 1.9-7 1.8-1 3.8.4h1.5l.8-2 1.6-1.2s.7-1 .9-1l2.6-.6s13-1 22.8-1.3c7.2-.2 30.2.2 42.4.5Z" fill="#F15A34"/><path d="M205.4 102.1s-2.7.6-5.6.3c2-.1 4-.6 5.6-.3Z" fill="#CC492A"/><path d="M265 65v2.1a1535 1535 0 0 0-33.4-.7 261 261 0 0 0-33.1 1.6c-2.4.6-3.8 3-5.8 9-2 5.8-.5 18 1.6 22.5 1 2 3.2 2.8 5.5 3-3 .2-6-.2-7.8-4.8-2.8-7.8-2-17.9-.6-22.3 1.3-4.4 3.1-8.4 6.3-9.1a443 443 0 0 1 35.3-1.6c6.2-.2 21 0 32 .3Z" fill="#CC492A"/><path d="M265 102v3c-31.2-.9-68-2-70.2-2.6-.8-.2-1.4-1-2-2.4v-.3H190.1l2-4.8s3.8 3.8 11.5 4.5c5 .5 22.7 1.5 35.5 2.1l7 .4 6.3.3c3.3 0 7.4-1.2 12.5-.2ZM265 67.3v2.6c-1.9.7-3.9 1.6-4.8 2.3 0 0 1.3-3.4 4.8-5Z" fill="#CC492A"/><path d="m192.8 100 .3.7-5.2-.4c-.8 0-1.5-1-2-2.4a27 27 0 0 1-1.3-5.3 69.7 69.7 0 0 1-.4-12.6v-.7c.2-2 .9-7.5 2.7-8 2.1-.7 6.2 0 6.2 0l-.6.8s-3 0-5 .2c0 0-1.2 2.3-1.7 7-.2 1.4-.2 3-.2 4.7l.2 2.2a78 78 0 0 0 1.7 11.1l.4 1h3.9l1 1.7Z" fill="#CC492A"/><path opacity=".3" d="M265 99.2v4.9c-22-1.2-58.2-2.2-59.2-2.2a76 76 0 0 1-11.3-1.2 35.6 35.6 0 0 1-2.6-1s-3.1.8-3.7-.2l-4-10.2.2.3c.6 1.2 3 5.5 3.7 3.6a7.4 7.4 0 0 1 3.4-3.4s1.7 5.9 9.2 4.6c7.5-1.3 10.4-2 13.7-5.6 3.3-3.5 2 2.4.4 4.7-1.6 2.3.3 5.1 4.6 5.3 4.4.3 9.8.8 10.4-4.2 0 0 4.8 5 9.3 6.9.7.3 1.5.6 2.3.7 1.3.2 3 0 4.6-.3 4.4-1 9.3-3.4 11-3.6 2.2-.4 4 .4 8 1Z" fill="#CC492A"/><path d="M128 24c-1 3-4.4 2.5-8 1.8a54 54 0 0 1-7.4-2.6l-8.5-3.5-.5-7.2c4.4.4 10.7 1.8 12.7 2.7 2.9 1.3 7.8 3.5 10.3 5.7 1 1 1.7 2 1.4 3Z" fill="#FCD4CA"/><path d="M142.6 49.5c-2 4.3-5.7 3-10 2.3l-1-.2c-4.7-.7-13-4.8-13-4.8-.6.7-1.5 1.2-2.5 1.5-2 .5-4.2.2-4.2.2-2.6 2.6-6.6 1.7-6.6 1.7s0 .9-2.6 1.4c-4.5.8-5.6-.2-9-2.4l-.7-.4c-4.5-3-20.3-14-21.4-14.6a94.7 94.7 0 0 0-10.2-1.5l-.7-1.5 1.1-6.4L64.7 8S74 10 86 11.2c6.4.7 12.6.9 17.6 1.3l6.4 6.2a239.5 239.5 0 0 0 12.4 15l.9.6c2.5 1.8 5.4 7.5 10.3 9.6 5.4 2.6 9 5 9 5.6Z" fill="#FCD4CA"/><path d="M142.6 49.5c-2.2 4.6-6.2 2.8-11 2.2-4.7-.7-13-4.9-13-4.9-1.6 2.4-6.7 1.8-6.7 1.8-2.6 2.5-6.6 1.7-6.6 1.7s0 .8-2.6 1.3c-4.5.8-5.6-.2-9-2.3-3.5-2.1-21-14.4-22.1-15-1.3-.6-10.3-1.5-10.3-1.5l-.6-1.5 1-6.5 1.5.3 2.5-9.7s-1.5 10 .4 12.7c1.8 2.7 6.2-.4 12.1 5.1 6 5.5 14.7 13.6 17.7 14.2 3 .5 9.3 1.9 12.2.5 2.8-1.3 3-2.7 2.5-5-.5-2.1-1.4-3.9-1.5-4a62 62 0 0 0 18 9.5c3.4.3-2.7-4.4-7.6-10.2-2.2-2.6-1-4.8 1-6.5.7 1.1 1.4 2 2 2.2 2.7 1 5.7 7.7 11.1 10.1 5.4 2.5 9 4.9 9 5.5Z" fill="#EFC4BD"/><path d="M112 48.6c-2.6 2.5-6.6 1.7-6.6 1.7s-.1.8-2.6 1.3c-4.6.8-5.7-.2-9.1-2.3l-.6-.4c.2 0 4.3 1.7 6 1.9 1.6.1 4.1 0 4.4-.3.3-.2-2.7-1.6-3.7-3.5 0 0 3.2 2.6 6.5 2.8 3.3.3 3.1-1.3 2.2-2-1-.6-2.3-1.8-3.9-4.4.1.1 3.7 3.7 7.3 5.2ZM108.7 38.5l.6.6a5 5 0 0 1-.6-.6ZM118.6 46.8c-.5.8-1.4 1.3-2.4 1.5.1-.5.2-1.1 0-1.5-.5-1.4-3.1-3-3.9-4l-3-3.7c2.3 2.3 9.3 7.7 9.3 7.7ZM142.6 49.5c-2 4.3-5.7 3-10 2.3l.4-.7c1.2-3.5-8.8-10-9.2-10.2-.4-.3-3.2-4-2.6-5l2.1-1.6c2.5 1.8 5.4 7.5 10.3 9.6 5.4 2.6 9 5 9 5.6Z" fill="#E0B1AD"/><path d="M64.1 26.7a81.4 81.4 0 0 1-2.8 9.7s-5.2.5-8.4-1.2l-.8-.5c-3-2.3 1-10.6 1-10.6l1-13.3 3.4-5.3s6.6 1.6 8.4 1.9c1.8.3-.3 12.6-1.8 19.3Z" fill="#fff"/><path d="m118.4 28.7-.9-.3-5-5.2 2 .8 3.9 4.7Z" fill="#EFC4BD"/><path d="M128 24c-1 3-4.4 2.5-8 1.8a54 54 0 0 1-7.4-2.6l-2.2-2.3c.3.1 11.1 4.7 14 3.8 3-1 1.7-3.8 1.7-3.8h.5c1 1 1.7 2 1.4 3Z" fill="#EFC4BD"/><path d="M79 12.6c-5.7-.6-9.5-1.9-8.2.4 1.4 2.3 17.2 4.3 16.5 2.4-.7-2-8.3-2.8-8.3-2.8Z" fill="#FDDED7"/><path d="M62.8 31.9c-.8 3-1.5 4.5-1.5 4.5s-5.2.5-8.4-1.3c1.3-3 3-7.4 3.1-7.8v.4c-.2 1-.4 4 1.8 5.4 1.8 1 3.9-.2 5-1.2Z" fill="#DFE5EA"/><path d="m56.7 23.8-3.1 15.7s-24.3-2.4-34.9-5.4c0 0-.6-2.6-1-6.5-1-7.6-1.6-20 4-27.6 0 0 33.8 4.3 36.5 5 1.4.4 0 9.9-1.5 18.8Z" fill="#9ABCD7"/><path d="m56.7 23.8-3.1 15.7s-24.3-2.4-34.9-5.4c0 0-.6-2.6-1-6.5l17.7 4.6c9.8 2.8 14 .5 17.2-3.7 2.2-2.9 3.4-6 4-4.7Z" fill="#8DB1C9"/><path d="M143.2 52.8S126.5 41 123.6 39.5c-3-1.4-5.3-6.5-5.3-6.5l10.4 4.6 5.5 4.4s16.4 8.4 15.7 8.3c-.8 0-6.7 2.5-6.7 2.5Z" fill="#92B789"/><path d="m125.1 36-6.7-3s-3-4-3.3-5c-.2-.9-2.5-4.8-2.5-4.8s4.9 1.6 6.8 2.7c2.6 1.7 2.5 3.3 2.6 3.3.2.1 3.7 6.2 3.7 6.2l-.6.6Z" fill="#9FCE94"/><ellipse cx="137.5" cy="136" rx="137.5" ry="8" fill="currentColor"/></svg>
