<svg width="260" height="136" viewBox="0 0 260 136" fill="none" xmlns="http://www.w3.org/2000/svg"><path d="M130 136c71.8 0 130-9.4 130-21s-58.2-21-130-21S0 103.4 0 115s58.2 21 130 21Z" fill="#DFDFEC"/><path d="M153.5 122s9.1 2.4 16.8.5c7.7-1.9 4.3-9.2 4.3-9.2s-11.2 1.2-12 2c-.7 1-3 1.6-3.9 2.6a52 52 0 0 1-5.2 4.1Z" fill="#272A56"/><path d="M110.5 95a29 29 0 0 0-15.4 3.8c-4.7 3.3-2 12.7-2 12.7l2.7 5.7 4.6-.8s28-3.8 10.1-21.4ZM62.4 107.7l-.7-.2c-1-.4-2.7-1.3-3-2.2-.6-1.1-3.3-9.4-3.6-9-.2.3-1 1.5-1 2 0 .3-4.7 5.6-4.7 5.6H46l-.9-1c-.1-.6-1.1-2.2-1.2-4.2 0-.9.2-1.7.5-2.5 1.7-3.8 6.8-8 9.3-8.6 4.4-1.3 6.3 4.3 8 6.4 1.7 2 .8 13.6.7 13.7Z" fill="#987A00"/><path d="M118.7 115c0 3 3.8 2.8 4.5 5.3.5 1.7-1.7 6.7-3.8 8-1.6.9-10.1 1-12 1-4 0-8.5-6.4-8.5-14.3 0-9.6 5-14.3 8.4-14.7 5.8-.8 8.7.3 10 1.9 2.2 2.6 1.4 7.8 1.4 12.8Z" fill="#272A56"/><path d="M108.2 122.7c2.1 0 3.8-3.3 3.8-7.3s-1.7-7.2-3.8-7.2c-2.1 0-3.8 3.2-3.8 7.2s1.7 7.3 3.8 7.3Z" fill="#fff"/><path d="M64 103c0 2.4 1.4 2.7 2 4.7.4 1.5-1.2 5-2.6 6-1.3.8-7.4.8-9 .8-3.3 0-7-5-7-11.5 0-6.6 4.2-12 7-12 1.6 0 7.2 0 8.3 1.3 1.8 2.2 1.3 6.5 1.3 10.6Z" fill="#272A56"/><path d="M190.1 101c-.2.5-.6 1-.5 1.4l.1 1.3c0 .3 0 .5-.2.8-.4 1-.3 1-.3 1.8l.3 2.5v1.1c-.1 1-.2 3.5-1.5 4.4-1.4 1-.6 1-4.5 2.3-4 1.4-11 4.3-24.4 6.1-8.8 1.2-21.9 3.2-33.6.9-3-.6-5.8-1.3-8.6-2.3l-.3-8c0-1.1-.2-2.4-.4-3.6-1-4.1-3-9-6.9-10-4.5-1.4-8 .7-9.5 3a30.7 30.7 0 0 0-4 14.5l-34.2-8.4.1-1.3c.2-2.1.1-4.3 0-6.5-.3-2.1-.4-4.5-1.5-6.7-3-6.2-8.4-5.9-11-2-1.3 1.6-1.7 3.2-2.3 5-.5 1.6-.8 3.4-.8 5.2l-.1 1.4s-4.5-1-5.2-1.5c-.7-.5-.8-.9-.7-1.7 0-.8-.2-5.2 0-5.8 0-.6.2-1 .8-1h1.6c-.4-2-.7-4-.8-6a57.2 57.2 0 0 1 2.6-16.3c3-7 5.2-9.6 8-12.4a40.7 40.7 0 0 1 13.3-8.8c6-2.5 13-4.6 24.5-5.2 11.6-.7 25 1 32.3 2.5a43.6 43.6 0 0 1 16 6c3.5 2.4 13.3 10.2 16.4 13.2L162 74l.5.2.2.1.8.4.3.2 2 1 .6.2 2.7 1.4.6.3 1.2.6.5.3.9.4 1.5.8.3.2.5.3.9.4.7.4.9.5.4.3.4.2.3.3h.2l.2.2 1.2.9.1.1.2.2.1.1.1.1a1.2 1.2 0 0 1 .9.3c.2.2.1 1.6 1 2.5.6.5 1.6.8 2 1.1l.2.3.4.1c.6.9 3 2.3 2.7 3.8 0 0 .9.3 2.2 2.5 1.3 2.3.6 5.6.3 6.1Z" fill="#F2C037"/><path d="M94.3 82.7s-2.5.4-2.4 2c.2 1.6 4.7 1.9 6.3 1.2 1.6-.6 4.5-4.8 3.8-4.8-.6 0-1-.3-2.2.6-1.2.8-5.5 1-5.5 1Z" fill="#E3B43B"/><path d="M102 80.7v.7h-1.3s-1.4 2-5 2c-3.3 0-4.4-2-4.7-3.2l.1-2c0 .3.2 2 1.2 2.8l.6.4a7 7 0 0 0 4.1.6c2.1-.3 2.7-.8 3-1.2.3-.2.5-.4.6-.7 0 .2 0 .7.4.7h1Z" fill="#D8AC3E"/><path d="M143.9 112.3c-.5.5-1.3 2.1 4.7 1.8 6-.3 32.7-3.2 39.6-9.4 7-6.2-26.6.2-26.6.2l-17.7 7.4Z" fill="#DFAA20"/><path d="M45.8 77.5c-.2.9-.8 1.5-1 2-.4.6-1 2.7-2.1 2.6H42l.3-2.3 1-5.4a2.5 2.5 0 0 1 2.1 1.6l.3 1.5Z" fill="#F47958"/><path d="M47 97.2c-.6 1.7-.9 3.5-1 5.3v1.4s-4.5-1-5.2-1.5c-.7-.5-.8-.9-.7-1.7 0-.8-.2-5.2 0-5.8 0-.6.2-1 .8-1v.2c.5 1.3 0 2.2.6 3 .4.7 1 1.5 2.4 1.6h.6c1-.2 1.9-1 2.4-1.5Z" fill="#D59F14"/><path d="M49.1 87.3s4.8-3.5 9.5 0c2.8 2.1 4.8 5.1 5.7 8.5 0 0 .6-7.2-5-10.8-5.7-3.6-10.2 2.3-10.2 2.3Z" fill="#F9CD75"/><path d="M97.7 107.1a30.7 30.7 0 0 0-1.9 10l-34.2-8.3c.3-2.6.3-5.2 0-7.8.8 2.2.9 5.7 3.8 6.9 3.4 1.4 21.5 6 24.8 6.4 3.3.4 4.7-1.5 5.8-4.3a7 7 0 0 1 1.7-2.9Z" fill="#D59F14"/><path d="M66.5 100.5a2 2 0 0 0-.5 1.2c0 1.3.3 2.2 1.6 2.7 1.5.6 20.8 6 21.5 5.9.6-.2.8-.7.3-1.1a554.6 554.6 0 0 0-22.7-9l-.2.3ZM99.2 96.7s4.7-3.6 11.8-.8c7 2.8 9.6 10.4 9.6 10.4h.7s-.5-6.4-4.5-10.5c-4.1-4-11.5-6.3-17.6.9Z" fill="#F9CD75"/><path d="M189.5 110c-.1.8-.2 3.4-1.5 4.3-1.4 1-.6 1-4.6 2.3-4 1.4-11 4.3-24.3 6.1-8.8 1.2-21.9 3.2-33.6.9-3-.6-5.8-1.3-8.6-2.3l-.3-8c0-1.1-.2-2.4-.4-3.6.6 1 1 2.1 1.3 3.2 1 4.4 1.2 6.4 2.3 6.7 1 .4 4 2 12.7 2.3 8.8.3 10.2-1.2 10.7-1.4.4-.3 2.3-.2 4.9-.2 2.6 0 9.4-.7 13.4-1.3 4-.6 14.7-3.2 18-4.5 3.2-1.3 8.3-2.5 10-5.7v1.1Z" fill="#D59F14"/><path d="M190.1 101c-.2.5-.6 1-.5 1.4l.1 1.3c-2 .7-4.2.5-5.3.4-.8 0-1.5 0-2.1.4-10.2 4-28.3 6.2-28.3 6.2-5.3 3-8.4 3.9-12 3.4-3.5-.5-5.1-3.5-5.9-7.6-.7-4.2-1.3-5.6-7.4-11.9-6.2-6.3-15.1-10-15.1-10-1.3-2.2-7.2-18-15.2-25-8-7-17-8.6-25.8-9-3.9-.2-8.4.4-11 1.7a44.3 44.3 0 0 1 8.8-3.8A59.6 59.6 0 0 1 90 45.1a138.5 138.5 0 0 1 32.3 2.6 43.5 43.5 0 0 1 16.1 6c3.4 2.4 13.2 10.2 16.3 13.2L162 74l.5.2.2.1.8.4.3.2 2 1 .6.2 2.7 1.4.6.3 1.2.6.5.3.9.4 1.5.8.3.2.5.3.9.4.7.4.9.5.4.3.4.2.3.3h.2l.2.2 1.2.9.1.1.2.2.1.1.1.1a1.1 1.1 0 0 1 .9.3l2.2 2 1.1 1.5.2.6c0 .1.2-.6.3-.5l2.5 3.8s.9.7 2.2 3c1.3 2.2.6 5.5.3 6Z" fill="#F7C85F"/><path d="M125.5 51.3c-1.2.9-2.5 1.7-3.9 2.3-2.3 1-5.1 1.5-6.8-.7-1.6-2-12-4-23.1-4.2-11.6-.3-24 1-24 1l.1-.2A51.1 51.1 0 0 1 72 48c1.5 0 5.4-.6 7.8-.6 7.5-.2 16.5-.6 25 .1 12 1 20.7 3.8 20.7 3.8Z" fill="#F6C14E"/><path d="m133.2 56.2-11.6-2.6-3.7-.9S105 45.4 93.5 46c-9.5.4-18.5 2.4-23.1 2.6a59.3 59.3 0 0 1 19.8-3.4c10-.5 21.3.6 29 2l1.7.6c7 2.8 12.3 8.5 12.3 8.5Z" fill="#F9BC5E"/><path d="M127.2 93.4h-.1c-4.7-4.3-10.3-7.2-12.5-8.2-.8-.4-1.4-1-1.8-1.8l-.7-1.6c-2.4-5.3-7.5-16.4-13.8-22a.2.2 0 0 1 0-.2.2.2 0 0 1 0-.1.2.2 0 0 1 .2 0c6.4 5.7 11.5 16.8 13.9 22.2l.7 1.6c.4.7 1 1.3 1.7 1.6a54.7 54.7 0 0 1 12.5 8.4h-.1Z" fill="#C69D47"/><path d="M172.3 91c-2.8.8-2.5-.7-4.2-.2-1.8.6-4.1 1.4-9 1.6-5 .2-9.4-1.4-7.1-2.2 2.2-.9 5.8.4 11.9-5.4 2.8-2.7 2.8-6 2-8.9l8.9 4.6 1.6.8c1.1 4.7-1.6 9-4.2 9.8Z" fill="#FFD880"/><path d="M132.3 100.4c2.5 1.8 7.4 3.8 12.2 3.4 3.7-.4 3.7-.4 4-1 .2-.8.3-1.4-.7-2.6-1-1.2-4.2-5-7.7-6.3-3.5-1.3-10.5-1.1-13 .8-2 1.4 1.5 2.9 5.2 5.7Z" fill="#F3F3F3"/><path d="M49 78s11.6-.6 28.2 3.9a110 110 0 0 1 22.3 8.3.3.3 0 0 1 0 .4h-.3l-6.1-.4c-1 0-2-.3-2.8-.8A119 119 0 0 0 49 78Z" fill="#D8AC3E"/><path opacity=".7" d="m73.4 55.1-3.1 42.4a.4.4 0 0 0 .4.5.4.4 0 0 0 .4-.4l2.7-42.5h-.4Z" fill="#B59048"/><path d="M70.3 55.5a1 1 0 0 1 1 .7c0 .1.1.3 0 .4l-.3 4.3-1.3 13.4a1 1 0 0 1-.8 1 1 1 0 0 1-.4 0l-16-3.6a1.7 1.7 0 0 1-1.3-1.5v-.7l1.5-2.9a20 20 0 0 1 4.5-5.5c3.8-3 8.3-5 13-5.6ZM83.4 87.3h-.1L78 85.8a.7.7 0 0 1-.5-.5.6.6 0 0 1 .1-.5.7.7 0 0 1 .7-.3l5.2 1.4a.7.7 0 0 1 .5.5.6.6 0 0 1-.3.6l-.4.2ZM55 79.3h-.2l-3-.5a.6.6 0 0 1-.4-.6.6.6 0 0 1 .7-.5l3 .5a.6.6 0 0 1 .4.6.6.6 0 0 1-.6.5Z" fill="#272A56"/><path d="m71.4 56.6-.4 4.3c-1.5-.8-4.1-1.7-8-.7a28 28 0 0 0-10.3 6.4 20 20 0 0 1 4.5-5.5 25.2 25.2 0 0 1 13.5-5.5 1 1 0 0 1 .7 1Z" fill="#38385E"/><path d="M55.1 109.3c1.8 0 3.2-2.7 3.2-6s-1.4-6-3.2-6c-1.7 0-3.1 2.7-3.1 6s1.4 6 3.1 6Z" fill="#fff"/><path d="M157.7 72.2a2 2 0 0 1-.2 3 25 25 0 0 1-9.4 3.6 107 107 0 0 1-31.1 1 144 144 0 0 1-13.3-21.1 2 2 0 0 1 1.2-2 62 62 0 0 1 29.4-3.3 111.2 111.2 0 0 1 12.3 8.7c4 3.1 7.6 6.5 11.1 10Z" fill="#292955"/><path d="M139.8 56.8c-3.7-.2-7.4-.2-11.1 0-16.6.7-20.2 6-20.5 10.3a166.2 166.2 0 0 1-4.5-8.4 2 2 0 0 1 1.2-2 62 62 0 0 1 29.4-3.3c2 1 3.8 2.2 5.5 3.4Z" fill="#38385E"/><path d="M148.4 102.7c-.2.7-.2.7-4 1-4.7.5-9.6-1.5-12-3.3l-.4-.3c1.2.5 2.5.7 3.8.8 3 0 5.1-1.5 5.2-3.4a4.8 4.8 0 0 0-1.4-3.8l.5.2c3.5 1.3 6.7 5.1 7.7 6.3 1 1.2.9 1.8.6 2.5Z" fill="#E6E3E1"/><path d="M187.7 92.2a5 5 0 0 1-1.1 1.6c-.6.5-1.5.7-2.9-.7-.6-.6-1.3-2.2-1.8-3.8a52.4 52.4 0 0 1-1.5-5.1 1.1 1.1 0 0 1 1 .3c.1.2 1.2 1 2 2l1.4 1.3 2 2c.7 1 1 2.3 1 2.4Z" fill="#F3F3F3"/><path d="M187.7 92.3c-.3.6-.7 1-1.1 1.5-.6.5-1.5.7-2.9-.7-.6-.6-1.3-2.2-1.9-3.8.5.6 1 1 1.5 1 1.4-.1 1.4-1.4 2.2-.5.8.8.9 2.4 1.6 1.7.3-.2.6.7.6.8Z" fill="#E6E3E1"/><path d="M157.1 103a49.4 49.4 0 0 1-6.6-.5v-.1h.1c.2 0 19 2.7 32-6.7a.2.2 0 0 1 .2 0v.2c-8.4 6-19 7.2-25.7 7.2Z" fill="#C69D47"/><path d="M101.3 79a5.8 5.8 0 0 0-9-2.6c-.5.5-1 1-1.2 1.8-.1.6-.2 1.4 0 2-5-1.5-12.2-2.8-15.5-3.5a1.3 1.3 0 0 1-1-1.4l1.2-14.8V60a36.4 36.4 0 0 1 .4-2.9 1.6 1.6 0 0 1 1.7-.8c5.7.7 11.8 3 15.5 7a38.5 38.5 0 0 1 8 13c.5 2.3-.1 2.7-.1 2.7Z" fill="#272A56"/><path d="m100.6 74-2-2.8c-9.8-13.5-20.3-11.4-22.8-10.7V60a36.8 36.8 0 0 1 .4-2.9 1.6 1.6 0 0 1 1.7-.8c5.7.7 11.8 3 15.5 7 3.3 3.3 6 7.8 7.2 10.8Z" fill="#38385E"/><path d="m44.5 79 1.3-1.5c-.2.9-.8 1.5-1 2-.4.6-1 2.7-2.1 2.6H42l.3-2.3c.5.2 1.2 0 2.1-.9Z" fill="#EA644C"/><path d="M241.5 26.4c1.2 0 2.2 1 2.2 2.2v14.8c0 1.2-1 2.2-2.2 2.2h-92c-1.2 0-2.1-1-2.1-2.2V28.6c0-1.3 1-2.2 2.2-2.2h91.9Zm0-.4h-92a2.6 2.6 0 0 0-2.5 2.6v14.8c0 1.4 1.1 2.5 2.6 2.5h91.8c1.5 0 2.6-1.1 2.6-2.5V28.6c0-1.4-1.1-2.6-2.5-2.6Z" fill="#363A47"/><path d="M157 26v20h-7.4a2.6 2.6 0 0 1-2.6-2.6V28.6c0-1.4 1.1-2.6 2.6-2.6h7.5Z" fill="#2F5BAC"/><path d="M152.2 35.8c0-.2.1-.3.2-.3.2 0 .3 0 .3.2 0 .1 0 .3-.2.3a.3.3 0 0 1-.3-.2Zm-1.4 0c-.2 0-.2-.2-.2-.4 0-.1.2-.2.3-.1.2 0 .3.2.2.3l-.2.2h-.1Zm3-.5c-.1-.1 0-.3 0-.4l.4.1c.1.1 0 .3 0 .4h-.2l-.2-.1Zm-4.5-.5v-.4h.4c.1.1.1.3 0 .4h-.4Zm5.6-.6s-.1-.3 0-.4c0-.1.2-.2.3 0 .1 0 .2.1.1.3l-.2.1h-.2Zm-6.4-1a.3.3 0 1 1 .3.2c-.2 0-.3 0-.3-.2Zm6.7-.8c0-.2.1-.3.3-.3l.2.2c0 .2 0 .3-.2.3s-.3-.1-.3-.2Zm-6.5-.6a.3.3 0 1 1 .3-.2l-.2.2h-.1Zm6.1-1 .1-.3.4.1-.1.4h-.1l-.3-.1Zm-5.5-.5a.3.3 0 0 1 0-.4c.1 0 .3-.1.4 0 .1.1.1.3 0 .4h-.4Zm4.5-.5c0-.1-.1-.3 0-.4 0-.1.2-.2.3 0 .2 0 .2.2.1.3l-.2.1h-.2Zm-3.2-.5c0-.2 0-.3.2-.4.1 0 .3 0 .3.2 0 .1 0 .3-.2.3l-.3-.1Zm1.8 0a.3.3 0 0 1-.2-.4l.3-.2c.1 0 .3.2.2.3 0 .2 0 .2-.2.2Z" fill="#FFDD50"/><path d="m151.1 43.4-.7-1.8h-.5v1.8h-.8v-4.5h1.4c.8 0 1.2.4 1.2 1.2 0 1-.6 1.1-.6 1.1l.8 2.1h-.8Zm-1-4h-.1V41h.4c.2 0 .5-.2.5-.7 0-.6-.3-.7-.8-.7ZM153.7 43.5c-.9 0-1.4-.6-1.4-1.7v-1.5c0-.9.6-1.5 1.4-1.5.9 0 1.4.6 1.4 1.5v1.5c0 1.1-.4 1.7-1.4 1.7Zm0-4c-.3 0-.5.4-.5.7V42c0 .3.2.7.5.7.4 0 .6-.4.6-.7v-2c0-.2-.2-.6-.6-.6Z" fill="#fff"/><path d="M191 40c.4-.3.6-.9.6-1.6 0-.8-.2-1.3-.7-1.7-.4-.4-1-.6-1.7-.6l-1 .1a4.6 4.6 0 0 0-1 .7h-1.3l-.1-.3.4-5.3.1-.3h6l.1.3V32.2l-.4.1h-4.4l-.3 2.8c.6-.3 1.2-.4 1.9-.4s1.4.1 2 .4a3.5 3.5 0 0 1 1.9 3.3c0 .7-.2 1.4-.6 2-.3.5-.8.9-1.3 1.2a4.5 4.5 0 0 1-3.9 0c-.6-.2-1-.5-1.4-1-.4-.5-.6-1-.6-1.6l.1-.2.3-.1H186.6l.2.3c.1.5.4.9.9 1.2.4.3 1 .4 1.5.4.7 0 1.3-.2 1.7-.5ZM181.6 40c.5-.3.7-.9.7-1.6 0-.8-.3-1.3-.7-1.7-.5-.4-1-.6-1.7-.6l-1 .1a4.6 4.6 0 0 0-1 .7H176.5v-.3l.4-5.3.1-.3h6l.1.3v.6l-.1.3-.3.1h-4.4l-.3 2.8c.5-.3 1.1-.4 1.9-.4.7 0 1.3.1 2 .4a3.7 3.7 0 0 1 2 3.2c-.2.8-.3 1.5-.7 2-.3.6-.8 1-1.4 1.3a4.5 4.5 0 0 1-3.9 0c-.5-.2-1-.5-1.3-1-.4-.5-.6-1-.6-1.6l.1-.2.2-.1h1l.1.3c.2.5.5.9 1 1.2.4.3.9.4 1.5.4.7 0 1.2-.2 1.7-.5ZM195.2 35.1a2.7 2.7 0 0 1 0-2.8c.4-.5.8-.8 1.4-1.1a4 4 0 0 1 1.8-.4 4 4 0 0 1 1.8.4c.5.3 1 .6 1.3 1.1a2.8 2.8 0 0 1 0 2.8 3 3 0 0 1-.8 1c.5.4.8.8 1 1.2.4.5.5 1 .5 1.5a3 3 0 0 1-.5 1.6c-.3.5-.8 1-1.4 1.2-.5.3-1.2.5-2 .5-.7 0-1.3-.2-2-.5-.5-.3-1-.7-1.3-1.2a3 3 0 0 1 0-3.1c.2-.4.6-.8 1-1.1a3 3 0 0 1-.8-1Zm4.4 5.3c.4-.2.7-.4.9-.7a1.6 1.6 0 0 0 0-1.9c-.2-.3-.5-.5-.9-.7a3 3 0 0 0-1.2-.2 3 3 0 0 0-1.3.2 2 2 0 0 0-.8.7 1.6 1.6 0 0 0 0 2l.8.6c.4.2.8.2 1.3.2.4 0 .8 0 1.2-.2Zm.3-5.4a1.4 1.4 0 0 0 0-2.3c-.4-.4-1-.5-1.5-.5-.6 0-1.1.1-1.5.5a1.4 1.4 0 0 0 0 2.3c.4.3.9.5 1.5.5s1-.2 1.5-.5ZM216.1 33.8l-.2.1H215l-.2-.3-.9-1c-.4-.3-.9-.4-1.5-.4s-1.2.1-1.6.4c-.4.3-.6.7-.6 1.2 0 .4 0 .7.3.9l1 .6 1.9.6c1.1.3 2 .7 2.4 1.1.5.5.8 1 .8 1.9 0 .6-.2 1.2-.6 1.6-.3.5-.8.9-1.4 1.2a5.4 5.4 0 0 1-4.2 0c-.6-.4-1.1-.7-1.5-1.2-.3-.4-.5-1-.5-1.4V39l.3-.1H209.6l.2.3c.1.4.5.7.9 1 .4.4 1 .5 1.8.5.7 0 1.3-.1 1.8-.5.6-.3.8-.7.8-1.3 0-.3-.1-.6-.4-.8-.3-.3-.6-.5-1.1-.6l-2-.6c-1-.3-1.8-.7-2.2-1.2-.4-.5-.7-1-.7-1.8 0-.6.2-1 .4-1.5.3-.5.7-.9 1.3-1.1.5-.3 1.2-.5 2-.5.7 0 1.4.2 2 .5.6.3 1 .7 1.3 1.2.4.4.5.8.5 1.2v.2ZM226.3 31.4c.2-.3.4-.5.7-.5h.6s.2 0 .3.2V41.8l-.3.1h-.7l-.2-.1-.2-.3V34l-2.3 4.7-.3.4-.4.1h-.9c0-.2-.2-.3-.3-.5L220 34v7.8h-1.3l-.1-.3V31.3l.1-.3H219.5c.3 0 .5 0 .7.4l3 6.2 3.1-6.2ZM230.6 31.3l.1-.3H235.1c.8 0 1.5 0 2 .4.5.3.8.7 1 1.2.2.4.3.8.3 1.3 0 .6-.1 1-.4 1.4a3 3 0 0 1-.8.8c.5.3.8.6 1 1 .4.5.5 1 .5 1.6a3.1 3.1 0 0 1-1.6 2.7c-.5.3-1 .5-1.8.5H231s-.2 0-.3-.2V31.4Zm1.5 4.2h2.8c.7 0 1.2-.1 1.6-.4.3-.3.5-.7.5-1.2s-.2-.9-.5-1.2c-.4-.2-.9-.4-1.6-.4h-2.8v3.2Zm0 5h3c.7 0 1.2-.2 1.6-.5.3-.4.5-.8.5-1.3s-.2-1-.5-1.3c-.3-.3-.9-.5-1.5-.5H232v3.6Z" fill="#1D2028"/><path d="m162 31.3.1-.3H166.5c.8 0 1.4 0 2 .4.4.3.8.7 1 1.2.2.4.3.8.3 1.3 0 .6-.1 1-.4 1.4a3 3 0 0 1-.8.8c.5.3.8.6 1 1 .3.5.5 1 .5 1.6a3.1 3.1 0 0 1-1.6 2.7c-.5.3-1 .5-1.8.5h-4.3c-.1 0-.2 0-.3-.2l-.1-.3v-10Zm1.4 4.2h3c.6 0 1.1-.1 1.5-.4.3-.3.5-.7.5-1.2s-.2-.9-.5-1.2c-.4-.2-.9-.4-1.6-.4h-2.9v3.2Zm0 5h3.2c.6 0 1.1-.2 1.5-.5.3-.4.5-.8.5-1.3s-.2-1-.5-1.3c-.4-.3-.9-.5-1.5-.5h-3.2v3.6Z" fill="#1D2028"/></svg>
