<svg width="8" height="5" viewBox="0 0 8 5" fill="none" xmlns="http://www.w3.org/2000/svg">
<path d="M0 4.51826C0 4.59744 0.0301019 4.67338 0.0836838 4.72936C0.137266 4.78535 0.209938 4.8168 0.285714 4.8168H7.71429C7.79006 4.8168 7.86274 4.78535 7.91632 4.72936C7.9699 4.67338 8 4.59744 8 4.51826V1.39844C8 1.12229 7.77614 0.898438 7.5 0.898438H0.5C0.223858 0.898438 0 1.1223 0 1.39844V4.51826ZM0.482919 1.48903C0.482919 1.44944 0.49797 1.41148 0.524761 1.38348C0.551552 1.35549 0.587888 1.33976 0.625776 1.33976H1.55435C1.59224 1.33976 1.62857 1.35549 1.65536 1.38348C1.68215 1.41148 1.69721 1.44944 1.69721 1.48903V4.23067C1.69721 4.27026 1.68215 4.30823 1.65536 4.33622C1.62857 4.36422 1.59224 4.37994 1.55435 4.37994H0.625776C0.587888 4.37994 0.551552 4.36422 0.524761 4.33622C0.49797 4.30823 0.482919 4.27026 0.482919 4.23067C0.482919 4.19108 0.482919 1.48903 0.482919 1.48903Z" fill="currentColor"/>
</svg>
