<svg width="26" height="26" viewBox="0 0 26 26" fill="none" xmlns="http://www.w3.org/2000/svg">
    <circle cx="13" cy="13" r="13" fill="currentColor"/>
    <path fill-rule="evenodd" clip-rule="evenodd" d="M8.71424 8.71425C9.10477 8.32372 9.74507 8.31658 10.1356 8.70711L17.2923 15.8638C17.6828 16.2543 17.6757 16.8946 17.2852 17.2852V17.2852C16.8946 17.6757 16.2543 17.6828 15.8638 17.2923L8.70711 10.1356C8.31658 9.74507 8.32372 9.10477 8.71424 8.71425V8.71425Z" fill="white"/>
    <path fill-rule="evenodd" clip-rule="evenodd" d="M8.71496 17.2858C8.32443 16.8952 8.31729 16.2549 8.70782 15.8644L15.8645 8.7077C16.255 8.31718 16.8953 8.32431 17.2859 8.71484V8.71484C17.6764 9.10536 17.6835 9.74566 17.293 10.1362L10.1363 17.2929C9.74578 17.6834 9.10548 17.6763 8.71496 17.2858V17.2858Z" fill="white"/>
</svg>
