<svg width="228" height="200" viewBox="0 0 228 200" fill="none" xmlns="http://www.w3.org/2000/svg"><g clip-path="url(#a)"><path d="M155.5 158.6c40 0 72.4-4.6 72.4-10.3 0-5.7-32.4-10.4-72.4-10.4-40 0-72.5 4.7-72.5 10.4s32.4 10.3 72.5 10.3Z" fill="#D4D4DD"/><path d="m102.2 82-.6 2.4-1.4.7-5.4-.1c-4.9-.1-5.8-.6-6.7-1.6-1-1-1-2.9-.8-4V79c1.5-3.5 7.8-4 9.8-3.9 2 .1 3 2 3.4 3.2.4 1.2.3 3.2.3 3.2h1.2l.2.3Z" fill="#69AAD8"/><path d="m102.2 82-.6 2.4-1.4.7-5.4-.1c-4.9-.1-5.8-.6-6.7-1.6-1-1-1-2.9-.8-4 .9 1.7 2.8 4 6 4.3a14 14 0 0 0 8.5-2.1h.2l.2.3Z" fill="#5097C3"/><path d="M98.2 76c-.6-.5-4-.5-6 .2-2 .6-1.5 1.3-1.2 1.4.4 0 3.5-1.5 5.5-.8 2 .6 2.3-.2 1.7-.7Z" fill="#8FC5E5"/><path d="m221.8 82.5-.6 1c-1 1-1.8 1.4-6.7 1.5H209l-1.3-.6h-.1l-.3-1.2V83l-.3-1 .2-.5h1.3s-.1-2 .3-3.1V78c.5-1.1 1.5-2.7 3.3-2.8.9-.1 2.3 0 4 .3 2.3.4 5 1.5 5.8 3.6.2.9.2 2.3-.2 3.4Z" fill="#69AAD8"/><path d="M216.2 76.5h-.6l-.6-.2c-1.4-.4-1.9 1-4 2.3-.9.6-1.7.2-2-.6.4-1.2 1.3-2.7 3.2-2.9.8 0 2.3 0 3.9.3.6.7.7 1.2 0 1.1Z" fill="#7DBBE0"/><path d="m221.8 82.5-.6 1c-1 1-1.8 1.4-6.7 1.5H209l-1.3-.6-.4-1.3V83s.8.2 1.4-.2c0 0 3 1.6 8.1 1.4 2.4 0 4-.8 4.9-1.6Z" fill="#5097C3"/><path d="M217.3 114c.3 0 .5.2.5.6v33.1a3 3 0 0 1-2.9 3h-15a3 3 0 0 1-2.9-3v-13.4l20.3-20.3ZM92 114c-.4 0-.6.2-.6.6v33.1a3 3 0 0 0 2.9 3h15a3 3 0 0 0 3-3v-13.4L91.8 114Z" fill="#262A56"/><path d="M216.7 133.6c-1.2 2.6-6.6 4.7-6.6 4.7L197 141l-48 .8s-15.5-.5-26.1-.2c-10.6.4-26.2-5-26.2-5l-.9-.3-1.9-1.1-1.3-1.7c-1.4-9-2.3-25.3-1.6-31.1.3-2.7 1-4.5 2.1-6.3l2.5-3.7c1-1.5 2.2-3.2 3.5-5.5 4.5-7.6 4.5-9.9 9.7-19.8 5.2-9.9 5-10.5 7.8-12.8 3.1-2.6 8.6-4.1 18.7-4.9A276.7 276.7 0 0 1 159 49c19.7.3 30.8 2 33.2 4.3 2.6 2.5 3.2 4 8.3 14 5.2 9.9 5.3 12 9.7 19.7 4.4 7.6 7.4 9.2 8.1 15.5.6 5.8-.2 22-1.6 31.1Z" fill="#69AAD8"/><path d="M155 139.5h-.3v-.3h.4v.3h-.1Z" fill="#000"/><path d="m207.7 102.6-8.5 4.9-8 4.4s-3.2 1.8-36.2 1.8h-.7c-33 0-36.3-1.8-36.3-1.8l-8-4.4-8.5-4.9v-7.1c-.2-8 3.5-15.8 3.5-15.8h99.2a49.7 49.7 0 0 0 3.5 16.4v6.5ZM207.8 102.6s0 .2 0 0Z" fill="#7DBBE0"/><path d="M192.6 121.9c-4.7-2.5-10.6-1.3-21-1-9 .2-15.7 0-17.4 0h-.2c-1.3 0-8.2.2-17.5 0-10.5-.3-19.9-.7-24.7 1.5-8 3.9-13.4 0-11.4-5.7.8-2.2 0-8.5 0-8.5l24.6-13 29 7 29-7 24.5 13s-.7 6.2 0 8.5c1.6 5-8 8.7-14.9 5.2Z" fill="#7DBBE0"/><path d="m216.7 133.6-.4 1.9s-5.6 8.2-31.5 9l-29.8.8h-.7l-29.9-.8c-25.8-.8-31.5-9-31.5-9l-.3-1.9s3.6 3.1 11.3 3.7l6.8.5c5.8.5 11.8 1 16.7 1.1l27.3.4 27.1-.4c5 0 11-.6 16.7-1l6.8-.6c7.7-.6 11.4-3.7 11.4-3.7Z" fill="#3D80AA"/><path d="M198.5 137.8c-5.8.5-11.7 1-16.7 1.1l-26.8.4h-.7l-26.9-.4c-4.9 0-10.9-.6-16.6-1 .3 0 4.9-.1 6.7-2.7 1.8-2.7 4.8-7.7 9.6-8.1 4.5-.4 25 0 27.6 0 3 0 23-.4 27.5 0 4.8.4 7.8 5.4 9.7 8 1.7 2.7 6.3 2.7 6.6 2.7Z" fill="#4A8EBE"/><path d="M204.6 82.1c-1 .7-39 .3-49.8.4-10.5-.1-49 .3-50.1-.4-1-.6.9-3.3 2.5-6.6l1-2 7.3-14.5c1.8-3.7 6-3.3 6-3.3s16.2-1 32.8-1c16.6 0 33 1 33 1s4.6-.5 6.5 3.3l7.3 14.5 1 2c1.5 3.3 3.6 6 2.5 6.6Z" fill="#282955"/><path d="M91.3 113.3c-.2 0-.2-.2-.2-.3 0 0 1.5-3.6 3.5-5.9 2-2.2 3.4-2.2 3.5-2.2.1 0 .2 0 .2.2 0 0 0 .2-.2.2 0 0-1.4 0-3.3 2a24.7 24.7 0 0 0-3.5 6ZM218 113.3l-.2-.1s-1.5-3.7-3.4-5.8c-1.8-2.1-3.2-2.1-3.3-2.1l-.1-.2.1-.2c.1 0 1.6 0 3.6 2.3 2 2.2 3.5 5.8 3.5 5.9 0 0 0 .2-.2.2ZM155.1 114.6a228 228 0 0 1-29.6-1.7s0-.2.2-.1a286.6 286.6 0 0 0 58 .2c0 .1 0 .2-.2.2-6 1-17.1 1.4-28.4 1.4Z" fill="#4D6E96"/><path d="M213.5 98.4c-2-.3-3.7-.6-5.7-.5V96c0-2.5-.3-5.2-.8-7.5 6.8 4.4 10.2 10.3 6.5 9.8Z" fill="#82B8E0"/><path d="M207.8 96.1v1.8c-4.3 0-9.2 1.3-17.5 6-12.2 6.8-35.7 6-34.1.6 1.5-5.3-.9-4.6-7.3-8.9-6.5-4.2 2.2-8.5 18.4-8.5 16.1 0 15.9-2.4 23-3 6.4-.5 12.3 1.6 16.7 4.5.5 2.3.8 5 .8 7.5Z" fill="#8FC5E5"/><path d="M131.9 135c-1 0-1.8-.8-1.8-1.8v-7.5c0-1 .8-1.8 1.8-1.8h44.8c1 0 1.8.8 1.8 1.8v7.4c0 1-.8 1.8-1.8 1.8h-44.8Z" fill="#262A56"/><path d="M177.7 125.7v7.4c0 .6-.4 1.1-1 1.1h-44.8a1 1 0 0 1-1.1-1v-7.5c0-.6.5-1.1 1-1.1h44.9c.6 0 1 .5 1 1Z" fill="#fff"/><path d="M136.6 124.6v9.6h-4.7a1 1 0 0 1-1-1v-7.5c0-.6.4-1.1 1-1.1h4.7Z" fill="#335CAA"/><path d="M142.6 129.2c-.1.1-.1.3 0 .4l.3.4c.2.2.2.4.2.8s-.1.8-.4 1c-.4.4-.7.5-1.2.5h-2a.3.3 0 0 1-.4-.3v-4.9c0-.2.2-.3.4-.3h1.9a1.5 1.5 0 0 1 1.5 1.5l-.3.9Zm-1.3-1.8h-1.5v1.7h1.5c.2 0 .5 0 .6-.2l.3-.6c0-.3-.1-.5-.3-.6a.9.9 0 0 0-.6-.3Zm.2 4.2c.3 0 .5 0 .6-.3.2-.1.3-.4.3-.6 0-.4-.2-.7-.6-.9H140v1.8h1.6ZM147.7 129c.5 0 1 0 1.3.4.4.3.6.7.6 1.3 0 .5-.2 1-.6 1.2-.3.3-.8.5-1.3.5-.4 0-.8-.1-1.1-.3-.3-.1-.5-.4-.6-.6v-.4h.2c.1-.1.3 0 .4 0 0 .2.1.3.3.4l.7.2c.4 0 .6 0 .9-.2.2-.2.3-.5.3-.8a1 1 0 0 0-.3-.8l-.9-.3h-1.2a.3.3 0 0 1-.3-.3l.1-2.2c0-.2.1-.3.3-.3h2.5c.1 0 .3.1.3.3 0 .2-.2.4-.3.4h-2l-.1 1.5h.8ZM151.9 129c.5 0 1 0 1.3.4.4.3.6.7.6 1.3 0 .5-.2 1-.6 1.2-.3.3-.8.5-1.3.5-.4 0-.8-.1-1.1-.3-.3-.1-.5-.4-.6-.6l.1-.4h.5c0 .2.2.3.3.4l.7.2c.4 0 .6 0 .9-.2.2-.2.3-.5.3-.8a1 1 0 0 0-.3-.8c-.3-.1-.5-.3-.9-.3h-1.2a.3.3 0 0 1-.3-.3l.1-2.2c0-.2.2-.3.3-.3h2.5c.2 0 .3.1.3.3 0 .2-.1.4-.3.4h-2l-.2 1.5h.9ZM156.2 129c.5 0 1 0 1.3.4.4.3.5.7.5 1.3 0 .5-.1 1-.5 1.2-.4.3-.8.5-1.3.5s-.8-.1-1.2-.3l-.6-.6c0-.1 0-.3.2-.4.2-.1.4 0 .4 0l.3.4.8.2c.3 0 .6 0 .8-.2.2-.2.3-.5.3-.8a1 1 0 0 0-.3-.8c-.2-.1-.5-.3-.8-.3h-1.3a.3.3 0 0 1-.3-.3l.2-2.2c0-.2.1-.3.3-.3h2.4c.2 0 .4.1.4.3 0 .2-.2.4-.4.4h-2l-.1 1.5h.9ZM164 131.6c.3 0 .4.2.4.3 0 .2-.1.4-.3.4h-2.7a.3.3 0 0 1-.3-.3v-5c0-.1.1-.3.3-.3h2.6c.2 0 .4.2.4.4s-.2.3-.4.3h-2.2v1.7h2c.2 0 .4.2.4.4s-.2.3-.3.3h-2v1.8h2.2ZM168 132.4a2.8 2.8 0 0 1-3-2.9c0-.8.3-1.5.9-2 .5-.5 1.2-.8 2-.8a2.7 2.7 0 0 1 2.2 1c.2.2.1.4 0 .5h-.1c-.2.1-.4 0-.4 0l-.6-.6a2 2 0 0 0-1-.2 2.1 2.1 0 0 0-2.2 2.1c0 .7.2 1.2.6 1.6a2.2 2.2 0 0 0 2.6.3l.6-.5c0-.2.2-.2.4 0 .2 0 .3.3.1.4-.2.3-.4.5-.8.7-.4.3-.9.4-1.4.4ZM173 132.4c-.5 0-1-.1-1.3-.4-.3-.1-.5-.4-.7-.7l.1-.4h.1c.1-.2.4-.1.4 0 .3.6.8.8 1.4.8l.9-.2c.2-.2.2-.4.2-.7 0-.2 0-.4-.2-.5a5 5 0 0 0-1-.5l-.6-.2c-.1 0-.3 0-.5-.2-.2 0-.3-.2-.4-.3l-.2-.4-.1-.5c0-.5.1-.9.5-1.2.3-.3.7-.4 1.2-.4l1.2.3.5.6c.2.1 0 .4 0 .5h-.1l-.5-.1c-.2-.4-.6-.6-1.1-.6-.3 0-.5 0-.7.2-.2.2-.3.4-.3.7 0 .2 0 .4.2.5l1 .4.3.1.3.1.3.1.2.2c.1 0 .2 0 .3.2l.1.1.2.3v.2l.1.4c0 .4-.2.8-.5 1.1-.2.4-.7.5-1.3.5Z" fill="#262A56"/><path d="m132 127.1.2-.1a.1.1 0 1 0-.2.1ZM132.4 126.4l.2-.1a.1.1 0 1 0-.2.1ZM133.2 125.9a.1.1 0 1 0 0-.3.1.1 0 0 0 0 .3ZM134 125.8l.1-.2-.1-.1a.1.1 0 0 0 0 .3ZM134.8 126.1a.1.1 0 0 0 0-.3.1.1 0 1 0 0 .3ZM135.4 126.7l.1-.1-.1-.2a.1.1 0 0 0 0 .3ZM135.6 127.6v-.2a.1.1 0 1 0 0 .2ZM135.4 128.4l.1-.1-.1-.2a.1.1 0 0 0 0 .3ZM134.8 129a.1.1 0 1 0 0-.2.1.1 0 0 0 0 .3ZM134 129.4l.1-.2-.1-.1-.2.1.2.2ZM133.2 129.2a.1.1 0 1 0 0-.2.1.1 0 0 0 0 .2ZM132.5 128.8a.1.1 0 0 0 0-.3l-.2.1c0 .1 0 .2.2.2ZM132 128l.2-.1a.1.1 0 1 0-.2.1Z" fill="#FDDC51"/><path d="M133.2 132.1s.4 0 .4-.5v-.2s0-.5-.6-.5h-.8v2.3h.4v-1h.3l.4 1h.4l-.5-1Zm0-.5v.2h-.6v-.6h.3s.3 0 .3.3v.1ZM134.7 130.8c-.5 0-.7.3-.7.7v1c0 .4.2.7.6.7h.1c.4 0 .7-.3.7-.6v-1.1c0-.4-.3-.7-.7-.7Zm.2 1.8c0 .2 0 .3-.3.3-.1 0-.2-.1-.2-.3v-1.1c0-.2 0-.3.2-.3h.2l.1.2v1.2Z" fill="#fff"/><path d="M100.1 106.9c-.5.1-.6 1.6.7 2.9 1.3 1.2 5 3.3 8.4 5 3.2 1.6 6.4 2.1 8 1.5 1.7-.5 2-2.6 2-2.6l-10.4-5.5-4.5-1.6-2.5.6-1.7-.3Z" fill="#69AAD8"/><path d="M117.9 115.7c-1.4 1-3.9.2-5.7-.6a104 104 0 0 1-10-5.6c-1.9-1.2-4.4-3.1-4.1-7.2.2-4 3.2-6.7 3.2-6.7 1.8.1 5.7 2.1 10.2 6l.4.4c4.3 3.8 6.6 7.4 7 9.8.5 2.5.3 2.8-1 3.9Z" fill="#F3F3F3"/><path d="M117.9 115.7c-1.4 1-3.9.2-5.7-.6-1.8-.6-7.5-4-9.7-5.3 3.7.8 8.7 1.6 9.4-.2a18 18 0 0 0 0-7.5c4.3 3.8 6.6 7.3 7 9.8.5 2.4.3 2.7-1 3.8Z" fill="#E6E3E1"/><path d="M94.2 100.5c-.3-2-.8-3.3-1.2-4.3l2.5-3.7.1 1c.5 3 .3 5.3 0 7-.1.8-1.3.8-1.4 0Z" fill="#7DBBE0"/><path d="M201 73.5c-6.9-4-24-11.7-49.6-11.2-25.3.7-38.2 7.6-43.3 11.2l7.4-14.5c1.8-3.7 6-3.3 6-3.3s16.2-1 32.8-1c16.6 0 33 1 33 1s4.6-.5 6.5 3.3l7.3 14.5Z" fill="#38385E"/><path d="M209.1 106.7c.6.1.7 1.6-.6 2.9-1.4 1.2-5.1 3.3-8.4 5-3.3 1.6-6.4 2.1-8 1.6-1.7-.6-2-2.7-2-2.7l10.4-5.5 4.5-1.6 2.4.6 1.7-.3Z" fill="#69AAD8"/><path d="M191.4 115.4c1.4 1.1 3.9.3 5.7-.5 1.7-.7 7.5-4 9.6-5.4l.4-.2c1.8-1.2 4.3-3.1 4-7.2-.2-4-3.2-6.7-3.2-6.7-1.7 0-5.6 2.1-10.2 6 0 .2-.2.3-.3.4-4.3 3.8-6.7 7.4-7.1 9.8-.5 2.5-.3 2.7 1.1 3.8Z" fill="#F3F3F3"/><path d="M191.4 115.4c1.4 1.1 3.9.3 5.7-.5 1.7-.7 7.5-4 9.6-5.4-3.6.9-8.6 1.7-9.4-.1a18 18 0 0 1 0-7.6c-4.2 3.9-6.6 7.4-7 9.9-.5 2.4-.3 2.6 1.1 3.7Z" fill="#E6E3E1"/><path d="M154.5 49h4.5a22 22 0 0 1-11.7 3.3c-5.6-.1-16 2.3-19 1-1.3-.6 2-1.9 7-3.8 5.2-.3 11.4-.5 19.2-.5Z" fill="#8FC5E5"/><path d="m101.5 93.7-.2-.2c.3-4.2 1.5-8.4 2.3-10.6 0 0 .1-.1.2 0l.1.2a42.3 42.3 0 0 0-2.4 10.6ZM207.6 93.7l-.2-.2a41.8 41.8 0 0 0-2.1-10.7l.2.1a42.6 42.6 0 0 1 2 10.8Z" fill="#4D6E96"/><path d="M122.6 124.6h-1.5V116c0-2.5 2-4.5 4.4-4.5H141v1.5h-15.4a3 3 0 0 0-2.9 3v8.5ZM140.9 149h-15.4c-2.5 0-4.5-2-4.5-4.4v-9.1h1.6v9.1a3 3 0 0 0 3 3h15.3v1.5ZM186.9 124.6h-1.6V116a3 3 0 0 0-2.9-3h-15.3v-1.5h15.3c2.5 0 4.5 2 4.5 4.5v8.5ZM182.4 149H167v-1.5h15.3a3 3 0 0 0 2.9-2.9v-9.1h1.6v9.1c0 2.5-2 4.5-4.5 4.5Z" fill="#262A56"/><path d="M114.9 86c-4 2.2-4.2 6-.4 9.1 3.8 3 15.2 9.3 16.3 6.6 1-2.7-4.7-10.8-5.8-11.6-1-.8-5.7-5.7-9.5-4.4l-.6.3Z" fill="#8FC5E5"/></g><path opacity=".1" d="M90.8 96.8a50.2 50.2 0 0 0 5.4.8V77.2a.3.3 0 0 0-.3-.3l-5.7-.1.6 20Z" fill="#213D60"/><path d="m90.7 96.8 5.3.2a.6.6 0 0 0 .6-.6V77a.6.6 0 0 0-.6-.6l-5.3-.1v20.5Z" fill="#5681AB"/><path d="m89.8 68.1-7-.4L87 81.4l-9.6-7.1-1.3 8.4-6.6-9.2-4.5 6.6-1.6-9.5-6.9-14.5 12.9 8.5.1-1L72.2 49l5 8.8 7.4-6.5-1.5 9.1h9.7l-8.2 5.1 5.2 2.6Z" fill="#fff"/><path d="M83.5 71.1c-.7 1.3-1.4 2.5-1.6 3.2-.2.6.2-.3-.5-1-.4-.3-1.8-.3-2-.5h-.2l.4-.4.7-.6.3-.4-.2-2.4.2-3.3s2 3 1.7 4.5l1.2 1Z" fill="#FED3C8"/><path d="M84 70.6c-.5 1-1.8 2.7-2 3.6-.1.6-.6 0-1.3-.6-.4-.4-1-.6-1.3-.8a12.3 12.3 0 0 1 .4-.8 1.7 1.7 0 0 0 1-.6l.2-.5c.3-.9.7-1.3.7-1.3s.3 1.3.1 2c-.1.5.2.4.6 0 .3-.4.8-1.3 1.2-1.2l.4.2Z" fill="#EBB9BD"/><path d="M78.5 65.6v9a1 1 0 0 1-1 .9H61.7a1 1 0 0 1-1-1v-8.9a1 1 0 0 1 1-.9h15.8a1 1 0 0 1 1 1Z" fill="#3F6D8E"/><path d="M60.7 74.6v-1.2a1 1 0 0 0 1 .8h15.8a1 1 0 0 0 1-.8v1.2a1 1 0 0 1-1 .9H61.7a1 1 0 0 1-1-1Z" fill="#365E7D"/><path d="M77.4 63.6v.8a.3.3 0 0 1-.3.3h-2a.3.3 0 0 1-.3 0 .3.3 0 0 1 0-.3v-.8a.3.3 0 0 1 .2-.2h2a.3.3 0 0 1 .4.2Z" fill="#477B9E"/><path d="M64 69.4V72a.8.8 0 0 0 1 .8h4.7a.8.8 0 0 0 .9-.8v-2.7a.8.8 0 0 0-.9-.9H65a.8.8 0 0 0-.8.9Z" fill="#3D4C70"/><path d="M70.6 70v-.6a.8.8 0 0 0-.9-.9H65a.8.8 0 0 0-.8.9v.7a.8.8 0 0 1 .8-.9h4.8a.8.8 0 0 1 .9.9Z" fill="#324059"/><path d="M60.7 65.6V67h17.8v-1.4a.9.9 0 0 0-.9-.9h-16a.9.9 0 0 0-.9 1Z" fill="#DBEDFF"/><path d="M71.7 65.6v9a.9.9 0 0 0 1 .9h1.9a.9.9 0 0 1-1-1v-8.9a.9.9 0 0 1 1-.9h-2a.9.9 0 0 0-.9 1Z" fill="#365E7D"/><path d="M69.6 63.1H65a1 1 0 0 0-1 1v1.1c0 .5.5 1 1 1h4.6c.6 0 1-.5 1-1v-1.1c0-.6-.4-1-1-1Z" fill="#477B9E"/><path d="M64.4 64.7v.8a1 1 0 0 0 1 .9h4.5a1 1 0 0 0 1-1v-.7h-6.5Z" fill="#477B9E"/><path d="M66.2 64.3v.7a.4.4 0 0 0 .2.3h1.7a.4.4 0 0 0 .4-.3v-.7a.4.4 0 0 0-.4-.4h-1.5a.4.4 0 0 0-.4.4Z" fill="#3D4C70"/><path d="M75.8 64.7h1.3a.3.3 0 0 0 .3-.3v-.8a.3.3 0 0 0-.2-.2H75.8a.3.3 0 0 1 .3.2v.8a.3.3 0 0 1-.3.3Z" fill="#3F6D8E"/><path d="M75.7 75.5h2a.9.9 0 0 0 .8-1v-8.9a.9.9 0 0 0-.9-.9h-2a.9.9 0 0 1 1 1v8.9a.9.9 0 0 1-1 .9Z" fill="#365E7D"/><path d="M68.5 64.8v-.5a.4.4 0 0 0-.4-.4h-1.5a.4.4 0 0 0-.4.4v.5a.4.4 0 0 1 .4-.4H68a.4.4 0 0 1 .4.4Z" fill="#324059"/><path d="m17.9 195 5.7-32.4a.5.5 0 0 1 .6-.3l27.7 4.6 21.4-1h.2l.1.1a.4.4 0 0 1 .2.4c0 1.4-.3 5.8-1 13.8a1440 1440 0 0 0-1.6 18.5l-.4.2a46.9 46.9 0 0 1-22-.4l-.1-.3-1.6-17.6a.5.5 0 0 0-.3-.4h-.2a.5.5 0 0 0-.3.3L41 197.6a.5.5 0 0 1-.5.4 40 40 0 0 1-22.7-2.9v-.2Z" fill="url(#b)"/><path d="M22.3 157.6s-2.5 6 4.6 9.8c7 3.9 13.2 6 23.6 6a84 84 0 0 0 23.1-5c2-.7 2-1.7-.3-2.5a79 79 0 0 0-23.6-4c-15.5 0-27.4-4.3-27.4-4.3ZM24.7 175.9a40.5 40.5 0 0 0-1 6.3V182.8a15.8 15.8 0 0 0 .1 3.2 8.6 8.6 0 0 0 2.7 4.2 7.3 7.3 0 0 0 4.6 1.9c1.7 0 3.3-.5 4.8-1.3l.6-.3.5-.3.8-1c.5-.7.9-1.4 1.2-2.2a58.5 58.5 0 0 0 2.3-10l.1.2a40.7 40.7 0 0 1-16.1-4.6h.3l-.5 1.9-.4-.1.5-2v-.2h.3a40.2 40.2 0 0 0 16 4.6l.1.1v.2a58.3 58.3 0 0 1-2.4 10 12 12 0 0 1-1.2 2.3l-.8 1-.6.3-.6.3a10 10 0 0 1-5 1.3c-1.7 0-3.4-.7-4.7-1.9a8.9 8.9 0 0 1-3-7V182.6h.1V182.1a36.2 36.2 0 0 1 .5-3.8l.4-2.6h.4Z" fill="#20214E"/><path d="M39 180.9c-6.6-.3-13.2-3.2-13.3-3.2l.2-.4s6.6 2.9 13.2 3.2v.4ZM25 177.8h-.3l.2-.7h.2l-.2.7ZM31.7 191.1h-.5v-.2h1.3v.2h-.8Zm-1.8-.1-1.2-.4v-.2l1.3.3v.3Zm4-.2v-.2l1.1-.5.1.2-1.2.5Zm-6.4-.8-1-.9.1-.1 1 .8-.1.2Zm8.7-.5-.1-.1.9-1 .1.2a8 8 0 0 1-.9 1ZM25.7 188c-.3-.3-.5-.7-.6-1.1l.2-.1c.1.4.3.8.6 1.1l-.2.1Zm12.2-.5h-.2l.7-1.2h.1c-.1.5-.4.9-.6 1.2Zm-13.2-2-.2-1.2h.2l.2 1.2h-.2Zm14.3-.4H39l.3-1.3h.2c0 .5-.2 1-.4 1.3ZM24.3 183v-1.3h.2v1.3h-.2Zm15.4-.4h-.2l.2-1.3h.2c0 .4 0 .9-.2 1.3Zm-15.1-2.2h-.2l.1-1.4h.2l-.1 1.4ZM40 180H40v-.7h.2v.7ZM68 177.2l.5 2.5c0 .9.2 1.7.3 2.6l.1 1.3v.2h.1v1.1c0 .8 0 1.7-.2 2.5a8.9 8.9 0 0 1-2.7 4.4 7.5 7.5 0 0 1-4.8 1.9 10 10 0 0 1-5-1.3c-.2 0-.3-.2-.5-.3-.2 0-.4-.2-.6-.4a5 5 0 0 1-.9-1l-1.1-2.2a59 59 0 0 1-2.4-10v-.2h.1a40.3 40.3 0 0 0 16-4.6l.2-.1v.2l.6 2h-.4l-.5-1.9.3.1a40.7 40.7 0 0 1-16.2 4.6l.2-.2a55.4 55.4 0 0 0 2.3 10c.3.8.7 1.5 1.2 2.2l.8 1 .5.3.5.3c1.5.8 3.2 1.3 4.9 1.3 1.7 0 3.3-.7 4.6-1.9a8.6 8.6 0 0 0 2.7-4.2 9 9 0 0 0 .1-2.5v-1.3a29.7 29.7 0 0 0-1-6.3l.3-.1Z" fill="#20214E"/><path d="M53.3 182.3v-.4c6.6-.3 13.2-3.1 13.2-3.1l.2.3s-6.7 2.9-13.4 3.2ZM67.4 179.2v-.6h.1l.2.6h-.3ZM60.7 192.5h-.9v-.2h1.3v.2h-.4Zm1.8-.1v-.2a7 7 0 0 0 1.1-.4l.1.2a7 7 0 0 1-1.2.4Zm-4-.2-1.2-.5v-.2l1.3.5-.1.2Zm6.4-.8-.1-.2 1-.8.1.1a6 6 0 0 1-1 .9Zm-8.7-.4-1-1 .2-.1 1 .9-.2.2Zm10.5-1.6h-.2l.6-1.2h.2l-.6 1.3Zm-12.2-.5-.7-1.1.2-.1.6 1.1-.1.1Zm13.2-1.9h-.2l.2-1.3h.2l-.2 1.3Zm-14.4-.4-.4-1.3h.3l.3 1.2h-.2Zm14.8-2.2h-.3V183h.3v1.3Zm-15.4-.4-.3-1.3h.3c0 .4 0 .8.2 1.3h-.2Zm15.1-2.2-.1-1.3h.2l.1 1.3h-.2ZM52.3 181.4v-.7h.2v.7h-.2Z" fill="#20214E"/><path d="M.1 138v-1H0v1.6h.1v-.6Z" fill="#F4CCC2"/><path d="M.1 138.6H0v.4l.3.2-.2-.6Z" fill="#FDFDFD"/><path d="m5.2 137.1 1.3-.3c.7 0 1.1-.4 1.5-.9.7-.9 1.4-1.8 2.3-2.5.3-.2.6-.4 1-.3a.7.7 0 0 1 .5.8c0 .4.1.3.4.3 1.8-.3 2.7-1.8 3.8-3 1.9-2.2 3.6-4.5 5.3-6.9 1-1.5 2-3.2 3.2-4.7.5-.7 1-1.5 2-1.5.4-.1.4-.6.8-.7.3-1.2.8-2.4 1-3.6.2-.8.8-1.2 1.8-1.1l.2-.1.2-.7c.4.3.3.7.3 1 1 2.1.5 4.1 0 6.2l-.1.2c-1 2-.5 3.8.2 5.6 1 2.7 3 4.6 5.4 6a34.6 34.6 0 0 0 7.4 3.4l3-5.3 1.4-2.8c.2-.3.3-.5.7-.7-.5 1.5-1 3-1.7 4.3l-2.3 4.9c.1.3.4.3.6.3l4.2 1.5c1.3.6 2.6.5 3.9.2 3-.6 5.9-1.4 8.7-2.4.2 0 .5 0 .6-.4-1.4-3.4-3-6.8-5.4-9.7.2 0 .3.2.4.3 2.5 2.5 4.5 5.3 6.2 8.3-.6-.4-1-1.1-1.7-1.4l1 2.4c1 0 1.8-.6 2.6-1 3-1.2 6-2.9 8.8-4.6 0-.3-.1-.5.1-.7.2-1.8.3-3.5.3-5.3a3 3 0 0 0-.6-1.7 18 18 0 0 1-2.7-5.9c-1-.8-1-1.9-.2-2.7 0-.2.2-.2.4-.2 1 0 2 .4 2.8.8.2 0 .4.2.6 0 .6-.4 1.4-.5 2.1-.7 2-.8 3.6-2 5.2-3.2-.2-.3-.6-.3-.8-.7 1.2-.5 2.2-1.3 3.5-1.3.3 0 .5 0 .8-.2.1-.4 0-.8.4-1.2a1 1 0 0 0 .5-.6 2 2 0 0 1 1.6-1.5c.5-.1 1-.3 1.3-.7 1.8-1.8 3.8-3.5 5.6-5.4 2.2-2.3 4.5-4.6 6.4-7.3 1.1-1.6 2-3.3 2.9-5.2l1.9-4.3.2-.1c-.3-.5-7.3-7.2-7.8-7.3a80 80 0 0 1-6.7-3.4l-.4-.1a.2.2 0 0 1-.2.1 3 3 0 0 1-.8-.2c-1-.5-2-.6-3 0-.2.1-.5.1-.6-.2 0-.3-.5-.4-.4-.8l-.2-.1c-.2 0-1.5-.1-2 .2a17 17 0 0 0-1.9 3l-.3.6c.3-.1.4-.5.8-.6a.6.6 0 0 1-.2.5c-1 1.4-1.7 3-2.2 4.7v1l1.1-2 1.7-2.2c.1-.2.3-.2.5-.3l1.6-1.6c.3-.5.8-1 1.4-1.2-.3.6-.9 1-1.2 1.4l-.3.2c.2.3 0 .4-.1.6-1.1 1.2-2 2.7-2.6 4.3-.5 1.2-.6 2.5-.8 3.8v.9A4 4 0 0 0 84 83c1.6 1-.4.4 1.3 1.3 1 0 1.8-.4 2.4-1.2.5-.7 1-1.3 1.6-1.8a3.1 3.1 0 0 1 2.9-.7l.8-.4s.2-.1.2 0l-.1.3c.3.4.8.2 1.1.4l1 .3c0 .3-.2.2-.3.2-1.6.1-3 .7-4.3 1.6l-.3.2c-.3.5-1.7-.2-2.1.2.2.2-.8-.6-.9.8-.3-.5-1 2.9-.8 2.2-1 1.3-1.5 2.9-2 4.4-.3-.2-.2-.4-.2-.6.1-.5.2-1 0-1.5 0-.6-.3-.8-.9-.6-.6 0-1.1.5-1.5 1-.2-.2 0-.4 0-.5-.7.8-1.5 1.1-2.5 1.4l-.6.3c.2 0 .5.1.2.3l-2.2 1.5c-.6.3-.6.3-.9 1l-.3.3a8.2 8.2 0 0 0-3 3.6v.2c-.4 1.2-1 2.2-1.1 3.5a9 9 0 0 0 .2 4.5v.8c-.3-.3-.5-.7-.6-1a9.2 9.2 0 0 1 0-4.8c.2-1.4.6-2.7 1.3-3.9L73 95c-.6.3-.7.8-1 1.2l.6-1.7c.3-.4.6-.9-.2-1-.1-.1 0-.3 0-.4H72c-.9.5-1.8 0-2.7 0-.3 0-.6.1-.8-.1H68c-.4.2-.7.4-1.1 0a.5.5 0 0 0-.4.1c-.9.7-1.8 1.4-2.9 1.7-1.3.4-2.6 1-4 1.3l-1.5.1c0 .1-.1 0-.1 0h-.3l2-.4A24.2 24.2 0 0 0 66 93c-.5-.7-1.2-1.3-1.9-1.9a1.3 1.3 0 0 0-1.5-.1c-.4.3-.8.4-1.3.5-1 .2-2.2.5-3.3.5-2 .2-4.2.3-6.3 0-2 0-3.9-.5-5.7-1.3l-.6-.6-1 .1c-1.1.3-1.8 1.1-2.5 1.9.6 0 .9-.5 1.3-.7-.1.5-.9.6-.8 1 .1.4.4.8.3 1.2-.9-.3-1.7-.7-2.6-.6-.4 0-.7 0-1 .2-.2 0-.4 0-.4-.2-2 .4-3.8 1.2-5.8 1.5-1.5.2-3 .6-4.5 1a8.6 8.6 0 0 1 2 5.2l.2 3.1.1 3.7a1.4 1.4 0 0 1-.3 1c-.1-.9-.2-1.8-.1-2.7 0-1.3 0-2.6-.2-3.9-.3-1-.3-2-.5-3-.1-.7-.5-1.2-.7-1.7l-.7-1.7c-.4 0-.8.2-1.2.5-1.6 1-3.1 2.3-4.4 3.7a78.5 78.5 0 0 0-6.7 8.4c-1.4 2-2.6 4.2-4.3 6-.4.3-.7.8-.8 1.3.7.5.2 1 0 1.5l-1.4 2.6-2.7 6.9c-.3.8-.9 1.4-1.3 2-.9 1.3-2 2.4-2.7 3.7l-1.2 1.6c-.1.2-.2.3-.4 0l-1 3a5 5 0 0 0 5 .4Zm50-40.7c0 .2-.3.1-.5.1h-4c-.7 0-1.3-.2-2-.4a31 31 0 0 1-5-2 .8.8 0 0 1-.2-.5c3.7 2 7.7 2.7 11.8 2.8Z" fill="#F25833"/><path d="M21.3 163c.6.6 1 .6 1.5 0l1-.8c.2-.2.2-.4.2-.6v-2.9c0-.6 0-1.2.2-1.7a1.1 1.1 0 0 0-.3-1 6 6 0 0 1-1.2-4c0-.7.3-1.3.6-1.8.2-.5.3-1 .2-1.6-.2-1-.2-2-.2-2.8 0-1-.4-1.9-1-2.7l-2-3.8c-.3-.4-.6-.7-.8-1.2.3 0 .5.4.7.5l-.7-1.2c-.2-.3-.1-.5 0-.6-.3 0-.6.3-1 0s-.7-.7-.9-1.2c0-.1-.1-.3 0-.4.3-.1.3.1.4.2l.4.6c.3.4.7.6 1.3.3.2 0 .4-.2.5 0a23 23 0 0 0 4.3-5.4c.5-.7.8-1.5 1.4-2.1-.3-1.8 0-3.5.3-5.2.4-1.8 1-3.5 1.7-5.2 0-.2.1-.7.4-.5.3 0 0 .4 0 .7-1 2.6-1.7 5.3-2 8-.2.7.2 1.5.1 2.2 0 .9.1 1.8.5 2.6.1.2.2.5.1.7-.2 0-.1-.2-.3-.2l-.1.4c-.3-.3-.1-.8-.6-1-.3 2-.6 4-1.1 6a45.4 45.4 0 0 0-1 6l.1 1-.1 1.6c-.1 1 .1 1.8.3 2.8l.8-.7h.6c.1.3-.1.5-.3.6-.4.1-.4.3-.3.7a3.4 3.4 0 0 0 3.4 2.5c.3 0 1-.3 1 .2s-.7.5-1.1.5c-2.1-.2-3.5-1-3.8-3.1v-.3a5.1 5.1 0 0 0-1.2 4.2 6.3 6.3 0 0 0 2.4 3.7l-.2.1c-.8-.2-.8-.2-.7.6l-.2 1.2c0 1.3.3 2.6.2 4a.7.7 0 0 0 .2.6c1 .8 2.1 1.5 3.3 2.2V163c-.5-.6-.5-1 0-1.5.2.1.1.3.1.5h.3c0-.8.3-1 1-.7 4.5 1.7 9 3.1 13.6 4 .2 0 .5 0 .7.2h.2c2 .3 3.8.4 5.7.5h4.3c.2 0 .5 0 .5.4.2 0 0-.5.4-.4.2.1.1.4.1.6 0 .6-.1 1.2.1 1.8.2-.7.3-1.3 0-2 0-.3 0-.5.4-.5 1 0 2-.2 3 0 .4-.2.5 0 .5.3 0 .5.3 1 .2 1.6 0 0 .2.1.2.3h-.1c-.2 0 0-.2-.1-.3l-.3.3c-.5.3-1.1.1-1.7.2l-2 .2c-.1.3.1.8-.2.8-.5.1-.3-.5-.5-.8h-3.2c-.6 0-1-.1-.9-.9a1.4 1.4 0 0 0-.2-1.1l-.2 2.2c0 .2-.1.3-.3.3-.2 0-.1-.2-.1-.3v-1.1c-.3.8-.4.8-1.4.7l-3-.2c-.5 0-.8 0-.7-.8.1-.5 0-1-.3-1.4 0 .8.2 1.6 0 2.3 0 .1 0 .2-.2.3-.3-.2-.2-.5-.2-.7 0-.6.1-1.3-.1-1.9v1.5c0 .3-.1.5-.4.4l-4-.6c-.2 0 0-.3 0-.5-.1-.5.1-1.1-.4-1.5-.1.8.2 1.7-.3 2.6-.4-.3-.4-.6-.4-.9.3-.3.1-.7.2-1.1-.3.4-.1.8-.2 1.1l-3.6-1c-.5-.2-.8-.4-1-.9-.1.5 0 1-.2 1.6 0 .1 0 .3-.2.3s-.1-.2-.2-.4c0-.5 0-1 .2-1.5-.2.3-.4.2-.6.1l-3.1-1.1c-.6-.2-.6-.7-.7-1 0-.3 0-.5-.2-.6v2.8c0 .5.2.7.6.9a56.5 56.5 0 0 0 16.7 3.4l5.2.4c1.4.1 2.8 0 4.3-.2l3-.2 4.4-.6c2.6-.3 5.2-1 7.9-1.3 1-.2 2.1-.7 3.2-.8l.2-.1c.5-2.3 1.1-4.5 1.3-6.8 0-.2.2-.7-.1-.8-.3-.2-.5.2-.8.4a15 15 0 0 1-5.4 2.2c-2.9.6-5.7 1-8.6 1a.7.7 0 0 1-.6.2l-5.7.4h-2a7 7 0 0 0 3.4-1.9h-.3c-2.1.8-4.3.5-6.6.4l-3.6-.3c-1.3-.1-2.5-.6-3.7-1-.7-.4-1.5-.5-2.2-1-1.2-.7-2-1.8-2.9-3-.2-.3-.6-.7-.6-1 0-.4.7-.4 1-.6a12 12 0 0 0 4.6-4c.2-.4.6-1 .2-1.2-.4-.3-.5.4-.8.6l-.2.2c-.5.7-1.2.6-1.9.8a10.9 10.9 0 0 1-3.4.3h-.1a6 6 0 0 1-2 .2c-.7 0-1.5-.3-2.1-.8l-1.4-1.2c-1.2-1.5-2-3.2-2.3-5-.2-1-.5-2-.4-3 0-1.5.3-2.8 1.2-4 .2-.3.6-.6 1-.7 1.1-.4 2.3-.2 3.4-.6l.5-.2c-1.1-.5-1.7-1.5-2.3-2.4-1.3-2-1.8-4.1-1.8-6.4v-1.3c0-4.3.2-8.5 1.6-12.7 0-.2 0-.5.2-.7 0-.3 0-.7-.3-1l-.2.7c-.7 1.2-1 2.6-1.8 3.8 0 .5-.4.8-.7 1.3.2-.5.3-1 .7-1.3 0-.4 0-.5-.4-.2s-.4.9-.9 1.2c-.3.1-.4.6-.7.7l-1.6 2.5a27.1 27.1 0 0 0-3 5.6c.5-1.3.7-2.8 1.5-4-.8.6-1 1.5-1.5 2.3-1 2.2-1.3 4.5-2 6.8-.1.9-.5 1.8-1 2.4-.7.7-1.1.6-1.5-.2l-.1-.3c-.5.7-.5 1.5-.6 2.2a10.9 10.9 0 0 0 .7 5v.2a.4.4 0 0 0 .1.5c.3.2.4-.2.6-.3.2.6.2 1.2 0 1.7 0 .2-.1.6.1.7.3 0 .5-.3.6-.5l.4-1.4c.6 1 .8 2.2 1.2 3.3.3 1 .4 2 .4 3.1s-1.1 2-2.2 1.9c-.4-.1-.5 0-.5.3-.3 1.5-2.5 3.2-4.3 2.4-.2 0-.3-.1-.2-.4l.4-.5c.8-.6.9-1.5 1-2.4 0-.3-.2-.5-.4-1-.2.8-.5 1.3-1 1.5l-1.1.2c-1 0-2.2 0-3-.7a6 6 0 0 1-2-2.7l-.6-2c-.1-1.2.3-2.2 1-3.1.1.3-.2.6 0 .9.3 0 .3-.2.4-.3.2-.8.7-1.4 1.2-2 .1-.3.2-.4 0-.6a.4.4 0 0 0-.3-.2.4.4 0 0 0-.3.1l-1 .8c-.7.6-1.5.6-2.3.4a6 6 0 0 0-2.3-.4c-1.7.1-2.7-.6-3-2.3l-.2.3V139.3l.5 1 2.1 3.9c1 1.6 2.1 3 3.1 4.4 1.5 2.5 3.6 4.5 5.6 6.6.2 0 .4.2.4.4l.5.5c2.4 2.6 5 5 8 6.9.4-.4.7 0 1 .2Zm47 1.8c0-.2.1-.4.3-.4.2 0 .2.2.3.3l.2 1.7c0 .2.1.5-.1.6-.3 0-.3-.3-.3-.5a4 4 0 0 1-.3-1.7Zm-3.5.3 1.8-.2c.5 0 1.4.5 1.6.9.3.5 0 .9-.5 1-.7.5-1.6.5-2.4.8-.2 0-.3-.2-.4-.4l-.4-1.6c-.1-.3 0-.4.3-.5Zm-5.1.7 3.9-.4c0-.2 0-.4.2-.3a.4.4 0 0 1 .4.4l.3 1.7c0 .1.4.3 0 .5 0 0 0 .2-.2.3l-.2-.3s0-.2-.2-.3c0 .2 0 .4-.2.4-1.1.1-2.2.4-3.4.4-.2 0-.4 0-.4-.3 0-.6-.2-1.2-.4-1.7 0-.2-.1-.4.2-.4ZM37.1 161c2.4.6 4.9 1 7.3 1.3l4.5.5c.8 0 1.6 0 2.4.4a.6.6 0 0 1-.5.2 56.3 56.3 0 0 1-14.8-2c-2.9-.9-5.7-1.8-8.2-3.7 0 0-.2-.1-.2-.3l.7.2c2.8 1.7 5.8 2.6 8.8 3.4Z" fill="#CA482A"/><path d="M40.5 70c.6.7 1 1.4 1.9 2 .8.4 1.7.6 2.5 0 .7-.3 1.3-.6 1.7-1.3a.3.3 0 0 1 .5-.2v.3c-.5 2.1.2 3.6 2.3 4.5 1.3.5 3.3.5 4.6.1.2 0-.5.5.2.4a4.8 4.8 0 0 0 3.3-2.6l.2-.5c-.3-1.3.2-2.6.7-3.7.5-1.2 1.6-1.8 2.6-2.5.8-.5 1.8-.8 2.8-.7.2 0 .5.2.6-.3 0-.1.3 0 .4 0a9.8 9.8 0 0 1 3.3.3c-1-1-2.3-.9-3.4-1.2h4.8c-.3-.6-.9-.7-1.4-.9-.2-.1-.7 0-.6-.3 0-.4.5-.2.8-.1l1.7.4c-.6-.4-1.3-1-2.2-.8-.2 0-.6.1-.7-.2 0-.4.3-.4.5-.5 1.1-.5 2.3-1 3.3-1.6 1.4-.8 2-2 2-3.7 0-.2-.1-.5.1-.8l-.5-1c-.5-.8-.9-1.6-1.6-2.2l-.2-.1a1 1 0 0 1-.5-.3H69c-.4.1-.6-.2-1-.4-.7-.5-1.4-.8-2.4-.8-.4 0-.7.1-.9.6-.3.8-1 .7-1.7.8l-3 .1c-.6 0-.8.3-.6 1l.4.7c.6.7.5 1.3.1 2-.7 1-1.4 1.4-2.5.8-.9-.4-1.8-.4-2.6-.1-.7.1-.9.7-.9 1.2 0 1.1-.7 1.9-1.4 2.6-.4.3-.8.2-1.2.1-.4-.1-.5-.4-.3-.8.2-.5.7-1 .8-1.6 0-.7 0-1-.7-1-.7-.2-1.3.3-1.4.9v.4c0 1-.8 1.7-1.8 1.5-.7-.1-1.4 0-2 .3-1.5.9-2.6 2.1-2.5 4a10 10 0 0 1-.9 4c-.2.3-.4.5-.9.4-.5 0-.3-.5-.4-.8-.4.4-.9.6-1 1.2a.5.5 0 0 0 .2.4v-.2c.2-.1.2 0 .2.1Zm28.7-9.7c1.3-1.4 1.2-1.6 1.5-2.5.5.8-.5 2.4-1.5 2.5Zm1.7-7.4c0 .5 0 .9.2 1.3l-1-.7c-.4-.2-.7.3-1.2.2.4-.6 1.1-.9 2-.8Zm-10 12-3.3 2.6c.4-1 2.3-2.6 3.3-2.6Z" fill="#2B2B57"/><path d="M50 83.7c.7 0 1.3 0 2 .2l.4.1h.3c.3-.2.7 0 1 0l2-.7c-.1-.2-.4 0-.5-.1 1.6-.3 2.1-1.4 2.7-2.6.3-.8.7-1.6 1.2-2.3.6-1 1.6-2 2.4-3 .7-.8 1.2-1.8 1.3-3 0-.6.3-1.2.7-1.7.4-.5 1-.8 1.5-1 1.2-.3 2 .3 2.3 1.7.3-.3 0-.8.2-1.2 0-.7.2-1.5.5-2.1a1.7 1.7 0 0 1 1.6-1c.3.1.3.3.4.5h.5l.6-.5a3.6 3.6 0 0 0 2-2.8l.3-.5.1-.6c0-.4.1-.9.3-1.3l.1-1.3c0-1 0-1.9-.3-2.8l-.2-1-.3-.6c-.3.2-.2.6-.2.8 0 1.6-.6 2.9-2 3.7-1 .7-2.2 1.1-3.3 1.6-.2.1-.6 0-.5.5.1.3.5.2.7.2 1-.2 1.6.4 2.2.8l-1.7-.4c-.3-.1-.7-.3-.8 0-.1.3.4.3.6.4.5.2 1.1.3 1.4.9H64.7c1.1.3 2.4.1 3.4 1.2-1.1-.3-2.2-.4-3.3-.4l-.4.1c0 .5-.4.3-.6.3-1 0-2 .2-2.8.7-1 .7-2 1.4-2.6 2.5-.5 1.1-1 2.4-.7 3.7l-.1.5a4.8 4.8 0 0 1-3.4 2.6c-.6.1 0-.4-.2-.4-1.3.5-3.2.4-4.6-.1-2-.9-2.8-2.4-2.3-4.5v-.3a.3.3 0 0 0-.4.2c-.4.7-1.1 1-1.7 1.3-1 .6-1.7.4-2.6 0-.8-.6-1.3-1.3-1.8-2 0-.1-.1-.3-.2-.2v.2c0 .9.6 1.6.7 2.5.1.6.5 1 .9 1.5 1 1.2 1.7 2.5 2.2 3.9l1.5 4c.2.5.6 1 1 1.3l.8.3 2.6.2ZM59 69c0 1-.5 1.8-.8 2.5 0-.9.3-1.7.8-2.5Z" fill="#1A1A48"/><path d="M107 90c-.8.2-1.5.6-2.2 1-.1.2-.4.2-.3.5.1.2.4.1.5 0 .8-.1 1.5-.4 2.3-.6-.5.7-.7 1.5-1 2.1-1 2-2.6 3-4.8 3-.9 0-1.7.1-2.6.3 1.4 1 2.8.7 4.3 1-.6.6-1.2 1.1-1.7 1.8-1.8 2.2-4.2 3.8-6.3 5.6-1.2 1-2.4 1.9-3.5 3-.7.7-1.6 1-2.6 1.1-.5 0-1 .2-1.4-.3a3 3 0 0 1-.6-2.1v-.4c.3-.6 0-.8-.6-.7-.2.3-.2.7-.3 1.1-.5 2.3-.9 4.7-2.4 6.6-.9 1.1-2 2.1-3.3 3l-.6.1c-.3 0-.5 0-.5.4 0 .3-.4.3-.6.4h-2.1c-1.1-.2-1.9-.7-2.7-1.3-.5-.4-.7-1-1-1.7l-.5-1.7c0-.4-.3-.3-.5-.5-.2 0-.4 0-.4.2-.2 1 0 1.8.2 2.7a18 18 0 0 0 2.7 6c.4.4.6 1 .6 1.6 0 1.8-.1 3.5-.3 5.3l-.1.6v.2c0 1.2-.4 2.3-.7 3.5-.2.5-.8.9-1.2 1.2-.8.7-1.7 1.3-2.8 1.6 1 .6 2 .3 3 .1l.6-.2c1.2-.3 2.2.5 2.3 1.7.2 1.4.2 2.7.2 4 0 .3 0 .6.2.8 1.2 1.5 1.5 3.3 1.8 5.1l.1.7.2-.1v-.3l.2-1.3v-6.9c0-2-.2-4-.5-6v-2.4l.5-3v-.2l.1-1v-3c0-.8 0-1.6.2-2.3l.3-1c-.1-.5.2-.8.6-1-1 .2-2 .5-3.1.3-1 0-1.8-.4-2.5-1-.1-.2-.3-.3-.1-.5.1-.2.3 0 .4 0a4.9 4.9 0 0 0 6.2-.2c.2-.2.5-.7.6 0l.5-.4c.4-.4.6-1 1-1.1.8-.2 1.3-.7 2-1l.4-.5.3-.2.4-.4.6-.6a4 4 0 0 1 1-.9l3.8-2.8.5-.4 1-.8.5-.4L96 105l.5-.5.5-.4.4-.4 1.1-1 .4-.4.4-.3 1.7-1.6.6-.5 1.1-1.1.4-.4 2.9-2.8.4-.5c.3-.5.5-1 1-1.5l.7-.7.2-.2.7-.8.5-.8.3-.7.3-1.3c.1-.3 0-.6.2-.9 0-.6 0-1.1-.2-1.7l-.2-.5c-.4.4-.4.9-.4 1.3A3.4 3.4 0 0 1 107 90Z" fill="#CA482A"/><path d="m106.8 80.2-2 4.3c-.7 1.9-1.7 3.6-2.8 5.2-1.9 2.7-4.2 5-6.4 7.3-1.8 1.9-3.8 3.6-5.6 5.4-.4.3-.8.6-1.3.7a2 2 0 0 0-1.6 1.5 1 1 0 0 1-.5.6c.5 0 .8.2.6.8l-.1.3c0 .8.1 1.5.6 2.2.4.5.9.4 1.4.3 1-.2 1.9-.4 2.6-1.1 1-1.1 2.3-2 3.5-3 2.1-1.8 4.5-3.4 6.3-5.6l1.7-1.9c-1.5-.2-3 0-4.2-1a12 12 0 0 1 2.5-.2c2.2 0 3.8-1 4.8-3l1-2.1-2.2.7-.6-.1c0-.3.2-.4.3-.5.7-.4 1.4-.8 2.2-1 1.3-.5 2.2-1.3 2.5-2.7 0-.4 0-1 .4-1.3-.4-1-.5-2-1.2-3-.6-.9-1.2-1.9-1.7-3l-.2.2Z" fill="#E55533"/><path d="M41.1 68.4c.2.3 0 .7.4.8.5 0 .8-.1 1-.5v-.2c.5-1.2.9-2.4.8-3.7 0-1.9 1-3.1 2.5-4 .6-.3 1.3-.5 2-.3 1 .2 1.8-.4 1.9-1.5v-.4c0-.7.6-1 1.3-1 .6 0 .8.4.7 1.1 0 .7-.6 1-.8 1.6-.2.4-.1.7.3.8.4.1.9.2 1.2-.1.7-.8 1.4-1.5 1.4-2.6 0-.6.3-1 .9-1.2.8-.3 1.7-.3 2.6.1 1.1.6 1.8.2 2.5-.8.4-.7.5-1.3 0-2-.2-.2-.4-.5-.4-.8-.2-.6 0-.8.6-1h2.9c.6-.1 1.4 0 1.7-.8.2-.5.5-.6 1-.6.9 0 1.6.3 2.4.8.3.2.5.5.9.4a7 7 0 0 0-1.2-1.5 1 1 0 0 1-.5-.6l-.4-.6-.9-1-1.1-.7c-2.2-.7-4 0-5.2 1.8a.6.6 0 0 1-.5.3 6 6 0 0 0-4.4 2.8.6.6 0 0 1-.5.3c-1.7.3-3.2 1.2-4.8 1.7-.8.3-1.4 1-2 1.6 0 .2-.2.4-.4.5-.7.4-1.2 1-1.7 1.6L44 60.4v-.3c0-.5.1-1-.4-1.2-.5-.1-.7.5-.8.9-.1.8-.4 1.4-1.3 1.7-.5.2-.4.5 0 .8.3.2.6 0 1 .2-.8.7-1.5 1.5-2 2.5-.6 1.5-.7 3-.3 4.6 0-.6.6-.8 1-1.2Z" fill="#363666"/><path d="M86.3 168.7h.1Z" fill="#272A56"/><path d="m76.3 158.6.1-.7a.7.7 0 0 1 .5-.4c.6-.2 1.3-.2 1.7-.8-.3-.3-.5 0-.7 0-.9.3-1.7.5-2.4-.3-.1 0-.3-.2-.4 0a.3.3 0 0 0 0 .4l.6.8h.2-.2c-.2 0-.3.2-.5.3-.2 0-.4 0-.3.3 0 .2.3 0 .4.2-1 .8-2.1 1.4-3.3 1.8-2.2.8-4.5 1.3-6.9 1.6-1.2 0-2.5.3-3.7.5-.6.1-1.2 0-1.8.3l.5.1h.5c3 .2 5.8-.3 8.6-.9 2-.4 3.8-1 5.5-2.2.2-.1.5-.5.7-.4.3.1.2.6.2.9-.2 2.2-.8 4.4-1.3 6.7l-.2.2c-1.1 0-2.1.5-3.3.7-2.6.3-5.2 1-7.9 1.3l-4.3.6-3 .3c-1.5 0-3 .2-4.3.1-1.8 0-3.5-.2-5.2-.4l-7.6-1c-3.2-.5-6.1-1.4-9.1-2.4-.5-.2-.6-.4-.6-.9v-2.8l-.1-.4h-.3l-.1 1v2.6a35.8 35.8 0 0 1-3.5-2.5v-.3l-.2-4c0-.4.2-.8.1-1.2 0-.8 0-.8.8-.6h.2a6.3 6.3 0 0 1-2.4-3.8c-.3-1.5.1-2.9 1.1-4.2l.1.3c.3 2.2 1.7 2.9 3.8 3 .4.1 1 .1 1-.4s-.6-.2-1-.2c-1.6 0-2.8-.9-3.3-2.5-.1-.3-.1-.6.3-.7.2-.1.4-.3.3-.5-.1-.2-.4-.2-.6 0l-.8.6c-.2-1-.4-1.9-.3-2.8l.1-1.6v-.9c.2-1.8.5-3.5 1-5.3 0-.2.1-.5-.1-.7-1 1.8-1.3 3.8-1.5 5.9v.1l-3.2-4.8c-.2 0-.4-.4-.7-.5l.7 1.2 2.2 3.8c.5.8.9 1.6.9 2.7 0 1 0 1.9.2 2.8.1.5 0 1.1-.2 1.6l-.6 1.8a6 6 0 0 0 1.2 4 1.1 1.1 0 0 1 .3 1 6 6 0 0 0-.2 1.7v3c0 .1 0 .3-.2.5l-1 .9c-.5.5-1 .5-1.5 0-.2-.2-.5-.6-.8-.2 0 .2.2.3.3.5 1 .8 1.4 1 2.5-.1h.1l.5-.6c.3-.2.3.1.3.3 0 .7.5 1 1 1.4 1.4.9 2.8 2 4.3 2.4 3.6 1.2 7.1 2.3 10.8 2.8a73 73 0 0 0 24.4-.3c2.7-.5 5.4-1 8-1.7h1.4c.2 0 .4 0 .5-.2l.3-.6a1442.4 1442.4 0 0 1 .9-3.4l.4-2.4c0-.9-.1-1.7.1-2.4Z" fill="#BA452B"/><path d="M91 121.3h-.3.3Z" fill="#F8BB5E"/><path d="M80.7 116.9a4.9 4.9 0 0 1-6.2.3c0-.1-.2-.3-.4-.1-.1.2 0 .3.1.4.7.7 1.6 1 2.5 1.1 1 .2 2.1-.1 3.2-.3l1.4-1.2.1-.2c-.2-.8-.5-.2-.7 0Z" fill="#BB452B"/><path d="M87.5 69c.1.3.4.3.6.2 1-.6 2-.5 3 0a3 3 0 0 0 .8.3.2.2 0 0 0 .2-.2l-.4-.3a45.1 45.1 0 0 1-4.6-.8c0 .4.4.5.4.8Z" fill="#BE482D"/><path d="M11.5 155a.6.6 0 0 0 .4.5c0-.2-.2-.3-.4-.4Z" fill="#FDFDFD"/><path d="M.1 138v-.1l.2-.3c.4 1.7 1.4 2.4 3.1 2.3a6 6 0 0 1 2.3.4c.8.2 1.6.2 2.3-.4a15.2 15.2 0 0 1 1.1-.9.4.4 0 0 1 .5.2c.2.2.1.3 0 .5-.5.7-1 1.3-1.2 2 0 .2-.1.4-.4.4-.2-.3.1-.6 0-1-.7 1-1.2 2-1 3.1.1.7.4 1.4.6 2a6 6 0 0 0 2 2.8c.8.7 2 .7 3 .7.3 0 .7 0 1-.2.6-.2 1-.7 1-1.4h.1c.2.4.4.6.3 1 0 .8-.1 1.7-1 2.3l-.3.5c-.1.3 0 .3.2.4 1.8.8 4-.9 4.3-2.4 0-.3 0-.4.5-.3 1 .2 2.1-.8 2.2-1.9 0-1-.1-2.1-.4-3.1-.4-1.1-.6-2.2-1.3-3.3 0 .5-.2 1-.3 1.4-.1.2-.3.6-.6.5-.3-.1-.1-.5 0-.7l-.1-1.7c-.2.1-.3.5-.6.3a.4.4 0 0 1-.1-.5.6.6 0 0 0 0-.5c-.6-1.5-.8-3.1-.7-4.7 0-.7.1-1.5.5-2.2l.2.3c.3.8.8 1 1.4.2.6-.6 1-1.5 1.2-2.4.6-2.3.9-4.6 1.9-6.8.4-.8.7-1.7 1.4-2.3-.8 1.2-1 2.7-1.4 4l.3-.3a27 27 0 0 1 2.6-5.3l1.6-2.5c-1 0-1.5.8-2 1.5l-3.2 4.7a87.5 87.5 0 0 1-5.3 7c-1 1.2-2 2.6-3.8 2.9-.3 0-.5.1-.4-.3a.7.7 0 0 0-.6-.8c-.3-.1-.6 0-.9.3-1 .7-1.6 1.6-2.3 2.5-.4.5-.8 1-1.5 1-.5 0-.9 0-1.3.3a5 5 0 0 1-5-.5v1.3Z" fill="#E55533"/><path d="M46.1 90.7c1.8.8 3.8 1.2 5.7 1.3.2-.2.1-.3 0-.3a12 12 0 0 1-2.8-1.1l-1.3-.8c-.3-.2-.4-.4-.2-.8a4.3 4.3 0 0 1 3.3-2.6h.9c1.4.1 2.8-.3 4.1-.8l.6-.2c-.3.5-.8.5-1.2 1 .6 0 1.1-.3 1.5-.7.8-.7 1.4-1.6 1.9-2.6 1-2.2 1.6-4.6 3.2-6.5l1-1c.3-.6.7-.7 1.3-.4.5.2 1 .4 1.6.1l-1.5-.5c-.6-.3-1-1.2-.7-1.9v-1.3c-.1.3 0 .6 0 .8l-.2.3c0-.5-.2-1 .2-1.4a.4.4 0 0 0 0-.7c-.4.5-.7 1-.7 1.7 0 1.2-.6 2.2-1.3 3l-2.4 3c.2.1.1.2 0 .3l-1 1.9s0 .3-.2.1c-.6 1.2-1.1 2.3-2.6 2.5v.1c0 .1.3-.1.4.2l-2 .5a2 2 0 0 1-1 .1h-.3a1 1 0 0 1-.6.2c-1.2 0-2.5 0-3.7-.4l-.6-.3-.9-.3c0 1.4.1 2.8-.1 4.2-.2 1-.3 2-1 2.7l.6.6Z" fill="#EBB9BD"/><path d="m1.6 133.7 1.2-1.6c.8-1.3 1.8-2.4 2.7-3.7.4-.6 1-1.2 1.3-2 1-2.3 1.7-4.7 2.7-7l1.3-2.5c.3-.5.8-1 0-1.5l-1.2 2c-2 3.3-4 6.8-5.6 10.4l-2.8 6c.2.2.3 0 .4 0Z" fill="#CA482A"/><path d="M29 97.2c.3.5.6 1 .7 1.6.3 1 .2 2.1.5 3.1.3 1.3.3 2.6.2 4v2.6a1.4 1.4 0 0 0 .4-1l-.1-3.7-.2-3c0-2-.7-3.8-2-5.3h-.2l.7 1.7Z" fill="#CD492B"/><path d="m39.2 93.2 1-.2c1-.1 1.7.3 2.6.6.1-.4-.1-.8-.2-1.2-.1-.4.6-.5.8-1-.5.2-.8.7-1.3.7-1.2 0-2.3.4-3.3.9 0 .3.2.2.4.2Z" fill="#CC492B"/><path d="M29 126.3v1.3c0 2.3.5 4.5 1.8 6.4.6 1 1.2 1.9 2.3 2.4l-.4.2c-1.1.4-2.3.2-3.4.6-.5.2-.8.4-1 .8-1 1.1-1.2 2.5-1.3 3.9 0 1 .2 2 .4 3 .4 1.8 1.1 3.5 2.4 5l1.4 1.2c.6.5 1.3.8 2.1.8a41.4 41.4 0 0 0 7.5-1.5c.3-.2.4-1 .9-.6.4.3 0 .8-.3 1.1a12 12 0 0 1-4.5 4c-.4.3-1 .3-1 .6 0 .4.3.8.6 1.2.8 1 1.7 2.2 3 3 .6.4 1.4.5 2.1.8 1.2.5 2.3 1 3.6 1.1 1.2.2 2.5.2 3.7.3 2.2 0 4.4.4 6.6-.4h.2a7 7 0 0 1-3.4 2l2-.1 5.8-.4a.7.7 0 0 0 .5-.3H58c3.7-1 7.2-2.8 11-4a12 12 0 0 1-4-2c-.2 0-.6-.2-.4-.5.2-.2.4.1.6.2 1 .5 2 .6 3.2.5 1-.1 1.8-.3 2.6-1 0 0 .3-.3.3.2h.2c.6-.2 1.3-.2 1.8-.6.7-.4 1.4-.4 2-.3 1 .2 2 .1 3 0 .7-.2 1-.8 1.4-1.3 0-.8-.3-1.6-.9-2.3 0 .2 0 .4-.2.4-1.8 0-1.8 0-3 .9.5-1.4.6-2.7-.2-4-.8-1.2-2-1.7-3-2.4.9-.2 1.7 0 2.8.6l-.4-.9c.4 0 .8.2 1 .5 1 1 1.8 2 2.3 3.3l.3-3.3s0 .2-.2 0l-.1-.6c-.3-1.8-.6-3.6-1.8-5-.2-.3-.3-.6-.2-.8l-.1-4c-.2-1.3-1.2-2.1-2.4-1.8l-.6.2c-1 .2-2 .5-3 0 1.2-.4 2-1 2.8-1.7.5-.3 1-.7 1.2-1.2.3-1.1.8-2.3.7-3.5a77.4 77.4 0 0 1-8.7 4.6c-.9.3-1.7.9-2.7 1 0 0 .2.3 0 .4-.3.1-.3-.2-.5-.4 0 .4-.4.3-.6.4-2.8 1-5.7 1.8-8.7 2.4-1.3.3-2.5.4-3.8-.2-1.4-.6-2.9-1-4.3-1.5-.2 0-.4 0-.5-.3-1 1.4-1.8 3-2.8 4.3l-1.5 1.8-.5.7 2.4-.9c.2 0 .4-.2.5 0a.4.4 0 0 1-.1.6 6.6 6.6 0 0 1-5.3 1.8c-.3 0-.3-.2-.5-.3a68.3 68.3 0 0 0 6.6-8.4l-.7-.2c-2.3-.8-4.6-1.8-6.7-3.1a13 13 0 0 1-5.4-6.1c-.7-1.8-1.2-3.7-.2-5.6v-.2c.6-2 1-4.1.1-6.1-.2.1-.1.4-.2.7a39 39 0 0 0-1.5 12.6Zm27 21.3c.6.5 1 1 1.6 1.3.2.1.4.2.4.4 0 .7.7 1 1.2 1.2 1.7.8 3.7 1 5.6.8h1c-1.2.5-2.5.7-3.8.5-1-.1-2-.2-3-.6-1.8-.6-3.3-1.7-4-3.6v-1.5c.4.6.6 1.1 1 1.5Zm-7.3 4.3c.9 0 1-.9 1.3-1.4 0-.1 0-.2.2-.2.2.8-.6 1.9-1.3 2-.2 0-.3 0-.3-.2a.1.1 0 0 1 0-.1v-.1Z" fill="#E55533"/><path d="M60.3 89.2v-2.8c-.2-1.3 0-2.6.2-4 0-.6 0-1.2.5-1.9.3.7.5 1.3 1 1.8.6.6 1.4 1 2.2 1l2.5-.1c.6 0 1-.5 1.4-.7.7-.8.8-1.8 1.3-2.7l.2-1.5c0-.6.3-.7.8-.6 1-.5 1-1 .6-1.9a12 12 0 0 1-1.2-5.1c-.1-.6-1.3-1.1-2-.8a4 4 0 0 0-.3.2c-.3.4.1.9-.2 1.2-.4-1.4-1.1-2-2.3-1.6-.6 0-1 .4-1.5 1a.4.4 0 0 1 0 .6v1.6a2 2 0 0 0 1.2 2c.8.3 1.4-.1 2-.6l.5-.7c0 .3-.2.6-.4.8-.2.4-.6.7-1.1 1-.6.2-1 0-1.6-.2-.6-.3-1-.2-1.4.3l-.9 1.1c-1.6 2-2.2 4.3-3.2 6.5-.5 1-1 1.9-1.9 2.6-.4.4-1 .6-1.5.7.4-.5 1-.5 1.2-1l-.6.2c-1.3.5-2.7.9-4.1.8h-.9a4.3 4.3 0 0 0-3.3 2.6c-.2.4-.1.6.2.8l1.3.8c.8.5 1.8.8 2.7 1 .2.1.3.2.1.4 2.1.3 4.2.2 6.3 0 1.3-.5 2.2-1.5 2.2-2.8Zm6.3-15.6c-.2.3-.4.5-.7.4-.6-.1-1.1-.3-1.3-1-.3-.5-.1-1-.2-1.6.2-.7.7-1 1.3-.7.7.4 1 1.4.6 2-.2.3-.1.4.2.4.3 0 .3.2 0 .5Z" fill="#FED3C8"/><path d="M72.5 112.2c0 .6.3 1.2.6 1.7.2.6.4 1.2 1 1.7.7.6 1.5 1.1 2.6 1.3h2.1c.2 0 .6-.1.6-.4 0-.4.2-.4.5-.4.2 0 .4 0 .6-.2 1.3-.8 2.4-1.8 3.4-3 1.5-1.8 1.9-4.2 2.3-6.5l-.8.3c-1.3 0-2.3.7-3.4 1.2 0 .4.6.4.7.7-1.6 1.2-3.2 2.4-5.2 3.2-.7.3-1.4.3-2 .8-.3.1-.5 0-.6-.1-1-.4-1.9-.7-2.9-.8.2.2.5.1.5.5Z" fill="#E55533"/><path d="M37.1 142.7c.1.1.2.3.5.3 2 .2 3.8-.4 5.3-1.8a.4.4 0 0 0 0-.6c0-.2-.2 0-.4 0l-2.4 1 .5-.8L42 139c1-1.4 1.8-2.9 2.7-4.3l2.3-4.9 1.7-4.3c-.4.2-.5.4-.6.7l-1.5 2.8-3 5.3c-2 2.8-4 5.5-6.5 8 0 0-.2.2 0 .4Z" fill="#CA482A"/><path d="M61.9 87.3v-1.4l-.4 1.9-.2.9c-.2-.5 0-.9 0-1.3l.4-1.7c0-.2 0-.3.2-.2.2-.2.1-.5.2-.7.1-.6.4-.9 1-.7.7.2 1.5.4 2.2.2a.5.5 0 0 0 .7 0h-.7c.1-.3.4-.3.6-.3 1 0 1.8-.5 2.2-1.5-.5.1-.8.6-1.4.7h-2.5c-.8 0-1.6-.3-2.2-.9-.5-.5-.7-1.1-1-1.8-.4.7-.4 1.3-.5 2-.2 1.3-.4 2.6-.3 4 .2.8.2 1.8.1 2.7 0 1.3-1 2.2-2.2 2.7 1.2.1 2.2-.2 3.3-.4.5 0 1-.3 1.3-.5l-.1-.5a6 6 0 0 1-.7-3.2Z" fill="#EBB9BD"/><path d="m84.6 83.8.7.6c-.6-.3-.7-.4-.7-.5Z" fill="#BB452B"/><path d="M84.6 83.8c-.2-.1.4.6-1.2-.5-.9-.5-1.7-1.1-2-2.2l.1-1.3a.6.6 0 0 0-.2-.8 3 3 0 0 1-.7-.7c-.5-.7-.6-1-.1-1.8l.4-.8.1-.7a17.6 17.6 0 0 1 1.7-3c.3-.2.4-.6.8-.7a.6.6 0 0 1-.2.5L82 74.3a21.3 21.3 0 0 0-1 2.7l.1.6c.3.3.4.9.8 1.1.6-1.6.8-3.4 2-4.7l.6-1 1.6-1.5.1.1-.2.3-1 1.3c-1.7 2-2.5 4.3-3 6.9 0 .4 0 1 .4 1.3A4 4 0 0 0 84 83c1 .6.7.6.6.7ZM93.3 80.4l-.2.2c-1 1-2 1.7-2.8 2.7-.2.3-1 0-1.6 0a.6.6 0 0 0-.5.2.8.8 0 0 0-.3.6c.5.1 1-.4 1.3.3l-.5.1c-.4 0-.7 0-1 .3-.6.5-1 .4-1.7.1a.8.8 0 0 1-.4-.3l-.3-.2c.8.5.3-.4 1 0 .5.3.6.3.8-.1.7-1.5 2.7-1.5 4-2.6l1-1 .9-.4s.2-.1.2 0Z" fill="#BB452B"/><path d="M87.7 84.8c-.6.5-1 .4-1.7.1 0 .4-.3.4-.5.5a8.7 8.7 0 0 0-3.6 3.3c0 .1-.2.3 0 .5.4-.5 1-.9 1.5-1 .6-.2 1 0 1 .6v1.5c-.1.2-.2.4 0 .6.6-1.5 1-3.1 2-4.4-.1.7.3 1.1.6 1.6 0-1.4.2-2.8 1.7-3.6-.4 0-.7 0-1 .3ZM87.1 84.3c.7-1.5 2.7-1.5 4-2.6l1-1a3.1 3.1 0 0 0-2.8.8c-.6.5-1.1 1-1.6 1.7-.6.8-1.4 1.1-2.4 1.2.8.5.3-.4 1 0 .5.3.6.3.8-.1Z" fill="#CA482A"/><path d="M63.3 134.3c.2-.1 0-.3 0-.5l-1-2.4c.8.3 1.1 1 1.7 1.4-1.7-3-3.8-5.8-6.2-8.2l-.4-.4c2.3 3 4 6.3 5.4 9.7.2.1.2.5.5.4ZM77.5 91l-1.4.9c-1 .8-2.3 1.4-3.7 1.2v.3c.8.2.5.7.2 1.1l-.5 1.6c.2-.3.3-.9.9-1l-.6 1.3.3-.1v.3l-.2.7.2-.2a8 8 0 0 1 3-3.6l.2-.3c.3-.7.3-.7 1-1l2-1.4c.5-.3.1-.3 0-.4-.4.4-.9.6-1.4.7ZM44 94.4a31 31 0 0 0 4.8 1.7c.6.2 1.2.4 1.9.4h4c.2 0 .4.1.6-.1-4.1-.1-8-.8-11.8-2.8a.8.8 0 0 0 .5.8Z" fill="#CB482A"/><path d="M72.7 96.6v-.3l-.3.1c-.7 1.2-1.1 2.5-1.3 3.9a9.2 9.2 0 0 0 0 4.8c.1.3.3.7.6 1v-.8c-.6-1.5-.5-3-.2-4.5.1-1.3.7-2.3 1-3.5l.2-.7Z" fill="#BC452B"/><path d="M28.2 116.2c.3-.3.4-.2.4.2.7-1.2 1-2.6 1.7-3.8h-.2c-1 0-1.6.3-1.8 1.2-.2 1.2-.7 2.4-1 3.6.4-.3.4-1 .9-1.2Z" fill="#E55433"/><path d="M65.7 93.1c-2 1.1-3.8 2.1-6 2.7l-1.9.4h.3c.6 0 1.1 0 1.6-.2 1.4-.2 2.7-.8 4-1.2 1.1-.3 2-1 2.9-1.7L66 93l-.4.1Z" fill="#CC492B"/><path d="M85 73.1c-1.8 2-2.6 4.4-3 7 0 .4-.2 1 .3 1.3v-.8c.3-1.3.4-2.7.9-4 .6-1.5 1.5-3 2.6-4.2.1-.2.3-.3.1-.5L85 73Z" fill="#CA482A"/><path d="M81.8 78.7c.6-1.6.8-3.4 2-4.8l.6-.9-.5.3-1.7 2.2c-.4.7-.7 1.4-1.2 2 .3.4.4 1 .8 1.2Z" fill="#CA482A"/><path d="M90.3 83.3c.1 0 .2 0 .3-.2 1.2-1 2.7-1.5 4.3-1.5 0 0 .3 0 .3-.2l-1-.4c-.3-.2-.8 0-1.1-.4-1 1-2 1.7-2.8 2.7Z" fill="#CB482A"/><path d="M71.6 112c-.9.7-.8 1.8.2 2.6-.2-.9-.4-1.8-.2-2.7Z" fill="#E55533"/><path d="M86.2 71.6c.3-.4.9-.8 1.2-1.4-.6.3-1 .7-1.4 1.3h.2Z" fill="#CC4B2D"/><path d="M68.1 93H67c.4.4.7.2 1.1 0ZM68.5 93c.2.2.5 0 .8.1-.3-.1-.6-.2-.8-.1Z" fill="#DC5738"/><path d="M74.8 127.5c-.2.2-.1.4-.1.6.2-.2 0-.4.1-.6ZM29 163c0 .4.1 1 .6 1.1l3.1 1.1c.3 0 .5.2.6 0 0-.4 0-.9.3-.8.4 0 .2.5.3.7 0 .5.4.7.9.8l3.6 1.1c0-.3-.1-.7.1-1.1.1-.3-.2-.9.5-.6.6.4.4 1 .4 1.5 0 .2-.1.4.2.5l3.9.6c.2 0 .3-.1.3-.4V166c0-.1 0-.3.2-.4-.2-.2-.5-.2-.7-.2-4.7-.9-9.2-2.3-13.6-4-.7-.3-1-.2-1 .7l.1.4c.2.1.1.3.1.5ZM44.7 167.4c-.1.7.2.8.8.8 1 0 2 0 2.9.2 1 .1 1.1 0 1.4-.7l.1-1.1c.1-.4.3-.4.5 0a1.4 1.4 0 0 1 .2 1.1c0 .8.3.9.9.9h3.2v-2c0-.5-.3-.4-.5-.4l-4.3-.1c-2-.1-3.8-.2-5.7-.5l.1.4c.5.4.5 1 .4 1.4Z" fill="#E55533"/><path d="M27.6 157.4c0 .2.1.2.2.3 2.4 1.9 5.3 2.8 8.3 3.6a52.2 52.2 0 0 0 15.2 1.9c-.8-.3-1.6-.4-2.4-.4-1.5-.2-3-.2-4.5-.5-2.4-.3-4.9-.8-7.3-1.3-3-.8-6-1.7-8.8-3.4-.2 0-.4-.3-.7-.2Z" fill="#BB452B"/><path d="M59.9 167.9c0 .3.2.3.4.3 1.2 0 2.3-.3 3.4-.4.2 0 .2-.2.2-.4l-.3-2-4 .4c-.2 0-.2.2-.1.4l.4 1.7ZM55.3 168.6l2-.2c.7-.1 1.3 0 1.8-.2-.3-.7-.4-1.5-.4-2.3l-3 .1c-.3 0-.4.2-.3.5v2Z" fill="#E55533"/><path d="M26 131.3c.5.1.3.7.6 1 .1-.1 0-.3 0-.4.3 0 .2.3.4.2v-.7c-.5-.8-.7-1.7-.6-2.6 0-.7-.3-1.5-.2-2.1.4-2.8 1.1-5.5 2.1-8.1 0-.3.3-.6 0-.7-.3-.2-.3.3-.4.5-.8 1.7-1.3 3.4-1.7 5.2-.4 1.7-.6 3.4-.3 5.2l.1 2.5Z" fill="#BB452B"/><path d="M65 167.2c0 .2 0 .4.3.4.8-.3 1.7-.3 2.4-.7.5-.2.8-.6.5-1.1-.2-.4-1.1-1-1.6-.9l-1.8.2c-.3 0-.4.2-.3.5l.4 1.6Z" fill="#E55533"/><path d="M35.3 151.6a.4.4 0 0 0 .3.1c1 0 2.1 0 3.2-.3.6-.2 1.4-.1 1.9-.8l-1 .1-4.4 1Z" fill="#BC452B"/><path d="M54.7 166.5v2.1c.2.3 0 .9.5.8.3 0 0-.5.1-.8-.2-.7 0-1.3 0-2-.1-.1 0-.4-.2-.5-.3 0-.2.3-.4.4ZM64 167.7c0 .2.1.3.3.3l.1-.3v-.5a9.5 9.5 0 0 0-.3-2l-.3-.1c-.2 0-.2.1-.2.3l.3 2c.2 0 .1.2.2.3Z" fill="#BB452B"/><path d="m19.6 136.7.6-.3c-.1-.3-.3-.2-.5 0-.6.2-1 0-1.3-.4l-.4-.6c0-.1-.1-.3-.3-.2-.2 0-.1.3 0 .4.1.5.4 1 .9 1.3.3.2.6-.2 1-.2Z" fill="#BC462C"/><path d="M50.4 166.5c-.2-.3-.3-.3-.5 0-.1.4-.2.8-.1 1.2v1.1l.1.3c.2 0 .2-.1.3-.3l.2-2.2ZM39 165.3c-.7-.3-.4.3-.5.6 0 .4.2.8 0 1.1 0 .3 0 .7.2.9.6-.9.3-1.8.3-2.6ZM69 167c.2 0 0-.4.1-.6l-.2-1.7c0-.1-.1-.3-.3-.3-.2 0-.2.2-.2.4 0 .6 0 1.2.3 1.7 0 .2 0 .5.3.5Z" fill="#BB452B"/><path d="M33.6 164.4c-.3 0-.2.4-.2.7-.2.5-.2 1-.2 1.5 0 .2 0 .4.2.4s.2-.2.2-.3c.2-.5 0-1 .3-1.6-.1-.2.1-.7-.3-.7Z" fill="#BC452B"/><path d="M43.8 166c.3.6.1 1.3.2 1.9 0 .2 0 .5.2.7l.1-.3c.3-.7 0-1.5 0-2.3v-.4H44c-.2.1-.2.3-.2.4ZM59.4 168l-.2-1.8c0-.2 0-.5-.4-.3 0 .8 0 1.6.3 2.3l.3-.3Z" fill="#BB452B"/><path d="M28.4 161.6c-.6.5-.6 1-.1 1.5l.1-1v-.5Z" fill="#E05231"/><path d="M27.9 117.7c.2-.5.6-.8.7-1.3-.4.3-.6.8-.7 1.3Z" fill="#E55433"/><path d="M64.4 167.2v.5c.5-.2.1-.4 0-.5ZM59.5 168.2c.1-.2 0-.2-.1-.3v.3Z" fill="#E55533"/><path d="M57.6 67.4 61 65c-1 0-2.9 1.5-3.3 2.5ZM70.1 53.5l1 .7c-.2-.4-.1-.9-.2-1.3-1 0-1.6.2-2 .8.5.1.8-.4 1.2-.2ZM70.9 53Z" fill="#1B1B49"/><path d="M69.2 60.3c1 0 2-1.7 1.5-2.5-.3.9-.2 1-1.5 2.5Z" fill="#1C1C49"/><path d="M69.8 70.6c.2-1 .2-2 .2-3.1-.1-.2-.1-.4-.4-.4a1.7 1.7 0 0 0-1.6.9c-.3.6-.5 1.4-.5 2.1l.4-.2c.6-.3 1.8.2 1.9.7Z" fill="#EBB9BD"/><path d="M71 75.8c.5.9.3 1.4-.6 2-.3 0-.7 0-.8.5l-.2 1.5v.4c.3-.5.4-1 .5-1.6 0-.3.2-.4.4-.4 1.4-.3 1.9-1.5 1-2.6-.8-1.2-1-2.6-1-4-.1-1.4.2-2.8.2-4.2H70c0 1.1 0 2.2-.2 3.2 0 1.8.3 3.6 1.2 5.2Z" fill="#454065"/><path d="m52 83.9-2-.2-2.5-.2.6.3c1.2.4 2.4.3 3.7.4.2 0 .4 0 .6-.2 0-.2-.3 0-.5-.1Z" fill="#323059"/><path d="m58.2 80.4 1-1.8v-.3c-.6.7-1 1.5-1.3 2.3.2.2.2 0 .3-.2Z" fill="#EBC2BD"/><path d="M58.2 71.4c.3-.7.7-1.5.8-2.5-.5.8-.7 1.6-.8 2.5Z" fill="#262652"/><path d="M52.7 84h1c-.3 0-.7-.2-1 0Z" fill="#323059"/><path d="m75.9 157.5-.2.1h.2Z" fill="#CA482A"/><path d="M79.7 153.9c-.4.5-.7 1-1.4 1.2-1 .2-2 .3-2.9.1-.7 0-1.4 0-2 .3-.6.4-1.3.4-1.9.6h-.1c0-.5-.3-.2-.4-.2-.8.7-1.7.9-2.6 1-1.1.1-2.2 0-3.2-.5-.2-.1-.4-.4-.6-.2-.2.3.2.4.4.6l.7.4c1 .6 2 1.2 3.2 1.5-3.7 1.2-7.1 3-11 4h2.3c-.2-.2-.4 0-.6-.1.6-.3 1.2-.2 1.8-.3l3.7-.5c2.4-.3 4.7-.8 6.9-1.6 1.2-.4 2.3-1 3.4-1.8-.2-.1-.5 0-.5-.2 0-.3.2-.3.3-.3l.5-.3-.6-.8a.3.3 0 0 1 0-.4c.1-.2.3 0 .4 0 .7.8 1.6.6 2.4.3.2 0 .4-.3.7 0 .8-.8 1.2-1.7 1.1-2.8Z" fill="#CA482A"/><path d="M77.3 158.2a.3.3 0 0 0 .2-.2c0-.4-.3-.4-.6-.5a.7.7 0 0 0-.5.4c.2.5.6.3 1 .3Z" fill="#F5C65D"/><path d="M23.6 165Z" fill="#2A2D58"/><path d="M65.7 75.3c.5-.2.9-.5 1.1-.9l-.1-.1c-.6.5-1.2.9-2 .5a2 2 0 0 1-1.1-1.9c-.3.7 0 1.6.6 1.9l1.5.5Z" fill="#C49D9D"/><path d="M63.5 71.6v-.3c-.4.4-.1.9-.2 1.3l.1-.2.1-.8Z" fill="#BA9496"/><path d="M78 150c-.4-1.3-1.3-2.3-2.2-3.3-.2-.3-.6-.4-1-.5l.5.9c-1.2-.7-2-.8-3-.6 1.2.7 2.3 1.2 3.1 2.5.8 1.2.7 2.5.2 3.9 1.2-.9 1.2-.9 3-1 .2 0 .2 0 .2-.3-.3-.5-.6-1-.7-1.6ZM59 151.2c1 .4 2 .5 3 .6 1.3.2 2.6 0 3.8-.5h-1c-2 .3-3.9 0-5.6-.8-.5-.3-1.2-.5-1.2-1.2 0-.2-.2-.3-.4-.4-.6-.3-1-.8-1.5-1.3-.5-.4-.7-1-1.2-1.6.1.7 0 1.1.2 1.6.6 2 2 3 4 3.6Z" fill="#CA482A"/><path d="M48.8 152.2c.8 0 1.6-1.1 1.4-1.9l-.2.2c-.4.5-.4 1.3-1.3 1.4h-.1a.1.1 0 0 0 0 .2c0 .2.1.1.2.1Z" fill="#CD492B"/><path d="M69.4 79.8c-.5.9-.6 2-1.3 2.7-.4 1-1.1 1.5-2.2 1.5-.2 0-.4 0-.6.3h.7c.6-.1 1.3-.2 1.8-.8.8-1 1.4-2 1.7-3.3-.2 0-.1-.2-.1-.4Z" fill="#4F4C6F"/><path d="m61.7 85.7-.3 1.7.1.4.4-1.9v-.4c-.2-.1-.2 0-.2.2Z" fill="#8B728A"/><path d="m78.8 90.4-1.3.7c.5-.1 1-.3 1.3-.7Z" fill="#F25833"/><path d="M65.9 72.4c.2-.4 0-.8-.3-1-.2-.4-.5-.3-.8-.1h-.4c0 .6 0 1.2.2 1.8.2.6.7.8 1.3 1 .3 0 .5-.2.7-.5-1-.1-1.1-.4-.7-1.2Z" fill="#EABBBE"/><path d="M66.5 73.1c-.3 0-.4 0-.2-.4.4-.6 0-1.6-.6-2-.6-.2-1.1 0-1.3.7l.4-.1c.3-.2.6-.3.8 0 .3.3.5.7.3 1.1-.4.8-.2 1.1.7 1.2.2-.3.2-.4-.1-.5Z" fill="#AE8A8D"/><path d="M70.4 77.7c-.5 0-.9 0-.8.6.1-.4.5-.5.8-.6Z" fill="#4F4C6F"/><path d="M66.8 74.4c.3-.2.4-.5.4-.8l-.5.7.1.1Z" fill="#D8B1AC"/><path d="M61.4 87.4c-.2.4-.3.8-.1 1.3l.2-1-.1-.3Z" fill="#AD8B9C"/><path d="M81 67.2v5.3a.5.5 0 0 1-.4.4h-1a1.9 1.9 0 0 1-1.7-1l-.4-1.2c-.4-1.3-1.2-1.5-1.8-1.7-.5-.2-1 0-1.6-.7l-.8-.5c-.1-.1-.3-1.6.4-1.5l1 .2c.4 0 .7.2.9.3.7.2 1.1.2 1.8-.3a1.2 1.2 0 0 0 .6-1.3l-.2-.5h.6a2.5 2.5 0 0 1 2.6 2.5Z" fill="#FED3C8"/><path d="M80.9 66.3s-1.7.8-2.2.7c-.5 0-.6-1-.6-1l-.3-1.9-.4-.4a.3.3 0 0 0-.3-.3h-1c.6-1.8 1.7-1 1.7-1l1.3 1c.5.4.8.8 1 1.3l.8 1.6Z" fill="#FED3C8"/><path d="M77.7 67.3c-.6.4-1.8.4-2.4.2-.6-.3-.5-1-.5-1 .3 0 .6.2.8.3.7.2 1.1.2 1.8-.3a1.2 1.2 0 0 0 .6-1.3h.1c.2.2.1 1.8-.4 2.1Z" fill="#EBB9BD"/><path d="m77.5 63.9-1-.7.6-.2.3.1.3.4-.1.3Z" fill="#FED3C8"/><path d="M81 72.5a.5.5 0 0 1-.4.4h-1a1.9 1.9 0 0 1-1.7-1l-.4-1.2c-.4-1.3-1.2-1.5-1.8-1.7-.5-.2-1 0-1.6-.7l-.8-.5c.6 0 1 .2 1.5.5.6.4 2 .4 2.6 1 .6.6 1.3 2.7 2.1 2.7.6 0 1.2.2 1.5.5Z" fill="#EBB9BD"/><path d="M81 70.8s-.2 1.4-.7 1.4c-.6.1.1.2.4.4.3.2.8.1.8.1s.2-.2 0-.8c0-.4-.2-.8-.5-1Z" fill="#EBB9BD"/><defs><linearGradient id="b" x1="45.2" y1="207.1" x2="46.7" y2="144.2" gradientUnits="userSpaceOnUse"><stop offset=".1" stop-color="#33325D" stop-opacity="0"/><stop offset=".2" stop-color="#33325D" stop-opacity=".4"/><stop offset=".3" stop-color="#33325D"/></linearGradient><clipPath id="a"><path fill="#fff" transform="translate(83 49)" d="M0 0h145v109.6H0z"/></clipPath></defs></svg>