<svg width="42" height="40" viewBox="0 0 42 40" fill="none" xmlns="http://www.w3.org/2000/svg">
<mask id="mask0_1241:15521" style="mask-type:alpha" maskUnits="userSpaceOnUse" x="0" y="0" width="42" height="40">
<rect width="42" height="40" rx="4" fill="#C4C4C4"/>
</mask>
<g mask="url(#mask0_1241:15521)">
<path d="M28.2573 26.7583H13.6731L1.32471 39.9997H40.6057L28.2573 26.7583ZM29.2548 33.6204H12.8132L12.3316 35.3445L9.7175 33.0342L13.5355 31.0342L13.1572 32.4135H28.9796L28.6357 31.0342L32.2129 32.9307L29.6676 35.3101L29.2548 33.6204Z" fill="#3A4C83"/>
<path d="M13.0201 9.20693L11.885 8.20693L2.46027 0L0.602851 0.0344829C0.224487 0.0344829 -0.085083 0.344829 -0.085083 0.724141V39.5174C-0.085083 39.7243 0.0525037 39.9312 0.258884 39.9657L13.0201 26.276V9.20693ZM9.09883 23.2415L7.3446 24.4484V23.9656V13.2414V12.7587L9.09883 13.7242V23.2415ZM6.58787 12.8621V24.4484V24.9311L4.1801 26.6553V10.9656L6.58787 12.3449V12.8621Z" fill="#3A4C83"/>
<path d="M42.0855 39.4829V0.724141C42.0855 0.344829 41.7759 0.0344829 41.3975 0.0344829L39.5401 0L28.9459 9.24142V26.276L31.8352 29.3794V14.2759C31.8352 14.0001 31.9728 13.7587 32.2136 13.6552L36.8572 11.5863C37.3387 11.3449 37.8891 11.6897 37.8891 12.2069V35.7933L41.7759 39.9312C41.9479 39.8967 42.0855 39.7243 42.0855 39.4829Z" fill="#3A4C83"/>
<path d="M28.0516 9.58545H13.8801V25.8959H28.0516V9.58545Z" fill="#3A4C83"/>
<path d="M13.6737 8.72417H28.2922L38.3017 0H3.69861L13.6737 8.72417ZM20.9657 3.24139C22.4104 3.24139 23.5799 3.68967 23.5799 4.2414C23.5799 4.79312 22.4104 5.2414 20.9657 5.2414C19.5211 5.2414 18.3516 4.79312 18.3516 4.2414C18.3516 3.68967 19.5211 3.24139 20.9657 3.24139Z" fill="#3A4C83"/>
<path d="M36.4787 23.138C36.4787 22.7242 36.238 22.3794 35.9284 22.3794C35.6188 22.3794 35.3781 22.7242 35.3781 23.138C35.3781 23.5518 35.6188 23.8966 35.9284 23.8966C36.238 23.9311 36.4787 23.5863 36.4787 23.138Z" fill="#3A4C83"/>
</g>
</svg>
