<svg width="42" height="40" viewBox="0 0 42 40" fill="none" xmlns="http://www.w3.org/2000/svg">
<mask id="mask0_1241:15511" style="mask-type:alpha" maskUnits="userSpaceOnUse" x="0" y="0" width="42" height="40">
<rect width="42" height="40" rx="4" fill="#C4C4C4"/>
</mask>
<g mask="url(#mask0_1241:15511)">
<path d="M28.2932 26.7283H13.6722L1.26331 39.9999H40.7367L28.2932 26.7283ZM20.758 38.8564L17.3707 34.6635H19.963L20.1359 29.0153H18.7187L20.758 27.5253L22.7974 29.0153H21.4839L21.7259 34.6635H24.1454L20.758 38.8564Z" fill="#3A4C83"/>
<path d="M12.9807 9.09064L11.8401 8.08574L2.36922 -0.161377L0.502704 -0.126725C0.122488 -0.126725 -0.188599 0.185141 -0.188599 0.56631V39.5495C-0.188599 39.7575 -0.0503381 39.9654 0.157053 40L12.9807 26.2433V9.09064ZM9.04029 23.1939L7.27747 24.4067V23.9216V13.1449V12.6598L9.04029 13.63V23.1939ZM6.51704 12.7637V24.4067V24.8918L4.09748 26.6244V10.8579L6.51704 12.244V12.7637Z" fill="#3A4C83"/>
<path d="M42.1883 39.5149V0.56631C42.1883 0.185141 41.8772 -0.126725 41.497 -0.126725L39.6304 -0.161377L28.9844 9.12529V26.2433L31.8878 29.3619V14.1845C31.8878 13.9072 32.0261 13.6647 32.2681 13.5607L36.9344 11.4816C37.4183 11.239 37.9713 11.5856 37.9713 12.1053V35.8071L41.8772 39.9654C42.05 39.9307 42.1883 39.7574 42.1883 39.5149Z" fill="#3A4C83"/>
<path d="M28.0859 9.47192H13.8451V25.8622H28.0859V9.47192Z" fill="#3A4C83"/>
<path d="M13.6378 8.60552H28.328L38.3864 -0.161377H3.61389L13.6378 8.60552ZM20.9656 3.09589C22.4173 3.09589 23.5925 3.54636 23.5925 4.10079C23.5925 4.65522 22.4173 5.10569 20.9656 5.10569C19.5139 5.10569 18.3386 4.65522 18.3386 4.10079C18.3386 3.54636 19.5139 3.09589 20.9656 3.09589Z" fill="#3A4C83"/>
<path d="M36.5547 23.0897C36.5547 22.6739 36.3127 22.3274 36.0016 22.3274C35.6906 22.3274 35.4486 22.6739 35.4486 23.0897C35.4486 23.5056 35.6906 23.8521 36.0016 23.8521C36.3127 23.8867 36.5547 23.5402 36.5547 23.0897Z" fill="#3A4C83"/>
</g>
</svg>
