<svg width="42" height="40" viewBox="0 0 42 40" fill="none" xmlns="http://www.w3.org/2000/svg">
<mask id="mask0_1241:15531" style="mask-type:alpha" maskUnits="userSpaceOnUse" x="0" y="0" width="42" height="40">
<rect width="42" height="40" rx="4" fill="#C4C4C4"/>
</mask>
<g mask="url(#mask0_1241:15531)">
<path d="M28.275 26.7583H13.6908L1.34241 39.9997H40.6234L28.275 26.7583Z" fill="#3A4C83"/>
<path d="M42.1022 39.4829V0.724141C42.1022 0.344829 41.7926 0.0344829 41.4142 0.0344829L39.5224 0L28.9282 9.24142V26.276L31.8175 29.3794V14.2759C31.8175 14.0001 31.9551 13.7587 32.1959 13.6552L36.8395 11.5863C37.321 11.3449 37.8714 11.6897 37.8714 12.2069V35.7933L41.7582 39.9312C41.9302 39.8967 42.1022 39.7243 42.1022 39.4829Z" fill="#3A4C83"/>
<path d="M28.0685 9.58594H13.8971V25.8963H28.0685V9.58594Z" fill="#3A4C83"/>
<path d="M13.6564 8.72417H28.275L38.3189 0H3.6814L13.6564 8.72417ZM20.9829 3.24139C22.4276 3.24139 23.5971 3.68967 23.5971 4.2414C23.5971 4.79312 22.4276 5.2414 20.9829 5.2414C19.5383 5.2414 18.3688 4.79312 18.3688 4.2414C18.3688 3.68967 19.5383 3.24139 20.9829 3.24139Z" fill="#3A4C83"/>
<path d="M36.4961 23.138C36.4961 22.7242 36.2553 22.3794 35.9457 22.3794C35.6362 22.3794 35.3954 22.7242 35.3954 23.138C35.3954 23.5518 35.6362 23.8966 35.9457 23.8966C36.2209 23.9311 36.4961 23.5863 36.4961 23.138Z" fill="#3A4C83"/>
<path d="M11.9021 8.24141L2.47746 0L0.585639 0.0344829C0.207275 0.0344829 -0.102295 0.344829 -0.102295 0.724141V39.5174C-0.102295 39.7243 0.0352918 39.9312 0.241672 39.9657L13.0028 26.276V9.20693L11.9021 8.24141ZM8.60006 26.3105L6.67385 30.1381L4.30048 27.4139L6.02031 26.9656V9.34487L4.30048 8.82762L6.60506 6.00002L8.60006 10.1035L7.2242 9.68969V26.6553L8.60006 26.3105Z" fill="#3A4C83"/>
<path d="M11.9021 8.24141L2.47746 0L0.585639 0.0344829C0.207275 0.0344829 -0.102295 0.344829 -0.102295 0.724141V39.5174C-0.102295 39.7243 0.0352918 39.9312 0.241672 39.9657L13.0028 26.276V9.20693L11.9021 8.24141ZM8.60006 26.3105L6.67385 30.1381L4.30048 27.4139L6.02031 26.9656V9.34487L4.30048 8.82762L6.60506 6.00002L8.60006 10.1035L7.2242 9.68969V26.6553L8.60006 26.3105Z" fill="#3A4C83"/>
</g>
</svg>
