<svg width="207" height="154" viewBox="0 0 207 154" fill="none" xmlns="http://www.w3.org/2000/svg">
<path d="M192.759 31.8322L190.741 117.725L190.418 131.008C190.418 132.739 188.991 134.146 187.269 134.146H17.345C15.6227 134.146 14.1963 132.739 14.1963 131.008L14.0079 117.725L12.7969 32.8602C12.7969 31.1288 14.8422 27.7472 18.5561 27.9907L184.632 23.6623C186.811 23.6081 188.911 24.4468 190.445 25.9888C191.952 27.5308 192.786 29.6409 192.759 31.8322Z" fill="white"/>
<path opacity="0.2" d="M186.245 128.357C186.245 129.98 184.9 131.306 183.258 131.306H21.3807C19.7391 131.306 18.3935 129.98 18.3935 128.357L17.0479 36.7561C17.0479 35.1329 18.9855 31.9678 22.538 32.2112L180.755 28.1804C182.827 28.1263 184.819 28.9108 186.272 30.3446C187.725 31.7784 188.533 33.7532 188.479 35.7822L186.245 128.357Z" fill="#46D0FA"/>
<path d="M175.022 123.33H31.1495C30.0875 123.33 29.2129 123.246 29.2129 123.145V108.271C29.2129 108.17 30.0875 108.086 31.1495 108.086H175.022C176.084 108.086 176.959 108.17 176.959 108.271V123.145C176.959 123.246 176.084 123.33 175.022 123.33Z" fill="white"/>
<path d="M154.76 44.8094C154.706 46.3243 153.925 47.5688 152.983 47.5688L96.8444 47.8934C95.7679 47.8934 94.9336 46.5678 94.9336 44.9717C94.9336 43.3756 95.8217 42.0229 96.8713 42.0229H153.145C154.06 42.05 154.813 43.2944 154.76 44.8094Z" fill="#8097EC"/>
<path d="M154.166 107.662C154.113 109.177 153.332 110.367 152.417 110.367L97.0587 110.664C96.0091 110.664 95.1748 109.447 95.1748 107.824C95.1748 106.228 96.036 104.983 97.0856 104.983H152.579C153.467 104.983 154.193 106.147 154.166 107.662Z" fill="#8097EC"/>
<path d="M154.168 97.2192C154.114 98.7341 153.333 99.8974 152.391 99.9244L96.7907 100.222C95.7411 100.222 94.88 99.0047 94.9069 97.4085C94.9069 95.8124 95.7681 94.568 96.8445 94.568H152.553C153.468 94.568 154.195 95.7042 154.168 97.2192Z" fill="#8097EC"/>
<path d="M154.759 56.3877C154.705 57.6592 153.333 58.6872 151.664 58.6872L98.1086 59.1471C96.3324 59.1741 94.9061 58.1191 94.933 56.8205V56.6853C94.933 55.3867 96.3863 54.3317 98.1625 54.3046L151.826 53.98C153.494 53.98 154.813 54.9809 154.786 56.2524L154.759 56.3877Z" fill="#8097EC"/>
<path d="M154.544 67.7228C154.49 68.9672 153.117 69.9953 151.449 69.9953L98.028 70.4011C96.2787 70.4011 94.8524 69.373 94.8793 68.1016V67.9663C94.9062 66.6678 96.3595 65.6127 98.1087 65.6127L151.61 65.3422C153.279 65.3422 154.598 66.3431 154.544 67.5875V67.7228Z" fill="#8097EC"/>
<path d="M183.179 131.847H164.959C164.824 131.847 164.717 131.739 164.717 131.603C164.717 131.468 164.824 131.36 164.959 131.36H183.179C185.412 131.36 187.323 129.277 187.323 126.788V70.491C187.323 70.3558 187.431 70.2476 187.565 70.2476C187.7 70.2476 187.808 70.3558 187.808 70.491V126.815C187.754 129.547 185.655 131.847 183.179 131.847Z" fill="#BFCFF6"/>
<path d="M17.3174 70.4908C17.1828 70.4908 17.0752 70.3826 17.0752 70.2473V37.7027C17.0752 34.3482 19.5511 31.8323 22.8613 31.8323H37.3401C37.4747 31.8323 37.5823 31.9405 37.5823 32.0757C37.5823 32.211 37.4747 32.3192 37.3401 32.3192H22.8613C19.7664 32.3192 17.5327 34.5917 17.5327 37.7298V70.3014C17.5596 70.3826 17.452 70.4908 17.3174 70.4908Z" fill="#BFCFF6"/>
<path d="M163.234 53.121L180.512 53.2017L163.234 53.121Z" fill="#F3F6F9"/>
<path d="M163.262 61.1284L180.539 61.0746L163.262 61.1284Z" fill="#F3F6F9"/>
<path d="M78.9117 94.0152H25.2449C24.8487 94.0152 24.5225 93.7257 24.5225 93.3742V41.8896C24.5225 41.5381 24.8487 41.2487 25.2449 41.2487H78.9117C79.3079 41.2487 79.6341 41.5381 79.6341 41.8896V93.3742C79.6341 93.7257 79.3079 94.0152 78.9117 94.0152Z" fill="white"/>
<path d="M79.1116 92.3605C77.6694 83.9483 73.8305 76.2711 73.8305 76.2711L68.8135 93.7897C68.8135 93.7897 68.8947 93.9939 69.0369 94.4227L77.4054 94.4023C78.4819 94.3818 79.2944 93.4222 79.1116 92.3605Z" fill="url(#paint0_linear)"/>
<path d="M35.6457 94.402C36.1941 92.4215 36.6207 91.1556 36.6207 91.1556L28.4147 76.2505C28.4147 76.2505 26.546 78.476 24.5554 91.3393C24.3117 92.9319 25.4898 94.402 27.1147 94.402H35.6457Z" fill="url(#paint1_linear)"/>
<path d="M63.9205 94.4021L61.6861 70.9418C51.7333 67.2462 39.2009 71.391 39.2009 71.391L38.165 94.4021H63.9205Z" fill="url(#paint2_linear)"/>
<path d="M45.7207 63.5507L45.5379 69.7374C45.5176 70.3499 45.9035 70.9012 46.4722 71.1054C48.0565 71.6567 51.3064 72.5142 54.3939 71.3912C55.0235 71.1666 55.3891 70.5337 55.2876 69.8599L54.3532 63.5303H45.7207V63.5507Z" fill="url(#paint3_linear)"/>
<path d="M42.5744 52.2376C42.5744 52.2376 43.651 63.3245 46.0275 66.1422C46.0275 66.1422 53.1569 66.7956 55.7568 65.2642C55.7568 65.2642 57.5849 59.731 57.3818 52.3397C57.3818 52.3397 57.7271 45.6222 50.3539 45.0505C41.701 44.4175 42.5744 52.2376 42.5744 52.2376Z" fill="url(#paint4_linear)"/>
<path d="M56.6289 55.7304C56.6289 55.7304 57.2789 53.7703 58.3554 53.7703C59.4319 53.7703 58.132 58.9768 56.6289 58.9768V55.7304Z" fill="url(#paint5_linear)"/>
<path d="M43.548 56.2412C43.548 56.2412 42.634 54.3832 41.5778 54.5465C40.5013 54.6895 42.4918 59.6919 43.9949 59.4877L43.548 56.2412Z" fill="url(#paint6_linear)"/>
<path d="M42.7158 53.6277C42.7158 53.6277 43.5689 64.2858 46.4532 68.0019C46.7172 68.349 47.1032 68.5327 47.5094 68.5736C48.9922 68.6552 52.7702 68.7982 54.9029 68.3286C55.431 68.2061 55.8779 67.7977 56.0404 67.226C56.345 66.2051 56.6294 65.4088 56.6497 65.0413C56.731 63.3874 57.0966 58.8138 57.5841 52.5659C57.4419 52.3413 57.2794 52.0963 57.1372 51.8717C56.995 53.3214 56.1216 62.5094 54.7201 62.734C54.4154 62.7749 54.0904 62.7136 54.0904 62.7136C53.2373 62.5503 52.9936 61.8765 52.4046 61.4273C51.3687 60.6718 49.6218 60.8148 48.6266 61.6111C48.2203 61.9377 47.9563 62.3665 47.2454 62.6728C46.7985 62.877 46.3516 62.9178 46.2298 62.9178C45.2142 62.877 44.1986 58.8342 43.6299 53.3622L42.7158 53.6277Z" fill="url(#paint7_linear)"/>
<path d="M54.4557 49.4827C54.4557 49.4827 48.9512 54.2809 42.9388 54.2605C42.9388 54.2605 39.5265 46.5425 46.2294 45.2562C52.9323 43.9699 53.1557 45.6237 53.1557 45.6237C53.1557 45.6237 60.9961 43.9903 57.5025 53.4234L54.4557 49.4827Z" fill="url(#paint8_linear)"/>
<path d="M35.6248 94.4024H41.5355L44.3589 70.1459C36.5997 70.8605 28.4141 76.2508 28.4141 76.2508L34.5076 91.1355C34.9342 92.1972 35.2998 93.2998 35.6248 94.4024Z" fill="url(#paint9_linear)"/>
<path d="M69.2416 94.4021C69.5666 93.0137 69.9728 91.7274 70.44 90.4206L73.8524 76.2506C67.0479 70.9215 56.4248 69.676 56.4248 69.676L60.4059 94.4021H69.2416Z" fill="url(#paint10_linear)"/>
<path d="M70.2539 32.6954C70.2539 31.5909 71.1493 30.6954 72.2539 30.6954H92.5331V38.9036H72.2539C71.1493 38.9036 70.2539 38.0081 70.2539 36.9036V32.6954Z" fill="#0F127B"/>
<rect x="92.5332" y="30.6954" width="22.2792" height="8.20812" fill="#FFC444"/>
<path d="M114.812 30.6954H135.092C136.196 30.6954 137.092 31.5909 137.092 32.6954V36.9036C137.092 38.0081 136.196 38.9036 135.092 38.9036H114.812V30.6954Z" fill="#FF5A5A"/>
<path d="M4 53V17.4247C4 10.0411 9.81688 4 16.9264 4H64" stroke="#55D8FA" stroke-width="8" stroke-miterlimit="10" stroke-linecap="round"/>
<path d="M64 150H16.9264C9.81688 150 4 144.082 4 136.849V102" stroke="#55D8FA" stroke-width="8" stroke-miterlimit="10" stroke-linecap="round"/>
<path d="M203 102V136.849C203 144.082 197.183 150 190.074 150H143" stroke="#55D8FA" stroke-width="8" stroke-miterlimit="10" stroke-linecap="round"/>
<path d="M143 4H190.074C197.183 4 203 10.0411 203 17.4247V53" stroke="#55D8FA" stroke-width="8" stroke-miterlimit="10" stroke-linecap="round"/>
<defs>
<linearGradient id="paint0_linear" x1="66.8795" y1="68.6513" x2="74.1277" y2="92.7056" gradientUnits="userSpaceOnUse">
<stop stop-color="#040559"/>
<stop offset="1" stop-color="#14188A"/>
</linearGradient>
<linearGradient id="paint1_linear" x1="25.9712" y1="76.2798" x2="33.3272" y2="100.692" gradientUnits="userSpaceOnUse">
<stop stop-color="#040559"/>
<stop offset="1" stop-color="#14188A"/>
</linearGradient>
<linearGradient id="paint2_linear" x1="103.042" y1="-56.5424" x2="93.5689" y2="-31.1504" gradientUnits="userSpaceOnUse">
<stop stop-color="#F09690"/>
<stop offset="1" stop-color="#EC7869"/>
</linearGradient>
<linearGradient id="paint3_linear" x1="50.2975" y1="67.8503" x2="51.3998" y2="86.2387" gradientUnits="userSpaceOnUse">
<stop stop-color="#F3BDBB"/>
<stop offset="1" stop-color="#F09690"/>
</linearGradient>
<linearGradient id="paint4_linear" x1="48.1504" y1="53.1628" x2="63.5672" y2="73.6257" gradientUnits="userSpaceOnUse">
<stop stop-color="#F3BDBB"/>
<stop offset="1" stop-color="#F09690"/>
</linearGradient>
<linearGradient id="paint5_linear" x1="52.644" y1="49.7776" x2="68.0608" y2="70.2405" gradientUnits="userSpaceOnUse">
<stop stop-color="#F3BDBB"/>
<stop offset="1" stop-color="#F09690"/>
</linearGradient>
<linearGradient id="paint6_linear" x1="42.9232" y1="57.1016" x2="58.3401" y2="77.5644" gradientUnits="userSpaceOnUse">
<stop stop-color="#F3BDBB"/>
<stop offset="1" stop-color="#F09690"/>
</linearGradient>
<linearGradient id="paint7_linear" x1="42.7127" y1="60.2518" x2="57.5792" y2="60.2518" gradientUnits="userSpaceOnUse">
<stop stop-color="#040559"/>
<stop offset="1" stop-color="#14188A"/>
</linearGradient>
<linearGradient id="paint8_linear" x1="50.2485" y1="65.8041" x2="50.2485" y2="38.1025" gradientUnits="userSpaceOnUse">
<stop stop-color="#040559"/>
<stop offset="1" stop-color="#14188A"/>
</linearGradient>
<linearGradient id="paint9_linear" x1="36.0607" y1="72.1555" x2="43.8751" y2="98.0891" gradientUnits="userSpaceOnUse">
<stop stop-color="#040559"/>
<stop offset="1" stop-color="#14188A"/>
</linearGradient>
<linearGradient id="paint10_linear" x1="61.0714" y1="65.0474" x2="69.6224" y2="93.4254" gradientUnits="userSpaceOnUse">
<stop stop-color="#040559"/>
<stop offset="1" stop-color="#14188A"/>
</linearGradient>
</defs>
</svg>
