<svg width="52" height="52" viewBox="0 0 52 52" fill="none" xmlns="http://www.w3.org/2000/svg">
<rect x="52" y="52" width="52" height="52" rx="8" transform="rotate(-180 52 52)" fill="#FF6843"/>
<path d="M41.5834 21.1193C40.9105 21.1193 40.3667 20.5743 40.3667 19.9027V13.1877C40.3667 12.3308 39.6696 11.6333 38.8138 11.6333H32.0988C31.426 11.6333 30.8821 11.0883 30.8821 10.4167C30.8821 9.74499 31.426 9.2 32.0988 9.2H38.8138C41.0124 9.2 42.8 10.9889 42.8 13.1877V19.9027C42.8 20.5743 42.2562 21.1193 41.5834 21.1193Z" fill="#FBFBFB" stroke="#FF6843" stroke-width="0.4"/>
<path d="M10.4167 21.1193C9.74384 21.1193 9.2 20.5743 9.2 19.9027V13.1877C9.2 10.9889 10.9876 9.2 13.1863 9.2H19.9013C20.5741 9.2 21.1179 9.74499 21.1179 10.4167C21.1179 11.0883 20.5741 11.6333 19.9013 11.6333H13.1863C12.3305 11.6333 11.6333 12.3308 11.6333 13.1877V19.9027C11.6333 20.5743 11.0895 21.1193 10.4167 21.1193Z" fill="#FBFBFB" stroke="#FF6843" stroke-width="0.4"/>
<path d="M38.8138 42.8005H32.0988C31.426 42.8005 30.8821 42.2555 30.8821 41.5838C30.8821 40.9122 31.426 40.3672 32.0988 40.3672H38.8138C39.6696 40.3672 40.3667 39.6697 40.3667 38.8128V32.0978C40.3667 31.4261 40.9105 30.8812 41.5834 30.8812C42.2562 30.8812 42.8 31.4261 42.8 32.0978V38.8128C42.8 41.0116 41.0124 42.8005 38.8138 42.8005Z" fill="#FBFBFB" stroke="#FF6843" stroke-width="0.4"/>
<path d="M19.9013 42.8005H13.1863C10.9876 42.8005 9.2 41.0116 9.2 38.8128V32.0978C9.2 31.4261 9.74384 30.8812 10.4167 30.8812C11.0895 30.8812 11.6333 31.4261 11.6333 32.0978V38.8128C11.6333 39.6697 12.3305 40.3672 13.1863 40.3672H19.9013C20.5741 40.3672 21.1179 40.9122 21.1179 41.5838C21.1179 42.2555 20.5741 42.8005 19.9013 42.8005Z" fill="#FBFBFB" stroke="#FF6843" stroke-width="0.4"/>
<path d="M16.5918 21.9754V22.1754H16.7918H21.0107H21.2107V21.9754V16.7918V16.5918H21.0107H16.7918H16.5918V16.7918V21.9754ZM22.4273 24.6088H15.3752C14.7023 24.6088 14.1585 24.0638 14.1585 23.3921V15.3752C14.1585 14.7035 14.7023 14.1585 15.3752 14.1585H22.4273C23.1002 14.1585 23.644 14.7035 23.644 15.3752V23.3921C23.644 24.0636 23.0989 24.6088 22.4273 24.6088Z" fill="#FBFBFB" stroke="#FF6843" stroke-width="0.4"/>
<path d="M31.1123 35.2083V35.4083H31.3123H35.2082H35.4082V35.2083V30.9583V30.7583H35.2082H33.5337C32.8608 30.7583 32.317 30.2133 32.317 29.5417C32.317 28.87 32.8608 28.325 33.5337 28.325H36.6248C37.2977 28.325 37.8415 28.87 37.8415 29.5417V36.625C37.8415 37.2967 37.2977 37.8417 36.6248 37.8417H29.8957C29.2228 37.8417 28.679 37.2967 28.679 36.625V32.1172C28.679 31.4455 29.2228 30.9005 29.8957 30.9005C30.5685 30.9005 31.1123 31.4455 31.1123 32.1172V35.2083Z" fill="#FBFBFB" stroke="#FF6843" stroke-width="0.4"/>
<path d="M32.0459 19.7541V19.9541H32.2459H35.2082H35.4082V19.7541V16.7918V16.5918H35.2082H32.2459H32.0459V16.7918V19.7541ZM36.6248 22.3874H30.8293C30.1564 22.3874 29.6126 21.8424 29.6126 21.1707V15.3752C29.6126 14.7035 30.1564 14.1585 30.8293 14.1585H36.6248C37.2977 14.1585 37.8415 14.7035 37.8415 15.3752V21.1707C37.8415 21.8424 37.2977 22.3874 36.6248 22.3874Z" fill="#FBFBFB" stroke="#FF6843" stroke-width="0.4"/>
<path d="M25.2607 26.3927H25.4607V26.1927V16.6628C25.4607 15.9911 26.0045 15.4461 26.6773 15.4461C27.3502 15.4461 27.894 15.9911 27.894 16.6628V27.6093C27.894 28.2809 27.3489 28.826 26.6773 28.826H15.3752C14.7023 28.826 14.1585 28.281 14.1585 27.6093C14.1585 26.9377 14.7023 26.3927 15.3752 26.3927H25.2607Z" fill="#FBFBFB" stroke="#FF6843" stroke-width="0.4"/>
<path d="M32.0208 26.541H31.8208V26.741V27.2553C31.8208 27.927 31.277 28.472 30.6042 28.472C29.9313 28.472 29.3875 27.927 29.3875 27.2553V25.3244C29.3875 24.6527 29.9313 24.1077 30.6042 24.1077H36.9792C37.652 24.1077 38.1958 24.6527 38.1958 25.3244C38.1958 25.9961 37.652 26.541 36.9792 26.541H32.0208Z" fill="#FBFBFB" stroke="#FF6843" stroke-width="0.4"/>
<path d="M26.0309 36.0019C25.3581 36.0019 24.8143 35.4569 24.8143 34.7852V31.5666C24.8143 30.8949 25.3581 30.3499 26.0309 30.3499C26.7038 30.3499 27.2476 30.8949 27.2476 31.5666V34.7852C27.2476 35.4569 26.7038 36.0019 26.0309 36.0019Z" fill="#FBFBFB" stroke="#FF6843" stroke-width="0.4"/>
<path d="M16.5918 35.2086V35.4086H16.7918H20.6877H20.8877V35.2086V32.891V32.691H20.6877H16.7918H16.5918V32.891V35.2086ZM22.1043 37.842H15.3752C14.7023 37.842 14.1585 37.297 14.1585 36.6253V31.4743C14.1585 30.8026 14.7023 30.2576 15.3752 30.2576H22.1043C22.7772 30.2576 23.321 30.8026 23.321 31.4743V36.6253C23.321 37.297 22.7772 37.842 22.1043 37.842Z" fill="#FBFBFB" stroke="#FF6843" stroke-width="0.4"/>
</svg>
