<svg width="199" height="193" viewBox="0 0 199 193" fill="none" xmlns="http://www.w3.org/2000/svg">
<ellipse cx="103.5" cy="180" rx="91.5" ry="13" fill="#442A4D"/>
<path d="M184.581 126.376C165.841 167.694 118.318 184.615 81.4368 180.789C71.3684 179.742 51.1091 177.639 35.5751 162.345C5.74957 132.965 11.6979 72.9911 41.575 38.237C45.4247 33.7496 72.0314 3.77853 112.492 5.03858C142.111 5.9579 162.557 23.11 165.042 25.2443C168.184 27.9444 175.098 34.3411 181.239 44.3893C195.666 68.0024 196.291 100.551 184.581 126.376Z" fill="#FEF1FB"/>
<path d="M155.616 118.314C157.231 121.807 155.691 125.301 154.213 127.649C153.858 127.649 153.657 127.747 153.297 127.838C150.078 128.623 148.572 128.222 145.301 128.457C144.597 128.508 142.506 127.981 141.665 127.712L140.107 127.174C140.107 127.174 137.34 118.68 141.687 116.332C146.034 113.984 144.368 105.531 144.007 100.92C143.016 88.4119 156.538 89.5459 156.555 73.3665C156.561 69.0653 155.129 60.8582 158.755 57.4276C162.89 53.5216 165.908 57.3532 168.565 54.0886C172.718 48.9857 179.459 47.153 183.479 52.4048C187.442 57.588 182.626 67.9084 170.65 76.2015C162.729 83.1257 162.609 85.1989 163.228 90.2446C163.663 93.7783 167.036 102.988 162.237 106.665C157.437 110.347 153.766 114.322 155.616 118.314Z" fill="url(#paint0_linear)"/>
<path opacity="0.5" d="M147.008 128.594L146.768 128.565C146.945 127.145 147.14 125.707 147.352 124.31C148.91 113.926 151.378 104.058 154.688 94.992C157.495 87.306 160.948 80.084 164.952 73.5263C168.17 68.2515 171.755 63.3719 175.616 59.0307C178.33 55.9781 181.148 53.2176 183.989 50.8236C184.487 50.4055 185.014 50.0103 185.529 49.6209C186.211 49.1054 186.921 48.5785 187.551 48L187.712 48.1776C187.076 48.7618 186.36 49.3001 185.673 49.8156C185.163 50.1993 184.636 50.5945 184.143 51.0068C181.308 53.3894 178.496 56.1442 175.793 59.1853C171.944 63.5208 168.365 68.3833 165.158 73.6466C161.166 80.1928 157.718 87.4034 154.917 95.0721C151.607 104.127 149.144 113.972 147.592 124.344C147.38 125.741 147.186 127.173 147.008 128.594Z" fill="#FCFDFE"/>
<path opacity="0.5" d="M160.621 81.8254L160.403 81.7223C164.79 72.3755 160.936 55.1022 160.896 54.9246L161.131 54.8731C161.171 55.0506 165.042 72.4041 160.621 81.8254Z" fill="#FCFDFE"/>
<path opacity="0.5" d="M173.564 61.774L173.353 61.6595C176.079 56.5966 177.774 50.646 178.329 48.693C178.467 48.2177 178.513 48.0516 178.541 48L178.759 48.1031C178.742 48.1432 178.662 48.4181 178.564 48.756C178.003 50.7205 176.302 56.694 173.564 61.774Z" fill="#FCFDFE"/>
<path opacity="0.5" d="M167.912 69.3514L167.746 69.1796C171.589 65.3939 182.373 65.5199 182.832 65.5256L182.826 65.7661C182.711 65.7661 171.681 65.6401 167.912 69.3514Z" fill="#FCFDFE"/>
<path d="M136.533 148.57L150.553 152.963C150.553 152.963 155.444 146.6 153.6 140.443C149.837 127.889 161.091 125.466 165.656 123.748C172.54 121.154 176.727 116.331 171.217 110.621C164.986 104.161 175.031 95.3239 186.749 92.7352C198.215 90.2037 200.334 68.3601 175.014 71.5559C159.894 73.4631 157.569 88.1362 154.637 95.2666C151.704 102.397 140.611 99.5849 141.538 109.711C142.329 118.359 146.636 125.833 140.364 129.641C134.099 133.462 131.774 139.206 136.533 148.57Z" fill="url(#paint1_linear)"/>
<path opacity="0.5" d="M142.197 151.778L142.507 151.818C142.529 151.629 144.946 132.546 153.05 114.35C160.513 97.5865 174.47 78.1712 198.565 80.863L198.599 80.5538C187.872 79.3568 178.227 82.3636 169.94 89.494C163.314 95.1868 157.541 103.514 152.764 114.23C144.643 132.46 142.22 151.583 142.197 151.778Z" fill="#BEB8F2"/>
<path opacity="0.5" d="M166.601 92.6151L166.904 92.6724C168.754 82.5123 176.829 69.7921 176.91 69.6661L176.646 69.5C176.566 69.626 168.456 82.3978 166.601 92.6151Z" fill="#BEB8F2"/>
<path opacity="0.5" d="M172.253 88.0158C184.166 84.9289 192.539 90.8279 192.625 90.8852L192.808 90.6332C192.722 90.5702 184.235 84.591 172.179 87.7123L172.253 88.0158Z" fill="#BEB8F2"/>
<path d="M149.802 152.121C149.751 152.144 149.699 152.173 149.642 152.196C146.526 153.633 142.861 154.653 138.56 154.922C137.718 154.916 136.876 154.91 136.028 154.905C135.267 152.923 134.9 150.907 137.443 150.059C141.389 148.748 141.274 141.732 140.106 139.287C138.663 136.257 135.438 129.138 141.509 127.013C146.566 125.243 150.186 125.135 150.346 118.548C150.501 111.968 153.966 107.752 159.94 107.964C166.222 108.182 171.113 99.677 176.337 102.312C185.437 106.905 177.768 121.635 167.007 126.165C156.245 130.696 162.614 134.43 163.072 139.796C163.697 147.127 153.725 145.861 151.188 148.828C150.335 149.836 149.94 150.987 149.802 152.121Z" fill="url(#paint2_linear)"/>
<path opacity="0.5" d="M143.732 154.154L143.439 154.103C147.139 132.757 161.182 113.313 180.088 103.359L180.225 103.623C161.4 113.537 147.42 132.9 143.732 154.154Z" fill="#FCFDFE"/>
<path opacity="0.5" d="M165.947 113.72L165.787 113.474C172.322 109.213 182.671 111.189 182.78 111.206L182.723 111.498C182.614 111.481 172.379 109.522 165.947 113.72Z" fill="#FCFDFE"/>
<path d="M68.64 158.112C68.6222 158.119 68.6069 158.133 68.589 158.141C65.9106 159.84 62.1745 161.068 59.0201 160.156C57.3584 159.676 55.9569 158.701 55.019 157.23C54.4662 156.357 53.9583 155.408 53.6948 154.403C53.4251 153.352 53.3946 152.232 53.5125 151.162C53.5781 150.561 53.6871 149.962 53.8277 149.37C54.224 147.685 55.6915 144.929 53.8782 143.573C52.7821 142.75 51.0442 142.699 49.7561 142.348C47.0084 141.593 44.5245 139.861 43.3404 137.179C42.4092 135.068 42.8343 132.4 43.7142 130.329C47.2967 121.912 38.5242 113.88 47.4729 110.95C56.4276 108.018 62.0067 115.834 62.2528 125.269C62.3352 128.426 62.2076 131.751 62.6868 134.878C63.0636 137.342 64.5407 138.524 66.9027 139.056C68.1771 139.342 69.7943 139.211 71.0002 139.683C73.6823 140.728 76.3081 142.675 77.0287 145.592C77.7449 148.483 76.3062 151.453 74.3308 153.521C72.6152 155.308 70.719 156.791 68.64 158.112Z" fill="url(#paint3_linear)"/>
<path opacity="0.8" d="M66.6264 156.24C66.6085 156.248 66.5821 156.252 66.5617 156.254C66.4569 156.257 66.3655 156.176 66.3567 156.074C66.3487 155.957 65.6119 144.433 59.0412 137.773C52.3602 131.005 52.1561 120.766 52.1533 120.661C52.1504 120.557 52.2396 120.469 52.3443 120.466C52.4491 120.463 52.5371 120.553 52.54 120.658C52.5403 120.757 52.7439 130.847 59.3121 137.501C65.9905 144.262 66.7362 155.938 66.7417 156.049C66.7487 156.131 66.7038 156.207 66.6264 156.24Z" fill="white"/>
<path d="M63.9914 142.328C62.7768 141.493 61.4859 140.775 60.209 140.172C55.8792 138.138 52.3314 135.526 49.2108 131.874C46.75 128.999 45.1376 125.193 43.0176 122.044C41.4829 119.761 39.6063 117.717 37.718 115.728C33.6911 111.497 28.3911 106.852 22.4083 105.849C19.6385 105.386 16.3667 106.627 14.4168 108.656C11.8867 111.29 10.238 115.001 11.5569 118.602C13.3694 123.561 19.9219 127.164 18.3572 133.118C15.9507 142.232 21.7108 148.731 30.649 149.267C33.5628 149.441 36.8516 149.354 39.6442 150.345C42.4539 151.342 42.623 155.028 43.4188 157.48C44.1623 159.779 45.0389 162.452 47.2574 163.732C51.0015 165.898 57.3301 164.82 61.1887 163.532C64.923 162.283 68.842 160.12 70.1219 156.142C72.0426 150.162 68.5424 145.449 63.9914 142.328Z" fill="url(#paint4_linear)"/>
<path opacity="0.8" d="M64.1106 158.726C64.0392 158.757 63.9556 158.744 63.895 158.685C63.6421 158.426 38.7212 132.637 26.7235 123.086C26.6399 123.023 26.6293 122.9 26.6921 122.816C26.7549 122.732 26.8775 122.722 26.9612 122.785C38.9785 132.349 63.9216 158.157 64.1685 158.418C64.2428 158.492 64.2415 158.62 64.165 158.689C64.1497 158.702 64.1285 158.719 64.1106 158.726Z" fill="white"/>
<path d="M60.9501 165.255C61.678 164.814 62.3956 164.349 63.1098 163.893C65.1105 162.62 67.4845 160.804 67.1266 158.106C67.0213 157.337 66.1664 156.254 65.7768 155.58C65.3822 154.894 64.967 154.209 64.4941 153.571C63.8399 152.692 63.066 151.928 62.2028 151.253C60.7044 150.087 59.255 149.345 57.3166 149.763C55.9102 150.072 54.4433 150.633 53.1392 151.245C46.0419 154.587 44.0328 152.367 37.6805 148.508C31.3283 144.649 9.17387 164.864 29.1364 167.975C29.1364 167.975 32.1586 168.498 40.3414 163.775C41.8398 162.91 43.7775 161.933 45.5575 162.377C48.6928 163.163 47.9691 168.005 50.9911 168.479C52.7543 168.752 55.0923 168.049 56.7167 167.427C58.2049 166.849 59.5963 166.079 60.9501 165.255Z" fill="url(#paint5_linear)"/>
<path opacity="0.8" d="M64.4719 160.205C64.4183 160.228 64.3545 160.227 64.2981 160.195C64.2248 160.156 56.9906 155.906 49.89 157.225C47.1119 157.743 44.3731 157.401 41.7238 157.071C37.2534 156.513 33.037 155.988 28.5015 159.146C28.4139 159.205 28.2929 159.186 28.2339 159.098C28.1748 159.011 28.1932 158.889 28.2808 158.83C32.9344 155.586 37.4278 156.148 41.7712 156.689C44.3916 157.018 47.0989 157.352 49.8182 156.845C57.0627 155.499 64.418 159.818 64.494 159.863C64.587 159.915 64.618 160.036 64.5603 160.132C64.5383 160.162 64.5077 160.19 64.4719 160.205Z" fill="white"/>
<g clip-path="url(#clip0)">
<path d="M155.79 10.8644V173.135C155.79 178.473 151.489 182.783 146.192 182.783H61.8083C56.4989 182.783 52.2109 178.46 52.2109 173.135V10.8644C52.2109 5.53993 56.5115 1.21693 61.8083 1.21693H146.192C151.489 1.21693 155.79 5.52726 155.79 10.8644Z" fill="#AFCDFB"/>
<path d="M147.743 80.8312C147.743 89.5913 145.196 97.7556 140.807 104.601C139.369 106.845 137.742 108.937 135.939 110.877C134.034 112.918 131.941 114.781 129.683 116.429C129.482 116.582 129.267 116.734 129.053 116.873C121.965 121.868 113.326 124.784 104.019 124.784C97.5745 124.784 91.4705 123.389 85.9592 120.879C85.2782 120.562 84.6098 120.233 83.9414 119.89C82.4028 119.092 80.9146 118.204 79.4895 117.228C77.85 116.112 76.2988 114.895 74.8359 113.577C65.8943 105.527 60.2695 93.8382 60.2695 80.8312C60.2695 56.5539 79.8426 36.8786 104.006 36.8786C128.157 36.8659 147.743 56.5539 147.743 80.8312Z" fill="#F9DDBF"/>
<path d="M140.945 167.862V182.251C140.945 182.428 140.945 182.606 140.933 182.783H67.622C67.6094 182.606 67.6094 182.428 67.6094 182.251V167.862C67.6094 161.295 71.8216 155.92 76.9797 155.92H131.575C136.721 155.932 140.945 161.295 140.945 167.862Z" fill="#F99746"/>
<path d="M146.192 184H61.8081C55.8554 184 51 179.132 51 173.135V10.8645C51 4.86811 55.8428 -1.52588e-05 61.8081 -1.52588e-05H146.192C152.145 -1.52588e-05 157 4.86811 157 10.8645V173.135C157 179.119 152.145 184 146.192 184ZM61.8081 2.42137C57.1797 2.42137 53.4088 6.21192 53.4088 10.8645V173.135C53.4088 177.788 57.1797 181.579 61.8081 181.579H146.192C150.82 181.579 154.591 177.788 154.591 173.135V10.8645C154.591 6.21192 150.82 2.42137 146.192 2.42137H61.8081Z" fill="#2B478B"/>
<path d="M103.843 173.034L99.126 168.787L100.45 167.291L103.502 170.042L107.714 163.97L109.354 165.123L103.843 173.034Z" fill="white"/>
<path d="M104.233 177.534C99.277 177.534 95.2539 173.49 95.2539 168.508C95.2539 163.526 99.277 159.482 104.233 159.482C109.19 159.482 113.213 163.526 113.213 168.508C113.213 173.49 109.19 177.534 104.233 177.534ZM104.233 159.837C99.4788 159.837 95.607 163.729 95.607 168.508C95.607 173.288 99.4788 177.18 104.233 177.18C108.988 177.18 112.86 173.288 112.86 168.508C112.86 163.729 108.988 159.837 104.233 159.837Z" fill="white"/>
<path d="M138.562 134.811H70.5859V135.42H138.562V134.811Z" fill="#EBF3FA"/>
<path d="M68.3662 135.116C68.3662 133.886 69.3625 132.884 70.5858 132.884C71.8092 132.884 72.8055 133.886 72.8055 135.116C72.8055 136.345 71.8092 137.347 70.5858 137.347C69.3625 137.347 68.3662 136.345 68.3662 135.116Z" fill="#F99746"/>
<path d="M101.598 135.116C101.598 133.455 102.934 132.111 104.587 132.111C106.239 132.111 107.576 133.455 107.576 135.116C107.576 136.777 106.239 138.12 104.587 138.12C102.934 138.108 101.598 136.764 101.598 135.116Z" fill="#F99746"/>
<path d="M136.343 135.116C136.343 133.886 137.339 132.884 138.562 132.884C139.786 132.884 140.782 133.886 140.782 135.116C140.782 136.345 139.786 137.347 138.562 137.347C137.339 137.347 136.343 136.345 136.343 135.116Z" fill="#EBF3FA"/>
<path d="M104.524 134.811H70.5859V135.42H104.524V134.811Z" fill="#F99746"/>
<path d="M60.6611 26.3563V26.052H67.4714L71.6206 18.1413H71.7088C74.9374 18.1413 79.8307 18.1159 80.3225 18.0272L88.7723 9.53333H101.132V9.83758H88.8984L80.5495 18.23C80.4739 18.3695 79.9568 18.3948 76.0598 18.4329C74.1429 18.4455 72.2385 18.4455 71.7971 18.4455L67.6479 26.3563H60.6611Z" fill="#EBF3FA"/>
<path d="M81.9239 19.4724V17.3553L80.0953 16.303L78.2666 17.3553V19.4724L80.0953 20.5373L81.9239 19.4724Z" fill="#EBF3FA"/>
<path d="M90.7648 11.042V8.92483L88.9361 7.8726L87.1074 8.92483V11.042L88.9361 12.1069L90.7648 11.042Z" fill="#EBF3FA"/>
<path d="M95.3927 25.1392V23.022L93.564 21.9698L91.7354 23.022V25.1392L93.564 26.2041L95.3927 25.1392Z" fill="#EBF3FA"/>
<path d="M69.6652 27.2565V25.1393L67.8492 24.0744L66.0205 25.1393V27.2565L67.8492 28.3087L69.6652 27.2565Z" fill="#EBF3FA"/>
<path d="M60.5348 26.762V25.621L59.5511 25.0505L58.5674 25.621V26.762L59.5511 27.3324L60.5348 26.762Z" fill="#EBF3FA"/>
<path d="M102.128 10.4207V9.27973L101.144 8.70924L100.16 9.27973V10.4207L101.144 10.9912L102.128 10.4207Z" fill="#EBF3FA"/>
<path d="M80.3096 18.268L80.524 18.0398L87.1955 24.0616H92.3031V24.3659H87.082L87.0441 24.3278L80.3096 18.268Z" fill="#EBF3FA"/>
<path d="M122.028 25.2154H125.42L127.123 28.1819L125.42 31.1358H122.028L120.325 28.1819L122.028 25.2154Z" fill="#EBF3FA"/>
<path d="M103.716 16.8483H105.419L106.264 18.3316L105.419 19.8022H103.716L102.871 18.3316L103.716 16.8483Z" fill="#EBF3FA"/>
<path d="M111.737 26.8002H113.427L114.284 28.2707L113.427 29.754H111.737L110.892 28.2707L111.737 26.8002Z" fill="#EBF3FA"/>
<path d="M138.221 34.8755H139.911L140.768 36.3461L139.911 37.8293H138.221L137.363 36.3461L138.221 34.8755Z" fill="#EBF3FA"/>
<path d="M144.565 21.108H146.267L147.112 22.5785L146.267 24.0618H144.565L143.72 22.5785L144.565 21.108Z" fill="#EBF3FA"/>
<path d="M121.915 25.2916L122.129 25.1522L117.551 18.0908H105.57V18.3317H117.425L121.915 25.2916Z" fill="#EBF3FA"/>
<path d="M138.196 35.1673L138.423 35.0659L135.384 28.0553H127.123V28.2962H135.232L138.196 35.1673Z" fill="#EBF3FA"/>
<path d="M135.409 28.2452L139.381 22.7052H145.334V22.4516H139.255L135.207 28.1058L135.409 28.2452Z" fill="#EBF3FA"/>
<path d="M120.326 28.0553H113.364V28.2961H120.326V28.0553Z" fill="#EBF3FA"/>
<path d="M148.437 58.7597L147.491 99.0105L147.34 105.235C147.34 106.046 146.671 106.706 145.864 106.706H66.2349C65.4277 106.706 64.7593 106.046 64.7593 105.235L64.671 99.0105L64.1035 59.2415C64.1035 58.4301 65.062 56.8454 66.8024 56.9595L144.628 54.9311C145.65 54.9058 146.633 55.2988 147.352 56.0214C148.059 56.744 148.449 57.7328 148.437 58.7597Z" fill="url(#paint6_linear)"/>
<path opacity="0.2" d="M145.384 103.993C145.384 104.753 144.754 105.375 143.985 105.375H68.1262C67.3569 105.375 66.7263 104.753 66.7263 103.993L66.0957 61.0671C66.0957 60.3065 67.0037 58.8232 68.6685 58.9373L142.812 57.0484C143.783 57.023 144.716 57.3907 145.397 58.0626C146.078 58.7345 146.456 59.6599 146.431 60.6107L145.384 103.993Z" fill="#95B2F3"/>
<path d="M130.629 63.7421C130.604 64.452 130.238 65.0351 129.797 65.0351L103.489 65.1873C102.985 65.1873 102.594 64.5661 102.594 63.8181C102.594 63.0701 103.01 62.4363 103.502 62.4363H129.873C130.301 62.449 130.654 63.0321 130.629 63.7421Z" fill="#8097EC"/>
<path d="M130.352 94.2947C130.326 95.0046 129.961 95.5624 129.532 95.5624L103.59 95.7019C103.098 95.7019 102.707 95.1314 102.707 94.3708C102.707 93.6228 103.111 93.0396 103.602 93.0396H129.607C130.024 93.0396 130.364 93.5848 130.352 94.2947Z" fill="#8097EC"/>
<path d="M130.352 89.4011C130.327 90.1111 129.961 90.6562 129.52 90.6689L103.464 90.8083C102.972 90.8083 102.569 90.2378 102.581 89.4899C102.581 88.7419 102.985 88.1588 103.489 88.1588H129.595C130.024 88.1588 130.365 88.6912 130.352 89.4011Z" fill="#8097EC"/>
<path d="M130.629 69.1679C130.604 69.7637 129.961 70.2454 129.179 70.2454L104.082 70.461C103.25 70.4736 102.581 69.9792 102.594 69.3707V69.3073C102.594 68.6988 103.275 68.2044 104.107 68.1917L129.255 68.0396C130.037 68.0396 130.655 68.5086 130.642 69.1045L130.629 69.1679Z" fill="#8097EC"/>
<path d="M130.528 74.4797C130.503 75.0628 129.86 75.5446 129.078 75.5446L104.044 75.7348C103.224 75.7348 102.556 75.253 102.569 74.6572V74.5938C102.581 73.9853 103.262 73.4908 104.082 73.4908L129.154 73.3641C129.936 73.3641 130.554 73.8331 130.528 74.4163V74.4797Z" fill="#8097EC"/>
<path d="M143.947 105.628H135.409C135.346 105.628 135.296 105.578 135.296 105.514C135.296 105.451 135.346 105.4 135.409 105.4H143.947C144.994 105.4 145.89 104.424 145.89 103.258V76.8759C145.89 76.8125 145.94 76.7618 146.003 76.7618C146.066 76.7618 146.117 76.8125 146.117 76.8759V103.27C146.091 104.551 145.108 105.628 143.947 105.628Z" fill="#BFCFF6"/>
<path d="M66.2219 76.8758C66.1588 76.8758 66.1084 76.8251 66.1084 76.7617V61.5108C66.1084 59.9388 67.2687 58.7598 68.8199 58.7598H75.6049C75.6679 58.7598 75.7184 58.8105 75.7184 58.8738C75.7184 58.9372 75.6679 58.9879 75.6049 58.9879H68.8199C67.3696 58.9879 66.3228 60.0528 66.3228 61.5234V76.787C66.3354 76.8251 66.285 76.8758 66.2219 76.8758Z" fill="#BFCFF6"/>
<path d="M141.526 75.3926L135.851 75.4433C134.804 75.456 133.946 74.5939 133.946 73.5163L133.934 67.6974C133.934 66.6325 134.791 65.7704 135.825 65.7831L141.501 65.8465C142.522 65.8592 143.342 66.7212 143.354 67.7734L143.367 73.4783C143.367 74.5178 142.535 75.3799 141.526 75.3926Z" fill="url(#paint7_linear)"/>
<path d="M134.476 68.1158C134.476 67.127 135.257 66.341 136.229 66.341L141.109 66.3917C142.055 66.4043 142.812 67.1903 142.824 68.1665L142.837 73.0727C142.837 74.0362 142.08 74.8348 141.134 74.8475L136.254 74.8855C135.295 74.8982 134.501 74.0995 134.501 73.1107L134.476 68.1158ZM136.229 66.5945C135.396 66.5818 134.728 67.2664 134.728 68.1158L134.74 73.098C134.74 73.9474 135.421 74.632 136.254 74.6193L141.134 74.5813C141.942 74.5813 142.597 73.8967 142.597 73.06L142.585 68.1538C142.585 67.3171 141.929 66.6325 141.109 66.6325L136.229 66.5945Z" fill="url(#paint8_linear)"/>
<path d="M134.602 68.736L142.698 68.7738L134.602 68.736Z" fill="#F3F6F9"/>
<path d="M142.698 68.8889L134.602 68.8635V68.61L142.698 68.648V68.8889Z" fill="url(#paint9_linear)"/>
<path d="M142.698 70.7399H134.602V70.4863L142.698 70.499V70.7399Z" fill="url(#paint10_linear)"/>
<path d="M134.614 72.4884L142.711 72.4632L134.614 72.4884Z" fill="#F3F6F9"/>
<path d="M142.711 72.5907L134.614 72.6161V72.3625L142.711 72.3372V72.5907Z" fill="url(#paint11_linear)"/>
<path d="M139.823 73.8453L137.565 73.858C136.985 73.858 136.518 73.3762 136.506 72.7931L136.493 68.4574C136.493 67.8616 136.96 67.3798 137.54 67.3925L139.797 67.4052C140.365 67.4052 140.832 67.8869 140.832 68.4828L140.844 72.7931C140.857 73.3509 140.39 73.8326 139.823 73.8453Z" fill="url(#paint12_linear)"/>
<path d="M139.823 73.9601L137.565 73.9728C136.922 73.9728 136.392 73.4403 136.392 72.7811L136.38 68.4327C136.38 67.7735 136.91 67.2411 137.553 67.2411L139.81 67.2537C140.453 67.2537 140.97 67.7989 140.97 68.4454L140.983 72.7431C140.983 73.4276 140.466 73.9601 139.823 73.9601ZM137.54 67.4946C137.023 67.4946 136.607 67.913 136.607 68.4454L136.62 72.7811C136.62 73.3009 137.036 73.7319 137.553 73.7319L139.81 73.7192C140.315 73.7192 140.731 73.2882 140.731 72.7684L140.718 68.4581C140.718 67.9383 140.302 67.5073 139.798 67.5073L137.54 67.4946Z" fill="url(#paint13_linear)"/>
<path d="M99.075 95.917H70.0306C69.8162 95.917 69.6396 95.7395 69.6396 95.524V63.9573C69.6396 63.7418 69.8162 63.5643 70.0306 63.5643H99.075C99.2894 63.5643 99.466 63.7418 99.466 63.9573V95.524C99.466 95.7395 99.2894 95.917 99.075 95.917Z" fill="white"/>
<path d="M102.077 94.6496C101.181 89.4265 98.7977 84.6598 98.7977 84.6598L95.6826 95.537C95.6826 95.537 95.7331 95.6638 95.8213 95.9301L101.017 95.9174C101.686 95.9047 102.19 95.3089 102.077 94.6496Z" fill="url(#paint14_linear)"/>
<path d="M75.0884 95.9172C75.4289 94.6875 75.6937 93.9015 75.6937 93.9015L70.5987 84.647C70.5987 84.647 69.4384 86.0288 68.2025 94.0156C68.0511 95.0044 68.7826 95.9172 69.7915 95.9172H75.0884Z" fill="url(#paint15_linear)"/>
<path d="M92.6438 95.9172L91.2565 81.3508C85.0769 79.0562 77.2955 81.6298 77.2955 81.6298L76.6523 95.9172H92.6438Z" fill="url(#paint16_linear)"/>
<path d="M81.3435 76.7617L81.23 80.603C81.2174 80.9833 81.457 81.3256 81.8101 81.4524C82.7938 81.7947 84.8117 82.3271 86.7286 81.6299C87.1196 81.4904 87.3466 81.0974 87.2835 80.679L86.7034 76.749H81.3435V76.7617Z" fill="url(#paint17_linear)"/>
<path d="M79.3893 69.7375C79.3893 69.7375 80.0577 76.6213 81.5333 78.3708C81.5333 78.3708 85.9599 78.7765 87.5742 77.8257C87.5742 77.8257 88.7093 74.3901 88.5831 69.8009C88.5831 69.8009 88.7975 65.63 84.2195 65.275C78.847 64.882 79.3893 69.7375 79.3893 69.7375Z" fill="url(#paint18_linear)"/>
<path d="M88.1162 71.9061C88.1162 71.9061 88.5198 70.6891 89.1882 70.6891C89.8566 70.6891 89.0495 73.9218 88.1162 73.9218V71.9061Z" fill="url(#paint19_linear)"/>
<path d="M79.9946 72.2233C79.9946 72.2233 79.427 71.0697 78.7712 71.1711C78.1028 71.2599 79.3388 74.3658 80.272 74.2391L79.9946 72.2233Z" fill="url(#paint20_linear)"/>
<path d="M79.4775 70.6006C79.4775 70.6006 80.0072 77.2182 81.7981 79.5255C81.962 79.741 82.2016 79.8551 82.4539 79.8804C83.3745 79.9311 85.7202 80.0199 87.0445 79.7283C87.3724 79.6522 87.6498 79.3987 87.7507 79.0437C87.9399 78.4099 88.1164 77.9154 88.129 77.6872C88.1795 76.6604 88.4065 73.8206 88.7092 69.9413C88.6209 69.8019 88.52 69.6498 88.4317 69.5103C88.3434 70.4104 87.8011 76.1152 86.9309 76.2547C86.7418 76.2801 86.54 76.242 86.54 76.242C86.0103 76.1406 85.859 75.7222 85.4932 75.4433C84.85 74.9743 83.7655 75.063 83.1475 75.5574C82.8953 75.7603 82.7313 76.0265 82.2899 76.2167C82.0125 76.3434 81.735 76.3688 81.6593 76.3688C81.0288 76.3434 80.3982 73.8333 80.0451 70.4358L79.4775 70.6006Z" fill="url(#paint21_linear)"/>
<path d="M86.7672 68.027C86.7672 68.027 83.3494 71.0062 79.6164 70.9935C79.6164 70.9935 77.4977 66.2014 81.6595 65.4027C85.8213 64.6041 85.96 65.6309 85.96 65.6309C85.96 65.6309 90.8281 64.6167 88.6589 70.4737L86.7672 68.027Z" fill="url(#paint22_linear)"/>
<path d="M75.0757 95.9174H78.7457L80.4987 80.8566C75.6811 81.3003 70.5986 84.6472 70.5986 84.6472L74.3821 93.889C74.6469 94.5482 74.874 95.2328 75.0757 95.9174Z" fill="url(#paint23_linear)"/>
<path d="M95.9481 95.9172C96.1499 95.0552 96.4021 94.2565 96.6922 93.4451L98.8109 84.647C94.5861 81.3382 87.9902 80.5649 87.9902 80.5649L90.4621 95.9172H95.9481Z" fill="url(#paint24_linear)"/>
<g opacity="0.5">
<g opacity="0.5">
<g opacity="0.5">
<path opacity="0.5" d="M102.128 73.8584C102.128 73.1358 102.708 72.5527 103.427 72.5527C104.146 72.5527 104.726 73.1358 104.726 73.8584C104.726 74.5811 104.146 75.1642 103.427 75.1642C102.708 75.1642 102.128 74.5811 102.128 73.8584Z" fill="white"/>
<path opacity="0.5" d="M102.128 91.1253C102.128 90.4027 102.708 89.8195 103.427 89.8195C104.146 89.8195 104.726 90.4027 104.726 91.1253C104.726 91.8479 104.146 92.4311 103.427 92.4311C102.708 92.4311 102.128 91.8479 102.128 91.1253Z" fill="white"/>
<path opacity="0.5" d="M102.128 82.8087C102.128 82.0861 102.708 81.503 103.427 81.503C104.146 81.503 104.726 82.0861 104.726 82.8087C104.726 83.5313 104.146 84.1145 103.427 84.1145C102.708 84.1145 102.128 83.5313 102.128 82.8087Z" fill="white"/>
<path opacity="0.5" d="M92.4922 82.8087C92.4922 82.0861 93.0723 81.503 93.7912 81.503C94.51 81.503 95.0902 82.0861 95.0902 82.8087C95.0902 83.5313 94.51 84.1145 93.7912 84.1145C93.0723 84.1145 92.4922 83.5313 92.4922 82.8087Z" fill="white"/>
<path opacity="0.5" d="M112.746 73.8584C112.746 73.1358 113.326 72.5527 114.045 72.5527C114.764 72.5527 115.344 73.1358 115.344 73.8584C115.344 74.5811 114.764 75.1642 114.045 75.1642C113.326 75.1642 112.746 74.5811 112.746 73.8584Z" fill="white"/>
<path opacity="0.5" d="M112.746 82.8087C112.746 82.0861 113.326 81.503 114.045 81.503C114.764 81.503 115.344 82.0861 115.344 82.8087C115.344 83.5313 114.764 84.1145 114.045 84.1145C113.326 84.1145 112.746 83.5313 112.746 82.8087Z" fill="white"/>
<path opacity="0.5" d="M112.746 91.1253C112.746 90.4027 113.326 89.8195 114.045 89.8195C114.764 89.8195 115.344 90.4027 115.344 91.1253C115.344 91.8479 114.764 92.4311 114.045 92.4311C113.326 92.4311 112.746 91.8479 112.746 91.1253Z" fill="white"/>
<path opacity="0.5" d="M112.746 99.9361C112.746 99.2135 113.326 98.6304 114.045 98.6304C114.764 98.6304 115.344 99.2135 115.344 99.9361C115.344 100.659 114.764 101.242 114.045 101.242C113.326 101.242 112.746 100.659 112.746 99.9361Z" fill="white"/>
<path opacity="0.5" d="M123.769 82.8087C123.769 82.0861 124.349 81.503 125.068 81.503C125.786 81.503 126.367 82.0861 126.367 82.8087C126.367 83.5313 125.786 84.1145 125.068 84.1145C124.361 84.1145 123.769 83.5313 123.769 82.8087Z" fill="white"/>
<path opacity="0.5" d="M131.626 82.8087C131.626 82.0861 132.206 81.503 132.925 81.503C133.644 81.503 134.224 82.0861 134.224 82.8087C134.224 83.5313 133.644 84.1145 132.925 84.1145C132.219 84.1145 131.626 83.5313 131.626 82.8087Z" fill="white"/>
<path opacity="0.5" d="M123.769 91.1253C123.769 90.4027 124.349 89.8195 125.068 89.8195C125.786 89.8195 126.367 90.4027 126.367 91.1253C126.367 91.8479 125.786 92.4311 125.068 92.4311C124.361 92.4311 123.769 91.8479 123.769 91.1253Z" fill="white"/>
<path opacity="0.5" d="M112.746 64.9083C112.746 64.1857 113.326 63.6025 114.045 63.6025C114.764 63.6025 115.344 64.1857 115.344 64.9083C115.344 65.6309 114.764 66.2141 114.045 66.2141C113.326 66.2141 112.746 65.6309 112.746 64.9083Z" fill="white"/>
<path opacity="0.5" d="M123.353 73.8584C123.353 73.1358 123.933 72.5527 124.652 72.5527C125.37 72.5527 125.951 73.1358 125.951 73.8584C125.951 74.5811 125.37 75.1642 124.652 75.1642C123.945 75.1642 123.353 74.5811 123.353 73.8584Z" fill="white"/>
</g>
<g opacity="0.5">
<path opacity="0.5" d="M103.263 91.4676V73.8586H103.591V90.7703L113.869 82.7201V64.9084H114.21V82.8849L103.263 91.4676Z" fill="white"/>
</g>
<g opacity="0.5">
<path opacity="0.5" d="M114.045 100.152L102.96 90.9477H113.881V82.9736H102.96L114.033 73.6431L125.232 82.7328V90.7069L132.685 82.8088L124.526 73.9853L114.02 65.1365L103.515 73.9853L94.0308 82.7962L102.96 90.7195L102.733 90.9731L93.5264 82.7962L103.288 73.7191L114.02 64.6801L124.765 73.7318L133.139 82.7962L125.219 91.1759V91.2774H125.106L114.045 100.152ZM103.893 91.29L114.045 99.7205L124.589 91.29H103.893ZM114.209 90.9477H124.904V82.8849L114.045 74.0741L103.893 82.6313H114.209V90.9477Z" fill="white"/>
</g>
<g opacity="0.5">
<path opacity="0.5" d="M114.21 99.9358H113.869V91.0363L124.248 83.2143L124.45 83.4932L114.21 91.2011V99.9358Z" fill="white"/>
</g>
</g>
<g opacity="0.5">
<path opacity="0.5" d="M102.506 82.6312H94.6113V82.9735H102.506V82.6312Z" fill="white"/>
</g>
<g opacity="0.5">
<path opacity="0.5" d="M124.349 82.6312H115.345V82.9735H124.349V82.6312Z" fill="white"/>
</g>
<g opacity="0.5">
<path opacity="0.5" d="M125.232 82.2636L124.5 74.0233H103.981V73.6936H124.816L125.572 82.2382L125.232 82.2636Z" fill="white"/>
</g>
<g opacity="0.5">
<path opacity="0.5" d="M124.979 91.252L113.768 82.8088L124.55 73.7318L124.765 73.9853L114.31 82.7961L125.181 90.9858L124.979 91.252Z" fill="white"/>
</g>
<g opacity="0.5">
<path opacity="0.5" d="M103.531 73.7189L103.32 73.988L113.938 82.3802L114.149 82.1112L103.531 73.7189Z" fill="white"/>
</g>
<g opacity="0.5">
<path opacity="0.5" d="M133.366 82.6312H125.08V82.9735H133.366V82.6312Z" fill="white"/>
</g>
</g>
<path d="M75.3902 59.0642H73.2715V52.5227H80.3466V54.6651H75.3902V59.0642Z" fill="white"/>
<path d="M133.341 59.3556H131.209V54.3734H126.833V52.2309H133.341V59.3556Z" fill="white"/>
<path d="M133.341 100.938H126.253V98.795H131.209V94.396H133.341V100.938Z" fill="white"/>
<path d="M79.7664 101.229H73.2715V94.1045H75.3902V99.0867H79.7664V101.229Z" fill="white"/>
<path d="M149.282 47.0077L130.087 37.2461L57.5456 32.8597C56.7132 22.4642 56.0322 129.512 56.0322 129.512H152.763C152.763 129.512 152.511 86.4852 152.107 59.3682C151.88 44.8526 149.572 43.382 149.282 47.0077ZM140.794 104.601C139.357 106.845 137.73 108.937 135.926 110.877C134.022 112.918 131.928 114.781 129.671 116.429C129.469 116.581 129.255 116.734 129.04 116.873C121.953 121.868 113.314 124.784 104.007 124.784C97.562 124.784 91.458 123.389 85.9468 120.866C85.2658 120.549 84.5974 120.232 83.929 119.878C82.3903 119.079 80.9022 118.191 79.4771 117.215C77.8502 116.1 76.2864 114.883 74.8234 113.564C65.8945 105.527 60.2697 93.8381 60.2697 80.8311C60.2697 56.5538 79.8428 36.8785 104.007 36.8785C128.158 36.8785 147.731 56.5538 147.731 80.8311C147.743 89.5912 145.196 97.7427 140.794 104.601Z" fill="#AFCDFB"/>
</g>
<defs>
<linearGradient id="paint0_linear" x1="176.91" y1="47.5586" x2="134.286" y2="140.745" gradientUnits="userSpaceOnUse">
<stop stop-color="#AA80F9"/>
<stop offset="0.9964" stop-color="#6165D7"/>
</linearGradient>
<linearGradient id="paint1_linear" x1="186.926" y1="74.7441" x2="134.147" y2="145.326" gradientUnits="userSpaceOnUse">
<stop offset="0.00359712" stop-color="#E38DDD"/>
<stop offset="1" stop-color="#9571F6"/>
</linearGradient>
<linearGradient id="paint2_linear" x1="168.372" y1="105.403" x2="138.584" y2="157.049" gradientUnits="userSpaceOnUse">
<stop stop-color="#FFC444"/>
<stop offset="0.9964" stop-color="#F36F56"/>
</linearGradient>
<linearGradient id="paint3_linear" x1="44.7135" y1="140.375" x2="70.1444" y2="129.414" gradientUnits="userSpaceOnUse">
<stop stop-color="#FF9085"/>
<stop offset="1" stop-color="#FB6FBB"/>
</linearGradient>
<linearGradient id="paint4_linear" x1="19.5005" y1="143.654" x2="60.0404" y2="126.181" gradientUnits="userSpaceOnUse">
<stop stop-color="#FFC444"/>
<stop offset="0.9964" stop-color="#F36F56"/>
</linearGradient>
<linearGradient id="paint5_linear" x1="22.9831" y1="167.401" x2="63.6508" y2="149.873" gradientUnits="userSpaceOnUse">
<stop offset="0.00359712" stop-color="#E38DDD"/>
<stop offset="1" stop-color="#9571F6"/>
</linearGradient>
<linearGradient id="paint6_linear" x1="109.734" y1="44.55" x2="97.9084" y2="154.349" gradientUnits="userSpaceOnUse">
<stop stop-color="#4B58F5"/>
<stop offset="1" stop-color="#3C48D8"/>
</linearGradient>
<linearGradient id="paint7_linear" x1="158.207" y1="17.5945" x2="152.325" y2="33.3603" gradientUnits="userSpaceOnUse">
<stop stop-color="#F09690"/>
<stop offset="1" stop-color="#EC7869"/>
</linearGradient>
<linearGradient id="paint8_linear" x1="130.862" y1="98.1207" x2="144.316" y2="51.0687" gradientUnits="userSpaceOnUse">
<stop stop-color="#F3BDBB"/>
<stop offset="1" stop-color="#F09690"/>
</linearGradient>
<linearGradient id="paint9_linear" x1="130.166" y1="98.7388" x2="143.244" y2="51.4554" gradientUnits="userSpaceOnUse">
<stop stop-color="#F3BDBB"/>
<stop offset="1" stop-color="#F09690"/>
</linearGradient>
<linearGradient id="paint10_linear" x1="130.658" y1="98.8747" x2="143.736" y2="51.592" gradientUnits="userSpaceOnUse">
<stop stop-color="#F3BDBB"/>
<stop offset="1" stop-color="#F09690"/>
</linearGradient>
<linearGradient id="paint11_linear" x1="131.151" y1="99.0113" x2="144.229" y2="51.7277" gradientUnits="userSpaceOnUse">
<stop stop-color="#F3BDBB"/>
<stop offset="1" stop-color="#F09690"/>
</linearGradient>
<linearGradient id="paint12_linear" x1="158.243" y1="17.6077" x2="152.361" y2="33.3734" gradientUnits="userSpaceOnUse">
<stop stop-color="#F09690"/>
<stop offset="1" stop-color="#EC7869"/>
</linearGradient>
<linearGradient id="paint13_linear" x1="130.887" y1="98.128" x2="144.341" y2="51.076" gradientUnits="userSpaceOnUse">
<stop stop-color="#F3BDBB"/>
<stop offset="1" stop-color="#F09690"/>
</linearGradient>
<linearGradient id="paint14_linear" x1="94.4818" y1="79.9287" x2="98.9822" y2="94.8639" gradientUnits="userSpaceOnUse">
<stop stop-color="#040559"/>
<stop offset="1" stop-color="#14188A"/>
</linearGradient>
<linearGradient id="paint15_linear" x1="69.0815" y1="84.6652" x2="73.6489" y2="99.8228" gradientUnits="userSpaceOnUse">
<stop stop-color="#040559"/>
<stop offset="1" stop-color="#14188A"/>
</linearGradient>
<linearGradient id="paint16_linear" x1="116.934" y1="2.19639" x2="111.052" y2="17.9622" gradientUnits="userSpaceOnUse">
<stop stop-color="#F09690"/>
<stop offset="1" stop-color="#EC7869"/>
</linearGradient>
<linearGradient id="paint17_linear" x1="84.1852" y1="79.4313" x2="84.8696" y2="90.8486" gradientUnits="userSpaceOnUse">
<stop stop-color="#F3BDBB"/>
<stop offset="1" stop-color="#F09690"/>
</linearGradient>
<linearGradient id="paint18_linear" x1="82.8514" y1="70.3119" x2="92.4236" y2="83.0173" gradientUnits="userSpaceOnUse">
<stop stop-color="#F3BDBB"/>
<stop offset="1" stop-color="#F09690"/>
</linearGradient>
<linearGradient id="paint19_linear" x1="85.642" y1="68.21" x2="95.2143" y2="80.9154" gradientUnits="userSpaceOnUse">
<stop stop-color="#F3BDBB"/>
<stop offset="1" stop-color="#F09690"/>
</linearGradient>
<linearGradient id="paint20_linear" x1="79.6066" y1="72.7575" x2="89.1789" y2="85.4628" gradientUnits="userSpaceOnUse">
<stop stop-color="#F3BDBB"/>
<stop offset="1" stop-color="#F09690"/>
</linearGradient>
<linearGradient id="paint21_linear" x1="79.4756" y1="74.7135" x2="88.7062" y2="74.7135" gradientUnits="userSpaceOnUse">
<stop stop-color="#040559"/>
<stop offset="1" stop-color="#14188A"/>
</linearGradient>
<linearGradient id="paint22_linear" x1="84.155" y1="78.1608" x2="84.155" y2="60.961" gradientUnits="userSpaceOnUse">
<stop stop-color="#040559"/>
<stop offset="1" stop-color="#14188A"/>
</linearGradient>
<linearGradient id="paint23_linear" x1="75.3464" y1="82.1044" x2="80.1983" y2="98.2064" gradientUnits="userSpaceOnUse">
<stop stop-color="#040559"/>
<stop offset="1" stop-color="#14188A"/>
</linearGradient>
<linearGradient id="paint24_linear" x1="90.8753" y1="77.691" x2="96.1846" y2="95.3108" gradientUnits="userSpaceOnUse">
<stop stop-color="#040559"/>
<stop offset="1" stop-color="#14188A"/>
</linearGradient>
<clipPath id="clip0">
<rect width="106" height="184" fill="white" transform="translate(51)"/>
</clipPath>
</defs>
</svg>
