<svg width="90" height="90" viewBox="0 0 90 90" fill="none" xmlns="http://www.w3.org/2000/svg">
<path d="M44.874 42.4758C38.9711 42.4758 33.0934 42.4758 27.1905 42.4758C26.7635 42.4758 26.3365 42.4507 25.9346 42.5261C24.6033 42.7523 23.8497 43.657 23.8497 44.9386C23.8246 46.2957 24.6033 47.2507 25.9597 47.4768C26.2862 47.5271 26.6379 47.5271 26.9644 47.5271C39.0465 47.5271 51.1285 47.5271 63.2106 47.5271C63.6125 47.5271 64.0395 47.4768 64.4414 47.3763C65.5717 47.0496 66.1746 46.2454 66.1746 45.0643C66.1997 43.8329 65.5969 42.9533 64.4414 42.6266C63.8888 42.4758 63.2859 42.4507 62.7082 42.4507C56.7551 42.4507 50.802 42.4507 44.874 42.4758C44.874 42.4507 44.874 42.4507 44.874 42.4758Z" fill="#FF6843"/>
<path d="M45.052 61.5957C48.0662 61.5957 51.0805 61.5957 54.0947 61.5957C58.0634 61.5706 60.9018 59.0072 61.5549 55.1622C61.8815 53.2523 60.6758 51.8701 58.8421 51.9706C57.8123 52.0209 57.0336 52.624 56.7321 53.6293C56.6317 53.956 56.6066 54.2827 56.5312 54.6094C56.3051 55.7905 55.5013 56.4942 54.2454 56.5444C54.0445 56.5444 53.8184 56.5444 53.6174 56.5444C47.815 56.5444 41.9875 56.5444 36.1851 56.5444C34.3012 56.5444 33.7235 56.0418 33.4723 54.2073C33.2714 52.7748 32.2415 51.9204 30.7595 51.9958C29.4282 52.0712 28.4486 53.0261 28.4235 54.4586C28.3983 55.9664 28.9258 57.3486 29.7548 58.5549C31.2619 60.7161 33.4472 61.5957 36.0093 61.6208C39.0235 61.6208 42.0378 61.5957 45.052 61.5957Z" fill="#FF6843"/>
<path d="M45.0031 28.3981C41.9888 28.3981 38.9746 28.3981 35.9603 28.3981C32.067 28.3981 29.1281 30.8861 28.4499 34.7562C28.0982 36.7164 29.329 38.174 31.1878 38.0232C32.1926 37.9478 32.8959 37.4201 33.2475 36.44C33.348 36.1635 33.3983 35.8871 33.4485 35.5855C33.6997 34.1531 34.4532 33.4745 35.9101 33.4494C39.2258 33.4243 42.5163 33.4494 45.832 33.4494C48.4694 33.4494 51.1069 33.4494 53.7443 33.4494C55.7287 33.4494 56.2562 33.9018 56.5325 35.8368C56.7334 37.2442 57.8135 38.0986 59.2704 37.9981C60.6017 37.8976 61.5562 36.9175 61.5562 35.485C61.5562 34.0274 61.1041 32.6704 60.2501 31.4892C58.7429 29.3782 56.6079 28.373 54.0206 28.373C51.0315 28.3981 48.0173 28.3981 45.0031 28.3981Z" fill="#FF6843"/>
<path d="M71.0004 26.9918C70.8999 26.1624 70.8497 25.3331 70.7241 24.5038C70.2719 21.9153 67.1572 18.8996 63.9169 19.0504C63.0378 19.1007 62.1586 19.0253 61.2795 19.0756C59.7724 19.1258 59.0188 19.9551 59.0188 21.4881C59.0188 22.996 59.7975 23.8755 61.2544 23.9258C61.9326 23.9509 62.5856 23.9258 63.2638 23.9509C64.9719 24.0012 65.9767 25.0064 66.0269 26.6902C66.052 27.3687 66.0269 28.0221 66.052 28.7006C66.1023 30.1834 66.9814 30.9875 68.4634 30.9875C69.9956 30.9875 70.8497 30.2336 70.925 28.7509C70.9501 28.1729 70.925 27.5698 70.925 26.9918C70.925 26.9918 70.9753 26.9918 71.0004 26.9918Z" fill="#FF6843"/>
<path d="M62.9609 70.9966C63.7898 70.9212 64.6187 70.8709 65.4476 70.7201C68.2107 70.2175 71.0491 67.0762 70.9235 63.9348C70.8984 63.0553 70.9486 62.1757 70.9235 61.2961C70.8732 59.8134 70.0192 59.0092 68.5372 59.0092C66.9798 58.9841 66.1258 59.8134 66.0756 61.3715C66.0504 62.05 66.0756 62.7034 66.0756 63.382C66.0253 65.0406 65.0457 65.9956 63.3879 66.0458C62.6845 66.071 61.9561 66.0207 61.2528 66.071C59.8461 66.1463 59.0675 67.0008 59.0423 68.4332C59.0172 69.9662 59.7959 70.8458 61.2277 70.9212C61.8054 70.9463 62.4082 70.9212 62.986 70.9212C62.9609 70.9463 62.9609 70.9715 62.9609 70.9966Z" fill="#FF6843"/>
<path d="M27.1139 19.0002C26.285 19.0756 25.4561 19.1007 24.6272 19.2515C21.8139 19.7541 18.9253 22.9206 19.076 26.1122C19.1262 26.9918 19.0508 27.8713 19.076 28.7509C19.1262 30.2085 20.0054 30.9875 21.5376 30.9875C23.0196 30.9875 23.8987 30.1834 23.949 28.7006C23.9741 27.997 23.9239 27.2682 23.9741 26.5645C24.0495 24.9813 25.004 24.0263 26.5864 23.9509C27.2898 23.9258 28.0182 23.9761 28.7215 23.9258C30.2035 23.8755 30.9822 22.996 31.0073 21.4881C31.0073 19.9803 30.2286 19.1258 28.7466 19.0504C28.194 19.0253 27.6665 19.0504 27.1139 19.0504C27.1139 19.0504 27.1139 19.0253 27.1139 19.0002Z" fill="#FF6843"/>
<path d="M19 62.9907C19.1005 63.82 19.1507 64.6493 19.2763 65.4786C19.7284 68.0671 22.8431 71.0577 26.0835 70.9069C26.9626 70.8566 27.8418 70.932 28.7209 70.8817C30.2029 70.8315 30.9816 69.9519 30.9816 68.4441C30.9816 66.9362 30.2029 66.0818 28.7209 66.0064C28.0176 65.9812 27.2891 66.0064 26.5858 65.9812C24.9782 65.9059 24.0237 64.976 23.9484 63.3928C23.9232 62.7142 23.9484 62.0608 23.9232 61.3823C23.873 59.7991 23.0692 58.9698 21.537 58.9698C19.9294 58.9698 19.1005 59.7739 19.0754 61.4577C19.0502 61.9603 19.0754 62.4629 19.0754 62.9656C19.0502 62.9907 19.0251 62.9907 19 62.9907Z" fill="#FF6843"/>
<circle cx="45" cy="45" r="43" stroke="#FF6843" stroke-width="4"/>
</svg>
