<svg width="169" height="208" viewBox="0 0 169 208" fill="none" xmlns="http://www.w3.org/2000/svg">
    <g clip-path="url(#clip0_1241_12079)">
        <path d="M147 35.3453V173.027C147 179.279 141.907 184.372 135.655 184.372H33.3453C27.0928 184.372 22 179.279 22 173.027V35.3453C22 29.0928 27.0928 24 33.3453 24H135.655C141.907 24 147 29.0928 147 35.3453Z" fill="#98C8E4"/>
        <path d="M33.3454 175.548C31.9587 175.548 30.8242 174.414 30.8242 173.027V35.3454C30.8242 33.9587 31.9587 32.8242 33.3454 32.8242H135.655C137.041 32.8242 138.176 33.9587 138.176 35.3454V173.027C138.176 174.414 137.041 175.548 135.655 175.548H33.3454Z" fill="#F1EAE1"/>
        <path d="M108.199 42.9338H60.8011C60.0952 42.9338 59.5405 42.3791 59.5405 41.6732V40.9168C59.5405 40.2109 60.0952 39.6562 60.8011 39.6562H108.199C108.905 39.6562 109.46 40.2109 109.46 40.9168V41.6732C109.46 42.3539 108.88 42.9338 108.199 42.9338Z" fill="#19526C"/>
        <path d="M103.403 105H65.572C64.71 105 64 104.429 64 103.735V101.265C64 100.571 64.71 100 65.572 100H103.428C104.29 100 105 100.571 105 101.265V103.735C104.975 104.429 104.265 105 103.403 105Z" fill="#19526C"/>
        <path d="M123.402 74.8268H45.573C44.6906 74.8268 43.9595 74.0957 43.9595 73.2133V73.1629C43.9595 72.2805 44.6906 71.5493 45.573 71.5493H123.402C124.284 71.5493 125.015 72.2805 125.015 73.1629V73.2133C125.015 74.1209 124.309 74.8268 123.402 74.8268Z" fill="#19526C"/>
        <path d="M123.402 83.3234H45.573C44.6906 83.3234 43.9595 82.5923 43.9595 81.7099V81.6595C43.9595 80.777 44.6906 80.0459 45.573 80.0459H123.402C124.284 80.0459 125.015 80.777 125.015 81.6595V81.7099C125.015 82.6175 124.309 83.3234 123.402 83.3234Z" fill="#19526C"/>
        <path d="M123.402 91.8195H45.573C44.6906 91.8195 43.9595 91.0884 43.9595 90.206V90.1555C43.9595 89.2731 44.6906 88.542 45.573 88.542H123.402C124.284 88.542 125.015 89.2731 125.015 90.1555V90.206C125.015 91.1136 124.309 91.8195 123.402 91.8195Z" fill="#19526C"/>
        <path d="M123.402 115.367H45.573C44.6906 115.367 43.9595 114.636 43.9595 113.754V113.703C43.9595 112.821 44.6906 112.09 45.573 112.09H123.402C124.284 112.09 125.015 112.821 125.015 113.703V113.754C125.015 114.661 124.309 115.367 123.402 115.367Z" fill="#19526C"/>
        <path d="M123.402 128.049H45.573C44.6906 128.049 43.9595 127.318 43.9595 126.435V126.385C43.9595 125.503 44.6906 124.771 45.573 124.771H123.402C124.284 124.771 125.015 125.503 125.015 126.385V126.435C125.015 127.318 124.309 128.049 123.402 128.049Z" fill="#19526C"/>
        <path d="M123.402 140.705H45.573C44.6906 140.705 43.9595 139.974 43.9595 139.092V139.041C43.9595 138.159 44.6906 137.428 45.573 137.428H123.402C124.284 137.428 125.015 138.159 125.015 139.041V139.092C125.015 139.999 124.309 140.705 123.402 140.705Z" fill="#19526C"/>
        <path d="M100.283 156.564H79.5586C79.1047 156.564 78.7266 156.186 78.7266 155.732V154.144C78.7266 153.69 79.1047 153.312 79.5586 153.312H100.283C100.736 153.312 101.115 153.69 101.115 154.144V155.732C101.14 156.186 100.762 156.564 100.283 156.564Z" fill="#19526C"/>
        <path d="M100.283 166.068H79.5586C79.1047 166.068 78.7266 165.69 78.7266 165.236V163.648C78.7266 163.194 79.1047 162.816 79.5586 162.816H100.283C100.736 162.816 101.115 163.194 101.115 163.648V165.236C101.14 165.69 100.762 166.068 100.283 166.068Z" fill="#19526C"/>
        <path d="M128.873 156.564H108.149C107.695 156.564 107.317 156.186 107.317 155.732V154.144C107.317 153.69 107.695 153.312 108.149 153.312H128.873C129.327 153.312 129.705 153.69 129.705 154.144V155.732C129.73 156.186 129.352 156.564 128.873 156.564Z" fill="#19526C"/>
        <path d="M128.873 166.068H108.149C107.695 166.068 107.317 165.69 107.317 165.236V163.648C107.317 163.194 107.695 162.816 108.149 162.816H128.873C129.327 162.816 129.705 163.194 129.705 163.648V165.236C129.73 165.69 129.352 166.068 128.873 166.068Z" fill="#19526C"/>
        <path d="M48.1698 24L22 50.1698V44.2451L42.2703 24H48.1698Z" fill="#3660AD"/>
        <path d="M54.0946 24L22 56.0946V50.1698L48.1698 24H54.0946Z" fill="#FCD63A"/>
        <path d="M60.0194 24L22 62.0194V56.0946L54.0946 24H60.0194Z" fill="#ED1E27"/>
        <path d="M48.573 170.858C41.8666 170.858 36.4209 165.413 36.4209 158.706C36.4209 152 41.8666 146.554 48.573 146.554C55.2793 146.554 60.7251 152 60.7251 158.706C60.6998 165.413 55.2541 170.858 48.573 170.858ZM48.573 147.336C42.2952 147.336 37.1773 152.454 37.1773 158.732C37.1773 165.009 42.2952 170.127 48.573 170.127C54.8507 170.127 59.9687 165.009 59.9687 158.732C59.9435 152.429 54.8507 147.336 48.573 147.336Z" fill="#D61F5B"/>
        <path d="M48.5734 164.127C51.567 164.127 53.9939 161.7 53.9939 158.707C53.9939 155.713 51.567 153.286 48.5734 153.286C45.5797 153.286 43.1528 155.713 43.1528 158.707C43.1528 161.7 45.5797 164.127 48.5734 164.127Z" fill="#D61F5B"/>
        <path d="M43.6314 58.3132H42.1943V57.103H46.5056V58.3132H45.0433V62.2966H43.6566V58.3132H43.6314Z" fill="#19526C"/>
        <path d="M47.1108 62.2966V57.103H48.4975V62.2966H47.1108Z" fill="#19526C"/>
        <path d="M50.5645 58.3132H49.1274V57.103H53.4386V58.3132H51.9764V62.2966H50.5897V58.3132H50.5645Z" fill="#19526C"/>
        <path d="M55.4304 57.103V61.0613H57.8003V62.2966H54.0186V57.103H55.4304Z" fill="#19526C"/>
        <path d="M62.9941 57.1284V60.0278C62.9941 61.5657 62.1117 62.4229 60.6494 62.4229C59.1871 62.4229 58.3047 61.5909 58.3047 60.0026V57.1284H59.6913V60.0026C59.6913 60.8093 60.0695 61.1623 60.6242 61.1623C61.204 61.1623 61.557 60.8093 61.557 60.0278V57.1284H62.9941Z" fill="#19526C"/>
        <path d="M67.6835 57.1033C69.4484 57.1033 70.2803 58.2379 70.2803 59.6497C70.2803 61.0868 69.4736 62.2718 67.6835 62.2718H65.5405V57.0781H67.6835V57.1033ZM66.9272 61.0616H67.6583C68.5407 61.0616 68.8685 60.3557 68.8685 59.6497C68.8685 58.9438 68.5155 58.3387 67.6583 58.3387H66.9272V61.0616Z" fill="#19526C"/>
        <path d="M74.9952 62.2966H71.0117V57.103H74.8943V58.3384H72.3984V59.0695H74.7431V60.2545H72.3984V61.0361H74.9952V62.2966Z" fill="#19526C"/>
        <path d="M78.802 60.9102V62.322H77.3901V57.1284H79.8105C81.1467 57.1284 81.8022 58.0108 81.8022 59.0193C81.8022 60.0782 81.1467 60.9102 79.8105 60.9102H78.802ZM78.802 59.6748H79.8105C80.1886 59.6748 80.3903 59.3723 80.3903 59.0445C80.3903 58.7168 80.1886 58.389 79.8105 58.389H78.802V59.6748Z" fill="#19526C"/>
        <path d="M87.0461 62.2966H85.5081L84.3484 60.6075H83.8694V62.2966H82.4575V57.103H84.8778C86.1384 57.103 86.8191 57.9602 86.8191 58.8931C86.8191 59.5234 86.6175 60.078 85.7603 60.4562L87.0461 62.1958V62.2966ZM83.8442 58.288V59.5234H84.8778C85.256 59.5234 85.4073 59.246 85.4073 58.9183C85.4073 58.5905 85.2308 58.2628 84.8526 58.2628H83.8442V58.288Z" fill="#19526C"/>
        <path d="M90.1219 62.4228C88.4832 62.4228 87.3486 61.4395 87.3486 59.6999C87.3486 57.9855 88.4832 56.9771 90.1219 56.9771C91.7607 56.9771 92.8952 57.9603 92.8952 59.6999C92.87 61.4395 91.7607 62.4228 90.1219 62.4228ZM90.1219 58.2376C89.3152 58.2376 88.7605 58.8427 88.7605 59.6999C88.7605 60.5571 89.3152 61.1622 90.1219 61.1622C90.9539 61.1622 91.4834 60.5571 91.4834 59.6999C91.4834 58.8175 90.9287 58.2376 90.1219 58.2376Z" fill="#19526C"/>
        <path d="M95.0129 60.9102V62.322H93.6011V57.1284H96.0214C97.3576 57.1284 98.0131 58.0108 98.0131 59.0193C98.0131 60.0782 97.3576 60.9102 96.0214 60.9102H95.0129ZM95.0129 59.6748H96.0214C96.3996 59.6748 96.6013 59.3723 96.6013 59.0445C96.6013 58.7168 96.3996 58.389 96.0214 58.389H95.0129V59.6748Z" fill="#19526C"/>
        <path d="M103.257 62.2966H101.719L100.56 60.6075H100.081V62.2966H98.6436V57.103H101.064C102.324 57.103 103.005 57.9602 103.005 58.8931C103.005 59.5234 102.804 60.078 101.946 60.4562L103.232 62.1958V62.2966H103.257ZM100.055 58.288V59.5234H101.089C101.467 59.5234 101.619 59.246 101.619 58.9183C101.619 58.5905 101.442 58.2628 101.064 58.2628H100.055V58.288Z" fill="#19526C"/>
        <path d="M103.887 62.2966V57.103H105.274V62.2966H103.887Z" fill="#19526C"/>
        <path d="M110.266 62.2966H106.283V57.103H110.165V58.3384H107.669V59.0695H110.014V60.2545H107.669V61.0361H110.266V62.2966Z" fill="#19526C"/>
        <path d="M112.106 58.3132H110.669V57.103H114.981V58.3132H113.518V62.2966H112.132V58.3132H112.106Z" fill="#19526C"/>
        <path d="M118.561 61.4648H116.342L116.014 62.322H114.527L116.745 57.1284H118.157L120.376 62.322H118.863L118.561 61.4648ZM117.451 58.5655L116.821 60.2295H118.082L117.451 58.5655Z" fill="#19526C"/>
        <path d="M121.385 58.3132H119.948V57.103H124.259V58.3132H122.797V62.2966H121.41V58.3132H121.385Z" fill="#19526C"/>
        <path d="M128.822 62.2966H124.839V57.103H128.721V58.3384H126.226V59.0695H128.57V60.2545H126.226V61.0361H128.822V62.2966Z" fill="#19526C"/>
        <path d="M72.4992 31.866H71.5664L70.0537 30.076H68.9948V31.866H68.188V26.6724C68.9696 26.6724 69.7259 26.6724 70.5075 26.6724C71.6672 26.6724 72.2723 27.5044 72.2723 28.3616C72.2723 29.0927 71.8941 29.8238 70.9109 29.9751L72.3984 31.7147L72.4992 31.866ZM68.9948 27.4287V29.3196H70.5075C71.163 29.3196 71.4655 28.891 71.4655 28.3868C71.4655 27.9077 71.163 27.4287 70.5327 27.4287H68.9948Z" fill="#485E6D"/>
        <path d="M78.0962 29.2942C78.0962 30.706 77.2894 31.9666 75.5498 31.9666C73.8102 31.9666 73.0034 30.6556 73.0034 29.2942C73.0034 27.7058 74.0623 26.5713 75.5498 26.5713C77.2642 26.5965 78.0962 27.8823 78.0962 29.2942ZM75.575 31.2103C76.8104 31.2103 77.3398 30.3026 77.3398 29.2942C77.3398 28.3361 76.8104 27.3529 75.6002 27.3276C74.4405 27.3276 73.8354 28.1596 73.8354 29.2942C73.8354 30.227 74.3396 31.2103 75.575 31.2103Z" fill="#485E6D"/>
        <path d="M83.3657 27.8825L81.6765 30.3281H81.5001L79.8361 27.8825V31.866H79.0293V26.6724C79.3318 26.6724 79.6344 26.6724 79.9621 26.6724L81.6009 29.0927L83.2397 26.6724H84.1725V31.866H83.3657V27.8825Z" fill="#485E6D"/>
        <path d="M88.8615 30.7819H86.1639L85.6848 31.866H84.8276L87.0463 26.6724H87.9035L90.1221 31.866H89.2649L88.8615 30.7819ZM87.5253 27.5548L86.4664 30.0255H88.559L87.5253 27.5548Z" fill="#485E6D"/>
        <path d="M94.3072 30.3533V26.6724H95.114V31.866H94.5089L91.6852 28.2103V31.866H90.8784V26.6724H91.4835L94.3072 30.3533Z" fill="#485E6D"/>
        <path d="M96.3496 31.866V26.6724H97.1312V31.866H96.3496Z" fill="#485E6D"/>
        <path d="M101.846 30.7819H99.1482L98.6692 31.866H97.812L100.031 26.6724H100.888L103.106 31.866H102.249L101.846 30.7819ZM100.484 27.5548L99.4256 30.0255H101.518L100.484 27.5548Z" fill="#485E6D"/>
    </g>
    <path d="M57.873 204L18.7597 204C10.6419 204 4 198.154 4 191.009L4 143.699" stroke="#313769" stroke-width="8" stroke-miterlimit="10" stroke-linecap="round"/>
    <path d="M164.52 143.699L164.52 191.009C164.52 198.154 158.013 204 150.061 204L111.746 204" stroke="#313769" stroke-width="8" stroke-miterlimit="10" stroke-linecap="round"/>
    <path d="M111.746 4.00033L150.061 4.00033C158.013 4.00033 164.52 9.84643 164.52 16.9917L164.52 64.3018" stroke="#313769" stroke-width="8" stroke-miterlimit="10" stroke-linecap="round"/>
    <path d="M4 64.3018L4 16.9917C4 9.84643 10.6419 4.00033 18.7597 4.00033L57.873 4.00033" stroke="#313769" stroke-width="8" stroke-miterlimit="10" stroke-linecap="round"/>
    <defs>
        <clipPath id="clip0_1241_12079">
            <rect width="125" height="160.372" fill="white" transform="translate(22 24)"/>
        </clipPath>
    </defs>
</svg>
