<svg width="52" height="52" viewBox="0 0 52 52" fill="none" xmlns="http://www.w3.org/2000/svg">
<rect x="52" y="52" width="52" height="52" rx="8" transform="rotate(-180 52 52)" fill="#FF6843"/>
<path d="M25.9104 24.2241C21.7563 24.2241 17.6198 24.2241 13.4657 24.2241C13.1652 24.2241 12.8647 24.2064 12.5819 24.2595C11.645 24.4187 11.1147 25.0553 11.1147 25.9573C11.097 26.9123 11.645 27.5844 12.5995 27.7436C12.8294 27.7789 13.0768 27.7789 13.3066 27.7789C21.8093 27.7789 30.312 27.7789 38.8147 27.7789C39.0975 27.7789 39.398 27.7436 39.6808 27.6728C40.4763 27.4429 40.9006 26.877 40.9006 26.0457C40.9182 25.1791 40.494 24.5601 39.6808 24.3302C39.292 24.2241 38.8677 24.2064 38.4611 24.2064C34.2717 24.2064 30.0822 24.2064 25.9104 24.2241C25.9104 24.2064 25.9104 24.2064 25.9104 24.2241Z" fill="white"/>
<path d="M26.0358 37.6808C28.1571 37.6808 30.2783 37.6808 32.3996 37.6808C35.1926 37.6631 37.1901 35.8592 37.6497 33.1533C37.8795 31.8092 37.031 30.8365 35.7406 30.9072C35.0158 30.9426 34.4678 31.367 34.2557 32.0745C34.185 32.3044 34.1673 32.5343 34.1143 32.7642C33.9552 33.5954 33.3895 34.0906 32.5057 34.126C32.3642 34.126 32.2051 34.126 32.0637 34.126C27.9803 34.126 23.8792 34.126 19.7958 34.126C18.4701 34.126 18.0635 33.7723 17.8867 32.4812C17.7453 31.4731 17.0205 30.8718 15.9776 30.9249C15.0407 30.9779 14.3513 31.65 14.3336 32.6581C14.3159 33.7192 14.6872 34.6919 15.2705 35.5408C16.3311 37.0618 17.869 37.6808 19.6721 37.6985C21.7933 37.6985 23.9146 37.6808 26.0358 37.6808Z" fill="white"/>
<path d="M26 14.3188C23.8788 14.3188 21.7575 14.3188 19.6363 14.3188C16.8963 14.3188 14.8281 16.0697 14.3508 18.7933C14.1033 20.1728 14.9695 21.1985 16.2776 21.0924C16.9847 21.0394 17.4797 20.668 17.7271 19.9782C17.7978 19.7837 17.8332 19.5892 17.8686 19.3769C18.0453 18.3688 18.5756 17.8913 19.6009 17.8736C21.9343 17.856 24.25 17.8736 26.5834 17.8736C28.4394 17.8736 30.2955 17.8736 32.1516 17.8736C33.5481 17.8736 33.9193 18.192 34.1138 19.5538C34.2552 20.5442 35.0153 21.1455 36.0406 21.0747C36.9775 21.004 37.6492 20.3143 37.6492 19.3062C37.6492 18.2804 37.331 17.3254 36.73 16.4942C35.6694 15.0086 34.1668 14.3011 32.3461 14.3011C30.2425 14.3188 28.1213 14.3188 26 14.3188Z" fill="white"/>
<path d="M44.2962 13.3298C44.2255 12.7462 44.1902 12.1626 44.1018 11.579C43.7836 9.75733 41.5916 7.63505 39.3113 7.74117C38.6926 7.77654 38.0739 7.72348 37.4552 7.75885C36.3946 7.79422 35.8643 8.37785 35.8643 9.45667C35.8643 10.5178 36.4122 11.1368 37.4375 11.1722C37.9148 11.1899 38.3744 11.1722 38.8517 11.1899C40.0537 11.2252 40.7608 11.9327 40.7962 13.1176C40.8138 13.5951 40.7962 14.0549 40.8138 14.5325C40.8492 15.5759 41.4679 16.1418 42.5108 16.1418C43.5891 16.1418 44.1902 15.6113 44.2432 14.5678C44.2609 14.1611 44.2432 13.7366 44.2432 13.3298C44.2432 13.3298 44.2786 13.3298 44.2962 13.3298Z" fill="white"/>
<path d="M38.6389 44.2966C39.2223 44.2436 39.8056 44.2082 40.3889 44.1021C42.3334 43.7484 44.3309 41.5377 44.2426 39.327C44.2249 38.708 44.2602 38.089 44.2426 37.47C44.2072 36.4265 43.6062 35.8606 42.5632 35.8606C41.4672 35.8429 40.8662 36.4265 40.8309 37.523C40.8132 38.0005 40.8309 38.4604 40.8309 38.9379C40.7955 40.1051 40.1061 40.7772 38.9394 40.8126C38.4445 40.8302 37.9318 40.7949 37.4369 40.8302C36.4469 40.8833 35.899 41.4846 35.8813 42.4927C35.8636 43.5715 36.4116 44.1905 37.4192 44.2436C37.8258 44.2613 38.25 44.2436 38.6566 44.2436C38.6389 44.2613 38.6389 44.2789 38.6389 44.2966Z" fill="white"/>
<path d="M13.4136 7.7058C12.8302 7.75886 12.2469 7.77655 11.6635 7.88266C9.68371 8.23637 7.65085 10.4648 7.75691 12.7108C7.79226 13.3298 7.73923 13.9488 7.75691 14.5678C7.79226 15.5936 8.41096 16.1418 9.48926 16.1418C10.5322 16.1418 11.1509 15.5759 11.1863 14.5325C11.2039 14.0373 11.1686 13.5244 11.2039 13.0292C11.257 11.915 11.9287 11.2429 13.0424 11.1899C13.5373 11.1722 14.05 11.2076 14.5449 11.1722C15.5879 11.1368 16.1358 10.5178 16.1535 9.45668C16.1535 8.39554 15.6055 7.79423 14.5626 7.74117C14.1737 7.72349 13.8025 7.74117 13.4136 7.74117C13.4136 7.74117 13.4136 7.72349 13.4136 7.7058Z" fill="white"/>
<path d="M7.7041 38.6733C7.77481 39.257 7.81016 39.8406 7.89855 40.4242C8.21674 42.2458 10.4087 44.3504 12.689 44.2443C13.3077 44.2089 13.9264 44.262 14.5451 44.2266C15.5881 44.1913 16.1361 43.5723 16.1361 42.5111C16.1361 41.45 15.5881 40.8487 14.5451 40.7956C14.0502 40.7779 13.5375 40.7956 13.0426 40.7779C11.9112 40.7249 11.2395 40.0705 11.1865 38.9563C11.1688 38.4788 11.1865 38.019 11.1688 37.5415C11.1335 36.4273 10.5678 35.8436 9.48949 35.8436C8.35815 35.8436 7.77481 36.4096 7.75713 37.5945C7.73946 37.9482 7.75713 38.3019 7.75713 38.6557C7.73946 38.6733 7.72178 38.6733 7.7041 38.6733Z" fill="white"/>
</svg>
