<svg width="167" height="208" viewBox="0 0 167 208" fill="none" xmlns="http://www.w3.org/2000/svg">
    <g clip-path="url(#clip0_1241_12079)">
        <path d="M140.422 186.353H26.6219C23.5035 186.353 21 183.85 21 180.732V27.6219C21 24.5035 23.5035 22 26.6219 22H140.422C143.54 22 146.044 24.5035 146.044 27.6219V180.775C146 183.85 143.496 186.353 140.422 186.353Z" fill="#E3E6E8"/>
        <path d="M67.5126 50.0658H37.734C36.8117 50.0658 36.065 49.3191 36.065 48.3968V46.9913C36.065 46.0689 36.8117 45.3223 37.734 45.3223H67.5126C68.435 45.3223 69.1817 46.0689 69.1817 46.9913V48.3968C69.1817 49.3191 68.435 50.0658 67.5126 50.0658Z" fill="#19526C"/>
        <path d="M67.5126 40.8861H37.734C36.8117 40.8861 36.065 40.1394 36.065 39.2171V37.8116C36.065 36.8892 36.8117 36.1426 37.734 36.1426H67.5126C68.435 36.1426 69.1817 36.8892 69.1817 37.8116V39.2171C69.1817 40.1394 68.435 40.8861 67.5126 40.8861Z" fill="#19526C"/>
        <path d="M132.472 50.0656H78.7126C76.8679 50.0656 75.3746 48.5723 75.3746 46.7276V42.9503C75.3746 41.1056 76.8679 39.6123 78.7126 39.6123H132.472C134.317 39.6123 135.81 41.1056 135.81 42.9503V46.7276C135.766 48.5723 134.317 50.0656 132.472 50.0656Z" fill="#19526C"/>
        <path d="M67.1613 164.085H35.3183C34.5277 164.085 33.9128 163.47 33.9128 162.68V162.46C33.9128 161.67 34.5277 161.055 35.3183 161.055H67.1613C67.9518 161.055 68.5667 161.67 68.5667 162.46V162.68C68.5667 163.47 67.9518 164.085 67.1613 164.085Z" fill="#19526C"/>
        <path d="M86.1792 155.565H35.9771C34.8352 155.565 33.9128 154.642 33.9128 153.5V153.456C33.9128 152.314 34.8352 151.392 35.9771 151.392H86.1792C87.3211 151.392 88.2435 152.314 88.2435 153.456V153.5C88.2435 154.642 87.3211 155.565 86.1792 155.565Z" fill="#19526C"/>
        <path d="M112.708 164.085H80.8647C80.0741 164.085 79.4592 163.47 79.4592 162.68V162.46C79.4592 161.67 80.0741 161.055 80.8647 161.055H112.708C113.498 161.055 114.113 161.67 114.113 162.46V162.68C114.113 163.47 113.498 164.085 112.708 164.085Z" fill="#19526C"/>
        <path d="M112.708 172.562H80.8647C80.0741 172.562 79.4592 171.947 79.4592 171.157V170.937C79.4592 170.147 80.0741 169.532 80.8647 169.532H112.708C113.498 169.532 114.113 170.147 114.113 170.937V171.157C114.113 171.947 113.498 172.562 112.708 172.562Z" fill="#19526C"/>
        <path d="M132.911 172.562H121.668C121.184 172.562 120.789 172.167 120.789 171.684V170.366C120.789 169.883 121.184 169.488 121.668 169.488H132.911C133.395 169.488 133.79 169.883 133.79 170.366V171.684C133.79 172.211 133.395 172.562 132.911 172.562Z" fill="#19526C"/>
        <path d="M132.911 164.085H121.668C121.184 164.085 120.789 163.69 120.789 163.207V161.889C120.789 161.406 121.184 161.011 121.668 161.011H132.911C133.395 161.011 133.79 161.406 133.79 161.889V163.207C133.79 163.69 133.395 164.085 132.911 164.085Z" fill="#19526C"/>
        <path d="M45.5081 145.419H35.2744C34.5277 145.419 33.9128 144.804 33.9128 144.057V139.358C33.9128 138.611 34.5277 137.996 35.2744 137.996H45.552C46.2986 137.996 46.9135 138.611 46.9135 139.358V144.101C46.8696 144.848 46.2547 145.419 45.5081 145.419Z" fill="#19526C"/>
        <path d="M83.5 144.716C100.849 134.702 118.066 126.489 118.066 107.339V105.846V75.1446L83.5 59.1133H83.4561L48.934 75.1446V105.846V107.339C48.934 126.489 66.1511 134.702 83.5 144.716Z" fill="#19526C"/>
        <path d="M83.5439 134.79C100.761 127.455 110.687 118.188 110.687 105.933V104.967V80.8105L83.5439 68.2051H83.5L56.3127 80.8544V105.011V105.977C56.3127 118.231 66.239 127.499 83.4561 134.834H83.5439V134.79Z" fill="#E8E5E3"/>
        <path d="M98.2576 114.63V99.5208C98.2576 98.9937 98.6968 98.5545 99.2239 98.5545H101.42C102.342 98.5545 102.738 97.4126 102.035 96.8416L84.0271 78.3946C83.6757 78.0872 83.1487 78.0872 82.7973 78.3946L65.0092 96.8416C64.3064 97.4126 64.7017 98.5545 65.6241 98.5545H67.8201C68.3472 98.5545 68.7864 98.9937 68.7864 99.5208V114.63C68.7864 115.157 69.2256 115.596 69.7527 115.596H97.2913C97.8184 115.596 98.2576 115.157 98.2576 114.63Z" fill="#19526C"/>
        <path fill-rule="evenodd" clip-rule="evenodd" d="M91.8415 96.9011L81.6701 107.754L75.2646 102.142L77.2414 99.8859L81.4649 103.586L89.6526 94.8496L91.8415 96.9011Z" fill="#E8E5E3"/>
    </g>
    <path d="M57.2479 204L18.5885 204C10.5648 204 4 198.154 4 191.009L4 143.699" stroke="#313769" stroke-width="8" stroke-miterlimit="10" stroke-linecap="round"/>
    <path d="M162.657 143.699L162.657 191.009C162.657 198.154 156.226 204 148.366 204L110.496 204" stroke="#313769" stroke-width="8" stroke-miterlimit="10" stroke-linecap="round"/>
    <path d="M110.496 4.00033L148.366 4.00033C156.226 4.00033 162.657 9.84643 162.657 16.9917L162.657 64.3018" stroke="#313769" stroke-width="8" stroke-miterlimit="10" stroke-linecap="round"/>
    <path d="M4 64.3018L4 16.9917C4 9.84643 10.5648 4.00033 18.5885 4.00033L57.2479 4.00033" stroke="#313769" stroke-width="8" stroke-miterlimit="10" stroke-linecap="round"/>
    <defs>
        <clipPath id="clip0_1241_12079">
            <rect width="125" height="164.353" fill="white" transform="translate(21 22)"/>
        </clipPath>
    </defs>
</svg>
