<svg width="16" height="16" viewBox="0 0 16 16" fill="none" xmlns="http://www.w3.org/2000/svg">
<path d="M13.0286 16H10.4381V14.3238H13.0286C13.3721 14.3238 13.7015 14.1873 13.9444 13.9444C14.1873 13.7015 14.3238 13.3721 14.3238 13.0286V10.4381H16V13.0286C15.9991 13.8164 15.6857 14.5716 15.1287 15.1287C14.5716 15.6857 13.8164 15.9991 13.0286 16ZM16 5.5619H14.3238V2.97143C14.3238 2.62791 14.1873 2.29846 13.9444 2.05556C13.7015 1.81265 13.3721 1.67619 13.0286 1.67619H10.4381V0H13.0286C13.8164 0.000907423 14.5716 0.314259 15.1287 0.871314C15.6857 1.42837 15.9991 2.18364 16 2.97143V5.5619ZM5.5619 16H2.97143C2.18364 15.9991 1.42837 15.6857 0.871314 15.1287C0.314259 14.5716 0.000907423 13.8164 0 13.0286V10.4381H1.67619V13.0286C1.67619 13.3721 1.81265 13.7015 2.05556 13.9444C2.29846 14.1873 2.62791 14.3238 2.97143 14.3238H5.5619V16ZM1.67619 5.5619H0V2.97143C0.000907423 2.18364 0.314259 1.42837 0.871314 0.871314C1.42837 0.314259 2.18364 0.000907423 2.97143 0H5.5619V1.67619H2.97143C2.62791 1.67619 2.29846 1.81265 2.05556 2.05556C1.81265 2.29846 1.67619 2.62791 1.67619 2.97143V5.5619Z" fill="white"/>
</svg>
