<svg width="30" height="30" viewBox="0 0 30 30" fill="none" xmlns="http://www.w3.org/2000/svg">
<path d="M14.9276 13.5434C11.5219 13.5434 8.13055 13.5434 4.72475 13.5434C4.47837 13.5434 4.232 13.5289 4.00011 13.5724C3.232 13.7029 2.79722 14.2249 2.79722 14.9644C2.78272 15.7474 3.232 16.2984 4.01461 16.4289C4.20301 16.4579 4.40591 16.4579 4.59432 16.4579C11.5653 16.4579 18.5363 16.4579 25.5074 16.4579C25.7392 16.4579 25.9856 16.4289 26.2175 16.3709C26.8697 16.1824 27.2175 15.7184 27.2175 15.0369C27.232 14.3264 26.8842 13.8189 26.2175 13.6304C25.8987 13.5434 25.5508 13.5289 25.2175 13.5289C21.7827 13.5289 18.3479 13.5289 14.9276 13.5434C14.9276 13.5289 14.9276 13.5289 14.9276 13.5434Z" fill="white"/>
<path d="M15.0293 24.5767C16.7684 24.5767 18.5075 24.5767 20.2467 24.5767C22.5365 24.5622 24.1742 23.0832 24.551 20.8647C24.7394 19.7628 24.0438 18.9653 22.9858 19.0233C22.3916 19.0523 21.9423 19.4003 21.7684 19.9803C21.7104 20.1688 21.6959 20.3573 21.6525 20.5458C21.522 21.2272 21.0583 21.6332 20.3336 21.6622C20.2177 21.6622 20.0872 21.6622 19.9713 21.6622C16.6235 21.6622 13.2612 21.6622 9.91333 21.6622C8.82637 21.6622 8.49304 21.3722 8.34811 20.3138C8.23217 19.4873 7.63796 18.9943 6.78289 19.0378C6.01478 19.0813 5.44956 19.6323 5.43507 20.4588C5.42057 21.3287 5.72492 22.1262 6.20318 22.8222C7.07275 24.0692 8.33362 24.5767 9.81188 24.5912C11.551 24.5912 13.2901 24.5767 15.0293 24.5767Z" fill="white"/>
<path d="M14.9994 5.4227C13.2603 5.4227 11.5211 5.4227 9.78201 5.4227C7.53563 5.4227 5.83998 6.85818 5.44868 9.09114C5.24578 10.2221 5.95592 11.0631 7.02839 10.9761C7.6081 10.9326 8.01389 10.6281 8.21679 10.0626C8.27476 9.90313 8.30375 9.74364 8.33273 9.56964C8.47766 8.74315 8.91244 8.35166 9.75302 8.33716C11.6661 8.32266 13.5646 8.33716 15.4777 8.33716C16.9994 8.33716 18.5211 8.33716 20.0429 8.33716C21.1878 8.33716 21.4922 8.59815 21.6516 9.71464C21.7675 10.5266 22.3907 11.0196 23.2313 10.9616C23.9994 10.9036 24.5501 10.3381 24.5501 9.51164C24.5501 8.67065 24.2893 7.88766 23.7965 7.20617C22.9269 5.98819 21.695 5.4082 20.2023 5.4082C18.4777 5.4227 16.7385 5.4227 14.9994 5.4227Z" fill="white"/>
<path d="M30 4.61116C29.942 4.13267 29.913 3.65418 29.8405 3.17569C29.5797 1.68221 27.7826 -0.0577607 25.913 0.0292382C25.4058 0.0582376 24.8985 0.0147371 24.3913 0.0437365C23.5217 0.0727358 23.0869 0.551229 23.0869 1.43571C23.0869 2.3057 23.5362 2.81319 24.3768 2.84219C24.7681 2.85669 25.1449 2.84219 25.5362 2.85669C26.5217 2.88569 27.1014 3.46568 27.1304 4.43717C27.1449 4.82866 27.1304 5.20565 27.1449 5.59715C27.1739 6.45263 27.6811 6.91663 28.5362 6.91663C29.4202 6.91663 29.913 6.48163 29.9565 5.62615C29.971 5.29265 29.9565 4.94466 29.9565 4.61116C29.9565 4.61116 29.9855 4.61116 30 4.61116Z" fill="white"/>
<path d="M25.3628 30C25.841 29.9565 26.3193 29.9275 26.7976 29.8405C28.3918 29.5505 30.0295 27.738 29.957 25.9256C29.9425 25.4181 29.9715 24.9106 29.957 24.4031C29.928 23.5476 29.4352 23.0836 28.5802 23.0836C27.6816 23.0691 27.1889 23.5476 27.1599 24.4466C27.1454 24.8381 27.1599 25.2151 27.1599 25.6066C27.1309 26.5636 26.5657 27.1145 25.6092 27.1435C25.2034 27.158 24.7831 27.129 24.3773 27.158C23.5657 27.2015 23.1164 27.6945 23.1019 28.521C23.0874 29.4055 23.5367 29.913 24.3628 29.9565C24.6961 29.971 25.0439 29.9565 25.3773 29.9565C25.3628 29.971 25.3628 29.9855 25.3628 30Z" fill="white"/>
<path d="M4.68098 0.000243664C4.20272 0.0437431 3.72446 0.0582428 3.2462 0.145241C1.62301 0.435236 -0.0436556 2.2622 0.0433009 4.10367C0.0722864 4.61116 0.0288082 5.11866 0.0433009 5.62615C0.0722864 6.46713 0.579533 6.91663 1.46359 6.91663C2.31866 6.91663 2.82591 6.45263 2.8549 5.59715C2.86939 5.19115 2.8404 4.77066 2.86939 4.36467C2.91287 3.45118 3.46359 2.90019 4.37663 2.8567C4.78243 2.8422 5.20272 2.87119 5.60852 2.84219C6.46359 2.81319 6.91287 2.3057 6.92736 1.43572C6.92736 0.565733 6.47808 0.0727425 5.62301 0.029243C5.30417 0.0147433 4.99982 0.029243 4.68098 0.029243C4.68098 0.029243 4.68098 0.0147438 4.68098 0.000243664Z" fill="white"/>
<path d="M0 25.3893C0.057971 25.8678 0.0869565 26.3463 0.15942 26.8248C0.42029 28.3183 2.21739 30.0437 4.08696 29.9567C4.5942 29.9277 5.10145 29.9712 5.6087 29.9422C6.46377 29.9132 6.91304 29.4057 6.91304 28.5358C6.91304 27.6658 6.46377 27.1728 5.6087 27.1293C5.2029 27.1148 4.78261 27.1293 4.37681 27.1148C3.44928 27.0713 2.89855 26.5348 2.85507 25.6213C2.84058 25.2298 2.85507 24.8528 2.84058 24.4613C2.81159 23.5478 2.34783 23.0694 1.46377 23.0694C0.536232 23.0694 0.057971 23.5333 0.0434783 24.5048C0.0289855 24.7948 0.0434783 25.0848 0.0434783 25.3748C0.0289855 25.3893 0.0144928 25.3893 0 25.3893Z" fill="white"/>
</svg>
