<svg width="169" height="211" viewBox="0 0 169 211" fill="none" xmlns="http://www.w3.org/2000/svg"><path d="M58 207H19c-8 0-15-6-15-13v-48M165 146v48c0 7-7 13-15 13h-38M112 5h38c8 0 15 6 15 13v48M4 66V18c0-7 7-13 15-13h39" stroke="#313769" stroke-width="8" stroke-miterlimit="10" stroke-linecap="round"/><g clip-path="url(#a)"><path d="M142 186H29c-3 0-6-2-6-5V28c0-3 3-6 6-6h113c3 0 6 3 6 6v153c0 3-3 5-6 5Z" fill="#E3E6E8"/><path d="M115 43H43l-1-1v-1h74v1l-1 1ZM90 38H43l-1-1v-2l1-1h47l1 1v2l-1 1ZM122 176H49v-2h73v2Z" fill="#19526C"/><path d="M70 101h-8v8h8v-8ZM62 116h-7v8h7v-8ZM70 70h-8v8h8v-8ZM70 93h-8v8h8v-8ZM70 85h-8v8h8v-8ZM70 78h-8v7h8v-7ZM62 124h-7v8h7v-8ZM62 132h-7v7h7v-7ZM62 140h-7v7h7v-7ZM70 55h-8v7h8v-7ZM62 147h-7v8h7v-8ZM70 62h-8v8h8v-8ZM78 70h-8v8h8v-8ZM78 62h-8v8h8v-8ZM78 55h-8v7h8v-7ZM78 93h-8v8h8v-8ZM78 78h-8v7h8v-7ZM70 116h-8v8h8v-8ZM70 109h-8v7h8v-7ZM70 124h-8v8h8v-8ZM70 147h-8v8h8v-8ZM70 140h-8v7h8v-7ZM70 132h-8v7h8v-7ZM78 85h-8v8h8v-8ZM55 124h-8v8h8v-8ZM55 109h-8v7h8v-7ZM55 116h-8v8h8v-8ZM55 101h-8v8h8v-8ZM70 155h-8v8h8v-8ZM55 93h-8v8h8v-8ZM55 155h-8v8h8v-8ZM62 155h-7v8h7v-8ZM55 140h-8v7h8v-7ZM55 147h-8v8h8v-8ZM55 132h-8v7h8v-7ZM62 55h-7v7h7v-7ZM62 78h-7v7h7v-7ZM62 70h-7v8h7v-8ZM62 85h-7v8h7v-8ZM62 93h-7v8h7v-8ZM62 101h-7v8h7v-8ZM55 70h-8v8h8v-8ZM55 62h-8v8h8v-8ZM55 78h-8v7h8v-7ZM62 109h-7v7h7v-7ZM55 55h-8v7h8v-7ZM62 62h-7v8h7v-8ZM55 85h-8v8h8v-8ZM93 147h-7v8h7v-8ZM93 140h-7v7h7v-7ZM78 101h-8v8h8v-8ZM101 55h-8v7h8v-7ZM93 132h-7v7h7v-7ZM93 109h-7v7h7v-7ZM93 93h-7v8h7v-8ZM93 101h-7v8h7v-8ZM93 116h-7v8h7v-8ZM101 70h-8v8h8v-8ZM93 124h-7v8h7v-8ZM101 78h-8v7h8v-7ZM101 124h-8v8h8v-8ZM101 132h-8v7h8v-7ZM101 140h-8v7h8v-7ZM101 147h-8v8h8v-8ZM101 93h-8v8h8v-8ZM101 116h-8v8h8v-8ZM93 85h-7v8h7v-8ZM101 85h-8v8h8v-8ZM101 109h-8v7h8v-7ZM101 101h-8v8h8v-8ZM101 62h-8v8h8v-8ZM85 62h-7v8h7v-8ZM85 55h-7v7h7v-7ZM78 147h-8v8h8v-8ZM85 85h-7v8h7v-8ZM85 78h-7v7h7v-7ZM85 70h-7v8h7v-8ZM78 140h-8v7h8v-7ZM78 116h-8v8h8v-8ZM78 109h-8v7h8v-7ZM78 124h-8v8h8v-8ZM78 132h-8v7h8v-7ZM85 124h-7v8h7v-8ZM93 55h-7v7h7v-7ZM85 147h-7v8h7v-8ZM93 70h-7v8h7v-8ZM85 140h-7v7h7v-7ZM93 62h-7v8h7v-8ZM85 109h-7v7h7v-7ZM85 101h-7v8h7v-8ZM85 93h-7v8h7v-8ZM93 78h-7v7h7v-7ZM85 132h-7v7h7v-7ZM85 116h-7v8h7v-8ZM124 55h-8v7h8v-7ZM116 78h-7v7h7v-7ZM116 85h-7v8h7v-8ZM109 101h-8v8h8v-8ZM116 124h-7v8h7v-8ZM116 93h-7v8h7v-8ZM116 101h-7v8h7v-8ZM116 116h-7v8h7v-8ZM116 109h-7v7h7v-7ZM116 70h-7v8h7v-8ZM109 116h-8v8h8v-8ZM109 124h-8v8h8v-8ZM109 109h-8v7h8v-7ZM116 55h-7v7h7v-7ZM109 132h-8v7h8v-7ZM109 155h-8v8h8v-8ZM109 140h-8v7h8v-7ZM109 147h-8v8h8v-8ZM116 62h-7v8h7v-8ZM124 93h-8v8h8v-8ZM124 85h-8v8h8v-8ZM124 101h-8v8h8v-8ZM124 109h-8v7h8v-7ZM116 132h-7v7h7v-7ZM124 62h-8v8h8v-8ZM124 70h-8v8h8v-8ZM124 78h-8v7h8v-7ZM124 116h-8v8h8v-8ZM116 155h-7v8h7v-8ZM124 124h-8v8h8v-8ZM116 147h-7v8h7v-8ZM116 140h-7v7h7v-7ZM124 155h-8v8h8v-8ZM124 132h-8v7h8v-7ZM124 140h-8v7h8v-7ZM124 147h-8v8h8v-8ZM109 78h-8v7h8v-7ZM109 62h-8v8h8v-8ZM85 155h-7v8h7v-8ZM109 85h-8v8h8v-8ZM78 155h-8v8h8v-8ZM109 70h-8v8h8v-8ZM93 155h-7v8h7v-8ZM101 155h-8v8h8v-8ZM109 55h-8v7h8v-7ZM109 93h-8v8h8v-8Z" stroke="#A4ABB7" stroke-width=".5" stroke-miterlimit="10"/><path d="M116 54v1h8v108H47V55h8v-1 1h7v-1 1h8v-1 1h8v-1 1h7v-1h1v1h7v-1 1h8v-1H47v109h77V54h-8Z" stroke="#A4ABB7" stroke-width=".5" stroke-miterlimit="10"/><path d="M116 54h-7v1h7v-1ZM109 54h-8v1h8v-1ZM116 155h8-8ZM55 155h-8 8ZM85 155h-7 7ZM101 155h-8 8ZM70 155h-8 8ZM109 155h-8 8ZM93 155h-7 7ZM116 155h-7 7ZM62 155h-7 7ZM78 155h-8 8ZM101 147h-8 8ZM116 147h-7 7ZM78 147h-8 8ZM93 147h-7 7ZM109 147h-8 8ZM85 147h-7 7ZM55 147h-8 8ZM62 147h-7 7ZM70 147h-8 8ZM116 147h8-8ZM109 139h-8v1h8v-1ZM62 139h-7v1h7v-1ZM78 139h-8v1h8v-1ZM85 139h-7v1h7v-1ZM116 139h-7v1h7v-1ZM70 139h-8v1h8v-1ZM116 140h8v-1h-8v1ZM93 139h-7v1h7v-1ZM101 139h-8v1h8v-1ZM55 139h-8v1h8v-1ZM116 132h8-8ZM62 132h-7 7ZM93 132h-7 7ZM109 132h-8 8ZM78 132h-8 8ZM55 132h-8 8ZM70 132h-8 8ZM101 132h-8 8ZM116 132h-7 7ZM85 132h-7 7ZM62 124h-7 7ZM93 124h-7 7ZM116 124h-7 7ZM70 124h-8 8ZM78 124h-8 8ZM109 124h-8 8ZM116 124h8-8ZM85 124h-7 7ZM101 124h-8 8ZM55 124h-8 8ZM116 116h-7 7ZM55 116h-8 8ZM101 116h-8 8ZM85 116h-7 7ZM93 116h-7 7ZM70 116h-8 8ZM109 116h-8 8ZM62 116h-7 7ZM116 116h8-8ZM78 116h-8 8ZM62 109h-7 7ZM70 109h-8 8ZM55 109h-8 8ZM109 109h-8 8ZM78 109h-8 8ZM116 109h-7 7ZM101 109h-8 8ZM85 109h-7 7ZM116 109h8-8ZM93 109h-7 7ZM116 101h8-8ZM101 101h-8 8ZM85 101h-7 7ZM62 101h-7 7ZM116 101h-7 7ZM109 101h-8 8ZM70 101h-8 8ZM93 101h-7 7ZM78 101h-8 8ZM55 101h-8 8ZM62 93h-7 7ZM116 93h-7 7ZM78 93h-8 8ZM70 93h-8 8ZM93 93h-7 7ZM85 93h-7 7ZM109 93h-8 8ZM116 93h8-8ZM55 93h-8 8ZM101 93h-8 8ZM85 85h-7 7ZM78 85h-8 8ZM62 85h-7 7ZM116 85h-7 7ZM55 85h-8 8ZM109 85h-8 8ZM116 85h8-8ZM93 85h-7 7ZM101 85h-8 8ZM70 85h-8 8ZM78 78h-8 8ZM62 78h-7 7ZM70 78h-8 8ZM101 78h-8 8ZM109 78h-8 8ZM116 78h-7 7ZM116 78h8-8ZM93 78h-7 7ZM55 78h-8 8ZM85 78h-7 7ZM55 70h-8 8ZM93 70h-7 7ZM116 70h-7 7ZM70 70h-8 8ZM85 70h-7 7ZM62 70h-7 7ZM101 70h-8 8ZM116 70h8-8ZM78 70h-8 8ZM109 70h-8 8ZM93 62h-7 7ZM70 62h-8 8ZM62 62h-7 7ZM116 62h-7 7ZM101 62h-8 8ZM55 62h-8 8ZM109 62h-8 8ZM116 62h8-8ZM78 62h-8 8ZM85 62h-7 7ZM116 62v101V49v13ZM109 62v101V49v13ZM101 62v101V49v13ZM93 155V54v109-8ZM86 155V54h-1v109h1v-8ZM78 155V54v109-8ZM70 155V54v109-8ZM62 155V54v109-8ZM55 155V54v109-8Z" stroke="#A4ABB7" stroke-width=".5" stroke-miterlimit="10"/><path d="M129 86V50h-4v-2H92v2H42v52h4v9h-4v56h87V86Zm-3 32v9h-2v1H93h9v-1c0-4-4-8-9-8v-11h31v10h2Zm-36 10v3h-9v-3h-1v-11H67v2h-8v-2H47v-6h9c0-5-4-9-9-9v-5h12v-2h8v2h24v1h2v8h-2v13h2v8h-2v1h-1Zm-1 3c0 5-3 8-7 8v-8h7Zm-22-11c-1 4-4 7-8 7v-7h8Zm-20-10v-7c4 0 8 3 8 7h-8Zm12-16v-8c4 0 7 4 8 8h-8Zm35 11v-7c4 0 7 3 7 7h-7Zm0 22v-8c4 1 7 4 7 8h-7Zm30-31v10h-22c0-5-4-9-9-9V66v1h4v-1h23v1h4v19h2v10h-2Zm-4-30H97v-3h23v3Zm-27 0v-3 3Zm0-17h31v13h-4v1H97v-1h-4v1-14Zm-31 2v1H52v-1h10Zm-10 3v-1h10v1h29v40H67c0-5-3-8-8-8h-1v8H47V54h5Zm-5 109v-44h11v9h1c5 0 8-4 8-9h11v44h-3v1H64v-1H47Zm17 3v-1h11v1H64Zm32 0v-1h11v1H96Zm11-3v1H96v-1H80v-32h1v9c5 0 9-4 9-9h34v32h-17Zm21-36h-2v-9h2v9Zm0-31h-2V86h2v10Z" fill="#577287"/><path d="M73 74H60l-1-1v-1h15v1l-1 1ZM79 108H65v-2h14v2ZM68 144H54v-1l1-1h13l1 1v1h-1ZM109 148H96l-1-1v-1h14v2ZM115 118h-14v-1l1-1h13l1 1v1h-1ZM115 87h-13v-2h14v1l-1 1ZM115 57h-13l-1-1v-1h15v1l-1 1Z" fill="#19526C"/></g><defs><clipPath id="a"><path fill="#fff" transform="translate(23 22)" d="M0 0h125v164H0z"/></clipPath></defs></svg>
