<svg width="222" height="209" viewBox="0 0 222 209" fill="none" xmlns="http://www.w3.org/2000/svg">
<path opacity="0.2" d="M196.195 207H56.7734C49.748 207 44 201.238 44 194.195V59.8051C44 52.7623 49.748 47 56.7734 47H196.227C203.252 47 209 52.7623 209 59.8051V194.195C208.968 201.238 203.22 207 196.195 207Z" stroke="#55DDFF" stroke-width="4" stroke-miterlimit="10"/>
<g opacity="0.2">
<path opacity="0.2" d="M204.344 125.786C213.543 125.786 221 118.332 221 109.138C221 99.9432 213.543 92.4896 204.344 92.4896C195.146 92.4896 187.688 99.9432 187.688 109.138C187.688 118.332 195.146 125.786 204.344 125.786Z" fill="#55B4F3"/>
</g>
<path opacity="0.3" d="M17.5 114C27.165 114 35 106.389 35 97C35 87.6112 27.165 80 17.5 80C7.83502 80 0 87.6112 0 97C0 106.389 7.83502 114 17.5 114Z" fill="url(#paint0_radial)"/>
<path opacity="0.3" d="M113.5 34C123.165 34 131 26.3888 131 17C131 7.61116 123.165 0 113.5 0C103.835 0 96 7.61116 96 17C96 26.3888 103.835 34 113.5 34Z" fill="url(#paint1_radial)"/>
<path opacity="0.3" d="M204.5 126C214.165 126 222 118.389 222 109C222 99.6112 214.165 92 204.5 92C194.835 92 187 99.6112 187 109C187 118.389 194.835 126 204.5 126Z" fill="url(#paint2_radial)"/>
<g opacity="0.2">
<path opacity="0.2" d="M113.11 33.2962C122.309 33.2962 129.766 25.8426 129.766 16.6481C129.766 7.45362 122.309 0 113.11 0C103.911 0 96.4541 7.45362 96.4541 16.6481C96.4541 25.8426 103.911 33.2962 113.11 33.2962Z" fill="#55B4F3"/>
</g>
<path d="M162.461 194.683L66.9095 195.559C64.312 195.591 62.1367 193.482 62.1367 190.853L60.8705 53.4819C60.838 50.8857 62.9484 48.7114 65.5783 48.7114L161.13 47.8352C163.728 47.8028 165.903 49.9122 165.903 52.5408L167.169 189.912C167.169 192.508 165.059 194.683 162.461 194.683Z" fill="#61D497"/>
<path d="M162.461 194.683L66.9095 195.559C64.312 195.591 62.1367 193.482 62.1367 190.853L60.8705 53.4819C60.838 50.8857 62.9484 48.7114 65.5783 48.7114L161.13 47.8352C163.728 47.8028 165.903 49.9122 165.903 52.5408L167.169 189.912C167.169 192.508 165.059 194.683 162.461 194.683Z" fill="url(#paint3_radial)" fill-opacity="0.4"/>
<path d="M118.306 69.2212H76.098C75.5461 69.2212 75.124 68.7993 75.124 68.2477V63.0552C75.124 62.5035 75.5461 62.0817 76.098 62.0817H118.306C118.858 62.0817 119.28 62.5035 119.28 63.0552V68.2477C119.28 68.7669 118.858 69.2212 118.306 69.2212Z" fill="#154029"/>
<path d="M118.306 79.6061H76.098C75.5461 79.6061 75.124 79.1843 75.124 78.6326V76.3609C75.124 75.8092 75.5461 75.3873 76.098 75.3873H118.306C118.858 75.3873 119.28 75.8092 119.28 76.3609V78.6326C119.28 79.1518 118.858 79.6061 118.306 79.6061Z" fill="#154029"/>
<path d="M147.85 106.866H72.8505C72.1362 106.866 71.5518 106.282 71.5518 105.568V101.998C71.5518 101.284 72.1362 100.7 72.8505 100.7H147.85C148.565 100.7 149.149 101.284 149.149 101.998V105.568C149.149 106.282 148.565 106.866 147.85 106.866Z" fill="#154029"/>
<path d="M148.208 182.805H72.4933C71.9738 182.805 71.5518 182.383 71.5518 181.864V180.501C71.5518 179.982 71.9738 179.56 72.4933 179.56H148.208C148.727 179.56 149.149 179.982 149.149 180.501V181.864C149.149 182.383 148.727 182.805 148.208 182.805Z" fill="#154029"/>
<path d="M147.915 125.039H72.7855C72.1037 125.039 71.5518 124.488 71.5518 123.806V120.756C71.5518 120.074 72.1037 119.523 72.7855 119.523H147.915C148.597 119.523 149.149 120.074 149.149 120.756V123.806C149.149 124.488 148.597 125.039 147.915 125.039Z" fill="#154029"/>
<path d="M148.078 133.477H72.6232C72.0388 133.477 71.5518 132.99 71.5518 132.406V130.329C71.5518 129.745 72.0388 129.258 72.6232 129.258H148.078C148.662 129.258 149.149 129.745 149.149 130.329V132.406C149.149 132.99 148.662 133.477 148.078 133.477Z" fill="#154029"/>
<path d="M151.214 204.136L116.365 172.023C114.772 170.564 114.673 168.076 116.133 166.483L167.344 110.917C168.804 109.325 171.294 109.225 172.887 110.685L207.735 142.797C209.329 144.257 209.428 146.745 207.968 148.337L156.757 203.937C155.296 205.496 152.774 205.596 151.214 204.136Z" fill="#FCC1C1"/>
<path d="M151.214 204.136L116.365 172.023C114.772 170.564 114.673 168.076 116.133 166.483L167.344 110.917C168.804 109.325 171.294 109.225 172.887 110.685L207.735 142.797C209.329 144.257 209.428 146.745 207.968 148.337L156.757 203.937C155.296 205.496 152.774 205.596 151.214 204.136Z" fill="url(#paint4_radial)"/>
<path d="M171.36 126.343L148.16 150.759C147.895 151.025 147.463 151.058 147.165 150.825L144.642 148.47C144.31 148.205 144.277 147.707 144.576 147.375L167.609 123.125C167.875 122.827 168.306 122.827 168.605 123.059L171.293 125.215C171.625 125.514 171.658 126.045 171.36 126.343Z" fill="#8097EC"/>
<path d="M172.655 140.973L156.956 157.892C156.691 158.191 156.259 158.224 155.96 157.958L153.272 155.47C152.94 155.205 152.907 154.707 153.206 154.375L170 136.992C170.331 136.627 170.962 136.694 171.194 137.158L172.787 140.111C172.92 140.376 172.887 140.741 172.655 140.973Z" fill="#8097EC"/>
<path d="M177.069 151.157L164.789 164.692C164.523 164.957 164.092 164.991 163.793 164.758L160.574 161.839C160.242 161.574 160.209 161.043 160.507 160.744L173.119 147.475C173.385 147.209 173.816 147.176 174.115 147.408L177.003 150.062C177.334 150.328 177.368 150.825 177.069 151.157Z" fill="#8097EC"/>
<path d="M184.769 154.74L187.955 157.427C188.287 157.693 188.32 158.19 188.021 158.489L154.765 195.246C154.5 195.511 154.102 195.578 153.803 195.378L150.418 192.26C150.052 191.995 149.986 191.464 150.285 191.132L183.74 154.807C184.005 154.508 184.437 154.475 184.769 154.74Z" fill="#8097EC"/>
<path d="M137.971 152.65C137.606 152.65 137.241 152.816 136.976 153.081L125.625 165.654C125.393 165.919 125.26 166.284 125.26 166.649C125.26 167.08 125.426 167.478 125.758 167.744L145.373 185.459C145.671 185.724 146.136 185.724 146.401 185.459L158.615 171.924C158.914 171.625 158.914 171.128 158.582 170.829L138.901 152.981C138.635 152.749 138.303 152.65 137.971 152.65Z" fill="#8097EC"/>
<path d="M188.518 141.669C185.365 145.153 184.701 148.138 187.025 149.465C189.348 150.792 192.667 148.802 194.658 146.811C196.65 144.821 197.977 141.503 195.986 139.513C193.994 137.523 188.518 141.669 188.518 141.669Z" fill="white"/>
<path d="M132.299 165.216L96.1628 204.418C93.2082 207.631 88.1757 207.826 84.9615 204.872L21.3251 145.225C18.6952 142.823 18.5329 138.702 20.968 136.106L54.2472 98.7853C60.3186 92.3922 63.5654 92.8141 69.2472 98.1687L131.91 155.902C134.604 158.368 134.767 162.554 132.299 165.216Z" fill="#DAF6FE"/>
<path d="M132.299 165.215L96.1628 204.418C93.2082 207.631 88.1757 207.826 84.9615 204.872L21.3251 145.225C18.6952 142.823 18.5329 138.702 20.968 136.106L55.5005 97.4995C61.5719 91.1064 63.5654 92.814 69.2472 98.1687L131.91 155.902C134.604 158.368 134.767 162.554 132.299 165.215Z" fill="url(#paint5_radial)" fill-opacity="0.5"/>
<path d="M61.6179 107.028C57.4295 111.182 47.0399 121.599 41.2932 128.349C40.4166 129.388 40.4815 130.946 41.4555 131.887L54.7347 144.9C55.7737 145.906 57.4295 145.874 58.436 144.835L78.5659 123.611C79.5399 122.573 79.5075 120.95 78.501 119.977L65.2542 106.996C64.2477 106.022 62.6244 106.022 61.6179 107.028Z" fill="#8097EC"/>
<path d="M96.2284 155.869L99.5077 152.591C99.7674 152.332 99.7674 151.877 99.4752 151.65L82.0726 136.495C81.8129 136.268 81.4232 136.3 81.196 136.527L77.8843 139.837C77.6245 140.097 77.6245 140.551 77.9168 140.779L95.3518 155.934C95.6116 156.129 96.0012 156.096 96.2284 155.869Z" fill="#8097EC"/>
<path d="M99.5077 169.824L97.6246 171.771C97.1376 172.258 96.3259 172.258 95.8389 171.803L71.2285 148.989C70.709 148.502 70.6765 147.659 71.196 147.139L72.9817 145.355C73.4688 144.868 74.248 144.868 74.7675 145.322L99.4753 167.942C99.9947 168.461 99.9947 169.305 99.5077 169.824Z" fill="#8097EC"/>
<path d="M66.5847 152.332L64.1821 154.506C63.76 154.896 63.76 155.512 64.1496 155.902L82.9483 174.205C83.3379 174.594 83.9548 174.594 84.3119 174.205L86.4548 172.063C86.8444 171.674 86.8444 171.057 86.4548 170.7L67.9158 152.332C67.5587 152.007 66.9743 151.975 66.5847 152.332Z" fill="#8097EC"/>
<path d="M92.5593 178.424L90.4164 180.468C89.9944 180.858 89.9944 181.474 90.384 181.864L100.871 191.599C101.261 191.989 101.877 191.989 102.235 191.599L104.377 189.458C104.767 189.068 104.767 188.451 104.377 188.095L93.8905 178.424C93.5333 178.099 92.9489 178.067 92.5593 178.424Z" fill="#8097EC"/>
<path d="M99.4423 135.554L100.481 136.495L109.605 144.835L117.819 152.332C118.241 152.721 118.241 153.338 117.851 153.727L114.734 156.843C114.345 157.232 113.76 157.232 113.371 156.843L105.644 149.378L96.5527 140.584L95.7734 139.805L99.4423 135.554Z" fill="#FF4242"/>
<path d="M109.604 144.835L105.61 149.379L96.5195 140.584L100.481 136.495L109.604 144.835Z" fill="#FFDA3A"/>
<path d="M99.442 135.554L95.7406 139.805L87.3316 131.66C86.9419 131.27 86.9419 130.686 87.2991 130.297L89.6368 127.863C89.9939 127.473 90.6108 127.473 91.0004 127.83L99.442 135.554Z" fill="#424BFF"/>
<path d="M38.8576 142.953L89.507 190.755C89.8966 191.112 89.929 191.729 89.5394 192.118L87.1368 194.747C86.7797 195.137 86.1303 195.169 85.7407 194.78L32.3966 144.089C31.8446 143.57 32.0719 142.693 32.7862 142.466L36.4225 141.298C36.7797 141.2 37.1368 141.265 37.3966 141.525L38.8576 142.953Z" fill="#8097EC"/>
<path d="M17.656 109.138C24.4699 109.138 29.9937 103.617 29.9937 96.8058C29.9937 89.9951 24.4699 84.4739 17.656 84.4739C10.8421 84.4739 5.31836 89.9951 5.31836 96.8058C5.31836 103.617 10.8421 109.138 17.656 109.138Z" fill="#55B4F3"/>
<path d="M113.11 28.9802C119.924 28.9802 125.448 23.459 125.448 16.6482C125.448 9.83748 119.924 4.31628 113.11 4.31628C106.296 4.31628 100.772 9.83748 100.772 16.6482C100.772 23.459 106.296 28.9802 113.11 28.9802Z" fill="#55B4F3"/>
<path d="M204.345 121.47C211.158 121.47 216.682 115.949 216.682 109.138C216.682 102.327 211.158 96.8059 204.345 96.8059C197.531 96.8059 192.007 102.327 192.007 109.138C192.007 115.949 197.531 121.47 204.345 121.47Z" fill="#55B4F3"/>
<path d="M159.539 72.791C160.189 75.3872 157.916 77.0099 157.916 77.0099H155.124C154.377 75.6144 153.046 73.7646 150.773 73.7646C146.552 73.7646 145.903 77.9834 145.903 77.9834H141.358C141.358 77.9834 141.033 73.1156 136.812 73.1156C132.267 73.1156 131.942 77.0099 131.942 77.0099H128.695C128.338 77.0099 128.046 76.7178 128.046 76.3608V75.0627C128.046 74.7057 128.338 74.4137 128.695 74.4137V71.0061C128.695 70.3896 129.182 69.8703 129.832 69.8703H131.617C133.306 68.1828 135.481 66.333 136.552 65.4892C136.942 65.1647 137.429 65.0024 137.916 65.0024H143.5C143.858 65.0024 144.215 65.0673 144.539 65.1647C148.143 66.3005 150.773 69.2213 150.773 69.2213C150.773 69.2213 159.02 70.6816 159.539 72.791Z" fill="#154129"/>
<path d="M150.61 81.0664C152.493 81.0664 154.019 79.5408 154.019 77.6589C154.019 75.7769 152.493 74.2513 150.61 74.2513C148.727 74.2513 147.201 75.7769 147.201 77.6589C147.201 79.5408 148.727 81.0664 150.61 81.0664Z" fill="#154129"/>
<path d="M136.649 81.0664C138.532 81.0664 140.058 79.5408 140.058 77.6589C140.058 75.7769 138.532 74.2513 136.649 74.2513C134.767 74.2513 133.24 75.7769 133.24 77.6589C133.24 79.5408 134.767 81.0664 136.649 81.0664Z" fill="#154129"/>
<path d="M140.903 66.7548V69.4483C140.903 69.7404 140.676 69.9676 140.383 69.9676H134.896C134.604 69.9676 134.377 69.7404 134.377 69.4483C134.377 69.4483 137.461 66.4302 140.351 66.268C140.643 66.2355 140.903 66.4627 140.903 66.7548Z" fill="#61D397"/>
<path d="M142.299 66.9171V69.6107C142.299 69.9028 142.526 70.1299 142.818 70.1299H148.305C148.598 70.1299 148.825 69.9028 148.825 69.6107V69.4484C148.825 69.2862 148.76 69.1564 148.63 69.059C147.981 68.5398 145.74 66.6251 142.851 66.4303C142.559 66.3654 142.299 66.6251 142.299 66.9171Z" fill="#61D397"/>
<path d="M136.649 78.7947C137.277 78.7947 137.785 78.2862 137.785 77.6589C137.785 77.0316 137.277 76.5231 136.649 76.5231C136.021 76.5231 135.513 77.0316 135.513 77.6589C135.513 78.2862 136.021 78.7947 136.649 78.7947Z" fill="#61D397"/>
<path d="M150.61 78.957C151.238 78.957 151.746 78.4484 151.746 77.8211C151.746 77.1938 151.238 76.6853 150.61 76.6853C149.982 76.6853 149.474 77.1938 149.474 77.8211C149.474 78.4484 149.982 78.957 150.61 78.957Z" fill="#61D397"/>
<path d="M214.085 143.051H12.4612C9.70144 143.051 7.42871 140.779 7.42871 138.02C7.42871 135.262 9.70144 132.99 12.4612 132.99H214.085C216.844 132.99 219.117 135.262 219.117 138.02C219.117 140.779 216.844 143.051 214.085 143.051Z" fill="#55D8FA"/>
<path d="M19.0515 90.7373V102.485H16.6489V93.5931L14.4086 94.3071L13.8242 92.1977L18.2073 90.7698H19.0515V90.7373Z" fill="white"/>
<path d="M117.331 20.153V22.1975L108.662 22.23V21.7107L112.85 17.1674C114.019 15.9017 114.506 15.0904 114.506 14.2142C114.506 13.2082 113.857 12.4942 112.883 12.4942C111.876 12.4942 111.227 13.2082 111.227 14.2791C111.227 14.5063 111.26 14.7659 111.324 15.1229H108.889C108.792 14.7983 108.76 14.4738 108.76 14.1168C108.76 12.1372 110.383 10.2225 112.915 10.2225C115.253 10.2225 117.006 11.8452 117.006 13.987C117.006 14.7983 116.779 15.5123 116.357 16.2262C115.935 16.9077 115.318 17.6866 114.474 18.5628L112.948 20.153H117.331Z" fill="white"/>
<path d="M204.085 115.368C202.136 115.368 200.611 114.33 199.799 112.707L201.487 111.539C202.201 112.61 202.916 113.162 204.02 113.162C205.221 113.162 206.065 112.48 206.065 111.344C206.065 110.273 205.221 109.657 203.662 109.657H202.169V109.04L204.636 105.6H200.708V103.426H208.273V104.075L205.675 107.742C206.487 107.969 207.136 108.391 207.688 109.008C208.24 109.624 208.5 110.403 208.5 111.344C208.533 113.648 206.52 115.368 204.085 115.368Z" fill="white"/>
<path d="M35.2855 79.7033C32.8504 79.7033 30.9023 77.7561 30.9023 75.3222V46.2448C30.9023 39.5271 36.3569 34.0751 43.0777 34.0751H74.4413C76.8764 34.0751 78.8244 36.0222 78.8244 38.4562C78.8244 40.8901 76.8764 42.8372 74.4413 42.8372H43.0777C41.1946 42.8372 39.6686 44.3625 39.6686 46.2448V75.3222C39.6686 77.7237 37.7205 79.7033 35.2855 79.7033Z" fill="#55DDFF"/>
<path d="M195.708 80.8391C193.273 80.8391 191.325 78.8919 191.325 76.458V45.1089C191.325 43.2266 189.799 41.7014 187.915 41.7014H158.825C156.389 41.7014 154.441 39.7542 154.441 37.3203C154.441 34.8864 156.389 32.9392 158.825 32.9392H187.915C194.636 32.9392 200.091 38.3912 200.091 45.1089V76.458C200.091 78.8919 198.143 80.8391 195.708 80.8391Z" fill="#55DDFF"/>
<path d="M72.1686 202.536H43.0777C36.3569 202.536 30.9023 197.084 30.9023 190.366V159.017C30.9023 156.583 32.8504 154.636 35.2855 154.636C37.7205 154.636 39.6686 156.583 39.6686 159.017V190.366C39.6686 192.249 41.1946 193.774 43.0777 193.774H72.1686C74.6036 193.774 76.5517 195.721 76.5517 198.155C76.5517 200.589 74.6036 202.536 72.1686 202.536Z" fill="#55DDFF"/>
<path d="M187.916 201.4H156.552C154.117 201.4 152.169 199.453 152.169 197.019C152.169 194.585 154.117 192.638 156.552 192.638H187.916C189.799 192.638 191.325 191.113 191.325 189.23V160.153C191.325 157.719 193.273 155.772 195.708 155.772C198.143 155.772 200.091 157.719 200.091 160.153V189.23C200.091 195.948 194.637 201.4 187.916 201.4Z" fill="#55DDFF"/>
<defs>
<radialGradient id="paint0_radial" cx="0" cy="0" r="1" gradientUnits="userSpaceOnUse" gradientTransform="translate(17.5 97) rotate(90) scale(17 17.5)">
<stop offset="0.709184" stop-color="#55B4F3"/>
<stop offset="1" stop-color="#55B4F3" stop-opacity="0"/>
</radialGradient>
<radialGradient id="paint1_radial" cx="0" cy="0" r="1" gradientUnits="userSpaceOnUse" gradientTransform="translate(113.5 17) rotate(90) scale(17 17.5)">
<stop offset="0.709184" stop-color="#55B4F3"/>
<stop offset="1" stop-color="#55B4F3" stop-opacity="0"/>
</radialGradient>
<radialGradient id="paint2_radial" cx="0" cy="0" r="1" gradientUnits="userSpaceOnUse" gradientTransform="translate(204.5 109) rotate(90) scale(17 17.5)">
<stop offset="0.709184" stop-color="#55B4F3"/>
<stop offset="1" stop-color="#55B4F3" stop-opacity="0"/>
</radialGradient>
<radialGradient id="paint3_radial" cx="0" cy="0" r="1" gradientUnits="userSpaceOnUse" gradientTransform="translate(138 212.5) rotate(-104.89) scale(179.011 128.812)">
<stop stop-color="#136A3C"/>
<stop offset="1" stop-color="#61D497" stop-opacity="0"/>
</radialGradient>
<radialGradient id="paint4_radial" cx="0" cy="0" r="1" gradientUnits="userSpaceOnUse" gradientTransform="translate(151.287 207.552) rotate(-66.4477) scale(43.4899 42.7529)">
<stop stop-color="#F0A2A2"/>
<stop offset="1" stop-color="#F0A2A2" stop-opacity="0"/>
</radialGradient>
<radialGradient id="paint5_radial" cx="0" cy="0" r="1" gradientUnits="userSpaceOnUse" gradientTransform="translate(99.0005 227.499) rotate(-104.931) scale(54.3346 55.2543)">
<stop stop-color="#4D90A3"/>
<stop offset="1" stop-color="#DAF6FE" stop-opacity="0"/>
</radialGradient>
</defs>
</svg>
