<svg width="207" height="154" viewBox="0 0 207 154" fill="none" xmlns="http://www.w3.org/2000/svg">
<path d="M191.999 29.5803L190.003 119.759L189.684 133.705C189.684 135.523 188.273 137 186.569 137H18.4986C16.795 137 15.3842 135.523 15.3842 133.705L15.1978 119.759L14 30.6596C14 28.8418 16.023 25.2914 19.6964 25.547L183.961 21.0026C186.117 20.9458 188.193 21.8263 189.71 23.4452C191.201 25.0642 192.026 27.2796 191.999 29.5803Z" fill="#FFDDDA"/>
<path opacity="0.26" d="M184.796 130.912C184.796 132.612 183.469 134 181.851 134H22.2714C20.653 134 19.3265 132.612 19.3265 130.912L18 34.9836C18 33.2838 19.9102 29.9691 23.4122 30.224L179.383 26.0027C181.426 25.9461 183.389 26.7677 184.822 28.2692C186.255 29.7708 187.051 31.8389 186.998 33.9637L184.796 130.912Z" fill="#FF9085"/>
<path d="M157.263 43.1687C157.206 44.7566 156.388 46.0609 155.401 46.0609L96.5587 46.4012C95.4304 46.4012 94.5559 45.0118 94.5559 43.3388C94.5559 41.6658 95.4868 40.248 96.5869 40.248H155.57C156.529 40.2764 157.319 41.5808 157.263 43.1687Z" fill="#8097EC"/>
<path d="M157.513 113.969C157.394 115.366 155.675 116.464 153.659 116.464L31.6936 116.739C29.3812 116.739 27.5431 115.616 27.5431 114.118C27.5431 112.646 29.4405 111.498 31.7529 111.498H154.014C155.971 111.498 157.572 112.571 157.513 113.969Z" fill="#8097EC"/>
<path d="M156.642 98.1021C156.585 99.69 155.767 100.909 154.78 100.938L96.5019 101.25C95.4018 101.25 94.4992 99.9735 94.5274 98.3006C94.5274 96.6276 95.43 95.3232 96.5584 95.3232H154.949C155.908 95.3232 156.67 96.5142 156.642 98.1021Z" fill="#8097EC"/>
<path d="M157.262 55.3049C157.205 56.6376 155.767 57.7151 154.018 57.7151L97.8833 58.1972C96.0215 58.2255 94.5265 57.1197 94.5547 55.7586V55.6168C94.5547 54.2557 96.078 53.1499 97.9397 53.1215L154.187 52.7812C155.936 52.7812 157.318 53.8304 157.29 55.1631L157.262 55.3049Z" fill="#8097EC"/>
<path d="M157.036 67.1857C156.98 68.4901 155.541 69.5676 153.792 69.5676L97.7988 69.9929C95.9653 69.9929 94.4702 68.9154 94.4984 67.5827V67.4409C94.5266 66.0799 96.0499 64.974 97.8834 64.974L153.961 64.6904C155.71 64.6904 157.092 65.7396 157.036 67.0439V67.1857Z" fill="#8097EC"/>
<path d="M166.146 51.8799L184.255 51.9645L166.146 51.8799Z" fill="#F3F6F9"/>
<path d="M166.174 60.2722L184.284 60.2158L166.174 60.2722Z" fill="#F3F6F9"/>
<path d="M70.989 103.112H28.1206C27.8042 103.112 27.5436 102.882 27.5436 102.602V61.6948C27.5436 61.4156 27.8042 61.1855 28.1206 61.1855H70.989C71.3055 61.1855 71.5661 61.4156 71.5661 61.6948V102.602C71.5661 102.882 71.3055 103.112 70.989 103.112Z" fill="white"/>
<path d="M69.7756 102.014C68.6972 95.7237 65.8268 89.9834 65.8268 89.9834L62.0756 103.082C62.0756 103.082 62.1363 103.235 62.2426 103.556L68.4998 103.54C69.3047 103.525 69.9122 102.807 69.7756 102.014Z" fill="url(#paint0_linear_999:14938)"/>
<path d="M37.2756 103.54C37.6856 102.059 38.0046 101.112 38.0046 101.112L31.8689 89.9678C31.8689 89.9678 30.4716 91.6318 28.9833 101.25C28.801 102.441 29.6819 103.54 30.8969 103.54H37.2756Z" fill="url(#paint1_linear_999:14938)"/>
<path d="M58.417 103.54L56.7464 85.9983C49.3046 83.235 39.934 86.3341 39.934 86.3341L39.1594 103.54H58.417Z" fill="url(#paint2_linear_999:14938)"/>
<path d="M44.8085 80.4723L44.6718 85.0981C44.6566 85.5561 44.9452 85.9683 45.3705 86.121C46.5551 86.5332 48.9851 87.1744 51.2935 86.3347C51.7644 86.1668 52.0377 85.6935 51.9618 85.1897L51.2632 80.457H44.8085V80.4723Z" fill="url(#paint3_linear_999:14938)"/>
<path d="M42.4563 72.0134C42.4563 72.0134 43.2612 80.3032 45.0381 82.41C45.0381 82.41 50.3689 82.8986 52.3129 81.7536C52.3129 81.7536 53.6798 77.6163 53.5279 72.0898C53.5279 72.0898 53.7861 67.067 48.2731 66.6396C41.8032 66.1663 42.4563 72.0134 42.4563 72.0134Z" fill="url(#paint4_linear_999:14938)"/>
<path d="M52.965 74.6248C52.965 74.6248 53.451 73.1592 54.2559 73.1592C55.0608 73.1592 54.0888 77.0522 52.965 77.0522V74.6248Z" fill="url(#paint5_linear_999:14938)"/>
<path d="M43.184 75.0072C43.184 75.0072 42.5006 73.6179 41.7109 73.74C40.9059 73.8469 42.3943 77.5872 43.5181 77.4346L43.184 75.0072Z" fill="url(#paint6_linear_999:14938)"/>
<path d="M42.5616 73.0522C42.5616 73.0522 43.1995 81.0214 45.3561 83.7999C45.5536 84.0595 45.8421 84.1969 46.1459 84.2274C47.2545 84.2885 50.0794 84.3954 51.6741 84.0442C52.0689 83.9526 52.4031 83.6473 52.5246 83.2198C52.7524 82.4565 52.965 81.8611 52.9802 81.5863C53.0409 80.3497 53.3143 76.9299 53.6788 72.2583C53.5725 72.0904 53.451 71.9072 53.3447 71.7393C53.2384 72.8232 52.5853 79.6932 51.5374 79.8611C51.3096 79.8917 51.0666 79.8459 51.0666 79.8459C50.4287 79.7237 50.2464 79.2199 49.806 78.8841C49.0315 78.3192 47.7253 78.4261 46.9812 79.0215C46.6774 79.2657 46.48 79.5863 45.9484 79.8153C45.6143 79.968 45.2802 79.9985 45.1891 79.9985C44.4297 79.968 43.6703 76.9452 43.2451 72.8537L42.5616 73.0522Z" fill="url(#paint7_linear_999:14938)"/>
<path d="M51.3398 69.9532C51.3398 69.9532 47.224 73.5409 42.7285 73.5256C42.7285 73.5256 40.177 67.7548 45.1889 66.793C50.2007 65.8312 50.3678 67.0678 50.3678 67.0678C50.3678 67.0678 56.2301 65.8465 53.6179 72.8997L51.3398 69.9532Z" fill="url(#paint8_linear_999:14938)"/>
<path d="M37.2599 103.54H41.6795L43.7905 85.4033C37.9889 85.9377 31.8684 89.9681 31.8684 89.9681L36.4246 101.097C36.7436 101.891 37.0169 102.716 37.2599 103.54Z" fill="url(#paint9_linear_999:14938)"/>
<path d="M62.3957 103.54C62.6387 102.502 62.9425 101.54 63.2918 100.563L65.8433 89.9676C60.7555 85.983 52.8125 85.0518 52.8125 85.0518L55.7892 103.54H62.3957Z" fill="url(#paint10_linear_999:14938)"/>
<ellipse cx="167.472" cy="107.829" rx="17.2945" ry="11.0056" fill="white"/>
<rect x="28.5917" y="34.9824" width="42.9743" height="20.9631" fill="#0F127B"/>
<circle cx="49.5547" cy="45.464" r="6.83708" stroke="#FFC244" stroke-linecap="round" stroke-dasharray="0.2 3"/>
<path d="M4 53V17.4247C4 10.0411 9.81688 4 16.9264 4H64" stroke="#55D8FA" stroke-width="8" stroke-miterlimit="10" stroke-linecap="round"/>
<path d="M64 150H16.9264C9.81688 150 4 144.082 4 136.849V102" stroke="#55D8FA" stroke-width="8" stroke-miterlimit="10" stroke-linecap="round"/>
<path d="M203 102V136.849C203 144.082 197.183 150 190.074 150H143" stroke="#55D8FA" stroke-width="8" stroke-miterlimit="10" stroke-linecap="round"/>
<path d="M143 4H190.074C197.183 4 203 10.0411 203 17.4247V53" stroke="#55D8FA" stroke-width="8" stroke-miterlimit="10" stroke-linecap="round"/>
<defs>
<linearGradient id="paint0_linear_999:14938" x1="60.6295" y1="84.286" x2="66.0491" y2="102.272" gradientUnits="userSpaceOnUse">
<stop stop-color="#040559"/>
<stop offset="1" stop-color="#14188A"/>
</linearGradient>
<linearGradient id="paint1_linear_999:14938" x1="30.0418" y1="89.9897" x2="35.542" y2="108.243" gradientUnits="userSpaceOnUse">
<stop stop-color="#040559"/>
<stop offset="1" stop-color="#14188A"/>
</linearGradient>
<linearGradient id="paint2_linear_999:14938" x1="87.6686" y1="-9.32303" x2="80.5855" y2="9.66284" gradientUnits="userSpaceOnUse">
<stop stop-color="#F09690"/>
<stop offset="1" stop-color="#EC7869"/>
</linearGradient>
<linearGradient id="paint3_linear_999:14938" x1="48.2307" y1="83.6872" x2="49.0549" y2="97.4364" gradientUnits="userSpaceOnUse">
<stop stop-color="#F3BDBB"/>
<stop offset="1" stop-color="#F09690"/>
</linearGradient>
<linearGradient id="paint4_linear_999:14938" x1="46.6255" y1="72.7052" x2="58.1528" y2="88.0056" gradientUnits="userSpaceOnUse">
<stop stop-color="#F3BDBB"/>
<stop offset="1" stop-color="#F09690"/>
</linearGradient>
<linearGradient id="paint5_linear_999:14938" x1="49.9854" y1="70.1738" x2="61.5127" y2="85.4741" gradientUnits="userSpaceOnUse">
<stop stop-color="#F3BDBB"/>
<stop offset="1" stop-color="#F09690"/>
</linearGradient>
<linearGradient id="paint6_linear_999:14938" x1="42.7168" y1="75.6505" x2="54.2442" y2="90.9507" gradientUnits="userSpaceOnUse">
<stop stop-color="#F3BDBB"/>
<stop offset="1" stop-color="#F09690"/>
</linearGradient>
<linearGradient id="paint7_linear_999:14938" x1="42.5593" y1="78.0051" x2="53.6752" y2="78.0051" gradientUnits="userSpaceOnUse">
<stop stop-color="#040559"/>
<stop offset="1" stop-color="#14188A"/>
</linearGradient>
<linearGradient id="paint8_linear_999:14938" x1="48.194" y1="82.1569" x2="48.194" y2="61.4441" gradientUnits="userSpaceOnUse">
<stop stop-color="#040559"/>
<stop offset="1" stop-color="#14188A"/>
</linearGradient>
<linearGradient id="paint9_linear_999:14938" x1="37.5859" y1="86.9059" x2="43.4288" y2="106.297" gradientUnits="userSpaceOnUse">
<stop stop-color="#040559"/>
<stop offset="1" stop-color="#14188A"/>
</linearGradient>
<linearGradient id="paint10_linear_999:14938" x1="56.2868" y1="81.5909" x2="62.6805" y2="102.809" gradientUnits="userSpaceOnUse">
<stop stop-color="#040559"/>
<stop offset="1" stop-color="#14188A"/>
</linearGradient>
</defs>
</svg>
