<svg width="167" height="208" viewBox="0 0 167 208" fill="none" xmlns="http://www.w3.org/2000/svg">
    <path d="M57.2479 204L18.5885 204C10.5648 204 4 198.154 4 191.009L4 143.699" stroke="#313769" stroke-width="8" stroke-miterlimit="10" stroke-linecap="round"/>
    <path d="M162.657 143.699L162.657 191.009C162.657 198.154 156.226 204 148.366 204L110.496 204" stroke="#313769" stroke-width="8" stroke-miterlimit="10" stroke-linecap="round"/>
    <path d="M110.496 4.0003L148.366 4.0003C156.226 4.0003 162.657 9.8464 162.657 16.9916L162.657 64.3018" stroke="#313769" stroke-width="8" stroke-miterlimit="10" stroke-linecap="round"/>
    <path d="M4 64.3018L4 16.9916C4 9.8464 10.5648 4.0003 18.5885 4.0003L57.2479 4.00029" stroke="#313769" stroke-width="8" stroke-miterlimit="10" stroke-linecap="round"/>
    <g clip-path="url(#clip0_1241_12079)">
        <path d="M140.632 186.652H26.8481C23.7638 186.652 21.2402 184.119 21.2402 181.022V27.2828C21.2402 24.186 23.7638 21.6523 26.8481 21.6523H140.632C143.717 21.6523 146.24 24.186 146.24 27.2828V181.022C146.24 184.147 143.717 186.652 140.632 186.652Z" fill="#E3E6E8"/>
        <path d="M48.6714 128C48.3216 127.196 47.9718 126.621 47.622 126.046C46.9223 124.667 46.9223 124.437 48.0882 123.403C49.9535 121.678 51.9355 120.299 54.1507 119.034C54.5005 118.805 54.9668 118.575 55.4332 118.23C55.0833 117.54 51.8185 112.598 49.719 99.9543C49.3691 97.6555 49.2525 97.5406 48.9026 95.2418C48.3193 90.5292 48.5522 85.8165 48.6685 81.1039C48.6684 79.3798 48.785 79.2648 50.5338 79.0348C53.332 78.4599 56.2468 78.1149 59.045 77.4251C64.6413 76.0455 70.1211 74.0911 75.1343 71.1023C77.3495 69.8378 79.4481 68.4584 81.6633 67.0789C83.0623 66.1593 83.2955 66.0443 84.6947 67.0787C87.8428 69.3774 91.2241 71.3312 94.8386 73.0551C100.668 75.8133 106.731 77.652 113.144 78.6861C114.31 78.9159 115.359 78.9159 116.525 79.0307C117.341 79.1456 117.691 79.6054 117.691 80.41C117.925 83.8582 118.275 87.3064 117.808 90.7547C117.575 92.5938 117.575 92.134 117.459 93.9731C117.109 98.9157 116.177 103.858 114.778 108.571C113.729 112.019 112.447 114.663 111.281 118.226C112.563 119.031 114.079 119.95 115.478 120.985C116.528 121.789 117.577 122.709 118.627 123.513C119.326 124.088 119.326 124.663 118.976 125.467C118.627 126.157 118.16 126.961 117.811 127.766C119.676 129.03 121.425 130.18 123.291 131.329C124.107 131.904 125.04 132.478 125.856 133.053C127.605 134.202 127.605 135.122 125.739 136.156C123.641 137.306 121.542 138.455 119.327 139.72C119.327 140.295 119.327 140.869 119.327 141.444C119.327 143.398 119.327 145.237 119.328 147.191C119.328 148.57 118.278 148.915 117.229 148.571C116.879 148.456 116.646 148.226 116.296 148.111C112.099 145.697 108.018 143.284 103.82 140.87C102.188 139.951 102.188 139.606 103.004 137.882C103.47 137.077 103.82 136.158 104.286 135.123C103.004 134.549 101.838 134.089 100.672 133.629C99.5061 134.549 98.4568 135.468 97.4075 136.388C93.5602 139.722 89.1298 141.906 84.5829 143.86C83.7667 144.205 83.0672 144.205 82.3676 143.86C77.5872 141.677 73.1565 139.378 69.1922 135.93C68.2594 135.125 67.4432 134.436 66.3938 133.516C65.2279 133.976 64.062 134.436 62.6629 135.011C63.246 136.16 63.7124 137.08 64.0622 137.999C64.7619 139.378 64.6453 139.838 63.2462 140.643C58.9325 143.172 54.6187 145.701 50.305 148.23C50.1884 148.345 49.9552 148.345 49.8386 148.46C48.4395 149.15 47.6234 148.69 47.6233 147.196C47.6232 145.357 47.623 143.517 47.6229 141.678C47.6229 141.104 47.6229 140.529 47.6228 139.839C45.9905 138.92 44.4747 138.115 42.8424 137.311C42.0262 136.851 41.21 136.506 40.5104 135.932C39.5777 135.357 39.5776 134.552 40.3937 133.863C40.7435 133.518 41.0932 133.288 41.443 133.058C43.5416 131.449 46.1065 129.725 48.6714 128ZM56.0145 91.7931C56.1311 92.7126 56.0153 104.781 61.9622 115.931C64.2943 120.528 67.2094 124.781 71.1738 128.229C74.2053 130.872 77.5866 132.711 81.2011 134.435C82.367 135.01 83.533 135.01 84.8154 134.435C90.2951 132.021 95.0752 128.802 98.9225 124.089C103.236 118.801 106.034 113.629 107.666 107.077C108.482 103.859 109.181 100.525 109.414 97.192C109.647 94.3184 109.88 93.8587 109.997 90.9851C109.997 89.6058 109.763 88.3414 109.763 86.9621C109.647 85.5828 109.297 85.238 107.898 85.0082C106.965 84.8934 106.149 84.7785 105.216 84.6636C97.5208 83.2848 90.5251 80.5266 84.2288 75.9293C83.1795 75.2397 82.8297 75.2397 81.7804 75.9295C77.8164 78.8032 73.5027 80.9874 68.8391 82.5969C65.3414 83.7465 61.8437 84.6663 58.1127 85.0113C56.9468 85.1264 56.4805 85.5862 56.3639 86.5057C56.2475 88.3448 56.131 89.954 56.0145 91.7931Z" fill="#19526C"/>
        <path d="M79.334 107.423C79.9169 106.849 80.3832 106.389 80.8496 106.044C84.4637 102.48 88.1945 98.8021 91.8086 95.2386C92.3915 94.6639 93.091 94.2041 93.9072 93.7443C95.073 93.1695 96.5888 93.5142 97.5216 94.3187C98.4544 95.2382 98.8042 96.7324 98.2213 97.8819C97.9882 98.4566 97.6385 99.1463 97.1721 99.6061C92.2755 104.549 87.2624 109.377 82.3658 114.205C81.1999 115.354 79.9175 116.044 78.2851 115.239C77.9353 115.01 77.4689 114.78 77.2357 114.435C74.6706 111.906 72.1054 109.378 69.5402 106.849C67.9078 105.355 68.2574 103.286 69.5399 102.137C71.0555 100.757 72.8044 100.642 74.3202 102.136C75.7194 103.86 77.4684 105.584 79.334 107.423Z" fill="#19526C"/>
        <path d="M76.3068 162.135L38.4143 162.138C37.7147 162.138 37.2483 161.678 37.2483 160.988L37.2481 158.575C37.2481 157.885 37.7144 157.425 38.414 157.425L76.4231 157.423C77.1226 157.423 77.589 157.883 77.5891 158.572L77.5892 160.986C77.4727 161.676 77.0063 162.135 76.3068 162.135Z" fill="#19526C"/>
        <path d="M128.073 162.134L90.0642 162.136C89.3646 162.136 88.8982 161.676 88.8982 160.987L88.898 158.573C88.898 157.883 89.3643 157.423 90.0639 157.423L128.073 157.421C128.773 157.421 129.239 157.881 129.239 158.57L129.239 160.984C129.239 161.674 128.656 162.133 128.073 162.134Z" fill="#19526C"/>
        <path d="M128.074 176.615L108.603 176.616C107.904 176.616 107.438 176.157 107.437 175.467L107.437 173.053C107.437 172.364 107.904 171.904 108.603 171.904L128.074 171.903C128.774 171.902 129.24 172.362 129.24 173.052L129.24 175.466C129.24 176.155 128.657 176.615 128.074 176.615Z" fill="#19526C"/>
        <path d="M57.8783 56.3905L38.4074 56.3918C37.7079 56.3918 37.2415 55.9321 37.2414 55.2424L37.2413 52.8286C37.2412 52.139 37.7076 51.6792 38.4071 51.6791L57.8781 51.6779C58.5776 51.6779 59.044 52.1376 59.0441 52.8273L59.0442 55.241C59.0442 55.9307 58.4613 56.3905 57.8783 56.3905Z" fill="#19526C"/>
        <path d="M90.9899 46.388L38.4067 46.3913C37.7071 46.3913 37.2407 45.9316 37.2407 45.2419L37.2403 38.8052C37.2403 38.1155 37.7066 37.6557 38.4062 37.6557L90.9893 37.6524C91.6889 37.6524 92.1553 38.1121 92.1553 38.8018L92.1557 45.2385C92.1558 45.9282 91.6894 46.388 90.9899 46.388Z" fill="#19526C"/>
        <path d="M128.067 56.3855L75.2502 56.3888C74.5506 56.3889 74.0842 55.9291 74.0842 55.2395L74.0841 52.8257C74.084 52.136 74.5504 51.6762 75.2499 51.6762L127.95 51.6729C128.649 51.6729 129.116 52.1326 129.116 52.8223L129.116 55.236C129.232 55.9257 128.65 56.3855 128.067 56.3855Z" fill="#19526C"/>
    </g>
    <defs>
        <clipPath id="clip0_1241_12079">
            <rect width="125" height="165" fill="white" transform="translate(21 22)"/>
        </clipPath>
    </defs>
</svg>
