<svg width="167" height="208" viewBox="0 0 167 208" fill="none" xmlns="http://www.w3.org/2000/svg">
    <path d="M57.2479 204L18.5885 204C10.5648 204 4 198.154 4 191.009L4 143.699" stroke="#313769" stroke-width="8" stroke-miterlimit="10" stroke-linecap="round"/>
    <path d="M162.657 143.699L162.657 191.009C162.657 198.154 156.226 204 148.366 204L110.496 204" stroke="#313769" stroke-width="8" stroke-miterlimit="10" stroke-linecap="round"/>
    <path d="M110.496 4.00033L148.366 4.00033C156.226 4.00033 162.657 9.84643 162.657 16.9917L162.657 64.3018" stroke="#313769" stroke-width="8" stroke-miterlimit="10" stroke-linecap="round"/>
    <path d="M4 64.3018L4 16.9917C4 9.84643 10.5648 4.00033 18.5885 4.00033L57.2479 4.00033" stroke="#313769" stroke-width="8" stroke-miterlimit="10" stroke-linecap="round"/>
    <path d="M140.392 187H26.6079C23.5236 187 21 184.466 21 181.37V27.6304C21 24.5337 23.5236 22 26.6079 22H140.392C143.476 22 146 24.5337 146 27.6304V181.37C146 184.494 143.476 187 140.392 187Z" fill="#E3E6E8"/>
    <path d="M66.9287 70.816H59.7506C59.3861 70.816 59.0776 70.5063 59.0776 70.1404V68.0853C59.0776 67.7193 59.3861 67.4096 59.7506 67.4096H65.2183V57.8097C65.2183 56.8525 65.9753 56.0924 66.9287 56.0924H68.3307L66.1716 53.9247C65.8912 53.6432 65.8912 53.2209 66.1716 52.9675L67.6297 51.5036C67.9101 51.2221 68.3307 51.2221 68.583 51.5036L73.6021 56.5429C73.9946 56.937 74.219 57.5282 74.1348 58.0912C73.9946 58.9358 73.2656 59.527 72.4525 59.527H68.6391V69.1269C68.6391 70.0559 67.882 70.816 66.9287 70.816Z" fill="#EE333B"/>
    <path d="M60.3955 48.1254L56.5261 44.2404L52.6566 48.1254C52.3762 48.4069 51.9556 48.4069 51.7033 48.1254L50.2452 46.6615C49.9648 46.38 49.9648 45.9577 50.2452 45.7043L55.3204 40.6088C55.9933 39.9331 57.0588 39.9331 57.7318 40.6088L62.8069 45.7043C63.0873 45.9859 63.0873 46.4081 62.8069 46.6615L61.3488 48.1254C61.0965 48.3788 60.6479 48.3788 60.3955 48.1254Z" fill="#1486C5"/>
    <path d="M53.3015 70.8164H46.1234C45.1701 70.8164 44.413 70.0562 44.413 69.0991V59.4992H40.6837C40.1229 59.4992 39.5622 59.2458 39.2257 58.7672C38.749 58.0634 38.8331 57.1344 39.422 56.5713L44.4971 51.4758C44.7775 51.1943 45.1981 51.1943 45.4504 51.4758L46.9085 52.9397C47.1889 53.2212 47.1889 53.6435 46.9085 53.8969L44.7495 56.0646H46.1514C47.1048 56.0646 47.8618 56.8247 47.8618 57.7819V67.3818H53.3295C53.6941 67.3818 54.0025 67.6915 54.0025 68.0574V70.1125C53.9744 70.5067 53.666 70.8164 53.3015 70.8164Z" fill="#FEC23A"/>
    <path d="M87.6499 64.1721V67.8037C87.6499 68.1697 87.3414 68.4794 86.9769 68.4794H83.8084C83.4439 68.4794 83.1355 68.1697 83.1355 67.8037V53.1927C83.1355 52.8268 83.4439 52.5171 83.8084 52.5171H90.8464C95.1084 52.5171 97.2394 55.2197 97.2394 58.3446C97.2394 61.6103 95.1084 64.1439 90.8464 64.2002H87.6499V64.1721ZM87.6499 60.3716H90.8744C92.1362 60.3716 92.753 59.4707 92.753 58.4009C92.753 57.3593 92.0801 56.4021 90.8744 56.4021H87.6499V60.3716Z" fill="black"/>
    <path d="M109.128 65.8612H102.006L101.137 68.0571C101.025 68.3105 100.772 68.4794 100.492 68.4794H97.2394C96.7346 68.4794 96.4262 67.9726 96.6225 67.5222L103.156 52.9112C103.268 52.6579 103.52 52.5171 103.773 52.5171H107.446C107.726 52.5171 107.95 52.686 108.063 52.9112L114.568 67.5222C114.764 67.9726 114.428 68.4794 113.951 68.4794H110.642C110.362 68.4794 110.109 68.3105 109.997 68.0571L109.128 65.8612ZM105.595 56.9651L103.548 62.0607H107.614L105.595 56.9651Z" fill="black"/>
    <path d="M123.092 52.4888C128.7 52.4888 131.42 55.9515 131.42 60.3714C131.42 64.7913 128.812 68.4792 123.092 68.4792H116.951C116.587 68.4792 116.278 68.1695 116.278 67.8036V53.1926C116.278 52.8266 116.587 52.5169 116.951 52.5169H123.092V52.4888ZM120.736 64.6787H123.092C125.952 64.6787 126.961 62.5391 126.961 60.3432C126.961 58.1474 125.84 56.2893 123.092 56.2893H120.736V64.6787Z" fill="black"/>
    <path d="M65.5827 87.5104H37.4872C36.7021 87.5104 36.0852 86.891 36.0852 86.1028V85.2582C36.0852 84.4699 36.7021 83.8506 37.4872 83.8506H65.5827C66.3678 83.8506 66.9847 84.4699 66.9847 85.2582V86.1028C66.9847 86.891 66.3678 87.5104 65.5827 87.5104Z" fill="#19526C"/>
    <path d="M65.5827 98.2076H37.4872C36.7021 98.2076 36.0852 97.5883 36.0852 96.8V95.9555C36.0852 95.1672 36.7021 94.5479 37.4872 94.5479H65.5827C66.3678 94.5479 66.9847 95.1672 66.9847 95.9555V96.8C66.9847 97.5601 66.3678 98.2076 65.5827 98.2076Z" fill="#19526C"/>
    <path d="M65.5827 109.582H37.4872C36.7021 109.582 36.0852 108.962 36.0852 108.174V107.329C36.0852 106.541 36.7021 105.922 37.4872 105.922H65.5827C66.3678 105.922 66.9847 106.541 66.9847 107.329V108.174C66.9847 108.962 66.3678 109.582 65.5827 109.582Z" fill="#19526C"/>
    <path d="M133.747 87.5104H81.0326C80.2475 87.5104 79.6306 86.891 79.6306 86.1028V85.2582C79.6306 84.4699 80.2475 83.8506 81.0326 83.8506H133.747C134.532 83.8506 135.149 84.4699 135.149 85.2582V86.1028C135.149 86.891 134.504 87.5104 133.747 87.5104Z" fill="#19526C"/>
    <path d="M133.747 98.2076H81.0326C80.2475 98.2076 79.6306 97.5883 79.6306 96.8V95.9555C79.6306 95.1672 80.2475 94.5479 81.0326 94.5479H133.747C134.532 94.5479 135.149 95.1672 135.149 95.9555V96.8C135.149 97.5601 134.504 98.2076 133.747 98.2076Z" fill="#19526C"/>
    <path d="M133.747 109.582H81.0326C80.2475 109.582 79.6306 108.962 79.6306 108.174V107.329C79.6306 106.541 80.2475 105.922 81.0326 105.922H133.747C134.532 105.922 135.149 106.541 135.149 107.329V108.174C135.149 108.962 134.504 109.582 133.747 109.582Z" fill="#19526C"/>
    <path d="M67.153 164.844H35.3002C34.5151 164.844 33.8982 164.225 33.8982 163.437V163.24C33.8982 162.451 34.5151 161.832 35.3002 161.832H67.153C67.9381 161.832 68.555 162.451 68.555 163.24V163.437C68.555 164.225 67.9381 164.844 67.153 164.844Z" fill="#19526C"/>
    <path d="M112.689 164.844H80.8363C80.0512 164.844 79.4343 164.225 79.4343 163.437V163.24C79.4343 162.451 80.0512 161.832 80.8363 161.832H112.689C113.474 161.832 114.091 162.451 114.091 163.24V163.437C114.091 164.225 113.474 164.844 112.689 164.844Z" fill="#19526C"/>
    <path d="M133.999 123.207H55.1241C54.5072 123.207 53.9745 123.714 53.9745 124.361V130.104C53.9745 130.724 54.4792 131.259 55.1241 131.259H133.999C134.616 131.259 135.149 130.752 135.149 130.104V124.333C135.149 123.714 134.616 123.207 133.999 123.207Z" fill="#19526C"/>
    <path d="M133.747 140.662H39.2257C38.4406 140.662 37.8237 141.281 37.8237 142.069V151.05C37.8237 151.838 38.4406 152.457 39.2257 152.457H133.747C134.532 152.457 135.149 151.838 135.149 151.05V142.069C135.149 141.281 134.504 140.662 133.747 140.662Z" fill="#19526C"/>
</svg>
