<svg width="100" height="100" viewBox="0 0 100 100" fill="none" xmlns="http://www.w3.org/2000/svg">
<circle cx="50" cy="50" r="48.5" stroke="#FF6843" stroke-width="3"/>
<path d="M30.3601 72.3839V64.2909C30.3601 63.1819 29.4534 62.2527 28.305 62.2527C27.1869 62.2527 26.25 63.1519 26.25 64.2909V72.3839C26.25 74.9317 28.3353 77 30.904 77H39.0637C40.1819 77 41.1187 76.1007 41.1187 74.9617C41.1187 73.8527 40.2121 72.9235 39.0637 72.9235H30.904C30.632 72.9534 30.3601 72.7137 30.3601 72.3839ZM30.9343 29.1912C28.3655 29.1912 26.25 31.2894 26.25 33.8372V41.9302C26.25 43.0392 27.1566 43.9684 28.305 43.9684C29.4232 43.9684 30.3601 43.0692 30.3601 41.9302V33.8372C30.3601 33.5074 30.632 33.2676 30.9343 33.2676H39.0939C40.2121 33.2676 41.149 32.3684 41.149 31.2294C41.149 30.1204 40.2423 29.1912 39.0939 29.1912H30.9343ZM68.3149 72.3839C68.3149 72.7137 68.043 72.9534 67.7407 72.9534H59.5811C58.4629 72.9534 57.526 73.8527 57.526 74.9917C57.526 76.1007 58.4327 77.0299 59.5811 77.0299H67.7407C70.3095 77.0299 72.3948 74.9617 72.3948 72.4139V64.3209C72.3948 63.2118 71.4882 62.2826 70.3398 62.2826C69.2216 62.2826 68.2847 63.1819 68.2847 64.3209V72.3839H68.3149Z" fill="#FF6843"/>
<path fill-rule="evenodd" clip-rule="evenodd" d="M25.875 33.8372C25.875 31.0794 28.1613 28.8162 30.9343 28.8162H39.0939C40.4501 28.8162 41.524 29.9139 41.524 31.2294C41.524 32.582 40.4127 33.6426 39.0939 33.6426H30.9343C30.8232 33.6426 30.7351 33.7301 30.7351 33.8372V41.9302C30.7351 43.2828 29.6238 44.3434 28.305 44.3434C26.9488 44.3434 25.875 43.2456 25.875 41.9302V33.8372ZM30.9343 29.5662C28.5697 29.5662 26.625 31.4994 26.625 33.8372V41.9302C26.625 42.8328 27.3644 43.5934 28.305 43.5934C29.2226 43.5934 29.9851 42.8556 29.9851 41.9302V33.8372C29.9851 33.2848 30.4409 32.8926 30.9343 32.8926H39.0939C40.0115 32.8926 40.774 32.1549 40.774 31.2294C40.774 30.3268 40.0345 29.5662 39.0939 29.5662H30.9343ZM25.875 64.2909C25.875 62.9383 26.9863 61.8777 28.305 61.8777C29.6612 61.8777 30.7351 62.9755 30.7351 64.2909V72.3839C30.7351 72.443 30.7587 72.4884 30.7891 72.5174C30.8215 72.5484 30.8508 72.5521 30.863 72.5507L30.8834 72.5485H39.0637C40.4199 72.5485 41.4937 73.6463 41.4937 74.9617C41.4937 76.3143 40.3825 77.375 39.0637 77.375H30.904C28.1311 77.375 25.875 75.1417 25.875 72.3839V64.2909ZM28.305 62.6277C27.3874 62.6277 26.625 63.3655 26.625 64.2909V72.3839C26.625 74.7217 28.5395 76.625 30.904 76.625H39.0637C39.9813 76.625 40.7437 75.8872 40.7437 74.9617C40.7437 74.0591 40.0043 73.2985 39.0637 73.2985H30.9216C30.4143 73.3398 29.9851 72.9047 29.9851 72.3839V64.2909C29.9851 63.3883 29.2456 62.6277 28.305 62.6277ZM67.9097 64.3209C67.9097 62.9683 69.021 61.9076 70.3398 61.9076C71.696 61.9076 72.7698 63.0054 72.7698 64.3209V72.4139C72.7698 75.1717 70.5137 77.4049 67.7407 77.4049H59.5811C58.2249 77.4049 57.151 76.3071 57.151 74.9917C57.151 73.6391 58.2623 72.5784 59.5811 72.5784H67.7407C67.8125 72.5784 67.8747 72.5419 67.9097 72.4872V64.3209ZM68.6597 72.0089H68.6899V72.3839C68.6899 72.9363 68.2341 73.3284 67.7407 73.3284H59.5811C58.6635 73.3284 57.901 74.0662 57.901 74.9917C57.901 75.8943 58.6405 76.6549 59.5811 76.6549H67.7407C70.1053 76.6549 72.0198 74.7517 72.0198 72.4139V64.3209C72.0198 63.4183 71.2804 62.6576 70.3398 62.6576C69.4222 62.6576 68.6597 63.3954 68.6597 64.3209V72.0089Z" fill="#FF6843"/>
<path d="M76.442 56.7867H20.1155C18.9369 56.7867 18 55.8575 18 54.6885C18 53.5195 18.9369 52.5903 20.1155 52.5903H76.442C77.6207 52.5903 78.5575 53.5195 78.5575 54.6885C78.5575 55.8575 77.6207 56.7867 76.442 56.7867Z" fill="#FF6843"/>
<path fill-rule="evenodd" clip-rule="evenodd" d="M20.1155 52.9653C19.1411 52.9653 18.375 53.7295 18.375 54.6885C18.375 55.6475 19.1411 56.4117 20.1155 56.4117H76.442C77.4165 56.4117 78.1825 55.6475 78.1825 54.6885C78.1825 53.7295 77.4165 52.9653 76.442 52.9653H20.1155ZM17.625 54.6885C17.625 53.3095 18.7327 52.2153 20.1155 52.2153H76.442C77.8249 52.2153 78.9325 53.3095 78.9325 54.6885C78.9325 56.0675 77.8249 57.1617 76.442 57.1617H20.1155C18.7327 57.1617 17.625 56.0675 17.625 54.6885Z" fill="#FF6843"/>
<path d="M69.1618 48.4346C60.9719 48.4346 54.3232 41.8403 54.3232 33.7173C54.3232 25.5943 60.9719 19 69.1618 19C77.3517 19 84.0003 25.5943 84.0003 33.7173C84.0003 41.8403 77.3214 48.4346 69.1618 48.4346ZM69.1618 22.5969C62.9665 22.5969 57.9498 27.5726 57.9498 33.7173C57.9498 39.862 62.9665 44.8377 69.1618 44.8377C75.3571 44.8377 80.3738 39.862 80.3738 33.7173C80.3738 27.5726 75.3269 22.5969 69.1618 22.5969Z" fill="#FF6843"/>
<path fill-rule="evenodd" clip-rule="evenodd" d="M69.1618 19.125C61.0399 19.125 54.4482 25.6643 54.4482 33.7173C54.4482 41.7703 61.0399 48.3096 69.1618 48.3096C77.2535 48.3096 83.8753 41.7701 83.8753 33.7173C83.8753 25.6643 77.2836 19.125 69.1618 19.125ZM54.1982 33.7173C54.1982 25.5243 60.9038 18.875 69.1618 18.875C77.4197 18.875 84.1253 25.5243 84.1253 33.7173C84.1253 41.9105 77.3893 48.5596 69.1618 48.5596C60.9038 48.5596 54.1982 41.9103 54.1982 33.7173ZM57.8248 33.7173C57.8248 27.5026 62.8984 22.4719 69.1618 22.4719C75.3947 22.4719 80.4988 27.5024 80.4988 33.7173C80.4988 39.932 75.4251 44.9627 69.1618 44.9627C62.8984 44.9627 57.8248 39.932 57.8248 33.7173ZM69.1618 22.7219C63.0345 22.7219 58.0748 27.6426 58.0748 33.7173C58.0748 39.792 63.0345 44.7127 69.1618 44.7127C75.289 44.7127 80.2488 39.792 80.2488 33.7173C80.2488 27.6428 75.259 22.7219 69.1618 22.7219Z" fill="#FF6843"/>
<path d="M69.2224 41.6005C68.2251 41.6005 67.4092 40.7912 67.4092 39.802V33.9271C67.4092 32.938 68.2251 32.1287 69.2224 32.1287C70.2197 32.1287 71.0357 32.938 71.0357 33.9271V39.802C71.0357 40.8212 70.2197 41.6005 69.2224 41.6005Z" fill="#FF6843"/>
<path fill-rule="evenodd" clip-rule="evenodd" d="M69.2228 32.2286C68.28 32.2286 67.5096 32.9939 67.5096 33.927V39.8019C67.5096 40.7351 68.28 41.5004 69.2228 41.5004C70.1668 41.5004 70.9361 40.764 70.9361 39.8019V33.927C70.9361 32.9939 70.1657 32.2286 69.2228 32.2286ZM67.3096 33.927C67.3096 32.8819 68.1711 32.0286 69.2228 32.0286C70.2746 32.0286 71.1361 32.8819 71.1361 33.927V39.8019C71.1361 40.8782 70.2735 41.7004 69.2228 41.7004C68.1711 41.7004 67.3096 40.8471 67.3096 39.8019V33.927Z" fill="#FF6843"/>
<path d="M69.2222 30.3603C68.1342 30.3603 67.2578 29.491 67.2578 28.4119C67.2578 27.3329 68.1342 26.4636 69.2222 26.4636C70.3101 26.4636 71.1865 27.3329 71.1865 28.4119C71.1865 29.491 70.3101 30.3603 69.2222 30.3603Z" fill="#FF6843"/>
<path fill-rule="evenodd" clip-rule="evenodd" d="M69.2226 26.5635C68.1891 26.5635 67.3582 27.3888 67.3582 28.4118C67.3582 29.4349 68.1891 30.2602 69.2226 30.2602C70.2561 30.2602 71.0869 29.4349 71.0869 28.4118C71.0869 27.3888 70.2561 26.5635 69.2226 26.5635ZM67.1582 28.4118C67.1582 27.2768 68.0802 26.3635 69.2226 26.3635C70.365 26.3635 71.2869 27.2768 71.2869 28.4118C71.2869 29.5469 70.365 30.4602 69.2226 30.4602C68.0802 30.4602 67.1582 29.5469 67.1582 28.4118Z" fill="#FF6843"/>
</svg>
