<svg width="236" height="189" viewBox="0 0 236 189" fill="none" xmlns="http://www.w3.org/2000/svg">
    <rect x="60" y="19" width="130.127" height="156" rx="8" fill="#83B9EA"/>
    <g opacity="0.3">
        <path d="M156.594 126.107H140.309C139.559 126.107 138.952 126.715 138.952 127.464V143.749C138.952 144.499 139.559 145.106 140.309 145.106H156.594C157.343 145.106 157.951 144.499 157.951 143.749V127.464C157.951 126.715 157.343 126.107 156.594 126.107ZM155.237 142.392H141.666V128.822H155.237V142.392Z" fill="black"/>
        <path d="M145.737 139.679H151.166C151.915 139.679 152.523 139.071 152.523 138.321V132.893C152.523 132.144 151.915 131.536 151.166 131.536H145.737C144.988 131.536 144.38 132.144 144.38 132.893V138.321C144.38 139.071 144.988 139.679 145.737 139.679ZM147.094 134.25H149.808V136.964H147.094V134.25Z" fill="black"/>
        <path d="M156.593 147.821H140.309C139.559 147.821 138.952 148.429 138.952 149.178V165.463C138.952 166.213 139.559 166.82 140.309 166.82H156.593C157.343 166.82 157.951 166.213 157.951 165.463V149.178C157.951 148.429 157.343 147.821 156.593 147.821ZM155.236 164.106H141.666V150.535H155.236V164.106Z" fill="black"/>
        <path d="M145.737 161.391H151.166C151.915 161.391 152.523 160.784 152.523 160.034V154.606C152.523 153.857 151.915 153.249 151.166 153.249H145.737C144.988 153.249 144.38 153.857 144.38 154.606V160.034C144.38 160.784 144.988 161.391 145.737 161.391ZM147.094 155.963H149.808V158.677H147.094V155.963Z" fill="black"/>
        <path d="M178.307 126.107H162.022C161.272 126.107 160.665 126.715 160.665 127.464V138.321H163.379V128.822H176.949V142.392H163.379V141.035H160.665V143.749C160.665 144.499 161.272 145.106 162.022 145.106H178.307C179.056 145.106 179.664 144.499 179.664 143.749V127.464C179.664 126.715 179.056 126.107 178.307 126.107Z" fill="black"/>
        <path d="M172.879 139.679C173.628 139.679 174.236 139.071 174.236 138.321V132.893C174.236 132.144 173.628 131.536 172.879 131.536H167.45C166.701 131.536 166.093 132.144 166.093 132.893V138.321C166.093 139.071 166.701 139.679 167.45 139.679H172.879ZM168.807 134.25H171.522V136.964H168.807V134.25Z" fill="black"/>
        <path d="M163.379 150.535H167.45V147.821H162.022C161.272 147.821 160.665 148.429 160.665 149.178V154.607H163.379V150.535Z" fill="black"/>
        <path d="M170.164 155.964H162.022C161.272 155.964 160.665 156.572 160.665 157.321V165.463C160.665 166.213 161.272 166.82 162.022 166.82H170.164C170.914 166.82 171.521 166.213 171.521 165.463V157.321C171.521 156.572 170.914 155.964 170.164 155.964ZM168.807 164.106H163.379V158.678H168.807V164.106Z" fill="black"/>
        <path d="M178.307 147.821H170.164V150.535H176.949V153.25H179.664V149.178C179.664 148.429 179.056 147.821 178.307 147.821Z" fill="black"/>
        <path d="M178.306 154.607H174.235V157.322H176.949V164.107H172.878V166.821H178.306C179.056 166.821 179.664 166.213 179.664 165.464V155.964C179.664 155.215 179.056 154.607 178.306 154.607Z" fill="black"/>
        <path d="M166.093 151.893H172.879V154.607H166.093V151.893Z" fill="black"/>
    </g>
    <g opacity="0.3">
        <path d="M85.0052 57.8271C83.6448 57.8271 82.3149 58.2306 81.1837 58.9864C80.0525 59.7422 79.1709 60.8165 78.6503 62.0734C78.1297 63.3303 77.9935 64.7133 78.2589 66.0476C78.5243 67.3819 79.1794 68.6075 80.1414 69.5695C81.1033 70.5315 82.329 71.1866 83.6633 71.452C84.9976 71.7174 86.3806 71.5812 87.6375 71.0606C88.8944 70.54 89.9686 69.6583 90.7245 68.5272C91.4803 67.396 91.8837 66.0661 91.8837 64.7057C91.8816 62.882 91.1563 61.1336 89.8668 59.8441C88.5772 58.5546 86.8289 57.8292 85.0052 57.8271ZM85.0052 67.8804C84.3773 67.8804 83.7635 67.6942 83.2414 67.3453C82.7194 66.9965 82.3124 66.5007 82.0722 65.9206C81.8319 65.3405 81.769 64.7021 81.8915 64.0863C82.014 63.4705 82.3164 62.9048 82.7604 62.4608C83.2043 62.0168 83.77 61.7145 84.3858 61.592C85.0017 61.4695 85.64 61.5323 86.2201 61.7726C86.8002 62.0129 87.296 62.4198 87.6449 62.9419C87.9937 63.464 88.1799 64.0778 88.1799 64.7057C88.1799 65.5476 87.8454 66.3551 87.25 66.9505C86.6547 67.5459 85.8472 67.8804 85.0052 67.8804Z" fill="black"/>
        <path d="M123.101 57.8271C121.741 57.8271 120.411 58.2306 119.28 58.9864C118.149 59.7422 117.267 60.8165 116.746 62.0734C116.226 63.3303 116.09 64.7133 116.355 66.0476C116.62 67.3819 117.276 68.6075 118.238 69.5695C119.2 70.5315 120.425 71.1866 121.759 71.452C123.094 71.7174 124.477 71.5812 125.734 71.0606C126.991 70.54 128.065 69.6583 128.821 68.5272C129.576 67.396 129.98 66.0661 129.98 64.7057C129.978 62.882 129.252 61.1336 127.963 59.8441C126.673 58.5546 124.925 57.8292 123.101 57.8271ZM123.101 67.8804C122.473 67.8804 121.86 67.6942 121.338 67.3453C120.816 66.9965 120.409 66.5007 120.168 65.9206C119.928 65.3405 119.865 64.7021 119.988 64.0863C120.11 63.4705 120.413 62.9048 120.857 62.4608C121.301 62.0168 121.866 61.7145 122.482 61.592C123.098 61.4695 123.736 61.5323 124.316 61.7726C124.896 62.0129 125.392 62.4198 125.741 62.9419C126.09 63.464 126.276 64.0778 126.276 64.7057C126.276 65.5476 125.942 66.3551 125.346 66.9505C124.751 67.5459 123.943 67.8804 123.101 67.8804Z" fill="black"/>
        <path d="M132.282 52.1442L119.927 49.8901L109.409 41.163C108.366 40.3067 107.06 39.8381 105.71 39.8369H90.2145C89.3413 39.8349 88.4789 40.0303 87.6918 40.4086C86.9048 40.7868 86.2135 41.3382 85.6696 42.0214L78.9513 49.8901H74.4231C73.1605 49.8915 71.9501 50.3937 71.0574 51.2864C70.1646 52.1792 69.6624 53.3896 69.661 54.6522V60.4725C69.6628 62.0156 70.2765 63.495 71.3677 64.5861C72.4588 65.6773 73.9382 66.291 75.4813 66.2927H76.691C76.4562 65.0682 76.4948 63.8069 76.804 62.599C77.1132 61.3911 77.6855 60.2664 78.4798 59.3053C79.2741 58.3442 80.2709 57.5704 81.399 57.0392C82.5271 56.5081 83.7585 56.2327 85.0054 56.2327C86.2523 56.2327 87.4837 56.5081 88.6118 57.0392C89.7399 57.5704 90.7367 58.3442 91.531 59.3053C92.3253 60.2664 92.8976 61.3911 93.2068 62.599C93.516 63.8069 93.5546 65.0682 93.3198 66.2927H114.787C114.553 65.0682 114.591 63.8069 114.9 62.599C115.21 61.3911 115.782 60.2664 116.576 59.3053C117.37 58.3442 118.367 57.5704 119.495 57.0392C120.623 56.5081 121.855 56.2327 123.102 56.2327C124.349 56.2327 125.58 56.5081 126.708 57.0392C127.836 57.5704 128.833 58.3442 129.627 59.3053C130.422 60.2664 130.994 61.3911 131.303 62.599C131.612 63.8069 131.651 65.0682 131.416 66.2927H131.568C132.83 66.2913 134.041 65.7892 134.933 64.8964C135.826 64.0037 136.328 62.7932 136.33 61.5307V56.8522C136.335 55.7115 135.929 54.607 135.185 53.742C134.442 52.877 133.411 52.3096 132.282 52.1442ZM92.9421 48.3028C92.9421 48.7238 92.7749 49.1275 92.4772 49.4252C92.1795 49.7229 91.7758 49.8901 91.3548 49.8901H84.3764C84.2247 49.8902 84.0761 49.8468 83.9482 49.765C83.8204 49.6832 83.7187 49.5665 83.6552 49.4287C83.5916 49.2909 83.569 49.1377 83.5898 48.9874C83.6107 48.8371 83.6742 48.6959 83.7728 48.5806L88.3915 43.1704C88.5406 42.996 88.7257 42.8561 88.9341 42.7602C89.1425 42.6643 89.3692 42.6147 89.5987 42.6148H91.3548C91.7758 42.6148 92.1795 42.782 92.4772 43.0797C92.7749 43.3774 92.9421 43.7811 92.9421 44.2021V48.3028ZM100.879 55.7104H98.7624C98.3414 55.7104 97.9377 55.5432 97.64 55.2455C97.3423 54.9478 97.1751 54.5441 97.1751 54.1231C97.1751 53.7021 97.3423 53.2983 97.64 53.0006C97.9377 52.703 98.3414 52.5357 98.7624 52.5357H100.879C101.3 52.5357 101.704 52.703 102.001 53.0006C102.299 53.2983 102.466 53.7021 102.466 54.1231C102.466 54.5441 102.299 54.9478 102.001 55.2455C101.704 55.5432 101.3 55.7104 100.879 55.7104ZM113.376 49.929L98.2296 49.8938C97.8092 49.8929 97.4064 49.7252 97.1096 49.4276C96.8127 49.13 96.6459 48.7268 96.646 48.3065V44.2021C96.646 43.7811 96.8132 43.3774 97.1109 43.0797C97.4086 42.782 97.8123 42.6148 98.2333 42.6148H105.846C106.202 42.6148 106.549 42.735 106.829 42.9561L113.87 48.5118C114 48.614 114.094 48.7541 114.141 48.9127C114.187 49.0712 114.183 49.2403 114.128 49.3963C114.074 49.5523 113.972 49.6875 113.838 49.783C113.703 49.8785 113.542 49.9295 113.376 49.929Z" fill="black"/>
    </g>
    <rect x="146.751" y="47.917" width="31.961" height="5.32683" rx="2.66341" fill="#3F6B95"/>
    <rect x="71.4145" y="117.166" width="43.3756" height="4.56585" rx="2.28293" fill="#3F6B95"/>
    <rect x="71.4145" y="130.863" width="43.3756" height="4.56585" rx="2.28293" fill="#3F6B95"/>
    <rect x="71.4145" y="143.039" width="43.3756" height="4.56585" rx="2.28293" fill="#3F6B95"/>
    <rect x="146.751" y="60.8535" width="31.961" height="5.32683" rx="2.66341" fill="#3F6B95"/>
    <rect x="71.4145" y="83.6826" width="99.6878" height="4.56585" rx="2.28293" fill="#3F6B95"/>
    <rect x="71.4145" y="98.9023" width="99.6878" height="4.56585" rx="2.28293" fill="#3F6B95"/>
    <path d="M96.5 185L60.9247 185C53.5411 185 47.5 179.87 47.5 173.6L47.5 132.085" stroke="#55D8FA" stroke-width="8" stroke-miterlimit="10" stroke-linecap="round"/>
    <path d="M203.5 132.085L203.5 173.6C203.5 179.87 197.582 185 190.349 185L155.5 185" stroke="#55D8FA" stroke-width="8" stroke-miterlimit="10" stroke-linecap="round"/>
    <path d="M155.5 4.50046L190.349 4.50046C197.582 4.50046 203.5 9.63042 203.5 15.9004L203.5 57.415" stroke="#55D8FA" stroke-width="8" stroke-miterlimit="10" stroke-linecap="round"/>
    <path d="M47.5 57.415L47.5 15.9004C47.5 9.63042 53.5411 4.50046 60.9247 4.50046L96.5 4.50046" stroke="#55D8FA" stroke-width="8" stroke-miterlimit="10" stroke-linecap="round"/>
    <path d="M230.39 117H5.61043C2.53374 117 0 114.742 0 112C0 109.258 2.53374 107 5.61043 107H230.39C233.466 107 236 109.258 236 112C236 114.742 233.466 117 230.39 117Z" fill="#55D8FA"/>
</svg>
