<svg width="260" height="180" viewBox="0 0 260 180" fill="none" xmlns="http://www.w3.org/2000/svg"><path d="M79.5 145c0 1.5-.3 6.1-1 14.4l-1.6 19a.5.5 0 0 1-.5.4 49.8 49.8 0 0 1-20.7.2 44.8 44.8 0 0 1-1.9-.5.5.5 0 0 1-.4-.4L51.8 160a.5.5 0 0 0-.1-.4.5.5 0 0 0-.4 0 .4.4 0 0 0-.4.2l-5.4 17.8a.5.5 0 0 1-.5.4c-2 .3-4.2.5-6.2.5-6 .2-11.7-.8-17-3.1-.2 0-.4-.3-.4-.6l6-33.5a.5.5 0 0 1 .5-.4l28.8 4.8h.1l22.2-1c.3 0 .5.2.5.5z" fill="url(#a)"/><path d="M26 136s-2.6 6.1 4.8 10.1c7.3 4 12.4 2.7 23.1 2.7 7.8 0 20 .2 25.4-1.7 2-.7 2-1.8-.3-2.6-4.8-1.5-13.8-4-24.6-4-16-.1-28.4-4.6-28.4-4.6z" fill="#20214E"/><path opacity=".7" d="M54.7 147.8s1.4 10 0 10.6c-1.3.6-3 1.1-3 1.1l-.2-13" stroke="#20214E" stroke-width="1.9" stroke-miterlimit="10"/><path d="M71.5 146.8s-1.7 6.4 5.5 8.5" stroke="#20214E" stroke-width="1.9" stroke-miterlimit="10"/><path d="M46 147.4s-6.3 5.2-13.1 5.8c-2 .2-5.8-1.5-6.6-3.8-.9-2.3-2.6-12.6.7-10.8 3.3 1.8 19 8.8 19 8.8z" fill="#20214E"/><path d="M151.6 147.5c59.8 0 108.3-8.5 108.3-19 0-10.4-48.5-19-108.3-19s-108.3 8.6-108.3 19c0 10.5 48.5 19 108.3 19z" fill="currentColor"/><path d="M9 135.5c-1-.1-2.1.1-3.2 0-1 0-1.5-.3-1.7-1.3-1.2-5-2-10.2-2.4-15.4-.6-5.2-1-10.3-1.4-15.4 0-.2 0-.5-.3-.6v-.2c.3-.4 0-1 .2-1.4.3-1.8 1-3.4 2.3-4.8 7-7.7 14.7-14.9 22.5-21.8l2-1.9c.5-.5 1.2-.7 2-.8.3 1 1 1.7 1.5 2.6 1 1.7 1 3.6 1 5.5-.3 3.3-.9 6.6-1 9.9 0 .3 0 .6-.2.9h-.2c-.4-.6-1-.5-1.5.2-1.6 2-3.5 3.6-5.9 4.6-1.1.4-2.2.7-3.4.4-.8-.2-1.3 0-1.7.8-.6 1-1.4 1.8-2.1 2.7-.3.3-.5.5-.9.5l-.5-.2c.2.2.4.3.2.6-1.2.8-2.6 1.1-4 1.3-.5.1-1 0-1.4.3-.3 0-.4.3-.4.6s.4.1.6.2c1.3.1 2.5.6 3.4 1.8 1.5 1.8 2.2 4 2.3 6.3 0 3-.8 5.7-1.5 8.4-.2.6-.5 1.2-1 1.9.9-.6 1.5-1.3 2-1.9.6-.6.9-.5 1.2.3v.4c.2 3.1.5 6.2-.4 9.3-.2.9-.7 1.6-1 2.5 0 .4-.4.7-.8 1-1.3.8-2.6 1.6-4.2 2-.4 0-.7.2-1.1.3l.6-.1c.3 0 .5 0 .6.2l-.1.3zM118.5 17.8a23.7 23.7 0 0 1 19-17.4c.2 0 .6 0 .8-.4h5.7c.1.4.4.3.7.3a23 23 0 0 1 19 17.3l.2.4c.7 1.3.6 2.8.8 4.2a23.8 23.8 0 0 1-12.6 22l-3 1.3a23.4 23.4 0 0 1-27.6-9.4 30.4 30.4 0 0 1-2-3.9c-1-2.3-1.6-4.7-1.7-7.3-.2-1.4 0-2.7 0-4.1.2-1 0-2.1.7-3z" fill="#424783"/><path d="M140.2 0c-.4.3-.7.3-1.1 0h1.1z" fill="#686C9C"/><path d="M143.2 0c-.4.3-.8.3-1.1 0h1z" fill="#6B6F9E"/><path d="m121.5 36 2.3 2.9c4 4.3 8.8 6.8 14.6 7.5 3.7.5 7.2 0 10.7-1.1a42.9 42.9 0 0 0 13-8.2c.8-.9 1.7-1.4 2.8-1.3 1.5 0 3-.2 4.6-.4 1-.1 2.1.2 3.2.1l10.8.3c3.2.1 6.4 0 9.5.2 1.4 0 2.8 0 4.1.2 1.8 0 3.6 1.7 4.2 3.4a67.1 67.1 0 0 1 .2-6.8h.2v14.8c0 .7 0 1.3-.2 2 .4 1 .3 2 .3 3v6.2c0 1 0 2 .3 3-.7.5-.8 1.2-.8 2-.4 11.7-.2 23.3-.2 35 0 .4 0 .9-.2 1.3s-.5.4-.9.6l-9 2c-.3.1-.6.2-1 0-.6-1-1.6-1.3-2.8-1.3H169.1c-1.2.2-1.7.7-1.8 2 0 .8.1 1.7-.2 2.6-.4.6-.8.7-1.5.6-1.6-.3-3.1 0-4.6.2-2.5.2-2.6.2-2.6-2.3v-1.6c0-.3 0-.6-.4-.8h-16.3c-.5 0-1 0-1.5-.2-.8-.3-.2-.6.1-.7 1-.4 2-1 2.9-1.5 1.7-.7 3.2-1.8 4.4-3.1l.5-1c.3-.4-.2-1 .3-1.5H164c1.7 0 1.7 0 1.7-1.7V77c0-1.5 0-1.5-1.5-1.5h-20.8c-1.4 0-1.5 0-1.5 1.5v12.8a1 1 0 0 1-.2.3c-.4.2-.8.2-1-.2l-.1-1.5V76.8c0-1.2 0-1.3-1.3-1.3H116c-1.3 0-1.5 0-1.4 1.4.3 4.4.2 8.9.2 13.3V93.1c0 .8.4 1 1 1h8.2l1.4.1c.3.1.4.3.3.6-.2.2-.4.4-.6.4l-.8-.2c-.9-.2-1.6.3-2.3.6-.4.4-1 .4-1.2 1a1 1 0 0 1-.9.5c-.6-.5-1.1-.5-1.8-.2-2.2 1-4.4 2-6.8 2.8a218.5 218.5 0 0 0-4 1.4c-.3 0-.6 0-1 .2-.6 0-1.3.2-2-.2-1-.7-1.5-1.8-2.2-2.7l-2-3c-.3-.4-.8-.9 0-1.2.5-.1 1.1 0 1.6 0H112c1.3 0 1.3-.1 1.3-1.4v-5c0-3.7.3-7.3.3-11 0-.3 0-.8-.3-1-.4-.3-.8-.2-1.2-.2H92.7c-1.2 0-1.7.6-1.8 1.8V80c-.4.6-.7.2-.8-.1-.9-1-1.6-2.2-2.5-3.3L86 74.8c-.5-.4-1-.7-.9-1.4.2-8 .2-16.1.2-24.2 0-1.8.1-3.6-.2-5.4 0-.4 0-.9.2-1.2.4-.2.3 0 .4.3a6 6 0 0 1-.2-2.4l.2-3.5c0-1.1.4-1.6 1.5-2l2.3-.2c4.5-.1 8.8.3 13.2.5 4.6.2 9.2.4 13.7.3l4.3.2a1 1 0 0 1 .8.2z" fill="#848EBF"/><path d="m190.1 102.6 10.6-2.4c.4.5.3 1 .3 1.5v20c0 1.1 0 1.2 1.2 1.3l.8.1c.1 0 .2.2.1.3-.7.2-1.7-.3-2 .3-.4.5-.2 1.4-.2 2v1.2c.4 2.2-1.2 3.3-3.3 3.4h-39.1c-.2-.2-.2-.6-.3-1-.2-.7-.8-1-1.5-1H155c-.4 0-.8 0-1-.3l-.5-4.4V117c0-.4 0-.8.2-1.2.4-.1.4.2.4.4v8l-.1.2c.2-.3 0-.6 0-.9.2-4.7 0-9.4 0-14.2a2.7 2.7 0 0 0-.3-1.2c-.1-.4.2-.6.5-.8.6-.3 1.3-.2 2-.2 2 0 1.9.2 1.9-2v-2.2c0-.4 0-.8.2-1 .4.5.2 1 .2 1.5.1.6 0 1 0 1.6 0 1.8.3 1.9 2 1.7a41.3 41.3 0 0 1 5-.3c.5 0 1 .2 1.3-.3.4.3.3.8.3 1.2v9c.3 1.2.8 1.6 2 1.6h18.7c1.4 0 2-.6 2-2V104c0-.5 0-1 .3-1.4z" fill="#7B83AF"/><path d="M203.2 123.4v-.1c-.2-.4-.2-.7-.2-1v-21.5c0-.5 0-.9.2-1.3 0-.3.4-.4.6-.5l6.4-1.8H235c1.2-.2 1.8-.7 1.8-2v-7.6c.2-.4.5-.6.9-.8 2.4-1 4.6-2.3 7-3.5.3 0 .6-.3 1-.2V118l-.2 3c-.2 1.4-1.2 2.3-2.5 2.4-13.3.3-26.6.1-39.8.1z" fill="#7B83AF"/><path d="M210 97.5c-2.2.7-4.3 1.4-6.6 1.8-.5-.5-.3-1-.3-1.6v-27c0-1.3-.4-2.6 0-3.9l.6-1.7c.9-1.5 2-2.3 3.8-2.3h9.2l13.6.4 8.4.2c2.2 0 4.3.6 6.1 1.8l.7.5c.2.5 0 1 .1 1.5v16l-7.9 3.8-.6.4a.6.6 0 0 1-.5-.2c-.5-.7-1.3-.8-2-.8h-24c-1.4 0-2 .6-2 1.9V95c0 .8.3 1.5 1 2 .2 0 .3.2.4.4z" fill="#848EBF"/><path d="M118.5 130.7c-.3-.3-.6-.2-.9-.2H95.4c-2 0-4 .1-6-.4a9.8 9.8 0 0 1-3.3-1.6c-1.4-1-2-2.4-2-4a122.9 122.9 0 0 1 .3-8.8c0-3.3.3-6.6.2-10v-.9c.1-.3.3-.4.6-.2a.9.9 0 0 1 .4.3c1.1 2 2.8 3.4 4.2 5 .3.5.6.9.6 1.4v4.5c.1 1.4.7 2 2 2h4.5c2.8 1.3 5.6 1.1 8.4.2.3-.2.7-.3 1-.3 1.8.2 3.6.1 5.3 0 1 0 1.4-.6 1.6-1.5l.1-1c.8-.9 1.9-1 2.9-1.4 2.2-.8 4.4-1.5 6.5-2.6.7-.4 1.4-1 2.3-.5.3.4.3.9.3 1.3v12c0 1.2-.2 2.3.1 3.4v.7c-.7.5-1.5.2-2.2.3-1 0-1.3.3-1.5 1.3 0 .3 0 .6-.3.9-1 .3-1.9.3-3 0z" fill="#7B83AF"/><path d="M245.6 67.2c-.3-.4 0-.9-.1-1.3-.4-.6-.3-1.3-.3-2 0-1.6 0-1.6-1.6-1.6h-40.4c-.4 0-.9-.1-1.1-.5-.4-.3-.6-.6-.6-1V49.4c.1.6.7.6 1.2.6l10.5.2c4.5 2.5 9.4 3.3 14.4 3.7 4.1.3 8.2.3 12.3-.5 2.3-.5 4.4-1.3 6.3-2.7l.8-.5h2.2c1.1 0 1.7.6 1.7 1.7v8.6c0 .8-.4 1.2-1.2 1.2h-3c-.8 0-1 .3-1 1v4.4zm-83.1-34.5c.8-2.3 1.6-4.5 1.7-6.9l.1-3.5c.5-.4 1-.3 1.6-.2l2.7.1H196l5.1-.2c1 0 1.6-.4 2.3-1l1-1c.2-.3.5-.5.8-.1.2.5.2 1 .2 1.5V31c0 1-.4 1.4-1.5 1.5h-1.4c-.4 0-.6 0-.8.4H164c-.6 0-1.1.2-1.6-.2z" fill="#949ECF"/><path d="M82.3 139.4c.5 1.4.4 2.9.3 4.4 0 .8-1 1.1-1.7 1.3-.7.3-1.2.6-1.2 1.4l-.4-.5-8 .6a34.5 34.5 0 0 1-6.3 0h-5c-1.3-.1-2.7-.2-4-.5a3 3 0 0 0-.6-.1c-1.4-.2-1.6-.4-1.4-1.7.4-1.5 0-3 .2-4.4v-1.7l-.2-4.1c-.2-3.7.1-7.3.2-11l.4-9.5c.1-2 0-4 .2-5.9l.1-1.2c.1-2.6-.1-5.3.2-8v-.4c-.2-.3-.2-.6-.2-1 .1-.6 0-1.2-.2-1.8a3 3 0 0 1-.2-.9c-.1-2.8-1.1-5.5-1.5-8.2 0-.4-.2-.6-.4-.9-.7-1-.7-1 0-2 .8.2 1.1 1 1.4 1.5.9 1.9 2 3.6 3 5.5l.2.6 3 5.3.3.6v.5l-.1.8c-.2.7-.3 1.5 0 2.2a.5.5 0 0 1 .1.3v.4c-.3 2.2-.4 4.3-.5 6.5l-.5 8.6c-.2 2.5-.4 5-.3 7.6l.1 1.2.3 10.2c.1 3.2 0 6.3-.1 9.3.2-1.1-.1-2.5.4-3.8l.2-.1h1.3c1.6.2 3.3.3 4.9.3 3.2 0 6.4.2 9.6-.4l6.2-1h.2z" fill="#424783"/><path d="M90.3 111c-.2-.6-.8-1-1.2-1.5a60.5 60.5 0 0 1-4.2-5c-.6-.3-.6-.8-.8-1.3-.4-.4-.2-1-1-1.3V100c0-1.9-.3-3.8 0-5.7v-.5c0-.3-.3 0-.1-.1.2.8 0 1.5-.1 2.3 0 .1-.2.3-.4.1-.3-.4-.3-1-.4-1.5l.1-6.6c.2-.3.4-.7.8-.7.4.7 0 1.4.3 2.3V89c.2-.1.3 0 .4.2l.3 1a33 33 0 0 0 3.3 10.3c1.2 2.1 2.3 4.4 3.8 6.3 1.8 2.4 4.3 3.8 7 5 .8.3 1.8.2 2.7.3h1.5c.4 0 1-.2 1.1.3.2.5-.4.7-.7 1-.3.1-.7.2-.6.7.2.4.6.4 1 .3a72.6 72.6 0 0 0 3.5-.5c3.3-.7 6.6-1.4 9.6-3.3.7-.5 1.6-.8 2.4-1.2 1-.4 1.6-1.2 2-2.2a9.6 9.6 0 0 0 .2-8.3c-.4-.7-.3-.8.5-.8.7.5 1 1.2 1.4 2 1 2.4 2.1 4.9 2.6 7.6 0 .3 0 .7.2 1v1.2c-.2.4-.4.6-.8.7-2.4.8-4.7 2.1-7.2 3-1.4.4-2.8.8-4.1 1.5-.2.3-.5.4-.8.5l-4.9 2c-.4.2-.8.3-1.3.3-1.6.4-3.2 1-4.9 1-1.8.1-3.5-.2-5.2-1-1-.3-1.5-1-2.2-1.7l-.7-.8c-.7-1.2-1.6-2.3-2.5-3.3-.3-.3-.4-.7-.6-1.1z" fill="#363A6F"/><path d="M205.2 19.9c-.3-.2-.4 0-.6.2-1.1 1.6-2.6 2.2-4.6 2.2-10.6.3-21.1 0-31.7.2-1.3 0-2.6-.3-4-.2 0-1.5-.2-2.9-.5-4.3H203c1.3 0 2 .7 2.3 1.9z" fill="#B1B7D6"/><path d="M118.5 130.7c1-.3 2-.1 3-.2.4-.4 1-.3 1.6-.3h33.4c.6 0 1.3.2 1.6-.6l.3-.3c.3.3.1.7.2 1 .3.3.8.1 1.2.1 1.4.1 2.2 1.1 2 2.5-.1.3-.2.3-.5.3h-42.2c-1.4 0-1.6-.1-1.2-1.5.1-.4.2-.8.6-1z" fill="#6E7596"/><path d="M247 50.3a9 9 0 0 1-4 2.5 26 26 0 0 1-6.5 1.4c-2.5.3-5 .3-7.4.2-4.8-.3-9.4-.9-13.9-2.8-.7-.3-1.5-.6-2-1.3H247z" fill="#B1B7D6"/><path d="M82.8 136.4c.4.8 0 1.5-.3 2.2l-.2.8h-.1c-1.5.4-3 .4-4.6.7-1 .2-2 .6-3.1.4-.6-.4-.2-.7 0-1 .3-.6.8-1 1.2-1.6.2-.4.4-.7.4-1.1 0-.7-.3-1.1-1-1.2-.4 0-.8.1-1-.3 0-.3.2-.6.4-.9l.6-.8c.5-.8 1.2-1.4 1.8-2 2-2.3 2.8-5.1 3.7-7.9.6-1.8.9-3.6.8-5.5 0-.4-.1-1.2.4-1.2.6 0 .6.7.6 1.2 0 1.3.2 2.6 0 4 .1.9 0 1.8-.1 2.7-.3 2.5-.4 5 .2 7.4v2.3c0 .3 0 .4-.2.5-1 .1-1.8.7-2.6 1.2.3.3.7.4 1.2.1.4-.2.7-.6 1.1 0l.1-.1c.3-.2.5-.2.7.1zm.4-33.8c0 2.3.1 4.5-.2 6.7-.2.4-.4.8-.8.4-.8-1-2-1-3-1.5a3 3 0 0 1-2-2.1c-.4-1.1-.9-2-1.7-2.9a4.6 4.6 0 0 1-.5-.6c-.4-.6-.3-1 .6-1l1.8-.1c.4 0 .8 0 1.2-.2 1.1-.4 2.3 0 3.5-.3l.3.1c.4.3.3.7.3 1 0 .5.2.5.5.5z" fill="#363A6F"/><path d="M79.3 108c1 .5 2.3.4 3 1.5.3.4.5 0 .7-.2-.2 2.6-.1 5.2-.1 7.7 0 1.7-.3 3.5-.4 5.2L82 117h-.3a22.6 22.6 0 0 1-6.6 16.7c-.6-.6-.2-1.1.2-1.6.6-.8 1.1-1.7 1.8-2.5 1.2-1.3 1.7-2.9 2-4.6.3-2.1.9-4.3 1-6.4a50 50 0 0 0 .1-8c0-.6-.4-1-.6-1.6-.2-.3-.5-.6-.4-1z" fill="#404480"/><path d="m84.1 103.2.8 1.3v4c0 3.7-.2 7.3-.6 11l-.2.4v-16.7z" fill="#B4B9D7"/><path d="M83.2 102.6c-.2.1-.1.6-.5.5-.2 0-.2-.4-.3-.6v-1.3c-.3-.3-.2-.8-.2-1.2 0-.6 0-1.2-.2-1.8-.4-.9-.3-1.6.6-2l.5-2.8c.3.7.3 1.4.1 2.2-.2.8.2 1.7.2 2.6 0 1-.2 2.1 0 3.1.1.4-.2.4-.2.7v.6z" fill="#2C2E5B"/><path d="M82.8 136.4c-.6.2-1.3-.3-1.9.4-.4.5-1.3 0-2-1.2.7.7 1.1.5 1.5 0 .4-.5 1-.6 1.4-.6.6 0 .7-.3.7-.8 0-1.4-.3-2.8-.5-4.1-.2-1.7 0-3.4.3-5.2-.2 3.9.4 7.7.5 11.5z" fill="#424783"/><path d="M30 90.8c.4-.3.3-.7.3-1 0-2.7.4-5.2.7-7.8.2-2.2.3-4.4-.3-6.6-.2-.7-.7-1.2-1.1-1.8-.4-.5-.9-1-.6-1.8.3-.3.6-.5 1-.6.2 0 .3 0 .3.3-.4.5-.2 1 .3 1.5 1 1.2 2 1.5 3.4 1 2.4-1.1 5-1.8 7.3-3a1 1 0 0 1 .2-.2l.5-.1c-.1 0-.3 0-.4-.2 0-.2.1-.3.3-.4.9-.4 1.7-1 2.4-1.7.1-.1.2-.2.4-.1.6.6.8 1.4 1 2.2 1 2.6 1.8 5.2 3.2 7.5 1 1.8 1.3 3.6 1.2 5.6 0 .4-.1.8.1 1.2.6 1 1.2 2 1.7 3.2l1.9 4.4c.1.5.4 1 .2 1.5a3 3 0 0 0-.6 2l-.3 4.6c-.5.3-1.2 0-1.8.2a177.7 177.7 0 0 1-12.2-1c-.6-.3-1.4 0-2-.4.3-.9-.4-1.5-.7-2.2l.1-.5A3 3 0 0 0 37 94a1 1 0 0 0-.7-.8c-.3 0-.3.2-.5.4l-.2.2c-.9.6-.5-.4-.8-.7 0-.3-.5-.5-.5-.9 0-1.1-.7-2-1.1-3.1 0 1.6-1.2 2.9-1.3 4.5 0 .4-.2.7-.5 1-.4.7-.7.7-1.3.1a6.4 6.4 0 0 1 0-4z" fill="#4F6BBA"/><path d="M40.7 28.6c0-.3.1-.4.3-.6 2-1.5 3.8-3 6.2-4 3.6-1.4 7.5-2 11.3-2.6 5.2-.9 10.3-.6 15.5-.2 1 0 2.1.4 3.2.6 1.2 0 2 .6 2.8 1.4.7.8 1.4 1.7 1 2.9-.4 1.3-1.3 2.1-2.4 2.9l-.3-.1c0-.6.5-.9.8-1.2a54.5 54.5 0 0 1-14.3 4c-2.1.4-4.3.4-6.5.5-2.2.1-4.4 0-6.6.3-1.9.3-3.7 0-5.5-.3a8 8 0 0 1-4.1-1.8c-.6-.6-1.1-1-1.4-1.8z" fill="#424783"/><path d="m40.7 28.6.4.1c1.2 2.3 3.4 3 5.7 3.4.8.2 1.7.3 2.6.3.5.1 1.2.2 1.8-.2h.5l6.3-.3c5.4-.2 10.8-.8 16-2.7 1.6-.5 3.2-.8 4.6-1.7l.4-.1c.2-.2.4-.7.7-.4.3.3-.3.5-.4.8-.3.4-.9.6-1 1.1 0 .6-.7.7-1 1-.7.4-1 1-.8 1.8v1.5c-.4 2-2.2 3.9-4.2 4.1-.6-.4-.6-.6 0-.9.9-.4 1.6-1 2-2 .4-.5.2-.8-.3-.7-1.4.2-2.1-.7-3-1.5-1.6-.2-3 .5-4.5.8-.6 0-.9.6-.8 1.2 0 1.2.3 2.3 1.5 3 .4.4.9.5 1.4.6.6.1.6.4.1.7a2 2 0 0 1-.4.1c-2.5 0-3.5-.8-4-3.2-.2-.6-.6-.9-1-.5-1.3 1.2-2.9.9-4.3 1.1-2.2.4-4.5.1-6.7.4-.9.1-1.8-.1-2.7-.2a7.8 7.8 0 0 0-2.2 0c-1.5.2-1.7.5-1 2 .1.2.2.5.5.6l.8.3 1 .2c2.4.7 4.9.9 7.4 1l2 .1c1.2.3 2.4 0 3.7.1a27.9 27.9 0 0 0 3-.1l1.4-.3a.8.8 0 0 1 .3 0c3.3-.3 6.3-1.3 9-3.2.3-.2.6-.5 1-.5.3.1.6.3.7.7.2.8-.3 1.1-.9 1.4-2.5 1.3-4.9 2.7-7.6 3.4-.3 0-.6 0-.9.4 1 .4 2 .6 3 .8.5 0 1 .2 1.6.4.8.2.6.5.1.8-1.5.5-3 .2-4.6 0-1.5-.4-2.9-.9-4.3-1.1-1.8-.4-3.6-.9-5.5-.4-2.5-.4-5-.1-7.4-.6a31 31 0 0 1-6.2-1.6c0-2-.2-4-.6-5.9 0-.3-.3-.5-.5-.7-1.4-1-2.3-2.6-3.2-4-.3-.5 0-1 .5-1.4z" fill="#363A6F"/><path d="M79.8 23.2a8.4 8.4 0 0 0-2.6-1.4c.5-.5.1-1 .3-1.5.6-1.5 1.8-2 3.2-2.3 1.3-.3 2.7-.2 4.1-.2H118.5l-.6 3c-.2 1.4-.2 1.4-1.8 1.4-7.2-.3-14.4-.5-21.6-.4-3.1.1-6.2.2-9.3.6-1.4.2-2.7.5-4 1-.5.1-1 .3-1.4-.2z" fill="#B1B7D6"/><path d="M50 85c-.3-.3-.3-.7-.3-1v-.8c.2-1.8-.1-3.4-1-5-1.4-2.2-2.2-4.7-3-7.1l-1.2-2.8c-.2-.9-.7-1.7-.9-2.6.7 0 1.2-.3 1.3-1 0-.8.6-1 1.3-.8.2.1.4-.4.6-.2.4 1 1 2 1.7 3 1 1.5 2.1 3.2 3.4 4.6.4.5 1.1 1 .6 2-.2 0-.4.1-.5.3-.5 1.8-1.5 3.4-1.7 5.2-.1 1 0 1 .9.9.4 0 .5 0 .6.5V84c0 .4-.2.6-.6.5-.6-.2-.9.1-1.3.5z" fill="#424784"/><path d="M44.6 40.6c.2-.1.5-.1.8 0 3 1.2 6 1.6 9.1 1.7 1.2 0 2.5 0 3.6.4 0 .3-.1.4-.3.5-1 .2-1.5 1-1.6 2l-.1.6a27.4 27.4 0 0 0-.3 1.6 2.2 2.2 0 0 1-.6 1.2c-.5.6-1 .5-1.5-.3v-1c.2-1 0-2-.6-2.9l-.4-.6c-.9-1-2.2-.9-3 .2a5.2 5.2 0 0 0-.6 4.5c.4 1 .2 1.8.2 2.7l.1 2.7c.1.5 0 1-.3 1.3-.2.2-.4.6-.8.1-.3-.6-.3-1.4-.6-2.1-1-2.6-1.8-5.2-3-7.8l-.2-.3c0-1.5-.3-3 0-4.5z" fill="#2B2B56"/><path d="M43.7 65.7c.4.8 1 1.6.9 2.6-.7 1.1-2 1.6-3 2.2-.6.7-1.4.7-2.2 1l-4.6 1.6c-2.7.8-2 1-4.2-1-.2-.2-.4-.4-.4-.6l-.3-.3c-.5-1.4-.5-1.4.8-2 2.4-1.2 5-1.8 7.5-2.8 1.3-.5 2.8-.7 4-1.6.3-.3.5-.2.7 0l.8 1z" fill="#F1D462"/><path d="M48.3 55.3c1 .1.9-.7.9-1.3a58.6 58.6 0 0 1-.2-2.2c0-.6 0-1 .2-1.7.2-.5-.4-1-.4-1.7.5-.2.7.1.9.5.2.8.8 1.5 1.5 2 .4.3.5.7.3 1.2-1 4-.9 8.2-.3 12.4v.9c-.3.3-.6.1-.8 0-.8-1-1.8-2-2.5-3-.1-.3-.2-.5-.1-.8.6-.2.4-.8.4-1.3.3-1.6.5-3.3 0-5z" fill="#EAB8BC"/><path d="M47.7 61.6c.9 1.5 2 2.7 3.2 3.9.2 0 .3.2.3.4s-.2.3-.3.4a.4.4 0 0 1-.4-.2c-.2-.3-.4-.6-.8-.6-.8-.6-1.2-1.4-1.8-2-.2-.3-.3-.7-.6-.7-.3.3-.2.7-.5.8-.3.2 0 .7-.4.7-.2 0-.1-.4-.2-.5l.4-1.5c.2-.5.5-.8 1.1-.7z" fill="#33355F"/><path d="M37 148c-.8.6-2 .5-2.9-.3l-1.8-1.6c-1-.5-1.7-1.4-2.8-1.5.6.5 1.5.9 2 1.7 1 1 1.8 2.1 2.7 3.2.2.2.4.5.3.8-.2.3-.5.3-.8.3-.7 0-1.4-.1-2-.7l-1.9-1.8-1.6-1c.7.4 1.1 1 1.6 1.7l1.1 1c.4.4.6.7.4 1.2-.5.4-1 .3-1.3 0a3.5 3.5 0 0 1-1-.7 9.7 9.7 0 0 0-5.7-3.1c-3-.5-5.3-1.8-7.1-4-.5-1-.7-2-1.3-2.8-.3-.4-.5-.7-1-.6 0-.5.5-.4.7-.5 1.7-.6 3.3-1.4 5-2.2a5.8 5.8 0 0 0 1.5-1.2c.3-.3.5-.6 1-.7 1.6 1.5 1.3 1.6 3.3 0l.4-.4c.9-.6 1.3-1.6 1.9-2.4.7-1.1 1.6-1.1 2.4 0 .2 1.4-.3 2.5-1.2 3.5l-1.4 1.8c-.3.5-.3.8.4 1l.7.2 4.1.4a4.4 4.4 0 0 1 1.8.6c1.5 1.4 2.8 3 3.9 4.8.2.5.4 1 .1 1.4-1 .5-2 .3-2.7-.5l-.7-.9c-.7-.7-1.3-1.5-2.2-2l-.7-.4.5.3c.9.5 1.6 1.3 2.3 2l1.4 1.7c.2.6 1 .9.5 1.6z" fill="#FED3C8"/><path d="M12 140.1c-.4 0-.8.2-1-.2.2-.4 0-.8-.3-1.1-.5-1-.9-2-1.2-3.1 0-.6.6-.5.9-.7h.3c.3 0 .7 0 1-.2 3.3-.7 6.5-1.6 9.1-3.8.5-.4.8-.2 1 .3v.2l.1.3c.3.7.5 1.4.3 2.2-.6 1.5-1.8 2.3-3 3-1.9 1-3.8 2-5.9 2.4-.5.1-1 .3-1.4.7z" fill="#FEFEFE"/><path d="M16.2 143.1h.3c1.9 2.4 4.5 3.5 7.4 4a9 9 0 0 1 5.2 3c.5.7 1.2 1 2.1 1 .1.1.2.2 0 .3-1 .2-1.5-.2-2.1-.8l-2-1.6c-.3-.1-.5-.4-.8-.2-.6-1-1.8-1-2.7-1.3l-3-.4c-2.5-.2-3.6-2-4.4-4z" fill="#E9B8BC"/><path d="M12 140.1c-.2-.7.4-.7.8-.8a24 24 0 0 0 6-2.4 7.2 7.2 0 0 0 3.3-2.9c.2-.2 0-.8.6-.7.3.4.1.8 0 1.2a5.2 5.2 0 0 1-.4.6.6.6 0 0 1-.2.2c-2 2.3-5 3.3-7.7 4.3l-.5.1-2 .4z" fill="#2F325C"/><path d="M9.6 135.7c.7 1.2 1 2.6 1.8 3.8.2.4-.2.4-.4.4-.8-1.4-1.5-2.8-2-4.4l.1-.2c.1-.1.2-.1.4 0l.1.4z" fill="#3C3F66"/><path d="M9.5 135.3H9c-.1-.2-.3-.2-.6-.2-.2 0-.2 0-.1-.2l.5-.3 3.2-1.4c1.7-.7 2.2-2.3 2.7-3.7 1-3.2.7-6.5.4-9.8 0-.3 0-.5-.3-.6-1 1-1.7 2-3.3 2.8a24.3 24.3 0 0 0 2.9-11.5 9.2 9.2 0 0 0-2.8-6.2c-.9-1-2.1-1.5-3.5-1 .2-1.6.3-1.6 2-1.7 1.4 0 2.8-.6 4.1-1.2.6-.1.9.4 1.3.7.6.3 1 .7 1.7.4.3-.1.5 0 .8.1.8.2 1.6.2 2.5 0 .3 0 .6-.2.8.2 0 .4-.4.7-.7.9-.8.5-1 1.2-1 2 .1 2.8.5 5.6.9 8.3.7 5.2 1.1 10.4 2.2 15.5 0 .5 0 1-.3 1.3-.2.3-.3.7-.3 1-.1.4 0 .7-.5.8-.2-.3 0-1.2-.8-.5a9.9 9.9 0 0 1-4.2 2.6c-1.6.7-3.2 1.2-5 1.4-.3.2-.8 0-1.1.2-.4.1-.8-.1-1.1.1z" fill="#363A6F"/><path d="M30 90.8c.2 1.4-.1 2.8.3 4.2.2.4 0 .8-.2 1.2 0 .2-.1.6-.5.7-.3 0-.3-.5-.4-.7-.2-.5-.4-.4-.8 0-1.8 1.3-3.5 2.8-5.3 4.3-.4.4-.7.8-1.3.8l-1.2.2c-2 .2-3.8 0-5.5-.9-.3-.1-.7-.3-.7-.7.6-.1 1-.6 1.2-1 .7-1 1.5-1.7 2-2.7.2-.5.8-.7 1.3-.5 2.6.7 4.5-.6 6.5-1.9a11.1 11.1 0 0 0 3.2-3.2c.1-.3.3-.6.7-.3.3.2.5-.2.7-.3v.8z" fill="#363A6F"/><path d="M14.5 99.9c2 1.6 4.2 1.7 6.6 1.2.3 0 .6-.2.8 0 0 .5-.2.6-.5.5-1.3.3-2.6 0-3.9 0-1.5.1-2.2-.7-3.2-1.4l-.7-.8c.5 0 .6.4.9.5z" fill="#2D3160"/><path d="M9 134.6c0 .3-.6.2-.4.6-.4.3-.8.1-1.3 0l1.6-.6z" fill="#41467A"/><path d="M161.7 23.4a20.6 20.6 0 0 1-41.3 0c0-11.4 9-21 21.3-20.7 10.9.2 20 9 20 20.7z" fill="#363A6E"/><path d="M79.8 23.2c.3.1.5.2.9 0 2.3-1 4.8-1.1 7.2-1.3 5.3-.5 10.6-.4 16-.4l9.5.2 2.7.2c1 0 1.7 0 1.8-1.1-.2 2.9 0 5.8.8 8.6.2 1 .6 2 1 2.9 0 .4-.3.5-.6.6h-39c-1.4-.3-2.3-1-2.6-2.3l-.3-1 1.1-.7c1.1-1 2.2-1.7 2.5-3.3.2-1-.6-1.6-1-2.4z" fill="#949ECF"/><path d="M162.5 32.7h38c.4 0 .8-.2 1.1.1-.3.6 0 1.2-.1 1.8v5.8a6 6 0 0 0-3.5-3.8l-.9-.2c-2.4 0-4.8-.3-7.3-.2-3.3.1-6.6-.1-10-.3-2.4 0-5 .2-7.4-.1-2.7-.4-5.3.4-8 .2-.7 0-1.3.3-1.8 1a20 20 0 0 1-5.5 4.4 41 41 0 0 1-7 3.6c-.3.1-.6.3-1 .2 1.5-.8 3.2-1.4 4.7-2.4 3.8-2.6 6.7-5.8 8.6-10l.1-.1zm-80.6.1c.4-.2.8-.1 1.1-.1h35.5c.4 0 .9.3 1-.4l2 3.7c-4.4-.2-8.6 0-13-.2-1.7 0-3.5 0-5.3-.2-3.3-.2-6.6-.6-9.9-.6-2 0-4.1-.2-6.1.3-.8.2-1.3.7-1.2 1.6.1 2.3-.4 4.5-.2 6.9-.3-.5 0-1-.4-1.3-.4-.5-.3-1-.3-1.6-.3-1.8-.6-3.6-1.1-5.4.1-1.5-1-2.1-2.1-2.7z" fill="#6F79A5"/><path d="M121.3 98.4c-.1 0-.3-.2-.5-.1v.3a9.7 9.7 0 0 1-.2 9.5 3 3 0 0 1-1.5 1.4c-1.4.6-2.8 1.2-4.1 2-2.3 1.4-4.8 1.8-7.3 2.4-1.4.4-2.8.4-4.1.7h-1c-.4 0-.7-.1-.8-.6-.1-.5.2-.7.6-.8.4-.2.8-.3 1-.8-.5-.2-1-.2-1.5-.1-4 .3-7.2-1.8-10-4.3-1.3-1.1-2-2.6-3-4-1.5-2.8-3.1-5.5-4-8.6L83.5 89c-.2.2 0 .5-.2.6-.4-.8-.3-1.6-.3-2.4-.4-.6-.2-1.2-.2-1.8l.8-5c.5-1.9.2-4 .3-6 0 .6.2 1.2-.2 1.7-.3-.7-.9-.6-1.4-.6-.7 0-1.4-.2-2-.5-2-1-4-1.5-6-2.2-.8-.2-1.5-.4-2-1.2 0-.4.3-.4.6-.4 2.5.8 5 1.4 7.5 2.4 1.5.8 2 .6 2.7-1.1.3-.2.5-.1.8 0 .5.2 1.2.4 1.3 1.1 2.2 1.8 3.8 4.2 5.4 6.5 1 1 1.7 2.2 2.6 3.2 1.5 1.8 2.5 3.9 3.7 5.9l1 1.8c.6 1.1 1.5 2 2 3.2a102.4 102.4 0 0 0 4.5 6.5c.2.6.5 1.2.5 1.9l-.2 1.4c.2-.3.2-.8.6-1 .5 0 .6.5 1 .7v-.7c.4-.8 1.2-1.1 1.9-1.6.6-.5 1.4-.8 2-1.2a21.6 21.6 0 0 1-1.8.7c-.3 0-.7.1-.9-.1l7-2.6c1.3-.5 2.5-1.2 4-1.7.7-.3 1.2-.2 1.7.4.8.2 1.1.7 1.1 1.5z" fill="#424783"/><path d="M114.6 91.3v-1.6c0-4.6 0-9-.2-13.6 0-.6 0-1 .9-1h24.6c.6 0 .9.1.9.8v14c-.4.5-.8.5-1.2.2-.7-1.1-.7-1.1-2-.6-.5.2-1 .2-1.6.1-2.5-.4-5-.8-7 1.4l-.7.4c-1.9.3-3.8.3-5.6.3h-6.8c-.5 0-1 0-1.3-.4zm27-1.4v-14c0-.6.1-.7.6-.7h23c.6 0 .6.3.6.9v15.6c-.2.5-.7.5-1.1.5l-8.2-.1c-2.8-.2-5.5 0-8.3 0l-1.6-.1a.7.7 0 0 1-.5-.4c0-.2-.1-.5-.3-.5-1.3-.1-2.2-1.7-3.7-1.1l-.6-.1zm25.2-4.9v-9c0-.6 0-.9.7-.9h20.6c.4 0 .8 0 1.2.4.3.2.4.6.4 1 0 3.5.3 7-.4 10.6a6.8 6.8 0 0 1-1.8 3.6c-1 1-2.2 1.7-3.7 1.6-5.2-.3-10.5-.2-15.8-.2-1 0-1.1 0-1.1-1.2l-.1-5.9zm23.3 17.6v10.5c-.5 2-1.6 2.8-3.6 3-.8.2-1.5.2-2.3.2h-12.3l-3.2.1c-.5.1-1.2.2-1.7-.2v-13c0-1.3.7-2 2-2h19.2c1 0 1.6.5 2 1.4zM97.8 91.2l-2.7-4.5c-1.3-2.4-3.2-4.2-4.5-6.5v-3c0-1.3.7-2 2-2h21a34 34 0 0 1 0 6.5v8.7c0 1.1-.1 1.2-1.2 1.2h-10l-3.3.1c-.5.1-1-.1-1.3-.5z" fill="#B7E0FD"/><path d="M202 61.8c.9.2 1.7.2 2.6.2h39.8c.9 0 1.2.2 1.1 1.1v2.8l-1.2-.7c-2-1.2-4-1.6-6.3-1.6h-5.6l-14-.4c-3.8-.2-7.6 0-11.3-.1-1.8 0-3 1.6-3.6 3.2-.3 1.2-.2 2.4-.2 3.6V122c0 .4.2.8-.1 1.1-2.5 0-2.5 0-2.5-2.4V72c0-3 .4-6.1.2-9.1 0-.8.5-1 1.1-1z" fill="#6F79A5"/><path d="M158.4 101.7v4.8c0 .6-.2.8-.8.8h-3.5c-.3.2-.7.3-1 .3h-23.8c-.6-.2-.5-.5-.2-.8.3-.3.7-.6.2-1l-.7-2.6c.2-1.1.6-1.6 1.6-1.7 1.2 0 2.3 0 3.4.4 1.7.9 3.3.3 5-.1.4-.1.8-.4 1.2 0h18.6z" fill="#424783"/><path d="M141.5 89.9c1.1-.5 2.1-.7 3 .4.1.3.3 0 .5.1.8.1 1.4.4 1.4 1.3 0 .1 0 .3-.2.4-2 1.3-4 2.2-6 3.5.3.1.6 0 .9-.3 1.4-1 3-1.5 4.5-2.6.3-.2.6-.1.9.2.2.4.6.8.2 1.2-.6.8-1.3 1.5-2.2 1.8-1 .2-1.5 1-2.3 1.5a10 10 0 0 0 3.4-2l1.3-.9c.4-.3.8-.3 1.2 0 .3.4.3.9 0 1.2-.6.7-1 1.4-1.7 2-.9.9-2 1.4-3 1.8-2 .7-3.9 1.5-6 1.7-1.9.2-3.5-.3-5-1.3a3.5 3.5 0 0 1-1.5-2.6c0-.2 0-.4-.2-.5-.3 0-.4.2-.6.3-.5.6-.8 1.2-.8 2 0 .5-.2.8-.8.9-.6 0-.6-.4-.7-.8-.2-1.1-.8-2.1-.9-3.3-.1-.9.1-1.5.7-2.1.4-.4.7-.1 1 .2.2.4.5.8 1 1 .3-.3 0-.5 0-.7-1-2 0-4.2 2.3-4.7 1.4-.3 2.8-.4 4.2 0a3 3 0 0 0 2-.6c.7-.5 1-.2 1.5 1-1.1 1.3-2.5 1.4-4 1.2-1-.1-1.4 0-2 .8 2.6-.7 5.4-.7 7.9-2V90z" fill="#FED3C8"/><path d="M119.6 66a7.3 7.3 0 0 1-1.6-12.8c2.7-1.8 6-1.6 8.7.4l.5.4c3.2 2.3 3.2 8.5-.7 11.2-2.2 1.5-4.4 2-7 .9zm55.5-8.4.2.3c.2.3.3.7.3 1 0 1.3-.3 1.7-1.6 1.7h-1.7c-.8 0-1 .3-1 1.2 0 .9.3 1.2 1.1 1.2h3.7l.8.1c.2.1.2.4.3.6.4.6.2 1.3.2 2-.1.4-.4.7-.9.7-2.9-.1-5.8.3-8.6-.3-.2-.3-.2-.6-.2-1V53.5c0-.9.2-1.2 1-1.2h7.3c.3 0 .7 0 1 .3l.2.6c.4 1.8 0 2.4-2 2.4h-2.8c-.6 0-1.1.1-1.1.9 0 .7.3 1 1.1 1 1 0 1.8-.2 2.7 0zM103 66V53c0-.5.1-.7.7-.7h4.2a6 6 0 0 1 4.3 1.5c1.9 1.4 1.6 5.6-.7 7.2-1.2.8-2.5 1-3.9 1-1 0-1 .1-1 1.1v2c-.1.8-.5 1.2-1.2 1.2-.8 0-1.6 0-2.4-.3z" fill="#2C2F5F"/><path d="M166.8 85c.2.3.1.6.1.9v4.8c0 .9.2 1.3 1.1 1.2h5.6c3.5-.1 6.9.2 10.3.2 1.5 0 2.5-.8 3.5-1.7 1.3-1.3 1.6-3 1.8-4.6.4-3.2.1-6.3.2-9.5l-.2-.8c.7.3.9 1 .9 1.6v15.2c0 1.3-.8 2-2 2h-20.7c-.6 0-.7-.2-.7-.7V85z" fill="#A3CBE7"/><path d="M152.5 66.1c-.3-.3-.2-.6-.2-1v-8.6c0-.8-.2-1.1-1-1-.9 0-1.7 0-2.5-.2-.3 0-.5 0-.6-.3v-2.5c.1-.3.4-.2.7-.2h10c.4 0 .7 0 .8.4l.3 1.2c0 1.3-.3 1.7-1.7 1.7-2.7 0-2.4-.2-2.4 2.4v6.7c0 1.5-.2 1.6-1.8 1.6l-1.6-.2zm-12.5-3h.1c.4.7.4 1.5.4 2.3 0 .6-.4 1-1 1-2.6-.1-5.2.2-7.8-.3-.4-.3-.4-.7-.4-1V53.2c0-.7.3-1.1 1-1 .8.1 1.6-.2 2.4.2l.3 1.7v7.3c0 1.3.2 1.5 1.6 1.5l3.4.1z" fill="#2C2F5F"/><path d="M128.9 103.2c.4.9.6 1.8.6 2.8l-.1.3c-1.1 1-2.3 2-3.9 2.3-.4 0-.1-.5-.3-.8-.6-2.6-1.5-5-2.6-7.4-.3-.7-.7-1.5-1.3-2-.2-.7-.6-1.1-1.2-1.6l.8-.5c.3-.5 1-.5 1.4-.9l2-.7c.4 0 .6.2 1 .4 1.3 1.5 2 3.4 2.7 5.2l.9 2.9z" fill="#FEFEFE"/><path d="m85.2 73.7-1.3-1-.1-1V37c0-.5-.1-1.1.3-1.5.8 2.2 1.2 4.6 1.3 7 .4 7.6.2 15 .1 22.6l-.1 8c0 .2 0 .5-.2.6z" fill="#B2B8D6"/><path d="m146.1 91.9.2-.2h3.5l14.8.1c.4 0 .8.1 1.2-.1 0 .8.4 1.8-.2 2.4-.5.5-1.5.1-2.4.1h-15c-.5.3-.8.1-.8-.2-.2-.8-.6-1.2-1.2-1.6-.2 0-.3-.3 0-.5zm-48.3-.7c.5.3 1 .4 1.5.2h13.2c.8 0 1-.3 1-1V85c0-3.3.3-6.6.1-9.9.2.1.2.2.2.4V82c-.2 2-.1 4.1-.1 6.2v5.2c0 .8-.3 1-1 1-4.3-.1-8.6 0-12.8 0-.9-1-1.5-2.1-2-3.2z" fill="#A3CBE7"/><path d="M162 66.1c-.3-.2-.2-.6-.2-.9v-12c0-.7.2-1 1-.9.7.1 1.5-.2 2.3.3.2.5.3 1 .3 1.7v10.2c0 1.8-.2 2-2 1.9L162 66zm-19.2 0c-.2-.2-.2-.6-.2-.9v-12c0-.7.3-1 1-.9.8.1 1.6-.2 2.3.3.3.5.4 1 .4 1.7v10.2c0 1.8-.2 2-2 1.9l-1.5-.3z" fill="#2C2F5F"/><path d="M128.9 103.2c-.7-1-.8-2-1.2-3-.7-1.8-1.6-3.4-2.5-5 .4-.2.7-.7 1-1 .4-.4.7-1 1.4-.8.1.1.2.2.1.4-1 1.4-.5 2.8 0 4.2l.4 1.3c0 .1-.2.6.4.4.3-.1.6-.1.5-.6-.1-1 .7-2.4 1.6-2.8.3-.1.5 0 .5.3 0 1.4.4 2.5 1.6 3.2 1.4.9 2.9 1.3 4.6 1.1 2.6-.2 4.9-1.4 7.3-2.2.7-.3 1.2-.8 1.7-1.3.5-.2.8-.7 1.2-1 .2-.3.3-.7.7-.7-.2 1.1-1 1.6-1.8 2.3-1.7 1.4-3.9 2.2-5.8 3.2l-.7.5-2.8.7a5 5 0 0 1-3.6-.3 6 6 0 0 0-3-.5c-1 .1-1.5.5-1.6 1.6z" fill="#EAB8BC"/><path d="M127.5 93.5c-.6 0-.8.6-1.2.8a.5.5 0 0 1-.6 0h-10.2c-.7 0-1-.2-1-1v-2c4.7 0 9.3.2 14-.1 0 .9-.2 1.7-1 2.3z" fill="#A3CBE7"/><path d="M152.5 66.1h2.2c.7 0 1-.1 1-.9l-.1-8.8c0-.8.3-1.2 1.1-1h2.2c.6 0 .8-.3.8-.8v-1.8c.8 0 1 .5 1 1.3-.1 2 0 1.8-2 1.8h-1.2c-.8 0-1 .3-1 1v8.8c0 .8-.1 1-1 1-1-.1-2.1.1-3-.6zm-49.4 0h2.5c.6 0 .8-.2.7-.7v-2.6c0-.8.2-1 1-1 .9.1 1.7 0 2.6-.2 3.4-1 4-4.6 2.8-7l-.4-.8c.5.2.8.6 1.1 1 1.7 2.6.7 6.8-3.1 7.4a12.7 12.7 0 0 1-2.3.1c-.5 0-.8.2-.7.7v2.7c0 .7-.3 1-1 1-1 0-2.2 0-3.2-.7zm16.5 0a7.3 7.3 0 0 0 8-11.6l-.4-.5c1.9 1 2.7 2.8 3 4.8.4 3.6-1.1 6.1-4.4 7.6-2.1 1-4.2.8-6.2-.3zm42.3 0h2.2c.8.1 1-.2 1-1V52.6c1 .3 1 1 1 2a749 749 0 0 0 0 11.1c0 .8-.2 1-1 1-1-.1-2.2.1-3.2-.6zm-19 0h2c.8.1 1-.2 1-1V52.4c1 .4 1 1.2 1 2v11.2c0 .8-.2 1-1 1-1-.1-2.1.1-3-.6z" fill="#6971A2"/><path d="M148.2 95.8c-.6.6-1 1.3-1.9 1.7a47.3 47.3 0 0 1 1.6-1.9c.2-.3.4-.6.1-1-.3-.2-.6-.3-1 0-1.5 1-2.8 2.2-4.4 3-.3 0-.6.4-.8 0-.2-.4.2-.6.4-.7.5-.3 1-.6 1.4-1.1.3-.3 1.1-.4 1.7-.6.6-.3.8-1 1.3-1.4.2-.3-.3-.7-.5-1-.3-.4-.5 0-.6.2-.9.8-2 1-3 1.7l-1.5 1c-.3.1-.6.3-.9.1-.2-.1-.6 0-.6-.3 0-.4.4-.3.6-.3.7-.2 1.3-.5 1.8-1 0-.2 0-.4.2-.4 1.6-.1 2.6-1.4 4-2 0 .3.2.5.5.6.6.2.9.7 1 1.3 0 .5.2.6.6.6.2.5.3 1 0 1.5z" fill="#EEBFC0"/><path d="M140 63.1h-4.4c-.8 0-1-.2-1-1v-9.6c1 .4 1 1.2 1 2.1v7.2c0 .9.1 1.2 1 1.2 1.2 0 2.3-.3 3.4.1z" fill="#6870A1"/><path d="M153.4 71c-.7 0-1-.4-1-1v-.6c.1-.6-.2-1.4.3-1.7.6-.4 1.5-.1 2.3-.1.3 0 .4.2.4.5.3.9 0 1.7-.3 2.5-.1.6-.8.7-1.7.3z" fill="#2D3060"/><path d="M175 57.6h-2.8c-.9 0-1.2-.3-1.2-1.2 0-1 .4-1.1 1.2-1h3.9c.6 0 1-.2.9-1v-1.8c.1.4.8.2.9.6v2.2c0 .5-.5.5-.8.5H174c-.7.1-2-.7-2 .8 0 1.4 1.3.4 1.9.7.4 0 .9-.2 1.2.2z" fill="#6971A1"/><path d="M177 63.1h-5c-.7 0-1-.1-1-.9 0-1.8 0-1.8 1.8-1.8 2.5 0 2.5 0 2.5-2.5.3.2.9.1.9.7 0 .7.1 1.4-.1 2-.1.3-.4.3-.7.3H173c-.9 0-1 .4-1 1.2-.1.9.3.9 1 .8h3c.4 0 .7 0 1 .2z" fill="#6970A1"/><path d="m167.9 66 8.4.1c.7 0 1-.2.9-.9v-1.5c.7-.1 1 .2 1 1-.1 2 0 2-2.1 2h-5.9c-.8 0-1.6-.2-2.3-.6z" fill="#6971A2"/><path d="M131.6 66.1h7.5c1 0 1.2-.2 1.1-1.1V63c1.2.6.9 1.8 1 2.8 0 .5-.2.8-.7.8H133c-.5 0-.9-.4-1.4-.6z" fill="#6971A1"/><path d="M141.5 90c-.3.7-1.1.6-1.7.9-1.5.6-3.1.6-4.7 1-.5 0-1 .2-1.4.4-.1 0-.3.2-.4 0-.2-.1 0-.3 0-.4.4-.7 1.1-1.1 1.9-1 .6 0 1.3 0 1.9.2.6.2 1.1-.4 1.6-.7.3-.1.5-.4 1-.4.3.2.7 0 1-.1.2.2.5.1.8.1z" fill="#F1C2C1"/><path d="M107.5 100.8c1.1 0 2.1-.6 3.2-.8-1.4 1.1-3 1.8-4.3 3-.7-.4-.7-.7-.1-1.8l.3-.2c.3-.3.6-.2.9-.2z" fill="#363A6F"/><path d="M153.4 71c1.7-.1 1.7-.1 1.8-1.9l.2-1c.8 0 1 .3.8 1l-.2 1.4c0 .4 0 1-.5 1-.7-.1-1.6.5-2.1-.6z" fill="#6A71A2"/><path d="m106.6 101-.2.2c-.8.2-1 1-1.7 1.4.1-.6-.6-1.1-.3-1.8.7.3 1.4.1 2.2.2z" fill="#373B70"/><path d="M124.2 94.9c-.5.4-1.2.4-1.8.7-.2.1-.4.1-.4-.2.7-.4 1.4-.8 2.3-.7v.2z" fill="#494C76"/><path d="M122 95.4c0 .2.2.2.4.2l-1.5.8c-.1-1 .8-.6 1-1z" fill="#5E638D"/><path d="m124.2 94.9.1-.2c.4-.3 1.2.8 1.4-.4h.6c-.3.4-.6.8-1.1 1-.3-.3-.6-.5-1-.4z" fill="#8B92BF"/><path d="M140 107.3h14.1c0 .3-.2.3-.4.5.3.4.3.8.3 1.2v5.7c0 .3 0 .7-.2 1 0 2.8-.2 5.6 0 8.4l.3 4c-.3.3-.7.3-1.2.3h-11.5c-.4 0-.8 0-1.1-.2-.2-.1-.3-.3-.3-.5v-10.6l-.1-1.4a3 3 0 0 1-.1-.7v-3c.2-1.4.2-2.7 0-4 0-.2 0-.5.2-.7z" fill="#9397AB"/><path d="M140.2 128H157c.9 0 1.4.4 1.4 1.4v.2c-.3.3-.8.3-1.2.3h-34.5c-.4 0-.9 0-1.2-.3 0-1 .5-1.5 1.5-1.5h2.4c.4-.4.9-.3 1.4-.3h10.7c1 0 1.7 0 2-1.2.5 0 .4.4.4.6 0 .3 0 .7.3.9z" fill="#6E7596"/><path d="M167 116.2c6.1-.3 12.2-.1 18.4-.2 2.2 0 3.8-1 4.7-3v3.1c0 1.2-.7 2-2 2H169c-1.2 0-1.8-.6-2-2z" fill="#A3CBE7"/><path d="M153.8 115.6v-7.8c.5.2.5.7.5 1.2v14.6c0 .4 0 .7-.4 1v-7.9c0-.3.2-.7-.1-1z" fill="#5C6183"/><path d="M208.4 91.1v-3c0-1.2.7-2 2-2H235c1 0 1.6.5 2 1.3v3.2c-.3.7-.2 1.6-.3 2.4-.3 2-.8 2.5-2.7 2.9l-3.8.4h-7l-5.6-.4h-2.5c-1.1.2-2.1 0-3.1-.2-2-.3-3-1.6-3.5-3.4 0-.4 0-.8-.2-1.2zm0 17.7V106c0-1.3.7-2 2-2H235c1.3 0 2 .7 2 2v2.2c-.3.8-.2 1.6-.3 2.4-.3 2-.8 2.5-2.7 2.9-1.3.3-2.6.4-3.9.4h-7l-5.5-.3c-.9-.1-1.7-.2-2.6 0-1 .1-2.1 0-3.2-.3-1.9-.3-3-1.6-3.4-3.4l-.1-1.1z" fill="#B7E0FD"/><path d="M208.4 108.8c.3.3.4.7.5 1.1.5 2.2 2 3.3 4.2 3.3 2.7.1 5.4 0 8.1.3 3 .2 6.1 0 9.2.1 1.5 0 3-.2 4.5-.5.9-.2 1.4-.7 1.5-1.6l.4-2.4c0-.3 0-.6.3-.8v5c0 1.3-.8 2-2 2h-24.7c-1.3 0-2-.7-2-2v-4.5zm0-17.7c.3.4.4.8.5 1.3.5 2 2 3 4.1 3.2h3c4.9.3 9.8.5 14.7.4 1.4 0 2.8-.2 4.2-.6.8-.2 1.3-.7 1.4-1.5l.4-2.4c0-.4.1-.6.4-.9v4.8c0 1.4-.7 2-2.2 2H210c-1.4-.4-1.7-.8-1.7-2.2v-4z" fill="#A3CBE7"/><path d="M208.4 73v-2.7c0-1.3.7-2 2-2H235c1.3 0 2 .7 2 2v2c-.3.8-.2 1.6-.3 2.4-.2 2-.7 2.6-2.7 3a20 20 0 0 1-3.4.3c-4 0-7.9.2-11.8-.2-1.9-.2-3.8 0-5.7-.1-2.9-.3-4-1.3-4.7-4.1l-.1-.7z" fill="#B7E0FD"/><path d="M208.4 73c.3.3.4.7.5 1.2.5 2 2 3 4.1 3.2h3c4.9.3 9.7.5 14.6.4a24 24 0 0 0 3.7-.4c1.7-.3 2-.9 2.3-2.7.1-.8 0-1.6.5-2.3v5.2c0 1.3-.7 2-2 2h-24.8c-1.2 0-2-.7-2-2V73z" fill="#A3CBE7"/><path d="M139.6 126.6c-.3.5.1 1-.3 1.3-.5.4-1.1.2-1.7.2h-12.2v-.6c-.3-1 0-2.1-.1-3.2v-14.2c.1-.4 0-.8.2-1.2.9-.5 1.8-.9 2.6-1.5.2-.1.5-.3.8-.1h10.7c.3.2.3.5.2.8-.2 1.2.1 2.5 0 3.8v3.6c.2 3.5 0 7 0 10.4 0 .3 0 .5-.2.7z" fill="#9397AB"/><path d="M121.4 129.6h37c.1.8-.3.9-1 .9h-36v-1z" fill="#646A8A"/><path d="M93.6 115.3a26.8 26.8 0 0 0 2.8 2.6c-1.6.3-3.3.3-4.9 0-1-.2-1.3-1-1.2-2.6.7-.5 1.5-.2 2.2-.1l1 .1z" fill="#A3CBE7"/><path d="m106.4 117.9 7-2.8c.1 1 .2 2-.7 2.6a2 2 0 0 1-1.2.4H107c-.2 0-.4 0-.6-.2z" fill="#A3CAE6"/><path d="M125.3 110c.3.4.3.8.3 1.1v15.2l-.3 1.2c-.3-.1-.3-.5-.3-.8v-15.4c0-.3 0-.5-.2-.7l.5-.5z" fill="#4B507C"/><path d="M93.6 115.3c-1.1.5-2.2-.2-3.3 0V111c1.1 1.4 2.4 2.7 3.3 4.3z" fill="#B7DFFC"/><path d="M72.4 71.7c1 .8 2.3 1 3.5 1.4a46 46 0 0 1 4.7 1.8c.9.4 1.9.7 2.8.1.3.4 0 .8.2 1 .4.5.3 1.1.2 1.7a147.6 147.6 0 0 0-1 7.8l-.1.6-.4 2.5c-.1 3.6-1.1 7-3.5 9.8-.8.9-1.8 1.1-2.8 1.7l1.6.1c.3 0 .7.1.2.6-1 .2-2 0-2.8 0h-5c-2.1 0-4.3 0-6.6-.2a8 8 0 0 0-1.8 0c-.4 0-.8.1-1.2-.1-.2-.2-.2-.5-.2-.7.2-.8.1-1.7.2-2.5v-.5c-.2-.8 0-1.5.3-2.1.7-1.2 1-2.5 1.5-3.7l.6-1.2c1.3-3 3-5.6 4-8.6l.3-1c1-.6 1.2-1.7 1.3-2.7l.8-6.3c0-.5.1-.9.3-1.3.1-.2.3-.2.5 0l2 1 .4.8z" fill="#4F6BBA"/><path d="M57 91c-.2-.2-.2-.4-.2-.6-.8-2-1.7-4.2-3-6 .1-.4.4-.6.4-1l.1-.3 1.7-4c.2-.6.2-1-.2-1.6-.7-.9-1-1.8-.9-3 .7-.2 1.4.2 2 0V74l.1-.2.2-.3c.2-.2.1-.6.1-.8v-2.2c0-.3 0-.7-.4-.8-.9-.2-1.8-.4-2.5-1a.6.6 0 0 1 0-.3l.3-.2c1 .3 2.2.3 3.2 1.1.3 1 0 2.1.2 3.2.3.9 1.2 1.3 2.2 1l1-.5c.8-.4 1.5-1 2.2-1.6.3-.2.6-.5 1-.3 0 .8-.4 1.3-.9 1.7-1 .1-1.6 1-2.4 1.3-.2.1-.2.4-.2.7v1.1c0 .6-.1 1.2-.4 1.6-.6.9-.4 1.6 0 2.5l1.4 2.4c.2.3.3.6.3 1l-3 5.8-.6 1.2c-.4 1.2-.6 1.3-1.7.6z" fill="#3A3564"/><path d="M55.9 146c-3.7-.2-7.3.7-11 .5h-2.7c-.3-.5-.7-.7-1.3-.7-1.2-.2-2-.9-2.1-1.8-.2-1.4.4-2.4 1.6-3l2-.4c-.1 0-.4 0-.4-.3s.3-.3.5-.4l.8-.1c2.9-.1 5.8 0 8.7 0 1.9 0 1.9 0 1.9 1.9v1.3l-.2 1.7c.3-1.8.2-3.5.2-5.3 0-.4-.2-1 .5-1.1 0 1.2-.2 2.4 0 3.6.1 1-.2 2-.2 2.9-.1.7.1 1 .9 1 .3-.1.6-.2.8.1z" fill="#424783"/><path d="M50 85c.1-1 .3-1 1.6-.7v-4.5c-1.5.4-1.5.4-1.5-1.2 0-.9.4-1.5.7-2.2l1-2.8c0-.6.3-.7.8-.5a.3.3 0 0 1 .2 0c.2.2.4.4.3.7-.2.3-.1.7-.5.9 0 0-.2-.2-.1 0 .4 1.2.2 2.6.2 3.9 0 .2.1.4.3.5.3 1.1.2 2.2 0 3.4 0 .3 0 .6-.3.9-.5.7-.6 1.3.2 2 .5.4.3 1.1.4 1.8.5 2.3 1.2 4.5 1.3 7v.3c-.4 0-.6-.4-.8-.7l-.3-1.3c-.5-1.6-1-3-2-4.4-.5-1-.8-2.2-1.6-3.1z" fill="#363A6F"/><path d="M54.4 138.3c-.3.3-.2.6-.2 1 0 1.7.1 3.6-.2 5.4 0 .3 0 .6-.4 1-.3-1 .2-1.8 0-2.6.3-1 .1-1.9.2-2.8v-.3c-1.2-.3-.3-.8-.2-1.1.2-.9.2-1.8.1-2.6-.2-2.9-.1-5.7-.1-8.6 0-4.7.3-9.5.5-14.2 0-3 .3-6.1.2-9.2 0-1 0-2.2.3-3.4a.5.5 0 0 1 .3-.2l.1.2v6.7l-.3 9.6a602.4 602.4 0 0 1-.3 10c-.1 2.3-.2 4.5-.1 6.8l.1 4.3z" fill="#292C59"/><path d="M63.5 72.8c.4-.6.9-1 1-1.7 0-1 .7-1.9 1-2.8l.5-.7c.2-.5.5-.9.8-1.2.2-.2.5-.4.8-.2.2.2.1.5 0 .7-1.2 2-2.2 4.1-3.3 6.1-.2.3-.2.6-.1.8.2 1.6 0 3.1.2 4.6.2 1.1-.1 2.2 0 3.3-.4 1-1 1.8-1.6 2.6a31.2 31.2 0 0 0-2 3c-.7 1.5-1.3 3-2.2 4.4-.2.4 0 .8.2 1.1l1.4 2.8c.2.3.3.5.2.8-.1.4-.2.2-.4 0L57 91l.2-.1c1 .8 1 0 1.4-.8l3.3-6.4.3-.3c.2-.5.5-.8.8-1.2.2-.4.4-.8.4-1.2 0-1.7.2-3.3-.1-5v-2.2c0-.4 0-.8.2-1z" fill="#2A2C59"/><path d="M60 96.3c.4.2.4 0 .2-.3l-1.8-3.3c-.3-.4-.3-.6 0-1l2.3-4.5c.5.2.6.6.5 1-.3 1.5 0 1.7 1.4 1.2.7-.3.4.1.4.5-.1.4-.3.8-.6 1-.7 1.2-1 2.5-1.5 3.8-.4.6-.3 1.4-.5 2-.3 0-.4-.1-.4-.4z" fill="#363A6F"/><path d="M59 125c-.2-2.1-.2-4.1 0-6.1.2-1.3.1-2.6.2-3.8l.4-8.2.4-5.6c0-.3 0-.5.4-.5a.6.6 0 0 1 .1 0c.4.6.3 1.2.3 1.7l-.3 6-.9 13.8c-.2.5 0 1.2-.1 1.7 0 .4 0 .8-.4 1z" fill="#282C58"/><path d="M60.4 100.5c3.2-.4 6.4 0 9.6.1 1.3.2 2.7 0 4 .1.3 0 .9-.2 1 .4 0 .5-.5.7-1 .7h-2.7c-3.3 0-6.5-.3-9.8-.6a2 2 0 0 1-1.1-.4v-.3z" fill="#FBFBFC"/><path d="M74.3 140.3c2 .2 3.9-.5 5.9-.8h2c0 .1.1.3-.2.3-3 .1-5.9 1-8.8 1.2-2.3.2-4.7 0-7 .1a26.7 26.7 0 0 1-5-.4c-.3-.2-.7 0-1-.2.3-.8 1-.3 1.5-.5 3.5.3 7 .2 10.6.2.6 0 1.3-.3 2 .1z" fill="#282B58"/><path d="M61.6 140.3c-.5.1-1-.2-1.4.2-.4.5-.4 1-.4 1.6l-.2 2.9c0 .2-.1.5-.5.8l.2-3.3a37 37 0 0 0 0-6.8v-3.4L59 125c.4-.5.1-1 .2-1.6 0-.3-.1-.7.2-1 .4.4.3.9.3 1.3 0 4.8.6 9.6.4 14.4v.8c.1.6.3 1 1 1.1.3 0 .5.1.5.4z" fill="#2C2F5E"/><path d="m53.9 93.7.7.8.2.7.2 2c-.2 1 .1 2.1-.4 3.1-.4.4-1 .6-1.5.1-.3-.6-.2-1.3-.1-2l.1-3c0-.7.2-1.3.8-1.7z" fill="#4A60AB"/><path d="M52.7 83.3c0-.2 0-.5.2-.7.5.4 1 1 1 1.6 1.4 1.6 2 3.7 2.9 5.5 0 .2.3.5 0 .7-1.1-1.7-2.1-3.5-3-5.4-.2-.6-.8-1-1-1.6z" fill="#2B2D5A"/><path d="M55 107.7v-6c0-.3 0-.6-.2-1a.4.4 0 0 1 0-.3V99c0-.4 0-.7.4-1 .2.2.2.4.1.6-.4 2.8 0 5.5-.2 8.3 0 .3.1.5-.1.8z" fill="#363A6F"/><path d="M58.1 105.8c-.2.4-.4.7-.8.5a.9.9 0 0 1-.6-.8c-.1-.5 0-1 .4-1.2.5-.4.3.5.7.4 0 .4-.1.8.3 1.1z" fill="#373B70"/><path d="M76 143.5c-.2.4.2 1.1-.3 1.1s-.3-.7-.3-1c0-.5-.2-1.2.2-1.2.6 0 .2.7.4 1.1z" fill="#363A70"/><path d="M55.2 98c-.4.8 0 1.7-.5 2.5l-.2-.2c.2-1 0-2 .3-3 0-.1.1-.3.4-.2v1z" fill="#2F3464"/><path d="M80.6 144.5c-.7-1.1 0-2 0-3 .2 1 .3 1.9 0 3z" fill="#313567"/><path d="M56.3 123.7c0-.3 0-.6.5-.6.4 0 .5.4.5.8 0 .3-.3.5-.6.5-.5 0-.4-.4-.4-.7z" fill="#282B57"/><path d="M57 141.5c-.1.5-.4.4-.7.2-.3-.2-.5-.4-.3-.8s.5-.7 1-.7v1.3z" fill="#363A6F"/><path d="M72.8 145.2c0-1 .1-1.9.3-2.8.4 1 .3 2-.3 2.8z" fill="#393E76"/><path d="M57 141.5c-.6-.5-.3-1 0-1.3.5 0 .7.3.7.7 0 .4-.4.5-.7.6z" fill="#282B58"/><path d="M68.1 143c.8.7 0 1.4.1 2.2-.4-.8-.2-1.5 0-2.3z" fill="#373C72"/><path d="M57 133c0 .2 0 .5-.5.4-.4 0-.4-.3-.4-.7 0-.4 0-.7.6-.7.2.2.3.5.3 1z" fill="#363A6F"/><path d="M70.8 142.5c.2.9.1 1.6.1 2.3 0 .1-.1.3-.3.3l-.2-.2c.3-.7 0-1.5.4-2.4z" fill="#373B72"/><path d="M63 142.6v1.7c0 .2-.1.4-.4.4-.3 0-.2-.3-.2-.5l.3-1.6a.4.4 0 0 1 .2 0z" fill="#2F3364"/><path d="M57.2 96.5c.2-.3.5-.5.8-.1.3.4.1.7-.3 1-.6 0-.8-.3-.5-.9z" fill="#2B2E5C"/><path d="M78.2 144.5c-.3-.8-.2-1.6 0-2.4.3.8.1 1.6 0 2.4z" fill="#303365"/><path d="M65.7 143v2c0 .2 0 .3-.3.3l-.1-.2c.2-.6-.1-1.4.4-2z" fill="#323568"/><path d="M58.1 105.8c-.9-.2-1-.4-.4-1 .8 0 .6.5.4 1z" fill="#292C59"/><path d="M57 133c-.3-.3-.4-.6-.3-1 .3-.3.7-.3.8.1.2.5-.1.7-.5.8z" fill="#2B2E5C"/><path d="M60.4 97.3c.2.8.2 1.7 0 2.6-.6-.6-.3-1.3-.2-1.9 0-.2-.1-.5.2-.7z" fill="#2F3262"/><path d="M57.4 114.9c-.4.3-.9.3-1-.1-.3-.6.2-.7.6-.8l.4.9z" fill="#363A6F"/><path d="M57.2 96.5c0 .5.2.8.5 1-.5.4-.8 0-1-.4-.2-.4 0-.6.5-.6z" fill="#373B70"/><path d="M57.4 114.9c-.8 0-.3-.6-.4-1 .9.2 1 .4.4 1z" fill="#2B2E5C"/><path d="m55.1 97-.3.3v-2c.3.5.4 1.1.3 1.8z" fill="#373C73"/><path d="M60.2 98c0 .6-.2 1.3.2 1.9v.5c-.7-.8-.4-1.6-.2-2.4z" fill="#363A6F"/><path d="M60.2 140.5c.3 0 .7-.1 1 .2-.3 0-.7.1-1-.2z" fill="#2C2F5E"/><path d="m31.6 146.3-2.7-1.9c1.4 0 2.5.6 3.4 1.7-.2 0-.6-.1-.7.2z" fill="#454575"/><path d="m29.9 148.8-2.4-2c1 .2 1.8.5 2.3 1.3-.5.3.3.5 0 .7z" fill="#494569"/><path d="M78 100.6c-.8-.4-1.7 0-2.7-.3.3-.4.8-.5 1.2-.7 2.2-1 3.4-2.8 4.2-4.9 1-2.5 1.8-5.1 1.6-7.9 0-.3-.1-.5.1-.7.3.3.3.7.2 1a.7.7 0 0 1-.2.5c0 2.9-.1 5.7.2 8.6 0 .3 0 .7-.5.7-.2 0-.2.1-.1.4.5 1.2.5 2.6.5 3.9h-.2c-1-.2-2-.1-3-.2-.5 0-1 0-1.3-.4z" fill="#4A61AB"/><path d="M82.5 87.6v-.4c.2-.4-.1-1 .1-1.5.1-2.5.5-5 .9-7.5v-2.1c.5-.7 0-1.6.4-2.3.3 2.5.5 5 0 7.3-.6 2-.8 4-1 6.1-.1 0 0 .7-.4.4z" fill="#2D2F5D"/><path d="m128.9 107.3-2.2 1.3c-.4.2-.7.4-1.2.3V108.6c1.4-.7 2.8-1.4 4-2.6.1 0 .3-.2.4-.1.2.1.1.3 0 .4l-1 1z" fill="#383A65"/><path d="M125.5 108.6v.2c-.6-.1-.3-.6-.3-1 0 .3.2.5.3.8z" fill="#9397AB"/><path d="M61.6 140.3h-.1c-.4-.3-1.2.1-1.4-.3-.3-.6-.3-1.3-.3-2v-5.2c0-3.5-.6-7-.4-10.5L60 111c.2-2.4.4-4.8.4-7.2 0-1 .4-2 0-3 3.6.6 7.2.7 10.9.9 1.3 0 2.5.1 3.9-.2 1-.3 2.3-.4 3.4.2-1 .3-2 0-2.8.1-.3 0-.7 0-.8.2-.1.3.2.6.3.7 1.2 1.1 1.9 2.5 2.3 4 .3.8 1 1.1 1.7 1.4a7.5 7.5 0 0 1 1.3 4.2c0 2.6.2 5.2-.3 7.8-.4 2.6-.6 5.3-1.6 7.8-.6 1.4-1.7 2.5-2.6 3.7-.4.7-1.4 1.3-1 2.4v.3c-.2.4-1 .6-.8 1 .2.6.8.1 1.3.3.7.1 1 1 .7 1.8-.3.8-1 1.4-1.4 2l-.7 1c-3.4.4-6.9.2-10.3.2l-2.3-.2z" fill="#424783"/><path d="M78.6 101.6h-7.3H74c.3 0 .7 0 .7-.5s-.4-.3-.7-.3H71c-.3 0-.6 0-.9-.2h8c1 .3 1.9.2 2.9.2.5 0 1 0 1.4.4-.7.3-1.6 0-2.3.2-.5 0-1 0-1.4.2z" fill="#CDCFDC"/><path d="M29.4 96c.3.1 0 .5.2.8l.7-1.8c.3.2.6.3.8-.2.3-.3.5-.6.5-1 0-1.6 1.2-3 1.3-4.6l.3-.7 1.4 3.5c.2.3 0 .4-.3.4-1.4.2-1.6 1.2-1.7 2.4v1c.5-1 1.6-.8 2.3-1.4.4 0 .4.4.4.6-.3 1 .1 1.7 1 2 .7.4.8 1.2 1.2 1.8.3.3-.4.2-.6.3-.2.2-.5.2-.7.2a67 67 0 0 1-6.7-1.2.7.7 0 0 1-.3-.2c-.2-.6-.3-1.3.2-2z" fill="#4A61AB"/><path d="M39 99.5c4 .5 8.2.7 12.2 1h1.3c.2 0 .6-.1.6.2 0 .4-.3.5-.5.5l-2.2.2c-4-.1-8.1-.5-12.1-1a1.5 1.5 0 0 1-.8-.2c-.4-.5-.2-.8.3-.8H39z" fill="#FAFBFC"/><path d="M30.2 71.5c.6.3 1.1.9 1.5 1.4.6.6 1 .7 1.7.4l1.3-.4c1.8-.5 3.7-1.1 5.5-1.8.4 0 .8-.7 1.2 0-1.7 1-3.8 1.6-5.7 2.4l-2.4.8c-.9.4-1.5.2-2.1-.4L30 72.7c-.4-.4-.5-.9.2-1.2z" fill="#434884"/><path d="M39 99.5h-1c-.4 0-.7.1-.5.6-.3.2-.6.2-1 .2-1.8-.3-3.7-.6-5.6-1.1-.5-.1-1-.7-1.5.1l-.2-.1c-.1-.5-.2-.9.2-1.2l6.5 1 1 .1c.7.3 1.5 0 2.1.4z" fill="#CED0DD"/><path d="M46.7 97.4a11.9 11.9 0 0 1 1.3-3c.2-.3.7-.2.8.2l1 2.9v.5c-.3.1-.5-.2-.6-.3-.7-.8-1.3-.8-2 0 0 .2-.1.3-.3.3l-.2-.6z" fill="#F5F7FB"/><path d="M35 94.5c-.3.4-.5.7-1 .7s-1 .1-1 .9l-.4.2c-.2 0-.3-.2-.3-.4 0-1 0-2 .4-3 .2-.6 1-.4 1.6-.4.2.2.6.3.6.7.1.4.2.9 0 1.3z" fill="#CFD1DF"/><path d="M43.4 94h.6c.3.1.8 0 .8.4.1.5-.4.4-.7.4-.3 0-.3.4-.3.6 0 .7-.1 1.4-.4 2 0 .2 0 .4-.3.3-.2 0-.2-.2-.2-.4v-1.7c.1-.5 0-.7-.5-.7-.2 0-.6 0-.6-.4s.4-.4.7-.4h.9z" fill="#F4F5FA"/><path d="M39.4 97c-1.3.4-1.7 0-1.6-1.2 0-.5-.2-1 0-1.6.2-.2.1-.7.5-.6.4 0 .3.4.3.7v1.3c0 .7.2.9.7 1 .2.1.2.3 0 .5z" fill="#F0F2F9"/><path d="M35.6 93.7c0-.3.1-.6.5-.7.4 0 .6.2.8.4.7.8.5 2.3-.3 3.3-.4 0-.4-.2-.5-.5l.2-1c0-.5.2-1-.5-1.3l-.2-.2z" fill="#EDF0F7"/><path d="m36.2 96.1.4.6-.3.4c-1 0-1.5-.5-1.4-1.6 0-.3.3-.7 0-1v-1.4c.2.2.2.3.2.5 0 .5.2.2.4.2l.4.7c.3.5 0 1.1.3 1.6z" fill="#CFD1DF"/><path d="m40.1 96.2.3-1.8c0-.2.1-.4.4-.4a.4.4 0 0 1 .3.4c0 1 0 2-.3 2.8-.2.3-.4.3-.7.2-.3-.4-.1-.8 0-1.2z" fill="#EEF1F8"/><path d="M41.4 71c-.4-.3-.8 0-1.1.2L35.4 73a2 2 0 0 1-.8 0l7-2.4h.6c-.1.5-.6.4-.8.6z" fill="#4C5794"/><path d="M51.6 88c.3-.2.4 0 .5.2l1.5 3.7-.1.5-1.9-4.4z" fill="#2D3161"/><path d="M46 95.9v1.3c0 .2-.2.4-.4.4s-.3-.2-.3-.4v-2.6c0-.2.1-.4.4-.3.2 0 .2.2.2.3V96z" fill="#F2F4F9"/><path d="m52.5 101 .6-.1c-.6-.5-1.3 0-1.9-.4h1.9l1.4-.2.2.2v.4c-.7.7-1.5.7-2.2.1z" fill="#B8B9CD"/><path d="M43.1 99.4c-.2 0-.2 0-.2-.3 0-.2 0-.4.2-.5.2-.1.3.1.3.3 0 .2 0 .4-.3.5z" fill="#EEF0F8"/><path d="M40.1 96.2v1.3c-.2-.2-.4-.5-.8-.4v-.5c.6.3.6-.3.8-.4z" fill="#6D84C6"/><path d="M35.8 94.5c-.4 0-.3-.4-.3-.7a.2.2 0 0 1 .1 0h.3c.2.2.1.4 0 .7z" fill="#F0F1F7"/><path d="M46.4 38.4c-.5-.4-.7-1-.7-1.7.1-.3.4-.7.8-.7.9 0 1.7-.4 2.5-.2 2 .5 4.1.2 6.2.2 2 0 4-.3 6-.4.6 0 1.3-.1 1.7-.7.2-.4.8-.5 1.2-.4.5 0 .3.6.3.9.2 1.8 1.4 3 3.2 3h.8c0 .4-.3.4-.6.4-3.6.6-7.3 1.2-11 1.1h-5c-.2 0-.4 0-.4-.3.2-.3.5-.3.6-.2-1.2 0-2.5-.4-3.8-.5-.6-.1-1.3-.1-1.8-.5z" fill="#424783"/><path d="m77 37.1 1.8 2c1 1.1.9 2.3-.5 3.2a13 13 0 0 1-5.1 1.9h-.6c0-.1.5-.3 0-.4a72.8 72.8 0 0 1-4.1-1c-.5 0-1.1-.1-1.1-.6 0-.4.6-.3 1-.4 2.8-.7 5.2-2.1 7.7-3.4.5-.3 1.1-.5 1-1.3z" fill="#424784"/><path d="M72.6 44.2h.6v.9c-.5.7-1.2 1-2 1-2.7 0-5.5 0-8.1-.8a6 6 0 0 0-4.1-.1c-.4 0-.8.2-1.1.1-.7 0-1.4 0-2 .3 0-1.5.7-2.5 2.2-3 .8-.3 1.6-.3 2.4-.3 2.3.2 4.5 1 6.8 1.5 1.7.5 3.5.8 5.3.4z" fill="#EAB8BC"/><path d="m51.8 39.7 8.5-.1c2.2-.1 4.5-.5 6.6-.9l1.5-.2h.3l2.4-1.1c.3-.2.8-.1 1.1-.2 1.6-.4 2.7-1.4 3.7-2.6.4-.4.1-1 .4-1.4.2.7.4 1 1 .3.3-.2.6-.5 1.1-.5 0 1.2-1.2 1.6-1.7 2.5.3.3.5-.2.8 0-.1.5-.9.6-1 1.2-.6 0-.8.5-1.3.8a17.8 17.8 0 0 1-8.9 2.9c0-.4.2-.4.4-.5l1.5-.5c-4.8 1.2-9.6.7-14.5.9-.6 0-1.4.1-1.9-.6z" fill="#F9F9FA"/><path d="M67 37.5c-1.4-.8-1.5-2.2-1.6-3.6 0-.6.4-1 .8-1.1 1.6-.3 3.2-1 4.8-.8 1.4 1.5 1.4 3.8-.2 5.1-1.1.9-2.4 1-3.8.4z" fill="#F9F9F9"/><path d="M51.8 39.7c.6.4 1.3.3 1.9.3H60c2.2 0 4.4-.4 6.6-.5.6 0 1.1-.3 1.7-.4.3 0 .6-.2.9 0-.7.6-1.5.8-2.3 1-.2 0-.5 0-.6.2-.4.2-1 0-1.3.4h-.3c-.3.1-.7.2-.8 0-.1-.5-.3-.1-.4-.1-1.8-.1-3.6.3-5.4.1-3 .1-5.8-.2-8.7-.7-.3 0-.6-.3-1-.4 0-.3.3-.3.5-.4.9 0 1.7 0 2.5.5h.4z" fill="#FBFBFC"/><path d="M70.7 37c1.4-1.5 1.5-2.8.3-5 .8-.1.5 1 1.3 1 0 .6.4.4.8.4h.6c.4 0 1 0 1.2.4.2.3-.4.6-.6 1-.3 1-1.2 1.5-2.1 2-.4 0-.3.2 0 .3-.3.3-.7.4-1 .5l-.5-.7z" fill="#424783"/><path d="m51.4 39.6-2.5-.3c-.3-.1-.7.2-1 0-.4-.2-.8-.1-1-.3-.4 0-.5-.3-.5-.5 2 0 4 .5 6 1h-1z" fill="#404479"/><path d="M58 40.7c1.7 0 3.2-.6 4.9-.5l1.8.5a31 31 0 0 1-6.6 0z" fill="#F9F9FA"/><path d="M70.7 37c.5-.1.7 0 .5.6a4.7 4.7 0 0 1-2.5.8c.2-.2.4-.4 0-.4a1.9 1.9 0 0 1-1.6-.5 4 4 0 0 0 3.6-.6z" fill="#40457B"/><path d="M48 39.1c.2 0 .6 0 .9.2l-.4.2-1-.2c0-.3.3-.2.4-.2z" fill="#D5D6E4"/><path d="M65 40.6c.3-.6.9-.3 1.3-.3l-1.3.3z" fill="#F9F9FA"/><path d="m48 39.1-.4.2c-.3-.1-.7 0-.8-.4.4 0 .8 0 1.1.2z" fill="#A0A3C0"/><path d="M52.7 73.1a.2.2 0 0 0-.1 0c-.2-1.2-1.2-2-1.9-3L47 64.6c-.2-.2-.1-.6-.1-.9l.3-1c.4.1.4.5.5.9.2 1.3.7 2.4 1.6 3.4a107.6 107.6 0 0 1 2.6 3.4 9.3 9.3 0 0 0 4.3 2.8c.4.2 1 .2 1 .7v.2c-.1.4-.5.5-.8.5a7.2 7.2 0 0 1-3.6-1.4z" fill="#D8D3D4"/><path d="M55.9 45.7c.3-.6.7-1 1.5-.6.4.1 1 0 1.4-.1 1.6-.7 3.2-.4 4.7.1 1.4.4 2.7.7 4.1.6.9-.1 1.7.1 2.5.2 1.1 0 2.1-.2 3.1-.8.2 3.1 0 6.2 0 9.3-.1 2.8-.6 5.6-2.7 7.8a9 9 0 0 1-4.4 2.4c-.3.1-1 0-.9.7h-.4c-.1-.2-.3-.4-.6-.4-2.4 0-4.4-.7-6.4-2l-.6-.2c.3.8 1.4 2.4 2.2 3 .6.5 1.2 1 1.1 2-.6.8-1.6 1.2-2.5 1.6a.5.5 0 0 1-.3 0c-1-.4-2-.5-2.8-1l-.5.1c-1.1-.8-2.3-1.6-3.3-2.6l-.2-.3c.2-1-.2-2.1-.3-3.2-.1-2.7-.3-5.4.2-8 .1-.9.1-1.7.5-2.5.1-.3 0-.4-.2-.6a3.6 3.6 0 0 1-1.7-2.3c0-.3-.3-.5-.6-.4-.5-1.9 0-3.6 1-5 .7-1 2.4-.7 3 .2l.4.5c.8 1.3.6 2.7.6 4 .2.9.6.8 1.1.3.5-.5.6-1.1.7-1.8.1-.3 0-.7.3-1z" fill="#FED3C8"/><path d="M53.8 48.3c-.3-.4 0-.9 0-1.4l-.5-2.7c1 1.2.9 2.6.5 4z" fill="#564D6D"/><path d="M40.5 69.4c-.3 0-.4-.2-.5-.4a21.7 21.7 0 0 1-.7-1.4c-.1-.2-.2-.4 0-.5h.6c.3.2 1 1.7 1 2 0 .2-.1.3-.4.3z" fill="#F1C162"/><path d="M37.1 68.8c0-.4 0-.9.4-.8.7.3.7 1 .9 1.6 0 .3 0 .5-.3.5-.7-.2-.7-1-1-1.3zm-1 2-.2.4-.3-.1c-.6-.5-.8-1.1-1-1.8V69h.4c.5.5.8 1.2 1 1.8z" fill="#F1C262"/><path d="M34 71c0 .3-.1.5-.3.4-.4-.4-.7-.8-.8-1.4 0-.1 0-.3.2-.3.6.2.6.9.9 1.4z" fill="#F1C362"/><path d="M57.2 73.9c-.7-.5-1.4-.7-2.1-1-2-.6-3.2-2-4.4-3.6l-2.4-3c-.6-.9-.7-1.9-1-2.7l-.2-1c.3-.5.4 0 .5.1.6 1 1.3 1.9 2.2 2.7l.8.8.2.2a20 20 0 0 1 3.6 2.3c.8.3 1.6.7 2.5.8.4 0 .6.2.6.6v2.6c-.2.3.1.8-.2 1a.4.4 0 0 0-.1.2z" fill="#FEFEFE"/><path d="M54.4 68.7c-1.3-.7-2.5-1.4-3.6-2.4l.3-.4c1.2.7 2.4 1.4 3.3 2.5v.3z" fill="#35365F"/><path d="m50.6 66.2-.8-.9c.6 0 .8.4.8.9z" fill="#4D4B6F"/><path d="M25.8 135c0-1 .6-1.6.9-2.4 1.3-3 1.8-6 2-9.2.2-3.5.9-6.8 1.2-10.2.3-2.9-.1-5.7-.2-8.6 0-1.8-.2-3.5-.3-5.3.2-1 .2-1 1.4-.4 2 .7 4 1.1 6 1.3l6.6.7c2.3.1 4.7.5 7.1.2l2-.1c.8.1 1.5.2 2.2-.1-.2.8 0 1.6 0 2.5l-.3 7.5c-.2 3.8-.1 7.7-.4 11.6-.3 4-.1 8-.1 12 0 1.5.3 3 0 4.5 0 .2 0 .4-.2.5-.3 0-.7.1 0 .3l.1.3c0 1 .3 2-.1 3V141c0-.9-.2-1.3-1-1.1H52c0-.3.2-.3.4-.4-.3 0-.7.1-.9-.3.4-3.1.2-6.3.7-9.4.2-1.2 0-2.4 0-3.7.5-5.2.5-10.5 1-15.7v-4.9c0-1.7-1.1-2.8-3-2.8h-4.7l-7.7-1c-.5 0-.7.2-.8.7-.1 1-.3 2.2-.7 3.3a42.1 42.1 0 0 1-1.8 4.3 7.6 7.6 0 0 0-.7 4.3l.4 3.5c.1.8 0 1.5-.5 2l-2 2.9a11.3 11.3 0 0 0-1.8 5.6c0 .3.1.6.4.8l1 .6c1 .6 1.4 1.5 1.7 2.5.3 1 .5 2 .5 3 0 .7.1.8.7.6 1.1-.5 1.1-.4 1.9.6.9 1.2 2.2 1.9 3.6 2a217.5 217.5 0 0 1 4.7.9c0 .4-.3.4-.6.4h-1.4c.2 0 .5 0 .7.2-.2.3-.6 0-1 .2l.7.4-.2.2c-.5 0-1 .2-1.4.3-1.8.5-2.4 1.4-2.2 3.2.1.6 1.2 1.3 2.3 1.2.7 0 1 .3.9 1-1.3.5-2.6 0-4 0 0-.2.2-.3.3-.4 0-.4-.1-.8-.4-1.2-1-1.8-2.3-3.4-3.7-4.9.5-.4 1.2-.2 1.8-.1l3.2.1-4-.2c-.4 0-.8 0-1 .3l-1.4-.4c-1.5-.4-3-.4-4.6-.6l-.5-.1c-.8-.5-.5-1 0-1.4A8 8 0 0 0 30 134c.1-.5.2-1 0-1.4-1.1-1-1.4-1-2.2.2-.6.8-1 1.8-2 2.3z" fill="#363A6F"/><path d="M30 132.5c.4.4.3.9.2 1.3-.3 1.5-1 2.8-2.2 3.8-.4.4-.5.7-.2 1.2-1-.2-1-.4-.5-1.2a7.9 7.9 0 0 1 1.1-1.4c1-1 1.6-2.3 1.5-3.7z" fill="#E3B4B9"/><path d="m38.4 146-.1.5c-.7.2-1.4-.5-2 0a67.2 67.2 0 0 1-1.4-1.6c0-.2 0-.3.2-.3.7.6 1.1 1.6 2.3 1.6l1-.1z" fill="#55527C"/><path d="m35.1 144.6-.2.2c-.8-.7-1.4-1.6-2.4-2 0-.4.2-.3.4-.3 1 .5 1.6 1.3 2.2 2.1z" fill="#726788"/><path d="M28.4 139c1.5 0 3 0 4.5.6-1.5-.2-3-.1-4.5-.6z" fill="#E3B4B9"/><path d="M32.9 142.6c-.1 0-.3 0-.4.2l-.5-.2c-.2-.2-.2-.3 0-.4.3 0 .6.1.9.4z" fill="#9B879B"/><path d="M32 142.2v.4c-.2-.1-.5-.2-.3-.5l.2.1z" fill="#D9B7B8"/><path d="M13.8 136.7c0 .5-.4.8-.9.8-.4 0-.7-.3-.8-.7 0-.5.4-.7.8-.8.5 0 .8.2.9.7z" fill="#30335D"/><path d="M22.1 131.8c.3.4.6 1 .5 1.5-.4 0-.2.5-.5.7.1-.8-.2-1.6-.4-2.4.2-.1.3.1.4.2z" fill="#777994"/><path d="M9.5 135.3c0-.1-.2-.3.1-.3l1 .2c-.3.3-1-.2-1 .5l-.1-.4z" fill="#41467A"/><path d="M21 131c0-.3.1-.5.5-.4.3.1.2.5.2.8-.3 0 0-.9-.7-.4zM22.1 131.8a5.5 5.5 0 0 1-.4-.2v-.1c.3-.2.2-.6.2-1 .3.5.3.9.2 1.3z" fill="#3E4169"/><path d="M10.6 135.2c.3-.4.8-.2 1.2-.2-.4.1-.8.2-1.2.1z" fill="#41467A"/><path d="M22.5 134.6c0 .1.5 0 .3.4-.1.2-.4.3-.6.2a.9.9 0 0 1 .3-.6z" fill="#FED3C8"/><path d="M18.7 104.1c-.8-.2-1.4-.9-2.4-1a6.7 6.7 0 0 1 2.6 4.4c-.4-.4-.5-.4-1-1.6a5 5 0 0 0-2.4-2.7c-1-.5-1.9-.9-3.1-.6-1.2.2-2.5 0-3.8.1a5 5 0 0 1 2.8-.6H13c1.5-.1 2.9.1 4.2.4 1 .3.9 1.2 1.5 1.6z" fill="#2C305F"/><path d="M20.7 118.4a6 6 0 0 1-.2 4.2c0 .1-.2.3-.4.2-.3 0-.1-.3-.1-.5l.7-3.9z" fill="#2D305D"/><path d="M142 38c-1 .4-2 .2-2.9-.4-2.2-1.3-4.3-2.9-6.3-4.6a6.2 6.2 0 0 1-2.2-4.8c-.2-4.9-.3-9.8 0-14.8 0-.6 0-.6.5-.6.6 1 1.4 1.6 2.4 2l.2.2c.5.4.9 1.3 1.4 1.2.5-.1 1-.9 1.4-1.3a67.2 67.2 0 0 1 4-4c.3-.3.5-.4 1 0 1.6 1.7 3.5 3.2 4.9 5.2.4.4.6 0 .8-.1l3-2.8c.3-.3.6-.7 1-.5.3.2.1.6.2 1v.4c.4.3.4.7.4 1.1v12.5c0 1.6-.5 3-1.6 4.2-1.9 2.1-4 4-6.4 5.5-.5.3-1 .8-1.7.7z" fill="#F1D462"/><path d="M142 38a26 26 0 0 0 8.6-6.9c1-1 .9-2.4.9-3.7V14.1c1 .3.8 1.3 1 2 .3 3 0 6.1-.2 9.2l-.1 4.2a5.8 5.8 0 0 1-1.5 3.3c-1.8 2-3.8 3.9-6.4 5-.4.1-.8.5-1.3.7-.4.2-1 .3-1-.4z" fill="#2C305F"/><path d="M133.5 14.9c-.6.4-.9-.2-1.2-.5-.4-.4-1.3-.7-1.2-1.6 1 .5 1.6 1.3 2.4 2z" fill="#DAC163"/><path d="M70 67.4c.2 0 .3-.2.4-.3.8-1 .7-1 1.9-.5 3 1.4 6 2.8 9.1 3.5 1.9.5 2 .6 1.8 2.5-.3 1.6-1 2-2.5 1.5-1.7-.6-3.2-1.3-4.9-1.8-1-.2-2-.4-2.9-.9-.3-.2-.8.2-1-.4-.8-.4-1.6-.7-2.3-1.3-.6-.2-.6-.7-.4-1.2.2-.4.4-.8.9-1z" fill="#F1D462"/><path d="M104.7 102.6c.4-.6.6-1.6 1.7-1.4 0 .6-.7 1.2 0 1.8v.4c0 .3.6.5.2.8-.3.2-.6-.3-.7-.5-.5-.6-.8-.5-1 .2 0 .3 0 .6-.2 1-.4-.8 0-1.6 0-2.3z" fill="#2D2E5C"/><path d="M71.9 71c.3.4.8 0 1 .5-.2 0-.4 0-.5.2-.3 0-.5-.2-.5-.6z" fill="#484E89"/><path d="M127.5 93.5c.5-.7.6-1.6 1-2.4 1-1.3 2.3-2 4-2h2.5c.5 0 .8 0 1.1.3-1.5 0-3 0-4.4.4-1.6.5-3.1 2.6-1.8 4.6.1.2.6.4.2.7-.2.2-.6 0-.9-.1-.3-.3-.7-.6-.9-1 0-.4-.2-.4-.5-.3a.7.7 0 0 1-.2-.2z" fill="#EABBBE"/><path d="M139.6 111.8a18 18 0 0 1 0-4.5h.4c.3 1.6.3 3.1 0 4.7l-.4-.2z" fill="#5F6282"/><path d="M143 91.9c-.5.5-1.1.8-1.7 1.2-1 .5-2 .9-2.9 1.6 0-.7.5-1 .6-1.3.8-.4 1.5-1 2.3-1.3.4-.3.8-.6 1.3-.7.4 0 .9 0 .4.5z" fill="#EDBCBE"/><path d="M136.4 97c-.8.2-1.3-.3-1.9-.7-1.3-.8-1.3-.8-.4-2 .1-.1.2-.3.4-.3.2.1.2.4.1.5-.5.7 0 1 .6 1.4l1.2 1.2z" fill="#EFC0C0"/><path d="M143 91.9c.1-.4 0-.4-.4-.3l-1.3.4 1.1-1c.4-.2.6-.1.8.2.2.3.2.6-.2.7zm-1.7.2c-.7.6-1.3 1-2.2 1.3.3-.7 1.2-.7 1.3-1.5l1 .2z" fill="#F6C8C3"/><path d="M124.2 55.9a4.3 4.3 0 0 1 1 5.6 3.7 3.7 0 0 1-5 1.2c-2-2.2-1.5-5.4.9-6.7 1-.6 2-.7 3.1-.1z" fill="#848EBF"/><path d="M124.2 55.9c-1.3-.4-2.5-.2-3.6.7a4.3 4.3 0 0 0-.8 5.4l.4.7a4.3 4.3 0 0 1-1.3-5.8 3.7 3.7 0 0 1 5.3-1z" fill="#6971A2"/><path d="M109.6 55.9c.7 1.1.4 2.2-.8 2.8-1.6.2-1.8 0-1.8-1.6 0-1.3.6-1.7 1.9-1.5l.7.3z" fill="#838DBE"/><path d="M109.6 55.9h-.4c-2 0-1.8-.3-1.9 1.9 0 .6.2 1 .9.9h.6c-.6.3-1.2.1-1.8 0-.4 0-.7-.2-.6-.6.1-1-.4-2 .4-2.7.4-.4 2.2 0 2.8.5z" fill="#6A72A3"/><path d="M126.6 105.4c.4.1.8.3.8.8s-.3.8-.8.8-.7-.3-.7-.8.3-.7.7-.8z" fill="#363661"/><path d="M143.7 117.8v2c0 .6-.3 1-1 1-.3 0-.7 0-.8-.3 0-.4 0-.6.4-.7.3-.1.3-.3.3-.6l.2-3c0-.4 0-.7-.3-1-.3-.1-.3-.4-.2-.7.1-.2.4-.2.6-.2.4 0 .6.2.6.5.3 1 .2 2 .2 3z" fill="#545778"/><path d="M148.9 117.3a44.3 44.3 0 0 1-6.1 7.6 24 24 0 0 1 6-7.6zm-1.6-1.8c-.1-1.2.7-1.8 1.3-2.6 1-1.2 2.1-2.2 3-3.5.2-.2.3-.3.5-.2.2.1.2.3 0 .5-1.7 1.7-2.9 4-4.6 5.8h-.2z" fill="#9EA3BB"/><path d="M139.6 126.6v-11.1c.2-.1 0-.5.4-.4v.5c.2.4.1.8.1 1.2v10l.1 1v.3c-.4 0-.6-.1-.6-.5v-1z" fill="#5A5E7E"/><path d="M149.4 119.4c-.9 1.7-1.7 3.4-3.1 4.8 0-1 2-4.1 3.1-4.8z" fill="#9DA2BA"/><path d="m148.7 109.2-.5.7-2.2 2.8c-.1.1-.2.3-.4.2-.3 0-.2-.3-.1-.5.3-.8 1-1.3 1.5-2 .4-.5 1.1-.8 1.7-1.2z" fill="#9DA3BA"/><path d="M140.2 127.7c-.2-.2-.2-.5-.2-.8v-11.3c.3.3.2.5.2.8v11.3z" fill="#6E7596"/><path d="m140 115.1-.4.4v-3.7c.2 0 .3 0 .4.2v3.1z" fill="#6C6F8C"/><path d="M137.1 114.3c.3 0 .5 0 .6.2v.7c-.8 1.3-.5 2.7-.5 4 0 .2.1.3.3.4.3 0 .5.2.3.5 0 .2-.2.5-.5.6a.6.6 0 0 1-.7-.4l-.3-1v-3.5c0-.6.1-1.3.8-1.5z" fill="#555879"/><path d="M129.2 121.9c1.9-3.6 4-7 6.3-10.3l.3.2-6.4 10.2a1.1 1.1 0 0 1-.2-.1z" fill="#9CA1B8"/><path d="M128.6 116.8c.5-1.5 1.5-2.6 2.4-3.8.7-1.2 1.6-2.2 2.4-3.4.2-.2.3-.5.5-.4.3.2.2.5 0 .8a438.7 438.7 0 0 1-3.3 4.4c-.7.8-1.2 1.7-2 2.4z" fill="#9DA3BA"/><path d="M133.7 120.4c0 .9-.8 1.5-1.2 2l-3 4.5c-.2.2-.3.5-.6.3s0-.4.1-.5c1.2-2.3 2.8-4.1 4.2-6.2.1-.1.2-.2.5 0z" fill="#9EA3BB"/><path d="M128.5 119.6c-.3-.4-.2-.6 0-.9a62.3 62.3 0 0 1 3.2-4.4c.2-.3.2-.3.4 0 0 .3 0 .3.6 0a26.4 26.4 0 0 0-4.2 5.3z" fill="#9CA1B8"/><path d="M132 125.5v-.5c1-1.3 1.5-2.9 2.6-4 .1-.2.3-.3.5-.2v.3c-.9 1.5-1.7 3-2.8 4.4h-.2z" fill="#9EA3BB"/><path d="M70 67.4c0 .3-.2.6-.4.8-.4.6-.4 1 0 1.6-.3 3-.6 5.9-1.1 8.8-.2.7-.4 1.5-1.3 1.8l-1.4-3.6a13.9 13.9 0 0 0-1.4-3c-.2-.3-.5-.6-.2-1l3.1-6c0-.1.3-.3.1-.4-.2-.2-.4 0-.5.2l-.8 1.2-.5-.1c-.1 0-.2-.2-.1-.3a.4.4 0 0 1 .2-.3c.1.2.3.3.4 0l.6-1c.5-.7 1-.8 1.4-.2.6.7 1.4 1 2 1.5z" fill="#424784"/><path d="M63 89.9c0-.2-.1-.5-.2-.4-.2.6-.6.2-1 .3-.8.2-1.2-.3-1-1.1.3-.6.2-1 0-1.5.8-1.9 2.3-3.5 3.3-5.3.2-.6.3-1.2.7-1.7.5-.6.8-.7 1.2 0 .2.5.6.8 1 1.1-1 3-2.6 5.7-4 8.6z" fill="#414683"/><path d="M67 81.3c-.7.1-1-.4-1.1-.9-.3-.6-.6-.7-1 0l-.8 1.5v-6.2l-.2-2c0-.4 0-.8.4-1 0 .7.4 1.1.7 1.6.6 1 1 2 1.4 3.1.3 1 .9 1.9.9 3l-.3.9z" fill="#363A6F"/><path d="M61 94.7c-.2-1 .4-1.7.6-2.5.1-.5.3-1 .6-1.3.1-.3.1 0 .2 0-.4 1.3-.8 2.6-1.5 3.8z" fill="#2E3365"/><path d="M82.6 85.7c0 .5.2 1-.1 1.5v-1l.1-.5z" fill="#363A6F"/><path d="M61.5 73.1c-.9.7-1.8.9-2.9.5-.4-.2-.6-.4-.6-.8-.2-1.1-.3-2.2 0-3.3 1.4-.7 2.6-1.5 3.7-2.6.3-.3.8-.5 1-.9l.9-.8H64.5c.4.3.6.7.7 1.1l-.1 1.8c0 1.3-.8 2.1-1.6 2.9-.8.7-1.5 1.3-2 2.1z" fill="#FEFEFE"/><path d="M53.9 84.2c-.2-.6-.8-1-1-1.6v-3.7l-.2-.5c0-.6.1-1.2-.1-1.9.2-.6-.2-1.3 0-1.9.2-.3-.2-.9.5-1 .7 0 1.3.6 1.8 1a6 6 0 0 0 1.4 3.3c.2.2.2.6 0 1l-1.9 4.5c-.2-.5-.1-1 0-1.5.5-1 .7-2 1-3 .1-.2.2-.5.1-.7 0-.6-.9-1.6-1.1-1.4-.6.3-.4 1-.3 1.3.4 1.7-.3 3.5.3 5.2 0 .4.2 1-.5 1z" fill="#D8D2D2"/><path d="M63 82.4c-.3.3-.3.8-.8 1L60 79.1c-.3-.4 0-.8.1-1.1.4-.7.6-1.5.8-2.2 1.2-.6 2-.1 2 1 .1 1.9.3 3.7 0 5.5z" fill="#FDFDFD"/><path d="M63 82.4c-.3-.8-.2-1.7-.2-2.6 0-1 0-2-.2-3 0-.7-.3-1-1-.9H61c0-.4 0-1-.2-1.4a.4.4 0 0 1 .2-.5l2.5-1.5c.2-.1 0 .2.1.3v.9c-.1.8-.2 1.6 0 2.4.2 1.7.2 3.4.2 5 0 .6-.3 1-.8 1.3z" fill="#D7D1D2"/><path d="M61.5 73.1c0-.8.5-1.2 1-1.6 1.5-1.1 2.6-2.4 2.3-4.4l.2-.8c.7.1.5.7.5 1l.2.3c.2.2.2.5 0 .7-.4 1-.7 1.9-1.3 2.7-1 .7-1.8 1.7-3 2.1z" fill="#D7D2D3"/><path d="M55 74.6c-.8 0-1.3-.6-2-.9 0-.2-.3-.2-.3-.5 1.2.2 2.3 1 3.6 1 .3.2.8 0 1 .4-.7.5-1.5.1-2.3 0z" fill="#343760"/><path d="M58.4 69.4c-.4.2-.5.5-.5.9v2.4c-.4-.8 0-1.6-.1-2.5v-1a.4.4 0 0 1 .1 0c.2 0 .4 0 .5.2zm-.9 2.9v-2c0-.4-.1-.7-.5-.9.5 0 .6.2.6.7v2.2zm-.1 2.3c-.4 0-.8 0-1.1-.3.3 0 .6 0 .9-.3l.2.6zm-.1-1 .2-1c0 .4.2.9-.2 1z" fill="#404168"/><path d="M51.6 139.4c.4.1.9-.2 1.2.2-.2.3-.6 0-.8.3h-9c-.5 0-1.1.2-1.9-.1 1.2-.4 2.3 0 3.3-.4.2-.2.5-.3.8-.3h5.6c.3 0 .6.1.8.3z" fill="#272A56"/><path d="M40.7 141.7c.3 1.2 0 2.2.3 3.2-.7-.7-.9-2-.3-3.2z" fill="#2D3160"/><path d="M45.7 145c0-.8-.6-1.6-.2-2.7.6 1 .3 1.9.2 2.7z" fill="#303465"/><path d="M49 144.9c-.6-.7-.3-1.6-.3-2.3.4.7.5 1.4.4 2.3zm-6-2.3c.2.6.6 1.2.3 2-.4-.7-.5-1.4-.3-2z" fill="#33376A"/><path d="M51.6 145c-.2-.9-.2-1.4 0-2.2a3 3 0 0 1 0 2.1z" fill="#393D75"/><path d="M52.7 74.6v2c.2.6 0 1.3.2 1.9v.4a6.7 6.7 0 0 0-.4.5c0-1.9 0-3.6-.2-5.6l.4.8z" fill="#383B67"/><path d="M63.5 76.1a69.2 69.2 0 0 0 0 0z" fill="#E6E3E6"/><path d="M65.8 68.3v-.7l.3.2-.3.5z" fill="#46486D"/><path d="M72.6 115.5c-.1 1-.5 1.6-.9 2.2a15.3 15.3 0 0 1-4.3 4.3c-.5.3-1 .8-1.6.4-.2-.1-.4-.2-.3-.4 0-.2.2-.2.4-.1.5.2.9-.1 1.3-.4 2-1.4 3.4-3 4.7-5l.7-1z" fill="#373B71"/><path d="m68 124.7 2.8-3.2c-.5 1.5-1.2 2.7-2.8 3.2z" fill="#383D73"/><path d="m50.5 101.2-.5.2a60.6 60.6 0 0 1-6.8-.4l-6.7-.6c-2 0-4-.5-5.7-1.5 2.2.5 4.5 1 6.7 1.2 2.2.4 4.4.5 6.6.7l6.4.4z" fill="#444982"/><path d="M48.3 95.4c.2.3.6.6.2 1 0 .2-.3.1-.5 0-.3-.5.2-.7.3-1z" fill="#627BC2"/><path d="M33.7 93c.4.1.7.3.7.8-.1.4-.4.8-.9.8s-.3-.5-.3-.8c0-.3 0-.8.5-.8z" fill="#586DB1"/><path d="M35.8 94.5v-.7c.7 0 1 1 .7 1.7l-.3.6c-1-.4-.2-1-.4-1.6z" fill="#5F78BF"/><path d="M65.5 67.4c-.3-.3-.2-.8-.5-1-.3-.4-.2-.8-.6-1 .1-.5.4-.4.6-.3 0 .1 0 .2.2.2.2.6.7 1.1.6 1.8l-.3.3z" fill="#46486D"/><path d="M67.4 33.4c.3.1.4 0 .6-.3 0-.2.2-.3.4-.2.4.3.6.3.8-.3 0-.3.4 0 .6.2.3.4.5 2.2.2 2.7-.6 1.1-1.7 1.2-2.5 0-.4-.4-.5-1-.6-1.7-.1-.4 0-.7.5-.4z" fill="#F1D564"/><path d="M65 65.2c-.2 0-.4-.1-.6.1H63.5c0 .5-.3.8-.7.8l-1.1.8c-.4.3-.7.8-1.3.7-.2-.7-.6-1.3-1.2-1.7-1.1-1-1.8-2.3-2.7-3.8 1 .3 1.5.6 2 1a9 9 0 0 0 5.7 1.5c.4 0 .6.2.8.5z" fill="#EAB9BC"/><path d="M67.3 55c.7 0 1.2-.3 1.3-1 .1-.8-.3-1.2-.9-1.4-.4-.2-.6-.5-.6-1-.2-1.3-.7-2.5-.7-3.9 0-.2 0-.4.2-.5.3.1.3.4.4.7l.6 3.4c.1.4.3.6.6.8 1.1.6 1.5 1.6 1 2.5-.4 1-1.2 1.1-2.5.6 0-.5.3-.3.6-.3z" fill="#33335C"/><path d="m60.9 46.4-1.9.1c-.2 0-.5 0-.6-.3 0-.3.2-.4.4-.5 1.2-.2 2.5-.3 3.7 0 .2 0 .5.2.5.5s-.3.3-.6.3H61z" fill="#37365E"/><path d="M52 49.2c-1.1 0-1.6-.8-1.7-2.4.4-.6.7-1 1.4-.6.6.3.8 1 .4 1.6-.3.5 0 1-.1 1.4z" fill="#E9BBBE"/><path d="M66.3 60c-.7-.1-1.2-.3-1.6-.6-.2-.1-.4-.3-.3-.6.2-.2.4-.3.6-.2.7.3 1.3.3 2 .2.3 0 .5 0 .6.3.1.3-.2.5-.4.6l-1 .2z" fill="#39385F"/><path d="M61 50.6c.2-.5 0-1.4.9-1.4.6 0 .6.6.5 1 0 .6 0 1.3-.8 1.4-.6 0-.5-.6-.5-1z" fill="#31325B"/><path d="M52 49.2c-.3-.5-.4-1 0-1.5.4-.6.2-1-.2-1.3-.5-.4-.9-.1-1.2.3h-.2c-.1-.5.3-.8.8-1 .5-.1 1 .2 1.1.7.2.5.8 1 0 1.6-.4.3-.2.6 0 1 .2.1.2.2-.3.2z" fill="#AC888B"/><path d="m60.4 67.6 1.2-.8c.2 0 .3 0 .3.2-1 1-2.1 2-3.5 2.4-.2 0-.4 0-.5-.3.8-.5 1.8-.8 2.5-1.5z" fill="#3E4067"/><path d="M70.3 47.3h-.6c-.2 0-.4 0-.5-.3 0-.3.2-.5.4-.6h.5c.6 0 1.6-.2 1.6.5.1.6-1 .2-1.4.4z" fill="#3D3B61"/><path d="M71.3 50.6c0 .4 0 1-.5 1-.6 0-.7-.4-.6-.9 0-.4 0-1 .6-1 .5-.1.5.5.5.9z" fill="#3C3B61"/><path d="M67.3 55c-.2 0-.5-.1-.7.1-.2 0-.3-.1-.3-.3 0-.3.3-.1.4 0l.6.1z" fill="#615875"/><path d="M51.6 139.4c-.8.2-1.7 0-2.5 0h-4.7a31.4 31.4 0 0 1-5.6-.8c-1.3-.3-2.5-1-3.1-2.2-.3-.6-.6-.8-1.2-.4l-.6.3c-.5.3-.8.2-.7-.6a9 9 0 0 0-1.3-5 2.5 2.5 0 0 0-.7-.8c-.5-1.3-.3-2.8-.2-4.2.2-1.9 1-3.5 2-5l.4-.8c.5-.7.6-1.3.5-2.2l-.5-3.7c-.2-1.7.4-3.4 1.2-5l1.4-3.2c.2-.4.5-.6.9-.8l5.9-2.5c.8-.3 1.7-.2 2.5 0h5.2a3 3 0 0 1 3 2.9c.1 3.4-.2 6.8-.4 10.1l-.1 2.7c0 3.1-.5 6.2-.6 9.3 0 1.6 0 3.2-.2 4.8 0 1 0 2-.2 3.1 0 1.3.2 2.7-.4 4z" fill="#424783"/><path d="M45.3 102.5c-1.6-.3-2.9.5-4.3 1-1.7.7-3.4 1.4-5 2.3.3-1.3.8-2.6.8-4 0-.3.2-.4.5-.3l5.9.8c.7 0 1.4-.2 2.1.2zm-11.9 17.4c.1.5-.2.8-.5 1.2-1.7 2.7-1.9 5.7-1.7 8.8-1.9-.9-1.7-.9-1.4-3 .3-2.7 2-4.8 3.6-7z" fill="#40447F"/><path d="M34.3 140c0-.4 0-.4.4-.4 1.8.1 3.7.3 5.6.3-2 .5-4-.2-6 .1z" fill="#292C59"/><path d="M141.1 36.4c-.2.2-.5.2-.7 0-.3-.7-1.3-.7-1.5-1.4a30.4 30.4 0 0 1 4-17.1c.2-.4.3-.7.2-1.1-.2-.5-.1-1 .1-1.4.2-.2.3 0 .5.1.8 1 2 1.7 2.8 2.7.3.4.5 0 .7 0l1.4-1c.7-.3.9-.2 1 .5a9 9 0 0 1-.5 3.1 7.3 7.3 0 0 0-2.3 4 61.2 61.2 0 0 0-1.1 7.5c0 .6-.4.9-.7 1.1-1.2 1-2.3 2-3.7 2.8a.4.4 0 0 0-.2.2z" fill="#F1CA62"/><path d="M141.1 36.4c-.1-.5.3-.5.5-.6 1.4-1 2.8-2 4-3.3.4-1.2 1.4-1.8 2.3-2.6a3 3 0 0 0 1-2.3v-5.5c.2-.4.2-.8.2-1.2v-.1c0-1.2.4-2.4.1-3.6l-1 .6c-1.6 1-1.6 1-3-.4l-1.8-2c-.6 0-.8-.5-1.3-.8-1.3-1.4-1-1.3-2.4 0-1.1 1.1-2.2 2.3-3.5 3.3-.2.2-.5.5-.8.6h-.3c-.2-.2-.3-.3-.1-.5 1.9-1.6 3.5-3.6 5.4-5.2.4-.3.6-.3 1 .1 1.5 1.7 3.2 3.3 5 4.7.5.4.8.4 1.3-.1l1.7-1.7c.1-.2.3-.4.4-.3.3 0 .2.3.2.5 0 2.3.2 4.5-.1 6.7-.1.5 0 1.1 0 1.6 0 1.6-.3 3.2-.2 4.8 0 .3 0 .5-.3.7-2 2-3.8 4-6.2 5.5-.7.5-1.3.8-2 1zm-2-1.3 1.4 1c.1 0 .3.2-.1.3a11 11 0 0 1-3-1.8l-4.1-3.1c-1-1-1.3-2-1.4-3.4-.3-3.6-.2-7.2-.2-10.9v-.7c0-.3 0-.5.3-.6.3-.2.5.1.7.3.7.5 1 1.4 2 1.9 0 .3-.3.3-.5.3-.6 0-.9-.5-1.3-.8-.3.3-.2.7-.2 1v6.2c-.1 1.2-.3 2.5 0 3.7.2.8.3 1.6.9 2.2l1.2 1.1c1.2 1 2.4 2 3.7 2.6.3.2.5.4.6.7z" fill="#E6B350"/><path d="M134.3 18.2s.2 0 .3-.2h.4c0 .1 0 .3.2.4-.5.5-.6.4-1-.2z" fill="#EBBD57"/><path d="M81.1 71.9c-.2.3-.5.7-1 1-.2 0-.5-.3-.4-.6.1-.6.7-.7 1.2-.8.1 0 .2.1.2.4zM78 70.2c.2 0 .4 0 .5.2 0 .1-1.1 1-1.3 1-.2 0-.3-.1-.3-.3 0-.7.6-.8 1-1zm-4.7-2-1.6 1.3c-.1.1-.2-.1-.2-.3.4-.5.7-1.1 1.4-1.2.2 0 .4 0 .4.2zm2 .9c0 .2-1.3 1-1.4 1l-.1-.4c0-.3 1-1 1.4-.8l.1.2z" fill="#F1C262"/><path d="M61.8 67a1.8 1.8 0 0 0-.2-.2c.3-.4.6-.7 1.2-.7-.1.5-.6.7-1 1z" fill="#605F7F"/><path d="M63.5 65.3c.2-.2.5-.4.8 0h-.8z" fill="#FED3C8"/><path d="M54.4 83.3a4 4 0 0 1-.4-2.7c.2-1-.3-2.2-.2-3.4 0-.2 0-.7.3-.8.3 0 .6.1.9.4.6.7 1 1.4.6 2.5-.4 1.4-1 2.6-1.2 4z" fill="#FDFDFD"/><path d="M52.9 78.5c-.3-.6-.1-1.3-.1-2 .2.7 0 1.4 0 2zm-11.6 40.6c0 .6.3 1 .4 1.5-1-1-1.7-2-2.2-3.3-.7-1.6-1-3.3-.9-5 0-.1 0-.3.2-.5 0-.2.1-.5.4-.5.3.1.2.4.2.6 0 1.3 0 2.7.5 4a6.4 6.4 0 0 0 2.2 3c.3.3.6.5.7 1l-1.5-.8zm3.5 14.7c-.5 0-1-.3-1.4-.6a14 14 0 0 1-4.6-5.3c-.2-.4-.4-.9-.3-1.4 0-.2 0-.4.3-.4.2 0 .2.2.2.4.8 2.9 3 4.7 5.2 6.6.2.2.5.3.6.7z" fill="#363A6F"/><path d="M149.1 21.9v5.8c0 1-.3 1.8-1.1 2.4-.9.7-1.6 1.6-2.4 2.4-.5-.7 0-1.4 0-2 .3-2.3.6-4.6 1.3-6.8.4-1.2 1-2.4 2.2-3 .2.5.2.8 0 1.2zm-10 13.2a1 1 0 0 1-.6-.6c-.2-1.6-.1-3.2 0-4.8a66.2 66.2 0 0 1 1.3-8.7c.4-2.1 1.3-4 1.9-6 0-.3.2-.6.5-.6l1.1 1c0 .6-.3 1 .1 1.7.2.3-.2.8-.4 1.1a33.4 33.4 0 0 0-3.9 16.9z" fill="#F7D873"/><path d="M142.5 28.6c-.3-2.7.6-5 1.5-7.3l1-2.5c.2-.2.2-.4.5-.3.4 0 .3.3.2.6-.8 2-1.7 4.1-2.4 6.3-.4 1-.5 2-.8 3.2z" fill="#F7D772"/><path d="m145 26.4-1.7 6.6h-.2c.2-2.3.9-4.5 1.6-6.7h.2z" fill="#F4D169"/><path d="M142.2 14.5c-.6.6-.5 1.6-.9 2.4l-.4 1.6c-1.1 2.8-1.4 5.8-1.9 8.7a38 38 0 0 0-.3 6.5c0 .3 0 .6-.2.9-1.6-.6-2.6-1.7-4-2.7-.2-4.7.8-9.2 2.8-13.4.7-1.4 1.3-2.8 2.3-4 1.3-1.6 1.4-1.6 2.6 0z" fill="#F1CA62"/><path d="M139.6 14.5c0 .6-.4 1-.7 1.5a33 33 0 0 0-3.6 9.6c-.3 1.7-.3 3.5-.5 5.3 0 .3.2.7-.2 1a39.6 39.6 0 0 0-1-1c-.4-.4-.4-1-.3-1.6.3-3.2.6-6.4 1.4-9.5l.7-1.5c1.5-1.1 2.8-2.5 4.2-3.8z" fill="#F7D873"/><path d="M135.4 18.4c-.4 1.8-1 3.6-1.2 5.4-.3 2.4-.7 4.8-.7 7.2-.3-.2-.5-.5-.6-.8-.5-1.6-.8-3.1-.6-4.8.2-1.1.1-2.3.1-3.4v-4.4l.1-.6c.3-.2.5.1.6.3.4.3.6.8 1.2.8.2.4.5.5 1 .2zm13.7 3.5v-1.1c.3.4.3.7 0 1.1z" fill="#F1CA62"/><path d="M137.3 27.8c-.2-1.6.1-3.2.8-4.7.1-.2.2-.5.5-.4.3.2 0 .4 0 .6-.5 1.3-.7 2.7-1 4.1 0 .2 0 .5-.3.4z" fill="#F6D771"/><path opacity=".1" d="M56.5 174.2c0 2-.4 3.6-.8 4.8a44.8 44.8 0 0 1-1.9-.5.5.5 0 0 1-.4-.4L51.8 160a.5.5 0 0 0-.1-.3.5.5 0 0 0-.4-.2.4.4 0 0 0-.4.3l-5.4 17.8a.5.5 0 0 1-.5.4c-2 .3-4.2.5-6.2.5l6-15.7c2.3-5.5 11.7-11.5 10.5-5.7-1.2 5.5 1.3 8.2 1.2 17.2z" fill="#02020F"/><defs><linearGradient id="a" x1="49.8" y1="187.4" x2="51.3" y2="122" gradientUnits="userSpaceOnUse"><stop offset=".1" stop-color="#33325D" stop-opacity="0"/><stop offset=".3" stop-color="#33325D"/></linearGradient></defs></svg>