<svg width="100" height="100" viewBox="0 0 100 100" fill="none" xmlns="http://www.w3.org/2000/svg">
<circle cx="50" cy="50" r="48.5" stroke="#FFC444" stroke-width="3"/>
<path d="M74.9965 42.4455H58.2399C58.293 41.8577 58.3218 41.2624 58.3218 40.6607C58.3218 29.8197 49.5016 21 38.6607 21C35.2074 21 31.8105 21.9085 28.8371 23.6267C28.2674 23.9557 28.0724 24.6845 28.4015 25.2542C28.731 25.8243 29.4598 26.0188 30.0294 25.6898C32.6408 24.1805 35.6254 23.3828 38.6607 23.3828C48.1878 23.3828 55.939 31.1335 55.939 40.6607C55.939 50.1878 48.1878 57.939 38.6607 57.939C34.6727 57.939 30.9263 56.6177 27.8262 54.1186C27.5154 53.8682 27.1035 53.7932 26.7284 53.9082L23.566 54.7352L24.8049 52.0126C24.9831 51.6217 24.9366 51.1656 24.6839 50.818C22.5244 47.852 21.3828 44.3396 21.3828 40.6607C21.3828 37.6175 22.1847 34.6254 23.7019 32.0085C24.0319 31.4388 23.8378 30.71 23.2686 30.3801C22.6994 30.0501 21.9706 30.2437 21.6402 30.8134C19.9131 33.7928 19 37.1981 19 40.6607C19 44.6114 20.1574 48.3946 22.3541 51.6454L20.3594 56.0281C20.1686 56.4465 20.2361 56.937 20.5321 57.2888C20.8281 57.6407 21.3 57.7905 21.7449 57.6742L26.8117 56.3497C30.2081 58.9154 34.3916 60.3218 38.6607 60.3218C39.5901 60.3218 40.5037 60.2553 41.3986 60.1301V70.5629C41.3986 73.3218 43.6432 75.5668 46.4021 75.5668H63.2527L70.787 81.731C71.0039 81.9088 71.2715 82 71.5414 82C71.715 82 71.8891 81.9623 72.0515 81.8855C72.4676 81.6882 72.7328 81.2693 72.7328 80.8086V75.5668H74.9965C77.7559 75.5668 80.0005 73.3218 80.0005 70.5629V47.4494C80.0005 44.6901 77.7559 42.4455 74.9965 42.4455ZM77.6176 70.5629C77.6176 72.0079 76.442 73.184 74.9965 73.184H71.5414C70.8833 73.184 70.35 73.7173 70.35 74.3754V78.2945L64.4655 73.48C64.1411 73.184 63.8573 73.184 63.2192 73.184H46.4021C44.957 73.184 43.7814 72.0079 43.7814 70.5629V59.6437C50.8289 57.7407 56.3197 52.0098 57.8755 44.8283H74.9965C76.442 44.8283 77.6176 46.0039 77.6176 47.4494V70.5629Z" fill="#FFC444" stroke="#FFC444" stroke-width="0.5"/>
<path d="M66.628 62.5332C67.0319 62.3428 67.3121 61.9328 67.3121 61.4562C67.3121 60.7986 66.7787 60.2648 66.1207 60.2648H65.6329L61.7906 51.5079C61.6003 51.0746 61.1721 50.7949 60.6993 50.7949C60.2264 50.7949 59.7983 51.0746 59.6084 51.5079L55.7661 60.2648H55.2783C54.6203 60.2648 54.0869 60.7986 54.0869 61.4562C54.0869 61.9328 54.3671 62.3428 54.771 62.5332L53.3399 65.7947C53.0756 66.3973 53.3497 67.1001 53.9519 67.3644C54.5546 67.6288 55.2574 67.3547 55.5217 66.752L57.3228 62.6476H64.0762L65.8773 66.752C66.0732 67.1988 66.5102 67.465 66.9691 67.465C67.1287 67.465 67.2911 67.4329 67.447 67.3644C68.0493 67.1001 68.3239 66.3973 68.059 65.7947L66.628 62.5332ZM58.3681 60.2648L60.6993 54.9518L63.0304 60.2648H58.3681Z" fill="#FFC444" stroke="#FFC444" stroke-width="0.5"/>
<path d="M25.6006 28.7915C25.9138 28.7915 26.221 28.664 26.443 28.4425C26.6645 28.2209 26.792 27.9138 26.792 27.6001C26.792 27.2869 26.6645 26.9797 26.443 26.7577C26.221 26.5362 25.9138 26.4087 25.6006 26.4087C25.286 26.4087 24.9798 26.5362 24.7582 26.7577C24.5367 26.9797 24.4092 27.2869 24.4092 27.6001C24.4092 27.9138 24.5367 28.2209 24.7582 28.4425C24.9798 28.6645 25.2869 28.7915 25.6006 28.7915Z" fill="#FFC444" stroke="#FFC444" stroke-width="0.5"/>
<path d="M31.5486 47.9114C30.9715 48.2278 30.7602 48.952 31.0767 49.5291C31.2936 49.9242 31.7017 50.148 32.1225 50.148C32.3161 50.148 32.5125 50.1006 32.6944 50.001C35.3514 48.5438 37.3954 46.2773 38.591 43.6046C39.7871 46.2773 41.8306 48.5438 44.4876 50.001C44.6696 50.1006 44.8659 50.148 45.0596 50.148C45.4803 50.148 45.8884 49.9242 46.1053 49.5291C46.4218 48.952 46.2105 48.2278 45.6334 47.9114C42.5231 46.2057 40.4298 43.1573 39.9099 39.7129H45.1996C45.8577 39.7129 46.3911 39.1796 46.3911 38.5215C46.3911 37.8634 45.8577 37.3301 45.1996 37.3301H39.7824V32.3652C39.7824 31.7072 39.2491 31.1738 38.591 31.1738C37.9329 31.1738 37.3996 31.7072 37.3996 32.3652V37.3301H33.0956C32.4375 37.3301 31.9042 37.8634 31.9042 38.5215C31.9042 39.1796 32.4375 39.7129 33.0956 39.7129H37.2721C36.7522 43.1573 34.6589 46.2061 31.5486 47.9114Z" fill="#FFC444" stroke="#FFC444" stroke-width="0.5"/>
</svg>
