<?xml version="1.0" encoding="UTF-8" standalone="no"?>
<svg
   xmlns:dc="http://purl.org/dc/elements/1.1/"
   xmlns:cc="http://creativecommons.org/ns#"
   xmlns:rdf="http://www.w3.org/1999/02/22-rdf-syntax-ns#"
   xmlns:svg="http://www.w3.org/2000/svg"
   xmlns="http://www.w3.org/2000/svg"
   width="69"
   height="34"
   viewBox="0 0 18.25625 8.9958336"
   version="1.1"
   id="svg201">
  <defs
     id="defs195" />
  <metadata
     id="metadata198">
    <rdf:RDF>
      <cc:Work
         rdf:about="">
        <dc:format>image/svg+xml</dc:format>
        <dc:type
           rdf:resource="http://purl.org/dc/dcmitype/StillImage" />
        <dc:title></dc:title>
      </cc:Work>
    </rdf:RDF>
  </metadata>
  <g
     id="layer1">
    <g
       style="fill:none"
       id="g220"
       transform="matrix(0.26458333,0,0,0.26458333,0.10051904,2.9342642e-7)">
      <path
         d="m 67.9365,9.67715 c 0,0 -0.434,-5.38099 -5.6414,-5.59796 -5.0338,-0.19528 -6.5309,-0.78111 -6.5309,-0.78111 0,0 -0.1302,-1.69241 -0.8028,-2.647098 C 54.484,5.64701e-5 53.269,0.390612 53.269,0.390612 L 53.0954,3.23299 7.35702,3.31977 c 0,0 -4.92534,0.0217 -6.097,1.58392 -0.954692,1.25846 -1.2367586,8.59221 -1.2367587,12.34591 -2e-7,3.7536 0.1952737,10.5884 1.1282687,11.7817 1.19336,1.5405 6.1187,1.4972 6.1187,1.4972 l 45.69497,-0.2604 0.1302,2.8424 c 0,0 1.215,0.4122 1.6924,-0.2387 0.6943,-0.9547 0.8245,-2.6471 0.8245,-2.6471 0,0 0.8462,-0.9113 6.0536,-0.9113 5.4461,0 6.1838,-5.5763 6.1838,-5.5763 0,0 0.3254,-2.6254 0.3905,-6.7696 v -0.0868 c 0,-4.1659 -0.3037,-7.20355 -0.3037,-7.20355 z M 52.9218,4.8169 c 0,0 -4.1008,2.6471 -7.6158,3.42821 C 41.8127,9.02622 16.3398,8.37529 13.5408,7.87625 10.7635,7.35551 8.05134,4.7952 8.05134,4.7952 Z M 7.96455,29.0964 c 0,0 2.69045,-2.582 5.46775,-3.1027 2.7773,-0.5208 28.2502,-1.1934 31.7435,-0.434 3.4933,0.7594 7.6375,3.3848 7.6375,3.3848 z M 58.8018,16.8807 c -0.0217,3.1462 -0.4339,6.1187 -0.4339,6.1187 0,0 -0.933,4.448 -1.649,4.8603 -0.7161,0.4122 -6.5527,-2.6471 -6.5527,-2.6471 l 0.0868,-8.3753 v -0.217 l 0.0217,-8.37519 c 0,0 5.8583,-2.97256 6.5743,-2.56031 0.7378,0.41226 1.6057,4.8819 1.6057,4.8819 0,0 0.3688,2.9726 0.3688,6.1187 z m 4.6216,10.046 c -0.8679,-0.1953 -1.367,-1.3236 -1.0849,-2.5169 0.2604,-1.2151 1.1934,-2.0396 2.0396,-1.8443 0.8679,0.1952 1.3669,1.3235 1.0849,2.5386 -0.2604,1.215 -1.1934,2.0178 -2.0396,1.8226 z M 64.4866,10.9356 C 63.6187,11.1092 62.7074,10.2847 62.447,9.09132 62.1866,7.89795 62.6857,6.76968 63.5536,6.5744 c 0.8679,-0.19527 1.7792,0.62923 2.0395,1.84429 0.2821,1.19336 -0.2169,2.34331 -1.1065,2.51691 z"
         fill="currentColor"
         id="path203" />
      <path
         d="m 4.01512,26.753 c -0.0217,-1.5622 -0.21698,-6.0536 -0.21698,-9.8073 0,-0.0434 0,-0.1085 0,-0.1519 v -0.1519 c 0,-0.0434 0,-0.1084 0,-0.1518 0,-3.7537 0.19528,-8.2451 0.21698,-9.80732 0,-0.30376 0.32546,-0.52074 0.62923,-0.41225 0.65092,0.19528 1.90938,0.45565 2.16975,0.62923 0.13018,0.08679 0.21697,0.21697 0.21697,0.36886 0.0434,1.01978 0.21698,5.27248 0.21698,9.26488 0,0.0433 0,0.1084 0,0.1518 v 0.1519 c 0,0.0434 0,0.1085 0,0.1519 0,3.9706 -0.17358,8.2451 -0.21698,9.2648 0,0.1519 -0.08679,0.2821 -0.21697,0.3689 C 6.55373,26.7747 5.29527,27.035 4.64434,27.252 4.34058,27.2737 4.01512,27.0567 4.01512,26.753 Z"
         fill="#ffffff"
         id="path205" />
      <path
         d="M -2.80753e-5,31.3963 -2.68167e-5,2.6037 C -2.67541e-5,1.17166 1.17164,-1.85228e-6 2.60368,-1.78968e-6 L 40.9432,-1.13811e-7 C 42.3752,-5.12151e-8 43.5469,1.17167 43.5469,2.6037 V 31.3963 C 43.5469,32.8283 42.3752,34 40.9432,34 H 2.60367 C 1.17164,34 -2.81379e-5,32.8283 -2.80753e-5,31.3963 Z"
         fill="currentColor"
         id="path207" />
    </g>
    <path
       style="fill:#ffffff;stroke-width:0.0892857"
       d="m 55.917433,27.600919 c -0.946496,-0.321231 -1.85685,-0.718685 -3.794643,-1.656711 l -1.517857,-0.73475 0.02139,-6.776324 c 0.01177,-3.726978 0.04613,-7.545616 0.07637,-8.4858616 l 0.05498,-1.7095379 1.173626,-0.5597348 c 2.564429,-1.2230468 4.450912,-1.9586895 5.022866,-1.9586895 0.248268,0 0.338354,0.054108 0.483128,0.2901786 0.530452,0.8649623 1.278371,3.7915942 1.476089,5.7759842 0.300921,3.02018 0.261688,7.102844 -0.09809,10.207794 -0.212795,1.83644 -1.068878,4.913324 -1.558255,5.600591 -0.237208,0.333127 -0.376699,0.333862 -1.339608,0.0071 z"
       id="path222"
       transform="scale(0.26458333)" />
    <path
       style="fill:#ffffff;stroke-width:0.0892857"
       d="M 43.953147,6.6175738 V 4.8264531 l 4.620536,0.00193 4.620536,0.00193 -0.758929,0.4484243 c -1.124014,0.6641405 -3.667638,1.8984886 -4.6875,2.2747101 -1.126295,0.4154841 -2.313944,0.7150899 -3.147322,0.7939687 l -0.647321,0.061269 z"
       id="path224"
       transform="scale(0.26458333)" />
    <path
       style="fill:#ffffff;stroke-width:0.0892857"
       d="m 43.953147,27.179687 v -1.753908 l 0.702843,0.05862 c 1.366966,0.114 3.432848,0.826587 5.725728,1.974981 1.227393,0.614743 2.589286,1.370771 2.589286,1.437393 0,0.02025 -2.029018,0.03683 -4.508928,0.03683 h -4.508929 z"
       id="path226"
       transform="scale(0.26458333)" />
    <path
       style="fill:#ffffff;stroke-width:0.0892857"
       d="M 64.085416,10.778321 C 63.742872,10.622882 63.259665,10.074875 63.053282,9.607775 62.373653,8.0695932 63.246296,6.3257634 64.533935,6.64894 c 0.367946,0.092349 0.986515,0.7253058 1.204878,1.2329042 0.41884,0.9736207 0.320551,1.9715043 -0.25496,2.5884828 -0.271176,0.290714 -0.405002,0.362735 -0.730461,0.393109 -0.227273,0.02121 -0.514249,-0.01536 -0.667976,-0.08512 z"
       id="path228"
       transform="scale(0.26458333)" />
    <path
       style="fill:#ffffff;stroke-width:0.0892857"
       d="m 63.434882,26.699469 c -0.410106,-0.250036 -0.729727,-0.960303 -0.730863,-1.624131 -0.0021,-1.246939 0.899099,-2.481028 1.811847,-2.481028 0.886683,0 1.516964,1.126821 1.296896,2.318596 -0.279757,1.515018 -1.41916,2.371081 -2.37788,1.786563 z"
       id="path230"
       transform="scale(0.26458333)" />
  </g>
</svg>
