<?xml version="1.0" encoding="UTF-8" standalone="no"?>
<svg
   xmlns:dc="http://purl.org/dc/elements/1.1/"
   xmlns:cc="http://creativecommons.org/ns#"
   xmlns:rdf="http://www.w3.org/1999/02/22-rdf-syntax-ns#"
   xmlns:svg="http://www.w3.org/2000/svg"
   xmlns="http://www.w3.org/2000/svg"
   xmlns:sodipodi="http://sodipodi.sourceforge.net/DTD/sodipodi-0.dtd"
   xmlns:inkscape="http://www.inkscape.org/namespaces/inkscape"
   width="74"
   height="74"
   viewBox="0 0 19.579167 19.579167"
   version="1.1"
   id="svg51"
   inkscape:version="1.0.2-2 (e86c870879, 2021-01-15)"
   sodipodi:docname="test.svg">
  <defs
     id="defs45" />
  <sodipodi:namedview
     id="base"
     pagecolor="#ffffff"
     bordercolor="#666666"
     borderopacity="1.0"
     inkscape:pageopacity="0.0"
     inkscape:pageshadow="2"
     inkscape:zoom="5.6"
     inkscape:cx="45.340845"
     inkscape:cy="55.372758"
     inkscape:document-units="mm"
     inkscape:current-layer="layer1"
     inkscape:document-rotation="0"
     showgrid="false"
     units="px"
     inkscape:window-width="1920"
     inkscape:window-height="1017"
     inkscape:window-x="-8"
     inkscape:window-y="-8"
     inkscape:window-maximized="1" />
  <metadata
     id="metadata48">
    <rdf:RDF>
      <cc:Work
         rdf:about="">
        <dc:format>image/svg+xml</dc:format>
        <dc:type
           rdf:resource="http://purl.org/dc/dcmitype/StillImage" />
        <dc:title></dc:title>
      </cc:Work>
    </rdf:RDF>
  </metadata>
  <g
     inkscape:label="Layer 1"
     inkscape:groupmode="layer"
     id="layer1">
    <g
       style="fill:none"
       id="g64"
       transform="matrix(0.26458333,0,0,0.26458333,0.13259189,-0.13103472)">
      <path
         d="m 64.552,29.4816 c 0,0 -0.1386,-4.8145 -4.8313,-5.281 -4.7389,-0.4256 -14.4,0.0992 -14.4,0.0992 0,0 -0.0637,-1.5624 -0.7002,-2.3759 C 44.1848,21.3377 43.118,21.714 43.118,21.714 l -0.1819,2.5887 -21.7788,0.2259 c 0,0 -2.3725,-0.1697 -4.6025,0.1013 -2.2361,0.3573 -4.4638,-0.0212 -5.517,1.3951 -0.8623,1.1667 -1.37153,8.4152 -1.53747,11.3946 -0.01213,0.1725 -0.01441,0.822 0.00757,1.1264 0.08941,2.4299 0.42056,8.2074 1.2518,9.3344 1.0722,1.3996 3.2681,0.9969 5.5019,1.2891 2.2338,0.2922 4.6366,0.0304 4.6366,0.0304 l 21.7447,-0.3576 0.0773,2.6026 c 0,0 1.1048,0.3187 1.5329,-0.2215 0.6251,-0.8762 0.7744,-2.384 0.7744,-2.384 0,0 9.721,0.4744 14.4341,0.0326 4.7131,-0.4419 4.9662,-5.2789 4.9662,-5.2789 0,0 0.2705,-3.2336 0.3584,-6.9533 l 0.006,-0.0863 C 64.6733,32.6928 64.552,29.4816 64.552,29.4816 Z m -21.8455,-3.762 c 0,0 -3.7235,2.4002 -6.9401,3.1383 -3.1703,0.6973 -6.6014,0.1681 -9.1284,-0.2697 -2.5271,-0.4377 -4.967,-2.733 -4.967,-2.733 z M 19.5956,46.1423 C 16.9837,46.9127 15.2902,46.9524 15.1098,45.8168 14.9916,45.031 14.7893,38.654 14.684,35.8334 l 0.0061,-0.0862 c 0.1538,-2.8068 0.3864,-6.7354 0.5735,-7.5483 0.2516,-1.1126 9.618,1.9414 9.6619,2.5501 0.044,0.6086 -0.0363,5.4548 -0.0485,5.6274 l -0.0242,0.3451 c 0.0341,0.1317 -0.0462,4.9779 -0.1349,5.6228 -0.0424,0.604 -0.9327,1.5526 -2.1625,2.3966 0.0462,-0.0408 -1.8989,1.1115 -2.9598,1.4014 z m 1.8315,1.6999 c 0,0 2.4619,-2.3374 4.9692,-2.8534 2.5074,-0.5161 5.9308,-1.1133 9.1368,-0.4661 3.1597,0.6879 6.8552,3.0068 6.8552,3.0068 z m 28.7984,-11.285 c -0.0734,2.8976 -0.5728,5.686 -0.5728,5.686 0,0 -1.1146,4.1414 -1.9224,4.5315 -0.8077,0.39 -7.894,-2.4126 -7.894,-2.4126 l 0.1538,-7.7438 0.0121,-0.1726 0.0674,-7.7484 c 0,0 7.1348,-2.8247 7.9744,-2.4335 0.8396,0.3911 1.764,4.5113 1.764,4.5113 0,0 0.3706,2.748 0.3834,5.6503 z m 10.0226,9.7582 c -0.91,-0.0051 -1.6268,-0.9095 -1.548,-2.0313 -0.0076,-1.1264 0.7501,-2.0388 1.6602,-2.0336 0.91,0.0052 1.6268,0.9095 1.548,2.0313 -0.0386,1.1672 -0.7501,2.0388 -1.6602,2.0336 z m 0.2735,-15.6193 c -0.91,-0.0052 -1.6268,-0.9095 -1.5942,-1.9905 -0.0076,-1.1264 0.7501,-2.0387 1.6602,-2.0336 0.91,0.0052 1.5866,0.8641 1.5942,1.9904 -0.0326,1.081 -0.7501,2.0388 -1.6602,2.0337 z"
         fill="currentColor"
         id="path53" />
    </g>
    <path
       style="fill:#ffffff;stroke-width:0.178571"
       d="m 16.063657,45.772714 c -0.371325,-0.300681 -0.396864,-0.523624 -0.588104,-5.133929 -0.206888,-4.987523 0.0059,-11.637576 0.406087,-12.690107 0.174543,-0.459082 0.21095,-0.469555 1.203525,-0.34623 1.300048,0.161529 4.851375,1.179212 6.725411,1.927263 l 1.440983,0.57519 -0.04177,5.851527 c -0.04743,6.644417 -0.01024,6.455099 -1.499485,7.632283 -2.375596,1.877801 -6.551769,3.070581 -7.646647,2.184003 z"
       id="path66"
       transform="scale(0.26458333)" />
    <path
       style="fill:#ffffff;stroke-width:0.178571"
       d="m 46.498324,45.908944 c -0.689279,-0.186538 -2.323911,-0.73032 -3.632515,-1.208404 l -2.37928,-0.869244 0.01562,-3.023912 c 0.0086,-1.663151 0.06833,-5.172241 0.132752,-7.797978 l 0.117136,-4.774066 0.999762,-0.377759 c 2.610425,-0.986344 5.705876,-1.944737 6.287877,-1.94681 0.613886,-0.0022 0.667587,0.04762 1.104579,1.024487 0.806072,1.801919 1.182422,3.685768 1.346713,6.741072 0.0845,1.571428 0.127654,3.138392 0.0959,3.482142 -0.03175,0.34375 -0.147111,1.46875 -0.256349,2.5 -0.297349,2.807088 -1.584324,6.448195 -2.315931,6.552229 -0.144664,0.02057 -0.826982,-0.11522 -1.516261,-0.301757 z"
       id="path68"
       transform="scale(0.26458333)" />
    <path
       style="fill:#ffffff;stroke-width:0.178571"
       d="m 30.162273,28.472461 c -3.353508,-0.432205 -5.590974,-1.233159 -7.142857,-2.556955 l -0.625,-0.53314 10.178571,-0.0027 10.178572,-0.0027 -0.803571,0.46823 c -1.304867,0.760328 -3.584871,1.782796 -4.918273,2.205599 -0.981197,0.311123 -1.768111,0.405332 -3.742442,0.448041 -1.375,0.02974 -2.78125,0.01783 -3.125,-0.02647 z"
       id="path70"
       transform="scale(0.26458333)" />
    <path
       style="fill:#ffffff;stroke-width:0.178571"
       d="m 22.780671,46.778194 c 1.054068,-0.837668 2.571727,-1.693314 3.542316,-1.997133 2.753996,-0.862073 7.713939,-1.161054 9.881807,-0.595667 1.521094,0.396707 3.60112,1.241642 5.097331,2.070606 l 1.229138,0.680994 -7.836281,0.109734 c -4.309954,0.06035 -8.903736,0.143749 -10.208405,0.185323 l -2.372125,0.07559 z"
       id="path72"
       transform="scale(0.26458333)" />
    <path
       style="fill:#ffffff;stroke-width:0.178571"
       d="m 22.785508,46.774351 c 1.049554,-0.834082 2.568505,-1.689976 3.537479,-1.99329 2.753996,-0.862073 7.713939,-1.161054 9.881807,-0.595667 1.521106,0.39671 3.601122,1.241643 5.097367,2.070625 l 1.229173,0.681014 -7.657745,0.109875 c -4.211759,0.06043 -8.803381,0.142088 -10.203604,0.181459 l -2.54586,0.07158 z"
       id="path76"
       transform="scale(0.26458333)" />
  </g>
</svg>
