<svg width="65" height="30" version="1.1" viewBox="0 0 17.198 7.9375" xmlns="http://www.w3.org/2000/svg"><g transform="matrix(.26458 0 0 .26458 -.027401 2.2162e-6)" style="fill:none"><path d="m52.151 29.685c0.6312-0.8679 0.7496-2.4065 0.7496-2.4065s0.7692-0.8284 5.5033-0.8284c4.951 0 5.6216-5.0694 5.6216-5.0694s0.3156-2.4459 0.3748-6.2134v-0.0789c0-3.7675-0.2762-6.5487-0.2762-6.5487s-0.3945-4.8918-5.1285-5.0891c-4.5762-0.17753-5.9372-0.7101-5.9372-0.7101s-0.0987-1.5386-0.7101-2.4065c-0.4537-0.57203-1.5583-0.2367-1.5583-0.2367l-0.1578 2.584-43.158 0.0789s-4.4776 0.01972-5.5427 1.4399c-0.86791 1.1441-1.1243 7.8111-1.1243 11.224 0 3.4124 0.17752 9.6258 1.0257 10.711 1.0849 1.4202 5.5625 1.361 5.5625 1.361l43.119-0.2367 0.1184 2.584c-0.0197 0.0394 1.1046 0.4142 1.5188-0.1578zm8.7185-9.4089c0.789 0.1776 1.2427 1.2033 0.9863 2.3079-0.2367 1.1046-1.0849 1.8344-1.8542 1.6569-0.789-0.1776-1.2427-1.2033-0.9863-2.2881 0.2367-1.1046 1.0849-1.8542 1.8542-1.6767zm1.1243-12.88c0.2367 1.1046-0.1972 2.1303-1.0059 2.2881-0.7891 0.1578-1.6175-0.59176-1.8542-1.6766s0.217-2.1106 1.006-2.2881c0.789-0.1578 1.6372 0.57203 1.8541 1.6766zm-7.9689-2.4459c0.6707 0.3945 1.4597 4.4381 1.4597 4.4381s0.3353 2.7023 0.3353 5.5625v0.138c-0.0197 2.8602-0.3945 5.5625-0.3945 5.5625s-0.8482 4.0436-1.4991 4.4184c-0.6707 0.3748-5.9373-2.4064-5.9373-2.4064l0.0789-7.6139v-0.1973l0.0197-7.6138c-0.0394 0.03945 5.2864-2.6629 5.9373-2.2881zm-45.9-0.84818 42.35 0.01972s-3.7281 2.4065-6.9038 3.1166c-3.1757 0.7101-27.911 0.11834-30.456-0.33533-2.5446-0.4734-4.9905-2.801-4.9905-2.801zm-3.6886 20.021c-0.01972-1.4399-0.19725-5.5033-0.19725-8.9157v-0.1381-0.1381-0.138c0-3.4125 0.17753-7.4956 0.19725-8.9158 0-0.27615 0.29588-0.4734 0.57203-0.3945 0.59175 0.17753 1.7358 0.41423 1.9725 0.57203 0.11835 0.0789 0.19725 0.19725 0.19725 0.33533 0.03945 0.92707 0.19725 4.7932 0.19725 8.4226v0.1381 0.138 0.1381c0 3.6097-0.1578 7.4955-0.19725 8.4226 0 0.1381-0.0789 0.2564-0.19725 0.3353-0.2367 0.1381-1.361 0.3748-1.9725 0.5721-0.27615 0.0394-0.57203-0.1578-0.57203-0.434zm8.5607-0.7495c2.5248-0.4734 27.26-1.0849 30.436-0.3945 3.1758 0.6903 6.9433 3.0771 6.9433 3.0771l-42.35 0.1578s2.4459-2.3473 4.9707-2.8404z" fill="currentColor"/></g><path d="m6.3723 1.9544c-1.587-0.040066-2.6945-0.097794-2.9603-0.15429-0.33135-0.070448-0.67826-0.24756-1.0536-0.53793l-0.1869-0.14458 2.7659-6e-3c1.5212-0.0033 4.0177-0.0033 5.5476 0l2.7818 6e-3 -0.32894 0.18222c-0.38107 0.2111-0.63785 0.33213-0.96128 0.45309-0.35505 0.13278-0.57551 0.17597-1.0331 0.20239-0.46653 0.02694-3.492 0.026342-4.5711-9.02e-4z" style="fill:#fff;stroke-width:.023624"/><path d="m1.2017 6.448c-0.034136-0.03772-0.042999-0.13955-0.062201-0.71461-0.029071-0.8706-0.028791-2.6858 5.458e-4 -3.5399 0.018745-0.54577 0.029805-0.67905 0.058752-0.708 0.031797-0.031797 0.054196-0.030907 0.20679 0.00822 0.32566 0.08349 0.39557 0.10994 0.42916 0.16235 0.058156 0.090747 0.09304 2.0859 0.060412 3.4553-0.02078 0.87213-0.034305 1.144-0.058809 1.1823-0.023142 0.036174-0.10546 0.070003-0.30177 0.12402-0.14847 0.040855-0.27515 0.074282-0.28151 0.074282-0.00636 0-0.029473-0.019793-0.051367-0.043987z" style="fill:#fff;stroke-width:.023624"/><path d="m2.1555 6.9106c0-0.027874 0.39498-0.32251 0.57512-0.42901 0.2051-0.12126 0.39117-0.20378 0.58243-0.2583 0.2102-0.059919 0.90007-0.1039 2.5277-0.16114 1.1536-0.040567 5.1029-0.041429 5.4158-0.00119 0.23236 0.029894 0.54319 0.11825 0.86668 0.24637 0.2116 0.083805 0.80846 0.38072 1.0054 0.50017l0.14174 0.085958-1.7265 6.14e-5c-0.94958 3.31e-5 -3.4504 0.00714-5.5574 0.015785-2.107 0.00865-3.8309 0.00923-3.8309 0.00127z" style="fill:#fff;stroke-width:.023624"/><path d="m13.944 6.5651c-0.20865-0.071242-0.6566-0.27058-1.0335-0.45991l-0.21852-0.10976 2.6e-5 -0.89155c1.5e-5 -0.49035 0.0071-1.409 0.01565-2.0415l0.01562-1.15 0.36824-0.17005c0.52781-0.24374 0.92612-0.40002 1.0599-0.41587 0.11206-0.013272 0.11764-0.011044 0.16514 0.065894 0.12775 0.20692 0.31701 0.96143 0.36366 1.4498 0.04737 0.49593 0.04065 1.7924-0.01169 2.256-0.0429 0.37998-0.13056 0.77683-0.25411 1.1505-0.08109 0.24522-0.15482 0.3705-0.22313 0.37913-0.02554 0.00323-0.1368-0.024982-0.24724-0.062691z" style="fill:#fff;stroke-width:.023624"/><path d="m15.889 2.5015c-0.22704-0.13844-0.33835-0.52081-0.22407-0.76969 0.20424-0.44478 0.75403-0.10109 0.7049 0.44065-0.02746 0.30281-0.26136 0.46287-0.48083 0.32904z" style="fill:#fff;stroke-width:.023624"/><path d="m15.74 6.3356c-0.14758-0.12418-0.19562-0.32137-0.13179-0.54093 0.11078-0.38108 0.39401-0.53337 0.6031-0.32428 0.12635 0.12635 0.16204 0.29224 0.10819 0.50278-0.06833 0.26712-0.22027 0.4243-0.41016 0.4243-0.06888 0-0.11646-0.017386-0.16933-0.061873z" style="fill:#fff;stroke-width:.023624"/></svg>
