<?xml version="1.0" encoding="UTF-8" standalone="no"?>
<svg
   xmlns:dc="http://purl.org/dc/elements/1.1/"
   xmlns:cc="http://creativecommons.org/ns#"
   xmlns:rdf="http://www.w3.org/1999/02/22-rdf-syntax-ns#"
   xmlns:svg="http://www.w3.org/2000/svg"
   xmlns="http://www.w3.org/2000/svg"
   width="69"
   height="30"
   viewBox="0 0 18.25625 7.9375002"
   version="1.1"
   id="svg238">
  <defs
     id="defs232" />
  <metadata
     id="metadata235">
    <rdf:RDF>
      <cc:Work
         rdf:about="">
        <dc:format>image/svg+xml</dc:format>
        <dc:type
           rdf:resource="http://purl.org/dc/dcmitype/StillImage" />
        <dc:title></dc:title>
      </cc:Work>
    </rdf:RDF>
  </metadata>
  <g
     id="layer1">
    <g
       style="fill:none"
       id="g312"
       transform="matrix(0.26458333,0,0,0.26458333,0.11257014,-2.1369591e-6)">
      <path
         d="m 58.8909,14.9763 c 0,0.0236 0,0.0471 0,0.0707 0,1.1071 -0.0471,1.9551 -0.1178,2.5911 h 6.7135 c 1.484,0 2.6618,-1.2013 2.6618,-2.6618 0,-1.484 -1.2013,-2.6618 -2.6618,-2.6618 h -6.7135 c 0.0707,0.636 0.1178,1.484 0.1178,2.5911 0,0.0236 0,0.0471 0,0.0707 z"
         fill="currentColor"
         id="path280" />
      <path
         d="m 35.2882,23.6214 v -0.2355 h 3.6512 c 0.2827,0 0.5418,-0.0707 0.7774,-0.2121 -1.3663,-0.4004 -2.9916,-0.9186 -4.4286,-1.3898 -0.8244,-0.2826 -1.5782,-0.5418 -2.1907,-0.7538 -1.4134,-0.4946 -2.5676,-0.9186 -3.0152,-1.06 -0.2591,0.0942 -0.6124,0.212 -1.0364,0.3298 -1.3899,0.4476 -3.5099,1.1071 -5.206,1.6018 0.0236,0.8245 0.7067,1.4841 1.5548,1.4841 h 3.6512 v 0.2355 c 0,0.5889 0.4711,1.06 1.06,1.06 h 4.1459 c 0.5653,0 1.0364,-0.4711 1.0364,-1.06 z"
         fill="currentColor"
         id="path282" />
      <path
         d="m 30.0822,9.98236 c 0.424,-0.16489 1.5312,-0.54179 2.921,-1.03647 L 33.121,8.89878 C 33.8041,8.66322 34.5579,8.4041 35.3117,8.14499 36.8428,7.62675 38.4211,7.13207 39.7402,6.75517 39.5047,6.61383 39.2456,6.54316 38.9629,6.54316 H 35.3117 V 6.40182 c 0,-0.5889 -0.4711,-1.06002 -1.0601,-1.06002 h -4.1694 c -0.5889,0 -1.06,0.47112 -1.06,1.06002 V 6.54316 H 25.371 c -0.0942,0 -0.1885,0 -0.2827,0.02356 -0.7067,0.11778 -1.2485,0.73024 -1.272,1.46048 1.696,0.47113 3.8161,1.15425 5.2059,1.60182 0.424,0.14134 0.8009,0.25912 1.06,0.35334 z"
         fill="currentColor"
         id="path284" />
      <path
         d="m 33.4981,10.0061 c -0.2356,0.0706 -0.4712,0.1649 -0.6832,0.2355 -0.9187,0.3298 -1.6725,0.5889 -2.12,0.7538 -0.8952,2.6383 -0.8952,5.3002 0.0235,7.962 0.4476,0.1649 1.1778,0.424 2.0965,0.7538 0.212,0.0707 0.424,0.1413 0.6596,0.2356 3.2979,1.1542 7.5144,2.4969 8.9749,2.7089 1.1778,0.1649 3.5099,-0.7773 6.3837,-2.6383 0.4476,-0.2826 0.8245,-0.5417 1.1307,-0.7537 0.3062,-0.2121 0.5182,-0.3534 0.6596,-0.4241 0.212,-0.1178 0.636,-0.6595 1.0129,-1.696 0.1884,-0.5182 0.3298,-1.06 0.4005,-1.6254 0,-0.0471 0,-0.0707 0.0235,-0.1178 0,-0.0706 0.0236,-0.1413 0.0236,-0.1884 0,-0.0707 0,-0.1414 0.0235,-0.212 l -0.0235,-0.2591 c 0,-0.0236 0,-0.0472 0,-0.0472 v -0.0235 c 0,-0.0942 -0.0236,-0.1649 -0.0236,-0.2356 -0.0707,-0.5418 -0.212,-1.1071 -0.4004,-1.6253 L 51.6127,12.715 c -0.3533,-0.9658 -0.7773,-1.484 -0.9658,-1.6018 -0.1177,-0.0707 -0.3297,-0.212 -0.636,-0.424 -0.424,-0.2827 -0.9893,-0.6596 -1.6725,-1.08358 -2.6147,-1.62538 -4.7583,-2.4734 -5.889,-2.3085 -1.4134,0.212 -5.4415,1.48404 -8.8336,2.66185 z m 11.778,5.1352 c 0,1.2014 -0.9893,2.1907 -2.1907,2.1907 -1.2014,0 -2.1907,-0.9893 -2.1907,-2.1907 0,-1.2013 0.9893,-2.1907 2.1907,-2.1907 1.2014,0 2.1907,0.9894 2.1907,2.1907 z"
         fill="currentColor"
         id="path286" />
      <path
         d="M 7.23242,11.7256 H 2.9452 c -1.62538,0 -2.944522949,1.3191 -2.94452302,2.9445 l -2.7e-8,0.6125 C 6.76882e-4,16.9079 1.31982,18.2271 2.9452,18.2271 h 4.28722 c -0.11778,-0.9658 -0.14134,-2.073 -0.14134,-3.2743 0,-1.1778 0.02356,-2.2614 0.14134,-3.2272 z"
         fill="currentColor"
         id="path288" />
      <path
         d="m 13.9452,19.6404 c 1.4134,0.4711 6.1246,1.6725 7.2789,1.6725 0.7067,0 5.253,-1.4134 8.2446,-2.3792 -0.1177,-0.3533 -0.212,-0.7302 -0.3062,-1.0836 -0.212,-0.9658 -0.3298,-1.9316 -0.3298,-2.8974 0,-0.9422 0.0943,-1.8609 0.3063,-2.8032 0.0942,-0.3769 0.1884,-0.7538 0.3062,-1.1307 -2.9916,-0.9893 -7.538,-2.37915 -8.2447,-2.37915 -1.1542,0 -5.8654,1.20137 -7.2788,1.67245 -1.1072,0.3769 -1.5783,1.1307 -1.6018,1.1543 l -0.5183,-0.3062 -0.0471,0.0706 v -0.0706 c 0,0 -1.95514,-1.31919 -3.08584,-1.17785 C 8.40954,10.9717 8.19754,12.4558 8.17398,14.8585 v 0.212 c 0,2.4027 0.23556,3.8867 0.49468,4.8761 1.1307,0.1413 3.08584,-1.1778 3.08584,-1.1778 v -0.0707 l 0.0471,0.0707 0.5183,-0.2827 c 0.0235,0.0471 0.4946,0.8009 1.6253,1.1543 z"
         fill="currentColor"
         id="path290" />
      <path
         d="m 54.3677,14.9766 c 0,2.2143 0.8009,3.3921 1.6725,4.0046 0.9894,0.7302 2.073,0.7067 2.0965,0.7067 l -0.212,-0.4476 C 57.5478,18.3687 57.3358,17.45 57.3358,16.4842 V 13.469 c 0,-0.9422 0.1885,-1.8845 0.5889,-2.756 l 0.212,-0.4712 c 0,0 -0.9422,-0.0235 -1.8845,0.5654 -0.9422,0.6124 -1.8845,1.7903 -1.8845,4.1694 z"
         fill="currentColor"
         id="path292" />
      <path
         d="m 49.1615,29.6048 -0.3062,-0.424 c 0,-0.0235 -0.0236,-0.0471 -0.0236,-0.0471 -0.0471,-0.1178 -0.0235,-0.2827 0.0707,-0.3769 0,0 3.769,-5.1117 3.769,-5.253 v -0.0471 c -0.0707,-0.9894 -0.1885,-2.6854 -0.3063,-4.3579 -0.0235,-0.1649 -0.0235,-0.3298 -0.0471,-0.4947 -0.0235,-0.3062 -0.0471,-0.6125 -0.0706,-0.9187 -0.0236,-0.0942 -0.0236,-0.212 -0.0236,-0.3062 -0.0235,-0.3298 -0.0235,-0.636 -0.0235,-0.9187 0,-0.6831 0.0706,-1.1543 0.1413,-1.4605 -0.0707,-0.3062 -0.1413,-0.7774 -0.1413,-1.4605 0,-0.2827 0,-0.5889 0.0235,-0.9187 0,-0.0942 0,-0.212 0.0236,-0.3062 0.0235,-0.3062 0.0471,-0.6125 0.0706,-0.9187 0.0236,-0.1649 0.0236,-0.3298 0.0471,-0.4947 0.1414,-1.67245 0.2592,-3.3685 0.3063,-4.35786 V 6.49623 c 0,-0.14134 -3.769,-5.25303 -3.769,-5.25303 -0.0707,-0.09422 -0.0942,-0.259119 -0.0707,-0.3769 0,-0.023556 0.0236,-0.047108 0.0236,-0.047108 l 0.3062,-0.424015 c 0.3062,-0.40045503 0.5418,-0.565344 0.8951,-0.164889 0.2827,0.329786 4.1695,5.512142 4.2402,5.865482 0,0.04711 0.0235,0.14134 0.0235,0.40046 0,1.13069 -0.1413,4.31077 -0.2591,6.59577 -0.0471,0.7773 -0.0707,1.4604 -0.0942,1.908 0.0235,0.4711 0.0471,1.1307 0.0942,1.9081 0.1178,2.2849 0.2591,5.465 0.2591,6.5957 0,0.2591 0,0.3533 -0.0235,0.4004 -0.0707,0.3769 -3.9575,5.5593 -4.2402,5.8655 -0.3533,0.4005 -0.5889,0.2356 -0.8951,-0.1649 z"
         fill="currentColor"
         id="path294" />
    </g>
    <path
       style="fill:#ffffff;stroke-width:0.126269"
       d="m 42.541634,17.003593 c -0.635746,-0.335829 -1.017007,-0.915061 -1.087893,-1.652784 -0.07256,-0.755109 0.123728,-1.258847 0.681257,-1.748365 0.848659,-0.745132 1.902144,-0.744529 2.75191,0.0016 0.555773,0.487975 0.751957,0.992333 0.679464,1.74679 -0.142975,1.487961 -1.712856,2.345779 -3.024738,1.652784 z"
       id="path314"
       transform="scale(0.26458333)" />
  </g>
</svg>
