<svg width="64" height="64" viewBox="0 0 64 64" fill="none" xmlns="http://www.w3.org/2000/svg">
<circle opacity="0.2" cx="32" cy="32" r="32" fill="#61BBD6"/>
<path d="M56.4 26.0965C56.3821 25.3648 56.3821 24.6332 56.3821 23.9016C56.3821 23.0451 56.2215 22.8309 55.4185 22.5811C53.4378 21.9565 51.4571 21.332 49.4763 20.7074L48.2807 20.3327C48.1737 20.297 48.0666 20.2613 47.9595 20.2256C47.674 20.1186 47.3707 20.0115 47.0495 19.9758C46.9424 19.9579 46.8353 19.9579 46.7283 19.9579C46.532 19.9579 46.3178 19.9758 46.1037 19.9936C46.0145 19.9936 45.9253 20.0115 45.836 20.0115C45.836 19.9758 45.836 19.9401 45.836 19.9044C45.8182 19.7081 45.8182 19.5118 45.8182 19.3155C45.8182 18.9765 45.8004 18.6196 45.8004 18.2806C45.7825 17.4597 45.7647 16.6032 45.836 15.7645C45.9074 15.0329 45.6397 14.2834 45.1044 13.7124C44.5691 13.1413 43.8553 12.8201 43.0523 12.8201C43.0166 12.8201 42.9809 12.8201 42.9452 12.8201C42.4456 12.838 41.8924 12.838 41.25 12.838C40.7503 12.838 40.2685 12.838 39.7689 12.8201C39.3763 12.8201 38.9837 12.8201 38.5733 12.8201H37.7882V12.2134V12.035C37.7882 11.4104 37.7882 11.0535 36.9495 11C36.8959 11 36.771 11 36.6461 11H36.3249H25.5825H25.3684C25.3148 11 25.2613 11 25.2078 11C24.4405 11.0357 23.9943 11.232 23.9765 12.1242C23.9765 12.3027 23.9587 12.6239 23.9587 12.838H23.1378C22.6739 12.838 22.2099 12.838 21.7459 12.838C21.282 12.838 20.8002 12.838 20.3362 12.838C19.6581 12.838 19.1049 12.838 18.5875 12.8558C17.0528 12.8915 16.0357 13.9265 16 15.4611C16 15.586 16 15.7288 16 15.8537C16 15.8537 16 48.6876 16 48.8304C16.0535 50.3293 17.0707 51.3465 18.5518 51.3643C19.3905 51.3821 26.9297 51.3821 27.9647 51.3643H28.3394C29.1067 51.3643 29.5707 50.9896 29.5885 50.3829C29.5885 50.133 29.4814 49.8654 29.2852 49.6691C29.0889 49.4549 28.8034 49.3479 28.5 49.3479C28.4465 49.3479 18.9979 49.3657 18.9979 49.3657C18.9087 49.3657 18.8016 49.3657 18.6945 49.3479C18.2127 49.2943 18.07 49.1516 18.0343 48.6698C18.0164 48.4913 18.0343 37.3028 18.0343 34.5905V27.5419C18.0343 23.6696 18.0343 19.8152 18.0343 15.9429C18.0343 14.9436 18.1592 14.8187 19.1585 14.8187C19.5332 14.8187 20.0864 14.8187 20.6753 14.8187C21.9601 14.8187 23.459 14.8187 23.9765 14.8187C23.9765 15.1221 23.9765 15.7466 23.9765 16.0678C23.9765 16.7102 24.1193 17.2991 25.0829 17.2991C26.8316 17.2991 29.1871 17.317 31.7389 17.317C33.5769 17.317 35.3613 17.317 36.7889 17.317C37.1636 17.317 37.4134 17.2277 37.574 17.0671C37.8238 16.7995 37.8238 16.4247 37.806 15.9251C37.806 15.818 37.806 15.711 37.806 15.6039C37.806 15.4076 37.8238 15.0507 37.8238 14.8187C38.2878 14.8187 38.7339 14.8187 39.1979 14.8187C39.7154 14.8187 40.2329 14.8187 40.7503 14.8187C41.714 14.8187 42.4813 14.8187 43.1772 14.8366C43.4984 14.8366 43.8196 14.9436 43.8375 15.6217C43.8553 16.1928 43.8553 16.7816 43.8553 17.3526C43.8553 17.5846 43.8553 17.7988 43.8553 18.0307C43.8553 18.6553 43.8553 20.7074 43.8553 20.7074C43.5876 20.7966 43.3378 20.868 43.088 20.9394C42.4099 21.1535 41.7675 21.3498 41.1251 21.564C40.5005 21.7781 39.8224 21.8852 39.0908 21.8852H39.0016C37.9844 21.8673 36.8959 21.8673 35.5754 21.8673C34.7546 21.8673 33.9159 21.8673 33.0951 21.8673L31.3463 21.8852H31.2035C31.0072 21.8852 30.811 21.8852 30.6147 21.9387C30.1507 22.0636 29.9009 22.4205 29.9009 22.9023C29.9009 23.3841 30.1864 23.741 30.6504 23.8481C30.8288 23.8837 30.9894 23.9016 31.1678 23.9016H31.3998C32.1314 23.9016 32.8631 23.9016 33.5947 23.9016C34.5048 23.9016 35.4148 23.9016 36.3249 23.9016C36.3963 23.9016 36.4677 23.9016 36.5569 23.9016C36.6283 23.9016 36.7175 23.9016 36.8067 23.9016C36.8424 23.9016 36.8781 23.9016 36.9138 23.9016C36.9138 25.9359 36.8959 29.8081 36.8959 30.6647C36.7175 30.6647 36.5569 30.6647 36.4141 30.6647C36.2535 30.6647 36.0929 30.6647 35.9145 30.6647H33.8981C33.1664 30.6647 32.4526 30.6647 31.721 30.6647C31.4712 30.6647 31.1322 30.6825 30.811 30.736C30.347 30.8253 30.0615 31.1643 30.0615 31.664C30.0436 32.1814 30.3113 32.5205 30.7753 32.6454C31.0608 32.7168 31.382 32.7168 31.614 32.7346C32.4348 32.7346 33.2735 32.7346 34.0943 32.7346C34.8438 32.7346 35.5933 32.7346 36.3428 32.7346C36.3428 32.7346 36.771 32.7346 36.8424 32.7346C36.9316 32.7346 37.003 32.7346 37.0922 32.7346C37.1101 32.7703 37.1101 32.806 37.1279 32.8238C37.1279 32.8417 37.1458 32.8595 37.1458 32.9309C37.5919 35.2507 38.5912 37.2671 40.1258 38.9267C41.0537 39.926 42.1422 40.7468 43.3556 41.3892C43.6233 41.532 43.8375 41.7283 43.8375 41.8175C43.8731 42.3885 43.8553 45.1009 43.8553 45.1009L39.5369 49.3657L32.3813 49.3836C32.2385 49.3836 32.0779 49.3836 31.9173 49.4193C31.4355 49.5085 31.0786 49.9367 31.0786 50.4185C31.0786 50.8825 31.4355 51.2929 31.9352 51.3821C32.0422 51.4 32.1493 51.4 32.2385 51.4C32.2385 51.4 38.3592 51.4 39.644 51.4C40.0901 51.4 40.4291 51.2572 40.7147 50.9717C42.3028 49.3836 43.8553 47.8311 45.3185 46.3678C45.6576 46.0466 45.8004 45.6541 45.8004 45.2079C45.7825 44.7618 45.8182 42.9417 45.8182 42.6205V42.3707C46.0859 42.4599 46.3714 42.4956 46.639 42.4956C47.1744 42.4956 47.6562 42.335 48.0131 42.2101C48.8518 41.8889 49.8154 41.5498 50.6362 41.0323C54.2051 38.8375 56.1145 35.6611 56.3286 31.5926C56.4535 29.7546 56.4357 27.8988 56.4 26.0965ZM35.7004 15.2648H26.0822L26.1 13.0521H35.7182L35.7004 15.2648ZM54.3836 30.9859C54.33 35.2685 51.5463 39.0159 47.4242 40.265C47.1565 40.3542 46.8889 40.3899 46.6569 40.3899C46.4249 40.3899 46.1929 40.3542 45.9788 40.2829C42.2136 39.0516 39.9117 36.4641 39.1087 32.5919C38.9659 31.8602 38.9481 31.0929 38.9302 30.4148C38.9124 28.9694 38.9124 27.5062 38.9124 26.0786C38.9124 25.5433 38.9124 24.9901 38.9124 24.4369C38.9481 24.4191 38.9837 24.4012 39.0373 24.3834C39.18 24.312 39.3228 24.2585 39.4477 24.2228L40.3935 23.9194C42.2493 23.3306 44.1765 22.7239 46.068 22.1528C46.2822 22.0814 46.5141 22.0458 46.7104 22.0458C46.8532 22.0458 46.9781 22.0636 47.0852 22.0993C49.0124 22.6703 50.9574 23.2949 52.8489 23.8837L54.1337 24.2942C54.1873 24.312 54.2408 24.3477 54.3122 24.3834C54.33 24.3834 54.33 24.4012 54.3479 24.4012C54.3479 24.4369 54.3479 24.4726 54.3657 24.5083C54.3836 24.6511 54.3836 24.776 54.3836 24.9187C54.3836 25.4362 54.3836 25.9537 54.3836 26.4712C54.3836 27.9523 54.4014 29.4869 54.3836 30.9859Z" fill="#444B8C"/>
<path d="M34.4336 41.6745C33.7555 41.6745 33.0774 41.6745 32.3993 41.6745H32.0246C31.6142 41.6745 31.1324 41.6567 30.6684 41.6032C30.2045 41.5318 29.9189 41.1927 29.9189 40.6752C29.9189 40.1756 30.1688 39.8365 30.6327 39.7116C30.8647 39.6581 31.0967 39.6403 31.293 39.6403C31.4714 39.6403 31.6677 39.6403 31.8462 39.6403H32.5242H37.4315H37.5207C37.5921 39.6403 37.6456 39.6403 37.717 39.6403C38.4665 39.6938 38.9304 40.1221 38.8947 40.7109C38.8769 41.2998 38.4129 41.6745 37.717 41.6924C36.7534 41.6745 35.7006 41.6745 34.4336 41.6745Z" fill="#444B8C"/>
<path d="M23.6377 45.101C23.2986 45.101 23.0131 44.869 22.6741 44.5299C22.5849 44.4407 22.4956 44.3515 22.3886 44.2623C22.1209 43.9946 21.8354 43.7269 21.5856 43.4414C21.1394 42.9239 21.1394 42.3351 21.5856 41.9246C21.764 41.764 21.9781 41.6748 22.1923 41.6748C22.4599 41.6748 22.7455 41.7997 23.0131 42.0317C23.1737 42.1566 23.3165 42.2994 23.4771 42.46C23.5306 42.5135 23.5841 42.567 23.6377 42.6206L24.173 42.0852C24.6905 41.5678 25.208 41.0681 25.7076 40.5685C25.7433 40.5328 25.779 40.4971 25.8326 40.4436C25.9753 40.283 26.1359 40.1402 26.3144 39.9974C26.4928 39.8547 26.7069 39.8011 26.9032 39.8011C27.1531 39.8011 27.385 39.9082 27.5992 40.1045C27.9382 40.4436 27.9917 40.8718 27.7598 41.3001C27.6527 41.4785 27.5099 41.6213 27.385 41.764L27.1174 42.0317C26.2965 42.8526 25.4578 43.7091 24.6191 44.5299C24.2622 44.869 23.9589 45.101 23.6377 45.101Z" fill="#444B8C"/>
<path d="M23.7444 36.1787C23.4946 36.1787 23.2626 36.0716 23.0306 35.8575C22.5845 35.4471 22.1206 35.0009 21.6923 34.5191C21.264 34.0373 21.2283 33.502 21.6031 33.0737C21.7994 32.8596 22.0313 32.7525 22.2812 32.7525C22.5488 32.7525 22.8343 32.8774 23.102 33.1094C23.1912 33.1808 23.2804 33.27 23.3518 33.3414C23.4054 33.3949 23.441 33.4306 23.4946 33.4842C23.566 33.5555 23.6373 33.6091 23.7266 33.6983L23.7622 33.734L24.2976 33.1808C24.7972 32.6633 25.279 32.1637 25.7608 31.6819L25.8322 31.6105C25.9571 31.4856 26.082 31.3428 26.2248 31.2358C26.4746 31.0216 26.7601 30.9146 27.01 30.9146C27.2419 30.9146 27.4739 31.0038 27.6524 31.1822C27.8486 31.3785 27.9557 31.6105 27.9736 31.8782C27.9736 32.1458 27.8665 32.4135 27.6524 32.6276C26.5995 33.7161 25.5289 34.8047 24.4582 35.8396C24.2441 36.0716 23.9942 36.1787 23.7444 36.1787Z" fill="#444B8C"/>
<path d="M23.6197 27.3278C23.3342 27.3278 23.0487 27.1672 22.6739 26.8103L22.6026 26.739C22.2457 26.3999 21.8709 26.043 21.5319 25.6683C21.1036 25.1865 21.0858 24.6512 21.4962 24.2407C21.6925 24.0444 21.9245 23.9374 22.1743 23.9374C22.4241 23.9374 22.6739 24.0444 22.9238 24.2407C23.013 24.3121 23.1022 24.4013 23.1736 24.4727C23.2271 24.5262 23.2628 24.5619 23.3163 24.6155C23.4056 24.6868 23.4769 24.7582 23.6019 24.8653L23.6732 24.9188L24.1015 24.4549C24.5655 23.9552 25.0116 23.4913 25.4755 23.0273C25.7254 22.7596 25.993 22.5098 26.2785 22.2957C26.4748 22.1529 26.6711 22.0815 26.8852 22.0815C27.1172 22.0815 27.3492 22.1886 27.5633 22.3849C27.9202 22.7418 27.9559 23.2236 27.6526 23.6697C27.5455 23.8303 27.4206 23.9552 27.2957 24.0801L26.7246 24.6512C26.0287 25.3649 25.2971 26.0966 24.5655 26.8103C24.2086 27.1672 23.9231 27.3278 23.6197 27.3278Z" fill="#444B8C"/>
<path d="M28.5621 51.3822C28.5264 51.3822 28.4908 51.3822 28.4729 51.3822C27.9376 51.3287 27.5628 50.9004 27.5807 50.3651C27.5985 49.8476 28.0446 49.4193 28.5443 49.4193C28.812 49.4193 29.0618 49.5264 29.2581 49.7405C29.4544 49.9368 29.5436 50.2045 29.5436 50.4721C29.5257 50.9718 29.0975 51.3822 28.5621 51.3822Z" fill="#444B8C"/>
<path d="M45.7469 34.4299C45.4614 34.4299 45.1581 34.2871 44.819 33.9481C44.6763 33.8232 44.48 33.6269 44.248 33.4127C43.6235 32.8239 42.7669 32.0387 42.41 31.6461C41.7855 30.9859 42.071 30.4862 42.2851 30.2186C42.4992 29.9866 42.7491 29.8617 43.0167 29.8617C43.2666 29.8617 43.5342 29.9687 43.784 30.1829C44.1409 30.4862 45.2295 31.5034 45.7648 31.9852C46.1574 31.5926 46.889 30.8253 47.6206 30.0937C48.4593 29.2371 49.3159 28.3627 49.6192 28.0415C49.6727 27.988 49.7263 27.9345 49.7798 27.8809C49.9404 27.7203 50.101 27.5597 50.2795 27.417C50.5114 27.2385 50.7613 27.1315 51.0111 27.1315C51.2787 27.1315 51.5286 27.2385 51.707 27.4527C52.0818 27.8452 52.0639 28.3449 51.6713 28.8089C51.4572 29.0765 51.2074 29.3085 50.9575 29.5583C50.8683 29.6475 50.7613 29.7546 50.672 29.8438C50.4401 30.0937 49.9047 30.629 49.3159 31.2357C48.3166 32.2528 47.0853 33.5377 46.6749 33.9481C46.3358 34.2871 46.0503 34.4299 45.7469 34.4299Z" fill="#444B8C"/>
</svg>
