<svg width="47" height="45" viewBox="0 0 47 45" fill="none" xmlns="http://www.w3.org/2000/svg">
<path d="M1.3335 5.31288L3.58994 1.92822L5.84638 5.31288" stroke="currentColor" stroke-width="1.5" stroke-linecap="round"/>
<path d="M27.2394 16.9595C28.214 16.9595 28.9904 17.2768 29.5684 17.9115C30.1577 18.5462 30.4524 19.3962 30.4524 20.4615V25.6975H28.2594V20.6145C28.2594 20.1045 28.1347 19.7078 27.8854 19.4245C27.636 19.1412 27.2847 18.9995 26.8314 18.9995C26.3327 18.9995 25.9417 19.1638 25.6584 19.4925C25.3864 19.8212 25.2504 20.2972 25.2504 20.9205V25.6975H23.0574V20.6145C23.0574 20.1045 22.9327 19.7078 22.6834 19.4245C22.434 19.1412 22.0827 18.9995 21.6294 18.9995C21.142 18.9995 20.751 19.1638 20.4564 19.4925C20.173 19.8212 20.0314 20.2972 20.0314 20.9205V25.6975H17.8384V17.1975H20.0314V18.0985C20.5414 17.3392 21.329 16.9595 22.3944 16.9595C23.437 16.9595 24.2077 17.3675 24.7064 18.1835C25.273 17.3675 26.1174 16.9595 27.2394 16.9595Z" fill="currentColor"/>
<path d="M32.08 17.0528V16.0228L34.47 13.5628C35.0034 13.0028 35.27 12.5361 35.27 12.1628C35.27 11.8895 35.1834 11.6695 35.01 11.5028C34.8434 11.3361 34.6267 11.2528 34.36 11.2528C33.8334 11.2528 33.4434 11.5261 33.19 12.0728L32.03 11.3928C32.25 10.9128 32.5667 10.5461 32.98 10.2928C33.3934 10.0395 33.8467 9.91279 34.34 9.91279C34.9734 9.91279 35.5167 10.1128 35.97 10.5128C36.4234 10.9061 36.65 11.4395 36.65 12.1128C36.65 12.8395 36.2667 13.5861 35.5 14.3528L34.13 15.7228H36.76V17.0528H32.08Z" fill="currentColor"/>
<rect x="8.85205" y="1.54999" width="34.603" height="34.603" rx="1.25" stroke="currentColor" stroke-width="1.5"/>
<path d="M3.5896 1.92822V39.4159C3.5896 40.5205 4.48503 41.4159 5.5896 41.4159H44.2055" stroke="currentColor" stroke-width="1.5"/>
<path d="M41.9488 39.1595L45.3335 41.4159L41.9488 43.6724" stroke="currentColor" stroke-width="1.5" stroke-linecap="round"/>
</svg>
