<svg xmlns="http://www.w3.org/2000/svg" width="173" height="135" fill="none" viewBox="0 0 173 135"><path fill="currentColor" d="M86.44 125.877c47.654 0 86.286-5.681 86.286-12.689s-38.632-12.689-86.287-12.689c-47.655 0-86.287 5.681-86.287 12.689s38.632 12.689 86.287 12.689Z"/><path fill="#E8E5E3" d="m114.91 76.23-39.157-6.218c-1.437-.237-2.443-1.603-2.206-3.04l8.854-55.946c.237-1.438 1.603-2.443 3.04-2.206l39.158 6.218c1.437.237 2.443 1.603 2.206 3.04l-8.854 55.946c-.237 1.438-1.603 2.443-3.041 2.207Z"/><path fill="#18516B" d="m112.934 22.609-26.667-4.21c-.175-.028-.32-.202-.265-.383l.37-2.315c.027-.176.201-.32.382-.266l26.667 4.21c.176.027.32.202.265.382l-.37 2.316c-.027.176-.206.292-.382.266ZM112.247 26.889l-26.667-4.21c-.176-.027-.32-.202-.266-.382l.143-.994c.026-.176.2-.32.381-.266l26.667 4.21c.176.027.32.202.266.383l-.143.993c-.026.176-.178.288-.381.266ZM117.552 44.59l-34.553-5.474c-.176-.027-.32-.202-.265-.382l.142-.994c.026-.175.201-.32.381-.265l34.554 5.473c.175.027.319.202.265.382l-.142.994c-.027.175-.206.292-.382.265ZM103.055 53.103l-21.716-3.439c-.176-.026-.32-.201-.266-.382l.143-.993c.027-.176.201-.32.382-.266l21.716 3.44c.176.026.32.201.265.381l-.142.994c-.031.148-.206.292-.382.265ZM116.21 55.168l-9.204-1.463c-.175-.027-.32-.201-.265-.382l.142-.994c.027-.175.201-.32.382-.265l9.203 1.463c.176.027.32.202.266.382l-.143.994c-.026.175-.201.32-.381.265ZM114.745 62.376 98.95 59.883c-.175-.027-.32-.201-.265-.382l.142-.994c.027-.175.201-.32.382-.265l15.795 2.493c.176.027.32.202.265.382l-.142.994c-.031.148-.206.292-.382.265ZM101.386 35.974 83.95 33.222c-.175-.027-.32-.201-.265-.382l.142-.994c.027-.175.201-.32.382-.265l17.436 2.752c.176.027.32.201.265.382l-.142.993c-.031.148-.206.293-.382.266ZM118.498 38.668l-9.878-1.575c-.175-.027-.32-.201-.265-.382l.142-.994c.027-.175.201-.32.382-.265l9.878 1.575c.176.027.32.201.266.382l-.143.994c-.026.175-.206.292-.382.265Z"/><path fill="#18516B" d="m100.618 17.66-1.645 56.148-18.037-2.86c-1.553-.256-2.638-1.731-2.382-3.284l8.453-53.258 10.857.313c1.541.011 2.79 1.366 2.754 2.942Z" opacity=".2"/><path fill="#E8E5E3" d="m90.384 84.54-44.78-1.3c-1.65-.038-2.988-1.45-2.919-3.105l1.85-64.011c.037-1.65 1.45-2.988 3.104-2.92l44.78 1.3c1.65.038 2.988 1.45 2.92 3.105l-1.887 63.985a2.997 2.997 0 0 1-3.068 2.945Z"/><path fill="#18516B" d="m80.459 24.717-30.502-.893c-.193 0-.388-.191-.357-.39l.063-2.62c0-.194.191-.388.39-.358l30.502.894c.193 0 .387.191.357.39l-.064 2.62c-.03.199-.196.356-.39.357ZM80.3 29.61l-30.503-.895c-.193.001-.387-.19-.357-.39l.03-1.132c0-.193.191-.387.39-.357l30.502.894c.193-.001.387.19.357.39l-.03 1.132c0 .193-.197.356-.39.357ZM88.78 48.701l-39.507-1.177c-.193 0-.387-.191-.357-.39l.03-1.133c0-.193.191-.387.39-.357l39.533 1.141c.193-.001.387.191.357.39l-.03 1.132a.44.44 0 0 1-.416.394ZM73.74 60.315l-24.84-.743c-.192.001-.386-.19-.356-.39l.03-1.132c-.001-.193.191-.387.39-.357l24.838.743c.193-.001.387.19.357.39l-.03 1.132c0 .193-.166.35-.39.357ZM88.797 60.747l-10.524-.312c-.193.002-.387-.19-.357-.389l.03-1.133c0-.193.191-.387.39-.357l10.524.312c.193-.001.387.19.357.39l-.03 1.132c0 .193-.165.35-.39.357ZM88.19 69.003l-18.068-.525c-.193 0-.387-.191-.357-.39l.03-1.133c0-.193.191-.387.39-.357l18.067.525c.193 0 .387.191.357.39l-.03 1.133c-.025.23-.191.387-.39.357ZM69.406 41.346l-19.947-.588c-.193.001-.387-.19-.357-.39l.03-1.132c0-.193.191-.387.39-.357l19.947.588c.193-.002.387.19.357.389l-.03 1.133c0 .193-.197.356-.39.357ZM88.962 41.904l-11.302-.338c-.193 0-.387-.191-.357-.39l.03-1.132c0-.194.191-.388.39-.357l11.302.338c.193-.001.387.191.357.39l-.03 1.132c.006.225-.16.382-.39.358Z"/><path fill="#75B5E0" d="M109.906 54.146c-.028.004-.055.01-.088-.014-.065-.045-.084-.156-.066-.216l.343-.658c.046-.065.129-.08.217-.066.065.046.084.157.066.217l-.343.657c-.074.07-.101.075-.129.08ZM126.719 62.1c-.031.006-.062.012-.099-.014-.073-.052-.095-.177-.075-.245l.274-.466c.052-.074.146-.09.245-.075.074.052.095.177.075.245l-.274.466c-.052.074-.083.08-.146.09Z" opacity=".1"/><path fill="#477B9E" d="m2.979 65.746 1.971 38.15c.108 2.092 2.049 3.687 4.332 3.569l66.326-3.427c2.284-.118 4.05-1.905 3.941-3.997l-1.971-38.15c-.108-2.092-2.048-3.687-4.332-3.57L6.92 61.75c-2.284.118-4.05 1.905-3.941 3.997Z"/><path fill="#477B9E" d="m17.346 61.21-8.488.44a1.159 1.159 0 0 1-1.223-1.102l-.176-3.396a1.159 1.159 0 0 1 1.104-1.221l8.502-.44a1.159 1.159 0 0 1 1.224 1.101l.175 3.397a1.171 1.171 0 0 1-1.117 1.221Z"/><path fill="#DBEDFF" d="m77.578 61.892.295 5.703-74.6 3.855-.294-5.704a3.789 3.789 0 0 1 3.596-3.979l67.03-3.464a3.786 3.786 0 0 1 3.973 3.589Z"/><path fill="#365E7D" d="m31.64 69.984 1.677 32.446a3.789 3.789 0 0 1-3.596 3.979l-8.1.419a3.79 3.79 0 0 0 3.595-3.98L23.54 70.403l8.1-.419Z"/><path fill="#8BCAFF" d="m31.345 64.28.295 5.704-8.1.419-.295-5.704a3.789 3.789 0 0 0-3.987-3.587l8.1-.419a3.79 3.79 0 0 1 3.987 3.588Z"/><path fill="#477B9E" d="m63.118 56 .147 2.838-27.218 1.406-.146-2.838a3.933 3.933 0 0 1 3.732-4.13l19.361-1A3.94 3.94 0 0 1 63.118 56Z"/><path fill="#3F6D8E" d="m14.1 61.378-5.242.271a1.159 1.159 0 0 1-1.223-1.1l-.176-3.397a1.159 1.159 0 0 1 1.104-1.221l5.242-.27a1.159 1.159 0 0 0-1.103 1.22l.175 3.397a1.159 1.159 0 0 0 1.224 1.1Z"/><path fill="#B5DCFF" d="M14.676 61.349a3.789 3.789 0 0 0-3.597 3.979l.295 5.704-8.1.418-.295-5.704a3.789 3.789 0 0 1 3.596-3.979l8.1-.419Z"/><path fill="#3F6D8E" d="m17.038 107.05-8.115.42a3.79 3.79 0 0 1-3.987-3.588L3.26 71.451l8.1-.418 1.677 32.445a3.807 3.807 0 0 0 4 3.572Z"/><path fill="#365E7D" d="m79.549 100.026-.269-5.187c.109 2.092-1.657 3.879-3.94 3.997l-66.327 3.427c-2.283.118-4.223-1.477-4.332-3.57l.268 5.188c.109 2.093 2.049 3.688 4.332 3.57l66.327-3.427c2.283-.118 4.049-1.905 3.94-3.998Z"/><path fill="#3F6D8E" d="M44.358 53.032a3.933 3.933 0 0 0-3.733 4.13L40.772 60l-4.74.245-.146-2.838a3.933 3.933 0 0 1 3.732-4.13l4.74-.245Z"/><path fill="#7FB3FA" d="M52.188 103.107c9.622-.497 17.02-8.683 16.523-18.284-.496-9.6-8.698-16.98-18.32-16.483-9.621.497-17.02 8.683-16.523 18.284.496 9.6 8.698 16.98 18.32 16.483Z"/><path fill="#365E7D" d="M50.181 64.27c-11.878.614-21.004 10.713-20.392 22.565.612 11.851 10.731 20.956 22.61 20.342 11.877-.614 21.004-10.713 20.391-22.564C72.178 72.76 62.06 63.656 50.181 64.27Zm2.008 38.852c-9.609.496-17.825-6.896-18.32-16.484-.496-9.587 6.915-17.787 16.523-18.284 9.609-.496 17.825 6.896 18.32 16.484.495 9.573-6.915 17.787-16.523 18.284Z"/><path fill="#294B64" d="M55.575 106.783c-1.04.212-2.1.339-3.177.394-11.878.614-21.997-8.49-22.609-20.342-.612-11.852 8.514-21.951 20.392-22.565a23.373 23.373 0 0 1 3.2.065 21.594 21.594 0 0 0-12.116 7.135c-4.753 3.335-7.732 8.95-7.411 15.155.32 6.205 3.876 11.481 8.933 14.31a21.515 21.515 0 0 0 12.788 5.848Z"/><path fill="#64A6F4" d="M55.959 102.51a17.442 17.442 0 0 1-3.77.612c-9.609.496-17.825-6.896-18.32-16.484-.496-9.587 6.914-17.787 16.523-18.284 1.293-.066 2.578.011 3.813.22-7.71 2.137-13.195 9.39-12.767 17.688.428 8.269 6.632 14.917 14.52 16.248Z"/><path fill="#64A6F4" d="M51.844 96.43c-5.918.305-10.977-4.247-11.282-10.152-.305-5.904 4.258-10.954 10.175-11.26 5.918-.305 10.977 4.247 11.282 10.151.306 5.905-4.258 10.954-10.175 11.26Z"/><path fill="#9CC5FA" d="M51.453 88.876a3.17 3.17 0 0 1-3.323-2.989 3.17 3.17 0 0 1 2.997-3.316 3.17 3.17 0 0 1 3.323 2.99 3.17 3.17 0 0 1-2.997 3.315Z"/><path fill="#7FB3FA" d="M53.01 88.365a3.108 3.108 0 0 1-1.557.511 3.17 3.17 0 0 1-3.323-2.989 3.17 3.17 0 0 1 2.997-3.316c.575-.03 1.114.1 1.602.348a3.141 3.141 0 0 0 .282 5.446Z"/><path fill="#3D8BD8" d="M55.6 95.545c-1.155.505-2.42.815-3.756.884-5.918.306-10.977-4.246-11.282-10.15-.305-5.905 4.258-10.955 10.175-11.26a10.737 10.737 0 0 1 3.828.492c-3.971 1.742-6.656 5.804-6.42 10.375.222 4.573 3.311 8.336 7.455 9.66Z"/><path fill="#272A56" d="M88.132 116.189s-6.086 1.593-11.2.329c-5.115-1.264-2.903-6.165-2.903-6.165s7.484.854 7.991 1.414c.507.56 2.086.985 2.648 1.667.563.682 3.464 2.755 3.464 2.755Z"/><path fill="#987A00" d="M116.825 98.176c.388-.383 7.126.314 10.275 2.522 3.149 2.207 1.329 8.453 1.329 8.453l-1.792 3.8-3.059-.503s-18.719-2.548-6.753-14.272ZM148.975 106.665c.016.024.191-.033.439-.14.659-.281 1.819-.913 2.078-1.466.362-.772 2.119-6.285 2.31-6.054.191.231.659 1.057.659 1.297 0 .239 3.175 3.807 3.175 3.807h2.304l.543-.689c.105-.368.764-1.454.803-2.787a3.81 3.81 0 0 0-.316-1.672c-1.111-2.543-4.541-5.284-6.173-5.748-2.936-.837-4.258 2.846-5.374 4.26-1.115 1.414-.498 9.105-.448 9.192Z"/><path fill="#272A56" d="M111.381 111.493c0 2.007-2.568 1.909-3.007 3.534-.318 1.175 1.114 4.511 2.548 5.324 1.076.61 6.75.73 8.05.73 2.636 0 5.616-4.293 5.616-9.588 0-6.418-3.341-9.508-5.616-9.806-3.856-.504-5.793.241-6.678 1.277-1.471 1.723-.913 5.219-.913 8.529Z"/><path fill="#fff" d="M118.384 116.642c-1.406 0-2.545-2.172-2.545-4.851s1.139-4.85 2.545-4.85c1.405 0 2.545 2.171 2.545 4.85s-1.14 4.851-2.545 4.851Z"/><path fill="#272A56" d="M147.919 103.466c0 1.664-.969 1.854-1.333 3.203-.264.976.74 3.319 1.704 3.966.852.573 4.93.573 6.01.573 2.183 0 4.66-3.345 4.66-7.738 0-4.393-2.756-7.952-4.66-7.952-1.098 0-4.809.022-5.543.872-1.221 1.427-.838 4.33-.838 7.076Z"/><path fill="#F2C037" d="M63.686 102.128c.143.381.415.747.367 1-.075.265-.107.54-.095.815.019.195.067.386.143.566.273.654.24.667.22 1.192 0 .353-.145 1.068-.207 1.676-.033.25-.039.503-.017.754.079.586.127 2.319 1.04 2.938.914.619.367.666 3.01 1.54 2.641.874 7.352 2.809 16.235 4.054 5.865.821 14.617 2.098 22.445.56a39.533 39.533 0 0 0 5.769-1.511c.057-1.662.119-3.704.156-5.28.029-.822.134-1.641.312-2.445.591-2.763 2.045-5.975 4.557-6.722 3.013-.896 5.396.51 6.346 2.028a16.321 16.321 0 0 1 1.432 2.975 20.45 20.45 0 0 1 1.239 6.683l22.867-5.598s-.041-.303-.081-.828a25.685 25.685 0 0 1 .044-4.341c.138-1.421.246-3.05.955-4.487 2.071-4.173 5.6-3.922 7.405-1.4.8 1.115 1.098 2.196 1.458 3.35.333 1.14.531 2.314.589 3.498l.066.944s2.945-.654 3.426-.985c.481-.331.527-.604.494-1.127-.033-.523.096-3.51.042-3.907-.053-.357-.22-.584-.615-.604a1.063 1.063 0 0 0-.145 0c-.288.021-.578.021-.866 0 .26-1.32.426-2.656.497-3.998a32.768 32.768 0 0 0-.259-3.923 38.19 38.19 0 0 0-.901-5.112c-.159-.63-.36-1.25-.601-1.855-1.911-4.65-3.448-6.454-5.249-8.302a27.181 27.181 0 0 0-6.278-4.62 29.712 29.712 0 0 0-2.666-1.288c-3.953-1.667-8.659-3.08-16.372-3.487-7.712-.407-16.69.73-21.521 1.7-4.832.97-8.481 2.35-10.76 3.968-2.28 1.62-8.833 6.845-10.867 8.83-2.033 1.986-4.875 4.808-4.875 4.808l-.371.18-.11.055-.53.26-.219.113-1.267.625-.125.063-.316.157-1.81.904-.395.199-.789.4-.388.199-.571.294c-.34.175-.66.347-.978.51l-.265.14-.323.172c-.198.106-.386.218-.562.305l-.499.28c-.204.116-.39.219-.562.328l-.27.163c-.094.06-.187.116-.272.172l-.244.157c-.04.024-.075.05-.112.074l-.106.072a8.378 8.378 0 0 0-.794.606l-.102.092a2.887 2.887 0 0 0-.14.128l-.066.061-.064.057-.015.015a.769.769 0 0 0-.578.174c-.138.129-.085 1.09-.715 1.676-.352.33-1.04.512-1.254.75l-.174.166c-.063.067-.22.07-.268.12-.415.54-1.956 1.481-1.796 2.512 0 0-.593.174-1.474 1.684-.88 1.51-.36 3.696-.215 4.078Z"/><path fill="#E3B43B" d="M127.642 89.952s1.704.23 1.605 1.307c-.099 1.077-3.145 1.28-4.21.854-1.065-.424-2.947-3.227-2.516-3.25.43-.025.696-.193 1.473.387.778.58 3.648.702 3.648.702Z"/><path fill="#D8AC3E" d="M122.521 88.627v.436l.905-.016s.913 1.369 3.252 1.369c2.247 0 2.963-1.392 3.187-2.129l-.053.017a2.855 2.855 0 0 0-.04-1.368c0 .218-.079 1.323-.757 1.852a4.073 4.073 0 0 1-.411.281 4.68 4.68 0 0 1-2.745.436c-1.395-.2-1.774-.538-2.036-.82a1.512 1.512 0 0 1-.358-.474c0 .113-.052.436-.283.436l-.661-.02Z"/><path fill="#DFAA20" d="M94.573 109.717c.312.344.867 1.421-3.154 1.209-4.02-.211-21.817-2.179-26.455-6.3-4.638-4.121 17.755.172 17.755.172l11.854 4.919Z"/><path fill="#F47958" d="M160.074 86.49c.081.586.487.97.659 1.275.248.45.694 1.83 1.383 1.795l.402-.013s-.09-.653-.22-1.54c-.177-1.151-.439-2.672-.672-3.572a1.652 1.652 0 0 0-1.381 1.072c-.151.305-.21.646-.171.983Z"/><path fill="#D59F14" d="M159.286 99.646a15.11 15.11 0 0 1 .589 3.499l.066.944s2.945-.654 3.425-.985c.481-.331.527-.604.495-1.127-.033-.523.096-3.51.041-3.907-.052-.357-.219-.584-.615-.604 0 .02-.017.044-.026.068-.288.9 0 1.473-.329 2.005-.29.471-.745 1.037-1.645 1.074a2.149 2.149 0 0 1-.376-.011c-.711-.072-1.238-.584-1.625-.956Z"/><path fill="#F9CD75" d="M157.83 93.034s-3.217-2.332-6.349 0a10.237 10.237 0 0 0-3.799 5.644s-.413-4.795 3.38-7.192c3.792-2.397 6.768 1.548 6.768 1.548Z"/><path fill="#D59F14" d="M125.405 106.27a20.462 20.462 0 0 1 1.232 6.681l22.867-5.598a24.672 24.672 0 0 1-.037-5.169c-.512 1.46-.575 3.765-2.488 4.561-2.266.943-14.345 4.009-16.571 4.297-2.227.288-3.174-1.024-3.874-2.863-.374-.988-.753-1.587-1.129-1.909Z"/><path fill="#F9CD75" d="M146.257 101.838c.179.223.279.499.285.784.026.859-.165 1.462-1.056 1.818-.999.398-13.901 4-14.34 3.905-.44-.096-.519-.454-.2-.73.318-.277 14.579-5.947 14.933-5.987a.464.464 0 0 1 .378.21ZM124.383 99.285s-3.134-2.412-7.834-.532c-4.699 1.881-6.43 6.954-6.43 6.954h-.452s.288-4.254 3.008-6.993c2.721-2.74 7.625-4.215 11.708.57Z"/><path fill="#D59F14" d="M64.1 108.131c.08.586.128 2.319 1.042 2.938.913.619.366.667 3.008 1.54 2.642.874 7.353 2.809 16.236 4.054 5.865.821 14.617 2.098 22.445.56a39.533 39.533 0 0 0 5.769-1.511c.057-1.662.119-3.704.156-5.28.029-.822.134-1.641.312-2.445a6.503 6.503 0 0 0-.878 2.156c-.703 2.902-.826 4.212-1.527 4.458-.7.246-2.635 1.308-8.492 1.512-5.857.205-6.843-.775-7.13-.939-.288-.163-1.566-.124-3.294-.124-1.729 0-6.299-.449-8.94-.859-2.642-.409-9.814-2.126-12.041-3.026-2.115-.855-5.53-1.672-6.643-3.788a3.44 3.44 0 0 0-.022.754Z"/><path fill="#F7C85F" d="M63.684 102.128c.143.381.415.747.367 1-.075.265-.107.54-.094.815 1.317.481 2.817.381 3.588.309.481-.06.97.025 1.401.244 6.808 2.615 18.886 4.141 18.886 4.141 3.514 1.961 5.606 2.578 7.956 2.251 2.35-.327 3.463-2.293 3.953-5.073.49-2.781.863-3.69 4.985-7.9 4.122-4.21 10.058-6.727 10.058-6.727.865-1.449 4.831-11.924 10.141-16.629 5.31-4.705 11.365-5.792 17.219-6.038 2.579-.107 5.605.263 7.34 1.14a29.608 29.608 0 0 0-2.666-1.288 60.786 60.786 0 0 0-1.474-.602 33.93 33.93 0 0 0-1.7-.634c-.366-.13-.74-.255-1.124-.38-3.136-1.004-6.937-1.6-12.078-1.878-6.67-.355-14.275.395-19.347 1.29a96.2 96.2 0 0 0-2.177.41c-4.831.968-8.481 2.35-10.76 3.968-2.28 1.62-8.833 6.845-10.866 8.83-2.034 1.985-4.869 4.81-4.869 4.81l-.371.18-.11.055-.53.26-.219.113-1.267.625-.125.063-.316.157-1.81.904-.395.199-.788.4-.39.199-.57.294c-.34.175-.659.347-.977.51l-.266.14-.323.172c-.197.107-.386.218-.562.305l-.499.281c-.204.115-.39.218-.562.327l-.27.163c-.094.06-.186.116-.272.172l-.244.157c-.04.024-.075.05-.112.074l-.105.072a8.399 8.399 0 0 0-.795.606l-.101.092a2.889 2.889 0 0 0-.14.128l-.067.061-.063.057-.016.015a.77.77 0 0 0-.577.174c-.139.13-.82.737-1.45 1.332l-.78.992-.078.435c-.064.068-.165-.396-.205-.346-.415.54-1.262 1.837-1.704 2.56 0 0-.584.425-1.465 1.935-.88 1.51-.36 3.696-.215 4.078Z"/><path fill="#F6C14E" d="M106.867 68.983a13.028 13.028 0 0 0 2.572 1.525c1.537.654 3.41 1.005 4.548-.456 1.074-1.379 8.004-2.615 15.44-2.804 7.732-.203 15.959.654 15.959.654l-.042-.131a33.83 33.83 0 0 0-1.7-.634c-.366-.131-.74-.255-1.124-.38-.991.046-3.599-.363-5.159-.403-5.02-.124-11.028-.366-16.766.103-7.985.647-13.728 2.526-13.728 2.526Z"/><path fill="#F9BC5E" d="m101.664 72.236 7.776-1.744 2.495-.558s8.514-4.913 16.251-4.563c6.368.29 12.374 1.626 15.451 1.757a40.13 40.13 0 0 0-1.124-.38c-3.136-1.004-6.938-1.601-12.079-1.878-6.669-.355-14.274.395-19.347 1.29-.452.144-.847.284-1.177.412-4.706 1.852-8.246 5.664-8.246 5.664Z"/><path fill="#C69D47" d="M105.722 97.063a.11.11 0 0 0 .074-.029c3.099-2.802 6.837-4.722 8.301-5.417a2.518 2.518 0 0 0 1.197-1.205c.139-.297.301-.654.483-1.057 1.623-3.565 4.999-10.985 9.224-14.72a.105.105 0 0 0 .04-.076.093.093 0 0 0-.005-.044.113.113 0 0 0-.059-.064.11.11 0 0 0-.087-.002.11.11 0 0 0-.036.024c-4.256 3.766-7.645 11.214-9.274 14.792-.183.404-.345.759-.483 1.055a2.305 2.305 0 0 1-1.098 1.1c-1.474.7-5.234 2.63-8.345 5.448a.104.104 0 0 0-.033.056.1.1 0 0 0 .004.064.109.109 0 0 0 .101.07l-.004.004Z"/><path fill="#FFD880" d="M75.625 95.54c1.856.49 1.607-.533 2.802-.164 1.195.368 2.714.939 6.008 1.052 3.294.114 6.224-.93 4.742-1.504-1.483-.573-3.918.327-7.957-3.558-1.906-1.833-1.877-4.084-1.317-5.95-1.836.912-4.287 2.14-5.96 3.039-.398.218-.75.407-1.061.586-.786 3.118 1.03 6.04 2.743 6.498Z"/><path fill="#F3F3F3" d="M102.275 101.734c-1.66 1.236-4.893 2.537-8.101 2.271-2.473-.205-2.473-.205-2.635-.695-.163-.49-.249-.9.412-1.678.661-.778 2.807-3.354 5.15-4.212 2.343-.859 7.008-.728 8.718.512 1.298.939-1.071 1.963-3.544 3.802Z"/><path fill="#D8AC3E" d="M157.904 86.823s-7.752-.394-18.807 2.589c-8.29 2.236-12.988 4.45-14.821 5.417a.216.216 0 0 0-.108.255c.014.048.045.09.087.118a.221.221 0 0 0 .144.037c.979-.09 2.532-.218 4.095-.303a4.424 4.424 0 0 0 1.821-.5c2.756-1.444 12.37-5.966 27.589-7.613Z"/><path fill="#B59048" d="m141.597 71.547 2.093 28.3a.26.26 0 0 1-.066.2.256.256 0 0 1-.088.062.261.261 0 0 1-.365-.215l-1.836-28.347h.262Z" opacity=".7"/><path fill="#272A56" d="M143.691 71.811a.663.663 0 0 0-.694.424.662.662 0 0 0-.037.287l.272 2.863.85 8.984a.653.653 0 0 0 .519.578c.091.02.185.02.276 0l10.723-2.312a1.102 1.102 0 0 0 .747-.567 1.084 1.084 0 0 0 .031-.932 19.7 19.7 0 0 0-.942-1.911 13.322 13.322 0 0 0-3.02-3.716 16.863 16.863 0 0 0-8.725-3.698ZM134.915 92.997a.463.463 0 0 0 .121-.016l3.439-.889a.44.44 0 0 0 .326-.361.432.432 0 0 0-.381-.495.439.439 0 0 0-.173.013l-3.439.889a.441.441 0 0 0-.271.201.442.442 0 0 0-.046.333.436.436 0 0 0 .424.325ZM153.956 87.673a.306.306 0 0 0 .062 0l1.976-.325a.377.377 0 0 0 .296-.43.375.375 0 0 0-.421-.309l-1.976.327a.377.377 0 0 0-.318.4.374.374 0 0 0 .379.341l.002-.004Z"/><path fill="#38385E" d="m142.961 72.521.272 2.864c.96-.513 2.748-1.101 5.33-.48 2.295.551 4.976 2.615 6.874 4.323a13.287 13.287 0 0 0-3.02-3.715 16.85 16.85 0 0 0-8.725-3.705.663.663 0 0 0-.694.426.65.65 0 0 0-.037.287Z"/><path fill="#fff" d="M153.812 107.738c-1.167 0-2.112-1.802-2.112-4.027 0-2.224.945-4.027 2.112-4.027 1.167 0 2.113 1.803 2.113 4.027 0 2.225-.946 4.027-2.113 4.027Z"/><path fill="#292955" d="M85.314 82.92a1.347 1.347 0 0 0-.371 1.05 1.342 1.342 0 0 0 .549.968c1.157.854 3.074 1.724 6.276 2.432 7.379 1.632 15.752 1.253 20.23.86a1.351 1.351 0 0 0 .966-.535 95.838 95.838 0 0 0 5.446-8.155 109.39 109.39 0 0 0 2.855-5.068 1.332 1.332 0 0 0-.204-1.528 1.342 1.342 0 0 0-.444-.318c-2.767-1.223-8.742-3.03-19.105-2.397a1.4 1.4 0 0 0-.562.159 36.135 36.135 0 0 0-3.68 2.299 74.294 74.294 0 0 0-4.551 3.487 84.384 84.384 0 0 0-7.405 6.746Z"/><path fill="#38385E" d="M97.267 72.69a67.263 67.263 0 0 1 7.438-.053c11.079.464 13.492 4.066 13.707 6.903a109.39 109.39 0 0 0 2.855-5.068 1.332 1.332 0 0 0-.204-1.528 1.342 1.342 0 0 0-.444-.318c-2.767-1.223-8.742-3.03-19.105-2.397a1.4 1.4 0 0 0-.562.159 36.147 36.147 0 0 0-3.685 2.301Z"/><path fill="#E6E3E1" d="M91.536 103.31c.165.491.165.491 2.635.696 3.208.265 6.439-1.036 8.099-2.271l.209-.153a8.608 8.608 0 0 1-2.523.512c-2.017.022-3.407-1.024-3.45-2.29a3.186 3.186 0 0 1 .942-2.5c-.123.036-.24.075-.352.116-2.35.859-4.493 3.437-5.152 4.212-.659.776-.573 1.188-.408 1.678Z"/><path fill="#F3F3F3" d="M65.28 96.3c.186.389.445.738.763 1.03.41.393 1.023.478 1.923-.446.409-.416.859-1.458 1.248-2.534.465-1.308.836-2.648.922-3.018.029-.128.037-.26.024-.39l-.015.015a.77.77 0 0 0-.578.174c-.138.129-.819.737-1.45 1.332l-.9.893c-.456.42-.884.87-1.282 1.345-.516.656-.694 1.523-.654 1.6Z"/><path fill="#E6E3E1" d="M65.33 96.377c.173.363.42.688.723.954.41.392 1.023.477 1.924-.447.408-.416.858-1.457 1.247-2.534-.305.375-.637.654-.949.632-.986-.043-.942-.872-1.478-.312s-.59 1.64-1.098 1.18c-.171-.149-.417.45-.369.527Z"/><path fill="#C69D47" d="M85.724 103.557a33.18 33.18 0 0 0 4.366-.258.117.117 0 0 0 .04-.014.112.112 0 0 0 .051-.068.11.11 0 0 0-.08-.133.105.105 0 0 0-.044-.003c-.125.02-12.62 1.827-21.302-4.465a.11.11 0 0 0-.171.063.107.107 0 0 0 .013.083.109.109 0 0 0 .029.03c5.543 4.019 12.62 4.765 17.098 4.765Z"/><path fill="#272A56" d="M122.995 87.424c.956-2.467 4.032-3.223 5.973-1.67.384.301.664.712.802 1.177.124.447.137.916.04 1.369l.052-.017c3.239-1.016 8.073-1.888 10.306-2.337a.878.878 0 0 0 .699-.92c-.244-3.227-.675-7.757-.83-9.88l-.031-.446a24.721 24.721 0 0 0-.136-1.484 1.092 1.092 0 0 0-.807-.921 1.11 1.11 0 0 0-.432-.027c-3.819.486-7.89 2.035-10.396 4.61-2.196 2.254-3.933 5.25-4.781 7.23a8.914 8.914 0 0 0-.516 1.479c-.34 1.554.057 1.837.057 1.837Z"/><path fill="#38385E" d="M123.454 84.108c.398-.515.859-1.133 1.386-1.866 6.463-8.978 13.521-7.588 15.196-7.095l-.03-.447a25.127 25.127 0 0 0-.139-1.481 1.08 1.08 0 0 0-.419-.734 1.108 1.108 0 0 0-.821-.217c-3.817.486-7.886 2.038-10.392 4.611-2.194 2.254-3.933 5.25-4.781 7.229Z"/><path fill="#EA644C" d="M160.889 87.418a6.421 6.421 0 0 1-.815-.928c.081.586.487.97.659 1.275.248.45.694 1.83 1.383 1.795l.402-.013s-.09-.653-.22-1.54c-.342.117-.803-.003-1.409-.589Z"/><path fill="#6DDBF7" d="m118.209 64.746-19.23-1.556c-.387 0-.71.25-.71.622v1.245c0 .31.258.622.581.622l19.101 1.556c1.355.124 2.388 1.182 2.388 2.488V89.51c0 .31.258.56.58.622l1.291.186a.62.62 0 0 0 .71-.622V69.723c.064-2.55-2.065-4.728-4.711-4.977Zm-62.013-3.858a3.652 3.652 0 0 0-1.226 2.738V80.55c0 .311.258.56.58.622l1.291.187a.619.619 0 0 0 .71-.622V63.626c0-.374.13-.685.452-.934.258-.248.645-.373.968-.31l13.938 1.12c.387 0 .71-.25.71-.623v-1.244c0-.311-.258-.622-.58-.622l-13.875-1.12c-1.097-.063-2.13.248-2.968.995Zm64.207 50.71v17.298c0 .746-.258 1.431-.839 1.928-.645.56-1.549.809-2.387.56l-18.069-4.417c-.387-.125-.774.186-.774.622v1.307c0 .311.194.56.516.622l17.746 4.355c.452.125.839.187 1.29.187 1.097 0 2.194-.373 3.098-.996 1.355-.995 2.065-2.551 2.065-4.168v-16.987a.611.611 0 0 0-.516-.622l-1.291-.249c-.516-.124-.839.187-.839.56Zm-62.852 4.169v-15.68c0-.31-.193-.56-.516-.622l-1.29-.249c-.388-.062-.775.249-.775.622v15.929c0 1.68 1.226 3.173 2.904 3.609l14.906 3.671c.387.124.775-.187.775-.622v-1.307a.611.611 0 0 0-.517-.622l-14.519-3.485c-.58-.186-.968-.622-.968-1.244Z"/></svg>