<svg width="119" height="68" viewBox="0 0 119 68" fill="none" xmlns="http://www.w3.org/2000/svg">
  <path d="M130.232 78.087l-49.314 51.224a3.524 3.524 0 01-4.983.095L2.54 58.746a3.523 3.523 0 01-.095-4.983L51.758 2.539a3.523 3.523 0 014.984-.095l73.396 70.66a3.523 3.523 0 01.094 4.983z" fill="#FFFFFD"/>
  <path d="M111.14 81.148l-27.889 28.969-14.407-13.87 27.889-28.969 14.407 13.87zM83.25 110.04l27.812-28.89-14.328-13.794-27.812 28.89L83.25 110.04z" fill="#636D72"/>
  <path d="M97.203 95.641l1.428 1.375-7.945 8.254a.22.22 0 00.005.311l3.798 3.656c.35.338.361.895.024 1.246l-.917.952-4.432-4.267a.221.221 0 00-.312.006l-5.063 5.259a.881.881 0 01-1.246.024L66.562 97.071a.881.881 0 01-.024-1.246l5.851-6.078a.221.221 0 00-.006-.311L32.127 50.68a.22.22 0 00-.312.006l-15.68 16.288-1.559-1.5a.881.881 0 01-.024-1.246l16.14-16.764a.88.88 0 011.245-.024l42.926 41.325a.88.88 0 01.024 1.246l-5.851 6.078a.22.22 0 00.006.311l14.077 13.553a.221.221 0 00.311-.006l13.773-14.306z" fill="#55B4F3"/>
  <path d="M30.15 33.129L6.84 57.34a.772.772 0 01-1.11-1.07l23.309-24.21a.772.772 0 011.11 1.069zm.172 24.208l-8.84 9.181a.55.55 0 01-.793-.763l8.84-9.182a.551.551 0 01.793.764zm7.632 7.348l-8.84 9.182a.55.55 0 01-.793-.764l8.84-9.182a.551.551 0 01.793.764zm26.778-43.092l-8.84 9.181a.551.551 0 01-.793-.764l8.84-9.181a.55.55 0 01.793.764zm7.633 7.348l-8.84 9.182a.551.551 0 01-.794-.764l8.84-9.182a.55.55 0 01.794.764zm9.716 9.355l-8.84 9.181a.551.551 0 01-.793-.763l8.84-9.182a.55.55 0 01.793.764zm4.516 4.347l-8.84 9.182a.55.55 0 01-.793-.764l8.84-9.182a.55.55 0 01.793.764zm2.109 2.032l-8.84 9.181a.551.551 0 01-.793-.764l8.84-9.181a.55.55 0 01.793.764zm7.686 7.398l-8.84 9.182a.55.55 0 01-.793-.764l8.84-9.182a.551.551 0 01.793.764zm-49.603-28.57L10.277 61.428l-1.226-1.18a1.047 1.047 0 01-.028-1.48l35.06-36.418a1.047 1.047 0 011.48-.028l1.226 1.18zM10.269 60.96l36.053-37.45-.989-.951a.717.717 0 00-1.012.019L9.26 58.997a.717.717 0 00.019 1.012l.989.952z" fill="#636D72"/>
  <path d="M60.65 13.493L13.197 62.786c-.4.416-1.064.428-1.48.028l-1.677-1.615 48.18-50.046a1.047 1.047 0 011.48-.028l.924.889c.415.4.428 1.064.028 1.48zM10.507 61.19l1.44 1.386a.717.717 0 001.012-.02l47.455-49.292a.717.717 0 00-.02-1.012l-.923-.89a.717.717 0 00-1.012.02L10.506 61.19z" fill="#636D72"/>
  <path d="M38.637 56.444l-16.08 16.703-7.765-7.475a1.102 1.102 0 01-.03-1.557l15.317-15.91a1.102 1.102 0 011.557-.03l6.972 6.711c.438.422.45 1.121.03 1.557zm-16.093 16.08L38.32 56.138a.663.663 0 00-.018-.934l-6.971-6.712a.663.663 0 00-.935.018L15.08 64.42a.663.663 0 00.018.935l7.447 7.17z" fill="#55B4F3"/>
  <path d="M46.934 64.428L30.853 81.132l-8.61-8.29 16.08-16.703a1.102 1.102 0 011.557-.03l7.024 6.762c.437.42.45 1.121.03 1.557zM30.84 80.51l15.775-16.386a.663.663 0 00-.017-.934l-7.024-6.762a.663.663 0 00-.934.017L22.865 72.832l7.976 7.678z" fill="#55B4F3"/>
  <path d="M62.114 79.043L46.033 95.747l-15.498-14.92 16.081-16.704a1.102 1.102 0 011.557-.03l13.911 13.393c.438.422.45 1.12.03 1.557zM46.02 95.124l15.776-16.386a.663.663 0 00-.018-.935l-13.91-13.392a.663.663 0 00-.934.018L31.158 80.815l14.863 14.31z" fill="#55B4F3"/>
  <path d="M111.305 71.71l-2.544 2.642a.055.055 0 01-.078.002l-3.762-3.622a.054.054 0 01-.002-.078l2.542-2.64a.055.055 0 01.078-.002l3.763 3.622c.023.02.023.055.003.076zm-2.585 2.526l2.466-2.561-3.684-3.546-2.465 2.561 3.683 3.546zm3.779-6.51l-1.627 1.69a.055.055 0 01-.078.002l-2.104-2.026a.054.054 0 01-.001-.078l1.627-1.69a.054.054 0 01.077-.002l2.105 2.026a.056.056 0 01.001.078zm-1.668 1.574l1.551-1.61-2.025-1.95-1.551 1.61 2.025 1.95z" fill="#636D72"/>
  <path d="M113.648 69.123l-1.337 1.389a.055.055 0 01-.078.001l-1.295-1.246a.054.054 0 01-.001-.078l1.336-1.389a.055.055 0 01.078-.001l1.295 1.246a.056.056 0 01.002.078zm-1.378 1.273l1.26-1.31-1.215-1.17-1.261 1.31 1.216 1.17zm-2.021-4.545l-1.336 1.389a.055.055 0 01-.078.001l-1.209-1.164a.054.054 0 01-.002-.078l1.337-1.388a.055.055 0 01.078-.002l1.209 1.165c.021.02.021.057.001.077zm-1.377 1.273l1.26-1.31-1.13-1.087-1.26 1.31 1.13 1.087zm-1.636 1.281l-1.934 2.01a.055.055 0 01-.078 0l-.421-.404a.054.054 0 01-.001-.078l1.934-2.009a.055.055 0 01.078-.002l.42.405a.054.054 0 01.002.078zm-1.975 1.893l1.857-1.93-.341-.328-1.858 1.93.342.328z" fill="#636D72"/>
  <path d="M106.687 68.135l-1.676 1.74a.055.055 0 01-.078.002l-1.003-.966a.054.054 0 01-.001-.078l1.676-1.74a.055.055 0 01.078-.002l1.003.966a.055.055 0 01.001.078zm-1.717 1.624l1.599-1.661-.923-.89-1.6 1.662.924.89zm8.509-4.253c-.169.176-.51.123-.759-.117s-.315-.578-.145-.754c.169-.176.51-.123.759.117s.315.578.145.754zm-.825-.794c-.127.131-.064.4.142.598.207.199.477.251.604.12.127-.132.064-.4-.142-.6-.207-.198-.477-.25-.604-.118z" fill="#636D72"/>
  <path d="M114.562 66.548c-.128.133-.487-.078-.776-.356-.289-.278-.514-.629-.385-.762.128-.134.489.076.778.354.288.278.513.63.383.764zm-1.082-1.042c-.041.043.059.295.382.607.324.311.581.4.621.359.04-.042-.057-.297-.381-.608-.324-.312-.581-.4-.622-.358zm-.883-.849c-.152.159-.375.192-.495.076-.121-.116-.095-.34.057-.498.153-.159.375-.192.496-.076.12.116.095.34-.058.498zm-.36-.347c-.108.113-.137.27-.06.342.076.074.231.04.339-.073.109-.113.137-.269.061-.342-.075-.072-.231-.04-.34.073z" fill="#636D72"/>
  <path d="M112.237 64.31a.055.055 0 01-.078.002l-.473-.455a.054.054 0 01-.001-.078.055.055 0 01.078-.002l.472.456a.054.054 0 01.002.077zm2.821 2.715a.055.055 0 01-.078.001l-.497-.478a.054.054 0 01-.001-.078.054.054 0 01.077-.001l.497.478a.055.055 0 01.002.078zm-.906-1.205a.056.056 0 01-.039.018.053.053 0 01-.055-.053l-.007-.361-.449-.433-.184.004c-.031 0-.057-.024-.056-.054 0-.03.024-.056.054-.055l.209-.004c.015 0 .028.005.039.016l.482.465c.011.01.016.024.018.038l.007.383a.083.083 0 01-.019.037zm-.339.354a.056.056 0 01-.039.018l-.383.007a.053.053 0 01-.039-.016l-.483-.465a.059.059 0 01-.017-.038l-.004-.209a.052.052 0 01.053-.055c.03 0 .057.023.056.053l.003.184.449.432.362-.007c.031 0 .056.024.055.054a.042.042 0 01-.013.042zm-.496-2.073a.059.059 0 01-.023.014l-.555.176-.25.26a.055.055 0 01-.078.002.055.055 0 01-.002-.078l.262-.271a.053.053 0 01.023-.015l.568-.18a.054.054 0 01.069.036.063.063 0 01-.014.056z" fill="#636D72"/>
  <path d="M112.069 65.396a.058.058 0 01-.055.015.056.056 0 01-.038-.068l.159-.575a.06.06 0 01.013-.024l.26-.27a.055.055 0 01.078 0 .054.054 0 01.001.077l-.25.26-.155.561a.06.06 0 01-.013.024z" fill="#636D72"/>
  <path opacity=".87" d="M49.036 37.548l-11.41 11.851a.227.227 0 01-.32-.003l-.505-.486a.227.227 0 01-.015-.32l11.409-11.852a.227.227 0 01.32.004l.505.485c.092.089.1.234.016.321zm3.886 3.742L41.514 53.14a.227.227 0 01-.32-.003l-.505-.486a.227.227 0 01-.016-.32l11.41-11.852a.227.227 0 01.32.004l.505.486c.092.088.1.233.016.32zm4.481 4.314l-11.41 11.85a.227.227 0 01-.32-.002l-.505-.486a.227.227 0 01-.015-.321l11.409-11.851a.227.227 0 01.32.003l.506.486c.093.09.099.233.015.32zm4.484 4.316L50.478 61.77a.227.227 0 01-.32-.003l-.505-.486a.227.227 0 01-.016-.32l11.41-11.852a.227.227 0 01.32.004l.505.486c.092.088.1.233.015.32zm4.481 4.314l-11.41 11.85a.227.227 0 01-.32-.003l-.505-.486a.227.227 0 01-.015-.32l11.409-11.851a.227.227 0 01.32.003l.505.486c.093.089.1.233.016.32zm4.48 4.314L59.44 70.399a.227.227 0 01-.32-.003l-.505-.486a.227.227 0 01-.016-.32l11.41-11.852a.227.227 0 01.32.004l.505.485c.094.09.1.234.015.321zm4.482 4.314L63.923 74.713a.227.227 0 01-.321-.003l-.505-.486a.227.227 0 01-.015-.32L74.49 62.053a.227.227 0 01.32.003l.505.486c.094.09.1.233.016.32zm4.65 4.475L68.57 79.188a.227.227 0 01-.321-.003l-.505-.486a.227.227 0 01-.015-.32l11.41-11.852a.227.227 0 01.32.004l.505.485c.093.09.1.234.015.321z" fill="#314EAA"/>
  <path d="M29.137 41.6l-.229.238 2.193 2.111.23-.238-2.194-2.111zM23.3 44.186l-.23.238 1.773 1.706.229-.238-1.773-1.706z" fill="#636D72"/>
  <path d="M97.182 95.664l1.428 1.375 7.946-8.254a.22.22 0 01.311-.006l3.798 3.656a.881.881 0 001.246-.024l.916-.952-4.432-4.267a.221.221 0 01-.006-.311l5.063-5.26a.881.881 0 00-.023-1.245L97.447 64.99a.881.881 0 00-1.246.024l-5.851 6.078a.22.22 0 01-.312.005L49.782 32.342a.22.22 0 01-.006-.312l15.68-16.288-1.558-1.5a.88.88 0 00-1.246.024L46.513 31.03a.881.881 0 00.024 1.246L89.463 73.6a.881.881 0 001.246-.024l5.85-6.078a.22.22 0 01.312-.005l14.078 13.552c.087.084.09.224.006.312L97.182 95.664z" fill="#FFC444"/>
  <path d="M71.872 21.924L55.79 38.627a1.102 1.102 0 01-1.557.03l-6.972-6.711a1.102 1.102 0 01-.03-1.558l15.318-15.91a1.102 1.102 0 011.557-.03l7.765 7.476zm-24.322 8.77a.663.663 0 00.018.934l6.971 6.712a.663.663 0 00.934-.018L71.25 21.935l-7.447-7.17a.663.663 0 00-.935.018L47.55 30.693z" fill="#FFC444"/>
  <path d="M80.166 29.909l-16.08 16.703a1.102 1.102 0 01-1.558.03l-7.024-6.762a1.102 1.102 0 01-.03-1.557l16.082-16.704 8.61 8.29zm-24.375 8.718a.663.663 0 00.017.934l7.024 6.762a.663.663 0 00.934-.018L79.542 29.92l-7.976-7.679-15.775 16.387z" fill="#FFC444"/>
  <path d="M95.347 44.523L79.266 61.227a1.102 1.102 0 01-1.558.03l-13.91-13.392a1.102 1.102 0 01-.03-1.558l16.08-16.704 15.499 14.92zm-31.262 2.09a.663.663 0 00.018.934l13.91 13.392a.663.663 0 00.935-.017l15.776-16.387L79.86 30.226 64.085 46.613z" fill="#FFC444"/>
  <path d="M107.351 56.08L91.27 72.785a1.102 1.102 0 01-1.557.03L78.977 62.479a1.102 1.102 0 01-.03-1.558l16.081-16.703 12.323 11.862zm-28.086 5.147a.663.663 0 00.018.934l10.735 10.335a.663.663 0 00.934-.017l15.776-16.387L95.04 44.84 79.265 61.227z" fill="#FFC444"/>
  <path d="M122.318 70.489l-9.128 9.482a1.103 1.103 0 01-1.558.03L97.934 66.812a1.102 1.102 0 01-.03-1.558l9.129-9.481 15.285 14.715zm-24.094-4.927a.663.663 0 00.017.935l13.698 13.187a.664.664 0 00.935-.017l8.822-9.165-14.65-14.104-8.823 9.164z" fill="#FFC444"/>
</svg>
