<svg width="236" height="154" viewBox="0 0 236 154" fill="none" xmlns="http://www.w3.org/2000/svg">
<path d="M21.9304 57.0157C19.6926 57.0157 17.9023 55.2353 17.9023 53.0099V17.4475C17.9023 7.87808 25.5556 0.0445557 34.9096 0.0445557H82.2165C84.4543 0.0445557 86.2445 1.8249 86.2445 4.05034C86.2445 6.27577 84.4543 8.05612 82.2165 8.05612H34.9096C29.9864 8.05612 25.9584 12.2844 25.9584 17.4475V53.0099C25.9584 55.2353 24.1682 57.0157 21.9304 57.0157Z" fill="#55D8FA"/>
<path d="M82.2613 154H34.9096C25.5108 154 17.9023 146.3 17.9023 136.864V102.014C17.9023 99.7884 19.6926 98.0081 21.9304 98.0081C24.1682 98.0081 25.9584 99.7884 25.9584 102.014V136.864C25.9584 141.894 29.9864 146.033 34.9096 146.033H82.2165C84.4543 146.033 86.2445 147.813 86.2445 150.039C86.2445 152.264 84.4991 154 82.2613 154Z" fill="#55D8FA"/>
<path d="M209.01 154H161.703C159.465 154 157.675 152.22 157.675 149.994C157.675 147.769 159.465 145.988 161.703 145.988H209.01C213.978 145.988 218.006 141.894 218.006 136.82V101.969C218.006 99.744 219.796 97.9636 222.034 97.9636C224.272 97.9636 226.062 99.744 226.062 101.969V136.82C226.017 146.345 218.409 154 209.01 154Z" fill="#55D8FA"/>
<path d="M221.989 57.0156C219.751 57.0156 217.961 55.2353 217.961 53.0098V17.4474C217.961 12.2399 213.933 8.01156 208.965 8.01156H161.703C159.465 8.01156 157.675 6.23122 157.675 4.00578C157.675 1.78035 159.465 0 161.703 0H209.01C218.409 0 226.017 7.83353 226.017 17.4029V52.9653C226.017 55.2353 224.227 57.0156 221.989 57.0156Z" fill="#55D8FA"/>
<path d="M121.96 135.351H39.0722C36.2974 135.351 34.0596 133.125 34.0596 130.366V23.6786C34.0596 20.919 36.2974 18.6936 39.0722 18.6936H121.96V135.351Z" fill="#FFD9E3"/>
<path d="M204.847 135.351H121.959V18.6936H204.847C207.622 18.6936 209.859 20.919 209.859 23.6786V130.41C209.859 133.125 207.622 135.351 204.847 135.351Z" fill="#FFD9E3"/>
<path d="M121.959 109.758C121.691 109.758 121.512 109.58 121.512 109.313V89.5515C121.512 89.2845 121.691 89.1064 121.959 89.1064C122.228 89.1064 122.407 89.2845 122.407 89.5515V109.313C122.407 109.58 122.228 109.758 121.959 109.758Z" fill="#D1BAC1"/>
<path d="M121.959 86.5694C121.691 86.5694 121.512 86.3914 121.512 86.1243V71.7035C121.512 71.4365 121.691 71.2584 121.959 71.2584C122.228 71.2584 122.407 71.4365 122.407 71.7035V86.1243C122.407 86.3469 122.228 86.5694 121.959 86.5694Z" fill="#D1BAC1"/>
<path d="M121.959 46.2891C121.691 46.2891 121.512 46.111 121.512 45.844V35.874C121.512 35.607 121.691 35.429 121.959 35.429C122.228 35.429 122.407 35.607 122.407 35.874V45.844C122.407 46.111 122.228 46.2891 121.959 46.2891Z" fill="#D1BAC1"/>
<path d="M200.194 35.4289C200.194 35.4289 200.194 35.5179 200.194 35.6069C200.149 36.0965 199.97 36.2745 199.433 36.23C199.298 36.23 198.985 36.2745 198.806 36.4081C198.761 36.4526 198.761 36.5861 198.761 36.6751C198.717 36.8086 198.448 37.1202 198.538 37.9659C198.582 38.1439 198.448 38.3664 198.403 38.5445C198.403 38.589 198.359 38.589 198.314 38.6335C198.045 38.7225 197.553 38.5445 197.419 38.2774C197.329 38.1439 197.24 38.1439 197.15 38.0994C196.882 37.9659 196.524 38.0549 196.3 37.8323C196.121 37.6988 195.897 37.6543 195.628 37.7433C195.449 37.8323 195.27 37.8769 195.047 37.8769C194.644 37.9214 194.331 38.0994 194.062 38.411C193.794 38.767 193.435 38.8115 192.988 38.678C192.809 38.6335 192.585 38.589 192.361 38.589C192.227 38.589 192.093 38.5445 191.959 38.5445C191.869 38.5445 191.153 38.589 190.884 38.5C190.437 38.3665 189.989 38.2329 189.497 38.3664C189.407 38.411 189.228 38.3665 189.184 38.2774C189.094 38.1439 189.184 38.0549 189.318 37.9659C189.452 37.8769 189.452 37.8323 189.318 37.7433C189.094 37.5653 188.87 37.3873 188.691 37.2092C188.512 37.0312 188.468 36.3636 188.154 36.7641C188.065 36.8977 187.975 36.8977 187.886 36.7641C187.796 36.5416 187.617 36.5416 187.393 36.4971C186.812 36.2745 186.812 35.7404 186.812 35.6959C186.901 35.4289 186.901 35.4289 186.633 35.2953C186.409 35.1618 186.14 35.0283 185.916 34.8503C185.827 34.7612 185.737 34.6277 185.737 34.4942C185.737 34.0936 185.379 33.8711 185.245 33.693C185.111 33.515 185.2 33.1144 185.335 33.1589C185.469 33.1589 185.558 33.1589 185.648 33.0254C185.693 32.9809 185.827 32.8919 185.872 32.9364C186.23 33.0699 186.364 32.7584 186.454 32.5358C186.543 32.3133 186.633 32.1352 186.812 31.9572C186.946 31.7792 187.035 31.5121 187.125 31.2896C187.259 31.0225 187.349 30.711 187.528 30.4439C187.617 30.3104 187.617 30.1323 187.707 30.0433C187.975 29.7763 188.065 29.3757 188.557 29.3757C188.647 29.3757 188.736 29.3312 188.826 29.2867C189.049 29.1086 189.273 28.9306 189.452 28.7081C189.542 28.5745 189.631 28.5745 189.721 28.6636C189.855 28.7971 190.034 28.7971 190.213 28.7971C190.482 28.7971 190.795 28.8416 191.063 28.9306C191.242 28.9751 191.332 28.9751 191.511 28.9306C191.69 28.8416 191.869 28.8861 192.003 29.0641C192.093 29.1532 192.182 29.2422 192.272 29.2867C192.496 29.4647 192.63 29.4647 192.764 29.2422C192.898 29.0196 193.077 28.9751 193.301 28.9306C193.614 28.8861 193.973 28.8416 194.286 28.7526C194.42 28.7081 194.554 28.5745 194.599 28.4855C194.689 28.0849 195.002 28.174 195.27 28.0849C195.494 28.0404 195.718 28.174 195.808 28.3965C195.942 28.6636 196.076 28.9306 196.21 29.1977C196.3 29.4202 196.434 29.6427 196.568 29.8208C196.747 30.1323 196.971 30.3994 197.15 30.711C197.195 30.7555 197.195 30.8 197.24 30.8445C197.598 31.0225 197.643 31.3786 197.777 31.7347C197.911 32.0462 197.911 32.3578 197.777 32.6693C197.643 33.0699 197.598 33.4705 197.643 33.8711C197.643 34.0046 197.643 34.1381 197.643 34.3162C197.643 34.3607 197.643 34.3607 197.643 34.4052C197.687 34.6722 198.224 35.1618 198.493 35.1618C198.538 35.1618 198.582 35.1618 198.627 35.1618C198.851 34.9838 199.164 34.9838 199.433 34.8058C199.522 34.7612 199.657 34.7612 199.746 34.7612C200.104 34.8058 200.149 34.8948 200.194 35.4289Z" fill="#8E7B43"/>
<path d="M199.656 50.4727H132.164C131.537 50.4727 131.045 49.9831 131.045 49.36C131.045 48.7369 131.537 48.2473 132.164 48.2473H199.656C200.282 48.2473 200.775 48.7369 200.775 49.36C200.775 49.9831 200.282 50.4727 199.656 50.4727Z" fill="#8097EC"/>
<path d="M155.528 71.659H131.941C131.315 71.659 130.822 71.1694 130.822 70.5463C130.822 69.9232 131.315 69.4336 131.941 69.4336H155.528C156.154 69.4336 156.646 69.9232 156.646 70.5463C156.646 71.1694 156.154 71.659 155.528 71.659Z" fill="#B3B2E9"/>
<path d="M85.3039 27.4619H68.789C68.3414 27.4619 67.9834 27.1059 67.9834 26.6608C67.9834 26.2157 68.3414 25.8596 68.789 25.8596H85.3039C85.7515 25.8596 86.1095 26.2157 86.1095 26.6608C86.1095 27.1059 85.7515 27.4619 85.3039 27.4619Z" fill="#8097EC"/>
<path d="M155.528 81.0949H131.941C131.315 81.0949 130.822 80.6053 130.822 79.9822C130.822 79.3591 131.315 78.8695 131.941 78.8695H155.528C156.154 78.8695 156.646 79.3591 156.646 79.9822C156.646 80.6053 156.154 81.0949 155.528 81.0949Z" fill="#B3B2E9"/>
<path d="M155.528 90.5307H131.941C131.315 90.5307 130.822 90.0411 130.822 89.418C130.822 88.7949 131.315 88.3053 131.941 88.3053H155.528C156.154 88.3053 156.646 88.7949 156.646 89.418C156.646 90.0411 156.154 90.5307 155.528 90.5307Z" fill="#B3B2E9"/>
<path d="M190.839 71.659H167.253C166.626 71.659 166.134 71.1694 166.134 70.5463C166.134 69.9232 166.626 69.4336 167.253 69.4336H190.839C191.466 69.4336 191.958 69.9232 191.958 70.5463C192.003 71.1694 191.466 71.659 190.839 71.659Z" fill="#B3B2E9"/>
<path d="M190.839 81.0949H167.253C166.626 81.0949 166.134 80.6053 166.134 79.9822C166.134 79.3591 166.626 78.8695 167.253 78.8695H190.839C191.466 78.8695 191.958 79.3591 191.958 79.9822C192.003 80.6053 191.466 81.0949 190.839 81.0949Z" fill="#B3B2E9"/>
<path d="M190.839 90.5307H167.253C166.626 90.5307 166.134 90.0411 166.134 89.418C166.134 88.7949 166.626 88.3053 167.253 88.3053H190.839C191.466 88.3053 191.958 88.7949 191.958 89.418C192.003 90.0411 191.466 90.5307 190.839 90.5307Z" fill="#B3B2E9"/>
<path d="M182.962 112.429H148.813C147.873 112.429 147.112 111.672 147.112 110.738C147.112 109.803 147.873 109.046 148.813 109.046H182.962C183.902 109.046 184.662 109.803 184.662 110.738C184.707 111.628 183.902 112.429 182.962 112.429Z" fill="#B3B2E9"/>
<path d="M177.636 33.07H158.257C157.496 33.07 156.869 32.4468 156.869 31.6902C156.869 30.9335 157.496 30.3104 158.257 30.3104H177.636C178.397 30.3104 179.023 30.9335 179.023 31.6902C179.023 32.4468 178.397 33.07 177.636 33.07Z" fill="#8097EC"/>
<path d="M198.044 60.6209H133.775C132.253 60.6209 131.045 59.4191 131.045 57.9058C131.045 56.3925 132.253 55.1908 133.775 55.1908H198C199.521 55.1908 200.73 56.3925 200.73 57.9058C200.775 59.4191 199.566 60.6209 198.044 60.6209Z" fill="#8097EC"/>
<path d="M202.073 124.313C202.073 123.556 201.222 122.977 200.103 122.799C199.835 122.755 199.611 122.621 199.477 122.399C198.984 121.42 197.418 120.708 196.21 120.708C196.075 120.708 195.896 120.708 195.762 120.752C195.493 120.797 195.18 120.663 195.001 120.485C194.509 119.995 193.837 119.684 193.032 119.684H165.865H165.731H138.743C137.893 119.684 137.177 120.04 136.684 120.574C136.46 120.797 136.192 120.93 135.879 120.886C135.744 120.886 135.61 120.841 135.476 120.841C134.267 120.841 132.701 121.642 132.298 122.621C132.209 122.888 131.94 123.022 131.672 123.067C130.553 123.245 129.747 123.868 129.747 124.58C129.747 125.336 130.597 125.915 131.716 126.093C131.985 126.138 132.209 126.271 132.343 126.494C132.835 127.473 134.402 128.185 135.61 128.185C135.744 128.185 135.923 128.185 136.058 128.14C136.326 128.096 136.639 128.23 136.819 128.408C137.311 128.897 137.982 129.209 138.788 129.209H165.776H165.91H193.077C193.927 129.209 194.643 128.853 195.135 128.319C195.359 128.096 195.628 127.962 195.941 128.007C196.075 128.007 196.21 128.051 196.344 128.051C197.552 128.051 199.119 127.25 199.521 126.271C199.611 126.004 199.88 125.871 200.148 125.826C201.267 125.648 202.073 125.069 202.073 124.313Z" fill="#414F96"/>
<path d="M151.185 26.6606H130.508V39.4791H151.185V26.6606Z" fill="#0F127B"/>
<path d="M141.517 36.8977C141.428 36.6306 141.607 36.3636 141.875 36.2745C142.144 36.1855 142.412 36.3636 142.502 36.6306C142.592 36.8977 142.457 37.1647 142.144 37.2537C142.099 37.2537 142.054 37.2537 142.01 37.2537C141.786 37.2537 141.562 37.1202 141.517 36.8977ZM139.369 37.1647C139.101 37.0757 138.966 36.7641 139.056 36.5416C139.145 36.2745 139.414 36.141 139.682 36.23C139.951 36.3191 140.085 36.6306 139.996 36.8532C139.906 37.0757 139.727 37.1647 139.548 37.1647C139.459 37.2092 139.414 37.1647 139.369 37.1647ZM143.71 35.7849C143.487 35.6069 143.442 35.2954 143.621 35.0728C143.8 34.8503 144.113 34.8058 144.337 34.9838C144.561 35.1618 144.606 35.4734 144.427 35.6959C144.337 35.8295 144.203 35.9185 144.024 35.9185C143.889 35.874 143.8 35.8295 143.71 35.7849ZM137.176 35.4734C137.042 35.2508 137.087 34.9393 137.31 34.8058C137.534 34.6722 137.847 34.7167 137.982 34.9393C138.116 35.1618 138.071 35.4734 137.847 35.6069C137.758 35.6514 137.668 35.6959 137.579 35.6959C137.445 35.6959 137.266 35.6069 137.176 35.4734ZM144.247 33.0254C144.247 32.7584 144.471 32.5358 144.74 32.5358C145.008 32.5358 145.232 32.7584 145.232 33.0254C145.232 33.2925 145.008 33.515 144.74 33.515C144.471 33.5595 144.247 33.337 144.247 33.0254ZM136.952 33.337C136.684 33.337 136.46 33.0699 136.46 32.8029C136.46 32.5358 136.729 32.3133 136.997 32.3578C137.266 32.3578 137.489 32.6248 137.445 32.8919C137.445 33.1144 137.221 33.337 136.952 33.337ZM143.8 31.3341C143.666 31.1115 143.755 30.8 143.979 30.6665C144.203 30.5329 144.516 30.6219 144.65 30.8445C144.785 31.067 144.695 31.3786 144.471 31.5121C144.382 31.5566 144.292 31.6011 144.203 31.6011C144.068 31.6011 143.889 31.5121 143.8 31.3341ZM137.534 30.9335C137.31 30.7555 137.31 30.4439 137.489 30.2214C137.668 29.9988 137.982 29.9988 138.205 30.1769C138.429 30.3549 138.429 30.6665 138.25 30.889C138.161 31.0225 138.026 31.067 137.847 31.067C137.758 31.067 137.624 31.0225 137.534 30.9335ZM142.189 29.9543C141.92 29.8208 141.831 29.5537 141.92 29.2867C142.01 29.0196 142.323 28.9306 142.592 29.0196C142.86 29.1086 142.95 29.4202 142.86 29.6873C142.771 29.8653 142.592 29.9988 142.412 29.9988C142.323 29.9543 142.278 29.9543 142.189 29.9543ZM139.459 29.3757C139.369 29.1086 139.548 28.8416 139.817 28.7526C140.085 28.7081 140.354 28.8416 140.398 29.1086C140.443 29.3757 140.309 29.6427 140.04 29.6873C139.996 29.6873 139.951 29.6873 139.906 29.6873C139.727 29.7763 139.503 29.5982 139.459 29.3757Z" fill="#FFC244"/>
<path d="M115.468 46.2891H39.8311V39.8798C39.8311 37.4318 41.8451 35.429 44.3066 35.429H111.038C113.499 35.429 115.513 37.4318 115.513 39.8798V46.2891H115.468ZM40.7262 45.3989H114.573V39.8798C114.573 37.9214 112.962 36.3191 110.993 36.3191H44.3066C42.3374 36.3191 40.7262 37.9214 40.7262 39.8798V45.3989Z" fill="#B3B2E9"/>
<path d="M59.8385 55.5024H45.2033C44.353 55.5024 43.6816 54.8347 43.6816 53.9891V53.9446C43.6816 53.0989 44.353 52.4313 45.2033 52.4313H59.8385C60.6889 52.4313 61.3602 53.0989 61.3602 53.9446V53.9891C61.3602 54.8347 60.6889 55.5024 59.8385 55.5024Z" fill="#8097EC"/>
<path d="M85.2145 55.5024H70.5793C69.729 55.5024 69.0576 54.8347 69.0576 53.9891V53.9446C69.0576 53.0989 69.729 52.4313 70.5793 52.4313H85.2145C86.0648 52.4313 86.7362 53.0989 86.7362 53.9446V53.9891C86.6914 54.8347 86.0201 55.5024 85.2145 55.5024Z" fill="#8097EC"/>
<path d="M111.084 128.541H44.2183C41.6672 128.541 39.6084 126.449 39.6084 123.912V45.1763H115.693V123.912C115.693 126.494 113.635 128.541 111.084 128.541ZM40.9511 46.5115V123.912C40.9511 125.737 42.428 127.206 44.2183 127.206H111.084C112.874 127.206 114.351 125.737 114.351 123.912V46.5115H40.9511Z" fill="#B3B2E9"/>
<path d="M115.022 99.8774H40.2793V101.213H115.022V99.8774Z" fill="#B3B2E9"/>
<path d="M115.022 72.5491H40.2793V73.8843H115.022V72.5491Z" fill="#B3B2E9"/>
<path d="M90.8085 45.8439H89.4658V127.873H90.8085V45.8439Z" fill="#B3B2E9"/>
<path d="M65.8798 45.8439H64.5371V127.873H65.8798V45.8439Z" fill="#B3B2E9"/>
<path d="M230.403 86.0353H5.59448C2.50633 86.0353 0 83.8098 0 81.0503C0 78.3352 2.55108 76.0653 5.59448 76.0653H230.358C233.447 76.0653 235.953 78.2907 235.953 81.0503C235.998 83.8098 233.491 86.0353 230.403 86.0353Z" fill="#55D8FA"/>
</svg>
