<svg width="19" height="17" viewBox="0 0 19 17" fill="none" xmlns="http://www.w3.org/2000/svg">
<path d="M2.61751 7.7479C2.8811 7.59387 3.21566 7.62468 3.45897 7.79924C3.58063 7.88139 4.78706 9.01093 5.91239 9.95564C6.70316 10.6334 6.86536 10.6744 7.50406 9.88376C10.069 6.70051 12.5731 3.78424 15.0366 0.590725C15.5841 -0.117804 15.868 -0.179415 16.5979 0.354549C17.3785 0.929587 17.8652 1.28899 18.5039 1.87429C19.1426 2.4596 19.1628 2.83954 18.5748 3.57887C15.2495 7.68629 9.15657 15.6547 8.60911 16.3016C8.05152 16.9691 6.93633 17.3901 5.88197 16.4659C3.20552 14.1452 3.0129 13.8577 0.306034 11.4446C-0.0589362 11.116 -0.119765 10.6847 0.245206 10.2945C1.08667 9.4114 1.6544 8.68234 2.51613 7.81978C2.54655 7.78897 2.57696 7.76844 2.61751 7.7479Z" fill="currentColor"/>
</svg>
