<svg width="25" height="31" viewBox="0 0 25 31" fill="none" xmlns="http://www.w3.org/2000/svg">
<path d="M11.5743 24.3978C12.1197 24.0341 12.6438 23.6491 13.2 23.3175C14.077 22.8042 14.9967 22.3764 15.8524 21.8309C16.7935 21.2427 16.9647 20.5368 16.5689 19.478C16.0449 18.0769 15.0502 17.0501 13.8738 16.2373C11.8417 14.8362 9.72401 13.5421 7.62775 12.248C6.07694 11.2961 4.53683 10.3229 3.27479 8.99665C2.04484 7.70253 0.996712 6.29076 0.943236 4.38701C0.921846 3.77738 1.15714 3.28541 1.58495 2.86829C2.65447 1.82016 3.99137 1.30679 5.39245 0.921763C9.24272 -0.137064 13.1465 -0.222625 17.0823 0.354916C18.9968 0.632992 20.8577 1.09289 22.5262 2.10893C23.0289 2.41909 23.4674 2.8576 23.8417 3.31749C24.3016 3.88434 24.3123 4.57953 23.9059 5.15707C23.4994 5.73461 22.9861 6.23728 22.4834 6.72926C22.0021 7.21055 21.4674 7.62766 20.9968 8.10895C20.4834 8.64371 20.2909 9.29611 20.6545 9.96991C21.4674 11.51 22.3337 13.0287 23.1786 14.5475C23.7882 15.6491 24.3016 16.7614 24.1732 18.0769C24.0342 19.4459 23.3497 20.5154 22.3764 21.4352C21.1786 22.5582 19.7026 23.2534 18.2374 23.9486C17.3818 24.355 16.5155 24.7186 15.6492 25.0823C15.4994 25.1464 15.2534 25.1571 15.1358 25.0716C14.0663 24.2908 12.9005 24.0983 11.6385 24.494C11.6171 24.4833 11.5957 24.4405 11.5743 24.3978ZM12.5368 1.31749C9.90583 1.30679 7.30689 1.54209 4.80421 2.4084C4.06624 2.66508 3.34966 3.0822 2.71864 3.55279C1.98067 4.09824 2.03415 4.90038 2.72934 5.51001C3.56356 6.24798 4.5903 6.62231 5.64913 6.90039C7.60636 7.40306 9.59567 7.62766 11.6171 7.69183C14.3336 7.7774 17.0288 7.57419 19.6492 6.81483C20.5369 6.55814 21.4246 6.14103 22.1946 5.62766C23.1572 4.98594 23.1358 4.06616 22.2053 3.40305C21.6278 2.98594 20.954 2.633 20.2802 2.3977C17.7668 1.54209 15.1679 1.2961 12.5368 1.31749Z" fill="currentColor"/>
<path d="M2.97559 28.1836C2.97559 26.9108 3.91676 25.9483 5.16811 25.9376C6.43014 25.9269 7.45688 26.9322 7.45688 28.1729C7.45688 29.3814 6.41945 30.4082 5.21089 30.4082C3.97024 30.4189 2.97559 29.4349 2.97559 28.1836Z" fill="currentColor"/>
<path d="M20.4941 25.9376C21.724 25.959 22.708 26.975 22.6866 28.205C22.6652 29.4242 21.6385 30.4296 20.4192 30.4189C19.1679 30.4082 18.1625 29.3601 18.1946 28.1087C18.216 26.8788 19.2427 25.9269 20.4941 25.9376Z" fill="currentColor"/>
<path d="M15.061 28.1514C15.0717 29.3814 14.077 30.3974 12.8471 30.4188C11.6171 30.4295 10.5904 29.4348 10.5797 28.2156C10.569 26.9322 11.5422 25.9375 12.8043 25.9375C14.0556 25.9375 15.061 26.9215 15.061 28.1514Z" fill="currentColor"/>
<path d="M20.6869 3.45668C18.997 3.33903 17.2858 3.15721 15.5639 3.10374C12.5157 3.01818 9.47831 3.23208 6.53712 4.14117C5.7029 4.39786 4.86867 4.69732 4.45155 5.58503C4.26974 5.03957 4.31252 4.65454 4.84728 4.32299C5.58525 3.8524 6.37669 3.38181 7.20023 3.12513C9.95959 2.26951 12.7938 2.18395 15.6601 2.38716C17.2323 2.50481 18.7618 2.76149 20.2484 3.28556C20.4195 3.33903 20.5799 3.4032 20.6869 3.45668Z" fill="currentColor"/>
</svg>
