<svg width="203" height="260" viewBox="0 0 203 260" fill="none" xmlns="http://www.w3.org/2000/svg">
<path d="M106.607 52.9836H95.6289L95.5708 25.5673L95.5127 7.56085V5.81828C95.5127 2.79784 97.9523 0.358276 100.973 0.358276C103.993 0.358276 106.433 2.79784 106.433 5.81828V5.87639V25.8577L106.607 52.9836Z" fill="#8C9799"/>
<path d="M171.08 238.857V254.075C171.08 257.27 169.047 259.826 166.549 259.826L38.1805 260C35.6829 260 33.5918 257.444 33.5918 254.25V239.031C33.5918 235.836 35.6248 233.281 38.1225 233.281L166.491 233.106C168.989 233.106 171.08 235.662 171.08 238.857Z" fill="#8C9799"/>
<path opacity="0.1" d="M171.081 247.802V254.075C171.081 257.212 169.048 259.826 166.55 259.826L38.1815 260C35.6838 260 33.5928 257.444 33.5928 254.249V247.976C33.5928 251.171 35.6258 254.888 38.1815 254.888L166.55 254.714C169.048 254.714 171.081 250.997 171.081 247.802Z" fill="#162223"/>
<path opacity="0.12" d="M172.706 246.208L33.5918 246.377L33.5938 248.003L172.708 247.834L172.706 246.208Z" fill="#00384B"/>
<path d="M180.317 58.7922L180.549 240.251C180.549 243.504 177.877 246.176 174.625 246.176L28.1912 246.35C24.9384 246.35 22.2665 243.678 22.2665 240.425L22.0342 58.9664C22.0342 55.7136 24.7061 53.0417 27.9589 53.0417L174.392 52.8674C177.645 52.8674 180.317 55.5394 180.317 58.7922Z" fill="#8C9799"/>
<path d="M50.553 246.408V249.661C50.553 250.997 49.6236 252.042 48.4619 252.042H32.2561C31.0944 252.042 30.165 250.997 30.165 249.661V246.408H50.553Z" fill="#FA6850"/>
<path d="M173.637 246.292V249.545C173.637 250.881 172.708 251.926 171.546 251.926H155.34C154.178 251.926 153.249 250.881 153.249 249.545V246.292H173.637Z" fill="#FA6850"/>
<path opacity="0.1" d="M106.607 25.8577C101.902 26.5548 98.3003 26.3224 95.6284 25.6254L95.5703 7.61895L99.2297 5.29553C99.2297 5.29553 102.308 5.46977 106.548 5.93446L106.607 25.8577Z" fill="#162223"/>
<path d="M8.26829 143.481H22.2088V206.445H8.32637C4.02805 206.445 0.484843 203.541 0.484843 199.94L0.426758 149.986C0.426758 146.443 3.91188 143.481 8.26829 143.481Z" fill="#8C9799"/>
<path d="M202.099 199.707C202.099 203.309 198.614 206.213 194.258 206.213H180.317V143.248H188.159H194.2C198.498 143.248 202.041 146.153 202.041 149.754L202.099 191.982V199.707Z" fill="#8C9799"/>
</svg>
