<svg width="39" height="24" viewBox="0 0 39 24" fill="none" xmlns="http://www.w3.org/2000/svg">
<path d="M31.4442 0H6.78611C3.04205 0 0 3.09294 0 6.89963V11.658C0 15.4647 3.04205 18.5576 6.78611 18.5576H9.65265C9.4479 17.9628 9.3309 17.3383 9.3309 16.6543C9.3309 16.2379 9.36015 15.8216 9.4479 15.4349H6.78611C4.73857 15.4349 3.04205 13.7398 3.04205 11.6283V6.86989C3.04205 4.7881 4.70932 3.0632 6.78611 3.0632H31.415C33.4625 3.0632 35.159 4.75836 35.159 6.86989V15.4647H20.5338C20.6216 15.8513 20.6508 16.2677 20.6508 16.684C20.6508 17.3383 20.5338 17.9926 20.3291 18.5874H38.2011V6.89963C38.2304 3.09294 35.1883 0 31.4442 0Z" fill="white"/>
<path d="M22.0838 15.4646C21.528 12.0148 18.5445 9.36792 14.9759 9.36792C11.4366 9.33818 8.45308 11.985 7.89732 15.4646C7.83882 15.8512 7.80957 16.2676 7.80957 16.6839C7.80957 17.3382 7.89732 17.9627 8.04357 18.5873C8.86259 21.7099 11.6706 23.9999 15.0052 23.9999C18.3397 23.9999 21.1478 21.7099 21.9668 18.5873C22.1423 17.9925 22.2301 17.3382 22.2301 16.6839C22.2008 16.2378 22.1716 15.8512 22.0838 15.4646ZM19.1295 16.6542C19.1295 17.3382 18.954 17.9925 18.6907 18.5575C18.018 19.9255 16.614 20.8772 15.0052 20.8772C13.3964 20.8772 11.9924 19.9255 11.2904 18.5575C10.9979 17.9925 10.8516 17.3382 10.8516 16.6542C10.8516 16.2378 10.9101 15.8215 11.0271 15.4348C11.5536 13.7099 13.1332 12.4311 14.9759 12.4311C16.848 12.4311 18.4275 13.7099 18.9247 15.4348C19.071 15.8512 19.1295 16.2378 19.1295 16.6542Z" fill="white"/>
</svg>
