<svg width="74" height="95" viewBox="0 0 74 95" fill="none" xmlns="http://www.w3.org/2000/svg">
    <path d="M73.7544 75.9529C73.7544 77.2629 72.4928 78.3304 70.8916 78.3304H65.8452V90.7516C65.8452 91.9646 64.8748 92.935 63.6617 92.935H63.3221V94.148C63.3221 94.6332 62.8854 94.9728 62.4002 94.9728H11.6945C11.2578 94.9728 10.9181 94.6332 10.9181 94.1965V92.9835H10.2388C9.02574 92.9835 8.0553 92.0131 8.0553 90.8001V78.3789H2.96047C2.47524 78.3789 1.99002 78.2819 1.60184 78.0878C0.679923 77.6996 0.0976562 76.9233 0.0976562 76.0014V73.1872V57.7578C0.0976562 56.4478 1.35923 55.3803 2.96047 55.3803H5.19249H8.0553L8.00678 24.5214C8.00678 23.3084 8.97722 22.338 10.1903 22.338L34.4999 22.2895L34.4514 2.78438V2.25065C34.4514 1.23173 35.6644 0.261327 36.6834 0.164287C37.8965 0.0187258 39.3521 0.989133 39.3521 2.15362V22.2895L63.6617 22.241C64.8748 22.241 65.8452 23.2114 65.8452 24.4244L65.8938 55.2833H70.9401C72.5413 55.2833 73.8029 56.3507 73.8029 57.6608L73.7544 75.9529Z" fill="currentColor"/>
</svg>
