<svg width="30" height="17" viewBox="0 0 30 17" fill="none" xmlns="http://www.w3.org/2000/svg">
<path d="M0.585353 11.4838H4.15138C4.65506 11.4838 5.0983 11.1212 5.15874 10.6377C5.56168 7.6156 7.95918 5.74191 10.8805 5.74191C13.8018 5.74191 16.1993 7.6156 16.6023 10.6377C16.6627 11.1212 17.1059 11.4838 17.6096 11.4838H23.2307C23.7948 11.4838 24.238 11.0406 24.238 10.4765V0.604412C24.238 0.282059 23.9761 0 23.6336 0H0.585353C0.263 0 0.00108867 0.261912 0.00108867 0.604412V10.8794C-0.0190584 11.2219 0.242853 11.4838 0.585353 11.4838Z" fill="currentColor"/>
<path d="M10.8591 7.63574C8.50186 7.63574 6.58789 9.54972 6.58789 11.9069C6.58789 14.2641 8.50186 16.1781 10.8591 16.1781C13.2163 16.1781 15.1302 14.2641 15.1302 11.9069C15.1302 9.54972 13.2163 7.63574 10.8591 7.63574ZM10.8591 13.156C10.1741 13.156 9.60995 12.5919 9.60995 11.9069C9.60995 11.2219 10.1741 10.6578 10.8591 10.6578C11.5441 10.6578 12.1082 11.2219 12.1082 11.9069C12.1283 12.5919 11.5642 13.156 10.8591 13.156Z" fill="currentColor"/>
<path d="M29.1543 11.4834H23.2109V9.79102H29.1543C29.6177 9.79102 30.0005 10.1738 30.0005 10.6372C30.0005 11.1207 29.6177 11.4834 29.1543 11.4834Z" fill="currentColor"/>
</svg>
