<svg width="128" height="58" viewBox="0 0 128 58" fill="none" xmlns="http://www.w3.org/2000/svg">
  <path d="M31.53 55.617c-.046 2.65-2.239 4.575-4.921 4.528-2.683-.047-4.807-2.047-4.761-4.697l.004-.261.002-.131c.04-.425.146-.848.284-1.239a4.826 4.826 0 014.602-3.127l.23.004c2.059.134 3.77 1.506 4.326 3.38.124.363.183.724.21 1.117l-.003.13c.03.1.03.197.027.296z" fill="#292A56"/>
  <path d="M28.846 55.569c-.02 1.178-.986 2.11-2.196 2.089-1.21-.021-2.143-.986-2.122-2.164.007-.425.144-.783.346-1.107.37-.615 1.064-.995 1.85-.982a2.117 2.117 0 011.813 1.079c.224.298.316.66.309 1.085z" fill="#fff"/>
  <path d="M28.573 54.451c-.098-.001-.228-.036-.326-.038a22.26 22.26 0 00-1.504-.092c-.556-.01-1.047.015-1.505.04-.098-.002-.23.028-.328.027.37-.615 1.064-.996 1.85-.982.752-.02 1.431.417 1.813 1.045z" fill="#C1BDCC"/>
  <path d="M27.08 55.57a.656.656 0 01-.665.644l-5.986-.104.19-10.96 1.407.025-.168 9.683 4.58.08c.36-.027.65.273.643.633z" fill="#737F80"/>
  <path d="M21.994 45.143l-.067 3.86a4.69 4.69 0 01-1.4-.418l.06-3.434.066-.064 1.341.023v.033z" fill="#6E797A"/>
  <path d="M58.463 46.101l-35.265-.612.065-3.697.497-.35 19.58-.708 10.985.55 4.138 4.817z" fill="#8C989A"/>
  <path d="M54.67 46.037L23.2 45.49l.064-3.696 2.093.069s.373 1.12-.04 2.29l26.268.456 2.867.77.217.658z" fill="#818D8E"/>
  <path d="M42.23 36.89l-.131.062-5.862 2.156s-.033 0-.034.033l-2.305.843-6.935-.12s2.253-3.463 5.468-3.93c3.182-.469 6.813-2.27 7.307-2.459.494-.22 2.493 3.414 2.493 3.414z" fill="#808C8E"/>
  <path d="M36.857 37.09s.86-.477 1.266-1.255c.406-.778.132-.063 1.766.03 1.634.095 1.403.254 2.078.92.065.034.097.1.129.134l-5.862 2.156c1.911-.785.623-1.986.623-1.986z" fill="#6E797A"/>
  <path d="M34.15 34.85l-12.523 5.083 1.637 1.86 29.14.9-6.1-2.953-14.357-.544 6.956-2.956L36.128 34l-1.978.85z" fill="#9CA7A7"/>
  <path d="M143.862 16.401l-.463 26.628c-.016.949-.782 1.72-1.732 1.77l-82.586 3.409h-.032a6.396 6.396 0 01-1.502-.19 5.525 5.525 0 01-1.106-.38l-24.913-14.47a1.128 1.128 0 01-.54-.959l.458-26.333 86.582-3.634 25.834 14.16z" fill="#737E7F"/>
  <path d="M58.033 19.95l-.083 4.809-.004.229-.4 23.03a7.376 7.376 0 01-1.138-.413l-24.88-14.437a1.128 1.128 0 01-.54-.959l.457-26.334L58.033 19.95z" fill="#9DA7A7"/>
  <path d="M95.118 42.028c-.123 7.066-5.97 12.135-13.101 12.011-7.132-.124-12.799-5.425-12.677-12.458l.012-.687c.444-6.733 6.197-12 13.034-11.881 6.87.119 12.404 5.549 12.613 12.326.127.199.124.428.119.69z" fill="#292A56"/>
  <path d="M143.859 16.4l-.006.36-26.099 1.085.271-15.604 2.755 1.52.033.034L143.859 16.4z" fill="#9CA7A7"/>
  <path d="M120.816 3.764l-.001.032-.178 8.374-.098 3.761-2.751.15-.949.015.233-13.445.944.279 2.767.833h.033z" fill="#9CA7A7"/>
  <path d="M143.862 16.401l-.463 26.628a1.838 1.838 0 01-1.042 1.619c-.066.031-.099.03-.165.062a1.358 1.358 0 01-.525.09L71.82 47.676l-12.706.532-.033-.001a6.396 6.396 0 01-1.502-.19l.4-23.062.005-.23.083-4.808 85.795-3.517z" fill="#8C9799"/>
  <path d="M57.95 24.725s0 .066-.004.23l-.4 23.029c-.521-.107-.878-.277-1.105-.38h-.033l-24.88-14.437a1.128 1.128 0 01-.54-.958l.221-12.726-.002.099c.103 3.503 1.428 10.136 6.802 13.468 12.593 7.81 18.416 11.708 19.941-8.325z" fill="#8E9898"/>
  <path d="M143.69 26.215l-.292 16.814a1.84 1.84 0 01-1.043 1.618c-.066.032-.098.031-.164.063a1.36 1.36 0 01-.526.089l-69.847 2.877-12.705.532h-.033a6.4 6.4 0 01-1.502-.19l.4-23.063c-.034 1.963.015 16.133 8.978 16.289 9.618.167 9.072 1.433 15.214-3.63 6.11-5.097 15.345-9.354 28.674-4.312 13.329 5.041 23.382 6.525 28.063 4.512 4.616-1.982 4.783-11.6 4.783-11.6z" fill="#828C8D"/>
  <path d="M123.794 48.872a1.08 1.08 0 01-1.459 1.087l-6.634-2.405a13.479 13.479 0 00-.931-2.896c-1.45-3.167-3.94-4.879-6.116-5.833-2.241-.988-4.136-1.119-4.136-1.119s5.387-1.182 7.802-.813a7.746 7.746 0 00-.867-.931l-.258-.267c1.045.15 2.055.396 2.998.74 0 0 .033 0 .065.033l.033.001c.13.035.26.103.39.138 1.43.58 2.505.829 3.699 1.798.032.033.065.034.064.067l.032.033c1.097.903 2.102 1.444 2.932 2.636.065.067.096.133.161.2.191.264.351.496.477.76.032.033.031.099.063.132.568 1.22 1.411 3.559 1.685 6.64z" fill="#737E7F"/>
  <path d="M121.576 44.647c-1.633 3.57-6.085-.106-6.085-.106s-.262.06-.722.118c-1.278.142-3.931.26-5.773-1.05-1.422-1.038-1.646-3.234-.343-4.75.968-1.128 2.781-1.85 5.588-1.44 1.631.257 3 .608 4.104 1.052.033.034.065.034.065.067l.032.033c1.097.903 2.102 1.444 2.932 2.636.064.067.096.133.16.2.192.264.351.496.478.76.117.755-.028 1.603-.436 2.48z" fill="#6E797A"/>
  <path d="M120.948 52.62c-.143 8.276-6.888 14.147-15.23 14.002-8.341-.144-15.007-6.38-14.864-14.623l.015-.818c.002-.13.004-.261.039-.36.121-1.339.438-2.642.885-3.845 2.16-5.754 7.827-9.812 14.337-9.731l.655.011c6.407.373 11.731 4.687 13.527 10.542.341 1.119.549 2.3.626 3.513.03.164.016 1.014.01 1.309z" fill="#292A56"/>
  <path d="M112.705 52.411c-.004.23-.008.458-.045.687-.418 3.363-3.308 5.832-6.808 5.772-3.5-.061-6.302-2.662-6.603-6.038-.03-.23-.025-.458-.021-.687.064-3.664 3.125-6.622 6.855-6.557 3.729.065 6.687 3.094 6.622 6.823z" fill="#fff"/>
  <path d="M112.708 52.41a4.791 4.791 0 01-.045.687c-.554-.108-2.763-1.063-6.688-1.131-3.926-.068-6.133.81-6.691.898a4.833 4.833 0 01-.021-.687c.064-3.664 3.125-6.621 6.855-6.557a6.647 6.647 0 016.59 6.79z" fill="#C1BDCC"/>
  <path d="M103.088 31.53c-7.687-.133-16.86 6.088-17.708 15.367-.003.163.06.296.223.364l6.2 2.856a1.424 1.424 0 001.98-.882c.97-3.157 4-9.943 12.008-11.277 7.056-1.186 14.721 2.088 16.319 4.308-.095-.165-.935-2.666-5.554-6.15-5.427-4.053-8.692-4.503-13.468-4.586z" fill="#9CA7A7"/>
  <path d="M23.19 45.817s-1.74.33-2.518-.044c0 0-.858.378-1.802.133 0 0-1.223.699-2.716.018 0 0 .667-4.504-.923-5.284-1.622-.814.938-1.293 1.82-1.147 0 0 1.088-.472 1.963.002 0 0 1.617-.823 2.13-.225.033.033 3.944.92 2.047 6.547z" fill="#292A56"/>
  <path d="M117.764 17.289l.021-1.21-.95.048.21-12.07c.087.655.292 2.033.886 3.647.531 1.416 1.387 3.034 2.703 4.497 1.958 2.194 4.936 4.045 9.541 4.55l-12.411.538z" fill="#8E9898"/>
  <path d="M57.589 45.597c-.098-.002-.163-.068-.161-.166l.391-22.54a.155.155 0 01.167-.16c.098.002.162.068.16.166l-.39 22.54c-.002.065-.07.162-.167.16zm-21.136-9.628c-.033-.001-.066-.002-.065-.034l-4.924-2.867a.88.88 0 01-.445-.793l.17-9.749c.001-.098.068-.162.166-.16.098.001.162.068.16.166l-.169 9.748a.54.54 0 00.286.496l4.924 2.867c.065.034.096.133.062.23-.067.065-.1.097-.166.096z" fill="#656B7B"/>
  <path d="M16.979 45.775c-.074.49-.055 1.275-.485 1.562-.795.543-5.994.322-6.284.055-1.384-1.333-3.361-2.415-4.623-1.357-.896.738-1.373 1.81-1.373 1.81s-2.926.8-3.46-2.352c-.18-.984-.164-1.868.045-2.617.487-1.66 2.011-2.779 5.032-3.348 4.399-.807 8.924.515 8.924.515 1.37.285 2.13 1.738 2.297 3.377.086.755.038 1.605-.073 2.355z" fill="#9CA7A7"/>
  <path d="M5.412 42.825c.984-.147.576-3.033.891-4.206.385-1.433 7.986-.058 8.647-.471.695-.414 1.307-1.778-4.156-1.872-3.566-.062-6.413-.014-6.948 2.53-.785 3.716-.402 4.312 1.566 4.019z" fill="#262955"/>
  <path d="M47.69 42.709l-19.755-.605c-.098-.002-.162-.068-.16-.166.001-.099.068-.163.166-.161l19.754.605c.098.001.162.068.16.166-.001.098-.068.162-.166.16z" fill="#656B7B"/>
  <path d="M117.786 16.08l-.021 1.21-59.732 2.66L37.768 9.227c.454.204 16.497 7.256 42.295 6.493 26.159-.789 36.719-.213 36.925-12.088 0 0-.002.131.025.426l-.209 12.071.982-.048z" fill="#707A7B"/>
  <path d="M95.059 38.684c1.754-1.695 2.75-3.511 2.222-4.057-.527-.546-2.377.385-4.131 2.08-1.755 1.695-2.75 3.51-2.223 4.057.527.546 2.377-.386 4.132-2.08zm48.803-22.283L118.06 2.242 31.446 5.876 58.034 19.95l85.828-3.549zm-9.596-1.41l-17.257.682-.328.027-57.401 2.243a1.177 1.177 0 01-.359-.072L39.397 7.813c-.325-.169-.218-.658.142-.684l77.51-3.17 17.534 9.696c.649.338.403 1.283-.317 1.336z" fill="#BAC4C4"/>
  <path d="M16.978 45.774c-.074.49-.055 1.276-.486 1.563-.794.542-5.993.32-6.283.054-1.384-1.333-3.361-2.414-4.623-1.356-.897.737-1.373 1.808-1.373 1.808s-2.927.8-3.46-2.35c-.18-.985-.165-1.868.045-2.617.018.818.396 1.643 1.664 2.123 2.99 1.164 2.513-1.495 5.959-.159 3.445 1.336 8.033.925 8.257-.674a1.3 1.3 0 01.406-.746c.052.754.005 1.604-.106 2.354z" fill="#8C989A"/>
  <path d="M117.203 4.484l-.193 11.122-.328.027.194-11.155c.002-.098.068-.162.166-.16.099.001.163.068.161.166z" fill="#656B7B"/>
</svg>
