<svg width="16" height="18" viewBox="0 0 16 18" fill="none" xmlns="http://www.w3.org/2000/svg">
<path d="M2.23071 3.46143L2.99994 15.7691C3.03648 16.4803 3.55379 16.9999 4.23071 16.9999H11.3076C11.9873 16.9999 12.4949 16.4803 12.5384 15.7691L13.3076 3.46143" stroke="#343948" stroke-linecap="round" stroke-linejoin="round"/>
<path d="M1 3.46143H14.5385H1Z" fill="#343948"/>
<path d="M1 3.46143H14.5385" stroke="#343948" stroke-miterlimit="10" stroke-linecap="round"/>
<path d="M10.5385 5.92308L10.2308 14.5385M5.30769 3.46154V1.92308C5.30734 1.80176 5.33097 1.68157 5.37723 1.56941C5.4235 1.45726 5.49148 1.35536 5.57726 1.26957C5.66305 1.18379 5.76495 1.11581 5.8771 1.06955C5.98926 1.02328 6.10945 0.999649 6.23077 1H9.30769C9.42901 0.999649 9.54921 1.02328 9.66136 1.06955C9.77351 1.11581 9.87541 1.18379 9.9612 1.26957C10.047 1.35536 10.115 1.45726 10.1612 1.56941C10.2075 1.68157 10.2311 1.80176 10.2308 1.92308V3.46154H5.30769ZM7.76923 5.92308V14.5385V5.92308ZM5 5.92308L5.30769 14.5385L5 5.92308Z" stroke="#343948" stroke-linecap="round" stroke-linejoin="round"/>
</svg>
