<svg width="171" height="569" viewBox="0 0 171 569" fill="none" xmlns="http://www.w3.org/2000/svg">
<path d="M89.6068 396.246H80.4456L80.3971 373.367L80.3486 358.341V356.887C80.3486 354.366 82.3845 352.33 84.905 352.33C87.4255 352.33 89.4614 354.366 89.4614 356.887V356.935V373.609L89.6068 396.246Z" fill="#8C9799"/>
<path d="M143.41 551.356V564.056C143.41 566.722 141.713 568.854 139.629 568.854L32.506 569C30.4217 569 28.6768 566.867 28.6768 564.201V551.501C28.6768 548.836 30.3733 546.703 32.4576 546.703L139.581 546.557C141.665 546.557 143.41 548.69 143.41 551.356Z" fill="#8C9799"/>
<path opacity="0.1" d="M143.41 558.821V564.056C143.41 566.673 141.713 568.855 139.629 568.855L32.506 569C30.4217 569 28.6768 566.867 28.6768 564.201V558.966C28.6768 561.632 30.3733 564.734 32.506 564.734L139.629 564.589C141.713 564.589 143.41 561.487 143.41 558.821Z" fill="#162223"/>
<path opacity="0.12" d="M144.766 557.49L28.6758 557.631L28.6774 558.989L144.768 558.847L144.766 557.49Z" fill="#00384B"/>
<path d="M151.117 401.093L151.311 552.52C151.311 555.234 149.082 557.464 146.367 557.464L24.1693 557.609C21.4548 557.609 19.2251 555.379 19.2251 552.665L19.0312 401.238C19.0312 398.524 21.261 396.294 23.9754 396.294L146.173 396.149C148.888 396.149 151.117 398.379 151.117 401.093Z" fill="#8C9799"/>
<path d="M42.8301 557.657V560.372C42.8301 561.487 42.0545 562.359 41.0851 562.359H27.5614C26.592 562.359 25.8164 561.487 25.8164 560.372V557.657H42.8301Z" fill="#FA6850"/>
<path d="M145.543 557.561V560.275C145.543 561.39 144.767 562.262 143.798 562.262H130.274C129.305 562.262 128.529 561.39 128.529 560.275V557.561H145.543Z" fill="#FA6850"/>
<path opacity="0.1" d="M89.6062 373.609C85.6799 374.191 82.6747 373.997 80.445 373.416L80.3965 358.389L83.4502 356.45C83.4502 356.45 86.0192 356.596 89.5577 356.984L89.6062 373.609Z" fill="#162223"/>
<path d="M7.54372 471.766H19.177V524.309H7.59219C4.00526 524.309 1.04847 521.886 1.04847 518.88L1 477.194C1 474.238 3.90832 471.766 7.54372 471.766Z" fill="#8C9799"/>
<path d="M169.295 518.686C169.295 521.691 166.387 524.115 162.751 524.115H151.118V471.571H157.662H162.703C166.29 471.571 169.247 473.995 169.247 477L169.295 512.239V518.686Z" fill="#8C9799"/>
<path opacity="0.1" d="M169.295 518.686C169.295 521.691 166.387 524.115 162.751 524.115H151.118V471.571H157.662C157.856 471.668 157.953 471.717 157.953 471.717C157.953 471.717 154.123 497.455 157.274 509.767C159.601 518.977 165.805 514.857 169.295 512.239V518.686Z" fill="#162223"/>
<path opacity="0.1" d="M1 518.88C1 521.885 3.90832 524.309 7.54372 524.309H19.177V471.765H12.6333C12.4394 471.862 12.3424 471.911 12.3424 471.911C12.3424 471.911 16.1717 497.649 13.021 509.961C10.6944 519.171 4.48998 515.099 1 512.433V518.88Z" fill="#162223"/>
<path opacity="0.1" d="M80.4453 380.589C80.4453 380.589 80.4453 390.284 85.0501 390.284C89.655 390.284 89.655 380.589 89.655 380.589V396.246H80.4938L80.4453 380.589Z" fill="#162223"/>
<path opacity="0.1" d="M139.727 411.611L139.872 542.05C139.872 544.425 138.03 546.315 135.752 546.315L34.6396 546.46C32.3614 546.46 30.5194 544.57 30.5194 542.195L30.374 411.757C30.374 409.382 32.216 407.491 34.4941 407.491L135.607 407.346C137.885 407.346 139.727 409.236 139.727 411.611Z" fill="#162223"/>
<g opacity="0.5">
<path opacity="0.13" d="M51.4107 475.74L50.7321 535.264H49.7142L49.2295 475.74L50.0535 423.002H51.0714L51.4107 475.74Z" fill="#00384B"/>
<path opacity="0.13" d="M86.2623 475.74L85.5837 535.264H84.5658L84.0811 475.74L84.9051 423.002H85.923L86.2623 475.74Z" fill="#00384B"/>
<path opacity="0.13" d="M121.114 475.74L120.435 535.264H119.417L118.884 475.74L119.756 423.002H120.774L121.114 475.74Z" fill="#00384B"/>
</g>
<path d="M155.432 123.113V154.589C155.376 156.319 154.093 157.714 152.474 157.938C152.307 157.938 152.195 157.993 152.028 157.993H19.2042C19.0368 157.993 18.9252 157.993 18.7577 157.938C17.0835 157.714 15.8557 156.319 15.7999 154.589L15.7441 123.169C15.7441 123.169 15.5767 116.026 15.6325 105.31C15.6325 104.975 15.6325 104.641 15.6325 104.306C15.6325 101.181 15.6883 97.7204 15.7999 94.0929C15.7999 93.8138 15.7999 93.479 15.7999 93.1441C15.8557 89.9072 15.9673 86.5029 16.1348 82.987C16.1348 82.5406 16.1906 82.0941 16.1906 81.6476C16.1906 81.257 16.2464 80.8105 16.2464 80.4198C16.3022 79.0804 16.358 77.6852 16.4696 76.29C16.4696 75.9552 16.5254 75.6203 16.5254 75.2297C16.5812 74.6158 16.5812 73.9461 16.637 73.3322C16.7486 71.4905 16.8603 69.7046 16.9719 67.863C17.0277 67.2491 17.0835 66.6352 17.0835 66.0213C17.0835 65.9655 17.0835 65.8539 17.0835 65.7981C17.1393 65.1284 17.1951 64.4587 17.2509 63.789V63.7331C17.3067 63.0634 17.3625 62.3379 17.4183 61.6682C17.4742 60.9427 17.53 60.273 17.5858 59.6033C17.6416 58.9336 17.6974 58.2081 17.809 57.5384C17.809 57.4268 17.809 57.3152 17.8648 57.2036C17.9206 56.6455 17.9764 56.0316 18.0322 55.4735C18.088 55.1387 18.088 54.8038 18.1439 54.469C18.3113 52.7389 18.5345 51.0647 18.7019 49.3904C19.7623 40.9634 24.506 29.1878 25.957 25.6161C26.1803 25.058 26.3477 24.6673 26.3477 24.6115C26.85 22.9373 27.5197 21.4863 28.1894 20.2027C28.3568 19.8678 28.5242 19.5888 28.6916 19.3097C29.2497 18.3052 29.8078 17.4123 30.1985 16.5751C30.5891 15.7938 30.924 15.1241 31.2588 14.566C32.2076 12.7802 33.2121 11.5524 35.3328 10.3246C46.9967 3.62761 64.8554 0.55815 84.4999 0.446533C84.779 0.446533 85.058 0.446533 85.2812 0.446533H85.7277C86.0068 0.446533 86.2858 0.446533 86.509 0.446533C106.154 0.502342 124.068 3.5718 135.676 10.3246C138.076 11.664 137.406 13.0592 138.746 15.1799C139.08 15.738 139.583 16.3519 140.085 17.0216C140.978 18.1378 142.094 19.4772 143.043 21.0956C143.657 22.156 144.271 23.3837 144.605 24.6673C144.605 24.7231 144.773 25.1138 144.996 25.6719C146.447 29.2436 151.191 41.0192 152.251 49.4462C156.493 81.8708 155.432 123.113 155.432 123.113Z" fill="currentColor"/>
<path d="M25.9576 91.6931C25.3995 90.9118 23.8369 91.2466 23.8369 92.1395V146.553V146.608C23.8927 149.566 27.018 151.91 30.8688 152.078H31.092C33.2685 152.133 33.6592 151.631 33.6592 150.682V117.644C33.6592 110.668 31.2594 98.7249 26.5715 92.586L25.9576 91.6931Z" fill="#00384B"/>
<path opacity="0.2" d="M41.472 157.993H40.5791L40.8023 117.867H41.3604L41.472 157.993Z" fill="#00384B"/>
<path opacity="0.2" d="M84.3884 132.377L84.2768 157.993H83.1048L82.9932 132.377H84.3884Z" fill="#00384B"/>
<path opacity="0.2" d="M32.2082 69.5371H31.3711L31.7059 40.4052H32.0408L32.2082 69.5371Z" fill="#00384B"/>
<path opacity="0.12" d="M96.1633 0.781272C95.8843 0.781272 95.6052 0.725464 95.3262 0.725464C95.6052 0.725464 95.8843 0.781272 96.1633 0.781272Z" fill="#00384B"/>
<path opacity="0.12" d="M75.6816 0.781272C75.9607 0.781272 76.2397 0.725464 76.5188 0.725464C76.2397 0.725464 75.9607 0.781272 75.6816 0.781272Z" fill="#00384B"/>
<path d="M145.275 91.6931C145.833 90.9118 147.396 91.2466 147.396 92.1395V146.553V146.608C147.34 149.566 144.214 151.91 140.364 152.078H140.14C137.964 152.133 137.573 151.631 137.573 150.682V117.644C137.573 110.668 139.973 98.7249 144.661 92.586L145.275 91.6931Z" fill="#00384B"/>
<path opacity="0.2" d="M130.597 157.993H129.704L129.816 117.867H130.374L130.597 157.993Z" fill="#00384B"/>
<path d="M140.141 71.9369C140.141 72.9415 131.547 103.134 130.263 106.259C129.928 107.04 128.924 107.487 127.864 107.264C123.79 106.315 108.219 104.975 86.6212 104.92H84.5563C62.9585 104.975 47.388 106.315 43.314 107.264C42.3094 107.487 41.3049 107.096 40.9142 106.259C39.6864 103.134 31.0361 72.8857 31.0361 71.9369C31.0361 69.872 33.2127 68.9233 33.2127 68.9233C33.2127 68.9233 54.5872 62.9518 84.8911 62.9518C84.8911 62.9518 92.8717 63.0076 96.0528 63.175C120.999 64.2354 137.853 68.9233 137.853 68.9233C137.853 68.9233 140.141 69.8162 140.141 71.9369Z" fill="#00384B"/>
<path opacity="0.2" d="M139.024 69.5371H139.862L139.527 40.4052H139.192L139.024 69.5371Z" fill="#00384B"/>
<path opacity="0.12" d="M75.0684 0.781272C75.3474 0.781272 75.6264 0.725464 75.9055 0.725464C75.6264 0.725464 75.3474 0.781272 75.0684 0.781272Z" fill="#00384B"/>
<path opacity="0.12" d="M95.4944 0.781272C95.2153 0.781272 94.9363 0.725464 94.6572 0.725464C94.9363 0.725464 95.2153 0.781272 95.4944 0.781272Z" fill="#00384B"/>
<path d="M144.605 83.5451C144.549 84.159 144.996 84.717 145.666 84.8287L148.4 85.1077L150.577 85.3309L150.521 83.4335V83.1544L150.354 78.8572L146.559 78.4665L146.28 78.4107C145.666 78.3549 145.108 78.8014 144.996 79.4711L144.829 81.1453L144.605 83.5451Z" fill="currentColor"/>
<path d="M143.154 22.1001C140.475 18.919 136.346 15.0682 130.207 12.6127C115.473 6.697 101.856 5.58083 86.6204 5.52502H86.4529C86.3971 5.52502 86.2855 5.52502 86.2297 5.52502H85.0019C84.9461 5.52502 84.8345 5.52502 84.7787 5.52502C84.7229 5.52502 84.6671 5.52502 84.6113 5.52502C69.3756 5.58083 55.7584 6.697 40.9692 12.6127C34.8302 15.0682 30.7004 18.919 28.0216 22.1001C27.6868 22.5466 25.7893 26.1183 25.9567 25.616C28.0774 18.919 31.0353 12.3894 35.3325 9.93388C47.0523 3.18107 64.9109 0.111617 84.5555 0C84.8345 0 85.1135 0 85.3368 0H85.7832C86.0623 0 86.3413 0 86.5646 0C106.209 0.0558083 124.124 3.12527 135.732 9.87807C140.029 12.3336 144.382 22.3791 146.503 29.0761C146.726 29.6342 143.489 22.4907 143.154 22.1001Z" fill="currentColor"/>
<path d="M131.881 13.3382C131.881 13.3382 140.252 17.2447 143.266 29.1319C145.61 38.4519 145.666 29.1319 145.666 29.1319C145.666 29.1319 140.643 15.7937 137.518 13.9521C134.392 12.1104 131.881 13.3382 131.881 13.3382Z" fill="currentColor"/>
<path opacity="0.7" d="M54.4197 14.6217V16.1286C54.4197 16.296 54.3639 16.4634 54.2523 16.6308C53.471 17.4121 53.1361 18.4725 52.9687 19.3096C52.8571 19.8677 52.8013 20.3142 52.8013 20.5374C52.6897 21.4862 52.0758 22.2675 51.2386 22.7139C49.397 23.6069 46.0485 25.2253 43.3697 26.8438C38.5144 29.8016 35.6681 33.4291 33.9939 35.7731C33.7706 36.1079 33.5474 36.3312 33.38 36.4428C31.8732 37.5031 32.3196 32.3688 32.3196 32.313C32.5429 30.6945 32.8219 29.2435 33.1568 27.9041C33.1568 27.8483 33.2126 27.7367 33.2126 27.6809C33.7148 26.0066 34.3287 24.5556 35.11 23.3278C35.6681 22.4349 36.282 21.5978 37.0075 20.8723C37.175 20.7048 37.2866 20.5932 37.454 20.4258C38.0121 19.8677 38.6818 19.3654 39.3515 18.919C40.1886 18.3609 41.0815 17.8586 42.0861 17.468C42.2535 17.4121 42.4767 17.3005 42.6442 17.2447C47.8901 15.124 52.0758 14.0636 53.6942 13.952C54.0849 13.8962 54.4197 14.2311 54.4197 14.6217Z" fill="white"/>
<path d="M54.4199 14.6217V16.1286C54.4199 16.296 54.3641 16.4634 54.2525 16.6308C53.4712 17.4121 53.1363 18.4725 52.9689 19.3096C52.6898 19.2538 49.3972 19.0864 43.8163 22.1559C38.1797 25.1695 36.2264 29.969 34.3847 29.4667C33.6034 29.2435 33.3244 28.4622 33.2686 27.6809C34.887 22.1 38.1239 19.0306 42.6444 17.2447C47.8903 15.124 52.076 14.0636 53.6944 13.952C54.0851 13.8962 54.4199 14.2311 54.4199 14.6217Z" fill="white"/>
<path opacity="0.7" d="M116.757 14.6217V16.1286C116.757 16.296 116.813 16.4634 116.924 16.6308C117.706 17.4122 118.04 18.4725 118.208 19.3096C118.319 19.8677 118.375 20.3142 118.375 20.5374C118.487 21.4862 119.101 22.2675 119.938 22.714C121.78 23.6069 125.128 25.2253 127.807 26.8438C132.662 29.8016 135.508 33.4291 137.183 35.7731C137.406 36.1079 137.629 36.3312 137.797 36.4428C139.192 37.4473 138.801 32.3688 138.801 32.2572C138.578 30.6387 138.299 29.1877 137.964 27.8483C137.964 27.7925 137.908 27.6809 137.908 27.6251C137.406 25.9508 136.792 24.4998 136.011 23.272C135.453 22.3791 134.839 21.542 134.113 20.8165C133.946 20.649 133.834 20.5374 133.667 20.37C133.109 19.8119 132.439 19.3096 131.769 18.8632C130.932 18.3051 130.039 17.8028 129.035 17.4122C128.867 17.3564 128.644 17.2447 128.477 17.1889C123.231 15.0682 119.045 14.0079 117.427 13.8962C117.092 13.8962 116.757 14.2311 116.757 14.6217Z" fill="white"/>
<path d="M116.757 14.6217V16.1286C116.757 16.296 116.813 16.4634 116.924 16.6308C117.706 17.4121 118.04 18.4725 118.208 19.3096C118.487 19.2538 121.78 19.0864 127.36 22.1559C132.997 25.1695 134.95 30.0248 136.736 29.4667C137.518 29.2435 137.797 28.4622 137.852 27.6809C136.234 22.1 132.997 19.0306 128.477 17.2447C123.231 15.124 119.045 14.0636 117.427 13.952C117.092 13.8962 116.757 14.2311 116.757 14.6217Z" fill="white"/>
<path d="M24.6172 42.1353C24.6172 42.1353 26.5147 20.1468 46.9963 10.4362C62.9575 2.90203 42.3084 8.81771 42.3084 8.81771C42.3084 8.81771 34.1046 14.0079 33.3791 14.3985C32.7094 14.7892 29.6399 19.6445 28.0215 22.1001C26.4031 24.5557 24.6172 42.1353 24.6172 42.1353Z" fill="currentColor"/>
<path d="M146.559 42.1353C146.559 42.1353 144.661 20.1468 124.18 10.4362C108.219 2.90203 128.868 8.81771 128.868 8.81771C128.868 8.81771 137.071 14.0079 137.797 14.3985C138.467 14.7892 141.536 19.6445 143.155 22.1001C144.773 24.5557 146.559 42.1353 146.559 42.1353Z" fill="currentColor"/>
<path d="M152.754 347.797V362.419C152.754 365.489 150.8 367.944 148.345 367.944H25.0641C22.6644 367.944 20.6553 365.489 20.6553 362.419V347.797C20.6553 344.728 22.6086 342.272 25.0641 342.272H148.4C150.8 342.328 152.754 344.784 152.754 347.797Z" fill="currentColor"/>
<path opacity="0.12" d="M152.754 356.448V362.475C152.754 365.489 150.8 368 148.345 368H25.0641C22.6644 368 20.6553 365.544 20.6553 362.475V356.448C20.6553 359.517 22.6086 363.089 25.0641 363.089H148.4C150.8 363.089 152.754 359.461 152.754 356.448Z" fill="#00384B"/>
<path opacity="0.12" d="M154.316 354.885H20.6553V356.448H154.316V354.885Z" fill="#00384B"/>
<path d="M161.851 163.686V349.193C161.851 352.318 159.284 354.885 156.159 354.885H15.4659C12.3406 354.885 9.77344 352.318 9.77344 349.193V163.686C9.77344 160.56 12.3406 157.993 15.4659 157.993H156.159C159.34 157.993 161.851 160.56 161.851 163.686Z" fill="currentColor"/>
<path opacity="0.12" d="M155.433 123.113V154.589C155.377 156.319 154.094 157.714 152.475 157.937C152.308 157.937 152.196 157.993 152.029 157.993H19.2052C19.0378 157.993 18.9262 157.993 18.7587 157.937C17.0845 157.714 15.8567 156.319 15.8009 154.589V154.533L15.7451 123.113C15.7451 123.113 15.5777 115.97 15.6335 105.254C15.6335 104.92 15.6335 104.585 15.6335 104.25C15.6335 101.125 15.6893 97.6645 15.8009 94.037C15.8009 93.7579 15.8009 93.4231 15.8009 93.0882C15.8567 89.8514 15.9683 86.4471 16.1357 82.9311C16.1357 82.4847 16.1915 82.0382 16.1915 81.5917C16.1915 81.2011 16.2474 80.7546 16.2474 80.364C16.3032 79.0246 16.359 77.6293 16.4706 76.2341C16.4706 75.8993 16.5264 75.5644 16.5264 75.1738C16.5822 74.5599 16.5822 73.8902 16.638 73.2763C16.7496 71.4346 16.8612 69.6488 16.9729 67.8071C17.0287 67.1932 17.0845 66.5793 17.0845 65.9654C17.0845 65.9096 17.0845 65.798 17.0845 65.7422C17.1403 65.0725 17.1961 64.4028 17.2519 63.7331V63.6773C17.3077 63.0076 17.3635 62.2821 17.4193 61.6124C17.4751 60.8869 17.5309 60.2172 17.5868 59.5475C17.6426 58.8778 17.6984 58.1522 17.81 57.4825C17.81 57.3709 17.81 57.2593 17.8658 57.1477C17.9216 56.5896 17.9774 55.9757 18.0332 55.4176C18.089 55.0828 18.089 54.7479 18.1448 54.4131C18.3123 52.683 18.5355 51.0088 18.7029 49.3345C19.7633 40.9075 24.507 29.1319 25.958 25.5602C26.0696 25.3928 27.409 22.1559 28.7484 19.1981C29.9762 16.4634 31.1482 14.0079 31.3156 14.4543C31.3156 14.5102 31.3156 14.6776 31.3156 14.9566C30.5901 19.9794 27.0742 31.1968 24.6186 42.1353C22.4421 51.7901 21.1585 61.5007 21.1585 63.8447C21.1585 70.6533 18.7029 127.466 18.7029 137.735V151.799C18.7029 153.361 19.9865 154.645 21.5491 154.645H149.573C151.136 154.645 152.42 153.361 152.42 151.799V137.679C152.42 127.466 149.964 70.5975 149.964 63.7889C149.964 61.5007 148.736 51.7901 146.504 42.0795C144.327 32.3688 141.314 22.4907 140.142 16.8541C139.974 16.1286 139.863 15.4589 139.807 14.9008C139.528 12.8359 141.481 17.189 143.155 20.9281C144.216 23.3837 145.109 25.5602 145.165 25.5602C146.616 29.1319 151.359 40.9075 152.42 49.3345C156.494 81.8708 155.433 123.113 155.433 123.113Z" fill="#00384B"/>
<path d="M26.5154 83.6009C26.5712 84.2147 26.1248 84.7728 25.4551 84.8844L22.7205 85.1635L20.5439 85.3867L20.5998 83.4892V83.2102L20.7672 78.913L24.5621 78.5223L24.8412 78.4665C25.4551 78.4107 26.0132 78.8571 26.1248 79.5268L26.2922 81.2011L26.5154 83.6009Z" fill="currentColor"/>
<path opacity="0.12" d="M26.5154 83.6009C26.5712 84.2147 26.1248 84.7728 25.4551 84.8844L22.7205 85.1635L20.5439 85.3867L20.5998 83.4892C22.2182 82.987 24.5621 83.1544 25.0644 82.3731C25.5109 81.5918 25.0086 79.3036 24.618 78.5223L24.897 78.4665C25.5109 78.4107 26.069 78.8571 26.1806 79.5268L26.348 81.2011L26.5154 83.6009Z" fill="#00384B"/>
<path d="M20.9903 82.4846C21.1019 82.8195 20.9345 84.9402 20.7671 87.2284C20.488 90.4094 20.1532 94.0928 20.0974 94.2602C19.7625 95.3206 19.037 96.2135 18.0883 96.7716C18.0883 96.7716 10.4983 99.3946 5.58719 100.678C5.02911 100.846 4.41522 100.79 3.91295 100.567C3.24325 100.287 2.74097 99.7852 2.46193 99.0597L0.285405 94.2044C0.229597 94.0928 0.229597 93.9812 0.173789 93.8695C-0.21687 92.5301 0.0621719 91.0791 0.899297 90.0188C1.51319 89.2375 2.18289 88.5119 2.68516 88.2329L7.31725 85.889L20.7671 79.0245C21.4926 80.0849 20.6554 81.2011 20.9903 82.4846Z" fill="currentColor"/>
<path opacity="0.12" d="M20.7671 87.2284C20.4881 90.4095 20.1532 94.0928 20.0974 94.2602C19.7625 95.3206 19.037 96.2135 18.0883 96.7716C18.0883 96.7716 10.4984 99.3946 5.58723 100.678C5.02915 100.846 4.41526 100.79 3.91298 100.567C3.24329 100.288 2.74101 99.7853 2.46197 99.0598L0.285445 94.2044C0.229636 94.0928 0.229636 93.9812 0.173828 93.8696C1.45742 93.9254 3.29909 94.5393 4.0246 95.6554C6.31274 99.283 8.54507 97.1623 13.8469 95.9903C19.0928 94.7625 20.7671 87.2284 20.7671 87.2284Z" fill="#00384B"/>
<path d="M144.494 83.6009C144.438 84.2147 144.885 84.7728 145.554 84.8844L148.289 85.1635L150.465 85.3867L150.41 83.4892V83.2102L150.242 78.913L146.447 78.5223L146.168 78.4665C145.554 78.4107 144.996 78.8571 144.885 79.5268L144.717 81.2011L144.494 83.6009Z" fill="currentColor"/>
<path opacity="0.12" d="M144.494 83.6009C144.438 84.2147 144.885 84.7728 145.554 84.8844L148.289 85.1635L150.465 85.3867L150.41 83.4892C148.791 82.987 146.447 83.1544 145.945 82.3731C145.499 81.5918 146.001 79.3036 146.391 78.5223L146.112 78.4665C145.499 78.4107 144.94 78.8571 144.829 79.5268L144.661 81.2011L144.494 83.6009Z" fill="#00384B"/>
<path d="M149.963 82.4846C149.851 82.8195 150.019 84.9402 150.186 87.2284C150.465 90.4094 150.8 94.0928 150.856 94.2602C151.191 95.3206 151.916 96.2135 152.865 96.7716C152.865 96.7716 160.455 99.3946 165.366 100.678C165.924 100.846 166.538 100.79 167.04 100.567C167.71 100.287 168.212 99.7852 168.491 99.0597L170.668 94.2044C170.723 94.0928 170.723 93.9812 170.779 93.8695C171.17 92.5301 170.891 91.0791 170.054 90.0188C169.44 89.2375 168.77 88.5119 168.268 88.2329L163.636 85.889L150.186 79.0245C149.46 80.0849 150.298 81.2011 149.963 82.4846Z" fill="currentColor"/>
<path opacity="0.12" d="M150.187 87.2284C150.466 90.4095 150.8 94.0928 150.856 94.2602C151.191 95.3206 151.917 96.2135 152.865 96.7716C152.865 96.7716 160.455 99.3946 165.366 100.678C165.924 100.846 166.538 100.79 167.041 100.567C167.71 100.288 168.213 99.7853 168.492 99.0598L170.668 94.2044C170.724 94.0928 170.724 93.9812 170.78 93.8696C169.496 93.9254 167.655 94.5393 166.929 95.6554C164.641 99.283 162.409 97.1623 157.107 95.9903C151.917 94.7625 150.187 87.2284 150.187 87.2284Z" fill="#00384B"/>
<path d="M36.951 354.941V358.066C36.951 359.35 36.0581 360.354 34.9419 360.354H19.3714C18.2552 360.354 17.3623 359.35 17.3623 358.066V354.941H36.951Z" fill="#FA6850"/>
<path d="M155.209 354.941V358.066C155.209 359.35 154.316 360.354 153.2 360.354H137.629C136.513 360.354 135.62 359.35 135.62 358.066V354.941H155.209Z" fill="#FA6850"/>
<path opacity="0.13" d="M20.7106 252.812L19.8177 330.441L18.4783 330.497L17.8086 252.812L18.9248 184H20.2642L20.7106 252.812Z" fill="#00384B"/>
<path opacity="0.13" d="M154.316 252.812L153.423 330.497H152.084L151.414 252.812L152.53 184H153.87L154.316 252.812Z" fill="#00384B"/>
</svg>
