<svg width="131" height="70" viewBox="0 0 131 70" fill="none" xmlns="http://www.w3.org/2000/svg">
  <path d="M8.916 35.75c-.003 3.595-.069 5.167-.101 5.617a.517.517 0 01-.097.288c-.9 1.09-2.57 1.892-3.885 2.372-.418.16-.771.256-1.092.352-.45.128-.93-.194-.962-.643 0-.193-.032-.353-.032-.546-.063-1.38-.062-2.6-.029-3.498.023-.455-.136-.966.323-1.83.459-.862 4.206-2.434 5.266-2.626.192-.032.353.032.449.16.128.13.16.226.16.354z" fill="#fff"/>
  <path d="M32.831 64.463c-.003 4.269-3.472 7.38-7.773 7.375-4.3-.004-7.764-3.152-7.76-7.389v-.417c.196-4.044 3.601-7.282 7.742-7.278 4.14.003 7.539 3.216 7.728 7.292.064.129.064.257.063.417zm81.682.075c-.004 4.269-3.473 7.379-7.773 7.375-4.301-.004-7.764-3.153-7.76-7.389v-.417c.196-4.044 3.601-7.282 7.741-7.279 4.14.004 7.54 3.217 7.728 7.293.064.128.064.257.064.417z" fill="#292A56"/>
  <path d="M160.707 55.05l-.004 4.205a5.452 5.452 0 01-5.461 5.45l-24.199-.021-8.282 1.533-12.389.02-54.432.08-4.686-.005-21.054.013-3.916-.003-14.154.02a9.822 9.822 0 01-2.375-.292c-1.957-.515-5.454-1.898-8.5-4.5-.353-.322-.578-.772-.866-1.318l-.157-3.947.002-1.701v-.353c0-.097.032-.193.032-.321.033-.29.258-1.188 1.221-1.38.129-.031.257-.031.385-.031l.01-11.073v-.096c.065-.257.258-.834.804-1.54.032-.064.097-.096.129-.16.193-.257.45-.513.739-.77l.16-.16a3.41 3.41 0 00.386-.32c.16-.129.32-.257.546-.418a.698.698 0 00.16-.128 24 24 0 01.643-.416c.128-.096.257-.16.417-.257a23.64 23.64 0 011.702-1.025c.353-.225.739-.449 1.124-.673.225-.128.482-.257.706-.417.835-.48 1.767-.993 2.698-1.474.128-.064.289-.16.417-.224.546-.288 1.124-.577 1.67-.865.128-.064.289-.128.417-.224.29-.16.578-.289.835-.417.129-.064.29-.128.418-.224a40.6 40.6 0 011.701-.8c.29-.129.546-.257.835-.385 1.124-.513 2.216-.993 3.243-1.377l.482-.193c.128-.064.256-.096.385-.16.128-.032.225-.096.353-.128.16-.064.289-.096.45-.16.032 0 .064 0 .064-.032 0 0 .032-.032.096-.128 1.029-1.508 13.234-11.414 14.233-16.74.13-.675.579-1.123 1.06-1.444 1.35-.897 2.57-1.538 3.79-1.986.064-.032.096-.032.16-.064.096-.032.225-.064.321-.096.129-.032.257-.096.385-.128 1.959-.576 3.949-.703 6.356-.7l17.748.015h.064l.006-5.584c0-.16.032-.32.096-.481.097-.225.225-.45.418-.61.257-.224.578-.32.899-.32l87.586.08c.642 0 1.22.225 1.701.547.353.257.609.578.834.931v.032c.224.418.352.867.351 1.38l-.046 50.807c.225 0 .449.064.61.16 0 0 .032 0 .032.033a.564.564 0 01.16.128l.032.033c.321.16.449.481.449.802z" fill="#6CACD8"/>
  <path d="M160.772 55.048l-.004 4.205a5.452 5.452 0 01-5.461 5.451l-20.958-.02c-.961-2.44-3.459-7.737-2.495-8.956 1.124-1.41 4.91-.156 4.91-.156s1.087 4.687 2.979 6.23c1.861 1.541 11.297.716 16.08-.243 4.783-.958 4.147-7.282 4.147-7.282.096-.064.193-.16.257-.192a.56.56 0 01.16.129l.032.032c.193.16.353.481.353.802zm-50.427 7.753c-.033.16.993 1.959.093 3.402l-59.119.075c.13-2.439.326-4.846.326-5.456-.03-1.252 1.929-3.175 1.929-3.175s2.02 2.44 3.525 5.234c.737 1.317 8.44 1.003 16.528 1.01 8.12.008 27.923-.231 29.977-.23 4.044.004 4.883-4.777 6.777-5.995 6.584-4.198-.004 4.91-.036 5.135z" fill="#508EBD"/>
  <path d="M72.07 11.254l-15.117.275s-4.589-.518-7.385 3.46c-2.796 4.008-9.58 16.616-11.7 19.534-1.06 1.476-6.871 3.396-10.917 4.965-4.045 1.569-3.307 1.473-5.168 1.504-1.862.062-3.786-1.255-5.36.637-1.575 1.86-2.09 3.4-7.802 2.978-.386-.033-3.595-.196-6.578-2.125-.032-.032-.16-.32-.16-.61v-.577c.065-.257.258-.834.804-1.54.033-.064.097-.096.129-.16.193-.257.45-.514.739-.77l.16-.16c.129-.097.257-.193.386-.321.16-.128.321-.257.546-.417a.7.7 0 00.16-.128 24 24 0 01.643-.417c.128-.096.257-.16.417-.256.482-.32 1.06-.673 1.702-1.026.353-.224.739-.448 1.124-.672.225-.129.482-.257.707-.417.835-.48 1.766-.993 2.697-1.474.128-.064.289-.16.417-.224.546-.289 1.124-.577 1.67-.865.128-.064.289-.128.417-.224.29-.16.578-.289.835-.417.129-.064.29-.128.418-.224a40.601 40.601 0 011.701-.801c.29-.128.546-.256.835-.384 1.124-.513 2.216-.993 3.243-1.378l.482-.192c.128-.064.257-.096.385-.16.128-.032.225-.096.353-.128.16-.064.29-.096.45-.16 0 0 .032-.032.096-.128 1.028-1.508 12.303-12.281 13.944-16.613.258-.641.836-1.25 1.35-1.603 1.38-.93 2.633-1.57 3.885-2.019.064-.032.096-.032.16-.064.097-.032.225-.064.322-.096.128-.032.256-.096.385-.128 1.926-.544 3.916-.67 6.29-.668l17.814.016V5.761c.033 0 .065.032.065.032.353.13.545.258.577.322.192.45 3.88 5.139 3.88 5.139z" fill="#7ABBDF"/>
  <path d="M48.06 13.03a158.735 158.735 0 01-2.604 4.426c-4.21 6.865-8.678 13.184-9.674 14.53a.59.59 0 01-.578.257c-6.226-.584-12.16-3.381-11.646-3.926.964-1.38 9.125-11.61 12.916-15.972.321-.353.578-.673.835-.93.45-.513.772-.994 1.542-1.314 4.076.132 8.344 1.034 9.017 1.741.513.546.192 1.188.192 1.188zm21.278 2.683l-.015 17.17c0 .707-.58 1.284-1.285 1.283l-24.906-.022 4.535-9.721 2.475-4.587 1.832-3.4c.643-1.156 1.158-1.733 2.41-1.86 1.219-.127 3.08-.286 6.9-.283 5.2.005 6.002.102 6.74.167.77.033 1.315.547 1.314 1.253z" fill="#292A56"/>
  <path d="M160.193 54.02a4.63 4.63 0 01-1.221.897c-2.665 1.41-65.12 1-65.12 1l-21.858.398.136-8.377c.159 2.504 1.086 6.26 5.162 6.552 6.13.423 40.664-.284 40.664-.284s33.411-.002 35.625 0c2.792.003 3.274-.157 3.274-.67.033-.514 1.799-1.154 2.41-3.047.065-.193.259-2.215.323-2.343l-.005 5.649c.225.064.417.128.61.225z" fill="#5A9AC8"/>
  <path d="M55.971 66.282l-4.685-.004-21.055.013-3.915-.004v-.45l.001-.801a14.936 14.936 0 011.289-5.391s0-.032.032-.032c2.348-5.23 7.518-8.852 13.52-8.846 7.927.007 14.405 6.336 14.782 14.328-.064.834 0 1.027.032 1.187zm81.365-1.626l-6.227-.006-8.282 1.533-14.603-.013.001-.482v-.802a15.063 15.063 0 012.993-8.246c.064-.096.128-.16.193-.256.224-.289.481-.578.739-.866 2.666-2.919 6.487-4.744 10.691-4.74 4.012.003 7.669 1.675 10.331 4.342.353.353.673.706.962 1.092 1.795 2.376 2.98 5.266 3.202 8.444z" fill="#2F5F8E"/>
  <path d="M72.168 45.724l-.035 2.247c-.095-1.284.035-2.247.035-2.247zM26.285 65.838v.45l-14.187.019a9.817 9.817 0 01-2.374-.291c-1.958-.515-5.84-2.22-8.918-4.822-.353-.322-.577-.771-.577-1.22l.003-3.723c0 1.251.64 2.343 2.308 3.211 2.791 1.415 7.058 3.633 8.022 2.703.963-.962 1.029-2.566 1.029-2.566s.48 2.343 3.368 2.506c2.888.195 9.916.426 10.88-.279.482-.352 1.542-1.539 1.735-2.213a15.262 15.262 0 00-1.289 5.39v.835z" fill="#508EBD"/>
  <path d="M24.334 57.942c-.546.706-.643 1.283-2.184 1.41-1.54.127-8.954-.008-10.238-.009-1.284-.001-4.942-1.192-8.342-2.768C1.934 55.803.81 54.968.266 54.23c0-.096.032-.192.032-.32.033-.29.258-1.188 1.221-1.38.129.065.257.161.385.258 2.245 1.67 5.902 3.471 9.528 4.148.739.13 10.752.203 11.875.204 1.445.001 1.573.097 1.027.803zM72.206.086l.83 4.75-.835 1.123-.005 5.296-4.49-4.562.006-5.167c0-.16.032-.321.096-.482.097-.224.225-.449.418-.609.257-.224.578-.32.899-.32l3.081.003V.086z" fill="#7ABBDF"/>
  <path d="M158.446.742l-2.893 4.875-.929-1.22-80.783-.073-.578.64s-3.497-1.767-4.972-3.02c-.385-.322-.513-.643-.48-.932.096-.224.225-.449.417-.61a1.35 1.35 0 01.9-.32l87.586.08c.642 0 1.251.226 1.732.58z" fill="#89C9E4"/>
  <path d="M52.763 65.703c-.006 6.387-5.21 11.036-11.628 11.03-6.42-.006-11.614-4.728-11.608-11.051v-.61c.327-6.065 5.402-10.94 11.596-10.934 6.195.006 11.261 4.825 11.577 10.955.064.193.063.385.063.61z" fill="#292A56"/>
  <path d="M46.31 65.696c-.002 2.857-2.315 5.07-5.203 5.067-2.857-.003-5.165-2.252-5.163-5.076.001-1.22.42-2.343 1.158-3.209a29.553 29.553 0 014.045-.253c1.54.002 2.888.1 4.043.26a5.066 5.066 0 011.12 3.211z" fill="#fff"/>
  <path d="M45.19 62.485a29.55 29.55 0 00-4.044-.26 29.898 29.898 0 00-4.044.253c.932-1.187 2.409-1.924 4.045-1.922a5.164 5.164 0 014.043 1.93z" fill="#C1BDCC"/>
  <path d="M134.443 65.776c-.006 6.387-5.209 11.036-11.628 11.03-6.419-.005-11.614-4.728-11.609-11.05l.001-.61c.326-6.066 5.402-10.94 11.596-10.934 6.194.005 11.261 4.824 11.576 10.954.064.193.064.386.064.61z" fill="#292A56"/>
  <path d="M127.993 65.77c-.003 2.857-2.316 5.07-5.172 5.067-2.889-.003-5.197-2.252-5.195-5.076.001-1.22.42-2.342 1.159-3.208.931-1.187 2.408-1.924 4.045-1.922 1.637.001 3.113.74 4.042 1.93a5.063 5.063 0 011.121 3.21z" fill="#fff"/>
  <path d="M126.873 62.56a29.545 29.545 0 00-4.043-.26 29.566 29.566 0 00-4.045.253c.932-1.187 2.409-1.924 4.046-1.922a5.164 5.164 0 014.042 1.929z" fill="#C1BDCC"/>
  <path d="M67.935 40.297l-5.842-.005c-.385 0-.705-.322-.705-.74a.72.72 0 01.707-.737l5.841.005a.72.72 0 01.705.74.72.72 0 01-.706.737z" fill="#5093BF"/>
  <path d="M67.583 39.847l-5.841-.006c-.385 0-.706-.321-.706-.739a.72.72 0 01.707-.737l5.841.005c.386 0 .706.322.706.739 0 .385-.322.738-.707.738z" fill="#2D2F5A"/>
  <path d="M72.199 11.19l-.045 49.362c0 .16-.129.257-.29.257-.16 0-.288-.129-.288-.257l.045-49.362h.578z" fill="#487AA7"/>
  <path d="M112.115 55.55c-.193.224-.386.417-.547.641l-39.572-.036v-.642l40.119.037z" fill="#487AA7"/>
  <path d="M21.762 29.021c-.003 2.247-2.766 6.128-8.93 7.92-3.435.991-4.75.252-5.167-.872 3.758-2.211 9.57-5.319 14.097-7.048z" fill="#89C9E4"/>
  <path d="M14.264 50.165l-.004 3.787c0 .16-.096.29-.257.321-1.509.416-5.68.06-9.017-1.356-1.957-.836-2.406-1.318-2.823-1.704a.944.944 0 01-.288-.706l.002-2.567c.192.61.447 2.054 2.918 3.051 2.502 1.03 5.872 1.546 7.733 1.387 1.252-.095 1.736-2.213 1.736-2.213z" fill="#508EBD"/>
  <path d="M14.268 45.864l-.004 3.787a.31.31 0 01-.257.32c-1.509.417-5.841.285-9.178-1.099-1.957-.836-2.245-1.318-2.662-1.703a.944.944 0 01-.288-.706l.002-2.568c.192.61.287 2.054 2.757 3.051 2.503 1.03 6.033 1.322 7.895 1.131 1.251-.095 1.735-2.213 1.735-2.213z" fill="#508EBD"/>
  <path d="M23 39.106c-.04 4.514-.112 6.028-.113 6.615 0 .062 0 .155-.035.279-.07.154-.175.37-.456.648-1.752 1.761-4.87 2.81-6.725 3.303-.63.185-1.295-.249-1.365-.836-.138-2.01-.136-3.586-.065-4.73.036-.741.106-1.267.142-1.607.035-.216.14-.803.561-1.112 2.873-2.193 5.71-2.963 7.216-3.21.42-.06.84.249.84.65z" fill="#fff"/>
  <path d="M28.416 52.777c4.785-3.013 12.01-6.312 22.436-2.13.225.096.354-.224.193-.417-3.303-2.314-13.183-8.164-22.917 2.226-.097.224.095.481.288.32z" fill="#7ABBDF"/>
  <path d="M106.638 8.622c-8.44.346-29.404 6.393-7.966 7.054 21.439.661 37.966 2.602 43.874-.506 5.941-3.108-4.421-7.9-35.908-6.548z" fill="#77B5DF"/>
  <path d="M46.353 20.635c-.032 0-.096 0-.128-.032a.154.154 0 01-.064-.193c.032-.032 1.897-3.4 4.114-6.447.032-.064.128-.064.193-.032.064.032.064.128.031.225-2.249 3.046-4.081 6.383-4.114 6.447.033-.032.033 0-.032.032z" fill="#94CDEE"/>
  <path d="M48.061 13.03a158.88 158.88 0 01-2.603 4.426c-.256-1.22-.993-2.472-2.533-3.533-2.052-1.414-4.363-1.737-6.417-1.578.321-.353.578-.674.835-.93.45-.513.771-.994 1.542-1.315 4.076.132 8.343 1.035 9.017 1.742.48.546.16 1.187.16 1.187zm21.275 2.684l-.005 4.91c-1.795-2.152-4.94-2.764-9.4-3.218-3.851-.42-7.64 1.213-9.791 2.398l1.832-3.4c.643-1.155 1.157-1.732 2.409-1.86 1.22-.127 3.081-.285 6.9-.282 5.2.005 6.002.102 6.74.167.77.065 1.316.579 1.315 1.285z" fill="#343C60"/>
  <path fill-rule="evenodd" clip-rule="evenodd" d="M33.788 15.68a.2.2 0 01.246.142l1.727 6.42a.2.2 0 11-.386.104l-1.728-6.42a.2.2 0 01.142-.245zm5.349-1.019a.2.2 0 01.254.125l.704 2.055a.2.2 0 11-.378.13l-.704-2.056a.2.2 0 01.124-.254zm-5.587 7.505a.2.2 0 01.25.13l1.89 6.004a.2.2 0 01-.382.12l-1.888-6.004a.2.2 0 01.131-.25zm-3.28-.483a.2.2 0 01.256.123l1.216 3.5a.2.2 0 11-.378.131l-1.216-3.5a.2.2 0 01.123-.254z" fill="#343C60"/>
  <path d="M21.31 46.71a7.201 7.201 0 001.505-.71c-.07.154-.175.37-.456.648-1.717 1.76-4.834 2.81-6.69 3.302-.63.185-1.295-.248-1.364-.836-.138-2.009-.137-3.585-.066-4.73.454 2.041 2.062 4.083 7.07 2.325z" fill="#D5E5F4"/>
  <path fill-rule="evenodd" clip-rule="evenodd" d="M54.748 21.014a.2.2 0 01.283 0l6.029 6.072a.2.2 0 01-.284.282l-6.029-6.071a.2.2 0 01.001-.283zm5.424 1.226a.2.2 0 01.283 0l6.157 6.2a.2.2 0 11-.284.282l-6.157-6.2a.2.2 0 01.001-.283zm-6.326 7.632a.2.2 0 01.283 0l1.443 1.446a.2.2 0 11-.283.282l-1.444-1.446a.2.2 0 010-.282z" fill="#343C60"/>
  <path fill-rule="evenodd" clip-rule="evenodd" d="M36.628 35.581a.2.2 0 01-.078.272c-1.828 1.016-4.852 2.135-7.547 3.132-.644.238-1.269.47-1.854.691l-.008.003c-.2.066-.377.146-.55.224l-.205.09a.2.2 0 01-.157-.368c.056-.024.116-.05.18-.08.178-.08.384-.172.602-.245.594-.224 1.224-.457 1.871-.697 2.694-.997 5.676-2.1 7.474-3.1a.2.2 0 01.272.078zm5.197-7.389a.2.2 0 01.074.273c-1.029 1.797-1.995 3.436-2.769 4.659a.2.2 0 11-.338-.214c.77-1.215 1.732-2.848 2.76-4.644a.2.2 0 01.273-.074z" fill="#5C8CB6"/>
  <path d="M50.682 23.014l-.067 3.338-.169 9.115v.898a1.926 1.926 0 01-1.992 1.924 68.643 68.643 0 01-3.723-.196c-2.118-.162-1.859-3.115-1.859-3.115s-1.284.128-1.314-2.183c0-.418.033-.803.098-1.156.258-1.476.997-2.085.997-2.085h.802v-.063l.004-4.205c.002-2.375.902-3.626 3.918-3.527 3.146.1 3.305 1.255 3.305 1.255z" fill="#6AABD8"/>
  <path d="M50.485 34.503l-.001 1.862a1.926 1.926 0 01-1.992 1.923 68.643 68.643 0 01-3.723-.195c-2.118-.163-1.858-3.115-1.858-3.115s-1.284.127-1.314-2.184c0-.417.032-.802.097-1.155.128.642.608 1.637 1.667 1.927 0 0-.516 2.695 1.602 3.05 1.99.291 4.461.325 5.522-2.113z" fill="#5093BF"/>
  <path d="M50.682 23.014l-.067 3.338c-6.512-3.793-6.328 6.284-6.328 6.284s-.352-2.15-.8-3.146l.004-4.204c.002-2.375.902-3.626 3.919-3.527 3.113.1 3.272 1.255 3.272 1.255z" fill="#77B5DF"/>
  <path fill-rule="evenodd" clip-rule="evenodd" d="M2.292 40.858a.25.25 0 01.353.008c.647.677 2.787 2.269 8.454 2.338a.25.25 0 11-.006.5c-5.759-.07-8.044-1.692-8.81-2.493a.25.25 0 01.009-.353zm42.699-2.933c.11 0 .2.09.2.2l-.008 9.009.084.016c.164.032.401.083.695.164.589.161 1.408.438 2.338.901 1.86.926 4.162 2.597 5.931 5.574a.2.2 0 11-.344.205c-1.723-2.9-3.96-4.522-5.765-5.42a12.605 12.605 0 00-2.265-.874 9.112 9.112 0 00-.842-.189 3.809 3.809 0 00-.045-.007l-.01-.001h-.002l-.176-.023.009-9.355c0-.11.09-.2.2-.2z" fill="#5C8CB6"/>
  <path d="M71.865 60.84l-12.902-.011" stroke="#5C8CB6" stroke-width=".5" stroke-miterlimit="10" stroke-linecap="round"/>
  <path fill-rule="evenodd" clip-rule="evenodd" d="M29.909 51.817a.2.2 0 01-.082.271c-1.785.962-3.083 2.24-3.935 3.28-.425.52-.739.98-.946 1.308a9.254 9.254 0 00-.286.488l-.013.025-.004.006v.002l-.056.11-9.238-.105a1.165 1.165 0 01-1.162-1.164l.003-2.985a.2.2 0 11.4 0l-.002 2.985c0 .408.33.764.762.764h.002l8.993.103c.007-.012.015-.025.022-.04.054-.095.134-.232.24-.402.215-.34.538-.813.976-1.348.875-1.068 2.211-2.386 4.055-3.38a.2.2 0 01.27.082z" fill="#5C8CB6"/>
  <path d="M73.844 4.325s-1.637-.002-1.638 1.636c-.002 1.637 2.053 1.286 2.053 1.286l.162-1.83.386-.32-.963-.772z" fill="#6CACD8"/>
</svg>
