<svg width="182" height="370" viewBox="0 0 182 370" fill="none" xmlns="http://www.w3.org/2000/svg">
<g clip-path="url(#clip0)">
<path d="M160.654 352.911V365.061C160.654 367.786 158.61 370 156.169 370H29.2347C26.7369 370 24.75 367.786 24.75 365.061V352.911C24.75 350.186 26.7937 347.971 29.2347 347.971H156.169C158.667 347.915 160.654 350.129 160.654 352.911Z" fill="currentColor"/>
<path opacity="0.12" d="M160.655 360.632V365.061C160.655 367.786 158.611 370 156.17 370H29.2357C26.7379 370 24.751 367.786 24.751 365.061V360.632C24.751 363.357 26.7946 365.572 29.2357 365.572H156.17C158.668 365.572 160.655 363.357 160.655 360.632Z" fill="#00384B"/>
<path opacity="0.12" d="M160.655 360.292H24.6943V361.257H160.655V360.292Z" fill="#00384B"/>
<path d="M158.839 122.633L158.612 331.393C158.612 331.393 158.384 349.277 148.223 354.103C141.411 357.396 127.559 359.951 95.8822 360.235C94.7469 360.235 93.6115 360.235 92.4761 360.292C91.9652 360.292 91.4543 360.292 91.0002 360.292C90.9434 360.292 90.8866 360.292 90.8298 360.292C90.3189 360.292 89.808 360.292 89.3539 360.292C55.236 360.121 40.76 357.737 32.8691 353.535C27.4761 350.64 25.0918 343.827 24.0132 338.547C23.2185 334.573 23.1617 331.393 23.1617 331.393L23.105 298.805L22.8779 122.633C22.8779 122.633 21.7993 80.6767 25.9434 47.6339C27.1923 37.6416 28.3277 30.5447 29.5198 25.4918C29.6333 25.0376 29.7469 24.6402 29.8036 24.2428C29.9739 23.6182 30.1443 22.9937 30.3146 22.3692C32.8691 13.5691 35.8211 12.2065 40.7032 9.36781C48.5373 4.88262 74.1967 0 90.3189 0H91.4543C94.463 0 97.7556 0.170324 101.275 0.454197C116.489 1.76001 134.712 5.67746 141.07 9.36781C146.009 12.2065 148.961 13.5691 151.515 22.4827C151.686 23.0505 151.856 23.675 152.026 24.3563C153.332 29.5228 154.524 36.8467 155.887 47.6339C159.974 80.6767 158.839 122.633 158.839 122.633Z" fill="currentColor"/>
<path opacity="0.12" d="M157.987 338.547C156.909 343.884 154.524 350.64 149.131 353.535C141.411 357.68 127.219 360.064 94.236 360.292C93.7251 360.292 93.2142 360.292 92.6465 360.292C92.1356 360.292 91.6247 360.292 91.1705 360.292H90.7731C90.319 360.292 89.9216 360.292 89.4675 360.292C88.843 360.292 88.2753 360.292 87.7076 360.292C54.7251 360.064 40.533 357.68 32.8124 353.535C27.4194 350.64 25.0351 343.827 23.9565 338.547C23.9565 338.547 29.1792 346.155 34.9696 349.221C40.5897 352.23 52.2841 353.479 91.8518 353.592H91.9085C129.943 353.479 141.354 352.23 146.917 349.221C152.764 346.098 157.987 338.547 157.987 338.547Z" fill="#00384B"/>
<path d="M140.559 341.897C141.013 343.259 139.991 344.622 138.572 344.679C130.965 344.792 108.882 345.644 90.8866 345.644C72.8909 345.644 50.808 344.792 43.201 344.679C41.7818 344.679 40.7599 343.259 41.2141 341.897C42.1792 338.944 43.4281 336.787 44.1093 335.595C44.5067 335.027 45.1311 334.629 45.8123 334.629C50.6944 334.459 71.7556 333.664 90.8866 333.664C110.018 333.664 131.079 334.459 135.961 334.629C136.642 334.629 137.266 335.027 137.664 335.595C138.402 336.787 139.594 338.944 140.559 341.897Z" fill="#00384B"/>
<path d="M151.856 94.2458C152.083 93.9052 152.594 94.0187 152.594 94.4729V147.955C152.594 150.055 144.987 151.702 144.987 150.736V117.126C144.987 110.029 146.86 102.989 150.437 96.7439L151.856 94.2458Z" fill="#00384B"/>
<g opacity="0.5">
<g opacity="0.4">
<path opacity="0.4" d="M45.8123 220.569H44.3931L44.9608 117.296H45.5284L45.8123 220.569Z" fill="#00384B"/>
</g>
<g opacity="0.4">
<path opacity="0.4" d="M44.3931 220.569H45.8123L45.2446 323.842H44.6769L44.3931 220.569Z" fill="#00384B"/>
</g>
</g>
<g opacity="0.5">
<g opacity="0.4">
<path opacity="0.4" d="M136.983 220.569H135.563L136.131 117.296H136.699L136.983 220.569Z" fill="#00384B"/>
</g>
<g opacity="0.4">
<path opacity="0.4" d="M135.563 220.569H136.983L136.415 323.842H135.847L135.563 220.569Z" fill="#00384B"/>
</g>
</g>
<g opacity="0.5">
<g opacity="0.4">
<path opacity="0.4" d="M87.8779 132.058H89.2971L88.7295 235.331H88.1618L87.8779 132.058Z" fill="#00384B"/>
</g>
</g>
<g opacity="0.5">
<g opacity="0.4">
<path opacity="0.4" d="M66.3626 323.558H64.9434L65.511 220.285H66.0787L66.3626 323.558Z" fill="#00384B"/>
</g>
</g>
<path d="M146.576 70.5141C146.576 71.536 140.502 102.989 139.253 106.112C138.969 106.907 137.834 107.361 136.812 107.134C132.611 106.168 112.231 104.125 90.035 104.068H89.9214C67.7249 104.125 49.7861 106.168 45.642 107.134C44.6201 107.361 43.5983 106.963 43.2009 106.112C41.952 102.932 35.083 71.536 35.083 70.5141C35.083 68.4134 37.297 67.4482 37.297 67.4482C37.297 67.4482 59.0393 61.3734 89.8647 61.3734C120.69 61.3734 144.306 67.4482 144.306 67.4482C144.306 67.4482 146.576 68.4134 146.576 70.5141Z" fill="#00384B"/>
<path d="M45.0745 357.396L39.1138 356.147C33.437 354.898 29.6335 352.457 27.5898 348.653L24.8081 342.578C24.4108 341.84 24.9784 340.988 25.83 341.045H25.8867C26.9086 340.931 27.8736 341.329 28.4413 342.18C29.9741 344.338 33.1531 348.426 36.4457 350.186C40.9872 352.627 45.3016 354.33 45.3016 354.33L45.699 356.715C45.8693 357.112 45.4719 357.51 45.0745 357.396Z" fill="#FA6850"/>
<path d="M136.699 357.623L142.659 356.374C148.336 355.125 152.14 352.684 154.183 348.88L156.965 342.805C157.362 342.067 156.795 341.215 155.943 341.272H155.886C154.865 341.159 153.9 341.556 153.332 342.408C151.799 344.508 148.62 348.653 145.327 350.413C140.786 352.854 136.472 354.557 136.472 354.557L136.074 356.942C135.904 357.339 136.301 357.737 136.699 357.623Z" fill="#FA6850"/>
<g opacity="0.4">
<path opacity="0.4" d="M36.2182 68.1295H35.3667L35.7073 38.4932H36.0479L36.2182 68.1295Z" fill="#00384B"/>
</g>
<path opacity="0.7" d="M58.8122 13.2852V14.3639C58.8122 14.5343 58.7554 14.7046 58.6418 14.8749C57.6768 15.9536 57.3362 17.1459 57.2226 17.9407C57.1659 18.3949 56.9388 18.7924 56.6549 19.133C56.5414 19.2466 56.4279 19.3601 56.2576 19.4737C56.2008 19.5304 56.144 19.5872 56.0305 19.5872C54.668 20.3253 52.0567 21.6879 47.7423 23.7885C42.5196 26.3434 38.5458 31.9073 36.9563 34.3486C36.7292 34.6892 36.2183 34.5189 36.2183 34.1215C36.275 32.5318 36.3886 31.1124 36.5021 29.8066C36.5021 29.7499 36.5021 29.6363 36.5021 29.5795C37.5807 20.7795 40.9868 17.6569 46.7204 15.3859C52.0567 13.2285 56.3143 12.7175 57.9606 12.6039C58.4715 12.5472 58.8122 12.8878 58.8122 13.2852Z" fill="white"/>
<g opacity="0.4">
<path opacity="0.4" d="M144.419 68.1295H145.27L144.93 38.4932H144.589L144.419 68.1295Z" fill="#00384B"/>
</g>
<path opacity="0.12" d="M23.9565 159.934C23.9565 211.145 23.9565 288.245 23.9565 288.245C23.9565 288.245 23.7862 295.285 23.0482 298.805L22.8779 159.934H23.9565Z" fill="#00384B"/>
<path opacity="0.12" d="M158.838 159.934L158.668 298.805C157.987 295.285 157.76 288.245 157.76 288.245C157.76 288.245 157.76 211.145 157.76 159.934H158.838Z" fill="#00384B"/>
<path d="M58.8124 13.2852V14.3639C58.8124 14.5343 58.7556 14.7046 58.6421 14.8181C57.6202 15.8969 57.3364 17.0891 57.2228 17.884C57.1661 18.3382 56.939 18.7356 56.6552 19.0762C46.5504 20.382 40.0787 25.7189 36.5591 29.5795C37.6377 20.7795 41.0438 17.6569 46.7774 15.3859C52.1137 13.2285 56.3713 12.7175 58.0176 12.6039C58.4717 12.5472 58.8124 12.8878 58.8124 13.2852Z" fill="white"/>
<path opacity="0.7" d="M121.655 13.2853V14.364C121.655 14.5343 121.712 14.7046 121.825 14.875C122.79 15.9537 123.131 17.1459 123.244 17.9408C123.301 18.395 123.528 18.7924 123.812 19.1331C123.926 19.2466 124.039 19.3602 124.209 19.4737C124.266 19.5305 124.323 19.5872 124.436 19.5872C125.799 20.3253 128.41 21.6879 132.725 23.7886C137.947 26.3434 141.921 31.9073 143.511 34.4054C143.738 34.7461 144.249 34.5757 144.249 34.1783C144.192 32.5886 144.078 31.1693 143.965 29.8634C143.965 29.8067 143.965 29.6931 143.965 29.6364C142.886 20.8363 139.48 17.7137 133.746 15.4427C128.41 13.2853 124.153 12.7743 122.506 12.6607C121.995 12.5472 121.655 12.8878 121.655 13.2853Z" fill="white"/>
<path d="M121.655 13.2852V14.3639C121.655 14.5343 121.712 14.7046 121.825 14.8181C122.847 15.8969 123.131 17.0891 123.244 17.884C123.301 18.3382 123.528 18.7356 123.812 19.0762C133.917 20.382 140.388 25.6621 143.851 29.5795C142.773 20.7795 139.367 17.6569 133.633 15.3859C128.297 13.2285 124.039 12.7175 122.393 12.6039C121.995 12.5472 121.655 12.8878 121.655 13.2852Z" fill="white"/>
<path opacity="0.12" d="M101.275 0.454175C100.991 0.454175 100.707 0.3974 100.423 0.3974C100.707 0.3974 100.991 0.454175 101.275 0.454175Z" fill="#00384B"/>
<path opacity="0.12" d="M151.459 22.4827C148.961 19.0195 144.476 14.5343 136.528 11.6956C124.039 7.26715 103.943 4.59874 91.1704 4.59874C74.9913 4.59874 57.6201 7.26715 45.131 11.6956C37.297 14.4775 32.8123 18.8492 30.3145 22.3692C32.869 13.5691 35.821 12.2065 40.7031 9.36781C48.5372 4.88262 74.1966 0 90.3188 0H91.4542C94.4629 0 97.7555 0.170324 101.275 0.454197C116.489 1.76001 134.712 5.67746 141.07 9.36781C145.952 12.2065 148.904 13.5691 151.459 22.4827Z" fill="#00384B"/>
<path opacity="0.12" d="M80.4409 0.454175C80.7248 0.454175 81.0086 0.3974 81.2924 0.3974C81.0086 0.454175 80.7248 0.454175 80.4409 0.454175Z" fill="#00384B"/>
<path d="M154.978 81.2444C154.922 81.8689 155.376 82.4367 156.057 82.5502L158.839 82.8341L161.053 83.0612L160.996 81.1309V80.847L160.826 76.4753L156.965 76.0779L156.681 76.0211C156.057 75.9644 155.489 76.4186 155.376 77.0999L155.205 78.8031L154.978 81.2444Z" fill="currentColor"/>
<path opacity="0.12" d="M154.978 81.2444C154.922 81.8689 155.376 82.4367 156.057 82.5502L158.839 82.8341L161.053 83.0612L160.996 81.1309C159.35 80.6199 156.965 80.7902 156.454 79.9954C156 79.2005 156.511 76.8728 156.909 76.0779L156.625 76.0211C156 75.9644 155.433 76.4186 155.319 77.0999L155.149 78.8031L154.978 81.2444Z" fill="#00384B"/>
<path d="M181.716 91.9181L179.502 96.8575C179.218 97.5955 178.651 98.1065 178.026 98.3904C177.515 98.6175 176.891 98.6742 176.323 98.5039C171.328 97.2549 163.607 94.5297 163.607 94.5297C162.642 93.9619 161.904 93.0535 161.563 91.9748C161.45 91.6342 160.428 80.847 160.655 79.9954C160.996 78.6896 160.144 77.5541 160.882 76.3618L174.563 83.3451L179.275 85.7296C179.786 86.0135 180.467 86.7516 181.092 87.5464C182.057 88.8522 182.284 90.4987 181.716 91.9181Z" fill="currentColor"/>
<path opacity="0.12" d="M181.716 91.918L179.502 96.8574C179.219 97.5955 178.651 98.1065 178.026 98.3904C178.253 96.8574 178.481 94.5864 178.481 91.6342C178.481 86.3541 174.791 83.5722 174.563 83.4019L179.275 85.7864C179.786 86.0703 180.467 86.8083 181.092 87.6032C182.057 88.8522 182.284 90.4987 181.716 91.918Z" fill="#00384B"/>
<path d="M27.0215 81.2444C27.0783 81.8689 26.6241 82.4367 25.9429 82.5502L23.1612 82.8341L20.9473 83.0612L21.004 81.1309V80.847L21.1743 76.4753L25.0346 76.0779L25.3184 76.0211C25.9429 75.9644 26.5106 76.4186 26.6241 77.0999L26.7944 78.8031L27.0215 81.2444Z" fill="currentColor"/>
<path opacity="0.12" d="M27.0215 81.2444C27.0783 81.8689 26.6241 82.4367 25.9429 82.5502L23.1612 82.8341L20.9473 83.0612L21.004 81.1309C22.6503 80.6199 25.0346 80.7902 25.5455 79.9954C25.9997 79.2005 25.4887 76.8728 25.0914 76.0779L25.3752 76.0211C25.9997 75.9644 26.5674 76.4186 26.6809 77.0999L26.8512 78.8031L27.0215 81.2444Z" fill="#00384B"/>
<path d="M0.283609 91.9181L2.49758 96.8575C2.78143 97.5955 3.34911 98.1065 3.97357 98.3904C4.48448 98.6175 5.10894 98.6742 5.67662 98.5039C10.6723 97.2549 18.3928 94.5297 18.3928 94.5297C19.3578 93.9619 20.0958 93.0535 20.4364 91.9748C20.55 91.6342 21.5718 80.847 21.3447 79.9954C21.0041 78.6896 21.8557 77.5541 21.1177 76.3618L7.49322 83.4586L2.78143 85.8432C2.27051 86.127 1.58929 86.8651 0.964832 87.66C-0.0570018 88.8522 -0.284076 90.4987 0.283609 91.9181Z" fill="currentColor"/>
<path opacity="0.12" d="M0.283805 91.918L2.49778 96.8574C2.78162 97.5955 3.34931 98.1065 3.97376 98.3904C3.74669 96.8574 3.51961 94.5864 3.51961 91.6342C3.51961 86.3541 7.20957 83.5722 7.43664 83.4019L2.72485 85.7864C2.21394 86.0703 1.53271 86.8083 0.908259 87.6032C-0.0568065 88.8522 -0.283881 90.4987 0.283805 91.918Z" fill="#00384B"/>
<path d="M22.9343 155.96V156.017C22.9343 158.174 24.6942 159.991 26.9081 159.991H27.192V162.262H19.3579V157.266L22.9343 155.96Z" fill="white"/>
<path d="M158.839 155.96V156.017C158.839 158.174 157.079 159.991 154.865 159.991H154.581V162.262H162.358V157.266L158.839 155.96Z" fill="white"/>
<path d="M162.528 360.292H19.4149C16.1791 360.292 13.6245 357.68 13.6245 354.501V165.782C13.6245 162.546 16.2359 159.991 19.4149 159.991H162.528C165.764 159.991 168.319 162.602 168.319 165.782V354.501C168.319 357.68 165.764 360.292 162.528 360.292Z" fill="currentColor"/>
<path opacity="0.12" d="M158.839 122.633L158.782 155.903C158.782 158.117 156.965 159.934 154.751 159.934H26.8517C24.6945 159.934 22.9346 158.174 22.9346 156.017V155.903L22.8779 122.633C22.8779 122.633 21.7993 80.6767 25.9434 47.6339C25.9434 47.6339 24.0132 104.863 24.0132 116.104C24.0132 119.113 24.0132 132.796 24.0132 151.304C24.0132 153.859 26.1137 155.96 28.6683 155.96H151.288C154.865 155.96 157.817 153.064 157.817 149.431C157.817 131.887 157.817 119 157.817 116.104C157.817 104.863 155.887 47.6339 155.887 47.6339C159.917 80.6767 158.839 122.633 158.839 122.633Z" fill="#00384B"/>
<g opacity="0.5">
<g opacity="0.4">
<path opacity="0.4" d="M162.131 260.936H161.393L161.677 191.217H161.961L162.131 260.936Z" fill="#00384B"/>
</g>
<g opacity="0.4">
<path opacity="0.4" d="M161.393 260.936H162.131L161.847 330.655H161.563L161.393 260.936Z" fill="#00384B"/>
</g>
</g>
<g opacity="0.5">
<g opacity="0.4">
<path opacity="0.4" d="M21.2883 260.936H20.5503L20.8341 191.217H21.118L21.2883 260.936Z" fill="#00384B"/>
</g>
<g opacity="0.4">
<path opacity="0.4" d="M20.6069 260.936H21.3449L21.0043 330.655H20.7205L20.6069 260.936Z" fill="#00384B"/>
</g>
</g>
<path d="M29.2355 94.2458C29.0085 93.9052 28.4976 94.0187 28.4976 94.4729V147.955C28.4976 150.055 36.1045 151.702 36.1045 150.736V117.126C36.1045 110.029 34.2312 102.989 30.6548 96.7439L29.2355 94.2458Z" fill="#00384B"/>
</g>
<defs>
<clipPath id="clip0">
<rect width="182" height="370" fill="white"/>
</clipPath>
</defs>
</svg>
