<svg width="36" height="22" viewBox="0 0 36 22" fill="none" xmlns="http://www.w3.org/2000/svg">
<path d="M29.6288 15.2686C27.9215 15.2686 26.5332 16.6677 26.5332 18.3884C26.5332 20.1091 27.9215 21.5082 29.6288 21.5082C31.3362 21.5082 32.7245 20.1091 32.7245 18.3884C32.7245 16.6677 31.3362 15.2686 29.6288 15.2686ZM29.6288 19.3009C29.1287 19.3009 28.7148 18.8924 28.7148 18.3797C28.7148 17.8757 29.1201 17.4585 29.6288 17.4585C30.129 17.4585 30.5429 17.867 30.5429 18.3797C30.5429 18.8924 30.1376 19.3009 29.6288 19.3009Z" fill="currentColor"/>
<path d="M29.3342 4.03223H23.988C23.5827 4.03223 23.2637 4.36246 23.2637 4.76222V17.3372C23.2637 17.7456 23.5913 18.0672 23.988 18.0672H24.7641C25.1262 18.0672 25.4453 17.8065 25.4884 17.4415C25.7729 15.2341 27.5234 13.8697 29.636 13.8697C31.7486 13.8697 33.4991 15.2428 33.7837 17.4415C33.8268 17.7978 34.1458 18.0672 34.508 18.0672H35.2754C35.6807 18.0672 35.9998 17.737 35.9998 17.3372V11.9231C35.9998 11.7493 35.9394 11.5842 35.8273 11.4538L29.8861 4.30163C29.7567 4.13651 29.5498 4.03223 29.3342 4.03223ZM25.3935 9.74181V6.39601C25.3935 6.03101 25.6867 5.72685 26.0575 5.72685H28.9807C29.179 5.72685 29.3687 5.81375 29.4894 5.97018L32.2574 9.31598C32.6196 9.7505 32.3091 10.411 31.7486 10.411H26.0575C25.6953 10.411 25.3935 10.1155 25.3935 9.74181Z" fill="currentColor"/>
<path d="M0.724327 18.076H2.58688C2.94905 18.076 3.26809 17.8153 3.31121 17.4503C3.59577 15.2429 5.34622 13.8785 7.45884 13.8785C9.57146 13.8785 11.3219 15.2516 11.6065 17.4503C11.6496 17.8066 11.9686 18.076 12.3308 18.076H21.4797C21.885 18.076 22.2041 17.7458 22.2041 17.346V0.729992C22.2041 0.321544 21.8764 0 21.4797 0H0.724327C0.327672 0 0 0.330234 0 0.729992V17.3373C0 17.7458 0.327672 18.076 0.724327 18.076Z" fill="currentColor"/>
<path d="M7.46673 15.2686C5.75939 15.2686 4.37109 16.6677 4.37109 18.3884C4.37109 20.1091 5.75939 21.5082 7.46673 21.5082C9.17407 21.5082 10.5624 20.1091 10.5624 18.3884C10.5624 16.6677 9.17407 15.2686 7.46673 15.2686ZM7.46673 19.3009C6.9666 19.3009 6.5527 18.8924 6.5527 18.3797C6.5527 17.8757 6.95798 17.4585 7.46673 17.4585C7.97548 17.4585 8.38076 17.867 8.38076 18.3797C8.37214 18.8924 7.96686 19.3009 7.46673 19.3009Z" fill="currentColor"/>
</svg>
