<?xml version="1.0" encoding="UTF-8" standalone="no"?>
<svg
   xmlns:dc="http://purl.org/dc/elements/1.1/"
   xmlns:cc="http://creativecommons.org/ns#"
   xmlns:rdf="http://www.w3.org/1999/02/22-rdf-syntax-ns#"
   xmlns:svg="http://www.w3.org/2000/svg"
   xmlns="http://www.w3.org/2000/svg"
   xmlns:sodipodi="http://sodipodi.sourceforge.net/DTD/sodipodi-0.dtd"
   xmlns:inkscape="http://www.inkscape.org/namespaces/inkscape"
   width="259"
   height="82.921997"
   viewBox="0 0 258.99999 82.921997"
   fill="none"
   version="1.1"
   id="svg4"
   sodipodi:docname="BusTrailerSketch.svg"
   inkscape:version="1.0.2-2 (e86c870879, 2021-01-15)">
  <metadata
     id="metadata10">
    <rdf:RDF>
      <cc:Work
         rdf:about="">
        <dc:format>image/svg+xml</dc:format>
        <dc:type
           rdf:resource="http://purl.org/dc/dcmitype/StillImage" />
        <dc:title></dc:title>
      </cc:Work>
    </rdf:RDF>
  </metadata>
  <defs
     id="defs8" />
  <sodipodi:namedview
     pagecolor="#ffffff"
     bordercolor="#666666"
     borderopacity="1"
     objecttolerance="10"
     gridtolerance="10"
     guidetolerance="10"
     inkscape:pageopacity="0"
     inkscape:pageshadow="2"
     inkscape:window-width="1920"
     inkscape:window-height="1017"
     id="namedview6"
     showgrid="false"
     inkscape:zoom="5.4147817"
     inkscape:cx="150.01262"
     inkscape:cy="59.276709"
     inkscape:window-x="-8"
     inkscape:window-y="-8"
     inkscape:window-maximized="1"
     inkscape:current-layer="svg4"
     showguides="false" />
  <g
     style="fill:none"
     id="g119"
     transform="rotate(90,129.1471,129.1589)">
    <path
       d="m 79.1439,212.798 h -5.6131 l -0.0506,-34.419 c 0,-1.318 -1.0619,-2.433 -2.4273,-2.433 l -27.0038,0.051 V 159.37 h 30.8976 c 3.3376,0 6.0683,-2.737 6.0683,-6.082 V 63.7684 c 0,-3.3455 -2.7307,-6.0828 -6.0683,-6.0828 h -2.4273 l -0.1011,-21.9489 6.6245,-0.3042 c 0,0 0.9608,-2.8386 -0.5562,-3.9538 -2.2251,-1.6221 -6.1695,-1.9262 -6.1695,-1.9262 0,0 -2.1238,-1.977 -2.1238,-14.1426 0,-12.72331 -12.9962,-14.446784 -12.9962,-14.446784 0,0 -6.22,-0.811045 -15.9292,-0.963116 h -0.2023 c -9.6587,0 -16.7889,0.709665 -16.7889,0.709665 0,0 -12.5411,1.013805 -13.0468,13.179535 -0.4551,11.7601 -1.82043,15.2577 -1.82043,15.2577 0,0 -3.94438,0.2535 -6.16941,1.8756 C 1.77357,32.087 2.6838,34.9763 2.6838,34.9763 l 6.62453,0.4056 0.05056,22.3037 H 7.84183 c -3.33755,0 -6.06827,2.7373 -6.06827,6.0828 v 89.5696 c 0,3.346 2.73072,6.083 6.06827,6.083 H 38.5877 l 0.0506,16.627 -27.0038,0.05 c -1.3148,0 -2.42731,1.115 -2.42731,2.433 L 9.25776,212.95 H 6.07192 3.59404 c -1.76991,0 -3.185837,1.217 -3.185837,2.636 v 17.184 3.143 c 0,1.014 0.657397,1.875 1.668777,2.332 0.45512,0.202 0.96081,0.304 1.51706,0.304 h 5.61315 v 13.838 c 0,1.318 1.06191,2.433 2.42731,2.433 h 0.7585 v 1.318 c 0,0.507 0.4046,0.862 0.8597,0.862 h 56.4349 c 0.5057,0 1.0114,-0.406 1.0114,-0.912 v -1.318 h 0.4045 c 1.3148,0 2.4273,-1.116 2.4273,-2.434 v -13.889 h 5.6131 c 1.77,0 3.1859,-1.166 3.1859,-2.636 v -20.326 c 0,-1.521 -1.4159,-2.687 -3.1859,-2.687 z M 69.283,57.6856 h -8.3944 c 0.1011,-1.6728 0.2528,-2.9907 0.4045,-3.8018 1.7699,-8.1611 7.8888,-17.843 7.8888,-17.843 z M 54.3652,9.07357 c 0.4551,-2.02761 3.0847,-3.19349 5.9166,-2.53452 2.8318,0.60829 4.7029,2.73728 4.2477,4.76485 -0.4551,2.0277 -3.0847,3.1935 -5.866,2.5346 -2.7812,-0.6083 -4.7029,-2.788 -4.2983,-4.76493 z M 21.3943,6.18422 c 2.8319,-0.60828 5.4614,0.5069 5.9165,2.58521 0.4046,2.02757 -1.517,4.15657 -4.2983,4.76487 -2.7813,0.6083 -5.4109,-0.5576 -5.866,-2.5852 -0.5057,-2.0276 1.4159,-4.20729 4.2478,-4.76488 z M 15.1237,26.6631 c 0.9609,-1.7235 11.378,-3.7511 11.378,-3.7511 0,0 6.928,-0.8617 14.2605,-0.8617 h 0.354 c 7.3324,0.0507 14.2604,1.0138 14.2604,1.0138 0,0 10.3666,2.1797 11.3274,3.8525 0.9608,1.6727 -6.1694,15.3085 -6.1694,15.3085 L 41.015,42.0223 H 40.5093 L 20.9897,41.9716 c 0.1012,0.0507 -6.8773,-13.6357 -5.866,-15.3085 z m -2.1238,9.1243 c 0,0 6.1694,9.5804 7.9898,17.7923 0.2023,0.8617 0.354,2.2811 0.4552,4.1059 h -8.4956 z"
       fill="currentColor"
       id="path108" />
  </g>
</svg>
