<svg width="32" height="22" viewBox="0 0 32 22" fill="none" xmlns="http://www.w3.org/2000/svg">
<path d="M17.7411 13.1734C17.7411 16.1353 17.7411 19.0287 17.7411 21.9135C17.4374 22.0077 14.6739 22.0162 14.2564 21.9306C14.2564 19.0372 14.2564 16.1353 14.2564 13.182C9.49622 13.182 4.77403 13.182 0.0214844 13.182C0.0214844 11.7096 0.0214844 10.2886 0.0214844 8.82478C0.55292 8.79054 1.07676 8.81622 1.6082 8.80766C2.12445 8.80766 2.64829 8.80766 3.16454 8.80766C3.69598 8.80766 4.22742 8.80766 4.75885 8.80766C5.2751 8.80766 5.79894 8.80766 6.3152 8.80766C6.84663 8.80766 7.37807 8.80766 7.9095 8.80766C8.42575 8.80766 8.9496 8.80766 9.46585 8.80766C9.99728 8.80766 10.5287 8.80766 11.0602 8.80766C11.5764 8.80766 12.1002 8.80766 12.6165 8.80766C13.1479 8.80766 13.6718 8.80766 14.2488 8.80766C14.2488 8.05436 14.2564 7.33529 14.2564 6.60766C14.2564 5.88004 14.2564 5.15241 14.2564 4.42478C14.2564 3.71428 14.2564 2.99521 14.2564 2.28471C14.2564 1.55708 14.2564 0.838013 14.2564 0.118947C14.56 0.0247839 16.9743 -0.00945733 17.7259 0.0675855C17.7638 0.538403 17.7411 1.01778 17.7411 1.4886C17.7486 1.97653 17.7411 2.45591 17.7411 2.94385C17.7411 3.43179 17.7411 3.91116 17.7411 4.3991C17.7411 4.88704 17.7411 5.36642 17.7411 5.85436C17.7411 6.34229 17.7411 6.82167 17.7411 7.30961C17.7411 7.78899 17.7411 8.26836 17.7411 8.7991C22.5088 8.7991 27.231 8.7991 31.9759 8.7991C31.9759 10.2629 31.9759 11.6839 31.9759 13.1563C31.0193 13.1991 30.0779 13.1649 29.129 13.1734C28.18 13.182 27.231 13.1734 26.282 13.1734C25.3482 13.1734 24.4068 13.1734 23.473 13.1734C22.524 13.1734 21.575 13.1734 20.626 13.1734C19.6922 13.1734 18.7432 13.1734 17.7411 13.1734Z" fill="#DA1832"/>
<path d="M13.3009 6.65169C10.249 4.45169 7.23497 2.28593 4.21338 0.111614C4.49428 0.0174507 12.6252 -0.0167906 13.263 0.0688125C13.3541 0.376984 13.392 5.3334 13.3009 6.65169Z" fill="#0E2F8E"/>
<path d="M18.6899 6.60847C18.6899 4.37423 18.6899 2.24271 18.6899 0.111191C18.9557 0.0255879 27.2005 -0.0172136 27.7775 0.0683895C24.7407 2.25983 21.7419 4.41703 18.6899 6.60847Z" fill="#0E2F8E"/>
<path d="M13.3099 15.6829C13.3099 17.8315 13.3099 19.886 13.3099 21.9747C10.4097 21.9747 7.53999 21.9747 4.67024 21.9747C4.66264 21.9576 4.65505 21.9405 4.64746 21.9148C7.50962 19.8517 10.3794 17.7887 13.3099 15.6829Z" fill="#0E2F8E"/>
<path d="M27.2691 21.9751C24.4297 21.9751 21.5827 21.9751 18.7434 21.9751C18.6523 21.6669 18.6219 16.7191 18.6978 15.7346C21.5676 17.7977 24.4221 19.8436 27.2691 21.8981C27.2767 21.9237 27.2691 21.9494 27.2691 21.9751Z" fill="#0E2F8E"/>
<path d="M24.5449 14.7317C27.073 14.7317 29.5024 14.7317 31.9319 14.7317C32.0078 15.057 32.023 19.5426 31.947 20.0391C31.0968 19.4827 30.2996 18.8663 29.4873 18.2928C28.6749 17.7192 27.8702 17.1371 27.0578 16.5465C26.2379 15.9558 25.4256 15.3652 24.5449 14.7317Z" fill="#0E2F8E"/>
<path d="M0.0317383 20.0051C0.0317383 18.2245 0.0317383 16.4953 0.0317383 14.7405C2.46875 14.7405 4.87539 14.7405 7.28203 14.7405C7.09224 14.9887 1.52735 19.0378 0.0317383 20.0051Z" fill="#0E2F8E"/>
<path d="M24.9624 7.29279C27.3235 5.59784 29.6239 3.93714 32.0001 2.23364C32.0001 3.96283 32.0001 5.60641 32.0001 7.23286C31.6433 7.34415 26.5567 7.37839 24.9624 7.29279Z" fill="#0E2F8E"/>
<path d="M6.91609 7.30194C4.62332 7.30194 2.35333 7.30194 0.0377944 7.30194C-0.030533 6.89105 0.0150186 6.48015 0.00742666 6.07782C-0.000165276 5.66692 0.00742666 5.24747 0.00742666 4.83657C0.00742666 4.43424 0.00742666 4.04046 0.00742666 3.63813C0.00742666 3.22724 0.00742666 2.81634 0.00742666 2.42257C0.0529783 2.39689 0.0605702 2.38833 0.0757541 2.38833C0.083346 2.38833 0.106122 2.37977 0.113714 2.38833C2.35333 3.98054 4.59296 5.58988 6.83258 7.19066C6.85535 7.20778 6.87813 7.25058 6.91609 7.30194Z" fill="#0E2F8E"/>
<path d="M31.3474 0.112276C31.15 0.257801 30.9526 0.411887 30.7552 0.548852C27.7109 2.74029 24.6741 4.91461 21.6373 7.10605C21.4399 7.25158 21.2425 7.32862 20.9996 7.32006C20.4833 7.30294 19.9595 7.32006 19.4432 7.3115C19.3446 7.3115 19.2534 7.30294 19.0864 7.28582C19.1927 7.19165 19.2459 7.14029 19.299 7.09749C22.4952 4.79477 25.6914 2.5006 28.8876 0.189319C29.0774 0.0523538 29.2672 -0.00756836 29.495 -0.00756836C30.1023 0.000991952 30.7021 0.000991952 31.3094 0.000991952C31.3246 0.0437935 31.3322 0.0780348 31.3474 0.112276Z" fill="#DA1832"/>
<path d="M1.01758 21.9065C1.52624 21.5384 2.0349 21.1703 2.54356 20.8022C4.88187 19.1244 7.2126 17.4465 9.55091 15.7687C9.95328 15.4777 10.3632 15.1952 10.7656 14.8956C10.9326 14.7757 11.0921 14.7072 11.2971 14.7158C11.9348 14.7244 12.5801 14.7158 13.3013 14.7158C13.1571 14.8357 13.0812 14.9127 12.9976 14.9641C9.86218 17.2154 6.72671 19.4753 3.59884 21.7353C3.34071 21.9236 3.09018 22.0006 2.7865 21.9921C2.20951 21.975 1.62493 21.9835 1.04795 21.9835C1.03276 21.9664 1.02517 21.9322 1.01758 21.9065Z" fill="#DA1832"/>
<path d="M31.9777 21.0251C31.9777 21.3589 31.9777 21.65 31.9777 21.9838C31.6512 21.9838 31.3551 21.9924 31.0515 21.9753C30.9604 21.9667 30.8693 21.8896 30.7857 21.8297C27.5668 19.5184 24.3554 17.2072 21.1364 14.8959C21.0833 14.8616 21.0377 14.8188 20.9238 14.7161C21.5008 14.7161 22.0019 14.7418 22.4954 14.7075C22.9812 14.6819 23.3836 14.8103 23.8012 15.1184C26.4659 17.0616 29.1383 18.9706 31.8107 20.8967C31.8714 20.9309 31.9169 20.9737 31.9777 21.0251Z" fill="#DA1832"/>
<path d="M10.4755 7.31063C9.78466 7.31063 9.09379 7.31919 8.40293 7.30207C8.27387 7.30207 8.1448 7.19935 8.03093 7.12231C6.36829 5.93242 4.70566 4.73398 3.04303 3.53554C2.13199 2.88495 1.21337 2.22581 0.302339 1.56667C0.218827 1.50674 0.135316 1.43826 0.0366211 1.36122C0.0366211 0.933202 0.0366211 0.496626 0.0366211 0.0514902C0.302339 -0.0169923 0.514913 0.0343696 0.735079 0.188455C3.92369 2.49118 7.11989 4.78534 10.3161 7.08807C10.3768 7.13087 10.4376 7.18223 10.4983 7.23359C10.4831 7.25927 10.4831 7.28495 10.4755 7.31063Z" fill="#DA1832"/>
</svg>
