<svg width="44" height="24" viewBox="0 0 44 24" fill="none" xmlns="http://www.w3.org/2000/svg">
<mask id="path-1-inside-1" fill="white">
<path d="M42.4576 10.9096C41.3506 9.57051 39.8681 8.75106 37.9112 8.43127C37.1007 8.29137 36.3496 8.13147 35.6379 7.99156C34.9263 7.85166 34.2147 7.69176 33.4043 7.55186C32.8508 7.45192 32.4159 7.23207 32.0008 6.77238C31.2299 5.97291 30.4392 5.15345 29.6683 4.37397C29.1939 3.89429 28.7195 3.41461 28.2451 2.93493C27.0788 1.73573 25.6358 1.03619 23.9358 0.856314C23.4219 0.796354 22.8486 0.776367 22.137 0.776367C20.951 0.776367 19.765 0.776367 18.579 0.796354C17.2941 0.796354 16.0092 0.816341 14.7244 0.816341C14.1116 0.816341 13.4791 0.816341 12.8465 0.816341C11.0082 0.816341 9.70354 1.61581 8.87333 3.23473C8.51752 3.91428 8.14194 4.59383 7.78614 5.2334C7.5687 5.63313 7.3315 6.05286 7.11406 6.45259L7.03499 6.5925C6.67918 7.25206 6.46174 7.67178 5.75013 7.87164C5.37456 7.99157 4.99898 8.0915 4.62341 8.19143C4.40597 8.25139 4.18853 8.31135 3.97109 8.35133C3.51645 8.47125 3.06181 8.59117 2.60717 8.75106C1.0851 9.2907 0.195584 10.4699 0.0572143 12.0489C-0.0218539 13.0682 -0.00208687 14.0875 0.0176802 15.1068C0.0176802 15.4866 0.0374473 15.8863 0.0374473 16.2661C0.0374473 16.4459 0.0769814 16.6258 0.136283 16.8057L0.15605 16.9056C0.571158 18.5845 2.13276 19.8437 3.81296 19.8437C3.85249 19.8437 3.87226 19.8437 3.91179 19.8437C4.22807 19.8237 4.5048 19.8237 4.82108 19.8237C5.03852 19.8237 5.23619 19.8237 5.45362 19.8237C5.67106 19.8237 5.8885 19.8237 6.14547 19.8237C6.99546 22.302 8.59659 23.5612 10.8698 23.5612C10.9489 23.5612 11.0279 23.5612 11.107 23.5612C13.2814 23.4813 14.8034 22.2421 15.5941 19.9036H28.3241C29.1148 22.2421 30.6369 23.4613 32.8112 23.5612C32.9101 23.5612 32.9891 23.5612 33.088 23.5612C35.3217 23.5612 36.903 22.322 37.7728 19.8836C37.8321 19.8836 37.8716 19.8836 37.9309 19.8836C38.1088 19.8637 38.2867 19.8637 38.4646 19.8637C38.7018 19.8637 38.8995 19.8637 39.0972 19.8637H39.7495C40.1053 19.8637 40.4611 19.8637 40.896 19.8437C42.7738 19.8037 43.9401 18.5845 43.9796 16.6658C43.9796 16.4459 43.9796 16.2061 43.9796 15.9862C43.9796 15.6265 43.9599 15.2467 43.9994 14.887C44.0192 13.5079 43.5448 12.2487 42.4576 10.9096ZM39.5123 11.3693L39.7693 11.5292C40.3425 11.829 41.1134 12.9683 41.1134 12.9683C41.1134 12.9683 39.0576 13.288 39.0576 12.4686C39.0576 11.6691 39.5123 11.3693 39.5123 11.3693ZM22.1963 3.07484C22.4533 3.05485 22.6707 3.05485 22.8882 3.05485C24.5486 3.05485 25.6951 3.49456 26.6044 4.47391C27.2567 5.17344 27.909 5.833 28.6206 6.53254C28.8578 6.77238 29.1148 7.01222 29.3718 7.27204C29.1148 7.332 28.8183 7.35199 28.4823 7.35199C28.2846 7.35199 28.1067 7.35199 27.909 7.332C27.7311 7.332 27.5334 7.31202 27.3555 7.31202C27.2765 7.31202 27.2172 7.31202 27.1381 7.31202C26.8218 7.332 26.466 7.332 26.0311 7.332C25.7939 7.332 25.5765 7.332 25.3393 7.332C25.1021 7.332 24.8847 7.332 24.6474 7.332H22.1963V3.07484ZM15.3174 3.05485C16.029 3.03486 16.7802 3.03486 17.729 3.03486C18.1836 3.03486 18.6383 3.03486 19.0731 3.03486H19.8045C19.9627 3.95425 19.9824 6.19276 19.844 7.29203C19.0138 7.332 18.1441 7.35199 17.0174 7.35199C16.4046 7.35199 15.7918 7.35199 15.1593 7.35199C14.6255 7.35199 14.0721 7.332 13.4988 7.332L15.3174 3.05485ZM2.74554 11.2094C2.74554 11.2094 2.7653 11.2094 2.74554 11.2094C2.84437 11.1295 2.94321 11.0495 3.10134 11.0096C3.37808 10.8696 3.65482 10.8297 3.65482 10.8297C3.59552 12.1288 2.50833 12.1488 2.38973 12.1688C2.36996 12.1688 2.36996 11.5092 2.74554 11.2094ZM10.9291 21.3227C10.9093 21.3227 10.8698 21.3227 10.85 21.3227C10.178 21.3227 9.54541 21.0429 9.05123 20.5632C8.55705 20.0635 8.28031 19.404 8.30008 18.7044C8.31985 17.2654 9.4268 16.1461 10.8698 16.1262L10.8896 15.9263V16.1262C12.3128 16.1262 13.4395 17.2454 13.4395 18.6844C13.4593 20.1035 12.3326 21.2827 10.9291 21.3227ZM33.0089 21.3227C32.3171 21.3227 31.6648 21.0429 31.1903 20.5432C30.6962 20.0435 30.4392 19.344 30.4392 18.6245C30.459 17.2254 31.5857 16.1262 32.9891 16.1262H33.0485C34.4717 16.1661 35.5786 17.3054 35.5589 18.7444C35.5786 20.1835 34.4124 21.3227 33.0089 21.3227ZM41.6867 16.8257C41.6471 17.3254 41.3902 17.5652 40.9157 17.5852C40.4611 17.5852 40.0262 17.6052 39.5321 17.6052C39.2355 17.6052 38.9588 17.6052 38.6623 17.6052C38.3856 17.6052 38.0891 17.6052 37.753 17.6052C36.9228 15.1468 35.3217 13.9076 33.0485 13.9076H33.0089C30.7357 13.9276 29.1543 15.1668 28.3439 17.5652H15.5941C14.7441 15.1268 13.1628 13.8876 10.8896 13.8876C10.85 13.8876 10.8105 13.8876 10.7512 13.8876C8.53729 13.9276 6.99546 15.1668 6.16524 17.5852C5.90827 17.5852 5.67106 17.5852 5.43386 17.5852C5.19665 17.5852 4.95945 17.5852 4.72224 17.5852C4.34667 17.5852 4.01063 17.5652 3.67459 17.5452C2.94321 17.5052 2.44903 17.0256 2.31066 16.2661C2.23159 15.8064 2.23159 15.3467 2.21182 14.847C2.21182 14.6671 2.21182 14.4872 2.19206 14.3074C4.68271 13.8677 5.8292 12.5885 5.96757 10.1102C6.0071 10.0902 6.04664 10.0902 6.08617 10.0702C6.26407 10.0102 6.42221 9.95026 6.58035 9.91029C7.7466 9.5905 8.20125 8.91095 8.79426 7.83167C9.1303 7.23207 9.46634 6.63247 9.80238 6.05286C10.178 5.37331 10.5733 4.69376 10.9489 4.01421C11.3244 3.35465 11.8779 3.03486 12.6291 3.01488C12.6686 3.01488 12.7279 3.03486 12.807 3.05485L12.6488 3.41461C12.4709 3.83433 12.3128 4.21408 12.1349 4.61381C12.0558 4.81368 11.957 5.01355 11.8779 5.21341C11.6803 5.67311 11.4628 6.15279 11.3047 6.65246C11.0675 7.43194 11.1268 8.15146 11.5221 8.6911C11.8977 9.21075 12.5698 9.51055 13.3802 9.53054C14.1314 9.53054 14.9023 9.53054 15.6534 9.53054C16.4639 9.53054 17.2941 9.53054 18.1045 9.53054C18.8952 9.53054 19.6859 9.53054 20.4964 9.53054C20.4964 9.53054 24.9835 9.53054 25.9521 9.53054C27.4939 9.53054 29.0357 9.53054 30.5776 9.53054C32.3961 9.53054 33.9775 9.8903 35.6577 10.2501C36.2112 10.37 36.7647 10.4899 37.3577 10.6098C37.3577 10.6098 37.3972 10.6498 37.3972 10.6698C37.3774 10.6898 37.3774 10.7297 37.3774 10.7497C37.3181 10.9096 37.2588 11.0895 37.2193 11.2694C36.9623 12.2287 37.1205 13.1881 37.6542 13.9276C38.1879 14.6671 39.0379 15.1068 40.0065 15.1468C40.2041 15.1468 40.4216 15.1668 40.6785 15.1668C40.8564 15.1668 41.0541 15.1668 41.232 15.1668C41.3704 15.1668 41.5285 15.1668 41.6867 15.1668C41.6867 15.3267 41.6867 15.4866 41.6867 15.6465C41.7064 16.0862 41.7262 16.4659 41.6867 16.8257Z"/>
</mask>
<path d="M42.4576 10.9096C41.3506 9.57051 39.8681 8.75106 37.9112 8.43127C37.1007 8.29137 36.3496 8.13147 35.6379 7.99156C34.9263 7.85166 34.2147 7.69176 33.4043 7.55186C32.8508 7.45192 32.4159 7.23207 32.0008 6.77238C31.2299 5.97291 30.4392 5.15345 29.6683 4.37397C29.1939 3.89429 28.7195 3.41461 28.2451 2.93493C27.0788 1.73573 25.6358 1.03619 23.9358 0.856314C23.4219 0.796354 22.8486 0.776367 22.137 0.776367C20.951 0.776367 19.765 0.776367 18.579 0.796354C17.2941 0.796354 16.0092 0.816341 14.7244 0.816341C14.1116 0.816341 13.4791 0.816341 12.8465 0.816341C11.0082 0.816341 9.70354 1.61581 8.87333 3.23473C8.51752 3.91428 8.14194 4.59383 7.78614 5.2334C7.5687 5.63313 7.3315 6.05286 7.11406 6.45259L7.03499 6.5925C6.67918 7.25206 6.46174 7.67178 5.75013 7.87164C5.37456 7.99157 4.99898 8.0915 4.62341 8.19143C4.40597 8.25139 4.18853 8.31135 3.97109 8.35133C3.51645 8.47125 3.06181 8.59117 2.60717 8.75106C1.0851 9.2907 0.195584 10.4699 0.0572143 12.0489C-0.0218539 13.0682 -0.00208687 14.0875 0.0176802 15.1068C0.0176802 15.4866 0.0374473 15.8863 0.0374473 16.2661C0.0374473 16.4459 0.0769814 16.6258 0.136283 16.8057L0.15605 16.9056C0.571158 18.5845 2.13276 19.8437 3.81296 19.8437C3.85249 19.8437 3.87226 19.8437 3.91179 19.8437C4.22807 19.8237 4.5048 19.8237 4.82108 19.8237C5.03852 19.8237 5.23619 19.8237 5.45362 19.8237C5.67106 19.8237 5.8885 19.8237 6.14547 19.8237C6.99546 22.302 8.59659 23.5612 10.8698 23.5612C10.9489 23.5612 11.0279 23.5612 11.107 23.5612C13.2814 23.4813 14.8034 22.2421 15.5941 19.9036H28.3241C29.1148 22.2421 30.6369 23.4613 32.8112 23.5612C32.9101 23.5612 32.9891 23.5612 33.088 23.5612C35.3217 23.5612 36.903 22.322 37.7728 19.8836C37.8321 19.8836 37.8716 19.8836 37.9309 19.8836C38.1088 19.8637 38.2867 19.8637 38.4646 19.8637C38.7018 19.8637 38.8995 19.8637 39.0972 19.8637H39.7495C40.1053 19.8637 40.4611 19.8637 40.896 19.8437C42.7738 19.8037 43.9401 18.5845 43.9796 16.6658C43.9796 16.4459 43.9796 16.2061 43.9796 15.9862C43.9796 15.6265 43.9599 15.2467 43.9994 14.887C44.0192 13.5079 43.5448 12.2487 42.4576 10.9096ZM39.5123 11.3693L39.7693 11.5292C40.3425 11.829 41.1134 12.9683 41.1134 12.9683C41.1134 12.9683 39.0576 13.288 39.0576 12.4686C39.0576 11.6691 39.5123 11.3693 39.5123 11.3693ZM22.1963 3.07484C22.4533 3.05485 22.6707 3.05485 22.8882 3.05485C24.5486 3.05485 25.6951 3.49456 26.6044 4.47391C27.2567 5.17344 27.909 5.833 28.6206 6.53254C28.8578 6.77238 29.1148 7.01222 29.3718 7.27204C29.1148 7.332 28.8183 7.35199 28.4823 7.35199C28.2846 7.35199 28.1067 7.35199 27.909 7.332C27.7311 7.332 27.5334 7.31202 27.3555 7.31202C27.2765 7.31202 27.2172 7.31202 27.1381 7.31202C26.8218 7.332 26.466 7.332 26.0311 7.332C25.7939 7.332 25.5765 7.332 25.3393 7.332C25.1021 7.332 24.8847 7.332 24.6474 7.332H22.1963V3.07484ZM15.3174 3.05485C16.029 3.03486 16.7802 3.03486 17.729 3.03486C18.1836 3.03486 18.6383 3.03486 19.0731 3.03486H19.8045C19.9627 3.95425 19.9824 6.19276 19.844 7.29203C19.0138 7.332 18.1441 7.35199 17.0174 7.35199C16.4046 7.35199 15.7918 7.35199 15.1593 7.35199C14.6255 7.35199 14.0721 7.332 13.4988 7.332L15.3174 3.05485ZM2.74554 11.2094C2.74554 11.2094 2.7653 11.2094 2.74554 11.2094C2.84437 11.1295 2.94321 11.0495 3.10134 11.0096C3.37808 10.8696 3.65482 10.8297 3.65482 10.8297C3.59552 12.1288 2.50833 12.1488 2.38973 12.1688C2.36996 12.1688 2.36996 11.5092 2.74554 11.2094ZM10.9291 21.3227C10.9093 21.3227 10.8698 21.3227 10.85 21.3227C10.178 21.3227 9.54541 21.0429 9.05123 20.5632C8.55705 20.0635 8.28031 19.404 8.30008 18.7044C8.31985 17.2654 9.4268 16.1461 10.8698 16.1262L10.8896 15.9263V16.1262C12.3128 16.1262 13.4395 17.2454 13.4395 18.6844C13.4593 20.1035 12.3326 21.2827 10.9291 21.3227ZM33.0089 21.3227C32.3171 21.3227 31.6648 21.0429 31.1903 20.5432C30.6962 20.0435 30.4392 19.344 30.4392 18.6245C30.459 17.2254 31.5857 16.1262 32.9891 16.1262H33.0485C34.4717 16.1661 35.5786 17.3054 35.5589 18.7444C35.5786 20.1835 34.4124 21.3227 33.0089 21.3227ZM41.6867 16.8257C41.6471 17.3254 41.3902 17.5652 40.9157 17.5852C40.4611 17.5852 40.0262 17.6052 39.5321 17.6052C39.2355 17.6052 38.9588 17.6052 38.6623 17.6052C38.3856 17.6052 38.0891 17.6052 37.753 17.6052C36.9228 15.1468 35.3217 13.9076 33.0485 13.9076H33.0089C30.7357 13.9276 29.1543 15.1668 28.3439 17.5652H15.5941C14.7441 15.1268 13.1628 13.8876 10.8896 13.8876C10.85 13.8876 10.8105 13.8876 10.7512 13.8876C8.53729 13.9276 6.99546 15.1668 6.16524 17.5852C5.90827 17.5852 5.67106 17.5852 5.43386 17.5852C5.19665 17.5852 4.95945 17.5852 4.72224 17.5852C4.34667 17.5852 4.01063 17.5652 3.67459 17.5452C2.94321 17.5052 2.44903 17.0256 2.31066 16.2661C2.23159 15.8064 2.23159 15.3467 2.21182 14.847C2.21182 14.6671 2.21182 14.4872 2.19206 14.3074C4.68271 13.8677 5.8292 12.5885 5.96757 10.1102C6.0071 10.0902 6.04664 10.0902 6.08617 10.0702C6.26407 10.0102 6.42221 9.95026 6.58035 9.91029C7.7466 9.5905 8.20125 8.91095 8.79426 7.83167C9.1303 7.23207 9.46634 6.63247 9.80238 6.05286C10.178 5.37331 10.5733 4.69376 10.9489 4.01421C11.3244 3.35465 11.8779 3.03486 12.6291 3.01488C12.6686 3.01488 12.7279 3.03486 12.807 3.05485L12.6488 3.41461C12.4709 3.83433 12.3128 4.21408 12.1349 4.61381C12.0558 4.81368 11.957 5.01355 11.8779 5.21341C11.6803 5.67311 11.4628 6.15279 11.3047 6.65246C11.0675 7.43194 11.1268 8.15146 11.5221 8.6911C11.8977 9.21075 12.5698 9.51055 13.3802 9.53054C14.1314 9.53054 14.9023 9.53054 15.6534 9.53054C16.4639 9.53054 17.2941 9.53054 18.1045 9.53054C18.8952 9.53054 19.6859 9.53054 20.4964 9.53054C20.4964 9.53054 24.9835 9.53054 25.9521 9.53054C27.4939 9.53054 29.0357 9.53054 30.5776 9.53054C32.3961 9.53054 33.9775 9.8903 35.6577 10.2501C36.2112 10.37 36.7647 10.4899 37.3577 10.6098C37.3577 10.6098 37.3972 10.6498 37.3972 10.6698C37.3774 10.6898 37.3774 10.7297 37.3774 10.7497C37.3181 10.9096 37.2588 11.0895 37.2193 11.2694C36.9623 12.2287 37.1205 13.1881 37.6542 13.9276C38.1879 14.6671 39.0379 15.1068 40.0065 15.1468C40.2041 15.1468 40.4216 15.1668 40.6785 15.1668C40.8564 15.1668 41.0541 15.1668 41.232 15.1668C41.3704 15.1668 41.5285 15.1668 41.6867 15.1668C41.6867 15.3267 41.6867 15.4866 41.6867 15.6465C41.7064 16.0862 41.7262 16.4659 41.6867 16.8257Z" fill="white" stroke="#FF6843" stroke-width="0.6" mask="url(#path-1-inside-1)"/>
<path d="M24.8741 13.1183L24.8741 13.1182L24.869 13.1188C24.5025 13.1578 24.1544 13.1579 23.8175 13.1579C23.467 13.1579 23.1156 13.1382 22.7797 13.1183C22.3052 13.0835 21.9485 12.7082 21.9314 12.2233C21.9147 11.75 22.2449 11.3459 22.816 11.237C22.9636 11.2123 23.1029 11.2043 23.246 11.1961C23.3249 11.1915 23.405 11.1869 23.4883 11.1794H23.4884H23.489H23.4895H23.4901H23.4907H23.4913H23.4919H23.4924H23.493H23.4936H23.4942H23.4948H23.4953H23.4959H23.4965H23.4971H23.4977H23.4982H23.4988H23.4994H23.5H23.5005H23.5011H23.5017H23.5023H23.5029H23.5034H23.504H23.5046H23.5052H23.5058H23.5063H23.5069H23.5075H23.5081H23.5087H23.5092H23.5098H23.5104H23.511H23.5116H23.5121H23.5127H23.5133H23.5139H23.5144H23.515H23.5156H23.5162H23.5168H23.5173H23.5179H23.5185H23.5191H23.5197H23.5202H23.5208H23.5214H23.522H23.5226H23.5231H23.5237H23.5243H23.5249H23.5255H23.526H23.5266H23.5272H23.5278H23.5283H23.5289H23.5295H23.5301H23.5307H23.5312H23.5318H23.5324H23.533H23.5336H23.5341H23.5347H23.5353H23.5359H23.5365H23.537H23.5376H23.5382H23.5388H23.5393H23.5399H23.5405H23.5411H23.5417H23.5422H23.5428H23.5434H23.544H23.5446H23.5451H23.5457H23.5463H23.5469H23.5475H23.548H23.5486H23.5492H23.5498H23.5504H23.5509H23.5515H23.5521H23.5527H23.5532H23.5538H23.5544H23.555H23.5556H23.5561H23.5567H23.5573H23.5579H23.5585H23.559H23.5596H23.5602H23.5608H23.5614H23.5619H23.5625H23.5631H23.5637H23.5643H23.5648H23.5654H23.566H23.5666H23.5671H23.5677H23.5683H23.5689H23.5695H23.57H23.5706H23.5712H23.5718H23.5724H23.5729H23.5735H23.5741H23.5747H23.5753H23.5758H23.5764H23.577H23.5776H23.5782H23.5787H23.5793H23.5799H23.5805H23.581H23.5816H23.5822H23.5828H23.5834H23.5839H23.5845H23.5851H23.5857H23.5863H23.5868H23.5874H23.588H23.5886H23.5892H23.5897H23.5903H23.5909H23.5915H23.592H23.5926H23.5932H23.5938H23.5944H23.5949H23.5955H23.5961H23.5967H23.5973H23.5978H23.5984H23.599H23.5996H23.6002H23.6007H23.6013H23.6019H23.6025H23.6031H23.6036H23.6042H23.6048H23.6054H23.6059H23.6065H23.6071H23.6077H23.6083H23.6088H23.6094H23.61H23.6106H23.6112H23.6117H23.6123H23.6129H23.6135H23.6141H23.6146H23.6152H23.6158H23.6164H23.617H23.6175H23.6181H23.6187H23.6193H23.6198H23.6204H23.621H23.6216H23.6222H23.6227H23.6233H23.6239H23.6245H23.6251H23.6256H23.6262H23.6268H23.6274H23.628H23.6285H23.6291H23.6297H23.6303H23.6308H23.6314H23.632H23.6326H23.6332H23.6337H23.6343H23.6349H23.6355H23.6361H23.6366H23.6372H23.6378H23.6384H23.639H23.6395H23.6401H23.6407H23.6413H23.6419H23.6424H23.643H23.6436H23.6442H23.6447H23.6453H23.6459H23.6465H23.6471H23.6476H23.6482H23.6488H23.6494H23.65H23.6505H23.6511H23.6517H23.6523H23.6529H23.6534H23.654H23.6546H23.6552H23.6558H23.6563H23.6569H23.6575H23.6581H23.6586H23.6592H23.6598H23.6604H23.661H23.6615H23.6621H23.6627H23.6633H23.6639H23.6644H23.665H23.6656H23.6662H23.6668H23.6673H23.6679H23.6685H23.6691H23.6696H23.6702H23.6708H23.6714H23.672H23.6725H23.6731H23.6737H23.6743H23.6749H23.6754H23.676H23.6766H23.6772H23.6778H23.6783H23.6789H23.6795H23.6801H23.6807H23.6812H23.6818H23.6824H23.683H23.6835H23.6841H23.6847H23.6853H23.6859H23.6864H23.687H23.6876H23.6882H23.6888H23.6893H23.6899H23.6905H23.6911H23.6917H23.6922H23.6928H23.6934H23.694H23.6946H23.6951H23.6957H23.6963H23.6969H23.6974H23.698H23.6986H23.6992H23.6998H23.7003H23.7009H23.7015H23.7021H23.7027H23.7032H23.7038H23.7044H23.705H23.7056H23.7061H23.7067H23.7073H23.7079H23.7085H23.709H23.7096H23.7102H23.7108H23.7113H23.7119H23.7125H23.7131H23.7137H23.7142H23.7148H23.7154H23.716H23.7166H23.7171H23.7177H23.7183H23.7189H23.7195H23.72H23.7206H23.7212H23.7218H23.7223H23.7229H23.7235H23.7241H23.7247H23.7252H23.7258H23.7264H23.727H23.7276H23.7281H23.7287H23.7293H23.7299H23.7305H23.731H23.7316H23.7322H23.7328H23.7334H23.7339H23.7345H23.7351H23.7357H23.7362H23.7368H23.7374H23.738H23.7386H23.7391H23.7397H23.7403H23.7409H23.7415H23.742H23.7426H23.7432H23.7438H23.7444H23.7449H23.7455H23.7461H23.7467H23.7473H23.7478H23.7484H23.749H23.7496H23.7501H23.7507H23.7513H23.7519H23.7525H23.753H23.7536H23.7542H23.7548H23.7554H23.7559H23.7565H23.7571H23.7577H23.7583H23.7588H23.7594H23.76H23.7606H23.7611H23.7617H23.7623H23.7629H23.7635H23.764H23.7646H23.7652H23.7658H23.7664H23.7669H23.7675H23.7681H23.7687H23.7693H23.7698H23.7704H23.771H23.7716H23.7722H23.7727H23.7733H23.7739H23.7745H23.775H23.7756H23.7762H23.7768H23.7774H23.7779H23.7977H23.8175C23.8689 11.1794 23.9167 11.1837 23.9718 11.1888L23.9741 11.189C24.0272 11.1939 24.0873 11.1994 24.1535 11.1994C24.4021 11.1994 24.6507 11.2187 24.8995 11.2573C25.3816 11.3451 25.7023 11.7226 25.7035 12.206C25.6849 12.6975 25.341 13.0846 24.8741 13.1183Z" fill="white" stroke="#F35933" stroke-width="0.3"/>
</svg>
