<svg width="64" height="64" viewBox="0 0 64 64" fill="none" xmlns="http://www.w3.org/2000/svg">
<circle opacity="0.2" cx="32" cy="32" r="32" fill="#61BBD6"/>
<path d="M53.3524 29.8242C52.17 28.3937 50.5864 27.5184 48.496 27.1768C47.6303 27.0274 46.8279 26.8566 46.0678 26.7071C45.3077 26.5577 44.5475 26.3869 43.6818 26.2375C43.0906 26.1307 42.6261 25.8959 42.1827 25.4048C41.3592 24.5509 40.5146 23.6755 39.6911 22.8429C39.1844 22.3305 38.6776 21.8181 38.1709 21.3057C36.9251 20.0248 35.3837 19.2775 33.5678 19.0854C33.0188 19.0213 32.4065 19 31.6464 19C30.3795 19 29.1126 19 27.8457 19.0213C26.4732 19.0213 25.1008 19.0427 23.7283 19.0427C23.0738 19.0427 22.3981 19.0427 21.7224 19.0427C19.7587 19.0427 18.3651 19.8967 17.4783 21.626C17.0983 22.3519 16.6971 23.0777 16.317 23.7609C16.0847 24.1879 15.8314 24.6362 15.5991 25.0632L15.5146 25.2127C15.1346 25.9172 14.9023 26.3656 14.1422 26.579C13.741 26.7071 13.3398 26.8139 12.9386 26.9206C12.7064 26.9847 12.4741 27.0487 12.2419 27.0914C11.7562 27.2195 11.2706 27.3476 10.7849 27.5184C9.15909 28.0949 8.20892 29.3545 8.06112 31.0411C7.97666 32.1299 7.99777 33.2187 8.01889 34.3075C8.01889 34.7132 8.04 35.1402 8.04 35.5458C8.04 35.738 8.08223 35.9301 8.14557 36.1222L8.16669 36.229C8.6101 38.0223 10.2782 39.3674 12.0729 39.3674C12.1152 39.3674 12.1363 39.3674 12.1785 39.3674C12.5163 39.346 12.812 39.346 13.1498 39.346C13.3821 39.346 13.5932 39.346 13.8255 39.346C14.0577 39.346 14.29 39.346 14.5645 39.346C15.4724 41.9933 17.1827 43.3383 19.6109 43.3383C19.6954 43.3383 19.7798 43.3383 19.8643 43.3383C22.1869 43.2529 23.8128 41.9293 24.6574 39.4314H38.2553C39.0999 41.9293 40.7257 43.2316 43.0484 43.3383C43.1539 43.3383 43.2384 43.3383 43.344 43.3383C45.73 43.3383 47.4191 42.0147 48.3482 39.4101C48.4115 39.4101 48.4538 39.4101 48.5171 39.4101C48.7071 39.3887 48.8972 39.3887 49.0872 39.3887C49.3406 39.3887 49.5517 39.3887 49.7629 39.3887H50.4597C50.8397 39.3887 51.2198 39.3887 51.6843 39.3674C53.6902 39.3247 54.936 38.0223 54.9783 35.9728C54.9783 35.738 54.9783 35.4818 54.9783 35.2469C54.9783 34.8626 54.9571 34.457 54.9994 34.0727C55.0205 32.5996 54.5137 31.2546 53.3524 29.8242ZM50.2063 30.3152L50.4808 30.486C51.0931 30.8062 51.9166 32.0232 51.9166 32.0232C51.9166 32.0232 49.7207 32.3647 49.7207 31.4894C49.7207 30.6354 50.2063 30.3152 50.2063 30.3152ZM31.7097 21.4552C31.9842 21.4338 32.2165 21.4338 32.4487 21.4338C34.2224 21.4338 35.447 21.9035 36.4183 22.9496C37.1151 23.6969 37.8119 24.4014 38.572 25.1486C38.8254 25.4048 39.0999 25.661 39.3744 25.9386C39.0999 26.0026 38.7832 26.024 38.4242 26.024C38.2131 26.024 38.023 26.024 37.8119 26.0026C37.6219 26.0026 37.4107 25.9813 37.2207 25.9813C37.1362 25.9813 37.0729 25.9813 36.9884 25.9813C36.6506 26.0026 36.2705 26.0026 35.806 26.0026C35.5526 26.0026 35.3204 26.0026 35.067 26.0026C34.8136 26.0026 34.5813 26.0026 34.328 26.0026H31.7097V21.4552ZM24.3618 21.4338C25.1219 21.4125 25.9243 21.4125 26.9378 21.4125C27.4234 21.4125 27.909 21.4125 28.3736 21.4125H29.1548C29.3237 22.3946 29.3449 24.7857 29.1971 25.9599C28.3102 26.0026 27.3812 26.024 26.1776 26.024C25.5231 26.024 24.8685 26.024 24.1928 26.024C23.6227 26.024 23.0315 26.0026 22.4192 26.0026L24.3618 21.4338ZM10.9327 30.1444C10.9327 30.1444 10.9538 30.1444 10.9327 30.1444C11.0383 30.059 11.1439 29.9736 11.3128 29.9309C11.6084 29.7815 11.904 29.7388 11.904 29.7388C11.8407 31.1265 10.6794 31.1478 10.5527 31.1692C10.5315 31.1692 10.5315 30.4646 10.9327 30.1444ZM19.6743 40.9472C19.6532 40.9472 19.6109 40.9472 19.5898 40.9472C18.8719 40.9472 18.1962 40.6483 17.6684 40.1359C17.1405 39.6022 16.8449 38.8977 16.866 38.1504C16.8871 36.6133 18.0695 35.4177 19.6109 35.3964L19.632 35.1829V35.3964C21.1523 35.3964 22.3559 36.5919 22.3559 38.1291C22.377 39.6449 21.1734 40.9045 19.6743 40.9472ZM43.2595 40.9472C42.5205 40.9472 41.8237 40.6483 41.317 40.1146C40.7891 39.5808 40.5146 38.8336 40.5146 38.065C40.5357 36.5706 41.7393 35.3964 43.2384 35.3964H43.3018C44.822 35.4391 46.0045 36.656 45.9833 38.1931C46.0045 39.7303 44.7587 40.9472 43.2595 40.9472ZM52.5289 36.1436C52.4867 36.6773 52.2122 36.9335 51.7055 36.9549C51.2198 36.9549 50.7553 36.9762 50.2274 36.9762C49.9107 36.9762 49.6151 36.9762 49.2984 36.9762C49.0028 36.9762 48.686 36.9762 48.3271 36.9762C47.4403 34.3502 45.73 33.0266 43.3018 33.0266H43.2595C40.8313 33.0479 39.1421 34.3716 38.2764 36.9335H24.6574C23.7494 34.3289 22.0602 33.0052 19.632 33.0052C19.5898 33.0052 19.5476 33.0052 19.4842 33.0052C17.1194 33.0479 15.4724 34.3716 14.5856 36.9549C14.3111 36.9549 14.0577 36.9549 13.8043 36.9549C13.551 36.9549 13.2976 36.9549 13.0442 36.9549C12.643 36.9549 12.2841 36.9335 11.9251 36.9122C11.1439 36.8695 10.616 36.3571 10.4682 35.5458C10.3837 35.0548 10.3837 34.5637 10.3626 34.03C10.3626 33.8379 10.3626 33.6457 10.3415 33.4536C13.002 32.9839 14.2266 31.6175 14.3744 28.9702C14.4167 28.9488 14.4589 28.9488 14.5011 28.9275C14.6912 28.8634 14.8601 28.7994 15.029 28.7567C16.2748 28.4151 16.7604 27.6892 17.3939 26.5363C17.7528 25.8959 18.1118 25.2554 18.4707 24.6362C18.8719 23.9104 19.2942 23.1845 19.6954 22.4586C20.0966 21.7541 20.6878 21.4125 21.4901 21.3911C21.5324 21.3911 21.5957 21.4125 21.6802 21.4338L21.5113 21.8181C21.3212 22.2665 21.1523 22.6721 20.9623 23.0991C20.8778 23.3126 20.7722 23.5261 20.6878 23.7396C20.4766 24.2306 20.2444 24.743 20.0754 25.2767C19.8221 26.1094 19.8854 26.8779 20.3077 27.4544C20.7089 28.0095 21.4268 28.3297 22.2925 28.351C23.0949 28.351 23.9183 28.351 24.7207 28.351C25.5864 28.351 26.4732 28.351 27.3389 28.351C28.1835 28.351 29.0281 28.351 29.8938 28.351C29.8938 28.351 34.6869 28.351 35.7215 28.351C37.3685 28.351 39.0154 28.351 40.6624 28.351C42.605 28.351 44.2942 28.7353 46.0889 29.1196C46.6801 29.2477 47.2713 29.3758 47.9048 29.5039C47.9048 29.5039 47.947 29.5466 47.947 29.568C47.9259 29.5893 47.9259 29.632 47.9259 29.6534C47.8626 29.8242 47.7992 30.0163 47.757 30.2084C47.4825 31.2332 47.6514 32.258 48.2215 33.0479C48.7916 33.8379 49.6995 34.3075 50.7342 34.3502C50.9453 34.3502 51.1776 34.3716 51.4521 34.3716C51.6421 34.3716 51.8533 34.3716 52.0433 34.3716C52.1911 34.3716 52.36 34.3716 52.5289 34.3716C52.5289 34.5424 52.5289 34.7132 52.5289 34.884C52.55 35.3537 52.5712 35.7593 52.5289 36.1436Z" fill="#444B8C"/>
<path d="M33.4412 32.3861C33.0611 32.3861 32.6811 32.3647 32.3221 32.3434C31.7309 32.3007 31.2875 31.831 31.2664 31.2332C31.2453 30.6354 31.6676 30.1444 32.3432 30.0163C32.5966 29.9736 32.85 29.9736 33.0823 29.9522C33.1878 29.9522 33.2934 29.9522 33.399 29.9522H33.4201H33.4412C33.5679 29.9522 33.6735 29.9736 33.8002 29.9736C34.0747 29.9736 34.3491 29.9949 34.6236 30.0376C35.2149 30.1444 35.616 30.6141 35.616 31.2118C35.5949 31.8096 35.1726 32.3007 34.5814 32.3434C34.1802 32.3861 33.8002 32.3861 33.4412 32.3861Z" fill="#444B8C"/>
</svg>
