<svg width="178" height="335" viewBox="0 0 178 335" fill="none" xmlns="http://www.w3.org/2000/svg">
<path d="M164.703 52.9603C164.703 57.5907 164.529 74.2022 164.355 105.168C164.297 110.088 164.297 115.181 164.239 120.448C164.239 121.374 164.239 122.301 164.239 123.227C164.181 129.362 164.181 135.671 164.123 142.153C163.775 195.056 163.312 243.675 163.138 271.515C163.08 277.477 163.08 281.934 163.022 284.481C163.022 286.159 162.616 290.037 161.804 291.658C161.804 291.716 161.746 291.773 161.746 291.773C160.239 294.61 157.457 299.529 153.863 304.681C153.399 305.317 152.935 305.954 152.472 306.591C152.24 306.88 152.008 307.17 151.776 307.517C151.776 307.517 151.776 307.517 151.776 307.575C151.138 308.443 150.443 309.311 149.747 310.179L149.689 310.237C148.356 311.8 146.965 313.247 145.574 314.752C140.53 320.25 133.864 325.807 130.328 328.643C129.748 329.106 129.111 329.511 128.415 329.859C127.256 330.437 126.038 330.842 124.763 331.016C118.619 331.884 106.04 334.142 88.8812 334.315H88.7652C71.6648 334.142 59.0858 331.884 52.8833 331.016C51.608 330.842 50.3907 330.437 49.2313 329.859C48.5937 329.511 47.956 329.106 47.3184 328.643C43.7824 325.807 37.1161 320.25 32.0729 314.752C30.6817 313.247 29.2905 311.8 27.9572 310.237L27.8992 310.179C27.2036 309.311 26.508 308.443 25.8704 307.575C25.8704 307.575 25.8704 307.575 25.8704 307.517C25.6385 307.227 25.4066 306.938 25.1748 306.591C24.711 305.954 24.2473 305.317 23.7835 304.681C20.4214 299.877 17.7549 295.304 16.1898 292.41C16.0738 292.179 15.9579 292.005 15.842 291.773C15.842 291.716 15.784 291.716 15.784 291.658C15.6681 291.426 15.6101 291.195 15.4942 290.905C14.9145 289.053 14.5667 285.928 14.5667 284.481C14.5667 281.876 14.5087 277.419 14.4507 271.515C14.2768 243.675 13.8131 195.056 13.4653 142.153C13.4073 135.729 13.4073 129.42 13.3494 123.227C13.3494 122.301 13.3494 121.374 13.3494 120.448C13.2914 115.181 13.2914 110.088 13.2334 105.168C13.0016 74.2022 12.8856 57.5907 12.8856 52.9603C12.8856 42.5419 20.3634 28.5928 27.8992 18.1743C30.102 15.1646 32.2468 12.4442 34.2757 10.2448C34.5075 9.95537 34.7974 9.66597 35.1452 9.37657C37.5219 7.23501 41.2318 5.09345 44.0142 4.39889C51.4921 2.54672 65.5202 0.11576 88.6493 0H88.7652C111.894 0.17364 125.922 2.54672 133.4 4.39889C136.183 5.09345 139.893 7.23501 142.269 9.37657C142.559 9.66597 142.849 9.95537 143.139 10.2448C145.168 12.5021 147.37 15.1646 149.515 18.1743C157.283 28.5928 164.703 42.5419 164.703 52.9603Z" fill="currentColor"/>
<path opacity="0.12" d="M163.079 271.515C163.021 277.477 163.021 281.934 162.963 284.481C162.963 286.159 162.557 290.037 161.746 291.658C161.746 291.716 161.688 291.773 161.688 291.773C160.181 294.61 157.398 299.529 153.804 304.681C153.341 305.317 152.877 305.954 152.413 306.591C152.181 306.88 151.949 307.17 151.717 307.517C151.717 307.517 151.717 307.517 151.717 307.575C151.08 308.443 150.384 309.311 149.689 310.179L149.631 310.237C148.297 311.8 146.906 313.247 145.515 314.752C140.472 320.25 133.805 325.807 130.269 328.643C129.69 329.106 129.052 329.511 128.356 329.858C127.197 330.437 125.98 330.842 124.705 331.016C118.56 331.884 105.981 334.142 88.8226 334.315H88.7066C71.6062 334.142 59.0272 331.884 52.8247 331.016C51.5494 330.842 50.3321 330.437 49.1727 329.858C48.5351 329.511 47.8974 329.106 47.2598 328.643C43.7238 325.807 37.0575 320.25 32.0143 314.752C30.6231 313.247 29.2319 311.8 27.8986 310.237L27.8406 310.179C27.145 309.311 26.4494 308.443 25.8118 307.575C25.8118 307.575 25.8118 307.575 25.8118 307.517C25.5799 307.227 25.348 306.938 25.1162 306.591C24.6524 305.954 24.1887 305.317 23.7249 304.681C20.073 299.529 17.2905 294.61 15.7834 291.773C15.7834 291.716 15.7254 291.716 15.7254 291.658C14.9139 290.037 14.5081 286.217 14.5081 284.481C14.5081 281.876 14.4501 277.419 14.3922 271.515C14.4501 271.458 14.5081 271.458 14.5081 271.458C14.5081 271.458 14.682 279.387 19.4353 289.169C19.8991 290.153 20.6527 291.368 21.4642 292.642C22.7975 294.61 24.3626 296.751 25.5219 298.372C26.6813 299.992 28.7681 302.597 31.6085 305.665C35.4924 309.832 40.8254 314.752 47.0279 318.803C52.7667 322.508 59.2011 325.517 65.9254 326.501C74.0988 327.659 81.6925 328.006 88.6487 328.064H88.7646C95.7207 328.006 103.372 327.717 111.488 326.501C118.27 325.517 124.705 322.566 130.385 318.803C136.588 314.752 141.863 309.832 145.805 305.665C148.645 302.655 150.732 299.992 151.891 298.372C153.051 296.751 154.616 294.61 155.949 292.642C156.761 291.368 157.514 290.211 157.978 289.169C162.673 279.387 162.905 271.458 162.905 271.458C162.905 271.458 163.021 271.458 163.079 271.515Z" fill="#00384B"/>
<path opacity="0.5" d="M25.3197 131.272C25.3197 131.272 25.2617 130.983 25.2617 130.635C25.3197 129.825 25.7255 128.725 27.9282 129.767C30.5947 131.041 40.7391 148.983 42.594 160.675C44.9707 175.377 45.3185 182.843 45.3185 208.831C45.3185 234.819 45.3185 252.068 45.3185 252.068C45.3185 252.068 45.7243 258.898 40.3333 256.872L32.1599 224.69L30.5947 208.368L29.9571 180.875L25.3197 131.272Z" fill="currentColor"/>
<path d="M41.0579 190.657V203.854L27.6674 206.516C27.6674 206.516 25.0009 203.68 25.0009 200.67C25.0009 197.661 27.6674 186.721 27.6674 186.721L36.6523 185.679L41.0579 190.657Z" fill="currentColor"/>
<path d="M23.8427 201.886L41.0011 203.333C40.8851 224.054 40.7112 245.817 40.6533 254.788C40.6533 256.351 39.0302 257.335 37.581 256.64C33.7551 254.73 29.3496 250.621 27.9004 248.653C24.5383 244.08 23.9586 234.877 23.9586 225.269C24.0166 222.26 23.9586 215.777 23.8427 201.886Z" fill="#00384B"/>
<path d="M41.116 179.082C41.116 181.976 41.116 185.911 41.058 190.6L23.7257 189.558C23.5518 164.148 23.3199 138.102 23.262 130.636C23.262 129.999 24.0155 129.768 24.4213 130.231C28.4211 135.324 41.116 150.431 41.116 179.082Z" fill="#00384B"/>
<path opacity="0.7" d="M51.5501 21.5313C51.5501 22.9783 51.4341 24.541 51.3762 25.9301C51.1443 28.3032 49.2893 31.776 47.8981 33.6282C37.1741 47.7509 28.3051 46.1882 28.3051 46.1882C28.2471 45.6672 27.9573 43.4678 28.1312 40.6317C28.3051 37.3904 29.0587 33.3967 31.3774 30.0396C38.2175 20.2579 42.797 18.8109 46.5649 17.4218C47.5503 17.0745 51.3762 16.6114 51.4921 18.2321C51.5501 19.1582 51.5501 20.3158 51.5501 21.5313Z" fill="white"/>
<g opacity="0.2">
<g opacity="0.2">
<path opacity="0.2" d="M41.0579 197.429L23.7835 196.503L23.8994 195.345L41.0579 196.734V197.429Z" fill="#00384B"/>
</g>
</g>
<path d="M49.6945 328.238C49.6945 328.527 49.6365 329.048 49.4046 329.106C49.1148 329.222 48.651 329.338 47.9554 329.048C46.0425 327.833 43 327 31.6086 316.257C28.7682 313.71 25.5 309.5 25.9277 307.575C25.7538 306.996 26.2176 306.533 26.7393 306.186C28.0725 305.433 31.9564 304.565 35.8982 307.054C37.6952 308.211 42.9702 312.032 44.5933 314.405C49.4626 321.582 49.2307 325.17 49.6945 328.006C49.6945 328.18 49.6945 328.18 49.6945 328.238Z" fill="#FF7E5A"/>
<path opacity="0.5" d="M49.6947 328.238C49.6947 328.527 49.6367 329.048 49.4048 329.106C49.115 329.222 48.6513 329.337 47.9557 329.048C46.0427 327.832 43 327 31.6088 316.256C28.7684 313.71 25.5 309 25.928 307.574C25.7541 306.996 27.4351 306.243 27.8409 306.243C29.6959 306.88 32.8261 308.848 37.8693 314.173C45.2312 321.929 48.8831 325.575 49.6947 328.006C49.6947 328.18 49.6947 328.18 49.6947 328.238Z" fill="#F45347"/>
<path opacity="0.5" d="M88.8815 261.933V280.107C85.4614 279.991 82.1572 279.586 78.969 279.065C61.5208 275.94 48.0723 267.316 48.0723 267.316C48.1882 267.026 49.3476 264.074 51.3185 262.049C52.2459 261.065 53.3473 260.254 54.6226 260.081C57.7529 259.56 72.3027 261.759 88.8815 261.933Z" fill="currentColor"/>
<path opacity="0.12" d="M18.1319 59.6103C18.1319 83.2253 20.0004 120.859 13.5814 142.154C13.2336 94.2288 12.9437 59.3272 12.9437 52.9604C12.9437 42.5419 20.3636 28.5928 27.9573 18.1744C27.6095 18.869 18.1319 36.4004 18.1319 59.6103Z" fill="#00384B"/>
<path d="M29 105.11C29.0579 105.747 28.5942 106.325 27.8986 106.441L25.0582 106.731L22.7974 106.962L22.8554 104.994V104.705L23.0293 100.248L26.9711 99.8428L27.2609 99.7849C27.8986 99.727 28.4783 100.19 28.5942 100.885L28.7681 102.621L29 105.11Z" fill="currentColor"/>
<path opacity="0.12" d="M29 105.11C29.0579 105.747 28.5942 106.325 27.8986 106.441L25.0582 106.731L22.7974 106.962L22.8554 104.994C24.5365 104.473 26.9711 104.647 27.4928 103.837C27.9565 103.026 27.4348 100.653 27.0291 99.8428L27.3189 99.7849C27.9565 99.727 28.5362 100.19 28.6522 100.885L28.8261 102.621L29 105.11Z" fill="#00384B"/>
<path d="M24.074 115.992C23.958 116.397 23.8421 116.802 23.7262 117.149C23.3784 118.249 22.6248 119.175 21.6393 119.754L14.4514 122.822C12.0167 124.211 6.33588 124.326 3.72734 123.285C3.72734 123.285 -0.62023 119.522 0.0753818 116.86L0.36522 115.76L0.828961 113.966C0.944896 113.445 1.17677 112.982 1.40864 112.519C2.04628 111.419 2.97376 110.493 4.13311 109.856L23.0885 100.133C23.8421 101.348 24.3058 102.621 24.6537 103.953C24.8855 104.821 25.0015 105.747 25.1174 106.615C25.4072 110.262 24.7116 113.676 24.074 115.992Z" fill="currentColor"/>
<path opacity="0.12" d="M24.074 115.992C23.958 116.397 23.8421 116.802 23.7262 117.149C23.3784 118.249 22.6248 119.175 21.6393 119.754L14.4514 122.822C12.0167 124.211 6.33589 124.326 3.72734 123.285C3.72734 123.285 -0.62023 119.522 0.0753818 116.86L0.36522 115.76C1.69848 118.018 4.36499 120.449 9.58207 120.622C16.2483 120.912 21.4075 117.902 24.074 115.992Z" fill="#00384B"/>
<path d="M51.5491 21.5313C49.5782 24.4253 46.8537 27.8981 43.2018 32.1812C37.463 38.8953 32.1879 40.7474 28.0722 40.6317C28.2461 37.3904 28.9997 33.3967 31.3184 30.0396C38.1586 20.2579 42.738 18.8109 46.5059 17.4218C47.4914 17.0745 51.3172 16.6114 51.4332 18.2321C51.5491 19.1582 51.5491 20.3158 51.5491 21.5313Z" fill="white"/>
<path opacity="0.5" d="M152.326 131.272C152.326 131.272 152.384 130.983 152.384 130.635C152.326 129.825 151.92 128.725 149.718 129.767C147.051 131.041 136.907 148.983 135.052 160.675C132.675 175.377 132.327 182.843 132.327 208.831C132.327 234.819 132.327 252.068 132.327 252.068C132.327 252.068 131.921 258.898 137.312 256.872L145.486 224.748L147.051 208.426L147.689 180.933L152.326 131.272Z" fill="currentColor"/>
<path d="M136.589 190.657V203.854L149.979 206.516C149.979 206.516 152.646 203.68 152.646 200.67C152.646 197.661 149.979 186.721 149.979 186.721L140.994 185.679L136.589 190.657Z" fill="currentColor"/>
<path d="M153.863 201.886L136.705 203.333C136.821 224.054 136.995 245.817 137.053 254.788C137.053 256.351 138.676 257.335 140.125 256.64C143.951 254.73 148.356 250.621 149.805 248.653C153.168 244.08 153.747 234.877 153.747 225.269C153.689 222.26 153.747 215.777 153.863 201.886Z" fill="#00384B"/>
<path d="M136.589 179.082C136.589 181.976 136.589 185.911 136.647 190.6L153.979 189.558C154.153 164.148 154.385 138.102 154.443 130.636C154.443 129.999 153.689 129.768 153.283 130.231C149.284 135.324 136.589 150.431 136.589 179.082Z" fill="#00384B"/>
<path opacity="0.7" d="M126.154 21.531C126.154 22.978 126.27 24.5408 126.328 25.9299C126.56 28.303 128.415 31.7758 129.806 33.6279C140.472 47.8085 149.399 46.2458 149.399 46.2458C149.457 45.7249 149.747 43.5254 149.573 40.6893C149.399 37.448 148.646 33.4543 146.327 30.0972C139.487 20.3155 134.907 18.8685 131.14 17.4794C130.154 17.1321 126.328 16.6691 126.212 18.2897C126.154 19.1579 126.096 20.3155 126.154 21.531Z" fill="white"/>
<path opacity="0.5" d="M49.5796 151.215C49.5796 151.215 48.7101 154.977 53.7533 154.688C60.5935 154.34 69.9263 151.562 89.2874 151.562C112.764 151.562 124.3 155.267 126.677 154.804C128.821 154.34 128.879 148.668 128.879 148.668C128.879 148.668 95.374 132.057 91.2004 132.057C87.0267 132.057 59.3182 138.134 57.869 139.523C56.4778 140.97 49.5796 151.215 49.5796 151.215Z" fill="currentColor"/>
<path d="M144.473 103.914C144.473 105.13 139.603 114.68 135.546 124.867C132.01 133.781 128.879 143.157 127.662 146.919C127.372 147.845 126.329 148.424 125.343 148.135C121.344 146.977 110.156 144.488 88.8817 144.43H88.7658C67.4916 144.488 56.3039 146.977 52.3041 148.135C51.3187 148.424 50.3332 147.903 49.9854 146.919C48.7681 143.099 45.6378 133.781 42.1018 124.867C38.0441 114.68 33.1748 105.13 33.1748 103.914C33.1748 101.368 35.3196 100.21 35.3196 100.21C35.3196 100.21 59.2023 92.8594 88.7658 92.8594C118.329 92.8594 142.328 100.21 142.328 100.21C142.328 100.21 144.473 101.368 144.473 103.914Z" fill="currentColor"/>
<path d="M144.473 107.541C144.473 108.757 139.603 118.307 135.546 128.494C132.01 137.408 128.879 146.784 127.662 150.546C127.372 151.472 126.329 152.051 125.343 151.762C121.344 150.604 110.156 148.115 88.8817 148.057H88.7658C67.4916 148.115 56.3039 150.604 52.3041 151.762C51.3187 152.051 50.3332 151.53 49.9854 150.546C48.7681 146.726 45.6378 137.408 42.1018 128.494C38.0441 118.307 33.1748 108.757 33.1748 107.541C33.1748 104.995 35.3196 103.837 35.3196 103.837C35.3196 103.837 59.2023 96.4863 88.7658 96.4863C118.329 96.4863 142.328 103.837 142.328 103.837C142.328 103.837 144.473 104.995 144.473 107.541Z" fill="#00384B"/>
<path d="M127.893 329.106C127.835 329.685 128.472 330.032 128.936 329.685C131.371 327.717 138.269 324.128 146.037 316.372C148.761 313.652 150.674 311.105 151.717 307.69C151.891 307.112 151.427 306.649 150.906 306.301C149.573 305.549 145.689 304.681 141.747 307.169C139.95 308.327 134.733 312.147 133.11 314.52C128.24 321.697 128.472 325.286 128.067 328.122C127.951 328.469 127.893 328.817 127.893 329.106Z" fill="#FF7E5A"/>
<path opacity="0.5" d="M127.893 329.107C127.835 329.686 128.472 330.033 128.936 329.686C131.371 327.718 138.269 324.129 146.037 316.373C148.761 313.653 150.674 311.164 151.717 307.691C151.891 307.112 150.21 306.36 149.804 306.36C147.949 306.997 144.819 308.964 139.776 314.289C132.414 322.045 128.762 325.692 127.951 328.123C127.951 328.47 127.893 328.817 127.893 329.107Z" fill="#F45347"/>
<path opacity="0.1" d="M140.704 290.243C138.907 292.674 133.69 296.204 124.647 298.751C114.734 301.529 101.866 303.208 88.9388 303.15H88.8229C75.8381 303.208 62.9693 301.529 53.1148 298.751C44.0719 296.204 38.8548 292.674 37.0578 290.243C36.3042 289.201 36.1883 288.391 36.2462 287.754C36.3622 286.886 36.9419 286.423 36.9419 286.423L37.8114 286.365L79.0843 283.066L88.8809 282.255H88.9388H88.9968L98.7933 283.066L140.066 286.365L140.936 286.423C140.936 286.423 141.515 286.886 141.631 287.754C141.573 288.391 141.4 289.201 140.704 290.243Z" fill="#00384B"/>
<path opacity="0.5" d="M88.7656 261.933V280.107C92.1857 279.991 95.4899 279.586 98.6781 279.065C116.126 275.94 129.575 267.316 129.575 267.316C129.459 267.026 128.3 264.074 126.329 262.049C125.401 261.065 124.3 260.254 123.024 260.081C119.894 259.56 105.344 261.759 88.7656 261.933Z" fill="currentColor"/>
<g opacity="0.4">
<path opacity="0.4" d="M51.8392 268.621H50.6799L51.1436 212.998H51.6074L51.8392 268.621Z" fill="#00384B"/>
</g>
<g opacity="0.4">
<path opacity="0.4" d="M38.6816 283.439C36.4789 285.87 32.595 289.285 30.1604 290.674C27.1461 292.411 24.1318 293.163 21.4073 293.163C19.4364 293.163 17.6394 292.816 16.2482 292.411C16.1322 292.179 16.0163 292.005 15.9004 291.774C15.9004 291.716 15.8424 291.716 15.8424 291.658C15.7265 291.427 15.6685 291.195 15.5526 290.906C18.335 292.063 24.1897 292.931 29.6967 289.748C32.0733 288.359 36.0151 285.349 38.1599 282.976L38.6816 283.439Z" fill="#00384B"/>
</g>
<path d="M140.821 284.423C140.821 284.423 140.705 284.596 140.473 284.828C138.386 287.085 126.387 298.025 89.6933 298.025H88.0123C51.3188 298.025 39.3195 287.085 37.2326 284.828C37.0008 284.539 36.8848 284.423 36.8848 284.423C41.2324 279.619 45.1162 273.541 48.0726 269.316C49.2899 267.58 50.3913 266.133 51.2608 265.265C51.6086 264.917 51.9564 264.628 52.2462 264.454C55.8982 262.371 63.8977 265.265 88.7659 265.496H88.8818C113.692 265.265 121.749 262.371 125.401 264.454C125.691 264.628 126.039 264.917 126.387 265.265C127.314 266.191 128.358 267.58 129.575 269.316C132.589 273.541 136.473 279.619 140.821 284.423Z" fill="#00384B"/>
<path opacity="0.1" d="M160.573 64.6103C160.573 88.2253 159.834 116.223 164.124 142.154C164.472 94.2288 164.762 59.3272 164.762 52.9604C164.762 42.5419 157.342 28.5928 149.748 18.1744C150.038 18.869 160.573 41.4004 160.573 64.6103Z" fill="#00384B"/>
<path d="M148.645 105.11C148.588 105.747 149.051 106.325 149.747 106.441L152.587 106.731L154.848 106.962L154.79 104.994V104.705L154.616 100.248L150.674 99.8428L150.385 99.7849C149.747 99.727 149.167 100.19 149.051 100.885L148.877 102.621L148.645 105.11Z" fill="currentColor"/>
<path opacity="0.1" d="M148.645 105.11C148.588 105.747 149.051 106.325 149.747 106.441L152.587 106.731L154.848 106.962L154.79 104.994C153.109 104.473 150.674 104.647 150.153 103.837C149.689 103.026 150.211 100.653 150.616 99.8428L150.327 99.7849C149.689 99.727 149.109 100.19 148.993 100.885L148.819 102.621L148.645 105.11Z" fill="#00384B"/>
<path d="M153.631 115.992C153.747 116.397 153.863 116.802 153.978 117.149C154.326 118.249 155.08 119.175 156.065 119.754L163.253 122.822C165.688 124.211 171.369 124.326 173.977 123.285C173.977 123.285 178.325 119.522 177.629 116.86L177.339 115.76L176.876 113.966C176.76 113.445 176.528 112.982 176.296 112.519C175.658 111.419 174.731 110.493 173.572 109.856L154.616 100.133C153.863 101.348 153.399 102.621 153.051 103.953C152.819 104.821 152.703 105.747 152.587 106.615C152.239 110.262 152.935 113.676 153.631 115.992Z" fill="currentColor"/>
<path opacity="0.1" d="M153.631 115.992C153.747 116.397 153.863 116.802 153.979 117.149C154.327 118.249 155.08 119.175 156.066 119.754L163.254 122.822C165.689 124.211 171.369 124.326 173.978 123.285C173.978 123.285 178.325 119.522 177.63 116.86L177.34 115.76C176.007 118.018 173.34 120.449 168.123 120.622C161.399 120.912 156.24 117.902 153.631 115.992Z" fill="#00384B"/>
<path d="M126.154 21.5313C128.125 24.4253 130.85 27.8981 134.501 32.1812C140.24 38.8953 145.515 40.7474 149.631 40.6317C149.457 37.3904 148.704 33.3967 146.385 30.0396C139.545 20.2579 134.965 18.8109 131.197 17.4218C130.212 17.0745 126.386 16.6114 126.27 18.2321C126.154 19.1582 126.096 20.3158 126.154 21.5313Z" fill="white"/>
<path opacity="0.1" d="M142.443 9.37657C141.979 9.26081 127.604 5.80405 103.953 4.58856C99.2574 4.35704 94.1562 4.24128 88.9391 4.1834H88.8232C83.6061 4.24128 78.505 4.35704 73.8096 4.58856C50.1008 5.80405 35.7249 9.26081 35.3191 9.37657C37.6958 7.23501 41.4057 5.09345 44.1881 4.39888C51.666 2.54672 65.6941 0.11576 88.8232 0H88.9391C112.068 0.17364 126.096 2.54672 133.574 4.39888C136.357 5.09345 140.067 7.17713 142.443 9.37657Z" fill="#00384B"/>
<g opacity="0.2">
<g opacity="0.2">
<path opacity="0.2" d="M136.705 197.429L153.979 196.503L153.921 195.345L136.763 196.734L136.705 197.429Z" fill="#00384B"/>
</g>
</g>
<g opacity="0.4">
<g opacity="0.4">
<path d="M32.6519 87.9197H31.2607L31.6085 62.6261H32.1882L32.6519 87.9197Z" fill="#00384B"/>
</g>
</g>
<g opacity="0.4">
<path opacity="0.4" d="M144.878 87.9197H146.385L146.037 62.6261H145.341L144.878 87.9197Z" fill="#00384B"/>
</g>
<g opacity="0.4">
<path opacity="0.4" d="M125.807 268.621H126.966L126.503 212.998H126.039L125.807 268.621Z" fill="#00384B"/>
</g>
<g opacity="0.4">
<path opacity="0.4" d="M138.965 283.439C141.168 285.87 145.052 289.285 147.487 290.674C150.501 292.41 153.515 293.163 156.24 293.163C158.211 293.163 160.008 292.815 161.399 292.41C161.515 292.179 161.631 292.005 161.747 291.773C161.747 291.716 161.805 291.716 161.805 291.658C161.921 291.426 161.979 291.195 162.095 290.905C159.312 292.063 153.457 292.931 147.95 289.748C145.574 288.359 141.632 285.349 139.487 282.976L138.965 283.439Z" fill="#00384B"/>
</g>
</svg>
