<svg width="125" height="59" viewBox="0 0 125 59" fill="none" xmlns="http://www.w3.org/2000/svg">
  <path d="M100.206 19.525l-10.659-4.429c-.203-.083-.326-.335-.209-.537l.46-1.155c.083-.204.335-.327.536-.209l10.659 4.43c.204.082.327.334.209.536l-.459 1.155c-.083.204-.335.327-.537.21zm-3.852 8.256l-18.299-7.58c-.204-.082-.327-.335-.209-.536l.46-1.156c.082-.203.335-.326.536-.209l18.299 7.58c.203.083.326.335.209.537l-.46 1.155c-.08.17-.333.292-.536.21z" fill="#18516B"/>
  <path d="M110.033 57.933c-.341 5.208-4.488 8.354-9.349 8.035-4.86-.318-8.561-3.977-8.22-9.186.341-5.208 4.54-9.152 9.4-8.834 4.861.319 8.51 4.777 8.169 9.985zm-71.905-4.71c-.34 5.209-4.487 8.354-9.348 8.036-4.86-.318-8.561-3.978-8.22-9.186.34-5.208 4.54-9.153 9.4-8.834 4.861.318 8.51 4.776 8.168 9.984z" fill="#292955"/>
  <path d="M31.816 55.879l3.923.257 25.02 1.847.555-8.995s.501-2.338-2.958-5.424c-3.46-3.086-2.425-5.04-7.768-5.983-5.345-.908-11.888-2.697-14.674-.09-2.788 2.642-2.123 1.535-3.882 5.5-1.794 3.962-2.655 7.532-2.655 7.532l2.439 5.356zm72.276 4.943l3.924.256 20.504 1.587 5.1-8.662s.502-2.338-2.957-5.424c-3.459-3.086-2.425-5.04-7.768-5.983-5.345-.908-11.888-2.697-14.674-.09-2.789 2.642-2.123 1.535-3.882 5.5-1.794 3.962-2.655 7.532-2.655 7.532l2.408 5.284z" fill="#347098"/>
  <path d="M141.573 42.214c-.016.243-.064.45-.078.658-.053.275-.103.516-.119.759-1.347 8.315-2.798 11.847-7.694 11.526 0 0-2.606-11.329-13.196-12.022-13.402-.878-15.609 9.404-15.853 14.723-.052.798-.026 1.463-.026 1.986.036.525.048.874.076.981l-.003.035-43.885-2.909-.034-.002.002-.035c.048-.206.092-.866.12-1.84a1.179 1.179 0 00-.012-.35c.02-.835-.053-1.851-.156-2.939l.002-.035c-.554-4.848-2.945-11.456-11.508-12.749-.105-.006-.276-.052-.38-.06-.14-.008-.313-.02-.415-.061l-1.527-.1a4.548 4.548 0 00-.662-.009 2.028 2.028 0 00-.454.005c-.419.008-.838.015-1.227.094-.106.028-.28.017-.386.045-.104-.007-.21.02-.352.047l-.527.07c-.142.025-.317.049-.46.109-.179.058-.39.079-.57.172-.106.028-.282.051-.391.114-1.14.378-2.112.838-2.989 1.443-.108.063-.185.162-.326.188-.363.22-.694.477-.955.74-.109.062-.187.196-.296.259-.074.065-.15.164-.296.26-.15.164-.333.291-.448.458-.111.098-.19.232-.34.396 0 0-.037.033-.04.068-.11.097-.191.266-.34.396-.117.201-.302.363-.417.53-.077.1-.157.269-.27.401-.038.032-.077.1-.116.167-.157.268-.35.535-.51.873-.276.47-.518.977-.758 1.45-.002.035-.04.067-.04.067-.046.171-.124.306-.168.442-.046.172-.122.271-.168.442l-.132.41a1.615 1.615 0 01-.125.306c-.133.444-.302.887-.43 1.262-.28 1.063-.521 2.093-.643 2.887-.012.173-.053.275-.064.449-.014.208-.062.414-.071.553l-.026.382-.004.07-.005.07-.03.45-18.957-1.241a25.783 25.783 0 01-1.664-.144c-.174-.011-.345-.057-.519-.069l-.104-.007c-.139-.009-.345-.057-.484-.066a.377.377 0 01-.171-.046c-.104-.007-.208-.014-.275-.053-.415-.062-.79-.191-1.135-.249a1.234 1.234 0 01-.343-.092c-.069-.004-.136-.044-.24-.05l-.105-.007c-.546-.176-1.092-.35-1.57-.522-.101-.041-.203-.083-.34-.127l-.305-.124-.306-.125c-.067-.039-.17-.08-.269-.157-.169-.08-.336-.196-.47-.275-.067-.039-.134-.078-.236-.12a1.822 1.822 0 00-.236-.12 4.442 4.442 0 01-.401-.27c-.134-.079-.267-.192-.366-.268-.299-.229-.528-.453-.728-.606a.419.419 0 01-.162-.185c-.067-.039-.095-.145-.16-.22-.032-.036-.062-.108-.093-.18l-.032-.037c.002-.035-.03-.072-.063-.109.003-.034-.03-.071-.025-.14-.033-.038-.028-.107-.058-.179-.093-.18-.11-.46-.09-.773l.23-3.507c.019-.277.14-.548.328-.745l.153-.2.603-.692a1.07 1.07 0 00.252-.646l.045-.695.333-4.023.158-1.873c.087-.796.451-1.574 1.041-2.058 1.767-1.419 5.187-3.601 13.299-6.592.64-.202 1.249-.44 1.927-.676 7.565-2.642 12.708-4.502 15.837-5.413 1.633-.451 2.522-.707 2.522-.707l16.863 1.802L72.432 9.65s-2.773-1.855-2.209-2.48c.564-.626 3.202-.977 7.516-1.357 11.046-.95 17.496.135 26.482 1.351 3.112.413 6.147 1.449 8.864 2.568 2.48 1 4.805 2.232 6.984 3.56 5.8 3.554 10.437 7.832 13.725 10.872.625.564 1.179 1.159 1.735 1.718 2.77 2.97 4.627 6.022 5.723 8.988.913 2.57.543 5.021.321 7.343z" fill="#75B5E0"/>
  <path d="M141.342 43.629c-.053.275-.071.553-.124.829-.007.104-.049.206-.055.31l-.003.035c-.627 4.248-1.166 10.35-2.385 12.466-.079.135-.157.269-.234.369-.721.894-1.68.099-2.776-.74-.794-.645-1.691-1.331-2.628-1.393 0 0-1.605-4.254-5.485-7.298-1.89-1.484-4.287-2.687-7.338-2.956-11.996-1.065-15.474 7.32-15.717 12.64-.053.798-.026 1.462-.026 1.985-1.076-.07-2.274-.95-2.274-.95-1.391 2.07-14.965.623-16.678.686l-24.93-1.633.003-.035c.027-.416.242-2.634-.136-5.379l.005-.069c-.661-4.82-3.384-11.17-11.421-12.499-.104-.007-.276-.053-.38-.06-.139-.009-.312-.02-.414-.062l-1.528-.1c-.174-.011-.417-.027-.662-.008a1.971 1.971 0 00-.454.005c-.419.007-.837.015-1.226.094-.107.028-.28.017-.387.044-.104-.006-.21.022-.352.047l-.527.07c-.141.026-.317.05-.46.11-.179.058-.39.079-.57.171-.106.028-.282.052-.39.114-1.141.379-2.113.838-2.99 1.444-.108.062-.184.162-.326.187a5.13 5.13 0 00-.955.74c-.108.062-.187.197-.296.26-.074.064-.15.164-.295.259-.15.165-.334.292-.449.459-.111.097-.19.231-.34.396 0 0-.037.032-.04.067-.11.097-.19.267-.339.396-.118.202-.303.364-.418.53-.076.1-.157.27-.27.402-.038.032-.077.1-.116.166-.157.269-.349.535-.51.873-.275.47-.518.978-.758 1.45-.002.035-.04.067-.04.067-.045.172-.124.306-.168.443-.046.171-.122.27-.168.442l-.132.41a1.612 1.612 0 01-.124.306c-.134.444-.302.886-.431 1.261-.28 1.063-.521 2.093-.643 2.888-.011.173-.053.275-.064.449-.014.208-.062.414-.071.553l-.025.382-.005.07-.004.069-.03.451-18.888-1.237a26.156 26.156 0 01-1.664-.144c-.174-.011-.345-.057-.519-.069l-.104-.006c-.139-.01-.345-.058-.484-.067a.375.375 0 01-.171-.046c-.104-.007-.209-.014-.276-.053-.414-.062-.79-.191-1.134-.249a1.237 1.237 0 01-.343-.092c-.07-.004-.136-.044-.24-.05l-.105-.007c-.546-.175-1.093-.35-1.57-.521a4.349 4.349 0 00-.34-.127l-.306-.125-.305-.125c-.068-.039-.17-.08-.27-.157-.168-.08-.335-.196-.47-.275a1.74 1.74 0 00-.235-.12c-.068-.039-.135-.078-.237-.12a4.442 4.442 0 01-.4-.27c-.135-.079-.267-.192-.366-.268-.3-.229-.529-.453-.728-.606a.42.42 0 01-.162-.185c-.067-.039-.095-.145-.16-.22a.76.76 0 01-.093-.18l-.032-.037c.002-.034-.03-.071-.063-.108.002-.035-.03-.072-.026-.142-.032-.037-.028-.106-.058-.178-.092-.18-.109-.46-.089-.773l.23-3.506c.018-.278.14-.55.328-.746l.152-.2.604-.692a1.07 1.07 0 00.251-.646l.046-.695.333-4.023c1.386.126 3.54.79 4.968 1.337 2.448.962 3.68 3.449 4.907 3.878 1.23.394 2.764.39 3.747-.243 1.235-.756 2.224-4.666 4.452-6.752 2.23-2.086 10.92-6.468 18.762-8.012 5.405-1.076 12.188-2.41 15.897-3.143 1.731-.34 4.114-1.056 5.485-2.291 2.55-2.204 7.346-6.214 12.143-9.7 9.746-8.254 30.277-4.957 36.796-2.264 13.415 5.481 21.719 14.987 27.527 21.609 2.408 2.633 2.57 6.55 2.769 10.433z" fill="#6CACD8"/>
  <path d="M60.8 57.916c.014-.208.092-.866.086-1.843a1.181 1.181 0 00-.012-.35c-.012-.872-.046-1.955-.214-3.117a.264.264 0 00.06.144c-.002.035.03.072.028.106.302.718 1.457 2.258 5.693 2.535l38.193 2.501c-.07 1.6.026 2.791.045 3.037L60.794 58.02l.007-.104zm-49.638-9.841s-5.116-.16-5.963-.53c-.85-.335-1.491-.132-2.344-.955-.23-.225-.454-.518-.714-.814l.003-.035c.018-.278.14-.549.327-.746l.153-.199.603-.693c.15-.164.27-.4.287-.644l.045-.694c.935.096 2.193.597 2.693.944 1.096.838.967 1.737 3.154 2.96 1.012.52 1.756 1.406 1.756 1.406z" fill="#4F92BF"/>
  <path d="M16.247 54.057c-.903-.06-6.202-1.139-6.931-1.187-.73-.047-2.703-1.327-4.078-1.626-1.375-.3-1.891-.403-2.214-.808-.16-.22-.633-.983-1.073-1.71l.202-3.09c.018-.277.14-.548.328-.745l.152-.2s2.215 1.854 5.22 2.295c2.968.474 5.99.637 6.798 1.631.806.994 1.72 3.007 2.814 3.88 1.19.985-.28 1.621-1.218 1.56z" fill="#75B5E0"/>
  <path d="M17.2 52.271c-1.178-.112-6.898-.626-9.338-1.17-2.952-.715-4.85-2.095-5.897-3.14l.025-.382c.876.999 2.725 2.585 5.92 3.317 2.54.62 9.063 1.116 9.063 1.116s.06.144.227.26z" fill="#4F92BF"/>
  <path d="M32.041 54.08c-.177 1.104-.185 1.766-.185 1.766l-18.958-1.241a40.854 40.854 0 01-2.183-.213c-.277-.018-.518-.069-.794-.122-.484-.066-.963-.202-1.41-.301a4.93 4.93 0 01-.685-.184c-.82-.263-1.535-.52-2.144-.803-.17-.081-.37-.199-.542-.245l-.07-.005c-.169-.08-.335-.196-.47-.275-.336-.196-.639-.355-.87-.545-.135-.078-.267-.192-.367-.268-.299-.229-.528-.453-.727-.605-.162-.185-.357-.407-.45-.588l-.09-.215a2.697 2.697 0 01-.175-1.057l.077-1.181c1.047 1.045 2.91 2.422 5.897 3.14 2.438.579 8.16 1.058 9.338 1.17.13.148.364.303.667.462.336.197.78.33 1.301.365 1.32.086 9.678.25 12.886.774-.037.032-.044.136-.046.171z" fill="#4F92BF"/>
  <path d="M58.655 56.067C58.22 62.733 52.484 67.24 45.783 66.8c-6.701-.44-11.797-5.69-11.363-12.321l.043-.66c.727-6.299 6.37-11.02 12.829-10.597 6.458.423 11.44 5.805 11.337 12.18.056.212.042.42.026.664zm71.905 4.709c-.437 6.666-6.172 11.172-12.873 10.734-6.701-.44-11.797-5.69-11.363-12.321l.044-.66c.726-6.299 6.37-11.02 12.828-10.597 6.458.423 11.441 5.805 11.337 12.18.056.212.042.42.027.664z" fill="#292955"/>
  <path d="M124.453 60.376c-.216 3.299-3.058 5.693-6.391 5.475-3.333-.219-5.836-2.998-5.623-6.261.214-3.264 3.063-5.763 6.396-5.544 3.333.218 5.834 3.032 5.618 6.33zm-71.91-4.709c-.216 3.299-3.058 5.693-6.391 5.475-3.334-.219-5.837-2.998-5.623-6.261.214-3.264 3.063-5.763 6.396-5.544 3.333.218 5.834 3.032 5.618 6.33z" fill="#fff"/>
  <path d="M74.368 9.917c-.14.549-.45 1.017-.86 1.408-.596.589-1.294 1.136-2.069 1.783-4.573 3.815-10.688 8.261-12.66 9.631-.842.608-1.745 1.072-2.702 1.323-.57.172-1.275.3-1.97.254-2.048-.134-12.468-1.304-14.883-2.753 0 0 14.67-7.303 26.024-12.418 1.797-.823 3.498-1.235 5.04-1.901 0 0 .385-.01.943-.008l.035.002c.388-.08 3.759.107 3.102 2.679zm19.646 17.885l-24.583-1.61-1.989-2.64s2.75-3.656 7.794-7.197c4.568-3.188 10.94-6.257 20.079-5.763l-1.301 17.21zm4.254-17.017c9.122.737 15.043 4.577 19.155 8.333 2.533 2.328 4.809 5.371 6.37 7.635.858 1.277-.092 2.993-1.654 2.89l-.278-.017-24.582-1.61.989-17.23z" fill="#292955"/>
  <path d="M30.862 35.348c-1.874.923-3.489 1.62-5.52 2.288-.178.058-.428.146-.71.198-1.352.4-3.513.92-4.561.956 0 0-1.299.125-2.236.063-.935-.096-1.93-.335-2.531-1.281-.065-.074-.258-.331-.286-.438-.6-.945-.085-1.365.885-1.79 1.473-.67 3.125-1.399 4.553-1.898.715-.267 1.355-.47 1.853-.611 2.522-.707 4.268-.209 5.374-.067a7.638 7.638 0 013.295 1.332c.433.307.386 1.036-.116 1.248z" fill="#fff"/>
  <path opacity=".2" d="M93.247 34.203c-3.889-.255-9.793-.607-13.96-.88-6.007-.393-19.965-1.307-30.51-.01-.315.014-.39-.444-.07-.528C53.423 31.56 64.037 29.78 84 31.087c3.644.273 6.873.485 9.648.701 0 0 29.379 2.378 35.291 4.752l-35.693-2.337z" fill="#4F92BF"/>
  <path opacity=".2" d="M31.409 32.28c-.035-.002-.102-.042-.1-.076a.167.167 0 01.083-.204 118.29 118.29 0 0112.173-3.77c2.66-.698 4.984-1.034 6.78-1.3 1.974-.324 3.487-.54 4.602-1.059.072-.03.14.01.17.08a.167.167 0 01-.084.205c-1.117.554-2.665.767-4.674 1.088-1.798.301-4.087.64-6.78 1.3a136.167 136.167 0 00-12.172 3.77c.037-.032.002-.034.002-.034zM63.18 54.027c-.07-.004-.103-.041-.13-.148-.3-1.275-.473-3.971-.393-7.313.004-.07.046-.172.15-.165.07.005.136.044.127.183-.079 3.342.063 5.967.363 7.242a.167.167 0 01-.083.203l-.035-.002zm-.296-10.898c-.07-.005-.135-.078-.128-.183l.11-1.666c.404-6.18 1.188-10.697 1.609-12.866.005-.07.08-.17.148-.13.07.004.1.076.093.18-.419 2.135-1.203 6.651-1.605 12.797L63 42.927c.06.144-.013.209-.117.202zm29.66 14.041l-1.076-.07c-.07-.004-.135-.078-.128-.182.005-.07.081-.17.15-.165l1.077.07c.07.005.134.08.127.183.028.107-.046.172-.15.165zM89.94 57l-3.402-.223c-.07-.004-.134-.078-.127-.183.004-.069.08-.169.15-.164l3.402.223c.07.004.135.078.128.183.028.106-.046.17-.15.164zm-4.893-.32l-23.402-1.533c-.069-.005-.134-.079-.127-.183.005-.07.08-.169.15-.164l23.402 1.532c.07.005.134.079.128.183-.007.104-.081.169-.15.164z" fill="#292955"/>
  <path d="M89.687 34.772l-5.764-.377c-.382-.025-.674-.358-.647-.775.028-.416.36-.708.743-.683l5.763.377c.382.025.674.358.647.775-.027.416-.36.708-.742.683z" fill="#4F92BF"/>
  <path d="M89.37 34.332l-5.763-.378c-.382-.025-.674-.358-.647-.774.027-.417.36-.709.742-.684l5.764.378c.382.025.674.358.647.774-.025.382-.36.709-.743.684zm33.504 2.194l-5.763-.377c-.382-.025-.674-.358-.647-.775.027-.416.36-.709.742-.684l5.764.378c.382.025.674.358.646.775-.025.381-.36.708-.742.683z" fill="#2C2E5A"/>
  <path opacity=".2" d="M11.66 37.264c-.487-.032-1.005-.1-1.593-.174-3.179-.452-4.67-1.108-4.77-1.184a.167.167 0 01-.055-.213c.039-.067.113-.132.178-.058 0 0 1.56.66 4.67 1.108.828.124 1.627.176 2.358.189.07.005.137.044.128.183-.005.07-.046.17-.15.164-.246.019-.524 0-.767-.015z" fill="#292955"/>
  <path d="M73.74 26.44c-.035.555-.218 1.206-.682 1.908a5.258 5.258 0 01-.754.857c-.113.132-.29.19-.432.216-.6.1-2.178.24-3.685-.172-1.165-.32-1.629-1.222-1.828-1.898-.03-.072-.026-.141-.056-.213-.084-.32-.068-.562-.068-.562l-.764-.05c-.278-.018-.435-.273-.383-.548l.274-1.517c.049-.206.199-.37.41-.391l1.191-.097s.604-.692 2.499-.882c1.266-.161 2.59-.144 3.176.487.253.4 1.196 1.438 1.103 2.862z" fill="#75B5E0"/>
  <path d="M73.74 26.439c-.036.555-.218 1.206-.682 1.908-.933.392-5.342.627-5.449.131-.121-.81.024-1.428.433-1.82.41-.391 2.304-1.104 4.214-.979.731.013 1.195.392 1.484.76z" fill="#6CACD8"/>
  <path d="M73.74 26.44c-.037.556-.219 1.206-.683 1.908a5.255 5.255 0 01-.754.857c-.113.132-.291.19-.432.216-.6.1-2.178.241-3.685-.171-1.165-.32-1.629-1.223-1.829-1.899-.03-.071-.025-.14-.055-.212.33.265 1.429 1.07 3.447 1.132 1.743.01 3.212-1.115 3.99-1.831z" fill="#4F92BF"/>
  <path d="M33.817 41.33c2.828-2.186 10.292-6.475 20.477-2.251.238.085.398-.218.2-.406-3.458-2.562-13-8.069-20.969 2.324-.118.201.11.46.292.333zm75.204 4.925c2.828-2.187 10.292-6.475 20.477-2.251.238.085.397-.218.2-.405-3.458-2.563-13.001-8.07-20.969 2.323-.118.201.075.458.292.333z" fill="#75B5E0"/>
  <path opacity=".1" d="M59.629 19.344a.263.263 0 01-.135-.079.212.212 0 01.018-.277c.333-.292.634-.621.932-.916.074-.065.178-.058.278.018a.212.212 0 01-.018.278c-.333.292-.636.656-.97.948.003-.035-.036.033-.105.028zm2.486-2.801c-.035-.002-.07-.005-.102-.041-.065-.075-.09-.216-.017-.28.418-.531.804-1.099 1.118-1.636.04-.067.149-.13.283-.051.067.04.093.18.051.282-.353.605-.772 1.135-1.12 1.67-.04.067-.11.063-.213.056zM55.2 21.494c-.036-.002-.07-.004-.103-.041a.212.212 0 01.018-.278 49.79 49.79 0 002.411-2.736c.074-.065.183-.128.28-.017.065.074.09.215.017.28a72.12 72.12 0 01-2.411 2.737.343.343 0 01-.213.055zm4.475-5.495c-.034-.002-.07-.005-.102-.042-.067-.039-.09-.215-.05-.282.538-.767 1.009-1.573 1.44-2.312.04-.067.149-.13.283-.05.067.038.093.18.051.281-.432.74-.903 1.545-1.441 2.312-.042.102-.077.1-.18.093zm13.835-4.673a99.683 99.683 0 01-2.033 1.75c3.897-6.266-5.588-4.132-6.154-3.995 1.797-.824 3.498-1.235 5.04-1.901 0 0 .385-.01.943-.008l.035.002c.312.02 3.648.204 3.067 2.676a3.41 3.41 0 01-.898 1.476zm8.45 12.654c-.035-.003-.07-.006-.103-.043-.065-.073-.055-.212-.016-.28l4.62-5.067c.075-.065.179-.058.28-.016.066.074.056.212.017.28l-4.62 5.067a.586.586 0 01-.179.058zm6.983-7.668c-.035-.003-.07-.005-.102-.042-.065-.074-.056-.213-.016-.28l1.354-1.515c.074-.065.178-.058.28-.017.065.074.056.213.017.28l-1.355 1.516c-.072.03-.143.06-.178.058zm-3.771 8.644c-.034-.002-.07-.005-.102-.041-.064-.075-.055-.213-.016-.28l.411-.427c.074-.065.179-.058.28-.016.065.073.056.212.017.28l-.412.426c-.073.065-.108.063-.178.058zm1.085-1.184c-.035-.002-.07-.005-.102-.042-.065-.074-.056-.213-.016-.28l.864-.954c.074-.065.178-.058.28-.017.065.074.056.213.017.28l-.865.955a.367.367 0 01-.178.058zm1.691-1.842c-.035-.002-.07-.005-.102-.041-.065-.075-.056-.213-.016-.28l2.554-2.797c.074-.065.178-.058.28-.017.067.04.056.213.016.28l-2.554 2.797a.225.225 0 01-.178.058zm4.96-5.463c-.035-.002-.07-.004-.102-.041-.065-.074-.056-.213-.016-.28l.603-.693c.074-.065.178-.058.28-.017.065.074.056.213.016.28l-.603.693c-.108.063-.143.06-.178.058zm6.688 8.667c-.035-.002-.07-.005-.102-.042-.065-.074-.056-.212-.016-.28l4.62-5.067c.074-.065.178-.058.28-.017.065.074.056.213.017.28l-4.62 5.068a.59.59 0 01-.18.058zm6.951-7.67c-.035-.002-.07-.005-.102-.041-.065-.074-.056-.213-.017-.28l1.355-1.516c.074-.065.178-.058.28-.016.065.074.056.212.016.28l-1.354 1.515a.266.266 0 01-.178.058zm-3.74 8.646c-.035-.002-.069-.004-.102-.04-.065-.075-.056-.214-.016-.28l.411-.427c.074-.065.178-.058.28-.017.065.074.056.213.017.28l-.412.427c-.074.065-.108.062-.178.058zm1.089-1.183c-.035-.002-.07-.005-.102-.041-.065-.075-.056-.213-.017-.28l.865-.955c.074-.065.178-.058.28-.017.065.074.056.213.016.28l-.864.955a.37.37 0 01-.178.058zm1.693-1.841c-.035-.002-.07-.005-.102-.042-.065-.074-.056-.213-.017-.28l2.555-2.796c.074-.065.178-.058.28-.017.067.04.055.213.016.28l-2.554 2.797a.225.225 0 01-.178.058zm4.958-5.464c-.035-.002-.07-.005-.102-.042-.065-.074-.056-.212-.017-.28l.604-.692c.074-.065.178-.059.28-.017.065.074.055.213.016.28l-.603.693c-.109.063-.144.06-.178.058z" fill="#75B5E0"/>
  <path opacity=".2" d="M58.074 55.366c-.228-.26-2.828-3.15-11.3-3.704-8.472-.555-11.462 1.97-11.686 2.199.727-6.3 6.093-11.039 12.239-10.636 6.145.402 10.848 5.801 10.747 12.14zm71.906 4.709c-.227-.26-2.828-3.15-11.3-3.704-8.472-.555-11.461 1.97-11.686 2.199.727-6.3 6.093-11.039 12.239-10.636 6.145.402 10.848 5.801 10.747 12.14z" fill="#292955"/>
  <path d="M24.061 28.94c-3.471.295-5.087-.055-5.57-.679.61-.24 1.25-.441 1.893-.678 7.566-2.643 12.709-4.503 15.837-5.414-.016.243-.034.52.022.734.58 1.781-.573 5.018-12.182 6.037z" fill="#83BCE3"/>
  <path d="M32.698 50.985a23.359 23.359 0 00-.642 2.887 35.203 35.203 0 01-.2 1.452c-.567.137-1.16.133-1.16.133l-2.345-.92s-1.531-1.112.448-.983c1.977.165 3.9-2.569 3.9-2.569z" fill="#4F92BF"/>
  <path d="M68.526 16.613a.264.264 0 01-.134-.079.212.212 0 01.018-.277c.037-.033 4.051-3.292 8.374-5.938.074-.065.176-.023.275.053.065.074.022.21-.052.276-4.323 2.646-8.303 5.907-8.34 5.94-.035-.003-.072.03-.141.025z" fill="#92CEEF"/>
  <path d="M90.512 54.632c-6.113-.366-14.203-.895-21.585-2.111-.484-.067-.508-.766-.043-.944 2.679-.976 9.301-2.53 22.137-1.515 7.52.702 11.967 3.085 11.967 3.085s-3.372 1.976-12.476 1.485z" fill="#75B5E0"/>
  <path opacity=".15" d="M24.665 37.837c-1.351.4-3.512.92-4.56.956 0 0-1.299.124-2.236.063-.936-.096-1.931-.336-2.532-1.282-.065-.073-.257-.33-.285-.437-.6-.946-.085-1.365.884-1.79 1.474-.67 3.126-1.4 4.553-1.898.034 1.606.88 3.614 4.176 4.388z" fill="#6CACD8"/>
  <path opacity=".2" d="M95.305 29.943l-.912 13.924m31.202-3.676c-.272 1.482-.488 2.654-.616 3.552m-.17-13.332s2.115 2.3 1.109 8.093" stroke="#292955" stroke-miterlimit="10"/>
  <path d="M135.53 25.848c-2.752-.564-8.074-5.027-11.29-7.574-2.156-1.675-4.174-3.342-5.238-4.143a.445.445 0 01.191-.79c.283-.051.563-.068.88-.117 5.8 3.553 10.436 7.832 13.724 10.872.623.599 1.177 1.193 1.733 1.752z" fill="#292955"/>
</svg>
