<svg width="107" height="132" viewBox="0 0 107 132" fill="none" xmlns="http://www.w3.org/2000/svg">
<g opacity="0.6">
<path d="M59.3225 63.9701C59.3225 62.52 58.1361 61.3335 56.686 61.3335H17.1375C15.6874 61.3335 14.501 62.52 14.501 63.9701C14.501 65.4202 15.6874 66.6066 17.1375 66.6066H56.686C58.1361 66.6066 59.3225 65.4531 59.3225 63.9701Z" fill="#754A71"/>
<path d="M30.3207 73.2634H22.411C20.9609 73.2634 19.7744 74.4499 19.7744 75.9C19.7744 77.3501 20.9609 78.5365 22.411 78.5365H30.3207C31.7708 78.5365 32.9572 77.3501 32.9572 75.9C32.9572 74.4499 31.7708 73.2634 30.3207 73.2634Z" fill="#754A71"/>
<path d="M40.867 73.2634C39.4169 73.2634 38.2305 74.4499 38.2305 75.9C38.2305 77.3501 39.4169 78.5365 40.867 78.5365H43.5036C44.9537 78.5365 46.1402 77.3501 46.1402 75.9C46.1402 74.4499 44.9537 73.2634 43.5036 73.2634H40.867Z" fill="#754A71"/>
<path d="M51.4131 75.9C51.4131 77.3501 52.5995 78.5365 54.0496 78.5365H77.7787C79.2288 78.5365 80.4153 77.3501 80.4153 75.9C80.4153 74.4499 79.2288 73.2634 77.7787 73.2634H54.0496C52.5666 73.2634 51.4131 74.4499 51.4131 75.9Z" fill="#754A71"/>
<path d="M70.9234 86.9737L65.848 90.7967C59.4873 82.8541 47.9194 81.5687 39.9768 87.8965C32.0341 94.2242 30.7488 105.825 37.0766 113.768C43.4373 121.71 55.0052 122.996 62.9478 116.668C69.3085 111.593 71.5826 102.925 68.5176 95.3777L74.0873 91.1922C75.2408 90.3023 75.4715 88.6545 74.6146 87.501C73.7248 86.3475 72.0769 86.1168 70.9234 86.9737ZM51.4129 115.449C44.1294 115.449 38.23 109.549 38.23 102.266C38.23 94.9822 44.1294 89.0829 51.4129 89.0829C55.3677 89.0829 59.1248 90.8626 61.6295 93.9606L51.6436 101.442L47.9853 97.7836C46.9637 96.7619 45.2829 96.7619 44.2612 97.7836C43.2395 98.8053 43.2395 100.486 44.2612 101.508L49.5343 106.781C50.4571 107.704 51.9402 107.803 52.9948 107.012L64.1013 98.6734C66.0787 105.66 62.025 112.944 55.0052 114.954C53.8187 115.284 52.6323 115.449 51.4129 115.449Z" fill="#754A71"/>
<path d="M64.5957 63.9696C64.5957 65.4197 65.7822 66.6062 67.2323 66.6062H85.6882C87.1383 66.6062 88.3248 65.4197 88.3248 63.9696C88.3248 62.5195 87.1383 61.333 85.6882 61.333H67.2323C65.7492 61.333 64.5957 62.5195 64.5957 63.9696Z" fill="#754A71"/>
<path d="M80.4149 99.6291C78.9648 99.6291 77.7783 100.816 77.7783 102.266C77.7783 103.716 78.9648 104.902 80.4149 104.902H88.3246C89.7747 104.902 90.9611 103.716 90.9611 102.266C90.9611 100.816 89.7747 99.6291 88.3246 99.6291H80.4149Z" fill="#754A71"/>
<path d="M77.7783 112.812C77.7783 114.262 78.9648 115.448 80.4149 115.448H93.5977C95.0478 115.448 96.2343 114.262 96.2343 112.812C96.2343 111.362 95.0478 110.175 93.5977 110.175H80.4149C78.9318 110.175 77.7783 111.362 77.7783 112.812Z" fill="#754A71"/>
<path d="M33.3189 53.9839C29.5289 53.9839 26.8923 51.9735 25.4093 47.9857C25.0797 47.9857 24.7831 47.9857 24.5194 47.9857H24.3876C24.091 47.9857 23.7944 47.9857 23.4648 47.9857C22.9375 47.9857 22.4761 47.9857 21.9817 48.0187H21.8169C18.9497 48.0187 16.2802 45.8765 15.5551 43.0422L15.5221 42.8774C15.4562 42.5808 15.3574 42.2841 15.3574 41.9546C15.3574 41.3284 15.3574 40.7022 15.3244 40.109C15.2914 38.4941 15.2585 36.8133 15.3903 35.1654C15.621 32.4959 17.17 30.5185 19.7406 29.5957C20.4987 29.332 21.3226 29.1343 21.9817 28.9695L22.2454 28.9036C22.509 28.8377 22.7727 28.7718 23.0363 28.7058C23.6625 28.5411 24.2558 28.3763 24.8819 28.1785C25.9036 27.8819 26.1673 27.3546 26.7605 26.267L26.8923 26.0363C27.2219 25.4431 27.5515 24.8169 27.914 24.2237L28.0129 24.0589C28.672 22.9054 29.2323 21.8837 29.7925 20.8291C31.2097 18.0937 33.4178 16.7754 36.5487 16.7754H36.6146C37.6363 16.7754 38.658 16.7754 39.6467 16.7754C41.723 16.7754 43.8322 16.7754 45.9085 16.7424H46.1063C47.9848 16.7424 49.8634 16.7095 51.709 16.7095C52.8625 16.7095 53.8182 16.7424 54.6751 16.8413C57.5094 17.1379 59.9482 18.3244 61.8927 20.3018C62.5189 20.928 63.1451 21.5542 63.7713 22.1803L64.1997 22.6088C65.4521 23.8612 66.7374 25.1465 67.9898 26.4648C68.6159 27.1239 69.2751 27.4864 70.099 27.6183C71.3843 27.816 72.5378 28.0797 73.6584 28.3104L73.8232 28.3433C74.9437 28.574 76.1301 28.8047 77.4155 29.0354C80.6453 29.5627 83.15 30.914 84.9956 33.1221C86.8412 35.3302 87.6321 37.4395 87.4674 39.7135C87.4344 40.2738 87.4344 40.867 87.4344 41.4602V41.7239C87.4344 41.9875 87.4344 42.2841 87.4344 42.5478C87.4014 45.8435 85.3581 47.9198 82.0954 47.9857C81.4033 47.9857 80.81 47.9857 80.2498 47.9857H79.1951C78.8656 47.9857 78.536 47.9857 78.1735 47.9857C77.9098 47.9857 77.6791 48.0187 77.3166 48.0187H77.2836C75.8006 51.9735 73.1311 53.9509 69.4399 53.9509C69.2751 53.9509 69.1432 53.9509 68.9785 53.9509C65.3532 53.7862 62.8155 51.8087 61.4643 48.0516H41.2286C39.8774 51.8087 37.3397 53.7862 33.7144 53.9509C33.5826 53.9839 33.4508 53.9839 33.3189 53.9839ZM33.3519 42.0534C31.2097 42.0534 29.5289 43.7343 29.5289 45.8435C29.5289 46.8652 29.9244 47.8539 30.6494 48.6119C31.3745 49.337 32.3302 49.7324 33.3189 49.7324C33.3189 49.7324 33.3189 49.7324 33.3519 49.7324C33.3849 49.7324 33.3849 49.7324 33.4178 49.7324C35.5271 49.6665 37.2408 47.9198 37.2079 45.8105C37.2079 43.7343 35.5271 42.0534 33.3519 42.0534ZM69.341 42.0534C67.2317 42.0534 65.5509 43.6683 65.518 45.7446C65.485 46.8322 65.8805 47.8209 66.6385 48.5789C67.3636 49.3369 68.3193 49.7324 69.3739 49.7324C71.4832 49.7324 73.197 48.0187 73.2299 45.9094C73.2629 43.8002 71.615 42.0864 69.4399 42.0534H69.341ZM77.2836 43.7343C77.7121 43.7343 78.1405 43.7343 78.536 43.7343H78.6019C79.0633 43.7343 79.5247 43.7343 79.9532 43.7343C80.7112 43.7343 81.3703 43.7343 82.1942 43.7013C82.8204 43.7013 83.0511 43.4376 83.117 42.7785C83.1829 42.1853 83.15 41.592 83.15 40.9329C83.15 40.8011 83.15 40.6363 83.15 40.5045C83.0182 40.5045 82.8863 40.5045 82.7545 40.5045C82.4249 40.5045 82.1283 40.5045 81.8317 40.5045C81.4033 40.5045 81.0737 40.5045 80.7441 40.4715C79.0633 40.4056 77.5803 39.6476 76.6575 38.3623C75.7347 37.1099 75.471 35.4291 75.8994 33.8142C75.9654 33.5835 76.0313 33.3528 76.1301 33.1221C75.2403 32.9573 74.3834 32.7596 73.6584 32.5948C70.9559 32.0015 68.3852 31.4742 65.4521 31.4413C62.9473 31.4413 60.4426 31.4413 57.9379 31.4413C56.3559 31.4413 49.0724 31.4413 49.0724 31.4413C48.2155 31.4413 47.3586 31.4413 46.4688 31.4413H45.1835C43.8322 31.4413 42.514 31.4413 41.1957 31.4413C39.9763 31.4413 38.7239 31.4413 37.5045 31.4413C36.0544 31.4413 34.9009 30.914 34.2088 29.9582C33.5167 29.0354 33.3849 27.7501 33.8133 26.3988C34.077 25.5749 34.4395 24.751 34.7691 24.0589C34.9009 23.7293 35.0657 23.3998 35.1975 23.1031C35.4612 22.477 35.7248 21.8178 36.0214 21.1587L36.1203 20.9609C35.0657 20.9939 34.3406 21.4553 33.8133 22.3781C33.1871 23.4657 32.5609 24.5533 31.9347 25.6408C31.3745 26.5966 30.8472 27.5523 30.2869 28.5081C29.2982 30.2548 28.5072 31.4742 26.4968 32.0015C26.2661 32.0675 26.0354 32.1334 25.7718 32.2322L25.7059 32.2982C25.4422 36.1871 23.5307 38.2963 19.6088 39.0544C19.6088 39.1532 19.6418 39.6476 19.6418 39.6476C19.6747 40.5045 19.6747 41.1966 19.8066 41.8887C20.0043 42.9762 20.6964 43.6354 21.7181 43.6683C22.2783 43.7013 22.8056 43.7343 23.3989 43.7343C23.7614 43.7343 24.091 43.7343 24.4535 43.7343H24.5524C24.849 43.7343 25.1786 43.7343 25.5081 43.7343C26.8923 39.8783 29.4959 37.8679 33.2201 37.802H33.4508C37.2408 37.802 39.8774 39.7794 41.3275 43.7013H61.5631C62.9803 39.8124 65.6168 37.8349 69.4069 37.802H69.4728C73.197 37.769 75.8665 39.7794 77.2836 43.7343ZM79.9532 34.4733C79.7884 34.6711 79.294 35.0995 79.4918 35.8575C79.6895 36.5167 80.876 36.6485 81.2714 36.6485C81.5681 36.6485 81.9306 36.6814 82.1613 36.6485C81.6999 36.0553 80.7112 34.9347 80.1839 34.6381L79.9532 34.4733ZM20.3339 33.979C19.9713 34.3415 19.8066 34.9018 19.7406 35.3302C20.9271 35.0666 21.6192 34.3415 21.8829 33.155C21.6851 33.188 21.4215 33.2539 21.2237 33.3198C20.8612 33.4846 20.3339 33.979 20.3339 33.979ZM60.146 27.2228C60.4426 27.2228 60.7392 27.2228 61.0688 27.2557H61.2336C61.4972 27.2557 61.7279 27.2887 61.9916 27.2887C62.2552 27.2887 62.5189 27.2887 62.7496 27.2557C62.6178 27.1239 61.9916 26.5307 61.9916 26.5307C60.9699 25.509 59.7835 24.3555 58.6959 23.202C57.2787 21.686 55.499 21.0269 52.8625 21.0269C52.5988 21.0269 52.3352 21.0269 52.0715 21.0269V27.2557H55.7297C56.0923 27.2557 56.4877 27.2557 56.8503 27.2557H57.9708C58.6629 27.2557 59.2232 27.2557 59.7834 27.2228C59.9482 27.2557 60.0471 27.2228 60.146 27.2228ZM38.0977 27.2557C38.8228 27.2557 39.5808 27.2557 40.2729 27.2887C41.2945 27.2887 42.2833 27.2887 43.272 27.2887C45.0187 27.2887 46.337 27.2557 47.5893 27.1898C47.7541 25.509 47.7541 22.477 47.5564 20.9939H46.6336C45.9085 20.9939 45.1835 20.9939 44.4584 20.9939C43.1072 20.9939 41.9207 20.9939 40.7672 21.0269L38.0977 27.2557Z" fill="#754A71"/>
<path d="M54.379 37.5054C53.7858 37.5054 53.2255 37.4725 52.6323 37.4395C51.5776 37.3406 50.7537 36.5167 50.7208 35.4621C50.6878 34.3745 51.4458 33.5176 52.6323 33.2869C53.0278 33.221 53.4562 33.221 53.8187 33.188C53.9835 33.188 54.1153 33.188 54.2801 33.188H54.346C54.5438 33.188 54.7086 33.221 54.9063 33.221C55.3347 33.221 55.7632 33.254 56.2246 33.3199C57.3122 33.5176 58.0043 34.3745 58.0043 35.4291C57.9713 36.5167 57.1803 37.3736 56.1257 37.4725C55.5325 37.5054 54.9393 37.5054 54.379 37.5054Z" fill="#754A71"/>
<path d="M100.98 131.037H5.93227C2.66952 131.037 0 128.368 0 125.105V5.93227C0 2.66952 2.66952 0 5.93227 0H72.2089C73.7579 0 75.2409 0.593227 76.3615 1.68081L76.4603 1.77968L105.265 37.1755C106.319 38.2631 106.946 39.7791 106.946 41.2952V125.072C106.913 128.368 104.243 131.037 100.98 131.037ZM5.93227 5.27313C5.56974 5.27313 5.27313 5.56974 5.27313 5.93227V125.105C5.27313 125.467 5.56974 125.764 5.93227 125.764H100.98C101.343 125.764 101.64 125.467 101.64 125.105V41.3281C101.64 41.1633 101.574 40.9656 101.442 40.8667L101.343 40.7679L101.244 40.636L72.6044 5.40495C72.5055 5.30608 72.3407 5.27313 72.2089 5.27313H5.93227Z" fill="#754A71"/>
</g>
</svg>
