<svg width="43" height="20" viewBox="0 0 43 20" fill="none" xmlns="http://www.w3.org/2000/svg">
<g clip-path="url(#clip0)">
<path d="M32.065 6.42919C31.3081 5.84804 28.7343 3.5458 26.0445 1.89921C23.3547 0.252614 16.3501 -1.21268 10.486 1.52171C7.03166 3.13104 4.36456 6.67755 1.89428 7.07492C1.1701 7.19164 0.597318 8.27447 0.461061 8.98725C0.143129 10.6438 0.143129 11.6148 0.00687247 13.3037C-0.0789188 14.3964 0.463585 15.1042 1.51074 15.2508C2.82789 15.4395 3.73879 15.4991 5.00043 15.596C5.41677 13.1546 7.57164 11.2945 10.1706 11.2945C12.9765 11.2945 15.2651 13.4626 15.4039 16.192H27.4172C27.4273 15.9884 27.45 15.7897 27.4828 15.596C27.8991 13.1546 30.054 11.2945 32.653 11.2945C35.4588 11.2945 37.7474 13.4626 37.8862 16.192C37.8887 16.2144 37.8888 16.2367 37.8888 16.2616C38.9056 16.2665 39.3573 16.2889 40.4297 16.2467C41.5525 16.202 42.196 16.1026 42.2893 14.9602C42.6148 10.907 38.2496 7.19661 32.065 6.42919ZM8.26806 6.3075C9.2042 3.71964 14.1271 1.46955 17.0768 1.53164C17.2282 3.04412 17.3897 4.84221 17.536 6.3075H8.26806ZM19.2594 6.3075C19.0803 4.47961 18.9289 3.14346 18.7674 1.53164C23.2538 1.47949 27.3995 4.194 27.4651 6.3075H19.2594Z" fill="currentColor"/>
<path d="M32.6534 12.9121C30.6651 12.9121 29.0527 14.4991 29.0527 16.4561C29.0527 18.4132 30.6651 20.0002 32.6534 20.0002C34.6418 20.0002 36.2516 18.4132 36.2516 16.4561C36.2516 14.4991 34.6418 12.9121 32.6534 12.9121ZM32.6534 17.7799C31.9091 17.7799 31.3085 17.1863 31.3085 16.4561C31.3085 15.726 31.9091 15.1324 32.6534 15.1324C33.3953 15.1324 33.9958 15.726 33.9958 16.4561C33.9958 17.1863 33.3953 17.7799 32.6534 17.7799Z" fill="currentColor"/>
<path d="M10.171 12.9121C8.18268 12.9121 6.57031 14.4991 6.57031 16.4561C6.57031 18.4132 8.18268 20.0002 10.171 20.0002C12.1594 20.0002 13.7692 18.4132 13.7692 16.4561C13.7717 14.4991 12.1594 12.9121 10.171 12.9121ZM10.171 17.7799C9.42918 17.7799 8.82612 17.1863 8.82612 16.4561C8.82612 15.726 9.42918 15.1324 10.171 15.1324C10.9154 15.1324 11.5159 15.726 11.5159 16.4561C11.5159 17.1863 10.9129 17.7799 10.171 17.7799Z" fill="currentColor"/>
</g>
<defs>
<clipPath id="clip0">
<rect width="42.3077" height="20" fill="white"/>
</clipPath>
</defs>
</svg>
