<svg width="47" height="44" viewBox="0 0 47 44" fill="none" xmlns="http://www.w3.org/2000/svg">
    <path
            d="M1.98833 11.2219C1.98833 11.2219 -0.647077 14.3831 2.09374 17.3371C4.88726 20.291 11.3703 25.4216 11.3703 25.4216C11.3703 25.4216 10.527 26.458 10.4743 27.3391C10.4216 27.9609 11.3176 28.3237 11.3176 28.3237L12.8989 26.769L26.9719 38.9475C26.9719 38.9475 28.395 40.3986 29.9763 41.4869C31.6102 42.5234 32.8225 44.0262 34.2983 43.7153C35.5106 43.4562 39.9381 39.103 41.7301 37.2892C41.8355 37.1855 42.2045 36.7709 42.3626 36.5636C43.6803 34.9571 46.7374 31.0703 46.8428 29.8784C46.9482 28.3755 45.3143 27.3909 44.0493 25.9398C42.7843 24.4887 41.0976 23.2968 41.0976 23.2968L26.9719 11.2219L28.395 9.51172C28.395 9.51172 27.8679 8.68255 27.2881 8.78619C26.3921 8.99349 25.4434 9.87449 25.4434 9.87449C25.4434 9.87449 19.4874 4.07025 16.2195 1.68636C12.9516 -0.697521 10.0526 2.25643 10.0526 2.25643C10.0526 2.25643 8.04974 4.1739 5.88872 6.50596L5.836 6.55779C3.72769 9.09714 1.98833 11.2219 1.98833 11.2219ZM13.8476 25.9916C13.8476 25.9916 17.5899 26.5617 20.0672 27.9091C22.4917 29.2565 24.3892 31.5368 25.7596 33.2469C27.13 34.9571 27.3936 37.8074 27.3936 37.8074L13.8476 25.9916ZM40.2016 25.9916C42.3099 26.9763 43.4168 27.9091 42.8897 28.7383C42.5207 29.3083 39.042 33.5061 37.5135 35.3717L37.4608 35.4235C35.7741 37.1337 33.4023 39.5176 32.8225 39.9322C32.0319 40.5022 27.7625 33.2469 28.0788 32.8323C28.395 32.4177 31.1885 29.3602 31.294 29.2565L31.5048 29.0492C31.5575 28.9456 34.351 25.888 34.7727 25.5252C35.1416 25.1625 36.2485 25.0588 37.5135 25.2143C37.4608 25.2143 39.3583 25.577 40.2016 25.9916ZM39.9908 23.8669C39.9908 23.8669 37.0918 23.9705 35.1943 22.8822C33.2969 21.7939 30.7669 20.2392 29.0802 18.0108C27.4463 15.7824 26.3921 12.2066 26.3921 12.2066L39.9908 23.8669ZM15.1653 14.7977C16.852 12.9839 18.7495 11.481 18.7495 11.481C18.7495 11.481 21.8065 9.45991 22.5444 9.6672C23.2823 9.8745 26.234 15.6787 26.234 15.6787L21.7538 20.5502L21.6484 20.6538L17.2209 25.577C17.2209 25.577 11.0541 23.3486 10.7379 22.6231C10.4216 21.8976 12.161 18.7363 12.161 18.7363C12.161 18.7363 13.4787 16.767 15.1126 14.9014L15.1653 14.7977ZM14.2693 2.87831C14.8491 3.39654 14.7964 4.3812 14.1112 5.05491C13.4787 5.78044 12.4772 5.9359 11.8974 5.41766C11.3176 4.89943 11.3703 3.91479 12.0556 3.24108C12.7408 2.51555 13.6895 2.36007 14.2693 2.87831ZM5.25621 12.7248C5.836 13.243 5.7833 14.2277 5.15081 14.9014C4.51831 15.6269 3.51685 15.7824 2.93707 15.2641C2.35728 14.7459 2.40999 13.8131 3.04249 13.0876C3.67498 12.4139 4.67643 12.2066 5.25621 12.7248Z"
            fill="currentColor"/>
</svg>
