<svg width="20" height="20" viewBox="0 0 20 20" fill="none" xmlns="http://www.w3.org/2000/svg">
<path d="M0.243902 11H8.7561C8.90244 11 9 11.0976 9 11.2439V19.7561C9 19.9024 8.90244 20 8.7561 20H6.80488C6.65854 20 6.56098 19.9024 6.56098 19.7561V13.6829C6.56098 13.5366 6.46341 13.439 6.31707 13.439H0.243902C0.097561 13.439 0 13.3415 0 13.1951V11.2439C0 11.0976 0.097561 11 0.243902 11Z" fill="white"/>
<path d="M11.2439 0H13.1951C13.3415 0 13.439 0.097561 13.439 0.243902V6.31707C13.439 6.46341 13.5366 6.56098 13.6829 6.56098H19.7561C19.9024 6.56098 20 6.65854 20 6.80488V8.7561C20 8.90244 19.9024 9 19.7561 9H11.2439C11.0976 9 11 8.90244 11 8.7561V0.243902C11 0.097561 11.0976 0 11.2439 0Z" fill="white"/>
</svg>
