<svg width="16" height="16" viewBox="0 0 16 16" fill="none" xmlns="http://www.w3.org/2000/svg">
<path d="M15.7561 10H13.8049C13.6585 10 13.561 9.8916 13.561 9.729V2.98103C13.561 2.81843 13.4634 2.71003 13.3171 2.71003H7.2439C7.09756 2.71003 7 2.60163 7 2.43902V0.271003C7 0.108401 7.09756 0 7.2439 0H15.7561C15.9024 0 16 0.108401 16 0.271003V9.729C16 9.8645 15.878 10 15.7561 10Z" fill="white"/>
<path d="M8.7561 16H0.243902C0.097561 16 0 15.9024 0 15.7561V7.2439C0 7.09756 0.097561 7 0.243902 7H2.19512C2.34146 7 2.43902 7.09756 2.43902 7.2439V13.3171C2.43902 13.4634 2.53659 13.561 2.68293 13.561H8.7561C8.90244 13.561 9 13.6585 9 13.8049V15.7561C9 15.878 8.87805 16 8.7561 16Z" fill="white"/>
</svg>
