<svg width="24" height="22" viewBox="0 0 24 22" fill="none" xmlns="http://www.w3.org/2000/svg">
<path d="M3.31311 8.89062V20.231C3.31311 20.4349 3.39391 20.6304 3.53772 20.7746C3.68154 20.9188 3.8766 20.9998 4.07998 20.9998H8.68123V14.4647C8.68123 14.1588 8.80242 13.8655 9.01815 13.6492C9.23387 13.4329 9.52646 13.3114 9.83154 13.3114H13.6659C13.971 13.3114 14.2636 13.4329 14.4793 13.6492C14.695 13.8655 14.8162 14.1588 14.8162 14.4647V20.9998H19.4175C19.6209 20.9998 19.8159 20.9188 19.9597 20.7746C20.1035 20.6304 20.1843 20.4349 20.1843 20.231V8.89062" stroke="#404452" stroke-width="1.2" stroke-linecap="round" stroke-linejoin="round"/>
<path d="M22.4972 10.9323L12.2712 1.19019C12.0312 0.938039 11.4703 0.935174 11.226 1.19019L1 10.9323M18.6584 7.2551V1.76325H16.3551V5.05836" stroke="#404452" stroke-width="1.2" stroke-linecap="round" stroke-linejoin="round"/>
</svg>
