<svg width="25" height="20" viewBox="0 0 25 20" fill="none" xmlns="http://www.w3.org/2000/svg">
<path d="M23.0765 11.0484V16.2714C23.0765 16.4095 22.9646 16.5214 22.8265 16.5214H0.250001C0.111929 16.5214 0 16.4095 0 16.2714V11.0484C0 10.9563 9.4731e-09 10.9057 0.0381422 10.8219C0.0470825 10.8023 0.059624 10.7845 0.0740346 10.7685L2.62001 7.93136C2.65181 7.89592 2.67283 7.85213 2.6806 7.80515L3.76759 1.2276C3.92457 0.5115 4.44785 0 5.18044 0H17.8437C18.5763 0 19.0996 0.5115 19.2566 1.2276L20.3436 7.80515C20.3513 7.85213 20.3724 7.89592 20.4042 7.93136L22.9501 10.7685C22.9645 10.7845 22.9767 10.8025 22.9872 10.8213C23.0339 10.9054 23.0765 10.9561 23.0765 11.0484Z" fill="#2A3E7F"/>
<path d="M1.71997 7.87695H24.35" stroke="#DBDFED" stroke-width="1.25" stroke-miterlimit="10"/>
<path d="M18.9087 13.9127C19.7757 13.9127 20.4785 13.2257 20.4785 12.3782C20.4785 11.5308 19.7757 10.8438 18.9087 10.8438C18.0417 10.8438 17.3389 11.5308 17.3389 12.3782C17.3389 13.2257 18.0417 13.9127 18.9087 13.9127Z" stroke="#DBDFED" stroke-miterlimit="10"/>
<path d="M8.26782 12.3789H14.5471" stroke="#DBDFED" stroke-width="1.25" stroke-miterlimit="10"/>
<path d="M1.67432 18.0566V19.7503C1.67432 19.8884 1.78625 20.0003 1.92432 20.0003H5.66286C5.80093 20.0003 5.91286 19.8884 5.91286 19.7503V18.0566" fill="#2A3E7F"/>
<path d="M17.0591 18.0566V19.7503C17.0591 19.8884 17.171 20.0003 17.3091 20.0003H20.9953C21.1334 20.0003 21.2453 19.8884 21.2453 19.7503V18.0566" fill="#2A3E7F"/>
<path d="M3.76783 13.9127C4.63482 13.9127 5.33766 13.2257 5.33766 12.3782C5.33766 11.5308 4.63482 10.8438 3.76783 10.8438C2.90083 10.8438 2.198 11.5308 2.198 12.3782C2.198 13.2257 2.90083 13.9127 3.76783 13.9127Z" stroke="#DBDFED" stroke-miterlimit="10"/>
</svg>
