<svg width="17" height="19" viewBox="0 0 17 19" fill="none" xmlns="http://www.w3.org/2000/svg">
<path d="M16.4167 10.826C16.5867 10.044 16.6887 9.296 16.6887 8.582C16.6887 4.23 13.3907 0.931999 8.97069 0.931999C4.24469 0.83 0.232688 4.876 0.334688 9.67C0.334688 14.6 4.21069 18.374 9.31069 18.374C11.8607 18.374 14.0707 17.49 15.9747 15.688L14.2747 13.24C12.7787 14.566 11.1467 15.212 9.41269 15.212C6.55669 15.212 4.41469 13.546 3.97269 10.826H16.4167ZM4.04069 8.038C4.58469 5.556 6.48869 3.958 8.83469 3.958C11.1807 3.958 13.0847 5.488 13.1187 8.038H4.04069Z" fill="#404452"/>
</svg>
