<svg width="23" height="26" viewBox="0 0 23 26" fill="none" xmlns="http://www.w3.org/2000/svg">
<path d="M8.71422 2.71436H12.2901C12.7446 2.71442 13.1805 2.89498 13.5019 3.21632L21.0694 10.7838C21.3907 11.1052 21.5713 11.5411 21.5714 11.9956V22.4286C21.5714 23.1106 21.3004 23.7647 20.8182 24.2469C20.336 24.7292 19.6819 25.0001 18.9999 25.0001H7.85707C7.17509 25.0001 6.52103 24.7292 6.0388 24.2469C5.55656 23.7647 5.28564 23.1106 5.28564 22.4286V15.5715" stroke="currentColor" stroke-width="1.5" stroke-linecap="round" stroke-linejoin="round"/>
<path d="M13 3.14282V9.57139C13 10.0261 13.1806 10.4621 13.5021 10.7836C13.8236 11.1051 14.2596 11.2857 14.7143 11.2857H21.1429" stroke="currentColor" stroke-width="1.5" stroke-linecap="round" stroke-linejoin="round"/>
<path d="M6.14286 3.57143V11.7143C6.14509 11.8837 6.11336 12.0519 6.04954 12.2089C5.98571 12.3659 5.89109 12.5086 5.77125 12.6284C5.65142 12.7482 5.50879 12.8429 5.35179 12.9067C5.19479 12.9705 5.0266 13.0022 4.85714 13C4.21429 13 3.57143 12.5125 3.57143 11.7143V4C3.57143 2.36125 4.45911 1 6.14286 1C7.82661 1 8.71429 2.32857 8.71429 3.96679V11.3998C8.71429 13.7034 7.22393 15.5714 4.85714 15.5714C2.49036 15.5714 1 13.7039 1 11.3998V7" stroke="currentColor" stroke-width="1.5" stroke-miterlimit="10" stroke-linecap="round"/>
</svg>
