<svg width="25" height="22" viewBox="0 0 25 22" fill="none" xmlns="http://www.w3.org/2000/svg">
<path d="M24.0765 12.0484V17.2714C24.0765 17.4095 23.9646 17.5214 23.8265 17.5214H1.25C1.11193 17.5214 1 17.4095 1 17.2714V12.0484C1 11.9563 1 11.9057 1.03814 11.8219C1.04708 11.8023 1.05962 11.7845 1.07403 11.7685L3.62001 8.93136C3.65181 8.89592 3.67283 8.85213 3.6806 8.80515L4.76759 2.2276C4.92457 1.5115 5.44785 1 6.18044 1H18.8437C19.5763 1 20.0996 1.5115 20.2566 2.2276L21.3436 8.80515C21.3513 8.85213 21.3724 8.89592 21.4042 8.93136L23.9501 11.7685C23.9645 11.7845 23.9767 11.8025 23.9872 11.8213C24.0339 11.9054 24.0765 11.9561 24.0765 12.0484Z" stroke="currentColor" stroke-width="1.25" stroke-miterlimit="10"/>
<path d="M3.72095 8.87695H21.3554" stroke="currentColor" stroke-width="1.25" stroke-miterlimit="10"/>
<path d="M19.9086 14.9127C20.7756 14.9127 21.4784 14.2257 21.4784 13.3782C21.4784 12.5308 20.7756 11.8438 19.9086 11.8438C19.0416 11.8438 18.3387 12.5308 18.3387 13.3782C18.3387 14.2257 19.0416 14.9127 19.9086 14.9127Z" stroke="currentColor" stroke-miterlimit="10"/>
<path d="M9.26782 13.3789H15.5471" stroke="currentColor" stroke-width="1.25" stroke-miterlimit="10"/>
<path d="M2.67432 19.0566V20.7503C2.67432 20.8884 2.78625 21.0003 2.92432 21.0003H6.66286C6.80093 21.0003 6.91286 20.8884 6.91286 20.7503V19.0566" stroke="currentColor" stroke-width="1.25" stroke-miterlimit="10"/>
<path d="M18.0588 19.0566V20.7503C18.0588 20.8884 18.1708 21.0003 18.3088 21.0003H21.995C22.1331 21.0003 22.245 20.8884 22.245 20.7503V19.0566" stroke="currentColor" stroke-width="1.25" stroke-miterlimit="10"/>
<path d="M4.76771 14.9127C5.6347 14.9127 6.33753 14.2257 6.33753 13.3782C6.33753 12.5308 5.6347 11.8438 4.76771 11.8438C3.90071 11.8438 3.19788 12.5308 3.19788 13.3782C3.19788 14.2257 3.90071 14.9127 4.76771 14.9127Z" stroke="currentColor" stroke-miterlimit="10"/>
</svg>
