<svg width="32" height="33" viewBox="0 0 32 33" fill="none" xmlns="http://www.w3.org/2000/svg">
<path d="M11.2988 11.7998H1.29883C0.998828 11.7998 0.798828 11.5998 0.798828 11.2998V10.2998C0.798828 9.9998 0.998828 9.7998 1.29883 9.7998H9.19884C9.49884 9.7998 9.69884 9.5998 9.69884 9.2998V1.2998C9.69884 0.999805 9.89884 0.799805 10.1988 0.799805H11.1988C11.4988 0.799805 11.6988 0.999805 11.6988 1.2998V11.2998C11.7988 11.5998 11.5988 11.7998 11.2988 11.7998Z" fill="white"/>
<path d="M11.2984 32.7999H10.2984C9.99843 32.7999 9.79843 32.5999 9.79843 32.2999V24.3999C9.79843 24.0999 9.59843 23.8999 9.29843 23.8999H1.39844C1.09844 23.8999 0.898438 23.6999 0.898438 23.3999V22.3999C0.898438 22.0999 1.09844 21.8999 1.39844 21.8999H11.3984C11.6984 21.8999 11.8984 22.0999 11.8984 22.3999V32.3999C11.7984 32.5999 11.5984 32.7999 11.2984 32.7999Z" fill="white"/>
<path d="M21.7988 32.7998H20.7988C20.4988 32.7998 20.2988 32.5998 20.2988 32.2998V22.2998C20.2988 21.9998 20.4988 21.7998 20.7988 21.7998H30.7988C31.0988 21.7998 31.2988 21.9998 31.2988 22.2998V23.2998C31.2988 23.5998 31.0988 23.7998 30.7988 23.7998H22.8988C22.5988 23.7998 22.3988 23.9998 22.3988 24.2998V32.1998C22.2988 32.5998 22.0988 32.7998 21.7988 32.7998Z" fill="white"/>
<path d="M30.7988 11.7998H20.7988C20.4988 11.7998 20.2988 11.5998 20.2988 11.2998V1.2998C20.2988 0.999805 20.4988 0.799805 20.7988 0.799805H21.7988C22.0988 0.799805 22.2988 0.999805 22.2988 1.2998V9.1998C22.2988 9.4998 22.4988 9.6998 22.7988 9.6998H30.6988C30.9988 9.6998 31.1988 9.8998 31.1988 10.1998V11.1998C31.2988 11.5998 30.9988 11.7998 30.7988 11.7998Z" fill="white"/>
<path d="M4.59961 18.0996H2.09961C1.79961 18.0996 1.59961 17.8996 1.59961 17.5996V16.5996C1.59961 16.2996 1.79961 16.0996 2.09961 16.0996H4.59961C4.89961 16.0996 5.09961 16.2996 5.09961 16.5996V17.5996C5.09961 17.8996 4.89961 18.0996 4.59961 18.0996Z" fill="white"/>
<path d="M11.2988 18.0996H8.79883C8.49883 18.0996 8.29883 17.8996 8.29883 17.5996V16.5996C8.29883 16.2996 8.49883 16.0996 8.79883 16.0996H11.2988C11.5988 16.0996 11.7988 16.2996 11.7988 16.5996V17.5996C11.7988 17.8996 11.5988 18.0996 11.2988 18.0996Z" fill="white"/>
<path d="M24.7988 18.0996H22.2988C21.9988 18.0996 21.7988 17.8996 21.7988 17.5996V16.5996C21.7988 16.2996 21.9988 16.0996 22.2988 16.0996H24.7988C25.0988 16.0996 25.2988 16.2996 25.2988 16.5996V17.5996C25.2988 17.8996 25.0988 18.0996 24.7988 18.0996Z" fill="white"/>
<path d="M31.498 18.0996H28.998C28.698 18.0996 28.498 17.8996 28.498 17.5996V16.5996C28.498 16.2996 28.698 16.0996 28.998 16.0996H31.498C31.798 16.0996 31.998 16.2996 31.998 16.5996V17.5996C31.998 17.8996 31.698 18.0996 31.498 18.0996Z" fill="white"/>
<path d="M16.6992 4.79971H15.6992C15.3992 4.79971 15.1992 4.59971 15.1992 4.29971V1.69971C15.1992 1.39971 15.3992 1.19971 15.6992 1.19971H16.6992C16.9992 1.19971 17.1992 1.39971 17.1992 1.69971V4.19971C17.1992 4.49971 16.9992 4.79971 16.6992 4.79971Z" fill="white"/>
<path d="M16.6992 11.3999H15.6992C15.3992 11.3999 15.1992 11.1999 15.1992 10.8999V8.3999C15.1992 8.0999 15.3992 7.8999 15.6992 7.8999H16.6992C16.9992 7.8999 17.1992 8.0999 17.1992 8.3999V10.8999C17.1992 11.1999 16.9992 11.3999 16.6992 11.3999Z" fill="white"/>
<path d="M16.6992 25.6997H15.6992C15.3992 25.6997 15.1992 25.4997 15.1992 25.1997V22.6997C15.1992 22.3997 15.3992 22.1997 15.6992 22.1997H16.6992C16.9992 22.1997 17.1992 22.3997 17.1992 22.6997V25.1997C17.1992 25.3997 16.9992 25.6997 16.6992 25.6997Z" fill="white"/>
<path d="M16.6992 32.2998H15.6992C15.3992 32.2998 15.1992 32.0998 15.1992 31.7998V29.2998C15.1992 28.9998 15.3992 28.7998 15.6992 28.7998H16.6992C16.9992 28.7998 17.1992 28.9998 17.1992 29.2998V31.7998C17.1992 32.0998 16.9992 32.2998 16.6992 32.2998Z" fill="white"/>
</svg>
