<svg width="24" height="26" viewBox="0 0 24 26" fill="none" xmlns="http://www.w3.org/2000/svg">
<path d="M2.4 25.2H1C0.4 25.2 0 24.8 0 24.2V1.5C0 0.9 0.4 0.5 1 0.5H2.4V25.2Z" fill="white"/>
<path d="M21.3008 0.5H22.7008C23.3008 0.5 23.7008 0.9 23.7008 1.5V24.2C23.7008 24.8 23.3008 25.2 22.7008 25.2H21.3008V0.5Z" fill="white"/>
<path d="M10.2988 20.2001C10.2988 20.3001 10.3988 20.4001 10.4988 20.4001H13.2988C13.3988 20.4001 13.4988 20.3001 13.4988 20.2001V12.1001H10.2988V20.2001Z" fill="white"/>
<path d="M15.1996 12.4002H8.49965C8.19965 12.4002 7.99965 12.1002 8.19965 11.8002L11.4996 6.6002C11.5996 6.4002 11.9996 6.4002 12.0996 6.6002L15.3996 11.8002C15.5996 12.1002 15.4996 12.4002 15.1996 12.4002Z" fill="white"/>
</svg>
