<svg width="33" height="33" viewBox="0 0 33 33" fill="none" xmlns="http://www.w3.org/2000/svg">
<path d="M15.9004 1.2998C15.9004 0.999805 16.1004 0.799805 16.4004 0.799805H17.9004C17.9004 1.1998 17.9004 1.6998 17.9004 2.0998C17.9004 2.5998 17.9004 2.9998 17.9004 3.4998H16.4004C16.1004 3.4998 15.9004 3.2998 15.9004 2.9998C15.9004 2.4998 15.9004 1.8998 15.9004 1.2998Z" fill="white"/>
<path d="M16 7.79961V6.09961C16 5.79961 16.2 5.59961 16.5 5.59961H17.9C17.9 5.99961 17.9 6.39961 17.9 6.89961C17.9 7.39961 17.9 7.79961 17.9 8.29961H16.4C16.2 8.29961 16 8.09961 16 7.79961Z" fill="white"/>
<path d="M1.40039 17.8999C1.10039 17.8999 0.900391 17.6999 0.900391 17.3999V15.8999C1.30039 15.8999 1.80039 15.8999 2.20039 15.8999C2.70039 15.8999 3.10039 15.8999 3.60039 15.8999V17.3999C3.60039 17.6999 3.40039 17.8999 3.10039 17.8999C2.60039 17.8999 2.00039 17.8999 1.40039 17.8999Z" fill="white"/>
<path d="M6.20117 15.8999H7.90118C8.20118 15.8999 8.40118 16.0999 8.40118 16.3999V17.2999C8.40118 17.5999 8.20118 17.7999 7.90118 17.7999H6.20117C5.90117 17.7999 5.70117 17.5999 5.70117 17.2999V16.3999C5.70117 16.0999 5.90117 15.8999 6.20117 15.8999Z" fill="white"/>
<path d="M28.2 16.3999V17.2999C28.2 17.5999 28 17.7999 27.7 17.7999H26C25.7 17.7999 25.5 17.5999 25.5 17.2999C25.5 16.9999 25.5 16.6999 25.5 16.3999C25.5 16.0999 25.7 15.8999 26 15.8999H27.7C28 15.8999 28.2 16.0999 28.2 16.3999Z" fill="white"/>
<path d="M32.9012 16.3999V17.2999C32.9012 17.5999 32.7012 17.7999 32.4012 17.7999H30.7012C30.4012 17.7999 30.2012 17.5999 30.2012 17.2999C30.2012 16.9999 30.2012 16.6999 30.2012 16.3999C30.2012 16.0999 30.4012 15.8999 30.7012 15.8999H32.4012C32.7012 15.8999 32.9012 16.0999 32.9012 16.3999Z" fill="white"/>
<path d="M17.4 28.0999H16.5C16.2 28.0999 16 27.8999 16 27.5999V25.8999C16 25.5999 16.2 25.3999 16.5 25.3999C16.8 25.3999 17.1 25.3999 17.4 25.3999C17.7 25.3999 17.9 25.5999 17.9 25.8999V27.5999C17.9 27.8999 17.7 28.0999 17.4 28.0999Z" fill="white"/>
<path d="M16 32.2996V30.5996C16 30.2996 16.2 30.0996 16.5 30.0996H17.4C17.7 30.0996 17.9 30.2996 17.9 30.5996V32.2996C17.9 32.5996 17.7 32.7996 17.4 32.7996H16.5C16.2 32.7996 16 32.5996 16 32.2996Z" fill="white"/>
<path d="M13.1004 25.0996V32.2996C13.1004 32.5996 12.9004 32.7996 12.6004 32.7996H11.6004C11.3004 32.7996 11.1004 32.5996 11.1004 32.2996V26.3996C11.1004 26.1996 11.0004 26.0996 10.9004 25.9996C9.60039 25.1996 8.60039 24.0996 7.70039 22.7996C7.60039 22.6996 7.50038 22.5996 7.30038 22.5996H1.40039C1.10039 22.5996 0.900391 22.3996 0.900391 22.0996V21.0996C0.900391 20.7996 1.10039 20.5996 1.40039 20.5996H8.60039C8.80039 20.5996 9.00039 20.6996 9.00039 20.8996C9.30039 21.4996 9.70039 22.0996 10.1004 22.5996C10.4004 22.8996 10.7004 23.1996 11.0004 23.4996C11.5004 23.8996 12.1004 24.2996 12.7004 24.5996C13.0004 24.7996 13.1004 24.8996 13.1004 25.0996Z" fill="white"/>
<path d="M32.9012 11.5999V12.5999C32.9012 12.8999 32.7012 13.0999 32.4012 13.0999H25.2012C25.0012 13.0999 24.8012 12.9999 24.8012 12.7999C24.5012 12.1999 24.1012 11.5999 23.6012 11.0999C23.3012 10.7999 23.0012 10.4999 22.7012 10.1999C22.2012 9.7999 21.6012 9.3999 21.0012 8.9999C20.8012 8.8999 20.7012 8.6999 20.7012 8.5999V1.3999C20.7012 1.0999 20.9012 0.899902 21.2012 0.899902H22.2012C22.5012 0.899902 22.7012 1.0999 22.7012 1.3999V7.2999C22.7012 7.4999 22.8012 7.5999 22.9012 7.6999C24.1012 8.4999 25.2012 9.5999 26.0012 10.7999C26.1012 10.8999 26.2012 10.9999 26.4012 10.9999H32.3012C32.7012 11.0999 32.9012 11.2999 32.9012 11.5999Z" fill="white"/>
<path d="M32.9008 21.1V22.1C32.9008 22.4 32.7008 22.6 32.4008 22.6H26.5008C26.3008 22.6 26.2008 22.7 26.1008 22.8C25.3008 24 24.2008 25.1 23.0008 25.9C22.9008 26 22.8008 26.1 22.8008 26.3V32.2C22.8008 32.5 22.6008 32.7 22.3008 32.7H21.3008C21.0008 32.7 20.8008 32.5 20.8008 32.2V25C20.8008 24.8 20.9008 24.6 21.1008 24.6C21.7008 24.3 22.3008 23.9 22.8008 23.4C23.1008 23.1 23.4008 22.8 23.7008 22.5C24.1008 22 24.5008 21.4 24.8008 20.8C24.9008 20.6 25.1008 20.5 25.2008 20.5H32.4008C32.7008 20.6 32.9008 20.9 32.9008 21.1Z" fill="white"/>
<path d="M13.1004 1.3999V8.5999C13.1004 8.7999 13.0004 8.9999 12.8004 8.9999C12.2004 9.2999 11.6004 9.6999 11.1004 10.0999C10.8004 10.3999 10.5004 10.6999 10.2004 10.9999C9.80039 11.4999 9.40039 12.0999 9.00039 12.6999C8.90039 12.8999 8.70039 12.9999 8.60039 12.9999H1.40039C1.10039 12.9999 0.900391 12.7999 0.900391 12.4999V11.4999C0.900391 11.1999 1.10039 10.9999 1.40039 10.9999H7.30038C7.50038 10.9999 7.60039 10.8999 7.70039 10.7999C8.50039 9.5999 9.60038 8.4999 10.8004 7.6999C10.9004 7.5999 11.0004 7.4999 11.0004 7.2999V1.3999C11.0004 1.0999 11.2004 0.899902 11.5004 0.899902H12.5004C12.9004 0.899902 13.1004 1.0999 13.1004 1.3999Z" fill="white"/>
<path d="M16.9012 12.5996C14.6012 12.5996 12.7012 14.4996 12.7012 16.7996C12.7012 19.0996 14.6012 20.9996 16.9012 20.9996C19.2012 20.9996 21.1012 19.0996 21.1012 16.7996C21.1012 14.4996 19.2012 12.5996 16.9012 12.5996ZM16.9012 18.9996C15.7012 18.9996 14.7012 17.9996 14.7012 16.7996C14.7012 15.5996 15.7012 14.5996 16.9012 14.5996C18.1012 14.5996 19.1012 15.5996 19.1012 16.7996C19.1012 18.0996 18.1012 18.9996 16.9012 18.9996Z" fill="white"/>
</svg>
