<svg width="31" height="26" viewBox="0 0 31 26" fill="none" xmlns="http://www.w3.org/2000/svg">
<path d="M3.30039 25.2H1.90039C1.30039 25.2 0.900391 24.8 0.900391 24.2V1.5C0.900391 0.9 1.30039 0.5 1.90039 0.5H3.30039V25.2Z" fill="white"/>
<path d="M28.3012 0.5H29.6012C30.2012 0.5 30.6012 0.9 30.6012 1.5V24.2C30.6012 24.8 30.2012 25.2 29.6012 25.2H28.2012V0.5H28.3012Z" fill="white"/>
<path d="M19.5 20.3998C19.5 20.4998 19.6 20.5998 19.7 20.5998H22.5C22.6 20.5998 22.7 20.4998 22.7 20.3998V12.2998H19.5V20.3998Z" fill="white"/>
<path d="M24.4008 12.5999H17.7008C17.4008 12.5999 17.2008 12.2999 17.4008 11.9999L20.7008 6.7999C20.8008 6.5999 21.2008 6.5999 21.3008 6.7999L24.6008 11.9999C24.9008 12.2999 24.7008 12.5999 24.4008 12.5999Z" fill="white"/>
<path d="M12.1004 6.8001C12.1004 6.7001 12.0004 6.6001 11.9004 6.6001H9.10039C9.00039 6.6001 8.90039 6.7001 8.90039 6.8001V14.9001H12.1004V6.8001Z" fill="white"/>
<path d="M7.19996 14.7002H13.9C14.2 14.7002 14.4 15.0002 14.2 15.3002L10.9 20.5002C10.8 20.7002 10.4 20.7002 10.3 20.5002L6.99997 15.3002C6.69997 15.0002 6.89996 14.7002 7.19996 14.7002Z" fill="white"/>
</svg>
