<svg width="20" height="24" viewBox="0 0 20 24" fill="none" xmlns="http://www.w3.org/2000/svg">
<path d="M19.2761 7.43962L15.228 1.12059C15.0305 0.824386 14.6356 0.824386 14.4381 1.12059L10.4887 7.43962C10.2912 7.73583 10.4887 8.13077 10.8836 8.13077H12.9571V14.5485L12.5621 14.3511C11.2786 13.5612 9.60007 12.9688 8.11905 12.87V10.8953C8.11905 10.5004 7.72411 10.3029 7.4279 10.5004L1.10887 14.5485C0.812668 14.746 0.812668 15.1409 1.10887 15.3384L7.4279 19.2878C7.72411 19.4853 8.11905 19.2878 8.11905 18.8929V16.622C10.6862 16.8194 12.9571 19.1891 12.9571 21.7562V23.4347C12.9571 23.5334 13.0558 23.6321 13.1545 23.6321H16.5115C16.6102 23.6321 16.709 23.5334 16.709 23.4347V8.03203H18.7824C19.2761 8.03203 19.4736 7.73583 19.2761 7.43962Z" fill="white"/>
</svg>
