<svg width="32" height="30" viewBox="0 0 32 30" fill="none" xmlns="http://www.w3.org/2000/svg">
<path d="M28.3367 12.0181C28.3367 12.0181 28.2508 9.87537 26.1753 9.65333C24.0867 9.45489 19.8147 9.62192 19.8147 9.62192C19.8147 9.62192 19.7564 8.94268 19.5049 8.55726C19.3092 8.29507 18.8182 8.45526 18.8182 8.45526L18.7497 9.58828L9.11573 9.59761C9.11573 9.59761 8.05305 9.50364 7.07818 9.64306C6.07959 9.76937 5.11652 9.60717 4.64346 10.2394C4.27236 10.7431 4.07388 13.9612 3.99829 15.2752C3.99593 15.3355 4.00786 15.6503 4.00315 15.7709C4.05796 16.8488 4.22462 19.4058 4.60545 19.8935C5.06577 20.5175 6.05367 20.3545 7.04283 20.4694C8.03199 20.5844 9.0887 20.521 9.0887 20.521L18.712 20.475L18.7644 21.6132C18.7644 21.6132 19.2673 21.7677 19.4345 21.5211C19.7036 21.146 19.7663 20.4719 19.7663 20.4719C19.7663 20.4719 24.0455 20.7402 26.1482 20.5767C28.2273 20.4001 28.3228 18.2652 28.3228 18.2652C28.3228 18.2652 28.4269 16.8437 28.4431 15.1888L28.4324 15.1521C28.4142 13.4474 28.3367 12.0181 28.3367 12.0181ZM8.52266 19.1916C7.35926 19.5042 6.63105 19.5333 6.54198 19.0219C6.4826 18.681 6.37518 15.8486 6.3144 14.6133L6.30372 14.5766C6.36391 13.3466 6.456 11.6103 6.53064 11.251C6.62302 10.7474 10.7969 12.1592 10.8112 12.4136C10.8125 12.6916 10.8011 14.8422 10.8118 14.8789L10.8178 15.0363C10.8154 15.0966 10.8041 17.2472 10.7816 17.5121C10.7591 17.777 10.3797 18.1837 9.83186 18.559C9.85558 18.5721 9.00058 19.055 8.52266 19.1916ZM22.0244 15.0945C22.0223 16.3875 21.8174 17.5992 21.8174 17.5992C21.8174 17.5992 21.347 19.4038 21.0007 19.5823C20.6307 19.7477 17.4934 18.477 17.4934 18.477L17.5306 15.0466L17.5223 14.9495L17.5226 11.5296C17.5226 11.5296 20.6593 10.3349 21.0282 10.5079C21.3971 10.6808 21.847 12.5008 21.847 12.5008C21.847 12.5008 22.0418 13.7176 22.0398 15.0106L22.0244 15.0945ZM26.5192 19.4567C26.1195 19.4516 25.8205 19.04 25.8157 18.5443C25.8108 18.0486 26.1535 17.6525 26.5294 17.6444C26.9291 17.6495 27.2281 18.0611 27.233 18.5568C27.2248 19.0761 26.9189 19.4618 26.5192 19.4567ZM26.5591 12.546C26.1594 12.5409 25.8474 12.1529 25.8425 11.6572C25.8376 11.1615 26.1566 10.7522 26.5563 10.7573C26.9559 10.7624 27.268 11.1504 27.2728 11.6461C27.2777 12.1418 26.9587 12.551 26.5591 12.546Z" fill="white"/>
</svg>
