<svg width="23" height="24" viewBox="0 0 23 24" fill="none" xmlns="http://www.w3.org/2000/svg">
<path d="M21.8622 21.8717C21.6594 21.8717 18.0097 22.2772 16.3877 22.3786C15.7794 22.3786 15.7794 22.3786 15.678 22.2772C15.5766 22.0744 15.7794 21.7703 15.8808 21.6689C15.9821 21.3648 16.1849 21.162 15.9821 20.8579C15.7794 20.5537 15.5766 20.5537 15.1711 20.5537C15.1711 20.5537 5.84414 21.5675 5.23586 21.6689C4.83034 21.7703 4.62758 21.973 4.72896 22.2772C4.72896 22.5813 5.0331 22.7841 5.33724 22.7841C5.43862 22.7841 13.2449 21.8717 13.2449 21.8717C13.549 21.8717 13.7518 21.7703 13.8532 22.0744C13.9545 22.2772 13.7518 22.4799 13.6504 22.6827C13.4476 23.0882 13.549 23.4937 13.9545 23.5951C14.1573 23.5951 14.3601 23.5951 14.5628 23.5951C16.2863 23.3924 21.1525 22.9868 21.8622 22.8855C22.2677 22.8855 22.4705 22.5813 22.3691 22.2772C22.4705 21.973 22.2677 21.8717 21.8622 21.8717Z" fill="white"/>
<path d="M2.80309 9.80733C3.00585 10.0101 3.30999 9.90871 3.51275 9.70595C3.61413 9.60457 3.61413 9.50319 3.71551 9.40181C4.62793 7.98249 5.43897 6.56317 6.25001 5.14385C6.35139 4.94109 6.45277 4.83971 6.55415 4.73833C6.55415 4.73833 6.65553 4.63695 6.85829 4.63695C7.16243 4.23143 7.36519 3.82591 7.56795 3.42039C6.65553 3.21763 5.84449 3.52177 5.33759 4.43419C4.52655 5.75213 3.71551 7.07007 2.90447 8.38801C2.80309 8.59077 2.60034 8.79353 2.49896 8.99629C2.39758 9.40181 2.49895 9.60457 2.80309 9.80733Z" fill="white"/>
<path d="M14.2581 6.46169C14.4608 5.95479 14.4608 5.85341 14.0553 5.54927L9.89873 3.11615C9.59459 2.91339 9.49321 2.81201 9.39183 2.81201C9.29045 2.81201 9.18907 2.91339 8.88493 3.31891C6.65457 7.06997 2.09247 14.5721 1.38281 15.7887L6.65457 18.9314C7.36423 17.7149 11.9263 10.3141 14.2581 6.46169Z" fill="white"/>
<path d="M14.6644 2.1023C14.2589 1.29126 13.5492 0.885742 12.5354 0.885742C11.623 0.885742 10.9133 1.39264 10.5078 2.20368L14.4616 4.53542C15.0699 3.72438 15.0699 2.91334 14.6644 2.1023Z" fill="white"/>
<path d="M1.17914 17.2075L0.875 21.871C0.875 22.1751 1.17914 22.3779 1.48328 22.2765L5.4371 19.8434L1.17914 17.2075Z" fill="white"/>
</svg>
