<svg width="20" height="19" viewBox="0 0 20 19" fill="none" xmlns="http://www.w3.org/2000/svg">
<path d="M13.9628 8.40069C14.5006 8.40069 14.9366 7.96471 14.9366 7.42691C14.9366 6.8891 14.5006 6.45313 13.9628 6.45313C13.425 6.45313 12.989 6.8891 12.989 7.42691C12.989 7.96471 13.425 8.40069 13.9628 8.40069Z" fill="white"/>
<path d="M18.8312 3.36899L16.3967 3.36899L16.3967 0.934533C16.3967 0.488216 16.0316 0.123047 15.5852 0.123047L12.3393 0.123047C11.893 0.123047 11.5278 0.488216 11.5278 0.934533L11.5278 3.36899L4.06214 3.36899C3.84304 3.36899 3.64017 3.45014 3.48599 3.60432L0.240045 6.85027C-0.0764343 7.16674 -0.0764343 7.6861 0.240045 8.00257L3.48599 11.2485C3.64017 11.4027 3.84304 11.4838 4.06214 11.4838L11.5278 11.4838L11.5278 17.9676C11.5278 18.138 11.6658 18.276 11.8362 18.276L12.8424 18.276C13.0128 18.276 13.1508 18.138 13.1508 17.9676L13.1508 11.4838L14.7738 11.4838L14.7738 17.9676C14.7738 18.138 14.9117 18.276 15.0821 18.276L16.0884 18.276C16.2588 18.276 16.3967 18.138 16.3967 17.9676L16.3967 11.4838L18.8312 11.4838C19.2775 11.4838 19.6427 11.1187 19.6427 10.6724L19.6427 4.18048C19.6427 3.73416 19.2775 3.36899 18.8312 3.36899ZM13.1508 1.74602L14.7738 1.74602L14.7738 3.36899L13.1508 3.36899L13.1508 1.74602ZM18.0197 9.86088L4.39485 9.86088L1.9604 7.42642L4.39485 4.99196L18.0197 4.99196L18.0197 9.86088Z" fill="white"/>
</svg>
