<svg width="12" height="25" viewBox="0 0 12 25" fill="none" xmlns="http://www.w3.org/2000/svg">
<path d="M11.4401 13.1943L9.03042 10.5937C8.87662 10.4423 8.74845 10.0888 8.74845 9.8868L8.67154 7.18524V7.1095C8.67154 6.68028 8.3383 6.35205 7.90251 6.35205H5.51852H4.59568C4.21117 6.35205 3.80102 6.60453 3.62158 6.95801L0.468552 13.5478C0.391649 13.7245 0.366015 13.9265 0.442918 14.1285C0.519821 14.3305 0.647993 14.4567 0.853068 14.5577L1.31449 14.7597C1.41702 14.8102 1.51956 14.8354 1.6221 14.8354C1.92971 14.8354 2.21169 14.6587 2.33986 14.4062L3.82665 11.4774V14.4062C3.82665 14.4315 3.80102 14.4315 3.80102 14.4567L1.28885 22.1827C1.18631 22.5109 1.21195 22.8391 1.39139 23.1421C1.57083 23.4451 1.82717 23.6471 2.16042 23.7228L2.33986 23.7733C2.4424 23.7986 2.57057 23.8238 2.67311 23.8238C3.2627 23.8238 3.77538 23.4451 3.95482 22.9149L6.28755 15.6686L7.10785 17.6632C7.31292 18.143 7.518 19.0014 7.5949 19.5316L8.00505 23.2178C8.05632 23.7986 8.54337 24.2278 9.13296 24.2278C9.2355 24.2278 9.33804 24.2278 9.41494 24.2025L9.59438 24.152C10.2609 24.0005 10.7479 23.3188 10.6454 22.6371L10.0558 18.143C9.9789 17.5622 9.72255 16.6786 9.49184 16.1483L8.69718 14.3557C8.69718 14.3305 8.67154 14.3052 8.67154 14.28V13.0681L10.1071 14.5325C10.2609 14.684 10.4403 14.7597 10.6454 14.7597C10.8505 14.7597 11.0555 14.684 11.1837 14.5325L11.4401 14.2547C11.722 13.977 11.722 13.4973 11.4401 13.1943Z" fill="white"/>
<path d="M6.44234 5.67055C7.85223 5.67055 9.00578 4.53438 9.00578 3.14573C9.00578 1.75708 7.85223 0.620911 6.44234 0.620911C5.03245 0.620911 3.87891 1.75708 3.87891 3.14573C3.87891 4.53438 5.03245 5.67055 6.44234 5.67055Z" fill="white"/>
</svg>
