<svg width="20" height="25" viewBox="0 0 20 25" fill="none" xmlns="http://www.w3.org/2000/svg">
<path d="M15.6362 0.898926H4.98726C4.79539 0.898926 4.60352 1.0908 4.60352 1.28267V24.2115C4.60352 24.4034 4.79539 24.5953 4.98726 24.5953H15.6362C15.8281 24.5953 16.02 24.4034 16.02 24.2115V1.28267C16.02 1.0908 15.8281 0.898926 15.6362 0.898926ZM10.8394 21.6213C10.8394 22.005 10.5516 22.1969 10.1678 22.1969C9.7841 22.1969 9.59223 21.9091 9.59223 21.6213V19.6066C9.59223 19.2228 9.88003 18.935 10.1678 18.935C10.5516 18.935 10.8394 19.2228 10.8394 19.6066V21.6213ZM10.8394 16.3447C10.8394 16.7285 10.5516 16.9204 10.1678 16.9204C9.7841 16.9204 9.59223 16.6325 9.59223 16.3447V14.3301C9.59223 13.9463 9.88003 13.6585 10.1678 13.6585C10.5516 13.6585 10.8394 13.9463 10.8394 14.3301V16.3447ZM10.8394 10.9723C10.8394 11.356 10.5516 11.6438 10.1678 11.6438C9.7841 11.6438 9.59223 11.356 9.59223 10.9723V8.95761C9.59223 8.57386 9.88003 8.28605 10.1678 8.28605C10.5516 8.28605 10.8394 8.57386 10.8394 8.95761V10.9723ZM10.8394 5.69576C10.8394 6.07951 10.5516 6.36732 10.1678 6.36732C9.88003 6.27138 9.59223 5.98357 9.59223 5.69576V3.58515C9.59223 3.20141 9.88003 3.00953 10.1678 3.00953C10.5516 3.00953 10.8394 3.29734 10.8394 3.58515V5.69576Z" fill="white"/>
<path d="M3.16381 24.5953H1.8207C1.24507 24.5953 0.861328 24.2115 0.861328 23.6359V1.85829C0.861328 1.28267 1.24507 0.898926 1.8207 0.898926H3.16381V24.5953Z" fill="white"/>
<path d="M17.459 0.898926H18.8021C19.3777 0.898926 19.7615 1.28267 19.7615 1.85829V23.6359C19.7615 24.2115 19.3777 24.5953 18.8021 24.5953H17.459V0.898926Z" fill="white"/>
</svg>
