<svg width="12" height="25" viewBox="0 0 12 25" fill="none" xmlns="http://www.w3.org/2000/svg">
<path d="M8.46299 0.898438H3.4503C1.53636 0.898438 0.078125 2.35668 0.078125 4.17947V21.2226C0.078125 23.0454 1.53636 24.5948 3.4503 24.5948H8.46299C10.2858 24.5948 11.744 23.1366 11.744 21.2226V4.17947C11.744 2.35668 10.2858 0.898438 8.46299 0.898438ZM5.91108 3.45035C7.36932 3.45035 8.55413 4.63517 8.55413 6.09341C8.55413 7.55165 7.36932 8.73647 5.91108 8.73647C4.45284 8.73647 3.26802 7.55165 3.26802 6.09341C3.26802 4.63517 4.45284 3.45035 5.91108 3.45035ZM5.91108 10.1036C7.36932 10.1036 8.55413 11.2884 8.55413 12.7466C8.55413 14.2049 7.36932 15.3897 5.91108 15.3897C4.45284 15.3897 3.26802 14.2049 3.26802 12.7466C3.26802 11.2884 4.45284 10.1036 5.91108 10.1036ZM5.91108 22.4986C4.17942 22.4986 2.81232 21.1315 2.81232 19.3998C2.81232 17.6682 4.17942 16.3011 5.91108 16.3011C7.64274 16.3011 9.00983 17.6682 9.00983 19.3998C9.00983 21.1315 7.64274 22.4986 5.91108 22.4986Z" fill="white"/>
<path d="M7.91641 19.4001C7.91641 20.4938 7.00501 21.4052 5.91133 21.4052C4.81765 21.4052 3.90625 20.4938 3.90625 19.4001C3.90625 18.3064 4.81765 17.395 5.91133 17.395C7.00501 17.395 7.91641 18.3064 7.91641 19.4001Z" fill="white"/>
</svg>
