<svg width="63" height="79" viewBox="0 0 63 79" fill="none" xmlns="http://www.w3.org/2000/svg">
<path d="M62.2623 72.7111C59.3002 70.6377 59.004 69.7491 58.7078 65.8984C58.7078 64.4174 57.8192 63.5288 57.2268 62.9364C56.6344 62.6402 56.3382 62.0478 55.7458 61.7515C54.5609 60.5667 53.0799 59.6781 51.8951 58.4933C50.4141 57.0123 49.5255 55.2351 49.5255 52.8654C49.5255 51.3844 49.2293 50.1996 48.9331 49.311C48.6369 48.7185 48.3407 48.4223 48.0444 47.8299C48.6369 47.5337 49.2293 47.2375 49.5255 46.6451C50.7103 45.4603 50.7103 43.9793 50.4141 42.7945C50.4141 42.7945 50.1179 41.9058 49.8217 42.4982C49.2293 43.3869 47.7482 45.4603 45.3786 45.1641H44.49C43.8976 44.8679 43.009 44.5717 42.1203 44.2755C37.9735 43.3869 33.5304 42.202 30.5684 41.6096C25.8291 40.4248 22.5708 36.278 22.8671 31.8349C22.8671 29.7614 22.8671 27.688 22.8671 25.6146C22.8671 25.0222 22.8671 24.726 22.8671 24.1336C24.3481 23.8374 25.2367 22.9487 25.8291 21.7639L26.4215 20.5791H22.5708V20.2829C22.2746 17.9133 22.2746 16.136 23.4595 14.3588C24.0519 12.5816 24.9405 11.1006 26.4215 9.61954C27.0139 9.02713 27.3101 8.73092 27.9025 8.13851C28.7911 7.2499 28.7911 6.65749 27.9025 5.76888C26.7177 4.28785 25.2367 3.10304 24.0519 1.62201C23.4595 1.32581 23.1633 1.0296 22.8671 0.733398C21.9784 1.32581 21.386 1.91822 20.7936 2.51063C22.2746 3.99165 23.7557 5.47267 25.2367 6.9537C24.3481 7.5461 23.7557 8.13851 23.1633 8.73092L19.0164 4.88026L16.6468 6.65749C18.424 8.13851 19.905 9.61954 21.386 11.3968C20.7936 12.5816 20.2012 13.7664 19.6088 14.9512C17.8316 14.9512 16.3506 14.9512 14.8695 14.9512C13.9809 13.174 13.3885 11.693 12.4999 10.2119C11.6113 10.8044 10.7227 11.1006 10.1303 11.3968L11.9075 14.655C11.0189 14.655 10.1303 14.655 9.53785 14.655C8.64923 13.174 8.05682 11.693 7.16821 10.2119L5.09478 11.3968C5.98339 12.8778 6.5758 14.3588 7.16821 15.8398C7.76062 17.3209 8.64923 17.6171 10.1303 17.6171C12.7961 17.6171 14.8695 17.6171 17.5354 17.6171C18.1278 17.6171 19.0164 17.9133 19.0164 17.9133C19.0164 18.5057 19.3126 20.2829 19.3126 21.1715L8.94544 22.3563L9.24164 23.5412C9.83405 25.3184 11.3151 26.207 12.2037 26.5032C12.7961 26.5032 13.0923 26.7994 13.3885 26.7994C13.6847 26.7994 14.2771 26.7994 14.5733 27.0956C14.8695 27.0956 15.1657 27.3918 15.1657 27.3918C15.1657 27.3918 15.1657 27.3918 15.1657 27.9842C15.1657 28.2804 15.1657 28.8728 15.1657 29.169C15.1657 29.7615 15.1657 30.3539 15.1657 30.9463C15.4619 34.2045 14.8695 37.1666 13.6847 40.1286C13.3885 40.721 13.0923 42.202 12.7961 42.7945C12.7961 43.3869 12.4999 43.3869 12.4999 43.3869C12.2037 43.3869 8.05682 42.202 7.76062 41.9058C6.87201 41.6096 6.2796 41.3134 5.09478 41.3134C4.79857 41.3134 4.50237 41.3134 4.20616 41.3134C3.02135 41.3134 1.83653 41.9058 1.24412 42.7945C0.651709 43.6831 0.355504 44.8679 0.947913 46.3489C1.24412 47.2375 1.54032 48.1261 1.83653 49.311C2.13273 50.4958 2.72514 51.6806 3.02135 52.8654C3.61375 55.5313 5.09478 56.7161 6.872 57.9009C7.46441 58.4933 9.83405 60.5667 9.83405 60.5667L10.4265 58.7895C11.0189 56.7161 11.3151 56.1237 9.53785 54.9388C8.94544 54.3464 7.16821 54.0502 6.872 53.4578C6.5758 51.9768 5.98339 49.0148 5.98339 47.5337C5.98339 46.9413 5.98339 46.9413 5.98339 46.9413C5.98339 46.9413 6.2796 46.9413 6.5758 46.9413C7.46441 47.2375 9.24164 47.8299 10.4265 48.4223C11.0189 48.7185 11.9075 49.0147 12.4999 49.311C13.3885 49.6072 13.9809 50.1996 14.5733 50.792C17.5354 54.3464 21.386 56.4199 26.1253 56.4199C27.3101 56.4199 28.1987 56.4199 29.3836 56.4199C30.5684 56.4199 31.457 56.4199 32.6418 56.4199C34.419 56.4199 37.9735 56.4199 39.1583 56.4199L40.0469 57.9009C42.1204 61.4553 45.3786 63.825 49.5255 65.306L50.1179 65.6022C51.0065 65.8984 52.1913 66.4908 53.0799 66.787C53.6723 67.0832 55.1534 67.0832 55.1534 67.9718C55.7458 71.2301 56.3382 72.7111 59.3002 75.377C59.5964 75.6732 60.7812 77.4504 60.7812 77.4504L62.5585 78.339V73.3035L62.2623 72.7111Z" fill="white"/>
</svg>
