<svg width="38" height="37" viewBox="0 0 38 37" fill="none" xmlns="http://www.w3.org/2000/svg"><path d="M29 29.8s.1-1.4-.3-1.7c-.4-.3-.8-.9-1-1.5-.3-.6-.8-1.5-2.6-2.1-1.8-.7-6-2-10.6-2.9 0 0-7.1-4.9-12.6-6.3L0 15v2c1.3.2 3 .7 5 1.5 4.2 1.8 7.4 5 7.4 5s.1.7-1.4.7H0v9.4l12.2-.1-.1-1a6 6 0 1 1 12 .8c1.2 0 3.8-.1 4.2-.3.5-.3.7-.9.7-.9l-.3-.3v-1.9h.3Z" fill="currentColor"/><path d="M22.6 32.5a4.5 4.5 0 1 0-9 0 4.5 4.5 0 0 0 9 0ZM18 35c-1.3 0-2.3-1-2.3-2.4 0-1.3 1-2.3 2.3-2.3 1.3 0 2.4 1 2.4 2.3 0 1.3-1.1 2.4-2.4 2.4ZM10.4 25.3c-.8 0-1.5-.1-2-.4-.3-.2-.6-.7-.7-1.2 0-.3 0-.7.4-1 .2-.3.6-.5 1.2-.5.8 0 1.8.3 2.5.6.2 0 .3.1.4.3.2.4.5 1 .3 1.6 0 .3-1 .6-2 .6Z" fill="currentColor"/><path d="m33.4 22 .3-.6c.6-1 1-2 1-3.2.1-.6 0-1.3-.2-2-.3-.7-.6-1.5-1.1-2.2l-.7-.5c-.6 2.3-1.6 4.3-3.4 6V19c0-.8-.3-1.5-.6-2.2a23 23 0 0 0-1.4-2.3c-.5-.8-.8-1.7-1-2.6V8.6c-1.1 1.8-2.2 3.6-2.4 5.8-.3-.4-.5-.8-1-1l.2.6c.1.9 0 1.7-.5 2.5-.1.4-.3.7-.6 1-.4.6-.5 1.3-.3 2 .2.9.6 1.6 1.1 2.4h-.1c-1.4-.8-2.7-1.7-3.7-3-.5-.8-.9-1.5-1-2.4 0-.8.1-1.6.5-2.3.3-.7.7-1.4.7-2.1v-1.7c.3 0 .4.1.8.7l.7.9v-.2c.5-2.7 1.7-4.9 3.3-6.9 1.6-1.8 3.3-3.3 5.2-4.8l.2-.1v.2a6 6 0 0 0-.8 2.8c-.1 1.2 0 2.4.5 3.5.6 2 1 3.9 1 5.9l-.2 1v.4l.5-.7c.9-1.5 1.3-3.1 1.5-4.8l.1-2.5c.3 0 .5.2.8.4.7.7 1.2 1.5 1.7 2.3.5 1 .9 2 1 3l.1.3c.3-.6.7-1 1.2-1.5l-.1.7a3 3 0 0 0 .2 1.9c.3.6.7 1.2.9 1.9.4 1.6.3 3.2-.7 4.7a6 6 0 0 1-2.3 1.9l-1.3.6h-.1Z" fill="currentColor"/></svg>
