<svg width="99" height="82" viewBox="0 0 99 82" fill="none" xmlns="http://www.w3.org/2000/svg">
<path fill-rule="evenodd" clip-rule="evenodd" d="M49.6106 36.2627C45.8313 36.2627 42.7676 39.3264 42.7676 43.1057C42.7676 46.885 45.8313 49.9487 49.6106 49.9487C53.3899 49.9487 56.4536 46.885 56.4536 43.1057C56.4536 39.3264 53.3899 36.2627 49.6106 36.2627ZM42.168 43.1057C42.168 38.9953 45.5002 35.6631 49.6106 35.6631C53.721 35.6631 57.0532 38.9953 57.0532 43.1057C57.0532 47.2161 53.721 50.5483 49.6106 50.5483C45.5002 50.5483 42.168 47.2161 42.168 43.1057Z" fill="#444B8C"/>
<path fill-rule="evenodd" clip-rule="evenodd" d="M47.7788 24.5052C48.3816 24.4465 48.9929 24.4165 49.611 24.4165C50.2291 24.4165 50.8403 24.4465 51.4432 24.5052L51.3916 25.0363C50.8058 24.9793 50.2119 24.9501 49.611 24.9501C49.0101 24.9501 48.4162 24.9793 47.8304 25.0363L47.7788 24.5052ZM55.0379 25.2167C56.22 25.5748 57.3525 26.0469 58.4227 26.6201L58.1708 27.0905C57.1312 26.5337 56.0312 26.0752 54.8832 25.7274L55.0379 25.2167ZM40.7993 26.6201C41.8695 26.0469 43.002 25.5748 44.1841 25.2167L44.3388 25.7274C43.1908 26.0752 42.0908 26.5337 41.0512 27.0905L40.7993 26.6201ZM35.1637 31.2491C35.9407 30.3034 36.8087 29.4353 37.7545 28.6583L38.0932 29.0706C37.1743 29.8255 36.3309 30.669 35.576 31.5878L35.1637 31.2491ZM61.4675 28.6583C62.4132 29.4353 63.2813 30.3034 64.0583 31.2491L63.646 31.5878C62.8911 30.669 62.0476 29.8255 61.1288 29.0706L61.4675 28.6583ZM31.7221 37.6787C32.0802 36.4966 32.5523 35.3641 33.1255 34.2939L33.5959 34.5458C33.0391 35.5854 32.5806 36.6854 32.2327 37.8334L31.7221 37.6787ZM66.0965 34.2939C66.6697 35.3641 67.1418 36.4966 67.4999 37.6787L66.9892 37.8334C66.6414 36.6854 66.1829 35.5854 65.6261 34.5458L66.0965 34.2939ZM30.9219 43.1056C30.9219 42.4875 30.9519 41.8763 31.0106 41.2734L31.5417 41.325C31.4847 41.9108 31.4555 42.5047 31.4555 43.1056C31.4555 43.7065 31.4847 44.3004 31.5417 44.8862L31.0106 44.9378C30.9519 44.335 30.9219 43.7237 30.9219 43.1056ZM68.2114 41.2734C68.2701 41.8763 68.3001 42.4875 68.3001 43.1056C68.3001 43.7237 68.2701 44.335 68.2114 44.9378L67.6803 44.8862C67.7373 44.3004 67.7665 43.7065 67.7665 43.1056C67.7665 42.5047 67.7373 41.9108 67.6803 41.325L68.2114 41.2734ZM67.4999 48.5325C67.1418 49.7146 66.6697 50.8471 66.0965 51.9173L65.6261 51.6654C66.1829 50.6258 66.6414 49.5258 66.9892 48.3778L67.4999 48.5325ZM33.1255 51.9173C32.5523 50.8471 32.0802 49.7146 31.7221 48.5325L32.2327 48.3778C32.5806 49.5258 33.0391 50.6258 33.5959 51.6654L33.1255 51.9173ZM64.0583 54.9621C63.2813 55.9079 62.4132 56.7759 61.4675 57.5529L61.1288 57.1406C62.0476 56.3857 62.8911 55.5423 63.646 54.6234L64.0583 54.9621ZM37.7545 57.5529C36.8087 56.7759 35.9407 55.9079 35.1637 54.9621L35.576 54.6234C36.3309 55.5423 37.1743 56.3857 38.0932 57.1406L37.7545 57.5529ZM58.4227 59.5911C57.3525 60.1643 56.22 60.6364 55.0379 60.9945L54.8832 60.4838C56.0312 60.136 57.1312 59.6775 58.1708 59.1207L58.4227 59.5911ZM44.1841 60.9945C43.002 60.6364 41.8695 60.1643 40.7993 59.5911L41.0512 59.1207C42.0908 59.6775 43.1908 60.136 44.3388 60.4838L44.1841 60.9945ZM49.611 61.7947C48.9929 61.7947 48.3816 61.7647 47.7788 61.706L47.8304 61.1749C48.4162 61.2319 49.0101 61.2611 49.611 61.2611C50.2119 61.2611 50.8058 61.2319 51.3916 61.1749L51.4432 61.706C50.8403 61.7647 50.2291 61.7947 49.611 61.7947Z" fill="#444B8C"/>
<path fill-rule="evenodd" clip-rule="evenodd" d="M49.4219 3.10051V1.5332H49.9555V3.10051H49.4219ZM49.4219 9.36975V6.23513H49.9555V9.36975H49.4219ZM49.4219 14.0717V12.5044H49.9555V14.0717H49.4219Z" fill="#444B8C"/>
<path fill-rule="evenodd" clip-rule="evenodd" d="M2.3867 27.9562L0.607422 27.3781L0.77231 26.8706L2.55159 27.4487L2.3867 27.9562ZM9.50382 30.2686L5.94526 29.1124L6.11015 28.6049L9.66871 29.7611L9.50382 30.2686ZM16.6209 32.581L13.0624 31.4248L13.2273 30.9173L16.7858 32.0736L16.6209 32.581ZM21.9588 34.3154L20.1795 33.7373L20.3444 33.2298L22.1237 33.8079L21.9588 34.3154Z" fill="#444B8C"/>
<path fill-rule="evenodd" clip-rule="evenodd" d="M32.7149 66.6954L31.411 68.4908L30.9792 68.1772L32.2832 66.3818L32.7149 66.6954ZM28.8031 72.0815L26.1952 75.6722L25.7634 75.3586L28.3713 71.7679L28.8031 72.0815ZM23.5873 79.2629L22.2833 81.0582L21.8516 80.7446L23.1555 78.9493L23.5873 79.2629Z" fill="#444B8C"/>
<path fill-rule="evenodd" clip-rule="evenodd" d="M67.2886 67.9902L66.4043 66.7719L66.8361 66.4585L67.7204 67.6768L67.2886 67.9902ZM70.8257 72.8635L69.0572 70.4269L69.489 70.1134L71.2576 72.55L70.8257 72.8635ZM74.3629 77.7367L72.5943 75.3001L73.0262 74.9866L74.7947 77.4232L74.3629 77.7367ZM77.0158 81.3916L76.1315 80.1733L76.5633 79.8598L77.4476 81.0781L77.0158 81.3916Z" fill="#444B8C"/>
<path fill-rule="evenodd" clip-rule="evenodd" d="M98.7418 27.4806L96.9561 28.0609L96.7912 27.5534L98.5769 26.9731L98.7418 27.4806ZM93.3847 29.2214L89.8133 30.3819L89.6484 29.8744L93.2198 28.7139L93.3847 29.2214ZM86.2419 31.5424L82.6705 32.7029L82.5056 32.1954L86.077 31.0349L86.2419 31.5424ZM79.099 33.8633L77.3133 34.4436L77.1484 33.9361L78.9341 33.3559L79.099 33.8633Z" fill="#444B8C"/>
<path fill-rule="evenodd" clip-rule="evenodd" d="M39.5234 0.608398V16.1567L39.352 16.2223C34.5657 18.0554 30.3907 21.1104 27.2343 25.0305L27.1189 25.1737L0.222656 16.4324L0.387586 15.925L26.9346 24.5527C30.0981 20.6746 34.2452 17.6413 38.9898 15.7903V0.608398H39.5234Z" fill="#444B8C"/>
<path fill-rule="evenodd" clip-rule="evenodd" d="M0.772227 37.8413L19.6827 43.9821L20.8853 44.3729L20.8945 44.5565C21.149 49.6472 22.7782 54.5606 25.5279 58.7871L25.6276 58.9402L25.0583 59.7308L25.0576 59.7317L9.5644 81.0574L9.1327 80.7438L24.6253 59.419L24.6259 59.4181L24.9814 58.9244C22.2741 54.7065 20.6568 49.8266 20.3713 44.767L19.5179 44.4896L0.607422 38.3488L0.772227 37.8413Z" fill="#444B8C"/>
<path fill-rule="evenodd" clip-rule="evenodd" d="M41.9516 70.8057L42.1284 70.8539C47.0655 72.2027 52.2333 72.1523 57.0971 70.8535L57.2749 70.8061L57.8441 71.5967L57.8449 71.5978L64.4988 80.7436L64.0673 81.0575L57.4126 71.9106L57.4118 71.9095L57.0566 71.4161C52.2156 72.677 47.0828 72.7259 42.1649 71.4165L41.6317 72.1415L41.6307 72.1429L35.1312 81.1086L34.6992 80.7954L41.2008 71.8268L41.9516 70.8057Z" fill="#444B8C"/>
<path fill-rule="evenodd" clip-rule="evenodd" d="M79.2831 44.0587L98.8359 37.7124L99.0007 38.2199L79.4498 44.5656L78.8513 44.7651C78.5669 49.7501 76.9987 54.6541 74.2427 58.9228L74.7766 59.6489L90.1414 80.7947L89.7097 81.1084L74.3458 59.9638L74.3449 59.9626L73.5938 58.941L73.6952 58.786C76.4952 54.5096 78.0736 49.571 78.3282 44.5559L78.3374 44.3739L79.2831 44.0587Z" fill="#444B8C"/>
<path fill-rule="evenodd" clip-rule="evenodd" d="M59.6992 0.608398H60.2328V15.8161C64.9031 17.6414 69.0747 20.6263 72.2883 24.5783L98.8351 15.9507L99 16.4581L72.1034 25.1995L71.9881 25.0558C68.7812 21.0599 64.581 18.0558 59.8704 16.2479L59.6992 16.1822V0.608398Z" fill="#444B8C"/>
</svg>
