<svg width="99" height="82" viewBox="0 0 99 82" fill="none" xmlns="http://www.w3.org/2000/svg">
<path fill-rule="evenodd" clip-rule="evenodd" d="M49.782 36.283C45.4153 36.283 41.8753 39.823 41.8753 44.1898C41.8753 48.5565 45.4153 52.0965 49.782 52.0965C54.1488 52.0965 57.6888 48.5565 57.6888 44.1898C57.6888 39.823 54.1488 36.283 49.782 36.283ZM41.3613 44.1898C41.3613 39.5391 45.1314 35.769 49.782 35.769C54.4327 35.769 58.2028 39.5391 58.2028 44.1898C58.2028 48.8404 54.4327 52.6105 49.782 52.6105C45.1314 52.6105 41.3613 48.8404 41.3613 44.1898Z" fill="#444B8C"/>
<path fill-rule="evenodd" clip-rule="evenodd" d="M48.0174 26.2749C48.5981 26.2184 49.1868 26.1895 49.7821 26.1895C50.3775 26.1895 50.9662 26.2184 51.5469 26.2749L51.4971 26.7865C50.933 26.7316 50.3609 26.7035 49.7821 26.7035C49.2034 26.7035 48.6313 26.7316 48.0672 26.7865L48.0174 26.2749ZM41.2949 28.3119C42.3257 27.7598 43.4165 27.3051 44.5551 26.9602L44.7041 27.4521C43.5983 27.7871 42.5389 28.2287 41.5376 28.765L41.2949 28.3119ZM55.0092 26.9602C56.1478 27.3051 57.2386 27.7598 58.2694 28.3119L58.0267 28.765C57.0254 28.2287 55.9659 27.7871 54.8601 27.4521L55.0092 26.9602ZM35.8668 32.7704C36.6152 31.8595 37.4513 31.0234 38.3622 30.275L38.6885 30.6722C37.8035 31.3993 36.9911 32.2117 36.264 33.0967L35.8668 32.7704ZM61.2021 30.275C62.113 31.0234 62.949 31.8595 63.6974 32.7704L63.3003 33.0967C62.5731 32.2117 61.7608 31.3993 60.8758 30.6722L61.2021 30.275ZM32.552 38.9633C32.8969 37.8247 33.3516 36.7339 33.9037 35.7031L34.3568 35.9458C33.8205 36.9471 33.3789 38.0065 33.0439 39.1123L32.552 38.9633ZM65.6606 35.7031C66.2127 36.7339 66.6674 37.8247 67.0123 38.9633L66.5204 39.1123C66.1854 38.0066 65.7437 36.9471 65.2075 35.9458L65.6606 35.7031ZM31.7812 44.1903C31.7812 43.595 31.8102 43.0063 31.8667 42.4256L32.3783 42.4754C32.3234 43.0395 32.2953 43.6116 32.2953 44.1903C32.2953 44.7691 32.3234 45.3412 32.3783 45.9053L31.8667 45.9551C31.8102 45.3744 31.7812 44.7857 31.7812 44.1903ZM67.6976 42.4256C67.7541 43.0063 67.783 43.595 67.783 44.1903C67.783 44.7857 67.7541 45.3744 67.6976 45.9551L67.186 45.9053C67.2409 45.3412 67.269 44.7691 67.269 44.1903C67.269 43.6116 67.2409 43.0395 67.186 42.4754L67.6976 42.4256ZM33.9037 52.6776C33.3516 51.6468 32.8969 50.556 32.552 49.4174L33.0439 49.2683C33.3789 50.3741 33.8205 51.4336 34.3568 52.4349L33.9037 52.6776ZM67.0123 49.4174C66.6674 50.556 66.2127 51.6468 65.6606 52.6776L65.2075 52.4349C65.7437 51.4336 66.1854 50.3741 66.5204 49.2683L67.0123 49.4174ZM38.3622 58.1056C37.4513 57.3572 36.6152 56.5212 35.8668 55.6103L36.264 55.284C36.9911 56.169 37.8035 56.9813 38.6885 57.7085L38.3622 58.1056ZM63.6974 55.6103C62.949 56.5212 62.113 57.3572 61.2021 58.1056L60.8758 57.7085C61.7608 56.9813 62.5731 56.169 63.3003 55.284L63.6974 55.6103ZM44.5551 61.4205C43.4165 61.0756 42.3257 60.6209 41.2949 60.0687L41.5376 59.6156C42.5389 60.1519 43.5984 60.5936 44.7041 60.9286L44.5551 61.4205ZM58.2694 60.0687C57.2386 60.6209 56.1478 61.0756 55.0092 61.4205L54.8601 60.9286C55.9659 60.5936 57.0254 60.1519 58.0267 59.6156L58.2694 60.0687ZM49.7821 62.1912C49.1868 62.1912 48.5981 62.1623 48.0174 62.1058L48.0672 61.5942C48.6313 61.6491 49.2034 61.6772 49.7821 61.6772C50.3609 61.6772 50.933 61.6491 51.4971 61.5942L51.5469 62.1058C50.9662 62.1623 50.3775 62.1912 49.7821 62.1912Z" fill="#444B8C"/>
<path fill-rule="evenodd" clip-rule="evenodd" d="M34.2534 20.643V0.589844H34.7674V20.9178L34.653 20.9941C33.8859 21.5055 33.1445 22.0424 32.4287 22.6048L32.3212 22.6893L0.0253906 12.2688L0.183226 11.7796L32.219 22.1162C32.8761 21.604 33.5543 21.113 34.2534 20.643Z" fill="#444B8C"/>
<path fill-rule="evenodd" clip-rule="evenodd" d="M49.5254 17.3036V0.589844H50.0394V17.3036H49.5254Z" fill="#444B8C"/>
<path fill-rule="evenodd" clip-rule="evenodd" d="M41.9863 3.33305V1.4917H42.4361V3.33305H41.9863ZM41.9863 10.6984V7.01574H42.4361V10.6984H41.9863ZM41.9863 16.2225V14.3811H42.4361V16.2225H41.9863Z" fill="#444B8C"/>
<path fill-rule="evenodd" clip-rule="evenodd" d="M64.8223 0.589844H65.3363V20.6432C65.4907 20.7474 65.6415 20.8514 65.791 20.9545L65.7917 20.955C65.9787 21.0839 66.1638 21.2116 66.355 21.339L66.3598 21.3422L66.3644 21.3456C66.7157 21.6032 67.0455 21.8606 67.3705 22.1157L98.5556 11.9087L98.7155 12.3972L67.2691 22.6897L67.161 22.6048C66.8015 22.3223 66.4456 22.0427 66.0651 21.7635C65.8719 21.6347 65.6854 21.506 65.5007 21.3786L65.4999 21.3781C65.313 21.2492 65.1279 21.1216 64.9367 20.9941L64.8223 20.9178V0.589844Z" fill="#444B8C"/>
<path fill-rule="evenodd" clip-rule="evenodd" d="M57.1816 3.33305V1.4917H57.6314V3.33305H57.1816ZM57.1816 10.6984V7.01574H57.6314V10.6984H57.1816ZM57.1816 16.2225V14.3811H57.6314V16.2225H57.1816Z" fill="#444B8C"/>
<path fill-rule="evenodd" clip-rule="evenodd" d="M24.1306 36.1157L0 28.2868L0.158624 27.7979L24.2893 35.6268L24.1306 36.1157Z" fill="#444B8C"/>
<path fill-rule="evenodd" clip-rule="evenodd" d="M1.33247 36.6614L0.0351562 36.2397L0.174184 35.812L1.4715 36.2337L1.33247 36.6614ZM6.52171 38.3482L3.92709 37.5048L4.06612 37.0771L6.66074 37.9205L6.52171 38.3482ZM11.711 40.0351L9.11634 39.1917L9.25537 38.764L11.85 39.6074L11.711 40.0351ZM16.9002 41.7219L14.3056 40.8785L14.4446 40.4508L17.0392 41.2942L16.9002 41.7219ZM20.7921 42.987L19.4948 42.5653L19.6339 42.1376L20.9312 42.5593L20.7921 42.987Z" fill="#444B8C"/>
<path fill-rule="evenodd" clip-rule="evenodd" d="M1.86713 20.8365L0.292969 20.3247L0.432032 19.897L2.00619 20.4088L1.86713 20.8365ZM8.16376 22.8839L5.01544 21.8602L5.15451 21.4325L8.30282 22.4562L8.16376 22.8839ZM14.4604 24.9312L11.3121 23.9076L11.4511 23.4799L14.5995 24.5036L14.4604 24.9312ZM20.757 26.9786L17.6087 25.9549L17.7478 25.5272L20.8961 26.5509L20.757 26.9786ZM25.4795 28.5141L23.9053 28.0023L24.0444 27.5746L25.6186 28.0865L25.4795 28.5141Z" fill="#444B8C"/>
<path fill-rule="evenodd" clip-rule="evenodd" d="M34.2044 66.0774L23.2594 81.1172L22.8438 80.8147L33.7888 65.7749L34.2044 66.0774Z" fill="#444B8C"/>
<path fill-rule="evenodd" clip-rule="evenodd" d="M39.6897 71.3884L38.8076 72.602L38.4438 72.3376L39.3259 71.124L39.6897 71.3884ZM37.0435 75.0293L35.2795 77.4565L34.9157 77.1921L36.6798 74.7649L37.0435 75.0293ZM33.5154 79.8837L32.6333 81.0973L32.2695 80.8329L33.1516 79.6193L33.5154 79.8837Z" fill="#444B8C"/>
<path fill-rule="evenodd" clip-rule="evenodd" d="M28.4614 60.8551L27.5424 62.1203L27.1785 61.8559L28.0976 60.5908L28.4614 60.8551ZM25.7042 64.6505L23.8661 67.1807L23.5023 66.9164L25.3404 64.3862L25.7042 64.6505ZM22.028 69.711L20.1899 72.2412L19.826 71.9769L21.6641 69.4467L22.028 69.711ZM18.3517 74.7715L16.5136 77.3017L16.1498 77.0374L17.9879 74.5072L18.3517 74.7715ZM14.6755 79.832L13.7564 81.0971L13.3926 80.8328L14.3116 79.5676L14.6755 79.832Z" fill="#444B8C"/>
<path fill-rule="evenodd" clip-rule="evenodd" d="M76.988 51.7039L98.9989 44.5631L98.8403 44.0742L76.5549 51.304L76.5217 51.4449C76.4209 51.8734 76.2948 52.3023 76.1433 52.7317L75.6348 54.1724L94.0245 79.4939L94.4404 79.1919L76.2093 54.0888L76.628 52.9027C76.7689 52.5035 76.8889 52.1038 76.988 51.7039Z" fill="#444B8C"/>
<path fill-rule="evenodd" clip-rule="evenodd" d="M65.8027 65.7749L76.6447 80.7117L76.2288 81.0136L65.3867 66.0768L65.8027 65.7749Z" fill="#444B8C"/>
<path fill-rule="evenodd" clip-rule="evenodd" d="M73.0325 63.6413L72.1875 62.4776L72.5514 62.2134L73.3964 63.3771L73.0325 63.6413ZM76.4126 68.2962L74.7226 65.9688L75.0865 65.7045L76.7765 68.032L76.4126 68.2962ZM79.7927 72.9511L78.1027 70.6236L78.4666 70.3594L80.1566 72.6868L79.7927 72.9511ZM83.1728 77.606L81.4828 75.2785L81.8467 75.0143L83.5367 77.3417L83.1728 77.606ZM85.7079 81.0971L84.8628 79.9334L85.2268 79.6691L86.0718 80.8329L85.7079 81.0971Z" fill="#444B8C"/>
<path fill-rule="evenodd" clip-rule="evenodd" d="M48.2913 71.8423L48.4313 71.8501C48.8866 71.8754 49.343 71.8754 49.8077 71.8754C50.2723 71.8754 50.7031 71.8754 51.1584 71.8501L51.2982 71.8423L57.8188 80.8146L57.403 81.1168L51.0466 72.3704C50.6272 72.3894 50.226 72.3894 49.8105 72.3894H49.8048C49.3893 72.3894 48.9671 72.3894 48.5433 72.3703L42.2384 81.0651L41.8223 80.7634L48.2913 71.8423Z" fill="#444B8C"/>
<path fill-rule="evenodd" clip-rule="evenodd" d="M60.759 72.6279L59.877 71.4143L60.2407 71.1499L61.1228 72.3635L60.759 72.6279ZM64.2872 77.4824L62.5231 75.0551L62.8869 74.7907L64.651 77.218L64.2872 77.4824ZM66.9333 81.1232L66.0513 79.9096L66.4151 79.6452L67.2971 80.8588L66.9333 81.1232Z" fill="#444B8C"/>
<path fill-rule="evenodd" clip-rule="evenodd" d="M75.2754 35.6277L98.8395 27.876L99.0001 28.3642L75.436 36.1159L75.2754 35.6277Z" fill="#444B8C"/>
<path fill-rule="evenodd" clip-rule="evenodd" d="M98.706 20.4271L97.1673 20.9342L97.0265 20.507L98.5653 20L98.706 20.4271ZM94.0898 21.9482L91.0123 22.9622L90.8715 22.5351L93.949 21.521L94.0898 21.9482ZM87.9348 23.9762L84.8573 24.9903L84.7165 24.5631L87.794 23.5491L87.9348 23.9762ZM81.7798 26.0043L78.7023 27.0183L78.5616 26.5912L81.639 25.5772L81.7798 26.0043ZM75.6248 28.0323L74.0861 28.5394L73.9453 28.1122L75.4841 27.6052L75.6248 28.0323Z" fill="#444B8C"/>
<path fill-rule="evenodd" clip-rule="evenodd" d="M98.7062 36.4461L97.0473 36.9934L96.9064 36.5663L98.5653 36.019L98.7062 36.4461ZM93.7294 38.0879L90.4116 39.1824L90.2707 38.7553L93.5885 37.6608L93.7294 38.0879ZM87.0937 40.2769L83.7759 41.3714L83.635 40.9443L86.9528 39.8498L87.0937 40.2769ZM80.458 42.4659L78.7991 43.0132L78.6582 42.5861L80.3171 42.0388L80.458 42.4659Z" fill="#444B8C"/>
<path fill-rule="evenodd" clip-rule="evenodd" d="M22.8089 51.1955H22.9932L23.0428 51.3885C23.2724 52.2812 23.5526 53.1723 23.8829 54.0109L23.9447 54.1676L23.8141 54.2982L5.36105 79.7258L4.94504 79.4239L23.3509 54.0613C23.0529 53.2874 22.797 52.4754 22.583 51.6625L0.257812 44.4088L0.416646 43.9199L22.8089 51.1955Z" fill="#444B8C"/>
</svg>
