<svg width="98" height="81" viewBox="0 0 98 81" fill="none" xmlns="http://www.w3.org/2000/svg">
<path fill-rule="evenodd" clip-rule="evenodd" d="M47.4549 33.8818C43.6534 33.8818 40.5717 36.9635 40.5717 40.7649C40.5717 44.5664 43.6534 47.6481 47.4549 47.6481C51.2563 47.6481 54.338 44.5664 54.338 40.7649C54.338 36.9635 51.2563 33.8818 47.4549 33.8818ZM40.0938 40.7649C40.0938 36.6995 43.3894 33.4038 47.4549 33.4038C51.5203 33.4038 54.816 36.6995 54.816 40.7649C54.816 44.8304 51.5203 48.1261 47.4549 48.1261C43.3894 48.1261 40.0938 44.8304 40.0938 40.7649Z" fill="#444B8C"/>
<path fill-rule="evenodd" clip-rule="evenodd" d="M21.4428 41.0551H0.0507812V40.5771H21.4428V41.0551Z" fill="#444B8C"/>
<path fill-rule="evenodd" clip-rule="evenodd" d="M97.9993 41.0551H73.3398V40.5771H97.9993V41.0551Z" fill="#444B8C"/>
<path fill-rule="evenodd" clip-rule="evenodd" d="M1.44841 48.1264H0.0507812V47.6484H1.44841V48.1264ZM7.03891 48.1264H4.24366V47.6484H7.03891V48.1264ZM12.6294 48.1264H9.83416V47.6484H12.6294V48.1264ZM18.2199 48.1264H15.4247V47.6484H18.2199V48.1264ZM22.4128 48.1264H21.0152V47.6484H22.4128V48.1264Z" fill="#444B8C"/>
<path fill-rule="evenodd" clip-rule="evenodd" d="M73.9634 48.1264H72.3711V47.6484H73.9634V48.1264ZM80.3324 48.1264H77.1479V47.6484H80.3324V48.1264ZM86.7015 48.1264H83.517V47.6484H86.7015V48.1264ZM93.0706 48.1264H89.8861V47.6484H93.0706V48.1264ZM97.8474 48.1264H96.2551V47.6484H97.8474V48.1264Z" fill="#444B8C"/>
<path fill-rule="evenodd" clip-rule="evenodd" d="M73.9729 33.9331H72.3711V33.4551H73.9729V33.9331ZM80.3803 33.9331H77.1766V33.4551H80.3803V33.9331ZM86.7877 33.9331H83.584V33.4551H86.7877V33.9331ZM93.1951 33.9331H89.9914V33.4551H93.1951V33.9331ZM98.0006 33.9331H96.3988V33.4551H98.0006V33.9331Z" fill="#444B8C"/>
<path fill-rule="evenodd" clip-rule="evenodd" d="M1.4056 33.9331H0V33.4551H1.4056V33.9331ZM7.02801 33.9331H4.21681V33.4551H7.02801V33.9331ZM12.6504 33.9331H9.83921V33.4551H12.6504V33.9331ZM18.2728 33.9331H15.4616V33.4551H18.2728V33.9331ZM22.4896 33.9331H21.084V33.4551H22.4896V33.9331Z" fill="#444B8C"/>
<path fill-rule="evenodd" clip-rule="evenodd" d="M0.0507812 54.77H25.7833L25.8541 54.8772C27.8276 57.8627 30.3826 60.4175 33.367 62.365L33.4754 62.4357V80.5875H32.9974V62.6942C30.0396 60.743 27.5015 58.205 25.5266 55.248H0.0507812V54.77Z" fill="#444B8C"/>
<path fill-rule="evenodd" clip-rule="evenodd" d="M69.0248 54.77H97.9999V55.248H69.2827C67.357 58.1552 64.8452 60.667 61.9389 62.6164V80.5875H61.4609V62.3603L61.5678 62.2894C64.5024 60.3414 67.032 57.8117 68.954 54.878L69.0248 54.77Z" fill="#444B8C"/>
<path fill-rule="evenodd" clip-rule="evenodd" d="M61.4336 0.942383H61.9116V19.0153C64.7927 20.9397 67.2792 23.4262 69.2037 26.3074H97.9981V26.7854H68.947L68.8761 26.6781C66.9538 23.7693 64.4496 21.2651 61.5408 19.3428L61.4336 19.2719V0.942383Z" fill="#444B8C"/>
<path fill-rule="evenodd" clip-rule="evenodd" d="M33.4499 0.943359V19.1982L33.3403 19.2687C30.3567 21.1904 27.8277 23.7192 25.8799 26.6787L25.8091 26.7863H0.0507812V26.3083H25.5519C27.5016 23.3769 30.0148 20.864 32.9719 18.9379V0.943359H33.4499Z" fill="#444B8C"/>
<path fill-rule="evenodd" clip-rule="evenodd" d="M47.7202 66.8022V80.587H47.2422V66.8022H47.7202Z" fill="#444B8C"/>
<path fill-rule="evenodd" clip-rule="evenodd" d="M47.7202 0.942383V14.8804H47.2422V0.942383H47.7202Z" fill="#444B8C"/>
<path fill-rule="evenodd" clip-rule="evenodd" d="M54.3398 67.6103V65.7563H54.8178V67.6103H54.3398ZM54.3398 75.026V71.3181H54.8178V75.026H54.3398ZM54.3398 80.5878V78.7338H54.8178V80.5878H54.3398Z" fill="#444B8C"/>
<path fill-rule="evenodd" clip-rule="evenodd" d="M54.3398 2.7995V0.942383H54.8178V2.7995H54.3398ZM54.3398 10.228V6.51374H54.8178V10.228H54.3398ZM54.3398 15.7993V13.9422H54.8178V15.7993H54.3398Z" fill="#444B8C"/>
<path fill-rule="evenodd" clip-rule="evenodd" d="M40.1465 2.80269V0.942383H40.6245V2.80269H40.1465ZM40.1465 10.2439V6.52331H40.6245V10.2439H40.1465ZM40.1465 15.8249V13.9645H40.6245V15.8249H40.1465Z" fill="#444B8C"/>
<path fill-rule="evenodd" clip-rule="evenodd" d="M40.1465 67.5876V65.7305H40.6245V67.5876H40.1465ZM40.1465 75.0161V71.3018H40.6245V75.0161H40.1465ZM40.1465 80.5874V78.7303H40.6245V80.5874H40.1465Z" fill="#444B8C"/>
<path fill-rule="evenodd" clip-rule="evenodd" d="M45.8161 24.1404C46.3558 24.0879 46.9029 24.061 47.4562 24.061C48.0096 24.061 48.5567 24.0879 49.0964 24.1404L49.0501 24.6162C48.5258 24.5651 47.9941 24.539 47.4562 24.539C46.9184 24.539 46.3867 24.5651 45.8624 24.6162L45.8161 24.1404ZM52.3142 24.7773C53.3723 25.0979 54.3861 25.5205 55.3441 26.0336L55.1185 26.455C54.1879 25.9566 53.2033 25.5461 52.1756 25.2348L52.3142 24.7773ZM39.5684 26.0336C40.5263 25.5205 41.5402 25.0979 42.5983 24.7773L42.7369 25.2348C41.7092 25.5461 40.7246 25.9566 39.794 26.455L39.5684 26.0336ZM58.0697 27.8581C58.9163 28.5537 59.6933 29.3307 60.3889 30.1773L60.0196 30.4807C59.3438 29.6582 58.5888 28.9032 57.7663 28.2274L58.0697 27.8581ZM34.5236 30.1773C35.2192 29.3307 35.9962 28.5537 36.8428 27.8581L37.1462 28.2274C36.3237 28.9032 35.5687 29.6582 34.8929 30.4807L34.5236 30.1773ZM62.2134 32.9028C62.7265 33.8608 63.1491 34.8746 63.4697 35.9328L63.0122 36.0714C62.7009 35.0437 62.2904 34.0591 61.792 33.1285L62.2134 32.9028ZM31.4428 35.9328C31.7634 34.8746 32.186 33.8608 32.6991 32.9028L33.1205 33.1285C32.6221 34.0591 32.2116 35.0437 31.9003 36.0714L31.4428 35.9328ZM30.7266 40.7907C30.7266 40.2374 30.7534 39.6903 30.806 39.1506L31.2817 39.1969C31.2307 39.7212 31.2045 40.2529 31.2045 40.7907C31.2045 41.3286 31.2307 41.8603 31.2817 42.3846L30.806 42.4309C30.7534 41.8912 30.7266 41.3441 30.7266 40.7907ZM64.1065 39.1506C64.1591 39.6903 64.1859 40.2374 64.1859 40.7907C64.1859 41.3441 64.1591 41.8912 64.1065 42.4309L63.6308 42.3846C63.6818 41.8603 63.708 41.3286 63.708 40.7907C63.708 40.2529 63.6818 39.7212 63.6308 39.1969L64.1065 39.1506ZM32.6991 48.6786C32.186 47.7206 31.7634 46.7068 31.4428 45.6486L31.9003 45.5101C32.2116 46.5377 32.6221 47.5224 33.1205 48.4529L32.6991 48.6786ZM63.4697 45.6486C63.1491 46.7068 62.7265 47.7206 62.2134 48.6786L61.792 48.4529C62.2904 47.5224 62.7009 46.5377 63.0122 45.5101L63.4697 45.6486ZM60.3889 51.4042C59.6933 52.2508 58.9163 53.0278 58.0697 53.7234L57.7663 53.354C58.5888 52.6783 59.3438 51.9233 60.0196 51.1008L60.3889 51.4042ZM36.8428 53.7234C35.9962 53.0278 35.2192 52.2508 34.5236 51.4042L34.8929 51.1008C35.5687 51.9233 36.3237 52.6783 37.1462 53.354L36.8428 53.7234ZM55.3441 55.5478C54.3861 56.0609 53.3723 56.4835 52.3142 56.8041L52.1756 56.3467C53.2033 56.0353 54.1879 55.6249 55.1185 55.1265L55.3441 55.5478ZM42.5983 56.8041C41.5402 56.4835 40.5264 56.0609 39.5684 55.5478L39.794 55.1265C40.7246 55.6249 41.7092 56.0353 42.7369 56.3467L42.5983 56.8041ZM47.4562 57.5204C46.9029 57.5204 46.3558 57.4935 45.8161 57.441L45.8624 56.9653C46.3867 57.0163 46.9184 57.0424 47.4562 57.0424C47.9941 57.0424 48.5258 57.0163 49.0501 56.9653L49.0964 57.441C48.5567 57.4935 48.0096 57.5204 47.4562 57.5204Z" fill="#444B8C"/>
</svg>
