<svg width="100" height="82" viewBox="0 0 100 82" fill="none" xmlns="http://www.w3.org/2000/svg">
<path fill-rule="evenodd" clip-rule="evenodd" d="M49.2455 33.0083C44.6226 33.0083 40.875 36.7559 40.875 41.3788C40.875 46.0017 44.6226 49.7494 49.2455 49.7494C53.8684 49.7494 57.6161 46.0017 57.6161 41.3788C57.6161 36.7559 53.8684 33.0083 49.2455 33.0083ZM40.332 41.3788C40.332 36.456 44.3227 32.4653 49.2455 32.4653C54.1683 32.4653 58.159 36.456 58.159 41.3788C58.159 46.3016 54.1683 50.2923 49.2455 50.2923C44.3227 50.2923 40.332 46.3016 40.332 41.3788Z" fill="#444B8C"/>
<path fill-rule="evenodd" clip-rule="evenodd" d="M47.3797 22.4516C47.9932 22.3919 48.6152 22.3613 49.2442 22.3613C49.8732 22.3613 50.4951 22.3919 51.1086 22.4516L51.056 22.992C50.46 22.934 49.8556 22.9043 49.2442 22.9043C48.6327 22.9043 48.0283 22.934 47.4323 22.992L47.3797 22.4516ZM54.7664 23.1756C55.9693 23.54 57.1218 24.0204 58.2108 24.6037L57.9544 25.0823C56.8966 24.5157 55.7773 24.0491 54.609 23.6952L54.7664 23.1756ZM40.2776 24.6037C41.3666 24.0204 42.519 23.54 43.7219 23.1756L43.8793 23.6952C42.7111 24.0491 41.5917 24.5157 40.5339 25.0823L40.2776 24.6037ZM34.5429 29.314C35.3336 28.3517 36.2169 27.4683 37.1792 26.6777L37.5239 27.0972C36.5889 27.8654 35.7306 28.7236 34.9624 29.6587L34.5429 29.314ZM61.3091 26.6777C62.2714 27.4683 63.1548 28.3517 63.9454 29.314L63.5259 29.6587C62.7577 28.7236 61.8995 27.8654 60.9644 27.0972L61.3091 26.6777ZM31.0408 35.8567C31.4052 34.6538 31.8856 33.5013 32.4689 32.4123L32.9475 32.6687C32.3809 33.7265 31.9144 34.8458 31.5604 36.0141L31.0408 35.8567ZM66.0194 32.4123C66.6027 33.5013 67.0831 34.6538 67.4475 35.8567L66.9279 36.0141C66.574 34.8458 66.1074 33.7265 65.5408 32.6687L66.0194 32.4123ZM68.1715 39.5145C68.2312 40.128 68.2618 40.7499 68.2618 41.3789C68.2618 42.0079 68.2312 42.6299 68.1715 43.2434L67.6311 43.1908C67.6891 42.5948 67.7188 41.9903 67.7188 41.3789C67.7188 40.7675 67.6891 40.1631 67.6311 39.5671L68.1715 39.5145ZM30.2266 41.3789C30.2266 40.7499 30.2571 40.128 30.3168 39.5145L30.8572 39.5671C30.7992 40.1631 30.7695 40.7675 30.7695 41.3789C30.7695 41.9903 30.7992 42.5947 30.8572 43.1908L30.3168 43.2434C30.2571 42.6299 30.2266 42.0079 30.2266 41.3789ZM32.4689 50.3455C31.8856 49.2565 31.4052 48.1041 31.0408 46.9012L31.5604 46.7438C31.9144 47.912 32.3809 49.0314 32.9475 50.0892L32.4689 50.3455ZM67.4475 46.9012C67.0831 48.1041 66.6027 49.2565 66.0194 50.3455L65.5408 50.0892C66.1074 49.0314 66.574 47.912 66.9279 46.7438L67.4475 46.9012ZM37.1792 56.0802C36.2169 55.2895 35.3336 54.4062 34.5429 53.4439L34.9624 53.0992C35.7306 54.0342 36.5889 54.8925 37.5239 55.6607L37.1792 56.0802ZM63.9454 53.4439C63.1548 54.4062 62.2714 55.2895 61.3091 56.0802L60.9644 55.6607C61.8995 54.8925 62.7577 54.0342 63.5259 53.0992L63.9454 53.4439ZM43.7219 59.5823C42.519 59.2179 41.3665 58.7375 40.2775 58.1542L40.5339 57.6756C41.5917 58.2422 42.7111 58.7087 43.8793 59.0627L43.7219 59.5823ZM58.2108 58.1542C57.1218 58.7375 55.9693 59.2179 54.7664 59.5823L54.609 59.0627C55.7773 58.7087 56.8966 58.2422 57.9544 57.6756L58.2108 58.1542ZM49.2442 60.3965C48.6152 60.3965 47.9932 60.366 47.3797 60.3063L47.4323 59.7659C48.0283 59.8239 48.6327 59.8536 49.2442 59.8536C49.8556 59.8536 50.46 59.8239 51.056 59.7659L51.1086 60.3063C50.4951 60.366 49.8732 60.3965 49.2442 60.3965Z" fill="#444B8C"/>
<path fill-rule="evenodd" clip-rule="evenodd" d="M49.5156 0.0488281V11.1973H48.9727V0.0488281H49.5156Z" fill="#444B8C"/>
<path fill-rule="evenodd" clip-rule="evenodd" d="M57.127 2.38934V0.989258H57.6017V2.38934H57.127ZM57.127 7.98968V5.18951H57.6017V7.98968H57.127ZM57.127 12.1899V10.7898H57.6017V12.1899H57.127Z" fill="#444B8C"/>
<path fill-rule="evenodd" clip-rule="evenodd" d="M40.9922 2.38934V0.989258H41.467V2.38934H40.9922ZM40.9922 7.98968V5.18951H41.467V7.98968H40.9922ZM40.9922 12.1899V10.7898H41.467V12.1899H40.9922Z" fill="#444B8C"/>
<path fill-rule="evenodd" clip-rule="evenodd" d="M7.10156 80.8149L27.127 61.9121L27.4997 62.3069L7.47425 81.2097L7.10156 80.8149Z" fill="#444B8C"/>
<path fill-rule="evenodd" clip-rule="evenodd" d="M33.381 0.0488281V16.8009L33.2581 16.8813C25.264 22.1072 19.9872 31.1354 19.9872 41.4052C19.9872 43.1908 20.1425 44.9238 20.4528 46.6306L20.4791 46.7755L0.372669 65.7533L0 65.3585L19.8926 46.5826C19.5937 44.89 19.4443 43.1721 19.4443 41.4052C19.4443 30.9974 24.7658 21.8416 32.8381 16.5076V0.0488281H33.381Z" fill="#444B8C"/>
<path fill-rule="evenodd" clip-rule="evenodd" d="M22.5935 55.7289L21.5322 56.7315L21.2062 56.3864L22.2675 55.3838L22.5935 55.7289ZM19.4096 58.7367L17.2869 60.7418L16.9609 60.3967L19.0835 58.3915L19.4096 58.7367ZM15.1643 62.747L13.0416 64.7521L12.7156 64.407L14.8382 62.4018L15.1643 62.747ZM10.919 66.7573L8.79632 68.7625L8.47028 68.4173L10.5929 66.4122L10.919 66.7573ZM6.67367 70.7676L4.55103 72.7728L4.22499 72.4276L6.34763 70.4225L6.67367 70.7676ZM2.42838 74.7779L1.36705 75.7805L1.04102 75.4354L2.10234 74.4328L2.42838 74.7779Z" fill="#444B8C"/>
<path fill-rule="evenodd" clip-rule="evenodd" d="M33.6625 67.4257L32.4006 68.618L32.0746 68.2729L33.3365 67.0806L33.6625 67.4257ZM29.8768 71.0026L27.3529 73.3872L27.0268 73.0421L29.5507 70.6575L29.8768 71.0026ZM24.8291 75.7718L22.3052 78.1564L21.9791 77.8113L24.503 75.4267L24.8291 75.7718ZM19.7814 80.541L18.5194 81.7333L18.1934 81.3882L19.4553 80.1959L19.7814 80.541Z" fill="#444B8C"/>
<path fill-rule="evenodd" clip-rule="evenodd" d="M73.8481 57.2427H99.9994V57.7856H74.1414C68.8074 65.8579 59.6516 71.1794 49.2438 71.1794C46.8974 71.1794 44.6019 70.9019 42.4067 70.3963L30.4492 81.7054L30.0762 81.3109L42.1096 69.9301L42.2399 69.7997L42.3872 69.8343C44.5869 70.3519 46.8898 70.6365 49.2438 70.6365C59.5137 70.6365 68.5419 65.3597 73.7678 57.3656L73.8481 57.2427Z" fill="#444B8C"/>
<path fill-rule="evenodd" clip-rule="evenodd" d="M80.1776 49.7365H78.4609V49.2617H80.1776V49.7365ZM87.0442 49.7365H83.6109V49.2617H87.0442V49.7365ZM93.9108 49.7365H90.4775V49.2617H93.9108V49.7365ZM99.0608 49.7365H97.3442V49.2617H99.0608V49.7365Z" fill="#444B8C"/>
<path fill-rule="evenodd" clip-rule="evenodd" d="M65.082 0.0488281H65.625V16.5074C69.009 18.7365 71.888 21.6405 74.1155 24.9985H99.9738V25.5414H73.8229L73.7425 25.4189C71.5171 22.0291 68.6194 19.1058 65.2053 16.8815L65.082 16.8012V0.0488281Z" fill="#444B8C"/>
<path fill-rule="evenodd" clip-rule="evenodd" d="M80.1776 33.6271H78.4609V33.1523H80.1776V33.6271ZM87.0442 33.6271H83.6109V33.1523H87.0442V33.6271ZM93.9108 33.6271H90.4775V33.1523H93.9108V33.6271ZM99.0608 33.6271H97.3442V33.1523H99.0608V33.6271Z" fill="#444B8C"/>
<path fill-rule="evenodd" clip-rule="evenodd" d="M99.9995 41.6504H79.4258V41.1074H99.9995V41.6504Z" fill="#444B8C"/>
</svg>
