<svg width="100" height="82" viewBox="0 0 100 82" fill="none" xmlns="http://www.w3.org/2000/svg">
<path fill-rule="evenodd" clip-rule="evenodd" d="M49.6841 36.3899C45.6424 36.3899 42.366 39.6663 42.366 43.708C42.366 47.7497 45.6424 51.0261 49.6841 51.0261C53.7257 51.0261 57.0021 47.7497 57.0021 43.708C57.0021 39.6663 53.7257 36.3899 49.6841 36.3899ZM41.7266 43.708C41.7266 39.3132 45.2893 35.7505 49.6841 35.7505C54.0789 35.7505 57.6416 39.3132 57.6416 43.708C57.6416 48.1028 54.0789 51.6655 49.6841 51.6655C45.2893 51.6655 41.7266 48.1028 41.7266 43.708Z" fill="#444B8C"/>
<path fill-rule="evenodd" clip-rule="evenodd" d="M47.7304 23.8744C48.3733 23.8118 49.025 23.7798 49.6842 23.7798C50.3433 23.7798 50.995 23.8118 51.6379 23.8744L51.5828 24.4408C50.9582 24.38 50.3249 24.3489 49.6842 24.3489C49.0435 24.3489 48.4101 24.38 47.7856 24.4408L47.7304 23.8744ZM55.4709 24.633C56.7314 25.0149 57.939 25.5183 59.0802 26.1295L58.8115 26.6312C57.703 26.0374 56.5301 25.5485 55.3059 25.1776L55.4709 24.633ZM40.2882 26.1295C41.4293 25.5183 42.637 25.0149 43.8975 24.633L44.0625 25.1776C42.8383 25.5485 41.6653 26.0374 40.5569 26.6312L40.2882 26.1295ZM34.2789 31.0654C35.1074 30.057 36.0331 29.1314 37.0415 28.3028L37.4027 28.7425C36.4229 29.5475 35.5236 30.4469 34.7186 31.4267L34.2789 31.0654ZM62.3269 28.3028C63.3353 29.1314 64.2609 30.057 65.0894 31.0654L64.6498 31.4267C63.8447 30.4469 62.9454 29.5475 61.9656 28.7425L62.3269 28.3028ZM30.6091 37.9214C30.991 36.6609 31.4944 35.4532 32.1056 34.3121L32.6072 34.5808C32.0135 35.6893 31.5246 36.8622 31.1537 38.0864L30.6091 37.9214ZM67.2628 34.3121C67.874 35.4532 68.3774 36.6609 68.7592 37.9214L68.2146 38.0864C67.8437 36.8622 67.3548 35.6893 66.7611 34.5808L67.2628 34.3121ZM29.7559 43.7081C29.7559 43.049 29.7879 42.3972 29.8504 41.7544L30.4168 41.8095C30.356 42.4341 30.3249 43.0674 30.3249 43.7081C30.3249 44.3488 30.356 44.9821 30.4168 45.6067L29.8504 45.6618C29.7879 45.019 29.7559 44.3672 29.7559 43.7081ZM69.5179 41.7544C69.5805 42.3972 69.6125 43.049 69.6125 43.7081C69.6125 44.3672 69.5805 45.019 69.5179 45.6618L68.9515 45.6067C69.0123 44.9821 69.0434 44.3488 69.0434 43.7081C69.0434 43.0674 69.0123 42.4341 68.9515 41.8095L69.5179 41.7544ZM68.7592 49.4948C68.3774 50.7553 67.874 51.963 67.2628 53.1041L66.7611 52.8354C67.3548 51.7269 67.8437 50.554 68.2146 49.3298L68.7592 49.4948ZM32.1056 53.1041C31.4944 51.963 30.991 50.7553 30.6091 49.4948L31.1537 49.3298C31.5246 50.554 32.0135 51.7269 32.6072 52.8354L32.1056 53.1041ZM37.0415 59.1134C36.033 58.2848 35.1074 57.3592 34.2789 56.3508L34.7186 55.9895C35.5236 56.9693 36.4229 57.8687 37.4027 58.6737L37.0415 59.1134ZM65.0894 56.3508C64.2609 57.3592 63.3353 58.2848 62.3269 59.1134L61.9656 58.6737C62.9454 57.8687 63.8447 56.9693 64.6498 55.9895L65.0894 56.3508ZM43.8975 62.7832C42.637 62.4013 41.4293 61.8979 40.2882 61.2867L40.5569 60.785C41.6653 61.3788 42.8383 61.8677 44.0625 62.2386L43.8975 62.7832ZM59.0802 61.2867C57.939 61.8979 56.7314 62.4013 55.4709 62.7832L55.3059 62.2386C56.5301 61.8677 57.703 61.3788 58.8115 60.785L59.0802 61.2867ZM49.6842 63.6364C49.025 63.6364 48.3733 63.6044 47.7304 63.5418L47.7856 62.9754C48.4101 63.0362 49.0435 63.0673 49.6842 63.0673C50.3249 63.0673 50.9582 63.0362 51.5828 62.9754L51.6379 63.5418C50.995 63.6044 50.3433 63.6364 49.6842 63.6364Z" fill="#444B8C"/>
<path fill-rule="evenodd" clip-rule="evenodd" d="M27.2789 65.0241L25.7814 66.4278L25.3922 66.0126L26.8897 64.6089L27.2789 65.0241ZM22.7864 69.2353L19.7915 72.0428L19.4023 71.6276L22.3972 68.8201L22.7864 69.2353ZM16.7965 74.8503L13.8015 77.6578L13.4124 77.2426L16.4073 74.4351L16.7965 74.8503ZM10.8066 80.4653L9.30911 81.8691L8.91992 81.4539L10.4174 80.0501L10.8066 80.4653Z" fill="#444B8C"/>
<path fill-rule="evenodd" clip-rule="evenodd" d="M82.9189 44.0447H80.627V43.4756H82.9189V44.0447ZM92.0869 44.0447H87.5029V43.4756H92.0869V44.0447ZM98.9629 44.0447H96.6709V43.4756H98.9629V44.0447Z" fill="#444B8C"/>
<path fill-rule="evenodd" clip-rule="evenodd" d="M49.4785 2.4848V1.02002H50.0476V2.4848H49.4785ZM49.4785 8.34393V5.41437H50.0476V8.34393H49.4785ZM49.4785 12.7383V11.2735H50.0476V12.7383H49.4785Z" fill="#444B8C"/>
<path fill-rule="evenodd" clip-rule="evenodd" d="M38.9298 0V14.9479L38.7473 15.0181C27.2133 19.4502 19.0244 30.5948 19.0244 43.6819C19.0244 47.8037 19.828 51.7426 21.3047 55.3177L21.3772 55.4932L21.2135 55.6569L0.389417 75.1991L0 74.7841L20.7047 55.354C19.2467 51.7581 18.4554 47.8086 18.4554 43.6819C18.4554 30.4197 26.7113 19.1181 38.3607 14.5576V0H38.9298Z" fill="#444B8C"/>
<path fill-rule="evenodd" clip-rule="evenodd" d="M78.4167 54.4614H99.9566V55.0305H78.8078C74.2726 66.6805 62.9448 74.9358 49.6832 74.9358C44.8696 74.9358 40.2865 73.833 36.2123 71.8799L25.6044 81.8426L25.2148 81.4278L36.1083 71.1969L36.2847 71.2829C40.3274 73.2524 44.8885 74.3668 49.6832 74.3668C62.7706 74.3668 73.9409 66.1776 78.3468 54.6444L78.4167 54.4614Z" fill="#444B8C"/>
<path fill-rule="evenodd" clip-rule="evenodd" d="M60.4375 0.0258789H61.0066V14.5831C69.1484 17.754 75.6118 24.2429 78.7821 32.3589H99.9311V32.928H78.3915L78.3215 32.7453C75.2114 24.6333 68.7578 18.1539 60.6205 15.0441L60.4375 14.9742V0.0258789Z" fill="#444B8C"/>
</svg>
