<svg width="99" height="82" viewBox="0 0 99 82" fill="none" xmlns="http://www.w3.org/2000/svg">
<path fill-rule="evenodd" clip-rule="evenodd" d="M49.3084 0.53418V12.2384H48.7676V0.53418H49.3084Z" fill="#444B8C"/>
<path fill-rule="evenodd" clip-rule="evenodd" d="M41.3711 2.41637V1.48828H41.8059V2.41637H41.3711ZM41.3711 6.12871V4.27254H41.8059V6.12871H41.3711ZM41.3711 9.84106V7.98489H41.8059V9.84106H41.3711ZM41.3711 12.6253V11.6972H41.8059V12.6253H41.3711Z" fill="#444B8C"/>
<path fill-rule="evenodd" clip-rule="evenodd" d="M7.34766 80.5393L27.3789 61.8486L27.7478 62.2441L7.71661 80.9347L7.34766 80.5393Z" fill="#444B8C"/>
<path fill-rule="evenodd" clip-rule="evenodd" d="M33.1253 67.3607L32.379 68.0555L32.0827 67.7373L32.8291 67.0425L33.1253 67.3607ZM30.8863 69.4451L29.3937 70.8346L29.0974 70.5164L30.5901 69.1268L30.8863 69.4451ZM27.901 72.2242L26.4083 73.6137L26.1121 73.2955L27.6047 71.9059L27.901 72.2242ZM24.9156 75.0033L23.423 76.3928L23.1267 76.0746L24.6194 74.685L24.9156 75.0033ZM21.9303 77.7824L20.4376 79.1719L20.1414 78.8537L21.634 77.4641L21.9303 77.7824ZM18.9449 80.5615L18.1986 81.2563L17.9023 80.938L18.6487 80.2432L18.9449 80.5615Z" fill="#444B8C"/>
<path fill-rule="evenodd" clip-rule="evenodd" d="M98.9746 42.027L78.6855 42.0013L78.6862 41.4604L98.9753 41.4862L98.9746 42.027Z" fill="#444B8C"/>
<path fill-rule="evenodd" clip-rule="evenodd" d="M79.2862 34.4973H78.2988V34.0625H79.2862V34.4973ZM83.2357 34.4973H81.261V34.0625H83.2357V34.4973ZM87.1853 34.4973H85.2105V34.0625H87.1853V34.4973ZM91.1348 34.4973H89.16V34.0625H91.1348V34.4973ZM95.0843 34.4973H93.1096V34.0625H95.0843V34.4973ZM98.0465 34.4973H97.0591V34.0625H98.0465V34.4973Z" fill="#444B8C"/>
<path fill-rule="evenodd" clip-rule="evenodd" d="M48.0593 28.0463C48.4163 28.0185 48.777 28.0044 49.1411 28.0044C49.5051 28.0044 49.8659 28.0185 50.2229 28.0463L50.1892 28.4798C49.8434 28.4529 49.4939 28.4392 49.1411 28.4392C48.7883 28.4392 48.4387 28.4529 48.0929 28.4798L48.0593 28.0463ZM52.3586 28.3822C53.067 28.5516 53.754 28.7758 54.4151 29.0499L54.2486 29.4516C53.6085 29.1862 52.9433 28.9691 52.2575 28.805L52.3586 28.3822ZM43.867 29.0499C44.5281 28.7758 45.2152 28.5516 45.9235 28.3822L46.0247 28.805C45.3389 28.9691 44.6737 29.1862 44.0336 29.4516L43.867 29.0499ZM56.341 30.033C56.9575 30.4116 57.5419 30.8374 58.0892 31.3053L57.8067 31.6358C57.2765 31.1826 56.7105 30.7702 56.1134 30.4036L56.341 30.033ZM40.1929 31.3053C40.7402 30.8374 41.3247 30.4117 41.9412 30.033L42.1687 30.4036C41.5716 30.7702 41.0056 31.1826 40.4755 31.6358L40.1929 31.3053ZM59.618 32.834C60.0859 33.3813 60.5116 33.9658 60.8902 34.5823L60.5197 34.8098C60.153 34.2128 59.7407 33.6467 59.2875 33.1166L59.618 32.834ZM37.3919 34.5823C37.7705 33.9658 38.1963 33.3813 38.6642 32.834L38.9947 33.1166C38.5415 33.6467 38.1291 34.2128 37.7625 34.8098L37.3919 34.5823ZM61.8733 36.5082C62.1475 37.1692 62.3716 37.8563 62.5411 38.5646L62.1182 38.6658C61.9541 37.98 61.7371 37.3148 61.4717 36.6747L61.8733 36.5082ZM35.7411 38.5646C35.9105 37.8563 36.1347 37.1692 36.4088 36.5082L36.8105 36.6747C36.545 37.3148 36.328 37.98 36.1639 38.6658L35.7411 38.5646ZM62.877 40.7004C62.9047 41.0574 62.9189 41.4181 62.9189 41.7822C62.9189 42.1462 62.9047 42.507 62.877 42.864L62.4435 42.8303C62.4704 42.4845 62.4841 42.135 62.4841 41.7822C62.4841 41.4294 62.4704 41.0798 62.4435 40.734L62.877 40.7004ZM35.3633 41.7822C35.3633 41.4181 35.3774 41.0574 35.4051 40.7004L35.8386 40.734C35.8118 41.0798 35.7981 41.4294 35.7981 41.7822C35.7981 42.135 35.8118 42.4845 35.8386 42.8303L35.4051 42.864C35.3774 42.507 35.3633 42.1462 35.3633 41.7822ZM62.5411 44.9997C62.3716 45.7081 62.1475 46.3951 61.8733 47.0562L61.4717 46.8897C61.7371 46.2496 61.9541 45.5844 62.1182 44.8986L62.5411 44.9997ZM36.4088 47.0562C36.1347 46.3951 35.9105 45.7081 35.7411 44.9997L36.1639 44.8986C36.328 45.5844 36.545 46.2496 36.8105 46.8897L36.4088 47.0562ZM60.8902 48.9821C60.5116 49.5986 60.0859 50.183 59.618 50.7303L59.2875 50.4478C59.7407 49.9177 60.153 49.3516 60.5197 48.7545L60.8902 48.9821ZM38.6642 50.7303C38.1963 50.183 37.7705 49.5986 37.3919 48.9821L37.7625 48.7545C38.1291 49.3516 38.5415 49.9177 38.9947 50.4478L38.6642 50.7303ZM58.0892 52.2591C57.5419 52.727 56.9575 53.1527 56.341 53.5313L56.1134 53.1608C56.7105 52.7941 57.2766 52.3818 57.8067 51.9286L58.0892 52.2591ZM41.9412 53.5313C41.3247 53.1527 40.7402 52.727 40.1929 52.2591L40.4755 51.9286C41.0056 52.3818 41.5716 52.7941 42.1687 53.1608L41.9412 53.5313ZM54.4151 54.5144C53.754 54.7886 53.067 55.0127 52.3586 55.1822L52.2575 54.7593C52.9433 54.5952 53.6085 54.3782 54.2486 54.1128L54.4151 54.5144ZM45.9235 55.1822C45.2152 55.0127 44.5281 54.7886 43.8671 54.5144L44.0336 54.1128C44.6737 54.3782 45.3389 54.5952 46.0247 54.7593L45.9235 55.1822ZM49.1411 55.56C48.777 55.56 48.4163 55.5458 48.0593 55.5181L48.0929 55.0846C48.4387 55.1115 48.7883 55.1252 49.1411 55.1252C49.4939 55.1252 49.8434 55.1115 50.1892 55.0846L50.2229 55.5181C49.8659 55.5458 49.5051 55.56 49.1411 55.56Z" fill="#444B8C"/>
<path fill-rule="evenodd" clip-rule="evenodd" d="M72.1099 49.5017C71.7139 49.5017 71.3254 49.5578 70.9537 49.6639L70.8343 49.2458C71.2442 49.1288 71.6729 49.0669 72.11 49.0669L73.1887 49.068L73.1883 49.5028L72.1099 49.5017C72.11 49.5017 72.1099 49.5017 72.1099 49.5017ZM77.5022 49.5071L75.3452 49.5049L75.3457 49.0701L77.5026 49.0723L77.5022 49.5071ZM81.8161 49.5114L79.6591 49.5092L79.6596 49.0744L81.8165 49.0766L81.8161 49.5114ZM86.13 49.5157L83.973 49.5135L83.9734 49.0787L86.1304 49.0809L86.13 49.5157ZM90.4438 49.52L88.2869 49.5178L88.2873 49.083L90.4443 49.0852L90.4438 49.52ZM94.7577 49.5243L92.6008 49.5221L92.6012 49.0873L94.7582 49.0895L94.7577 49.5243ZM97.9931 49.5275L96.9147 49.5264L96.9151 49.0916L97.9936 49.0927L97.9931 49.5275ZM68.98 50.8769C68.7168 51.1602 68.4895 51.481 68.3072 51.8333L68.3065 51.8347C68.1234 52.1824 67.9311 52.5246 67.73 52.8609L67.3569 52.6377C67.5538 52.3084 67.742 51.9735 67.9212 51.6331C68.1218 51.2455 68.3719 50.8926 68.6614 50.581L68.98 50.8769ZM66.4149 54.8117C65.9413 55.4381 65.4345 56.0382 64.897 56.6092L64.5804 56.3111C65.1072 55.7515 65.6039 55.1634 66.068 54.5495L66.4149 54.8117ZM34.1616 57.4088C33.8962 57.1546 33.6372 56.8936 33.3848 56.6262L33.7009 56.3277C33.9484 56.5898 34.2023 56.8456 34.4624 57.0948L34.1616 57.4088ZM63.1944 58.2328C62.599 58.7422 61.9755 59.22 61.3267 59.6634L61.0813 59.3044C61.7172 58.8699 62.3282 58.4017 62.9118 57.9024L63.1944 58.2328ZM37.6323 60.1193C37.009 59.7271 36.407 59.304 35.8282 58.8519L36.0959 58.5092C36.6631 58.9523 37.2531 59.367 37.8639 59.7512L37.6323 60.1193ZM59.3148 60.8836C58.6254 61.2519 57.9137 61.5841 57.1821 61.8775L57.0203 61.4739C57.737 61.1865 58.4344 60.861 59.1099 60.5001L59.3148 60.8836ZM41.5803 62.0709C40.888 61.8133 40.2127 61.5211 39.5562 61.1965L39.7489 60.8067C40.3921 61.1247 41.0538 61.411 41.732 61.6634L41.5803 62.0709ZM54.9536 62.6323C54.2034 62.8412 53.4367 63.0108 52.6559 63.1385L52.5857 62.7094C53.3508 62.5843 54.102 62.4181 54.8369 62.2134L54.9536 62.6323ZM45.8438 63.1752C45.1107 63.0637 44.3901 62.9156 43.6837 62.7327L43.7927 62.3118C44.4847 62.491 45.1908 62.6361 45.9091 62.7453L45.8438 63.1752ZM50.3169 63.3915C49.9272 63.4124 49.5348 63.423 49.1399 63.423C48.7701 63.423 48.4026 63.4138 48.0375 63.3956L48.0592 62.9614C48.417 62.9792 48.7773 62.9882 49.1399 62.9882C49.527 62.9882 49.9117 62.9778 50.2936 62.9573L50.3169 63.3915Z" fill="#444B8C"/>
<path fill-rule="evenodd" clip-rule="evenodd" d="M56.375 2.56944V1.48828H56.8098V2.56944H56.375ZM56.375 6.89407V4.73175H56.8098V6.89407H56.375ZM56.375 11.2187V9.05638H56.8098V11.2187H56.375ZM56.375 15.5433V13.381H56.8098V15.5433H56.375ZM56.375 18.7868V17.7056H56.8098V18.7868C56.8098 19.1828 56.8659 19.5714 56.972 19.9431L56.5539 20.0625C56.4369 19.6527 56.375 19.224 56.375 18.7868ZM58.9414 22.9757C58.5537 22.7751 58.2007 22.5249 57.8891 22.2354L58.185 21.9169C58.4683 22.18 58.7891 22.4074 59.1414 22.5896L59.1419 22.5899C59.4906 22.7715 59.8337 22.9624 60.1709 23.1622L59.9492 23.5362C59.6189 23.3405 59.2829 23.1535 58.9414 22.9757ZM63.6314 26.302C63.0705 25.7763 62.481 25.281 61.8656 24.8187L62.1268 24.471C62.7548 24.9429 63.3564 25.4483 63.9287 25.9847L63.6314 26.302ZM66.6321 29.7959C66.1963 29.1607 65.7269 28.5504 65.2264 27.9677L65.5563 27.6844C66.0669 28.279 66.5459 28.9018 66.9906 29.55L66.6321 29.7959ZM68.8103 33.8537C68.5212 33.1376 68.1941 32.4407 67.8317 31.7656L68.2148 31.5599C68.5847 32.2488 68.9184 32.9601 69.2135 33.6909L68.8103 33.8537ZM70.0582 38.2862C69.9307 37.5216 69.7624 36.7707 69.5555 36.0358L69.974 35.918C70.1852 36.668 70.357 37.4344 70.4871 38.2147L70.0582 38.2862ZM70.3479 41.7319C70.3467 41.3448 70.3351 40.9601 70.3134 40.578L70.7475 40.5534C70.7696 40.9432 70.7814 41.3356 70.7827 41.7305L70.3479 41.7319Z" fill="#444B8C"/>
<path fill-rule="evenodd" clip-rule="evenodd" d="M49.0394 20.5764C48.6914 20.5779 48.3454 20.5878 48.0015 20.6059L47.9787 20.1717C48.3295 20.1533 48.6825 20.1432 49.0375 20.1416L49.0394 20.5764ZM45.9367 20.8157C45.2473 20.92 44.5687 21.0575 43.9028 21.2265L43.7958 20.8051C44.4755 20.6326 45.1681 20.4922 45.8717 20.3858L45.9367 20.8157ZM41.9193 21.8355C41.2658 22.072 40.6273 22.3397 40.0054 22.6369L39.8179 22.2446C40.4526 21.9413 41.1043 21.6681 41.7713 21.4267L41.9193 21.8355ZM38.1794 23.6224C37.5861 23.9812 37.0119 24.3683 36.4585 24.7819L36.1982 24.4336C36.7629 24.0116 37.3489 23.6165 37.9544 23.2504L38.1794 23.6224ZM34.8586 26.1036C34.3471 26.5698 33.8585 27.0608 33.3948 27.5746L33.072 27.2832C33.5452 26.759 34.0438 26.258 34.5657 25.7822L34.8586 26.1036ZM32.0809 29.1809C31.6702 29.7363 31.2859 30.3125 30.93 30.9076L30.5568 30.6844C30.92 30.0771 31.3122 29.4891 31.7313 28.9224L32.0809 29.1809ZM29.9534 32.7384C29.6594 33.3616 29.3948 34.0014 29.1614 34.6562L28.7518 34.5102C28.99 33.8419 29.2601 33.1889 29.5602 32.5528L29.9534 32.7384ZM28.562 36.6426C28.3962 37.3092 28.262 37.9884 28.1609 38.6785L27.7307 38.6155C27.8338 37.9113 27.9709 37.2181 28.1401 36.5377L28.562 36.6426ZM27.9606 40.7443C27.944 41.0882 27.9356 41.4343 27.9356 41.7824C27.9356 42.2691 27.9524 42.7512 27.9853 43.2284L27.5515 43.2582C27.518 42.7712 27.5008 42.2791 27.5008 41.7824C27.5008 41.4273 27.5094 41.0743 27.5263 40.7234L27.9606 40.7443ZM28.382 46.0929C28.4814 46.5677 28.5966 47.0362 28.7267 47.4982L28.7271 47.4996C28.8416 47.9171 28.8957 48.343 28.8924 48.7655L28.4576 48.7621C28.4606 48.3793 28.4116 47.9935 28.308 47.6153C28.1753 47.1442 28.0578 46.6663 27.9564 46.182L28.382 46.0929ZM27.3759 52.1768C27.3757 52.177 27.3755 52.1772 27.3753 52.1774L26.5726 52.9254L26.2762 52.6073L27.0802 51.8581L27.0815 51.8569C27.372 51.5906 27.6191 51.2901 27.8203 50.9656L28.1898 51.1947C27.9681 51.5524 27.6958 51.8835 27.3759 52.1768ZM24.9646 54.4239L23.3565 55.9224L23.0601 55.6043L24.6681 54.1058L24.9646 54.4239ZM21.7485 57.4208L20.1405 58.9193L19.844 58.6012L21.4521 57.1027L21.7485 57.4208ZM18.5324 60.4178L16.9244 61.9163L16.6279 61.5982L18.236 60.0997L18.5324 60.4178ZM15.3163 63.4147L13.7083 64.9132L13.4119 64.5951L15.0199 63.0966L15.3163 63.4147ZM12.1003 66.4117L10.4922 67.9101L10.1958 67.592L11.8038 66.0936L12.1003 66.4117ZM8.88417 69.4086L7.27613 70.9071L6.9797 70.589L8.58774 69.0905L8.88417 69.4086ZM5.66809 72.4056L4.06005 73.904L3.76362 73.5859L5.37166 72.0875L5.66809 72.4056ZM2.45201 75.4025L1.64799 76.1518L1.35156 75.8337L2.15558 75.0844L2.45201 75.4025Z" fill="#444B8C"/>
<path fill-rule="evenodd" clip-rule="evenodd" d="M63.7715 0.53418H64.3123V16.2876C68.4756 18.8041 71.9875 22.2907 74.5056 26.4793L75.6921 26.4565L99.0002 26.4823L98.9996 27.0231L75.697 26.9973L74.2018 27.0261L74.1215 26.8908C71.6184 22.6764 68.0933 19.1765 63.9032 16.6727L63.7715 16.594V0.53418Z" fill="#444B8C"/>
<path fill-rule="evenodd" clip-rule="evenodd" d="M34.3042 0.560059V16.5946L34.1719 16.6732C25.6141 21.7567 19.8931 31.08 19.8931 41.7311C19.8931 43.9533 20.1485 46.1249 20.6085 48.1948L20.6407 48.3396L20.5066 48.4738L0.368757 67.245L0 66.8494L20.0476 48.1623C19.6002 46.1008 19.3523 43.941 19.3523 41.7311C19.3523 30.9364 25.1218 21.4815 33.7634 16.2873V0.560059H34.3042Z" fill="#444B8C"/>
<path fill-rule="evenodd" clip-rule="evenodd" d="M74.4892 56.4644L98.9482 56.4901L98.9477 57.031L74.5274 57.0052L74.4936 57.01C69.3021 65.6376 59.8407 71.4163 49.0375 71.4163C46.2813 71.4163 43.6248 71.0408 41.0931 70.3387L29.4742 81.166L29.1055 80.7704L40.9469 69.7357L41.0934 69.7772C43.6221 70.4923 46.2785 70.8755 49.0375 70.8755C59.6886 70.8755 69.012 65.1543 74.0955 56.6222L74.1617 56.5111L74.4892 56.4644Z" fill="#444B8C"/>
<path fill-rule="evenodd" clip-rule="evenodd" d="M49.1418 36.8431C46.4136 36.8431 44.202 39.0547 44.202 41.7829C44.202 44.5111 46.4136 46.7227 49.1418 46.7227C51.87 46.7227 54.0816 44.5111 54.0816 41.7829C54.0816 39.0547 51.87 36.8431 49.1418 36.8431ZM43.7695 41.7829C43.7695 38.8159 46.1748 36.4106 49.1418 36.4106C52.1088 36.4106 54.5141 38.8159 54.5141 41.7829C54.5141 44.7499 52.1088 47.1552 49.1418 47.1552C46.1748 47.1552 43.7695 44.7499 43.7695 41.7829Z" fill="#444B8C"/>
</svg>
