<svg width="100" height="81" viewBox="0 0 100 81" fill="none" xmlns="http://www.w3.org/2000/svg">
<path fill-rule="evenodd" clip-rule="evenodd" d="M49.3265 33.3757C45.6131 33.3757 42.6028 36.386 42.6028 40.0994C42.6028 43.8129 45.6131 46.8232 49.3265 46.8232C53.0399 46.8232 56.0502 43.8129 56.0502 40.0994C56.0502 36.386 53.0399 33.3757 49.3265 33.3757ZM42.0156 40.0994C42.0156 36.0618 45.2888 32.7886 49.3265 32.7886C53.3642 32.7886 56.6374 36.0618 56.6374 40.0994C56.6374 44.1371 53.3642 47.4103 49.3265 47.4103C45.2888 47.4103 42.0156 44.1371 42.0156 40.0994Z" fill="#444B8C"/>
<path fill-rule="evenodd" clip-rule="evenodd" d="M47.5326 21.8794C48.1231 21.8219 48.7218 21.7925 49.3272 21.7925C49.9327 21.7925 50.5314 21.8219 51.1219 21.8794L51.0713 22.3994C50.4976 22.3436 49.9158 22.315 49.3272 22.315C48.7387 22.315 48.1569 22.3436 47.5832 22.3994L47.5326 21.8794ZM54.6428 22.5762C55.8007 22.927 56.91 23.3894 57.9582 23.9509L57.7115 24.4115C56.6933 23.8661 55.6158 23.417 54.4913 23.0763L54.6428 22.5762ZM40.6963 23.9509C41.7445 23.3894 42.8538 22.927 44.0117 22.5762L44.1632 23.0763C43.0387 23.417 41.9612 23.8661 40.943 24.4115L40.6963 23.9509ZM60.9406 25.9473C61.8669 26.7083 62.7171 27.5586 63.4782 28.4849L63.0745 28.8166C62.335 27.9166 61.5089 27.0905 60.6089 26.351L60.9406 25.9473ZM35.1763 28.4849C35.9373 27.5586 36.7876 26.7083 37.7139 25.9473L38.0456 26.351C37.1456 27.0905 36.3195 27.9166 35.58 28.8166L35.1763 28.4849ZM31.8053 34.7827C32.1561 33.6248 32.6185 32.5155 33.1799 31.4672L33.6405 31.714C33.0951 32.7322 32.646 33.8096 32.3053 34.9342L31.8053 34.7827ZM65.4746 31.4673C66.036 32.5155 66.4984 33.6248 66.8492 34.7827L66.3491 34.9342C66.0084 33.8096 65.5593 32.7322 65.014 31.714L65.4746 31.4673ZM31.0215 40.0982C31.0215 39.4928 31.0509 38.8941 31.1084 38.3036L31.6284 38.3542C31.5726 38.9279 31.544 39.5097 31.544 40.0982C31.544 40.6868 31.5726 41.2686 31.6284 41.8423L31.1084 41.8929C31.0509 41.3024 31.0215 40.7037 31.0215 40.0982ZM67.5461 38.3036C67.6036 38.8941 67.633 39.4928 67.633 40.0982C67.633 40.7037 67.6036 41.3024 67.5461 41.8929L67.026 41.8423C67.0819 41.2686 67.1105 40.6868 67.1105 40.0982C67.1105 39.5097 67.0819 38.9279 67.026 38.3542L67.5461 38.3036ZM66.8492 45.4138C66.4984 46.5717 66.036 47.681 65.4746 48.7292L65.014 48.4825C65.5593 47.4643 66.0084 46.3868 66.3491 45.2623L66.8492 45.4138ZM33.1799 48.7292C32.6185 47.681 32.1561 46.5717 31.8053 45.4138L32.3053 45.2623C32.646 46.3868 33.0951 47.4643 33.6405 48.4825L33.1799 48.7292ZM37.7139 54.2492C36.7876 53.4881 35.9373 52.6379 35.1763 51.7116L35.58 51.3799C36.3195 52.2799 37.1456 53.106 38.0456 53.8455L37.7139 54.2492ZM63.4782 51.7116C62.7171 52.6379 61.8669 53.4881 60.9406 54.2492L60.6089 53.8455C61.5089 53.106 62.335 52.2799 63.0745 51.3799L63.4782 51.7116ZM44.0117 57.6202C42.8538 57.2694 41.7445 56.807 40.6963 56.2456L40.943 55.785C41.9612 56.3303 43.0387 56.7795 44.1632 57.1202L44.0117 57.6202ZM57.9582 56.2456C56.91 56.807 55.8007 57.2694 54.6428 57.6202L54.4913 57.1202C55.6158 56.7795 56.6933 56.3303 57.7115 55.785L57.9582 56.2456ZM49.3272 58.404C48.7218 58.404 48.1231 58.3746 47.5326 58.3171L47.5832 57.7971C48.1569 57.8529 48.7387 57.8815 49.3272 57.8815C49.9158 57.8815 50.4976 57.8529 51.0713 57.7971L51.1219 58.3171C50.5314 58.3746 49.9327 58.404 49.3272 58.404Z" fill="#444B8C"/>
<path fill-rule="evenodd" clip-rule="evenodd" d="M48.9883 69.8482V68.502H49.5108V69.8482H48.9883ZM48.9883 75.2333V72.5408H49.5108V75.2333H48.9883ZM48.9883 79.2721V77.9258H49.5108V79.2721H48.9883Z" fill="#444B8C"/>
<path fill-rule="evenodd" clip-rule="evenodd" d="M79.4355 40.4117H77.7305V39.8892H79.4355V40.4117ZM86.2558 40.4117H82.8456V39.8892H86.2558V40.4117ZM93.076 40.4117H89.6659V39.8892H93.076V40.4117ZM98.1912 40.4117H96.4861V39.8892H98.1912V40.4117Z" fill="#444B8C"/>
<path fill-rule="evenodd" clip-rule="evenodd" d="M49.1426 2.24617V0.899902H49.6651V2.24617H49.1426ZM49.1426 7.63124V4.93871H49.6651V7.63124H49.1426ZM49.1426 11.67V10.3238H49.6651V11.67H49.1426Z" fill="#444B8C"/>
<path fill-rule="evenodd" clip-rule="evenodd" d="M2.56689 40.2833H0.900391V39.7607H2.56689V40.2833ZM9.2329 40.2833H5.8999V39.7607H9.2329V40.2833ZM15.8989 40.2833H12.5659V39.7607H15.8989V40.2833ZM20.8984 40.2833H19.2319V39.7607H20.8984V40.2833Z" fill="#444B8C"/>
<path fill-rule="evenodd" clip-rule="evenodd" d="M75.9761 49.9653H99.0908V50.4879H76.3482C73.5818 58.3585 67.4858 64.6715 59.7353 67.7011L59.7159 67.753V80.1979H59.1934V67.6582L59.3283 67.2985L59.4376 67.2562C67.1541 64.2766 73.2158 57.9858 75.9155 50.1416L75.9761 49.9653Z" fill="#444B8C"/>
<path fill-rule="evenodd" clip-rule="evenodd" d="M59.1934 0H59.7159V14.3438C66.848 17.1215 72.61 22.7057 75.6155 29.7101H99.0651V30.2326H75.2694L75.202 30.0729C72.248 23.0697 66.492 17.492 59.3614 14.767L59.1934 14.7028V0Z" fill="#444B8C"/>
<path fill-rule="evenodd" clip-rule="evenodd" d="M39.4605 0V14.6768L39.2929 14.7412C32.1362 17.4918 26.4057 23.0441 23.4259 30.0733L23.3568 30.2364L22.0002 30.2069H0V29.6844H22.0058L23.0146 29.7063C26.0451 22.6787 31.7822 17.1202 38.938 14.3184V0H39.4605Z" fill="#444B8C"/>
<path fill-rule="evenodd" clip-rule="evenodd" d="M0 49.9653H22.6522L22.7128 50.1418C25.4123 58.0112 31.525 64.3275 39.2667 67.2816L39.4348 67.3457V80.1979H38.9123V67.705C31.1632 64.6912 25.04 58.3648 22.2797 50.4879H0V49.9653Z" fill="#444B8C"/>
</svg>
