<svg width="100" height="82" viewBox="0 0 100 82" fill="none" xmlns="http://www.w3.org/2000/svg">
<path fill-rule="evenodd" clip-rule="evenodd" d="M49.6538 36.3009C47.181 36.3009 45.1764 38.3055 45.1764 40.7783C45.1764 43.2511 47.181 45.2557 49.6538 45.2557C52.1266 45.2557 54.1312 43.2511 54.1312 40.7783C54.1312 38.3055 52.1266 36.3009 49.6538 36.3009ZM44.7852 40.7783C44.7852 38.0894 46.9649 35.9097 49.6538 35.9097C52.3427 35.9097 54.5225 38.0894 54.5225 40.7783C54.5225 43.4672 52.3427 45.647 49.6538 45.647C46.9649 45.647 44.7852 43.4672 44.7852 40.7783Z" fill="#444B8C"/>
<path fill-rule="evenodd" clip-rule="evenodd" d="M23.0258 41.0752H0V40.5859H23.0258V41.0752Z" fill="#444B8C"/>
<path fill-rule="evenodd" clip-rule="evenodd" d="M99.8046 41.0752H76.1523V40.5859H99.8046V41.0752Z" fill="#444B8C"/>
<path fill-rule="evenodd" clip-rule="evenodd" d="M1.00074 48.2586H0V47.8652H1.00074V48.2586ZM5.00371 48.2586H3.00222V47.8652H5.00371V48.2586ZM9.00667 48.2586H7.00519V47.8652H9.00667V48.2586ZM13.0096 48.2586H11.0082V47.8652H13.0096V48.2586ZM17.0126 48.2586H15.0111V47.8652H17.0126V48.2586ZM21.0156 48.2586H19.0141V47.8652H21.0156V48.2586ZM24.0178 48.2586H23.0171V47.8652H24.0178V48.2586Z" fill="#444B8C"/>
<path fill-rule="evenodd" clip-rule="evenodd" d="M76.1627 33.744H75.1348V33.3506H76.1627V33.744ZM80.2744 33.744H78.2186V33.3506H80.2744V33.744ZM84.3862 33.744H82.3303V33.3506H84.3862V33.744ZM88.4979 33.744H86.4421V33.3506H88.4979V33.744ZM92.6097 33.744H90.5538V33.3506H92.6097V33.744ZM96.7214 33.744H94.6655V33.3506H96.7214V33.744ZM99.8052 33.744H98.7773V33.3506H99.8052V33.744Z" fill="#444B8C"/>
<path fill-rule="evenodd" clip-rule="evenodd" d="M0 55.1011H27.4664L27.5387 55.2128C29.5297 58.2898 32.1678 60.9024 35.2206 62.8944L35.3315 62.9668V81.5565H34.8422V63.2314C31.8177 61.2367 29.1969 58.6409 27.2006 55.5904H0V55.1011Z" fill="#444B8C"/>
<path fill-rule="evenodd" clip-rule="evenodd" d="M71.7114 55.1011H99.8041V55.5904H71.9767C70.0075 58.5884 67.4386 61.1576 64.4658 63.1267V81.5304H63.9766V62.8627L64.0871 62.7902C67.0873 60.8246 69.6736 58.2382 71.6391 55.2125L71.7114 55.1011Z" fill="#444B8C"/>
<path fill-rule="evenodd" clip-rule="evenodd" d="M63.9766 0.0268555H64.4658V18.5095C67.4124 20.4776 69.9555 23.021 71.9238 25.9929H99.8041V26.4822H71.6598L71.5874 26.3716C69.6217 23.3713 67.061 20.8106 64.0863 18.8447L63.9766 18.7722V0.0268555Z" fill="#444B8C"/>
<path fill-rule="evenodd" clip-rule="evenodd" d="M35.3054 0V18.6673L35.1953 18.7398C32.1679 20.7322 29.5552 23.3193 27.5638 26.3452L27.4913 26.4554H0V25.9661H27.2279C29.2231 22.9672 31.818 20.3977 34.8161 18.404V0H35.3054Z" fill="#444B8C"/>
<path fill-rule="evenodd" clip-rule="evenodd" d="M49.9248 67.4067V81.5563H49.4355V67.4067H49.9248Z" fill="#444B8C"/>
<path fill-rule="evenodd" clip-rule="evenodd" d="M49.9248 0.0268555V14.2809H49.4355V0.0268555H49.9248Z" fill="#444B8C"/>
<path fill-rule="evenodd" clip-rule="evenodd" d="M56.7402 67.3124V66.3628H57.1336V67.3124H56.7402ZM56.7402 71.1109V69.2116H57.1336V71.1109H56.7402ZM56.7402 74.9093V73.0101H57.1336V74.9093H56.7402ZM56.7402 78.7078V76.8086H57.1336V78.7078H56.7402ZM56.7402 81.5566V80.607H57.1336V81.5566H56.7402Z" fill="#444B8C"/>
<path fill-rule="evenodd" clip-rule="evenodd" d="M42.1992 0.976471V0.0268555H42.5926V0.976471H42.1992ZM42.1992 4.77494V2.8757H42.5926V4.77494H42.1992ZM42.1992 8.5734V6.67417H42.5926V8.5734H42.1992ZM42.1992 12.3719V10.4726H42.5926V12.3719H42.1992ZM42.1992 15.2207V14.2711H42.5926V15.2207H42.1992Z" fill="#444B8C"/>
<path fill-rule="evenodd" clip-rule="evenodd" d="M69.9121 48.285C69.5415 48.285 69.1789 48.3323 68.8317 48.4231L68.7322 48.0425C69.1119 47.9432 69.508 47.8916 69.9121 47.8916H70.8462V48.285H69.9121ZM74.5827 48.285H72.7144V47.8916H74.5827V48.285ZM78.3191 48.285H76.4509V47.8916H78.3191V48.285ZM82.0556 48.285H80.1874V47.8916H82.0556V48.285ZM85.792 48.285H83.9238V47.8916H85.792V48.285ZM89.5285 48.285H87.6603V47.8916H89.5285V48.285ZM93.265 48.285H91.3967V47.8916H93.265V48.285ZM97.0014 48.285H95.1332V47.8916H97.0014V48.285ZM99.8038 48.285H98.8697V47.8916H99.8038V48.285ZM66.2972 50.3532C66.4823 50.0323 66.7055 49.7437 66.9592 49.491L66.2972 50.3532ZM64.5964 52.8422C64.1755 53.3648 63.7276 53.8648 63.2548 54.3402L62.9759 54.0628C63.439 53.5972 63.8777 53.1073 64.2901 52.5954L64.5964 52.8422ZM61.7641 55.6899C61.2449 56.1128 60.703 56.509 60.1405 56.8765L59.9254 56.5471C60.4763 56.1872 61.0071 55.7992 61.5157 55.3849L61.7641 55.6899ZM58.4013 57.8862C57.8067 58.1907 57.194 58.4651 56.5653 58.7072L56.4239 58.3401C57.0397 58.103 57.6397 57.8343 58.2219 57.5361L58.4013 57.8862ZM54.653 59.3296C54.01 59.5017 53.3536 59.6414 52.6857 59.7465L52.6245 59.3579C53.2787 59.2549 53.9216 59.1182 54.5512 58.9496L54.653 59.3296ZM50.6857 59.9547C50.3525 59.9719 50.0171 59.9806 49.6797 59.9806V59.5872C50.0104 59.5872 50.339 59.5787 50.6654 59.5618L50.6857 59.9547Z" fill="#444B8C"/>
<path fill-rule="evenodd" clip-rule="evenodd" d="M30.5307 41.8292C30.5129 41.49 30.5039 41.1484 30.5039 40.8047H30.8973C30.8973 41.1415 30.9061 41.4762 30.9235 41.8086L30.5307 41.8292ZM31.1772 45.868C30.9991 45.2139 30.8547 44.5458 30.746 43.8658L31.1344 43.8037C31.2409 44.4698 31.3823 45.1241 31.5567 45.7646L31.1772 45.868ZM32.6698 49.6764C32.3549 49.0733 32.0712 48.4513 31.8208 47.8123L32.1871 47.6688C32.4323 48.2945 32.7101 48.9037 33.0185 49.4944L32.6698 49.6764ZM34.9403 53.079C34.5032 52.5553 34.0937 52.0078 33.7138 51.4387L34.041 51.2203C34.4131 51.7778 34.8142 52.314 35.2423 52.827L34.9403 53.079ZM37.8814 55.9218C37.3419 55.5019 36.8256 55.0535 36.3348 54.5791L36.6082 54.2963C37.089 54.761 37.5946 55.2001 38.1231 55.6114L37.8814 55.9218ZM40.4476 57.6066C40.1477 57.4426 39.8526 57.2708 39.5628 57.0914L39.7698 56.7569C40.0539 56.9327 40.343 57.1011 40.637 57.2618L40.6385 57.2626L40.6385 57.2626C40.9311 57.4259 41.1968 57.6246 41.4311 57.8516L41.1574 58.1341C40.9477 57.9309 40.7098 57.753 40.4476 57.6066ZM42.1734 60.5147C42.1734 60.2149 42.1323 59.9212 42.0544 59.6399L42.4335 59.5348C42.5208 59.8499 42.5668 60.179 42.5668 60.5149V60.5152L42.5655 61.5777L42.1721 61.5772L42.1734 60.5149C42.1734 60.5149 42.1734 60.5148 42.1734 60.5147ZM42.1669 65.8273L42.1695 63.7023L42.5629 63.7028L42.5603 65.8278L42.1669 65.8273ZM42.1617 70.0774L42.1643 67.9524L42.5577 67.9529L42.5551 70.0779L42.1617 70.0774ZM42.1565 74.3276L42.1591 72.2025L42.5524 72.203L42.5498 74.328L42.1565 74.3276ZM42.1512 78.5777L42.1539 76.4526L42.5472 76.4531L42.5446 78.5781L42.1512 78.5777ZM42.1473 81.7652L42.1486 80.7027L42.542 80.7032L42.5407 81.7657L42.1473 81.7652Z" fill="#444B8C"/>
<path fill-rule="evenodd" clip-rule="evenodd" d="M56.7402 1.05414V0.0268555H57.1336V1.05414H56.7402ZM56.7402 5.16327V3.1087H57.1336V5.16327H56.7402ZM56.7402 9.2724V7.21783H57.1336V9.2724H56.7402ZM56.7402 13.3815V11.327H57.1336V13.3815H56.7402ZM56.7402 17.4907V15.4361H57.1336V17.4907H56.7402ZM56.7402 20.5725V19.5452H57.1336V20.5725C57.1336 20.9418 57.1822 21.3035 57.2746 21.6501L56.8945 21.7514C56.7934 21.3721 56.7402 20.9764 56.7402 20.5725ZM59.004 24.5274C58.6573 24.3235 58.3429 24.0772 58.0661 23.7971L58.3459 23.5206C58.5988 23.7766 58.886 24.0015 59.2026 24.1879C59.4935 24.3547 59.7796 24.529 60.0607 24.7106L59.8472 25.041C59.5716 24.863 59.2911 24.6921 59.0059 24.5285L59.004 24.5274ZM62.9091 27.5102C62.4439 27.0468 61.9544 26.6077 61.4429 26.1952L61.6899 25.889C62.2121 26.3101 62.7117 26.7584 63.1867 27.2315L62.9091 27.5102ZM65.3916 30.5617C65.0319 30.0107 64.6441 29.4798 64.2302 28.9711L64.5353 28.7228C64.9578 29.2422 65.3538 29.7842 65.721 30.3466L65.3916 30.5617ZM67.185 34.0626C66.9477 33.4472 66.6788 32.8473 66.3804 32.265L66.7305 32.0856C67.0352 32.6802 67.3097 33.2927 67.552 33.921L67.185 34.0626ZM68.2053 37.8608C68.102 37.2071 67.9648 36.5644 67.7956 35.9347L68.1755 35.8326C68.3483 36.4757 68.4884 37.1319 68.5939 37.7993L68.2053 37.8608ZM68.4359 40.8049C68.4359 40.4744 68.4273 40.1458 68.4103 39.8195L68.8031 39.799C68.8205 40.1322 68.8292 40.4676 68.8292 40.8049V40.818L68.4359 40.8179V40.8049ZM68.4359 40.8441L68.8292 40.844V40.8568L68.4359 40.8571V40.8441Z" fill="#444B8C"/>
<path fill-rule="evenodd" clip-rule="evenodd" d="M49.6542 22.0482C49.3237 22.0482 48.9952 22.0567 48.6688 22.0737L48.6483 21.6809C48.9815 21.6635 49.3169 21.6548 49.6542 21.6548V22.0482ZM46.7101 22.2787C46.0564 22.382 45.4137 22.5192 44.784 22.6884L44.6819 22.3085C45.325 22.1357 45.9812 21.9956 46.6487 21.8901L46.7101 22.2787ZM42.9119 23.299C42.2965 23.5363 41.6966 23.8052 41.1143 24.1036L40.9349 23.7535C41.5295 23.4488 42.142 23.1743 42.7703 22.932L42.9119 23.299ZM39.411 25.0924C38.86 25.4521 38.3291 25.8399 37.8204 26.2539L37.5721 25.9487C38.0915 25.5262 38.6335 25.1302 39.1959 24.763L39.411 25.0924ZM36.3595 27.5749C35.8961 28.0402 35.457 28.5296 35.0445 29.0411L34.7383 28.7941C35.1595 28.2719 35.6077 27.7723 36.0808 27.2973L36.3595 27.5749ZM33.8903 30.6368C33.7123 30.9124 33.5414 31.1929 33.3778 31.4781L33.3768 31.48C33.1728 31.8267 32.9266 32.1411 32.6464 32.4179L32.3699 32.1381C32.6259 31.8853 32.8508 31.598 33.0372 31.2814C33.204 30.9905 33.3783 30.7044 33.5599 30.4234L33.8903 30.6368ZM30.6007 33.5895C30.2215 33.6906 29.8257 33.7438 29.4218 33.7438H28.5024V33.3504H29.4218C29.7912 33.3504 30.1528 33.3018 30.4994 33.2094L30.6007 33.5895ZM0.919432 33.7438H0V33.3504H0.919432V33.7438ZM4.59716 33.7438H2.75829V33.3504H4.59716V33.7438ZM8.27488 33.7438H6.43602V33.3504H8.27488V33.7438ZM11.9526 33.7438H10.1137V33.3504H11.9526V33.7438ZM15.6303 33.7438H13.7915V33.3504H15.6303V33.7438ZM19.3081 33.7438H17.4692V33.3504H19.3081V33.7438ZM22.9858 33.7438H21.1469V33.3504H22.9858V33.7438ZM26.6635 33.7438H24.8246V33.3504H26.6635V33.7438Z" fill="#444B8C"/>
<path fill-rule="evenodd" clip-rule="evenodd" d="M48.737 28.8183C49.0485 28.7941 49.3634 28.7817 49.681 28.7817C49.9987 28.7817 50.3135 28.7941 50.6251 28.8183L50.5946 29.2105C50.2932 29.187 49.9885 29.1751 49.681 29.1751C49.3736 29.1751 49.0689 29.187 48.7675 29.2105L48.737 28.8183ZM52.4888 29.1114C53.1069 29.2593 53.7064 29.4549 54.2833 29.6941L54.1326 30.0575C53.5747 29.8261 52.9949 29.637 52.3972 29.494L52.4888 29.1114ZM45.0788 29.6941C45.6557 29.4549 46.2552 29.2593 46.8733 29.1114L46.9649 29.494C46.3671 29.637 45.7874 29.8261 45.2295 30.0575L45.0788 29.6941ZM55.9638 30.552C56.5018 30.8824 57.0118 31.2539 57.4894 31.6622L57.2338 31.9612C56.7717 31.5662 56.2784 31.2068 55.758 30.8872L55.9638 30.552ZM41.8727 31.6622C42.3503 31.2539 42.8602 30.8824 43.3982 30.552L43.6041 30.8872C43.0837 31.2068 42.5903 31.5662 42.1283 31.9612L41.8727 31.6622ZM58.8234 32.9962C59.2317 33.4738 59.6032 33.9838 59.9336 34.5218L59.5984 34.7276C59.2788 34.2072 58.9194 33.7139 58.5244 33.2518L58.8234 32.9962ZM39.4285 34.5218C39.7588 33.9838 40.1304 33.4738 40.5386 32.9962L40.8376 33.2518C40.4426 33.7139 40.0832 34.2072 39.7637 34.7276L39.4285 34.5218ZM60.7915 36.2023C61.0307 36.7792 61.2263 37.3788 61.3742 37.9969L60.9916 38.0884C60.8486 37.4907 60.6595 36.9109 60.4281 36.353L60.7915 36.2023ZM37.9879 37.9969C38.1357 37.3788 38.3314 36.7792 38.5706 36.2023L38.9339 36.353C38.7026 36.9109 38.5134 37.4907 38.3704 38.0884L37.9879 37.9969ZM61.6674 39.8606C61.6916 40.1721 61.7039 40.4869 61.7039 40.8046C61.7039 41.1223 61.6916 41.4371 61.6674 41.7486L61.2752 41.7181C61.2986 41.4167 61.3105 41.1121 61.3105 40.8046C61.3105 40.4971 61.2986 40.1924 61.2752 39.891L61.6674 39.8606ZM37.6582 40.8046C37.6582 40.4869 37.6705 40.1721 37.6947 39.8606L38.0869 39.891C38.0635 40.1924 38.0516 40.4971 38.0516 40.8046C38.0516 41.1121 38.0635 41.4167 38.0869 41.7181L37.6947 41.7486C37.6705 41.4371 37.6582 41.1223 37.6582 40.8046ZM61.3742 43.6123C61.2263 44.2304 61.0307 44.83 60.7915 45.4068L60.4281 45.2562C60.6595 44.6983 60.8486 44.1185 60.9916 43.5208L61.3742 43.6123ZM38.5706 45.4068C38.3314 44.83 38.1357 44.2304 37.9879 43.6123L38.3704 43.5208C38.5134 44.1185 38.7026 44.6983 38.9339 45.2562L38.5706 45.4068ZM59.9336 47.0874C59.6032 47.6254 59.2317 48.1354 58.8234 48.613L58.5244 48.3574C58.9194 47.8953 59.2788 47.402 59.5984 46.8815L59.9336 47.0874ZM40.5386 48.613C40.1304 48.1354 39.7588 47.6254 39.4285 47.0874L39.7637 46.8815C40.0832 47.402 40.4426 47.8953 40.8376 48.3574L40.5386 48.613ZM57.4894 49.947C57.0118 50.3553 56.5018 50.7268 55.9638 51.0572L55.758 50.722C56.2784 50.4024 56.7717 50.043 57.2338 49.648L57.4894 49.947ZM43.3982 51.0572C42.8602 50.7268 42.3503 50.3553 41.8727 49.947L42.1283 49.648C42.5903 50.043 43.0837 50.4024 43.6041 50.722L43.3982 51.0572ZM46.8733 52.4978C46.2552 52.3499 45.6557 52.1543 45.0788 51.9151L45.2295 51.5517C45.7874 51.783 46.3671 51.9722 46.9649 52.1152L46.8733 52.4978ZM54.2833 51.9151C53.7064 52.1543 53.1069 52.3499 52.4888 52.4978L52.3972 52.1152C52.9949 51.9722 53.5747 51.783 54.1326 51.5517L54.2833 51.9151ZM49.681 52.8274C49.3634 52.8274 49.0485 52.8151 48.737 52.7909L48.7675 52.3987C49.0689 52.4221 49.3736 52.4341 49.681 52.4341C49.9885 52.4341 50.2932 52.4221 50.5946 52.3987L50.6251 52.7909C50.3135 52.8151 49.9987 52.8274 49.681 52.8274Z" fill="#444B8C"/>
</svg>
