<svg width="100" height="81" viewBox="0 0 100 81" fill="none" xmlns="http://www.w3.org/2000/svg">
<path fill-rule="evenodd" clip-rule="evenodd" d="M51.5019 0.0761719L51.6053 15.0972L51.0839 15.1008L50.9805 0.0797616L51.5019 0.0761719Z" fill="#444B8C"/>
<path fill-rule="evenodd" clip-rule="evenodd" d="M43.8481 2.20776L43.8438 1.03572L44.2629 1.03418L44.2672 2.20622L43.8481 2.20776ZM43.8653 6.89592L43.8567 4.55184L44.2759 4.5503L44.2845 6.89438L43.8653 6.89592ZM43.8825 11.5841L43.8739 9.24L44.2931 9.23846L44.3017 11.5825L43.8825 11.5841ZM43.8954 15.1002L43.8911 13.9282L44.3103 13.9266L44.3146 15.0987L43.8954 15.1002Z" fill="#444B8C"/>
<path fill-rule="evenodd" clip-rule="evenodd" d="M0.854998 26.9253L24.6405 34.4746L24.4828 34.9716L0.697266 27.4223L0.854998 26.9253Z" fill="#444B8C"/>
<path fill-rule="evenodd" clip-rule="evenodd" d="M1.88205 35.2706L0.791016 34.9228L0.918312 34.5234L2.00934 34.8712L1.88205 35.2706ZM6.24617 36.6615L4.06411 35.966L4.1914 35.5666L6.37346 36.2621L6.24617 36.6615ZM10.6103 38.0524L8.42822 37.357L8.55552 36.9576L10.7376 37.653L10.6103 38.0524ZM14.9744 39.4434L12.7923 38.7479L12.9196 38.3485L15.1017 39.044L14.9744 39.4434ZM19.3385 40.8343L17.1565 40.1388L17.2838 39.7394L19.4658 40.4349L19.3385 40.8343ZM22.6116 41.8775L21.5206 41.5298L21.6479 41.1304L22.7389 41.4781L22.6116 41.8775Z" fill="#444B8C"/>
<path fill-rule="evenodd" clip-rule="evenodd" d="M24.8926 80.4099L34.8463 66.5264L35.27 66.8302L25.3163 80.7137L24.8926 80.4099Z" fill="#444B8C"/>
<path fill-rule="evenodd" clip-rule="evenodd" d="M41.5098 70.3941L40.8764 71.2753L40.536 71.0306L41.1694 70.1494L41.5098 70.3941ZM39.6095 73.0376L38.3427 74.8L38.0023 74.5553L39.2691 72.793L39.6095 73.0376ZM37.0758 76.5624L35.809 78.3248L35.4686 78.0801L36.7355 76.3177L37.0758 76.5624ZM34.5422 80.0871L33.9087 80.9683L33.5684 80.7236L34.2018 79.8424L34.5422 80.0871Z" fill="#444B8C"/>
<path fill-rule="evenodd" clip-rule="evenodd" d="M79.2377 80.6641L67.6035 64.8416L68.0236 64.5327L79.6578 80.3552L79.2377 80.6641Z" fill="#444B8C"/>
<path fill-rule="evenodd" clip-rule="evenodd" d="M74.6945 62.2987L74.1074 61.5015L74.445 61.2529L75.0321 62.0501L74.6945 62.2987ZM77.0429 65.4873L75.8687 63.893L76.2062 63.6444L77.3804 65.2387L77.0429 65.4873ZM79.3913 68.676L78.2171 67.0816L78.5546 66.833L79.7288 68.4274L79.3913 68.676ZM81.7397 71.8646L80.5655 70.2703L80.903 70.0217L82.0772 71.616L81.7397 71.8646ZM84.0881 75.0532L82.9139 73.4589L83.2514 73.2103L84.4256 74.8046L84.0881 75.0532ZM86.4365 78.2419L85.2623 76.6475L85.5998 76.399L86.774 77.9933L86.4365 78.2419ZM88.1978 80.6333L87.6107 79.8362L87.9482 79.5876L88.5353 80.3848L88.1978 80.6333Z" fill="#444B8C"/>
<path fill-rule="evenodd" clip-rule="evenodd" d="M99.6709 27.2914L78.3415 34.3495L78.1777 33.8545L99.5071 26.7964L99.6709 27.2914Z" fill="#444B8C"/>
<path fill-rule="evenodd" clip-rule="evenodd" d="M99.6538 19.668L98.6714 19.9933L98.5396 19.5953L99.522 19.27L99.6538 19.668ZM96.7065 20.6439L94.7416 21.2946L94.6098 20.8967L96.5747 20.246L96.7065 20.6439ZM92.7767 21.9453L90.8118 22.5959L90.68 22.198L92.6449 21.5473L92.7767 21.9453ZM88.8469 23.2466L86.882 23.8972L86.7502 23.4993L88.7151 22.8486L88.8469 23.2466ZM84.9171 24.5479L82.9522 25.1985L82.8205 24.8006L84.7854 24.1499L84.9171 24.5479ZM80.9874 25.8492L79.0225 26.4998L78.8907 26.1019L80.8556 25.4512L80.9874 25.8492ZM77.0576 27.1505L76.0751 27.4758L75.9434 27.0779L76.9258 26.7525L77.0576 27.1505Z" fill="#444B8C"/>
<path fill-rule="evenodd" clip-rule="evenodd" d="M51.7864 37.2323C48.4892 37.2323 45.8163 39.9052 45.8163 43.2024C45.8163 46.4996 48.4892 49.1725 51.7864 49.1725C55.0836 49.1725 57.7565 46.4996 57.7565 43.2024C57.7565 39.9052 55.0836 37.2323 51.7864 37.2323ZM45.2949 43.2024C45.2949 39.6173 48.2013 36.7109 51.7864 36.7109C55.3716 36.7109 58.2779 39.6173 58.2779 43.2024C58.2779 46.7875 55.3716 49.6939 51.7864 49.6939C48.2013 49.6939 45.2949 46.7875 45.2949 43.2024Z" fill="#444B8C"/>
<path fill-rule="evenodd" clip-rule="evenodd" d="M50.6599 28.9205C51.0311 28.8916 51.4063 28.877 51.7848 28.877C52.1633 28.877 52.5385 28.8916 52.9097 28.9205L52.8772 29.3384C52.5168 29.3104 52.1525 29.2961 51.7848 29.2961C51.4171 29.2961 51.0528 29.3104 50.6924 29.3384L50.6599 28.9205ZM55.1303 29.2698C55.8668 29.446 56.5812 29.679 57.2686 29.9641L57.108 30.3513C56.4409 30.0747 55.7476 29.8485 55.0328 29.6774L55.1303 29.2698ZM46.301 29.9641C46.9884 29.679 47.7028 29.446 48.4392 29.2698L48.5368 29.6774C47.822 29.8485 47.1287 30.0747 46.4616 30.3513L46.301 29.9641ZM42.4808 32.3091C43.0498 31.8226 43.6575 31.3799 44.2986 30.9863L44.5179 31.3435C43.8956 31.7256 43.3057 32.1554 42.7531 32.6278L42.4808 32.3091ZM59.271 30.9863C59.9121 31.3799 60.5197 31.8226 61.0888 32.3091L60.8164 32.6278C60.2639 32.1554 59.674 31.7256 59.0517 31.3435L59.271 30.9863ZM39.5683 35.7165C39.962 35.0754 40.4047 34.4678 40.8912 33.8987L41.2098 34.1711C40.7375 34.7236 40.3077 35.3136 39.9255 35.9359L39.5683 35.7165ZM62.6784 33.8987C63.1649 34.4678 63.6076 35.0754 64.0012 35.7165L63.644 35.9359C63.2619 35.3136 62.8321 34.7236 62.3598 34.1711L62.6784 33.8987ZM37.8518 39.8572C38.028 39.1207 38.2611 38.4063 38.5461 37.7189L38.9333 37.8795C38.6567 38.5466 38.4305 39.2399 38.2595 39.9547L37.8518 39.8572ZM65.0234 37.7189C65.3085 38.4063 65.5416 39.1207 65.7178 39.8572L65.3101 39.9547C65.1391 39.24 64.9129 38.5466 64.6362 37.8795L65.0234 37.7189ZM37.459 43.2027C37.459 42.8242 37.4737 42.4491 37.5025 42.0779L37.9204 42.1103C37.8924 42.4707 37.8782 42.835 37.8782 43.2027C37.8782 43.5704 37.8924 43.9347 37.9204 44.2951L37.5025 44.3276C37.4737 43.9564 37.459 43.5813 37.459 43.2027ZM66.067 42.0779C66.0959 42.4491 66.1106 42.8242 66.1106 43.2027C66.1106 43.5813 66.0959 43.9564 66.067 44.3276L65.6491 44.2951C65.6771 43.9347 65.6914 43.5704 65.6914 43.2027C65.6914 42.835 65.6771 42.4707 65.6491 42.1103L66.067 42.0779ZM65.7178 46.5483C65.5416 47.2848 65.3085 47.9991 65.0234 48.6865L64.6362 48.5259C64.9129 47.8588 65.1391 47.1655 65.3101 46.4507L65.7178 46.5483ZM38.5461 48.6865C38.2611 47.9991 38.028 47.2848 37.8518 46.5483L38.2595 46.4507C38.4305 47.1655 38.6567 47.8588 38.9333 48.526L38.5461 48.6865ZM64.0012 50.689C63.6076 51.33 63.1649 51.9377 62.6784 52.5068L62.3598 52.2344C62.8321 51.6819 63.2619 51.0919 63.644 50.4696L64.0012 50.689ZM40.8912 52.5068C40.4047 51.9377 39.962 51.33 39.5683 50.689L39.9255 50.4696C40.3077 51.0919 40.7375 51.6819 41.2098 52.2344L40.8912 52.5068ZM61.0888 54.0963C60.5197 54.5828 59.9121 55.0255 59.271 55.4192L59.0517 55.062C59.674 54.6798 60.2639 54.2501 60.8164 53.7777L61.0888 54.0963ZM44.2986 55.4192C43.6575 55.0255 43.0498 54.5828 42.4808 54.0963L42.7531 53.7777C43.3057 54.2501 43.8956 54.6798 44.5179 55.062L44.2986 55.4192ZM48.4392 57.1357C47.7028 56.9595 46.9884 56.7264 46.301 56.4414L46.4616 56.0542C47.1287 56.3308 47.822 56.557 48.5368 56.728L48.4392 57.1357ZM57.2686 56.4414C56.5812 56.7264 55.8668 56.9595 55.1303 57.1357L55.0328 56.728C55.7476 56.557 56.4409 56.3308 57.108 56.0542L57.2686 56.4414ZM51.7848 57.5285C51.4063 57.5285 51.0311 57.5139 50.6599 57.485L50.6924 57.0671C51.0528 57.0951 51.4171 57.1093 51.7848 57.1093C52.1525 57.1093 52.5168 57.0951 52.8772 57.0671L52.9097 57.485C52.5385 57.5139 52.1633 57.5285 51.7848 57.5285Z" fill="#444B8C"/>
<path fill-rule="evenodd" clip-rule="evenodd" d="M40.2721 61.2898C39.9616 61.091 39.6567 60.8842 39.3574 60.6699L39.6016 60.3291C39.8949 60.5393 40.1939 60.7419 40.4982 60.9368L40.2721 61.2898ZM44.2156 63.2696C43.523 63.0084 42.8478 62.7121 42.192 62.3829L42.3801 62.0082C43.0229 62.331 43.6847 62.6214 44.3635 62.8774L44.2156 63.2696ZM48.4839 64.3882C47.7495 64.2754 47.0279 64.1254 46.3207 63.9402L46.427 63.5347C47.1201 63.7162 47.8276 63.8632 48.5476 63.9738L48.4839 64.3882ZM55.4422 64.3254C55.8188 64.2586 56.1972 64.2489 56.5673 64.2909L55.4422 64.3254ZM56.5673 64.2909L56.6146 63.8744L56.5673 64.2909ZM56.6146 63.8744C56.2054 63.8279 55.7864 63.8386 55.3689 63.9126L56.6146 63.8744ZM55.3689 63.9126L55.3688 63.9127L55.3689 63.9126ZM55.4421 64.3254C55.1424 64.3787 54.8395 64.4251 54.5337 64.4648L54.4797 64.0491C54.7792 64.0102 55.0757 63.9648 55.3688 63.9127M51.7859 64.6389C51.4154 64.6389 51.0471 64.6296 50.6814 64.6112L50.7025 64.1925C51.0612 64.2106 51.4224 64.2197 51.7859 64.2197C52.0878 64.2197 52.3881 64.2135 52.6864 64.2012L52.7037 64.62C52.3996 64.6326 52.0935 64.6389 51.7859 64.6389ZM59.4251 65.9497C59.1984 65.6435 58.9321 65.3723 58.6362 65.1417L58.8938 64.811C59.2193 65.0647 59.5126 65.3633 59.7623 65.7007L59.7626 65.7011L60.438 66.6189L60.1004 66.8674L59.4253 65.95C59.4252 65.9499 59.4251 65.9498 59.4251 65.9497ZM62.8021 70.5387L61.4513 68.703L61.7889 68.4546L63.1397 70.2902L62.8021 70.5387ZM65.5038 74.2099L64.153 72.3743L64.4906 72.1258L65.8415 73.9614L65.5038 74.2099ZM68.2056 77.8811L66.8547 76.0455L67.1923 75.7971L68.5432 77.6327L68.2056 77.8811ZM70.2319 80.6346L69.5564 79.7168L69.8941 79.4683L70.5695 80.3861L70.2319 80.6346Z" fill="#444B8C"/>
<path fill-rule="evenodd" clip-rule="evenodd" d="M99.5012 34.9217L98.5144 35.2502L98.382 34.8525L99.3688 34.5239L99.5012 34.9217ZM96.5409 35.9073L94.5674 36.5644L94.435 36.1667L96.4085 35.5096L96.5409 35.9073ZM92.5939 37.2216L90.6204 37.8787L90.488 37.481L92.4615 36.8238L92.5939 37.2216ZM88.6469 38.5358L86.6734 39.1929L86.541 38.7952L88.5145 38.1381L88.6469 38.5358ZM84.6999 39.85L82.7264 40.5072L82.5939 40.1094L84.5674 39.4523L84.6999 39.85ZM80.7529 41.1643L78.7794 41.8214L78.6469 41.4237L80.6204 40.7665L80.7529 41.1643ZM76.8058 42.4785L75.8192 42.807C75.8191 42.8071 75.8192 42.807 75.8192 42.807C75.4527 42.9292 75.1106 43.0998 74.7999 43.3109L74.5643 42.9642C74.9065 42.7317 75.2833 42.5438 75.6866 42.4094L76.6734 42.0808L76.8058 42.4785ZM73.0389 46.1277C73.0937 45.7447 73.201 45.3784 73.3538 45.0364L73.0389 46.1277ZM72.3695 49.2342C72.1685 49.9162 71.9348 50.5838 71.6702 51.2354L71.2818 51.0776C71.5413 50.4389 71.7704 49.7843 71.9674 49.1157L72.3695 49.2342ZM70.7763 53.1575C70.4459 53.7848 70.0855 54.3936 69.6971 54.9819L69.3473 54.7509C69.7281 54.1741 70.0815 53.5772 70.4054 52.9621L70.7763 53.1575ZM68.4436 56.6912C67.9976 57.2406 67.5252 57.7672 67.0284 58.2692L66.7304 57.9743C67.2176 57.4821 67.6808 56.9657 68.1182 56.427L68.4436 56.6912ZM65.4649 59.7005C65.1928 59.9259 64.9151 60.1447 64.6321 60.3566L64.3809 60.021C64.6584 59.8133 64.9306 59.5988 65.1974 59.3777L65.4649 59.7005Z" fill="#444B8C"/>
<path fill-rule="evenodd" clip-rule="evenodd" d="M58.3294 1.92363L58.3242 0.959279L58.7434 0.957031L58.7486 1.92138L58.3294 1.92363ZM58.3501 5.78101L58.3397 3.85232L58.7589 3.85007L58.7693 5.77877L58.3501 5.78101ZM58.3708 9.6384L58.3604 7.70971L58.7796 7.70746L58.7899 9.63616L58.3708 9.6384ZM58.3914 13.4958L58.3811 11.5671L58.8003 11.5649L58.8106 13.4935L58.3914 13.4958ZM58.4121 17.3532L58.4018 15.4245L58.821 15.4222L58.8313 17.3509L58.4121 17.3532ZM58.4276 20.2451L58.4225 19.2819L58.8417 19.2796L58.8468 20.2451C58.8468 20.6342 58.9024 21.0142 59.0074 21.3763L58.6047 21.493C58.489 21.0937 58.4277 20.6746 58.4276 20.2457C58.4276 20.2455 58.4276 20.2453 58.4276 20.2451ZM60.9751 24.3113C60.5916 24.1229 60.2415 23.8844 59.9319 23.6058L60.2123 23.2942C60.4934 23.5472 60.8112 23.7637 61.1593 23.9348C61.4749 24.0877 61.7861 24.2482 62.0927 24.4161L61.8914 24.7838C61.5907 24.6191 61.2855 24.4617 60.9761 24.3118L60.9751 24.3113ZM65.2871 27.1055C64.7615 26.6645 64.214 26.2489 63.6465 25.8608L63.8831 25.5148C64.462 25.9107 65.0204 26.3345 65.5565 26.7843L65.2871 27.1055ZM68.1659 30.0446C67.7349 29.509 67.2784 28.9951 66.7982 28.5047L67.0977 28.2114C67.5874 28.7115 68.053 29.2356 68.4925 29.7818L68.1659 30.0446ZM70.4212 33.4854C70.1015 32.8755 69.753 32.283 69.3774 31.71L69.728 31.4802C70.111 32.0646 70.4664 32.6687 70.7925 33.2908L70.4212 33.4854ZM71.6507 36.3178C71.5371 35.9928 71.4159 35.6715 71.2872 35.354L71.6756 35.1965C71.8069 35.5204 71.9306 35.8481 72.0464 36.1795L71.6507 36.3178Z" fill="#444B8C"/>
<path fill-rule="evenodd" clip-rule="evenodd" d="M1.51612 19.8816L0.53125 19.5657L0.659283 19.1665L1.64415 19.4824L1.51612 19.8816ZM5.45559 21.1452L3.48585 20.5134L3.61389 20.1142L5.58362 20.746L5.45559 21.1452ZM9.39506 22.4088L7.42533 21.777L7.55336 21.3778L9.5231 22.0096L9.39506 22.4088ZM51.351 22.1869C51.0087 22.1945 50.6684 22.2103 50.3303 22.2339L50.301 21.8158C50.6457 21.7916 50.9926 21.7756 51.3416 21.7678L51.351 22.1869ZM48.3019 22.4744C47.6252 22.588 46.9595 22.7336 46.3065 22.9097L46.1973 22.505C46.8634 22.3254 47.5424 22.1768 48.2325 22.061L48.3019 22.4744ZM13.3345 23.6724L11.3648 23.0406L11.4928 22.6414L13.4626 23.2732L13.3345 23.6724ZM44.3629 23.5369C43.7229 23.7784 43.0979 24.0501 42.4896 24.3502L42.3041 23.9743C42.9245 23.6682 43.5621 23.391 44.2149 23.1447L44.3629 23.5369ZM17.274 24.936L15.3043 24.3042L15.4323 23.905L17.402 24.5368L17.274 24.936ZM40.7044 25.342C40.1245 25.7021 39.5638 26.0896 39.0239 26.5026L38.7692 26.1696C39.3198 25.7484 39.8918 25.3532 40.4832 24.9859L40.7044 25.342ZM21.2135 26.1996L19.2437 25.5678L19.3718 25.1686L21.3415 25.8004L21.2135 26.1996ZM25.153 27.4632L23.1832 26.8314L23.3113 26.4322L25.281 27.064L25.153 27.4632ZM37.464 27.8208C37.2148 28.053 36.9714 28.2913 36.734 28.5353L36.7336 28.5356C36.4319 28.844 36.0936 29.1027 35.7303 29.3093L35.5232 28.9448C35.8528 28.7575 36.1598 28.5227 36.4338 28.2427M29.0924 28.7268L27.1227 28.095L27.2507 27.6958L29.2205 28.3276L29.0924 28.7268ZM32.0458 29.6741L31.0622 29.3586L31.1902 28.9594L32.1764 29.2758C32.5484 29.3977 32.9294 29.4653 33.3089 29.4808L33.2918 29.8996C32.8743 29.8826 32.4553 29.8083 32.0465 29.6743C32.0462 29.6742 32.046 29.6742 32.0458 29.6741Z" fill="#444B8C"/>
<path fill-rule="evenodd" clip-rule="evenodd" d="M31.6916 37.009C31.6138 37.2588 31.5408 37.5102 31.4729 37.7633L31.068 37.6545C31.1374 37.3961 31.2119 37.1394 31.2914 36.8843L31.6916 37.009ZM31.1251 39.2949C31.0296 39.8073 30.9534 40.3256 30.8965 40.8493L30.4797 40.804C30.5378 40.2698 30.6156 39.741 30.713 39.2181L31.1251 39.2949ZM30.7842 42.4171C30.775 42.6779 30.7704 42.94 30.7704 43.2033C30.7704 43.6265 30.783 44.0467 30.808 44.4635L30.3895 44.4885C30.3641 44.0634 30.3512 43.6348 30.3512 43.2033C30.3512 42.9351 30.3558 42.6681 30.3652 42.4023L30.7842 42.4171ZM31.1095 46.9655C31.2616 47.8 31.4631 48.6168 31.7103 49.4129L31.31 49.5372C31.0578 48.7252 30.8523 47.8919 30.6971 47.0407L31.1095 46.9655ZM32.6011 51.7704C32.7735 52.155 32.957 52.5333 33.151 52.9049L33.1513 52.9055C33.3448 53.2791 33.484 53.6709 33.5694 54.07L33.1595 54.1578C33.0819 53.7952 32.9554 53.4389 32.7794 53.0989M33.4193 56.5193C33.2842 56.906 33.095 57.2771 32.852 57.6213L32.8512 57.6225L32.2621 58.4452L31.9213 58.2011L32.5096 57.3796C32.5097 57.3794 32.5098 57.3792 32.5099 57.379C32.7299 57.0672 32.9013 56.7312 33.0236 56.3811L33.4193 56.5193ZM31.0839 60.0906L29.9057 61.736L29.5649 61.4919L30.7431 59.8465L31.0839 60.0906ZM28.7275 63.3814L27.5493 65.0268L27.2085 64.7828L28.3867 63.1373L28.7275 63.3814ZM26.3711 66.6722L25.1929 68.3176L24.8521 68.0736L26.0303 66.4282L26.3711 66.6722ZM24.0147 69.963L22.8365 71.6084L22.4957 71.3644L23.6739 69.719L24.0147 69.963ZM21.6583 73.2539L20.4801 74.8993L20.1393 74.6552L21.3175 73.0098L21.6583 73.2539ZM19.3019 76.5447L18.1237 78.1901L17.7829 77.946L18.9611 76.3006L19.3019 76.5447ZM16.9456 79.8355L16.3565 80.6582L16.0156 80.4142L16.6047 79.5915L16.9456 79.8355Z" fill="#444B8C"/>
<path fill-rule="evenodd" clip-rule="evenodd" d="M24.1117 49.5352H24.3021L24.3504 49.7345C24.7605 51.426 25.324 53.0905 26.0404 54.6511L26.1161 54.8161L25.9769 54.955L7.78837 80.326L7.36462 80.0223L25.5008 54.7243C24.8218 53.2197 24.282 51.6262 23.8809 50.0089L0.775391 42.6501L0.933616 42.1533L24.1117 49.5352Z" fill="#444B8C"/>
<path fill-rule="evenodd" clip-rule="evenodd" d="M54.8633 71.0562L54.9989 71.2596L61.9242 80.6915L61.504 81L54.6066 71.6062C53.6405 71.7003 52.6733 71.7473 51.6828 71.7473C50.9785 71.7473 50.2966 71.7247 49.6161 71.6794L42.9494 80.9974L42.5254 80.694L49.219 71.3384L49.3525 71.1383L49.5038 71.1491C50.2215 71.2003 50.9392 71.2259 51.6828 71.2259C52.7082 71.2259 53.7076 71.1747 54.707 71.0722L54.8633 71.0562Z" fill="#444B8C"/>
<path fill-rule="evenodd" clip-rule="evenodd" d="M79.4446 48.6689L99.352 42.0762L99.516 42.5711L79.6731 49.1425C79.3202 50.7889 78.8278 52.389 78.1956 53.9207L96.0503 78.1835L95.6303 78.4925L77.7668 54.2177L77.7654 54.2158L77.5996 53.9948L77.6574 53.8571C78.3229 52.2701 78.8351 50.6055 79.1938 48.8889L79.2245 48.7423L79.4446 48.6689Z" fill="#444B8C"/>
<path fill-rule="evenodd" clip-rule="evenodd" d="M65.5112 18.1764L65.4336 0.00222535L65.955 0L66.0326 18.1764L66.0326 18.3881C67.4833 19.2343 68.8409 20.1971 70.1272 21.2759L99.2997 11.5947L99.4639 12.0896L70.2398 21.7879L69.9972 21.8485L69.8952 21.7622C68.5621 20.6342 67.1529 19.6351 65.6417 18.7642L65.5112 18.689V18.1764Z" fill="#444B8C"/>
<path fill-rule="evenodd" clip-rule="evenodd" d="M37.0249 0.181152L37.1283 18.9266L37.1283 19.1233L37.0051 19.1998C35.5194 20.122 34.1356 21.1726 32.8537 22.3262L32.7506 22.419L32.5047 22.3575L0.515625 12.1686L0.673863 11.6718L32.6106 21.844C33.8487 20.7398 35.1807 19.7291 36.6064 18.834L36.5035 0.184029L37.0249 0.181152Z" fill="#444B8C"/>
</svg>
