<svg width="38" height="32" viewBox="0 0 38 32" fill="none" xmlns="http://www.w3.org/2000/svg"><path d="M18.448 9.793c1.928-1.632 2.536-2.336 2.536-3.616 0-1.632-1.319-2.816-2.976-2.816-1.623 0-2.874 1.056-3.55 3.008L11.21 5.057C12.226 1.824 14.761 0 18.177 0c3.754 0 6.832 2.464 6.832 5.92 0 2.05-1.082 3.553-3.28 5.41-1.962 1.632-2.605 2.272-2.605 3.264v.928h-3.517s-.033-1.088-.033-1.6c0-1.44.98-2.592 2.874-4.129ZM18.972 17.247h-3.45v3.45h3.45v-3.45Z" fill="currentColor"/><path opacity=".3" d="M33.299 31.311h-9.53a1.711 1.711 0 0 1-1.6-1.06l-1.576-3.838h-5.87a.58.58 0 0 1-.407-.152l-2.058-1.868-2.49 1.919a.614.614 0 0 1-.763 0l-2.21-1.742L4.1 26.286c-.254.152-.584.127-.788-.1l-3.176-3.51a.532.532 0 0 1-.026-.682l2.694-3.66a.545.545 0 0 1 .457-.228H20.62l1.575-3.585c.28-.631.89-1.035 1.576-1.035h9.96c.535 0 1.017.202 1.399.58 1.067 1.06 2.871 3.56 2.871 8.231 0 4.823-2.135 7.423-3.38 8.534-.38.303-.838.48-1.321.48Zm-18.423-5.883h6.378l1.83 4.444a.747.747 0 0 0 .686.454h9.529a.903.903 0 0 0 .66-.252c1.144-1.01 3.05-3.384 3.05-7.827 0-4.318-1.626-6.59-2.592-7.55a1.023 1.023 0 0 0-.712-.302H23.77a.747.747 0 0 0-.687.454l-1.83 4.166H3.467l-2.364 3.206 2.745 3.03L6.49 23.56a.613.613 0 0 1 .711.025l2.186 1.742 2.49-1.944a.618.618 0 0 1 .788.025l2.21 2.02Z" fill="currentColor"/><path opacity=".3" d="M32.23 24.19c.997 0 1.805-.802 1.805-1.792s-.808-1.793-1.804-1.793c-.997 0-1.804.803-1.804 1.793 0 .99.807 1.793 1.804 1.793Z" fill="currentColor"/></svg>