<svg width="30" height="34" viewBox="0 0 30 34" fill="none" xmlns="http://www.w3.org/2000/svg"><path d="M23.091 33.143c.152-.261.305-.512.457-.773.892-1.49 1.437-3.09 1.589-4.81.087-1-.12-1.99-.414-2.948-.38-1.23-.881-2.415-1.664-3.46-.25-.337-.534-.63-.99-.783-.871 3.514-2.47 6.604-5.104 9.205v-1.056c-.01-1.197-.413-2.285-.957-3.307-.62-1.165-1.284-2.318-2.035-3.406a7.772 7.772 0 0 1-1.382-4.004c-.098-1.425-.087-2.862-.12-4.287 0-.174 0-.348-.065-.533-1.62 2.72-3.231 5.43-3.612 8.726-.337-.566-.642-1.11-1.35-1.306.055.262.11.48.153.697.272 1.382-.022 2.666-.653 3.895a17.446 17.446 0 0 1-.881 1.502c-.599.924-.74 1.904-.49 2.96.294 1.316.925 2.47 1.676 3.644-.13-.022-.218-.022-.272-.054-2.1-1.164-3.993-2.579-5.419-4.538C.775 27.43.176 26.256.035 24.895c-.13-1.23.109-2.372.653-3.47.5-1.013 1.055-2.003 1.153-3.145.065-.86.011-1.73.011-2.59.38.109.522.229 1.175 1.066.348.446.664.903 1.034 1.393.054-.152.109-.261.12-.37.565-3.95 2.371-7.312 4.874-10.337 2.274-2.752 4.962-5.08 7.79-7.246.066-.055.153-.087.316-.196-.065.174-.087.25-.12.316-.805 1.305-1.077 2.741-1.196 4.243-.142 1.817.141 3.558.74 5.288.99 2.862 1.555 5.81 1.436 8.857-.022.544-.109 1.077-.163 1.621-.022.174-.033.36-.055.533.033.022.076.033.109.055.229-.348.49-.697.696-1.056 1.295-2.274 1.959-4.755 2.242-7.322.141-1.252.141-2.525.206-3.82.403.066.74.36 1.078.653 1.12.99 1.915 2.22 2.568 3.547.729 1.458 1.327 2.982 1.643 4.592.01.065.054.13.12.294.37-.936.968-1.589 1.74-2.22-.065.381-.109.686-.174.99-.218 1.001-.054 1.937.36 2.862.434.98.968 1.926 1.24 2.949.642 2.448.522 4.863-.958 7.04-.87 1.273-2.078 2.165-3.427 2.872-.664.348-1.36.653-2.035.968-.065-.054-.087-.087-.12-.12Z" fill="currentColor"/></svg>