<svg width="38" height="17" viewBox="0 0 38 17" fill="none" xmlns="http://www.w3.org/2000/svg"><path d="M17.49 7.156c.873-.778 1.141-1.111 1.141-1.711 0-.778-.604-1.334-1.342-1.334-.738 0-1.297.49-1.61 1.422l-1.454-.622c.47-1.533 1.61-2.378 3.131-2.378 1.7 0 3.087 1.178 3.087 2.8 0 .978-.47 1.69-1.476 2.556-.873.778-1.186 1.067-1.186 1.556v.444h-1.588s-.022-.511-.022-.755c0-.712.447-1.267 1.32-1.978ZM17.803 10.733h-1.565v1.556h1.565v-1.556Z" fill="currentColor"/><path opacity=".4" d="M29.77 16.756a3.61 3.61 0 0 1-3.624-3.6c0-1.978 1.633-3.6 3.623-3.6a3.61 3.61 0 0 1 3.623 3.6 3.61 3.61 0 0 1-3.623 3.6Zm0-6.6a2.988 2.988 0 0 0-2.998 2.978 2.988 2.988 0 0 0 2.997 2.978 2.988 2.988 0 0 0 2.997-2.978c.023-1.623-1.342-2.978-2.997-2.978ZM6.866 16.934a3.61 3.61 0 0 1-3.623-3.6c0-2 1.633-3.6 3.623-3.6 1.991 0 3.624 1.622 3.624 3.6s-1.633 3.6-3.624 3.6Zm0-6.6a2.988 2.988 0 0 0-2.997 2.978 2.988 2.988 0 0 0 2.997 2.977 2.988 2.988 0 0 0 2.998-2.978c0-1.622-1.342-2.977-2.998-2.977Z" fill="currentColor"/><path opacity=".4" d="M2.326 14.133c-.47-.044-1.275-.177-1.655-.622-.425-.51-.626-1.2-.649-1.222L0 12.245V12.2C.045 9.69.201 9.556.29 9.467c.113-.111.426-.356.627-.511C.895 8.489.85 7.91.805 7.71c0-.022-.022-.066-.022-.11-.134-.423-.336-1.09.537-2.312.827-1.178 3.108-2.822 3.645-3.2l.157-.489.09-.067C5.3 1.467 7.715.09 14.157 0h.335c1.879 0 3.445.222 3.579.244 3.847.956 8.454 3.956 9.08 4.356 2.46.467 5.033 1.178 7.627 2.111 1.432.511 1.879 1.2 2.103 1.734.156.377.425.733.738.977.38.311.358 1.2.335 1.578l-.022.178-.224.111v1.045l.291.31-.09.178c-.022.067-.268.578-.715.8-.09.045-.336.178-1.857.245-.425.022-.85.044-1.118.044l-.38.023.067-.4c.157-1.134-.157-2.245-.872-3.156A4.102 4.102 0 0 0 30.172 8.8c-.157-.022-.313-.022-.47-.022a4.146 4.146 0 0 0-2.818 1.089 4.187 4.187 0 0 0-1.409 3.11c0 .223.022.468.067.69l.067.355-9.751.09h-4.921l.045-.356v-.067c.268-2.222-1.32-4.311-3.579-4.622-.201-.022-.402-.045-.626-.045a4.189 4.189 0 0 0-2.773 1.023 4.221 4.221 0 0 0-1.454 3.177c0 .178.022.356.044.534l.045.377h-.313Zm4.54-5.688c.246 0 .47.022.716.044a4.8 4.8 0 0 1 4.115 5.044h5.033l8.208-.066c-.022-.133-.022-.289-.022-.422a4.79 4.79 0 0 1 1.61-3.578 4.8 4.8 0 0 1 3.243-1.245c.18 0 .358 0 .537.023a4.743 4.743 0 0 1 3.288 1.822c.738.955 1.118 2.11 1.029 3.289.223 0 .492-.022.76-.045 1.364-.066 1.588-.178 1.61-.178a.755.755 0 0 0 .314-.333l-.157-.178.023-1.688.245-.112c0-.466-.067-.822-.111-.889a3.398 3.398 0 0 1-.917-1.222c-.202-.444-.537-.978-1.745-1.4-2.594-.933-5.144-1.644-7.582-2.11l-.067-.023-.045-.045c-.045-.022-4.965-3.31-8.924-4.31A27.19 27.19 0 0 0 14.605.6h-.335C8.723.689 6.263 1.733 5.726 2l-.157.444-.09.067c-.022.022-2.75 1.911-3.578 3.111-.693.978-.559 1.467-.447 1.778.022.067.022.111.045.156.089.355.111 1.466.111 1.533v.156l-.134.088c-.134.112-.514.378-.648.512-.068.222-.112 1.222-.135 2.288.045.134.224.623.515.956.112.133.425.267.85.333v-.2c0-1.4.604-2.733 1.677-3.644.828-.711 1.968-1.133 3.131-1.133Z" fill="currentColor"/></svg>