<svg width="40" height="28" viewBox="0 0 40 28" fill="none" xmlns="http://www.w3.org/2000/svg"><path d="M40 24.683c-1.173-2.2-3.227-3.445-5.12-4.876.266-1.749.56-3.577.8-5.273.32-2.332.373-4.69-.054-7.023-.24-1.325-.667-2.597-1.6-3.577-.8-.822-1.627-1.617-2.56-2.28C29.517.225 27.277-.305 24.93.172c-2.64.556-4.694 2.12-6.294 4.266-1.067 1.431-1.387 3.154-1.494 4.903-.186 2.941.134 5.856.774 8.745.133.556.213 1.245.293 1.775-1.6.98-2.96 2.014-4.16 3.339-.214.238-.454.503-.614.768 1.52 1.22 5.2 3.18 13.122 3.18 7.841 0 11.762-1.51 13.442-2.464ZM20.157 12.467c-.24-.504-.187-1.034-.293-1.564-.214-1.219.8-2.385 2.187-2.57.133-.027.293 0 .453 0 1.147.026 2.187.344 3.2.821.614.292 1.067.239 1.68 0 .774-.318 1.601-.583 2.428-.768a3.276 3.276 0 0 1 1.52.026c1.627.45 2.214 1.537 1.92 3.074-.373 2.04-2.213 3.021-4.347 1.75-.48-.292-.853-.69-1.253-1.06-.827-.796-1.494-.796-2.268.052-.586.636-1.2 1.166-2.053 1.431-1.414.424-2.56.08-3.174-1.192Zm3.92 6.784c-.586-.477-.533-1.034.107-1.484.747-.53 3.868-.53 4.668 0 .693.477.72 1.14 0 1.59-.747.45-1.574.689-2.507.715-.774-.132-1.6-.291-2.267-.821ZM3.914 6.557.02 2.61s-.08-.16.08-.318l.693-.69S.687 1.285.9 1.046c.214-.238.694-.689.694-.689s.266-.159.48.053c0 0 .24-.238.346-.132l.614.61.213-.213.587.583-.213.212 8.16 8.215-1.653 1.802-.827.504s-.96-.53-1.813-1.378c-.854-.848-1.067-1.14-1.067-1.14l.187-.424-.374.133-.613-.742.187-.16-1.014-1.006s-1.307.848-1.493 1.802c-.16.874.08 1.351.08 1.351s-.214.133-.64.742c0 0-.32-.132-.48-.927-.16-.822 0-1.67.4-2.412.373-.61 1.253-1.272 1.253-1.272Z" fill="currentColor"/><path d="M8.928 21.238s-.826-.98-1.973-1.484c-1.147-.504-2.454-.822-3.76-2.04-1.308-1.246-1.921-1.856-1.094-3.26 0 0-.427-1.007.666-1.776 0 0-.186-1.033 1.014-1.563 0 0-.133-1.166.507-1.643.64-.477 1.173-.159 1.627.477.453.636 2.213 2.676 3.52 2.703 0 0 .4-.557.907.026.507.61.48 2.995.587 3.286.08.292.16.69 1.387 1.908l-3.388 3.366Z" fill="currentColor"/></svg>