<svg width="39" height="38" viewBox="0 0 39 38" fill="none" xmlns="http://www.w3.org/2000/svg"><path d="M29.534 30.226c.05-1.284-.203-2.57-.71-3.778-.609-1.41-2.054-3.426-3.524-5.466-.253-.353-.507-.73-.76-1.083h-.356l-.1-.025c-.812-.151-2.536-.504-3.702-2.066-1.014-1.36-.431-2.922.076-3.652l.025-.05a57.859 57.859 0 0 0-.279-.63c-.887-2.141-2.712-6.348-4.132-8.967C14.703 1.965 8.416.68 1.75.076 1.469.05 1.014.026.48 0v3.955c4.918.201 9.228.654 9.912.78 1.37.303 2.485 1.21 2.992 2.444l3.879 9.445s-2.941.454-7.58.832h-.026c-2.585.176-5.729.352-9.177.403V37.53h28.723l.355-4.786-.025-2.519Zm-5.502-.655c-1.47 2.52-5.222 3.325-7.3 3.577-.812.1-1.572-.378-1.572-.982-.026-1.033.253-2.695 1.8-4.51 1.495-1.712 2.864-3.097 3.751-3.928.558-.53 1.648-.48 2.18.075 1.141 1.26 2.51 3.45 1.141 5.768Z" fill="currentColor"/><path opacity=".4" d="M24.769 18.993c-.228 0-.457-.026-.685-.076-.887-.202-2.028-.58-2.864-1.688-.862-1.158.05-2.493.1-2.544l.026-.025c1.166-1.41 3.98-1.94 5.907-1.108 1.318.58 1.952 1.688 1.775 3.148-.254 1.94-2.992 2.242-4.133 2.267-.076.026-.1.026-.126.026Zm-2.992-3.98c-.076.1-.684 1.083-.101 1.889.71.957 1.724 1.284 2.535 1.46.203.051.431.076.634.051.786-.025 3.372-.227 3.574-1.788.203-1.511-.659-2.217-1.42-2.544-1.673-.705-4.208-.252-5.222.932Z" fill="currentColor"/><path d="M34.07 8.237c1.293-1.16 1.724-1.663 1.724-2.57 0-1.158-.887-1.99-2.003-1.99-1.09 0-1.926.73-2.408 2.116l-2.18-.932c.684-2.317 2.383-3.602 4.664-3.602 2.535 0 4.614 1.764 4.614 4.207 0 1.46-.71 2.519-2.205 3.829-1.319 1.158-1.775 1.612-1.775 2.317v.655h-2.383s-.025-.756-.025-1.134c.025-1.007.684-1.813 1.977-2.896ZM34.576 13.602H32.22v2.342h2.357v-2.342Z" fill="currentColor"/></svg>