<svg width="80" height="80" viewBox="0 0 80 80" fill="none" xmlns="http://www.w3.org/2000/svg"><path d="M37.183 35.797c-7.344-4.206-14.606-8.577-23.17-10.235V22c1.261.192 2.563.192 3.741.59 2.987 1.04 5.974 2.123 8.865 3.425 4.837 2.15 9.605 4.453 14.373 6.755 3.015 1.452 6.207 2.383 9.372 3.411 3.576 1.165 7.166 2.288 10.564 3.946 3.083 1.507 4.535 4.001 4.96 7.276.315 2.398-.082 4.727-.603 7.125-2.754.205-5.494.397-8.33.616.712-4.33-.411-7.92-3.727-10.66-2.398-1.986-5.22-2.754-8.317-2.384-5.796.713-10.742 6.166-9.208 13.222H14v-18.58c7.755.385 15.442-.56 23.183-.944Z" fill="currentColor"/><path d="M44.17 51.308h-3.028c-.233-2.206 1.535-4.357 3.837-4.522 1.096-.082 2.274-.04 3.288.288 3.22 1.055 3.22 4.988 1.823 6.755-.425.534-.864 1.069-1.357 1.535-.89.863-1.63 1.795-1.534 3.192h-2.782c-.068-1.548.274-2.932 1.384-4.083.466-.48.904-.96 1.37-1.439.603-.63.713-1.41.617-2.233-.096-.836-.644-1.356-1.48-1.452-.863-.096-1.672.37-1.946 1.178-.068.233-.11.48-.192.781ZM46.02 64.009c-.917 0-1.616-.671-1.616-1.576 0-.89.685-1.575 1.603-1.59.959-.013 1.658.686 1.644 1.618-.014.918-.685 1.548-1.63 1.548Z" fill="currentColor"/></svg>