<svg width="32" height="32" viewBox="0 0 32 32" fill="none" xmlns="http://www.w3.org/2000/svg"><path d="M31.5 29.01H.5a.5.5 0 0 0-.5.5v1.755a.5.5 0 0 0 .5.5h31a.5.5 0 0 0 .5-.5V29.51a.5.5 0 0 0-.5-.5ZM15.957 26.403H1.664c-1.387-.021-1.792-.7-1.088-1.865 1.685-2.799 3.37-5.575 5.077-8.373 3.05-5.066 6.123-10.132 9.195-15.198.79-1.293 1.493-1.293 2.304.021 4.714 7.8 9.43 15.558 14.144 23.359.085.127.17.254.235.381.49.912.106 1.59-.94 1.632-.853.021-1.706.022-2.58.022-4.032.02-8.043.02-12.054.02Zm13.12-1.993c-4.395-7.249-8.704-14.37-13.099-21.62A14618.34 14618.34 0 0 0 2.88 24.41h26.197Z" fill="currentColor"/><path d="M17.195 13.261c0 1.208.02 2.417 0 3.604-.022.847-.534 1.42-1.238 1.399-.704-.022-1.173-.552-1.173-1.378a413.608 413.608 0 0 1 0-7.27c0-.827.49-1.336 1.194-1.357.705 0 1.217.487 1.217 1.314.02 1.23 0 2.459 0 3.688ZM16.001 22.8c-.939.02-1.75-.743-1.77-1.675a1.715 1.715 0 0 1 1.685-1.76c.981-.02 1.856.764 1.856 1.696 0 .87-.854 1.717-1.77 1.738Z" fill="currentColor"/></svg>