<svg width="38" height="26" viewBox="0 0 38 26" fill="none" xmlns="http://www.w3.org/2000/svg"><path d="M32.456 23.988c0 .603.09 1.207.246 1.766h3.242a3.398 3.398 0 0 1-.515-1.766A3.306 3.306 0 0 1 38 20.769v-3.017a6.269 6.269 0 0 0-5.544 6.236Z" fill="currentColor"/><path d="M37.999 9.615v5.879c-4.359.38-7.779 4.023-7.779 8.471 0 .47.045.94.112 1.386l-22.375.157v-4.18l.179-.246.715-.626 1.52-.961c.983-.626 1.81-1.274 2.481-1.945 1.252-1.23 2.504-2.481 3.733-3.71l1.319-1.32c.09-.089.179-.178.246-.268.47-.58.737-1.296.782-2.034l2.347.403 1.52-1.252-1.162 1.788-2.258.045-.156 1.095h5.14a2.017 2.017 0 0 1-.2-.715c-.045-.425 0-1.028.514-1.52.357-.335.916-.514 1.698-.514.984 0 2.102.268 3.018.536a34.161 34.161 0 0 0-4.158-3.218l-1.117-.693c-.514-.313-1.073-.604-1.632-.894l-.045.022-1.989 1.185-.29 1.296-.045.09-.023.022-.871.894.603-1.028-.045-1.498V6.15l.135-.134 1.296-1.319a16.5 16.5 0 0 0-.939-.38C18.62 3.67 16.34 3.29 13.903 3.11l.85 1.833-.76 1.05.536 1.14-1.163-1.095.335-1.05-1.52-1.99a36.552 36.552 0 0 0-1.564-.044l.648 6.236c-1.006 1.006-2.034 2.012-3.018 3.04-.089.09-.156.179-.245.246l-.023-.313-.022-.179V.048C8.493.026 9.03.026 9.589.003c3.598-.044 6.907.38 7.197.447C24.431 2.373 33.73 8.676 33.73 8.676a94.13 94.13 0 0 1 4.269.939Z" fill="currentColor"/><path d="M7.98 12.185v.358c0-.022.021-.022.021-.045l-.022-.313ZM14.26 25.508l-1.52.022h1.52v-.022ZM8.874 19.249c1.386-1.14 2.75-2.325 3.085-2.638 1.699-1.676 3.375-3.353 5.074-5.052.045-.044.112-.111.156-.178.984-1.207.425-3.063-1.072-3.487-.895-.269-1.677 0-2.347.648-1.543 1.52-3.085 3.04-4.583 4.605-.313.335-1.676 1.9-2.995 3.42-.85 1.005-1.699 1.989-2.19 2.592-.224.269-.358.47-.425.56a193.33 193.33 0 0 0 2.146 2.123c.067-.045.268-.201.536-.425.604-.492 1.61-1.319 2.615-2.168ZM1.207 22.334c-.223-.224-.425-.403-.648-.604-.224.224-.403.403-.559.581l3.085 3.085c.178-.156.38-.335.603-.536-.223-.224-.402-.425-.67-.671.245-.201.447-.38.603-.514a160.763 160.763 0 0 0-1.945-1.922c-.111.156-.29.357-.469.58ZM2.972 20.478a9.777 9.777 0 0 0-.492.581l1.9 1.9c.18-.156.38-.335.582-.514a163.86 163.86 0 0 0-1.99-1.967Z" fill="currentColor"/></svg>