<svg width="42" height="53" viewBox="0 0 42 53" fill="none" xmlns="http://www.w3.org/2000/svg">
<path d="M41.7991 49.1565C39.7904 47.7405 39.5896 47.1336 39.3887 44.5038C39.3887 43.4924 38.7861 42.8855 38.3843 42.4809C37.9826 42.2786 37.7817 41.874 37.38 41.6718C36.5765 40.8626 35.5722 40.2557 34.7687 39.4466C33.7643 38.4351 33.1617 37.2214 33.1617 35.6031C33.1617 34.5916 32.9608 33.7824 32.76 33.1756C32.5591 32.771 32.3582 32.5687 32.1574 32.1641C32.5591 31.9618 32.9608 31.7595 33.1617 31.355C33.9652 30.5458 33.9652 29.5344 33.7643 28.7252C33.7643 28.7252 33.5634 28.1183 33.3626 28.5229C32.9608 29.1298 31.9565 30.5458 30.3495 30.3435H29.7469C29.3452 30.1412 28.7426 29.9389 28.14 29.7366C25.3278 29.1298 22.3147 28.3206 20.306 27.916C17.0921 27.1069 14.8825 24.2748 15.0834 21.2405C15.0834 19.8244 15.0834 18.4084 15.0834 16.9924C15.0834 16.5878 15.0834 16.3855 15.0834 15.9809C16.0877 15.7786 16.6903 15.1718 17.0921 14.3626L17.4938 13.5534H14.8825V13.3511C14.6816 11.7328 14.6816 10.5191 15.4851 9.30534C15.8869 8.0916 16.4895 7.08015 17.4938 6.0687C17.8956 5.66412 18.0964 5.46183 18.4982 5.05725C19.1008 4.45038 19.1008 4.0458 18.4982 3.43893C17.6947 2.42748 16.6903 1.61832 15.8869 0.60687C15.4851 0.40458 15.2843 0.20229 15.0834 0C14.4808 0.40458 14.079 0.80916 13.6773 1.21374C14.6816 2.22519 15.686 3.23664 16.6903 4.24809C16.0877 4.65267 15.686 5.05725 15.2843 5.46183L12.4721 2.83206L10.8651 4.0458C12.0703 5.05725 13.0747 6.0687 14.079 7.28244C13.6773 8.0916 13.2756 8.90076 12.8738 9.70992C11.6686 9.70992 10.6642 9.70992 9.65989 9.70992C9.05727 8.49618 8.65553 7.48473 8.05292 6.47328C7.45031 6.87786 6.8477 7.08015 6.44596 7.28244L7.65118 9.50763C7.04857 9.50763 6.44596 9.50763 6.04422 9.50763C5.44161 8.49618 5.03987 7.48473 4.43726 6.47328L3.03117 7.28244C3.63378 8.29389 4.03552 9.30534 4.43726 10.3168C4.839 11.3282 5.44161 11.5305 6.44596 11.5305C8.25379 11.5305 9.65989 11.5305 11.4677 11.5305C11.8695 11.5305 12.4721 11.7328 12.4721 11.7328C12.4721 12.1374 12.6729 13.3511 12.6729 13.958L5.64248 14.7672L5.84335 15.5763C6.24509 16.7901 7.24944 17.3969 7.85205 17.5992C8.25379 17.5992 8.45466 17.8015 8.65553 17.8015C8.85641 17.8015 9.25814 17.8015 9.45901 18.0038C9.65989 18.0038 9.86076 18.2061 9.86076 18.2061C9.86076 18.2061 9.86076 18.2061 9.86076 18.6107C9.86076 18.813 9.86076 19.2176 9.86076 19.4198C9.86076 19.8244 9.86076 20.229 9.86076 20.6336C10.0616 22.8588 9.65989 24.8817 8.8564 26.9046C8.65553 27.3092 8.45466 28.3206 8.25379 28.7252C8.25379 29.1298 8.05292 29.1298 8.05292 29.1298C7.85205 29.1298 5.03987 28.3206 4.839 28.1183C4.23639 27.916 3.83465 27.7137 3.03117 27.7137C2.8303 27.7137 2.62943 27.7137 2.42856 27.7137C1.62507 27.7137 0.821594 28.1183 0.419853 28.7252C0.0181125 29.3321 -0.182758 30.1412 0.218983 31.1527C0.419853 31.7595 0.620723 32.3664 0.821594 33.1756C1.02246 33.9847 1.4242 34.7939 1.62507 35.6031C2.02682 37.4237 3.03117 38.2328 4.23639 39.042C4.63813 39.4466 6.24509 40.8626 6.24509 40.8626L6.64683 39.6489C7.04857 38.2328 7.24944 37.8282 6.04422 37.0191C5.64248 36.6145 4.43726 36.4122 4.23639 36.0076C4.03552 34.9962 3.63378 32.9733 3.63378 31.9618C3.63378 31.5573 3.63378 31.5573 3.63378 31.5573C3.63378 31.5573 3.83465 31.5573 4.03552 31.5573C4.63813 31.7595 5.84335 32.1641 6.64683 32.5687C7.04857 32.771 7.65118 32.9733 8.05292 33.1756C8.65553 33.3779 9.05727 33.7824 9.45901 34.187C11.4677 36.6145 14.079 38.0305 17.293 38.0305C18.0964 38.0305 18.699 38.0305 19.5025 38.0305C20.306 38.0305 20.9086 38.0305 21.7121 38.0305C22.9173 38.0305 25.3278 38.0305 26.1312 38.0305L26.7339 39.042C28.14 41.4695 30.3495 43.0878 33.1617 44.0992L33.5635 44.3015C34.1661 44.5038 34.9695 44.9084 35.5722 45.1107C35.9739 45.313 36.9782 45.313 36.9782 45.9198C37.38 48.145 37.7817 49.1565 39.7904 50.9771C39.9913 51.1794 40.7948 52.3931 40.7948 52.3931L42 53V49.5611L41.7991 49.1565Z" fill="#444B8C"/>
</svg>
