<svg width="37" height="38" viewBox="0 0 37 38" fill="none" xmlns="http://www.w3.org/2000/svg">
<path d="M1.06453 8.75159L4.93981 7.1861C5.17646 5.93351 6.12711 4.93065 7.35046 4.61939L7.56005 2.2013C7.59 1.85637 7.82114 1.56195 8.14882 1.45145C8.47659 1.34096 8.83857 1.4352 9.07077 1.69179L10.0846 2.81144L10.7066 0.63146C10.8102 0.268437 11.1358 0.0135853 11.5126 0.000426648C11.8893 -0.0112807 12.2318 0.218898 12.3605 0.573988L17.7269 15.3978C21.5873 16.4015 24.9583 18.8749 27.0288 22.2406C28.9253 25.3234 29.5143 28.8553 28.6875 32.1856C28.2042 34.132 27.2867 35.4146 26.3481 36.2556H27.0863C27.0933 36.2556 27.1002 36.2557 27.1072 36.2559C30.5989 36.3411 33.8348 34.3534 35.3458 31.195C35.5533 30.7612 36.0727 30.5782 36.5059 30.7858C36.9391 30.9936 37.122 31.5136 36.9144 31.9473C35.1451 35.6459 31.3989 38 27.3203 38C27.239 38 10.7164 38 10.7164 38C10.236 38 9.84671 37.6102 9.84671 37.1292C9.84671 34.7852 11.7139 33.7169 13.3618 33.3247C12.5913 31.8206 12.5247 30.4978 12.6121 29.6324L12.3848 29.602L7.17227 37.6049C7.01167 37.8513 6.73772 37.9999 6.44377 37.9999H3.27863C2.96198 37.9999 2.67025 37.8275 2.51728 37.5499C2.36422 37.2723 2.37407 36.9333 2.54288 36.665C2.57651 36.6116 5.84437 31.4163 7.60111 28.5077V13.876C7.34253 13.9058 7.05216 13.9208 6.7957 13.9208C4.27277 13.9208 1.9 12.4956 0.622448 9.96856C0.621384 9.96653 0.588627 9.89803 0.583408 9.88487C0.403679 9.43893 0.619068 8.93145 1.06453 8.75159Z" fill="#444B8C"/>
</svg>
